<svg width="78" height="16" viewBox="0 0 78 16" fill="none" xmlns="http://www.w3.org/2000/svg">
    <path d="M37.824 0H24.159c-3.168 0-4.577 1.983-4.895 3.872V0H11.68c-1.058 0-1.569.321-2.08 1.057l-2.08 3.04h30.305V0zM0 16h5.44l6.816-11.009-4.864-.48L0 16zM43.105 0h-4.48v4.097h4.48V0zM71.54 6.4l-14.018-.832c0 2.145 1.41 3.586 3.81 3.776l9.983.766c.766.066 1.246.256 1.246.899 0 .608-.546.832-1.665.832H57.297V16h13.89c4.383 0 6.304-1.537 6.304-5.026 0-3.133-1.727-4.318-5.952-4.573z" fill="#2D2926"/>
    <path d="m57.344 5.568-4.415-.255v4.704c0 1.472-.735 1.921-3.295 1.921h-3.52c-2.11 0-3.008-.608-3.008-1.92v-5.15l-4.48-.322v5.855h-.097c-.256-1.696-.895-3.679-5.154-3.97L19.36 5.503c0 2.146 1.537 3.423 3.938 3.679l9.758.991c.767.062 1.344.287 1.344.93 0 .704-.577.766-1.472.766H19.2V5.471l-4.48-.286V16h18.237c4.062 0 5.375-2.11 5.569-3.872h.096C39.133 14.912 41.564 16 45.692 16h4.542c4.833 0 7.106-1.471 7.106-4.93V5.569h.004zM77.181 4.097V0h-15.04c-3.132 0-4.542 1.94-4.79 3.81a.339.339 0 0 0-.007.066V0h-4.415v4.097h24.252z" fill="#000000"/>
</svg>
