<svg width="24" height="24" viewBox="0 0 24 24" fill="none" xmlns="http://www.w3.org/2000/svg">
<path d="M7.99922 3.19995H4.79922C3.91522 3.19995 3.19922 3.91595 3.19922 4.79995V7.99995C3.19922 8.88395 3.91522 9.59995 4.79922 9.59995H7.99922C8.88322 9.59995 9.59922 8.88395 9.59922 7.99995V4.79995C9.59922 3.91595 8.88322 3.19995 7.99922 3.19995ZM7.99922 7.99995H4.79922V4.79995H7.99922V7.99995ZM7.19922 7.19995H5.59922V5.59995H7.19922V7.19995Z" fill="#4D4D4D"/>
<path d="M7.99922 14.4H4.79922C3.91522 14.4 3.19922 15.116 3.19922 16V19.2C3.19922 20.084 3.91522 20.8 4.79922 20.8H7.99922C8.88322 20.8 9.59922 20.084 9.59922 19.2V16C9.59922 15.116 8.88322 14.4 7.99922 14.4ZM7.99922 19.2H4.79922V16H7.99922V19.2ZM7.19922 18.4H5.59922V16.8H7.19922V18.4Z" fill="#4D4D4D"/>
<path d="M19.2004 3.19995H16.0004C15.1164 3.19995 14.4004 3.91595 14.4004 4.79995V7.99995C14.4004 8.88395 15.1164 9.59995 16.0004 9.59995H19.2004C20.0844 9.59995 20.8004 8.88395 20.8004 7.99995V4.79995C20.8004 3.91595 20.0844 3.19995 19.2004 3.19995ZM19.2004 7.99995H16.0004V4.79995H19.2004V7.99995ZM18.4004 7.19995H16.8004V5.59995H18.4004V7.19995Z" fill="#4D4D4D"/>
<path d="M12.7992 4.80005H11.1992V6.40005H12.7992V4.80005Z" fill="#4D4D4D"/>
<path d="M12.7992 8H11.1992V9.6H12.7992V8Z" fill="#4D4D4D"/>
<path d="M12.7992 11.2H11.1992V12.8H12.7992V11.2Z" fill="#4D4D4D"/>
<path d="M9.6 11.2H8V12.8H9.6V11.2Z" fill="#4D4D4D"/>
<path d="M6.40078 11.2H4.80078V12.8H6.40078V11.2Z" fill="#4D4D4D"/>
<path d="M16.0004 11.2H14.4004V12.8H16.0004V11.2Z" fill="#4D4D4D"/>
<path d="M19.1996 11.2H17.5996V12.8H19.1996V11.2Z" fill="#4D4D4D"/>
<path d="M14.4008 12.8H12.8008V14.4H14.4008V12.8Z" fill="#4D4D4D"/>
<path d="M17.6 12.8H16V14.4H17.6V12.8Z" fill="#4D4D4D"/>
<path d="M16.0004 14.4H14.4004V16H16.0004V14.4Z" fill="#4D4D4D"/>
<path d="M12.7992 14.4H11.1992V16H12.7992V14.4Z" fill="#4D4D4D"/>
<path d="M14.4008 16H12.8008V17.6H14.4008V16Z" fill="#4D4D4D"/>
<path d="M16.0004 17.6H14.4004V19.2H16.0004V17.6Z" fill="#4D4D4D"/>
<path d="M14.4008 19.2H12.8008V20.8H14.4008V19.2Z" fill="#4D4D4D"/>
<path d="M20.7992 12.8H19.1992V14.4H20.7992V12.8Z" fill="#4D4D4D"/>
<path d="M20.7992 16H19.1992V17.6H20.7992V16Z" fill="#4D4D4D"/>
<path d="M17.6 16H16V17.6H17.6V16Z" fill="#4D4D4D"/>
<path d="M17.6 19.2H16V20.8H17.6V19.2Z" fill="#4D4D4D"/>
<path d="M19.1996 17.6H17.5996V19.2H19.1996V17.6Z" fill="#4D4D4D"/>
<path d="M19.1996 14.4H17.5996V16H19.1996V14.4Z" fill="#4D4D4D"/>
<path d="M12.7992 17.6H11.1992V19.2H12.7992V17.6Z" fill="#4D4D4D"/>
</svg>
