<svg width="24" height="24" viewBox="0 0 24 24" fill="none" xmlns="http://www.w3.org/2000/svg">
<path d="M13.6045 7.05V7.59708L13.0598 7.64745C11.6387 7.77885 9.00325 8.22311 6.73849 9.70801C4.51058 11.1688 2.60451 13.6562 2.60451 18H2.60466L2.60435 18.0135C2.60244 18.0987 2.62779 18.1823 2.67672 18.2521C2.72508 18.3211 2.79398 18.373 2.87356 18.4005C2.95214 18.4256 3.03655 18.4257 3.11524 18.4009C3.19486 18.3758 3.26463 18.3264 3.31477 18.2596L3.32817 18.2418L3.34285 18.225C4.44032 16.9701 5.79775 15.9689 7.32091 15.2912C8.84269 14.614 10.4935 14.2758 12.1589 14.3H13.0045H13.6045V14.9V17.9986C13.605 18.0768 13.6285 18.1532 13.672 18.2183C13.7158 18.2836 13.7778 18.3347 13.8503 18.365C13.9229 18.3953 14.0028 18.4035 14.08 18.3887C14.1565 18.374 14.227 18.3373 14.2829 18.2831L21.2802 11.2857L21.282 11.284C21.3195 11.2468 21.3492 11.2026 21.3695 11.1538C21.3898 11.1051 21.4003 11.0528 21.4003 11C21.4003 10.9472 21.3898 10.8949 21.3695 10.8462C21.3492 10.7974 21.3195 10.7532 21.282 10.716L21.282 10.716L21.2802 10.7143L14.282 3.71599C14.2818 3.71577 14.2815 3.71555 14.2813 3.71534C14.2072 3.64214 14.1074 3.60077 14.0032 3.6C13.8976 3.60034 13.7964 3.64244 13.7217 3.71716C13.6466 3.79217 13.6045 3.89391 13.6045 4V7.05Z" stroke="black" stroke-width="1.2"/>
</svg>
