<svg id="圖層_1" data-name="圖層 1" xmlns="http://www.w3.org/2000/svg" viewBox="0 0 25 25"><defs><style>.cls-1{fill:#08fff0;stroke:#fff;stroke-miterlimit:10;stroke-width:0.25px;}</style></defs><title>customize_icon</title><path class="cls-1" d="M13.34,22.29H11.66a1.43,1.43,0,0,1-1.41-1.19L10,19.91a7.83,7.83,0,0,1-1-.42L8,20.2A1.45,1.45,0,0,1,6.2,20L5,18.85A1.42,1.42,0,0,1,4.86,17l.7-1A7.61,7.61,0,0,1,5.11,15L3.9,14.79a1.43,1.43,0,0,1-1.19-1.41V11.7a1.43,1.43,0,0,1,1.19-1.41l1.17-.2A7.69,7.69,0,0,1,5.51,9L4.8,8A1.43,1.43,0,0,1,5,6.2L6.15,5A1.46,1.46,0,0,1,8,4.86l1,.7A7.64,7.64,0,0,1,10,5.11l.21-1.21a1.43,1.43,0,0,1,1.41-1.19H13.3a1.43,1.43,0,0,1,1.41,1.19l.2,1.17a7.72,7.72,0,0,1,1.1.46l1-.7A1.45,1.45,0,0,1,18.83,5L20,6.17A1.42,1.42,0,0,1,20.18,8l-.7,1A7.81,7.81,0,0,1,19.91,10l1.19.2a1.41,1.41,0,0,1,1.18,1.41v1.67a1.43,1.43,0,0,1-1.19,1.41l-1.19.2A7.8,7.8,0,0,1,19.47,16l.7,1A1.43,1.43,0,0,1,20,18.83L18.83,20a1.45,1.45,0,0,1-1.84.15l-1-.7a7.81,7.81,0,0,1-1.06.44l-.2,1.19A1.43,1.43,0,0,1,13.34,22.29ZM9,18.9l.14.07a7.29,7.29,0,0,0,1.22.5l.15,0L10.74,21a.93.93,0,0,0,.92.77h1.68a.93.93,0,0,0,.92-.78l.25-1.49.15,0A7.36,7.36,0,0,0,15.91,19l.14-.07,1.23.88a.94.94,0,0,0,1.2-.1l1.19-1.19a.93.93,0,0,0,.1-1.2L18.88,16l.07-.14a7.25,7.25,0,0,0,.52-1.26l0-.15L21,14.26a.93.93,0,0,0,.77-.92V11.66a.91.91,0,0,0-.77-.92h0l-1.49-.25,0-.15A7.36,7.36,0,0,0,19,9.09L18.89,9l.88-1.23a.92.92,0,0,0-.1-1.19L18.48,5.34a.94.94,0,0,0-1.19-.1l-1.23.88L15.92,6a7.23,7.23,0,0,0-1.3-.54l-.15,0L14.22,4a.93.93,0,0,0-.92-.78H11.63a.93.93,0,0,0-.92.78l-.26,1.51-.15,0a7.15,7.15,0,0,0-1.25.53l-.14.07L7.69,5.26a1,1,0,0,0-1.19.1L5.31,6.55a.93.93,0,0,0-.1,1.2L6.09,9,6,9.13a7.11,7.11,0,0,0-.51,1.26l0,.15L4,10.78a.93.93,0,0,0-.78.92v1.68A.93.93,0,0,0,4,14.3l1.51.26,0,.15a7.1,7.1,0,0,0,.53,1.25l.07.14-.88,1.22a.92.92,0,0,0,.1,1.19l1.19,1.19a.94.94,0,0,0,1.19.1Z"/><circle class="cls-1" cx="12.5" cy="12.5" r="3.04"/><path class="cls-1" d="M20.89,11.56l-1.67-.28a.53.53,0,0,1-.43-.39,6.38,6.38,0,0,0-.69-1.67.54.54,0,0,1,0-.59l1-1.38a.11.11,0,0,0,0-.14L17.9,5.92a.11.11,0,0,0-.08,0l-.06,0-1.37,1a.54.54,0,0,1-.59,0,6.47,6.47,0,0,0-1.71-.7.54.54,0,0,1-.4-.43l-.28-1.66a.1.1,0,0,0-.1-.09H11.63a.1.1,0,0,0-.1.09l-.29,1.69a.55.55,0,0,1-.39.43,6.32,6.32,0,0,0-1.67.7.55.55,0,0,1-.59,0l-1.37-1-.06,0a.1.1,0,0,0-.08,0L5.9,7.13a.11.11,0,0,0,0,.14l1,1.39a.53.53,0,0,1,0,.58,6.37,6.37,0,0,0-.68,1.67.54.54,0,0,1-.43.4l-1.66.28a.1.1,0,0,0-.09.1v1.68a.1.1,0,0,0,.09.1l1.69.29a.55.55,0,0,1,.43.39,6.32,6.32,0,0,0,.7,1.67.55.55,0,0,1,0,.59l-1,1.37a.11.11,0,0,0,0,.14l1.19,1.19a.11.11,0,0,0,.08,0l.06,0,1.39-1A.52.52,0,0,1,9,18a.55.55,0,0,1,.27.07,6.62,6.62,0,0,0,1.63.67.53.53,0,0,1,.39.43l.28,1.67a.1.1,0,0,0,.1.09h1.68a.1.1,0,0,0,.1-.09l.28-1.67a.53.53,0,0,1,.39-.43,6.38,6.38,0,0,0,1.67-.69.54.54,0,0,1,.59,0l1.38,1,.06,0a.1.1,0,0,0,.08,0l1.19-1.19a.11.11,0,0,0,0-.14l-1-1.39a.54.54,0,0,1,0-.59,6.38,6.38,0,0,0,.69-1.67.53.53,0,0,1,.43-.39l1.67-.28a.1.1,0,0,0,.09-.1h0V11.66A.1.1,0,0,0,20.89,11.56ZM12.5,16.61a4.12,4.12,0,1,1,4.12-4.12A4.12,4.12,0,0,1,12.5,16.61Z"/></svg>