<svg id="圖層_1" data-name="圖層 1" xmlns="http://www.w3.org/2000/svg" viewBox="0 0 25 25"><defs><style>.cls-1{fill:#08fff0;stroke:#fff;stroke-miterlimit:10;stroke-width:0.25px;}</style></defs><title>game_icon</title><path class="cls-1" d="M23.24,13.53a13.26,13.26,0,0,0-1.81-6.91A2,2,0,0,0,21,6.16a3.56,3.56,0,0,0-3-.54,1.14,1.14,0,0,0-.38.29l-.83,1a1.66,1.66,0,0,1-1.23.6H9.33A1.66,1.66,0,0,1,8.11,7l-.83-1a1.12,1.12,0,0,0-.38-.29A3.38,3.38,0,0,0,6,5.52a3.68,3.68,0,0,0-2.07.66,2,2,0,0,0-.45.46,13.26,13.26,0,0,0-1.73,6.89c-.09,5.22.68,5.72,2,5.92S6.31,17,6.79,16l.08-.15a2.52,2.52,0,0,1,.81-.91A9.64,9.64,0,0,1,12.36,14h.29a9.64,9.64,0,0,1,4.7,1,2.5,2.5,0,0,1,.81.91l.08.15c.52,1,1.92,3.62,3.07,3.45S23.4,18.75,23.24,13.53ZM8,12.09a.19.19,0,0,1-.19.19H6.68v1.14a.19.19,0,0,1-.19.19H5.36a.19.19,0,0,1-.19-.19h0V12.28H4a.19.19,0,0,1-.19-.19V11A.19.19,0,0,1,4,10.77H5.17V9.62a.19.19,0,0,1,.19-.29H6.49a.19.19,0,0,1,.19.19v1.14H7.83a.19.19,0,0,1,.19.19ZM19.15,8.66a1,1,0,1,1-1,1,1,1,0,0,1,1-1h0Zm-1.64,3.55a1,1,0,1,1,1-1,1,1,0,0,1-1,1Zm1.64,1.51a1,1,0,1,1,1-1,1,1,0,0,1-1,1Zm1.64-1.51a1,1,0,1,1,1-1,1,1,0,0,1-1,1Z"/></svg>