<svg xmlns="http://www.w3.org/2000/svg" width="24" height="24" viewBox="0 0 24 24">
  <path fill="#08FFF0" d="M12,7.10542736e-15 C18.6274225,7.10542736e-15 24,5.37257747 24,12 C24,18.6274225 18.6274225,24 12,24 C5.37257747,24 5.32907052e-15,18.6274225 5.32907052e-15,12 C5.32907052e-15,5.37257747 5.37257747,7.10542736e-15 12,7.10542736e-15 Z M11.9874405,0.502697925 L11.92459,0.502697925 C8.52289474,0.512489895 5.30096088,2.03140599 3.12880117,4.64929616 C2.93329341,4.87916258 2.74879193,5.11816747 2.57591789,5.36550614 C-0.241480758,9.34133696 -0.236414728,14.6640985 2.58847742,18.6345994 C2.76441642,18.8733361 2.95286217,19.1246323 3.1413607,19.3508094 C5.31459408,21.9673139 8.53583994,23.4859057 11.9371496,23.4974076 L11.9371496,23.4974076 L12,23.4974076 C15.4016887,23.4875864 18.6236108,21.9686758 20.7957889,19.3508094 L20.7957889,19.3508094 L20.8334675,19.3508094 C21.0345255,19.1246323 21.2104645,18.9110147 21.3361126,18.6345994 C24.157258,14.6614071 24.157258,9.3386984 21.3361126,5.36550614 C21.1601736,5.12676948 20.9842874,4.87547329 20.7832293,4.64929616 C18.6110696,2.03140599 15.3891358,0.512489895 11.9874405,0.502697925 L11.9874405,0.502697925 Z M11.5225267,16.7120411 L11.5225267,22.5172891 C9.58746158,22.2533807 7.91625219,20.2680774 6.97381232,17.4156915 C8.4521435,16.9804894 9.98179595,16.7438642 11.5225267,16.7120411 L11.5225267,16.7120411 Z M12.4774733,16.7120411 C14.0050148,16.7426581 15.5218097,16.9750339 16.9884563,17.403132 C16.0460692,20.2429584 14.3999789,22.2282616 12.4774733,22.5172891 L12.4774733,22.5172891 Z M17.8554862,17.6544282 C18.6330624,17.9465347 19.3749853,18.3259231 20.0670194,18.7853138 C18.8038813,20.2931031 17.146308,21.4199007 15.2795683,22.0397631 C16.4780222,20.8061374 17.3615959,19.30191 17.8554862,17.6544282 Z M6.09422288,17.6544809 C6.58767219,19.2854805 7.46200173,20.7757134 8.6450217,22.0021372 C6.80912135,21.3821801 5.17902693,20.269363 3.93298065,18.7853666 C4.60994487,18.3306274 5.33468039,17.9514043 6.09422288,17.6544809 Z M5.21468621,12.8418581 C5.28118219,14.1808699 5.49609801,15.508364 5.85548622,16.7999578 C4.97207527,17.1203289 4.12876226,17.5419855 3.34241877,18.0564915 C2.25231187,16.5206476 1.5968115,14.71912 1.44503226,12.8418581 L1.44503226,12.8418581 Z M22.5298487,12.8419108 C22.3792796,14.7194366 21.7236658,16.5212759 20.6324622,18.0565443 C19.8462422,17.5418233 19.0029035,17.1201539 18.1193947,16.8000106 C18.4793517,15.5085416 18.6942778,14.1809837 18.7601947,12.8419108 L18.7601947,12.8419108 Z M11.5350862,12.8418581 L11.5350862,15.7696012 C9.89998931,15.8012561 8.2767711,16.0548889 6.7099566,16.5235425 C6.39539008,15.3194411 6.21004896,14.085243 6.15707331,12.8418581 L6.15707331,12.8418581 L11.5350862,12.8418581 Z M17.780129,12.8418581 C17.7297975,14.0805243 17.5486656,15.3103998 17.2397525,16.510983 C15.692428,16.0528685 14.0908333,15.8035355 12.4774733,15.7696012 L12.4774733,15.7696012 L12.4774733,12.8418581 Z M17.2398053,7.48901701 C17.6123523,8.93395561 17.802314,10.4198935 17.8052481,11.9120833 L17.8052481,11.9120833 L12.4775261,11.9120833 L12.4775261,8.23039882 C14.0910679,8.19853892 15.6929382,7.94916306 17.2398053,7.48901701 Z M6.72251613,7.4764047 C8.28511308,7.94471141 9.90413662,8.19834902 11.5350862,8.23034605 L11.5350862,8.23034605 L11.5350862,11.899471 L6.14451378,11.899471 C6.15058358,10.4066869 6.34478148,8.92061998 6.72251613,7.4764047 Z M20.5947836,5.93089619 C21.8297922,7.67756279 22.5006694,9.76035567 22.5172891,11.899471 L22.5172891,11.899471 L18.7476352,11.899471 C18.7318914,10.306487 18.5080226,8.72239196 18.0817161,7.18742991 C18.9657189,6.86843796 19.8091883,6.44670327 20.5947836,5.93089619 Z M3.3172997,5.91833665 C4.10363752,6.43285259 4.94695171,6.85450969 5.83036716,7.17487038 C5.42104724,8.71635914 5.2140822,10.3045634 5.21468621,11.899471 L5.21468621,11.899471 L1.44503226,11.899471 C1.44519806,9.76157543 2.09843623,7.6747447 3.3172997,5.91833665 Z M11.5225267,1.47015132 L11.5225267,7.28795894 C9.98187512,7.25523032 8.45234162,7.01862348 6.97381232,6.5843085 C7.92881173,3.73192258 9.58746158,1.74661935 11.5225267,1.47015132 L11.5225267,1.47015132 Z M12.4774733,1.48271085 C14.3874194,1.78429795 16.0335097,3.75709442 16.9758968,6.60942757 C15.5126009,7.03159759 14.0001897,7.25972607 12.4774733,7.28795894 L12.4774733,7.28795894 Z M8.63246217,1.99791554 C7.4551288,3.22651235 6.58533639,4.71634763 6.09422288,6.34557184 C5.32953232,6.05126358 4.60035256,5.67191946 3.92042111,5.21468621 C5.16733977,3.73165381 6.79714194,2.61903621 8.63246217,1.99791554 Z M15.2670088,1.96023694 C17.138903,2.57680272 18.801368,3.70396852 20.0670194,5.21468621 C19.3744247,5.67311802 18.6326132,6.05244941 17.8554862,6.34557184 C17.3574762,4.69707844 16.4695937,3.19284963 15.2670088,1.96023694 Z"/>
</svg>
