<svg id="圖層_1" data-name="圖層 1" xmlns="http://www.w3.org/2000/svg" viewBox="0 0 25 25"><defs><style>.cls-1{fill:#08fff0;stroke:#fff;stroke-miterlimit:10;stroke-width:0.25px;}</style></defs><title>earth-01</title><path class="cls-1" d="M8.29,16.1a14.37,14.37,0,0,1,3.84-.6V13.17H7.85A13.94,13.94,0,0,0,8.29,16.1Z"/><path class="cls-1" d="M12.12,20.87V16.25a13.83,13.83,0,0,0-3.62.56C9.25,19.08,10.58,20.66,12.12,20.87Z"/><path class="cls-1" d="M7.84,12.42h4.29V9.5a14.32,14.32,0,0,1-3.83-.6A14.14,14.14,0,0,0,7.84,12.42Z"/><path class="cls-1" d="M17.87,12.42h3a8.34,8.34,0,0,0-1.53-4.75,9.55,9.55,0,0,1-2,1A14.55,14.55,0,0,1,17.87,12.42Z"/><path class="cls-1" d="M6.08,17.9a8.41,8.41,0,0,0,3.75,2.56A8.55,8.55,0,0,1,7.8,17,8.89,8.89,0,0,0,6.08,17.9Z"/><path class="cls-1" d="M9.82,4.54A8.43,8.43,0,0,0,6.07,7.1,8.7,8.7,0,0,0,7.8,8,8.58,8.58,0,0,1,9.82,4.54Z"/><path class="cls-1" d="M7.59,8.66a9.68,9.68,0,0,1-2-1A8.35,8.35,0,0,0,4.1,12.42h3A14.63,14.63,0,0,1,7.59,8.66Z"/><path class="cls-1" d="M7.1,13.17h-3a8.33,8.33,0,0,0,1.51,4.15,9.68,9.68,0,0,1,2-1A14.42,14.42,0,0,1,7.1,13.17Z"/><path class="cls-1" d="M8.5,8.19a13.89,13.89,0,0,0,3.62.56V4.12C10.58,4.34,9.26,5.92,8.5,8.19Z"/><path class="cls-1" d="M17.37,16.32a9.66,9.66,0,0,1,2,1,8.31,8.31,0,0,0,1.51-4.15h-3A14.36,14.36,0,0,1,17.37,16.32Z"/><path class="cls-1" d="M12.5,2.95a9.55,9.55,0,1,0,9.55,9.55A9.55,9.55,0,0,0,12.5,2.95Zm7,15.4a9.13,9.13,0,0,1-7,3.3h-.05a9.14,9.14,0,0,1-7-3.3c-.15-.18-.3-.38-.44-.57A9.12,9.12,0,0,1,5,7.22q.21-.3.44-.57a9.13,9.13,0,0,1,7-3.3h.05a9.13,9.13,0,0,1,7,3.3c.16.18.3.38.44.57a9.12,9.12,0,0,1,0,10.56C19.83,18,19.69,18.17,19.53,18.35Z"/><path class="cls-1" d="M12.88,16.25v4.62c1.53-.23,2.84-1.81,3.59-4.07A13.8,13.8,0,0,0,12.88,16.25Z"/><path class="cls-1" d="M18.92,7.1a8.42,8.42,0,0,0-3.82-2.59A8.53,8.53,0,0,1,17.16,8,8.84,8.84,0,0,0,18.92,7.1Z"/><path class="cls-1" d="M15.11,20.49a8.44,8.44,0,0,0,3.81-2.59A8.74,8.74,0,0,0,17.16,17,8.52,8.52,0,0,1,15.11,20.49Z"/><path class="cls-1" d="M12.88,4.13V8.75a13.84,13.84,0,0,0,3.58-.54C15.71,5.94,14.4,4.37,12.88,4.13Z"/><path class="cls-1" d="M16.67,8.91a14.28,14.28,0,0,1-3.79.59v2.93h4.24A14.21,14.21,0,0,0,16.67,8.91Z"/><path class="cls-1" d="M17.1,13.17H12.88V15.5a14.42,14.42,0,0,1,3.79.59A14,14,0,0,0,17.1,13.17Z"/></svg>