<svg id="圖層_1" data-name="圖層 1" xmlns="http://www.w3.org/2000/svg" xmlns:xlink="http://www.w3.org/1999/xlink" viewBox="0 0 161 125"><defs><style>.cls-1{fill:#8ec9e6;}.cls-1,.cls-2,.cls-3,.cls-4{stroke:#0c7aac;}.cls-1,.cls-3,.cls-4{stroke-width:0.5px;}.cls-2,.cls-3{fill:#2795ca;}.cls-4{fill:url(#未命名漸層_13);}</style><linearGradient id="未命名漸層_13" x1="42.43" y1="121.48" x2="104.12" y2="14.64" gradientUnits="userSpaceOnUse"><stop offset="0" stop-color="#cee9f7"/><stop offset="1" stop-color="#2795ca"/></linearGradient></defs><title>FREE-WIFI</title><path id="Fill-1" class="cls-1" d="M102.6,60.67H91.25V68h9.49a2.83,2.83,0,0,1,2,.59,2,2,0,0,1,.65,1.58,2,2,0,0,1-.66,1.58,2.87,2.87,0,0,1-2,.58H91.25v9.39a3.8,3.8,0,0,1-.8,2.65,2.92,2.92,0,0,1-4.15,0,3.78,3.78,0,0,1-.81-2.64V59.76a4.77,4.77,0,0,1,.37-2A2.29,2.29,0,0,1,87,56.58a4.85,4.85,0,0,1,2-.36H102.6a3,3,0,0,1,2,.61,2.28,2.28,0,0,1,0,3.23,2.94,2.94,0,0,1-2,.61"/><path id="Fill-3" class="cls-1" d="M114,66V81.31a3.42,3.42,0,0,1-.76,2.41,2.5,2.5,0,0,1-1.92.82,2.39,2.39,0,0,1-1.89-.84,3.55,3.55,0,0,1-.73-2.39V66.13a3.42,3.42,0,0,1,.73-2.37,2.44,2.44,0,0,1,1.89-.8,2.53,2.53,0,0,1,1.92.8A3.09,3.09,0,0,1,114,66m-2.62-5.48a2.79,2.79,0,0,1-1.89-.68,2.64,2.64,0,0,1,0-3.78,2.7,2.7,0,0,1,1.87-.73,2.77,2.77,0,0,1,1.83.66,2.36,2.36,0,0,1,.79,1.93,2.44,2.44,0,0,1-.77,1.91,2.7,2.7,0,0,1-1.85.69"/><path id="Fill-5" class="cls-2" d="M155,43.4a2.08,2.08,0,0,1-.42,0,2.13,2.13,0,0,1-1.67-2.51A28.3,28.3,0,0,0,130.76,7.62a2.13,2.13,0,0,1,.83-4.19,32.51,32.51,0,0,1,25.52,38.25A2.13,2.13,0,0,1,155,43.4"/><path id="Fill-7" class="cls-2" d="M144.29,41.68a2.08,2.08,0,0,1-.42,0,2.13,2.13,0,0,1-1.67-2.51A18.12,18.12,0,0,0,128,17.82a2.14,2.14,0,0,1,.83-4.19A22.38,22.38,0,0,1,146.38,40a2.13,2.13,0,0,1-2.09,1.72"/><path id="Fill-9" class="cls-2" d="M134.49,40a2.08,2.08,0,0,1-.42,0,2.13,2.13,0,0,1-1.67-2.51,8,8,0,0,0-6.27-9.4,2.14,2.14,0,0,1,.83-4.19,12.25,12.25,0,0,1,9.62,14.42A2.13,2.13,0,0,1,134.49,40"/><path id="Fill-11" class="cls-1" d="M73.83,104A1.78,1.78,0,0,0,72,105.27a4.62,4.62,0,0,0-.25,1.65,2.62,2.62,0,0,0,.85,2.23,1.94,1.94,0,0,0,1.19.38,1.74,1.74,0,0,0,1.53-.77,4,4,0,0,0,0-3.91,1.69,1.69,0,0,0-1.57-.81"/><path id="Fill-13" class="cls-3" d="M82.67,29.9a2.34,2.34,0,0,0-1.6-.56,2.12,2.12,0,0,0-1.61.59,2.78,2.78,0,0,0-.72,1.6h4.64a2.24,2.24,0,0,0-.72-1.63"/><path id="Fill-15" class="cls-1" d="M83.52,104a1.89,1.89,0,0,0-1.6.74,4.22,4.22,0,0,0,0,4.21,2.09,2.09,0,0,0,3.2,0,4.24,4.24,0,0,0,0-4.21,1.88,1.88,0,0,0-1.6-.74"/><path id="Fill-17" class="cls-3" d="M94,29.9a2.34,2.34,0,0,0-1.6-.56,2.12,2.12,0,0,0-1.61.59,2.78,2.78,0,0,0-.72,1.6h4.64A2.24,2.24,0,0,0,94,29.9"/><path id="Fill-19" class="cls-4" d="M100.32,96.37a26.52,26.52,0,1,1,26.47-26.52c0,1.46-.64,16-0.22,20,0.65,6.09,4.13,6.53,4.13,6.53H100.32Zm-6.21,7.73H92.64v4.81a1.09,1.09,0,0,0,.14.7,1.59,1.59,0,0,0,.86.14h0.47v1.78l-1.13,0a3,3,0,0,1-2.3-.58,1.76,1.76,0,0,1-.4-1.26v-5.6H89v-1.69h1.27V99.87h2.35v2.54h1.48v1.69Zm-7,6.21a5,5,0,0,1-7,0,5.64,5.64,0,0,1,0-6.83,4.94,4.94,0,0,1,7,0,5.65,5.65,0,0,1,0,6.83h0Zm-10.33.11a3.52,3.52,0,0,1-2.8,1.26,2.92,2.92,0,0,1-1.81-.54,3.48,3.48,0,0,1-.77-0.88V115H69.05V102.33h2.27v1.34a3.79,3.79,0,0,1,.82-0.93,3,3,0,0,1,1.89-.61,3.59,3.59,0,0,1,2.71,1.18,4.85,4.85,0,0,1,1.11,3.46,5.46,5.46,0,0,1-1.09,3.66h0ZM67.91,25.73h-7v3.21H67v2.42H60.88v5.85H58V23.27h9.93v2.46Zm-7,32.34a2.4,2.4,0,0,1,.8-1.86,2.7,2.7,0,0,1,1.87-.73,2.77,2.77,0,0,1,1.83.66,2.36,2.36,0,0,1,.79,1.93A2.44,2.44,0,0,1,65.43,60a2.7,2.7,0,0,1-1.85.69A2.79,2.79,0,0,1,61.69,60a2.42,2.42,0,0,1-.78-1.92h0Zm0.73,5.87a2.44,2.44,0,0,1,1.89-.8,2.54,2.54,0,0,1,1.92.8,3.1,3.1,0,0,1,.75,2.22V81.49a3.45,3.45,0,0,1-.75,2.41,2.52,2.52,0,0,1-1.92.82,2.4,2.4,0,0,1-1.89-.84,3.55,3.55,0,0,1-.73-2.39V66.31a3.42,3.42,0,0,1,.73-2.37h0Zm4.57,46.69a5.49,5.49,0,0,1-3.67,1.11,6,6,0,0,1-3.82-1.1,3.64,3.64,0,0,1-1.39-3h2.45a2.55,2.55,0,0,0,.47,1.26,2.73,2.73,0,0,0,2.19.76,4.67,4.67,0,0,0,1.5-.2A1.43,1.43,0,0,0,65,108a1.05,1.05,0,0,0-.54-0.94,5.87,5.87,0,0,0-1.71-.58l-1.33-.29a8.3,8.3,0,0,1-2.69-.94,3,3,0,0,1-1.24-2.66,3.55,3.55,0,0,1,1.21-2.75,5.17,5.17,0,0,1,3.57-1.09,5.45,5.45,0,0,1,3.35,1,3.65,3.65,0,0,1,1.45,3H64.65a1.75,1.75,0,0,0-1-1.58,3.36,3.36,0,0,0-1.53-.31,2.91,2.91,0,0,0-1.62.4,1.28,1.28,0,0,0-.61,1.12,1.06,1.06,0,0,0,.6,1,7.4,7.4,0,0,0,1.63.51l2.15,0.51a5.47,5.47,0,0,1,2.12.89,3,3,0,0,1,1.1,2.51,3.52,3.52,0,0,1-1.3,2.8h0ZM56,57.47q-2.76,8.72-5.52,18.61c-0.38,1.34-.69,2.34-0.94,3a4.92,4.92,0,0,1-1.27,1.8A4.75,4.75,0,0,1,45.76,82a3.54,3.54,0,0,1-2.47-.31A3.11,3.11,0,0,1,42,80.24c-0.24-.57-0.58-1.56-1-3Q38.3,68.09,35.61,57.9q-2.72,9.75-5.43,20.52c-0.42,1.64-.76,2.83-1,3.57a5.77,5.77,0,0,1-1.3,2.08,4.21,4.21,0,0,1-2.47,1.24,3.37,3.37,0,0,1-2-.18,3,3,0,0,1-1.3-1.28,8.61,8.61,0,0,1-.81-2.18c-0.21-.86-0.4-1.66-0.57-2.4q-2.76-12.49-5.52-26.17a19.28,19.28,0,0,1-.5-3.62A3.35,3.35,0,0,1,15.55,47a2.41,2.41,0,0,1,2.24-.69,3,3,0,0,1,2.47,1.76,19.33,19.33,0,0,1,1.11,4.06q2.17,11.29,4.34,21.77,2.44-10.1,4.87-19.36a27,27,0,0,1,1-3.19A3.73,3.73,0,0,1,33,49.64a3.56,3.56,0,0,1,2.65-.38,4.64,4.64,0,0,1,2.64,1.24,5.51,5.51,0,0,1,1.3,1.94c0.24,0.66.57,1.73,1,3.21q2.46,8.92,4.91,17,2.17-8.93,4.35-17.07a15.49,15.49,0,0,1,.6-2,2.57,2.57,0,0,1,1-1.17,2.74,2.74,0,0,1,2-.25,4.2,4.2,0,0,1,2.23,1.07,2.51,2.51,0,0,1,.92,1.89,8.63,8.63,0,0,1-.5,2.32h0ZM69.56,26.89h2.57v1.8a5.77,5.77,0,0,1,1.09-1.41,3,3,0,0,1,2-.64h0.36v2.77l-0.45,0H74.76a2.23,2.23,0,0,0-2.18,1.06,4.14,4.14,0,0,0-.31,1.84v4.93H69.56V26.89ZM77.72,28a5,5,0,0,1,3.68-1.43,5.86,5.86,0,0,1,2.42.48,4.21,4.21,0,0,1,1.78,1.53,5,5,0,0,1,.82,2.13,12.9,12.9,0,0,1,.09,2H79A2.49,2.49,0,0,0,80.09,35a2.72,2.72,0,0,0,1.48.38,2.28,2.28,0,0,0,1.5-.47,2.22,2.22,0,0,0,.55-0.71h2.75a3.38,3.38,0,0,1-1,1.87,5,5,0,0,1-3.87,1.5,5.6,5.6,0,0,1-3.62-1.27,5,5,0,0,1-1.57-4.13A5.6,5.6,0,0,1,77.72,28h0Zm10.76,0a5,5,0,0,1,3.68-1.43,5.88,5.88,0,0,1,2.42.48,4.21,4.21,0,0,1,1.78,1.53,5.11,5.11,0,0,1,.82,2.13,13.32,13.32,0,0,1,.09,2h-7.5A2.49,2.49,0,0,0,90.85,35a2.73,2.73,0,0,0,1.49.38,2.28,2.28,0,0,0,1.49-.47,2.18,2.18,0,0,0,.55-0.71h2.75a3.37,3.37,0,0,1-1,1.87,5,5,0,0,1-3.88,1.5,5.6,5.6,0,0,1-3.62-1.27,5,5,0,0,1-1.57-4.13A5.6,5.6,0,0,1,88.48,28h0Zm47.64,62.13c-0.22-6.24-.1-18.93,0-24.36,0-.3,0-0.59,0-0.89s0-.35,0-0.53c0-.72,0-1.16,0-1.16a35.48,35.48,0,0,0-.85-7.75,54.8,54.8,0,0,0-95-27.24L13.13,26.56a8.27,8.27,0,0,0-8.26,8.28V95a8.27,8.27,0,0,0,8.26,8.28H41.84a54.77,54.77,0,0,0,78.71,0h21.26s-5.44-6.12-5.69-13.12h0Z"/></svg>