<?xml version="1.0" encoding="utf-8"?>
<!-- Generator: Adobe Illustrator 19.2.1, SVG Export Plug-In . SVG Version: 6.00 Build 0)  -->
<svg version="1.1" id="图层_1" xmlns="http://www.w3.org/2000/svg" xmlns:xlink="http://www.w3.org/1999/xlink" x="0px" y="0px"
	 viewBox="0 0 15.8 14.2" style="enable-background:new 0 0 15.8 14.2;" xml:space="preserve">
<style type="text/css">
	.st0{fill:none;}
	.st1{fill:#00B0FF;}
	.st2{fill:#DDDAD0;}
</style>
<title>down-01</title>
<path class="st0" d="M8,11c-0.1,0-0.2,0-0.3,0L3.9,9.3l-2.1,0.9l6,2.7l6.1-2.8l-2.1-1L8,11z"/>
<path class="st0" d="M8,7.9c-0.1,0-0.2,0-0.3,0L3.9,6.1L1.8,7.1l6,2.7l6.1-2.7l-2.1-1L8,7.9z"/>
<polygon class="st1" points="15,10.4 11.9,8.4 7.8,9.8 3.8,8.4 0.8,10.5 7.9,13.8 "/>
<path class="st2" d="M15.5,9.7l-2.2-1l2.2-1c0.3-0.2,0.4-0.6,0.2-0.9c-0.1-0.1-0.1-0.1-0.2-0.2l-2.2-1l2.2-1
	c0.2-0.1,0.3-0.3,0.3-0.6c0-0.2-0.1-0.4-0.3-0.6L8,0C7.9,0,7.8,0,7.8,0L0.3,3.4C0.1,3.5,0,3.7,0,4c0,0.2,0.1,0.4,0.3,0.6l2.2,1
	l-2.2,1C0,6.7-0.1,7.1,0.1,7.4c0.1,0.1,0.1,0.1,0.2,0.2l2.2,1l-2.2,1C0,9.8-0.1,10.3,0.1,10.6c0.1,0.1,0.1,0.1,0.2,0.2l7.4,3.4
	c0.1,0,0.2,0,0.3,0l7.4-3.4c0.3-0.2,0.4-0.6,0.1-0.9C15.6,9.8,15.5,9.7,15.5,9.7z M1.8,4l6.1-2.8l6,2.7l-6,2.8L1.8,4z M1.8,7.1
	l2.1-0.9l3.8,1.7c0.1,0,0.2,0,0.3,0l3.9-1.8l2.1,1L7.9,9.8L1.8,7.1z M7.8,13l-6-2.7l2.1-0.9L7.7,11c0.1,0,0.2,0,0.3,0l3.9-1.7l2.1,1
	L7.8,13z"/>
</svg>
