<svg id="图层_1" data-name="图层 1" xmlns="http://www.w3.org/2000/svg" viewBox="0 0 16 16"><defs><style>.cls-1{fill:#00B0FF;}</style></defs><title>IMAGE-01</title><path class="cls-1" d="M8,15.88A7.88,7.88,0,1,1,15.88,8,7.88,7.88,0,0,1,8,15.88Zm0-15A7.13,7.13,0,1,0,15.13,8,7.13,7.13,0,0,0,8,.88Z"/><path class="cls-1" d="M4,5v6h8V5H4ZM6.37,5.57a0.8,0.8,0,1,1-.8.8A0.8,0.8,0,0,1,6.37,5.57Zm4.44,4.86H5.19c-0.45,0-.58-0.27-0.28-0.61L5.62,9a0.71,0.71,0,0,1,1-.09h0L6.71,9l0.2,0.21a0.71,0.71,0,0,0,1,0h0L8,9.11l0.77-.86A0.67,0.67,0,0,1,9.7,8.14L9.79,8.25l1.31,1.56C11.39,10.15,11.26,10.42,10.81,10.42Z"/></svg>