<?xml version="1.0" encoding="utf-8"?>
<!-- Generator: Adobe Illustrator 19.2.1, SVG Export Plug-In . SVG Version: 6.00 Build 0)  -->
<svg version="1.1" id="图层_1" xmlns="http://www.w3.org/2000/svg" xmlns:xlink="http://www.w3.org/1999/xlink" x="0px" y="0px"
	 viewBox="0 0 16 16" style="enable-background:new 0 0 16 16;" xml:space="preserve">
<style type="text/css">
	.st0{fill:#D0D6D8;}
</style>
<title>bg</title>
<path class="st0" d="M2.3,11V3.1C1.5,3.5,1,4.2,1,5v8c0,1.1,0.9,2,2,2h8c0.8,0,1.5-0.5,1.9-1.3H5C3.5,13.7,2.3,12.5,2.3,11z"/>
<path class="st0" d="M13,1H5C3.9,1,3,1.9,3,3v8c0,1.1,0.9,2,2,2h8c1.1,0,2-0.9,2-2V3C15,1.9,14.1,1,13,1z M4,11l2.6-3.5l1.8,2.4
	L11,6.6l3.4,4.4H4z"/>
</svg>
