<svg id="圖層_5" data-name="圖層 5" xmlns="http://www.w3.org/2000/svg" viewBox="0 0 15.01 13"><defs><style>.cls-1{fill:#ffffff;}</style></defs><title>customize-01</title><path class="cls-1" d="M9.35,14L8.74,13a1.15,1.15,0,0,1,.07-1.38L9,11.49l-0.18-.17A1.15,1.15,0,0,1,8.7,10l0.11-.2a1.2,1.2,0,0,1-.38-0.15,4.09,4.09,0,0,1-.11-1.1A1.78,1.78,0,0,0,8.71,8,6,6,0,0,0,8.9,6.9H9c0.08,0,.23-0.05.3-0.42a3.37,3.37,0,0,0,.21-1c0-.22-0.13-0.25-0.18-0.25h0a2.92,2.92,0,0,0,.22-1.45A2.35,2.35,0,0,0,6.93,1.5,2.34,2.34,0,0,0,4.4,3.79a2.94,2.94,0,0,0,.22,1.45h0c-0.06,0-.15,0-0.18.25a3.23,3.23,0,0,0,.21,1c0.07,0.36.22,0.42,0.3,0.42H5A5.94,5.94,0,0,0,5.15,8a1.78,1.78,0,0,0,.39.54,4.09,4.09,0,0,1-.11,1.1c-0.11.13-1.71,0.48-2.15,0.64S0.49,12.73.49,14.5H9.95A1.14,1.14,0,0,1,9.35,14Z" transform="translate(-0.49 -1.5)"/><path class="cls-1" d="M14.76,11.78a2,2,0,0,0,0-.58l0.64-.49a0.15,0.15,0,0,0,0-.19l-0.61-1a0.15,0.15,0,0,0-.18-0.06l-0.76.3a2.19,2.19,0,0,0-.51-0.29l-0.12-.78a0.15,0.15,0,0,0-.13-0.17H11.87a0.15,0.15,0,0,0-.15.13l-0.12.78a2.36,2.36,0,0,0-.51.29l-0.76-.3a0.15,0.15,0,0,0-.18.06l-0.61,1a0.15,0.15,0,0,0,0,.19l0.69,0.52a2,2,0,0,0,0,.58l-0.65.48a0.15,0.15,0,0,0,0,.19l0.61,1a0.15,0.15,0,0,0,.18.06l0.76-.3a2.19,2.19,0,0,0,.51.29l0.12,0.78a0.15,0.15,0,0,0,.12.17h1.29a0.15,0.15,0,0,0,.15-0.13l0.12-.78A2.36,2.36,0,0,0,14,13.3l0.76,0.3a0.15,0.15,0,0,0,.15-0.1l0.61-1a0.15,0.15,0,0,0,0-.19Zm-2.26.72a1.06,1.06,0,1,1,1.09-1v0a1.07,1.07,0,0,1-1.09,1h0Z" transform="translate(-0.49 -1.5)"/></svg>