<svg id="图层_1" data-name="图层 1" xmlns="http://www.w3.org/2000/svg" viewBox="0 0 16 16"><defs><style>.cls-1{fill:#00B0FF;}</style></defs><title>preview</title><path class="cls-1" d="M12.88,7.16V11H3V1.73a0.5,0.5,0,0,1,.5-0.5h8.83a0.5,0.5,0,0,1,.5.5v0a1,1,0,0,1,.24.11l0.76,0.48V1.73a1.5,1.5,0,0,0-1.5-1.5H3.54A1.5,1.5,0,0,0,2,1.73V14.27a1.5,1.5,0,0,0,1.5,1.5h8.83a1.5,1.5,0,0,0,1.5-1.5V6.57l-0.76.48A1,1,0,0,1,12.88,7.16ZM7.88,14a1,1,0,1,1,1-1A1,1,0,0,1,7.88,14Z"/><path class="cls-1" d="M15.82,4.18l-3-1.88a0.26,0.26,0,0,0-.44.24V3.22A4.49,4.49,0,0,0,8.12,9a4.49,4.49,0,0,1,4.29-3.25V6.39a0.26,0.26,0,0,0,.44.24l3-1.88A0.31,0.31,0,0,0,15.82,4.18Z"/></svg>