<svg id="图层_1" data-name="图层 1" xmlns="http://www.w3.org/2000/svg" viewBox="0 0 16 16"><defs><style>.cls-1{fill:#ffffff;}</style></defs><title>template</title><path class="cls-1" d="M0.85,12.5L1.7,13.13,3.26,6.71,0.52,10.46A1.48,1.48,0,0,0,.85,12.5Z"/><path class="cls-1" d="M15.8,9.89L12.17,1.12a1.46,1.46,0,0,0-1.9-.79L4.87,2.57A1.46,1.46,0,0,0,4,3.88a1.37,1.37,0,0,0,.11.59l3.63,8.76a1.46,1.46,0,0,0,1.34.9A1.51,1.51,0,0,0,9.62,14L15,11.79A1.46,1.46,0,0,0,15.8,9.89ZM6,5a1,1,0,1,1,1-1A1,1,0,0,1,6,5Z"/><path class="cls-1" d="M3.62,12.29a1.47,1.47,0,0,0,1,1.79l1,0.27L4.8,7.81Z"/></svg>