<svg id="图层_1" data-name="图层 1" xmlns="http://www.w3.org/2000/svg" viewBox="0 0 15.75 15.75"><defs><style>.cls-1{fill:#00B0FF;}</style></defs><title>Text-01-01</title><path class="cls-1" d="M8,15.88A7.88,7.88,0,1,1,15.88,8,7.88,7.88,0,0,1,8,15.88Zm0-15A7.13,7.13,0,1,0,15.13,8,7.13,7.13,0,0,0,8,.88Z" transform="translate(-0.13 -0.13)"/><path class="cls-1" d="M11,4.66V6.47H10.82a2.63,2.63,0,0,0-.39-0.91,1.11,1.11,0,0,0-.49-0.43A2,2,0,0,0,9.29,5H8.79V10.2a4,4,0,0,0,0,.56A0.43,0.43,0,0,0,9,11a0.88,0.88,0,0,0,.5.12H9.75v0.18H6.25V11.16H6.47a0.85,0.85,0,0,0,.45-0.09,0.59,0.59,0,0,0,.21-0.22,1.86,1.86,0,0,0,.07-0.65V5H6.71A1.89,1.89,0,0,0,6,5.16a1.14,1.14,0,0,0-.51.46,2.13,2.13,0,0,0-.29.84H5V4.66h6Z" transform="translate(-0.13 -0.13)"/></svg>