<svg id="图层_1" data-name="图层 1" xmlns="http://www.w3.org/2000/svg" viewBox="0 0 15.75 15.75"><defs><style>.cls-1{fill:#00B0FF;}</style></defs><title>Lock-01</title><path class="cls-1" d="M8,15.88A7.88,7.88,0,1,1,15.88,8,7.88,7.88,0,0,1,8,15.88Zm0-15A7.13,7.13,0,1,0,15.13,8,7.13,7.13,0,0,0,8,.88Z" transform="translate(-0.13 -0.13)"/><path class="cls-1" d="M6.85,7.2V6.32a1.15,1.15,0,1,1,2.3,0V7.2H9.92V6.32a1.92,1.92,0,0,0-3.84,0V7.2H6.85Z" transform="translate(-0.13 -0.13)"/><path class="cls-1" d="M5.37,7.2v4.39h5.27V7.2H5.37ZM8.18,9.8v0.92a0.18,0.18,0,0,1-.35,0V9.8A0.53,0.53,0,1,1,8.18,9.8Z" transform="translate(-0.13 -0.13)"/></svg>