<?xml version="1.0" encoding="utf-8"?>
<!-- Generator: Adobe Illustrator 19.2.1, SVG Export Plug-In . SVG Version: 6.00 Build 0)  -->
<svg version="1.1" id="圖層_4" xmlns="http://www.w3.org/2000/svg" xmlns:xlink="http://www.w3.org/1999/xlink" x="0px" y="0px"
	 viewBox="0 0 16 16" style="enable-background:new 0 0 16 16;" xml:space="preserve">
<style type="text/css">
	.st0{fill:#FFFFFF;}
</style>
<title>editor-01</title>
<path class="st0" d="M13.6,4.8c0.2-0.3,0.2-0.7,0-0.9l-1.5-1.5c-0.3-0.2-0.7-0.2-0.9,0L10,3.5L12.5,6L13.6,4.8z"/>
<path class="st0" d="M11.6,6.5L9.5,4.4c-0.1-0.1-0.3-0.1-0.4,0l-6.2,6.2l2.4,2.5l6.3-6.3C11.7,6.7,11.7,6.6,11.6,6.5
	C11.6,6.5,11.6,6.5,11.6,6.5z"/>
<path class="st0" d="M2.3,11.2c-0.1,0.1-0.2,0.3-0.2,0.4v1.9c0,0.1,0.1,0.3,0.3,0.3h0h1.9c0.2,0,0.3-0.1,0.4-0.2l0,0l-2.3-2.5
	L2.3,11.2z"/>
</svg>
