<svg id="图层_1" data-name="图层 1" xmlns="http://www.w3.org/2000/svg" viewBox="0 0 16 16"><defs><style>.cls-1{fill:#00B0FF;}</style></defs><title>Eula-01-01</title><path class="cls-1" d="M8,15.88A7.88,7.88,0,1,1,15.88,8,7.88,7.88,0,0,1,8,15.88Zm0-15A7.13,7.13,0,1,0,15.13,8,7.13,7.13,0,0,0,8,.88Z"/><polygon class="cls-1" points="9.01 4.29 9.01 5.54 10.31 5.54 9.01 4.29"/><path class="cls-1" d="M8.45,6.08V4H5v7.46H8v0a1.14,1.14,0,0,1,.35-0.82,1.24,1.24,0,0,1,1.68,0l0.52-.5v-4H8.45ZM9.74,9.76H5.48V9.09H9.74V9.76Zm0-1.23H5.48V7.86H9.74V8.53Zm0-1.23H5.48V6.63H9.74V7.29Z"/><path class="cls-1" d="M9.89,12.84a0.58,0.58,0,0,0,.8,0l2.14-2.07a0.54,0.54,0,0,0,0-.76A0.57,0.57,0,0,0,12,10l-1.52,1.47a0.34,0.34,0,0,1-.47,0l-0.2-.19a0.58,0.58,0,0,0-.8,0,0.53,0.53,0,0,0,0,.77Z"/></svg>