<svg width="200" height="108" viewBox="0 0 200 108" fill="none" xmlns="http://www.w3.org/2000/svg">
<path fill-rule="evenodd" clip-rule="evenodd" d="M75.8715 66.6998C59.9476 78.4859 57.5294 83.4208 59.4762 87.1347H59.4728C62.2811 92.4935 69.9429 101.159 73.6059 105.165C74.8167 106.488 75.6036 107.308 75.6036 107.308C75.6036 107.308 59.3337 100.213 50.2949 87.9453C44.4816 80.0664 27.8318 53.7402 27.8318 53.7402C29.6572 54.6198 31.7299 55.6719 33.9283 56.7878C43.7758 61.7863 56.1455 68.0651 60.1104 65.8553C95.7942 30.9041 115.307 12.3584 128.554 8.1934C165.71 -3.49432 191.707 0.752061 191.707 0.752061C147.925 11.0875 102.396 46.2623 82.4161 61.6986C79.7627 63.7486 77.5598 65.4505 75.8715 66.6998ZM150.271 32.2505C118.858 47.2553 65.8592 85.0081 65.8592 85.0081C65.8592 85.0081 69.7258 87.5857 73.1039 89.0611C98.6975 100.298 136.152 107.146 143.43 104.782C163.136 98.3916 185.192 56.6163 192.121 37.338C192.121 37.338 171.425 45.5798 150.434 55.4292C132.903 63.6473 122.259 68.9179 117.24 71.4481C116.663 71.6863 116.315 71.8239 116.18 71.8771L117.101 71.5194C114.842 72.6624 113.757 73.2254 113.757 73.2254L162.614 58.4241C161.742 60.4252 148.915 89.3867 132.465 92.7072C115.391 96.1395 85.0867 84.1398 85.0867 84.1398C87.5558 82.2371 119.081 58.5665 193.786 28.0889C193.881 28.0618 193.983 28.0313 194.085 28.0008C196.541 26.9934 199.898 21.1801 200 17.8834C200 17.8834 173.606 20.2813 150.265 32.2505H150.271ZM0 47.3401C0 47.3401 0.0203484 47.4011 0.0406985 47.4418C0.0203484 47.4282 0 47.4079 0 47.4079C0 47.4079 0.0271417 47.452 0.0508834 47.4791C0.576593 48.8867 5.90831 62.9452 11.3723 69.9931C16.704 76.8782 38.2479 82.2404 41.314 82.973C41.5344 83.0782 41.6972 83.1426 41.6972 83.1426C41.6689 83.1186 41.6335 83.0932 41.5974 83.0673C41.5851 83.0584 41.5727 83.0495 41.5604 83.0406C41.5528 83.035 41.5453 83.0294 41.5378 83.0239C41.6328 83.051 41.6972 83.0646 41.6972 83.0646C27.9949 73.4526 0 47.3367 0 47.3367V47.3401Z" fill="url(#paint0_linear_615_80290)"/>
<defs>
<linearGradient id="paint0_linear_615_80290" x1="27.537" y1="107.308" x2="176.772" y2="110.154" gradientUnits="userSpaceOnUse">
<stop stop-color="#FF1137"/>
<stop offset="0.47" stop-color="#FF0B49"/>
<stop offset="0.675" stop-color="#FF63B7"/>
</linearGradient>
</defs>
</svg>
