<svg id="eNrimuYUf8S1" xmlns="http://www.w3.org/2000/svg" xmlns:xlink="http://www.w3.org/1999/xlink" viewBox="0 0 320 240" shape-rendering="geometricPrecision" text-rendering="geometricPrecision">
<style><![CDATA[
#eNrimuYUf8S4 {animation: eNrimuYUf8S4__fl 3000ms linear infinite normal forwards}@keyframes eNrimuYUf8S4__fl { 0% {filter: blur(40.049969px) } 10% {filter: blur(4.472136px) } 100% {filter: blur(4.472136px) }} #eNrimuYUf8S5 {animation: eNrimuYUf8S5_c_o 3000ms linear infinite normal forwards}@keyframes eNrimuYUf8S5_c_o { 0% {opacity: 0} 10% {opacity: 0} 16.666667% {opacity: 1} 100% {opacity: 1}} #eNrimuYUf8S25_to {animation: eNrimuYUf8S25_to__to 3000ms linear infinite normal forwards}@keyframes eNrimuYUf8S25_to__to { 0% {offset-distance: 0%} 16.666667% {offset-distance: 0%} 23.333333% {offset-distance: 100%} 100% {offset-distance: 100%}} #eNrimuYUf8S25 {animation: eNrimuYUf8S25__fl 3000ms linear infinite normal forwards}@keyframes eNrimuYUf8S25__fl { 0% {filter: blur(30px)} 23.333333% {filter: blur(30px)} 33.333333% {filter: blur(0px)} 100% {filter: blur(0px)}} #eNrimuYUf8S46 {animation: eNrimuYUf8S46_s_do 3000ms linear infinite normal forwards}@keyframes eNrimuYUf8S46_s_do { 0% {stroke-dashoffset: 3066.94} 23.333333% {stroke-dashoffset: 3066.94} 76.666667% {stroke-dashoffset: 0} 100% {stroke-dashoffset: 0}}
]]></style>
<defs><filter id="eNrimuYUf8S3-filter" x="-150%" width="400%" y="-150%" height="400%"><feGaussianBlur id="eNrimuYUf8S3-filter-blur-0" stdDeviation="20,20" result="result"/></filter><linearGradient id="eNrimuYUf8S7-fill" x1="115.5" y1="160.032" x2="55" y2="113.032" spreadMethod="pad" gradientUnits="userSpaceOnUse" gradientTransform="translate(0 0)"><stop id="eNrimuYUf8S7-fill-0" offset="0%" stop-color="rgba(71,24,170,0.7)"/><stop id="eNrimuYUf8S7-fill-1" offset="100%" stop-color="rgba(17,6,82,0.6)"/></linearGradient><linearGradient id="eNrimuYUf8S7-stroke" x1="80" y1="112.532" x2="98" y2="157.032" spreadMethod="pad" gradientUnits="userSpaceOnUse" gradientTransform="translate(0 0)"><stop id="eNrimuYUf8S7-stroke-0" offset="0%" stop-color="#57225f"/><stop id="eNrimuYUf8S7-stroke-1" offset="100%" stop-color="#e707ec"/></linearGradient><linearGradient id="eNrimuYUf8S8-fill" x1="130.85" y1="137.809" x2="109.86" y2="106.427" spreadMethod="pad" gradientUnits="userSpaceOnUse" gradientTransform="translate(0 0)"><stop id="eNrimuYUf8S8-fill-0" offset="0%" stop-color="rgba(71,24,170,0.7)"/><stop id="eNrimuYUf8S8-fill-1" offset="100%" stop-color="rgba(17,6,82,0.6)"/></linearGradient><linearGradient id="eNrimuYUf8S9-fill" x1="130.882" y1="137.824" x2="109.626" y2="106.141" spreadMethod="pad" gradientUnits="userSpaceOnUse" gradientTransform="translate(0 0)"><stop id="eNrimuYUf8S9-fill-0" offset="0%" stop-color="#2d0a42"/><stop id="eNrimuYUf8S9-fill-1" offset="100%" stop-color="#3f196e"/></linearGradient><linearGradient id="eNrimuYUf8S10-stroke" x1="106" y1="120.532" x2="109.791" y2="138.569" spreadMethod="pad" gradientUnits="userSpaceOnUse" gradientTransform="translate(0 0)"><stop id="eNrimuYUf8S10-stroke-0" offset="0%" stop-color="#57225f"/><stop id="eNrimuYUf8S10-stroke-1" offset="100%" stop-color="#e707ec"/></linearGradient><filter id="eNrimuYUf8S11-filter" x="-150%" width="400%" y="-150%" height="400%"><feGaussianBlur id="eNrimuYUf8S11-filter-inner-shadow-0-blur" in="SourceAlpha" stdDeviation="3,3"/><feOffset id="eNrimuYUf8S11-filter-inner-shadow-0-offset" dx="-2" dy="-14" result="tmp"/><feComposite id="eNrimuYUf8S11-filter-inner-shadow-0-composite" operator="arithmetic" k2="-1" k3="1" in2="SourceGraphic"/><feColorMatrix id="eNrimuYUf8S11-filter-inner-shadow-0-color-matrix" type="matrix" values="0 0 0 0 0.909804 0 0 0 0 0.196078 0 0 0 0 0.92549 0 0 0 0.4 0"/><feMerge id="eNrimuYUf8S11-filter-inner-shadow-0-merge" result="result"><feMergeNode id="eNrimuYUf8S11-filter-inner-shadow-0-merge-node-1" in="SourceGraphic"/><feMergeNode id="eNrimuYUf8S11-filter-inner-shadow-0-merge-node-2"/></feMerge></filter><linearGradient id="eNrimuYUf8S12-fill" x1="312.298" y1="192.019" x2="158.978" y2="58.359" spreadMethod="pad" gradientUnits="userSpaceOnUse" gradientTransform="translate(0 0)"><stop id="eNrimuYUf8S12-fill-0" offset="0%" stop-color="#2d0a42"/><stop id="eNrimuYUf8S12-fill-1" offset="100%" stop-color="#3f196e"/></linearGradient><linearGradient id="eNrimuYUf8S13-fill" x1="312.171" y1="191.92" x2="160.53" y2="59.3196" spreadMethod="pad" gradientUnits="userSpaceOnUse" gradientTransform="translate(0 0)"><stop id="eNrimuYUf8S13-fill-0" offset="0%" stop-color="rgba(71,24,170,0.7)"/><stop id="eNrimuYUf8S13-fill-1" offset="100%" stop-color="rgba(17,6,82,0.6)"/></linearGradient><filter id="eNrimuYUf8S15-filter" x="-150%" width="400%" y="-150%" height="400%"><feGaussianBlur id="eNrimuYUf8S15-filter-inner-shadow-0-blur" in="SourceAlpha" stdDeviation="2,2"/><feOffset id="eNrimuYUf8S15-filter-inner-shadow-0-offset" dx="0" dy="0" result="tmp"/><feComposite id="eNrimuYUf8S15-filter-inner-shadow-0-composite" operator="arithmetic" k2="-1" k3="1" in2="SourceGraphic"/><feColorMatrix id="eNrimuYUf8S15-filter-inner-shadow-0-color-matrix" type="matrix" values="0 0 0 0 1 0 0 0 0 0.180392 0 0 0 0 0.823529 0 0 0 1 0"/><feMerge id="eNrimuYUf8S15-filter-inner-shadow-0-merge" result="result"><feMergeNode id="eNrimuYUf8S15-filter-inner-shadow-0-merge-node-1" in="SourceGraphic"/><feMergeNode id="eNrimuYUf8S15-filter-inner-shadow-0-merge-node-2"/></feMerge></filter><linearGradient id="eNrimuYUf8S16-fill" x1="303.183" y1="196.572" x2="123.681" y2="64.5375" spreadMethod="pad" gradientUnits="userSpaceOnUse" gradientTransform="translate(0 0)"><stop id="eNrimuYUf8S16-fill-0" offset="0%" stop-color="#2d0a42"/><stop id="eNrimuYUf8S16-fill-1" offset="100%" stop-color="#3f196e"/></linearGradient><filter id="eNrimuYUf8S18-filter" x="-150%" width="400%" y="-150%" height="400%"><feGaussianBlur id="eNrimuYUf8S18-filter-inner-shadow-0-blur" in="SourceAlpha" stdDeviation="6,6"/><feOffset id="eNrimuYUf8S18-filter-inner-shadow-0-offset" dx="0" dy="0" result="tmp"/><feComposite id="eNrimuYUf8S18-filter-inner-shadow-0-composite" operator="arithmetic" k2="-1" k3="1" in2="SourceGraphic"/><feColorMatrix id="eNrimuYUf8S18-filter-inner-shadow-0-color-matrix" type="matrix" values="0 0 0 0 0.282353 0 0 0 0 0.701961 0 0 0 0 1 0 0 0 1 0"/><feMerge id="eNrimuYUf8S18-filter-inner-shadow-0-merge" result="result"><feMergeNode id="eNrimuYUf8S18-filter-inner-shadow-0-merge-node-1" in="SourceGraphic"/><feMergeNode id="eNrimuYUf8S18-filter-inner-shadow-0-merge-node-2"/></feMerge></filter><linearGradient id="eNrimuYUf8S20-fill" x1="298" y1="67.7398" x2="44.406" y2="200.266" spreadMethod="pad" gradientUnits="userSpaceOnUse" gradientTransform="translate(0 0)"><stop id="eNrimuYUf8S20-fill-0" offset="12.5772%" stop-color="#000"/><stop id="eNrimuYUf8S20-fill-1" offset="43.6939%" stop-color="#95ccff"/><stop id="eNrimuYUf8S20-fill-2" offset="62.3241%" stop-color="#1d2c7c"/><stop id="eNrimuYUf8S20-fill-3" offset="81.1147%" stop-color="#091869"/><stop id="eNrimuYUf8S20-fill-4" offset="89.1331%" stop-color="#000"/></linearGradient><linearGradient id="eNrimuYUf8S22-fill" x1="298" y1="67.7398" x2="44.406" y2="200.266" spreadMethod="pad" gradientUnits="userSpaceOnUse" gradientTransform="translate(0 0)"><stop id="eNrimuYUf8S22-fill-0" offset="12.5772%" stop-color="#000"/><stop id="eNrimuYUf8S22-fill-1" offset="43.6939%" stop-color="#95ccff"/><stop id="eNrimuYUf8S22-fill-2" offset="62.3241%" stop-color="#1d2c7c"/><stop id="eNrimuYUf8S22-fill-3" offset="81.1147%" stop-color="#091869"/><stop id="eNrimuYUf8S22-fill-4" offset="89.1331%" stop-color="#000"/></linearGradient><linearGradient id="eNrimuYUf8S24-fill" x1="298" y1="67.7398" x2="44.406" y2="200.266" spreadMethod="pad" gradientUnits="userSpaceOnUse" gradientTransform="translate(0 0)"><stop id="eNrimuYUf8S24-fill-0" offset="12.5772%" stop-color="#000"/><stop id="eNrimuYUf8S24-fill-1" offset="43.6939%" stop-color="#95ccff"/><stop id="eNrimuYUf8S24-fill-2" offset="62.3241%" stop-color="#1d2c7c"/><stop id="eNrimuYUf8S24-fill-3" offset="81.1147%" stop-color="#091869"/><stop id="eNrimuYUf8S24-fill-4" offset="89.1331%" stop-color="#000"/></linearGradient><filter id="eNrimuYUf8S26-filter" x="-150%" width="400%" y="-150%" height="400%"><feGaussianBlur id="eNrimuYUf8S26-filter-inner-shadow-0-blur" in="SourceAlpha" stdDeviation="2,2"/><feOffset id="eNrimuYUf8S26-filter-inner-shadow-0-offset" dx="2" dy="0" result="tmp"/><feComposite id="eNrimuYUf8S26-filter-inner-shadow-0-composite" operator="arithmetic" k2="-1" k3="1" in2="SourceGraphic"/><feColorMatrix id="eNrimuYUf8S26-filter-inner-shadow-0-color-matrix" type="matrix" values="0 0 0 0 0 0 0 0 0 0.423529 0 0 0 0 0.886275 0 0 0 0.7 0"/><feMerge id="eNrimuYUf8S26-filter-inner-shadow-0-merge" result="result"><feMergeNode id="eNrimuYUf8S26-filter-inner-shadow-0-merge-node-1" in="SourceGraphic"/><feMergeNode id="eNrimuYUf8S26-filter-inner-shadow-0-merge-node-2"/></feMerge></filter><linearGradient id="eNrimuYUf8S27-fill" x1="85" y1="81.032" x2="170.041" y2="253.459" spreadMethod="pad" gradientUnits="userSpaceOnUse" gradientTransform="translate(0 0)"><stop id="eNrimuYUf8S27-fill-0" offset="28.196%" stop-color="#1af7ff"/><stop id="eNrimuYUf8S27-fill-1" offset="48.1828%" stop-color="#383f7e"/><stop id="eNrimuYUf8S27-fill-2" offset="71.7665%" stop-color="#b02cfb"/></linearGradient><radialGradient id="eNrimuYUf8S29-fill" cx="0" cy="0" r="1" spreadMethod="pad" gradientUnits="userSpaceOnUse" gradientTransform="matrix(47.412401 29.016 -44.623299 72.9149 233.587 83.016)"><stop id="eNrimuYUf8S29-fill-0" offset="0%" stop-color="rgba(255,255,255,0.05)"/><stop id="eNrimuYUf8S29-fill-1" offset="50%" stop-color="#fff"/><stop id="eNrimuYUf8S29-fill-2" offset="100%" stop-color="rgba(255,255,255,0.2)"/></radialGradient><linearGradient id="eNrimuYUf8S30-fill" x1="60.5629" y1="129.755" x2="59.0632" y2="160.011" spreadMethod="pad" gradientUnits="userSpaceOnUse" gradientTransform="translate(0 0)"><stop id="eNrimuYUf8S30-fill-0" offset="26.9734%" stop-color="#1af7ff"/><stop id="eNrimuYUf8S30-fill-1" offset="49%" stop-color="#5f6ffd"/><stop id="eNrimuYUf8S30-fill-2" offset="86.1961%" stop-color="#b02cfb"/></linearGradient><filter id="eNrimuYUf8S31-filter" x="-150%" width="400%" y="-150%" height="400%"><feGaussianBlur id="eNrimuYUf8S31-filter-inner-shadow-0-blur" in="SourceAlpha" stdDeviation="2,2"/><feOffset id="eNrimuYUf8S31-filter-inner-shadow-0-offset" dx="0" dy="-4" result="tmp"/><feComposite id="eNrimuYUf8S31-filter-inner-shadow-0-composite" operator="arithmetic" k2="-1" k3="1" in2="SourceGraphic"/><feColorMatrix id="eNrimuYUf8S31-filter-inner-shadow-0-color-matrix" type="matrix" values="0 0 0 0 0 0 0 0 0 0.423529 0 0 0 0 0.886275 0 0 0 0.3 0"/><feMerge id="eNrimuYUf8S31-filter-inner-shadow-0-merge" result="result"><feMergeNode id="eNrimuYUf8S31-filter-inner-shadow-0-merge-node-1" in="SourceGraphic"/><feMergeNode id="eNrimuYUf8S31-filter-inner-shadow-0-merge-node-2"/></feMerge></filter><linearGradient id="eNrimuYUf8S32-fill" x1="155.5" y1="96.5321" x2="210.442" y2="226.937" spreadMethod="pad" gradientUnits="userSpaceOnUse" gradientTransform="translate(0 0)"><stop id="eNrimuYUf8S32-fill-0" offset="32.6325%" stop-color="#1af7ff"/><stop id="eNrimuYUf8S32-fill-1" offset="51.4793%" stop-color="#383f7e"/><stop id="eNrimuYUf8S32-fill-2" offset="100%" stop-color="#b02cfb"/></linearGradient><linearGradient id="eNrimuYUf8S34-fill" x1="134.5" y1="148.532" x2="216.52" y2="208.954" spreadMethod="pad" gradientUnits="userSpaceOnUse" gradientTransform="translate(0 0)"><stop id="eNrimuYUf8S34-fill-0" offset="8.87282%" stop-color="rgba(33,42,124,0.2)"/><stop id="eNrimuYUf8S34-fill-1" offset="53.9052%" stop-color="rgba(26,247,255,0)"/><stop id="eNrimuYUf8S34-fill-2" offset="96.8359%" stop-color="#b02cfb"/></linearGradient><radialGradient id="eNrimuYUf8S40-fill" cx="0" cy="0" r="1" spreadMethod="pad" gradientUnits="userSpaceOnUse" gradientTransform="matrix(36.87 -36.87 4.53554 4.53554 169.299 96.8801)"><stop id="eNrimuYUf8S40-fill-0" offset="0%" stop-color="#68befe"/><stop id="eNrimuYUf8S40-fill-1" offset="16.6667%" stop-color="rgba(7,96,163,0.9409)"/><stop id="eNrimuYUf8S40-fill-2" offset="33.3333%" stop-color="rgba(7,88,149,0.7744)"/><stop id="eNrimuYUf8S40-fill-3" offset="50%" stop-color="rgba(5,73,124,0.5476)"/><stop id="eNrimuYUf8S40-fill-4" offset="66.6667%" stop-color="rgba(4,53,90,0.2809)"/><stop id="eNrimuYUf8S40-fill-5" offset="83.3333%" stop-color="rgba(2,27,46,0.0784)"/><stop id="eNrimuYUf8S40-fill-6" offset="100%" stop-color="rgba(0,0,0,0)"/></radialGradient><radialGradient id="eNrimuYUf8S42-fill" cx="0" cy="0" r="1" spreadMethod="pad" gradientUnits="userSpaceOnUse" gradientTransform="matrix(-45.9417 42.2131 -5.531 -6.01956 157.925 111.469)"><stop id="eNrimuYUf8S42-fill-0" offset="0%" stop-color="#0864a9"/><stop id="eNrimuYUf8S42-fill-1" offset="13%" stop-color="rgba(7,96,163,0.9409)"/><stop id="eNrimuYUf8S42-fill-2" offset="29%" stop-color="rgba(7,88,149,0.7744)"/><stop id="eNrimuYUf8S42-fill-3" offset="46%" stop-color="rgba(5,73,124,0.5476)"/><stop id="eNrimuYUf8S42-fill-4" offset="64%" stop-color="rgba(4,53,90,0.2809)"/><stop id="eNrimuYUf8S42-fill-5" offset="83%" stop-color="rgba(2,27,46,0.0784)"/><stop id="eNrimuYUf8S42-fill-6" offset="100%" stop-color="rgba(0,0,0,0)"/></radialGradient><radialGradient id="eNrimuYUf8S44-fill" cx="0" cy="0" r="1" spreadMethod="pad" gradientUnits="userSpaceOnUse" gradientTransform="matrix(-28.6491 43.3597 -6.82045 -4.50649 267.039 132.327)"><stop id="eNrimuYUf8S44-fill-0" offset="0%" stop-color="#0864a9"/><stop id="eNrimuYUf8S44-fill-1" offset="13%" stop-color="rgba(7,96,163,0.9409)"/><stop id="eNrimuYUf8S44-fill-2" offset="29%" stop-color="rgba(7,88,149,0.7744)"/><stop id="eNrimuYUf8S44-fill-3" offset="46%" stop-color="rgba(5,73,124,0.5476)"/><stop id="eNrimuYUf8S44-fill-4" offset="64%" stop-color="rgba(4,53,90,0.2809)"/><stop id="eNrimuYUf8S44-fill-5" offset="83%" stop-color="rgba(2,27,46,0.0784)"/><stop id="eNrimuYUf8S44-fill-6" offset="100%" stop-color="rgba(0,0,0,0)"/></radialGradient><filter id="eNrimuYUf8S45-filter" x="-150%" width="400%" y="-150%" height="400%"><feGaussianBlur id="eNrimuYUf8S45-filter-drop-shadow-0-blur" in="SourceAlpha" stdDeviation="6.5,6.5"/><feOffset id="eNrimuYUf8S45-filter-drop-shadow-0-offset" dx="0" dy="0" result="tmp"/><feFlood id="eNrimuYUf8S45-filter-drop-shadow-0-flood" flood-color="#6de8ff"/><feComposite id="eNrimuYUf8S45-filter-drop-shadow-0-composite" operator="in" in2="tmp"/><feMerge id="eNrimuYUf8S45-filter-drop-shadow-0-merge" result="result"><feMergeNode id="eNrimuYUf8S45-filter-drop-shadow-0-merge-node-1"/><feMergeNode id="eNrimuYUf8S45-filter-drop-shadow-0-merge-node-2" in="SourceGraphic"/></feMerge></filter><linearGradient id="eNrimuYUf8S46-stroke" x1="63" y1="159.532" x2="298" y2="62.532" spreadMethod="pad" gradientUnits="userSpaceOnUse" gradientTransform="translate(0 0)"><stop id="eNrimuYUf8S46-stroke-0" offset="0%" stop-color="#38c9e5"/><stop id="eNrimuYUf8S46-stroke-1" offset="50%" stop-color="#fff"/><stop id="eNrimuYUf8S46-stroke-2" offset="100%" stop-color="#34deff"/></linearGradient></defs><g><path d="M140.911,164.765c15.871,7.023,35.393,12.67,52.071,16.193c8.34,1.762,15.978,2.996,22.101,3.604c3.062.305,5.751.454,7.964.433c2.202-.02,3.972-.208,5.173-.599v-.001c6.205-2.029,12.546-6.85,18.684-13.256c6.146-6.414,12.125-14.456,17.602-22.988c10.953-17.063,19.93-36.137,24.232-48.1926l.374-1.0462-1.031.4142.186.4639c-.186-.4639-.186-.4639-.186-.4638l-.001.0004-.004.0014-.014.0057-.056.0224-.22.0889c-.194.0784-.482.195-.857.3478-.752.3059-1.853.7559-3.257,1.3339-2.807,1.157-6.819,2.827-11.643,4.88-9.648,4.108-22.545,9.751-35.536,15.894-21.7,10.261-34.873,16.848-41.072,20.007l-.003.002-5.149,2.678.378.922l60.23-18.554c-.086.192-.185.409-.295.651-.483,1.055-1.195,2.566-2.117,4.395-1.843,3.657-4.518,8.576-7.848,13.626-3.331,5.052-7.309,10.221-11.754,14.389-4.449,4.172-9.334,7.31-14.477,8.354-10.422,2.116-24.951-.52-36.95-3.725-5.985-1.599-11.316-3.331-15.154-4.666-1.918-.667-3.463-1.234-4.529-1.634-.321-.121-.598-.226-.829-.314c6.28-4.73,45.794-33.18,133.557-69.3128.103-.0342.218-.0692.342-.1066l.023-.0071.023-.0093c.863-.3564,1.753-1.1103,2.591-2.0515.846-.9504,1.673-2.1313,2.404-3.3952c1.45-2.5104,2.568-5.4354,2.636-7.6136l.017-.565-.563.0515.046.498c-.046-.498-.046-.4979-.046-.4979l-.001.0001-.005.0005-.019.0017-.072.0069c-.064.0063-.158.0157-.282.0285-.248.0258-.615.0654-1.091.1211-.953.1114-2.345.2871-4.104.5445-3.52.515-8.512,1.3572-14.407,2.6669-11.786,2.6182-27.2,7.1085-41.682,14.5982-19.447,9.3701-45.56,25.8381-66.796,39.9511-10.622,7.06-20.031,13.535-26.784,18.245-3.377,2.355-6.09,4.269-7.958,5.594-.935.662-1.658,1.178-2.148,1.528-.245.175-.432.308-.557.398l-.142.102-.036.025-.009.007-.002.002c0,0,0,0,.016.023.025.036.091.127.259.361l-.276-.384-.584.42.597.401.279-.415m8.761,5.516l.202-.457-.202.457c0,0,0,0,0,0Zm0,0c-2.112-.931-4.374-2.208-6.1-3.247-.865-.521-1.599-.983-2.117-1.316-.259-.167-.464-.301-.605-.393-.07-.046-.124-.082-.161-.107l-.042-.028-.011-.007-.003-.002v-.001h-.001c0,0,0,0,.279-.415m0,0c.292.406.292.406.293.406l.002-.002.009-.006.035-.026.141-.101c.083-.059.192-.137.326-.233.025-.018.051-.037.078-.056m-.884.018l.279-.415v0v.001l.003.001.01.007.04.026c.035.024.088.059.157.105.1.065.233.152.395.257m0,0c.063.041.13.084.201.13.511.328,1.237.786,2.092,1.3c1.713,1.031,3.933,2.283,5.988,3.189v0c15.789,6.988,35.241,12.616,51.874,16.13c8.315,1.757,15.916,2.983,21.993,3.587c3.039.302,5.691.448,7.856.428c2.176-.02,3.821-.208,4.871-.55m-94.875-24.214c.048-.034.099-.07.152-.109.489-.349,1.212-.864,2.145-1.526c1.867-1.323,4.578-3.236,7.952-5.589c6.748-4.707,16.151-11.177,26.766-18.232c21.237-14.114,47.303-30.549,66.683-39.8863l.006-.0031.006-.0033c14.38-7.4378,29.706-11.9055,41.446-14.5134c5.868-1.3036,10.835-2.1416,14.334-2.6536c1.75-.256,3.132-.4304,4.076-.5408.346-.0404.633-.0722.857-.0963-.215,1.8835-1.176,4.3501-2.459,6.571-.704,1.2184-1.493,2.3411-2.285,3.2306-.791.8889-1.552,1.5074-2.204,1.7831-.12.0361-.246.0746-.362.1136l-.016.0053-.015.0063C197.753,125.813,158.732,155.358,155.604,157.78l-.812.629.966.243.001.001.082.032c.073.029.182.071.324.126.283.11.7.269,1.236.471c1.073.403,2.626.973,4.553,1.643c3.854,1.34,9.209,3.081,15.224,4.687c12.002,3.206,26.734,5.906,37.407,3.739l-.1-.49.1.49c5.397-1.096,10.443-4.367,14.962-8.604c4.523-4.241,8.549-9.48,11.905-14.569c3.357-5.091,6.052-10.046,7.906-13.726.928-1.841,1.646-3.365,2.133-4.429.243-.532.429-.949.554-1.234.062-.142.109-.251.141-.325l.036-.084.009-.022.003-.005v-.002c0,0,.001-.001-.46-.195l.461.194.416-.987-1.024.315-56.006,17.253.255-.132c0-.001.001-.001.002-.001c6.189-3.155,19.353-9.737,41.043-19.993c12.975-6.135,25.859-11.773,35.499-15.877c4.821-2.053,8.829-3.721,11.633-4.877c1.402-.577,2.502-1.027,3.252-1.332.038-.015.075-.03.111-.044-4.412,12.022-13.153,30.424-23.751,46.936-5.456,8.499-11.397,16.484-17.483,22.836-6.093,6.359-12.296,11.043-18.273,12.998m0,0c0,0,0,0,0,0l.155.475-.155-.475Zm-86.796-19.137c31.66,14.01,77.95,22.549,86.951,19.612c24.153-7.9,51.153-59.193,59.976-83.499M251.511,126.76c-2.167,4.906-17.508,38.137-37.026,42.101-19.613,3.982-53.349-8.668-58.03-10.474m-.08-.567c5.454-4.14,44.877-32.907,133.931-69.5696m7.192-12.6793c-4.216.4463-34.215,4.0219-60.983,17.8671-36.981,17.8178-98.192,61.3948-103.93,65.4998M50,112.358l.3444-.363-.7928.583h-.0005v0h-.0001l-.0001-.001h-.0003l-.0005-.001.0054.012c.0056.013.0136.034.0217.059l.1998-.066-.1154.098-.0654.025c.0029.007.0058.015.0089.024l-.0075.006h-.0002v0h.0001l.0008.001.0039.006.0138.019c.0007.001.0013.002.0019.003.4102,1.113,2.2519,6.037,4.8373,11.811c2.6298,5.874,6.047,12.669,9.5249,17.223c1.7543,2.303,4.8017,4.438,8.383,6.356c3.594,1.924,7.7788,3.658,11.8603,5.139c8.0991,2.938,15.8356,4.898,17.8396,5.386.132.06.241.107.321.139.044.018.079.032.103.041l.029.011.009.003.003.001v.001h.001v0v0l.029-.081c0,0,.001,0,.001,0l-.03.081.038-.079c.012.002.022.004.03.005l.013.003h.004.001l.001.001v0v0l.029-.171v0l-.029.171.335-.807.01-.02c-.001,0-.001,0-.001,0l.03-.074c-8.636-6.153-21.7906-17.622-32.8022-27.57-5.5022-4.97-10.4634-9.555-14.049-12.897-1.7928-1.671-3.2416-3.032-4.2422-3.974-.5002-.471-.8884-.838-1.1514-1.087l-.2992-.283-.0761-.073-.0191-.018-.0048-.004-.0012-.002c-.0003,0-.0004,0-.3448.363Zm52.67,46.128v0v0v0v0ZM288.7,54.9549c.08-.4935.08-.4936.079-.4936l-.001-.0003-.005-.0008-.019-.003-.073-.0112c-.064-.0097-.159-.0237-.285-.0413-.25-.0352-.622-.0847-1.111-.1425-.979-.1154-2.425-.2638-4.303-.3967-3.755-.2657-9.239-.4691-16.162-.222-13.847.4942-33.455,2.7902-56.523,9.9945-8.32,2.592-18.534,9.6388-32.152,21.3549-13.623,11.7198-30.712,28.1671-52.793,49.6381-.638.335-1.514.493-2.625.465-1.14-.028-2.485-.25-3.996-.634-3.023-.768-6.643-2.167-10.484-3.864-4.849-2.143-9.9965-4.735-14.7016-7.105-2.7622-1.392-5.3721-2.706-7.68-3.808l-1.5743-.752.9372,1.472.4217-.269c-.4217.269-.4216.269-.4215.269l.0007.001.0029.005.0112.017.0445.07.174.273c.1529.24.3781.592.6672,1.045.5781.904,1.4121,2.207,2.4353,3.801c2.0465,3.188,4.8503,7.539,7.8795,12.194c6.0542,9.303,13.0212,19.837,16.6372,24.7c5.655,7.617,13.551,13.611,20.013,17.694c3.234,2.044,6.116,3.613,8.191,4.673c1.037.53,1.873.932,2.451,1.202.289.136.513.238.665.306.077.035.135.061.174.078l.046.02.011.005.003.001.001.001c.001,0,.001,0,.199-.459l-.198.459.551-.814v0l-.001-.001-.002-.002-.009-.009-.035-.034-.127-.126c-.039-.042-.084-.09-.136-.145-1.067-1.14-4.747-5.07-8.73-9.727-4.196-4.907-8.69-10.577-10.839-14.636-.558-1.058-.798-2.184-.57-3.503.232-1.334.949-2.901,2.379-4.816c2.866-3.836,8.496-8.941,18.36-16.191h.001c2.087-1.535,4.803-3.619,8.071-6.127c10.732-8.235,27.413-21.035,47.309-33.9379c25.953-16.8316,57.316-33.7981,87.955-40.9804l-.034-.9803-.08.4935Z" filter="url(#eNrimuYUf8S3-filter)" stroke="#000" stroke-width="30"/><path id="eNrimuYUf8S4" style="filter:blur(40.049969px) " d="M140.911,164.765c15.871,7.023,35.393,12.67,52.071,16.193c8.34,1.762,15.978,2.996,22.101,3.604c3.062.305,5.751.454,7.964.433c2.202-.02,3.972-.208,5.173-.599v-.001c6.205-2.029,12.546-6.85,18.684-13.256c6.146-6.414,12.125-14.456,17.602-22.988c10.953-17.063,19.93-36.137,24.232-48.1926l.374-1.0462-1.031.4142.186.4639c-.186-.4639-.186-.4639-.186-.4638l-.001.0004-.004.0014-.014.0057-.056.0224-.22.0889c-.194.0784-.482.195-.857.3478-.752.3059-1.853.7559-3.257,1.3339-2.807,1.157-6.819,2.827-11.643,4.88-9.648,4.108-22.545,9.751-35.536,15.894-21.7,10.261-34.873,16.848-41.072,20.007l-.003.002-5.149,2.678.378.922l60.23-18.554c-.086.192-.185.409-.295.651-.483,1.055-1.195,2.566-2.117,4.395-1.843,3.657-4.518,8.576-7.848,13.626-3.331,5.052-7.309,10.221-11.754,14.389-4.449,4.172-9.334,7.31-14.477,8.354-10.422,2.116-24.951-.52-36.95-3.725-5.985-1.599-11.316-3.331-15.154-4.666-1.918-.667-3.463-1.234-4.529-1.634-.321-.121-.598-.226-.829-.314c6.28-4.73,45.794-33.18,133.557-69.3128.103-.0342.218-.0692.342-.1066l.023-.0071.023-.0093c.863-.3564,1.753-1.1103,2.591-2.0515.846-.9504,1.673-2.1313,2.404-3.3952c1.45-2.5104,2.568-5.4354,2.636-7.6136l.017-.565-.563.0515.046.498c-.046-.498-.046-.4979-.046-.4979l-.001.0001-.005.0005-.019.0017-.072.0069c-.064.0063-.158.0157-.282.0285-.248.0258-.615.0654-1.091.1211-.953.1114-2.345.2871-4.104.5445-3.52.515-8.512,1.3572-14.407,2.6669-11.786,2.6182-27.2,7.1085-41.682,14.5982-19.447,9.3701-45.56,25.8381-66.796,39.9511-10.622,7.06-20.031,13.535-26.784,18.245-3.377,2.355-6.09,4.269-7.958,5.594-.935.662-1.658,1.178-2.148,1.528-.245.175-.432.308-.557.398l-.142.102-.036.025-.009.007-.002.002c0,0,0,0,.016.023.025.036.091.127.259.361l-.276-.384-.584.42.597.401.279-.415m8.761,5.516l.202-.457-.202.457c0,0,0,0,0,0Zm0,0c-2.112-.931-4.374-2.208-6.1-3.247-.865-.521-1.599-.983-2.117-1.316-.259-.167-.464-.301-.605-.393-.07-.046-.124-.082-.161-.107l-.042-.028-.011-.007-.003-.002v-.001h-.001c0,0,0,0,.279-.415m0,0c.292.406.292.406.293.406l.002-.002.009-.006.035-.026.141-.101c.083-.059.192-.137.326-.233.025-.018.051-.037.078-.056m-.884.018l.279-.415v0v.001l.003.001.01.007.04.026c.035.024.088.059.157.105.1.065.233.152.395.257m0,0c.063.041.13.084.201.13.511.328,1.237.786,2.092,1.3c1.713,1.031,3.933,2.283,5.988,3.189v0c15.789,6.988,35.241,12.616,51.874,16.13c8.315,1.757,15.916,2.983,21.993,3.587c3.039.302,5.691.448,7.856.428c2.176-.02,3.821-.208,4.871-.55m-94.875-24.214c.048-.034.099-.07.152-.109.489-.349,1.212-.864,2.145-1.526c1.867-1.323,4.578-3.236,7.952-5.589c6.748-4.707,16.151-11.177,26.766-18.232c21.237-14.114,47.303-30.549,66.683-39.8863l.006-.0031.006-.0033c14.38-7.4378,29.706-11.9055,41.446-14.5134c5.868-1.3036,10.835-2.1416,14.334-2.6536c1.75-.256,3.132-.4304,4.076-.5408.346-.0404.633-.0722.857-.0963-.215,1.8835-1.176,4.3501-2.459,6.571-.704,1.2184-1.493,2.3411-2.285,3.2306-.791.8889-1.552,1.5074-2.204,1.7831-.12.0361-.246.0746-.362.1136l-.016.0053-.015.0063C197.753,125.813,158.732,155.358,155.604,157.78l-.812.629.966.243.001.001.082.032c.073.029.182.071.324.126.283.11.7.269,1.236.471c1.073.403,2.626.973,4.553,1.643c3.854,1.34,9.209,3.081,15.224,4.687c12.002,3.206,26.734,5.906,37.407,3.739l-.1-.49.1.49c5.397-1.096,10.443-4.367,14.962-8.604c4.523-4.241,8.549-9.48,11.905-14.569c3.357-5.091,6.052-10.046,7.906-13.726.928-1.841,1.646-3.365,2.133-4.429.243-.532.429-.949.554-1.234.062-.142.109-.251.141-.325l.036-.084.009-.022.003-.005v-.002c0,0,.001-.001-.46-.195l.461.194.416-.987-1.024.315-56.006,17.253.255-.132c0-.001.001-.001.002-.001c6.189-3.155,19.353-9.737,41.043-19.993c12.975-6.135,25.859-11.773,35.499-15.877c4.821-2.053,8.829-3.721,11.633-4.877c1.402-.577,2.502-1.027,3.252-1.332.038-.015.075-.03.111-.044-4.412,12.022-13.153,30.424-23.751,46.936-5.456,8.499-11.397,16.484-17.483,22.836-6.093,6.359-12.296,11.043-18.273,12.998m0,0c0,0,0,0,0,0l.155.475-.155-.475Zm-86.796-19.137c31.66,14.01,77.95,22.549,86.951,19.612c24.153-7.9,51.153-59.193,59.976-83.499M251.511,126.76c-2.167,4.906-17.508,38.137-37.026,42.101-19.613,3.982-53.349-8.668-58.03-10.474m-.08-.567c5.454-4.14,44.877-32.907,133.931-69.5696m7.192-12.6793c-4.216.4463-34.215,4.0219-60.983,17.8671-36.981,17.8178-98.192,61.3948-103.93,65.4998M50,112.358l.3444-.363-.7928.583h-.0005v0h-.0001l-.0001-.001h-.0003l-.0005-.001.0054.012c.0056.013.0136.034.0217.059l.1998-.066-.1154.098-.0654.025c.0029.007.0058.015.0089.024l-.0075.006h-.0002v0h.0001l.0008.001.0039.006.0138.019c.0007.001.0013.002.0019.003.4102,1.113,2.2519,6.037,4.8373,11.811c2.6298,5.874,6.047,12.669,9.5249,17.223c1.7543,2.303,4.8017,4.438,8.383,6.356c3.594,1.924,7.7788,3.658,11.8603,5.139c8.0991,2.938,15.8356,4.898,17.8396,5.386.132.06.241.107.321.139.044.018.079.032.103.041l.029.011.009.003.003.001v.001h.001v0v0l.029-.081c0,0,.001,0,.001,0l-.03.081.038-.079c.012.002.022.004.03.005l.013.003h.004.001l.001.001v0v0l.029-.171v0l-.029.171.335-.807.01-.02c-.001,0-.001,0-.001,0l.03-.074c-8.636-6.153-21.7906-17.622-32.8022-27.57-5.5022-4.97-10.4634-9.555-14.049-12.897-1.7928-1.671-3.2416-3.032-4.2422-3.974-.5002-.471-.8884-.838-1.1514-1.087l-.2992-.283-.0761-.073-.0191-.018-.0048-.004-.0012-.002c-.0003,0-.0004,0-.3448.363Zm52.67,46.128v0v0v0v0ZM288.7,54.9549c.08-.4935.08-.4936.079-.4936l-.001-.0003-.005-.0008-.019-.003-.073-.0112c-.064-.0097-.159-.0237-.285-.0413-.25-.0352-.622-.0847-1.111-.1425-.979-.1154-2.425-.2638-4.303-.3967-3.755-.2657-9.239-.4691-16.162-.222-13.847.4942-33.455,2.7902-56.523,9.9945-8.32,2.592-18.534,9.6388-32.152,21.3549-13.623,11.7198-30.712,28.1671-52.793,49.6381-.638.335-1.514.493-2.625.465-1.14-.028-2.485-.25-3.996-.634-3.023-.768-6.643-2.167-10.484-3.864-4.849-2.143-9.9965-4.735-14.7016-7.105-2.7622-1.392-5.3721-2.706-7.68-3.808l-1.5743-.752.9372,1.472.4217-.269c-.4217.269-.4216.269-.4215.269l.0007.001.0029.005.0112.017.0445.07.174.273c.1529.24.3781.592.6672,1.045.5781.904,1.4121,2.207,2.4353,3.801c2.0465,3.188,4.8503,7.539,7.8795,12.194c6.0542,9.303,13.0212,19.837,16.6372,24.7c5.655,7.617,13.551,13.611,20.013,17.694c3.234,2.044,6.116,3.613,8.191,4.673c1.037.53,1.873.932,2.451,1.202.289.136.513.238.665.306.077.035.135.061.174.078l.046.02.011.005.003.001.001.001c.001,0,.001,0,.199-.459l-.198.459.551-.814v0l-.001-.001-.002-.002-.009-.009-.035-.034-.127-.126c-.039-.042-.084-.09-.136-.145-1.067-1.14-4.747-5.07-8.73-9.727-4.196-4.907-8.69-10.577-10.839-14.636-.558-1.058-.798-2.184-.57-3.503.232-1.334.949-2.901,2.379-4.816c2.866-3.836,8.496-8.941,18.36-16.191h.001c2.087-1.535,4.803-3.619,8.071-6.127c10.732-8.235,27.413-21.035,47.309-33.9379c25.953-16.8316,57.316-33.7981,87.955-40.9804l-.034-.9803-.08.4935Z" stroke="#5162ff" stroke-width="5"/></g><g id="eNrimuYUf8S5" transform="translate(0 0.000001)" opacity="0"><g transform="translate(.000001 0.000001)"><path d="M66.9013,113.279l42.6707,38.205-8.547,4.748-.018-.014-.433-.347c-.378-.304-.933-.749-1.636-1.315-1.406-1.132-3.4057-2.747-5.7803-4.678-4.7494-3.861-10.9982-8.985-16.9966-14.037-5.1799-4.363-11.6766-10.235-16.8801-15.018-2.6014-2.391-4.8788-4.509-6.5059-6.03-.8135-.76-1.4644-1.371-1.912-1.791-.077-.073-.148-.14-.2128-.201l16.251.478Z" fill="url(#eNrimuYUf8S7-fill)" stroke="url(#eNrimuYUf8S7-stroke)" stroke-width="0.5"/><path d="M120.721,131.643c2.245.798,4.239,1.373,5.732,1.579-1.755,1.728-2.804,2.555-3.354,2.888l-.156-.321c-.658.154-1.871.152-3.713-.175-1.835-.325-4.27-.967-7.359-2.068-6.038-2.152-14.5617-6.055-25.9566-12.764h12.0143c3.1103,1.926,8.8333,4.909,14.5313,7.478c2.868,1.293,5.734,2.484,8.261,3.383Z" fill="url(#eNrimuYUf8S8-fill)"/><path d="M120.721,131.643c2.245.798,4.239,1.373,5.732,1.579-1.755,1.728-2.804,2.555-3.354,2.888l-.156-.321c-.658.154-1.871.152-3.713-.175-1.835-.325-4.27-.967-7.359-2.068-6.038-2.152-14.5617-6.055-25.9566-12.764h12.0143c3.1103,1.926,8.8333,4.909,14.5313,7.478c2.868,1.293,5.734,2.484,8.261,3.383Z" fill="url(#eNrimuYUf8S9-fill)"/><path d="M120.721,131.643c2.245.798,4.239,1.373,5.732,1.579-1.755,1.728-2.804,2.555-3.354,2.888l-.156-.321c-.658.154-1.871.152-3.713-.175-1.835-.325-4.27-.967-7.359-2.068-6.038-2.152-14.5617-6.055-25.9566-12.764h12.0143c3.1103,1.926,8.8333,4.909,14.5313,7.478c2.868,1.293,5.734,2.484,8.261,3.383Z" fill="none" stroke="url(#eNrimuYUf8S10-stroke)" stroke-width="0.5"/><g filter="url(#eNrimuYUf8S11-filter)"><path d="M131.5,159.032c3-3,6.5-6,6.5-6s50-39.5,97.515-59.5936C264.379,78.509,297,75.5205,297,75.5205c-.128,4.114-4.283,11.3588-7.322,12.6137-.128.0388-.255.0805-.372.1164C217,110.532,162.59,150.639,159.5,153.032c.051.013,32.5,11,46.5,9c19.193-2.742,32-32.5,32-32.5l49.267-29.7415L225.5,128.032l-35.134,16.534L188,140.532c9.5-6,62-28,83.5-37.5c3.5-1,15.767-3.2415,15.767-3.2415-8.578,24.0375-35.839,75.1605-60.203,83.1295-9.001,2.937-63.905-9.877-95.564-23.888Z" fill="url(#eNrimuYUf8S12-fill)"/><path d="M131.5,159.032c3-3,6.5-6,6.5-6s50-39.5,97.515-59.5936C264.379,78.509,297,75.5205,297,75.5205c-.128,4.114-4.283,11.3588-7.322,12.6137-.128.0388-.255.0805-.372.1164C217,110.532,162.59,150.639,159.5,153.032c.051.013,32.5,11,46.5,9c19.193-2.742,32-32.5,32-32.5l49.267-29.7415L225.5,128.032l-35.134,16.534L188,140.532c9.5-6,62-28,83.5-37.5c3.5-1,15.767-3.2415,15.767-3.2415-8.578,24.0375-35.839,75.1605-60.203,83.1295-9.001,2.937-63.905-9.877-95.564-23.888Z" fill="url(#eNrimuYUf8S13-fill)"/></g><path d="M296.735,75.7979c-.146,1.972-1.161,4.6237-2.521,6.9765-.711,1.2298-1.509,2.3671-2.314,3.2718-.806.9046-1.601,1.5577-2.306,1.8523-.069.021-.143.0444-.213.0664-.053.0169-.104.033-.148.0468C216.886,110.305,162.45,150.432,159.347,152.834l-.406.315.489.123c.003.001.008.003.017.006l.072.024c.064.021.157.052.279.093.245.08.603.198,1.063.347.921.299,2.249.721,3.884,1.222c3.271,1.002,7.773,2.315,12.713,3.565c4.939,1.251,10.318,2.439,15.34,3.19c5.018.75,9.7,1.066,13.237.561c9.706-1.387,17.759-9.59,23.365-17.38c2.809-3.903,5.016-7.719,6.52-10.558.752-1.42,1.329-2.597,1.718-3.419.195-.411.342-.733.441-.953.02-.044.038-.084.054-.12.024-.054.043-.098.058-.132l.006-.013l48.596-29.336c-4.37,12.02-13.193,30.415-23.917,46.875-5.461,8.383-11.411,16.257-17.512,22.531-6.104,6.277-12.342,10.934-18.377,12.908-1.08.352-2.883.475-5.305.379-2.412-.096-5.41-.409-8.859-.912-6.897-1.006-15.585-2.769-24.985-5.061-18.668-4.554-40.121-11.194-55.902-18.138c1.422-1.409,2.93-2.799,4.106-3.858.624-.562,1.155-1.03,1.529-1.357.187-.164.335-.292.436-.38l.116-.1.03-.026.004-.003.003-.003.004-.003.027-.021.108-.085c.096-.075.239-.187.428-.334.377-.294.937-.728,1.666-1.287c1.459-1.119,3.597-2.739,6.311-4.747c5.427-4.015,13.159-9.578,22.375-15.769c18.434-12.383,42.797-27.272,66.533-37.3094l.009-.0037.009-.0045c14.406-7.4512,29.754-11.9248,41.506-14.5354c5.874-1.3051,10.848-2.1442,14.352-2.6569c1.752-.2564,3.137-.4311,4.083-.5417.473-.0553.836-.0946,1.081-.12.03-.0031.057-.0059.083-.0085ZM280.744,101.282c1.741-.341,3.373-.65,4.575-.876l-59.923,27.399-.002.001-34.928,16.436-2.127-3.627c2.438-1.502,7.386-3.94,13.797-6.911c6.592-3.053,14.715-6.662,23.214-10.38c8.315-3.638,16.993-7.382,24.946-10.814c8.294-3.579,15.801-6.817,21.289-9.242c1.746-.497,5.662-1.302,9.159-1.986Z" fill="none" stroke="#e707ec" stroke-width="0.5"/><g filter="url(#eNrimuYUf8S15-filter)"><path d="M152.5,130.032c-12,10.5-20.75,15-22.5,22c0,5.2,11.667,18.834,17.5,25l-4,9c0,0-22.5-17.5-25-24s2-14.5,15.5-27c9.468-8.767,60-51.4999,81.5-61.9999c46.04-14.3784,72-18,72-18-4,1.5001-12,7.0001-18,9.5001-31.5,5-106.229,57.5798-117,65.4998Z" fill="url(#eNrimuYUf8S16-fill)"/></g><path d="M129.757,151.972l-.007.029v.031c0,1.371.761,3.249,1.946,5.356c1.193,2.119,2.841,4.513,4.667,6.932c3.605,4.776,7.921,9.667,10.841,12.763l-3.802,8.555c-.001,0-.001-.001-.001-.001-.165-.129-.408-.32-.717-.565-.62-.491-1.508-1.2-2.581-2.07-2.147-1.741-5.035-4.13-8.001-6.721s-6.007-5.383-8.461-7.93c-1.227-1.274-2.304-2.484-3.152-3.575-.849-1.094-1.456-2.056-1.756-2.834-1.214-3.156-.743-6.7,1.734-11.036c2.481-4.341,6.958-9.445,13.703-15.69c4.727-4.378,19.722-17.248,36.223-30.338c16.5-13.088,34.476-26.3712,45.2-31.6129c23.004-7.1837,40.991-11.6803,53.226-14.3808c6.119-1.3506,10.8-2.252,13.949-2.8156c1.179-.2109,2.144-.3745,2.889-.4967-1.733.8485-3.852,2.0716-6.093,3.3652-.146.0842-.292.1687-.439.2534-3.243,1.8712-6.717,3.8559-9.694,5.0993-7.912,1.2622-18.505,5.4975-30.098,11.2482-11.613,5.7609-24.251,13.0539-36.238,20.436-23.972,14.7639-45.353,29.8929-50.743,33.8569l-.009.006-.008.007c-2.995,2.621-5.788,4.868-8.322,6.875-.504.399-.998.788-1.481,1.17-1.945,1.535-3.719,2.935-5.287,4.265-3.91,3.315-6.592,6.234-7.488,9.818Z" fill="none" stroke="#e707ec" stroke-width="0.5"/></g><g filter="url(#eNrimuYUf8S18-filter)"><path d="M131.15,159.249c0,0,4.796,2.222,8.963,4.059c31.66,14.011,77.95,22.549,86.951,19.612c24.364-7.969,51.625-59.092,60.203-83.1296c0,0-25.594,10.2846-51.56,22.5626-21.696,10.259-34.865,16.844-41.059,20-.679.272-1.089.44-1.269.518l1.103-.427c-2.796,1.423-4.116,2.122-4.116,2.122l60.408-18.41c0,0-16.208,37.423-37.289,41.706-21.093,4.282-58.523-10.674-58.574-10.687c3.09-2.393,42.071-30.915,134.395-68.9244.116-.0388.244-.0777.372-.1165c3.039-1.2549,7.194-8.4996,7.322-12.6136c0,0-32.621,2.9884-61.485,17.9178C193.379,112.358,131.15,159.249,131.15,159.249Z" fill="#002dcd"/><path style="mix-blend-mode:hard-light" d="M131.15,159.249c0,0,4.796,2.222,8.963,4.059c31.66,14.011,77.95,22.549,86.951,19.612c24.364-7.969,51.625-59.092,60.203-83.1296c0,0-25.594,10.2846-51.56,22.5626-21.696,10.259-34.865,16.844-41.059,20-.679.272-1.089.44-1.269.518l1.103-.427c-2.796,1.423-4.116,2.122-4.116,2.122l60.408-18.41c0,0-16.208,37.423-37.289,41.706-21.093,4.282-58.523-10.674-58.574-10.687c3.09-2.393,42.071-30.915,134.395-68.9244.116-.0388.244-.0777.372-.1165c3.039-1.2549,7.194-8.4996,7.322-12.6136c0,0-32.621,2.9884-61.485,17.9178C193.379,112.358,131.15,159.249,131.15,159.249Z" fill="url(#eNrimuYUf8S20-fill)"/><path d="M50,112.358c0,0,.0262.053.0524.133-.0131-.013-.0524-.053-.0524-.053s.0393.053.0655.093c.7209,1.962,8.0537,19.492,14.9345,28.501c9.1225,8.538,32.3881,14.238,36.228,15.172.289.133.472.2.472.2-.066-.04-.131-.093-.197-.133.118.026.197.04.197.04C84.3736,143.965,50,112.358,50,112.358Z" fill="#002dcd"/><path style="mix-blend-mode:hard-light" d="M50,112.358c0,0,.0262.053.0524.133-.0131-.013-.0524-.053-.0524-.053s.0393.053.0655.093c.7209,1.962,8.0537,19.492,14.9345,28.501c9.1225,8.538,32.3881,14.238,36.228,15.172.289.133.472.2.472.2-.066-.04-.131-.093-.197-.133.118.026.197.04.197.04C84.3736,143.965,50,112.358,50,112.358Z" fill="url(#eNrimuYUf8S22-fill)"/><path d="M123.867,161.23c-2.416-4.58.578-10.64,20.315-25.146c17.836-13.115,82.071-66.725,143.518-81.1289c0,0-32.214-5.2181-78.254,9.1603-16.422,5.116-40.579,27.9275-84.795,70.9226-6.014,3.33-27.6011-8.982-40.001-14.902c0,0,20.624,32.38,27.832,42.077c11.205,15.093,31.353,23.819,31.353,23.819s-.064-.064-.179-.179c-1.671-1.786-15.433-16.394-19.789-24.623Z" fill="#002dcd"/><path style="mix-blend-mode:hard-light" d="M123.867,161.23c-2.416-4.58.578-10.64,20.315-25.146c17.836-13.115,82.071-66.725,143.518-81.1289c0,0-32.214-5.2181-78.254,9.1603-16.422,5.116-40.579,27.9275-84.795,70.9226-6.014,3.33-27.6011-8.982-40.001-14.902c0,0,20.624,32.38,27.832,42.077c11.205,15.093,31.353,23.819,31.353,23.819s-.064-.064-.179-.179c-1.671-1.786-15.433-16.394-19.789-24.623Z" fill="url(#eNrimuYUf8S24-fill)"/></g><g id="eNrimuYUf8S25_to" style="offset-path:path('M55.287347,50.560183L169.393501,120');offset-rotate:0deg"><g id="eNrimuYUf8S25" style="filter:blur(30px)" transform="translate(-169.392758,-120.015995)"><g filter="url(#eNrimuYUf8S26-filter)"><path d="M118,157.032c2.375-9.5,11.5-17.5,23.5-28c10.771-7.92,41.5-39,67.946-54c19.054-8,53.916-14.3718,78.254-20.077c0,0-32.214-5.3014-78.254,9.077-19.946,3-82.3,70.998-93.446,77.5-6,3.5-22.0001-16-31.3501-21.396c0,0,20.6241,32.38,27.8321,42.077c11.205,15.092,30.353,23.819,30.353,23.819s-.064-.064-.18-.179C140.985,184.067,116,165.032,118,157.032Z" fill="url(#eNrimuYUf8S27-fill)"/><path style="mix-blend-mode:overlay" d="M118,157.032c2.375-9.5,11.5-17.5,23.5-28c10.771-7.92,41.5-39,67.946-54c19.054-8,53.916-14.3718,78.254-20.077c0,0-32.214-5.3014-78.254,9.077-19.946,3-82.3,70.998-93.446,77.5-6,3.5-22.0001-16-31.3501-21.396c0,0,20.6241,32.38,27.8321,42.077c11.205,15.092,30.353,23.819,30.353,23.819s-.064-.064-.18-.179C140.985,184.067,116,165.032,118,157.032Z" fill="#f41edf" fill-opacity="0.97"/><path style="mix-blend-mode:plus-lighter" d="M118,157.032c2.375-9.5,11.5-17.5,23.5-28c10.771-7.92,41.5-39,67.946-54c19.054-8,53.916-14.3718,78.254-20.077c0,0-32.214-5.3014-78.254,9.077-19.946,3-82.3,70.998-93.446,77.5-6,3.5-22.0001-16-31.3501-21.396c0,0,20.6241,32.38,27.8321,42.077c11.205,15.092,30.353,23.819,30.353,23.819s-.064-.064-.18-.179C140.985,184.067,116,165.032,118,157.032Z" fill="url(#eNrimuYUf8S29-fill)" fill-opacity="0.2"/></g><path d="M98.0157,154.966c-5.6856-1.548-11.7818-3.287-17.2606-5.294-6.4841-2.374-12.0583-5.108-15.0731-8.311-3.0284-3.218-6.6917-9.942-9.6981-16.14-2.1241-4.379-3.9096-8.472-4.8984-10.835c3.5523,4.936,13.6256,18.711,19.7377,24.823c1.7717,1.772,4.5425,3.722,7.6869,5.646c3.1482,1.926,6.6857,3.836,10.0014,5.525c3.3161,1.689,6.4129,3.159,8.6805,4.207.2884.133.5634.26.8237.379Z" fill="url(#eNrimuYUf8S30-fill)"/><g filter="url(#eNrimuYUf8S31-filter)"><path d="M131.15,159.249c0,0,4.796,2.222,8.963,4.059c31.66,14.011,77.95,22.549,86.951,19.612c24.364-7.969,51.625-59.092,60.203-83.1295c0,0-25.594,10.2845-51.56,22.5625-21.696,10.259-34.865,16.844-41.059,20-.679.272-1.09.44-1.269.518l1.103-.427c-2.796,1.423-4.116,2.122-4.116,2.122L267.5,114.032c0,0-27,57.5-50.5,60.5-21.094,4.282-68.038-16.344-68.089-16.356c3.09-2.394,68.089-47.644,140.395-69.9254.117-.0359.244-.0776.372-.1164c3.039-1.2549,7.194-8.4997,7.322-12.6137c0,0-32.621,2.9885-61.485,17.9179C193.379,112.358,131.15,159.249,131.15,159.249Z" fill="url(#eNrimuYUf8S32-fill)"/><path style="mix-blend-mode:overlay" d="M131.15,159.249c0,0,4.796,2.222,8.963,4.059c31.66,14.011,77.95,22.549,86.951,19.612c24.364-7.969,51.625-59.092,60.203-83.1295c0,0-25.594,10.2845-51.56,22.5625-21.696,10.259-34.865,16.844-41.059,20-.679.272-1.09.44-1.269.518l1.103-.427c-2.796,1.423-4.116,2.122-4.116,2.122L267.5,114.032c0,0-27,57.5-50.5,60.5-21.094,4.282-68.038-16.344-68.089-16.356c3.09-2.394,68.089-47.644,140.395-69.9254.117-.0359.244-.0776.372-.1164c3.039-1.2549,7.194-8.4997,7.322-12.6137c0,0-32.621,2.9885-61.485,17.9179C193.379,112.358,131.15,159.249,131.15,159.249Z" fill="#db04c5" fill-opacity="0.97"/><path style="mix-blend-mode:plus-lighter" d="M131.15,159.249c0,0,4.796,2.222,8.963,4.059c31.66,14.011,77.95,22.549,86.951,19.612c24.364-7.969,51.625-59.092,60.203-83.1295c0,0-25.594,10.2845-51.56,22.5625-21.696,10.259-34.865,16.844-41.059,20-.679.272-1.09.44-1.269.518l1.103-.427c-2.796,1.423-4.116,2.122-4.116,2.122L267.5,114.032c0,0-27,57.5-50.5,60.5-21.094,4.282-68.038-16.344-68.089-16.356c3.09-2.394,68.089-47.644,140.395-69.9254.117-.0359.244-.0776.372-.1164c3.039-1.2549,7.194-8.4997,7.322-12.6137c0,0-32.621,2.9885-61.485,17.9179C193.379,112.358,131.15,159.249,131.15,159.249Z" fill="url(#eNrimuYUf8S34-fill)"/></g></g></g><g style="mix-blend-mode:color-dodge"><path style="mix-blend-mode:color" d="M164.811,92.2121c20.376-20.3763,38.946-34.8428,41.477-32.312s-11.936,21.1008-32.312,41.4769-38.946,34.843-41.477,32.312s11.936-21.101,32.312-41.4769Z" fill="url(#eNrimuYUf8S40-fill)"/></g><g style="mix-blend-mode:plus-lighter"><path style="mix-blend-mode:color" d="M151.943,104.86c-25.358,23.3-43.41,44.914-40.321,48.275c3.089,3.362,26.15-12.801,51.509-36.101c25.358-23.3005,43.41-44.9141,40.321-48.2757-3.089-3.3617-26.15,12.8016-51.509,36.1017Z" fill="url(#eNrimuYUf8S42-fill)"/></g><g style="mix-blend-mode:plus-lighter"><path style="mix-blend-mode:color" d="M259.633,127.367c-15.814,23.933-25.545,45.374-21.736,47.891c3.81,2.516,19.717-14.845,35.53-38.778c15.814-23.933,25.545-45.3747,21.736-47.8913-3.81-2.5166-19.717,14.8453-35.53,38.7783Z" fill="url(#eNrimuYUf8S44-fill)"/></g></g><g filter="url(#eNrimuYUf8S45-filter)"><path id="eNrimuYUf8S46" d="M140.911,164.765c15.871,7.023,35.393,12.67,52.071,16.193c8.34,1.762,15.978,2.996,22.101,3.604c3.062.305,5.751.454,7.964.433c2.202-.02,3.972-.208,5.173-.599v-.001c6.205-2.029,12.546-6.85,18.684-13.256c6.146-6.414,12.125-14.456,17.602-22.988c10.953-17.063,19.93-36.137,24.232-48.1926l.374-1.0462-1.031.4142.186.4639c-.186-.4639-.186-.4639-.186-.4638l-.001.0004-.004.0014-.014.0057-.056.0224-.22.0889c-.194.0784-.482.195-.857.3478-.752.3059-1.853.7559-3.257,1.3339-2.807,1.157-6.819,2.827-11.643,4.88-9.648,4.108-22.545,9.751-35.536,15.894-21.7,10.261-34.873,16.848-41.072,20.007l-.003.002-5.149,2.678.378.922l60.23-18.554c-.086.192-.185.409-.295.651-.483,1.055-1.195,2.566-2.117,4.395-1.843,3.657-4.518,8.576-7.848,13.626-3.331,5.052-7.309,10.221-11.754,14.389-4.449,4.172-9.334,7.31-14.477,8.354-10.422,2.116-24.951-.52-36.95-3.725-5.985-1.599-11.316-3.331-15.154-4.666-1.918-.667-3.463-1.234-4.529-1.634-.321-.121-.598-.226-.829-.314c6.28-4.73,45.794-33.18,133.557-69.3128.103-.0342.218-.0692.342-.1066l.023-.0071.023-.0093c.863-.3564,1.753-1.1103,2.591-2.0515.846-.9504,1.673-2.1313,2.404-3.3952c1.45-2.5104,2.568-5.4354,2.636-7.6136l.017-.565-.563.0515.046.498c-.046-.498-.046-.4979-.046-.4979l-.001.0001-.005.0005-.019.0017-.072.0069c-.064.0063-.158.0157-.282.0285-.248.0258-.615.0654-1.091.1211-.953.1114-2.345.2871-4.104.5445-3.52.515-8.512,1.3572-14.407,2.6669-11.786,2.6182-27.2,7.1085-41.682,14.5982-19.447,9.3701-45.56,25.8381-66.796,39.9511-10.622,7.06-20.031,13.535-26.784,18.245-3.377,2.355-6.09,4.269-7.958,5.594-.935.662-1.658,1.178-2.148,1.528-.245.175-.432.308-.557.398l-.142.102-.036.025-.009.007-.002.002c0,0,0,0,.016.023.025.036.091.127.259.361l-.276-.384-.584.42.597.401.279-.415m8.761,5.516l.202-.457-.202.457c0,0,0,0,0,0Zm0,0c-2.112-.931-4.374-2.208-6.1-3.247-.865-.521-1.599-.983-2.117-1.316-.259-.167-.464-.301-.605-.393-.07-.046-.124-.082-.161-.107l-.042-.028-.011-.007-.003-.002v-.001h-.001c0,0,0,0,.279-.415m0,0c.292.406.292.406.293.406l.002-.002.009-.006.035-.026.141-.101c.083-.059.192-.137.326-.233.025-.018.051-.037.078-.056m-.884.018l.279-.415v0v.001l.003.001.01.007.04.026c.035.024.088.059.157.105.1.065.233.152.395.257m0,0c.063.041.13.084.201.13.511.328,1.237.786,2.092,1.3c1.713,1.031,3.933,2.283,5.988,3.189v0c15.789,6.988,35.241,12.616,51.874,16.13c8.315,1.757,15.916,2.983,21.993,3.587c3.039.302,5.691.448,7.856.428c2.176-.02,3.821-.208,4.871-.55m-94.875-24.214c.048-.034.099-.07.152-.109.489-.349,1.212-.864,2.145-1.526c1.867-1.323,4.578-3.236,7.952-5.589c6.748-4.707,16.151-11.177,26.766-18.232c21.237-14.114,47.303-30.549,66.683-39.8863l.006-.0031.006-.0033c14.38-7.4378,29.706-11.9055,41.446-14.5134c5.868-1.3036,10.835-2.1416,14.334-2.6536c1.75-.256,3.132-.4304,4.076-.5408.346-.0404.633-.0722.857-.0963-.215,1.8835-1.176,4.3501-2.459,6.571-.704,1.2184-1.493,2.3411-2.285,3.2306-.791.8889-1.552,1.5074-2.204,1.7831-.12.0361-.246.0746-.362.1136l-.016.0053-.015.0063C197.753,125.813,158.732,155.358,155.604,157.78l-.812.629.966.243.001.001.082.032c.073.029.182.071.324.126.283.11.7.269,1.236.471c1.073.403,2.626.973,4.553,1.643c3.854,1.34,9.209,3.081,15.224,4.687c12.002,3.206,26.734,5.906,37.407,3.739l-.1-.49.1.49c5.397-1.096,10.443-4.367,14.962-8.604c4.523-4.241,8.549-9.48,11.905-14.569c3.357-5.091,6.052-10.046,7.906-13.726.928-1.841,1.646-3.365,2.133-4.429.243-.532.429-.949.554-1.234.062-.142.109-.251.141-.325l.036-.084.009-.022.003-.005v-.002c0,0,.001-.001-.46-.195l.461.194.416-.987-1.024.315-56.006,17.253.255-.132c0-.001.001-.001.002-.001c6.189-3.155,19.353-9.737,41.043-19.993c12.975-6.135,25.859-11.773,35.499-15.877c4.821-2.053,8.829-3.721,11.633-4.877c1.402-.577,2.502-1.027,3.252-1.332.038-.015.075-.03.111-.044-4.412,12.022-13.153,30.424-23.751,46.936-5.456,8.499-11.397,16.484-17.483,22.836-6.093,6.359-12.296,11.043-18.273,12.998m0,0c0,0,0,0,0,0l.155.475-.155-.475Zm-86.796-19.137c31.66,14.01,77.95,22.549,86.951,19.612c24.153-7.9,51.153-59.193,59.976-83.499M251.511,126.76c-2.167,4.906-17.508,38.137-37.026,42.101-19.613,3.982-53.349-8.668-58.03-10.474m-.08-.567c5.454-4.14,44.877-32.907,133.931-69.5696m7.192-12.6793c-4.216.4463-34.215,4.0219-60.983,17.8671-36.981,17.8178-98.192,61.3948-103.93,65.4998M50,112.358l.3444-.363-.7928.583h-.0005v0h-.0001l-.0001-.001h-.0003l-.0005-.001.0054.012c.0056.013.0136.034.0217.059l.1998-.066-.1154.098-.0654.025c.0029.007.0058.015.0089.024l-.0075.006h-.0002v0h.0001l.0008.001.0039.006.0138.019c.0007.001.0013.002.0019.003.4102,1.113,2.2519,6.037,4.8373,11.811c2.6298,5.874,6.047,12.669,9.5249,17.223c1.7543,2.303,4.8017,4.438,8.383,6.356c3.594,1.924,7.7788,3.658,11.8603,5.139c8.0991,2.938,15.8356,4.898,17.8396,5.386.132.06.241.107.321.139.044.018.079.032.103.041l.029.011.009.003.003.001v.001h.001v0v0l.029-.081c0,0,.001,0,.001,0l-.03.081.038-.079c.012.002.022.004.03.005l.013.003h.004.001l.001.001v0v0l.029-.171v0l-.029.171.335-.807.01-.02c-.001,0-.001,0-.001,0l.03-.074c-8.636-6.153-21.7906-17.622-32.8022-27.57-5.5022-4.97-10.4634-9.555-14.049-12.897-1.7928-1.671-3.2416-3.032-4.2422-3.974-.5002-.471-.8884-.838-1.1514-1.087l-.2992-.283-.0761-.073-.0191-.018-.0048-.004-.0012-.002c-.0003,0-.0004,0-.3448.363Zm52.67,46.128v0v0v0v0ZM288.7,54.9549c.08-.4935.08-.4936.079-.4936l-.001-.0003-.005-.0008-.019-.003-.073-.0112c-.064-.0097-.159-.0237-.285-.0413-.25-.0352-.622-.0847-1.111-.1425-.979-.1154-2.425-.2638-4.303-.3967-3.755-.2657-9.239-.4691-16.162-.222-13.847.4942-33.455,2.7902-56.523,9.9945-8.32,2.592-18.534,9.6388-32.152,21.3549-13.623,11.7198-30.712,28.1671-52.793,49.6381-.638.335-1.514.493-2.625.465-1.14-.028-2.485-.25-3.996-.634-3.023-.768-6.643-2.167-10.484-3.864-4.849-2.143-9.9965-4.735-14.7016-7.105-2.7622-1.392-5.3721-2.706-7.68-3.808l-1.5743-.752.9372,1.472.4217-.269c-.4217.269-.4216.269-.4215.269l.0007.001.0029.005.0112.017.0445.07.174.273c.1529.24.3781.592.6672,1.045.5781.904,1.4121,2.207,2.4353,3.801c2.0465,3.188,4.8503,7.539,7.8795,12.194c6.0542,9.303,13.0212,19.837,16.6372,24.7c5.655,7.617,13.551,13.611,20.013,17.694c3.234,2.044,6.116,3.613,8.191,4.673c1.037.53,1.873.932,2.451,1.202.289.136.513.238.665.306.077.035.135.061.174.078l.046.02.011.005.003.001.001.001c.001,0,.001,0,.199-.459l-.198.459.551-.814v0l-.001-.001-.002-.002-.009-.009-.035-.034-.127-.126c-.039-.042-.084-.09-.136-.145-1.067-1.14-4.747-5.07-8.73-9.727-4.196-4.907-8.69-10.577-10.839-14.636-.558-1.058-.798-2.184-.57-3.503.232-1.334.949-2.901,2.379-4.816c2.866-3.836,8.496-8.941,18.36-16.191h.001c2.087-1.535,4.803-3.619,8.071-6.127c10.732-8.235,27.413-21.035,47.309-33.9379c25.953-16.8316,57.316-33.7981,87.955-40.9804l-.034-.9803-.08.4935Z" fill="none" stroke="url(#eNrimuYUf8S46-stroke)" stroke-width="2" stroke-linecap="square" stroke-dashoffset="3066.94" stroke-dasharray="3066.94"/></g></svg>
