<svg width="24" height="80" viewBox="0 0 24 80" fill="none" xmlns="http://www.w3.org/2000/svg">
<path fill-rule="evenodd" clip-rule="evenodd" d="M2 40C2 45.51 6.49 50 12 50C17.51 50 22 45.51 22 40C22 34.49 17.51 30 12 30C6.49 30 2 34.49 2 40ZM15.32 37.43C15.32 39.26 13.83 40.75 12 40.75C10.17 40.75 8.68 39.26 8.68 37.43C8.68 35.6 10.17 34.11 12 34.11C13.83 34.11 15.32 35.6 15.32 37.43ZM5.79 45.8C5.45 45.44 5.14 45.04 4.86 44.61C6.76 43.16 9.33 42.33 12 42.33C14.67 42.33 17.24 43.16 19.14 44.61C18.86 45.04 18.55 45.44 18.21 45.8C16.66 47.46 14.45 48.5 12 48.5C9.55 48.5 7.34 47.46 5.79 45.8Z" fill="#006CE1"/>
<circle cx="19" cy="46" r="4" fill="white"/>
<path fill-rule="evenodd" clip-rule="evenodd" d="M19 50C21.2091 50 23 48.2091 23 46C23 43.7909 21.2091 42 19 42C16.7909 42 15 43.7909 15 46C15 48.2091 16.7909 50 19 50ZM21 46.75C21.4142 46.75 21.75 46.4142 21.75 46C21.75 45.5858 21.4142 45.25 21 45.25H17C16.5858 45.25 16.25 45.5858 16.25 46C16.25 46.4142 16.5858 46.75 17 46.75H21Z" fill="#006CE1"/>
<path d="M4.80957 17.6299C6.54957 16.0799 9.12957 15.0898 11.9996 15.0898C13.6263 15.0898 15.1598 15.4047 16.5 15.9615" stroke="black" stroke-width="1.5" stroke-linecap="round" stroke-linejoin="round"/>
<path fill-rule="evenodd" clip-rule="evenodd" d="M11.9997 11.9999C10.5803 11.9999 9.42969 10.8492 9.42969 9.42987C9.42969 8.0105 10.5803 6.85986 11.9997 6.85986C13.4191 6.85986 14.5697 8.0105 14.5697 9.42987C14.5697 10.8492 13.4191 11.9999 11.9997 11.9999Z" stroke="black" stroke-width="1.5" stroke-linecap="round" stroke-linejoin="round"/>
<path d="M21.0208 14.0556C21.1708 13.3945 21.25 12.7065 21.25 12C21.25 6.89137 17.1086 2.75 12 2.75C6.89137 2.75 2.75 6.89137 2.75 12C2.75 17.1086 6.89137 21.25 12 21.25C12.7065 21.25 13.3945 21.1708 14.0556 21.0208" stroke="black" stroke-width="1.5" stroke-linecap="round" stroke-linejoin="round"/>
<path d="M22 18L18 18" stroke="black" stroke-width="1.5" stroke-linecap="round"/>
<path d="M4.80957 73.6299C6.54957 72.0799 9.12957 71.0898 11.9996 71.0898C13.6263 71.0898 15.1598 71.4047 16.5 71.9615" stroke="#818181" stroke-width="1.5" stroke-linecap="round" stroke-linejoin="round"/>
<path fill-rule="evenodd" clip-rule="evenodd" d="M11.9997 67.9999C10.5803 67.9999 9.42969 66.8492 9.42969 65.4299C9.42969 64.0105 10.5803 62.8599 11.9997 62.8599C13.4191 62.8599 14.5697 64.0105 14.5697 65.4299C14.5697 66.8492 13.4191 67.9999 11.9997 67.9999Z" stroke="#818181" stroke-width="1.5" stroke-linecap="round" stroke-linejoin="round"/>
<path d="M21.0208 70.0556C21.1708 69.3945 21.25 68.7065 21.25 68C21.25 62.8914 17.1086 58.75 12 58.75C6.89137 58.75 2.75 62.8914 2.75 68C2.75 73.1086 6.89137 77.25 12 77.25C12.7065 77.25 13.3945 77.1708 14.0556 77.0208" stroke="#818181" stroke-width="1.5" stroke-linecap="round" stroke-linejoin="round"/>
<path d="M22 74L18 74" stroke="#818181" stroke-width="1.5" stroke-linecap="round"/>
</svg>
