<svg width="24" height="80" viewBox="0 0 24 80" fill="none" xmlns="http://www.w3.org/2000/svg">
<path fill-rule="evenodd" clip-rule="evenodd" d="M2 40C2 45.51 6.49 50 12 50C17.51 50 22 45.51 22 40C22 34.49 17.51 30 12 30C6.49 30 2 34.49 2 40ZM15.32 37.43C15.32 39.26 13.83 40.75 12 40.75C10.17 40.75 8.68 39.26 8.68 37.43C8.68 35.6 10.17 34.11 12 34.11C13.83 34.11 15.32 35.6 15.32 37.43ZM5.79 45.8C5.45 45.44 5.14 45.04 4.86 44.61C6.76 43.16 9.33 42.33 12 42.33C14.67 42.33 17.24 43.16 19.14 44.61C18.86 45.04 18.55 45.44 18.21 45.8C16.66 47.46 14.45 48.5 12 48.5C9.55 48.5 7.34 47.46 5.79 45.8Z" fill="#006CE1"/>
<path d="M19.1896 17.6299C17.4496 16.0699 14.8696 15.0898 11.9996 15.0898C9.12957 15.0898 6.54957 16.0799 4.80957 17.6299" stroke="black" stroke-width="1.5" stroke-linecap="round" stroke-linejoin="round"/>
<path fill-rule="evenodd" clip-rule="evenodd" d="M11.9997 11.9999C10.5803 11.9999 9.42969 10.8492 9.42969 9.42987C9.42969 8.0105 10.5803 6.85986 11.9997 6.85986C13.4191 6.85986 14.5697 8.0105 14.5697 9.42987C14.5697 10.8492 13.4191 11.9999 11.9997 11.9999Z" stroke="black" stroke-width="1.5" stroke-linecap="round" stroke-linejoin="round"/>
<path fill-rule="evenodd" clip-rule="evenodd" d="M12 21.25C6.89137 21.25 2.75 17.1086 2.75 12C2.75 6.89137 6.89137 2.75 12 2.75C17.1086 2.75 21.25 6.89137 21.25 12C21.25 17.1086 17.1086 21.25 12 21.25Z" stroke="black" stroke-width="1.5" stroke-linecap="round" stroke-linejoin="round"/>
<path d="M19.1896 73.6299C17.4496 72.0699 14.8696 71.0898 11.9996 71.0898C9.12957 71.0898 6.54957 72.0799 4.80957 73.6299" stroke="#818181" stroke-width="1.5" stroke-linecap="round" stroke-linejoin="round"/>
<path fill-rule="evenodd" clip-rule="evenodd" d="M11.9997 67.9999C10.5803 67.9999 9.42969 66.8492 9.42969 65.4299C9.42969 64.0105 10.5803 62.8599 11.9997 62.8599C13.4191 62.8599 14.5697 64.0105 14.5697 65.4299C14.5697 66.8492 13.4191 67.9999 11.9997 67.9999Z" stroke="#818181" stroke-width="1.5" stroke-linecap="round" stroke-linejoin="round"/>
<path fill-rule="evenodd" clip-rule="evenodd" d="M12 77.25C6.89137 77.25 2.75 73.1086 2.75 68C2.75 62.8914 6.89137 58.75 12 58.75C17.1086 58.75 21.25 62.8914 21.25 68C21.25 73.1086 17.1086 77.25 12 77.25Z" stroke="#818181" stroke-width="1.5" stroke-linecap="round" stroke-linejoin="round"/>
</svg>
