<svg width="24" height="80" viewBox="0 0 24 80" fill="none" xmlns="http://www.w3.org/2000/svg">
<path fill-rule="evenodd" clip-rule="evenodd" d="M2 40C2 45.51 6.49 50 12 50C17.51 50 22 45.51 22 40C22 34.49 17.51 30 12 30C6.49 30 2 34.49 2 40ZM15.32 37.43C15.32 39.26 13.83 40.75 12 40.75C10.17 40.75 8.68 39.26 8.68 37.43C8.68 35.6 10.17 34.11 12 34.11C13.83 34.11 15.32 35.6 15.32 37.43ZM5.79 45.8C5.45 45.44 5.14 45.04 4.86 44.61C6.76 43.16 9.33 42.33 12 42.33C14.67 42.33 17.24 43.16 19.14 44.61C18.86 45.04 18.55 45.44 18.21 45.8C16.66 47.46 14.45 48.5 12 48.5C9.55 48.5 7.34 47.46 5.79 45.8Z" fill="#006CE1"/>
<circle cx="19" cy="46" r="4" fill="white"/>
<path fill-rule="evenodd" clip-rule="evenodd" d="M19 50C21.2091 50 23 48.2091 23 46C23 43.7909 21.2091 42 19 42C16.7909 42 15 43.7909 15 46C15 48.2091 16.7909 50 19 50ZM20.7821 44.2179C20.4916 43.9274 20.0206 43.9274 19.7301 44.2179L17.5013 46.4467C17.4477 46.5003 17.4086 46.5667 17.3878 46.6397L17 48L18.3603 47.6122C18.4333 47.5914 18.4997 47.5523 18.5533 47.4987L20.7821 45.2699C21.0726 44.9794 21.0726 44.5084 20.7821 44.2179Z" fill="#006CE1"/>
<path d="M4.80957 17.6299C6.54957 16.0799 9.12957 15.0898 11.9996 15.0898C13.6263 15.0898 15.1598 15.4047 16.5 15.9615" stroke="black" stroke-width="1.5" stroke-linecap="round" stroke-linejoin="round"/>
<path fill-rule="evenodd" clip-rule="evenodd" d="M11.9997 11.9999C10.5803 11.9999 9.42969 10.8492 9.42969 9.42987C9.42969 8.0105 10.5803 6.85986 11.9997 6.85986C13.4191 6.85986 14.5697 8.0105 14.5697 9.42987C14.5697 10.8492 13.4191 11.9999 11.9997 11.9999Z" stroke="black" stroke-width="1.5" stroke-linecap="round" stroke-linejoin="round"/>
<path d="M21.25 12C21.25 6.89137 17.1086 2.75 12 2.75C6.89137 2.75 2.75 6.89137 2.75 12C2.75 17.1086 6.89137 21.25 12 21.25" stroke="black" stroke-width="1.5" stroke-linecap="round" stroke-linejoin="round"/>
<path d="M20.0951 15.3268C20.5309 14.8911 21.2374 14.8911 21.6732 15.3268C22.1089 15.7626 22.1089 16.4691 21.6732 16.9049L18.33 20.2481C18.2495 20.3285 18.1499 20.3871 18.0405 20.4183L16 21L16.5817 18.9595C16.6129 18.8501 16.6715 18.7505 16.7519 18.67L20.0951 15.3268Z" stroke="black" stroke-width="1.5" stroke-linecap="round" stroke-linejoin="round"/>
<path d="M4.80957 73.6299C6.54957 72.0799 9.12957 71.0898 11.9996 71.0898C13.6263 71.0898 15.1598 71.4047 16.5 71.9615" stroke="#818181" stroke-width="1.5" stroke-linecap="round" stroke-linejoin="round"/>
<path fill-rule="evenodd" clip-rule="evenodd" d="M11.9997 67.9999C10.5803 67.9999 9.42969 66.8492 9.42969 65.4299C9.42969 64.0105 10.5803 62.8599 11.9997 62.8599C13.4191 62.8599 14.5697 64.0105 14.5697 65.4299C14.5697 66.8492 13.4191 67.9999 11.9997 67.9999Z" stroke="#818181" stroke-width="1.5" stroke-linecap="round" stroke-linejoin="round"/>
<path d="M21.25 68C21.25 62.8914 17.1086 58.75 12 58.75C6.89137 58.75 2.75 62.8914 2.75 68C2.75 73.1086 6.89137 77.25 12 77.25" stroke="#818181" stroke-width="1.5" stroke-linecap="round" stroke-linejoin="round"/>
<path d="M20.0951 71.3268C20.5309 70.8911 21.2374 70.8911 21.6732 71.3268C22.1089 71.7626 22.1089 72.4691 21.6732 72.9049L18.33 76.2481C18.2495 76.3285 18.1499 76.3871 18.0405 76.4183L16 77L16.5817 74.9595C16.6129 74.8501 16.6715 74.7505 16.7519 74.67L20.0951 71.3268Z" stroke="#818181" stroke-width="1.5" stroke-linecap="round" stroke-linejoin="round"/>
</svg>
