<svg width="24" height="80" viewBox="0 0 24 80" fill="none" xmlns="http://www.w3.org/2000/svg">
<path fill-rule="evenodd" clip-rule="evenodd" d="M2 40C2 45.51 6.49 50 12 50C17.51 50 22 45.51 22 40C22 34.49 17.51 30 12 30C6.49 30 2 34.49 2 40ZM15.32 37.43C15.32 39.26 13.83 40.75 12 40.75C10.17 40.75 8.68 39.26 8.68 37.43C8.68 35.6 10.17 34.11 12 34.11C13.83 34.11 15.32 35.6 15.32 37.43ZM5.79 45.8C5.45 45.44 5.14 45.04 4.86 44.61C6.76 43.16 9.33 42.33 12 42.33C14.67 42.33 17.24 43.16 19.14 44.61C18.86 45.04 18.55 45.44 18.21 45.8C16.66 47.46 14.45 48.5 12 48.5C9.55 48.5 7.34 47.46 5.79 45.8Z" fill="#006CE1"/>
<circle cx="19" cy="46" r="4" fill="white"/>
<path fill-rule="evenodd" clip-rule="evenodd" d="M20.3953 42.2501C21.9164 42.8163 23 44.2816 23 46C23 48.2091 21.2091 50 19 50C17.2816 50 15.8163 48.9164 15.2501 47.3953C15.0884 46.9609 15 46.4907 15 46C15 43.7909 16.7909 42 19 42C19.4907 42 19.9609 42.0884 20.3953 42.2501ZM19 43.25C19.4142 43.25 19.75 43.5858 19.75 44V45.25H21C21.4142 45.25 21.75 45.5858 21.75 46C21.75 46.4142 21.4142 46.75 21 46.75H19.75V48C19.75 48.4142 19.4142 48.75 19 48.75C18.5858 48.75 18.25 48.4142 18.25 48V46.75H17C16.5858 46.75 16.25 46.4142 16.25 46C16.25 45.5858 16.5858 45.25 17 45.25H18.25V44C18.25 43.5858 18.5858 43.25 19 43.25Z" fill="#006CE1"/>
<path d="M4.80957 17.6299C6.54957 16.0799 9.12957 15.0898 11.9996 15.0898C13.6263 15.0898 15.1598 15.4047 16.5 15.9615" stroke="black" stroke-width="1.5" stroke-linecap="round" stroke-linejoin="round"/>
<path fill-rule="evenodd" clip-rule="evenodd" d="M11.9997 11.9999C10.5803 11.9999 9.42969 10.8492 9.42969 9.42987C9.42969 8.0105 10.5803 6.85986 11.9997 6.85986C13.4191 6.85986 14.5697 8.0105 14.5697 9.42987C14.5697 10.8492 13.4191 11.9999 11.9997 11.9999Z" stroke="black" stroke-width="1.5" stroke-linecap="round" stroke-linejoin="round"/>
<path d="M21.0208 14.0556C21.1708 13.3945 21.25 12.7065 21.25 12C21.25 6.89137 17.1086 2.75 12 2.75C6.89137 2.75 2.75 6.89137 2.75 12C2.75 17.1086 6.89137 21.25 12 21.25C12.7065 21.25 13.3945 21.1708 14.0556 21.0208" stroke="black" stroke-width="1.5" stroke-linecap="round" stroke-linejoin="round"/>
<path d="M19 17V21" stroke="black" stroke-width="1.5" stroke-linecap="round"/>
<path d="M21 19L17 19" stroke="black" stroke-width="1.5" stroke-linecap="round"/>
<path d="M4.80957 73.6299C6.54957 72.0799 9.12957 71.0898 11.9996 71.0898C13.6263 71.0898 15.1598 71.4047 16.5 71.9615" stroke="#818181" stroke-width="1.5" stroke-linecap="round" stroke-linejoin="round"/>
<path fill-rule="evenodd" clip-rule="evenodd" d="M11.9997 67.9999C10.5803 67.9999 9.42969 66.8492 9.42969 65.4299C9.42969 64.0105 10.5803 62.8599 11.9997 62.8599C13.4191 62.8599 14.5697 64.0105 14.5697 65.4299C14.5697 66.8492 13.4191 67.9999 11.9997 67.9999Z" stroke="#818181" stroke-width="1.5" stroke-linecap="round" stroke-linejoin="round"/>
<path d="M21.0208 70.0556C21.1708 69.3945 21.25 68.7065 21.25 68C21.25 62.8914 17.1086 58.75 12 58.75C6.89137 58.75 2.75 62.8914 2.75 68C2.75 73.1086 6.89137 77.25 12 77.25C12.7065 77.25 13.3945 77.1708 14.0556 77.0208" stroke="#818181" stroke-width="1.5" stroke-linecap="round" stroke-linejoin="round"/>
<path d="M19 73V77" stroke="#818181" stroke-width="1.5" stroke-linecap="round"/>
<path d="M21 75L17 75" stroke="#818181" stroke-width="1.5" stroke-linecap="round"/>
</svg>
