<svg width="24" height="24" viewBox="0 0 24 24" fill="none" xmlns="http://www.w3.org/2000/svg">
<path d="M9.66992 6.59998H18.9999" stroke="black" stroke-width="1.5" stroke-linecap="round" stroke-linejoin="round"/>
<path d="M9.66992 12H18.9999" stroke="black" stroke-width="1.5" stroke-linecap="round" stroke-linejoin="round"/>
<path d="M6.91 6.6C6.91 5.86 6.31 5.25 5.58 5.25C4.84 5.25 4.25 5.86 4.25 6.6C4.25 7.34 4.85 7.95 5.58 7.95C6.31 7.95 6.91 7.34 6.91 6.6Z" fill="black"/>
<path d="M4.25 12C4.25 12.74 4.85 13.35 5.58 13.35C6.31 13.35 6.91 12.74 6.91 12C6.91 11.26 6.32 10.65 5.58 10.65C4.84 10.65 4.25 11.26 4.25 12Z" fill="black"/>
<path d="M4.25 17.4C4.25 18.14 4.85 18.75 5.58 18.75C6.31 18.75 6.91 18.14 6.91 17.4C6.92 16.66 6.32 16.05 5.58 16.05C4.84 16.05 4.25 16.66 4.25 17.4Z" fill="black"/>
<path d="M9.66992 17.4H18.9999" stroke="black" stroke-width="1.5" stroke-linecap="round" stroke-linejoin="round"/>
</svg>
