<svg width="175" height="110" viewBox="0 0 175 110" fill="none" xmlns="http://www.w3.org/2000/svg">
<g clip-path="url(#clip0_1021_4943)">
<path d="M47.651 12.978H27.671V33.77H47.651V12.978Z" fill="#E0E0E0" fill-opacity="0.5"/>
<path d="M46.296 12.978H26.316V33.77H46.296V12.978Z" fill="#EBEBEB" fill-opacity="0.5"/>
<path d="M43.613 15.772H29.004V30.975H43.613V15.772Z" fill="#FAFAFA" fill-opacity="0.4"/>
<path d="M29.0037 31.0766C28.8942 31.227 28.7693 31.3658 28.631 31.4905C28.3966 31.7369 28.0683 32.0671 27.7005 32.4269C27.3328 32.7866 26.9946 33.1119 26.7478 33.341C26.6206 33.4732 26.4809 33.5929 26.3307 33.6983C26.4368 33.5488 26.5584 33.4109 26.6935 33.2868C26.928 33.0404 27.2563 32.7102 27.6265 32.348C27.9967 31.9858 28.3324 31.6606 28.5792 31.4314C28.7083 31.2991 28.8506 31.1802 29.0037 31.0766ZM43.6105 31.047C43.7609 31.1541 43.8998 31.2763 44.0252 31.4117C44.272 31.6581 44.6027 31.9735 44.9656 32.3406C45.3284 32.7078 45.6493 33.0429 45.8813 33.2918C46.0141 33.4177 46.1333 33.5573 46.2367 33.7082C46.0877 33.6013 45.9496 33.48 45.8245 33.346C45.5777 33.0996 45.2469 32.7817 44.8841 32.4146C44.5213 32.0474 44.198 31.7098 43.9659 31.461C43.8345 31.3347 43.7154 31.196 43.6105 31.047ZM43.571 15.8143C43.6775 15.6643 43.7991 15.5256 43.9339 15.4003C44.1807 15.1539 44.4966 14.8237 44.8644 14.4615C45.2321 14.0993 45.5703 13.779 45.8171 13.5473C45.9447 13.4163 46.0844 13.2975 46.2342 13.1925C46.1281 13.342 46.0065 13.48 45.8714 13.604C45.6246 13.8504 45.3086 14.1806 44.9384 14.5428C44.5682 14.905 44.2325 15.2303 43.9857 15.4595C43.8588 15.5904 43.72 15.7091 43.571 15.8143ZM28.9643 15.8512C28.8139 15.7442 28.675 15.622 28.5496 15.4866C28.3028 15.2525 27.972 14.9248 27.6092 14.5576C27.2464 14.1905 26.9231 13.8529 26.6935 13.6065C26.5607 13.4806 26.4415 13.341 26.3381 13.1901C26.4871 13.297 26.6252 13.4183 26.7503 13.5523C26.9971 13.7987 27.3278 14.1165 27.6907 14.4837C28.0535 14.8508 28.3768 15.1884 28.6088 15.4348C28.7401 15.5622 28.8591 15.7016 28.9643 15.8512Z" fill="#E0E0E0" fill-opacity="0.5"/>
<path d="M43.5711 30.9755C43.5711 30.9755 43.5711 30.9509 43.5711 30.9016C43.5711 30.8523 43.5711 30.7809 43.5711 30.6897C43.5711 30.5024 43.5711 30.2264 43.5711 29.8716C43.5711 29.1521 43.5711 28.1049 43.5587 26.7743C43.5587 24.1107 43.5439 20.316 43.534 15.7723L43.5809 15.8216H29.0186L29.0729 15.765C29.0729 21.346 29.0729 26.5673 29.0729 30.9681L29.026 30.9213L39.5775 30.9459H42.5394H43.3218H42.5492L39.5874 30.9583L29.0062 30.9829H28.9594V30.9361C28.9594 26.5353 28.9594 21.314 28.9594 15.7329V15.6787H29.0161H43.5785H43.6278V15.7699C43.6278 20.3259 43.6081 24.1329 43.6032 26.8014C43.6032 28.1271 43.6032 29.1718 43.6032 29.8889C43.6032 30.2412 43.6032 30.5123 43.6032 30.6995C43.6032 30.7882 43.6032 30.8548 43.6032 30.9041C43.6032 30.9533 43.5711 30.9755 43.5711 30.9755Z" fill="#E0E0E0" fill-opacity="0.5"/>
<path d="M32.8591 22.1247C32.8591 22.1247 32.5456 25.8873 36.628 25.8873C36.628 23.8791 34.9694 22.2947 32.8591 22.1247Z" fill="#EBEBEB" fill-opacity="0.5"/>
<path d="M40.3304 22.1271C40.3304 22.1271 36.559 21.8142 36.559 25.8922C38.5705 25.8922 40.1601 24.2339 40.3304 22.1271Z" fill="#EBEBEB" fill-opacity="0.5"/>
<path d="M36.4478 20.0672C36.4478 20.0672 33.3675 22.8269 36.6157 25.8873C38.1262 24.2906 38.0102 21.7846 36.4478 20.0672Z" fill="#E0E0E0" fill-opacity="0.5"/>
<path d="M10.969 50.778C12.0763 50.8802 12.7455 52.1707 12.803 53.3044C12.8622 54.4747 12.556 55.6724 12.8323 56.8083C13.1975 58.2521 14.4785 59.3366 14.8069 60.7878C15.2018 62.4978 14.1876 64.2057 14.0667 65.9626C14.0049 66.8127 14.1504 67.6874 13.9504 68.5153C13.6477 69.7816 12.6028 70.7065 11.3508 70.8913C11.2705 69.3772 11.1635 67.5205 11.0276 65.5163C10.8548 62.9686 10.6726 60.6649 10.5344 58.9968C10.4604 58.1713 10.3982 57.4982 10.3538 57.0251C10.3291 56.7986 10.3119 56.621 10.2971 56.488C10.2931 56.4258 10.2838 56.3641 10.2698 56.3034C10.2654 56.3658 10.2654 56.4286 10.2698 56.4909C10.2698 56.6239 10.2901 56.8039 10.3049 57.028C10.3419 57.5059 10.3907 58.1785 10.4524 58.9987C10.5758 60.6693 10.7464 62.9735 10.9192 65.5212C11.0553 67.5289 11.1716 69.3871 11.2649 70.902C11.1007 70.9217 10.9336 70.9322 10.7639 70.9255C9.2615 70.8655 8.01084 69.7524 7.77954 68.2692C7.56974 66.9411 8.21866 65.5757 7.93481 64.2624C7.72253 63.2916 7.01942 62.4414 7.00708 61.4509C6.99228 60.2682 7.95473 59.2949 8.18188 58.1345C8.40895 56.974 7.87321 55.8059 7.84106 54.6257C7.78676 52.5066 8.7453 50.8924 10.8655 50.7692L10.969 50.778Z" fill="#EBEBEB" fill-opacity="0.5"/>
<path d="M14.8411 75.8044C14.8395 77.6312 13.3565 79.1115 11.5266 79.113H10.6672C8.83528 79.1128 7.34985 77.6304 7.34985 75.8015V71.6345H14.8411V75.8044ZM11.0696 74.1774L9.09106 75.4782L7.85083 74.5641L7.49341 74.3181C7.45249 74.2844 7.40668 74.2572 7.35767 74.237C7.39086 74.2776 7.42885 74.3141 7.47095 74.3454L7.8147 74.6237L9.0481 75.5944L9.07837 75.6188L9.11255 75.5974L11.0999 74.3102L13.2395 75.5944L13.2717 75.614L13.301 75.5895L14.4319 74.6188L14.7405 74.3405C14.8095 74.2765 14.8411 74.2341 14.8411 74.2341C14.7992 74.26 14.7612 74.2917 14.7278 74.3278L14.3997 74.5749L13.2659 75.489L11.1418 74.1901L11.1067 74.1677L11.0696 74.1774ZM11.0627 73.4284L9.09106 74.7175L7.85083 73.8054L7.49341 73.5593C7.4517 73.5267 7.40604 73.4997 7.35767 73.4782C7.39086 73.5188 7.42886 73.5553 7.47095 73.5866L7.8147 73.8649L9.0481 74.8376L9.07837 74.86L9.11255 74.8376L11.0999 73.5515L13.2395 74.8356L13.2717 74.8552L13.301 74.8307L14.4319 73.8571L14.7405 73.5817C14.8061 73.5186 14.838 73.4773 14.8411 73.4733C14.7957 73.4985 14.7532 73.5289 14.7151 73.5641L14.387 73.8102L13.2532 74.7253L11.1292 73.4265L11.095 73.4069L11.0627 73.4284ZM11.0696 72.6696L9.09106 73.9704L7.85083 73.0563L7.49341 72.8102C7.4525 72.7766 7.40667 72.7494 7.35767 72.7292C7.39086 72.7698 7.42886 72.8063 7.47095 72.8376L7.8147 73.1159L9.0481 74.0866L9.07837 74.111L9.11255 74.0886L11.0999 72.8024L13.2395 74.0866L13.2717 74.1061L13.301 74.0817L14.4319 73.111L14.7405 72.8327C14.8089 72.7692 14.8405 72.727 14.8411 72.7263C14.7984 72.7473 14.7588 72.7741 14.7229 72.8054L14.3948 73.0515L13.261 73.9694L11.136 72.6696L11.1018 72.6472L11.0696 72.6696Z" fill="#E0E0E0" fill-opacity="0.5"/>
<path d="M5.77603 98L3.38403 104.845H4.58103L8.76703 98H5.77603Z" fill="#EBEBEB"/>
<path d="M19.494 98L21.885 104.845H20.691L16.505 98H19.494Z" fill="#EBEBEB"/>
<path d="M25.18 79.096H6.07397V98.17H25.18V79.096Z" fill="#EBEBEB" fill-opacity="0.5"/>
<path d="M19.195 79.096H0.0889893V98.17H19.195V79.096Z" fill="#F5F5F5"/>
<path d="M17.9339 96.9948H1.3501V80.4413H17.9339V96.9948ZM1.59692 96.7483H17.6871V80.6877H1.59692V96.7483Z" fill="#E0E0E0"/>
<path d="M1.56979 85.6971C6.9628 85.8523 12.415 85.8055 17.8105 85.6971C17.846 85.6971 17.8747 85.6684 17.8747 85.633C17.8747 85.5976 17.846 85.569 17.8105 85.569C12.415 85.4679 6.9628 85.4186 1.56979 85.569C1.5423 85.5746 1.52258 85.5988 1.52258 85.6269C1.52258 85.6549 1.5423 85.6791 1.56979 85.6848V85.6971Z" fill="#E0E0E0"/>
<path d="M9.64294 84.238C10.1952 84.238 10.6429 83.7903 10.6429 83.238C10.6429 82.6858 10.1952 82.238 9.64294 82.238C9.09066 82.238 8.64294 82.6858 8.64294 83.238C8.64294 83.7903 9.09066 84.238 9.64294 84.238Z" fill="#EBEBEB"/>
<path d="M2.94202 91.689C3.4943 91.689 3.94202 91.2413 3.94202 90.689C3.94202 90.1367 3.4943 89.689 2.94202 89.689C2.38973 89.689 1.94202 90.1367 1.94202 90.689C1.94202 91.2413 2.38973 91.689 2.94202 91.689Z" fill="#EBEBEB"/>
<path d="M154.568 45.679L157.167 52.317L155.551 52.309L154.257 48.229L154.568 45.679Z" fill="#E0E0E0"/>
<path d="M145.693 39.545L144.799 52.262L154.023 52.455L155.062 39.545H145.693Z" fill="#EBEBEB"/>
<path d="M146.616 40.568L145.87 51.156L152.729 51.476L153.687 40.506L146.616 40.568Z" fill="#FAFAFA"/>
<path d="M148.121 42.066L147.564 49.508H151.347L152.014 42.066H148.121Z" fill="#E0E0E0"/>
<path d="M108.179 6.875V37.665H63.879L62.285 7.089L108.179 6.875Z" fill="#E0E0E0" fill-opacity="0.4"/>
<path d="M62.283 37.601V7.08901L106.582 7.08901V37.601H62.283Z" fill="white" fill-opacity="0.1"/>
<path d="M106.794 37.8108H62.0726V6.87964H106.794V37.8108ZM62.4947 37.3895H106.379V7.29853H62.4947V37.3895Z" fill="#E0E0E0" fill-opacity="0.4"/>
<path d="M101.784 10.879H67.0811V33.809H101.784V10.879Z" fill="white" fill-opacity="0.1"/>
<path d="M101.786 10.8788H101.613H101.119H99.2115L92.0538 10.9059L67.0732 10.9552L67.1719 10.8541C67.1719 17.8619 67.1719 25.6236 67.1719 33.7698L67.0633 33.6614L101.766 33.6835L101.677 33.7698C101.697 26.7916 101.714 21.0701 101.724 17.0857C101.724 15.0948 101.741 13.54 101.746 12.473C101.746 11.9457 101.746 11.5416 101.746 11.2607C101.746 10.9798 101.746 10.8394 101.746 10.8394C101.746 10.8394 101.746 10.9749 101.746 11.2435C101.746 11.512 101.746 11.9186 101.746 12.4385C101.746 13.5005 101.746 15.0504 101.769 17.0315C101.769 21.0307 101.793 26.7694 101.813 33.7698V33.856H101.727L67.0238 33.8782H66.9127V33.7673C66.9127 25.6089 66.9127 17.8471 66.9127 10.8517V10.7531H67.0139L92.0612 10.8024L99.1893 10.8295H101.075H101.556L101.786 10.8788Z" fill="#E0E0E0" fill-opacity="0.4"/>
<path d="M62.2849 7.00281C62.5565 7.13723 62.8116 7.3026 63.0451 7.49562C63.4992 7.82334 64.1163 8.28658 64.7728 8.81881C65.4294 9.35105 66.0242 9.85371 66.4364 10.2307C66.6752 10.4182 66.8884 10.6361 67.0707 10.8788C67.0312 10.9256 65.965 10.0484 64.6346 8.98883C63.3042 7.92929 62.2454 7.05209 62.2849 7.00281ZM106.584 7.08905C106.621 7.13587 105.577 8.02292 104.252 9.06029C102.926 10.0977 101.823 10.9182 101.783 10.8689C101.744 10.8196 102.788 9.93502 104.113 8.89766C105.439 7.8603 106.547 7.04223 106.584 7.08905Z" fill="#E0E0E0" fill-opacity="0.4"/>
<path d="M106.55 37.6039C104.904 36.2733 103.259 34.941 101.613 33.6072Z" fill="white" fill-opacity="0.1"/>
<path d="M101.608 33.6072C101.648 33.5604 102.783 34.4178 104.148 35.5217C105.513 36.6256 106.587 37.557 106.55 37.6039C106.513 37.6507 105.375 36.7957 104.01 35.6918C102.645 34.5879 101.571 33.654 101.608 33.6072ZM62.2849 37.6014C62.2454 37.5521 63.2722 36.6749 64.5902 35.6302C65.9082 34.5854 66.9942 33.7944 67.0337 33.8413C67.0732 33.8881 66.0464 34.7653 64.726 35.8125C63.4055 36.8597 62.3219 37.6482 62.2849 37.6014Z" fill="#E0E0E0" fill-opacity="0.4"/>
<path d="M75.1639 28.753V23.315L85.2219 16.292L95.2799 23.465V28.753H75.1639Z" fill="#EBEBEB" fill-opacity="0.5"/>
<path d="M75.4033 23.2606C75.4033 23.2458 79.8461 23.2335 85.3353 23.2335C90.8246 23.2335 95.2674 23.2335 95.2674 23.2606C95.2674 23.2877 90.8246 23.2853 85.3353 23.2853C79.8461 23.2853 75.4033 23.2729 75.4033 23.2606Z" fill="#F5F5F5" fill-opacity="0.5"/>
<path opacity="0.2" d="M87.679 24.106V28.743H89.844V24.202V24.106H87.679Z" fill="black" fill-opacity="0.1"/>
<path opacity="0.2" d="M84.9749 16.1219L95.2056 23.2332V24.2927L85.1526 17.3022C85.1526 17.3022 75.191 23.312 75.0947 23.3145L84.9749 16.1219Z" fill="black" fill-opacity="0.1"/>
<path d="M83.2819 28.7653C83.2819 28.7653 83.2695 26.3209 83.2695 23.3049C83.2695 20.2889 83.2695 17.8471 83.2819 17.8471C83.2942 17.8471 83.2819 20.2914 83.2819 23.3049C83.2819 26.3185 83.2868 28.7653 83.2819 28.7653ZM83.973 28.7431C83.973 28.7431 83.973 26.1829 83.973 23.024C83.973 19.8651 83.973 17.3025 83.973 17.3025C83.973 17.3025 83.973 19.8627 83.973 23.024C83.973 26.1854 83.9804 28.7431 83.973 28.7431ZM84.6443 28.7431C84.6443 28.7431 84.6443 26.0795 84.6443 22.7924C84.6443 19.5054 84.6443 16.8393 84.6443 16.8393C84.6443 16.8393 84.6566 19.5029 84.6566 22.7924C84.6566 26.0819 84.6591 28.7431 84.6443 28.7431ZM85.3181 28.7431C85.3181 28.7431 85.3058 25.9883 85.3058 22.583C85.3058 19.1777 85.3058 16.4229 85.3181 16.4229C85.3305 16.4229 85.3181 19.1777 85.3181 22.583C85.3181 25.9883 85.3231 28.7431 85.3181 28.7431ZM85.9895 28.7431C85.9895 28.7431 85.9771 26.1066 85.9771 22.8516C85.9771 19.5965 85.9771 16.96 85.9895 16.96C86.0018 16.96 85.9895 19.5965 85.9895 22.8516C85.9895 26.1066 85.9944 28.7431 85.9895 28.7431ZM86.6608 28.7431C86.6608 28.7431 86.6608 26.1829 86.6608 23.024C86.6608 19.8651 86.6608 17.3025 86.6608 17.3025C86.6608 17.3025 86.6608 19.8627 86.6608 23.024C86.6608 26.1854 86.6658 28.7431 86.6608 28.7431ZM87.3322 28.7431C87.3322 28.7431 87.3322 26.3037 87.3322 23.2951C87.3322 26.3037 87.3371 28.7431 87.3322 28.7431ZM88.0035 28.7431C88.0035 28.7431 88.0035 26.417 88.0035 23.5489C88.0035 20.6807 88.0035 18.3522 88.0035 18.3522C88.0035 18.3522 88.0035 20.6783 88.0035 23.5489C88.0035 26.4195 88.0085 28.7431 88.0035 28.7431ZM88.6749 28.7431C88.6749 28.7431 88.6749 26.5254 88.6749 23.8002C88.6749 21.075 88.6749 18.8549 88.6749 18.8549C88.6749 18.8549 88.6749 21.0725 88.6749 23.8002C88.6749 26.5279 88.6798 28.7431 88.6749 28.7431ZM89.3487 28.7431C89.3487 28.7431 89.3487 26.587 89.3487 23.9283C89.3487 21.2696 89.3487 19.1111 89.3487 19.1111C89.3487 19.1111 89.3487 21.2672 89.3487 23.9283C89.3487 26.5895 89.3487 28.7431 89.3487 28.7431ZM90.0176 28.7431C90.0176 28.7431 90.0176 26.6856 90.0176 24.1476C90.0176 21.6097 90.0176 19.5497 90.0176 19.5497C90.0176 19.5497 90.0299 21.6072 90.0299 24.1476C90.0299 26.6881 90.025 28.7431 90.0176 28.7431ZM90.6889 28.7431C90.6889 28.7431 90.6889 26.7521 90.6889 24.293C90.6889 21.8339 90.6889 19.843 90.6889 19.843C90.6889 19.843 90.7013 21.8364 90.7013 24.293C90.7013 26.7497 90.6963 28.7431 90.6889 28.7431ZM82.6352 28.6987C82.6352 28.6987 82.6352 26.353 82.6352 23.4626C82.6352 20.5723 82.6352 18.2241 82.6352 18.2241C82.6352 18.2241 82.6352 20.5698 82.6352 23.4626C82.6352 26.3554 82.6401 28.6987 82.6352 28.6987ZM82.0107 18.5148C82.0107 18.5148 82.0107 20.8064 82.0107 23.6327C82.0107 26.4589 82.0107 28.7529 82.0107 28.7529C82.0107 28.7529 82.0107 26.4614 82.0107 23.6327C82.0107 20.8039 82.0058 18.5148 82.0107 18.5148ZM81.3888 28.7529C81.3888 28.7529 81.3764 26.5353 81.3764 23.778C81.3764 21.0208 81.3764 18.8031 81.3888 18.8031C81.4011 18.8031 81.3888 21.0208 81.3888 23.778C81.3888 26.5353 81.3937 28.7529 81.3888 28.7529ZM80.7643 28.7801C80.7643 28.7801 80.7643 26.6117 80.7643 23.9357C80.7643 26.6117 80.7692 28.7801 80.7643 28.7801ZM80.1398 28.7529C80.1398 28.7529 80.1398 26.6536 80.1398 24.0713C80.1398 21.4889 80.1398 19.3896 80.1398 19.3896C80.1398 19.3896 80.1522 21.4889 80.1522 24.0713C80.1522 26.6536 80.1473 28.7529 80.1398 28.7529ZM79.5179 28.7529C79.5179 28.7529 79.5179 26.7201 79.5179 24.2117C79.5179 26.7201 79.5228 28.7529 79.5179 28.7529ZM76.3462 22.4228C76.3462 22.4228 76.3462 23.8224 76.3462 25.5497C76.3462 23.8224 76.3413 22.4228 76.3462 22.4228ZM75.7588 22.4228C75.7588 22.4228 75.7588 23.8224 75.7588 25.5497C75.7588 27.277 75.7588 28.6766 75.7588 28.6766C75.7588 28.6766 75.7465 27.277 75.7465 25.5497C75.7465 23.8224 75.7514 22.4228 75.7588 22.4228ZM78.9033 28.7283C78.9033 28.7283 78.8811 26.9714 78.8663 24.808C78.8514 22.6446 78.844 20.8877 78.849 20.8877C78.8539 20.8877 78.8712 22.6421 78.886 24.808C78.9008 26.9739 78.9082 28.7283 78.9033 28.7283ZM77.5779 28.7135C77.5779 28.7135 77.5779 27.1538 77.5779 25.2269C77.5779 27.1538 77.5828 28.7135 77.5779 28.7135ZM76.9633 28.6864C76.9633 28.6864 76.9509 27.2277 76.9509 25.4265C76.9509 23.6253 76.9509 22.1665 76.9633 22.1665C76.9756 22.1665 76.9633 23.6253 76.9633 25.4265C76.9633 27.2277 76.9682 28.6864 76.9633 28.6864ZM91.3405 28.7529C91.3405 28.7529 91.3405 26.8877 91.3405 24.5862C91.3405 22.2848 91.3405 20.422 91.3405 20.422C91.3405 20.422 91.3529 22.2873 91.3529 24.5862C91.3529 26.8852 91.3479 28.7529 91.3405 28.7529ZM92.0341 28.7382C92.0341 28.7382 92.0341 27.0133 92.0341 24.8647C92.0341 27.0133 92.039 28.7382 92.0341 28.7382ZM92.6437 28.7529C92.6437 28.7529 92.6437 27.1045 92.6437 25.0741C92.6437 27.1045 92.6487 28.7529 92.6437 28.7529ZM93.3891 28.7801C93.3891 28.7801 93.3891 27.2055 93.3891 25.2614C93.3891 27.2055 93.3941 28.7801 93.3891 28.7801ZM94.1814 28.7801C94.1814 28.7801 94.1814 27.3484 94.1814 25.5768C94.1814 23.8051 94.1814 22.3735 94.1814 22.3735C94.1814 22.3735 94.1814 23.8076 94.1814 25.5768C94.1814 27.346 94.1863 28.7801 94.1814 28.7801ZM94.9342 28.7801C94.9342 28.7801 94.9342 27.4692 94.9342 25.8503C94.9342 24.2314 94.9342 22.923 94.9342 22.923C94.9342 22.923 94.9342 24.2339 94.9342 25.8503C94.9342 27.4667 94.9391 28.7801 94.9342 28.7801Z" fill="#F5F5F5" fill-opacity="0.5"/>
<path d="M95.581 23.736L85.244 16.435L74.569 23.736L74.317 23.33L85.15 15.758L95.845 23.44L95.581 23.736Z" fill="#E0E0E0" fill-opacity="0.4"/>
<path d="M87.209 24.106L87.177 28.765L83.257 28.763L83.235 24.106" fill="#F5F5F5" fill-opacity="0.5"/>
<path d="M83.2349 24.106H81.0699V28.743H83.2349V24.202" fill="#E0E0E0" fill-opacity="0.4"/>
<path d="M83.2349 24.2019C83.2349 24.2019 83.2349 24.2019 83.2349 24.224V24.2881C83.2349 24.3472 83.2349 24.431 83.2349 24.5345C83.2349 24.7563 83.2349 25.0741 83.2349 25.4733C83.2349 26.2815 83.2349 27.415 83.2349 28.7382V28.7628H81.0135V28.6889C81.0135 26.9123 81.0135 25.2959 81.0135 24.0984V24.0811H81.0308L81.0506 24.0614C81.0506 25.2589 81.0506 26.8753 81.0506 28.6519V28.6987L81.0234 28.6741H83.188L83.1634 28.6987C83.1634 27.3755 83.1634 26.2347 83.1634 25.4339C83.1634 25.0347 83.1634 24.7168 83.1634 24.4951C83.1634 24.3867 83.1634 24.3029 83.1634 24.2487V24.1846C83.1855 24.1961 83.21 24.202 83.2349 24.2019Z" fill="#E0E0E0" fill-opacity="0.4"/>
<path d="M87.209 24.106V28.743H89.373V24.202V24.106H87.209Z" fill="#E0E0E0" fill-opacity="0.4"/>
<path d="M87.2087 24.1058H87.3543H87.7838H89.3733H89.3906V24.123C89.3906 25.3304 89.3906 26.9641 89.3906 28.7604C89.4153 28.7382 89.361 28.7924 89.3659 28.7875H87.1766V28.7628C87.1766 27.4101 87.1766 26.2495 87.1766 25.424C87.1766 25.0175 87.1766 24.6848 87.1766 24.4655C87.1766 24.3571 87.1766 24.2733 87.1766 24.2191V24.1551C87.1755 24.1477 87.1755 24.1402 87.1766 24.1329V24.224C87.1766 24.2856 87.1766 24.3719 87.1766 24.4828C87.1766 24.7119 87.1766 25.0372 87.1766 25.4462C87.1766 26.2692 87.1766 27.4175 87.1889 28.7702L87.1643 28.7456H89.3289C89.3289 28.7456 89.2795 28.7949 89.3017 28.7702C89.3017 26.9739 89.3017 25.3403 89.3017 24.1329L89.3215 24.1526H87.7443H87.3099H87.1569L87.2087 24.1058Z" fill="#E0E0E0" fill-opacity="0.4"/>
<path d="M86.18 18.591H84.457V20.875H86.18V18.591Z" fill="#F5F5F5" fill-opacity="0.5"/>
<path d="M85.3279 20.868C85.3131 20.868 85.3008 20.358 85.3008 19.7296C85.3008 19.1013 85.3008 18.5912 85.3279 18.5912C85.3551 18.5912 85.3526 19.0988 85.3526 19.7296C85.3526 20.3604 85.3427 20.868 85.3279 20.868Z" fill="#E0E0E0" fill-opacity="0.4"/>
<path d="M86.1869 19.6902C85.6074 19.723 85.0264 19.723 84.4469 19.6902C85.0263 19.6541 85.6075 19.6541 86.1869 19.6902ZM98.5304 28.753C98.5304 28.7973 92.7894 28.8343 85.7106 28.8343C78.6318 28.8343 72.8883 28.7973 72.8883 28.753C72.8883 28.7086 78.6269 28.6692 85.7106 28.6692C92.7943 28.6692 98.5304 28.7061 98.5304 28.753Z" fill="#E0E0E0" fill-opacity="0.4"/>
<path d="M152.103 22.529L121.746 22.152L121.726 23.712L129.948 23.813L129.921 25.939L130.834 25.951L130.859 23.825L142.95 23.975L142.923 26.102L143.834 26.114L143.861 23.988L152.083 24.089L152.103 22.529Z" fill="#E0E0E0" fill-opacity="0.6"/>
<path d="M148.178 8.30629C148.178 8.30629 148.178 8.29151 148.161 8.26194L148.092 8.13135C148.032 8.02293 147.941 7.87016 147.81 7.67796C147.439 7.13603 146.961 6.67499 146.406 6.32274C146.02 6.07611 145.589 5.90859 145.137 5.82993C144.618 5.74658 144.085 5.79574 143.59 5.97284C143.032 6.15941 142.558 6.53635 142.252 7.03731C141.941 7.56462 141.835 8.18556 141.65 8.77939C141.564 9.07221 141.436 9.35107 141.27 9.60731C141.095 9.84654 140.879 10.0534 140.633 10.2184C140.386 10.3884 140.139 10.5436 139.917 10.7112C139.695 10.8879 139.498 11.0953 139.335 11.3272C139.034 11.7573 138.827 12.2447 138.725 12.7588C138.634 13.2028 138.601 13.6568 138.629 14.1091C138.675 14.7712 138.786 15.4272 138.959 16.068C139.016 16.2923 139.063 16.4648 139.095 16.583C139.109 16.6429 139.128 16.7015 139.152 16.758C139.152 16.758 139.152 16.6964 139.117 16.5781C139.083 16.4598 139.048 16.2775 139.001 16.0582C138.849 15.428 138.753 14.7857 138.713 14.1387C138.69 13.6931 138.726 13.2465 138.821 12.8106C138.924 12.3097 139.128 11.835 139.421 11.4159C139.582 11.1937 139.773 10.9947 139.989 10.8246C140.211 10.6496 140.458 10.4968 140.702 10.3317C140.958 10.1598 141.182 9.94469 141.363 9.69602C141.536 9.43108 141.67 9.14215 141.758 8.83853C141.946 8.23484 142.052 7.62129 142.351 7.11369C142.644 6.63262 143.096 6.26909 143.629 6.08619C144.11 5.91354 144.627 5.86274 145.132 5.93834C145.569 6.01407 145.987 6.17302 146.364 6.40651C146.915 6.74931 147.394 7.19628 147.773 7.72231C147.909 7.90958 148.005 8.05989 148.069 8.16092C148.102 8.21166 148.139 8.26022 148.178 8.30629Z" fill="#F5F5F5" fill-opacity="0.5"/>
<path d="M140.356 10.3909C140.524 10.2406 140.603 10.349 140.823 10.3909C141.046 10.4406 141.254 10.5447 141.428 10.694C142.191 11.3409 142.498 12.3785 142.208 13.3354C141.489 13.3644 140.812 12.998 140.444 12.381C140.077 11.7639 140.077 10.9953 140.445 10.3786M147.139 7.41187C147.223 7.20489 147.339 7.26649 147.556 7.21229C147.776 7.16335 148.006 7.17012 148.223 7.232C149.192 7.485 149.917 8.29039 150.066 9.27962C149.43 9.61499 148.66 9.57489 148.062 9.17519C147.464 8.77548 147.133 8.08052 147.201 7.36506M138.821 14.5182C139.282 13.9996 139.957 13.7215 140.65 13.7638C141.343 13.8061 141.979 14.1642 142.373 14.735C141.862 15.1877 141.203 15.4384 140.519 15.4397C139.831 15.4116 139.175 15.137 138.673 14.666" fill="#F5F5F5" fill-opacity="0.5"/>
<path d="M139.414 11.4283C138.717 11.4392 138.053 11.1334 137.609 10.597C137.166 10.0606 136.99 9.35189 137.133 8.67099C137.87 8.51115 138.636 8.76751 139.128 9.33884C139.62 9.91018 139.759 10.7046 139.49 11.4085" fill="#E0E0E0" fill-opacity="0.6"/>
<path d="M141.832 7.81845C141.179 8.06063 140.45 7.99247 139.853 7.63327C139.256 7.27406 138.855 6.66292 138.764 5.97288C139.407 5.58035 140.213 5.56973 140.866 5.94517C141.519 6.32062 141.914 7.02214 141.897 7.7741M142.642 6.65296C143.296 6.41077 144.024 6.47893 144.621 6.83814C145.218 7.19734 145.619 7.80849 145.71 8.49853C145.067 8.89284 144.26 8.90437 143.607 8.52857C142.953 8.15276 142.558 7.44995 142.578 6.69731M143.597 6.0123C142.94 5.78101 142.423 5.26388 142.193 4.60679C141.963 3.9497 142.045 3.22389 142.415 2.63409C143.161 2.74073 143.789 3.24668 144.051 3.95247C144.313 4.65826 144.168 5.45064 143.671 6.01723M146.026 6.16015C145.796 5.50277 145.879 4.77674 146.251 4.18775C146.623 3.59876 147.243 3.21099 147.936 3.1343C148.318 3.78367 148.313 4.58923 147.924 5.23402C147.535 5.87881 146.824 6.25964 146.07 6.22668" fill="#F5F5F5" fill-opacity="0.5"/>
<path d="M136.025 22.435L134.833 14.306L144.752 14.55L143.676 22.425" fill="#EBEBEB" fill-opacity="0.4"/>
<path d="M140.426 12.8944C140.91 13.2285 141.532 13.2891 142.072 13.0545C142.594 12.766 142.939 12.2366 142.99 11.6426C142.487 11.3629 141.884 11.3249 141.35 11.5392C140.816 11.7535 140.407 12.1971 140.238 12.7465M144.94 14.698C145.424 15.0322 146.047 15.0928 146.586 14.8582C147.109 14.5697 147.453 14.0403 147.504 13.4463C147.001 13.1656 146.398 13.1271 145.864 13.3415C145.329 13.5559 144.921 14.0003 144.752 14.5502M142.444 10.7654C142.664 11.3092 143.149 11.7008 143.728 11.8003C144.323 11.8484 144.903 11.5959 145.273 11.1276C145.009 10.6163 144.527 10.2521 143.962 10.1376C143.397 10.0231 142.811 10.1707 142.368 10.5387M144.074 12.813C143.489 12.7793 142.929 13.0496 142.593 13.5276C142.294 14.0435 142.274 14.6741 142.538 15.2081C143.114 15.1883 143.649 14.9097 143.995 14.4504C144.341 13.991 144.461 13.4 144.32 12.8426M145.624 16.0163C145.344 16.533 145.351 17.1574 145.643 17.6672C145.986 18.1549 146.55 18.4396 147.146 18.4261C147.356 17.8933 147.329 17.2969 147.072 16.7851C146.826 16.3071 146.352 16.068 145.764 15.9276" fill="#E0E0E0" fill-opacity="0.6"/>
<path d="M148.265 16.4278C148.152 16.3207 148.02 16.2369 147.875 16.1814C147.703 16.1184 147.522 16.0843 147.339 16.0804C147.092 16.0769 146.844 16.0885 146.599 16.1149C146.295 16.1495 145.988 16.1193 145.698 16.0262C145.364 15.8856 145.098 15.6203 144.957 15.287C144.804 14.9368 144.701 14.5669 144.651 14.188C144.6 13.7918 144.475 13.4089 144.281 13.0595C144.05 12.7321 143.772 12.4414 143.454 12.1971C143.152 11.9618 142.885 11.6846 142.662 11.3741C142.31 10.8182 142.176 10.1524 142.284 9.50385C142.347 9.07242 142.517 8.66343 142.778 8.31372C142.852 8.22417 142.935 8.14169 143.025 8.06731C143.054 8.03788 143.086 8.01147 143.121 7.98846C143.098 8.02248 143.072 8.05388 143.042 8.0821C142.96 8.16558 142.885 8.25539 142.817 8.35068C142.572 8.70097 142.415 9.10488 142.358 9.52849C142.267 10.1587 142.408 10.8006 142.756 11.3346C142.977 11.6356 143.24 11.9043 143.535 12.133C143.864 12.3775 144.152 12.6719 144.389 13.0053C144.591 13.3655 144.721 13.7613 144.772 14.1708C144.819 14.5415 144.917 14.9039 145.063 15.2475C145.192 15.5555 145.435 15.8019 145.742 15.935C146.02 16.0264 146.314 16.0591 146.606 16.0311C146.852 16.0092 147.099 16.0026 147.346 16.0114C147.535 16.0212 147.72 16.0629 147.894 16.1346C148.006 16.1789 148.107 16.246 148.19 16.3317C148.214 16.3524 148.234 16.3756 148.252 16.4007L148.265 16.4278Z" fill="#E0E0E0" fill-opacity="0.6"/>
<path d="M129.314 17.0217C129.367 16.1774 128.99 15.3632 128.311 14.8572C127.632 14.3512 126.743 14.2218 125.947 14.5133C126.535 15.8483 127.777 16.7817 129.225 16.9773M128.655 17.3592C128.161 17.8866 128.183 18.7416 128.521 19.3773C128.859 20.013 129.452 20.4664 130.047 20.8754C130.475 19.4789 129.921 17.9682 128.689 17.1794M131.036 14.8952C131.104 15.6807 131.49 16.4045 132.105 16.8987C132.721 17.3929 133.511 17.6145 134.294 17.512C134.117 16.7309 133.801 15.9424 133.218 15.4077C132.636 14.873 131.676 14.6685 130.997 15.0997M131.029 14.1018C130.918 13.3897 130.224 12.8698 129.506 12.7909C128.779 12.7532 128.064 12.9839 127.497 13.439C128.389 14.483 129.941 14.6555 131.041 13.8332M127.258 20.082C126.569 20.6537 126.386 21.6861 126.658 22.5461C126.973 23.3912 127.559 24.1091 128.324 24.5888C128.657 23.7599 128.776 22.8612 128.672 21.9744C128.534 21.0972 128.015 20.2496 127.191 19.8775M130.945 12.1108C131.317 11.576 131.918 11.2447 132.57 11.2147C133.221 11.1848 133.85 11.4596 134.27 11.9581C133.978 12.5904 133.348 12.9991 132.651 13.0085C131.954 13.018 131.313 12.6266 131.004 12.0024M131.802 10.078C131.053 10.3006 130.244 10.1902 129.582 9.775C128.92 9.35978 128.47 8.68002 128.346 7.90963C128.892 7.85157 129.443 7.86649 129.985 7.95398C130.531 8.04522 131.036 8.30351 131.429 8.69319C131.791 9.05547 131.933 9.58307 131.802 10.078ZM133.386 9.56793C132.876 9.14265 132.583 8.51149 132.588 7.84778C132.593 7.18407 132.896 6.55761 133.413 6.14044C133.898 6.74559 134.224 7.46217 134.361 8.22503C134.427 8.50696 134.421 8.80101 134.344 9.08005C134.261 9.36382 134.027 9.57781 133.737 9.63446" fill="#EBEBEB" fill-opacity="0.4"/>
<path d="M136.044 14.5823C136.043 14.5634 136.043 14.5444 136.044 14.5256C136.044 14.4837 136.044 14.4295 136.044 14.363C136.044 14.22 136.072 14.0081 136.081 13.7371C136.127 12.9709 136.014 12.2036 135.751 11.4825C135.556 10.9913 135.251 10.5512 134.86 10.1963C134.409 9.7909 133.823 9.56778 133.216 9.57038C132.892 9.56994 132.572 9.64592 132.283 9.79215C131.979 9.94521 131.723 10.1788 131.542 10.4673C131.198 11.0984 131.044 11.8157 131.101 12.5322C131.115 13.2714 131.214 14.0106 131.123 14.7104C131.081 15.0582 130.985 15.3974 130.839 15.7157C130.704 16.0251 130.495 16.2973 130.232 16.5091C129.972 16.6955 129.684 16.8387 129.378 16.933C129.098 17.0229 128.827 17.1409 128.571 17.2853C128.119 17.5597 127.75 17.9515 127.504 18.4188C127.301 18.8032 127.191 19.2306 127.186 19.6656C127.18 19.9951 127.229 20.3232 127.332 20.6364C127.424 20.9017 127.547 21.1556 127.697 21.3929C127.684 21.3804 127.672 21.3663 127.662 21.351C127.629 21.3076 127.597 21.2624 127.569 21.2155C127.454 21.0386 127.361 20.8482 127.292 20.6487C127.179 20.3324 127.123 19.9989 127.124 19.6631C127.125 19.2163 127.232 18.7761 127.438 18.3794C127.686 17.8972 128.061 17.4924 128.524 17.2089C129.017 16.8886 129.669 16.8147 130.173 16.4303C130.676 16.0459 130.948 15.3781 131.032 14.7055C131.115 14.0328 131.031 13.2886 131.007 12.542C130.95 11.805 131.11 11.0674 131.468 10.4205C131.655 10.1171 131.921 9.87069 132.238 9.70837C132.544 9.55379 132.883 9.47518 133.226 9.47921C133.856 9.47752 134.464 9.71234 134.929 10.1371C135.327 10.503 135.635 10.9559 135.83 11.4603C135.989 11.8736 136.089 12.3076 136.126 12.749C136.154 13.0809 136.16 13.4143 136.143 13.7469C136.128 14.0205 136.104 14.2398 136.086 14.3728C136.076 14.4385 136.069 14.4927 136.064 14.5354C136.059 14.5517 136.053 14.5674 136.044 14.5823Z" fill="#EBEBEB" fill-opacity="0.4"/>
<path d="M150.513 12.9929C150.608 12.7626 150.661 12.5174 150.671 12.2685C150.678 11.9779 150.615 11.69 150.488 11.4283C150.316 11.0838 150.035 10.8057 149.689 10.6373C149.49 10.5385 149.275 10.4775 149.054 10.4574C148.813 10.4407 148.571 10.4665 148.339 10.5338C147.845 10.6546 147.366 10.9231 146.791 11.0266C146.495 11.0902 146.188 11.0783 145.897 10.9921C145.594 10.8879 145.338 10.6791 145.174 10.4032C144.836 9.86114 144.747 9.18845 144.335 8.6784C144.13 8.43511 143.861 8.25413 143.558 8.15602C143.263 8.058 142.951 8.02274 142.642 8.05253C142.052 8.10793 141.505 8.38332 141.109 8.82378C140.752 9.22315 140.488 9.69706 140.337 10.211C140.198 10.6583 140.135 11.1254 140.149 11.5934C140.182 12.2729 140.259 12.9495 140.381 13.6188C140.418 13.8504 140.448 14.0352 140.47 14.1683C140.47 14.2274 140.485 14.2742 140.49 14.3137C140.492 14.33 140.492 14.3466 140.49 14.363C140.484 14.347 140.48 14.3305 140.477 14.3137L140.445 14.1732C140.421 14.0402 140.384 13.8578 140.339 13.6262C140.199 12.9572 140.109 12.2784 140.073 11.5958C140.051 11.1195 140.11 10.643 140.248 10.1864C140.399 9.65687 140.668 9.16832 141.035 8.75725C141.237 8.53813 141.474 8.35337 141.736 8.21023C142.308 7.91362 142.976 7.85773 143.59 8.05499C143.914 8.16302 144.2 8.36035 144.417 8.62419C144.853 9.15889 144.94 9.83896 145.266 10.349C145.414 10.6059 145.649 10.801 145.93 10.8985C146.204 10.9787 146.494 10.9898 146.774 10.9305C147.329 10.832 147.815 10.5659 148.316 10.4377C148.557 10.3699 148.808 10.3457 149.057 10.3663C149.694 10.4302 150.254 10.8176 150.538 11.3913C150.663 11.6627 150.721 11.9601 150.708 12.2587C150.699 12.4466 150.661 12.632 150.594 12.8081C150.574 12.8725 150.547 12.9344 150.513 12.9929Z" fill="#E0E0E0" fill-opacity="0.6"/>
<path d="M144.755 9.32644C145.288 9.65536 145.947 9.70676 146.524 9.46442C147.046 9.17641 147.39 8.64806 147.443 8.05499C146.94 7.77328 146.337 7.73392 145.802 7.94795C145.268 8.16197 144.859 8.60633 144.691 9.15642M146.611 11.0513C146.605 11.6767 146.904 12.2659 147.413 12.6307C147.93 12.9279 148.562 12.9464 149.096 12.68C149.075 12.1058 148.794 11.5721 148.333 11.228C147.872 10.884 147.28 10.7665 146.722 10.9084M149.884 10.7162C150.448 10.9872 151.109 10.9679 151.656 10.6644C152.145 10.3239 152.431 9.76161 152.418 9.16627C151.889 8.93962 151.285 8.96457 150.776 9.23412C150.268 9.50367 149.908 9.98881 149.8 10.5535M142.03 8.16341C141.558 7.74698 141.25 7.02502 141.346 6.48785C141.482 5.9075 141.899 5.43274 142.457 5.22133C142.87 5.62779 143.075 6.2001 143.013 6.77583C142.952 7.35156 142.631 7.86786 142.141 8.17819M129.319 5.66733C129.319 5.66733 129.319 5.65254 129.338 5.62544C129.358 5.59833 129.378 5.55152 129.405 5.5047C129.467 5.39874 129.563 5.25829 129.699 5.05871C130.082 4.52537 130.571 4.07593 131.135 3.73798C131.527 3.50485 131.962 3.35159 132.414 3.28706C132.936 3.21656 133.467 3.27842 133.959 3.46693C134.511 3.66902 134.975 4.05788 135.269 4.5659C135.568 5.10059 135.657 5.724 135.83 6.32276C135.908 6.61792 136.028 6.90015 136.188 7.16054C136.357 7.40376 136.567 7.61557 136.81 7.78641C137.056 7.96382 137.288 8.12398 137.511 8.30878C137.728 8.4915 137.919 8.70384 138.078 8.93958C138.367 9.37734 138.562 9.8697 138.651 10.386C138.733 10.832 138.753 11.2871 138.713 11.7387C138.65 12.3888 138.526 13.0315 138.342 13.6582C138.281 13.88 138.229 14.05 138.194 14.1683C138.16 14.2866 138.137 14.3432 138.135 14.3432C138.142 14.2815 138.154 14.2205 138.172 14.1609C138.204 14.0352 138.249 13.8627 138.303 13.6459C138.47 13.0195 138.582 12.3797 138.639 11.7338C138.671 11.2889 138.646 10.8417 138.564 10.4032C138.473 9.90051 138.28 9.42171 137.997 8.99625C137.842 8.769 137.657 8.56419 137.446 8.38763C137.232 8.21269 136.985 8.05499 136.738 7.88497C136.485 7.70763 136.266 7.48647 136.091 7.232C135.925 6.9636 135.8 6.67216 135.719 6.36712C135.546 5.7585 135.455 5.13509 135.171 4.64228C134.889 4.15495 134.445 3.78111 133.917 3.58521C133.441 3.39989 132.926 3.33637 132.419 3.4004C131.977 3.46048 131.551 3.60612 131.165 3.82915C130.604 4.15688 130.114 4.59238 129.723 5.11045C129.585 5.29033 129.477 5.43817 129.417 5.5392C129.387 5.58379 129.354 5.62657 129.319 5.66733Z" fill="#E0E0E0" fill-opacity="0.6"/>
<path d="M137.086 7.95149C136.923 7.79626 136.839 7.90221 136.62 7.93917C136.399 7.98549 136.193 8.08535 136.02 8.22993C135.242 8.85492 134.911 9.88105 135.176 10.8418C135.893 10.8904 136.579 10.5419 136.962 9.9346C137.345 9.32725 137.363 8.55901 137.01 7.93424" fill="#EBEBEB" fill-opacity="0.4"/>
<path d="M130.382 4.80243C130.301 4.59545 130.182 4.65459 129.968 4.59299C129.749 4.53761 129.52 4.53761 129.301 4.59299C128.327 4.82333 127.583 5.60963 127.408 6.5938C128.035 6.94615 128.806 6.92646 129.414 6.54253C130.022 6.1586 130.371 5.47237 130.321 4.75562" fill="#E0E0E0" fill-opacity="0.6"/>
<path d="M138.518 12.1157C138.069 11.5865 137.402 11.2921 136.708 11.3171C136.014 11.3421 135.37 11.6837 134.961 12.2439C135.462 12.7052 136.114 12.9681 136.795 12.9831C137.486 12.9711 138.149 12.7084 138.661 12.2439" fill="#EBEBEB" fill-opacity="0.4"/>
<path d="M138.004 9.01349C138.703 9.043 139.377 8.7524 139.834 8.22439C140.291 7.69639 140.482 6.9888 140.351 6.30304C139.619 6.12578 138.848 6.36299 138.342 6.9212C137.837 7.4794 137.678 8.26907 137.928 8.979M135.677 5.34206C136.324 5.60016 137.053 5.55025 137.659 5.20646C138.264 4.86267 138.68 4.26237 138.789 3.57534C138.156 3.16472 137.349 3.13317 136.686 3.49314C136.023 3.85312 135.611 4.54677 135.613 5.30017M134.894 4.14453C134.247 3.88642 133.517 3.93663 132.911 4.28096C132.306 4.62528 131.89 5.22624 131.782 5.91372C132.415 6.32255 133.221 6.35318 133.884 5.99354C134.546 5.63391 134.958 4.94157 134.958 4.18889M133.954 3.49403C134.618 3.27969 135.147 2.77505 135.393 2.12316C135.638 1.47128 135.573 0.743218 135.215 0.145386C134.466 0.233404 133.826 0.723634 133.546 1.42277C133.267 2.1219 133.393 2.91775 133.875 3.49649M131.523 3.5778C131.769 2.92675 131.705 2.19925 131.348 1.60124C130.992 1.00324 130.382 0.5998 129.691 0.505137C129.293 1.14432 129.277 1.95002 129.65 2.60446C130.023 3.2589 130.724 3.65705 131.478 3.64187" fill="#E0E0E0" fill-opacity="0.6"/>
<path d="M134.615 21.477L135.363 22.428L144.7 22.544L145.35 21.612L134.615 21.477Z" fill="#EBEBEB" fill-opacity="0.4"/>
<path d="M145.145 21.5998C145.145 21.6294 142.849 21.6245 140.018 21.5998C137.187 21.5752 134.894 21.5111 134.894 21.4816C134.894 21.452 137.19 21.4569 140.021 21.4816C142.852 21.5062 145.145 21.5703 145.145 21.5998Z" fill="#E0E0E0" fill-opacity="0.6"/>
<path d="M144.143 18.0467C144.127 18.0752 144.107 18.101 144.083 18.1231C144.025 18.1939 143.96 18.2599 143.891 18.3202C143.641 18.5496 143.358 18.7406 143.052 18.887C142.594 19.1054 142.095 19.227 141.588 19.2442C141.289 19.2526 140.989 19.2237 140.697 19.158C140.386 19.0807 140.083 18.976 139.791 18.8451C139.194 18.5814 138.651 18.2833 138.12 18.1059C137.658 17.9294 137.158 17.8751 136.669 17.9482C136.34 17.9995 136.03 18.1382 135.773 18.3498C135.593 18.5026 135.526 18.6184 135.514 18.611C135.526 18.5809 135.543 18.5528 135.563 18.5272C135.616 18.4514 135.676 18.3812 135.743 18.3178C136 18.0879 136.315 17.9335 136.654 17.8718C137.156 17.7869 137.672 17.8353 138.15 18.0122C138.693 18.1872 139.243 18.4853 139.836 18.7514C140.121 18.8799 140.418 18.983 140.722 19.0594C141.005 19.126 141.295 19.1558 141.586 19.1481C142.081 19.1372 142.568 19.0266 143.02 18.8229C143.433 18.625 143.812 18.363 144.143 18.0467Z" fill="white"/>
<path d="M144.241 17.3198C144.241 17.3198 144.222 17.3469 144.175 17.3912C144.111 17.4577 144.042 17.5194 143.97 17.5761C143.703 17.7878 143.41 17.9642 143.098 18.1009C142.63 18.3021 142.128 18.4141 141.618 18.4311C141.318 18.4416 141.018 18.4185 140.724 18.3621C140.411 18.2956 140.104 18.2042 139.806 18.0886C139.191 17.857 138.629 17.5958 138.078 17.4356C137.607 17.2806 137.108 17.2294 136.615 17.2853C136.283 17.3276 135.966 17.4447 135.687 17.6278C135.492 17.7609 135.405 17.8619 135.395 17.8545C135.413 17.8273 135.432 17.8017 135.454 17.7781C135.519 17.7112 135.588 17.6494 135.662 17.5933C135.94 17.3909 136.264 17.2597 136.605 17.2114C137.108 17.1415 137.621 17.1862 138.105 17.342C138.656 17.4972 139.223 17.7584 139.833 17.9875C140.127 18.1008 140.429 18.1914 140.736 18.2586C141.514 18.4103 142.319 18.3306 143.052 18.0294C143.479 17.8484 143.879 17.6096 144.241 17.3198Z" fill="white"/>
<g opacity="0.8">
<path d="M137.238 97.473H133.578V104.868H137.238V97.473Z" fill="#A2A8AF" fill-opacity="0.5"/>
<path d="M43.296 97.473H39.636V104.868H43.296V97.473Z" fill="#A2A8AF" fill-opacity="0.5"/>
<path d="M130.619 64.1346C130.619 64.1346 130.55 64.1889 130.414 64.2874L129.807 64.7334C129.671 64.8295 129.526 64.9453 129.355 65.0537L128.79 65.4159C128.585 65.5441 128.371 65.6895 128.131 65.8324L127.359 66.266C126.018 67.0035 124.614 67.6179 123.163 68.1018C121.241 68.7435 119.255 69.1699 117.239 69.3732C114.791 69.6065 112.323 69.5012 109.903 69.0603C109.58 68.9937 109.254 68.9174 108.916 68.8459L108.423 68.735L107.929 68.602C107.27 68.427 106.608 68.2126 105.94 67.986C104.607 67.5301 103.266 66.9757 101.899 66.3917C99.1668 65.2311 96.3358 63.8956 93.2234 63.0308C86.7668 61.2219 79.9288 61.2774 73.5025 63.1909C70.4074 64.1199 67.5443 65.3716 64.7478 66.3942C61.9514 67.4168 59.2141 68.188 56.5707 68.4369C55.298 68.5601 54.0159 68.551 52.745 68.4098C52.1466 68.3371 51.5532 68.2285 50.9679 68.0845L50.5409 67.9761L50.1262 67.8455C49.8498 67.7568 49.5758 67.6779 49.3167 67.5695C48.3162 67.186 47.3425 66.7366 46.4017 66.2242C45.5033 65.756 44.674 65.2829 43.8916 64.8541C42.571 64.0944 41.1948 63.4354 39.7746 62.8829C38.8688 62.553 37.9306 62.3193 36.9757 62.1856L36.2352 62.1264L35.9884 62.1043C35.9884 62.1043 36.0748 62.1043 36.2352 62.1043C36.3957 62.1043 36.6548 62.124 36.9757 62.1511C37.9355 62.2727 38.8791 62.4991 39.7894 62.8262C41.22 63.3777 42.6056 64.0392 43.9335 64.8049C44.7184 65.2287 45.5502 65.6993 46.4462 66.165C47.3868 66.6688 48.3598 67.11 49.3586 67.4858C49.6178 67.5942 49.8893 67.6706 50.1633 67.7593L50.5755 67.8874L51 67.9933C51.5812 68.1355 52.1706 68.2424 52.7647 68.3137C54.0293 68.4511 55.3048 68.4577 56.5707 68.3334C59.1993 68.087 61.9366 67.3157 64.7157 66.2858C67.4949 65.2558 70.3679 64.0164 73.4729 63.0825C79.9213 61.1597 86.7841 61.1042 93.2629 62.9223C96.3901 63.7921 99.2261 65.14 101.953 66.2956C103.318 66.8796 104.656 67.4365 105.984 67.8923C106.65 68.119 107.309 68.3334 107.959 68.5083L108.452 68.6414L108.946 68.7523C109.272 68.8237 109.597 68.9001 109.918 68.9666C112.327 69.4108 114.785 69.5211 117.224 69.2944C119.239 69.098 121.226 68.679 123.148 68.0451C124.598 67.5682 126.002 66.9621 127.344 66.234L128.099 65.7905C128.346 65.6525 128.558 65.5071 128.763 65.3815L129.331 65.0266C129.503 64.9182 129.649 64.8024 129.785 64.7088L130.399 64.2751C130.545 64.1815 130.619 64.1346 130.619 64.1346ZM144.902 76.2183L144.599 76.1272L144.229 76.0114C144.058 75.9548 143.885 75.9071 143.71 75.8684C142.56 75.5752 141.38 75.4181 140.193 75.4003C139.336 75.3881 138.478 75.4301 137.626 75.5259C137.157 75.5678 136.676 75.6516 136.17 75.7255C135.664 75.7994 135.148 75.9128 134.613 76.0385C133.544 76.2849 132.411 76.5929 131.226 76.9723C130.041 77.3518 128.8 77.7953 127.502 78.266C126.203 78.7366 124.839 79.2319 123.4 79.6926C121.907 80.1839 120.384 80.579 118.841 80.8754C118.441 80.9419 118.036 81.0183 117.624 81.0651C117.419 81.0898 117.212 81.1193 117.004 81.1415L116.378 81.1932C115.958 81.2351 115.533 81.2277 115.104 81.2475L114.46 81.2351H114.136L113.813 81.2105C112.031 81.0715 110.271 80.7275 108.568 80.1854C106.813 79.6532 105.071 78.9534 103.296 78.2438C101.521 77.5341 99.7098 76.7925 97.8142 76.2011C95.8875 75.5925 93.9021 75.1878 91.8906 74.9937C89.8188 74.7971 87.7342 74.7732 85.6584 74.9222C81.4476 75.2007 77.3973 76.0237 73.5099 76.8565C71.565 77.2754 69.6595 77.7042 67.7812 78.0885C65.9029 78.4729 64.0592 78.8007 62.2476 79.0594C60.4826 79.3183 58.7057 79.4886 56.9237 79.5694C56.0573 79.6212 55.1959 79.6113 54.3617 79.6163C53.52 79.5793 52.6907 79.5694 51.8935 79.4807C48.8739 79.2501 45.917 78.4998 43.1536 77.2631C41.8923 76.689 40.7545 76.0311 39.6636 75.4224C38.6464 74.8406 37.5937 74.323 36.5117 73.8726C34.7853 73.113 32.8693 72.8922 31.015 73.2393C30.3431 73.3713 29.696 73.6074 29.0972 73.9391C28.8599 74.074 28.6331 74.2264 28.4185 74.3949C28.3222 74.4763 28.2235 74.5428 28.142 74.6216L27.9125 74.8483C27.7865 74.9757 27.6693 75.1115 27.562 75.2549C27.4808 75.3542 27.4073 75.4597 27.3423 75.5703C27.2288 75.7477 27.1696 75.8364 27.1696 75.8364C27.1696 75.8364 27.2214 75.7428 27.33 75.5629C27.3929 75.45 27.4656 75.3428 27.5472 75.2426C27.6526 75.0975 27.768 74.96 27.8927 74.8311C27.9668 74.7596 28.0408 74.6808 28.1223 74.6019C28.2037 74.5231 28.3025 74.4516 28.3987 74.3703C28.6129 74.197 28.8407 74.0413 29.0799 73.9046C29.6803 73.5674 30.3299 73.3263 31.0051 73.19C32.8657 72.8311 34.7915 73.0433 36.529 73.7986C37.6152 74.2466 38.6721 74.7626 39.6932 75.3436C40.7866 75.9399 41.9146 76.6052 43.1832 77.1719C45.9378 78.4009 48.8848 79.1445 51.8935 79.3698C52.7006 79.4586 53.5274 79.4659 54.3617 79.5004C55.2009 79.5004 56.0524 79.5004 56.9162 79.4512C58.6943 79.3686 60.4671 79.1967 62.2278 78.9362C64.037 78.6775 65.8807 78.3448 67.7541 77.9506C69.6275 77.5563 71.5354 77.1325 73.4828 76.7185C77.3702 75.8857 81.4254 75.0602 85.6485 74.7793C87.7309 74.6303 89.822 74.6542 91.9005 74.8508C93.9195 75.0473 95.9123 75.4545 97.8463 76.0656C99.7493 76.6619 101.561 77.4035 103.336 78.1156C105.11 78.8278 106.85 79.5275 108.598 80.0573C110.292 80.5991 112.042 80.943 113.816 81.0824L114.136 81.1095H114.46H115.099C115.524 81.0898 115.948 81.1095 116.365 81.0553L116.99 81.006C117.195 80.9863 117.399 80.9542 117.604 80.9296C118.014 80.8852 118.416 80.8089 118.819 80.7423C120.359 80.4561 121.879 80.0709 123.37 79.5891C124.806 79.1308 126.169 78.638 127.47 78.1723C128.77 77.7066 130.012 77.2582 131.202 76.8836C132.391 76.5091 133.524 76.1986 134.598 75.9596C135.133 75.8339 135.657 75.7428 136.16 75.6516C136.664 75.5604 137.147 75.4964 137.621 75.4545C138.476 75.3657 139.335 75.3311 140.193 75.351C141.384 75.3741 142.567 75.5395 143.718 75.8438C143.893 75.8831 144.065 75.9333 144.234 75.9941L144.604 76.1148L144.902 76.2183ZM121.536 52.0583L121.378 52.2013L120.902 52.6202C120.685 52.7926 120.408 52.9972 120.08 53.2362C119.752 53.4752 119.339 53.729 118.88 53.9754C117.748 54.5825 116.547 55.054 115.304 55.3799C114.944 55.476 114.563 55.5598 114.171 55.6435C113.779 55.7273 113.371 55.8012 112.949 55.853C112.059 55.9849 111.163 56.0672 110.264 56.0994C108.201 56.1491 106.138 56.0379 104.093 55.7667C101.889 55.5056 99.5494 55.1236 97.0713 54.8452C95.8372 54.7072 94.5612 54.5988 93.258 54.5569C91.9548 54.515 90.6219 54.5569 89.2694 54.6555C86.4811 54.8841 83.7065 55.2558 80.9565 55.7692C78.123 56.2743 75.3586 56.7967 72.6658 57.1663C70.0767 57.5128 67.4686 57.6987 64.8564 57.7232C60.4298 57.7537 56.0127 57.3092 51.6812 56.3975C48.7634 55.7821 45.895 54.9527 43.0993 53.9162C42.6056 53.729 42.1663 53.5688 41.7887 53.4234L40.8409 53.0267L40.2584 52.7803C40.1276 52.7236 40.0634 52.6916 40.0634 52.6916C40.0634 52.6916 40.1325 52.7138 40.2633 52.768L40.8508 53.0144L41.8035 53.3988C42.1811 53.5442 42.6229 53.7019 43.1166 53.8916C45.9151 54.9086 48.7831 55.7238 51.6985 56.331C56.025 57.2288 60.4351 57.6633 64.854 57.6271C67.4613 57.6001 70.0645 57.4117 72.6485 57.0628C75.3389 56.6932 78.1008 56.1708 80.9343 55.6657C83.6894 55.1446 86.4699 54.7671 89.2644 54.5347C90.6195 54.4337 91.9572 54.414 93.2629 54.4411C94.5686 54.4682 95.8471 54.5914 97.0886 54.7318C99.5691 55.0152 101.907 55.4021 104.108 55.6657C106.145 55.9409 108.201 56.0571 110.256 56.0131C111.152 55.9864 112.045 55.9099 112.932 55.784C113.354 55.7347 113.756 55.6509 114.151 55.5819C114.546 55.5129 114.919 55.4168 115.282 55.3207C116.522 55.0027 117.721 54.5404 118.853 53.9433C119.322 53.6969 119.71 53.4505 120.053 53.2288C120.396 53.007 120.662 52.7902 120.88 52.6226L121.373 52.216C121.477 52.1027 121.536 52.0583 121.536 52.0583ZM145.408 91.4806C145.408 91.4806 145.307 91.4461 145.112 91.3698L144.248 91.0297C144.063 90.9484 143.841 90.8917 143.602 90.8153L142.814 90.5689C142.528 90.4852 142.212 90.426 141.879 90.3447L141.361 90.2264C141.18 90.1919 140.995 90.1673 140.803 90.1353C138.946 89.8321 137.06 89.7445 135.183 89.8741C132.696 90.0453 130.228 90.4361 127.81 91.042C125.112 91.6728 122.222 92.6018 119.102 93.5406C115.983 94.4794 112.616 95.433 108.97 95.8962C107.106 96.1435 105.222 96.2062 103.345 96.0835C101.385 95.9457 99.4521 95.5479 97.597 94.9007C93.8059 93.5923 90.2912 91.3624 86.5371 89.4404C84.6926 88.4697 82.7625 87.6704 80.7714 87.0527C80.2777 86.8901 79.7841 86.7891 79.2904 86.661L78.55 86.5131L78.1773 86.4417L77.8021 86.385C76.803 86.2334 75.7959 86.1396 74.786 86.1041C72.8317 86.0434 70.8758 86.1556 68.9413 86.4392C67.0868 86.7069 65.2497 87.0837 63.4397 87.5677C59.8978 88.5016 56.6151 89.6745 53.5003 90.6355C50.3854 91.5965 47.4384 92.3603 44.6839 92.7348C42.2071 93.0793 39.6944 93.0793 37.2176 92.7348C35.3504 92.4766 33.5305 91.9495 31.8147 91.1702C30.7336 90.669 29.7127 90.0474 28.7714 89.3172C28.1445 88.7973 27.831 88.5041 27.831 88.5041C27.831 88.5041 27.915 88.5706 28.0779 88.7061C28.2408 88.8416 28.4703 89.0462 28.7887 89.2975C29.7357 90.0184 30.7586 90.6339 31.8394 91.1332C33.5562 91.9026 35.375 92.4212 37.2398 92.6732C39.7071 93.0076 42.2089 92.9993 44.674 92.6486C47.4162 92.2765 50.3632 91.5127 53.4682 90.5394C56.5732 89.5661 59.8608 88.3981 63.4101 87.4569C65.2246 86.9695 67.0667 86.591 68.9265 86.3234C70.8675 86.0379 72.8299 85.9241 74.7909 85.9834C75.7985 86.0203 76.8031 86.1157 77.7997 86.2692L78.1773 86.3234L78.5525 86.3973L79.3053 86.5452C79.7989 86.6733 80.3073 86.7743 80.7862 86.9369C82.7856 87.5568 84.7239 88.3585 86.5766 89.332C90.3356 91.2589 93.8479 93.4864 97.6193 94.7899C99.4632 95.4338 101.385 95.8307 103.333 95.9701C105.202 96.0924 107.079 96.0305 108.936 95.7853C112.569 95.327 115.931 94.371 119.056 93.447C122.18 92.5229 125.068 91.5866 127.773 90.9607C130.196 90.3586 132.669 89.9735 135.161 89.81C137.043 89.6865 138.934 89.7816 140.795 90.0934C140.985 90.1254 141.173 90.1525 141.353 90.187L141.872 90.3102C142.205 90.3915 142.521 90.4531 142.807 90.5394L143.594 90.7858C143.841 90.8646 144.056 90.9238 144.241 91.0075L145.1 91.3599L145.408 91.4806Z" fill="#E0E0E0"/>
<path d="M51.6736 51.6613L51.5994 51.6642H51.3904C51.2053 51.6765 50.9332 51.6964 50.5828 51.6964C49.8794 51.7309 48.8652 51.6964 47.6091 51.6964C46.1297 51.6617 44.6539 51.8658 43.24 52.3019C42.8317 52.4428 42.4456 52.6424 42.0945 52.8937C41.7308 53.1604 41.4223 53.495 41.1863 53.879C40.6952 54.6625 40.4785 55.599 40.3181 56.5402C39.748 60.3249 39.2561 63.7556 38.8982 66.2394C38.7304 67.4736 38.5853 68.4767 38.4841 69.1788L38.3806 69.9796C38.3683 70.0657 38.3553 70.1345 38.3552 70.1886C38.3525 70.2122 38.3525 70.2363 38.3552 70.2599C38.3636 70.2378 38.3698 70.2149 38.3728 70.1915L38.4099 69.9845C38.442 69.7923 38.484 69.5257 38.5408 69.1857C38.6494 68.4834 38.8024 67.483 38.9949 66.2511C39.3676 63.7649 39.8803 60.3424 40.448 56.5626C40.606 55.6263 40.8237 54.7044 41.2976 53.9454C41.5254 53.5736 41.8228 53.2488 42.1736 52.9894C42.5141 52.7443 42.8888 52.5492 43.2849 52.4103C44.6857 51.9748 46.1471 51.7643 47.614 51.7853C48.8602 51.7779 49.8867 51.7944 50.5876 51.755C50.9405 51.7378 51.2121 51.7181 51.3972 51.6984L51.6042 51.674C51.6283 51.6734 51.6527 51.6687 51.6755 51.6613L121.534 52.339C124.573 52.3739 127.259 54.3212 128.232 57.1954L132.664 70.3234C133.526 69.333 134.797 68.7059 136.215 68.7052H140.889C142.138 68.7046 143.336 69.1999 144.219 70.0812C145.102 70.9624 145.598 72.1579 145.598 73.4044V82.7921L145.752 94.3195C145.745 96.5978 143.889 98.4401 141.607 98.4347H31.1462C30.05 98.4379 28.9967 98.0053 28.2195 97.2335C27.4425 96.4618 27.0044 95.4136 27.0017 94.3195V73.4044C27.0017 70.8093 29.1092 68.7052 31.7087 68.7052H33.4304L33.3601 68.7277C33.3312 68.7344 33.3028 68.7441 33.2761 68.757C33.3054 68.7552 33.3344 68.75 33.3621 68.7404L33.491 68.7052H34.8669C35.9737 68.9247 37.0142 69.4016 37.8992 70.1046C38.5811 70.595 39.1336 71.2443 39.5085 71.9952C39.9271 72.8627 40.2099 73.7893 40.3474 74.7423C40.6683 76.7578 40.6951 79.0099 40.7791 81.3654C40.9074 86.0791 40.9641 90.3497 41.0134 93.4396C41.0381 94.9794 41.0582 96.2285 41.073 97.1007C41.0927 97.5196 41.0925 97.853 41.0925 98.087V98.4337C41.1057 98.4037 41.1167 98.3727 41.1248 98.3409V97.0958C41.1223 96.2236 41.1072 94.9765 41.1072 93.4366C41.08 90.3468 41.0382 86.0768 40.9099 81.3634C40.826 79.0054 40.7967 76.7506 40.4685 74.7228C40.3248 73.7584 40.033 72.8214 39.6042 71.9454C39.2185 71.1833 38.6527 70.5265 37.9558 70.0314C37.1294 69.3848 36.1702 68.9332 35.1501 68.7052H35.2078L37.2097 56.4269C37.6613 53.6559 40.0597 51.621 42.8718 51.6222H47.6355L51.6736 51.6613ZM140.791 69.2921C139.138 69.1788 137.517 69.7858 136.347 70.9572C136.194 71.1122 136.051 71.2773 135.919 71.4503C135.786 71.6322 135.668 71.8243 135.565 72.0245C135.46 72.2318 135.369 72.4459 135.292 72.6652C135.223 72.8894 135.14 73.1063 135.089 73.3527C134.969 73.8358 134.876 74.3252 134.81 74.8185C134.674 75.8764 134.592 76.9407 134.563 78.007C134.54 78.5621 134.529 79.1258 134.529 79.6974C134.529 79.7139 134.529 79.7306 134.529 79.7472C134.42 79.0212 134.16 77.4897 133.843 75.7208C133.401 73.2568 133.01 71.2657 132.978 71.2706C132.949 71.2916 133.279 73.2884 133.719 75.7423C134.078 77.7409 134.402 79.4268 134.529 79.9923C134.53 80.1813 134.532 80.3715 134.529 80.5626C134.528 80.6147 134.53 80.6668 134.531 80.7189L88.2332 80.4738C75.4357 80.3924 63.8496 80.3282 55.4578 80.3282H41.8728L88.2253 80.5773C101.028 80.6586 112.614 80.7198 121.006 80.7198H134.532C134.535 80.9582 134.546 81.1973 134.546 81.4376C134.684 86.1289 134.81 90.3767 134.901 93.4591C134.95 94.9917 134.993 96.2338 135.022 97.1036C135.039 97.5224 135.062 97.8549 135.062 98.089C135.077 98.1973 135.077 98.2813 135.077 98.3478C135.074 98.3763 135.074 98.4052 135.077 98.4337C135.088 98.4046 135.094 98.3739 135.096 98.3429V98.0841C135.079 97.855 135.079 97.5224 135.079 97.0988C135.062 96.2314 135.032 94.9869 134.998 93.4542C134.929 90.3717 134.805 86.1134 134.681 81.4318C134.676 81.1388 134.665 80.8483 134.665 80.5577V79.6954C134.672 79.1238 134.681 78.5589 134.696 78.007C134.745 76.9007 134.807 75.8364 134.943 74.8312C135.006 74.3412 135.097 73.855 135.215 73.3751C135.266 73.1411 135.345 72.9191 135.412 72.6974C135.486 72.4821 135.575 72.2716 135.678 72.0685C135.777 71.8719 135.891 71.6837 136.019 71.505C136.147 71.3369 136.286 71.1767 136.434 71.0265C136.714 70.7405 137.025 70.486 137.36 70.2677C138.373 69.5901 139.581 69.2638 140.798 69.339C141.239 69.3903 141.671 69.5093 142.077 69.6915L142 69.6495L141.753 69.5382C141.444 69.4136 141.121 69.331 140.791 69.2921ZM140.295 74.5577C140.192 74.5598 140.09 74.574 139.991 74.5997C139.356 74.7688 138.858 75.2623 138.685 75.8956C138.608 76.1919 138.618 76.504 138.713 76.795C138.886 77.3857 139.352 77.8359 139.932 77.9991C139.8 78.075 139.685 78.178 139.595 78.3009C139.108 78.8914 138.89 79.6588 138.994 80.4171C139.006 80.5734 139.051 80.7258 139.127 80.8634C139.125 80.7151 139.114 80.5662 139.094 80.4191C139.069 80.0566 139.107 79.6925 139.206 79.3429C139.303 78.9909 139.46 78.6579 139.668 78.3575C139.765 78.2448 139.855 78.1252 139.937 78.0011C140.028 78.0263 140.122 78.0452 140.218 78.0558C140.928 78.1344 141.616 77.7786 141.963 77.1544C142.038 77.0265 142.095 76.8894 142.133 76.7472C142.194 76.7222 142.256 76.696 142.316 76.6671C142.611 76.5661 142.925 76.5355 143.234 76.5782C143.543 76.6228 143.838 76.7378 144.095 76.9152C144.29 77.0581 144.387 77.177 144.404 77.1622C144.416 77.1547 144.342 77.0137 144.15 76.8439C143.625 76.4149 142.904 76.3146 142.281 76.5831C142.233 76.6058 142.191 76.6298 142.154 76.6525C142.178 76.5312 142.19 76.4071 142.185 76.2823C142.156 75.6279 141.779 75.0382 141.198 74.7345C141.108 74.6863 141.011 74.6499 140.911 74.6261C140.877 74.615 140.841 74.6097 140.805 74.6095C140.802 74.6243 140.949 74.6519 141.173 74.7794C141.493 74.9605 141.752 75.2347 141.914 75.5656C142.024 75.7899 142.084 76.0357 142.092 76.2853C142.094 76.4409 142.07 76.5944 142.026 76.7423C141.977 76.7829 141.953 76.8118 141.951 76.8146C141.97 76.808 141.989 76.799 142.009 76.7921C141.973 76.897 141.931 77.0001 141.874 77.0958C141.551 77.6867 140.903 78.0248 140.233 77.9513C139.563 77.8777 139.004 77.4074 138.818 76.7609C138.726 76.4899 138.714 76.198 138.781 75.92C138.841 75.6782 138.954 75.4528 139.112 75.2599C139.339 74.9723 139.648 74.7592 139.998 74.6486C140.245 74.5648 140.393 74.5769 140.393 74.5646C140.361 74.5567 140.328 74.5548 140.295 74.5577ZM33.7869 74.0724C33.6844 74.0743 33.5823 74.0885 33.4832 74.1144C33.1138 74.2114 32.7843 74.4213 32.5408 74.715C32.3699 74.917 32.2456 75.1548 32.1775 75.4103C32.1005 75.7065 32.11 76.0187 32.2048 76.3097C32.3699 76.902 32.828 77.3574 33.4041 77.5294C33.3443 77.5701 33.2335 77.6644 33.1033 77.8146C32.6159 78.4044 32.3973 79.1712 32.5007 79.9288C32.5127 80.0853 32.5586 80.2377 32.6345 80.3751C32.629 80.2267 32.6149 80.0786 32.5925 79.9318C32.5671 79.57 32.604 79.2065 32.7029 78.8575C32.8017 78.5044 32.9616 78.1709 33.1746 77.8722C33.2662 77.7662 33.35 77.6533 33.4285 77.5372C33.5221 77.5637 33.6186 77.583 33.7175 77.5939C34.4375 77.6731 35.134 77.3068 35.4753 76.6691C35.5513 76.5401 35.6068 76.4013 35.6443 76.2579C35.7043 76.2336 35.7643 76.2091 35.823 76.1818C36.1178 76.0807 36.4322 76.0502 36.741 76.0929C37.0499 76.1361 37.3448 76.2511 37.6003 76.4298C37.7968 76.572 37.8929 76.6879 37.9109 76.6769C37.9232 76.6695 37.8495 76.5285 37.657 76.3585C37.1333 75.927 36.4111 75.8265 35.7888 76.0978C35.7425 76.1191 35.7019 76.1424 35.6658 76.1642C35.6898 76.043 35.7014 75.9187 35.697 75.7941C35.6858 75.53 35.6156 75.2719 35.4919 75.0382C35.3191 74.6986 35.0439 74.4219 34.7048 74.2472C34.6138 74.201 34.5179 74.165 34.4187 74.1407C34.3844 74.1295 34.3483 74.1244 34.3123 74.1241C34.3097 74.1366 34.4551 74.1665 34.6804 74.2911C35.0008 74.474 35.2586 74.7492 35.4207 75.0802C35.5308 75.3043 35.5915 75.5494 35.5984 75.799C35.6007 75.9548 35.5764 76.1091 35.532 76.257C35.482 76.2989 35.4584 76.3285 35.4578 76.3292C35.4768 76.3226 35.4954 76.3146 35.5144 76.3077C35.4791 76.4116 35.4361 76.5129 35.3787 76.6075C35.059 77.2014 34.4102 77.5425 33.739 77.4689C33.0678 77.3952 32.5088 76.9215 32.3259 76.2726C32.2347 76.0025 32.2205 75.7122 32.2859 75.4347C32.3482 75.1925 32.4617 74.9662 32.6189 74.7716C32.8451 74.4844 33.1535 74.2725 33.5027 74.1632C33.7507 74.0774 33.8987 74.0917 33.9001 74.0773C33.8629 74.0696 33.8247 74.068 33.7869 74.0724ZM138.68 76.8292C138.67 76.7974 138.468 76.8518 138.288 77.0167C138.108 77.1818 138.044 77.3784 138.076 77.3907C138.108 77.4073 138.217 77.2629 138.377 77.1105C138.537 76.9577 138.69 76.8613 138.68 76.8292ZM32.197 76.3439C32.1864 76.3122 31.9843 76.3612 31.8044 76.5284C31.6246 76.6957 31.5608 76.8925 31.5925 76.9054C31.6147 76.9226 31.7329 76.7725 31.8933 76.6222C32.0537 76.4719 32.2069 76.3759 32.197 76.3439Z" fill="#CAD0D8" fill-opacity="0.7"/>
</g>
<path d="M156.472 102.391H155.711V104.867H154.361V102.391H140.482V104.867H139.132V102.391H132.145V104.867H130.795V98.4344H141.608C143.89 98.4397 145.745 96.5975 145.752 94.3192L145.736 93.1805H154.58V85.5028H145.635L145.608 83.4227H154.58V75.7421H145.599V73.6747H154.58V65.9852H132.542V69.9608L130.795 64.786V54.537H156.472V102.391ZM163.325 104.867H161.975V102.391H163.325V104.867ZM165.932 54.537H164V53.9999H157.548V54.537H164V102H157V54.537H157.545V53.9999H157.548V52.1219H165.932V54.537ZM154.312 92.9091H145.734L145.657 87.163H146.673C146.997 87.1628 147.307 87.0342 147.536 86.8055C147.765 86.5768 147.895 86.2667 147.895 85.9432V85.7635H154.312V92.9091ZM147.895 85.7635H145.638L145.637 85.6327H147.895V85.7635ZM154.312 83.1522H145.604L145.599 82.7919V77.4081H146.673C146.997 77.408 147.307 77.2793 147.536 77.0507C147.765 76.8219 147.895 76.5118 147.895 76.1884V76.0057H154.312V83.1522ZM147.895 76.0057H145.599V75.8778H147.895V76.0057ZM139.527 66.4305C139.527 66.7539 139.656 67.0641 139.885 67.2928C140.114 67.5216 140.425 67.6503 140.749 67.6503H146.673C146.997 67.6501 147.307 67.5215 147.536 67.2928C147.765 67.0641 147.895 66.754 147.895 66.4305V66.2606H154.312V73.4061H145.599V73.4042C145.599 72.1578 145.103 70.9621 144.22 70.0809C143.337 69.1998 142.138 68.7045 140.89 68.705H136.215C134.877 68.7057 133.67 69.2648 132.814 70.16V66.2606H139.527V66.4305ZM147.895 66.2606H139.527V66.12H147.895V66.2606ZM132.542 63.91H154.58V56.2294H132.542V63.91ZM139.527 56.6727C139.527 56.9962 139.656 57.3073 139.885 57.536C140.114 57.7646 140.425 57.8925 140.749 57.8925H146.673C146.997 57.8923 147.307 57.7644 147.536 57.536C147.765 57.3073 147.895 56.9962 147.895 56.6727V56.493H154.312V63.6385H132.814V56.493H139.527V56.6727ZM147.895 56.493H139.527V56.3622H147.895V56.493ZM157.545 53.9999H157V54.537H156.472V53.9364H130.795V54.537H129.657V52.1219H157.545V53.9999Z" fill="#E0E0E0" fill-opacity="0.5"/>
<path d="M154.102 74.735C158.065 70.7791 163.823 69.2013 169.254 70.583C164.731 73.6593 159.394 75.324 153.922 75.3657M159.241 56.5651C158.609 52.1076 160.344 47.0908 163.683 43.8506C163.792 48.2686 161.926 53.2411 159.241 56.5651ZM156.568 64.9847C158.984 60.4066 162.828 56.739 167.519 54.5372C166.122 59.6698 161.724 63.8685 156.526 65.034M156.012 66.611C158.71 66.6874 161.442 66.5913 164.049 65.9013C166.655 65.2114 169.155 63.8882 170.891 61.8258C165.607 61.8436 160.447 63.4164 156.054 66.3473M157.382 61.2591C156.012 56.1363 153.754 52.593 149.731 49.7224C149.092 54.9233 152.337 59.8157 157.382 61.2591ZM147.201 70.0927C147.183 67.0376 149.002 64.2697 151.816 63.0702C151.592 65.7141 149.511 68.7744 147.201 70.0927ZM145.912 65.7732C145.606 61.4956 142.561 57.5359 138.508 56.1363C139.441 60.4164 141.919 63.9794 145.912 65.7732ZM147.845 73.429C146.895 72.0689 145.342 71.2262 143.736 70.8048C142.129 70.3834 140.453 70.3489 138.799 70.312C141.089 72.7923 144.35 74.1481 147.727 74.0228M149.783 84.3571C143.51 82.4198 136.795 85.5923 134.319 91.663C139.937 90.5985 145.478 88.1073 149.783 84.3497M155.948 80.5747C155.015 83.3271 155.193 86.656 157.269 89.0289C158.105 86.1547 157.621 83.0584 155.948 80.5747ZM159.591 79.0323C159.896 82.6422 162.07 85.8301 165.322 87.4371C165.473 87.5339 165.657 87.5642 165.831 87.5209C166.078 87.4174 166.105 87.0749 166.078 86.8039C165.67 83.2753 163.052 79.8626 159.594 79.0323M161.973 78.675C163.573 80.4016 165.818 81.3884 168.175 81.4001C170.531 81.4118 172.786 80.4473 174.403 78.7366C170.454 78.3054 165.892 78.0171 161.973 78.675Z" fill="#5FA6FF"/>
<path d="M58.9333 34.6769C58.9333 34.6769 56.6107 36.5816 56.28 39.1122C56.0331 41.0317 55.5716 48.9684 55.5716 48.9684C55.5716 48.9684 54.4486 52.7605 54.8706 53.8718C55.2927 54.9831 57.1167 57.1096 57.1167 57.1096L61.3126 54.6973L60.8042 49.7741L61.5101 42.0961L58.9333 34.6769Z" fill="#5FA6FF"/>
<path d="M31.3605 104.845L29.7537 95.3069L36.171 93.6141C37.4594 93.9664 38.6021 95.0137 39.2167 96.4058C39.8313 97.798 39.5697 100.166 39.0884 101.632C40.3678 101.591 41.6464 101.739 42.882 102.073C44.0741 102.48 45.2292 103.337 45.054 104.801L31.3605 104.845Z" fill="#5FA6FF"/>
<path opacity="0.3" d="M31.3606 104.845L29.7538 95.3065L36.1711 93.6137C37.4595 93.9661 38.6023 95.0133 39.2168 96.4055C39.8314 97.7977 39.5698 100.166 39.0885 101.632C40.368 101.59 41.6465 101.739 42.8821 102.073C44.0743 102.479 45.2442 103.384 45.0714 104.845H31.3606Z" fill="black"/>
<path d="M31.3605 104.845L29.7537 95.3069L36.171 93.6141C37.4594 93.9664 38.6021 95.0137 39.2167 96.4058C39.8313 97.798 39.5697 100.166 39.0884 101.632C40.3678 101.591 41.6464 101.739 42.882 102.073C44.0741 102.48 45.2441 103.384 45.0713 104.845H31.3605Z" fill="#5FA6FF"/>
<path d="M58.9333 34.6769C58.9333 35.0071 62.4382 50.2127 62.4382 50.2127L59.8589 60.5765C59.8589 60.5765 64.5041 64.5707 69.712 64.349C74.9199 64.1272 81.4507 60.335 81.4507 60.335C81.4507 60.335 78.3037 53.2534 77.9187 49.2468C77.4769 44.6612 77.1116 33.403 77.1116 33.403L69.9341 31.6782L63.8451 31.8827L58.9333 34.6769Z" fill="#5FA6FF"/>
<path d="M83.4943 8.33624L83.3289 9.88613L72.3578 31.0055C71.5211 30.6975 70.8374 31.0055 70.287 31.8211L70.6868 34.2235L77.2547 38.9496C78.0248 34.8075 83.05 22.1546 87.8457 10.3247L83.4943 8.33624Z" fill="#5FA6FF"/>
<path d="M48.7044 82.6984C48.7044 82.824 51.3331 102.071 51.3331 102.071C51.3331 102.071 54.828 102.361 55.3069 104.845H49.0278C49.0278 104.845 45.1675 93.5402 43.9803 92.5866C42.7931 91.633 40.8679 90.7755 40.8679 90.7755L42.6228 90.0363L41.4257 88.5234C41.4257 88.5234 41.986 89.1616 42.7043 88.1267" fill="#5FA6FF"/>
<path d="M22.887 93.2814C20.8014 93.9393 18.5529 92.1874 17.9507 90.0782C17.3484 87.9689 17.9507 85.7291 18.7158 83.6864C19.4809 81.6437 20.4435 79.606 20.5546 77.4253C20.6829 74.9193 19.5303 72.2927 17.3756 71.0015C15.2208 69.7104 12.0936 70.0701 10.5411 72.0389C8.98864 74.0077 9.57607 77.3957 11.8468 78.4553C11.2372 78.1177 10.5979 77.7703 9.8994 77.7481C9.2009 77.7259 8.43823 78.1423 8.31482 78.8273C8.19141 79.5123 8.7122 80.1234 9.26507 80.5324C9.81795 80.9415 10.4671 81.2717 10.8102 81.8704C11.3482 82.8068 10.9336 83.9723 10.6793 85.0219C9.74118 88.8724 11.1998 92.9097 14.3839 95.2758C17.5681 97.6418 21.8607 97.8782 25.2861 95.8761" fill="#5FA6FF"/>
<path d="M25.3997 104.845H41.0061C40.9296 101.23 38.2911 101.63 38.2911 101.63H34.6925C36.667 100.516 37.2396 97.6872 37.2396 97.6872C41.0061 96.6794 44.0173 92.2219 44.0173 92.2219L46.9569 86.1677L47.1075 88.3558L48.4625 85.5788C49.7435 80.7025 45.9005 73.5567 45.9005 73.5567L48.9142 73.6405C48.9142 72.0414 46.9569 72.0414 45.5254 71.7062C44.0938 71.3711 44.622 69.5206 44.622 69.5206C44.622 69.5206 48.0109 69.9395 49.3659 68.3428C50.7209 66.7461 50.0446 64.4743 50.0446 64.4743L45.1477 65.0632C44.4715 64.3067 42.06 63.2127 40.4779 63.634C38.8958 64.0554 35.9587 66.3248 35.4305 67.5765C34.9023 68.8282 34.6777 72.8742 34.4086 76.3214C34.1396 79.7686 31.9651 82.038 30.0078 84.2261C28.0506 86.4141 25.1875 87.9221 23.2277 90.2778C22.6156 91.017 22.3145 92.2835 22.1861 93.6831C21.8651 97.2926 22.7853 100.904 24.795 103.921L25.3997 104.845Z" fill="#5FA6FF"/>
<path d="M47.2803 83.5435C47.2803 83.6667 47.3741 102.071 47.3741 102.071C47.3741 102.071 50.8691 102.361 51.3479 104.845H45.0688C45.0688 104.845 41.2184 93.5402 40.0213 92.5866C38.8243 91.633 36.9089 90.7755 36.9089 90.7755L38.6638 90.0363L37.4667 88.5234C37.4667 88.5234 38.027 89.1615 38.7428 88.1266" fill="#5FA6FF"/>
<path opacity="0.4" d="M124.427 98.6922L125.801 108.083C125.89 108.645 126.342 109.369 127.085 109.302L137.698 107.546C137.698 107.546 138.226 106.533 131.686 105.619L130.491 97.6573L124.427 98.6922Z" fill="white"/>
<path opacity="0.4" d="M103.713 92.402L107.389 101.152C107.603 101.679 107.591 102.534 106.92 102.859L96.9185 106.817C96.9185 106.817 95.9435 106.22 101.072 102.068L97.9872 94.6369L103.713 92.402Z" fill="white"/>
<path d="M99.1057 46.42C99.1057 46.42 92.1775 49.1945 90.583 53.3637C89.6106 55.9066 90.6793 63.1263 90.6793 63.1263L91.5851 62.8799L93.4881 72.4133L107.367 74.5471L116.279 70.6613L113.142 57.1263L118.639 56.7764C118.639 56.7764 114.401 47.8221 111.592 46.7896C110.358 46.3363 107.804 46.0504 105.548 46.1219C104.224 46.1371 102.904 46.2549 101.599 46.4742L99.1057 46.42Z" fill="#5FA6FF"/>
<path d="M124.427 98.6924L125.802 108.083C125.891 108.645 126.342 109.369 127.085 109.303L137.698 107.546C137.698 107.546 138.227 106.533 131.686 105.619L130.491 97.6575L124.427 98.6924Z" fill="#5FA6FF"/>
<path d="M103.714 92.4016L107.389 101.151C107.604 101.679 107.591 102.534 106.92 102.859L96.9188 106.816C96.9188 106.816 95.9439 106.22 101.073 102.068L97.9876 94.6365L103.714 92.4016Z" fill="#5FA6FF"/>
<path d="M32.2588 81.6339C31.4069 82.5638 30.3263 83.2552 29.1242 83.6396C29.3437 83.788 29.5999 83.8732 29.8646 83.8861C29.3964 84.1731 28.8821 84.3774 28.3442 84.4897C29.0631 84.8374 29.9093 84.7992 30.5938 84.3882C31.2783 83.9772 31.7087 83.2489 31.738 82.452" fill="#5FA6FF"/>
</g>
<defs>
<clipPath id="clip0_1021_4943">
<rect width="175" height="110" fill="white"/>
</clipPath>
</defs>
</svg>
