<svg width="175" height="110" viewBox="0 0 175 110" fill="none" xmlns="http://www.w3.org/2000/svg">
<path d="M162.563 47.1376C162.554 47.177 162.543 47.2157 162.528 47.2534C162.499 47.3348 162.457 47.4456 162.407 47.5861C162.294 47.8867 162.136 48.3253 161.931 48.8625C161.726 49.3996 161.472 50.0945 161.191 50.8879C161.047 51.2846 160.894 51.7084 160.732 52.1544C160.569 52.6004 160.413 53.0834 160.238 53.5836C159.539 55.5795 158.757 57.977 157.923 60.648C157.088 63.319 156.237 66.2833 155.378 69.3904C154.519 72.4976 153.793 75.4939 153.157 78.2191C152.52 80.9444 152.009 83.4133 151.629 85.4955L151.347 86.9739C151.268 87.4445 151.192 87.8856 151.12 88.302C150.977 89.1299 150.856 89.8445 150.772 90.4285C150.688 91.0125 150.614 91.4609 150.565 91.7763C150.543 91.9242 150.523 92.04 150.508 92.1262C150.503 92.1661 150.494 92.2056 150.484 92.2445C150.48 92.2043 150.48 92.1639 150.484 92.1237C150.484 92.0375 150.508 91.9217 150.526 91.7714C150.567 91.456 150.629 91.0026 150.706 90.4211C150.782 89.8396 150.893 89.1176 151.029 88.2872C151.096 87.8733 151.167 87.4273 151.244 86.9566C151.32 86.486 151.419 85.9932 151.513 85.4782C151.883 83.3936 152.401 80.9247 153.011 78.192C153.621 75.4594 154.378 72.473 155.218 69.3535C156.057 66.234 156.945 63.2821 157.772 60.6086C158.599 57.9351 159.409 55.545 160.122 53.5491C160.298 53.0563 160.462 52.5815 160.616 52.1249C160.769 51.6682 160.925 51.2477 161.084 50.8633C161.376 50.0723 161.63 49.3848 161.85 48.8452L162.343 47.5787C162.4 47.4382 162.444 47.3323 162.479 47.2485C162.502 47.2079 162.53 47.1706 162.563 47.1376Z" fill="#263238"/>
<path d="M140.858 58.4205C140.882 58.4399 140.905 58.4613 140.927 58.4846L141.114 58.6842C141.28 58.8591 141.519 59.1228 141.818 59.4677C142.665 60.4443 143.442 61.4793 144.143 62.565C145.189 64.1773 146.008 65.926 146.576 67.7617C147.228 69.8291 147.633 72.1798 148.035 74.6389C148.84 79.567 149.824 83.9628 150.54 87.1488C150.898 88.7357 151.192 90.0219 151.394 90.9213C151.493 91.3599 151.57 91.7049 151.624 91.9488C151.646 92.0597 151.663 92.1484 151.678 92.2174C151.686 92.2471 151.691 92.2777 151.693 92.3086C151.68 92.2803 151.67 92.2505 151.663 92.2199C151.646 92.1533 151.621 92.0646 151.594 91.9562C151.532 91.7098 151.446 91.3722 151.347 90.9361C151.133 90.0367 150.824 88.7554 150.444 87.1735C149.704 83.9924 148.701 79.5867 147.897 74.6635C147.495 72.1995 147.095 69.8611 146.453 67.8036C145.896 65.9784 145.092 64.2375 144.064 62.6291C143.371 61.5433 142.609 60.503 141.783 59.5146C141.492 59.1622 141.26 58.8936 141.102 58.7113L140.924 58.5043C140.898 58.4795 140.876 58.4513 140.858 58.4205ZM163.148 78.5074C163.101 78.5212 163.053 78.5294 163.005 78.5321L162.595 78.5789L162.301 78.606L161.951 78.6602C161.704 78.6972 161.415 78.7341 161.102 78.8031L160.608 78.8992L160.082 79.0323C159.717 79.116 159.342 79.2491 158.935 79.3698C158.072 79.6688 157.235 80.0372 156.432 80.4713C155.636 80.9156 154.885 81.4364 154.191 82.0261C153.888 82.285 153.601 82.5606 153.329 82.8515C153.088 83.0997 152.86 83.3613 152.648 83.6351C152.471 83.8579 152.307 84.0899 152.154 84.33C152.028 84.5046 151.912 84.6873 151.809 84.877L151.599 85.2318C151.577 85.2752 151.549 85.315 151.515 85.3501C151.528 85.3033 151.547 85.2585 151.572 85.217L151.757 84.8499C151.852 84.6532 151.96 84.4638 152.083 84.2832C152.233 84.0363 152.398 83.7985 152.577 83.571C152.784 83.2887 153.009 83.0196 153.25 82.7653C153.521 82.4686 153.807 82.1873 154.109 81.9226C154.808 81.319 155.566 80.7881 156.373 80.3382C157.182 79.8994 158.029 79.5317 158.903 79.2393C159.31 79.1185 159.692 78.9928 160.063 78.9115L160.596 78.7859L161.089 78.6972C161.403 78.6356 161.692 78.606 161.946 78.5764L162.299 78.5345L162.595 78.5197L163.007 78.5025C163.054 78.4974 163.101 78.4991 163.148 78.5074ZM164.278 58.5166C164.192 58.6164 164.096 58.708 163.992 58.7901L163.18 59.4948C162.489 60.0837 161.526 60.8895 160.465 61.7741C159.404 62.6587 158.424 63.4521 157.715 64.0213L156.871 64.6891C156.773 64.7763 156.665 64.8523 156.55 64.9157C156.636 64.8154 156.731 64.7238 156.834 64.6422L157.649 63.9375C158.34 63.3486 159.3 62.5429 160.364 61.6583C161.427 60.7737 162.402 59.9803 163.111 59.4135L163.955 58.7458C164.054 58.658 164.163 58.5811 164.278 58.5166ZM165.248 63.7355C165.248 63.7749 163.187 64.4205 160.615 65.1794C158.044 65.9383 155.951 66.5198 155.926 66.4804C155.901 66.441 157.989 65.7929 160.561 65.034C163.133 64.2751 165.238 63.6936 165.248 63.7355ZM157.587 61.6558C157.506 61.565 157.435 61.4659 157.375 61.3601C157.227 61.1384 157.044 60.8673 156.827 60.5273C156.363 59.8275 155.704 58.8714 154.926 57.8538C154.149 56.8361 153.396 55.9491 152.843 55.3158L152.184 54.5766C152.098 54.4897 152.021 54.3939 151.955 54.2908C152.055 54.3628 152.146 54.4454 152.229 54.5372C152.396 54.7023 152.633 54.9462 152.922 55.2542C153.497 55.8702 154.262 56.7499 155.045 57.7725C155.827 58.7951 156.474 59.7634 156.916 60.4829C157.138 60.8402 157.311 61.1334 157.424 61.3404C157.489 61.4395 157.544 61.5452 157.587 61.6558ZM150.382 64.5585C150.235 64.8351 150.071 65.1018 149.889 65.3568C149.578 65.8496 149.148 66.5198 148.721 67.2837C148.294 68.0475 147.919 68.7621 147.657 69.2697C147.532 69.5556 147.385 69.8315 147.218 70.0952C147.305 69.7945 147.42 69.5025 147.561 69.2229C147.808 68.6956 148.154 67.9786 148.59 67.2098C149.027 66.441 149.464 65.7708 149.8 65.2977C149.97 65.0333 150.165 64.7858 150.382 64.5585Z" fill="#263238"/>
<path d="M147.917 73.5793C147.558 73.4426 147.206 73.288 146.863 73.1161C146.214 72.8253 145.31 72.4459 144.288 72.0861C143.266 71.7264 142.314 71.4652 141.633 71.2902C140.951 71.1153 140.514 71.0167 140.517 70.9946C140.621 70.9929 140.726 71.0036 140.828 71.0266C141.025 71.0562 141.307 71.1104 141.657 71.1843C142.565 71.3858 143.46 71.6417 144.338 71.9506C145.215 72.2559 146.073 72.6147 146.907 73.0249C147.228 73.1826 147.482 73.3182 147.648 73.4192C147.743 73.4622 147.833 73.516 147.917 73.5793ZM149.857 84.3719C149.817 84.3929 149.775 84.4078 149.731 84.4162L149.356 84.5099L147.976 84.8302C146.454 85.148 144.95 85.5435 143.469 86.0154C141.999 86.5081 140.59 87.1696 139.273 87.9866C138.779 88.307 138.379 88.5879 138.115 88.7924C137.982 88.9026 137.843 89.0054 137.698 89.1004C137.698 89.1004 137.725 89.0634 137.79 89.0018C137.854 88.9402 137.948 88.8515 138.078 88.7554C138.44 88.4506 138.82 88.1676 139.216 87.9078C140.528 87.0561 141.944 86.3754 143.429 85.8823C144.915 85.405 146.43 85.0207 147.963 84.7316L149.353 84.4606C149.519 84.4193 149.687 84.3896 149.857 84.3719ZM156.876 87.033C156.834 87.033 156.587 85.5866 156.323 83.7879C156.059 81.9891 155.881 80.528 155.921 80.5205C155.96 80.5132 156.21 81.967 156.474 83.7657C156.738 85.5645 156.918 87.0256 156.876 87.033ZM164.182 84.3842C163.947 84.1381 163.727 83.8772 163.525 83.6031C163.131 83.1103 162.583 82.4376 161.963 81.7008C161.344 80.9641 160.771 80.3111 160.356 79.838C160.119 79.5934 159.9 79.3324 159.7 79.0569C159.7 79.0569 159.781 79.1136 159.907 79.2368C160.033 79.36 160.216 79.5399 160.435 79.7666C160.872 80.2224 161.46 80.868 162.079 81.6047C162.699 82.3415 163.234 83.029 163.609 83.539C163.797 83.7854 163.945 83.9998 164.041 84.1476C164.138 84.2955 164.192 84.3768 164.182 84.3842Z" fill="#263238"/>
<path d="M144.846 91.15V94.755H145.75L148.958 104.868H156.074L159.184 94.854L160.388 94.755V91.15H144.846Z" fill="#A2A8AF"/>
<path d="M159.786 94.8662C159.786 94.9081 156.644 94.9426 152.767 94.9426C148.889 94.9426 145.75 94.9081 145.75 94.8662C145.75 94.8243 148.892 94.7923 152.767 94.7923C156.642 94.7923 159.786 94.812 159.786 94.8662Z" fill="#455A64"/>
<path d="M164.905 71.6697C164.756 71.7222 164.604 71.7634 164.449 71.7929L163.2 72.0935C162.146 72.3522 160.702 72.7489 159.132 73.2738C157.562 73.7986 156.17 74.358 155.183 74.7867L154.006 75.3017C153.865 75.3721 153.719 75.4306 153.569 75.4766C153.701 75.3908 153.838 75.3142 153.981 75.2475C154.25 75.107 154.647 74.9148 155.141 74.6881C157.721 73.5139 160.416 72.6097 163.182 71.99C163.713 71.8717 164.145 71.7855 164.444 71.7436C164.595 71.7059 164.75 71.6812 164.905 71.6697Z" fill="#263238"/>
<path d="M157.424 100.469C157.424 100.511 155.218 100.546 152.5 100.546C149.783 100.546 147.564 100.511 147.564 100.469C147.564 100.428 149.768 100.396 152.5 100.396C155.232 100.396 157.424 100.428 157.424 100.469ZM157.701 99.6341C157.701 99.676 155.363 99.7105 152.48 99.7105C149.597 99.7105 147.263 99.676 147.263 99.6341C147.263 99.5922 149.6 99.5577 152.48 99.5577C155.361 99.5577 157.701 99.5922 157.701 99.6341Z" fill="#FAFAFA"/>
<path d="M101.752 58.6146C101.742 58.2873 101.915 57.9816 102.201 57.8212C102.467 57.654 102.767 57.5495 103.079 57.5156C103.193 57.4997 103.309 57.4997 103.423 57.5156C103.524 57.5304 103.603 57.6043 103.605 57.6659L103.156 57.868C102.64 58.1144 102.299 58.3312 101.752 58.6072M107.581 57.0376C107.317 56.7642 106.94 56.6281 106.561 56.6691C106.183 56.71 105.844 56.9234 105.644 57.2471L107.581 57.0376ZM110.329 58.1045C110.262 57.8981 110.138 57.7151 109.971 57.5772C109.806 57.4565 109.582 57.4565 109.418 57.5772C109.17 57.6304 108.998 57.8566 109.013 58.1095C109.037 58.2874 109.105 58.4566 109.21 58.6023C109.231 58.6413 109.261 58.6737 109.299 58.6959C109.368 58.7164 109.442 58.7037 109.499 58.6614L110.282 58.2573C110.305 58.2481 110.325 58.2317 110.338 58.2105C110.352 58.1756 110.348 58.1363 110.329 58.1045ZM102.628 59.2405C102.456 59.1692 102.265 59.1587 102.087 59.2109C101.947 59.2415 101.817 59.3077 101.71 59.4031L102.265 59.5386C102.512 59.5978 102.973 59.7234 102.973 59.7234C102.962 59.5091 102.827 59.3207 102.628 59.2405Z" fill="#263238"/>
<path opacity="0.3" d="M97.4936 71.4573C98.7277 71.3809 99.7348 70.4322 100.47 69.4343C101.206 68.4363 101.818 67.3078 102.805 66.5587C103.723 65.8663 104.878 65.5731 105.846 64.9472C106.419 64.5776 106.92 64.0971 107.507 63.7546C108.095 63.4121 108.83 63.2126 109.464 63.4639C109.916 63.6438 110.276 64.0355 110.75 64.139C111.367 64.2746 111.965 63.8926 112.582 63.7596C113.473 63.5698 114.379 64.0479 114.907 64.7871L114.092 61.2709C113.638 60.7978 112.7 60.4282 112.091 60.1818C108.492 58.7576 104.422 59.1964 101.211 61.3547C99.7877 62.301 98.6414 63.6069 97.8886 65.1394C97.1377 66.6814 96.9626 68.4403 97.3949 70.0996" fill="black"/>
<path d="M97.1632 61.2265C97.0811 60.9504 97.0192 60.6688 96.9781 60.3838C96.8818 59.8614 96.7584 59.137 96.6276 58.3362C96.4968 57.5353 96.3808 56.8085 96.3117 56.2811C96.2592 55.9989 96.2279 55.7131 96.2179 55.4261C96.3021 55.7008 96.364 55.9818 96.403 56.2664C96.4993 56.7912 96.6251 57.5156 96.7535 58.3165C96.8818 59.1173 97.0003 59.8417 97.0694 60.369C97.122 60.6521 97.1533 60.9387 97.1632 61.2265ZM111.387 51.3235C111.622 52.0705 111.814 52.8297 111.965 53.5978C112.157 54.3571 112.308 55.1262 112.417 55.9017C112.184 55.1544 111.991 54.3952 111.839 53.6274C111.647 52.8682 111.496 52.0991 111.387 51.3235ZM113.414 67.0219C113.386 67.0558 113.355 67.0864 113.32 67.1131L113.039 67.3595C112.915 67.4655 112.762 67.5936 112.577 67.7316C112.392 67.8696 112.19 68.0396 111.948 68.2022C111.706 68.3648 111.454 68.5521 111.153 68.7295C110.852 68.9069 110.546 69.0967 110.21 69.2864C109.474 69.6859 108.714 70.039 107.934 70.3435C107.152 70.639 106.351 70.8858 105.538 71.0827C105.16 71.164 104.797 71.2478 104.464 71.2995C104.131 71.3513 103.81 71.403 103.521 71.4375C103.233 71.472 102.968 71.4917 102.736 71.5114C102.504 71.5311 102.307 71.541 102.144 71.541H101.769C101.726 71.5474 101.681 71.5474 101.638 71.541C101.681 71.5293 101.725 71.5227 101.769 71.5213L102.142 71.4917C102.304 71.4917 102.502 71.4671 102.731 71.44C102.961 71.4129 103.225 71.3956 103.509 71.3463C103.793 71.2971 104.111 71.2626 104.444 71.1936C104.778 71.1246 105.135 71.0506 105.511 70.9669C107.128 70.5722 108.688 69.9727 110.153 69.1829C110.489 68.9956 110.81 68.8231 111.096 68.6408C111.382 68.4585 111.654 68.2885 111.896 68.1258C112.138 67.9632 112.348 67.8104 112.535 67.6749C112.723 67.5394 112.881 67.4285 113.007 67.3201L113.305 67.0909C113.339 67.0644 113.375 67.0413 113.414 67.0219ZM109.889 64.5899C109.853 64.6933 109.806 64.7925 109.749 64.8856C109.69 65.0005 109.626 65.1124 109.556 65.2207C109.477 65.3488 109.393 65.4967 109.282 65.6495C109.031 66.0149 108.756 66.3638 108.46 66.6942C108.093 67.0942 107.697 67.4672 107.275 67.8104C106.851 68.1495 106.402 68.4567 105.933 68.7295C105.547 68.9503 105.147 69.1454 104.736 69.3135C104.563 69.3899 104.4 69.4416 104.259 69.4909C104.139 69.5362 104.016 69.5749 103.892 69.6067C103.789 69.6448 103.682 69.6704 103.573 69.6831C103.573 69.6609 104.015 69.5303 104.701 69.2297C105.102 69.052 105.493 68.8512 105.871 68.6285C106.799 68.0828 107.642 67.4037 108.371 66.6129C108.669 66.2902 108.948 65.9513 109.208 65.5977C109.647 64.9891 109.867 64.5776 109.889 64.5899Z" fill="#263238"/>
<path d="M134.764 106.158C134.6 106.448 134.48 106.76 134.406 107.085C134.386 107.415 134.407 107.746 134.467 108.07C134.411 107.987 134.374 107.892 134.359 107.792C134.294 107.551 134.278 107.3 134.312 107.053C134.345 106.811 134.429 106.579 134.559 106.373C134.611 106.288 134.681 106.215 134.764 106.158ZM125.792 107.41C125.792 107.41 125.804 107.346 125.878 107.26C125.986 107.138 126.129 107.052 126.288 107.013C126.518 106.964 126.756 106.957 126.989 106.994C127.275 107.024 127.556 107.089 127.826 107.188C128.1 107.288 128.352 107.441 128.566 107.639C128.738 107.801 128.875 107.996 128.968 108.213C129.032 108.359 129.068 108.515 129.077 108.674C129.088 108.731 129.088 108.79 129.077 108.847C129.057 108.637 129.004 108.433 128.919 108.241C128.82 108.038 128.684 107.855 128.517 107.703C128.311 107.518 128.071 107.373 127.811 107.277C127.548 107.182 127.276 107.117 126.999 107.082C126.775 107.044 126.546 107.044 126.322 107.082C126.174 107.112 126.036 107.182 125.925 107.284C125.826 107.358 125.799 107.413 125.792 107.41ZM131.338 102.857C131.267 102.893 131.192 102.923 131.116 102.945C130.97 102.997 130.76 103.066 130.499 103.15C129.975 103.32 129.247 103.539 128.438 103.763C127.628 103.988 126.893 104.17 126.357 104.296L125.72 104.436C125.639 104.456 125.557 104.468 125.473 104.473C125.547 104.441 125.624 104.416 125.703 104.399L126.33 104.229L128.403 103.67L130.469 103.086L131.093 102.908C131.173 102.882 131.255 102.864 131.338 102.857Z" fill="white"/>
<path d="M98.7083 104.121C98.9997 104.283 99.2651 104.488 99.4956 104.729C99.6851 105.004 99.8401 105.301 99.9572 105.614C99.9607 105.512 99.943 105.41 99.9053 105.316C99.8369 105.081 99.7229 104.861 99.5697 104.67C99.4119 104.481 99.2159 104.327 98.9946 104.219C98.907 104.167 98.8095 104.133 98.7083 104.121ZM107.051 100.567C107.051 100.567 107.006 100.518 106.898 100.481C106.743 100.434 106.578 100.434 106.424 100.481C106.2 100.558 105.993 100.675 105.812 100.826C105.583 101 105.377 101.201 105.197 101.425C105.015 101.649 104.881 101.908 104.802 102.186C104.737 102.414 104.721 102.652 104.753 102.886C104.773 103.044 104.823 103.197 104.899 103.337C104.921 103.391 104.955 103.439 105 103.478C104.907 103.289 104.847 103.087 104.822 102.879C104.799 102.654 104.821 102.427 104.886 102.211C104.967 101.942 105.099 101.692 105.274 101.472C105.448 101.255 105.647 101.059 105.866 100.888C106.037 100.738 106.232 100.619 106.444 100.535C106.586 100.484 106.74 100.473 106.888 100.503C106.994 100.533 107.046 100.575 107.051 100.567ZM105.639 73.596C105.639 73.596 99.308 71.5854 97.1829 71.4129C95.0578 71.2404 91.4839 70.9201 90.272 72.9628C89.3513 74.5003 88.8207 76.033 89.5587 78.2432C90.2572 80.3303 97.3063 96.7852 97.3063 96.7852L105.639 95.3413L101.209 80.4239C101.209 80.4239 106.868 80.0173 107.626 79.9607C108.384 79.904 119.16 81.4687 119.16 81.4687L124.17 103.179L132.434 102.339C132.434 102.339 129.529 76.8905 128.593 74.1874C127.984 72.4429 125.115 70.378 122.297 70.2055C119.478 70.033 116.274 70.6614 116.274 70.6614L106.007 73.596" fill="white"/>
<path d="M119.056 74.9931C118.859 75.2834 118.709 75.6026 118.612 75.9393C118.518 76.3061 118.48 76.6848 118.498 77.0629C118.526 77.5295 118.589 77.9933 118.688 78.4502C118.888 79.4358 119.061 80.3204 119.182 80.9635C119.236 81.2666 119.281 81.5228 119.318 81.7298C119.339 81.8228 119.35 81.9178 119.35 82.0132C119.311 81.9257 119.284 81.8339 119.268 81.7397L119.093 80.9832C118.952 80.3426 118.765 79.4555 118.565 78.4748C118.465 78.0117 118.404 77.5411 118.382 77.0678C118.368 76.6773 118.417 76.2871 118.528 75.9122C118.602 75.6603 118.717 75.4222 118.869 75.2075C118.918 75.1258 118.982 75.0533 119.056 74.9931ZM117.015 77.3857C117.095 77.5902 117.162 77.7992 117.217 78.0116C117.375 78.5131 117.573 79.001 117.81 79.4703C118.049 79.9389 118.324 80.388 118.634 80.8132C118.773 80.9815 118.902 81.1585 119.019 81.343C118.846 81.206 118.692 81.046 118.562 80.8674C117.887 80.037 117.398 79.0715 117.128 78.0362C117.061 77.8255 117.023 77.6067 117.015 77.3857ZM107.512 78.8099C107.4 78.6412 107.307 78.4601 107.236 78.2703C107.08 77.9278 106.885 77.4473 106.7 76.9052C106.515 76.3631 106.37 75.8654 106.278 75.5007C106.218 75.3068 106.179 75.1069 106.162 74.9044C106.25 75.0873 106.318 75.2789 106.365 75.4761C106.478 75.8334 106.634 76.3237 106.821 76.8633C107.009 77.403 107.187 77.8859 107.315 78.2358C107.4 78.4202 107.466 78.6125 107.512 78.8099ZM109.702 74.1677C109.594 74.3626 109.476 74.5518 109.349 74.7344C108.788 75.6499 108.45 76.6836 108.361 77.7529C108.329 78.1619 108.334 78.4181 108.315 78.4206C108.267 78.1997 108.253 77.973 108.273 77.7479C108.309 76.655 108.651 75.594 109.26 74.6851C109.38 74.4916 109.529 74.3172 109.702 74.1677ZM104.758 76.9742C104.059 75.7563 102.992 74.7903 101.71 74.2145C101.914 74.255 102.111 74.3256 102.295 74.4239C102.744 74.6419 103.16 74.9232 103.529 75.2592C103.902 75.5956 104.223 75.985 104.481 76.4149C104.602 76.5861 104.695 76.7748 104.758 76.9742ZM99.118 75.7619C99.2839 75.9636 99.4302 76.1806 99.5549 76.4099C99.8805 76.9478 100.176 77.503 100.441 78.0732C100.707 78.6434 100.941 79.2274 101.144 79.8227C101.238 80.066 101.31 80.3176 101.357 80.5742C101.24 80.342 101.14 80.1015 101.058 79.8547C100.885 79.4062 100.634 78.7927 100.318 78.1299C100.002 77.467 99.7153 76.8781 99.4685 76.4543C99.3356 76.232 99.2185 76.0006 99.118 75.7619Z" fill="#455A64"/>
<path d="M100.863 77.1073C100.957 77.2594 101.025 77.4258 101.065 77.6001C101.189 78.0014 101.272 78.4142 101.312 78.8321C101.357 79.2539 101.357 79.6793 101.312 80.1011C101.308 80.2776 101.276 80.4524 101.216 80.6185C101.176 80.6185 101.285 79.8202 101.179 78.8469C101.073 77.8736 100.826 77.1245 100.863 77.1073ZM103.348 57.7275C103.348 57.7275 100.7 57.8409 100.7 59.3144C100.7 60.7879 101.722 64.033 103.082 63.3899C104.442 62.7468 103.84 60.7928 104.898 60.6006C105.957 60.4084 108.226 59.9945 108.527 60.4454C108.828 60.8963 109.549 62.9365 110.501 62.1062C111.454 61.2758 110.916 57.2372 110.501 57.0105C110.087 56.7838 106.523 56.8972 103.348 57.7275Z" fill="#455A64"/>
<path d="M109.341 60.1054C109.311 59.9987 109.287 59.89 109.272 59.7801C109.223 59.4871 109.128 59.2035 108.991 58.9399C108.787 58.5482 108.357 58.3285 107.92 58.3929C107.66 58.4245 107.405 58.4814 107.157 58.5629C106.893 58.6417 106.616 58.7132 106.328 58.7723C105.788 58.8858 105.24 58.955 104.689 58.9793C104.246 58.963 103.802 59.0002 103.368 59.0902C103.082 59.1673 102.838 59.3542 102.689 59.6101C102.644 59.7087 102.61 59.812 102.588 59.9181C102.583 59.8896 102.583 59.8604 102.588 59.8319C102.594 59.7466 102.614 59.6631 102.65 59.5855C102.791 59.304 103.042 59.0928 103.344 59.0015C103.784 58.896 104.236 58.8488 104.689 58.861C105.233 58.8293 105.774 58.7568 106.308 58.6442C106.592 58.5851 106.866 58.5161 107.127 58.4397C107.383 58.3572 107.647 58.3011 107.915 58.2721C108.165 58.2448 108.418 58.2965 108.638 58.42C108.824 58.5344 108.976 58.6982 109.075 58.8931C109.209 59.1685 109.292 59.4655 109.322 59.7703C109.344 59.8804 109.351 59.9933 109.341 60.1054ZM108.107 56.9317C108.09 56.9465 108.008 56.8504 107.838 56.7493C107.394 56.4746 106.82 56.5355 106.444 56.8972C106.3 57.0302 106.239 57.1436 106.221 57.1313C106.204 57.1189 106.241 56.9957 106.379 56.8331C106.763 56.3914 107.423 56.3224 107.89 56.6754C108.058 56.8035 108.12 56.9194 108.107 56.9317Z" fill="#263238"/>
<path d="M110.496 57.1263C110.12 57.2792 109.751 57.4519 109.393 57.6438C109.057 57.8725 108.733 58.1193 108.423 58.383C108.905 57.6902 109.658 57.2343 110.496 57.1288V57.1263Z" fill="#263238"/>
<path d="M104.128 60.9357C104.128 60.9357 104.252 60.783 104.091 60.2828C103.931 59.7826 100.93 59.2627 100.93 59.2627C101.681 58.6053 102.542 58.0856 103.474 57.7276C103.474 57.7276 103.457 57.4639 102.583 57.4048C101.71 57.3456 100.174 58.3337 99.5326 58.6811C98.8909 59.0286 96.788 61.33 96.788 61.33L91.5875 62.6828L93.0833 71.4548C94.4433 71.2453 95.8263 71.2312 97.1903 71.4129C97.6 71.4794 98.496 65.3489 98.496 65.3489C98.773 65.6595 99.2068 65.7791 99.6042 65.6544C100.243 65.4228 101.64 63.0598 101.64 63.0598L103.045 63.1977C103.919 62.7345 103.827 62.1505 103.827 62.1505C105.066 61.7464 104.128 60.9357 104.128 60.9357Z" fill="#FFBE9D"/>
<path d="M101.756 59.4228C101.577 59.4275 101.398 59.4093 101.223 59.3686C100.805 59.2956 100.381 59.2642 99.9572 59.275C99.7308 59.3051 99.5122 59.3778 99.313 59.4894C99.1423 59.5791 98.9774 59.6795 98.8193 59.79C98.682 59.9028 98.5386 60.008 98.3899 60.1054C98.4892 59.9538 98.6165 59.8225 98.765 59.7185C98.9189 59.5926 99.0842 59.4812 99.2587 59.3859C99.469 59.2577 99.7033 59.1739 99.9473 59.1395C100.383 59.1255 100.819 59.1703 101.243 59.2725C101.419 59.3028 101.592 59.3532 101.756 59.4228ZM99.8313 60.9456C99.9639 60.7669 100.127 60.6126 100.313 60.4898C100.405 60.421 100.503 60.3608 100.606 60.3099C100.731 60.2627 100.861 60.2337 100.994 60.2236C101.289 60.2008 101.585 60.2107 101.877 60.2532C102.409 60.3205 102.929 60.4538 103.427 60.6499C103.638 60.7181 103.837 60.8178 104.017 60.9456C104.017 60.9629 103.771 60.8618 103.395 60.7337C102.897 60.5678 102.384 60.4499 101.863 60.3813C101.258 60.305 100.678 60.2902 100.364 60.5637C100.031 60.7879 99.8461 60.9604 99.8313 60.9456ZM100.095 62.3871C100.182 62.2042 100.289 62.0321 100.416 61.8746C100.559 61.6958 100.746 61.5581 100.959 61.4754C101.221 61.3792 101.506 61.3654 101.776 61.436C102.253 61.5299 102.72 61.6677 103.171 61.8475C103.364 61.9115 103.542 62.0137 103.694 62.1481C103.694 62.1653 103.487 62.052 103.136 61.9337C102.682 61.7793 102.218 61.655 101.747 61.5616C101.499 61.4941 101.237 61.5019 100.994 61.5838C100.797 61.6538 100.621 61.7725 100.483 61.9288C100.369 62.094 100.24 62.2476 100.095 62.3871ZM97.4199 60.682C97.3706 60.7708 97.3109 60.8535 97.2422 60.9284L96.7288 61.5567C96.2968 62.0889 95.7143 62.8355 95.1146 63.6906C94.5148 64.5456 94.0138 65.3489 93.6608 65.9378L93.2486 66.6351C93.2019 66.7226 93.1465 66.8051 93.0833 66.8815C93.1124 66.785 93.153 66.6924 93.2042 66.6055C93.2881 66.433 93.4165 66.1866 93.5843 65.8885C94.0203 65.1061 94.4956 64.3462 95.0084 63.6117C95.6107 62.7542 96.208 62.0125 96.6572 61.4926C96.8843 61.2339 97.0694 61.0294 97.2051 60.8914C97.2684 60.8136 97.3405 60.7433 97.4199 60.682ZM101.537 58.7822C101.515 58.8093 101.352 58.6688 101.32 58.42C101.288 58.1711 101.413 57.9961 101.443 58.0159C101.473 58.0356 101.421 58.2007 101.443 58.4052C101.465 58.6097 101.566 58.7575 101.537 58.7822Z" fill="#EB996E"/>
<path d="M112.162 61.983C112.212 62.2294 111.861 64.6441 113.67 66.0486C115.48 67.4531 116.588 68.6088 117.644 67.8572C118.701 67.1057 119.656 64.8437 119.254 63.2372C118.851 61.6306 116.43 56.9563 116.43 56.9563L111.842 57.1312L112.162 61.983Z" fill="#FFBE9D"/>
<path d="M105.861 57.2298C105.861 57.2298 105.955 55.5715 106.569 55.3892C107.112 55.2247 107.699 55.3154 108.166 55.6356C108.566 55.9116 109.581 56.0964 109.581 56.0964C109.581 56.0964 112.165 55.9855 112.409 56.2713C112.654 56.5572 113.977 58.6122 113.977 58.6122L113.271 61.6503C112.722 62.0829 112.061 62.3497 111.365 62.4191C110.131 62.5719 109.06 62.5719 109.06 61.8968C109.06 61.8968 108.137 61.3916 108.137 60.9382C108.137 60.9382 106.969 61.2216 106.876 60.5612C106.782 59.9009 109.181 59.6249 109.181 59.6249C109.181 59.6249 108.751 59.2307 109.151 58.9054C109.551 58.5801 110.751 58.0849 110.751 58.0849C110.751 58.0849 110.822 57.2175 110.447 56.9933C109.904 56.673 105.861 57.2298 105.861 57.2298Z" fill="#FFBE9D"/>
<path d="M112.668 57.9764C112.602 58.17 112.491 58.3449 112.343 58.4865C111.999 58.8425 111.576 59.1127 111.109 59.275C110.647 59.4332 110.168 59.535 109.682 59.5781C109.484 59.6109 109.282 59.62 109.082 59.6052C109.274 59.548 109.471 59.5085 109.67 59.4869C110.144 59.4191 110.611 59.3078 111.064 59.1542C111.514 58.995 111.925 58.7432 112.271 58.415C112.55 58.1686 112.649 57.9641 112.668 57.9764ZM111.854 60.0388C111.729 60.1934 111.574 60.3201 111.397 60.4109C110.985 60.6565 110.531 60.8236 110.057 60.9037C109.589 60.9801 109.115 61.0123 108.64 60.9998C108.444 61.0087 108.248 60.9938 108.055 60.9555C108.247 60.9201 108.443 60.9044 108.638 60.9086C109.106 60.8951 109.572 60.8514 110.035 60.778C110.494 60.701 110.939 60.5539 111.353 60.3419C111.669 60.167 111.839 60.0216 111.854 60.0388ZM111.842 61.1674C111.746 61.2733 111.629 61.3573 111.499 61.4138C111.195 61.5759 110.867 61.6898 110.529 61.7513C110.192 61.814 109.851 61.8495 109.509 61.8573C109.371 61.8753 109.231 61.8719 109.094 61.8474C109.094 61.8031 109.739 61.7735 110.514 61.6331C110.842 61.5717 111.163 61.4734 111.469 61.3398C111.588 61.2718 111.713 61.2141 111.842 61.1674ZM111.286 57.3136C111.321 57.3136 111.286 57.56 111.101 57.7818C110.916 58.0035 110.709 58.1119 110.691 58.0824C110.674 58.0528 110.839 57.9124 110.997 57.7054C111.155 57.4984 111.252 57.3013 111.286 57.3136ZM107.747 56.0323C107.883 56.1723 107.938 56.3722 107.892 56.5621C107.855 56.8873 107.646 57.0697 107.621 57.0401C107.678 56.8784 107.727 56.7139 107.767 56.5473C107.804 56.2688 107.712 56.0495 107.747 56.0323Z" fill="#EB996E"/>
<path d="M108.078 57.0007C108.078 57.0352 107.967 57.0376 107.865 56.9736C107.764 56.9095 107.72 56.8183 107.747 56.7962C107.774 56.774 107.848 56.8134 107.932 56.8652C108.016 56.9169 108.087 56.9662 108.078 57.0007ZM113.219 57.4861C113.275 57.549 113.323 57.6195 113.36 57.6955C113.479 57.8914 113.579 58.0985 113.658 58.314C113.711 58.4669 113.744 58.6259 113.757 58.7871C113.764 58.9709 113.747 59.1549 113.705 59.3341C113.689 59.4229 113.689 59.5139 113.705 59.6027C113.731 59.6987 113.763 59.7933 113.799 59.8861C113.837 59.9943 113.85 60.1096 113.838 60.2237C113.823 60.3363 113.793 60.4464 113.749 60.5514C113.622 60.9519 113.429 61.3283 113.177 61.6651C112.946 61.9254 112.653 62.1236 112.325 62.2417C112.109 62.3208 111.883 62.3746 111.654 62.4019C111.572 62.4133 111.489 62.4133 111.407 62.4019C111.708 62.337 112.005 62.2547 112.296 62.1555C112.601 62.0309 112.873 61.8368 113.09 61.5887C113.328 61.2578 113.512 60.892 113.636 60.5046C113.725 60.3238 113.742 60.1158 113.683 59.923C113.653 59.8269 113.611 59.7308 113.589 59.6249C113.569 59.5223 113.569 59.417 113.589 59.3144C113.632 59.1429 113.653 58.9665 113.651 58.7896C113.642 58.6375 113.616 58.4869 113.572 58.3411C113.506 58.1265 113.423 57.9173 113.325 57.7153C113.281 57.6431 113.246 57.5662 113.219 57.4861Z" fill="#EB996E"/>
<path d="M113.411 57.9444C113.488 58.0039 113.557 58.0717 113.619 58.1464L114.152 58.7329L114.927 59.6126C115.223 59.9427 115.526 60.3247 115.884 60.677C116.23 61.0007 116.633 61.2557 117.074 61.4286C117.445 61.5739 117.788 61.7814 118.088 62.0421C118.291 62.2245 118.438 62.4589 118.515 62.7197C118.532 62.7909 118.541 62.8635 118.543 62.9366C118.543 62.9858 118.543 63.0105 118.543 63.0105C118.543 63.0105 118.543 62.907 118.476 62.732C118.387 62.4895 118.235 62.2745 118.037 62.1086C117.735 61.8658 117.397 61.6728 117.035 61.537C116.82 61.4462 116.609 61.3442 116.405 61.2314C116.188 61.102 115.986 60.9473 115.805 60.7707C115.435 60.406 115.139 60.0314 114.848 59.6914L114.092 58.792C113.893 58.5456 113.727 58.346 113.599 58.1785C113.527 58.1082 113.464 58.0296 113.411 57.9444Z" fill="#EB996E"/>
<path d="M97.3138 37.2341L99.1476 48.3223C99.4396 50.0937 101.061 51.3334 102.85 51.1535C104.704 50.9702 106.067 49.3332 105.908 47.4796L105.728 45.3679C105.728 45.3679 108.411 44.71 108.208 41.9922C108.112 40.6813 107.69 38.0029 107.283 35.5856C106.823 32.8733 104.293 31.0129 101.562 31.3795C100.212 31.5762 98.9997 32.3091 98.1998 33.4117C97.3998 34.5142 97.0803 35.8928 97.3138 37.2341Z" fill="#FFBE9D"/>
<path d="M105.73 45.3802C104.476 45.5123 103.212 45.2687 102.097 44.6804C102.097 44.6804 103.107 46.563 105.799 46.0825L105.73 45.3802Z" fill="#EB996E"/>
<path d="M106.626 37.7146C106.647 37.9247 106.496 38.1127 106.286 38.1384C106.187 38.1546 106.085 38.1303 106.004 38.071C105.924 38.0116 105.87 37.9222 105.856 37.823C105.836 37.6138 105.985 37.4262 106.194 37.3992C106.294 37.3829 106.395 37.4072 106.477 37.4665C106.558 37.5258 106.612 37.6152 106.626 37.7146ZM106.814 36.9951C106.769 37.0493 106.456 36.8571 106.039 36.8941C105.622 36.931 105.333 37.1676 105.284 37.1208C105.234 37.0739 105.298 37.005 105.424 36.8965C105.594 36.7549 105.804 36.6689 106.024 36.6501C106.241 36.6301 106.459 36.6802 106.646 36.793C106.784 36.8818 106.836 36.9606 106.814 36.9951ZM102.539 38.2394C102.558 38.4486 102.407 38.6351 102.198 38.6608C102.099 38.6778 101.998 38.6541 101.916 38.5952C101.835 38.5363 101.781 38.4471 101.766 38.3479C101.746 38.1378 101.897 37.9498 102.107 37.924C102.206 37.9071 102.308 37.931 102.39 37.9905C102.471 38.0499 102.525 38.1397 102.539 38.2394ZM102.712 37.4288C102.667 37.483 102.354 37.2908 101.937 37.3277C101.52 37.3647 101.231 37.6013 101.181 37.5544C101.132 37.5076 101.196 37.4386 101.322 37.3302C101.492 37.1886 101.701 37.1026 101.922 37.0838C102.139 37.0637 102.357 37.1138 102.544 37.2267C102.677 37.3154 102.734 37.4041 102.712 37.4288ZM104.496 40.3906C104.712 40.3054 104.936 40.2451 105.165 40.2107C105.271 40.191 105.37 40.1614 105.382 40.085C105.381 39.9748 105.346 39.8676 105.284 39.777L104.899 38.9934C104.358 37.8748 103.958 36.9532 104.005 36.931C104.052 36.9089 104.523 37.7984 105.061 38.9171C105.192 39.1906 105.308 39.4542 105.434 39.7055C105.513 39.8282 105.546 39.9751 105.525 40.1195C105.501 40.198 105.442 40.2609 105.365 40.2895C105.307 40.3112 105.246 40.3253 105.185 40.3314C104.959 40.3812 104.727 40.401 104.496 40.3906ZM103.292 40.7873C103.361 40.7873 103.4 41.2308 103.817 41.5265C104.235 41.8222 104.711 41.7236 104.721 41.7877C104.721 41.8148 104.62 41.8838 104.417 41.9084C104.152 41.9343 103.885 41.8663 103.664 41.7162C103.453 41.5717 103.306 41.3508 103.255 41.1002C103.22 40.9031 103.262 40.7873 103.292 40.7873ZM102.709 36.2485C102.677 36.3643 102.255 36.3471 101.771 36.4481C101.288 36.5491 100.9 36.7167 100.826 36.6206C100.794 36.5762 100.853 36.4629 101.004 36.3397C101.412 36.0292 101.941 35.9238 102.438 36.0538C102.625 36.1105 102.722 36.1918 102.709 36.2485ZM106.226 35.3417C106.162 35.4452 105.866 35.3787 105.521 35.4132C105.175 35.4477 104.889 35.5487 104.81 35.4551C104.775 35.4107 104.81 35.3122 104.928 35.2087C105.255 34.9506 105.704 34.9137 106.068 35.115C106.202 35.1988 106.254 35.2924 106.226 35.3417ZM100.009 34.0481H99.9967C99.592 34.4266 99.3497 34.9466 99.3204 35.4994C99.3204 35.5167 99.3204 35.5364 99.3204 35.5536C99.2809 36.3372 99.3698 37.1232 99.3204 37.9068C99.2711 38.6904 99.0736 39.501 98.5479 40.0825C98.3307 40.329 97.9259 40.5088 97.7112 40.2698C97.6362 40.1685 97.5917 40.048 97.5828 39.9224C97.2743 38.0645 96.6202 36.4505 96.4524 34.5015C96.4053 33.9705 96.6176 33.4494 97.0225 33.1019C97.4076 32.7717 97.8815 32.4243 98.3554 32.6091C98.8293 32.7939 99.4932 33.5947 99.8782 33.9175" fill="#263238"/>
<path d="M98.3405 38.439C98.2911 38.4242 96.4227 38.0497 96.6423 39.9002C96.862 41.7507 98.6811 41.1495 98.6761 41.0953C98.6712 41.0411 98.3405 38.439 98.3405 38.439Z" fill="#FFBE9D"/>
<path d="M98.027 40.4521C98.027 40.4521 97.9974 40.4792 97.9456 40.5088C97.8715 40.5536 97.7823 40.566 97.6987 40.5433C97.4365 40.4173 97.2621 40.1605 97.2421 39.8706C97.2192 39.7131 97.231 39.5525 97.2767 39.4C97.2991 39.278 97.379 39.1743 97.4914 39.1215C97.5654 39.0919 97.65 39.12 97.6913 39.1881C97.7234 39.2373 97.716 39.2743 97.7259 39.2768C97.7358 39.2792 97.7629 39.2423 97.7259 39.1659C97.7096 39.122 97.6792 39.0848 97.6395 39.0599C97.5838 39.027 97.5173 39.0173 97.4544 39.0328C97.3037 39.083 97.1891 39.2066 97.1508 39.3605C97.0926 39.5307 97.0757 39.7123 97.1014 39.8903C97.1582 40.2624 97.3902 40.5876 97.6667 40.6295C97.7718 40.6465 97.879 40.6147 97.9579 40.5433C98.0295 40.4965 98.0344 40.4546 98.027 40.4521Z" fill="#EB996E"/>
<path d="M98.1529 33.2078C97.5284 32.5967 98.491 31.2538 99.3154 30.7438C100.14 30.2337 101.426 30.3865 102.391 30.4629C102.998 30.5097 103.625 30.6304 104.205 30.4629C104.59 30.3246 104.953 30.1303 105.281 29.8863C105.61 29.6423 105.986 29.4672 106.384 29.3713C106.792 29.2804 107.217 29.4227 107.488 29.7409C107.734 30.0686 107.638 30.6255 107.258 30.7758C107.558 30.4991 108.005 30.4532 108.354 30.6632C108.704 30.8731 108.873 31.2885 108.769 31.6826C108.665 32.0767 108.313 32.3548 107.905 32.3651C108.112 32.1064 108.588 32.3306 108.645 32.6583C108.654 32.9973 108.484 33.3158 108.196 33.4961C107.522 34.0136 106.616 34.1269 105.767 34.0555C104.918 33.984 104.094 33.7573 103.25 33.6661C102.406 33.575 100.979 33.3902 100.268 33.8559C99.7473 34.1984 99.5277 34.9869 99.1574 34.9154C98.8072 34.8259 98.5199 34.5765 98.3824 34.2427C98.2521 33.9106 98.1779 33.5593 98.1628 33.2029" fill="#263238"/>
<path d="M107.179 30.9286C107.179 30.9286 107.216 30.9286 107.278 30.973C107.371 31.0221 107.448 31.0964 107.5 31.1873C107.584 31.33 107.621 31.4955 107.606 31.6604C107.583 31.8777 107.474 32.0767 107.302 32.2124C107.092 32.3754 106.843 32.4807 106.579 32.5179C106.276 32.5646 105.967 32.5646 105.664 32.5179C104.971 32.3744 104.298 32.1511 103.657 31.8526C103.006 31.5549 102.302 31.3875 101.586 31.3598C101.27 31.3612 100.958 31.4231 100.665 31.5421C100.413 31.6478 100.182 31.7971 99.9818 31.9832C99.6906 32.2537 99.4717 32.5925 99.345 32.9688C99.2966 33.1047 99.2667 33.2464 99.2562 33.3902C99.2562 33.3902 99.2808 33.2374 99.3722 32.9787C99.5074 32.6148 99.7294 32.2892 100.019 32.03C100.215 31.8492 100.442 31.7056 100.69 31.6062C100.975 31.4937 101.279 31.436 101.586 31.4362C102.292 31.4691 102.985 31.6363 103.627 31.929C104.274 32.2309 104.954 32.4543 105.654 32.5943C105.964 32.6423 106.279 32.6423 106.589 32.5943C106.86 32.5515 107.116 32.4385 107.33 32.2666C107.422 32.1874 107.499 32.0922 107.557 31.9857C107.683 31.7302 107.669 31.4276 107.52 31.1849C107.461 31.0905 107.375 31.0165 107.273 30.973C107.244 30.9535 107.212 30.9386 107.179 30.9286ZM100.515 30.8744C100.475 30.8667 100.434 30.8667 100.394 30.8744C100.286 30.8963 100.181 30.9302 100.081 30.9754C99.3869 31.2727 98.9497 31.9671 98.9822 32.72C98.985 32.8297 98.9999 32.9388 99.0266 33.0452C99.0464 33.1216 99.0636 33.161 99.0686 33.1586C99.0735 33.1561 99.034 32.991 99.0365 32.72C99.0354 31.9971 99.4501 31.3378 100.103 31.0247C100.347 30.9163 100.517 30.8892 100.515 30.8744ZM96.7213 36.2017C96.77 36.2235 96.8239 36.2312 96.8768 36.2238C97.0232 36.2164 97.1641 36.1658 97.2816 36.0785C97.458 35.9506 97.5907 35.7717 97.6617 35.5659C97.7458 35.3197 97.7989 35.0639 97.8197 34.8045C97.8386 34.5528 97.8892 34.3045 97.9702 34.0653C98.036 33.8689 98.1599 33.6971 98.3256 33.5725C98.4354 33.4889 98.566 33.4369 98.7033 33.4222C98.802 33.4222 98.8563 33.4222 98.8588 33.4222C98.8096 33.4018 98.7565 33.3926 98.7033 33.3951C98.5563 33.3987 98.4136 33.4458 98.2936 33.5306C98.1163 33.6514 97.9803 33.8234 97.9036 34.0234C97.8164 34.2682 97.7616 34.5234 97.7407 34.7824C97.7218 35.0337 97.673 35.2819 97.5951 35.5216C97.5308 35.7161 97.4106 35.8875 97.2495 36.0144C97.1412 36.1005 97.0115 36.1558 96.8743 36.1746C96.7781 36.2066 96.7213 36.1943 96.7213 36.2017ZM96.9829 37.409C96.9829 37.409 96.9978 37.409 97.0298 37.409C97.075 37.4128 97.1204 37.4128 97.1656 37.409C97.3342 37.3982 97.5005 37.3634 97.6592 37.3056C98.177 37.1033 98.6016 36.7172 98.8514 36.2214C99.0957 35.7264 99.2127 35.1785 99.192 34.6271C99.1831 34.5354 99.1831 34.4429 99.192 34.3512C99.2017 34.2838 99.2318 34.221 99.2784 34.1713C99.3191 34.13 99.3717 34.1024 99.4289 34.0924C99.4289 34.0924 99.3524 34.0653 99.2562 34.1516C99.2017 34.2031 99.1646 34.2703 99.15 34.3438C99.1338 34.4381 99.128 34.534 99.1327 34.6296C99.1379 35.1693 99.0162 35.7027 98.7773 36.1869C98.5345 36.6699 98.1265 37.0501 97.6271 37.2587C97.4199 37.3367 97.2033 37.3872 96.9829 37.409Z" fill="#455A64"/>
<path d="M82.5144 3.72351L82.5465 4.33705L82.897 5.77852C82.7165 6.04494 82.5845 6.34106 82.507 6.65326C82.4749 6.99083 83.8547 8.9399 83.8547 8.9399L87.7248 10.1719C87.7248 10.1719 88.3986 9.5017 87.9938 8.76248C87.7049 8.2735 87.3274 7.84236 86.8807 7.49104C86.8807 7.49104 87.6902 7.0204 87.2188 6.71979L86.7498 6.40685C86.7498 6.40685 86.7153 5.46312 86.2118 5.37935L85.7873 5.31035C85.6758 4.93808 85.3522 4.66839 84.9653 4.62535L84.7062 4.67217C84.7062 4.67217 84.4594 4.07587 83.9879 4.01919C83.5856 3.97238 83.5856 4.05369 83.5856 4.05369C83.3795 3.66925 82.9018 3.52202 82.5144 3.72351Z" fill="#FFBE9D"/>
<path d="M85.3726 6.74199C85.3603 6.74199 85.3208 6.6385 85.2023 6.47341C85.0212 6.24553 84.8132 6.04034 84.5828 5.86233C84.4421 5.74159 84.2817 5.61592 84.1262 5.45329C83.9549 5.28366 83.819 5.08182 83.7263 4.85946C83.635 4.61305 83.6276 4.35187 83.5215 4.12024C83.408 3.8924 83.1852 3.73882 82.9316 3.71368C82.802 3.70103 82.6714 3.72403 82.5539 3.78021L82.5885 3.72846C82.5834 4.20452 82.6602 4.67793 82.8156 5.12804C82.9328 5.49711 83.0712 5.8591 83.2302 6.21222C83.361 6.5153 83.477 6.75431 83.5536 6.9194C83.6004 7.00227 83.6385 7.08981 83.6671 7.18059C83.605 7.10541 83.5527 7.0226 83.5116 6.93419C83.4203 6.77402 83.2944 6.53994 83.1512 6.24179C82.981 5.88902 82.8326 5.52611 82.707 5.15514C82.539 4.6924 82.4554 4.20337 82.4602 3.71121V3.69643L82.4922 3.67918C82.6316 3.61128 82.7871 3.58314 82.9414 3.59787C83.2469 3.62416 83.5147 3.8124 83.6424 4.09068C83.7584 4.35433 83.7634 4.62045 83.8473 4.82989C84.0313 5.21809 84.3065 5.5562 84.6494 5.81551C84.8797 6.00313 85.0824 6.2221 85.2517 6.46602C85.2933 6.53508 85.3288 6.60763 85.3578 6.68285C85.3726 6.72228 85.3776 6.74199 85.3726 6.74199ZM85.7799 5.30052C85.7947 5.30052 85.8613 5.34734 85.9403 5.46315C86.0371 5.61546 86.1197 5.7763 86.1871 5.94364C86.2854 6.10994 86.3147 6.30805 86.2686 6.49559C86.2118 6.64343 86.1032 6.67546 86.1007 6.65821C86.0983 6.64097 86.1575 6.59168 86.1797 6.46848C86.1917 6.30239 86.153 6.13657 86.0687 5.99292C85.9156 5.60607 85.7601 5.32024 85.7799 5.30052Z" fill="#EB996E"/>
<path d="M85.3331 6.68038C85.3331 6.68038 85.3701 6.68038 85.4244 6.66067C85.4977 6.63212 85.5509 6.56781 85.5651 6.49065C85.5861 6.37069 85.5651 6.24719 85.5059 6.14076C85.4467 6.01262 85.3504 5.8771 85.2591 5.7268C85.0218 5.38116 84.8209 5.01207 84.6593 4.62537C84.928 4.94638 85.1645 5.29302 85.3652 5.66027C85.4567 5.79853 85.5392 5.94256 85.612 6.09147C85.6765 6.22321 85.6906 6.37394 85.6515 6.51529C85.6225 6.61692 85.5366 6.69214 85.4318 6.70749C85.3627 6.71488 85.3282 6.68531 85.3331 6.68038ZM86.7079 6.34281C86.7227 6.34281 86.7844 6.4389 86.8338 6.62617C86.8623 6.73501 86.8797 6.84647 86.8856 6.95882C86.8893 7.02612 86.8893 7.09357 86.8856 7.16087C86.8848 7.25347 86.8363 7.33914 86.7573 7.38756C86.6684 7.42417 86.5663 7.4059 86.4956 7.34075C86.4421 7.29372 86.397 7.23788 86.3624 7.17566C86.3032 7.07669 86.2615 6.96835 86.2389 6.85533C86.1995 6.66806 86.197 6.55225 86.2143 6.54979C86.2315 6.54732 86.2661 6.65821 86.3253 6.83069C86.3593 6.92935 86.4049 7.02364 86.4611 7.11159C86.5228 7.20769 86.624 7.31118 86.7079 7.27175C86.7918 7.23233 86.7745 7.07463 86.7745 6.96128C86.7743 6.85495 86.7668 6.74876 86.7523 6.64342C86.7252 6.54543 86.7102 6.44446 86.7079 6.34281Z" fill="#EB996E"/>
<path d="M86.2093 6.65331C86.2093 6.6681 86.1896 6.70506 86.1254 6.73463C85.9431 6.80594 85.7358 6.73763 85.6318 6.572C85.5972 6.5104 85.5948 6.46358 85.612 6.45619C85.6293 6.4488 85.7305 6.572 85.8909 6.62375C86.0514 6.67549 86.1921 6.62867 86.2093 6.65331Z" fill="#EB996E"/>
<path d="M68.1495 73.0323C67.5867 72.8228 66.6686 73.1653 66.4217 73.8084C66.2465 74.2865 65.6245 76.3538 65.6245 76.3538L69.2182 76.9058L70.2721 74.0277L70.3931 73.769C70.3931 73.769 68.616 73.2023 68.1495 73.0323Z" fill="#999999"/>
<path d="M60.5 61C60.3889 61.3179 51.9261 75.3682 52.5901 79.2294C52.7418 80.2201 53.1164 81.1637 53.686 81.9891C54.6013 83.2668 56.1933 83.8742 57.7289 83.5316L70.9436 80.6758V77.1251L63.2083 75.3583C63.2083 75.3583 69.5071 66.3128 70.9436 66.2019C72.3801 66.0911 78.3482 74.698 78.3482 74.698C78.3482 74.698 80.3375 82.546 83.4253 82.546C86.513 82.546 88.0655 84.4211 89.0601 81.4421C90.0548 78.463 81.5001 60 81.5001 60C81.5001 60 73.8152 63.8109 70.0001 64C66.0143 64.1976 60.5 61 60.5 61Z" fill="white"/>
<path d="M78.1458 74.4146L70.8498 73.1604C70.8498 73.1604 67.108 77.4133 70.9436 80.3061L85.1258 82.7209" fill="white"/>
<path d="M63.9955 74.3702C64.0178 74.3875 63.7265 74.7522 63.3884 75.4224C62.9786 76.3106 62.6242 77.2232 62.327 78.155C61.9519 79.2367 61.5002 80.2076 60.9794 80.7694C60.9152 80.8408 60.856 80.9098 60.7968 80.9714L60.6141 81.1291L60.4537 81.2671C60.4019 81.3041 60.35 81.3336 60.3056 81.3632C60.2156 81.4265 60.1197 81.4809 60.0193 81.5258C60.3433 81.2849 60.6419 81.0116 60.9103 80.7102C61.4039 80.146 61.8309 79.1924 62.2061 78.1107C62.503 77.1736 62.8719 76.2609 63.3094 75.3805C63.4474 75.1159 63.6067 74.8629 63.7858 74.624C63.8463 74.5321 63.9167 74.447 63.9955 74.3702ZM82.2479 81.0108C82.1414 80.9955 82.0376 80.9657 81.9393 80.9221C81.6651 80.8187 81.4041 80.683 81.1618 80.518C80.3647 79.9599 79.7301 79.2006 79.323 78.3176C78.9261 77.4388 78.6568 76.5078 78.5233 75.553C78.4666 75.1883 78.4296 74.8951 78.4098 74.6881C78.392 74.5831 78.3862 74.4765 78.3925 74.3702C78.4249 74.4721 78.4472 74.5769 78.4592 74.6832C78.5011 74.9099 78.5505 75.1957 78.6122 75.5382C78.77 76.4774 79.0479 77.3924 79.4391 78.261C79.8395 79.1247 80.4495 79.8751 81.2137 80.4441C81.5406 80.6638 81.8867 80.8535 82.2479 81.0108Z" fill="#455A64"/>
<path d="M63.186 75.3731C63.2269 75.3714 63.2677 75.3764 63.307 75.3879L63.6451 75.4618L64.8792 75.7378C65.9282 75.9719 67.3795 76.2774 68.9912 76.5682C69.7786 76.7111 70.5314 76.8368 71.2126 76.9452H71.2669V76.9994C71.183 78.0589 71.1114 78.9706 71.0571 79.6335C71.0275 79.9415 71.0053 80.1928 70.9855 80.3875C70.9825 80.4772 70.9701 80.5664 70.9485 80.6536C70.9388 80.5635 70.9388 80.4726 70.9485 80.3825C70.9485 80.1903 70.9707 79.9365 70.9855 79.6285C71.0275 78.9608 71.0818 78.0515 71.1484 76.9895L71.2003 77.0536C70.5116 76.9501 69.7564 76.8269 68.9665 76.6865C67.3523 76.3932 65.9035 76.0729 64.8595 75.8167C64.3387 75.691 63.9166 75.5703 63.6254 75.5013L63.2922 75.4052C63.2559 75.3975 63.2204 75.3868 63.186 75.3731ZM78.1458 77.3961C77.9128 76.9487 77.8102 76.445 77.8496 75.9423C77.849 75.4382 77.9938 74.9447 78.2667 74.5206C78.1167 74.9837 78.0198 75.4623 77.9779 75.9473C77.9821 76.4348 78.0384 76.9205 78.1458 77.3961Z" fill="#455A64"/>
<path d="M71.2027 77.0043L73.2094 77.0585C73.2982 77.1595 74.2806 76.0729 75.1395 76.6913C75.3074 76.8096 77.3362 80.4539 77.3362 80.4539L78.3926 81.5677L72.812 80.6166L70.9683 80.5032L71.2027 77.0043Z" fill="#999999"/>
<path d="M80.0487 57.1219C80.0107 57.1788 79.9669 57.2317 79.9179 57.2796C79.829 57.3757 79.7007 57.526 79.5205 57.7034C79.0168 58.2115 78.4746 58.6803 77.8989 59.1054C77.0439 59.7377 76.1249 60.2787 75.1568 60.7194C74.5835 60.9748 73.9959 61.1969 73.3969 61.3847C72.7497 61.5781 72.09 61.7271 71.4224 61.8307C70.1317 62.0235 68.8199 62.0293 67.5276 61.8479C66.4724 61.7035 65.4409 61.421 64.4596 61.0077C63.7979 60.7307 63.1695 60.3802 62.5862 59.9629C62.4269 59.8513 62.2736 59.7312 62.1271 59.6032C62.0721 59.5628 62.0209 59.5174 61.9741 59.4677C62.033 59.5019 62.0891 59.5406 62.142 59.5835C62.253 59.6574 62.3888 59.788 62.6159 59.921C63.2052 60.3198 63.8347 60.6559 64.4941 60.9239C65.4717 61.3214 66.496 61.593 67.5424 61.7321C68.824 61.9054 70.1238 61.8955 71.4026 61.7025C72.0633 61.6001 72.7164 61.4536 73.3574 61.264C73.9528 61.0819 74.5371 60.8656 75.1074 60.6159C76.0711 60.1834 76.9882 59.6542 77.8446 59.0365C78.4205 58.6165 78.9657 58.1562 79.4761 57.659C79.6637 57.489 79.797 57.3461 79.8932 57.2525C79.9424 57.2058 79.9943 57.1622 80.0487 57.1219Z" fill="#FAFAFA"/>
<path opacity="0.3" d="M60.7181 61.1091C61.2117 61.4738 61.9004 61.459 62.4829 61.2619C63.0499 61.0263 63.5986 60.7487 64.1242 60.4315C66.0593 59.4286 68.3498 59.3424 70.349 58.4775C71.2474 58.0907 72.1977 57.2997 72.0101 56.3387C71.8719 55.8082 71.4788 55.3807 70.9611 55.1979C70.4489 55.022 69.9076 54.9459 69.3667 54.9736C66.4591 54.9736 63.5861 55.5552 60.728 56.1317C60.069 56.2648 59.3754 56.4151 58.8842 56.871C58.3931 57.3268 58.2252 58.1991 58.7189 58.6525" fill="black"/>
<path d="M60.0366 39.7159C60.0711 39.7159 60.6363 42.0518 61.3003 44.9495C61.9642 47.8472 62.4727 50.2029 62.4356 50.2128C62.3986 50.2226 61.8359 47.8768 61.1744 44.9766C60.5129 42.0764 60.002 39.7233 60.0366 39.7159ZM73.856 32.9422C73.6727 32.7811 73.5212 32.5872 73.4092 32.3706C73.1624 32.0034 72.9156 31.4096 72.338 31.0671C72.0762 30.9068 71.7584 30.8656 71.4643 30.9537C71.2228 31.0332 71.0008 31.1625 70.8127 31.3332C70.482 31.6215 70.3042 31.826 70.287 31.826C70.3145 31.7665 70.3512 31.7116 70.3956 31.6634C70.5042 31.5227 70.6239 31.3909 70.7535 31.2691C70.9447 31.0796 71.1757 30.9348 71.4297 30.8453C71.5886 30.7926 71.757 30.7749 71.9234 30.7936C72.0976 30.8154 72.2656 30.8724 72.417 30.9611C72.6975 31.1348 72.9346 31.3699 73.1106 31.6486C73.2735 31.895 73.3944 32.1414 73.503 32.3311C73.6955 32.7155 73.8683 32.9299 73.856 32.9422ZM77.5361 45.4547C77.5137 45.3352 77.5022 45.214 77.5015 45.0924C77.4818 44.8633 77.4571 44.5282 77.4275 44.1068C77.3732 43.2814 77.304 42.1356 77.2794 40.8814C77.2547 39.6272 77.2794 38.4765 77.2942 37.651C77.3065 37.2371 77.3164 36.9118 77.3287 36.6654C77.3263 36.5448 77.3362 36.4242 77.3583 36.3056C77.3748 36.4248 77.3814 36.5451 77.3781 36.6654C77.3781 36.9118 77.3781 37.2494 77.3781 37.651C77.3781 38.4765 77.3781 39.6222 77.4003 40.8789C77.4225 42.1356 77.4793 43.2764 77.5114 44.1019C77.5237 44.4961 77.5361 44.8263 77.5435 45.0875C77.5532 45.2098 77.5507 45.3328 77.5361 45.4547ZM59.9995 49.7125C59.9995 49.7322 59.7971 49.609 59.4615 49.4834C58.5794 49.1594 57.6026 49.2129 56.7613 49.6312C56.4429 49.7938 56.2676 49.9343 56.2528 49.917C56.3837 49.767 56.542 49.6433 56.7193 49.5524C57.1383 49.3137 57.6074 49.1762 58.0891 49.1507C58.5709 49.1236 59.0523 49.2079 59.496 49.3971C59.6835 49.4672 59.8548 49.5745 59.9995 49.7125ZM59.2369 48.754C59.2369 48.7885 58.7111 48.6234 58.062 48.5076C57.4129 48.3918 56.8723 48.3524 56.8723 48.3154C57.277 48.2645 57.6876 48.287 58.0842 48.3819C58.4885 48.4323 58.8796 48.5585 59.2369 48.754ZM75.0012 31.7866C74.9815 31.7866 74.9099 31.6289 74.7322 31.412C74.5052 31.1264 74.2062 30.9062 73.8659 30.7739C73.5231 30.6498 73.1538 30.6175 72.7947 30.6802C72.5157 30.727 72.3553 30.8034 72.3454 30.7837C72.4702 30.6848 72.6179 30.6187 72.7749 30.5915C73.546 30.3969 74.3568 30.7028 74.8062 31.3578C74.9065 31.482 74.9736 31.6295 75.0012 31.7866ZM78.1334 30.5225C77.7965 31.102 77.5226 31.7157 77.3164 32.3533C77.1532 32.9985 77.0605 33.6594 77.04 34.3245C76.9911 34.1306 76.9728 33.9303 76.9857 33.7307C76.9901 33.248 77.0598 32.7681 77.193 32.304C77.3271 31.8409 77.5221 31.3977 77.773 30.9858C77.8712 30.8155 77.9924 30.6596 78.1334 30.5225Z" fill="#263238"/>
<path d="M76.8351 32.4962L76.7906 32.5356L76.6524 32.6416C76.534 32.7377 76.3464 32.8609 76.1316 33.058C75.5183 33.596 74.9557 34.1891 74.4508 34.8296C73.7893 35.6231 73.0661 36.6284 72.1085 37.6165C71.6066 38.1364 71.0341 38.5834 70.4079 38.9446C69.7259 39.3317 68.9681 39.5671 68.1865 39.6345C67.794 39.669 67.3992 39.669 67.0067 39.6345C66.6262 39.6051 66.2479 39.5525 65.8738 39.4768C65.1686 39.3299 64.4755 39.1297 63.8005 38.8781C62.5097 38.4025 61.3866 37.8925 60.4092 37.5549C59.6435 37.271 58.8515 37.0638 58.0447 36.9364C57.7584 36.897 57.5363 36.8748 57.3832 36.8649L57.2104 36.8502C57.1908 36.8533 57.1708 36.8533 57.1512 36.8502C57.1708 36.8464 57.1909 36.8464 57.2104 36.8502H57.3857C57.6085 36.8543 57.8309 36.8699 58.0521 36.897C58.866 37.0061 59.6661 37.201 60.4388 37.4785C61.4261 37.8062 62.5566 38.3089 63.84 38.777C64.511 39.0221 65.199 39.2181 65.8985 39.3635C66.2675 39.4387 66.641 39.4897 67.0166 39.5163C67.4017 39.5507 67.7891 39.5507 68.1742 39.5163C68.9378 39.4458 69.6776 39.2131 70.3437 38.8337C70.9611 38.4801 71.526 38.0422 72.0221 37.5327C72.9748 36.5594 73.7054 35.5615 74.3792 34.7705C74.8955 34.1308 75.4743 33.5439 76.107 33.0186C76.2771 32.8743 76.4568 32.7417 76.645 32.6219L76.7906 32.5258C76.8186 32.5044 76.8334 32.4945 76.8351 32.4962ZM76.9634 43.5745C76.9439 43.6282 76.9182 43.6795 76.8869 43.7273C76.8126 43.8739 76.7302 44.0162 76.6401 44.1536C76.3028 44.6599 75.8994 45.1189 75.4405 45.5187C74.7584 46.1142 73.9862 46.5982 73.1525 46.9528C72.1323 47.388 71.0492 47.6584 69.9439 47.7536C68.8405 47.8361 67.7313 47.789 66.639 47.6131C65.7495 47.4727 64.8704 47.2727 64.0079 47.0144C63.2674 46.7951 62.6824 46.593 62.2801 46.4427C62.0802 46.3712 61.9247 46.3072 61.8186 46.2677C61.7636 46.2493 61.7107 46.2254 61.6606 46.1963C61.7177 46.2074 61.7738 46.2231 61.8284 46.2431L62.2974 46.3959C62.7047 46.5289 63.2847 46.7211 64.0251 46.9257C64.8869 47.1708 65.7632 47.3617 66.6488 47.4973C67.7321 47.6649 68.831 47.7079 69.9241 47.6254C71.0155 47.5308 72.0855 47.2673 73.0958 46.8443C73.9204 46.4991 74.6871 46.0296 75.369 45.4522C75.8279 45.0613 76.2366 44.6152 76.5858 44.124C76.8351 43.7741 76.9511 43.5672 76.9634 43.5745ZM77.6669 49.9614C77.6332 50.0076 77.5943 50.0498 77.5508 50.087L77.193 50.432C76.8795 50.7277 76.4253 51.1564 75.833 51.664C75.1459 52.2544 74.4018 52.7752 73.6116 53.2188C72.6418 53.7738 71.5666 54.1204 70.4548 54.2365C69.3376 54.2969 68.2197 54.1292 67.1696 53.7437C66.1971 53.4233 65.3506 53.0661 64.6249 52.8098C64.0555 52.5985 63.4725 52.4257 62.8799 52.2923C62.4603 52.2012 62.2234 52.1716 62.2258 52.1568C62.2838 52.1552 62.3418 52.1601 62.3986 52.1716C62.5643 52.1865 62.7291 52.2103 62.8922 52.2431C63.4922 52.362 64.0822 52.5268 64.657 52.7359C65.3975 52.9823 66.2416 53.3322 67.2091 53.6451C68.2455 54.0157 69.3458 54.1749 70.4449 54.1133C71.5397 54.0005 72.5998 53.665 73.5598 53.1277C74.3458 52.6907 75.0895 52.1817 75.7812 51.6073C76.376 51.1145 76.84 50.703 77.1633 50.4172L77.536 50.092C77.5746 50.0437 77.6185 49.9999 77.6669 49.9614ZM60.9029 46.2825C60.8856 46.2825 60.7005 46.0361 60.3451 45.6665C59.4162 44.7015 58.2213 44.0334 56.9118 43.747C56.4182 43.6386 56.0924 43.6164 56.0924 43.5943C56.1675 43.5812 56.2443 43.5812 56.3194 43.5943C56.5241 43.6025 56.7278 43.6255 56.9291 43.6633C58.2751 43.9056 59.5012 44.5909 60.4117 45.6099C60.5498 45.7644 60.6761 45.9291 60.7893 46.1027C60.836 46.1566 60.8743 46.2172 60.9029 46.2825ZM60.3031 51.4989C60.3031 51.5211 59.9822 51.3585 59.4392 51.2525C58.0013 50.9437 56.5099 51.4504 55.5592 52.5708C55.1964 52.9897 55.0508 53.31 55.0286 53.2952C55.0507 53.217 55.0822 53.1417 55.1224 53.071C55.2253 52.8737 55.3477 52.6872 55.4876 52.5141C56.4305 51.3239 57.9849 50.7964 59.459 51.1663C59.6764 51.2181 59.8881 51.2916 60.0908 51.3856C60.1669 51.4125 60.2385 51.4507 60.3031 51.4989ZM80.3868 28.5833C80.3695 28.5956 80.1844 28.3369 79.8413 27.9623C78.9473 26.9743 77.8341 26.209 76.5907 25.7275C76.1144 25.5426 75.8083 25.4613 75.8132 25.4392C75.8886 25.4393 75.9635 25.4509 76.0354 25.4737C76.234 25.519 76.4301 25.5749 76.6228 25.6412C77.2596 25.8622 77.8639 26.1671 78.4197 26.548C78.9707 26.932 79.4686 27.3869 79.9006 27.9007C80.0313 28.0582 80.1533 28.2227 80.2659 28.3935C80.3156 28.4503 80.3564 28.5142 80.3868 28.5833ZM83.2474 21.1616C83.2277 21.1739 83.0821 20.9349 82.8007 20.5874C82.4331 20.1348 82.0093 19.7308 81.5395 19.385C81.0666 19.0427 80.5514 18.7627 80.0067 18.5521C79.5871 18.392 79.3156 18.3255 79.3205 18.3057C79.3873 18.3033 79.4539 18.3116 79.518 18.3304C79.6946 18.3654 79.8686 18.4123 80.0388 18.4708C80.6021 18.6602 81.1332 18.9344 81.6135 19.284C82.0939 19.6346 82.5183 20.0558 82.8723 20.5332C82.9794 20.6777 83.0767 20.8292 83.1635 20.9866C83.2006 21.0401 83.2289 21.0992 83.2474 21.1616ZM86.1402 14.6171C86.1204 14.6171 85.9921 14.3854 85.7453 14.0257C85.0989 13.0837 84.2059 12.3371 83.1635 11.8672C82.7661 11.6873 82.5045 11.6035 82.5119 11.5838C82.5193 11.5641 82.581 11.5838 82.702 11.6183C82.8699 11.6629 83.0347 11.718 83.1956 11.7834C84.2812 12.2168 85.1996 12.9852 85.8168 13.9764C85.9095 14.1242 85.992 14.2782 86.0637 14.4372C86.0994 14.4922 86.1253 14.5531 86.1402 14.6171Z" fill="#FAFAFA"/>
<path opacity="0.3" d="M55.4878 50.4377C55.9568 49.6566 56.986 49.388 57.8943 49.4693C58.8026 49.5506 59.6689 49.9005 60.5674 50.0632C60.1726 48.9511 59.1027 48.2217 57.9215 48.2595C56.7403 48.2972 55.7192 49.0933 55.3965 50.2283" fill="black"/>
<path d="M63.8055 29.7242C62.8855 30.0493 61.8657 29.9212 61.0552 29.3785C60.2447 28.8358 59.7388 27.9425 59.691 26.9694C59.6466 26.0774 59.9872 25.1411 59.6491 24.3156C59.4171 23.7464 58.8963 23.33 58.689 22.7509C58.3829 21.8885 58.8519 20.962 59.306 20.1662C59.5724 19.6416 59.916 19.1599 60.3254 18.737C60.7425 18.3111 61.3274 18.0918 61.9223 18.1382M71.2002 17.5543C71.2002 18.2319 71.6939 18.7986 72.1702 19.2791C72.6466 19.7596 73.1896 20.2425 73.3352 20.9004C73.582 22.0709 72.5108 23.2511 72.8416 24.4043C73.0144 25.0228 73.5648 25.491 73.703 26.1291C73.8412 26.7673 73.5475 27.3612 73.1748 27.854C72.8021 28.3468 72.3307 28.7731 72.0049 29.3028C72.0049 29.3028 71.3434 30.5866 68.9739 29.9632" fill="#263238"/>
<path d="M60.9251 19.3209C60.8634 18.7123 61.394 18.2022 61.9469 17.9386C62.4998 17.6749 63.1267 17.5443 63.608 17.1673C64.035 16.8347 64.304 16.3419 64.6545 15.9353C65.5399 14.9015 66.915 14.4249 68.2516 14.6884C69.5882 14.9519 70.6786 15.9146 71.1039 17.2068C71.3828 18.0593 71.3088 19.0967 70.6646 19.7226C69.9241 20.4618 68.7246 20.3854 67.6904 20.2499C66.6562 20.1143 65.4888 20.0035 64.6792 20.649C64.1856 21.0458 63.9387 21.6544 63.6648 22.2186C63.3908 22.7829 63.0354 23.3644 62.4578 23.6108C61.8803 23.8572 61.0485 23.564 60.9769 22.9381" fill="#263238"/>
<path d="M71.9357 20.9768C71.6889 19.252 70.3857 17.197 68.6629 17.5074L63.3415 19.2742C62.8186 19.369 62.4552 19.8473 62.5048 20.3756L63.8104 32.5825C63.9909 34.2698 65.4911 35.5024 67.1845 35.3545C68.8896 35.2069 70.1567 33.7143 70.0229 32.0108C69.9439 31.0252 69.8797 30.185 69.8797 30.1874C69.8797 30.1899 72.0789 29.6527 72.3257 26.7205C72.4491 25.2618 72.1998 22.9012 71.9357 20.9768Z" fill="#FFBE9D"/>
<path d="M71.5582 22.8766C71.5162 22.9283 71.2175 22.741 70.8177 22.7731C70.4178 22.8051 70.1365 23.0195 70.0896 22.9776C70.0427 22.9357 70.1093 22.8667 70.2303 22.7657C70.3941 22.6313 70.5962 22.552 70.8078 22.539C71.0158 22.5222 71.2237 22.5732 71.4002 22.6844C71.531 22.7681 71.5779 22.8544 71.5582 22.8766ZM67.6288 23.2683C67.5868 23.3201 67.2882 23.1328 66.8883 23.1624C66.4885 23.192 66.2071 23.4088 66.1479 23.3694C66.0886 23.3299 66.1651 23.2585 66.2886 23.155C66.4532 23.0224 66.655 22.944 66.8661 22.9308C67.0737 22.9149 67.2811 22.9649 67.4585 23.0737C67.5967 23.1624 67.6461 23.2437 67.6288 23.2683ZM69.2529 25.4712C69.459 25.3896 69.6746 25.3342 69.8946 25.3061C69.9958 25.2889 70.092 25.2593 70.1044 25.1903C70.1051 25.084 70.0732 24.9799 70.0131 24.8921C69.8995 24.6457 69.7662 24.3993 69.6527 24.1357C69.1591 23.0589 68.779 22.1644 68.8234 22.1497C68.8678 22.1349 69.317 22.9874 69.8107 24.0642L70.1587 24.8256C70.2318 24.9442 70.2615 25.0844 70.2426 25.2223C70.2178 25.2979 70.1595 25.3579 70.0846 25.385C70.0288 25.4043 69.9707 25.4167 69.9119 25.4219C69.6951 25.466 69.4737 25.4825 69.2529 25.4712Z" fill="#263238"/>
<path d="M69.8797 30.1874C68.5145 30.3123 67.1414 30.0564 65.9133 29.4482C65.9133 29.4482 67.0413 31.3701 69.9291 30.8847L69.8797 30.1874Z" fill="#EB996E"/>
<path d="M67.688 21.6273C67.6559 21.7382 67.2511 21.7185 66.7871 21.8097C66.3231 21.9008 65.9479 22.0561 65.8788 21.9624C65.8492 21.9181 65.906 21.8097 66.0516 21.6939C66.2457 21.5481 66.4715 21.4502 66.7106 21.408C66.9491 21.3603 67.1956 21.3712 67.4288 21.4401C67.6066 21.4967 67.7003 21.5756 67.688 21.6273ZM71.294 21.2996C71.2299 21.3957 70.9485 21.3218 70.6153 21.3415C70.2821 21.3612 70.0056 21.4499 69.9341 21.3587C69.902 21.3144 69.9341 21.2208 70.0575 21.1123C70.3797 20.877 70.8122 20.8585 71.1534 21.0655C71.2768 21.1641 71.3311 21.2528 71.294 21.2996Z" fill="#263238"/>
<path d="M61.9964 28.9628C62.8225 29.0686 63.6492 28.7708 64.2172 28.1626C64.7853 27.5545 65.0253 26.7104 64.8619 25.8951C64.7212 25.1879 64.2844 24.4906 64.4818 23.8006C64.7459 22.884 65.9776 22.5218 66.2466 21.6076C66.4021 21.0778 66.1849 20.484 66.3675 19.9616C66.5502 19.4393 67.0216 19.1608 67.498 18.9489C67.9743 18.737 68.4852 18.5793 68.8777 18.2319C69.2701 17.8844 69.4775 17.266 69.1813 16.8372C67.0285 17.2511 64.9329 17.9203 62.9392 18.8306C62.4776 19.0401 61.9939 19.2889 61.7446 19.73C61.4953 20.1711 61.5348 20.7698 61.5965 21.3021L62.5221 29.0885" fill="#263238"/>
<path d="M59.7873 19.6487C59.762 19.6839 59.7483 19.7261 59.7478 19.7694C59.7412 19.8971 59.7908 20.0213 59.8835 20.1094C60.0242 20.2554 60.2187 20.3374 60.4216 20.3361C60.6798 20.3019 60.9265 20.2082 61.1423 20.0626C61.3932 19.9008 61.676 19.795 61.9716 19.7522C62.316 19.7197 62.6629 19.7263 63.0058 19.7719C63.3931 19.8274 63.7845 19.8496 64.1757 19.8384C64.6149 19.8253 65.031 19.6393 65.3333 19.3209C65.6038 18.9924 65.8106 18.6164 65.9429 18.2121C66.0699 17.8505 66.2354 17.5035 66.4366 17.1772C66.7849 16.6277 67.427 16.3372 68.0705 16.438C68.4984 16.5194 68.8789 16.7609 69.1343 17.1132C69.2245 17.2463 69.3069 17.3845 69.3811 17.5271C69.3777 17.4845 69.3668 17.4428 69.349 17.4039C69.3071 17.2898 69.2525 17.1807 69.1861 17.0787C68.9335 16.6969 68.5393 16.431 68.0903 16.3395C67.7784 16.279 67.4558 16.3081 67.1598 16.4232C66.8169 16.554 66.5242 16.7894 66.323 17.0959C66.1167 17.4299 65.947 17.7851 65.8171 18.1555C65.6893 18.5406 65.4928 18.8996 65.237 19.215C64.96 19.5053 64.5796 19.6752 64.1782 19.6881C63.7947 19.7005 63.4108 19.6816 63.0305 19.6314C62.6772 19.5884 62.32 19.5884 61.9667 19.6314C61.6562 19.6805 61.3603 19.7975 61.1003 19.9739C60.9014 20.1166 60.6728 20.2127 60.4315 20.2548C60.2487 20.2619 60.0709 20.1953 59.9378 20.07C59.8493 19.9953 59.7957 19.8874 59.7897 19.7719C59.7749 19.6906 59.7947 19.6511 59.7873 19.6487Z" fill="#455A64"/>
<path d="M61.3546 18.6976C62.3168 18.3954 62.937 17.4633 62.843 16.4606C62.749 15.4579 61.9663 14.6569 60.9646 14.5383C60.4956 14.489 59.9773 14.6294 59.7157 15.0311C59.4541 15.4327 59.533 15.9502 59.222 16.2631C58.9111 16.576 58.3137 16.5095 57.8522 16.6426C57.134 16.852 56.702 17.6848 56.8402 18.4167C57.0129 19.1591 57.5688 19.7535 58.2989 19.9764C59.0233 20.1845 59.7966 20.1446 60.4956 19.8631C61.189 19.5801 61.8408 19.2046 62.4332 18.7469" fill="#263238"/>
<path d="M57.7115 16.8495C57.754 17.0383 57.8383 17.2151 57.9584 17.367C58.5079 18.1448 59.3967 18.6136 60.35 18.6286C60.544 18.6434 60.7388 18.6148 60.9202 18.5448C60.7323 18.5276 60.5436 18.5202 60.355 18.5226C59.4478 18.4471 58.612 18.0014 58.0448 17.2906C57.8325 17.0343 57.7362 16.8397 57.7115 16.8495Z" fill="#455A64"/>
<path d="M59.4836 19.9591C59.5256 19.9887 59.9156 19.2199 60.7745 18.6507C61.6334 18.0815 62.485 17.9977 62.4726 17.9509C62.2871 17.9284 62.0988 17.9443 61.9198 17.9977C61.0302 18.1962 60.2494 18.7246 59.7354 19.4762C59.6206 19.6191 59.5351 19.7832 59.4836 19.9591Z" fill="#5FA6FF"/>
<path d="M62.6011 17.7785C62.6011 17.7785 62.6134 17.8105 62.648 17.8598C62.705 17.9319 62.7733 17.9943 62.8504 18.0446C63.1424 18.2223 63.494 18.2747 63.8253 18.19C64.304 18.042 64.7249 17.7493 65.0298 17.3522C65.3951 16.9407 65.7258 16.4233 66.2367 16.0807C66.726 15.7652 67.3172 15.6472 67.8904 15.7506C68.3591 15.8354 68.7872 16.0708 69.1097 16.4208C69.33 16.6552 69.502 16.9307 69.6157 17.2315C69.6922 17.4483 69.7144 17.574 69.7268 17.5715C69.7391 17.569 69.7268 17.5395 69.7268 17.4779C69.7168 17.3885 69.6986 17.3002 69.6725 17.2142C69.5768 16.8945 69.4126 16.5993 69.1912 16.3493C68.8614 15.9689 68.4142 15.7089 67.92 15.6101C67.3065 15.4911 66.6707 15.6157 66.1479 15.9575C65.5999 16.3247 65.2717 16.8569 64.9138 17.261C64.631 17.6436 64.2385 17.9314 63.7883 18.0865C63.4812 18.1764 63.1511 18.1437 62.8676 17.9953C62.7726 17.9309 62.6834 17.8584 62.6011 17.7785Z" fill="#455A64"/>
<path d="M69.3047 26.4913C69.2573 26.6414 69.1874 26.7835 69.0974 26.9127C69.0101 27.0481 68.8674 27.1383 68.7074 27.1591C68.536 27.1617 68.3748 27.0785 68.2779 26.9373C68.186 26.7945 68.1419 26.6263 68.1521 26.4568C68.1521 26.3065 68.2212 26.1242 68.3717 26.102C68.4358 26.0994 68.4995 26.1129 68.5568 26.1414L69.3565 26.4396" fill="#EB996E"/>
<path d="M69.001 27.1468C68.8582 27.159 68.7142 27.1448 68.5765 27.1049C68.4366 27.0525 68.3207 26.9508 68.2507 26.8191C68.1712 26.6571 68.164 26.4691 68.231 26.3016C68.2482 26.2596 68.2706 26.2198 68.2976 26.1833C68.3272 26.1488 68.3223 26.1513 68.3568 26.1562C68.4006 26.1691 68.4435 26.1847 68.4852 26.2031L68.616 26.2523C68.7863 26.3189 68.9418 26.3755 69.0726 26.4199C69.2101 26.4833 69.3567 26.5249 69.507 26.5431C69.3863 26.4518 69.2523 26.3795 69.1096 26.3287C68.9838 26.2696 68.8332 26.203 68.6654 26.1316L68.5345 26.0774C68.4874 26.0552 68.4387 26.0362 68.3889 26.0207C68.3512 26.0086 68.3106 26.0086 68.2729 26.0207C68.2382 26.0364 68.2084 26.061 68.1865 26.0922C68.1516 26.1385 68.1226 26.189 68.1001 26.2425C68.0165 26.4484 68.0301 26.6809 68.1372 26.8757C68.2252 27.0315 68.3717 27.1459 68.5444 27.1936C68.6565 27.2256 68.7754 27.2256 68.8875 27.1936C68.9665 27.1837 69.0035 27.1566 69.001 27.1468Z" fill="#263238"/>
<path d="M61.7718 55.4833C61.7718 55.4833 62.4332 54.579 61.1967 54.579L59.738 54.8131C59.738 54.8131 58.5335 55.2467 58.3163 55.3601C58.0991 55.4734 57.1168 57.1219 57.1168 57.1219L56.9094 58.9329L58.4496 60.6898C58.6433 60.9112 58.9406 61.0127 59.2295 60.9559L61.1917 60.5617C61.5719 60.4547 61.9419 60.3146 62.2975 60.1428C62.7294 59.9136 63.813 59.1917 63.4427 58.9896C63.1869 58.8822 62.8936 58.9148 62.6677 59.0759C62.5884 58.9331 62.4527 58.83 62.2938 58.7916C62.1348 58.7532 61.967 58.783 61.831 58.8738L61.2436 59.1621C61.2436 59.1621 61.0881 58.5288 60.6561 58.8442C60.2242 59.1596 59.1999 59.9703 59.1999 59.9703L58.0596 58.5929L58.5063 56.8681L61.8113 55.3896" fill="#FFBE9D"/>
<path d="M61.3966 55.4414C61.3966 55.4414 58.6815 56.363 58.4347 56.57C58.1879 56.777 57.7264 57.8661 57.7856 58.248C57.8448 58.6299 58.2471 60.1355 59.3233 59.9876C60.4636 59.8324 60.5944 58.9675 60.5944 58.9675L64.309 58.3244C64.309 58.3244 64.6052 59.2804 65.4024 59.103C66.1997 58.9256 67.1154 57.4965 67.1154 57.4965C67.1154 57.4965 71.0398 57.4521 71.2175 56.8336C71.3952 56.2152 71.4841 55.7741 70.6869 55.1531C69.8896 54.5322 66.1158 54.7367 66.1158 54.7367L61.3966 55.4414Z" fill="#455A64"/>
<path d="M60.6018 58.9724C60.6018 58.9724 60.3007 57.871 61.2831 57.6049C62.2654 57.3387 63.9438 56.9765 64.3165 58.3293" fill="#F5F5F5"/>
<path d="M65.9356 58.0508C65.8781 57.838 65.7953 57.6329 65.6888 57.4398L65.4568 56.9617C65.4267 56.888 65.3823 56.821 65.326 56.7646C65.2007 56.6599 65.0339 56.619 64.8743 56.6537H64.9014C64.7304 56.6807 64.5826 56.7879 64.504 56.942C64.4338 57.1414 64.4286 57.358 64.4892 57.5605C64.5505 57.8286 64.633 58.0915 64.7361 58.3465C64.7845 58.4905 64.8553 58.6261 64.9459 58.7482C65.0371 58.8716 65.1722 58.9554 65.3235 58.9823C65.5475 58.9981 65.7597 58.8801 65.864 58.6816C65.9615 58.4864 65.9869 58.263 65.9356 58.0508Z" fill="#263238"/>
<path d="M65.9355 58.0509C65.9746 58.1269 65.9925 58.212 65.9874 58.2973C66.008 58.5308 65.9164 58.7603 65.7405 58.9158C65.6128 59.0255 65.4423 59.0716 65.2765 59.0414C65.0927 58.9922 64.9358 58.8727 64.8397 58.7088C64.7389 58.5388 64.6562 58.3587 64.5928 58.1716C64.5252 57.9746 64.4692 57.7739 64.425 57.5704C64.3683 57.3715 64.3683 57.1607 64.425 56.9618C64.5063 56.7712 64.6812 56.6368 64.8865 56.6069V56.7277H64.8594L64.6126 56.6932L64.8397 56.6143C64.9886 56.5714 65.1491 56.5976 65.2765 56.6858C65.3871 56.7614 65.4696 56.8714 65.511 56.9987L65.7578 57.5482C65.8465 57.7073 65.8988 57.884 65.9108 58.0657C65.896 58.0657 65.8491 57.8759 65.6936 57.5728L65.4172 57.0357C65.3825 56.9283 65.3119 56.8361 65.2173 56.7745C65.1193 56.7092 64.9985 56.6878 64.8841 56.7154L64.8668 56.602H64.9137L65.3407 56.6562L64.9137 56.7227C64.7546 56.7502 64.62 56.8558 64.5558 57.0037C64.5065 57.1785 64.5065 57.3635 64.5558 57.5383C64.5972 57.7372 64.6516 57.9331 64.7187 58.1248C64.7723 58.3038 64.8451 58.4764 64.9359 58.6398C65.0121 58.7816 65.1418 58.8871 65.2963 58.933C65.4314 58.9604 65.5717 58.9261 65.6788 58.8394C65.8381 58.7024 65.9284 58.5021 65.9257 58.2923C65.9429 58.1371 65.9257 58.0509 65.9355 58.0509Z" fill="#263238"/>
<path d="M65.4764 57.6739C65.4764 57.7084 65.3357 57.7724 65.1457 57.8143C64.9556 57.8562 64.7927 57.8661 64.7829 57.8316C64.773 57.7971 64.9236 57.733 65.1161 57.6911C65.3086 57.6492 65.469 57.6394 65.4764 57.6739ZM71.3952 56.2004C71.3952 56.2004 71.3952 56.2226 71.3581 56.2546C71.3161 56.3 71.2669 56.3383 71.2125 56.3679C71.0053 56.4642 70.7762 56.5042 70.5486 56.4837C69.9834 56.4419 69.2108 56.3507 68.3642 56.2373C67.9776 56.1667 67.5784 56.2256 67.2288 56.4049C66.9576 56.5823 66.7046 56.7862 66.4736 57.0135C66.3124 57.1676 66.1391 57.3085 65.9553 57.4349C65.8889 57.4849 65.8135 57.5217 65.7331 57.5433C65.7942 57.4894 65.8585 57.4392 65.9256 57.393C66.0981 57.2541 66.2629 57.1061 66.4193 56.9494C66.6473 56.7063 66.9014 56.489 67.177 56.3014C67.5474 56.1044 67.9731 56.0368 68.3864 56.1092L70.5609 56.3827C70.7756 56.411 70.9941 56.3874 71.1977 56.3137C71.2657 56.2798 71.3316 56.2419 71.3952 56.2004ZM58.9727 57.7749C58.8888 57.6616 58.605 57.6739 58.4791 57.7355C58.353 57.8037 58.263 57.9234 58.2323 58.0632C58.2027 58.2021 58.2027 58.3457 58.2323 58.4845C58.2899 58.7718 58.404 59.0448 58.568 59.2878C58.6705 59.4541 58.8164 59.5896 58.99 59.6796C59.1682 59.7685 59.3806 59.7544 59.5454 59.6427C59.7118 59.4939 59.7789 59.2635 59.7181 59.0488C59.6571 58.8395 59.5566 58.6438 59.4219 58.4722C59.2914 58.2274 59.1403 57.9942 58.9703 57.7749" fill="#263238"/>
<path d="M58.9728 57.7749C58.9728 57.7749 59.0419 57.8168 59.1283 57.9326C59.2147 58.0484 59.3159 58.2283 59.4517 58.4254C59.5352 58.5368 59.611 58.6537 59.6787 58.7753C59.7617 58.9214 59.8019 59.0879 59.7947 59.2558C59.7916 59.4553 59.6826 59.6382 59.5084 59.7363C59.3147 59.8225 59.0912 59.8097 58.9087 59.7018C58.7403 59.5984 58.5991 59.4565 58.4965 59.2878C58.4001 59.1372 58.3214 58.9759 58.262 58.8073C58.2086 58.6543 58.1738 58.4955 58.1583 58.3342C58.1418 58.1877 58.1684 58.0396 58.2348 57.9079C58.2908 57.7948 58.3922 57.7107 58.5138 57.6763C58.6008 57.6545 58.6911 57.6486 58.7803 57.6591C58.9309 57.6788 58.9852 57.765 58.9728 57.7675C58.9139 57.7299 58.8453 57.7102 58.7754 57.7108C58.5852 57.6861 58.4005 57.7852 58.3163 57.9572C58.2301 58.2272 58.2504 58.5198 58.3731 58.7753C58.4321 58.9338 58.5091 59.0851 58.6026 59.2262C58.6945 59.3779 58.8215 59.5055 58.9728 59.5983C59.118 59.6853 59.2962 59.6972 59.4517 59.6303C59.5875 59.5538 59.6729 59.4115 59.6763 59.2558C59.6621 58.9722 59.5565 58.7008 59.3752 58.4821C59.2443 58.2603 59.1629 58.078 59.0888 57.9597C59.0459 57.9009 59.0072 57.8391 58.9728 57.7749Z" fill="#263238"/>
<path d="M60.5006 58.4968C60.5203 58.5239 60.3377 58.6693 60.0637 58.7235C59.7897 58.7777 59.5701 58.7112 59.5701 58.6792C59.5701 58.6471 59.7873 58.6471 60.0366 58.5979C60.2858 58.5486 60.471 58.4648 60.5006 58.4968ZM64.8347 57.8315C64.8495 57.866 64.7089 57.9474 64.5262 57.9917C64.3436 58.0361 64.1733 58.0311 64.1757 57.9917C64.1782 57.9523 64.3139 57.9203 64.4941 57.871C64.6743 57.8217 64.8199 57.802 64.8347 57.8315ZM67.6435 54.7022C67.7992 54.7413 67.9415 54.8213 68.0557 54.9338C68.6707 55.4487 68.8718 56.3068 68.5494 57.0406C68.4966 57.1916 68.4046 57.326 68.2828 57.4299C68.2655 57.4299 68.3717 57.2722 68.4654 57.0061C68.7233 56.3031 68.5369 55.5143 67.9916 55.0004C67.7916 54.7958 67.6287 54.7022 67.6435 54.7022Z" fill="#263238"/>
<path d="M64.3139 58.3687C64.3016 58.3687 64.3016 58.2948 64.2621 58.1716C64.1997 58.0022 64.0932 57.8526 63.9536 57.7379C63.7425 57.5671 63.4841 57.4648 63.2131 57.4447C62.8797 57.4164 62.5441 57.428 62.2135 57.4792C61.8793 57.5187 61.549 57.5863 61.2262 57.6813C60.9673 57.7545 60.7513 57.9335 60.6314 58.1741C60.5687 58.3441 60.5459 58.5261 60.5648 58.7063C60.5722 58.7751 60.5722 58.8445 60.5648 58.9133C60.5343 58.8499 60.5158 58.7814 60.5105 58.7112C60.47 58.5212 60.4811 58.3239 60.5425 58.1396C60.6647 57.8702 60.8979 57.6671 61.1818 57.5827C61.5092 57.4765 61.8467 57.4038 62.1888 57.3659C62.5301 57.3118 62.8769 57.3027 63.2205 57.3388C63.509 57.3697 63.7807 57.4894 63.998 57.6813C64.1453 57.8111 64.2487 57.9832 64.2942 58.1741C64.3171 58.2363 64.3239 58.3032 64.3139 58.3687ZM64.4917 55.1655L64.4349 54.7293C64.4349 54.7293 63.8524 54.855 63.803 54.6431C63.7537 54.4312 64.0918 54.0985 64.8347 53.9606C65.5777 53.8226 66.2095 54.207 66.1281 54.3351C66.0112 54.469 65.85 54.5565 65.6739 54.5815L65.7554 55.0423C65.3697 55.2574 64.9117 55.3021 64.4917 55.1655Z" fill="#263238"/>
<path d="M64.9828 55.2344C64.8162 55.2339 64.6504 55.2124 64.4892 55.1704L64.4349 54.7416C64.3658 54.7564 63.8499 54.8525 63.803 54.6504C63.7904 54.5792 63.8083 54.5059 63.8524 54.4484C63.9955 54.2291 64.3658 54.0468 64.8397 53.9556C65.4617 53.8398 66.0145 54.0936 66.1256 54.2562C66.148 54.2792 66.153 54.3141 66.1379 54.3424C66.0206 54.4723 65.8602 54.5555 65.6863 54.5765L65.7677 55.0348C65.6617 55.0987 65.547 55.1468 65.4271 55.1778C65.2825 55.2178 65.1329 55.2369 64.9828 55.2344ZM64.4892 55.1605C64.791 55.2395 65.108 55.2395 65.4098 55.1605C65.527 55.1308 65.6387 55.0826 65.7406 55.0176L65.6591 54.5568C65.8311 54.5353 65.9901 54.4542 66.1083 54.3277C66.1231 54.3055 66.1083 54.2759 66.1083 54.2562C65.9997 54.096 65.4518 53.8472 64.8347 53.9605C64.3633 54.0492 63.998 54.2291 63.8475 54.4533C63.8047 54.5076 63.7868 54.5774 63.7981 54.6455C63.8425 54.8476 64.4151 54.7293 64.4201 54.7268L64.4892 55.1605Z" fill="#263238"/>
<path d="M66.0861 54.3868C65.7742 54.6314 65.3958 54.7765 65.0001 54.8033C64.6122 54.8694 64.2139 54.8397 63.8401 54.717C63.8401 54.6751 64.3609 54.754 64.9853 54.6751C65.3595 54.6089 65.7276 54.5125 66.0861 54.3868Z" fill="#455A64"/>
<path d="M62.1468 55.4414C62.1296 55.3774 62.0506 55.3626 61.9839 55.3601C61.4705 55.3601 60.624 55.5203 60.345 55.811C60.3139 55.8462 60.3055 55.8959 60.3233 55.9393C60.3411 55.9828 60.3821 56.0123 60.429 56.0155C61.0061 56.0663 61.5828 55.9128 62.058 55.5819C62.1073 55.5375 62.1592 55.4858 62.1468 55.4414Z" fill="#263238"/>
<path d="M62.1469 55.4414C62.1469 55.4414 62.1617 55.4537 62.1469 55.4858C62.1368 55.5287 62.1124 55.5669 62.0778 55.5942C61.9612 55.6885 61.8355 55.7711 61.7026 55.8406C61.5032 55.9384 61.2915 56.0088 61.0732 56.05C60.9435 56.0733 60.8124 56.0873 60.6808 56.0919C60.6141 56.0919 60.545 56.0919 60.4734 56.0919H60.4191C60.3943 56.0897 60.37 56.083 60.3475 56.0722C60.3 56.0482 60.2637 56.0067 60.2464 55.9564C60.2306 55.9028 60.2397 55.845 60.271 55.7987C60.298 55.7681 60.3278 55.7401 60.3599 55.7149C60.4175 55.6715 60.4795 55.6344 60.545 55.604C60.6634 55.5464 60.7875 55.5009 60.9152 55.4685C61.1275 55.4095 61.3448 55.3707 61.5644 55.3527C61.713 55.3391 61.8625 55.3391 62.0111 55.3527C62.0552 55.3569 62.0959 55.3781 62.1246 55.4119C62.1444 55.439 62.1395 55.4562 62.137 55.4562C62.1044 55.4185 62.0559 55.3984 62.0062 55.402C61.9074 55.402 61.7594 55.4192 61.5742 55.4463C61.3619 55.4753 61.1522 55.5214 60.9473 55.5843C60.8282 55.6187 60.7125 55.6641 60.6018 55.7199C60.5441 55.7468 60.4895 55.7799 60.4389 55.8184C60.416 55.8356 60.3946 55.8545 60.3747 55.8751C60.3684 55.8892 60.3684 55.9053 60.3747 55.9194C60.3798 55.9371 60.3924 55.9515 60.4093 55.9589C60.4182 55.961 60.4275 55.961 60.4364 55.9589H60.4858C60.5532 55.9589 60.6199 55.9589 60.6857 55.9589C60.8105 55.956 60.9349 55.9453 61.0584 55.9268C61.2679 55.892 61.4726 55.8325 61.668 55.7494C61.8 55.6928 61.9279 55.6269 62.0506 55.5523C62.097 55.5307 62.132 55.4904 62.1469 55.4414Z" fill="#263238"/>
<path d="M54.4331 104.845C54.4084 104.845 54.3886 104.655 54.2899 104.372C54.0374 103.617 53.4264 103.035 52.6584 102.82C52.3696 102.734 52.1771 102.724 52.1771 102.702C52.3407 102.666 52.5105 102.673 52.6708 102.721C53.5031 102.892 54.1651 103.521 54.3763 104.343C54.4356 104.503 54.4551 104.676 54.4331 104.845ZM48.5489 84.7632C48.5857 84.8645 48.6114 84.9694 48.6254 85.0762C48.6856 85.3641 48.7284 85.6554 48.7537 85.9485C48.7942 86.3825 48.809 86.8186 48.7982 87.2544C48.7823 87.7887 48.7304 88.3213 48.6427 88.8486C48.5476 89.3756 48.4182 89.8958 48.2552 90.4059C48.1199 90.8203 47.9592 91.226 47.7739 91.6207C47.6506 91.8882 47.513 92.149 47.3617 92.4018C47.3114 92.4969 47.2519 92.5869 47.184 92.6704C47.2164 92.5676 47.2612 92.4692 47.3172 92.3771C47.4135 92.1948 47.5418 91.9238 47.6899 91.5837C47.8625 91.1873 48.0133 90.7818 48.1416 90.369C48.2981 89.8639 48.4225 89.3496 48.5143 88.8289C48.6011 88.3071 48.6564 87.7804 48.6797 87.2519C48.6971 86.8199 48.6913 86.3873 48.6624 85.9558C48.6377 85.5862 48.6056 85.2881 48.576 85.0836C48.5559 84.978 48.5468 84.8707 48.5489 84.7632Z" fill="#263238"/>
<path opacity="0.3" d="M22.3437 93.4388C22.0968 93.6285 21.7217 93.355 21.4156 93.4388C21.1886 93.5078 21.0725 93.7542 20.9936 93.9784C20.765 94.5428 20.6959 95.159 20.7936 95.7599C20.9053 96.3691 21.3607 96.8584 21.9611 97.0141C22.117 97.0624 22.2867 97.0117 22.3906 96.886C22.4247 96.8086 22.4383 96.7237 22.4301 96.6396C22.4004 95.6195 22.3725 94.5994 22.3461 93.5792" fill="black"/>
<path d="M39.8041 65.6742C39.8152 65.7227 39.8202 65.7724 39.8189 65.8221C39.8189 65.9354 39.8189 66.0685 39.8189 66.2434C39.8189 66.6278 39.8189 67.1527 39.8189 67.7884C39.8189 68.4241 39.8189 69.2249 39.8189 70.0824C39.8268 70.5364 39.8095 70.9905 39.7671 71.4426C39.7241 71.9362 39.5849 72.4166 39.3574 72.8569C39.1119 73.3026 38.7033 73.6364 38.2171 73.7883C37.7646 73.9153 37.2842 73.9016 36.8398 73.7489C36.4389 73.6157 36.0793 73.3815 35.7958 73.0688C35.5535 72.7965 35.3673 72.4791 35.2478 72.135C35.0744 71.6412 35.0121 71.1154 35.0652 70.5949C35.0778 70.4548 35.1001 70.3156 35.1318 70.1785C35.1393 70.1295 35.1525 70.0815 35.1713 70.0356C35.1861 70.0356 35.1417 70.2376 35.1219 70.5999C35.0913 71.11 35.1669 71.621 35.3441 72.1005C35.465 72.429 35.6486 72.7311 35.8846 72.99C36.155 73.2807 36.4946 73.4985 36.8719 73.6232C37.29 73.7639 37.7411 73.7742 38.1652 73.6528C38.6157 73.5096 38.9939 73.1991 39.2216 72.7855C39.4398 72.3617 39.5739 71.8999 39.6165 71.4253C39.6603 70.9782 39.6801 70.5291 39.6758 70.0799C39.6758 69.2225 39.7004 68.4463 39.7078 67.7884C39.7153 67.1305 39.735 66.6278 39.7424 66.241C39.7424 66.0734 39.7547 65.9329 39.7597 65.8221C39.768 65.7711 39.7829 65.7214 39.8041 65.6742ZM48.5835 64.6812C48.546 64.9358 48.6098 65.1949 48.7612 65.4032C48.9117 65.5919 49.1092 65.738 49.3338 65.827C49.6103 65.9801 49.9329 66.0282 50.2421 65.9625C50.2866 65.5798 50.2716 65.1924 50.1977 64.8143C50.2039 64.7193 50.1681 64.6263 50.0997 64.5599C50.0313 64.4936 49.9372 64.4604 49.8423 64.4693C49.4124 64.4502 48.9833 64.5225 48.5835 64.6812ZM47.2803 100.947C47.2383 100.947 47.2284 97.0046 47.2556 92.1603C47.2827 87.3159 47.3346 83.3735 47.3741 83.3735C47.4136 83.3735 47.4259 87.3159 47.3987 92.1603C47.3716 97.0046 47.3198 100.947 47.2803 100.947ZM40.1373 104.845C40.1151 104.845 40.1546 104.653 40.1373 104.352C40.1129 103.966 39.9841 103.594 39.7646 103.276C39.537 102.961 39.2295 102.712 38.8736 102.556C38.5996 102.435 38.4096 102.411 38.4145 102.386C38.5829 102.368 38.7531 102.394 38.9081 102.462C39.7107 102.742 40.2436 103.504 40.2311 104.352C40.2441 104.522 40.2117 104.692 40.1373 104.845ZM30.1855 93.5648C30.2271 93.5379 30.2719 93.5164 30.3188 93.5007C30.4077 93.4613 30.541 93.4145 30.7137 93.3578C31.2078 93.2047 31.7197 93.1169 32.2366 93.0966C33.0086 93.0612 33.779 93.1932 34.495 93.4835C35.3807 93.8299 36.1441 94.43 36.6892 95.2083C36.9648 95.6163 37.1576 96.0742 37.2569 96.5561C37.3453 97.005 37.3595 97.4653 37.2989 97.9187C37.2024 98.6869 36.9185 99.4196 36.472 100.053C36.1603 100.464 35.8053 100.84 35.4132 101.176C35.275 101.294 35.1664 101.386 35.0923 101.445C35.0183 101.504 34.9763 101.536 34.9738 101.531C35.0034 101.493 35.0364 101.457 35.0726 101.425L35.3737 101.134C35.7483 100.787 36.0888 100.405 36.3906 99.9935C36.8112 99.368 37.0776 98.6519 37.1681 97.904C37.2227 97.4647 37.2061 97.0196 37.1187 96.5857C37.0204 96.1216 36.8335 95.6807 36.5683 95.2871C36.0393 94.5307 35.302 93.9436 34.4457 93.5968C33.7476 93.3087 32.9966 93.171 32.2416 93.1927C31.7306 93.2029 31.2226 93.2741 30.7285 93.4046C30.3805 93.5056 30.1905 93.5771 30.1855 93.5648ZM42.0255 95.9056C42.0036 95.8831 41.9853 95.8573 41.9712 95.8292C41.9292 95.7652 41.8823 95.6863 41.8256 95.5828C41.7021 95.3758 41.5294 95.0728 41.3171 94.6835C41.1048 94.2941 40.858 93.8235 40.5964 93.2765C40.2958 92.6734 40.0377 92.0501 39.8239 91.4112L39.9473 91.4235C39.777 91.7414 39.6017 92.0765 39.4191 92.4215L39.3549 92.5447L39.2932 92.419C38.9749 91.7534 38.91 90.995 39.1105 90.2851L39.2389 90.3492L38.3281 91.5319L38.2294 91.6601L38.2047 91.5024C37.9806 90.139 38.0141 88.7458 38.3034 87.3948C38.3856 87.0034 38.4919 86.6174 38.6218 86.2392C38.6663 86.1061 38.7082 86.0075 38.7354 85.9385C38.7464 85.9029 38.7621 85.8689 38.7823 85.8375C38.7511 85.9783 38.7123 86.1173 38.6663 86.2539C38.5898 86.5201 38.4836 86.9143 38.3898 87.412C38.1321 88.7545 38.1153 90.1319 38.3405 91.4802L38.2171 91.4482L39.1229 90.2605L39.3697 89.9549L39.2611 90.3246C39.2161 90.4859 39.1847 90.6508 39.1673 90.8174C39.1114 91.3452 39.2028 91.8782 39.4314 92.3574H39.3055L39.8411 91.3718L39.9176 91.2289L39.9645 91.3841C40.1708 92.0187 40.4182 92.6393 40.705 93.242C40.9518 93.789 41.1986 94.2646 41.3986 94.6588L41.8725 95.573C41.9331 95.6792 41.9844 95.7905 42.0255 95.9056ZM50.4741 104.845C50.4494 104.845 50.4297 104.655 50.331 104.372C50.0785 103.617 49.4674 103.035 48.6995 102.82C48.4082 102.733 48.2182 102.724 48.2182 102.701C48.3817 102.666 48.5516 102.673 48.7118 102.721C49.1186 102.806 49.4937 103.002 49.7954 103.288C50.0954 103.576 50.3106 103.941 50.4173 104.343C50.4766 104.503 50.4961 104.676 50.4741 104.845Z" fill="#263238"/>
<path opacity="0.3" d="M38.4586 86.1217C37.8724 87.0821 37.48 88.1477 37.3035 89.2584C37.1702 90.3722 37.4072 91.5672 38.1353 92.4198C38.5166 92.8266 38.9488 93.1827 39.4212 93.4793C39.8622 93.7832 40.3032 94.0871 40.7442 94.391C40.8038 93.3895 40.4669 92.4046 39.8062 91.6486L39.5027 92.4987C39.0609 91.9437 38.8948 91.2189 39.051 90.5274L38.1353 91.513C38.1278 89.7134 38.2981 87.9175 38.6437 86.1513" fill="black"/>
<path opacity="0.3" d="M35.1023 70.9002C35.1295 71.7651 35.2553 72.7211 35.7613 73.4234C36.2673 74.1256 37.1361 74.6037 37.9827 74.4805C39.0342 74.3277 39.7919 73.3174 39.9967 72.2776C40.2016 71.2378 39.9745 70.1634 39.7499 69.1285C39.8042 70.0944 39.8536 71.0998 39.5204 72.0016C39.1872 72.9035 38.3677 73.7265 37.4002 73.7265C36.7148 73.7038 36.0824 73.3524 35.7021 72.7827C35.3018 72.2408 35.0895 71.5833 35.0974 70.91" fill="black"/>
<path d="M26.5449 87.9443C26.6566 87.6913 26.8101 87.4589 26.999 87.2568C27.152 87.0258 27.3441 86.8232 27.5667 86.6581C27.4551 86.911 27.3015 87.1434 27.1126 87.3455C26.9596 87.5765 26.7675 87.7791 26.5449 87.9443ZM26.9028 88.065C26.8682 88.0404 26.9842 87.8186 27.1496 87.5722C27.315 87.3258 27.4902 87.1459 27.5223 87.1681C27.5544 87.1903 27.4409 87.4145 27.2755 87.6609C27.1101 87.9073 26.9373 88.0872 26.9028 88.065ZM27.8308 88.2129C27.7913 88.2129 27.7815 88.0059 27.8111 87.7619C27.8407 87.518 27.895 87.3258 27.9345 87.3307C27.974 87.3357 27.9839 87.5353 27.9542 87.7792C27.9246 88.0231 27.8703 88.2129 27.8308 88.2129ZM35.1564 83.0655C35.0472 82.6494 35.0312 82.2145 35.1095 81.7916C35.1884 81.9937 35.2213 82.2109 35.2058 82.4273C35.2378 82.641 35.2209 82.8592 35.1564 83.0655ZM35.6599 83.2133C35.5057 83.0339 35.4184 82.8066 35.4131 82.5702C35.3616 82.3393 35.393 82.0977 35.502 81.8877C35.5341 82.1081 35.5522 82.3303 35.5563 82.553C35.6069 82.7703 35.6415 82.991 35.6599 83.2133ZM36.4498 83.3562C36.2505 83.205 36.1031 82.9958 36.0277 82.7575C35.9088 82.5374 35.8597 82.2865 35.887 82.038C35.9963 82.2508 36.0871 82.4725 36.1585 82.7008C36.2734 82.9109 36.3708 83.1302 36.4498 83.3562ZM42.2945 75.5575C42.2796 75.592 42.0106 75.4836 41.8156 75.2027C41.6206 74.9218 41.6058 74.6335 41.6453 74.631C41.6848 74.6286 41.7564 74.8774 41.9341 75.1239C42.1118 75.3703 42.3167 75.5206 42.2945 75.5575ZM42.6844 75.4639C42.6696 75.4984 42.4623 75.4294 42.287 75.2397C42.1118 75.0499 42.06 74.838 42.0945 74.8257C42.1291 74.8134 42.2352 74.9735 42.3932 75.1411C42.5511 75.3087 42.6992 75.4269 42.6844 75.4639ZM43.4718 75.56C43.0128 75.4109 42.6607 75.0399 42.5363 74.5744C42.5734 74.5571 42.7289 74.8208 42.9831 75.0844C43.2373 75.3481 43.4915 75.523 43.4718 75.56ZM36.4202 69.7325C36.3807 69.7325 36.3264 69.5428 36.3017 69.2988C36.277 69.0549 36.2893 68.8529 36.3288 68.8504C36.3683 68.8479 36.4201 69.0401 36.4448 69.2841C36.4695 69.528 36.4596 69.7325 36.4202 69.7325ZM36.8373 69.528C36.8027 69.5403 36.6941 69.3432 36.667 69.0746C36.6398 68.806 36.7015 68.5818 36.7385 68.5941C36.7756 68.6064 36.783 68.8085 36.8101 69.0598C36.8373 69.3112 36.8768 69.5132 36.8373 69.528ZM37.2815 69.7325C37.2495 69.7522 37.0964 69.5354 37.0347 69.2249C36.9665 69.0405 36.9665 68.8377 37.0347 68.6533C37.0767 68.6533 37.0989 68.8997 37.168 69.1904C37.2371 69.4812 37.3186 69.7029 37.2815 69.7325ZM27.737 98.1726C27.7161 97.9235 27.742 97.6728 27.8136 97.4333C27.84 97.1812 27.9137 96.9363 28.0308 96.7114C28.0517 96.9604 28.0258 97.2111 27.9542 97.4506C27.9264 97.7024 27.8528 97.9471 27.737 98.1726ZM28.1887 97.7339C28.1492 97.7339 28.1517 97.5442 28.1887 97.3274C28.2257 97.1105 28.2924 96.9405 28.3319 96.9479C28.3714 96.9553 28.3689 97.1376 28.3319 97.3545C28.2949 97.5713 28.2282 97.7413 28.1887 97.7339ZM11.5358 83.0877C11.4914 83.0877 11.5358 82.5948 11.4297 81.9985C11.3235 81.4022 11.1063 80.9636 11.1434 80.9439C11.5759 81.5693 11.7188 82.35 11.5358 83.0877ZM50.2149 66.342C50.2183 66.4252 50.2083 66.5084 50.1853 66.5884C50.1415 66.8115 50.0796 67.0307 50.0002 67.2438C49.8826 67.563 49.7294 67.868 49.5435 68.1531C49.3172 68.5079 49.0166 68.8097 48.6624 69.0377C48.3016 69.2486 47.9103 69.4023 47.5023 69.4935C47.173 69.5704 46.8378 69.6198 46.5003 69.6413C46.2726 69.6547 46.0443 69.6547 45.8166 69.6413C45.7329 69.6441 45.6494 69.6325 45.5698 69.6068C45.5698 69.5847 45.9252 69.6068 46.4904 69.5354C46.823 69.4992 47.1529 69.4407 47.4777 69.3604C47.8697 69.2656 48.2456 69.1137 48.5933 68.9095C48.932 68.6928 49.2213 68.4074 49.4423 68.0717C49.6275 67.7982 49.7846 67.5068 49.9113 67.2019C50.1236 66.6845 50.1902 66.3346 50.2149 66.342ZM43.1929 66.241C42.9522 66.2497 42.7628 66.4493 42.7672 66.6897C42.7716 66.9302 42.968 67.1228 43.2089 67.1228C43.4498 67.1228 43.6463 66.9302 43.6507 66.6897C43.655 66.4493 43.4657 66.2497 43.225 66.241M41.4972 66.5588C41.4405 66.5711 41.3615 66.4948 41.3121 66.3346C41.2568 66.1248 41.2663 65.9032 41.3393 65.6989C41.406 65.4929 41.5344 65.3124 41.707 65.1814C41.8428 65.0853 41.9538 65.0705 41.9909 65.1149C42.0624 65.2159 41.865 65.4796 41.744 65.8393C41.6231 66.1991 41.6132 66.5293 41.4972 66.5588Z" fill="#263238"/>
<path d="M6.09349 77.896C6.03065 77.79 5.97934 77.6777 5.94046 77.5608C5.88365 77.4293 5.83502 77.2943 5.79484 77.1567C5.74547 76.9941 5.67883 76.8142 5.63441 76.6073C5.51419 76.122 5.43575 75.6274 5.39993 75.1288C5.30965 73.9114 5.46406 72.6883 5.85407 71.5313C6.01369 71.0605 6.21267 70.6038 6.44891 70.1662C6.53747 69.9971 6.63468 69.8326 6.74016 69.6734C6.81499 69.5494 6.89742 69.4301 6.98698 69.3161C7.0528 69.2135 7.12978 69.1185 7.21652 69.0328C7.2412 69.05 6.9228 69.464 6.5427 70.2131C6.32171 70.6508 6.13441 71.1046 5.98242 71.5707C5.80283 72.1434 5.67237 72.7304 5.59245 73.3251C5.52223 73.9212 5.50242 74.5221 5.53321 75.1214C5.56333 75.6106 5.63183 76.0967 5.73807 76.5752C5.92318 77.4007 6.12064 77.8836 6.09349 77.896ZM4.03008 76.7305C4.03008 76.7305 3.98565 76.6565 3.92888 76.5112C3.85028 76.3049 3.78676 76.0933 3.73883 75.8779C3.40772 74.4444 3.56852 72.9415 4.19545 71.6102C4.28758 71.4093 4.39484 71.2158 4.51631 71.0311C4.55527 70.9596 4.60431 70.894 4.66194 70.8365C4.68415 70.8512 4.50397 71.1445 4.28924 71.6496C4.01094 72.31 3.82971 73.0072 3.75117 73.7194C3.67797 74.4328 3.70706 75.153 3.83756 75.8582C3.94863 76.3978 4.05476 76.7231 4.03008 76.7305ZM23.2474 77.2824C23.2154 77.2824 23.2771 76.7896 23.2006 75.9789C23.1795 75.7614 23.1473 75.5451 23.1043 75.3309C23.0603 75.0817 23.0035 74.835 22.934 74.5917C22.7699 74.0409 22.5517 73.5077 22.2824 72.9999C22.0016 72.4966 21.6709 72.0227 21.2951 71.5855C21.1323 71.3948 20.9593 71.213 20.7768 71.041C20.6206 70.8864 20.4558 70.7408 20.2831 70.6048C19.6562 70.112 19.2021 69.8804 19.2169 69.8533C19.3293 69.8908 19.437 69.9412 19.5378 70.0036C19.6611 70.0647 19.7799 70.1347 19.8932 70.2131C20.0502 70.3077 20.2011 70.4122 20.3449 70.526C20.5233 70.658 20.6939 70.8004 20.8558 70.9523C21.0443 71.1246 21.2238 71.3063 21.3938 71.4968C22.1707 72.3787 22.737 73.4251 23.05 74.5572C23.1117 74.8184 23.1783 75.0648 23.2104 75.2964C23.2495 75.5148 23.2758 75.7353 23.2894 75.9567C23.3037 76.1387 23.3086 76.3213 23.3042 76.5038C23.3063 76.642 23.2997 76.7803 23.2845 76.9177C23.2857 77.0403 23.2733 77.1626 23.2474 77.2824ZM47.3074 76.3855C47.2741 76.4201 47.2368 76.4507 47.1964 76.4767C47.1198 76.5309 47.0137 76.6146 46.8631 76.7107C46.447 76.9866 46.0124 77.2336 45.5624 77.45C42.547 78.9104 39.0487 79.0083 35.9562 77.7185C35.494 77.5285 35.0453 77.3071 34.6135 77.0557C34.4605 76.967 34.3469 76.8882 34.2704 76.8389C34.2282 76.8163 34.1891 76.7881 34.1544 76.7551C34.1993 76.7709 34.2424 76.7915 34.2828 76.8167C34.3642 76.8586 34.4827 76.9325 34.6382 77.0114C35.0759 77.2447 35.5267 77.4529 35.9883 77.6348C39.0664 78.8664 42.5178 78.7709 45.5229 77.3711C45.9736 77.1639 46.412 76.931 46.836 76.6738C46.989 76.5851 47.1026 76.5062 47.1815 76.4594C47.2204 76.4299 47.2627 76.4051 47.3074 76.3855Z" fill="#263238"/>
<path d="M42.7437 78.9678C42.6569 78.7156 42.3901 78.5728 42.1316 78.6401C41.9615 78.7187 41.8022 78.8189 41.6577 78.9382C41.285 79.1649 40.8161 79.0959 40.3841 79.0048C40.3476 78.9964 40.3147 78.9765 40.2903 78.9481C40.105 78.7573 39.8551 78.6422 39.5894 78.6253C39.3277 78.6081 39.0488 78.8569 39.1204 79.1181C39.1698 79.2783 39.3401 79.4064 39.3154 79.5715C39.2978 79.6337 39.2738 79.694 39.2438 79.7514C39.1924 79.915 39.2474 80.0934 39.382 80.1998C39.5196 80.2999 39.6974 80.3266 39.8584 80.2713C39.9896 80.2152 40.1139 80.1441 40.2286 80.0594C40.7455 79.7543 41.3909 79.7677 41.8947 80.0939C41.9983 80.183 42.1205 80.2478 42.2525 80.2836C42.4348 80.3061 42.606 80.1918 42.6549 80.015C42.6796 79.9057 42.6523 79.791 42.5808 79.7046C42.5312 79.6308 42.5439 79.5319 42.6104 79.4729C42.7439 79.3415 42.795 79.1478 42.7437 78.9678Z" fill="white"/>
<path d="M42.0872 79.4803C41.4106 79.5848 40.7206 79.5656 40.0509 79.4236C40.3899 79.3902 40.7313 79.3902 41.0703 79.4236C41.4103 79.4097 41.7508 79.4287 42.0872 79.4803ZM40.937 79.2733C40.937 79.2906 40.8605 79.3078 40.7445 79.2733C40.5883 79.2133 40.4781 79.072 40.4582 78.9062C40.4476 78.7379 40.535 78.5787 40.6828 78.4971C40.7914 78.4355 40.8679 78.4454 40.8703 78.4602C40.8728 78.475 40.8111 78.5045 40.7346 78.5711C40.638 78.6501 40.5833 78.7692 40.5865 78.8938C40.6059 79.0184 40.679 79.1282 40.7864 79.1945C40.8703 79.2388 40.937 79.2536 40.937 79.2733ZM41.1813 78.4503C41.2011 78.4281 41.3442 78.5045 41.4084 78.6967C41.4346 78.779 41.4248 78.8685 41.3813 78.9431C41.3442 78.9998 41.3023 79.0146 41.2899 79.0023C41.2776 78.9899 41.3368 78.8667 41.2899 78.7238C41.243 78.5809 41.1517 78.4774 41.1813 78.4503Z" fill="#263238"/>
</svg>
