<svg xmlns="http://www.w3.org/2000/svg" xmlns:xlink="http://www.w3.org/1999/xlink" width="510" height="294" viewBox="0 0 510 294">
  <defs>
    <path id="ic-all-collect-a" d="M12,2 C6.48,2 2,6.48 2,12 C2,17.52 6.48,22 12,22 C17.52,22 22,17.52 22,12 C22,6.48 17.52,2 12,2 L12,2 Z M10,16.5 L10,7.5 L16,12 L10,16.5 L10,16.5 Z"/>
    <rect id="ic-all-collect-c" width="50" height="50" x="0" y="0"/>
    <path id="ic-all-collect-d" d="M12,2 C6.48,2 2,6.48 2,12 C2,17.52 6.48,22 12,22 C17.52,22 22,17.52 22,12 C22,6.48 17.52,2 12,2 L12,2 Z M10,16.5 L10,7.5 L16,12 L10,16.5 L10,16.5 Z"/>
    <rect id="ic-all-collect-f" width="50" height="50" x="0" y="0"/>
    <path id="ic-all-collect-g" d="M19.0909091,2.72727273 L19.0909091,2.27272727 C19.0909091,1.01818182 18.0727273,0 16.8181818,0 C15.5636364,0 14.5454545,1.01818182 14.5454545,2.27272727 L14.5454545,2.72727273 C14.0454545,2.72727273 13.6363636,3.13636364 13.6363636,3.63636364 L13.6363636,7.27272727 C13.6363636,7.77272727 14.0454545,8.18181818 14.5454545,8.18181818 L19.0909091,8.18181818 C19.5909091,8.18181818 20,7.77272727 20,7.27272727 L20,3.63636364 C20,3.13636364 19.5909091,2.72727273 19.0909091,2.72727273 L19.0909091,2.72727273 Z M18.3636364,2.72727273 L15.2727273,2.72727273 L15.2727273,2.27272727 C15.2727273,1.41818182 15.9636364,0.727272727 16.8181818,0.727272727 C17.6727273,0.727272727 18.3636364,1.41818182 18.3636364,2.27272727 L18.3636364,2.72727273 L18.3636364,2.72727273 Z M16.2909091,10 C16.3272727,10.3 16.3636364,10.6 16.3636364,10.9090909 C16.3636364,12.8 15.6363636,14.5181818 14.4545455,15.8090909 C14.2181818,15.0727273 13.5454545,14.5454545 12.7272727,14.5454545 L11.8181818,14.5454545 L11.8181818,11.8181818 C11.8181818,11.3181818 11.4090909,10.9090909 10.9090909,10.9090909 L5.45454545,10.9090909 L5.45454545,9.09090909 L7.27272727,9.09090909 C7.77272727,9.09090909 8.18181818,8.68181818 8.18181818,8.18181818 L8.18181818,6.36363636 L10,6.36363636 C11,6.36363636 11.8181818,5.54545455 11.8181818,4.54545455 L11.8181818,2.23636364 C10.9545455,1.96363636 10.0454545,1.81818182 9.09090909,1.81818182 C4.07272727,1.81818182 0,5.89090909 0,10.9090909 C0,15.9272727 4.07272727,20 9.09090909,20 C14.1090909,20 18.1818182,15.9272727 18.1818182,10.9090909 C18.1818182,10.6 18.1636364,10.3 18.1363636,10 L16.2909091,10 L16.2909091,10 Z M8.18181818,18.1181818 C4.59090909,17.6727273 1.81818182,14.6181818 1.81818182,10.9090909 C1.81818182,10.3454545 1.89090909,9.80909091 2.00909091,9.28181818 L6.36363636,13.6363636 L6.36363636,14.5454545 C6.36363636,15.5454545 7.18181818,16.3636364 8.18181818,16.3636364 L8.18181818,18.1181818 L8.18181818,18.1181818 Z"/>
    <rect id="ic-all-collect-i" width="50" height="50" x="0" y="0"/>
    <path id="ic-all-collect-j" d="M19.0909091,2.72727273 L19.0909091,2.27272727 C19.0909091,1.01818182 18.0727273,0 16.8181818,0 C15.5636364,0 14.5454545,1.01818182 14.5454545,2.27272727 L14.5454545,2.72727273 C14.0454545,2.72727273 13.6363636,3.13636364 13.6363636,3.63636364 L13.6363636,7.27272727 C13.6363636,7.77272727 14.0454545,8.18181818 14.5454545,8.18181818 L19.0909091,8.18181818 C19.5909091,8.18181818 20,7.77272727 20,7.27272727 L20,3.63636364 C20,3.13636364 19.5909091,2.72727273 19.0909091,2.72727273 L19.0909091,2.72727273 Z M18.3636364,2.72727273 L15.2727273,2.72727273 L15.2727273,2.27272727 C15.2727273,1.41818182 15.9636364,0.727272727 16.8181818,0.727272727 C17.6727273,0.727272727 18.3636364,1.41818182 18.3636364,2.27272727 L18.3636364,2.72727273 L18.3636364,2.72727273 Z M16.2909091,10 C16.3272727,10.3 16.3636364,10.6 16.3636364,10.9090909 C16.3636364,12.8 15.6363636,14.5181818 14.4545455,15.8090909 C14.2181818,15.0727273 13.5454545,14.5454545 12.7272727,14.5454545 L11.8181818,14.5454545 L11.8181818,11.8181818 C11.8181818,11.3181818 11.4090909,10.9090909 10.9090909,10.9090909 L5.45454545,10.9090909 L5.45454545,9.09090909 L7.27272727,9.09090909 C7.77272727,9.09090909 8.18181818,8.68181818 8.18181818,8.18181818 L8.18181818,6.36363636 L10,6.36363636 C11,6.36363636 11.8181818,5.54545455 11.8181818,4.54545455 L11.8181818,2.23636364 C10.9545455,1.96363636 10.0454545,1.81818182 9.09090909,1.81818182 C4.07272727,1.81818182 0,5.89090909 0,10.9090909 C0,15.9272727 4.07272727,20 9.09090909,20 C14.1090909,20 18.1818182,15.9272727 18.1818182,10.9090909 C18.1818182,10.6 18.1636364,10.3 18.1363636,10 L16.2909091,10 L16.2909091,10 Z M8.18181818,18.1181818 C4.59090909,17.6727273 1.81818182,14.6181818 1.81818182,10.9090909 C1.81818182,10.3454545 1.89090909,9.80909091 2.00909091,9.28181818 L6.36363636,13.6363636 L6.36363636,14.5454545 C6.36363636,15.5454545 7.18181818,16.3636364 8.18181818,16.3636364 L8.18181818,18.1181818 L8.18181818,18.1181818 Z"/>
    <rect id="ic-all-collect-l" width="50" height="50" x="0" y="0"/>
    <path id="ic-all-collect-m" d="M9.09090909,0.818181818 C9.22660264,0.818181818 9.36137763,0.821121176 9.49523408,0.826947661 C9.17598241,1.59372095 9,2.43539994 9,3.31818182 C9,4.03286609 9.1153429,4.72061058 9.328429,5.36381559 L8.18181818,5.36363636 L8.18181818,7.18181818 C8.18181818,7.68181818 7.77272727,8.09090909 7.27272727,8.09090909 L7.27272727,8.09090909 L5.45454545,8.09090909 L5.45454545,9.90909091 L10.9090909,9.90909091 C11.4090909,9.90909091 11.8181818,10.3181818 11.8181818,10.8181818 L11.8181818,10.8181818 L11.8181818,13.5454545 L12.7272727,13.5454545 C13.5454545,13.5454545 14.2181818,14.0727273 14.4545455,14.8090909 C15.6363636,13.5181818 16.3636364,11.8 16.3636364,9.90909091 C16.3636364,9.85959596 16.3627039,9.81033412 16.3609884,9.76126806 C16.9910882,9.67850307 17.5948167,9.50412737 18.1563192,9.2523979 C18.1723684,9.46814986 18.1818182,9.68625793 18.1818182,9.90909091 C18.1818182,14.9272727 14.1090909,19 9.09090909,19 C4.07272727,19 0,14.9272727 0,9.90909091 C0,4.89090909 4.07272727,0.818181818 9.09090909,0.818181818 Z M2.00909091,8.28181818 C1.89090909,8.80909091 1.81818182,9.34545455 1.81818182,9.90909091 C1.81818182,13.6181818 4.59090909,16.6727273 8.18181818,17.1181818 L8.18181818,17.1181818 L8.18181818,15.3636364 C7.18181818,15.3636364 6.36363636,14.5454545 6.36363636,13.5454545 L6.36363636,13.5454545 L6.36363636,12.6363636 Z"/>
    <rect id="ic-all-collect-o" width="50" height="50" x="0" y="0"/>
    <path id="ic-all-collect-p" d="M21,3 L21,2.5 C21,1.12 19.88,0 18.5,0 C17.12,0 16,1.12 16,2.5 L16,3 C15.45,3 15,3.45 15,4 L15,8 C15,8.55 15.45,9 16,9 L21,9 C21.55,9 22,8.55 22,8 L22,4 C22,3.45 21.55,3 21,3 L21,3 Z M20.2,3 L16.8,3 L16.8,2.5 C16.8,1.56 17.56,0.8 18.5,0.8 C19.44,0.8 20.2,1.56 20.2,2.5 L20.2,3 L20.2,3 Z M17.92,11 C17.96,11.33 18,11.66 18,12 C18,14.08 17.2,15.97 15.9,17.39 C15.64,16.58 14.9,16 14,16 L13,16 L13,13 C13,12.45 12.55,12 12,12 L6,12 L6,10 L8,10 C8.55,10 9,9.55 9,9 L9,7 L11,7 C12.1,7 13,6.1 13,5 L13,2.46 C12.05,2.16 11.05,2 10,2 C4.48,2 0,6.48 0,12 C0,17.52 4.48,22 10,22 C15.52,22 20,17.52 20,12 C20,11.66 19.98,11.33 19.95,11 L17.92,11 L17.92,11 Z M9,19.93 C5.05,19.44 2,16.08 2,12 C2,11.38 2.08,10.79 2.21,10.21 L7,15 L7,16 C7,17.1 7.9,18 9,18 L9,19.93 L9,19.93 Z"/>
    <rect id="ic-all-collect-r" width="50" height="50" x="0" y="0"/>
    <path id="ic-all-collect-s" d="M11,5 L9,5 L9,9 L5,9 L5,11 L9,11 L9,15 L11,15 L11,11 L15,11 L15,9 L11,9 L11,5 L11,5 Z M10,0 C4.48,0 0,4.48 0,10 C0,15.52 4.48,20 10,20 C15.52,20 20,15.52 20,10 C20,4.48 15.52,0 10,0 L10,0 Z M10,18 C5.59,18 2,14.41 2,10 C2,5.59 5.59,2 10,2 C14.41,2 18,5.59 18,10 C18,14.41 14.41,18 10,18 L10,18 Z"/>
    <rect id="ic-all-collect-u" width="50" height="50" x="0" y="0"/>
    <path id="ic-all-collect-v" d="M11,5 L9,5 L9,9 L5,9 L5,11 L9,11 L9,15 L11,15 L11,11 L15,11 L15,9 L11,9 L11,5 L11,5 Z M10,0 C4.48,0 0,4.48 0,10 C0,15.52 4.48,20 10,20 C15.52,20 20,15.52 20,10 C20,4.48 15.52,0 10,0 L10,0 Z M10,18 C5.59,18 2,14.41 2,10 C2,5.59 5.59,2 10,2 C14.41,2 18,5.59 18,10 C18,14.41 14.41,18 10,18 L10,18 Z"/>
    <rect id="ic-all-collect-x" width="50" height="50" x="0" y="0"/>
    <path id="ic-all-collect-y" d="M0,14.25 L0,18 L3.75,18 L14.81,6.94 L11.06,3.19 L0,14.25 L0,14.25 Z M17.71,4.04 C18.1,3.65 18.1,3.02 17.71,2.63 L15.37,0.29 C14.98,-0.1 14.35,-0.1 13.96,0.29 L12.13,2.12 L15.88,5.87 L17.71,4.04 L17.71,4.04 Z"/>
    <rect id="ic-all-collect-A" width="50" height="50" x="0" y="0"/>
    <path id="ic-all-collect-B" d="M0,14.25 L0,18 L3.75,18 L14.81,6.94 L11.06,3.19 L0,14.25 L0,14.25 Z M17.71,4.04 C18.1,3.65 18.1,3.02 17.71,2.63 L15.37,0.29 C14.98,-0.1 14.35,-0.1 13.96,0.29 L12.13,2.12 L15.88,5.87 L17.71,4.04 L17.71,4.04 Z"/>
    <rect id="ic-all-collect-D" width="50" height="50" x="0" y="0"/>
    <path id="ic-all-collect-E" d="M10,0 C4.47,0 0,4.47 0,10 C0,15.53 4.47,20 10,20 C15.53,20 20,15.53 20,10 C20,4.47 15.53,0 10,0 L10,0 Z M15,13.59 L13.59,15 L10,11.41 L6.41,15 L5,13.59 L8.59,10 L5,6.41 L6.41,5 L10,8.59 L13.59,5 L15,6.41 L11.41,10 L15,13.59 L15,13.59 Z"/>
    <rect id="ic-all-collect-G" width="50" height="50" x="0" y="0"/>
    <path id="ic-all-collect-H" d="M10,0 C4.47,0 0,4.47 0,10 C0,15.53 4.47,20 10,20 C15.53,20 20,15.53 20,10 C20,4.47 15.53,0 10,0 L10,0 Z M15,13.59 L13.59,15 L10,11.41 L6.41,15 L5,13.59 L8.59,10 L5,6.41 L6.41,5 L10,8.59 L13.59,5 L15,6.41 L11.41,10 L15,13.59 L15,13.59 Z"/>
    <rect id="ic-all-collect-J" width="50" height="50" x="0" y="0"/>
    <path id="ic-all-collect-K" d="M1,16 C1,17.1 1.9,18 3,18 L11,18 C12.1,18 13,17.1 13,16 L13,4 L1,4 L1,16 L1,16 Z M14,1 L10.5,1 L9.5,0 L4.5,0 L3.5,1 L0,1 L0,3 L14,3 L14,1 L14,1 Z"/>
    <rect id="ic-all-collect-M" width="50" height="50" x="0" y="0"/>
    <path id="ic-all-collect-N" d="M1,16 C1,17.1 1.9,18 3,18 L11,18 C12.1,18 13,17.1 13,16 L13,4 L1,4 L1,16 L1,16 Z M14,1 L10.5,1 L9.5,0 L4.5,0 L3.5,1 L0,1 L0,3 L14,3 L14,1 L14,1 Z"/>
    <rect id="ic-all-collect-P" width="50" height="50" x="0" y="0"/>
    <path id="ic-all-collect-Q" d="M11,0.5 C6,0.5 1.73,3.61 0,8 C1.73,12.39 6,15.5 11,15.5 C16,15.5 20.27,12.39 22,8 C20.27,3.61 16,0.5 11,0.5 L11,0.5 Z M11,13 C8.24,13 6,10.76 6,8 C6,5.24 8.24,3 11,3 C13.76,3 16,5.24 16,8 C16,10.76 13.76,13 11,13 L11,13 Z M11,5 C9.34,5 8,6.34 8,8 C8,9.66 9.34,11 11,11 C12.66,11 14,9.66 14,8 C14,6.34 12.66,5 11,5 L11,5 Z"/>
    <rect id="ic-all-collect-S" width="50" height="50" x="0" y="0"/>
    <path id="ic-all-collect-T" d="M11,0.5 C6,0.5 1.73,3.61 0,8 C1.73,12.39 6,15.5 11,15.5 C16,15.5 20.27,12.39 22,8 C20.27,3.61 16,0.5 11,0.5 L11,0.5 Z M11,13 C8.24,13 6,10.76 6,8 C6,5.24 8.24,3 11,3 C13.76,3 16,5.24 16,8 C16,10.76 13.76,13 11,13 L11,13 Z M11,5 C9.34,5 8,6.34 8,8 C8,9.66 9.34,11 11,11 C12.66,11 14,9.66 14,8 C14,6.34 12.66,5 11,5 L11,5 Z"/>
    <rect id="ic-all-collect-V" width="50" height="50" x="0" y="0"/>
    <path id="ic-all-collect-W" d="M11,4 C13.76,4 16,6.24 16,9 C16,9.65 15.87,10.26 15.64,10.83 L18.56,13.75 C20.07,12.49 21.26,10.86 21.99,9 C20.26,4.61 15.99,1.5 10.99,1.5 C9.59,1.5 8.25,1.75 7.01,2.2 L9.17,4.36 C9.74,4.13 10.35,4 11,4 L11,4 Z M1,1.27 L3.28,3.55 L3.74,4.01 C2.08,5.3 0.78,7.02 0,9 C1.73,13.39 6,16.5 11,16.5 C12.55,16.5 14.03,16.2 15.38,15.66 L15.8,16.08 L18.73,19 L20,17.73 L2.27,0 L1,1.27 L1,1.27 Z M6.53,6.8 L8.08,8.35 C8.03,8.56 8,8.78 8,9 C8,10.66 9.34,12 11,12 C11.22,12 11.44,11.97 11.65,11.92 L13.2,13.47 C12.53,13.8 11.79,14 11,14 C8.24,14 6,11.76 6,9 C6,8.21 6.2,7.47 6.53,6.8 L6.53,6.8 Z M10.84,6.02 L13.99,9.17 L14.01,9.01 C14.01,7.35 12.67,6.01 11.01,6.01 L10.84,6.02 L10.84,6.02 Z"/>
    <rect id="ic-all-collect-Y" width="50" height="50" x="0" y="0"/>
    <path id="ic-all-collect-Z" d="M11,4 C13.76,4 16,6.24 16,9 C16,9.65 15.87,10.26 15.64,10.83 L18.56,13.75 C20.07,12.49 21.26,10.86 21.99,9 C20.26,4.61 15.99,1.5 10.99,1.5 C9.59,1.5 8.25,1.75 7.01,2.2 L9.17,4.36 C9.74,4.13 10.35,4 11,4 L11,4 Z M1,1.27 L3.28,3.55 L3.74,4.01 C2.08,5.3 0.78,7.02 0,9 C1.73,13.39 6,16.5 11,16.5 C12.55,16.5 14.03,16.2 15.38,15.66 L15.8,16.08 L18.73,19 L20,17.73 L2.27,0 L1,1.27 L1,1.27 Z M6.53,6.8 L8.08,8.35 C8.03,8.56 8,8.78 8,9 C8,10.66 9.34,12 11,12 C11.22,12 11.44,11.97 11.65,11.92 L13.2,13.47 C12.53,13.8 11.79,14 11,14 C8.24,14 6,11.76 6,9 C6,8.21 6.2,7.47 6.53,6.8 L6.53,6.8 Z M10.84,6.02 L13.99,9.17 L14.01,9.01 C14.01,7.35 12.67,6.01 11.01,6.01 L10.84,6.02 L10.84,6.02 Z"/>
    <rect id="ic-all-collect-ab" width="50" height="50" x="0" y="0"/>
    <path id="ic-all-collect-ac" d="M9,16 L11,16 L11,14 L9,14 L9,16 L9,16 Z M10,0 C4.48,0 0,4.48 0,10 C0,15.52 4.48,20 10,20 C15.52,20 20,15.52 20,10 C20,4.48 15.52,0 10,0 L10,0 Z M10,18 C5.59,18 2,14.41 2,10 C2,5.59 5.59,2 10,2 C14.41,2 18,5.59 18,10 C18,14.41 14.41,18 10,18 L10,18 Z M10,4 C7.79,4 6,5.79 6,8 L8,8 C8,6.9 8.9,6 10,6 C11.1,6 12,6.9 12,8 C12,10 9,9.75 9,13 L11,13 C11,10.75 14,10.5 14,8 C14,5.79 12.21,4 10,4 L10,4 Z"/>
    <rect id="ic-all-collect-ae" width="50" height="50" x="0" y="0"/>
    <path id="ic-all-collect-af" d="M9,16 L11,16 L11,14 L9,14 L9,16 L9,16 Z M10,0 C4.48,0 0,4.48 0,10 C0,15.52 4.48,20 10,20 C15.52,20 20,15.52 20,10 C20,4.48 15.52,0 10,0 L10,0 Z M10,18 C5.59,18 2,14.41 2,10 C2,5.59 5.59,2 10,2 C14.41,2 18,5.59 18,10 C18,14.41 14.41,18 10,18 L10,18 Z M10,4 C7.79,4 6,5.79 6,8 L8,8 C8,6.9 8.9,6 10,6 C11.1,6 12,6.9 12,8 C12,10 9,9.75 9,13 L11,13 C11,10.75 14,10.5 14,8 C14,5.79 12.21,4 10,4 L10,4 Z"/>
    <rect id="ic-all-collect-ah" width="50" height="50" x="0" y="0"/>
    <path id="ic-all-collect-ai" d="M2,0 C0.9,0 0.01,0.9 0.01,2 L0,18 C0,19.1 0.89,20 1.99,20 L14,20 C15.1,20 16,19.1 16,18 L16,6 L10,0 L2,0 L2,0 Z M9,7 L9,1.5 L14.5,7 L9,7 L9,7 Z"/>
    <rect id="ic-all-collect-ak" width="50" height="50" x="0" y="0"/>
    <path id="ic-all-collect-al" d="M16,16 L2,16 L2,2 L9,2 L9,0 L2,0 C0.89,0 0,0.9 0,2 L0,16 C0,17.1 0.89,18 2,18 L16,18 C17.1,18 18,17.1 18,16 L18,9 L16,9 L16,16 L16,16 Z M11,0 L11,2 L14.59,2 L4.76,11.83 L6.17,13.24 L16,3.41 L16,7 L18,7 L18,0 L11,0 L11,0 Z"/>
    <rect id="ic-all-collect-an" width="50" height="50" x="0" y="0"/>
    <path id="ic-all-collect-ao" d="M23.2385632,4.03349797 C23.6588763,4.03349797 24,4.36927428 24,4.78033139 L24,4.78033139 L24,14.2525691 C24,14.6648212 23.6588763,14.9994025 23.2385632,14.9994025 L23.2385632,14.9994025 L16.7133546,14.9994025 C16.2930415,14.9994025 15.9519178,14.6648212 15.9519178,14.2525691 L15.9519178,14.2525691 L15.9519178,4.78033139 C15.9519178,4.36927428 16.2930415,4.03349797 16.7133546,4.03349797 L16.7133546,4.03349797 Z M21.292209,-1.77635684e-15 C21.7125221,-1.77635684e-15 22.0536458,0.334581375 22.0536458,0.746833426 C22.0536458,1.15908548 21.7125221,1.49366685 21.292209,1.49366685 L21.292209,1.49366685 L5.11076367,1.49366685 C4.33227071,1.49366685 3.69753701,2.11503226 3.69753701,2.87978969 L3.69753701,2.87978969 L3.69753701,12.4392575 L13.3537737,12.4392575 L13.3537737,15 L1.30479807,15 C0.584783447,15 -8.52651283e-14,14.425237 -8.52651283e-14,13.7190313 C-8.52651283e-14,13.0128256 0.584783447,12.4392575 1.30479807,12.4392575 L1.30479807,12.4392575 L2.17466344,12.4392575 L2.17466344,1.81271409 C2.17466344,0.813749701 3.00432496,-1.77635684e-15 4.0240411,-1.77635684e-15 L4.0240411,-1.77635684e-15 Z M22.4759081,5.52716482 L17.4747914,5.52716482 L17.4747914,13.6156457 L22.4759081,13.6156457 L22.4759081,5.52716482 Z"/>
    <rect id="ic-all-collect-aq" width="50" height="50" x="0" y="0"/>
    <path id="ic-all-collect-ar" d="M281,218 L279,218 L279,227 L266,227 L266,229 C266,229.55 266.45,230 267,230 L278,230 L282,234 L282,219 C282,218.45 281.55,218 281,218 L281,218 Z M277,224 L277,215 C277,214.45 276.55,214 276,214 L263,214 C262.45,214 262,214.45 262,215 L262,229 L266,225 L276,225 C276.55,225 277,224.55 277,224 L277,224 Z"/>
    <path id="ic-all-collect-as" d="M10,0 C4.48,0 0,4.48 0,10 C0,15.52 4.48,20 10,20 C15.52,20 20,15.52 20,10 C20,4.48 15.52,0 10,0 L10,0 Z M11,15 L9,15 L9,13 L11,13 L11,15 L11,15 Z M11,11 L9,11 L9,5 L11,5 L11,11 L11,11 Z"/>
    <rect id="ic-all-collect-au" width="50" height="50" x="0" y="0"/>
    <path id="ic-all-collect-av" d="M13.3333333,4 L8,4 L6.66666667,2.66666667 L2.66666667,2.66666667 C1.92666667,2.66666667 1.34,3.26 1.34,4 L1.33333333,12 C1.33333333,12.74 1.92666667,13.3333333 2.66666667,13.3333333 L13.3333333,13.3333333 C14.0733333,13.3333333 14.6666667,12.74 14.6666667,12 L14.6666667,5.33333333 C14.6666667,4.59333333 14.0733333,4 13.3333333,4 L13.3333333,4 Z M12.6666667,9.33333333 L10.6666667,9.33333333 L10.6666667,11.3333333 L9.33333333,11.3333333 L9.33333333,9.33333333 L7.33333333,9.33333333 L7.33333333,8 L9.33333333,8 L9.33333333,6 L10.6666667,6 L10.6666667,8 L12.6666667,8 L12.6666667,9.33333333 L12.6666667,9.33333333 Z"/>
    <rect id="ic-all-collect-ax" width="33.333" height="33.333" x="0" y="0"/>
    <path id="ic-all-collect-ay" d="M14.6666667,2.66666667 L14.6666667,2.33333333 C14.6666667,1.41333333 13.92,0.666666667 13,0.666666667 C12.08,0.666666667 11.3333333,1.41333333 11.3333333,2.33333333 L11.3333333,2.66666667 C10.9666667,2.66666667 10.6666667,2.96666667 10.6666667,3.33333333 L10.6666667,6 C10.6666667,6.36666667 10.9666667,6.66666667 11.3333333,6.66666667 L14.6666667,6.66666667 C15.0333333,6.66666667 15.3333333,6.36666667 15.3333333,6 L15.3333333,3.33333333 C15.3333333,2.96666667 15.0333333,2.66666667 14.6666667,2.66666667 L14.6666667,2.66666667 Z M14.1333333,2.66666667 L11.8666667,2.66666667 L11.8666667,2.33333333 C11.8666667,1.70666667 12.3733333,1.2 13,1.2 C13.6266667,1.2 14.1333333,1.70666667 14.1333333,2.33333333 L14.1333333,2.66666667 L14.1333333,2.66666667 Z M12.6133333,8 C12.64,8.22 12.6666667,8.44 12.6666667,8.66666667 C12.6666667,10.0533333 12.1333333,11.3133333 11.2666667,12.26 C11.0933333,11.72 10.6,11.3333333 10,11.3333333 L9.33333333,11.3333333 L9.33333333,9.33333333 C9.33333333,8.96666667 9.03333333,8.66666667 8.66666667,8.66666667 L4.66666667,8.66666667 L4.66666667,7.33333333 L6,7.33333333 C6.36666667,7.33333333 6.66666667,7.03333333 6.66666667,6.66666667 L6.66666667,5.33333333 L8,5.33333333 C8.73333333,5.33333333 9.33333333,4.73333333 9.33333333,4 L9.33333333,2.30666667 C8.7,2.10666667 8.03333333,2 7.33333333,2 C3.65333333,2 0.666666667,4.98666667 0.666666667,8.66666667 C0.666666667,12.3466667 3.65333333,15.3333333 7.33333333,15.3333333 C11.0133333,15.3333333 14,12.3466667 14,8.66666667 C14,8.44 13.9866667,8.22 13.9666667,8 L12.6133333,8 L12.6133333,8 Z M6.66666667,13.9533333 C4.03333333,13.6266667 2,11.3866667 2,8.66666667 C2,8.25333333 2.05333333,7.86 2.14,7.47333333 L5.33333333,10.6666667 L5.33333333,11.3333333 C5.33333333,12.0666667 5.93333333,12.6666667 6.66666667,12.6666667 L6.66666667,13.9533333 L6.66666667,13.9533333 Z"/>
    <rect id="ic-all-collect-aA" width="33.333" height="33.333" x="0" y="0"/>
    <path id="ic-all-collect-aB" d="M8.43333333,6.66666667 C7.88666667,5.11333333 6.40666667,4 4.66666667,4 C2.46,4 0.666666667,5.79333333 0.666666667,8 C0.666666667,10.2066667 2.46,12 4.66666667,12 C6.40666667,12 7.88666667,10.8866667 8.43333333,9.33333333 L11.3333333,9.33333333 L11.3333333,12 L14,12 L14,9.33333333 L15.3333333,9.33333333 L15.3333333,6.66666667 L8.43333333,6.66666667 L8.43333333,6.66666667 Z M4.66666667,9.33333333 C3.93333333,9.33333333 3.33333333,8.73333333 3.33333333,8 C3.33333333,7.26666667 3.93333333,6.66666667 4.66666667,6.66666667 C5.4,6.66666667 6,7.26666667 6,8 C6,8.73333333 5.4,9.33333333 4.66666667,9.33333333 L4.66666667,9.33333333 Z"/>
    <rect id="ic-all-collect-aD" width="33.333" height="33.333" x="0" y="0"/>
    <path id="ic-all-collect-aE" d="M14,4 L12.6666667,4 L12.6666667,10 L4,10 L4,11.3333333 C4,11.7 4.3,12 4.66666667,12 L12,12 L14.6666667,14.6666667 L14.6666667,4.66666667 C14.6666667,4.3 14.3666667,4 14,4 L14,4 Z M11.3333333,8 L11.3333333,2 C11.3333333,1.63333333 11.0333333,1.33333333 10.6666667,1.33333333 L2,1.33333333 C1.63333333,1.33333333 1.33333333,1.63333333 1.33333333,2 L1.33333333,11.3333333 L4,8.66666667 L10.6666667,8.66666667 C11.0333333,8.66666667 11.3333333,8.36666667 11.3333333,8 L11.3333333,8 Z"/>
    <rect id="ic-all-collect-aG" width="33.333" height="33.333" x="0" y="0"/>
    <path id="ic-all-collect-aH" d="M12,2 C6.48,2 2,6.48 2,12 C2,17.52 6.48,22 12,22 C17.52,22 22,17.52 22,12 C22,6.48 17.52,2 12,2 L12,2 Z M11,16 L9,16 L9,8 L11,8 L11,16 L11,16 Z M15,16 L13,16 L13,8 L15,8 L15,16 L15,16 Z"/>
    <rect id="ic-all-collect-aJ" width="50" height="50" x="0" y="0"/>
    <path id="ic-all-collect-aK" d="M4.5,0 C2.016,0 0,2.016 0,4.5 C0,6.984 2.016,9 4.5,9 C6.984,9 9,6.984 9,4.5 C9,2.016 6.984,0 4.5,0 L4.5,0 Z M4.05,6.3 L3.15,6.3 L3.15,2.7 L4.05,2.7 L4.05,6.3 L4.05,6.3 Z M5.85,6.3 L4.95,6.3 L4.95,2.7 L5.85,2.7 L5.85,6.3 L5.85,6.3 Z"/>
    <rect id="ic-all-collect-aM" width="22.5" height="22.5" x="0" y="0"/>
    <path id="ic-all-collect-aN" d="M9.09090909,0.818181818 C9.22660264,0.818181818 9.36137763,0.821121176 9.49523408,0.826947661 C9.17598241,1.59372095 9,2.43539994 9,3.31818182 C9,4.03286609 9.1153429,4.72061058 9.328429,5.36381559 L8.18181818,5.36363636 L8.18181818,7.18181818 C8.18181818,7.68181818 7.77272727,8.09090909 7.27272727,8.09090909 L7.27272727,8.09090909 L5.45454545,8.09090909 L5.45454545,9.90909091 L10.9090909,9.90909091 C11.4090909,9.90909091 11.8181818,10.3181818 11.8181818,10.8181818 L11.8181818,10.8181818 L11.8181818,13.5454545 L12.7272727,13.5454545 C13.5454545,13.5454545 14.2181818,14.0727273 14.4545455,14.8090909 C15.6363636,13.5181818 16.3636364,11.8 16.3636364,9.90909091 C16.3636364,9.85959596 16.3627039,9.81033412 16.3609884,9.76126806 C16.9910882,9.67850307 17.5948167,9.50412737 18.1563192,9.2523979 C18.1723684,9.46814986 18.1818182,9.68625793 18.1818182,9.90909091 C18.1818182,14.9272727 14.1090909,19 9.09090909,19 C4.07272727,19 0,14.9272727 0,9.90909091 C0,4.89090909 4.07272727,0.818181818 9.09090909,0.818181818 Z M2.00909091,8.28181818 C1.89090909,8.80909091 1.81818182,9.34545455 1.81818182,9.90909091 C1.81818182,13.6181818 4.59090909,16.6727273 8.18181818,17.1181818 L8.18181818,17.1181818 L8.18181818,15.3636364 C7.18181818,15.3636364 6.36363636,14.5454545 6.36363636,13.5454545 L6.36363636,13.5454545 L6.36363636,12.6363636 Z"/>
    <rect id="ic-all-collect-aP" width="50" height="50" x="0" y="0"/>
    <path id="ic-all-collect-aQ" d="M4.5,0 C2.016,0 0,2.016 0,4.5 C0,6.984 2.016,9 4.5,9 C6.984,9 9,6.984 9,4.5 C9,2.016 6.984,0 4.5,0 L4.5,0 Z M4.05,6.3 L3.15,6.3 L3.15,2.7 L4.05,2.7 L4.05,6.3 L4.05,6.3 Z M5.85,6.3 L4.95,6.3 L4.95,2.7 L5.85,2.7 L5.85,6.3 L5.85,6.3 Z"/>
    <rect id="ic-all-collect-aS" width="22.5" height="22.5" x="0" y="0"/>
    <path id="ic-all-collect-aT" d="M9.09090909,0.818181818 C9.22660264,0.818181818 9.36137763,0.821121176 9.49523408,0.826947661 C9.17598241,1.59372095 9,2.43539994 9,3.31818182 C9,4.03286609 9.1153429,4.72061058 9.328429,5.36381559 L8.18181818,5.36363636 L8.18181818,7.18181818 C8.18181818,7.68181818 7.77272727,8.09090909 7.27272727,8.09090909 L7.27272727,8.09090909 L5.45454545,8.09090909 L5.45454545,9.90909091 L10.9090909,9.90909091 C11.4090909,9.90909091 11.8181818,10.3181818 11.8181818,10.8181818 L11.8181818,10.8181818 L11.8181818,13.5454545 L12.7272727,13.5454545 C13.5454545,13.5454545 14.2181818,14.0727273 14.4545455,14.8090909 C15.6363636,13.5181818 16.3636364,11.8 16.3636364,9.90909091 C16.3636364,9.85959596 16.3627039,9.81033412 16.3609884,9.76126806 C16.9910882,9.67850307 17.5948167,9.50412737 18.1563192,9.2523979 C18.1723684,9.46814986 18.1818182,9.68625793 18.1818182,9.90909091 C18.1818182,14.9272727 14.1090909,19 9.09090909,19 C4.07272727,19 0,14.9272727 0,9.90909091 C0,4.89090909 4.07272727,0.818181818 9.09090909,0.818181818 Z M2.00909091,8.28181818 C1.89090909,8.80909091 1.81818182,9.34545455 1.81818182,9.90909091 C1.81818182,13.6181818 4.59090909,16.6727273 8.18181818,17.1181818 L8.18181818,17.1181818 L8.18181818,15.3636364 C7.18181818,15.3636364 6.36363636,14.5454545 6.36363636,13.5454545 L6.36363636,13.5454545 L6.36363636,12.6363636 Z"/>
    <rect id="ic-all-collect-aV" width="50" height="50" x="0" y="0"/>
    <path id="ic-all-collect-aW" d="M4.5,0 C2.016,0 0,2.016 0,4.5 C0,6.984 2.016,9 4.5,9 C6.984,9 9,6.984 9,4.5 C9,2.016 6.984,0 4.5,0 L4.5,0 Z M4.05,6.3 L3.15,6.3 L3.15,2.7 L4.05,2.7 L4.05,6.3 L4.05,6.3 Z M5.85,6.3 L4.95,6.3 L4.95,2.7 L5.85,2.7 L5.85,6.3 L5.85,6.3 Z"/>
    <rect id="ic-all-collect-aY" width="22.5" height="22.5" x="0" y="0"/>
  </defs>
  <g fill="none" fill-rule="evenodd" transform="translate(-98 -49)">
    <g transform="translate(476 103)">
      <mask id="ic-all-collect-b" fill="#fff">
        <use xlink:href="#ic-all-collect-a"/>
      </mask>
      <g mask="url(#ic-all-collect-b)">
        <use fill="#006EFF" transform="translate(-13 -13)" xlink:href="#ic-all-collect-c"/>
      </g>
    </g>
    <g transform="translate(476 49)">
      <mask id="ic-all-collect-e" fill="#fff">
        <use xlink:href="#ic-all-collect-d"/>
      </mask>
      <g mask="url(#ic-all-collect-e)">
        <use fill="#006EFF" fill-opacity=".6" transform="translate(-13 -13)" xlink:href="#ic-all-collect-f"/>
      </g>
    </g>
    <path fill="#5E6470" fill-opacity=".6" d="M600.980872,60.9625355 C601.906425,60.9625355 602.770946,61.2167713 603.51529,61.6519778 C603.9551,61.9087184 604.350867,62.2299572 604.691893,62.6031703 C605.501674,63.4898645 606,64.6646091 606,65.958331 C606,68.7167265 603.752498,70.9528742 600.980872,70.9528742 C600.157879,70.9528742 599.383963,70.7524913 598.698135,70.4030736 L598.698135,70.4030736 L596.370095,70.9879412 C596.086326,71.0587014 595.827096,70.8069704 595.892533,70.5226772 L595.892533,70.5226772 L596.05172,69.8357396 L596.187627,69.2489935 L596.364433,68.4831552 L596.388971,68.377328 L596.45315,68.1024278 C596.141067,67.4518096 595.961745,66.7266741 595.961745,65.958331 C595.961745,65.4799169 596.032844,65.0190363 596.159313,64.5806988 C596.237334,64.3095557 596.339265,64.0484318 596.4607,63.7979532 C597.11381,62.445995 598.358367,61.4328091 599.862784,61.091532 C600.119498,61.0332957 600.382503,60.9969763 600.651801,60.9794428 C600.761282,60.9725547 600.869504,60.9625355 600.980872,60.9625355 Z M595.477638,51 C600.703773,51 604.955276,55.2312096 604.955276,60.4323976 C604.955276,60.6265185 604.937659,60.8156298 604.925704,61.0072459 C604.722473,60.8463135 604.508545,60.7010359 604.286437,60.5651512 C604.067475,60.4317714 603.840963,60.3109155 603.606272,60.2038359 C603.603755,60.2025835 603.600609,60.2019573 603.598092,60.2007049 L603.598092,60.2007049 L603.598092,60.0410248 C603.547127,58.9840051 603.294189,57.9802122 602.872625,57.0665915 L602.872625,57.0665915 L600.293534,57.0665915 C600.480407,57.8718802 600.601213,58.7385361 600.645257,59.6490258 C600.379735,59.6628021 600.117988,59.6903547 599.861903,59.7360671 C599.817859,58.7905104 599.685098,57.8925447 599.480608,57.0665915 L599.480608,57.0665915 L595.870888,57.0665915 L595.870888,60.0410248 L598.752624,60.0410248 C598.225354,60.2382767 597.732062,60.5012792 597.281554,60.8237704 L597.281554,60.8237704 L595.870888,60.8237704 L595.870888,62.2114218 C595.553142,62.6397402 595.286991,63.1068827 595.084388,63.6072137 L595.084388,63.6072137 L595.084388,60.8237704 L591.085194,60.8237704 C591.112878,61.88079 591.248156,62.8839568 591.475298,63.7982037 L591.475298,63.7982037 L595.013918,63.7982037 C594.920796,64.0524394 594.840888,64.312311 594.781114,64.5809493 L594.781114,64.5809493 L591.699293,64.5809493 C592.388896,66.7106435 593.589409,68.2147674 594.98875,68.5015654 L594.98875,68.5015654 L594.986862,68.5084536 L594.812574,69.2598894 L594.68233,69.8247186 C589.828052,69.4201957 586,65.3661996 586,60.4323976 C586,55.2312096 590.251504,51 595.477638,51 Z M603.529761,64.1724187 C603.300103,64.1004061 603.040244,64.1473708 602.857776,64.3283416 L602.857776,64.3283416 L602.603579,64.5806988 L602.229205,64.9532857 L600.21199,66.9583668 L599.456321,66.2044263 L599.025319,65.7748555 C598.972466,65.7216288 598.908917,65.6865618 598.845368,65.6552519 C598.595575,65.5331436 598.288526,65.5675844 598.080261,65.7742293 C597.818514,66.0334746 597.818514,66.4549048 598.079002,66.7154026 L598.079002,66.7154026 L598.186596,66.8224822 L598.752246,67.386059 L599.061813,67.6954001 L599.518612,68.1506449 C599.709889,68.3403824 599.960939,68.4361905 600.21199,68.4361905 C600.351043,68.4361905 600.489467,68.4036283 600.618453,68.3447658 C600.709058,68.304063 600.794,68.2483316 600.871392,68.1788238 C600.882088,68.1688046 600.894043,68.1612903 600.904739,68.1512711 L600.904739,68.1512711 L603.234037,65.8355965 L603.802834,65.2701411 C603.982785,65.0910489 604.029975,64.8368131 603.962021,64.6095038 C603.931191,64.5074338 603.88463,64.4097471 603.803463,64.3289678 C603.724184,64.250067 603.629804,64.2037285 603.529761,64.1724187 Z M590.869378,64.5809493 L588.498553,64.5809493 C589.467521,66.1890218 590.9776,67.4339004 592.780258,68.0669851 C591.967332,67.2322652 591.306043,66.0318465 590.869378,64.5809493 L590.869378,64.5809493 Z M590.299323,60.8237704 L587.357184,60.8237704 C587.408149,61.88079 587.661088,62.884583 588.082652,63.7982037 L588.082652,63.7982037 L590.661742,63.7982037 C590.448443,62.8776948 590.324491,61.8770329 590.299323,60.8237704 L590.299323,60.8237704 Z M595.084388,57.0665915 L591.475298,57.0665915 C591.248156,57.9808384 591.112878,58.9840051 591.085194,60.0410248 L591.085194,60.0410248 L595.084388,60.0410248 L595.084388,57.0665915 Z M590.661742,57.0665915 L588.082652,57.0665915 C587.661088,57.9802122 587.408149,58.9840051 587.357184,60.0410248 L587.357184,60.0410248 L590.299323,60.0410248 C590.324491,58.9877623 590.448443,57.9871003 590.661742,57.0665915 L590.661742,57.0665915 Z M595.084388,52.351332 C595.063625,52.3519582 595.042861,52.3532106 595.021468,52.3538368 C593.607656,52.6231013 592.394559,54.1366182 591.699293,56.2838459 L591.699293,56.2838459 L595.084388,56.2838459 Z M592.780258,52.7978101 C590.9776,53.4308947 589.467521,54.6757733 588.498553,56.2838459 L588.498553,56.2838459 L590.869378,56.2838459 C591.306043,54.8329487 591.967332,53.63253 592.780258,52.7978101 Z M595.870888,52.351332 L595.870888,56.2838459 L599.256613,56.2838459 C598.560718,54.1366182 597.34762,52.6231013 595.933808,52.3538368 C595.912415,52.3532106 595.891652,52.3519582 595.870888,52.351332 L595.870888,52.351332 Z M598.175647,52.7984363 C598.987945,53.63253 599.649863,54.8329487 600.085898,56.2838459 L600.085898,56.2838459 L602.456724,56.2838459 C601.487756,54.6757733 599.977676,53.4308947 598.175647,52.7984363 Z"/>
    <path fill="#006EFF" d="M600.980872,114.962536 C601.906425,114.962536 602.770946,115.216771 603.51529,115.651978 C603.9551,115.908718 604.350867,116.229957 604.691893,116.60317 C605.501674,117.489865 606,118.664609 606,119.958331 C606,122.716727 603.752498,124.952874 600.980872,124.952874 C600.157879,124.952874 599.383963,124.752491 598.698135,124.403074 L598.698135,124.403074 L596.370095,124.987941 C596.086326,125.058701 595.827096,124.80697 595.892533,124.522677 L595.892533,124.522677 L596.05172,123.83574 L596.187627,123.248994 L596.364433,122.483155 L596.388971,122.377328 L596.45315,122.102428 C596.141067,121.45181 595.961745,120.726674 595.961745,119.958331 C595.961745,119.479917 596.032844,119.019036 596.159313,118.580699 C596.237334,118.309556 596.339265,118.048432 596.4607,117.797953 C597.11381,116.445995 598.358367,115.432809 599.862784,115.091532 C600.119498,115.033296 600.382503,114.996976 600.651801,114.979443 C600.761282,114.972555 600.869504,114.962536 600.980872,114.962536 Z M595.477638,105 C600.703773,105 604.955276,109.23121 604.955276,114.432398 C604.955276,114.626518 604.937659,114.81563 604.925704,115.007246 C604.722473,114.846313 604.508545,114.701036 604.286437,114.565151 C604.067475,114.431771 603.840963,114.310915 603.606272,114.203836 C603.603755,114.202583 603.600609,114.201957 603.598092,114.200705 L603.598092,114.200705 L603.598092,114.041025 C603.547127,112.984005 603.294189,111.980212 602.872625,111.066591 L602.872625,111.066591 L600.293534,111.066591 C600.480407,111.87188 600.601213,112.738536 600.645257,113.649026 C600.379735,113.662802 600.117988,113.690355 599.861903,113.736067 C599.817859,112.79051 599.685098,111.892545 599.480608,111.066591 L599.480608,111.066591 L595.870888,111.066591 L595.870888,114.041025 L598.752624,114.041025 C598.225354,114.238277 597.732062,114.501279 597.281554,114.82377 L597.281554,114.82377 L595.870888,114.82377 L595.870888,116.211422 C595.553142,116.63974 595.286991,117.106883 595.084388,117.607214 L595.084388,117.607214 L595.084388,114.82377 L591.085194,114.82377 C591.112878,115.88079 591.248156,116.883957 591.475298,117.798204 L591.475298,117.798204 L595.013918,117.798204 C594.920796,118.052439 594.840888,118.312311 594.781114,118.580949 L594.781114,118.580949 L591.699293,118.580949 C592.388896,120.710643 593.589409,122.214767 594.98875,122.501565 L594.98875,122.501565 L594.986862,122.508454 L594.812574,123.259889 L594.68233,123.824719 C589.828052,123.420196 586,119.3662 586,114.432398 C586,109.23121 590.251504,105 595.477638,105 Z M603.529761,118.172419 C603.300103,118.100406 603.040244,118.147371 602.857776,118.328342 L602.857776,118.328342 L602.603579,118.580699 L602.229205,118.953286 L600.21199,120.958367 L599.456321,120.204426 L599.025319,119.774855 C598.972466,119.721629 598.908917,119.686562 598.845368,119.655252 C598.595575,119.533144 598.288526,119.567584 598.080261,119.774229 C597.818514,120.033475 597.818514,120.454905 598.079002,120.715403 L598.079002,120.715403 L598.186596,120.822482 L598.752246,121.386059 L599.061813,121.6954 L599.518612,122.150645 C599.709889,122.340382 599.960939,122.436191 600.21199,122.436191 C600.351043,122.436191 600.489467,122.403628 600.618453,122.344766 C600.709058,122.304063 600.794,122.248332 600.871392,122.178824 C600.882088,122.168805 600.894043,122.16129 600.904739,122.151271 L600.904739,122.151271 L603.234037,119.835597 L603.802834,119.270141 C603.982785,119.091049 604.029975,118.836813 603.962021,118.609504 C603.931191,118.507434 603.88463,118.409747 603.803463,118.328968 C603.724184,118.250067 603.629804,118.203728 603.529761,118.172419 Z M590.869378,118.580949 L588.498553,118.580949 C589.467521,120.189022 590.9776,121.4339 592.780258,122.066985 C591.967332,121.232265 591.306043,120.031847 590.869378,118.580949 L590.869378,118.580949 Z M590.299323,114.82377 L587.357184,114.82377 C587.408149,115.88079 587.661088,116.884583 588.082652,117.798204 L588.082652,117.798204 L590.661742,117.798204 C590.448443,116.877695 590.324491,115.877033 590.299323,114.82377 L590.299323,114.82377 Z M595.084388,111.066591 L591.475298,111.066591 C591.248156,111.980838 591.112878,112.984005 591.085194,114.041025 L591.085194,114.041025 L595.084388,114.041025 L595.084388,111.066591 Z M590.661742,111.066591 L588.082652,111.066591 C587.661088,111.980212 587.408149,112.984005 587.357184,114.041025 L587.357184,114.041025 L590.299323,114.041025 C590.324491,112.987762 590.448443,111.9871 590.661742,111.066591 L590.661742,111.066591 Z M595.084388,106.351332 C595.063625,106.351958 595.042861,106.353211 595.021468,106.353837 C593.607656,106.623101 592.394559,108.136618 591.699293,110.283846 L591.699293,110.283846 L595.084388,110.283846 Z M592.780258,106.79781 C590.9776,107.430895 589.467521,108.675773 588.498553,110.283846 L588.498553,110.283846 L590.869378,110.283846 C591.306043,108.832949 591.967332,107.63253 592.780258,106.79781 Z M595.870888,106.351332 L595.870888,110.283846 L599.256613,110.283846 C598.560718,108.136618 597.34762,106.623101 595.933808,106.353837 C595.912415,106.353211 595.891652,106.351958 595.870888,106.351332 L595.870888,106.351332 Z M598.175647,106.798436 C598.987945,107.63253 599.649863,108.832949 600.085898,110.283846 L600.085898,110.283846 L602.456724,110.283846 C601.487756,108.675773 599.977676,107.430895 598.175647,106.798436 Z"/>
    <path fill="#F93D3D" d="M600.980872,168.962536 C601.906425,168.962536 602.770946,169.216771 603.51529,169.651978 C603.9551,169.908718 604.350867,170.229957 604.691893,170.60317 C605.501674,171.489865 606,172.664609 606,173.958331 C606,176.716727 603.752498,178.952874 600.980872,178.952874 C600.157879,178.952874 599.383963,178.752491 598.698135,178.403074 L598.698135,178.403074 L596.370095,178.987941 C596.086326,179.058701 595.827096,178.80697 595.892533,178.522677 L595.892533,178.522677 L596.05172,177.83574 L596.187627,177.248994 L596.364433,176.483155 L596.388971,176.377328 L596.45315,176.102428 C596.141067,175.45181 595.961745,174.726674 595.961745,173.958331 C595.961745,173.479917 596.032844,173.019036 596.159313,172.580699 C596.237334,172.309556 596.339265,172.048432 596.4607,171.797953 C597.11381,170.445995 598.358367,169.432809 599.862784,169.091532 C600.119498,169.033296 600.382503,168.996976 600.651801,168.979443 C600.761282,168.972555 600.869504,168.962536 600.980872,168.962536 Z M595.477638,159 C600.703773,159 604.955276,163.23121 604.955276,168.432398 C604.955276,168.626518 604.937659,168.81563 604.925704,169.007246 C604.722473,168.846313 604.508545,168.701036 604.286437,168.565151 C604.067475,168.431771 603.840963,168.310915 603.606272,168.203836 C603.603755,168.202583 603.600609,168.201957 603.598092,168.200705 L603.598092,168.200705 L603.598092,168.041025 C603.547127,166.984005 603.294189,165.980212 602.872625,165.066591 L602.872625,165.066591 L600.293534,165.066591 C600.480407,165.87188 600.601213,166.738536 600.645257,167.649026 C600.379735,167.662802 600.117988,167.690355 599.861903,167.736067 C599.817859,166.79051 599.685098,165.892545 599.480608,165.066591 L599.480608,165.066591 L595.870888,165.066591 L595.870888,168.041025 L598.752624,168.041025 C598.225354,168.238277 597.732062,168.501279 597.281554,168.82377 L597.281554,168.82377 L595.870888,168.82377 L595.870888,170.211422 C595.553142,170.63974 595.286991,171.106883 595.084388,171.607214 L595.084388,171.607214 L595.084388,168.82377 L591.085194,168.82377 C591.112878,169.88079 591.248156,170.883957 591.475298,171.798204 L591.475298,171.798204 L595.013918,171.798204 C594.920796,172.052439 594.840888,172.312311 594.781114,172.580949 L594.781114,172.580949 L591.699293,172.580949 C592.388896,174.710643 593.589409,176.214767 594.98875,176.501565 L594.98875,176.501565 L594.986862,176.508454 L594.812574,177.259889 L594.68233,177.824719 C589.828052,177.420196 586,173.3662 586,168.432398 C586,163.23121 590.251504,159 595.477638,159 Z M603.529761,172.172419 C603.300103,172.100406 603.040244,172.147371 602.857776,172.328342 L602.857776,172.328342 L602.603579,172.580699 L602.229205,172.953286 L600.21199,174.958367 L599.456321,174.204426 L599.025319,173.774855 C598.972466,173.721629 598.908917,173.686562 598.845368,173.655252 C598.595575,173.533144 598.288526,173.567584 598.080261,173.774229 C597.818514,174.033475 597.818514,174.454905 598.079002,174.715403 L598.079002,174.715403 L598.186596,174.822482 L598.752246,175.386059 L599.061813,175.6954 L599.518612,176.150645 C599.709889,176.340382 599.960939,176.436191 600.21199,176.436191 C600.351043,176.436191 600.489467,176.403628 600.618453,176.344766 C600.709058,176.304063 600.794,176.248332 600.871392,176.178824 C600.882088,176.168805 600.894043,176.16129 600.904739,176.151271 L600.904739,176.151271 L603.234037,173.835597 L603.802834,173.270141 C603.982785,173.091049 604.029975,172.836813 603.962021,172.609504 C603.931191,172.507434 603.88463,172.409747 603.803463,172.328968 C603.724184,172.250067 603.629804,172.203728 603.529761,172.172419 Z M590.869378,172.580949 L588.498553,172.580949 C589.467521,174.189022 590.9776,175.4339 592.780258,176.066985 C591.967332,175.232265 591.306043,174.031847 590.869378,172.580949 L590.869378,172.580949 Z M590.299323,168.82377 L587.357184,168.82377 C587.408149,169.88079 587.661088,170.884583 588.082652,171.798204 L588.082652,171.798204 L590.661742,171.798204 C590.448443,170.877695 590.324491,169.877033 590.299323,168.82377 L590.299323,168.82377 Z M595.084388,165.066591 L591.475298,165.066591 C591.248156,165.980838 591.112878,166.984005 591.085194,168.041025 L591.085194,168.041025 L595.084388,168.041025 L595.084388,165.066591 Z M590.661742,165.066591 L588.082652,165.066591 C587.661088,165.980212 587.408149,166.984005 587.357184,168.041025 L587.357184,168.041025 L590.299323,168.041025 C590.324491,166.987762 590.448443,165.9871 590.661742,165.066591 L590.661742,165.066591 Z M595.084388,160.351332 C595.063625,160.351958 595.042861,160.353211 595.021468,160.353837 C593.607656,160.623101 592.394559,162.136618 591.699293,164.283846 L591.699293,164.283846 L595.084388,164.283846 Z M592.780258,160.79781 C590.9776,161.430895 589.467521,162.675773 588.498553,164.283846 L588.498553,164.283846 L590.869378,164.283846 C591.306043,162.832949 591.967332,161.63253 592.780258,160.79781 Z M595.870888,160.351332 L595.870888,164.283846 L599.256613,164.283846 C598.560718,162.136618 597.34762,160.623101 595.933808,160.353837 C595.912415,160.353211 595.891652,160.351958 595.870888,160.351332 L595.870888,160.351332 Z M598.175647,160.798436 C598.987945,161.63253 599.649863,162.832949 600.085898,164.283846 L600.085898,164.283846 L602.456724,164.283846 C601.487756,162.675773 599.977676,161.430895 598.175647,160.798436 Z"/>
    <path fill="#5E6470" fill-opacity=".6" d="M601.010235,222.981303 C601.930373,222.981303 602.789836,223.235063 603.529825,223.669456 C603.967063,223.925717 604.360515,224.246355 604.699546,224.61887 C605.504589,225.503906 606,226.676455 606,227.967758 C606,230.720996 603.765646,232.952962 601.010235,232.952962 C600.192056,232.952962 599.422667,232.752954 598.740851,232.40419 L598.740851,232.40419 L596.426431,232.987964 C596.144322,233.058592 595.886608,232.807331 595.951662,232.52357 L595.951662,232.52357 L596.109918,231.837916 L596.24503,231.252267 L596.420801,230.487861 L596.445197,230.382232 L596.508999,230.107845 C596.198742,229.458444 596.020469,228.734664 596.020469,227.967758 C596.020469,227.490238 596.091153,227.030219 596.216882,226.592701 C596.294446,226.322065 596.395781,226.061429 596.516506,225.811419 C597.165794,224.461989 598.403071,223.450697 599.898687,223.110058 C600.153899,223.051931 600.415366,223.015679 600.683088,222.998178 C600.791928,222.991303 600.899518,222.981303 601.010235,222.981303 Z M595.422193,213 C600.617755,213 604.844387,217.223298 604.844387,222.414762 C604.844387,222.60852 604.826872,222.797277 604.814987,222.988535 C604.612945,222.827904 604.400268,222.682898 604.17946,222.547267 C603.961779,222.414137 603.736593,222.293507 603.503274,222.186627 C603.500772,222.185377 603.497644,222.184752 603.495142,222.183502 L603.495142,222.183502 L603.495142,222.024121 C603.444475,220.969077 603.193017,219.967161 602.773919,219.055249 L602.773919,219.055249 L600.209916,219.055249 C600.395695,219.859032 600.515795,220.724067 600.559581,221.632855 C600.295612,221.646605 600.035396,221.674106 599.78081,221.719733 C599.737024,220.775944 599.605039,219.879658 599.401746,219.055249 L599.401746,219.055249 L595.813143,219.055249 L595.813143,222.024121 L598.67802,222.024121 C598.153835,222.221004 597.663428,222.483514 597.215557,222.805403 L597.215557,222.805403 L595.813143,222.805403 L595.813143,224.19046 C595.497256,224.617977 595.232661,225.084246 595.031244,225.583642 L595.031244,225.583642 L595.031244,222.805403 L591.055445,222.805403 C591.082968,223.860446 591.217454,224.861737 591.443267,225.774275 L591.443267,225.774275 L594.961186,225.774275 C594.868609,226.028035 594.789168,226.287421 594.729744,226.555557 L594.729744,226.555557 L591.665952,226.555557 C592.35152,228.681269 593.545011,230.182581 594.936165,230.468842 L594.936165,230.468842 L594.934289,230.475718 L594.76102,231.225748 L594.631537,231.789522 C589.805658,231.385755 586,227.339339 586,222.414762 C586,217.223298 590.226632,213 595.422193,213 Z M590.840892,226.555557 L588.483936,226.555557 C589.447235,228.160623 590.948481,229.403174 592.740593,230.035075 C591.932423,229.201915 591.275002,228.003741 590.840892,226.555557 L590.840892,226.555557 Z M602.900549,226.013088 L601.906399,226.013088 L601.906399,230.005609 L602.900549,230.005609 L602.900549,226.013088 Z M600.415174,226.013088 L599.421024,226.013088 L599.421024,230.005609 L600.415174,230.005609 L600.415174,226.013088 Z M590.274172,222.805403 L587.349245,222.805403 C587.399912,223.860446 587.65137,224.862362 588.070468,225.774275 L588.070468,225.774275 L590.634471,225.774275 C590.42242,224.855487 590.299192,223.856696 590.274172,222.805403 L590.274172,222.805403 Z M595.031244,219.055249 L591.443267,219.055249 C591.217454,219.967786 591.082968,220.969077 591.055445,222.024121 L591.055445,222.024121 L595.031244,222.024121 L595.031244,219.055249 Z M590.634471,219.055249 L588.070468,219.055249 C587.65137,219.967161 587.399912,220.969077 587.349245,222.024121 L587.349245,222.024121 L590.274172,222.024121 C590.299192,220.972827 590.42242,219.974036 590.634471,219.055249 L590.634471,219.055249 Z M595.031244,214.348805 C595.010602,214.34943 594.98996,214.35068 594.968692,214.351305 C593.563151,214.620067 592.35715,216.130754 591.665952,218.273967 L591.665952,218.273967 L595.031244,218.273967 Z M592.740593,214.794449 C590.948481,215.42635 589.447235,216.668901 588.483936,218.273967 L588.483936,218.273967 L590.840892,218.273967 C591.275002,216.825782 591.932423,215.627608 592.740593,214.794449 Z M595.813143,214.348805 L595.813143,218.273967 L599.179061,218.273967 C598.487237,216.130754 597.281236,214.620067 595.875695,214.351305 C595.854427,214.35068 595.833785,214.34943 595.813143,214.348805 L595.813143,214.348805 Z M598.104419,214.795074 C598.911964,215.627608 599.57001,216.825782 600.003495,218.273967 L600.003495,218.273967 L602.360451,218.273967 C601.397151,216.668901 599.895906,215.42635 598.104419,214.795074 Z"/>
    <g transform="translate(532 51)">
      <mask id="ic-all-collect-h" fill="#fff">
        <use xlink:href="#ic-all-collect-g"/>
      </mask>
      <g mask="url(#ic-all-collect-h)">
        <use fill="#5E6470" fill-opacity=".6" transform="translate(-15 -15)" xlink:href="#ic-all-collect-i"/>
      </g>
    </g>
    <g transform="translate(532 105)">
      <mask id="ic-all-collect-k" fill="#fff">
        <use xlink:href="#ic-all-collect-j"/>
      </mask>
      <g mask="url(#ic-all-collect-k)">
        <use fill="#006EFF" transform="translate(-14 -14)" xlink:href="#ic-all-collect-l"/>
      </g>
    </g>
    <g transform="matrix(1 0 0 -1 532 232)">
      <mask id="ic-all-collect-n" fill="#fff">
        <use xlink:href="#ic-all-collect-m"/>
      </mask>
      <g mask="url(#ic-all-collect-n)">
        <use fill="#5E6470" fill-opacity=".6" transform="translate(-14 -15)" xlink:href="#ic-all-collect-o"/>
      </g>
    </g>
    <g transform="translate(531 158)">
      <mask id="ic-all-collect-q" fill="#fff">
        <use xlink:href="#ic-all-collect-p"/>
      </mask>
      <g mask="url(#ic-all-collect-q)">
        <use fill="#F93D3D" transform="translate(-14 -14)" xlink:href="#ic-all-collect-r"/>
      </g>
    </g>
    <g transform="translate(100 51)">
      <mask id="ic-all-collect-t" fill="#fff">
        <use xlink:href="#ic-all-collect-s"/>
      </mask>
      <g mask="url(#ic-all-collect-t)">
        <use fill="#006EFF" transform="translate(-15 -15)" xlink:href="#ic-all-collect-u"/>
      </g>
    </g>
    <g transform="translate(100 106)">
      <mask id="ic-all-collect-w" fill="#fff">
        <use xlink:href="#ic-all-collect-v"/>
      </mask>
      <g mask="url(#ic-all-collect-w)">
        <use fill="#006EFF" transform="translate(-15 -15)" xlink:href="#ic-all-collect-x"/>
      </g>
    </g>
    <g transform="translate(155 52)">
      <mask id="ic-all-collect-z" fill="#fff">
        <use xlink:href="#ic-all-collect-y"/>
      </mask>
      <g mask="url(#ic-all-collect-z)">
        <use fill="#5E6470" fill-opacity=".6" transform="translate(-16 -16)" xlink:href="#ic-all-collect-A"/>
      </g>
    </g>
    <g transform="translate(155 107)">
      <mask id="ic-all-collect-C" fill="#fff">
        <use xlink:href="#ic-all-collect-B"/>
      </mask>
      <g mask="url(#ic-all-collect-C)">
        <use fill="#5E6470" fill-opacity=".87" transform="translate(-16 -16)" xlink:href="#ic-all-collect-D"/>
      </g>
    </g>
    <g transform="translate(208 51)">
      <mask id="ic-all-collect-F" fill="#fff">
        <use xlink:href="#ic-all-collect-E"/>
      </mask>
      <g mask="url(#ic-all-collect-F)">
        <use fill="#5E6470" fill-opacity=".6" transform="translate(-15 -15)" xlink:href="#ic-all-collect-G"/>
      </g>
    </g>
    <g transform="translate(208 106)">
      <mask id="ic-all-collect-I" fill="#fff">
        <use xlink:href="#ic-all-collect-H"/>
      </mask>
      <g mask="url(#ic-all-collect-I)">
        <use fill="#006EFF" transform="translate(-15 -15)" xlink:href="#ic-all-collect-J"/>
      </g>
    </g>
    <g transform="translate(265 52)">
      <mask id="ic-all-collect-L" fill="#fff">
        <use xlink:href="#ic-all-collect-K"/>
      </mask>
      <g mask="url(#ic-all-collect-L)">
        <use fill="#006EFF" fill-opacity=".6" transform="translate(-18 -16)" xlink:href="#ic-all-collect-M"/>
      </g>
    </g>
    <g transform="translate(265 107)">
      <mask id="ic-all-collect-O" fill="#fff">
        <use xlink:href="#ic-all-collect-N"/>
      </mask>
      <g mask="url(#ic-all-collect-O)">
        <use fill="#006EFF" transform="translate(-18 -16)" xlink:href="#ic-all-collect-P"/>
      </g>
    </g>
    <g transform="translate(315 53)">
      <mask id="ic-all-collect-R" fill="#fff">
        <use xlink:href="#ic-all-collect-Q"/>
      </mask>
      <g mask="url(#ic-all-collect-R)">
        <use fill="#006EFF" fill-opacity=".6" transform="translate(-14 -17)" xlink:href="#ic-all-collect-S"/>
      </g>
    </g>
    <g transform="translate(315 108)">
      <mask id="ic-all-collect-U" fill="#fff">
        <use xlink:href="#ic-all-collect-T"/>
      </mask>
      <g mask="url(#ic-all-collect-U)">
        <use fill="#006EFF" transform="translate(-14 -17)" xlink:href="#ic-all-collect-V"/>
      </g>
    </g>
    <g transform="translate(369 51)">
      <mask id="ic-all-collect-X" fill="#fff">
        <use xlink:href="#ic-all-collect-W"/>
      </mask>
      <g mask="url(#ic-all-collect-X)">
        <use fill="#006EFF" fill-opacity=".6" transform="translate(-14 -15)" xlink:href="#ic-all-collect-Y"/>
      </g>
    </g>
    <g transform="translate(369 106)">
      <mask id="ic-all-collect-aa" fill="#fff">
        <use xlink:href="#ic-all-collect-Z"/>
      </mask>
      <g mask="url(#ic-all-collect-aa)">
        <use fill="#006EFF" transform="translate(-14 -15)" xlink:href="#ic-all-collect-ab"/>
      </g>
    </g>
    <g transform="translate(424 51)">
      <mask id="ic-all-collect-ad" fill="#fff">
        <use xlink:href="#ic-all-collect-ac"/>
      </mask>
      <g mask="url(#ic-all-collect-ad)">
        <use fill="#006EFF" fill-opacity=".6" transform="translate(-15 -15)" xlink:href="#ic-all-collect-ae"/>
      </g>
    </g>
    <g transform="translate(424 105)">
      <mask id="ic-all-collect-ag" fill="#fff">
        <use xlink:href="#ic-all-collect-af"/>
      </mask>
      <g mask="url(#ic-all-collect-ag)">
        <use fill="#006EFF" transform="translate(-15 -15)" xlink:href="#ic-all-collect-ah"/>
      </g>
    </g>
    <g transform="translate(102 214)">
      <mask id="ic-all-collect-aj" fill="#fff">
        <use xlink:href="#ic-all-collect-ai"/>
      </mask>
      <g mask="url(#ic-all-collect-aj)">
        <use fill="#006EFF" transform="translate(-17 -15)" xlink:href="#ic-all-collect-ak"/>
      </g>
    </g>
    <g transform="translate(155 215)">
      <mask id="ic-all-collect-am" fill="#fff">
        <use xlink:href="#ic-all-collect-al"/>
      </mask>
      <g mask="url(#ic-all-collect-am)">
        <use fill="#006EFF" transform="translate(-16 -16)" xlink:href="#ic-all-collect-an"/>
      </g>
    </g>
    <g transform="translate(206 216)">
      <mask id="ic-all-collect-ap" fill="#fff">
        <use xlink:href="#ic-all-collect-ao"/>
      </mask>
      <use fill="#5E6470" fill-opacity=".6" xlink:href="#ic-all-collect-ao"/>
      <g mask="url(#ic-all-collect-ap)">
        <use fill="#5E6470" fill-opacity=".6" transform="translate(-13 -18)" xlink:href="#ic-all-collect-aq"/>
      </g>
    </g>
    <use fill="#FFF" xlink:href="#ic-all-collect-ar"/>
    <g transform="translate(316 214)">
      <mask id="ic-all-collect-at" fill="#fff">
        <use xlink:href="#ic-all-collect-as"/>
      </mask>
      <g mask="url(#ic-all-collect-at)">
        <use fill="#F93D3D" transform="translate(-15 -15)" xlink:href="#ic-all-collect-au"/>
      </g>
    </g>
    <g transform="translate(102 269)">
      <mask id="ic-all-collect-aw" fill="#fff">
        <use xlink:href="#ic-all-collect-av"/>
      </mask>
      <g mask="url(#ic-all-collect-aw)">
        <use fill="#FFF" transform="translate(-8.667 -8.667)" xlink:href="#ic-all-collect-ax"/>
      </g>
    </g>
    <g transform="translate(156 269)">
      <mask id="ic-all-collect-az" fill="#fff">
        <use xlink:href="#ic-all-collect-ay"/>
      </mask>
      <g mask="url(#ic-all-collect-az)">
        <use fill="#FFF" transform="translate(-8.667 -8.667)" xlink:href="#ic-all-collect-aA"/>
      </g>
    </g>
    <g transform="translate(210 269)">
      <mask id="ic-all-collect-aC" fill="#fff">
        <use xlink:href="#ic-all-collect-aB"/>
      </mask>
      <g mask="url(#ic-all-collect-aC)">
        <use fill="#FFF" transform="translate(-8.667 -8.667)" xlink:href="#ic-all-collect-aD"/>
      </g>
    </g>
    <g transform="translate(264 269)">
      <mask id="ic-all-collect-aF" fill="#fff">
        <use xlink:href="#ic-all-collect-aE"/>
      </mask>
      <g mask="url(#ic-all-collect-aF)">
        <use fill="#FFF" transform="translate(-8.667 -8.667)" xlink:href="#ic-all-collect-aG"/>
      </g>
    </g>
    <g transform="translate(476 157)">
      <mask id="ic-all-collect-aI" fill="#fff">
        <use xlink:href="#ic-all-collect-aH"/>
      </mask>
      <g mask="url(#ic-all-collect-aI)">
        <use fill="#006EFF" transform="translate(-13 -13)" xlink:href="#ic-all-collect-aJ"/>
      </g>
    </g>
    <g transform="translate(543 224)">
      <mask id="ic-all-collect-aL" fill="#fff">
        <use xlink:href="#ic-all-collect-aK"/>
      </mask>
      <g mask="url(#ic-all-collect-aL)">
        <use fill="#5E6470" fill-opacity=".6" transform="translate(-6.75 -6.75)" xlink:href="#ic-all-collect-aM"/>
      </g>
    </g>
    <path fill="#006EFF" d="M601.010235,276.981303 C601.930373,276.981303 602.789836,277.235063 603.529825,277.669456 C603.967063,277.925717 604.360515,278.246355 604.699546,278.61887 C605.504589,279.503906 606,280.676455 606,281.967758 C606,284.720996 603.765646,286.952962 601.010235,286.952962 C600.192056,286.952962 599.422667,286.752954 598.740851,286.40419 L598.740851,286.40419 L596.426431,286.987964 C596.144322,287.058592 595.886608,286.807331 595.951662,286.52357 L595.951662,286.52357 L596.109918,285.837916 L596.24503,285.252267 L596.420801,284.487861 L596.445197,284.382232 L596.508999,284.107845 C596.198742,283.458444 596.020469,282.734664 596.020469,281.967758 C596.020469,281.490238 596.091153,281.030219 596.216882,280.592701 C596.294446,280.322065 596.395781,280.061429 596.516506,279.811419 C597.165794,278.461989 598.403071,277.450697 599.898687,277.110058 C600.153899,277.051931 600.415366,277.015679 600.683088,276.998178 C600.791928,276.991303 600.899518,276.981303 601.010235,276.981303 Z M595.422193,267 C600.617755,267 604.844387,271.223298 604.844387,276.414762 C604.844387,276.60852 604.826872,276.797277 604.814987,276.988535 C604.612945,276.827904 604.400268,276.682898 604.17946,276.547267 C603.961779,276.414137 603.736593,276.293507 603.503274,276.186627 C603.500772,276.185377 603.497644,276.184752 603.495142,276.183502 L603.495142,276.183502 L603.495142,276.024121 C603.444475,274.969077 603.193017,273.967161 602.773919,273.055249 L602.773919,273.055249 L600.209916,273.055249 C600.395695,273.859032 600.515795,274.724067 600.559581,275.632855 C600.295612,275.646605 600.035396,275.674106 599.78081,275.719733 C599.737024,274.775944 599.605039,273.879658 599.401746,273.055249 L599.401746,273.055249 L595.813143,273.055249 L595.813143,276.024121 L598.67802,276.024121 C598.153835,276.221004 597.663428,276.483514 597.215557,276.805403 L597.215557,276.805403 L595.813143,276.805403 L595.813143,278.19046 C595.497256,278.617977 595.232661,279.084246 595.031244,279.583642 L595.031244,279.583642 L595.031244,276.805403 L591.055445,276.805403 C591.082968,277.860446 591.217454,278.861737 591.443267,279.774275 L591.443267,279.774275 L594.961186,279.774275 C594.868609,280.028035 594.789168,280.287421 594.729744,280.555557 L594.729744,280.555557 L591.665952,280.555557 C592.35152,282.681269 593.545011,284.182581 594.936165,284.468842 L594.936165,284.468842 L594.934289,284.475718 L594.76102,285.225748 L594.631537,285.789522 C589.805658,285.385755 586,281.339339 586,276.414762 C586,271.223298 590.226632,267 595.422193,267 Z M590.840892,280.555557 L588.483936,280.555557 C589.447235,282.160623 590.948481,283.403174 592.740593,284.035075 C591.932423,283.201915 591.275002,282.003741 590.840892,280.555557 L590.840892,280.555557 Z M602.900549,280.013088 L601.906399,280.013088 L601.906399,284.005609 L602.900549,284.005609 L602.900549,280.013088 Z M600.415174,280.013088 L599.421024,280.013088 L599.421024,284.005609 L600.415174,284.005609 L600.415174,280.013088 Z M590.274172,276.805403 L587.349245,276.805403 C587.399912,277.860446 587.65137,278.862362 588.070468,279.774275 L588.070468,279.774275 L590.634471,279.774275 C590.42242,278.855487 590.299192,277.856696 590.274172,276.805403 L590.274172,276.805403 Z M595.031244,273.055249 L591.443267,273.055249 C591.217454,273.967786 591.082968,274.969077 591.055445,276.024121 L591.055445,276.024121 L595.031244,276.024121 L595.031244,273.055249 Z M590.634471,273.055249 L588.070468,273.055249 C587.65137,273.967161 587.399912,274.969077 587.349245,276.024121 L587.349245,276.024121 L590.274172,276.024121 C590.299192,274.972827 590.42242,273.974036 590.634471,273.055249 L590.634471,273.055249 Z M595.031244,268.348805 C595.010602,268.34943 594.98996,268.35068 594.968692,268.351305 C593.563151,268.620067 592.35715,270.130754 591.665952,272.273967 L591.665952,272.273967 L595.031244,272.273967 Z M592.740593,268.794449 C590.948481,269.42635 589.447235,270.668901 588.483936,272.273967 L588.483936,272.273967 L590.840892,272.273967 C591.275002,270.825782 591.932423,269.627608 592.740593,268.794449 Z M595.813143,268.348805 L595.813143,272.273967 L599.179061,272.273967 C598.487237,270.130754 597.281236,268.620067 595.875695,268.351305 C595.854427,268.35068 595.833785,268.34943 595.813143,268.348805 L595.813143,268.348805 Z M598.104419,268.795074 C598.911964,269.627608 599.57001,270.825782 600.003495,272.273967 L600.003495,272.273967 L602.360451,272.273967 C601.397151,270.668901 599.895906,269.42635 598.104419,268.795074 Z"/>
    <path fill="#F93D3D" d="M601.010235,330.981303 C601.930373,330.981303 602.789836,331.235063 603.529825,331.669456 C603.967063,331.925717 604.360515,332.246355 604.699546,332.61887 C605.504589,333.503906 606,334.676455 606,335.967758 C606,338.720996 603.765646,340.952962 601.010235,340.952962 C600.192056,340.952962 599.422667,340.752954 598.740851,340.40419 L598.740851,340.40419 L596.426431,340.987964 C596.144322,341.058592 595.886608,340.807331 595.951662,340.52357 L595.951662,340.52357 L596.109918,339.837916 L596.24503,339.252267 L596.420801,338.487861 L596.445197,338.382232 L596.508999,338.107845 C596.198742,337.458444 596.020469,336.734664 596.020469,335.967758 C596.020469,335.490238 596.091153,335.030219 596.216882,334.592701 C596.294446,334.322065 596.395781,334.061429 596.516506,333.811419 C597.165794,332.461989 598.403071,331.450697 599.898687,331.110058 C600.153899,331.051931 600.415366,331.015679 600.683088,330.998178 C600.791928,330.991303 600.899518,330.981303 601.010235,330.981303 Z M595.422193,321 C600.617755,321 604.844387,325.223298 604.844387,330.414762 C604.844387,330.60852 604.826872,330.797277 604.814987,330.988535 C604.612945,330.827904 604.400268,330.682898 604.17946,330.547267 C603.961779,330.414137 603.736593,330.293507 603.503274,330.186627 C603.500772,330.185377 603.497644,330.184752 603.495142,330.183502 L603.495142,330.183502 L603.495142,330.024121 C603.444475,328.969077 603.193017,327.967161 602.773919,327.055249 L602.773919,327.055249 L600.209916,327.055249 C600.395695,327.859032 600.515795,328.724067 600.559581,329.632855 C600.295612,329.646605 600.035396,329.674106 599.78081,329.719733 C599.737024,328.775944 599.605039,327.879658 599.401746,327.055249 L599.401746,327.055249 L595.813143,327.055249 L595.813143,330.024121 L598.67802,330.024121 C598.153835,330.221004 597.663428,330.483514 597.215557,330.805403 L597.215557,330.805403 L595.813143,330.805403 L595.813143,332.19046 C595.497256,332.617977 595.232661,333.084246 595.031244,333.583642 L595.031244,333.583642 L595.031244,330.805403 L591.055445,330.805403 C591.082968,331.860446 591.217454,332.861737 591.443267,333.774275 L591.443267,333.774275 L594.961186,333.774275 C594.868609,334.028035 594.789168,334.287421 594.729744,334.555557 L594.729744,334.555557 L591.665952,334.555557 C592.35152,336.681269 593.545011,338.182581 594.936165,338.468842 L594.936165,338.468842 L594.934289,338.475718 L594.76102,339.225748 L594.631537,339.789522 C589.805658,339.385755 586,335.339339 586,330.414762 C586,325.223298 590.226632,321 595.422193,321 Z M590.840892,334.555557 L588.483936,334.555557 C589.447235,336.160623 590.948481,337.403174 592.740593,338.035075 C591.932423,337.201915 591.275002,336.003741 590.840892,334.555557 L590.840892,334.555557 Z M602.900549,334.013088 L601.906399,334.013088 L601.906399,338.005609 L602.900549,338.005609 L602.900549,334.013088 Z M600.415174,334.013088 L599.421024,334.013088 L599.421024,338.005609 L600.415174,338.005609 L600.415174,334.013088 Z M590.274172,330.805403 L587.349245,330.805403 C587.399912,331.860446 587.65137,332.862362 588.070468,333.774275 L588.070468,333.774275 L590.634471,333.774275 C590.42242,332.855487 590.299192,331.856696 590.274172,330.805403 L590.274172,330.805403 Z M595.031244,327.055249 L591.443267,327.055249 C591.217454,327.967786 591.082968,328.969077 591.055445,330.024121 L591.055445,330.024121 L595.031244,330.024121 L595.031244,327.055249 Z M590.634471,327.055249 L588.070468,327.055249 C587.65137,327.967161 587.399912,328.969077 587.349245,330.024121 L587.349245,330.024121 L590.274172,330.024121 C590.299192,328.972827 590.42242,327.974036 590.634471,327.055249 L590.634471,327.055249 Z M595.031244,322.348805 C595.010602,322.34943 594.98996,322.35068 594.968692,322.351305 C593.563151,322.620067 592.35715,324.130754 591.665952,326.273967 L591.665952,326.273967 L595.031244,326.273967 Z M592.740593,322.794449 C590.948481,323.42635 589.447235,324.668901 588.483936,326.273967 L588.483936,326.273967 L590.840892,326.273967 C591.275002,324.825782 591.932423,323.627608 592.740593,322.794449 Z M595.813143,322.348805 L595.813143,326.273967 L599.179061,326.273967 C598.487237,324.130754 597.281236,322.620067 595.875695,322.351305 C595.854427,322.35068 595.833785,322.34943 595.813143,322.348805 L595.813143,322.348805 Z M598.104419,322.795074 C598.911964,323.627608 599.57001,324.825782 600.003495,326.273967 L600.003495,326.273967 L602.360451,326.273967 C601.397151,324.668901 599.895906,323.42635 598.104419,322.795074 Z"/>
    <g transform="matrix(1 0 0 -1 532 286)">
      <mask id="ic-all-collect-aO" fill="#fff">
        <use xlink:href="#ic-all-collect-aN"/>
      </mask>
      <g mask="url(#ic-all-collect-aO)">
        <use fill="#006EFF" transform="translate(-14 -15)" xlink:href="#ic-all-collect-aP"/>
      </g>
    </g>
    <g transform="translate(543 278)">
      <mask id="ic-all-collect-aR" fill="#fff">
        <use xlink:href="#ic-all-collect-aQ"/>
      </mask>
      <g mask="url(#ic-all-collect-aR)">
        <use fill="#006EFF" transform="translate(-6.75 -6.75)" xlink:href="#ic-all-collect-aS"/>
      </g>
    </g>
    <g transform="matrix(1 0 0 -1 532 340)">
      <mask id="ic-all-collect-aU" fill="#fff">
        <use xlink:href="#ic-all-collect-aT"/>
      </mask>
      <g mask="url(#ic-all-collect-aU)">
        <use fill="#FF2913" fill-rule="nonzero" transform="translate(-14 -15)" xlink:href="#ic-all-collect-aV"/>
      </g>
    </g>
    <g transform="translate(543 332)">
      <mask id="ic-all-collect-aX" fill="#fff">
        <use xlink:href="#ic-all-collect-aW"/>
      </mask>
      <g mask="url(#ic-all-collect-aX)">
        <use fill="#FF2913" transform="translate(-6.75 -6.75)" xlink:href="#ic-all-collect-aY"/>
      </g>
    </g>
  </g>
</svg>
