<svg xmlns="http://www.w3.org/2000/svg" xmlns:xlink="http://www.w3.org/1999/xlink" width="618" height="294" viewBox="0 0 618 294">
  <defs>
    <path id="ic-all-collect-a" d="M12,2 C6.48,2 2,6.48 2,12 C2,17.52 6.48,22 12,22 C17.52,22 22,17.52 22,12 C22,6.48 17.52,2 12,2 L12,2 Z M11,16 L9,16 L9,8 L11,8 L11,16 L11,16 Z M15,16 L13,16 L13,8 L15,8 L15,16 L15,16 Z"/>
    <rect id="ic-all-collect-c" width="50" height="50" x="0" y="0"/>
    <path id="ic-all-collect-d" d="M12,2 C6.48,2 2,6.48 2,12 C2,17.52 6.48,22 12,22 C17.52,22 22,17.52 22,12 C22,6.48 17.52,2 12,2 L12,2 Z M11,16 L9,16 L9,8 L11,8 L11,16 L11,16 Z M15,16 L13,16 L13,8 L15,8 L15,16 L15,16 Z"/>
    <rect id="ic-all-collect-f" width="50" height="50" x="0" y="0"/>
    <path id="ic-all-collect-g" d="M12,2 C6.48,2 2,6.48 2,12 C2,17.52 6.48,22 12,22 C17.52,22 22,17.52 22,12 C22,6.48 17.52,2 12,2 L12,2 Z M10,16.5 L10,7.5 L16,12 L10,16.5 L10,16.5 Z"/>
    <rect id="ic-all-collect-i" width="50" height="50" x="0" y="0"/>
    <path id="ic-all-collect-j" d="M12,2 C6.48,2 2,6.48 2,12 C2,17.52 6.48,22 12,22 C17.52,22 22,17.52 22,12 C22,6.48 17.52,2 12,2 L12,2 Z M10,16.5 L10,7.5 L16,12 L10,16.5 L10,16.5 Z"/>
    <rect id="ic-all-collect-l" width="50" height="50" x="0" y="0"/>
    <path id="ic-all-collect-m" d="M12,2 C6.48,2 2,6.48 2,12 C2,17.52 6.48,22 12,22 C17.52,22 22,17.52 22,12 C22,6.48 17.52,2 12,2 L12,2 Z M10,16.5 L10,7.5 L16,12 L10,16.5 L10,16.5 Z"/>
    <rect id="ic-all-collect-o" width="50" height="50" x="0" y="0"/>
    <path id="ic-all-collect-p" d="M12,2 C6.48,2 2,6.48 2,12 C2,17.52 6.48,22 12,22 C17.52,22 22,17.52 22,12 C22,6.48 17.52,2 12,2 L12,2 Z M10,16.5 L10,7.5 L16,12 L10,16.5 L10,16.5 Z"/>
    <rect id="ic-all-collect-r" width="50" height="50" x="0" y="0"/>
    <path id="ic-all-collect-s" d="M12,2 C6.48,2 2,6.48 2,12 C2,17.52 6.48,22 12,22 C17.52,22 22,17.52 22,12 C22,6.48 17.52,2 12,2 L12,2 Z M10,16.5 L10,7.5 L16,12 L10,16.5 L10,16.5 Z"/>
    <rect id="ic-all-collect-u" width="50" height="50" x="0" y="0"/>
    <path id="ic-all-collect-v" d="M12,2 C6.48,2 2,6.48 2,12 C2,17.52 6.48,22 12,22 C17.52,22 22,17.52 22,12 C22,6.48 17.52,2 12,2 L12,2 Z M10,16.5 L10,7.5 L16,12 L10,16.5 L10,16.5 Z"/>
    <rect id="ic-all-collect-x" width="50" height="50" x="0" y="0"/>
    <path id="ic-all-collect-y" d="M19.0909091,2.72727273 L19.0909091,2.27272727 C19.0909091,1.01818182 18.0727273,0 16.8181818,0 C15.5636364,0 14.5454545,1.01818182 14.5454545,2.27272727 L14.5454545,2.72727273 C14.0454545,2.72727273 13.6363636,3.13636364 13.6363636,3.63636364 L13.6363636,7.27272727 C13.6363636,7.77272727 14.0454545,8.18181818 14.5454545,8.18181818 L19.0909091,8.18181818 C19.5909091,8.18181818 20,7.77272727 20,7.27272727 L20,3.63636364 C20,3.13636364 19.5909091,2.72727273 19.0909091,2.72727273 L19.0909091,2.72727273 Z M18.3636364,2.72727273 L15.2727273,2.72727273 L15.2727273,2.27272727 C15.2727273,1.41818182 15.9636364,0.727272727 16.8181818,0.727272727 C17.6727273,0.727272727 18.3636364,1.41818182 18.3636364,2.27272727 L18.3636364,2.72727273 L18.3636364,2.72727273 Z M16.2909091,10 C16.3272727,10.3 16.3636364,10.6 16.3636364,10.9090909 C16.3636364,12.8 15.6363636,14.5181818 14.4545455,15.8090909 C14.2181818,15.0727273 13.5454545,14.5454545 12.7272727,14.5454545 L11.8181818,14.5454545 L11.8181818,11.8181818 C11.8181818,11.3181818 11.4090909,10.9090909 10.9090909,10.9090909 L5.45454545,10.9090909 L5.45454545,9.09090909 L7.27272727,9.09090909 C7.77272727,9.09090909 8.18181818,8.68181818 8.18181818,8.18181818 L8.18181818,6.36363636 L10,6.36363636 C11,6.36363636 11.8181818,5.54545455 11.8181818,4.54545455 L11.8181818,2.23636364 C10.9545455,1.96363636 10.0454545,1.81818182 9.09090909,1.81818182 C4.07272727,1.81818182 0,5.89090909 0,10.9090909 C0,15.9272727 4.07272727,20 9.09090909,20 C14.1090909,20 18.1818182,15.9272727 18.1818182,10.9090909 C18.1818182,10.6 18.1636364,10.3 18.1363636,10 L16.2909091,10 L16.2909091,10 Z M8.18181818,18.1181818 C4.59090909,17.6727273 1.81818182,14.6181818 1.81818182,10.9090909 C1.81818182,10.3454545 1.89090909,9.80909091 2.00909091,9.28181818 L6.36363636,13.6363636 L6.36363636,14.5454545 C6.36363636,15.5454545 7.18181818,16.3636364 8.18181818,16.3636364 L8.18181818,18.1181818 L8.18181818,18.1181818 Z"/>
    <rect id="ic-all-collect-A" width="50" height="50" x="0" y="0"/>
    <path id="ic-all-collect-B" d="M19.0909091,2.72727273 L19.0909091,2.27272727 C19.0909091,1.01818182 18.0727273,0 16.8181818,0 C15.5636364,0 14.5454545,1.01818182 14.5454545,2.27272727 L14.5454545,2.72727273 C14.0454545,2.72727273 13.6363636,3.13636364 13.6363636,3.63636364 L13.6363636,7.27272727 C13.6363636,7.77272727 14.0454545,8.18181818 14.5454545,8.18181818 L19.0909091,8.18181818 C19.5909091,8.18181818 20,7.77272727 20,7.27272727 L20,3.63636364 C20,3.13636364 19.5909091,2.72727273 19.0909091,2.72727273 L19.0909091,2.72727273 Z M18.3636364,2.72727273 L15.2727273,2.72727273 L15.2727273,2.27272727 C15.2727273,1.41818182 15.9636364,0.727272727 16.8181818,0.727272727 C17.6727273,0.727272727 18.3636364,1.41818182 18.3636364,2.27272727 L18.3636364,2.72727273 L18.3636364,2.72727273 Z M16.2909091,10 C16.3272727,10.3 16.3636364,10.6 16.3636364,10.9090909 C16.3636364,12.8 15.6363636,14.5181818 14.4545455,15.8090909 C14.2181818,15.0727273 13.5454545,14.5454545 12.7272727,14.5454545 L11.8181818,14.5454545 L11.8181818,11.8181818 C11.8181818,11.3181818 11.4090909,10.9090909 10.9090909,10.9090909 L5.45454545,10.9090909 L5.45454545,9.09090909 L7.27272727,9.09090909 C7.77272727,9.09090909 8.18181818,8.68181818 8.18181818,8.18181818 L8.18181818,6.36363636 L10,6.36363636 C11,6.36363636 11.8181818,5.54545455 11.8181818,4.54545455 L11.8181818,2.23636364 C10.9545455,1.96363636 10.0454545,1.81818182 9.09090909,1.81818182 C4.07272727,1.81818182 0,5.89090909 0,10.9090909 C0,15.9272727 4.07272727,20 9.09090909,20 C14.1090909,20 18.1818182,15.9272727 18.1818182,10.9090909 C18.1818182,10.6 18.1636364,10.3 18.1363636,10 L16.2909091,10 L16.2909091,10 Z M8.18181818,18.1181818 C4.59090909,17.6727273 1.81818182,14.6181818 1.81818182,10.9090909 C1.81818182,10.3454545 1.89090909,9.80909091 2.00909091,9.28181818 L6.36363636,13.6363636 L6.36363636,14.5454545 C6.36363636,15.5454545 7.18181818,16.3636364 8.18181818,16.3636364 L8.18181818,18.1181818 L8.18181818,18.1181818 Z"/>
    <rect id="ic-all-collect-D" width="50" height="50" x="0" y="0"/>
    <path id="ic-all-collect-E" d="M9.09090909,0.818181818 C9.22660264,0.818181818 9.36137763,0.821121176 9.49523408,0.826947661 C9.17598241,1.59372095 9,2.43539994 9,3.31818182 C9,4.03286609 9.1153429,4.72061058 9.328429,5.36381559 L8.18181818,5.36363636 L8.18181818,7.18181818 C8.18181818,7.68181818 7.77272727,8.09090909 7.27272727,8.09090909 L7.27272727,8.09090909 L5.45454545,8.09090909 L5.45454545,9.90909091 L10.9090909,9.90909091 C11.4090909,9.90909091 11.8181818,10.3181818 11.8181818,10.8181818 L11.8181818,10.8181818 L11.8181818,13.5454545 L12.7272727,13.5454545 C13.5454545,13.5454545 14.2181818,14.0727273 14.4545455,14.8090909 C15.6363636,13.5181818 16.3636364,11.8 16.3636364,9.90909091 C16.3636364,9.85959596 16.3627039,9.81033412 16.3609884,9.76126806 C16.9910882,9.67850307 17.5948167,9.50412737 18.1563192,9.2523979 C18.1723684,9.46814986 18.1818182,9.68625793 18.1818182,9.90909091 C18.1818182,14.9272727 14.1090909,19 9.09090909,19 C4.07272727,19 0,14.9272727 0,9.90909091 C0,4.89090909 4.07272727,0.818181818 9.09090909,0.818181818 Z M2.00909091,8.28181818 C1.89090909,8.80909091 1.81818182,9.34545455 1.81818182,9.90909091 C1.81818182,13.6181818 4.59090909,16.6727273 8.18181818,17.1181818 L8.18181818,17.1181818 L8.18181818,15.3636364 C7.18181818,15.3636364 6.36363636,14.5454545 6.36363636,13.5454545 L6.36363636,13.5454545 L6.36363636,12.6363636 Z"/>
    <rect id="ic-all-collect-G" width="50" height="50" x="0" y="0"/>
    <path id="ic-all-collect-H" d="M21,3 L21,2.5 C21,1.12 19.88,0 18.5,0 C17.12,0 16,1.12 16,2.5 L16,3 C15.45,3 15,3.45 15,4 L15,8 C15,8.55 15.45,9 16,9 L21,9 C21.55,9 22,8.55 22,8 L22,4 C22,3.45 21.55,3 21,3 L21,3 Z M20.2,3 L16.8,3 L16.8,2.5 C16.8,1.56 17.56,0.8 18.5,0.8 C19.44,0.8 20.2,1.56 20.2,2.5 L20.2,3 L20.2,3 Z M17.92,11 C17.96,11.33 18,11.66 18,12 C18,14.08 17.2,15.97 15.9,17.39 C15.64,16.58 14.9,16 14,16 L13,16 L13,13 C13,12.45 12.55,12 12,12 L6,12 L6,10 L8,10 C8.55,10 9,9.55 9,9 L9,7 L11,7 C12.1,7 13,6.1 13,5 L13,2.46 C12.05,2.16 11.05,2 10,2 C4.48,2 0,6.48 0,12 C0,17.52 4.48,22 10,22 C15.52,22 20,17.52 20,12 C20,11.66 19.98,11.33 19.95,11 L17.92,11 L17.92,11 Z M9,19.93 C5.05,19.44 2,16.08 2,12 C2,11.38 2.08,10.79 2.21,10.21 L7,15 L7,16 C7,17.1 7.9,18 9,18 L9,19.93 L9,19.93 Z"/>
    <rect id="ic-all-collect-J" width="50" height="50" x="0" y="0"/>
    <path id="ic-all-collect-K" d="M11,5 L9,5 L9,9 L5,9 L5,11 L9,11 L9,15 L11,15 L11,11 L15,11 L15,9 L11,9 L11,5 L11,5 Z M10,0 C4.48,0 0,4.48 0,10 C0,15.52 4.48,20 10,20 C15.52,20 20,15.52 20,10 C20,4.48 15.52,0 10,0 L10,0 Z M10,18 C5.59,18 2,14.41 2,10 C2,5.59 5.59,2 10,2 C14.41,2 18,5.59 18,10 C18,14.41 14.41,18 10,18 L10,18 Z"/>
    <rect id="ic-all-collect-M" width="50" height="50" x="0" y="0"/>
    <path id="ic-all-collect-N" d="M11,5 L9,5 L9,9 L5,9 L5,11 L9,11 L9,15 L11,15 L11,11 L15,11 L15,9 L11,9 L11,5 L11,5 Z M10,0 C4.48,0 0,4.48 0,10 C0,15.52 4.48,20 10,20 C15.52,20 20,15.52 20,10 C20,4.48 15.52,0 10,0 L10,0 Z M10,18 C5.59,18 2,14.41 2,10 C2,5.59 5.59,2 10,2 C14.41,2 18,5.59 18,10 C18,14.41 14.41,18 10,18 L10,18 Z"/>
    <rect id="ic-all-collect-P" width="50" height="50" x="0" y="0"/>
    <path id="ic-all-collect-Q" d="M0,14.25 L0,18 L3.75,18 L14.81,6.94 L11.06,3.19 L0,14.25 L0,14.25 Z M17.71,4.04 C18.1,3.65 18.1,3.02 17.71,2.63 L15.37,0.29 C14.98,-0.1 14.35,-0.1 13.96,0.29 L12.13,2.12 L15.88,5.87 L17.71,4.04 L17.71,4.04 Z"/>
    <rect id="ic-all-collect-S" width="50" height="50" x="0" y="0"/>
    <path id="ic-all-collect-T" d="M0,14.25 L0,18 L3.75,18 L14.81,6.94 L11.06,3.19 L0,14.25 L0,14.25 Z M17.71,4.04 C18.1,3.65 18.1,3.02 17.71,2.63 L15.37,0.29 C14.98,-0.1 14.35,-0.1 13.96,0.29 L12.13,2.12 L15.88,5.87 L17.71,4.04 L17.71,4.04 Z"/>
    <rect id="ic-all-collect-V" width="50" height="50" x="0" y="0"/>
    <path id="ic-all-collect-W" d="M10,0 C4.47,0 0,4.47 0,10 C0,15.53 4.47,20 10,20 C15.53,20 20,15.53 20,10 C20,4.47 15.53,0 10,0 L10,0 Z M15,13.59 L13.59,15 L10,11.41 L6.41,15 L5,13.59 L8.59,10 L5,6.41 L6.41,5 L10,8.59 L13.59,5 L15,6.41 L11.41,10 L15,13.59 L15,13.59 Z"/>
    <rect id="ic-all-collect-Y" width="50" height="50" x="0" y="0"/>
    <path id="ic-all-collect-Z" d="M10,0 C4.47,0 0,4.47 0,10 C0,15.53 4.47,20 10,20 C15.53,20 20,15.53 20,10 C20,4.47 15.53,0 10,0 L10,0 Z M15,13.59 L13.59,15 L10,11.41 L6.41,15 L5,13.59 L8.59,10 L5,6.41 L6.41,5 L10,8.59 L13.59,5 L15,6.41 L11.41,10 L15,13.59 L15,13.59 Z"/>
    <rect id="ic-all-collect-ab" width="50" height="50" x="0" y="0"/>
    <path id="ic-all-collect-ac" d="M1,16 C1,17.1 1.9,18 3,18 L11,18 C12.1,18 13,17.1 13,16 L13,4 L1,4 L1,16 L1,16 Z M14,1 L10.5,1 L9.5,0 L4.5,0 L3.5,1 L0,1 L0,3 L14,3 L14,1 L14,1 Z"/>
    <rect id="ic-all-collect-ae" width="50" height="50" x="0" y="0"/>
    <path id="ic-all-collect-af" d="M1,16 C1,17.1 1.9,18 3,18 L11,18 C12.1,18 13,17.1 13,16 L13,4 L1,4 L1,16 L1,16 Z M14,1 L10.5,1 L9.5,0 L4.5,0 L3.5,1 L0,1 L0,3 L14,3 L14,1 L14,1 Z"/>
    <rect id="ic-all-collect-ah" width="50" height="50" x="0" y="0"/>
    <path id="ic-all-collect-ai" d="M11,0.5 C6,0.5 1.73,3.61 0,8 C1.73,12.39 6,15.5 11,15.5 C16,15.5 20.27,12.39 22,8 C20.27,3.61 16,0.5 11,0.5 L11,0.5 Z M11,13 C8.24,13 6,10.76 6,8 C6,5.24 8.24,3 11,3 C13.76,3 16,5.24 16,8 C16,10.76 13.76,13 11,13 L11,13 Z M11,5 C9.34,5 8,6.34 8,8 C8,9.66 9.34,11 11,11 C12.66,11 14,9.66 14,8 C14,6.34 12.66,5 11,5 L11,5 Z"/>
    <rect id="ic-all-collect-ak" width="50" height="50" x="0" y="0"/>
    <path id="ic-all-collect-al" d="M11,0.5 C6,0.5 1.73,3.61 0,8 C1.73,12.39 6,15.5 11,15.5 C16,15.5 20.27,12.39 22,8 C20.27,3.61 16,0.5 11,0.5 L11,0.5 Z M11,13 C8.24,13 6,10.76 6,8 C6,5.24 8.24,3 11,3 C13.76,3 16,5.24 16,8 C16,10.76 13.76,13 11,13 L11,13 Z M11,5 C9.34,5 8,6.34 8,8 C8,9.66 9.34,11 11,11 C12.66,11 14,9.66 14,8 C14,6.34 12.66,5 11,5 L11,5 Z"/>
    <rect id="ic-all-collect-an" width="50" height="50" x="0" y="0"/>
    <path id="ic-all-collect-ao" d="M11,4 C13.76,4 16,6.24 16,9 C16,9.65 15.87,10.26 15.64,10.83 L18.56,13.75 C20.07,12.49 21.26,10.86 21.99,9 C20.26,4.61 15.99,1.5 10.99,1.5 C9.59,1.5 8.25,1.75 7.01,2.2 L9.17,4.36 C9.74,4.13 10.35,4 11,4 L11,4 Z M1,1.27 L3.28,3.55 L3.74,4.01 C2.08,5.3 0.78,7.02 0,9 C1.73,13.39 6,16.5 11,16.5 C12.55,16.5 14.03,16.2 15.38,15.66 L15.8,16.08 L18.73,19 L20,17.73 L2.27,0 L1,1.27 L1,1.27 Z M6.53,6.8 L8.08,8.35 C8.03,8.56 8,8.78 8,9 C8,10.66 9.34,12 11,12 C11.22,12 11.44,11.97 11.65,11.92 L13.2,13.47 C12.53,13.8 11.79,14 11,14 C8.24,14 6,11.76 6,9 C6,8.21 6.2,7.47 6.53,6.8 L6.53,6.8 Z M10.84,6.02 L13.99,9.17 L14.01,9.01 C14.01,7.35 12.67,6.01 11.01,6.01 L10.84,6.02 L10.84,6.02 Z"/>
    <rect id="ic-all-collect-aq" width="50" height="50" x="0" y="0"/>
    <path id="ic-all-collect-ar" d="M11,4 C13.76,4 16,6.24 16,9 C16,9.65 15.87,10.26 15.64,10.83 L18.56,13.75 C20.07,12.49 21.26,10.86 21.99,9 C20.26,4.61 15.99,1.5 10.99,1.5 C9.59,1.5 8.25,1.75 7.01,2.2 L9.17,4.36 C9.74,4.13 10.35,4 11,4 L11,4 Z M1,1.27 L3.28,3.55 L3.74,4.01 C2.08,5.3 0.78,7.02 0,9 C1.73,13.39 6,16.5 11,16.5 C12.55,16.5 14.03,16.2 15.38,15.66 L15.8,16.08 L18.73,19 L20,17.73 L2.27,0 L1,1.27 L1,1.27 Z M6.53,6.8 L8.08,8.35 C8.03,8.56 8,8.78 8,9 C8,10.66 9.34,12 11,12 C11.22,12 11.44,11.97 11.65,11.92 L13.2,13.47 C12.53,13.8 11.79,14 11,14 C8.24,14 6,11.76 6,9 C6,8.21 6.2,7.47 6.53,6.8 L6.53,6.8 Z M10.84,6.02 L13.99,9.17 L14.01,9.01 C14.01,7.35 12.67,6.01 11.01,6.01 L10.84,6.02 L10.84,6.02 Z"/>
    <rect id="ic-all-collect-at" width="50" height="50" x="0" y="0"/>
    <path id="ic-all-collect-au" d="M9,16 L11,16 L11,14 L9,14 L9,16 L9,16 Z M10,0 C4.48,0 0,4.48 0,10 C0,15.52 4.48,20 10,20 C15.52,20 20,15.52 20,10 C20,4.48 15.52,0 10,0 L10,0 Z M10,18 C5.59,18 2,14.41 2,10 C2,5.59 5.59,2 10,2 C14.41,2 18,5.59 18,10 C18,14.41 14.41,18 10,18 L10,18 Z M10,4 C7.79,4 6,5.79 6,8 L8,8 C8,6.9 8.9,6 10,6 C11.1,6 12,6.9 12,8 C12,10 9,9.75 9,13 L11,13 C11,10.75 14,10.5 14,8 C14,5.79 12.21,4 10,4 L10,4 Z"/>
    <rect id="ic-all-collect-aw" width="50" height="50" x="0" y="0"/>
    <path id="ic-all-collect-ax" d="M9,16 L11,16 L11,14 L9,14 L9,16 L9,16 Z M10,0 C4.48,0 0,4.48 0,10 C0,15.52 4.48,20 10,20 C15.52,20 20,15.52 20,10 C20,4.48 15.52,0 10,0 L10,0 Z M10,18 C5.59,18 2,14.41 2,10 C2,5.59 5.59,2 10,2 C14.41,2 18,5.59 18,10 C18,14.41 14.41,18 10,18 L10,18 Z M10,4 C7.79,4 6,5.79 6,8 L8,8 C8,6.9 8.9,6 10,6 C11.1,6 12,6.9 12,8 C12,10 9,9.75 9,13 L11,13 C11,10.75 14,10.5 14,8 C14,5.79 12.21,4 10,4 L10,4 Z"/>
    <rect id="ic-all-collect-az" width="50" height="50" x="0" y="0"/>
    <path id="ic-all-collect-aA" d="M2,0 C0.9,0 0.01,0.9 0.01,2 L0,18 C0,19.1 0.89,20 1.99,20 L14,20 C15.1,20 16,19.1 16,18 L16,6 L10,0 L2,0 L2,0 Z M9,7 L9,1.5 L14.5,7 L9,7 L9,7 Z"/>
    <rect id="ic-all-collect-aC" width="50" height="50" x="0" y="0"/>
    <path id="ic-all-collect-aD" d="M16,16 L2,16 L2,2 L9,2 L9,0 L2,0 C0.89,0 0,0.9 0,2 L0,16 C0,17.1 0.89,18 2,18 L16,18 C17.1,18 18,17.1 18,16 L18,9 L16,9 L16,16 L16,16 Z M11,0 L11,2 L14.59,2 L4.76,11.83 L6.17,13.24 L16,3.41 L16,7 L18,7 L18,0 L11,0 L11,0 Z"/>
    <rect id="ic-all-collect-aF" width="50" height="50" x="0" y="0"/>
    <path id="ic-all-collect-aG" d="M23.2385632,4.03349797 C23.6588763,4.03349797 24,4.36927428 24,4.78033139 L24,4.78033139 L24,14.2525691 C24,14.6648212 23.6588763,14.9994025 23.2385632,14.9994025 L23.2385632,14.9994025 L16.7133546,14.9994025 C16.2930415,14.9994025 15.9519178,14.6648212 15.9519178,14.2525691 L15.9519178,14.2525691 L15.9519178,4.78033139 C15.9519178,4.36927428 16.2930415,4.03349797 16.7133546,4.03349797 L16.7133546,4.03349797 Z M21.292209,-1.77635684e-15 C21.7125221,-1.77635684e-15 22.0536458,0.334581375 22.0536458,0.746833426 C22.0536458,1.15908548 21.7125221,1.49366685 21.292209,1.49366685 L21.292209,1.49366685 L5.11076367,1.49366685 C4.33227071,1.49366685 3.69753701,2.11503226 3.69753701,2.87978969 L3.69753701,2.87978969 L3.69753701,12.4392575 L13.3537737,12.4392575 L13.3537737,15 L1.30479807,15 C0.584783447,15 -8.52651283e-14,14.425237 -8.52651283e-14,13.7190313 C-8.52651283e-14,13.0128256 0.584783447,12.4392575 1.30479807,12.4392575 L1.30479807,12.4392575 L2.17466344,12.4392575 L2.17466344,1.81271409 C2.17466344,0.813749701 3.00432496,-1.77635684e-15 4.0240411,-1.77635684e-15 L4.0240411,-1.77635684e-15 Z M22.4759081,5.52716482 L17.4747914,5.52716482 L17.4747914,13.6156457 L22.4759081,13.6156457 L22.4759081,5.52716482 Z"/>
    <rect id="ic-all-collect-aI" width="50" height="50" x="0" y="0"/>
    <path id="ic-all-collect-aJ" d="M281,218 L279,218 L279,227 L266,227 L266,229 C266,229.55 266.45,230 267,230 L278,230 L282,234 L282,219 C282,218.45 281.55,218 281,218 L281,218 Z M277,224 L277,215 C277,214.45 276.55,214 276,214 L263,214 C262.45,214 262,214.45 262,215 L262,229 L266,225 L276,225 C276.55,225 277,224.55 277,224 L277,224 Z"/>
    <path id="ic-all-collect-aK" d="M10,0 C4.48,0 0,4.48 0,10 C0,15.52 4.48,20 10,20 C15.52,20 20,15.52 20,10 C20,4.48 15.52,0 10,0 L10,0 Z M11,15 L9,15 L9,13 L11,13 L11,15 L11,15 Z M11,11 L9,11 L9,5 L11,5 L11,11 L11,11 Z"/>
    <rect id="ic-all-collect-aM" width="50" height="50" x="0" y="0"/>
    <path id="ic-all-collect-aN" d="M13.3333333,4 L8,4 L6.66666667,2.66666667 L2.66666667,2.66666667 C1.92666667,2.66666667 1.34,3.26 1.34,4 L1.33333333,12 C1.33333333,12.74 1.92666667,13.3333333 2.66666667,13.3333333 L13.3333333,13.3333333 C14.0733333,13.3333333 14.6666667,12.74 14.6666667,12 L14.6666667,5.33333333 C14.6666667,4.59333333 14.0733333,4 13.3333333,4 L13.3333333,4 Z M12.6666667,9.33333333 L10.6666667,9.33333333 L10.6666667,11.3333333 L9.33333333,11.3333333 L9.33333333,9.33333333 L7.33333333,9.33333333 L7.33333333,8 L9.33333333,8 L9.33333333,6 L10.6666667,6 L10.6666667,8 L12.6666667,8 L12.6666667,9.33333333 L12.6666667,9.33333333 Z"/>
    <rect id="ic-all-collect-aP" width="33.333" height="33.333" x="0" y="0"/>
    <path id="ic-all-collect-aQ" d="M14.6666667,2.66666667 L14.6666667,2.33333333 C14.6666667,1.41333333 13.92,0.666666667 13,0.666666667 C12.08,0.666666667 11.3333333,1.41333333 11.3333333,2.33333333 L11.3333333,2.66666667 C10.9666667,2.66666667 10.6666667,2.96666667 10.6666667,3.33333333 L10.6666667,6 C10.6666667,6.36666667 10.9666667,6.66666667 11.3333333,6.66666667 L14.6666667,6.66666667 C15.0333333,6.66666667 15.3333333,6.36666667 15.3333333,6 L15.3333333,3.33333333 C15.3333333,2.96666667 15.0333333,2.66666667 14.6666667,2.66666667 L14.6666667,2.66666667 Z M14.1333333,2.66666667 L11.8666667,2.66666667 L11.8666667,2.33333333 C11.8666667,1.70666667 12.3733333,1.2 13,1.2 C13.6266667,1.2 14.1333333,1.70666667 14.1333333,2.33333333 L14.1333333,2.66666667 L14.1333333,2.66666667 Z M12.6133333,8 C12.64,8.22 12.6666667,8.44 12.6666667,8.66666667 C12.6666667,10.0533333 12.1333333,11.3133333 11.2666667,12.26 C11.0933333,11.72 10.6,11.3333333 10,11.3333333 L9.33333333,11.3333333 L9.33333333,9.33333333 C9.33333333,8.96666667 9.03333333,8.66666667 8.66666667,8.66666667 L4.66666667,8.66666667 L4.66666667,7.33333333 L6,7.33333333 C6.36666667,7.33333333 6.66666667,7.03333333 6.66666667,6.66666667 L6.66666667,5.33333333 L8,5.33333333 C8.73333333,5.33333333 9.33333333,4.73333333 9.33333333,4 L9.33333333,2.30666667 C8.7,2.10666667 8.03333333,2 7.33333333,2 C3.65333333,2 0.666666667,4.98666667 0.666666667,8.66666667 C0.666666667,12.3466667 3.65333333,15.3333333 7.33333333,15.3333333 C11.0133333,15.3333333 14,12.3466667 14,8.66666667 C14,8.44 13.9866667,8.22 13.9666667,8 L12.6133333,8 L12.6133333,8 Z M6.66666667,13.9533333 C4.03333333,13.6266667 2,11.3866667 2,8.66666667 C2,8.25333333 2.05333333,7.86 2.14,7.47333333 L5.33333333,10.6666667 L5.33333333,11.3333333 C5.33333333,12.0666667 5.93333333,12.6666667 6.66666667,12.6666667 L6.66666667,13.9533333 L6.66666667,13.9533333 Z"/>
    <rect id="ic-all-collect-aS" width="33.333" height="33.333" x="0" y="0"/>
    <path id="ic-all-collect-aT" d="M8.43333333,6.66666667 C7.88666667,5.11333333 6.40666667,4 4.66666667,4 C2.46,4 0.666666667,5.79333333 0.666666667,8 C0.666666667,10.2066667 2.46,12 4.66666667,12 C6.40666667,12 7.88666667,10.8866667 8.43333333,9.33333333 L11.3333333,9.33333333 L11.3333333,12 L14,12 L14,9.33333333 L15.3333333,9.33333333 L15.3333333,6.66666667 L8.43333333,6.66666667 L8.43333333,6.66666667 Z M4.66666667,9.33333333 C3.93333333,9.33333333 3.33333333,8.73333333 3.33333333,8 C3.33333333,7.26666667 3.93333333,6.66666667 4.66666667,6.66666667 C5.4,6.66666667 6,7.26666667 6,8 C6,8.73333333 5.4,9.33333333 4.66666667,9.33333333 L4.66666667,9.33333333 Z"/>
    <rect id="ic-all-collect-aV" width="33.333" height="33.333" x="0" y="0"/>
    <path id="ic-all-collect-aW" d="M14,4 L12.6666667,4 L12.6666667,10 L4,10 L4,11.3333333 C4,11.7 4.3,12 4.66666667,12 L12,12 L14.6666667,14.6666667 L14.6666667,4.66666667 C14.6666667,4.3 14.3666667,4 14,4 L14,4 Z M11.3333333,8 L11.3333333,2 C11.3333333,1.63333333 11.0333333,1.33333333 10.6666667,1.33333333 L2,1.33333333 C1.63333333,1.33333333 1.33333333,1.63333333 1.33333333,2 L1.33333333,11.3333333 L4,8.66666667 L10.6666667,8.66666667 C11.0333333,8.66666667 11.3333333,8.36666667 11.3333333,8 L11.3333333,8 Z"/>
    <rect id="ic-all-collect-aY" width="33.333" height="33.333" x="0" y="0"/>
    <path id="ic-all-collect-aZ" d="M12,2 C6.48,2 2,6.48 2,12 C2,17.52 6.48,22 12,22 C17.52,22 22,17.52 22,12 C22,6.48 17.52,2 12,2 L12,2 Z M11,16 L9,16 L9,8 L11,8 L11,16 L11,16 Z M15,16 L13,16 L13,8 L15,8 L15,16 L15,16 Z"/>
    <rect id="ic-all-collect-bb" width="50" height="50" x="0" y="0"/>
    <path id="ic-all-collect-bc" d="M4.5,0 C2.016,0 0,2.016 0,4.5 C0,6.984 2.016,9 4.5,9 C6.984,9 9,6.984 9,4.5 C9,2.016 6.984,0 4.5,0 L4.5,0 Z M4.05,6.3 L3.15,6.3 L3.15,2.7 L4.05,2.7 L4.05,6.3 L4.05,6.3 Z M5.85,6.3 L4.95,6.3 L4.95,2.7 L5.85,2.7 L5.85,6.3 L5.85,6.3 Z"/>
    <rect id="ic-all-collect-be" width="22.5" height="22.5" x="0" y="0"/>
    <path id="ic-all-collect-bf" d="M9.09090909,0.818181818 C9.22660264,0.818181818 9.36137763,0.821121176 9.49523408,0.826947661 C9.17598241,1.59372095 9,2.43539994 9,3.31818182 C9,4.03286609 9.1153429,4.72061058 9.328429,5.36381559 L8.18181818,5.36363636 L8.18181818,7.18181818 C8.18181818,7.68181818 7.77272727,8.09090909 7.27272727,8.09090909 L7.27272727,8.09090909 L5.45454545,8.09090909 L5.45454545,9.90909091 L10.9090909,9.90909091 C11.4090909,9.90909091 11.8181818,10.3181818 11.8181818,10.8181818 L11.8181818,10.8181818 L11.8181818,13.5454545 L12.7272727,13.5454545 C13.5454545,13.5454545 14.2181818,14.0727273 14.4545455,14.8090909 C15.6363636,13.5181818 16.3636364,11.8 16.3636364,9.90909091 C16.3636364,9.85959596 16.3627039,9.81033412 16.3609884,9.76126806 C16.9910882,9.67850307 17.5948167,9.50412737 18.1563192,9.2523979 C18.1723684,9.46814986 18.1818182,9.68625793 18.1818182,9.90909091 C18.1818182,14.9272727 14.1090909,19 9.09090909,19 C4.07272727,19 0,14.9272727 0,9.90909091 C0,4.89090909 4.07272727,0.818181818 9.09090909,0.818181818 Z M2.00909091,8.28181818 C1.89090909,8.80909091 1.81818182,9.34545455 1.81818182,9.90909091 C1.81818182,13.6181818 4.59090909,16.6727273 8.18181818,17.1181818 L8.18181818,17.1181818 L8.18181818,15.3636364 C7.18181818,15.3636364 6.36363636,14.5454545 6.36363636,13.5454545 L6.36363636,13.5454545 L6.36363636,12.6363636 Z"/>
    <rect id="ic-all-collect-bh" width="50" height="50" x="0" y="0"/>
    <path id="ic-all-collect-bi" d="M4.5,0 C2.016,0 0,2.016 0,4.5 C0,6.984 2.016,9 4.5,9 C6.984,9 9,6.984 9,4.5 C9,2.016 6.984,0 4.5,0 L4.5,0 Z M4.05,6.3 L3.15,6.3 L3.15,2.7 L4.05,2.7 L4.05,6.3 L4.05,6.3 Z M5.85,6.3 L4.95,6.3 L4.95,2.7 L5.85,2.7 L5.85,6.3 L5.85,6.3 Z"/>
    <rect id="ic-all-collect-bk" width="22.5" height="22.5" x="0" y="0"/>
    <path id="ic-all-collect-bl" d="M9.09090909,0.818181818 C9.22660264,0.818181818 9.36137763,0.821121176 9.49523408,0.826947661 C9.17598241,1.59372095 9,2.43539994 9,3.31818182 C9,4.03286609 9.1153429,4.72061058 9.328429,5.36381559 L8.18181818,5.36363636 L8.18181818,7.18181818 C8.18181818,7.68181818 7.77272727,8.09090909 7.27272727,8.09090909 L7.27272727,8.09090909 L5.45454545,8.09090909 L5.45454545,9.90909091 L10.9090909,9.90909091 C11.4090909,9.90909091 11.8181818,10.3181818 11.8181818,10.8181818 L11.8181818,10.8181818 L11.8181818,13.5454545 L12.7272727,13.5454545 C13.5454545,13.5454545 14.2181818,14.0727273 14.4545455,14.8090909 C15.6363636,13.5181818 16.3636364,11.8 16.3636364,9.90909091 C16.3636364,9.85959596 16.3627039,9.81033412 16.3609884,9.76126806 C16.9910882,9.67850307 17.5948167,9.50412737 18.1563192,9.2523979 C18.1723684,9.46814986 18.1818182,9.68625793 18.1818182,9.90909091 C18.1818182,14.9272727 14.1090909,19 9.09090909,19 C4.07272727,19 0,14.9272727 0,9.90909091 C0,4.89090909 4.07272727,0.818181818 9.09090909,0.818181818 Z M2.00909091,8.28181818 C1.89090909,8.80909091 1.81818182,9.34545455 1.81818182,9.90909091 C1.81818182,13.6181818 4.59090909,16.6727273 8.18181818,17.1181818 L8.18181818,17.1181818 L8.18181818,15.3636364 C7.18181818,15.3636364 6.36363636,14.5454545 6.36363636,13.5454545 L6.36363636,13.5454545 L6.36363636,12.6363636 Z"/>
    <rect id="ic-all-collect-bn" width="50" height="50" x="0" y="0"/>
    <path id="ic-all-collect-bo" d="M4.5,0 C2.016,0 0,2.016 0,4.5 C0,6.984 2.016,9 4.5,9 C6.984,9 9,6.984 9,4.5 C9,2.016 6.984,0 4.5,0 L4.5,0 Z M4.05,6.3 L3.15,6.3 L3.15,2.7 L4.05,2.7 L4.05,6.3 L4.05,6.3 Z M5.85,6.3 L4.95,6.3 L4.95,2.7 L5.85,2.7 L5.85,6.3 L5.85,6.3 Z"/>
    <rect id="ic-all-collect-bq" width="22.5" height="22.5" x="0" y="0"/>
  </defs>
  <g fill="none" fill-rule="evenodd" transform="translate(-98 -49)">
    <g transform="translate(530 157)">
      <mask id="ic-all-collect-b" fill="#fff">
        <use xlink:href="#ic-all-collect-a"/>
      </mask>
      <g mask="url(#ic-all-collect-b)">
        <use fill="#F0001C" transform="translate(-13 -13)" xlink:href="#ic-all-collect-c"/>
      </g>
    </g>
    <g transform="translate(584 157)">
      <mask id="ic-all-collect-e" fill="#fff">
        <use xlink:href="#ic-all-collect-d"/>
      </mask>
      <g mask="url(#ic-all-collect-e)">
        <use fill="#FA0" transform="translate(-13 -13)" xlink:href="#ic-all-collect-f"/>
      </g>
    </g>
    <g transform="translate(476 103)">
      <mask id="ic-all-collect-h" fill="#fff">
        <use xlink:href="#ic-all-collect-g"/>
      </mask>
      <g mask="url(#ic-all-collect-h)">
        <use fill="#0091FF" transform="translate(-13 -13)" xlink:href="#ic-all-collect-i"/>
      </g>
    </g>
    <g transform="translate(476 49)">
      <mask id="ic-all-collect-k" fill="#fff">
        <use xlink:href="#ic-all-collect-j"/>
      </mask>
      <g mask="url(#ic-all-collect-k)">
        <use fill="#0091FF" fill-opacity=".6" transform="translate(-13 -13)" xlink:href="#ic-all-collect-l"/>
      </g>
    </g>
    <g transform="translate(530 103)">
      <mask id="ic-all-collect-n" fill="#fff">
        <use xlink:href="#ic-all-collect-m"/>
      </mask>
      <g mask="url(#ic-all-collect-n)">
        <use fill="#F0001C" transform="translate(-13 -13)" xlink:href="#ic-all-collect-o"/>
      </g>
    </g>
    <g transform="translate(530 49)">
      <mask id="ic-all-collect-q" fill="#fff">
        <use xlink:href="#ic-all-collect-p"/>
      </mask>
      <g mask="url(#ic-all-collect-q)">
        <use fill="#F0001C" fill-opacity=".6" transform="translate(-13 -13)" xlink:href="#ic-all-collect-r"/>
      </g>
    </g>
    <g transform="translate(584 103)">
      <mask id="ic-all-collect-t" fill="#fff">
        <use xlink:href="#ic-all-collect-s"/>
      </mask>
      <g mask="url(#ic-all-collect-t)">
        <use fill="#FA0" transform="translate(-13 -13)" xlink:href="#ic-all-collect-u"/>
      </g>
    </g>
    <g transform="translate(584 49)">
      <mask id="ic-all-collect-w" fill="#fff">
        <use xlink:href="#ic-all-collect-v"/>
      </mask>
      <g mask="url(#ic-all-collect-w)">
        <use fill="#FA0" fill-opacity=".6" transform="translate(-13 -13)" xlink:href="#ic-all-collect-x"/>
      </g>
    </g>
    <path fill="#EFF6FF" fill-opacity=".6" d="M708.980872,60.9625355 C709.906425,60.9625355 710.770946,61.2167713 711.51529,61.6519778 C711.9551,61.9087184 712.350867,62.2299572 712.691893,62.6031703 C713.501674,63.4898645 714,64.6646091 714,65.958331 C714,68.7167265 711.752498,70.9528742 708.980872,70.9528742 C708.157879,70.9528742 707.383963,70.7524913 706.698135,70.4030736 L706.698135,70.4030736 L704.370095,70.9879412 C704.086326,71.0587014 703.827096,70.8069704 703.892533,70.5226772 L703.892533,70.5226772 L704.05172,69.8357396 L704.187627,69.2489935 L704.364433,68.4831552 L704.388971,68.377328 L704.45315,68.1024278 C704.141067,67.4518096 703.961745,66.7266741 703.961745,65.958331 C703.961745,65.4799169 704.032844,65.0190363 704.159313,64.5806988 C704.237334,64.3095557 704.339265,64.0484318 704.4607,63.7979532 C705.11381,62.445995 706.358367,61.4328091 707.862784,61.091532 C708.119498,61.0332957 708.382503,60.9969763 708.651801,60.9794428 C708.761282,60.9725547 708.869504,60.9625355 708.980872,60.9625355 Z M703.477638,51 C708.703773,51 712.955276,55.2312096 712.955276,60.4323976 C712.955276,60.6265185 712.937659,60.8156298 712.925704,61.0072459 C712.722473,60.8463135 712.508545,60.7010359 712.286437,60.5651512 C712.067475,60.4317714 711.840963,60.3109155 711.606272,60.2038359 C711.603755,60.2025835 711.600609,60.2019573 711.598092,60.2007049 L711.598092,60.2007049 L711.598092,60.0410248 C711.547127,58.9840051 711.294189,57.9802122 710.872625,57.0665915 L710.872625,57.0665915 L708.293534,57.0665915 C708.480407,57.8718802 708.601213,58.7385361 708.645257,59.6490258 C708.379735,59.6628021 708.117988,59.6903547 707.861903,59.7360671 C707.817859,58.7905104 707.685098,57.8925447 707.480608,57.0665915 L707.480608,57.0665915 L703.870888,57.0665915 L703.870888,60.0410248 L706.752624,60.0410248 C706.225354,60.2382767 705.732062,60.5012792 705.281554,60.8237704 L705.281554,60.8237704 L703.870888,60.8237704 L703.870888,62.2114218 C703.553142,62.6397402 703.286991,63.1068827 703.084388,63.6072137 L703.084388,63.6072137 L703.084388,60.8237704 L699.085194,60.8237704 C699.112878,61.88079 699.248156,62.8839568 699.475298,63.7982037 L699.475298,63.7982037 L703.013918,63.7982037 C702.920796,64.0524394 702.840888,64.312311 702.781114,64.5809493 L702.781114,64.5809493 L699.699293,64.5809493 C700.388896,66.7106435 701.589409,68.2147674 702.98875,68.5015654 L702.98875,68.5015654 L702.986862,68.5084536 L702.812574,69.2598894 L702.68233,69.8247186 C697.828052,69.4201957 694,65.3661996 694,60.4323976 C694,55.2312096 698.251504,51 703.477638,51 Z M711.529761,64.1724187 C711.300103,64.1004061 711.040244,64.1473708 710.857776,64.3283416 L710.857776,64.3283416 L710.603579,64.5806988 L710.229205,64.9532857 L708.21199,66.9583668 L707.456321,66.2044263 L707.025319,65.7748555 C706.972466,65.7216288 706.908917,65.6865618 706.845368,65.6552519 C706.595575,65.5331436 706.288526,65.5675844 706.080261,65.7742293 C705.818514,66.0334746 705.818514,66.4549048 706.079002,66.7154026 L706.079002,66.7154026 L706.186596,66.8224822 L706.752246,67.386059 L707.061813,67.6954001 L707.518612,68.1506449 C707.709889,68.3403824 707.960939,68.4361905 708.21199,68.4361905 C708.351043,68.4361905 708.489467,68.4036283 708.618453,68.3447658 C708.709058,68.304063 708.794,68.2483316 708.871392,68.1788238 C708.882088,68.1688046 708.894043,68.1612903 708.904739,68.1512711 L708.904739,68.1512711 L711.234037,65.8355965 L711.802834,65.2701411 C711.982785,65.0910489 712.029975,64.8368131 711.962021,64.6095038 C711.931191,64.5074338 711.88463,64.4097471 711.803463,64.3289678 C711.724184,64.250067 711.629804,64.2037285 711.529761,64.1724187 Z M698.869378,64.5809493 L696.498553,64.5809493 C697.467521,66.1890218 698.9776,67.4339004 700.780258,68.0669851 C699.967332,67.2322652 699.306043,66.0318465 698.869378,64.5809493 L698.869378,64.5809493 Z M698.299323,60.8237704 L695.357184,60.8237704 C695.408149,61.88079 695.661088,62.884583 696.082652,63.7982037 L696.082652,63.7982037 L698.661742,63.7982037 C698.448443,62.8776948 698.324491,61.8770329 698.299323,60.8237704 L698.299323,60.8237704 Z M703.084388,57.0665915 L699.475298,57.0665915 C699.248156,57.9808384 699.112878,58.9840051 699.085194,60.0410248 L699.085194,60.0410248 L703.084388,60.0410248 L703.084388,57.0665915 Z M698.661742,57.0665915 L696.082652,57.0665915 C695.661088,57.9802122 695.408149,58.9840051 695.357184,60.0410248 L695.357184,60.0410248 L698.299323,60.0410248 C698.324491,58.9877623 698.448443,57.9871003 698.661742,57.0665915 L698.661742,57.0665915 Z M703.084388,52.351332 C703.063625,52.3519582 703.042861,52.3532106 703.021468,52.3538368 C701.607656,52.6231013 700.394559,54.1366182 699.699293,56.2838459 L699.699293,56.2838459 L703.084388,56.2838459 Z M700.780258,52.7978101 C698.9776,53.4308947 697.467521,54.6757733 696.498553,56.2838459 L696.498553,56.2838459 L698.869378,56.2838459 C699.306043,54.8329487 699.967332,53.63253 700.780258,52.7978101 Z M703.870888,52.351332 L703.870888,56.2838459 L707.256613,56.2838459 C706.560718,54.1366182 705.34762,52.6231013 703.933808,52.3538368 C703.912415,52.3532106 703.891652,52.3519582 703.870888,52.351332 L703.870888,52.351332 Z M706.175647,52.7984363 C706.987945,53.63253 707.649863,54.8329487 708.085898,56.2838459 L708.085898,56.2838459 L710.456724,56.2838459 C709.487756,54.6757733 707.977676,53.4308947 706.175647,52.7984363 Z"/>
    <path fill="#00FCFF" fill-rule="nonzero" d="M708.980872,114.962536 C709.906425,114.962536 710.770946,115.216771 711.51529,115.651978 C711.9551,115.908718 712.350867,116.229957 712.691893,116.60317 C713.501674,117.489865 714,118.664609 714,119.958331 C714,122.716727 711.752498,124.952874 708.980872,124.952874 C708.157879,124.952874 707.383963,124.752491 706.698135,124.403074 L706.698135,124.403074 L704.370095,124.987941 C704.086326,125.058701 703.827096,124.80697 703.892533,124.522677 L703.892533,124.522677 L704.05172,123.83574 L704.187627,123.248994 L704.364433,122.483155 L704.388971,122.377328 L704.45315,122.102428 C704.141067,121.45181 703.961745,120.726674 703.961745,119.958331 C703.961745,119.479917 704.032844,119.019036 704.159313,118.580699 C704.237334,118.309556 704.339265,118.048432 704.4607,117.797953 C705.11381,116.445995 706.358367,115.432809 707.862784,115.091532 C708.119498,115.033296 708.382503,114.996976 708.651801,114.979443 C708.761282,114.972555 708.869504,114.962536 708.980872,114.962536 Z M703.477638,105 C708.703773,105 712.955276,109.23121 712.955276,114.432398 C712.955276,114.626518 712.937659,114.81563 712.925704,115.007246 C712.722473,114.846313 712.508545,114.701036 712.286437,114.565151 C712.067475,114.431771 711.840963,114.310915 711.606272,114.203836 C711.603755,114.202583 711.600609,114.201957 711.598092,114.200705 L711.598092,114.200705 L711.598092,114.041025 C711.547127,112.984005 711.294189,111.980212 710.872625,111.066591 L710.872625,111.066591 L708.293534,111.066591 C708.480407,111.87188 708.601213,112.738536 708.645257,113.649026 C708.379735,113.662802 708.117988,113.690355 707.861903,113.736067 C707.817859,112.79051 707.685098,111.892545 707.480608,111.066591 L707.480608,111.066591 L703.870888,111.066591 L703.870888,114.041025 L706.752624,114.041025 C706.225354,114.238277 705.732062,114.501279 705.281554,114.82377 L705.281554,114.82377 L703.870888,114.82377 L703.870888,116.211422 C703.553142,116.63974 703.286991,117.106883 703.084388,117.607214 L703.084388,117.607214 L703.084388,114.82377 L699.085194,114.82377 C699.112878,115.88079 699.248156,116.883957 699.475298,117.798204 L699.475298,117.798204 L703.013918,117.798204 C702.920796,118.052439 702.840888,118.312311 702.781114,118.580949 L702.781114,118.580949 L699.699293,118.580949 C700.388896,120.710643 701.589409,122.214767 702.98875,122.501565 L702.98875,122.501565 L702.986862,122.508454 L702.812574,123.259889 L702.68233,123.824719 C697.828052,123.420196 694,119.3662 694,114.432398 C694,109.23121 698.251504,105 703.477638,105 Z M711.529761,118.172419 C711.300103,118.100406 711.040244,118.147371 710.857776,118.328342 L710.857776,118.328342 L710.603579,118.580699 L710.229205,118.953286 L708.21199,120.958367 L707.456321,120.204426 L707.025319,119.774855 C706.972466,119.721629 706.908917,119.686562 706.845368,119.655252 C706.595575,119.533144 706.288526,119.567584 706.080261,119.774229 C705.818514,120.033475 705.818514,120.454905 706.079002,120.715403 L706.079002,120.715403 L706.186596,120.822482 L706.752246,121.386059 L707.061813,121.6954 L707.518612,122.150645 C707.709889,122.340382 707.960939,122.436191 708.21199,122.436191 C708.351043,122.436191 708.489467,122.403628 708.618453,122.344766 C708.709058,122.304063 708.794,122.248332 708.871392,122.178824 C708.882088,122.168805 708.894043,122.16129 708.904739,122.151271 L708.904739,122.151271 L711.234037,119.835597 L711.802834,119.270141 C711.982785,119.091049 712.029975,118.836813 711.962021,118.609504 C711.931191,118.507434 711.88463,118.409747 711.803463,118.328968 C711.724184,118.250067 711.629804,118.203728 711.529761,118.172419 Z M698.869378,118.580949 L696.498553,118.580949 C697.467521,120.189022 698.9776,121.4339 700.780258,122.066985 C699.967332,121.232265 699.306043,120.031847 698.869378,118.580949 L698.869378,118.580949 Z M698.299323,114.82377 L695.357184,114.82377 C695.408149,115.88079 695.661088,116.884583 696.082652,117.798204 L696.082652,117.798204 L698.661742,117.798204 C698.448443,116.877695 698.324491,115.877033 698.299323,114.82377 L698.299323,114.82377 Z M703.084388,111.066591 L699.475298,111.066591 C699.248156,111.980838 699.112878,112.984005 699.085194,114.041025 L699.085194,114.041025 L703.084388,114.041025 L703.084388,111.066591 Z M698.661742,111.066591 L696.082652,111.066591 C695.661088,111.980212 695.408149,112.984005 695.357184,114.041025 L695.357184,114.041025 L698.299323,114.041025 C698.324491,112.987762 698.448443,111.9871 698.661742,111.066591 L698.661742,111.066591 Z M703.084388,106.351332 C703.063625,106.351958 703.042861,106.353211 703.021468,106.353837 C701.607656,106.623101 700.394559,108.136618 699.699293,110.283846 L699.699293,110.283846 L703.084388,110.283846 Z M700.780258,106.79781 C698.9776,107.430895 697.467521,108.675773 696.498553,110.283846 L696.498553,110.283846 L698.869378,110.283846 C699.306043,108.832949 699.967332,107.63253 700.780258,106.79781 Z M703.870888,106.351332 L703.870888,110.283846 L707.256613,110.283846 C706.560718,108.136618 705.34762,106.623101 703.933808,106.353837 C703.912415,106.353211 703.891652,106.351958 703.870888,106.351332 L703.870888,106.351332 Z M706.175647,106.798436 C706.987945,107.63253 707.649863,108.832949 708.085898,110.283846 L708.085898,110.283846 L710.456724,110.283846 C709.487756,108.675773 707.977676,107.430895 706.175647,106.798436 Z"/>
    <path fill="#FF2913" d="M708.980872,168.962536 C709.906425,168.962536 710.770946,169.216771 711.51529,169.651978 C711.9551,169.908718 712.350867,170.229957 712.691893,170.60317 C713.501674,171.489865 714,172.664609 714,173.958331 C714,176.716727 711.752498,178.952874 708.980872,178.952874 C708.157879,178.952874 707.383963,178.752491 706.698135,178.403074 L706.698135,178.403074 L704.370095,178.987941 C704.086326,179.058701 703.827096,178.80697 703.892533,178.522677 L703.892533,178.522677 L704.05172,177.83574 L704.187627,177.248994 L704.364433,176.483155 L704.388971,176.377328 L704.45315,176.102428 C704.141067,175.45181 703.961745,174.726674 703.961745,173.958331 C703.961745,173.479917 704.032844,173.019036 704.159313,172.580699 C704.237334,172.309556 704.339265,172.048432 704.4607,171.797953 C705.11381,170.445995 706.358367,169.432809 707.862784,169.091532 C708.119498,169.033296 708.382503,168.996976 708.651801,168.979443 C708.761282,168.972555 708.869504,168.962536 708.980872,168.962536 Z M703.477638,159 C708.703773,159 712.955276,163.23121 712.955276,168.432398 C712.955276,168.626518 712.937659,168.81563 712.925704,169.007246 C712.722473,168.846313 712.508545,168.701036 712.286437,168.565151 C712.067475,168.431771 711.840963,168.310915 711.606272,168.203836 C711.603755,168.202583 711.600609,168.201957 711.598092,168.200705 L711.598092,168.200705 L711.598092,168.041025 C711.547127,166.984005 711.294189,165.980212 710.872625,165.066591 L710.872625,165.066591 L708.293534,165.066591 C708.480407,165.87188 708.601213,166.738536 708.645257,167.649026 C708.379735,167.662802 708.117988,167.690355 707.861903,167.736067 C707.817859,166.79051 707.685098,165.892545 707.480608,165.066591 L707.480608,165.066591 L703.870888,165.066591 L703.870888,168.041025 L706.752624,168.041025 C706.225354,168.238277 705.732062,168.501279 705.281554,168.82377 L705.281554,168.82377 L703.870888,168.82377 L703.870888,170.211422 C703.553142,170.63974 703.286991,171.106883 703.084388,171.607214 L703.084388,171.607214 L703.084388,168.82377 L699.085194,168.82377 C699.112878,169.88079 699.248156,170.883957 699.475298,171.798204 L699.475298,171.798204 L703.013918,171.798204 C702.920796,172.052439 702.840888,172.312311 702.781114,172.580949 L702.781114,172.580949 L699.699293,172.580949 C700.388896,174.710643 701.589409,176.214767 702.98875,176.501565 L702.98875,176.501565 L702.986862,176.508454 L702.812574,177.259889 L702.68233,177.824719 C697.828052,177.420196 694,173.3662 694,168.432398 C694,163.23121 698.251504,159 703.477638,159 Z M711.529761,172.172419 C711.300103,172.100406 711.040244,172.147371 710.857776,172.328342 L710.857776,172.328342 L710.603579,172.580699 L710.229205,172.953286 L708.21199,174.958367 L707.456321,174.204426 L707.025319,173.774855 C706.972466,173.721629 706.908917,173.686562 706.845368,173.655252 C706.595575,173.533144 706.288526,173.567584 706.080261,173.774229 C705.818514,174.033475 705.818514,174.454905 706.079002,174.715403 L706.079002,174.715403 L706.186596,174.822482 L706.752246,175.386059 L707.061813,175.6954 L707.518612,176.150645 C707.709889,176.340382 707.960939,176.436191 708.21199,176.436191 C708.351043,176.436191 708.489467,176.403628 708.618453,176.344766 C708.709058,176.304063 708.794,176.248332 708.871392,176.178824 C708.882088,176.168805 708.894043,176.16129 708.904739,176.151271 L708.904739,176.151271 L711.234037,173.835597 L711.802834,173.270141 C711.982785,173.091049 712.029975,172.836813 711.962021,172.609504 C711.931191,172.507434 711.88463,172.409747 711.803463,172.328968 C711.724184,172.250067 711.629804,172.203728 711.529761,172.172419 Z M698.869378,172.580949 L696.498553,172.580949 C697.467521,174.189022 698.9776,175.4339 700.780258,176.066985 C699.967332,175.232265 699.306043,174.031847 698.869378,172.580949 L698.869378,172.580949 Z M698.299323,168.82377 L695.357184,168.82377 C695.408149,169.88079 695.661088,170.884583 696.082652,171.798204 L696.082652,171.798204 L698.661742,171.798204 C698.448443,170.877695 698.324491,169.877033 698.299323,168.82377 L698.299323,168.82377 Z M703.084388,165.066591 L699.475298,165.066591 C699.248156,165.980838 699.112878,166.984005 699.085194,168.041025 L699.085194,168.041025 L703.084388,168.041025 L703.084388,165.066591 Z M698.661742,165.066591 L696.082652,165.066591 C695.661088,165.980212 695.408149,166.984005 695.357184,168.041025 L695.357184,168.041025 L698.299323,168.041025 C698.324491,166.987762 698.448443,165.9871 698.661742,165.066591 L698.661742,165.066591 Z M703.084388,160.351332 C703.063625,160.351958 703.042861,160.353211 703.021468,160.353837 C701.607656,160.623101 700.394559,162.136618 699.699293,164.283846 L699.699293,164.283846 L703.084388,164.283846 Z M700.780258,160.79781 C698.9776,161.430895 697.467521,162.675773 696.498553,164.283846 L696.498553,164.283846 L698.869378,164.283846 C699.306043,162.832949 699.967332,161.63253 700.780258,160.79781 Z M703.870888,160.351332 L703.870888,164.283846 L707.256613,164.283846 C706.560718,162.136618 705.34762,160.623101 703.933808,160.353837 C703.912415,160.353211 703.891652,160.351958 703.870888,160.351332 L703.870888,160.351332 Z M706.175647,160.798436 C706.987945,161.63253 707.649863,162.832949 708.085898,164.283846 L708.085898,164.283846 L710.456724,164.283846 C709.487756,162.675773 707.977676,161.430895 706.175647,160.798436 Z"/>
    <path fill="#EFF6FF" fill-opacity=".6" d="M709.010235,222.981303 C709.930373,222.981303 710.789836,223.235063 711.529825,223.669456 C711.967063,223.925717 712.360515,224.246355 712.699546,224.61887 C713.504589,225.503906 714,226.676455 714,227.967758 C714,230.720996 711.765646,232.952962 709.010235,232.952962 C708.192056,232.952962 707.422667,232.752954 706.740851,232.40419 L706.740851,232.40419 L704.426431,232.987964 C704.144322,233.058592 703.886608,232.807331 703.951662,232.52357 L703.951662,232.52357 L704.109918,231.837916 L704.24503,231.252267 L704.420801,230.487861 L704.445197,230.382232 L704.508999,230.107845 C704.198742,229.458444 704.020469,228.734664 704.020469,227.967758 C704.020469,227.490238 704.091153,227.030219 704.216882,226.592701 C704.294446,226.322065 704.395781,226.061429 704.516506,225.811419 C705.165794,224.461989 706.403071,223.450697 707.898687,223.110058 C708.153899,223.051931 708.415366,223.015679 708.683088,222.998178 C708.791928,222.991303 708.899518,222.981303 709.010235,222.981303 Z M703.422193,213 C708.617755,213 712.844387,217.223298 712.844387,222.414762 C712.844387,222.60852 712.826872,222.797277 712.814987,222.988535 C712.612945,222.827904 712.400268,222.682898 712.17946,222.547267 C711.961779,222.414137 711.736593,222.293507 711.503274,222.186627 C711.500772,222.185377 711.497644,222.184752 711.495142,222.183502 L711.495142,222.183502 L711.495142,222.024121 C711.444475,220.969077 711.193017,219.967161 710.773919,219.055249 L710.773919,219.055249 L708.209916,219.055249 C708.395695,219.859032 708.515795,220.724067 708.559581,221.632855 C708.295612,221.646605 708.035396,221.674106 707.78081,221.719733 C707.737024,220.775944 707.605039,219.879658 707.401746,219.055249 L707.401746,219.055249 L703.813143,219.055249 L703.813143,222.024121 L706.67802,222.024121 C706.153835,222.221004 705.663428,222.483514 705.215557,222.805403 L705.215557,222.805403 L703.813143,222.805403 L703.813143,224.19046 C703.497256,224.617977 703.232661,225.084246 703.031244,225.583642 L703.031244,225.583642 L703.031244,222.805403 L699.055445,222.805403 C699.082968,223.860446 699.217454,224.861737 699.443267,225.774275 L699.443267,225.774275 L702.961186,225.774275 C702.868609,226.028035 702.789168,226.287421 702.729744,226.555557 L702.729744,226.555557 L699.665952,226.555557 C700.35152,228.681269 701.545011,230.182581 702.936165,230.468842 L702.936165,230.468842 L702.934289,230.475718 L702.76102,231.225748 L702.631537,231.789522 C697.805658,231.385755 694,227.339339 694,222.414762 C694,217.223298 698.226632,213 703.422193,213 Z M698.840892,226.555557 L696.483936,226.555557 C697.447235,228.160623 698.948481,229.403174 700.740593,230.035075 C699.932423,229.201915 699.275002,228.003741 698.840892,226.555557 L698.840892,226.555557 Z M710.900549,226.013088 L709.906399,226.013088 L709.906399,230.005609 L710.900549,230.005609 L710.900549,226.013088 Z M708.415174,226.013088 L707.421024,226.013088 L707.421024,230.005609 L708.415174,230.005609 L708.415174,226.013088 Z M698.274172,222.805403 L695.349245,222.805403 C695.399912,223.860446 695.65137,224.862362 696.070468,225.774275 L696.070468,225.774275 L698.634471,225.774275 C698.42242,224.855487 698.299192,223.856696 698.274172,222.805403 L698.274172,222.805403 Z M703.031244,219.055249 L699.443267,219.055249 C699.217454,219.967786 699.082968,220.969077 699.055445,222.024121 L699.055445,222.024121 L703.031244,222.024121 L703.031244,219.055249 Z M698.634471,219.055249 L696.070468,219.055249 C695.65137,219.967161 695.399912,220.969077 695.349245,222.024121 L695.349245,222.024121 L698.274172,222.024121 C698.299192,220.972827 698.42242,219.974036 698.634471,219.055249 L698.634471,219.055249 Z M703.031244,214.348805 C703.010602,214.34943 702.98996,214.35068 702.968692,214.351305 C701.563151,214.620067 700.35715,216.130754 699.665952,218.273967 L699.665952,218.273967 L703.031244,218.273967 Z M700.740593,214.794449 C698.948481,215.42635 697.447235,216.668901 696.483936,218.273967 L696.483936,218.273967 L698.840892,218.273967 C699.275002,216.825782 699.932423,215.627608 700.740593,214.794449 Z M703.813143,214.348805 L703.813143,218.273967 L707.179061,218.273967 C706.487237,216.130754 705.281236,214.620067 703.875695,214.351305 C703.854427,214.35068 703.833785,214.34943 703.813143,214.348805 L703.813143,214.348805 Z M706.104419,214.795074 C706.911964,215.627608 707.57001,216.825782 708.003495,218.273967 L708.003495,218.273967 L710.360451,218.273967 C709.397151,216.668901 707.895906,215.42635 706.104419,214.795074 Z"/>
    <g transform="translate(640 51)">
      <mask id="ic-all-collect-z" fill="#fff">
        <use xlink:href="#ic-all-collect-y"/>
      </mask>
      <g mask="url(#ic-all-collect-z)">
        <use fill="#EFF6FF" fill-opacity=".6" transform="translate(-15 -15)" xlink:href="#ic-all-collect-A"/>
      </g>
    </g>
    <g transform="translate(640 106)">
      <mask id="ic-all-collect-C" fill="#fff">
        <use xlink:href="#ic-all-collect-B"/>
      </mask>
      <g mask="url(#ic-all-collect-C)">
        <use fill="#00FCFF" fill-rule="nonzero" transform="translate(-14 -14)" xlink:href="#ic-all-collect-D"/>
      </g>
    </g>
    <g transform="matrix(1 0 0 -1 640 232)">
      <mask id="ic-all-collect-F" fill="#fff">
        <use xlink:href="#ic-all-collect-E"/>
      </mask>
      <g mask="url(#ic-all-collect-F)">
        <use fill="#EFF6FF" fill-opacity=".6" fill-rule="nonzero" transform="translate(-14 -15)" xlink:href="#ic-all-collect-G"/>
      </g>
    </g>
    <g transform="translate(639 158)">
      <mask id="ic-all-collect-I" fill="#fff">
        <use xlink:href="#ic-all-collect-H"/>
      </mask>
      <g mask="url(#ic-all-collect-I)">
        <use fill="#FF2913" transform="translate(-14 -14)" xlink:href="#ic-all-collect-J"/>
      </g>
    </g>
    <g transform="translate(100 51)">
      <mask id="ic-all-collect-L" fill="#fff">
        <use xlink:href="#ic-all-collect-K"/>
      </mask>
      <g mask="url(#ic-all-collect-L)">
        <use fill="#EFF6FF" fill-opacity=".6" transform="translate(-15 -15)" xlink:href="#ic-all-collect-M"/>
      </g>
    </g>
    <g transform="translate(100 106)">
      <mask id="ic-all-collect-O" fill="#fff">
        <use xlink:href="#ic-all-collect-N"/>
      </mask>
      <g mask="url(#ic-all-collect-O)">
        <use fill="#EFF6FF" transform="translate(-15 -15)" xlink:href="#ic-all-collect-P"/>
      </g>
    </g>
    <g transform="translate(155 52)">
      <mask id="ic-all-collect-R" fill="#fff">
        <use xlink:href="#ic-all-collect-Q"/>
      </mask>
      <g mask="url(#ic-all-collect-R)">
        <use fill="#EFF6FF" fill-opacity=".6" transform="translate(-16 -16)" xlink:href="#ic-all-collect-S"/>
      </g>
    </g>
    <g transform="translate(155 107)">
      <mask id="ic-all-collect-U" fill="#fff">
        <use xlink:href="#ic-all-collect-T"/>
      </mask>
      <g mask="url(#ic-all-collect-U)">
        <use fill="#EFF6FF" transform="translate(-16 -16)" xlink:href="#ic-all-collect-V"/>
      </g>
    </g>
    <g transform="translate(208 51)">
      <mask id="ic-all-collect-X" fill="#fff">
        <use xlink:href="#ic-all-collect-W"/>
      </mask>
      <g mask="url(#ic-all-collect-X)">
        <use fill="#EFF6FF" fill-opacity=".6" transform="translate(-15 -15)" xlink:href="#ic-all-collect-Y"/>
      </g>
    </g>
    <g transform="translate(208 106)">
      <mask id="ic-all-collect-aa" fill="#fff">
        <use xlink:href="#ic-all-collect-Z"/>
      </mask>
      <g mask="url(#ic-all-collect-aa)">
        <use fill="#EFF6FF" transform="translate(-15 -15)" xlink:href="#ic-all-collect-ab"/>
      </g>
    </g>
    <g transform="translate(265 52)">
      <mask id="ic-all-collect-ad" fill="#fff">
        <use xlink:href="#ic-all-collect-ac"/>
      </mask>
      <g mask="url(#ic-all-collect-ad)">
        <use fill="#EFF6FF" fill-opacity=".6" transform="translate(-18 -16)" xlink:href="#ic-all-collect-ae"/>
      </g>
    </g>
    <g transform="translate(265 107)">
      <mask id="ic-all-collect-ag" fill="#fff">
        <use xlink:href="#ic-all-collect-af"/>
      </mask>
      <g mask="url(#ic-all-collect-ag)">
        <use fill="#EFF6FF" transform="translate(-18 -16)" xlink:href="#ic-all-collect-ah"/>
      </g>
    </g>
    <g transform="translate(315 53)">
      <mask id="ic-all-collect-aj" fill="#fff">
        <use xlink:href="#ic-all-collect-ai"/>
      </mask>
      <g mask="url(#ic-all-collect-aj)">
        <use fill="#EFF6FF" fill-opacity=".6" transform="translate(-14 -17)" xlink:href="#ic-all-collect-ak"/>
      </g>
    </g>
    <g transform="translate(315 108)">
      <mask id="ic-all-collect-am" fill="#fff">
        <use xlink:href="#ic-all-collect-al"/>
      </mask>
      <g mask="url(#ic-all-collect-am)">
        <use fill="#FFF" transform="translate(-14 -17)" xlink:href="#ic-all-collect-an"/>
      </g>
    </g>
    <g transform="translate(369 51)">
      <mask id="ic-all-collect-ap" fill="#fff">
        <use xlink:href="#ic-all-collect-ao"/>
      </mask>
      <g mask="url(#ic-all-collect-ap)">
        <use fill="#EFF6FF" fill-opacity=".6" transform="translate(-14 -15)" xlink:href="#ic-all-collect-aq"/>
      </g>
    </g>
    <g transform="translate(369 106)">
      <mask id="ic-all-collect-as" fill="#fff">
        <use xlink:href="#ic-all-collect-ar"/>
      </mask>
      <g mask="url(#ic-all-collect-as)">
        <use fill="#FFF" transform="translate(-14 -15)" xlink:href="#ic-all-collect-at"/>
      </g>
    </g>
    <g transform="translate(424 51)">
      <mask id="ic-all-collect-av" fill="#fff">
        <use xlink:href="#ic-all-collect-au"/>
      </mask>
      <g mask="url(#ic-all-collect-av)">
        <use fill="#EFF6FF" fill-opacity=".6" transform="translate(-15 -15)" xlink:href="#ic-all-collect-aw"/>
      </g>
    </g>
    <g transform="translate(424 105)">
      <mask id="ic-all-collect-ay" fill="#fff">
        <use xlink:href="#ic-all-collect-ax"/>
      </mask>
      <g mask="url(#ic-all-collect-ay)">
        <use fill="#EFF6FF" transform="translate(-15 -15)" xlink:href="#ic-all-collect-az"/>
      </g>
    </g>
    <g transform="translate(102 214)">
      <mask id="ic-all-collect-aB" fill="#fff">
        <use xlink:href="#ic-all-collect-aA"/>
      </mask>
      <g mask="url(#ic-all-collect-aB)">
        <use fill="#FFF" transform="translate(-17 -15)" xlink:href="#ic-all-collect-aC"/>
      </g>
    </g>
    <g transform="translate(155 215)">
      <mask id="ic-all-collect-aE" fill="#fff">
        <use xlink:href="#ic-all-collect-aD"/>
      </mask>
      <g mask="url(#ic-all-collect-aE)">
        <use fill="#FFF" transform="translate(-16 -16)" xlink:href="#ic-all-collect-aF"/>
      </g>
    </g>
    <g transform="translate(206 216)">
      <mask id="ic-all-collect-aH" fill="#fff">
        <use xlink:href="#ic-all-collect-aG"/>
      </mask>
      <use fill="#5E6470" fill-opacity=".6" xlink:href="#ic-all-collect-aG"/>
      <g mask="url(#ic-all-collect-aH)">
        <use fill="#EFF6FF" transform="translate(-13 -18)" xlink:href="#ic-all-collect-aI"/>
      </g>
    </g>
    <use fill="#FFF" xlink:href="#ic-all-collect-aJ"/>
    <g transform="translate(316 214)">
      <mask id="ic-all-collect-aL" fill="#fff">
        <use xlink:href="#ic-all-collect-aK"/>
      </mask>
      <g mask="url(#ic-all-collect-aL)">
        <use fill="#FF2913" transform="translate(-15 -15)" xlink:href="#ic-all-collect-aM"/>
      </g>
    </g>
    <g transform="translate(102 269)">
      <mask id="ic-all-collect-aO" fill="#fff">
        <use xlink:href="#ic-all-collect-aN"/>
      </mask>
      <g mask="url(#ic-all-collect-aO)">
        <use fill="#FFF" transform="translate(-8.667 -8.667)" xlink:href="#ic-all-collect-aP"/>
      </g>
    </g>
    <g transform="translate(156 269)">
      <mask id="ic-all-collect-aR" fill="#fff">
        <use xlink:href="#ic-all-collect-aQ"/>
      </mask>
      <g mask="url(#ic-all-collect-aR)">
        <use fill="#FFF" transform="translate(-8.667 -8.667)" xlink:href="#ic-all-collect-aS"/>
      </g>
    </g>
    <g transform="translate(210 269)">
      <mask id="ic-all-collect-aU" fill="#fff">
        <use xlink:href="#ic-all-collect-aT"/>
      </mask>
      <g mask="url(#ic-all-collect-aU)">
        <use fill="#FFF" transform="translate(-8.667 -8.667)" xlink:href="#ic-all-collect-aV"/>
      </g>
    </g>
    <g transform="translate(264 269)">
      <mask id="ic-all-collect-aX" fill="#fff">
        <use xlink:href="#ic-all-collect-aW"/>
      </mask>
      <g mask="url(#ic-all-collect-aX)">
        <use fill="#FFF" transform="translate(-8.667 -8.667)" xlink:href="#ic-all-collect-aY"/>
      </g>
    </g>
    <g transform="translate(476 157)">
      <mask id="ic-all-collect-ba" fill="#fff">
        <use xlink:href="#ic-all-collect-aZ"/>
      </mask>
      <g mask="url(#ic-all-collect-ba)">
        <use fill="#0091FF" transform="translate(-13 -13)" xlink:href="#ic-all-collect-bb"/>
      </g>
    </g>
    <g transform="translate(651 224)">
      <mask id="ic-all-collect-bd" fill="#fff">
        <use xlink:href="#ic-all-collect-bc"/>
      </mask>
      <g mask="url(#ic-all-collect-bd)">
        <use fill="#EFF6FF" fill-opacity=".6" transform="translate(-6.75 -6.75)" xlink:href="#ic-all-collect-be"/>
      </g>
    </g>
    <path fill="#00FCFF" d="M709.010235,276.981303 C709.930373,276.981303 710.789836,277.235063 711.529825,277.669456 C711.967063,277.925717 712.360515,278.246355 712.699546,278.61887 C713.504589,279.503906 714,280.676455 714,281.967758 C714,284.720996 711.765646,286.952962 709.010235,286.952962 C708.192056,286.952962 707.422667,286.752954 706.740851,286.40419 L706.740851,286.40419 L704.426431,286.987964 C704.144322,287.058592 703.886608,286.807331 703.951662,286.52357 L703.951662,286.52357 L704.109918,285.837916 L704.24503,285.252267 L704.420801,284.487861 L704.445197,284.382232 L704.508999,284.107845 C704.198742,283.458444 704.020469,282.734664 704.020469,281.967758 C704.020469,281.490238 704.091153,281.030219 704.216882,280.592701 C704.294446,280.322065 704.395781,280.061429 704.516506,279.811419 C705.165794,278.461989 706.403071,277.450697 707.898687,277.110058 C708.153899,277.051931 708.415366,277.015679 708.683088,276.998178 C708.791928,276.991303 708.899518,276.981303 709.010235,276.981303 Z M703.422193,267 C708.617755,267 712.844387,271.223298 712.844387,276.414762 C712.844387,276.60852 712.826872,276.797277 712.814987,276.988535 C712.612945,276.827904 712.400268,276.682898 712.17946,276.547267 C711.961779,276.414137 711.736593,276.293507 711.503274,276.186627 C711.500772,276.185377 711.497644,276.184752 711.495142,276.183502 L711.495142,276.183502 L711.495142,276.024121 C711.444475,274.969077 711.193017,273.967161 710.773919,273.055249 L710.773919,273.055249 L708.209916,273.055249 C708.395695,273.859032 708.515795,274.724067 708.559581,275.632855 C708.295612,275.646605 708.035396,275.674106 707.78081,275.719733 C707.737024,274.775944 707.605039,273.879658 707.401746,273.055249 L707.401746,273.055249 L703.813143,273.055249 L703.813143,276.024121 L706.67802,276.024121 C706.153835,276.221004 705.663428,276.483514 705.215557,276.805403 L705.215557,276.805403 L703.813143,276.805403 L703.813143,278.19046 C703.497256,278.617977 703.232661,279.084246 703.031244,279.583642 L703.031244,279.583642 L703.031244,276.805403 L699.055445,276.805403 C699.082968,277.860446 699.217454,278.861737 699.443267,279.774275 L699.443267,279.774275 L702.961186,279.774275 C702.868609,280.028035 702.789168,280.287421 702.729744,280.555557 L702.729744,280.555557 L699.665952,280.555557 C700.35152,282.681269 701.545011,284.182581 702.936165,284.468842 L702.936165,284.468842 L702.934289,284.475718 L702.76102,285.225748 L702.631537,285.789522 C697.805658,285.385755 694,281.339339 694,276.414762 C694,271.223298 698.226632,267 703.422193,267 Z M698.840892,280.555557 L696.483936,280.555557 C697.447235,282.160623 698.948481,283.403174 700.740593,284.035075 C699.932423,283.201915 699.275002,282.003741 698.840892,280.555557 L698.840892,280.555557 Z M710.900549,280.013088 L709.906399,280.013088 L709.906399,284.005609 L710.900549,284.005609 L710.900549,280.013088 Z M708.415174,280.013088 L707.421024,280.013088 L707.421024,284.005609 L708.415174,284.005609 L708.415174,280.013088 Z M698.274172,276.805403 L695.349245,276.805403 C695.399912,277.860446 695.65137,278.862362 696.070468,279.774275 L696.070468,279.774275 L698.634471,279.774275 C698.42242,278.855487 698.299192,277.856696 698.274172,276.805403 L698.274172,276.805403 Z M703.031244,273.055249 L699.443267,273.055249 C699.217454,273.967786 699.082968,274.969077 699.055445,276.024121 L699.055445,276.024121 L703.031244,276.024121 L703.031244,273.055249 Z M698.634471,273.055249 L696.070468,273.055249 C695.65137,273.967161 695.399912,274.969077 695.349245,276.024121 L695.349245,276.024121 L698.274172,276.024121 C698.299192,274.972827 698.42242,273.974036 698.634471,273.055249 L698.634471,273.055249 Z M703.031244,268.348805 C703.010602,268.34943 702.98996,268.35068 702.968692,268.351305 C701.563151,268.620067 700.35715,270.130754 699.665952,272.273967 L699.665952,272.273967 L703.031244,272.273967 Z M700.740593,268.794449 C698.948481,269.42635 697.447235,270.668901 696.483936,272.273967 L696.483936,272.273967 L698.840892,272.273967 C699.275002,270.825782 699.932423,269.627608 700.740593,268.794449 Z M703.813143,268.348805 L703.813143,272.273967 L707.179061,272.273967 C706.487237,270.130754 705.281236,268.620067 703.875695,268.351305 C703.854427,268.35068 703.833785,268.34943 703.813143,268.348805 L703.813143,268.348805 Z M706.104419,268.795074 C706.911964,269.627608 707.57001,270.825782 708.003495,272.273967 L708.003495,272.273967 L710.360451,272.273967 C709.397151,270.668901 707.895906,269.42635 706.104419,268.795074 Z"/>
    <path fill="#FF2913" d="M709.010235,330.981303 C709.930373,330.981303 710.789836,331.235063 711.529825,331.669456 C711.967063,331.925717 712.360515,332.246355 712.699546,332.61887 C713.504589,333.503906 714,334.676455 714,335.967758 C714,338.720996 711.765646,340.952962 709.010235,340.952962 C708.192056,340.952962 707.422667,340.752954 706.740851,340.40419 L706.740851,340.40419 L704.426431,340.987964 C704.144322,341.058592 703.886608,340.807331 703.951662,340.52357 L703.951662,340.52357 L704.109918,339.837916 L704.24503,339.252267 L704.420801,338.487861 L704.445197,338.382232 L704.508999,338.107845 C704.198742,337.458444 704.020469,336.734664 704.020469,335.967758 C704.020469,335.490238 704.091153,335.030219 704.216882,334.592701 C704.294446,334.322065 704.395781,334.061429 704.516506,333.811419 C705.165794,332.461989 706.403071,331.450697 707.898687,331.110058 C708.153899,331.051931 708.415366,331.015679 708.683088,330.998178 C708.791928,330.991303 708.899518,330.981303 709.010235,330.981303 Z M703.422193,321 C708.617755,321 712.844387,325.223298 712.844387,330.414762 C712.844387,330.60852 712.826872,330.797277 712.814987,330.988535 C712.612945,330.827904 712.400268,330.682898 712.17946,330.547267 C711.961779,330.414137 711.736593,330.293507 711.503274,330.186627 C711.500772,330.185377 711.497644,330.184752 711.495142,330.183502 L711.495142,330.183502 L711.495142,330.024121 C711.444475,328.969077 711.193017,327.967161 710.773919,327.055249 L710.773919,327.055249 L708.209916,327.055249 C708.395695,327.859032 708.515795,328.724067 708.559581,329.632855 C708.295612,329.646605 708.035396,329.674106 707.78081,329.719733 C707.737024,328.775944 707.605039,327.879658 707.401746,327.055249 L707.401746,327.055249 L703.813143,327.055249 L703.813143,330.024121 L706.67802,330.024121 C706.153835,330.221004 705.663428,330.483514 705.215557,330.805403 L705.215557,330.805403 L703.813143,330.805403 L703.813143,332.19046 C703.497256,332.617977 703.232661,333.084246 703.031244,333.583642 L703.031244,333.583642 L703.031244,330.805403 L699.055445,330.805403 C699.082968,331.860446 699.217454,332.861737 699.443267,333.774275 L699.443267,333.774275 L702.961186,333.774275 C702.868609,334.028035 702.789168,334.287421 702.729744,334.555557 L702.729744,334.555557 L699.665952,334.555557 C700.35152,336.681269 701.545011,338.182581 702.936165,338.468842 L702.936165,338.468842 L702.934289,338.475718 L702.76102,339.225748 L702.631537,339.789522 C697.805658,339.385755 694,335.339339 694,330.414762 C694,325.223298 698.226632,321 703.422193,321 Z M698.840892,334.555557 L696.483936,334.555557 C697.447235,336.160623 698.948481,337.403174 700.740593,338.035075 C699.932423,337.201915 699.275002,336.003741 698.840892,334.555557 L698.840892,334.555557 Z M710.900549,334.013088 L709.906399,334.013088 L709.906399,338.005609 L710.900549,338.005609 L710.900549,334.013088 Z M708.415174,334.013088 L707.421024,334.013088 L707.421024,338.005609 L708.415174,338.005609 L708.415174,334.013088 Z M698.274172,330.805403 L695.349245,330.805403 C695.399912,331.860446 695.65137,332.862362 696.070468,333.774275 L696.070468,333.774275 L698.634471,333.774275 C698.42242,332.855487 698.299192,331.856696 698.274172,330.805403 L698.274172,330.805403 Z M703.031244,327.055249 L699.443267,327.055249 C699.217454,327.967786 699.082968,328.969077 699.055445,330.024121 L699.055445,330.024121 L703.031244,330.024121 L703.031244,327.055249 Z M698.634471,327.055249 L696.070468,327.055249 C695.65137,327.967161 695.399912,328.969077 695.349245,330.024121 L695.349245,330.024121 L698.274172,330.024121 C698.299192,328.972827 698.42242,327.974036 698.634471,327.055249 L698.634471,327.055249 Z M703.031244,322.348805 C703.010602,322.34943 702.98996,322.35068 702.968692,322.351305 C701.563151,322.620067 700.35715,324.130754 699.665952,326.273967 L699.665952,326.273967 L703.031244,326.273967 Z M700.740593,322.794449 C698.948481,323.42635 697.447235,324.668901 696.483936,326.273967 L696.483936,326.273967 L698.840892,326.273967 C699.275002,324.825782 699.932423,323.627608 700.740593,322.794449 Z M703.813143,322.348805 L703.813143,326.273967 L707.179061,326.273967 C706.487237,324.130754 705.281236,322.620067 703.875695,322.351305 C703.854427,322.35068 703.833785,322.34943 703.813143,322.348805 L703.813143,322.348805 Z M706.104419,322.795074 C706.911964,323.627608 707.57001,324.825782 708.003495,326.273967 L708.003495,326.273967 L710.360451,326.273967 C709.397151,324.668901 707.895906,323.42635 706.104419,322.795074 Z"/>
    <g transform="matrix(1 0 0 -1 640 286)">
      <mask id="ic-all-collect-bg" fill="#fff">
        <use xlink:href="#ic-all-collect-bf"/>
      </mask>
      <g mask="url(#ic-all-collect-bg)">
        <use fill="#00FCFF" fill-rule="nonzero" transform="translate(-14 -15)" xlink:href="#ic-all-collect-bh"/>
      </g>
    </g>
    <g transform="translate(651 278)">
      <mask id="ic-all-collect-bj" fill="#fff">
        <use xlink:href="#ic-all-collect-bi"/>
      </mask>
      <g mask="url(#ic-all-collect-bj)">
        <use fill="#00FCFF" transform="translate(-6.75 -6.75)" xlink:href="#ic-all-collect-bk"/>
      </g>
    </g>
    <g transform="matrix(1 0 0 -1 640 340)">
      <mask id="ic-all-collect-bm" fill="#fff">
        <use xlink:href="#ic-all-collect-bl"/>
      </mask>
      <g mask="url(#ic-all-collect-bm)">
        <use fill="#FF2913" fill-rule="nonzero" transform="translate(-14 -15)" xlink:href="#ic-all-collect-bn"/>
      </g>
    </g>
    <g transform="translate(651 332)">
      <mask id="ic-all-collect-bp" fill="#fff">
        <use xlink:href="#ic-all-collect-bo"/>
      </mask>
      <g mask="url(#ic-all-collect-bp)">
        <use fill="#FF2913" transform="translate(-6.75 -6.75)" xlink:href="#ic-all-collect-bq"/>
      </g>
    </g>
  </g>
</svg>
