<svg width="48" height="22" viewBox="0 0 48 22" fill="none" xmlns="http://www.w3.org/2000/svg">
<g clip-path="url(#clip0_101_60)">
<path fill-rule="evenodd" clip-rule="evenodd" d="M32.2433 16.2287C33.126 16.2287 33.484 16.8324 33.5163 17.2662H32.9C32.8518 17.0895 32.7565 16.7584 32.2475 16.7584C31.9515 16.7584 31.517 16.9552 31.517 17.7869C31.517 18.3154 31.726 18.7901 32.2475 18.7901C32.5885 18.7901 32.8265 18.598 32.9 18.2372H33.5163C33.3938 18.8763 32.9743 19.3201 32.2355 19.3201C31.4513 19.3201 30.889 18.7948 30.889 17.7787C30.889 16.7502 31.4838 16.2287 32.2433 16.2287ZM44.3031 16.2453C44.7696 16.2453 45.1311 16.392 45.3863 16.6878C45.6238 16.9624 45.7431 17.3266 45.7431 17.7786C45.7431 18.2109 45.6341 18.562 45.4188 18.8324C45.1676 19.1461 44.7983 19.304 44.3106 19.304C43.8023 19.304 43.4216 19.1371 43.1716 18.8037C42.9686 18.5356 42.8676 18.1987 42.8676 17.7906C42.8676 17.3119 42.9926 16.934 43.2413 16.6584C43.4898 16.3828 43.8443 16.2453 44.3031 16.2453ZM20.5982 16.2946L21.1327 18.3113L21.6682 16.2946H22.5672V19.2544H22.0122V16.9232L21.4272 19.2544H20.851L20.2665 16.9232L20.258 19.2544H19.7022V16.2946H20.5982ZM27.091 16.2945V19.2543H26.493V16.2945H27.091ZM38.3799 16.2947C38.5809 16.2947 38.7394 16.3024 38.8532 16.3186C38.9167 16.3271 38.9859 16.3438 39.0607 16.369C39.2182 16.427 39.3407 16.5332 39.4297 16.6874C39.5064 16.8222 39.5642 16.9921 39.5642 17.1491C39.5642 17.314 39.5444 17.5428 39.4627 17.6753C39.3859 17.8046 39.2734 17.9105 39.1294 17.9684C39.0799 17.9903 38.9444 18.0232 38.9444 18.0232L39.6384 19.2543H38.9207L38.2879 18.0815L37.7172 18.088V19.2543H37.1189V16.2947H38.3799ZM44.3061 16.7578C44.0028 16.7578 43.7818 16.8724 43.6426 17.0999C43.5386 17.2743 43.4858 17.4988 43.4858 17.7746C43.4858 17.9291 43.5016 18.0627 43.5318 18.1751C43.5543 18.2578 43.5878 18.3395 43.6343 18.4192C43.6953 18.5239 43.7751 18.6079 43.8718 18.6709C43.9933 18.7504 44.1386 18.791 44.3061 18.791C44.5166 18.791 44.6926 18.7275 44.8326 18.6006C45.0273 18.4252 45.1243 18.1464 45.1243 17.7659C45.1243 17.5123 45.0793 17.303 44.9911 17.1378C44.8553 16.8844 44.6273 16.7578 44.3061 16.7578ZM38.3056 16.7958L37.7172 16.7955V17.5468L38.3505 17.5459C38.4237 17.5447 38.4836 17.5424 38.5294 17.539C38.5957 17.5358 38.6524 17.5266 38.6999 17.5094C38.7904 17.4795 38.8544 17.4244 38.8914 17.3442C38.9154 17.2916 38.9274 17.2313 38.9274 17.162C38.9274 17.0965 38.9154 17.0372 38.8914 16.9849C38.8687 16.9351 38.8304 16.8942 38.7734 16.8606C38.7209 16.8277 38.6629 16.808 38.6002 16.803C38.5392 16.7975 38.4009 16.7955 38.1857 16.7955L38.3056 16.7958ZM46.8329 15.0947V15.2093H46.5129V16.057H46.3854V15.2093H46.0676V15.0947H46.8329ZM47.1559 15.0948L47.3832 15.7763C47.3849 15.778 47.3922 15.8039 47.4087 15.855C47.4194 15.8859 47.4257 15.9066 47.4274 15.9185L47.4817 15.7636L47.7127 15.0948H47.8827V16.0571H47.7607V15.2518L47.4807 16.0571H47.3664L47.0899 15.2381L47.0864 16.0571H46.9637V15.0948H47.1559ZM26.691 9.53942C27.7067 9.50554 28.9172 9.8008 28.9172 10.8829C28.9172 11.5734 28.7192 12.4826 27.9545 12.6794L29.0397 14.8718H27.6272C27.5307 14.3977 26.7797 12.7552 26.7797 12.7552H25.5672V14.8718H24.419V9.53942H26.691ZM34.3 9.53935V10.4254H31.6105V11.6792H34.0845V12.5655H31.6105V13.986H34.3805V14.8717H30.4625V9.53935H34.3ZM37.3638 9.53945L39.3168 13.0238L39.3318 13.0093V9.53945H40.405V14.8718H38.9943L37.0295 11.3265L37.0138 11.3412V14.8718H35.9405V9.53945H37.3638ZM43.8936 9.53945C45.5611 9.52475 46.5981 10.3515 46.5981 12.2055C46.5981 14.0598 45.5611 14.8868 43.8936 14.8718H42.0719V9.53945H43.8936ZM23.2258 9.60001V10.4748H21.6313V14.8645H20.4839V10.4748H18.8903V9.60001H23.2258ZM43.8134 10.4671H43.2199V13.9858H43.8134C45.1759 14.0015 45.3764 13.0554 45.3764 12.2055C45.3764 11.3561 45.1759 10.4524 43.8134 10.4671ZM26.9837 10.4252H25.5672V11.8275H26.9837C27.4855 11.8208 27.7817 11.5704 27.7817 11.1002C27.7817 10.6315 27.4855 10.4329 26.9837 10.4252Z" fill="black"/>
<path fill-rule="evenodd" clip-rule="evenodd" d="M2.11948 15.2636C2.12198 15.2546 2.12548 15.2469 2.12973 15.2367C2.13948 15.2085 2.15098 15.1796 2.16148 15.152C2.17123 15.126 2.18148 15.1006 2.19198 15.075C2.19623 15.063 2.20148 15.051 2.20598 15.0401C2.35398 14.675 2.54098 14.2998 2.76698 13.9196C2.79673 13.8565 2.82723 13.7947 2.85773 13.7322L1.90523 13.7347L2.13648 13.2264C2.92373 13.0121 4.23523 12.5751 5.48748 11.3651L5.52448 11.3626H6.18373L5.33148 13.1825L6.69998 13.1788L6.44848 13.7207L5.08248 13.7252C5.08248 13.7252 4.44123 15.0029 4.22348 15.9164C4.05473 16.9362 4.22048 17.6977 5.13748 17.9822C5.70348 18.1574 6.40998 18.117 7.17123 17.9025C8.94248 17.3518 10.836 16.1386 12.2215 14.5318C14.5025 11.8911 14.5475 9.18917 12.3227 8.49948C10.8955 8.05696 8.88298 8.54856 7.02048 9.65511C9.34273 8.16161 11.8962 7.46095 13.658 8.00762C13.9887 8.11028 14.2742 8.25131 14.518 8.42572C13.0622 6.82658 10.9607 5.82294 8.62373 5.82294C4.23148 5.82294 0.670227 9.3718 0.670227 13.7499C0.670227 15.3662 1.15648 16.8687 1.98923 18.1225C1.67423 17.3476 1.71848 16.3544 2.11948 15.2636Z" fill="#EC1C24"/>
<path fill-rule="evenodd" clip-rule="evenodd" d="M15.3675 9.54468C15.8992 10.9841 15.2342 13.1347 13.397 15.2623C10.639 18.4586 6.28225 20.3916 3.66775 19.5801C3.343 19.4802 3.061 19.3409 2.8205 19.17C4.2715 20.713 6.33425 21.6773 8.6235 21.6773C13.0172 21.6773 16.5785 18.1282 16.5785 13.7498C16.5785 12.2048 16.1332 10.7636 15.3675 9.54468Z" fill="#EC1C24"/>
<path fill-rule="evenodd" clip-rule="evenodd" d="M0.42625 1.68369H1.259C1.5345 1.68369 1.73 1.63261 1.84575 1.53045C1.9615 1.42829 2.01925 1.28427 2.01925 1.09889C2.01925 0.964593 1.98525 0.849727 1.917 0.754048C1.849 0.658368 1.75925 0.595329 1.648 0.564682C1.57625 0.545745 1.4435 0.536277 1.25025 0.536277H0.42625V1.68369ZM0 3.3678V0.157296H1.215C1.429 0.157296 1.59225 0.167512 1.705 0.187943C1.86325 0.214355 1.99575 0.264188 2.10275 0.337941C2.20975 0.411694 2.29575 0.515098 2.361 0.647903C2.42625 0.780708 2.45875 0.92672 2.45875 1.08594C2.45875 1.35877 2.3715 1.59 2.19725 1.77887C2.023 1.96798 1.708 2.06267 1.2525 2.06267H0.42625V3.3678H0ZM3.21018 2.20489C3.21018 2.50264 3.27542 2.72565 3.40567 2.8739C3.53617 3.02215 3.70017 3.09616 3.89792 3.09616C4.09417 3.09616 4.25743 3.02166 4.38793 2.8729C4.51818 2.7239 4.58343 2.49691 4.58343 2.19168C4.58343 1.90415 4.51793 1.68613 4.38693 1.53812C4.25568 1.38987 4.09267 1.31587 3.89792 1.31587C3.70017 1.31587 3.53617 1.38962 3.40567 1.53688C3.27542 1.68438 3.21018 1.90714 3.21018 2.20489ZM2.80367 2.20489C2.80367 1.77408 2.92367 1.45515 3.16392 1.24784C3.36467 1.07567 3.60942 0.989459 3.89792 0.989459C4.21867 0.989459 4.48093 1.09411 4.68443 1.30366C4.88818 1.51321 4.98993 1.80274 4.98993 2.172C4.98993 2.47125 4.94493 2.70671 4.85493 2.87838C4.76468 3.04981 4.63368 3.18311 4.46143 3.27805C4.28943 3.37273 4.10142 3.42032 3.89792 3.42032C3.57117 3.42032 3.30718 3.31592 3.10593 3.10712C2.90443 2.89832 2.80367 2.59758 2.80367 2.20489ZM5.88425 3.36775L5.17025 1.04203H5.57875L5.95025 2.38454L6.0885 2.88387C6.0945 2.85895 6.13475 2.69899 6.2095 2.40422L6.58075 1.04203H6.98725L7.33675 2.39102L7.453 2.83553L7.58725 2.38653L7.987 1.04203H8.3715L7.642 3.36775H7.23125L6.85975 1.97491L6.76975 1.57849L6.29725 3.36775H5.88425ZM9.00218 1.98151H10.3052C10.2877 1.78592 10.2377 1.63916 10.1557 1.54124C10.0297 1.3895 9.86643 1.3135 9.66568 1.3135C9.48418 1.3135 9.33142 1.37405 9.20767 1.49539C9.08392 1.61649 9.01543 1.77869 9.00218 1.98151ZM10.3007 2.61888L10.7094 2.66921C10.6449 2.90716 10.5257 3.0918 10.3512 3.22311C10.1769 3.35467 9.95442 3.4202 9.68342 3.4202C9.34192 3.4202 9.07143 3.31555 8.87143 3.106C8.67143 2.89645 8.57143 2.60268 8.57143 2.2247C8.57143 1.83326 8.67267 1.52978 8.87467 1.3135C9.07692 1.09747 9.33918 0.989584 9.66143 0.989584C9.97343 0.989584 10.2282 1.09523 10.4259 1.30702C10.6237 1.51881 10.7227 1.81657 10.7227 2.20053C10.7227 2.22395 10.7219 2.25883 10.7204 2.30568H8.98018C8.99493 2.56107 9.06742 2.75667 9.19767 2.89246C9.32817 3.02826 9.49067 3.09628 9.68542 3.09628C9.83042 3.09628 9.95442 3.05816 10.0569 2.98241C10.1594 2.90642 10.2407 2.78532 10.3007 2.61888ZM11.2016 3.36775V1.04203H11.5576V1.3946C11.6484 1.22966 11.7324 1.12077 11.8091 1.0682C11.8861 1.01587 11.9706 0.989459 12.0629 0.989459C12.1964 0.989459 12.3319 1.03182 12.4694 1.11653L12.3331 1.48231C12.2366 1.42525 12.1399 1.39685 12.0431 1.39685C11.9569 1.39685 11.8791 1.42276 11.8104 1.47459C11.7414 1.52641 11.6924 1.59817 11.6631 1.69036C11.6191 1.83039 11.5971 1.98363 11.5971 2.15007V3.36775H11.2016ZM13.0034 1.98151H14.3064C14.2889 1.78592 14.2389 1.63916 14.1569 1.54124C14.0309 1.3895 13.8677 1.3135 13.6669 1.3135C13.4854 1.3135 13.3327 1.37405 13.2089 1.49539C13.0852 1.61649 13.0166 1.77869 13.0034 1.98151ZM14.3019 2.61888L14.7107 2.66921C14.6462 2.90716 14.5269 3.0918 14.3524 3.22311C14.1781 3.35467 13.9557 3.4202 13.6847 3.4202C13.3432 3.4202 13.0727 3.31555 12.8727 3.106C12.6727 2.89645 12.5726 2.60268 12.5726 2.2247C12.5726 1.83326 12.6739 1.52978 12.8759 1.3135C13.0782 1.09747 13.3404 0.989584 13.6627 0.989584C13.9747 0.989584 14.2294 1.09523 14.4271 1.30702C14.6249 1.51881 14.7239 1.81657 14.7239 2.20053C14.7239 2.22395 14.7232 2.25883 14.7217 2.30568H12.9814C12.9962 2.56107 13.0687 2.75667 13.1989 2.89246C13.3294 3.02826 13.4919 3.09628 13.6867 3.09628C13.8317 3.09628 13.9557 3.05816 14.0582 2.98241C14.1607 2.90642 14.2419 2.78532 14.3019 2.61888ZM15.4709 2.20708C15.4709 2.50484 15.5339 2.72759 15.6599 2.8751C15.7859 3.02235 15.9344 3.09611 16.1059 3.09611C16.2787 3.09611 16.4257 3.02584 16.5464 2.88481C16.6674 2.74403 16.7277 2.529 16.7277 2.23997C16.7277 1.92154 16.6662 1.68807 16.5432 1.53907C16.4202 1.39032 16.2684 1.31582 16.0884 1.31582C15.9127 1.31582 15.7657 1.38733 15.6479 1.53035C15.5299 1.67337 15.4709 1.89911 15.4709 2.20708ZM16.7212 3.3677V3.07418C16.5732 3.30491 16.3557 3.42027 16.0687 3.42027C15.8824 3.42027 15.7114 3.36919 15.5554 3.26703C15.3994 3.16488 15.2787 3.0221 15.1929 2.83897C15.1072 2.65558 15.0644 2.44504 15.0644 2.20708C15.0644 1.97486 15.1032 1.76432 15.1809 1.5752C15.2584 1.38633 15.3749 1.24132 15.5302 1.14065C15.6854 1.03974 15.8592 0.98941 16.0509 0.98941C16.1917 0.98941 16.3169 1.01906 16.4267 1.07811C16.5367 1.13741 16.6259 1.21441 16.6949 1.30909V0.157196H17.0882V3.3677H16.7212ZM19.3205 2.18737C19.3205 2.46619 19.3585 2.66777 19.4348 2.79185C19.5593 2.99467 19.7278 3.09608 19.9403 3.09608C20.113 3.09608 20.2625 3.02133 20.3883 2.87183C20.5143 2.72208 20.5773 2.49908 20.5773 2.20282C20.5773 1.89909 20.517 1.67484 20.396 1.53032C20.2753 1.38581 20.129 1.31355 19.9578 1.31355C19.7848 1.31355 19.6355 1.3883 19.5095 1.53805C19.3835 1.6878 19.3205 1.90407 19.3205 2.18737ZM19.325 3.36767H18.958V0.15742H19.3535V1.30259C19.5205 1.09379 19.7335 0.989385 19.9928 0.989385C20.1365 0.989385 20.2723 1.01829 20.4005 1.07609C20.5288 1.13365 20.634 1.21463 20.7168 1.31903C20.7998 1.42343 20.8645 1.54926 20.9113 1.69677C20.9583 1.84427 20.9818 2.00199 20.9818 2.16993C20.9818 2.56835 20.8828 2.87657 20.685 3.09409C20.4873 3.31161 20.25 3.42025 19.973 3.42025C19.6978 3.42025 19.4818 3.30563 19.325 3.0764V3.36767ZM21.4453 4.26342L21.4013 3.89341C21.4878 3.91658 21.5633 3.92829 21.6276 3.92829C21.7156 3.92829 21.7858 3.91384 21.8386 3.88444C21.8913 3.85529 21.9345 3.81443 21.9683 3.76185C21.993 3.72248 22.0336 3.62481 22.0891 3.46858C22.0963 3.44666 22.1081 3.41451 22.1243 3.37216L21.2388 1.04196H21.6651L22.1506 2.38895C22.2136 2.55963 22.27 2.73928 22.3198 2.92764C22.3653 2.7465 22.4193 2.56984 22.4823 2.39767L22.9813 1.04196H23.3768L22.489 3.40704C22.3938 3.66268 22.3198 3.83859 22.267 3.93502C22.1968 4.06484 22.1163 4.16002 22.0253 4.22081C21.9346 4.28136 21.8261 4.31151 21.7003 4.31151C21.6241 4.31151 21.5391 4.29557 21.4453 4.26342Z" fill="black"/>
</g>
<defs>
<clipPath id="clip0_101_60">
<rect width="48" height="22" fill="white"/>
</clipPath>
</defs>
</svg>
