<svg width="40" height="18" viewBox="0 0 40 18" fill="none" xmlns="http://www.w3.org/2000/svg">
    <g clip-path="url(#clip0_58_821)">
        <mask id="mask0_58_821" style="mask-type:luminance" maskUnits="userSpaceOnUse" x="0" y="0" width="40" height="18">
            <path d="M40 0H0V18H40V0Z" fill="white"/>
        </mask>
        <g mask="url(#mask0_58_821)">
            <path fill-rule="evenodd" clip-rule="evenodd" d="M26.8694 13.2781C27.605 13.2781 27.9034 13.7721 27.9303 14.127H27.4167C27.3765 13.9824 27.2971 13.7115 26.8729 13.7115C26.6263 13.7115 26.2642 13.8725 26.2642 14.553C26.2642 14.9854 26.4384 15.3738 26.8729 15.3738C27.1571 15.3738 27.3554 15.2166 27.4167 14.9214H27.9303C27.8282 15.4443 27.4786 15.8074 26.8629 15.8074C26.2094 15.8074 25.7409 15.3777 25.7409 14.5463C25.7409 13.7048 26.2365 13.2781 26.8694 13.2781ZM36.9193 13.2917C37.308 13.2917 37.6093 13.4117 37.8219 13.6537C38.0199 13.8784 38.1193 14.1764 38.1193 14.5462C38.1193 14.8999 38.0284 15.1872 37.849 15.4084C37.6397 15.6651 37.3319 15.7943 36.9255 15.7943C36.5019 15.7943 36.1847 15.6577 35.9764 15.3849C35.8072 15.1656 35.723 14.8899 35.723 14.556C35.723 14.1644 35.8272 13.8552 36.0344 13.6297C36.2415 13.4042 36.5369 13.2917 36.9193 13.2917ZM17.1652 13.332L17.6106 14.9821L18.0569 13.332H18.806V15.7537H18.3435V13.8463L17.856 15.7537H17.3759L16.8888 13.8463L16.8817 15.7537H16.4185V13.332H17.1652ZM22.5759 13.332V15.7536H22.0775V13.332H22.5759ZM31.9833 13.3321C32.1508 13.3321 32.2829 13.3384 32.3777 13.3517C32.4306 13.3586 32.4883 13.3723 32.5506 13.3929C32.6819 13.4404 32.7839 13.5273 32.8581 13.6534C32.922 13.7637 32.9702 13.9027 32.9702 14.0312C32.9702 14.1661 32.9537 14.3533 32.8856 14.4617C32.8216 14.5675 32.7279 14.6541 32.6079 14.7015C32.5666 14.7194 32.4537 14.7463 32.4537 14.7463L33.032 15.7536H32.4339L31.9066 14.794L31.431 14.7994V15.7536H30.9324V13.3321H31.9833ZM36.9218 13.711C36.669 13.711 36.4849 13.8048 36.3689 13.9909C36.2822 14.1336 36.2382 14.3173 36.2382 14.5429C36.2382 14.6694 36.2514 14.7787 36.2765 14.8706C36.2953 14.9383 36.3232 15.0051 36.3619 15.0703C36.4128 15.156 36.4793 15.2247 36.5599 15.2763C36.6611 15.3413 36.7822 15.3745 36.9218 15.3745C37.0972 15.3745 37.2439 15.3226 37.3605 15.2188C37.5228 15.0753 37.6036 14.8471 37.6036 14.5358C37.6036 14.3283 37.5661 14.1571 37.4926 14.0219C37.3794 13.8146 37.1894 13.711 36.9218 13.711ZM31.9214 13.7421L31.431 13.7419V14.3566L31.9588 14.3558C32.0198 14.3548 32.0697 14.353 32.1079 14.3502C32.1631 14.3476 32.2104 14.34 32.2499 14.326C32.3254 14.3015 32.3787 14.2564 32.4095 14.1908C32.4295 14.1478 32.4395 14.0984 32.4395 14.0417C32.4395 13.9881 32.4295 13.9396 32.4095 13.8968C32.3906 13.8561 32.3587 13.8226 32.3112 13.7951C32.2674 13.7682 32.2191 13.7521 32.1669 13.748C32.116 13.7435 32.0008 13.7419 31.8214 13.7419L31.9214 13.7421ZM39.0274 12.3503V12.4441H38.7608V13.1376H38.6545V12.4441H38.3897V12.3503H39.0274ZM39.2966 12.3504L39.486 12.908C39.4874 12.9094 39.4935 12.9306 39.5073 12.9724C39.5162 12.9976 39.5214 13.0146 39.5229 13.0243L39.5681 12.8976L39.7606 12.3504H39.9023V13.1377H39.8006V12.4788L39.5673 13.1377H39.472L39.2416 12.4676L39.2387 13.1377H39.1364V12.3504H39.2966ZM22.2425 7.80507C23.0889 7.77735 24.0977 8.01893 24.0977 8.90428C24.0977 9.46924 23.9327 10.2131 23.2954 10.3741L24.1998 12.1679H23.0227C22.9423 11.78 22.3164 10.4362 22.3164 10.4362H21.306V12.1679H20.3492V7.80507H22.2425ZM28.5834 7.80501V8.52996H26.3421V9.5558H28.4038V10.281H26.3421V11.4432H28.6504V12.1678H25.3854V7.80501H28.5834ZM31.1365 7.80509L32.764 10.6559L32.7765 10.6441V7.80509H33.6709V12.1679H32.4953L30.8579 9.26723L30.8449 9.27925V12.1679H29.9504V7.80509H31.1365ZM36.578 7.80509C37.9676 7.79307 38.8318 8.4695 38.8318 9.98641C38.8318 11.5036 37.9676 12.1802 36.578 12.1679H35.0599V7.80509H36.578ZM19.3549 7.85464V8.57038H18.0261V12.162H17.0699V8.57038H15.7419V7.85464H19.3549ZM36.5112 8.56408H36.0166V11.443H36.5112C37.6466 11.4559 37.8137 10.6818 37.8137 9.98641C37.8137 9.29144 37.6466 8.55205 36.5112 8.56408ZM22.4864 8.5298H21.306V9.67714H22.4864C22.9046 9.67165 23.1514 9.46678 23.1514 9.08207C23.1514 8.69859 22.9046 8.5361 22.4864 8.5298Z" fill="black"/>
            <path fill-rule="evenodd" clip-rule="evenodd" d="M1.7663 12.4883C1.76839 12.481 1.7713 12.4747 1.77485 12.4663C1.78297 12.4433 1.79255 12.4196 1.8013 12.397C1.80943 12.3758 1.81797 12.355 1.82672 12.334C1.83026 12.3242 1.83464 12.3144 1.83839 12.3055C1.96172 12.0068 2.11755 11.6998 2.30589 11.3887C2.33068 11.3371 2.3561 11.2865 2.38151 11.2354L1.58776 11.2374L1.78047 10.8215C2.43651 10.6462 3.52943 10.2887 4.57297 9.29865L4.6038 9.29661H5.15318L4.44297 10.7856L5.58339 10.7826L5.3738 11.226L4.23547 11.2296C4.23547 11.2296 3.7011 12.275 3.51964 13.0224C3.37901 13.8568 3.51714 14.4799 4.2813 14.7126C4.75297 14.856 5.34172 14.8229 5.9761 14.6474C7.45214 14.1969 9.03007 13.2042 10.1847 11.8896C12.0855 9.72902 12.123 7.51835 10.269 6.95406C9.07965 6.592 7.40255 6.99421 5.85047 7.89957C7.78568 6.67762 9.91357 6.10435 11.3817 6.55163C11.6573 6.63562 11.8952 6.75101 12.0984 6.89371C10.8852 5.58532 9.13399 4.76416 7.18651 4.76416C3.5263 4.76416 0.558594 7.66777 0.558594 11.2499C0.558594 12.5723 0.963805 13.8016 1.65776 14.8274C1.39526 14.1934 1.43214 13.3808 1.7663 12.4883Z" fill="#EC1C24"/>
            <path fill-rule="evenodd" clip-rule="evenodd" d="M12.8062 7.80933C13.2493 8.98703 12.6951 10.7466 11.1641 12.4874C8.86576 15.1025 5.23513 16.6841 3.05638 16.0201C2.78576 15.9384 2.55076 15.8244 2.35034 15.6846C3.55951 16.947 5.27847 17.736 7.18617 17.736C10.8476 17.736 13.8153 14.8322 13.8153 11.2499C13.8153 9.98579 13.4443 8.80662 12.8062 7.80933Z" fill="#EC1C24"/>
            <path fill-rule="evenodd" clip-rule="evenodd" d="M0.355208 1.37761H1.04917C1.27875 1.37761 1.44167 1.33582 1.53812 1.25223C1.63458 1.16865 1.68271 1.05081 1.68271 0.899139C1.68271 0.78926 1.65438 0.695278 1.5975 0.616996C1.54083 0.538712 1.46604 0.487135 1.37333 0.46206C1.31354 0.446566 1.20292 0.438819 1.04187 0.438819H0.355208V1.37761ZM0 2.75552V0.128744H1.0125C1.19083 0.128744 1.32688 0.137102 1.42083 0.153819C1.55271 0.175429 1.66313 0.216201 1.75229 0.276544C1.84146 0.336888 1.91313 0.421491 1.9675 0.53015C2.02188 0.638808 2.04896 0.758273 2.04896 0.888544C2.04896 1.11177 1.97625 1.30096 1.83104 1.45549C1.68583 1.61021 1.42333 1.68769 1.04375 1.68769H0.355208V2.75552H0ZM2.67515 1.80405C2.67515 2.04766 2.72952 2.23012 2.83806 2.35142C2.94681 2.47272 3.08347 2.53327 3.24827 2.53327C3.41181 2.53327 3.54786 2.47231 3.65661 2.3506C3.76515 2.22869 3.81952 2.04297 3.81952 1.79324C3.81952 1.55799 3.76494 1.37961 3.65577 1.25851C3.5464 1.13721 3.41056 1.07667 3.24827 1.07667C3.08347 1.07667 2.94681 1.13701 2.83806 1.25749C2.72952 1.37818 2.67515 1.56043 2.67515 1.80405ZM2.33639 1.80405C2.33639 1.45157 2.43639 1.19062 2.6366 1.02101C2.80389 0.880141 3.00785 0.809605 3.24827 0.809605C3.51556 0.809605 3.73411 0.895228 3.90369 1.06668C4.07348 1.23813 4.15828 1.47502 4.15828 1.77714C4.15828 2.02198 4.12077 2.21463 4.04577 2.35509C3.97057 2.49535 3.8614 2.60441 3.71786 2.68209C3.57452 2.75955 3.41785 2.79849 3.24827 2.79849C2.97597 2.79849 2.75598 2.71307 2.58828 2.54224C2.42036 2.3714 2.33639 2.12534 2.33639 1.80405ZM4.90354 2.75548L4.30854 0.852617H4.64896L4.95854 1.95103L5.07375 2.35958C5.07875 2.33919 5.11229 2.20831 5.17458 1.96714L5.48396 0.852617H5.82271L6.11396 1.95634L6.21083 2.32003L6.32271 1.95266L6.65583 0.852617H6.97625L6.36833 2.75548H6.02604L5.71646 1.61588L5.64146 1.29154L5.24771 2.75548H4.90354ZM7.50182 1.62128H8.58767C8.57308 1.46125 8.53142 1.34118 8.46308 1.26106C8.35808 1.13691 8.22202 1.07473 8.05473 1.07473C7.90348 1.07473 7.77618 1.12427 7.67306 1.22355C7.56993 1.32263 7.51286 1.45534 7.50182 1.62128ZM8.58392 2.14277L8.9245 2.18395C8.87075 2.37863 8.77142 2.5297 8.626 2.63714C8.48075 2.74478 8.29535 2.79839 8.06952 2.79839C7.78493 2.79839 7.55953 2.71277 7.39286 2.54132C7.22619 2.36987 7.14286 2.12951 7.14286 1.82026C7.14286 1.49999 7.22722 1.25169 7.39556 1.07473C7.5641 0.897977 7.78265 0.809707 8.05119 0.809707C8.31119 0.809707 8.5235 0.896144 8.68825 1.06943C8.85308 1.24271 8.93558 1.48633 8.93558 1.80048C8.93558 1.81964 8.93492 1.84818 8.93367 1.88651H7.48348C7.49577 2.09547 7.55618 2.2555 7.66472 2.36661C7.77347 2.47771 7.90889 2.53337 8.07118 2.53337C8.19202 2.53337 8.29535 2.50218 8.38075 2.4402C8.46617 2.37803 8.53392 2.27895 8.58392 2.14277ZM9.33467 2.75548V0.852617H9.63133V1.14108C9.707 1.00613 9.777 0.917041 9.84092 0.874029C9.90508 0.831214 9.9755 0.809605 10.0524 0.809605C10.1637 0.809605 10.2766 0.844264 10.3912 0.913572L10.2776 1.21285C10.1972 1.16616 10.1166 1.14292 10.0359 1.14292C9.96408 1.14292 9.89925 1.16412 9.842 1.20653C9.7845 1.24893 9.74367 1.30764 9.71925 1.38307C9.68258 1.49764 9.66425 1.62302 9.66425 1.7592V2.75548H9.33467ZM10.8362 1.62128H11.922C11.9074 1.46125 11.8658 1.34118 11.7974 1.26106C11.6924 1.13691 11.5564 1.07473 11.3891 1.07473C11.2378 1.07473 11.1106 1.12427 11.0074 1.22355C10.9043 1.32263 10.8472 1.45534 10.8362 1.62128ZM11.9182 2.14277L12.2589 2.18395C12.2052 2.37863 12.1057 2.5297 11.9603 2.63714C11.8151 2.74478 11.6297 2.79839 11.4039 2.79839C11.1193 2.79839 10.8939 2.71277 10.7272 2.54132C10.5606 2.36987 10.4772 2.12951 10.4772 1.82026C10.4772 1.49999 10.5616 1.25169 10.7299 1.07473C10.8985 0.897977 11.117 0.809707 11.3856 0.809707C11.6456 0.809707 11.8578 0.896144 12.0226 1.06943C12.1874 1.24271 12.2699 1.48633 12.2699 1.80048C12.2699 1.81964 12.2693 1.84818 12.2681 1.88651H10.8178C10.8302 2.09547 10.8906 2.2555 10.9991 2.36661C11.1078 2.47771 11.2432 2.53337 11.4056 2.53337C11.5264 2.53337 11.6297 2.50218 11.7152 2.4402C11.8006 2.37803 11.8682 2.27895 11.9182 2.14277ZM12.8924 1.80584C12.8924 2.04946 12.9449 2.23171 13.0499 2.3524C13.1549 2.47288 13.2787 2.53323 13.4216 2.53323C13.5656 2.53323 13.6881 2.47573 13.7887 2.36035C13.8895 2.24516 13.9397 2.06923 13.9397 1.83275C13.9397 1.57222 13.8885 1.3812 13.786 1.25929C13.6835 1.13758 13.557 1.07663 13.407 1.07663C13.2606 1.07663 13.1381 1.13514 13.0399 1.25215C12.9416 1.36917 12.8924 1.55386 12.8924 1.80584ZM13.9343 2.75544V2.51529C13.811 2.70406 13.6298 2.79845 13.3906 2.79845C13.2353 2.79845 13.0928 2.75666 12.9628 2.67307C12.8328 2.58949 12.7322 2.47267 12.6607 2.32284C12.5893 2.17279 12.5537 2.00053 12.5537 1.80584C12.5537 1.61584 12.586 1.44358 12.6507 1.28885C12.7153 1.13432 12.8124 1.01567 12.9418 0.933306C13.0712 0.850744 13.216 0.809564 13.3757 0.809564C13.4931 0.809564 13.5974 0.833824 13.6889 0.882137C13.7806 0.930655 13.8549 0.993655 13.9124 1.07112V0.128662H14.2402V2.75544H13.9343ZM16.1004 1.78971C16.1004 2.01784 16.1321 2.18277 16.1957 2.28429C16.2994 2.45023 16.4398 2.5332 16.6169 2.5332C16.7608 2.5332 16.8854 2.47204 16.9902 2.34973C17.0952 2.2272 17.1477 2.04475 17.1477 1.80235C17.1477 1.55385 17.0975 1.37037 16.9967 1.25213C16.8961 1.13389 16.7742 1.07477 16.6315 1.07477C16.4873 1.07477 16.3629 1.13593 16.2579 1.25845C16.1529 1.38097 16.1004 1.55792 16.1004 1.78971ZM16.1042 2.75541H15.7983V0.128845H16.1279V1.0658C16.2671 0.894966 16.4446 0.809544 16.6607 0.809544C16.7804 0.809544 16.8936 0.833194 17.0004 0.880484C17.1073 0.927579 17.195 0.993835 17.264 1.07925C17.3332 1.16467 17.3871 1.26762 17.4261 1.38831C17.4653 1.509 17.4848 1.63804 17.4848 1.77544C17.4848 2.10142 17.4023 2.3536 17.2375 2.53158C17.0727 2.70955 16.875 2.79843 16.6442 2.79843C16.4148 2.79843 16.2348 2.70465 16.1042 2.5171V2.75541ZM17.8711 3.4883L17.8344 3.18556C17.9065 3.20452 17.9694 3.2141 18.023 3.2141C18.0963 3.2141 18.1548 3.20228 18.1988 3.17823C18.2427 3.15438 18.2787 3.12094 18.3069 3.07792C18.3275 3.04571 18.3613 2.9658 18.4076 2.83798C18.4136 2.82004 18.4234 2.79374 18.4369 2.75909L17.699 0.85256H18.0542L18.4588 1.95464C18.5113 2.09429 18.5583 2.24128 18.5998 2.39539C18.6377 2.24718 18.6827 2.10264 18.7352 1.96178L19.1511 0.85256H19.4807L18.7408 2.78763C18.6615 2.99679 18.5998 3.14071 18.5558 3.21961C18.4973 3.32583 18.4302 3.4037 18.3544 3.45344C18.2788 3.50298 18.1884 3.52765 18.0836 3.52765C18.0201 3.52765 17.9492 3.5146 17.8711 3.4883Z" fill="black"/>
        </g>
    </g>
    <defs>
        <clipPath id="clip0_58_821">
            <rect width="40" height="18" fill="white"/>
        </clipPath>
    </defs>
</svg>
