<?xml version="1.0" encoding="UTF-8"?>
<svg width="16px" height="16px" viewBox="0 0 16 16" version="1.1" xmlns="http://www.w3.org/2000/svg" xmlns:xlink="http://www.w3.org/1999/xlink">
    <g stroke="none" stroke-width="1" fill="none" fill-rule="evenodd">
        <g transform="translate(-320.000000, -64.000000)" fill="#BBC5D5">
            <g transform="translate(320.000000, 64.000000)">
                <path d="M14,16 L2,16 C0.8954305,16 0,15.1045695 0,14 L0,2 C0,0.8954305 0.8954305,0 2,0 L10.411,0 L9.575,0.836 L9.575,0.836 L8.414,2 L2,2 L2,14 L14,14 L14,7.547 L15.146,6.402 L15.146,6.402 L16,5.548 L16,14 C16,15.1045695 15.1045695,16 14,16 L14,16 Z M12.431,6.3 L9.971,8.759 C9.65960356,9.04399644 9.28759711,9.25461774 8.883,9.375 L6.483,9.975 C6.34764329,10.0337925 6.19009657,10.0037633 6.08585669,9.89930262 C5.98161681,9.79484189 5.95192117,9.63723198 6.011,9.502 L6.611,7.102 C6.73023938,6.69691773 6.94099952,6.32466606 7.227,6.014 L9.687,3.555 L11.511,1.732 L14.258,4.478 L12.431,6.3 Z M15.139,3.594 L12.391,0.848 L12.665,0.574 C13.1557043,0.0832955856 13.8709214,-0.10834635 14.541236,0.0712638693 C15.2115506,0.250874088 15.7351259,0.774449391 15.9147361,1.44476399 C16.0943463,2.11507859 15.9027044,2.83029574 15.412,3.321 L15.139,3.594 Z" id="Edit-Icon"></path>
            </g>
        </g>
    </g>
</svg>