<?xml version="1.0" encoding="UTF-8"?>
<svg width="16px" height="16px" viewBox="0 0 16 16" version="1.1" xmlns="http://www.w3.org/2000/svg" xmlns:xlink="http://www.w3.org/1999/xlink">
    <g stroke="none" stroke-width="1" fill="none" fill-rule="evenodd">
        <g transform="translate(-512.000000, -64.000000)" fill="#BBC5D5">
            <g transform="translate(512.000000, 64.000000)">
                <path d="M6,11 C5.448,11 5,10.552 5,10 L5,6 C5,5.448 5.448,5 6,5 C6.552,5 7,5.448 7,6 L7,10 C7,10.552 6.552,11 6,11 M10,11 C9.448,11 9,10.552 9,10 L9,6 C9,5.448 9.448,5 10,5 C10.552,5 11,5.448 11,6 L11,10 C11,10.552 10.552,11 10,11 M8,2 C4.686,2 2,4.686 2,8 C2,11.314 4.686,14 8,14 C11.314,14 14,11.314 14,8 C14,4.686 11.314,2 8,2 M8,16 C3.582,16 0,12.418 0,8 C0,3.582 3.582,0 8,0 C12.418,0 16,3.582 16,8 C16,12.418 12.418,16 8,16" id="Pause-Icon"></path>
            </g>
        </g>
    </g>
</svg>