<?xml version="1.0" encoding="UTF-8"?>
<svg width="16px" height="16px" viewBox="0 0 16 16" version="1.1" xmlns="http://www.w3.org/2000/svg" xmlns:xlink="http://www.w3.org/1999/xlink">
    <g stroke="none" stroke-width="1" fill="none" fill-rule="evenodd">
        <g transform="translate(-128.000000, -64.000000)" fill="#E64100" fill-rule="nonzero">
            <g transform="translate(128.000000, 64.000000)">
                <path d="M1,9 C0.44771525,9 0,8.55228475 0,8 C0,7.44771525 0.44771525,7 1,7 L7,7 L7,1 C7,0.44771525 7.44771525,0 8,0 C8.55228475,0 9,0.44771525 9,1 L9,7 L15,7 C15.5522847,7 16,7.44771525 16,8 C16,8.55228475 15.5522847,9 15,9 L9,9 L9,15 C9,15.5522847 8.55228475,16 8,16 C7.44771525,16 7,15.5522847 7,15 L7,9 L1,9 Z" id="Plus-Icon"></path>
            </g>
        </g>
    </g>
</svg>