<?xml version="1.0" encoding="UTF-8"?>
<svg width="16px" height="16px" viewBox="0 0 16 16" version="1.1" xmlns="http://www.w3.org/2000/svg" xmlns:xlink="http://www.w3.org/1999/xlink">
    <g stroke="none" stroke-width="1" fill="none" fill-rule="evenodd">
        <g transform="translate(-384.000000, -64.000000)" fill="#BBC5D5">
            <g transform="translate(384.000000, 64.000000)">
                <path d="M15,4 L15,14 C15,15.1045695 14.1045695,16 13,16 L3,16 C1.8954305,16 1,15.1045695 1,14 L1,4 C0.44771525,4 0,3.55228475 0,3 C0,2.44771525 0.44771525,2 1,2 L6,2 C6,0.8954305 6.8954305,0 8,0 C9.1045695,0 10,0.8954305 10,2 L15,2 C15.5522847,2 16,2.44771525 16,3 C16,3.55228475 15.5522847,4 15,4 L15,4 Z M13,4 L3,4 L3,14 L13,14 L13,4 L13,4 Z M5,5 C5.55228475,5 6,5.44771525 6,6 L6,12 C6,12.5522847 5.55228475,13 5,13 C4.44771525,13 4,12.5522847 4,12 L4,6 C4,5.44771525 4.44771525,5 5,5 L5,5 Z M8,5 C8.55228475,5 9,5.44771525 9,6 L9,12 C9,12.5522847 8.55228475,13 8,13 C7.44771525,13 7,12.5522847 7,12 L7,6 C7,5.44771525 7.44771525,5 8,5 L8,5 Z M11,5 C11.5522847,5 12,5.44771525 12,6 L12,12 C12,12.5522847 11.5522847,13 11,13 C10.4477153,13 10,12.5522847 10,12 L10,6 C10,5.44771525 10.4477153,5 11,5 L11,5 Z" id="Trash-Icon"></path>
            </g>
        </g>
    </g>
</svg>