<svg width="24" height="24" viewBox="0 0 24 24" fill="none" xmlns="http://www.w3.org/2000/svg">
<g clip-path="url(#clip0_344_1198)">
<path d="M17.7995 4C18.6705 4 19.4752 4.3987 20.011 5.05061C20.6279 4.65686 22.1404 3.85761 24 4.05368C23.9652 6.36961 22.5274 7.98536 22.3292 8.1972L22.3067 8.22088C22.1178 8.45318 21.8617 8.71195 21.5612 8.9851L23.7959 15.461C23.9824 16.0014 23.8982 16.6029 23.5705 17.0695C23.2428 17.5361 22.7096 17.8146 22.1433 17.8146L19.5922 17.8141C19.2199 17.8139 18.8681 17.6695 18.6012 17.408L17.5445 16.2541C17.4697 16.1724 17.4277 16.066 17.4267 15.9552C17.4243 15.7073 17.6233 15.5044 17.8713 15.5021L18.6697 15.4944C18.8029 15.4931 18.9312 15.5451 19.026 15.6388L19.6425 16.2484L22.1438 16.249C22.2301 16.249 22.2811 16.2022 22.3087 16.1629C22.3363 16.1236 22.3631 16.0595 22.3348 15.977L20.2859 10.0409C18.5959 11.3463 16.5752 12.6394 16.2957 12.8172L16.263 12.8379L12.1134 15.5117C11.6386 17.4237 9.39128 17.7885 9.39128 17.7885L5.12597 21L8.78449 17.0969C8.78449 17.0969 9.40953 14.8828 11.3425 14.6329L14.4596 10.7822C14.4596 10.7822 16.9379 7.66339 18.7767 6.00151C18.5306 5.72939 18.1787 5.56559 17.7995 5.56559H15.8182C15.4682 5.56559 15.1379 5.70248 14.888 5.95095L11.9705 8.88214C11.8769 8.97621 11.7497 9.02919 11.6169 9.02941L10.716 9.03087C10.5943 9.03107 10.4775 8.9829 10.3912 8.89697C10.2116 8.71798 10.2111 8.42728 10.3901 8.24767L11.5153 7.11853L6.01472 7.11841C5.20915 7.11841 4.50802 7.6323 4.25954 8.40244L4.24577 8.44099L1.30318 15.9185C1.2458 16.0644 1.29997 16.1795 1.33727 16.2354C1.37468 16.2911 1.46053 16.3847 1.6157 16.3847L5.59076 16.3852L6.29336 15.6543C6.38692 15.557 6.51587 15.5016 6.65088 15.5008L7.26163 15.4972C7.35202 15.4967 7.43947 15.5293 7.50752 15.5887C7.66148 15.7233 7.67718 15.9573 7.54258 16.1112L6.57399 17.2192C6.3285 17.5115 5.97007 17.6791 5.59076 17.6791L1.61559 17.6787C1.0795 17.6787 0.579672 17.4106 0.278631 16.9618C-0.0222958 16.5128 -0.0835829 15.9438 0.114854 15.4398L3.05021 7.98027C3.47727 6.68626 4.66055 5.82439 6.00795 5.82439L12.8113 5.82463L13.802 4.83539C14.3441 4.29631 15.0597 4 15.8182 4H17.7995ZM16.0665 14.629C15.9699 15.8673 15.7789 16.6752 15.4935 17.0528C15.2081 17.4303 13.9743 18.5075 11.7922 20.2844L12.9583 18.0736C13.1433 17.7228 13.1036 17.2959 12.857 16.9853L12.5503 16.5989L16.0665 14.629ZM12.4572 10.9079L10.1064 14.2059L9.77404 13.8628C9.49306 13.5728 9.06521 13.4802 8.68944 13.6281L6.3991 14.5298C8.42682 12.6453 9.66258 11.5703 10.1064 11.305C10.5502 11.0397 11.3338 10.9073 12.4572 10.9079ZM6.92298 8.69202V10.0505H8.26579V10.8863H6.92298V12.2448H6.09664V10.8863H4.75383V10.0505H6.09664V8.69202H6.92298ZM17.6901 10.0596C17.6542 10.0283 17.6077 10.028 17.5716 10.0588L17.2694 10.317C17.2393 10.3428 17.2211 10.3864 17.2208 10.4334L17.2178 11.1346C17.2175 11.2118 17.2652 11.275 17.3244 11.2753L17.9267 11.2799C17.9859 11.2803 18.0342 11.218 18.0345 11.1407L18.0376 10.4393C18.0377 10.3925 18.0199 10.3484 17.99 10.3224L17.6901 10.0596ZM18.2315 9.41391C18.185 9.41377 18.1416 9.43183 18.1157 9.46202L17.8561 9.76549C17.8251 9.80175 17.8248 9.84881 17.8553 9.88533L18.1105 10.191C18.1359 10.2215 18.1791 10.2399 18.2256 10.2402L18.9188 10.2432C18.9952 10.2435 19.0574 10.1953 19.0579 10.1354L19.0623 9.52609C19.0628 9.46624 19.0012 9.41733 18.9247 9.41707L18.2315 9.41391ZM16.3367 9.41391C16.2604 9.41364 16.198 9.46189 16.1976 9.52174L16.1931 10.1311C16.1927 10.191 16.2543 10.2398 16.3307 10.2402L17.0238 10.2432C17.0702 10.2434 17.1138 10.2254 17.1395 10.1951L17.3993 9.89165C17.4303 9.85553 17.4306 9.80834 17.4001 9.77195L17.1449 9.46611C17.1195 9.43566 17.0763 9.4172 17.0299 9.41707L16.3367 9.41391ZM17.3287 8.37723C17.2694 8.37673 17.2212 8.43902 17.2208 8.51647L17.2178 9.21776C17.2177 9.26474 17.2354 9.30866 17.2654 9.33487L17.5653 9.59751C17.601 9.62883 17.6477 9.62917 17.6837 9.59836L17.986 9.34015C18.0161 9.31444 18.0343 9.2707 18.0345 9.22372L18.0376 8.52243C18.0378 8.44515 17.9902 8.38217 17.931 8.38166L17.3287 8.37723Z" fill="#FFA83A"/>
<path d="M17.7995 4C18.6705 4 19.4752 4.3987 20.011 5.05061C20.6279 4.65686 22.1404 3.85761 24 4.05368C23.9652 6.36961 22.5274 7.98536 22.3292 8.1972L22.3067 8.22088C22.1178 8.45318 21.8617 8.71195 21.5612 8.9851L23.7959 15.461C23.9824 16.0014 23.8982 16.6029 23.5705 17.0695C23.2428 17.5361 22.7096 17.8146 22.1433 17.8146L19.5922 17.8141C19.2199 17.8139 18.8681 17.6695 18.6012 17.408L17.5445 16.2541C17.4697 16.1724 17.4277 16.066 17.4267 15.9552C17.4243 15.7073 17.6233 15.5044 17.8713 15.5021L18.6697 15.4944C18.8029 15.4931 18.9312 15.5451 19.026 15.6388L19.6425 16.2484L22.1438 16.249C22.2301 16.249 22.2811 16.2022 22.3087 16.1629C22.3363 16.1236 22.3631 16.0595 22.3348 15.977L20.2859 10.0409C18.5959 11.3463 16.5752 12.6394 16.2957 12.8172L16.263 12.8379L12.1134 15.5117C11.6386 17.4237 9.39128 17.7885 9.39128 17.7885L5.12597 21L8.78449 17.0969C8.78449 17.0969 9.40953 14.8828 11.3425 14.6329L14.4596 10.7822C14.4596 10.7822 16.9379 7.66339 18.7767 6.00151C18.5306 5.72939 18.1787 5.56559 17.7995 5.56559H15.8182C15.4682 5.56559 15.1379 5.70248 14.888 5.95095L11.9705 8.88214C11.8769 8.97621 11.7497 9.02919 11.6169 9.02941L10.716 9.03087C10.5943 9.03107 10.4775 8.9829 10.3912 8.89697C10.2116 8.71798 10.2111 8.42728 10.3901 8.24767L11.5153 7.11853L6.01472 7.11841C5.20915 7.11841 4.50802 7.6323 4.25954 8.40244L4.24577 8.44099L1.30318 15.9185C1.2458 16.0644 1.29997 16.1795 1.33727 16.2354C1.37468 16.2911 1.46053 16.3847 1.6157 16.3847L5.59076 16.3852L6.29336 15.6543C6.38692 15.557 6.51587 15.5016 6.65088 15.5008L7.26163 15.4972C7.35202 15.4967 7.43947 15.5293 7.50752 15.5887C7.66148 15.7233 7.67718 15.9573 7.54258 16.1112L6.57399 17.2192C6.3285 17.5115 5.97007 17.6791 5.59076 17.6791L1.61559 17.6787C1.0795 17.6787 0.579672 17.4106 0.278631 16.9618C-0.0222958 16.5128 -0.0835829 15.9438 0.114854 15.4398L3.05021 7.98027C3.47727 6.68626 4.66055 5.82439 6.00795 5.82439L12.8113 5.82463L13.802 4.83539C14.3441 4.29631 15.0597 4 15.8182 4H17.7995ZM16.0665 14.629C15.9699 15.8673 15.7789 16.6752 15.4935 17.0528C15.2081 17.4303 13.9743 18.5075 11.7922 20.2844L12.9583 18.0736C13.1433 17.7228 13.1036 17.2959 12.857 16.9853L12.5503 16.5989L16.0665 14.629ZM12.4572 10.9079L10.1064 14.2059L9.77404 13.8628C9.49306 13.5728 9.06521 13.4802 8.68944 13.6281L6.3991 14.5298C8.42682 12.6453 9.66258 11.5703 10.1064 11.305C10.5502 11.0397 11.3338 10.9073 12.4572 10.9079ZM6.92298 8.69202V10.0505H8.26579V10.8863H6.92298V12.2448H6.09664V10.8863H4.75383V10.0505H6.09664V8.69202H6.92298ZM17.6901 10.0596C17.6542 10.0283 17.6077 10.028 17.5716 10.0588L17.2694 10.317C17.2393 10.3428 17.2211 10.3864 17.2208 10.4334L17.2178 11.1346C17.2175 11.2118 17.2652 11.275 17.3244 11.2753L17.9267 11.2799C17.9859 11.2803 18.0342 11.218 18.0345 11.1407L18.0376 10.4393C18.0377 10.3925 18.0199 10.3484 17.99 10.3224L17.6901 10.0596ZM18.2315 9.41391C18.185 9.41377 18.1416 9.43183 18.1157 9.46202L17.8561 9.76549C17.8251 9.80175 17.8248 9.84881 17.8553 9.88533L18.1105 10.191C18.1359 10.2215 18.1791 10.2399 18.2256 10.2402L18.9188 10.2432C18.9952 10.2435 19.0574 10.1953 19.0579 10.1354L19.0623 9.52609C19.0628 9.46624 19.0012 9.41733 18.9247 9.41707L18.2315 9.41391ZM16.3367 9.41391C16.2604 9.41364 16.198 9.46189 16.1976 9.52174L16.1931 10.1311C16.1927 10.191 16.2543 10.2398 16.3307 10.2402L17.0238 10.2432C17.0702 10.2434 17.1138 10.2254 17.1395 10.1951L17.3993 9.89165C17.4303 9.85553 17.4306 9.80834 17.4001 9.77195L17.1449 9.46611C17.1195 9.43566 17.0763 9.4172 17.0299 9.41707L16.3367 9.41391ZM17.3287 8.37723C17.2694 8.37673 17.2212 8.43902 17.2208 8.51647L17.2178 9.21776C17.2177 9.26474 17.2354 9.30866 17.2654 9.33487L17.5653 9.59751C17.601 9.62883 17.6477 9.62917 17.6837 9.59836L17.986 9.34015C18.0161 9.31444 18.0343 9.2707 18.0345 9.22372L18.0376 8.52243C18.0378 8.44515 17.9902 8.38217 17.931 8.38166L17.3287 8.37723Z" fill="url(#paint0_linear_344_1198)"/>
</g>
<defs>
<linearGradient id="paint0_linear_344_1198" x1="-3.34884" y1="8.25" x2="28.0094" y2="28.2169" gradientUnits="userSpaceOnUse">
<stop stop-color="#0362FF"/>
<stop offset="0.497725" stop-color="#0FFFFE"/>
<stop offset="0.963091" stop-color="#0039FF"/>
</linearGradient>
<clipPath id="clip0_344_1198">
<rect width="24" height="24" fill="white"/>
</clipPath>
</defs>
</svg>
