<svg width="24" height="24" viewBox="0 0 24 24" fill="none" xmlns="http://www.w3.org/2000/svg">
<g clip-path="url(#clip0_344_1213)">
<path d="M6.82933 5.02774C6.94631 5.37006 7.17474 5.79259 7.46949 6.23917C5.7251 6.58848 4.20808 7.55429 3.10585 8.89658L2.91568 9.13731H5.7188C6.22789 8.01207 6.82271 7.10937 7.35922 6.43943L7.49331 6.27508C7.65229 6.51379 7.82978 6.7589 8.01892 7.00191C7.63854 7.47843 7.21555 8.08444 6.82417 8.81607L6.65859 9.13731H8.53796L8.53674 7.62825C8.8161 7.94663 9.1061 8.2472 9.38928 8.50821L9.3897 9.13731L10.1807 9.13797C10.2352 9.17307 10.2885 9.20536 10.3405 9.23464C10.6233 9.39374 10.9107 9.5039 11.1992 9.566C11.1403 9.68952 11.1079 9.82952 11.1079 9.97712C11.1079 10.5111 11.5322 10.9464 12.0544 10.9464C12.5767 10.9464 13.001 10.5111 13.001 9.97712C13.001 9.76513 12.9341 9.56883 12.8208 9.40917C13.0208 9.32399 13.2112 9.2141 13.3965 9.08413L13.536 8.98L13.6057 9.11476C13.7495 9.38087 13.8313 9.62207 13.8518 9.87822L13.855 10.0087L13.846 10.0093C13.8352 10.6018 13.5402 11.1055 13.104 11.4315L12.9817 11.5159C13.0852 12.0129 13.1652 12.5314 13.2095 13.0778L13.2358 13.4929L13.242 13.4927C13.2426 13.6562 13.2472 13.884 13.2563 14.1828L13.262 14.3647L13.2517 14.3652C13.2366 14.878 13.1894 15.3681 13.1184 15.839L13.1029 15.937C13.0416 16.1854 12.9951 16.3929 12.9714 16.5191C12.9311 16.7339 12.9031 16.9205 12.8875 17.0898C12.7245 16.9453 12.5122 16.8599 12.2807 16.8599C11.7584 16.8599 11.3341 17.2942 11.3341 17.8292C11.3341 18.3632 11.7584 18.7977 12.2807 18.7977C12.6043 18.7977 12.8902 18.6309 13.061 18.377C13.16 18.6649 13.2937 18.9567 13.4417 19.233C13.1288 19.5055 12.7232 19.6699 12.2807 19.6699C12.1356 19.6699 12.0065 19.6181 11.8714 19.585C11.4597 20.382 11.0138 21.0612 10.598 21.5825C11.8237 21.3043 12.9346 20.7234 13.8597 19.9218C14.0913 20.2641 14.3197 20.5388 14.4885 20.6905C14.5676 20.7616 14.6472 20.8271 14.7275 20.8869C13.2738 22.144 11.4201 22.9358 9.3897 23.0402C9.3897 23.0402 9.22334 23.0536 8.94268 23.0536L8.83183 23.0531C8.62895 23.0512 8.53796 23.0447 8.53796 23.0447C3.79063 22.8232 0 18.8445 0 13.9287C0 9.68385 2.81999 6.11345 6.64649 5.07547L6.82933 5.02774ZM10.6214 18.5302H9.3897V21.6525C9.87163 21.1274 10.5141 20.282 11.093 19.1877C10.8925 19.0042 10.7253 18.7879 10.6214 18.5302ZM8.53796 18.5302H6.49983C7.09945 19.8514 7.83768 20.8588 8.40097 21.4999L8.53796 21.6525V18.5302ZM5.5622 18.5302H2.76256C3.85613 20.0659 5.4659 21.1896 7.34202 21.6001C6.74969 20.8595 6.08947 19.8092 5.5622 18.5302ZM19.3271 13.1109C19.6111 12.9511 20.5433 12.2924 21.5838 13.1161C22.6244 13.9398 24.0615 16.698 23.998 17.212C23.9344 17.726 23.7754 18.0456 23.1782 18.2168C22.5811 18.388 20.9076 17.3807 20.4743 17.3876C20.0969 17.3934 19.2916 17.6012 19.0909 17.6545C18.8923 17.7157 18.0994 17.9662 17.776 18.1613C17.4051 18.385 16.5195 20.1262 15.9223 20.2974C15.3252 20.4686 15.0212 20.2818 14.6949 19.8796C14.3686 19.4774 14.1256 16.3768 14.5717 15.1268C15.0177 13.8769 16.1572 13.9415 16.4827 13.9265C16.8009 13.9116 17.2963 14.0707 18.0262 13.9415C18.7134 13.6643 19.0492 13.2669 19.3271 13.1109ZM12.3995 14.3652H9.3897V17.658H10.5165C10.603 16.7476 11.3179 16.0321 12.2217 16.0002C12.3143 15.4804 12.3809 14.9389 12.3995 14.3652ZM3.3614 14.3652H1.32087C1.37963 15.4368 1.64885 16.4432 2.08775 17.3569L2.24028 17.658H5.22363C5.07025 17.182 4.95684 16.6647 4.86897 16.1242L4.812 15.7477L4.76629 15.7422C4.12094 15.6245 3.6105 15.141 3.40366 14.5127L3.3614 14.3652ZM8.53796 14.3652H6.78352C6.64887 14.9146 6.28818 15.3725 5.80278 15.605L5.669 15.6607L5.73616 16.0725C5.80981 16.4939 5.90018 16.9006 6.01381 17.2834L6.13545 17.658H8.53796V14.3652ZM17.3277 15.9814C17.1663 15.4185 16.5743 15.0943 16.0052 15.2575C15.4361 15.4207 15.1058 16.0093 15.2672 16.5722C15.4286 17.1353 16.0207 17.4593 16.5897 17.2961C17.1588 17.1329 17.4892 16.5445 17.3277 15.9814ZM19.6828 16.2771L19.6296 16.2849L18.3668 16.647C18.2607 16.6774 18.1988 16.7886 18.2291 16.8943L18.2359 16.918C18.2662 17.0237 18.3776 17.0851 18.4838 17.0547L19.7465 16.6926C19.8527 16.6622 19.9146 16.551 19.8843 16.4453L19.8775 16.4216C19.8472 16.3159 19.7358 16.2544 19.6296 16.2849L19.6828 16.2771ZM20.7225 14.0629L20.3847 14.1598C20.2815 14.1894 20.2193 14.2913 20.2464 14.386L20.3673 14.8077L19.9083 14.9393C19.8049 14.969 19.7426 15.0709 19.7699 15.1659L19.8588 15.476C19.8861 15.571 19.9929 15.6244 20.0963 15.5948L20.5553 15.4631L20.6762 15.8848C20.7034 15.9796 20.8102 16.033 20.9133 16.0034L21.2511 15.9065C21.3543 15.877 21.4165 15.7751 21.3894 15.6803L21.2685 15.2586L21.7275 15.127C21.8306 15.0974 21.8929 14.9955 21.8656 14.9005L21.7767 14.5904C21.7495 14.4954 21.6427 14.442 21.5395 14.4716L21.0805 14.6032L20.9596 14.1815C20.9324 14.0868 20.8256 14.0334 20.7225 14.0629ZM5.07311 12.9599C4.55083 12.9599 4.12659 13.3952 4.12659 13.9292C4.12659 14.4631 4.55083 14.8976 5.07311 14.8976C5.59365 14.8976 6.01789 14.4631 6.01789 13.9292C6.01789 13.3952 5.59365 12.9599 5.07311 12.9599ZM5.35919 10.0093H2.34092C1.8048 10.9525 1.45743 12.0128 1.34656 13.1496L1.32044 13.4929L3.326 13.4927C3.49826 12.779 4.07064 12.2309 4.78184 12.1118L4.857 12.1017L4.91484 11.7573C5.00255 11.2603 5.11077 10.7824 5.24938 10.337L5.35919 10.0093ZM8.53796 10.0093H6.29443C6.03025 10.6708 5.8485 11.4251 5.71511 12.2209C6.20588 12.4152 6.56938 12.826 6.73864 13.3368L6.78352 13.4929H8.53796V10.0093ZM10.2629 10.0093H9.3897V13.4929H12.3832C12.3529 12.8928 12.2672 12.3333 12.1566 11.7971C12.1208 11.7993 12.0907 11.8187 12.0544 11.8187C11.0743 11.8187 10.2809 11.0088 10.2629 10.0093ZM15.4893 7.64335C16.8902 8.66121 17.7358 10.1727 18.0204 12.1416C18.0642 12.4443 17.8596 12.7259 17.5635 12.7706C17.2674 12.8154 16.9919 12.6063 16.9481 12.3036C16.705 10.6222 16.0112 9.382 14.8613 8.54652C14.6173 8.36926 14.5601 8.02338 14.7335 7.77398C14.9069 7.52458 15.2453 7.46609 15.4893 7.64335ZM15.6822 0.137088C16.2452 -0.12545 16.5747 0.0115315 16.9599 0.357713C17.3451 0.703894 18.0702 3.72831 17.8251 5.03272C17.5801 6.33704 16.4445 6.45148 16.1254 6.51723C15.8134 6.58172 15.2992 6.50209 14.5986 6.74387C13.9632 7.1251 13.6937 7.57018 13.4436 7.76777C13.1881 7.96999 12.3704 8.76637 11.2138 8.11559C10.0572 7.46481 8.20629 4.96538 8.18868 4.44779C8.17108 3.93021 8.27813 3.58967 8.84114 3.32713C9.40416 3.06459 11.2146 3.79775 11.6415 3.72316C12.0134 3.65834 12.7762 3.3272 12.9661 3.24307C13.1527 3.15163 13.8967 2.78013 14.1856 2.53685C14.5169 2.25785 15.1192 0.399625 15.6822 0.137088ZM11.4244 5.15898L11.1059 5.30751C11.0087 5.35285 10.9631 5.46324 11.0048 5.55256L11.1902 5.95013L10.7574 6.15194C10.6601 6.19728 10.6146 6.30766 10.6564 6.39723L10.7927 6.68962C10.8345 6.77919 10.9483 6.81524 11.0455 6.7699L11.4783 6.56809L11.6637 6.96567C11.7054 7.05499 11.8192 7.09104 11.9164 7.0457L12.235 6.89717C12.3322 6.85183 12.3778 6.74144 12.3361 6.65212L12.1507 6.25454L12.5835 6.05274C12.681 6.00727 12.7266 5.89689 12.6848 5.80732L12.5484 5.51494C12.5067 5.42537 12.3928 5.38932 12.2953 5.43478L11.8626 5.63659L11.6772 5.23901C11.6355 5.14969 11.5217 5.11363 11.4244 5.15898ZM16.9121 3.71389C16.6645 3.18299 16.0291 2.95564 15.4925 3.20584C14.956 3.45604 14.7217 4.08892 14.9693 4.61982C15.2168 5.15055 15.8523 5.37808 16.3888 5.12788C16.9254 4.87768 17.1595 4.24462 16.9121 3.71389ZM13.9258 3.83681C13.8794 3.73713 13.7597 3.69387 13.6596 3.74056L12.469 4.29574C12.3689 4.34243 12.3251 4.46187 12.3716 4.56156L12.382 4.58389C12.4285 4.68358 12.5481 4.72683 12.6483 4.68015L13.8389 4.12496C13.939 4.07828 13.9827 3.95884 13.9363 3.85915L13.9258 3.83681Z" fill="#FFA83A"/>
<path d="M6.82933 5.02774C6.94631 5.37006 7.17474 5.79259 7.46949 6.23917C5.7251 6.58848 4.20808 7.55429 3.10585 8.89658L2.91568 9.13731H5.7188C6.22789 8.01207 6.82271 7.10937 7.35922 6.43943L7.49331 6.27508C7.65229 6.51379 7.82978 6.7589 8.01892 7.00191C7.63854 7.47843 7.21555 8.08444 6.82417 8.81607L6.65859 9.13731H8.53796L8.53674 7.62825C8.8161 7.94663 9.1061 8.2472 9.38928 8.50821L9.3897 9.13731L10.1807 9.13797C10.2352 9.17307 10.2885 9.20536 10.3405 9.23464C10.6233 9.39374 10.9107 9.5039 11.1992 9.566C11.1403 9.68952 11.1079 9.82952 11.1079 9.97712C11.1079 10.5111 11.5322 10.9464 12.0544 10.9464C12.5767 10.9464 13.001 10.5111 13.001 9.97712C13.001 9.76513 12.9341 9.56883 12.8208 9.40917C13.0208 9.32399 13.2112 9.2141 13.3965 9.08413L13.536 8.98L13.6057 9.11476C13.7495 9.38087 13.8313 9.62207 13.8518 9.87822L13.855 10.0087L13.846 10.0093C13.8352 10.6018 13.5402 11.1055 13.104 11.4315L12.9817 11.5159C13.0852 12.0129 13.1652 12.5314 13.2095 13.0778L13.2358 13.4929L13.242 13.4927C13.2426 13.6562 13.2472 13.884 13.2563 14.1828L13.262 14.3647L13.2517 14.3652C13.2366 14.878 13.1894 15.3681 13.1184 15.839L13.1029 15.937C13.0416 16.1854 12.9951 16.3929 12.9714 16.5191C12.9311 16.7339 12.9031 16.9205 12.8875 17.0898C12.7245 16.9453 12.5122 16.8599 12.2807 16.8599C11.7584 16.8599 11.3341 17.2942 11.3341 17.8292C11.3341 18.3632 11.7584 18.7977 12.2807 18.7977C12.6043 18.7977 12.8902 18.6309 13.061 18.377C13.16 18.6649 13.2937 18.9567 13.4417 19.233C13.1288 19.5055 12.7232 19.6699 12.2807 19.6699C12.1356 19.6699 12.0065 19.6181 11.8714 19.585C11.4597 20.382 11.0138 21.0612 10.598 21.5825C11.8237 21.3043 12.9346 20.7234 13.8597 19.9218C14.0913 20.2641 14.3197 20.5388 14.4885 20.6905C14.5676 20.7616 14.6472 20.8271 14.7275 20.8869C13.2738 22.144 11.4201 22.9358 9.3897 23.0402C9.3897 23.0402 9.22334 23.0536 8.94268 23.0536L8.83183 23.0531C8.62895 23.0512 8.53796 23.0447 8.53796 23.0447C3.79063 22.8232 0 18.8445 0 13.9287C0 9.68385 2.81999 6.11345 6.64649 5.07547L6.82933 5.02774ZM10.6214 18.5302H9.3897V21.6525C9.87163 21.1274 10.5141 20.282 11.093 19.1877C10.8925 19.0042 10.7253 18.7879 10.6214 18.5302ZM8.53796 18.5302H6.49983C7.09945 19.8514 7.83768 20.8588 8.40097 21.4999L8.53796 21.6525V18.5302ZM5.5622 18.5302H2.76256C3.85613 20.0659 5.4659 21.1896 7.34202 21.6001C6.74969 20.8595 6.08947 19.8092 5.5622 18.5302ZM19.3271 13.1109C19.6111 12.9511 20.5433 12.2924 21.5838 13.1161C22.6244 13.9398 24.0615 16.698 23.998 17.212C23.9344 17.726 23.7754 18.0456 23.1782 18.2168C22.5811 18.388 20.9076 17.3807 20.4743 17.3876C20.0969 17.3934 19.2916 17.6012 19.0909 17.6545C18.8923 17.7157 18.0994 17.9662 17.776 18.1613C17.4051 18.385 16.5195 20.1262 15.9223 20.2974C15.3252 20.4686 15.0212 20.2818 14.6949 19.8796C14.3686 19.4774 14.1256 16.3768 14.5717 15.1268C15.0177 13.8769 16.1572 13.9415 16.4827 13.9265C16.8009 13.9116 17.2963 14.0707 18.0262 13.9415C18.7134 13.6643 19.0492 13.2669 19.3271 13.1109ZM12.3995 14.3652H9.3897V17.658H10.5165C10.603 16.7476 11.3179 16.0321 12.2217 16.0002C12.3143 15.4804 12.3809 14.9389 12.3995 14.3652ZM3.3614 14.3652H1.32087C1.37963 15.4368 1.64885 16.4432 2.08775 17.3569L2.24028 17.658H5.22363C5.07025 17.182 4.95684 16.6647 4.86897 16.1242L4.812 15.7477L4.76629 15.7422C4.12094 15.6245 3.6105 15.141 3.40366 14.5127L3.3614 14.3652ZM8.53796 14.3652H6.78352C6.64887 14.9146 6.28818 15.3725 5.80278 15.605L5.669 15.6607L5.73616 16.0725C5.80981 16.4939 5.90018 16.9006 6.01381 17.2834L6.13545 17.658H8.53796V14.3652ZM17.3277 15.9814C17.1663 15.4185 16.5743 15.0943 16.0052 15.2575C15.4361 15.4207 15.1058 16.0093 15.2672 16.5722C15.4286 17.1353 16.0207 17.4593 16.5897 17.2961C17.1588 17.1329 17.4892 16.5445 17.3277 15.9814ZM19.6828 16.2771L19.6296 16.2849L18.3668 16.647C18.2607 16.6774 18.1988 16.7886 18.2291 16.8943L18.2359 16.918C18.2662 17.0237 18.3776 17.0851 18.4838 17.0547L19.7465 16.6926C19.8527 16.6622 19.9146 16.551 19.8843 16.4453L19.8775 16.4216C19.8472 16.3159 19.7358 16.2544 19.6296 16.2849L19.6828 16.2771ZM20.7225 14.0629L20.3847 14.1598C20.2815 14.1894 20.2193 14.2913 20.2464 14.386L20.3673 14.8077L19.9083 14.9393C19.8049 14.969 19.7426 15.0709 19.7699 15.1659L19.8588 15.476C19.8861 15.571 19.9929 15.6244 20.0963 15.5948L20.5553 15.4631L20.6762 15.8848C20.7034 15.9796 20.8102 16.033 20.9133 16.0034L21.2511 15.9065C21.3543 15.877 21.4165 15.7751 21.3894 15.6803L21.2685 15.2586L21.7275 15.127C21.8306 15.0974 21.8929 14.9955 21.8656 14.9005L21.7767 14.5904C21.7495 14.4954 21.6427 14.442 21.5395 14.4716L21.0805 14.6032L20.9596 14.1815C20.9324 14.0868 20.8256 14.0334 20.7225 14.0629ZM5.07311 12.9599C4.55083 12.9599 4.12659 13.3952 4.12659 13.9292C4.12659 14.4631 4.55083 14.8976 5.07311 14.8976C5.59365 14.8976 6.01789 14.4631 6.01789 13.9292C6.01789 13.3952 5.59365 12.9599 5.07311 12.9599ZM5.35919 10.0093H2.34092C1.8048 10.9525 1.45743 12.0128 1.34656 13.1496L1.32044 13.4929L3.326 13.4927C3.49826 12.779 4.07064 12.2309 4.78184 12.1118L4.857 12.1017L4.91484 11.7573C5.00255 11.2603 5.11077 10.7824 5.24938 10.337L5.35919 10.0093ZM8.53796 10.0093H6.29443C6.03025 10.6708 5.8485 11.4251 5.71511 12.2209C6.20588 12.4152 6.56938 12.826 6.73864 13.3368L6.78352 13.4929H8.53796V10.0093ZM10.2629 10.0093H9.3897V13.4929H12.3832C12.3529 12.8928 12.2672 12.3333 12.1566 11.7971C12.1208 11.7993 12.0907 11.8187 12.0544 11.8187C11.0743 11.8187 10.2809 11.0088 10.2629 10.0093ZM15.4893 7.64335C16.8902 8.66121 17.7358 10.1727 18.0204 12.1416C18.0642 12.4443 17.8596 12.7259 17.5635 12.7706C17.2674 12.8154 16.9919 12.6063 16.9481 12.3036C16.705 10.6222 16.0112 9.382 14.8613 8.54652C14.6173 8.36926 14.5601 8.02338 14.7335 7.77398C14.9069 7.52458 15.2453 7.46609 15.4893 7.64335ZM15.6822 0.137088C16.2452 -0.12545 16.5747 0.0115315 16.9599 0.357713C17.3451 0.703894 18.0702 3.72831 17.8251 5.03272C17.5801 6.33704 16.4445 6.45148 16.1254 6.51723C15.8134 6.58172 15.2992 6.50209 14.5986 6.74387C13.9632 7.1251 13.6937 7.57018 13.4436 7.76777C13.1881 7.96999 12.3704 8.76637 11.2138 8.11559C10.0572 7.46481 8.20629 4.96538 8.18868 4.44779C8.17108 3.93021 8.27813 3.58967 8.84114 3.32713C9.40416 3.06459 11.2146 3.79775 11.6415 3.72316C12.0134 3.65834 12.7762 3.3272 12.9661 3.24307C13.1527 3.15163 13.8967 2.78013 14.1856 2.53685C14.5169 2.25785 15.1192 0.399625 15.6822 0.137088ZM11.4244 5.15898L11.1059 5.30751C11.0087 5.35285 10.9631 5.46324 11.0048 5.55256L11.1902 5.95013L10.7574 6.15194C10.6601 6.19728 10.6146 6.30766 10.6564 6.39723L10.7927 6.68962C10.8345 6.77919 10.9483 6.81524 11.0455 6.7699L11.4783 6.56809L11.6637 6.96567C11.7054 7.05499 11.8192 7.09104 11.9164 7.0457L12.235 6.89717C12.3322 6.85183 12.3778 6.74144 12.3361 6.65212L12.1507 6.25454L12.5835 6.05274C12.681 6.00727 12.7266 5.89689 12.6848 5.80732L12.5484 5.51494C12.5067 5.42537 12.3928 5.38932 12.2953 5.43478L11.8626 5.63659L11.6772 5.23901C11.6355 5.14969 11.5217 5.11363 11.4244 5.15898ZM16.9121 3.71389C16.6645 3.18299 16.0291 2.95564 15.4925 3.20584C14.956 3.45604 14.7217 4.08892 14.9693 4.61982C15.2168 5.15055 15.8523 5.37808 16.3888 5.12788C16.9254 4.87768 17.1595 4.24462 16.9121 3.71389ZM13.9258 3.83681C13.8794 3.73713 13.7597 3.69387 13.6596 3.74056L12.469 4.29574C12.3689 4.34243 12.3251 4.46187 12.3716 4.56156L12.382 4.58389C12.4285 4.68358 12.5481 4.72683 12.6483 4.68015L13.8389 4.12496C13.939 4.07828 13.9827 3.95884 13.9363 3.85915L13.9258 3.83681Z" fill="url(#paint0_linear_344_1213)"/>
</g>
<defs>
<linearGradient id="paint0_linear_344_1213" x1="-3.34884" y1="5.76339" x2="32.7619" y2="22.7187" gradientUnits="userSpaceOnUse">
<stop stop-color="#0362FF"/>
<stop offset="0.497725" stop-color="#0FFFFE"/>
<stop offset="0.963091" stop-color="#0039FF"/>
</linearGradient>
<clipPath id="clip0_344_1213">
<rect width="24" height="24" fill="white"/>
</clipPath>
</defs>
</svg>
