<svg width="24" height="24" viewBox="0 0 24 24" fill="none" xmlns="http://www.w3.org/2000/svg">
<g clip-path="url(#clip0_344_1193)">
<path d="M14.0709 0C15.5161 0.0016715 16.703 1.14 16.7947 2.59044L16.7988 2.67446L16.8003 2.76206V4.7195L4.2888 4.71936V18.8979H15.5111L15.5112 15.8893H16.8003V21.2383C16.7986 22.6997 15.6746 23.9014 14.2403 23.9944L14.1572 23.9985L14.0705 24H5.72934C4.28418 23.9983 3.0973 22.86 3.00555 21.4096L3.00148 21.3255L3 21.2379V2.76168C3.00165 1.30034 4.12571 0.0985937 5.56002 0.00562217L5.64311 0.00149462L5.72972 0H14.0709ZM15.5799 20.0968H4.2888V21.2379C4.28984 22.1766 5.00152 22.7898 5.90837 22.8527L6.06122 22.858H13.8074C14.7344 22.857 15.4948 22.2931 15.5732 21.3913L15.5799 21.2379V20.0968ZM18.1593 4.7195C18.1593 4.7195 19.8109 3.41641 22 3.6459C21.9665 5.86028 20.4844 7.35557 20.4844 7.35557C19.2876 8.81966 15.0753 11.4656 15.0753 11.4656L11.3613 13.8459C10.9364 15.5479 8.92492 15.8727 8.92492 15.8727L5.1074 18.7316L8.38188 15.257C8.38188 15.257 8.94127 13.286 10.6713 13.0635L13.4612 9.63565C13.4612 9.63565 16.5724 5.74141 18.1593 4.7195ZM16.6862 11.99C16.2602 12.9413 15.6463 13.8565 14.8448 14.7356C14.0432 15.6146 12.8462 16.6855 11.2536 17.948L12.2624 16.0457C12.449 15.6939 12.409 15.2648 12.1606 14.9535L11.9321 14.6672L16.6862 11.99ZM13.3871 8.3775L9.97586 12.606L9.72609 12.3495C9.44548 12.0614 9.01959 11.9695 8.6451 12.1161L6.65776 12.8943C8.53001 11.1093 9.72887 10.0405 10.2543 9.68782C10.7798 9.33511 11.8241 8.89834 13.3871 8.3775ZM14.0705 1.16095H6.06122C5.13429 1.162 4.37387 1.70883 4.29546 2.60882L4.2888 2.76206V3.50109H15.843V2.76206C15.8419 1.77127 15.049 1.16206 14.0705 1.16095Z" fill="#FFA83A"/>
<path d="M14.0709 0C15.5161 0.0016715 16.703 1.14 16.7947 2.59044L16.7988 2.67446L16.8003 2.76206V4.7195L4.2888 4.71936V18.8979H15.5111L15.5112 15.8893H16.8003V21.2383C16.7986 22.6997 15.6746 23.9014 14.2403 23.9944L14.1572 23.9985L14.0705 24H5.72934C4.28418 23.9983 3.0973 22.86 3.00555 21.4096L3.00148 21.3255L3 21.2379V2.76168C3.00165 1.30034 4.12571 0.0985937 5.56002 0.00562217L5.64311 0.00149462L5.72972 0H14.0709ZM15.5799 20.0968H4.2888V21.2379C4.28984 22.1766 5.00152 22.7898 5.90837 22.8527L6.06122 22.858H13.8074C14.7344 22.857 15.4948 22.2931 15.5732 21.3913L15.5799 21.2379V20.0968ZM18.1593 4.7195C18.1593 4.7195 19.8109 3.41641 22 3.6459C21.9665 5.86028 20.4844 7.35557 20.4844 7.35557C19.2876 8.81966 15.0753 11.4656 15.0753 11.4656L11.3613 13.8459C10.9364 15.5479 8.92492 15.8727 8.92492 15.8727L5.1074 18.7316L8.38188 15.257C8.38188 15.257 8.94127 13.286 10.6713 13.0635L13.4612 9.63565C13.4612 9.63565 16.5724 5.74141 18.1593 4.7195ZM16.6862 11.99C16.2602 12.9413 15.6463 13.8565 14.8448 14.7356C14.0432 15.6146 12.8462 16.6855 11.2536 17.948L12.2624 16.0457C12.449 15.6939 12.409 15.2648 12.1606 14.9535L11.9321 14.6672L16.6862 11.99ZM13.3871 8.3775L9.97586 12.606L9.72609 12.3495C9.44548 12.0614 9.01959 11.9695 8.6451 12.1161L6.65776 12.8943C8.53001 11.1093 9.72887 10.0405 10.2543 9.68782C10.7798 9.33511 11.8241 8.89834 13.3871 8.3775ZM14.0705 1.16095H6.06122C5.13429 1.162 4.37387 1.70883 4.29546 2.60882L4.2888 2.76206V3.50109H15.843V2.76206C15.8419 1.77127 15.049 1.16206 14.0705 1.16095Z" fill="url(#paint0_linear_344_1193)"/>
</g>
<defs>
<linearGradient id="paint0_linear_344_1193" x1="0.348839" y1="6" x2="31.2939" y2="17.0492" gradientUnits="userSpaceOnUse">
<stop stop-color="#0362FF"/>
<stop offset="0.497725" stop-color="#0FFFFE"/>
<stop offset="0.963091" stop-color="#0039FF"/>
</linearGradient>
<clipPath id="clip0_344_1193">
<rect width="24" height="24" fill="white"/>
</clipPath>
</defs>
</svg>
