<svg xmlns="http://www.w3.org/2000/svg" xmlns:xlink="http://www.w3.org/1999/xlink" width="24" height="24" viewBox="0 0 24 24">
  <defs>
    <rect id="alert-bell-a" width="24" height="24" x="0" y="0"/>
  </defs>
  <g fill="none" fill-rule="evenodd">
    <mask id="alert-bell-b" fill="#fff">
      <use xlink:href="#alert-bell-a"/>
    </mask>
    <path fill="#F5A623" fill-rule="nonzero" d="M11.8181818,24 C13.024212,24 14,23.024212 14,21.8181818 L9.63636364,21.8181818 C9.63636364,23.024212 10.6121517,24 11.8181818,24 Z M21.2977423,18.8114005 L19.8226663,17.3660934 L19.8226663,10.6437346 C19.8226663,6.89041769 17.1240775,3.75331695 13.5335823,2.99144963 L13.5335823,1.68058968 C13.5335823,0.750663391 12.7674575,0 11.8183775,0 C10.8692976,0 10.1031728,0.750663391 10.1031728,1.68058968 L10.1031728,2.99144963 C6.51267756,3.75331695 3.81408878,6.89041769 3.81408878,10.6437346 L3.81408878,17.3660934 L2.33901272,18.8114005 C1.61862673,19.5172482 2.12175345,20.7272727 3.13944159,20.7272727 L20.4858788,20.7272727 C21.5150016,20.7272727 22.0181283,19.5172482 21.2977423,18.8114005 Z M11.8181818,17.3636364 C11.2156894,17.3636364 10.7272727,16.8752197 10.7272727,16.2727273 C10.7272727,15.6702348 11.2156894,15.1818182 11.8181818,15.1818182 C12.4206743,15.1818182 12.9090909,15.6702348 12.9090909,16.2727273 C12.9090909,16.8752197 12.4206743,17.3636364 11.8181818,17.3636364 Z M12.9090909,12.9090909 C12.9090909,13.5090909 12.4181818,14 11.8181818,14 C11.2181818,14 10.7272727,13.5090909 10.7272727,12.9090909 L10.7272727,8.72727273 C10.7272727,8.12727273 11.2181818,7.63636364 11.8181818,7.63636364 C12.4181818,7.63636364 12.9090909,8.12727273 12.9090909,8.72727273 L12.9090909,12.9090909 Z" mask="url(#alert-bell-b)"/>
  </g>
</svg>
