<svg xmlns="http://www.w3.org/2000/svg" width="24" height="24" viewBox="0 0 24 24">
  <path fill="#FFFFFF" fill-opacity="1" fill-rule="evenodd" d="M10.5,13.5 L1.5,13.5 C0.671572875,13.5 0,12.8284271 0,12 C0,11.1715729 0.671572875,10.5 1.5,10.5 L10.5,10.5 L10.5,1.5 C10.5,0.671572875 11.1715729,0 12,0 C12.8284271,0 13.5,0.671572875 13.5,1.5 L13.5,10.5 L22.5,10.5 C23.3284271,10.5 24,11.1715729 24,12 C24,12.8284271 23.3284271,13.5 22.5,13.5 L13.5,13.5 L13.5,22.5 C13.5,23.3284271 12.8284271,24 12,24 C11.1715729,24 10.5,23.3284271 10.5,22.5 L10.5,13.5 L10.5,13.5 Z" transform="rotate(-45 12 12)"/>
</svg>
