<svg xmlns="http://www.w3.org/2000/svg" width="24" height="24" viewBox="0 0 24 24">
  <g fill="none" fill-rule="evenodd">
    <polygon points="0 0 24 0 24 24 0 24"/>
    <path fill="#2597FF" d="M12,0.2 C18.51696,0.2 23.8,5.48303995 23.8,12 C23.8,18.51696 18.51696,23.8 12,23.8 C5.48303995,23.8 0.2,18.51696 0.2,12 C0.2,5.48303995 5.48303995,0.2 12,0.2 Z M12.182906,10.0301785 C11.3367521,10.0301785 10.6444444,10.7292076 10.6444444,11.5835766 L10.6615385,18.2905273 C10.6615385,19.1448963 11.3538462,19.8439254 12.2,19.8439254 C13.0461538,19.8439254 13.7384615,19.1448963 13.7384615,18.2905273 L13.7213675,11.5835766 C13.7213675,10.7292076 13.0290598,10.0301785 12.182906,10.0301785 Z M12.2,4.47246544 C11.0923077,4.47246544 10.2,5.37343631 10.2,6.49188292 C10.2,7.61032952 11.0923077,8.51130039 12.2,8.51130039 C13.3076923,8.51130039 14.2,7.61032952 14.2,6.49188292 C14.2,5.37343631 13.3076923,4.47246544 12.2,4.47246544 Z"/>
  </g>
</svg>
