<svg xmlns="http://www.w3.org/2000/svg" width="24" height="24" viewBox="0 0 24 24">
  <path fill="#0085FF" fill-rule="evenodd" d="M14.6243902,15.0001714 C14.6905366,15.0001714 14.7508293,15.0178852 14.8105366,15.0367418 C14.8427317,15.0487415 14.8749268,15.0595983 14.9047805,15.074455 C14.9445854,15.0955973 14.9814634,15.120168 15.0154146,15.1475958 C15.0435122,15.1704523 15.0680976,15.1967372 15.0915122,15.224165 C15.124878,15.2635925 15.1564878,15.3030199 15.1787317,15.3498757 C15.1863415,15.3653038 15.1910244,15.3830176 15.1974634,15.3995886 C15.220878,15.4624439 15.2390244,15.5287278 15.2390244,15.5995829 C15.2390244,15.663581 15.220878,15.7218651 15.201561,15.7795777 C15.1851707,15.8304334 15.1588293,15.8767178 15.129561,15.9207166 C15.1201951,15.9350019 15.1114146,15.9498586 15.1002927,15.9635725 C15.0733659,15.9978572 15.0423415,16.0281421 15.0089756,16.0561413 L14.9669024,16.0867118 L14.9669024,16.0867118 L14.8813659,16.1370675 L14.8392195,16.1572812 C14.7943415,16.1740426 14.7476423,16.1872486 14.6989485,16.1941902 L14.6243902,16.1995657 L13.0731707,16.1995657 C12.0593171,16.1995657 11.2292683,17.0098283 11.2292683,18.0000857 C11.2292683,18.9402874 11.9783873,19.7185595 12.922552,19.7940362 L13.0731707,19.8000343 L14.6243902,19.8000343 C14.9627317,19.8000343 15.2390244,20.0697409 15.2390244,20.4000171 C15.2390244,20.6967515 15.0152273,20.9453501 14.723817,20.9921025 L14.6243902,21 L13.0731707,21 C11.3767805,21 10,19.655467 10,18.0000857 C10,17.809234 10.0228293,17.623525 10.0579512,17.4429588 C10.0620488,17.4201023 10.0643902,17.3966744 10.0696585,17.3738179 C10.1036098,17.2178223 10.155122,17.0692552 10.2130732,16.9229736 C10.2329756,16.8738322 10.2505366,16.8241193 10.2727805,16.7761207 C10.3272195,16.6589812 10.3921951,16.5486986 10.4600976,16.4395589 C10.5174634,16.3492757 10.5800976,16.2629925 10.6468293,16.1789949 C10.6971707,16.1155681 10.7480976,16.0527128 10.8037073,15.9932859 C10.8733659,15.9190023 10.947122,15.8470044 11.0243902,15.7790063 C11.1900488,15.6332962 11.3738537,15.5081569 11.5681951,15.3995886 C11.6138537,15.3744464 11.6600976,15.3493043 11.7075122,15.3258764 C11.7970732,15.2818777 11.8889756,15.2395932 11.9838049,15.2035942 C12.1079024,15.1573098 12.2349268,15.1178823 12.3666341,15.0875975 C12.4362927,15.071598 12.5077073,15.0607411 12.5785366,15.0487415 C12.6866341,15.0315991 12.795252,15.0157265 12.9057778,15.0070495 L13.0731707,15.0001714 L14.6243902,15.0001714 Z M18.9268293,15 C19.1159024,15 19.299122,15.0222851 19.4788293,15.0542842 C19.6140488,15.0782835 19.7434146,15.1188537 19.8721951,15.159424 C19.923122,15.175995 19.9763902,15.1874232 20.0261463,15.2062798 C20.1385366,15.2485643 20.2450732,15.3022771 20.3510244,15.3571327 C20.4113171,15.3879889 20.4727805,15.4171309 20.5307317,15.4519871 C20.6238049,15.5079855 20.7116098,15.5708408 20.7976585,15.6359818 C20.860878,15.683409 20.9229268,15.7319791 20.9820488,15.7839776 C21.0558049,15.8491186 21.1260488,15.9176881 21.1933659,15.989686 C21.2548293,16.0559698 21.3116098,16.1245393 21.3672195,16.194823 C21.4222439,16.2656781 21.4760976,16.3371047 21.5246829,16.4119597 C21.5797073,16.4976715 21.6265366,16.5873832 21.6727805,16.6782378 C21.7090732,16.7496643 21.7477073,16.8205194 21.7781463,16.8942316 C21.8232195,17.005657 21.856,17.1216537 21.8876098,17.2387932 C21.9045854,17.3016485 21.928,17.3627896 21.940878,17.4273592 C21.9777561,17.6124968 22,17.8033485 22,17.9999143 C22,19.5961748 20.7198049,20.903394 19.1073142,20.9947308 L18.9268293,20.9998286 L17.3756098,20.9998286 C17.0378537,20.9998286 16.7609756,20.7295506 16.7609756,20.3998457 C16.7609756,20.1025971 16.9852468,19.8544099 17.2763253,19.8077449 L17.3756098,19.7998629 L18.9268293,19.7998629 C19.9406829,19.7998629 20.7707317,18.9896003 20.7707317,17.9999143 C20.7707317,17.8959173 20.7578537,17.7964915 20.739122,17.6982086 C20.7320976,17.6553527 20.7227317,17.6147824 20.7121951,17.5736408 C20.7010732,17.5319277 20.6870244,17.4902146 20.6729756,17.4496443 C20.6476098,17.3730751 20.6173008,17.2990454 20.5822222,17.2275554 L20.5260488,17.1222251 C20.4154146,16.9319448 20.2714146,16.764521 20.1004878,16.6250964 C20.0794146,16.6068112 20.0577561,16.5890975 20.0355122,16.5725265 C19.9886829,16.5370989 19.9406829,16.503957 19.8903415,16.4736722 C19.8318049,16.4376732 19.7709268,16.4062455 19.708878,16.3771035 C19.6667317,16.3576755 19.6245854,16.3393903 19.5812683,16.3228193 C19.5051707,16.2942487 19.4267317,16.2702494 19.3459512,16.2513928 C19.3149268,16.2445359 19.2844878,16.2376789 19.252878,16.2319648 C19.1822439,16.2193937 19.1105691,16.2093623 19.0375068,16.2040714 L18.9268293,16.1999657 L17.3756098,16.1999657 C17.2995122,16.1999657 17.2280976,16.1822519 17.1607805,16.1571098 L17.1186341,16.1373246 L17.1186341,16.1373246 L17.0333171,16.0868261 L16.9910244,16.0565412 C16.9576585,16.028542 16.9266341,15.9976858 16.9002927,15.963401 C16.8891707,15.9496872 16.8798049,15.9354018 16.870439,15.9205451 C16.8417561,15.8765464 16.8154146,15.830262 16.798439,15.7794063 C16.7797073,15.7222651 16.7609756,15.6634096 16.7609756,15.5999829 C16.7609756,15.5291277 16.7797073,15.4628439 16.803122,15.3994172 C16.8089756,15.3828462 16.8136585,15.3662752 16.8212683,15.3497043 C16.8435122,15.3028485 16.8757073,15.263421 16.9084878,15.224565 C16.9319024,15.1971372 16.9564878,15.1708523 16.9845854,15.1479958 C16.9939512,15.139996 17.0050732,15.1348533 17.0150244,15.1279963 C17.0407805,15.1085683 17.0665366,15.0897117 17.0952195,15.074855 C17.1256585,15.0588555 17.1560976,15.0474272 17.1894634,15.0365704 C17.2292683,15.0239993 17.2693333,15.0119362 17.3112195,15.0052909 L17.3756098,15 L18.9268293,15 Z M11.4323976,2 C16.6335855,2 20.8647952,6.23120961 20.8647952,11.4323976 C20.8647952,12.3225799 20.7407744,13.1841217 20.5091107,14.0007554 L19.1073482,14.0012992 C19.3380733,13.311882 19.477729,12.5815024 19.5140893,11.8237704 L16.5859946,11.8237704 C16.5680156,12.5797886 16.499384,13.3087061 16.3835734,14.0003334 L15.5853712,14.0006786 C15.7093712,13.3113151 15.7841272,12.5813752 15.8038752,11.8237704 L11.8237704,11.8237704 L11.8238311,14.0450309 C11.5531593,14.0859 11.2913803,14.1538928 11.0413513,14.246152 L11.0410248,11.8237704 L7.06091995,11.8237704 C7.0845365,12.7297872 7.18682378,13.5962387 7.3579233,14.4010417 L7.44916177,14.7982037 L10.0288533,14.7975849 C9.73145981,15.0205564 9.46614527,15.2839858 9.24107631,15.5797065 L7.67208772,15.5809493 C7.8901005,16.2574652 8.15942167,16.8708567 8.47009544,17.4021556 C8.44118972,17.5969733 8.42602539,17.7967158 8.42602539,18 C8.42602539,18.2738278 8.45354048,18.5412292 8.50595669,18.79959 C7.80727835,17.9854763 7.23651225,16.8842707 6.84613456,15.5809493 L4.48662622,15.5809493 C5.41526583,17.129486 6.84329655,18.341224 8.54983891,18.9941656 C8.70849589,19.6126929 9.01165234,20.1747299 9.42147608,20.6406612 C5.18437961,19.7184232 2,15.9431005 2,11.4323976 C2,6.32088527 6.08656363,2.14619212 11.1642524,2.00375666 L11.4323976,2 Z M17.8441366,17.3998743 C18.1818927,17.3998743 18.4587707,17.6695809 18.4587707,17.9998571 C18.4587707,18.2965915 18.2344995,18.5451901 17.9434211,18.5919425 L17.8441366,18.59984 L14.1563317,18.59984 C13.8179902,18.59984 13.5416976,18.329562 13.5416976,17.9998571 C13.5416976,17.7026085 13.7654946,17.4544213 14.056905,17.4077563 L14.1563317,17.3998743 L17.8441366,17.3998743 Z M6.27880055,11.8237704 L3.35070581,11.8237704 C3.39579195,12.7633434 3.59970008,13.6608608 3.93912091,14.4903744 L4.07271035,14.7982037 L6.63948972,14.7982037 C6.42720911,13.8776948 6.30384841,12.8770329 6.27880055,11.8237704 Z M11.0410248,8.0665915 L7.44916177,8.0665915 C7.25539869,8.85023166 7.12880476,9.69920074 7.07923848,10.5914157 L7.06091995,11.0410248 L11.0410248,11.0410248 L11.0410248,8.0665915 Z M6.63948972,8.0665915 L4.07271035,8.0665915 C3.69977556,8.87869875 3.4594398,9.76205326 3.37501237,10.6907069 L3.35070581,11.0410248 L6.27880055,11.0410248 C6.28192456,10.9096602 6.28657787,10.7791138 6.29274226,10.6494392 L6.28944589,10.6490258 C6.32376656,9.93613638 6.40492161,9.25011916 6.52780126,8.5993902 C6.562029,8.41929799 6.59915418,8.24149782 6.63948972,8.0665915 Z M15.4156334,8.0665915 L11.8237704,8.0665915 L11.8237704,11.0410248 L15.8038752,11.0410248 C15.7763226,9.98400512 15.6416903,8.98083836 15.4156334,8.0665915 Z M18.7920848,8.0665915 L16.2253054,8.0665915 C16.4112858,8.87188017 16.5315155,9.7385361 16.5753493,10.6490258 L16.5713305,10.6492364 C16.5782173,10.7791138 16.5828706,10.9096602 16.5859946,11.0410248 L19.5140893,11.0410248 C19.4633674,9.98400512 19.2116364,8.98021216 18.7920848,8.0665915 Z M11.8237704,3.351332 L11.8237704,7.2838459 L15.1927074,7.2838459 C14.5007603,5.13661817 13.2934535,3.62310128 11.88639,3.35383679 L11.8548454,3.3525844 L11.8237704,3.351332 Z M14.1175281,3.79843629 C14.324028,4.01149431 14.5207629,4.24845423 14.7064803,4.50738529 C14.8778272,4.74657066 15.0398725,5.00439311 15.1915423,5.27940148 C15.3937031,5.64535352 15.5774568,6.04240104 15.7404466,6.46641899 C15.8411263,6.72884787 15.9341231,7.00160775 16.0186606,7.2838459 L18.3781689,7.2838459 C17.8109086,6.33792086 17.057306,5.51766848 16.1677068,4.87368919 L15.8969672,4.68600384 C15.5598273,4.46223613 15.204971,4.26304426 14.8349137,4.09095632 C14.7644466,4.05795302 14.6931446,4.02602496 14.6213039,3.99510367 C14.4560481,3.9242835 14.2881023,3.8585899 14.1175281,3.79843629 Z M8.745,3.799 C8.58129177,3.85696808 8.41780503,3.92074516 8.2570034,3.98956998 C8.18023781,4.02218417 8.10460773,4.05597128 8.02960295,4.09087025 C7.91703638,4.1434327 7.80560486,4.19842943 7.69565817,4.25587482 C7.60516328,4.30302278 7.51579867,4.35190854 7.4274778,4.40240667 C7.21850838,4.52195244 7.01501677,4.6506753 6.81791027,4.78793815 C6.59675842,4.94193926 6.38402761,5.10640286 6.18005116,5.28082473 L5.93448374,5.49954179 C5.37209838,6.02113045 4.88370846,6.62169837 4.48662622,7.2838459 L6.84613456,7.2838459 C7.22266059,6.02495584 7.76842832,4.95463591 8.43435313,4.14855822 L8.58915112,3.96842649 L8.745,3.799 Z M11.0410248,3.351332 L11.0099498,3.3525844 L10.9784051,3.35383679 C9.62996928,3.61188192 8.46499053,5.01265192 7.76124244,7.01878717 L7.67208772,7.2838459 L11.0410248,7.2838459 L11.0410248,3.351332 Z"/>
</svg>
