<svg xmlns="http://www.w3.org/2000/svg" width="24" height="24" viewBox="0 0 24 24">
  <g fill="none" fill-rule="evenodd">
    <polygon points="0 0 24 0 24 24 0 24"/>
    <path fill="#FFFFFF" fill-opacity="1" d="M13.3636364,1 C19.2372727,1 24,5.76272727 24,11.6363636 C24,17.51 19.2372727,22.2727273 13.3636364,22.2727273 C10.4209091,22.2727273 7.77363636,21.0790909 5.84727273,19.1527273 L5.84727273,19.1527273 L5.85855642,19.1419548 C5.61251742,18.925378 5.45727273,18.6080914 5.45727273,18.2545455 C5.45727273,17.6018453 5.98639075,17.0727273 6.63909091,17.0727273 C6.96544099,17.0727273 7.26089553,17.2050068 7.47476256,17.4188738 L7.52545455,17.4745455 C9.01454545,18.9754545 11.0827273,19.9090909 13.3636364,19.9090909 C17.9372727,19.9090909 21.6363636,16.21 21.6363636,11.6363636 C21.6363636,7.06272727 17.9372727,3.36363636 13.3636364,3.36363636 C8.79,3.36363636 5.09090909,7.06272727 5.09090909,11.6363636 L5.09090909,11.6363636 L7.42713831,11.6363636 C7.55996127,11.6363636 7.68732598,11.6892123 7.78112954,11.7832486 C7.97614958,11.9787526 7.97575728,12.2953348 7.78025332,12.4903549 L7.78025332,12.4903549 L4.21848204,16.0433099 C4.21759452,16.0441952 4.21670367,16.0450772 4.21580951,16.0459558 C4.01884424,16.2394999 3.7022739,16.2367264 3.50872986,16.0397611 L3.50872986,16.0397611 L0.017488706,12.4868061 C-0.0743910114,12.3933023 -0.125874126,12.2674546 -0.125874126,12.1363636 C-0.125874126,11.8602213 0.0979834992,11.6363636 0.374125874,11.6363636 L0.374125874,11.6363636 L2.72727273,11.6363636 C2.72727273,5.76272727 7.49,1 13.3636364,1 Z M12.1818182,6.90909091 L12.1818182,12.8181818 L17.24,15.82 L18.0909091,14.39 L13.9545455,11.9318182 L13.9545455,6.90909091 L12.1818182,6.90909091 Z"/>
  </g>
</svg>
