<svg xmlns="http://www.w3.org/2000/svg" width="24" height="24" viewBox="0 0 24 24">
  <path fill-opacity=".5" fill-rule="evenodd" d="M16.8,16.4 L19.2,16.4 C19.86,16.4 20.4,16.94 20.4,17.6 C20.4,18.26 19.86,18.8 19.2,18.8 L16.8,18.8 C16.14,18.8 15.6,18.26 15.6,17.6 C15.6,16.94 16.14,16.4 16.8,16.4 Z M16.8,6.8 L22.8,6.8 C23.46,6.8 24,7.34 24,8 C24,8.66 23.46,9.2 22.8,9.2 L16.8,9.2 C16.14,9.2 15.6,8.66 15.6,8 C15.6,7.34 16.14,6.8 16.8,6.8 Z M16.8,11.6 L21.6,11.6 C22.26,11.6 22.8,12.14 22.8,12.8 C22.8,13.46 22.26,14 21.6,14 L16.8,14 C16.14,14 15.6,13.46 15.6,12.8 C15.6,12.14 16.14,11.6 16.8,11.6 Z M1.2,18.8 C1.2,20.12 2.28,21.2 3.6,21.2 L10.8,21.2 C12.12,21.2 13.2,20.12 13.2,18.8 L13.2,6.8 L1.2,6.8 L1.2,18.8 Z M13.2,3.2 L10.8,3.2 L9.948,2.348 C9.732,2.132 9.42,2 9.108,2 L5.292,2 C4.98,2 4.668,2.132 4.452,2.348 L3.6,3.2 L1.2,3.2 C0.54,3.2 0,3.74 0,4.4 C0,5.06 0.54,5.6 1.2,5.6 L13.2,5.6 C13.86,5.6 14.4,5.06 14.4,4.4 C14.4,3.74 13.86,3.2 13.2,3.2 Z"/>
</svg>
