<svg xmlns="http://www.w3.org/2000/svg" xmlns:xlink="http://www.w3.org/1999/xlink" width="180" height="21" viewBox="0 0 180 21">
  <defs>
    <polygon id="speedtest-a" points="0 .078 180 .078 180 20.824 0 20.824"/>
  </defs>
  <g fill="none" fill-rule="evenodd">
    <g transform="translate(0 .098)">
      <mask id="speedtest-b" fill="#fff">
        <use xlink:href="#speedtest-a"/>
      </mask>
      <path fill="#FFF" d="M169.482847,0.607429412 C174.986087,0.607429412 179.463185,5.02307647 179.463185,10.4507824 C179.463185,15.8784882 174.986087,20.2941353 169.482847,20.2941353 L10.5170815,20.2941353 C5.01401988,20.2941353 0.536743539,15.8784882 0.536743539,10.4507824 C0.536743539,5.02307647 5.01401988,0.607429412 10.5170815,0.607429412 L169.482847,0.607429412 M169.482847,0.0780176471 L10.5170815,0.0780176471 C4.70859245,0.0780176471 -3.57852883e-05,4.72201765 -3.57852883e-05,10.4507824 C-3.57852883e-05,16.1795471 4.70859245,20.8235471 10.5170815,20.8235471 L169.482847,20.8235471 C175.291336,20.8235471 179.999964,16.1795471 179.999964,10.4507824 C179.999964,4.72201765 175.291336,0.0780176471 169.482847,0.0780176471" mask="url(#speedtest-b)"/>
    </g>
    <path fill="#FFF" d="M24.1707256 14.0611412L25.2097515 12.8426118C26.1505467 13.6457294 27.1051193 14.1026118 28.3126938 14.1026118 29.3796322 14.1026118 30.0536481 13.6042588 30.0536481 12.8842588L30.0536481 12.8565529C30.0536481 12.1640824 29.6605467 11.7903176 27.8351392 11.3749059 25.7431312 10.8763765 24.563827 10.2670235 24.563827 8.48078824L24.563827 8.45308235C24.563827 6.79143529 25.9676839 5.64208235 27.9194135 5.64208235 29.3515408 5.64208235 30.4887972 6.07125882 31.4855964 6.86043529L30.5591153 8.14849412C29.674503 7.49767059 28.7898907 7.15143529 27.891501 7.15143529 26.8805666 7.15143529 26.290825 7.66372941 26.290825 8.30078824L26.290825 8.32849412C26.290825 9.07602353 26.7399304 9.40831765 28.6354771 9.85161176 30.7133499 10.3501412 31.7804672 11.0839059 31.7804672 12.6901412L31.7804672 12.7180235C31.7804672 14.5319647 30.3343837 15.6119647 28.2702883 15.6119647 26.7680219 15.6119647 25.3500298 15.0998471 24.1707256 14.0611412M36.988175 10.8208941C38.2939801 10.8208941 39.1082744 10.1007176 39.1082744 9.08989412L39.1082744 9.06218824C39.1082744 7.92677647 38.2800239 7.33136471 36.988175 7.33136471L34.9806203 7.33136471 34.9806203 10.8208941 36.988175 10.8208941zM33.2536223 5.78054118L37.1288111 5.78054118C39.4312366 5.78054118 40.8631849 7.06824706 40.8631849 9.02071765L40.8631849 9.04842353C40.8631849 11.2225412 39.0943181 12.3579529 36.932171 12.3579529L34.9806203 12.3579529 34.9806203 15.4735412 33.2536223 15.4735412 33.2536223 5.78054118z"/>
    <polygon fill="#FFF" points="42.351 5.78 49.637 5.78 49.637 7.304 44.077 7.304 44.077 9.824 49.005 9.824 49.005 11.347 44.077 11.347 44.077 13.951 49.707 13.951 49.707 15.474 42.351 15.474"/>
    <polygon fill="#FFF" points="51.475 5.78 58.762 5.78 58.762 7.304 53.202 7.304 53.202 9.824 58.13 9.824 58.13 11.347 53.202 11.347 53.202 13.951 58.832 13.951 58.832 15.474 51.475 15.474"/>
    <path fill="#FFF" d="M62.3272366,7.33138235 L62.3272366,13.9227353 L64.2646521,13.9227353 C66.3283897,13.9227353 67.6764215,12.5519118 67.6764215,10.6548529 L67.6764215,10.6269706 C67.6764215,8.72991176 66.3283897,7.33138235 64.2646521,7.33138235 L62.3272366,7.33138235 Z M60.6004175,5.78038235 L64.2646521,5.78038235 C67.3534592,5.78038235 69.4876938,7.87120588 69.4876938,10.5994412 L69.4876938,10.6269706 C69.4876938,13.3550294 67.3534592,15.4735588 64.2646521,15.4735588 L60.6004175,15.4735588 L60.6004175,5.78038235 Z"/>
    <polygon fill="#FFF" points="73.572 7.359 70.455 7.359 70.455 5.781 78.43 5.781 78.43 7.359 75.313 7.359 75.313 15.473 73.572 15.473"/>
    <polygon fill="#FFF" points="80.254 5.78 87.541 5.78 87.541 7.304 81.981 7.304 81.981 9.824 86.908 9.824 86.908 11.347 81.981 11.347 81.981 13.951 87.611 13.951 87.611 15.474 80.254 15.474"/>
    <path fill="#FFF" d="M88.999497,14.0611412 L90.0385229,12.8426118 C90.9793181,13.6457294 91.9337117,14.1026118 93.1412863,14.1026118 C94.2082247,14.1026118 94.8824195,13.6042588 94.8824195,12.8842588 L94.8824195,12.8565529 C94.8824195,12.1640824 94.4893181,11.7903176 92.6639105,11.3749059 C90.5719026,10.8763765 89.3925984,10.2670235 89.3925984,8.48078824 L89.3925984,8.45308235 C89.3925984,6.79143529 90.7964553,5.64208235 92.748006,5.64208235 C94.1803121,5.64208235 95.3175686,6.07125882 96.3143678,6.86043529 L95.3878867,8.14849412 C94.5034533,7.49767059 93.6184831,7.15143529 92.7202724,7.15143529 C91.709338,7.15143529 91.1195964,7.66372941 91.1195964,8.30078824 L91.1195964,8.32849412 C91.1195964,9.07602353 91.5687018,9.40831765 93.4642485,9.85161176 C95.5419423,10.3501412 96.6092386,11.0839059 96.6092386,12.6901412 L96.6092386,12.7180235 C96.6092386,14.5319647 95.1629761,15.6119647 93.0990596,15.6119647 C91.5967932,15.6119647 90.1788012,15.0998471 88.999497,14.0611412"/>
    <polygon fill="#FFF" points="100.862 7.359 97.745 7.359 97.745 5.781 105.72 5.781 105.72 7.359 102.603 7.359 102.603 15.473 100.862 15.473"/>
    <polygon fill="#FFF" points="170.507 5.615 170.047 5.615 170.047 5.383 171.221 5.383 171.221 5.615 170.761 5.615 170.761 6.807 170.507 6.807"/>
    <polygon fill="#FFF" points="171.485 5.383 171.755 5.383 172.195 6.057 172.634 5.383 172.904 5.383 172.904 6.807 172.65 6.807 172.65 5.786 172.195 6.457 172.186 6.457 171.735 5.79 171.735 6.807 171.485 6.807"/>
    <path fill="#FFF" d="M18.889175,16.0129941 C20.139334,14.7799941 20.9124751,13.0765235 20.9124751,11.1951706 C20.9124751,7.43228824 17.8197316,4.38181765 14.0043042,4.38181765 C10.1888767,4.38181765 7.09595427,7.43228824 7.09595427,11.1951706 C7.09595427,13.0767 7.86927435,14.7801706 9.1194334,16.0131706 L10.1040656,15.0424059 C9.10350895,14.0582294 8.48460239,12.6978176 8.48460239,11.1951706 C8.48460239,8.19252353 10.9559344,5.75811176 14.0043042,5.75811176 C17.052674,5.75811176 19.523827,8.19252353 19.523827,11.1951706 C19.523827,12.6965824 18.906173,14.0559353 17.9074056,15.0397588 L18.889175,16.0129941 Z"/>
    <polygon fill="#FFF" points="13.843 12.565 12.616 11.354 16.543 7.965 17.28 8.691"/>
    <path fill="#FFF" d="M111.192853 8.42950588L111.880467 8.42950588 111.880467 10.0076824C112.498121 9.08015294 113.410825 8.26327059 114.828638 8.26327059 116.555636 8.26327059 118.310547 9.63391765 118.310547 11.9328L118.310547 11.9606824C118.310547 14.2590353 116.555457 15.6572118 114.828459 15.6572118 113.396511 15.6572118 112.47003 14.8540941 111.880109 13.9683882L111.880109 17.7065647 111.192316 17.7065647 111.192316 8.42950588 111.192853 8.42950588zM117.566571 11.9880353L117.566571 11.9606824C117.566571 10.1047412 116.260765 8.91409412 114.758857 8.91409412 113.270368 8.91409412 111.838419 10.1465647 111.838419 11.9460353L111.838419 11.9740941C111.838419 13.7876824 113.270368 15.0067412 114.758857 15.0067412 116.317306 15.0067412 117.566571 13.8847412 117.566571 11.9880353L117.566571 11.9880353zM119.968622 11.9879471L119.968622 11.9607706C119.968622 9.98041765 121.52725 8.26335882 123.661306 8.26335882 125.781048 8.26335882 127.325183 9.95253529 127.325183 11.9328882L127.325183 11.9607706C127.325183 13.9404176 125.766913 15.6571235 123.632857 15.6571235 121.512936 15.6571235 119.968622 13.9684765 119.968622 11.9879471M126.581207 11.9879471L126.581207 11.9607706C126.581207 10.2574765 125.289716 8.89988824 123.632857 8.89988824 121.934308 8.89988824 120.712777 10.2708882 120.712777 11.9328882L120.712777 11.9607706C120.712777 13.6633588 122.004268 15.0202412 123.661306 15.0202412 125.359676 15.0202412 126.581207 13.6492412 126.581207 11.9879471"/>
    <polygon fill="#FFF" points="128.478 8.43 129.249 8.43 131.412 14.633 133.573 8.402 134.121 8.402 136.283 14.633 138.446 8.43 139.19 8.43 136.564 15.547 135.974 15.547 133.841 9.496 131.692 15.547 131.103 15.547"/>
    <path fill="#FFF" d="M140.342296 11.9743412L140.342296 11.9462824C140.342296 9.89745882 141.802157 8.26334118 143.739573 8.26334118 145.747306 8.26334118 147.024662 9.8694 147.024662 11.9609294 147.024662 12.0851647 147.024662 12.1269882 147.010348 12.2372824L141.071779 12.2372824C141.197744 13.9958118 142.475815 15.0204 143.879314 15.0204 144.988479 15.0204 145.74659 14.5363412 146.335795 13.9126941L146.813529 14.3281059C146.082793 15.1040471 145.22663 15.6571059 143.850865 15.6571059 141.969453 15.6571059 140.340865 14.1761647 140.340865 11.9743412L140.342296 11.9743412zM146.280686 11.6284588C146.182276 10.2018706 145.353847 8.88681176 143.71166 8.88681176 142.293668 8.88681176 141.19828 10.0635176 141.072316 11.6284588L146.280507 11.6284588 146.280686 11.6284588zM149.034042 8.42950588L149.721656 8.42950588 149.721656 10.4370353C150.282948 9.17738824 151.476567 8.26327059 152.894917 8.31903529L152.894917 9.06638824 152.824241 9.06638824C151.168097 9.06638824 149.721656 10.2988588 149.721656 12.5977412L149.721656 15.4908 149.034042 15.4908 149.034042 8.42950588zM153.808085 11.9743412L153.808085 11.9462824C153.808085 9.89745882 155.268125 8.26334118 157.205362 8.26334118 159.213453 8.26334118 160.490809 9.8694 160.490809 11.9609294 160.490809 12.0851647 160.490809 12.1269882 160.476674 12.2372824L154.538105 12.2372824C154.664249 13.9958118 155.94232 15.0204 157.34564 15.0204 158.455163 15.0204 159.213453 14.5363412 159.802658 13.9126941L160.280392 14.3281059C159.549835 15.1040471 158.693672 15.6571059 157.317907 15.6571059 155.436674 15.6571059 153.808085 14.1761647 153.808085 11.9743412L153.808085 11.9743412zM159.746475 11.6284588C159.648245 10.2018706 158.819815 8.88681176 157.177628 8.88681176 155.759636 8.88681176 154.664249 10.0635176 154.538105 11.6284588L159.746475 11.6284588zM162.036089 11.9879471L162.036089 11.9607706C162.036089 9.66188824 163.791179 8.26335882 165.517998 8.26335882 166.949767 8.26335882 167.876606 9.0663 168.466348 9.95253529L168.466348 5.38335882 169.154499 5.38335882 169.154499 15.4908882 168.466348 15.4908882 168.466348 13.9125353C167.848157 14.8405941 166.935811 15.6571235 165.517998 15.6571235 163.791179 15.6571235 162.036089 14.2861235 162.036089 11.9879471M168.508217 11.9741824L168.508217 11.9463C168.508217 10.1327118 167.076447 8.91418235 165.588316 8.91418235 164.029867 8.91418235 162.780066 10.0356529 162.780066 11.9328882L162.780066 11.9607706C162.780066 13.8154765 164.085692 15.0066529 165.588316 15.0066529 167.076447 15.0066529 168.508217 13.7743588 168.508217 11.9741824"/>
  </g>
</svg>
