<?xml version="1.0" encoding="utf-8"?>
<!-- Generator: Adobe Illustrator 22.0.1, SVG Export Plug-In . SVG Version: 6.00 Build 0)  -->
<svg version="1.1" id="圖層_1" xmlns="http://www.w3.org/2000/svg" xmlns:xlink="http://www.w3.org/1999/xlink" x="0px" y="0px"
	 viewBox="0 0 24 24" style="enable-background:new 0 0 24 24;" xml:space="preserve">
<style type="text/css">
	.st0{fill:#FFFFFF;}
</style>
<g>
	<g>
		<path class="st0" d="M1.4,21.8h21.3c0.7,0,1.2-0.5,1.2-1.2v-16c0-0.7-0.5-1.2-1.2-1.2H1.4c-0.7,0-1.2,0.5-1.2,1.2v16
			C0.2,21.3,0.7,21.8,1.4,21.8z M21.5,19.2c0,0.2-0.2,0.4-0.4,0.4H3c-0.2,0-0.4-0.2-0.4-0.4V8.8c0-0.2,0.2-0.4,0.4-0.4h18
			c0.2,0,0.4,0.2,0.4,0.4V19.2z M14.3,5.5h7.5c0.2,0,0.4,0.2,0.4,0.4s-0.2,0.4-0.4,0.4h-7.5c-0.2,0-0.4-0.2-0.4-0.4
			S14.1,5.5,14.3,5.5z M5.8,5.5H7c0.2,0,0.4,0.2,0.4,0.4S7.3,6.3,7,6.3H5.8c-0.2,0-0.4-0.2-0.4-0.4S5.5,5.5,5.8,5.5z M2.5,5.5h1.3
			c0.2,0,0.4,0.2,0.4,0.4S4,6.3,3.8,6.3H2.5c-0.2,0-0.4-0.2-0.4-0.4S2.3,5.5,2.5,5.5z"/>
	</g>
</g>
</svg>
