<svg xmlns="http://www.w3.org/2000/svg" xmlns:xlink="http://www.w3.org/1999/xlink" width="24" height="24" viewBox="0 0 24 24">
  <defs>
    <rect id="speed_ultra-_white-a" width="24" height="30" x="0" y="0"/>
  </defs>
  <g fill="none" fill-rule="evenodd">
    <mask id="speed_ultra-_white-b" fill="#fff">
      <use xlink:href="#speed_ultra-_white-a"/>
    </mask>
    <path fill="#FFF" d="M12.3809295,20.2871038 C13.1498955,20.2871038 13.7732656,18.499706 13.7732656,20.2871038 C13.7732656,21.4787024 13.3091536,22.7163344 12.3809295,24 C11.4527055,22.7163344 10.9885935,21.4787024 10.9885935,20.2871038 C10.9885935,18.499706 11.6119636,20.2871038 12.3809295,20.2871038 Z M12.1024623,-7.10542736e-15 L12.4089359,0.128365598 C19.0366412,3.03239152 18.1359186,11.1525426 18.1359186,12.0669125 C19.9689018,13.2889013 20.5724701,15.8109962 19.9923667,17.6362567 C19.9849405,17.6596227 16.2794705,17.6362567 15.3512465,16.7080327 C14.4776238,17.5816553 13.6040012,18.4552779 12.3434454,18.5550342 L12.1024623,18.5644808 C10.7101263,18.5644808 9.78190224,17.6362567 8.8536782,16.7080327 C7.92545416,17.6362567 4.21998417,17.6596227 4.21255801,17.6362567 C3.63245459,15.8109962 4.23602284,13.2889013 6.06900609,12.0669125 C6.06900609,11.1386885 5.14078205,2.78467212 12.1024623,-7.10542736e-15 Z M12.1024623,5.56934423 C11.0771744,5.56934423 10.2460143,6.40050435 10.2460143,7.42579231 C10.2460143,8.45108027 11.0771744,9.28224039 12.1024623,9.28224039 C13.1277503,9.28224039 13.9589104,8.45108027 13.9589104,7.42579231 C13.9589104,6.40050435 13.1277503,5.56934423 12.1024623,5.56934423 Z" mask="url(#speed_ultra-_white-b)"/>
  </g>
</svg>
