<svg xmlns="http://www.w3.org/2000/svg" width="24" height="24" viewBox="0 0 24 24">
  <path fill="#0722FF" fill-rule="evenodd" d="M20,0 C22.209139,-4.05812251e-16 24,1.790861 24,4 L24,20 C24,22.209139 22.209139,24 20,24 L4,24 C1.790861,24 2.705415e-16,22.209139 0,20 L0,4 C-2.705415e-16,1.790861 1.790861,4.05812251e-16 4,0 L20,0 Z M11,7 L8.33050847,7 L2,13.6666667 L2,14.9545455 L8.86440678,14.9545455 L8.86440678,17 L11,17 L11,7 Z M14.9384615,7 L13,7 L13,17 L14.9384615,17 L14.9384615,14.3484848 L16.6415385,12.5454545 L19.7846154,17 L22,17 L17.9015385,11.1969697 L21.8615385,7 L19.48,7 L14.9384615,11.8181818 L14.9384615,7 Z M9,9 L9,14 L5,14 L9,9 Z"/>
</svg>
