<svg xmlns="http://www.w3.org/2000/svg" width="24" height="24" viewBox="0 0 24 24">
  <path fill="#30FFAF" fill-rule="evenodd" d="M12,0 C18.627417,0 24,5.372583 24,12 C24,18.627417 18.627417,24 12,24 C5.372583,24 0,18.627417 0,12 C0,5.372583 5.372583,0 12,0 Z M3.42857143,10.2857143 C2.66666667,12.5714286 3.04761905,14.8571429 4.57142857,17.1428571 C6.0952381,19.4285714 8.38095238,20.952381 11.4285714,21.7142857 L11.4285714,19.4285714 C10.6666667,19.4285714 9.9047619,19.047619 9.14285714,18.2857143 C8.38095238,17.5238095 8.38095238,16.3809524 9.14285714,14.8571429 L3.42857143,10.2857143 Z M16,3.42857143 C16,4.95238095 14.4761905,5.71428571 11.4285714,5.71428571 L11.4285714,5.71428571 L11.4285714,7.57678571 C11.4285714,8.71964286 10.2857143,9.8625 10.2857143,9.8625 L10.2857143,9.8625 L8,9.8625 L8,12.1482143 L16,12.1482143 L16,12.1482143 L16,17.1428571 C17.5238095,17.1428571 18.6666667,17.5238095 19.4285714,18.2857143 C20.952381,17.5238095 21.7142857,15.2380952 21.7142857,11.4285714 C21.7142857,5.71428571 18.2857143,4.57142857 16,3.42857143 Z"/>
</svg>
