<svg xmlns="http://www.w3.org/2000/svg" width="24" height="24" viewBox="0 0 24 24">
  <g fill="none" fill-rule="evenodd" transform="translate(4)">
    <path fill="#A4B7C3" fill-opacity=".87" d="M13.1753674,10.1828692 C13.7964686,10.8854427 14.8003968,10.8854427 15.421498,10.1828692 C16.0425992,9.47851704 16.0425992,8.33839142 15.421498,7.63581791 L9.62825999,0.789728197 C9.17712766,0.281029404 8.58144236,9.59232693e-13 7.94286772,9.59232693e-13 C7.30588158,9.59232693e-13 6.7070193,0.281029404 6.25906396,0.789728197 L0.465825901,7.63581791 C-0.1552753,8.33839142 -0.1552753,9.47851704 0.465825901,10.1828692 C1.08533861,10.8854427 2.09085539,10.8854427 2.71195659,10.1828692 L6.35278511,5.77533211 L6.35278511,16.8879996 C6.35278511,17.8698238 7.06443048,18.6666667 7.94127923,18.6666667 C8.81812799,18.6666667 9.52977335,17.8698238 9.52977335,16.8879996 L9.52977335,5.77177478 L13.1753674,10.1828692 Z" transform="matrix(-1 0 0 1 15.887 0)"/>
    <path fill="#439AFF" fill-rule="nonzero" d="M1.58873239,23.4666667 C0.711299721,23.4666667 1.79056769e-13,22.869713 1.79056769e-13,22.1333333 C1.79056769e-13,21.3969537 0.711299721,20.8 1.58873239,20.8 L14.2985915,20.8 C15.1760242,20.8 15.8873239,21.3969537 15.8873239,22.1333333 C15.8873239,22.869713 15.1760242,23.4666667 14.2985915,23.4666667 L1.58873239,23.4666667 Z" transform="rotate(-180 7.944 22.133)"/>
  </g>
</svg>
