<svg xmlns="http://www.w3.org/2000/svg" width="24" height="24" viewBox="0 0 24 24">
  <path fill="#FFF" fill-rule="evenodd" d="M3.18407491,2.30276824 L3.2634817,2.37645692 L5.36800559,4.63967614 L5.37138034,4.63539598 L5.37524895,4.63111581 L6.33137182,5.65967223 L6.32346998,5.66757408 L7.48372377,6.9160651 L7.4862754,6.90980947 L7.48833317,6.90355385 L8.85996123,8.37922283 L8.84415755,8.37922283 L11.6697245,11.4181395 L11.6697245,11.3997019 L12.5336592,12.3301438 L12.5178556,12.3301438 L15.4257334,15.4579562 L15.4421955,15.4579562 L16.7124166,16.8236579 L16.7095358,16.8300781 L16.7071487,16.8355106 L17.8976929,18.116926 L17.9075702,18.1090242 L18.8630346,19.1369221 L18.8531573,19.1441655 L19.9390021,20.3116626 C20.2129326,20.6060062 20.1958119,21.0676055 19.9008098,21.3421945 C19.7605522,21.4725749 19.5821022,21.5371066 19.4043108,21.5371066 C19.2478543,21.5371066 19.0918193,21.4873777 18.9618287,21.388257 L18.8696195,21.3046607 L17.7113412,20.0574867 C16.1099012,21.1716464 14.1759254,21.8367181 12.0812788,21.8367181 C6.61188721,21.8367181 2.16249172,17.3873226 2.16249172,11.9185895 C2.16249172,9.68345476 2.91901572,7.63135958 4.17405514,5.97401779 L4.37632443,5.71564361 L2.19475758,3.36945505 C1.92082706,3.07511144 1.93794772,2.61351218 2.23294981,2.33892317 C2.50053492,2.08989542 2.90580363,2.08031743 3.18407491,2.30276824 Z M14.1996309,16.2810647 L12.4928331,16.2810647 L12.4928331,20.4170205 L12.5580232,20.4130696 C13.6488433,20.2041098 14.6221925,19.2779907 15.351594,17.9031985 L15.4777538,17.6559852 L14.1996309,16.2810647 Z M11.6697245,16.2810647 L8.1270654,16.2810647 C8.82558822,18.448698 10.023558,20.0015806 11.427351,20.3728554 L11.6038758,20.4130696 L11.6697245,20.4170205 L11.6697245,16.2810647 Z M16.0657826,18.2881326 C15.7260034,18.9288403 15.3407886,19.4957974 14.9042118,19.9462024 C15.4513046,19.7530463 15.9682168,19.4995288 16.4553294,19.2020361 L16.744024,19.0183945 L16.0657826,18.2881326 Z M7.25917976,16.2810647 L4.77734291,16.2810647 C5.79141262,17.9720589 7.37178101,19.2811307 9.25834576,19.9462024 C8.40823927,19.069098 7.71551113,17.8067787 7.25917976,16.2810647 Z M12.0812129,2 C17.5506045,2 22,6.44939548 22,11.9181286 C22,14.2379777 21.1933536,16.3694995 19.8539914,18.0604937 L19.8539914,18.0604937 L18.8833819,17.0161336 C19.0618318,16.7797368 19.2317214,16.5360967 19.3851488,16.2806038 L19.3851488,16.2806038 L18.199214,16.2806038 L17.4340523,15.4574953 L19.8204086,15.4574953 C20.2622533,14.496763 20.525648,13.4418671 20.5796439,12.3296828 L20.5796439,12.3296828 L17.5005595,12.3296828 C17.4761955,13.3345337 17.3629358,14.2899981 17.176584,15.1809308 L17.176584,15.1809308 L16.4766125,14.4276219 C16.5872383,13.7585993 16.6590134,13.0579693 16.6781095,12.3296828 L16.6781095,12.3296828 L14.5261745,12.3296828 L13.7603543,11.5065743 L16.6781095,11.5065743 C16.6491361,10.395707 16.5075614,9.34015265 16.2698476,8.37876188 L16.2698476,8.37876188 L12.4927672,8.37876188 L12.4927672,10.1435066 L11.6696587,9.2578418 L11.6696587,8.37876188 L10.8524765,8.37876188 L10.0873148,7.55565335 L11.6696587,7.55565335 L11.6696587,3.4196976 L11.60381,3.42364852 C10.4712126,3.64029068 9.46306932,4.62867941 8.72556407,6.09183714 L8.72556407,6.09183714 L8.12897501,5.45047097 C8.46151085,4.84729704 8.84014078,4.32116606 9.25827991,3.89051568 C8.63074197,4.11176725 8.04073777,4.41006178 7.49090127,4.76366921 L7.49090127,4.76366921 L6.5150238,3.71404121 C8.10329402,2.63346433 10.0194907,2 12.0812129,2 Z M10.5259329,12.3301438 L7.48372377,12.3301438 C7.50855813,13.2823157 7.61660372,14.1938496 7.79666435,15.0402797 L7.89264409,15.4579562 L11.6697245,15.4579562 L11.6697245,13.5601972 L10.5259329,12.3301438 Z M6.66127372,12.3301438 L3.58284781,12.3301438 C3.63084418,13.3181667 3.84429147,14.2619653 4.20145328,15.1342535 L4.34208312,15.4579562 L7.04187911,15.4579562 C6.81865207,14.4899806 6.68827168,13.4370601 6.66127372,12.3301438 Z M12.4928331,14.4452035 L12.4928331,15.4579562 L13.4344692,15.4579562 L12.4928331,14.4452035 Z M6.8522349,8.37922283 L4.34208312,8.37922283 C3.94933231,9.23320707 3.69757898,10.1615922 3.60855951,11.1384795 L3.58284781,11.5070352 L6.66127372,11.5070352 C6.68267454,10.6361864 6.76946676,9.80100563 6.91402901,9.01330601 L7.00763779,8.54647848 L6.8522349,8.37922283 Z M7.70365837,9.295178 C7.60620232,9.85778915 7.53740361,10.443579 7.50299372,11.0491762 L7.48372377,11.5070352 L9.76011272,11.5070352 L7.70365837,9.295178 Z M19.8204086,8.37876188 L17.1206126,8.37876188 C17.3438397,9.34673752 17.4735616,10.399658 17.5005595,11.5065743 L17.5005595,11.5065743 L20.5796439,11.5065743 C20.525648,10.3950485 20.2622533,9.33949416 19.8204086,8.37876188 L19.8204086,8.37876188 Z M5.33639823,6.74815096 C5.2029449,6.92067451 5.07417414,7.09700264 4.95301256,7.27889134 L4.77734291,7.55611429 L6.08707321,7.55611429 L5.33639823,6.74815096 Z M12.4927672,3.4196976 L12.4927672,7.55565335 L16.0354263,7.55565335 C15.3071399,5.29770203 14.0382358,3.70679785 12.5586159,3.42364852 L12.5586159,3.42364852 L12.4927672,3.4196976 Z M14.904146,3.89051568 C15.7542525,4.76762013 16.4469806,6.02993938 16.903312,7.55565335 L16.903312,7.55565335 L19.3851488,7.55565335 C18.3710791,5.86465918 16.7907107,4.55558737 14.904146,3.89051568 Z"/>
</svg>
