<svg xmlns="http://www.w3.org/2000/svg" width="24" height="24" viewBox="0 0 24 24">
  <path fill-opacity=".5" fill-rule="evenodd" d="M17.9656298,11.8362958 L18.0282106,11.8391731 C18.3324827,11.8420503 18.6295616,11.8722618 18.9216053,11.9190175 C19.5430972,12.0175643 20.1322198,12.2103419 20.6753059,12.4844025 C21.1953738,12.7462348 21.6708439,13.079999 22.0909264,13.4749053 C22.4002337,13.764791 22.6807683,14.0848881 22.9231789,14.4351967 C23.6007778,15.4098744 24,16.5931548 24,17.8706659 C24,21.2032726 21.2982365,23.9050361 17.9656298,23.9050361 C17.0864617,23.9050361 16.2533301,23.7129334 15.5005885,23.3741962 L15.2221458,23.240385 L12.4225548,23.9460373 C12.1071609,24.0263797 11.8181223,23.7726856 11.8371893,23.4627451 L11.848538,23.3842489 L12.5225402,20.4616543 C12.2880421,19.9703592 12.1254759,19.4416594 12.0290871,18.8892222 C11.9780155,18.5957399 11.9449268,18.2972223 11.9384529,17.990073 C11.9377336,17.9505104 11.9312597,17.9109478 11.9312597,17.8706659 C11.9312597,17.6059564 11.9542779,17.3470014 11.9873666,17.0909238 L12.0066084,16.9540732 L12.0066084,16.9540732 L12.0290871,16.8183017 L12.0384383,16.7550016 C12.12116,16.3140588 12.2491989,15.8896604 12.4218355,15.4882802 C12.4434151,15.4372085 12.4707492,15.3897335 12.4937674,15.3393811 C12.5853608,15.141808 12.6852662,14.9483911 12.7956152,14.7619009 L12.9692375,14.487707 L13.0044842,14.4402319 C13.2799835,14.041729 13.6043965,13.68135 13.9662142,13.3612528 C14.1575531,13.1907742 14.3560853,13.0296466 14.5682845,12.8850634 C14.592022,12.8685191 14.6164789,12.8534134 14.6409357,12.836869 C14.8919782,12.6714256 15.157407,12.5268424 15.4329064,12.3995229 C15.7033704,12.273642 15.983905,12.1664634 16.27451,12.0808644 C16.2781066,12.0794257 16.2817032,12.0787064 16.2852998,12.0779871 C16.8197541,11.9240528 17.3822618,11.8362958 17.9656298,11.8362958 Z M11.1644648,1.59872116e-14 C17.3207447,1.59872116e-14 22.3289296,5.00818486 22.3289296,11.1644648 C22.3289296,11.394232 22.3081764,11.6180698 22.2940939,11.8448723 C22.0546912,11.6543878 21.8026884,11.482433 21.5410502,11.3215959 C21.283118,11.1637236 21.0162915,11.0206749 20.7398296,10.8939324 C20.7368649,10.89245 20.7331589,10.8917088 20.7301942,10.8902264 L20.7301942,10.8902264 L20.7301942,10.7012244 C20.6701582,9.45010462 20.372202,8.26198558 19.8756083,7.18059714 L19.8756083,7.18059714 L16.8374923,7.18059714 C17.0576241,8.13376064 17.1999316,9.15956023 17.2518145,10.2372427 C16.9390346,10.2535488 16.6307018,10.2861609 16.3290396,10.3402674 C16.2771567,9.22107856 16.1207667,8.15821973 15.8798817,7.18059714 L15.8798817,7.18059714 L11.6277052,7.18059714 L11.6277052,10.7012244 L15.022331,10.7012244 C14.4012183,10.9346975 13.8201295,11.2459951 13.2894412,11.6277052 L13.2894412,11.6277052 L11.6277052,11.6277052 L11.6277052,13.2701704 C11.2534069,13.7771408 10.9398858,14.3300645 10.7012244,14.9222711 L10.7012244,14.9222711 L10.7012244,11.6277052 L5.99025455,11.6277052 C6.02286668,12.8788249 6.18222138,14.0662028 6.44978905,15.1483324 L6.44978905,15.1483324 L10.6182117,15.1483324 C10.5085163,15.4492534 10.4143859,15.756845 10.3439733,16.0748133 L10.3439733,16.0748133 L6.7136508,16.0748133 C7.5259892,18.5955823 8.94016956,20.3759079 10.5885643,20.7153705 L10.5885643,20.7153705 L10.5863407,20.7235235 L10.3810326,21.6129452 L10.2276073,22.2814937 C4.50936757,21.8026884 3.97903932e-13,17.0042588 3.97903932e-13,11.1644648 C3.97903932e-13,5.00818486 5.00818486,1.59872116e-14 11.1644648,1.59872116e-14 Z M17.9188741,19.8013191 C17.4966336,19.8013191 17.1542376,20.1437151 17.1542376,20.5652363 C17.1542376,20.9874768 17.4966336,21.3298728 17.9188741,21.3298728 C18.3403952,21.3298728 18.6827913,20.9874768 18.6827913,20.5652363 C18.6827913,20.1437151 18.3403952,19.8013191 17.9188741,19.8013191 Z M5.73602821,16.0748133 L2.94324435,16.0748133 C4.08466875,17.9781755 5.86351197,19.4516506 7.98700607,20.2009883 C7.02939547,19.2129892 6.25041037,17.7921382 5.73602821,16.0748133 L5.73602821,16.0748133 Z M17.9188741,14.1150995 C17.6635157,14.1150995 17.4491585,14.2481736 17.3103299,14.4402319 C17.2372471,14.5403611 17.1811977,14.6547617 17.1617013,14.7819604 L17.1542376,14.879736 L17.1542376,18.2360802 C17.1542376,18.6583206 17.4966336,18.9999973 17.9188741,18.9999973 C18.3052685,18.9999973 18.6251758,18.712894 18.6758104,18.3398108 L18.6827913,18.2360802 L18.6827913,14.879736 C18.6827913,14.7128539 18.6180525,14.5653935 18.5274183,14.4402319 C18.4576443,14.3438431 18.3720453,14.264718 18.265586,14.2086111 C18.1605654,14.1539428 18.0461936,14.1150995 17.9188741,14.1150995 Z M5.06451489,11.6277052 L1.59873535,11.6277052 C1.65877131,12.8788249 1.95672754,14.066944 2.45332128,15.1483324 L2.45332128,15.1483324 L5.49143727,15.1483324 C5.24017566,14.0587909 5.09416228,12.8743778 5.06451489,11.6277052 L5.06451489,11.6277052 Z M10.7012244,7.18059714 L6.44978905,7.18059714 C6.18222138,8.26272677 6.02286668,9.45010462 5.99025455,10.7012244 L5.99025455,10.7012244 L10.7012244,10.7012244 L10.7012244,7.18059714 Z M5.49143727,7.18059714 L2.45332128,7.18059714 C1.95672754,8.26198558 1.65877131,9.45010462 1.59873535,10.7012244 L1.59873535,10.7012244 L5.06451489,10.7012244 C5.09416228,9.45455173 5.24017566,8.27013862 5.49143727,7.18059714 L5.49143727,7.18059714 Z M10.7012244,1.59947653 C10.6767653,1.60021772 10.6523062,1.60170009 10.6271059,1.60244127 C8.96166392,1.92115068 7.53265986,3.71259404 6.7136508,6.2541163 L6.7136508,6.2541163 L10.7012244,6.2541163 Z M7.98700607,2.12794121 C5.86351197,2.87727891 4.08466875,4.35075405 2.94324435,6.2541163 L2.94324435,6.2541163 L5.73602821,6.2541163 C6.25041037,4.5367914 7.02939547,3.11594038 7.98700607,2.12794121 Z M11.6277052,1.59947653 L11.6277052,6.2541163 L15.6160199,6.2541163 C14.7962697,3.71259404 13.3672656,1.92115068 11.7018237,1.60244127 C11.6766234,1.60170009 11.6521643,1.60021772 11.6277052,1.59947653 L11.6277052,1.59947653 Z M14.3426647,2.12868239 C15.2995341,3.11594038 16.0792604,4.5367914 16.5929013,6.2541163 L16.5929013,6.2541163 L19.3856852,6.2541163 C18.2442608,4.35075405 16.4654176,2.87727891 14.3426647,2.12868239 Z"/>
</svg>
