<svg width="26" height="24" viewBox="0 0 26 24" fill="none" xmlns="http://www.w3.org/2000/svg">
<path d="M3.80078 17.5H14.0008" stroke="#B9C5D5" stroke-width="1.5" stroke-linecap="round" stroke-linejoin="round"/>
<path d="M5 15L5 8.49007C4.99999 8.12856 5.07152 7.77062 5.21047 7.43688C5.34941 7.10314 5.55303 6.80019 5.80959 6.54549C6.06614 6.2908 6.37056 6.08939 6.7053 5.95287C7.04005 5.81636 7.3985 5.74743 7.76 5.75007H18.76C19.4832 5.75535 20.175 6.04636 20.6846 6.55964C21.1941 7.07292 21.48 7.76683 21.48 8.49007" stroke="#B9C5D5" stroke-width="1.2" stroke-linecap="round" stroke-linejoin="round"/>
<path d="M23 16.8651V19.2351C23 19.7251 22.61 20.1251 22.135 20.1251H17.865C17.385 20.1251 17 19.7251 17 19.2351V11.7651C17 11.2751 17.39 10.8751 17.865 10.8751H22.135C22.615 10.8751 23 11.2751 23 11.7651V17.0401" stroke="#B9C5D5" stroke-width="1.2" stroke-linecap="round" stroke-linejoin="round"/>
<path d="M19.75 12.415H20.25" stroke="#B9C5D5" stroke-linecap="round" stroke-linejoin="round"/>
<path fill-rule="evenodd" clip-rule="evenodd" d="M20 19.005C19.7239 19.005 19.5 18.7811 19.5 18.505C19.5 18.2289 19.7239 18.005 20 18.005C20.2761 18.005 20.5 18.2289 20.5 18.505C20.5 18.7811 20.2761 19.005 20 19.005Z" fill="#B9C5D5"/>
</svg>
