<svg width="366" height="804" viewBox="0 0 366 804" fill="none" xmlns="http://www.w3.org/2000/svg">
<path d="M183 178C194.818 178 206.052 180.5 216.202 185L351 185C356.523 185 361 189.477 361 195V324C361 329.523 356.523 334 351 334L218.369 334.001C207.66 339.129 195.666 342 183 342C170.334 342 158.34 339.129 147.631 334.001L15 334C9.47715 334 5 329.523 5 324V195C5 189.477 9.47715 185 15 185L149.798 185C159.948 180.5 171.182 178 183 178ZM152 5L161 14L207 13L212 5H350C355.523 5 360 9.47715 360 15V144C360 149.523 355.523 154 350 154H211L204 146H159L153 154H15C9.47715 154 5 149.523 5 144V15C5 9.47715 9.47715 5 15 5H152Z" fill="black" fill-opacity="0.2"/>
<path fill-rule="evenodd" clip-rule="evenodd" d="M182.5 324.5V360.381L187.664 365.105V377.752L182.083 382.859L176.5 377.752V365.105L181.5 360.531V324.5H182.5ZM182.5 361.491V363.424L185.57 366.233V371.222H178.5V366.233L181.5 363.488V361.641L177.319 365.467V377.392L182.083 381.749L186.845 377.392V365.467L182.5 361.491ZM275.931 325.443L285.224 334.736L316.672 334.736L319.318 332.095H335.131L337.771 334.736L348.753 334.736C349.023 334.736 349.246 334.933 349.288 335.19L349.296 335.278C349.296 335.549 349.099 335.773 348.841 335.815L348.753 335.822H284.774L275.483 326.531H232.813C232.514 326.531 232.269 326.286 232.269 325.987C232.269 325.716 232.467 325.492 232.725 325.45L232.813 325.443H275.931ZM135.704 325.192C136.003 325.192 136.246 325.432 136.246 325.734C136.246 326.033 136.003 326.278 135.704 326.278H90.0319L80.741 335.569H16.7635C16.4621 335.569 16.2193 335.326 16.2193 335.025C16.2193 334.727 16.4621 334.483 16.7635 334.483L27.744 334.482L30.3866 331.841H46.1996L48.842 334.482L80.291 334.483L89.584 325.192H135.704ZM353.624 186.351C358.438 186.351 362.374 190.199 362.513 194.982L362.517 195.244L361.158 195.243L361.159 324.082L362.516 324.082C362.516 328.899 358.668 332.833 353.885 332.972L353.623 332.976L353.622 331.618H338.314V331.076H353.622L353.623 329.719C356.657 329.719 359.139 327.309 359.255 324.303L359.259 324.082L360.616 324.082L360.617 195.243L359.26 195.244C359.26 192.21 356.851 189.728 353.845 189.612L353.624 189.607L353.623 188.251L338.314 188.251V187.707H353.623L353.624 186.351ZM11.8912 186.098L11.8918 187.456H27.2012V187.998L11.891 187.997L11.8912 189.355C8.78512 189.355 6.25674 191.883 6.25674 194.991L4.9 194.991L4.90005 323.83L6.25737 323.831C6.25737 326.937 8.78574 329.465 11.8918 329.465L11.8918 330.823H27.2012V331.367L11.891 331.367L11.8918 332.722C6.98784 332.722 3.00063 328.735 3.00063 323.831L4.35586 323.83L4.355 194.991L3 194.991C3 190.087 6.9893 186.098 11.8912 186.098ZM275.708 326.987L280.208 331.487H277.175L274.257 328.57H262.217L260.746 327.1L275.708 326.987ZM89.8096 326.734L107.77 326.847L106.301 328.318H91.2596L88.3416 331.234H85.3096L89.8096 326.734ZM253.102 329.002L254.934 330.835H241.771L239.939 329.002H253.102ZM128.578 328.75L126.747 330.582H113.584L115.415 328.75H128.578ZM355.463 238.124L353.581 240.278H352.106V239.566L351.346 238.808H348.606L347.978 238.124H355.463ZM17.5386 237.87L16.9106 238.555H14.1696L13.4096 239.312V240.024H11.9336L10.0526 237.87H17.5386ZM355.463 237.512V237.785L244 238.271V237.999L355.463 237.512ZM118 236.999V237.271L10.0526 237.531V237.259L118 236.999ZM353.581 235.02L355.463 237.173H347.978L348.606 236.489H351.346L352.105 235.731V235.02H353.581ZM13.4096 234.767V235.479L14.1696 236.237H16.9116L17.5396 236.921H10.0526L11.9346 234.767H13.4096ZM182.182 139L187.765 144.107V156.753L182.5 161.567V195.5H181.5V161.236L176.6 156.753V144.107L182.182 139ZM348.754 183.253C349.053 183.253 349.296 183.496 349.296 183.796C349.296 184.065 349.099 184.289 348.842 184.331L348.754 184.338L337.771 184.337L335.131 186.98H319.318L316.672 184.337L285.224 184.338L275.931 193.631H229.814C229.512 193.631 229.272 193.388 229.272 193.089C229.272 192.817 229.466 192.594 229.725 192.551L229.814 192.544H275.481L284.774 183.253H348.754ZM80.7403 183L90.0333 192.291H135.703C136.002 192.291 136.245 192.536 136.245 192.835C136.245 193.134 136.002 193.377 135.703 193.377H89.5834L80.2903 184.086L48.841 184.086L46.1996 186.728H30.3866L27.745 184.086L16.7629 184.086C16.4615 184.086 16.2187 183.841 16.2187 183.542C16.2187 183.243 16.4615 183 16.7629 183H80.7403ZM280.208 187.587L275.708 192.087L257.746 191.974L259.217 190.502H274.257L277.175 187.587H280.208ZM88.3416 187.333L91.2596 190.249H106.301L107.77 191.72L89.8096 191.833L85.3096 187.333H88.3416ZM251.934 188.239L250.102 190.07H236.939L238.771 188.239H251.934ZM126.747 187.986L128.578 189.818H115.415L113.584 187.986H126.747ZM182.182 140.109L177.419 144.468V156.392L181.5 160.126V158.641L178.6 155.989V151H185.67V155.989L182.5 158.886V160.457L186.945 156.392V144.468L182.182 140.109ZM170.501 146.484C170.893 146.484 171.212 146.803 171.212 147.195C171.212 147.588 170.893 147.906 170.501 147.906H159.245L151.604 155.547L28.394 155.547L28.7251 155.878H12.9251L15.9221 152.884H25.7301L26.972 154.126H143.621L145.446 152.3H150.244L152.969 149.576L155.564 149.576L158.656 146.484H170.501ZM204.533 146.484L207.625 149.576L210.222 149.576L212.946 152.3H217.744L219.57 154.126H338.217L339.459 152.884H349.268L352.265 155.878H336.465L336.796 155.547L211.587 155.547L203.945 147.906H192.689C192.297 147.906 191.979 147.588 191.979 147.195C191.979 146.836 192.247 146.538 192.593 146.491L192.689 146.484H204.533ZM356.013 4C359.343 4 362.067 6.64921 362.187 9.9509L362.191 10.177L361.258 10.1771L361.257 149.135L362.191 149.136C362.191 152.467 359.541 155.19 356.239 155.31L356.013 155.314V154.381L354.265 154.381V153.448H356.014L356.013 152.516C357.815 152.516 359.292 151.1 359.388 149.321L359.393 149.136L360.325 149.135L360.326 10.1771L359.393 10.177C359.393 8.37513 357.976 6.89845 356.198 6.80201L356.013 6.797V5.8641H354.265V4.9321H356.013V4ZM9.1772 4L9.177 4.932L10.9256 4.9321V5.8641L9.177 5.864L9.1772 6.797C7.3132 6.797 5.7972 8.313 5.7972 10.177L4.8646 10.1771L4.864 149.135L5.797 149.136C5.797 151.001 7.313 152.516 9.177 152.516V153.448L10.9256 153.448V154.381L9.177 154.381V155.314C5.771 155.314 3 152.543 3 149.136L3.932 149.135L3.9326 10.1771L3.0002 10.177C3.0002 6.771 5.7712 4 9.1772 4ZM28.7251 4.0001L27.429 5.296L151.604 5.2961L159.246 12.9371L166.57 12.937L165.161 11.5281H198.028L196.619 12.937L203.946 12.9371L211.587 5.2961L337.761 5.296L336.465 4.0001H352.265L349.268 6.9941H339.459L339.182 6.717H219.177L217.744 8.1501H212.946L210.222 10.8741L208.017 10.874L204.534 14.3581L195.198 14.358L192.367 17.1891H170.822L167.991 14.358L158.657 14.3581L155.172 10.874L152.969 10.8741L150.244 8.1501H145.446L144.014 6.717H26.007L25.7301 6.9941H15.9221L12.9251 4.0001H28.7251Z" fill="#2ED9C3"/>
<path fill-rule="evenodd" clip-rule="evenodd" d="M167.08 309.374C167.08 309.374 167.158 309.4 167.306 309.45C167.457 309.494 167.677 309.557 167.957 309.637C168.237 309.717 168.577 309.814 168.967 309.924C169.358 310.034 169.796 310.169 170.285 310.272C172.223 310.764 174.85 311.23 177.5 311.507C180.154 311.768 182.825 311.77 184.823 311.694C185.821 311.645 186.651 311.561 187.233 311.524C187.524 311.503 187.752 311.486 187.906 311.461C188.061 311.442 188.143 311.431 188.143 311.431L188.572 315.297C188.572 315.297 188.483 315.308 188.317 315.329C188.15 315.354 187.904 315.375 187.591 315.397C186.966 315.438 186.073 315.527 184.999 315.579C182.852 315.662 179.981 315.659 177.125 315.378C174.271 315.083 171.442 314.578 169.356 314.048C168.83 313.937 168.357 313.793 167.936 313.675C167.516 313.555 167.15 313.451 166.848 313.366C166.241 313.201 165.903 313.081 165.903 313.081L167.08 309.374ZM208.526 304.575L210.522 307.914L210.496 307.928C210.412 307.977 210.12 308.145 209.667 308.406C209.395 308.561 209.065 308.752 208.686 308.969C208.303 309.18 207.86 309.397 207.382 309.644C206.9 309.881 206.394 310.173 205.828 310.418C205.266 310.671 204.673 310.94 204.061 311.217C203.447 311.49 202.792 311.726 202.137 311.99C201.808 312.117 201.481 312.257 201.143 312.374C200.805 312.488 200.465 312.603 200.125 312.718C198.775 313.205 197.385 313.568 196.091 313.935C194.779 314.228 193.564 314.548 192.5 314.711C191.97 314.805 191.485 314.892 191.054 314.969C190.624 315.048 190.244 315.079 189.934 315.124C189.311 315.203 188.956 315.249 188.956 315.249L188.5 311.385C188.5 311.385 188.83 311.343 189.408 311.27C189.697 311.228 190.05 311.201 190.45 311.126C190.849 311.055 191.3 310.974 191.792 310.886C192.781 310.737 193.908 310.436 195.127 310.166C196.328 309.823 197.618 309.49 198.871 309.036C199.187 308.929 199.503 308.823 199.817 308.716C200.13 308.609 200.434 308.477 200.74 308.361C201.347 308.114 201.955 307.896 202.526 307.643C203.095 307.385 203.644 307.136 204.166 306.901C204.692 306.674 205.162 306.402 205.61 306.182C206.053 305.952 206.466 305.751 206.821 305.556C207.173 305.353 207.48 305.177 207.731 305.032C208.237 304.741 208.526 304.575 208.526 304.575ZM156.033 304.342L156.062 304.36C156.119 304.395 156.26 304.48 156.471 304.6C156.751 304.759 157.151 304.99 157.631 305.266C158.105 305.553 158.681 305.845 159.298 306.158C159.912 306.476 160.567 306.816 161.246 307.106C162.58 307.744 163.964 308.257 164.993 308.667C166.041 309.022 166.74 309.259 166.74 309.259L165.537 312.957C165.537 312.957 164.784 312.702 163.655 312.32C162.547 311.88 161.056 311.324 159.62 310.64C158.89 310.326 158.184 309.961 157.522 309.618C156.858 309.281 156.238 308.966 155.727 308.657C155.21 308.36 154.78 308.113 154.478 307.939C154.176 307.768 154.007 307.663 154.007 307.663L156.033 304.342ZM214.197 300.632L216.626 303.671C216.626 303.671 216.28 303.943 215.76 304.351C215.251 304.774 214.519 305.268 213.803 305.783C213.095 306.308 212.339 306.766 211.785 307.127C211.229 307.483 210.857 307.721 210.857 307.721L208.838 304.396C208.838 304.396 209.183 304.175 209.7 303.843C210.214 303.508 210.917 303.085 211.574 302.595C212.239 302.116 212.92 301.66 213.392 301.265L214.197 300.632ZM146.492 296.83C146.492 296.83 147.026 297.339 147.827 298.104C148.218 298.496 148.714 298.912 149.236 299.365C149.498 299.593 149.769 299.826 150.043 300.065C150.322 300.298 150.617 300.519 150.905 300.749C152.05 301.685 153.272 302.516 154.177 303.153C155.109 303.75 155.731 304.148 155.731 304.148L153.682 307.455C153.682 307.455 153.013 307.025 152.009 306.382C151.034 305.698 149.72 304.801 148.488 303.796C148.178 303.549 147.86 303.31 147.561 303.059C147.265 302.802 146.974 302.551 146.692 302.308C146.129 301.819 145.598 301.371 145.176 300.95C144.314 300.127 143.74 299.578 143.74 299.578L146.492 296.83ZM226.693 286.008L230.073 287.931C230.073 287.931 229.915 288.208 229.636 288.693C229.369 289.185 228.931 289.853 228.414 290.659C227.915 291.479 227.248 292.377 226.557 293.355C226.214 293.847 225.812 294.318 225.43 294.818C225.042 295.313 224.651 295.818 224.224 296.294C222.598 298.269 220.747 300.038 219.355 301.354C218.633 301.983 218.03 302.507 217.609 302.873C217.398 303.058 217.23 303.2 217.111 303.29C216.993 303.383 216.931 303.432 216.931 303.432L214.48 300.411C214.48 300.411 214.538 300.365 214.648 300.279C214.76 300.196 214.916 300.064 215.111 299.892C215.503 299.551 216.062 299.065 216.734 298.48C218.025 297.256 219.749 295.614 221.258 293.777C221.656 293.336 222.018 292.866 222.378 292.405C222.734 291.941 223.108 291.505 223.426 291.047C224.066 290.136 224.689 289.304 225.152 288.543C225.631 287.792 226.04 287.173 226.286 286.714C226.545 286.264 226.693 286.008 226.693 286.008ZM133.716 275.334C133.716 275.334 133.743 275.428 133.793 275.603C133.842 275.778 133.91 276.038 134.025 276.358C134.134 276.681 134.267 277.072 134.418 277.521C134.569 277.971 134.736 278.479 134.961 279.018C135.762 281.211 137.085 284.042 138.672 286.72C140.249 289.407 142.118 291.909 143.623 293.693C144.006 294.134 144.356 294.538 144.666 294.897C144.976 295.258 145.275 295.544 145.506 295.794C145.976 296.287 146.245 296.57 146.245 296.57L143.472 299.298C143.472 299.298 143.184 298.995 142.678 298.465C142.429 298.195 142.108 297.886 141.776 297.498C141.441 297.113 141.064 296.677 140.653 296.203C139.031 294.284 137.02 291.591 135.323 288.699C133.614 285.815 132.192 282.766 131.327 280.405C131.086 279.824 130.905 279.277 130.743 278.792C130.579 278.309 130.436 277.886 130.319 277.54C130.196 277.194 130.122 276.915 130.068 276.726C130.015 276.538 129.986 276.436 129.986 276.436L133.716 275.334ZM229.692 279.787L233.302 281.233L233.29 281.261C233.25 281.364 233.102 281.738 232.895 282.258C232.623 282.86 232.259 283.664 231.896 284.468C231.51 285.261 231.097 286.041 230.798 286.63C230.651 286.928 230.515 287.167 230.417 287.333C230.321 287.5 230.266 287.596 230.266 287.596L226.872 285.696C226.872 285.696 226.923 285.607 227.012 285.452C227.104 285.298 227.231 285.075 227.366 284.8C227.643 284.251 228.027 283.527 228.385 282.791C228.723 282.045 229.06 281.299 229.314 280.739C229.541 280.168 229.692 279.787 229.692 279.787ZM235.075 245.738C235.075 245.738 235.14 245.969 235.255 246.373C235.373 246.776 235.538 247.354 235.689 248.058C236.034 249.458 236.41 251.343 236.675 253.246C236.949 255.147 237.089 257.065 237.159 258.502C237.193 259.872 237.217 260.809 237.22 260.895C237.22 260.901 237.212 261.22 237.198 261.779C237.175 262.337 237.181 263.136 237.12 264.092C237.083 264.569 237.044 265.087 237.003 265.634C236.982 265.909 236.96 266.189 236.938 266.477C236.902 266.763 236.866 267.055 236.829 267.352C236.753 267.946 236.675 268.561 236.595 269.184C236.486 269.804 236.374 270.433 236.263 271.062C236.205 271.376 236.148 271.69 236.091 272.003C236.019 272.313 235.948 272.623 235.877 272.929C235.733 273.541 235.604 274.147 235.455 274.727C235.29 275.303 235.132 275.861 234.982 276.389C234.908 276.654 234.834 276.91 234.763 277.159C234.681 277.403 234.602 277.64 234.525 277.867C234.211 278.773 233.978 279.538 233.766 280.055C233.561 280.576 233.443 280.873 233.443 280.873L229.823 279.454C229.823 279.454 229.931 279.177 230.122 278.694C230.321 278.214 230.535 277.503 230.827 276.662C230.898 276.451 230.972 276.232 231.049 276.005C231.114 275.774 231.182 275.535 231.252 275.29C231.391 274.799 231.538 274.282 231.69 273.747C231.828 273.208 231.947 272.646 232.082 272.077C232.148 271.793 232.215 271.506 232.281 271.218C232.334 270.927 232.387 270.636 232.44 270.344C232.544 269.759 232.648 269.176 232.749 268.6C232.823 268.02 232.895 267.45 232.965 266.898C233 266.622 233.035 266.351 233.069 266.085C233.088 265.818 233.107 265.557 233.127 265.302C233.166 264.794 233.203 264.313 233.237 263.868C233.294 262.98 233.287 262.236 233.308 261.717C233.322 261.198 233.33 260.901 233.33 260.901C233.327 260.812 233.305 259.941 233.273 258.67C233.207 257.333 233.077 255.552 232.823 253.785C232.578 252.018 232.228 250.267 231.908 248.968C231.768 248.313 231.615 247.778 231.505 247.403C231.398 247.027 231.337 246.813 231.337 246.813L235.075 245.738ZM127.758 260.023C127.78 259.466 127.773 258.666 127.835 257.71C127.872 257.232 127.911 256.715 127.953 256.168C127.973 255.894 127.995 255.613 128.017 255.325C128.053 255.039 128.09 254.747 128.127 254.45C128.202 253.855 128.281 253.242 128.36 252.618C128.47 251.999 128.581 251.37 128.692 250.74C128.75 250.426 128.807 250.112 128.864 249.798C128.936 249.488 129.007 249.179 129.078 248.872C129.222 248.26 129.352 247.655 129.501 247.074C129.665 246.498 129.822 245.941 129.973 245.413C130.047 245.149 130.121 244.892 130.192 244.643C130.274 244.398 130.353 244.162 130.43 243.934C130.744 243.029 130.978 242.264 131.189 241.746C131.394 241.226 131.511 240.929 131.511 240.929L135.132 242.349C135.132 242.349 135.024 242.624 134.832 243.107C134.635 243.587 134.421 244.298 134.128 245.139C134.057 245.35 133.983 245.57 133.906 245.797C133.841 246.028 133.773 246.267 133.704 246.512C133.564 247.002 133.418 247.52 133.265 248.054C133.127 248.593 133.008 249.156 132.873 249.725C132.807 250.008 132.741 250.296 132.674 250.583C132.621 250.874 132.568 251.166 132.515 251.458C132.411 252.043 132.307 252.626 132.205 253.202C132.132 253.781 132.059 254.351 131.99 254.904C131.955 255.18 131.92 255.451 131.887 255.717C131.867 255.985 131.847 256.246 131.828 256.5C131.789 257.009 131.752 257.489 131.719 257.934C131.661 258.822 131.668 259.565 131.647 260.084C131.635 260.557 131.627 260.846 131.626 260.894L131.626 260.927C131.63 261.084 131.652 261.927 131.683 263.132C131.748 264.469 131.878 266.251 132.132 268.017C132.377 269.784 132.727 271.535 133.047 272.834C133.187 273.489 133.341 274.024 133.451 274.399L133.515 274.625C133.582 274.859 133.618 274.989 133.618 274.989L129.88 276.065C129.88 276.065 129.815 275.834 129.7 275.429C129.582 275.026 129.417 274.448 129.266 273.743C128.921 272.344 128.544 270.459 128.28 268.556C128.007 266.654 127.867 264.737 127.796 263.3C127.762 261.929 127.738 260.994 127.736 260.908C127.736 260.901 127.744 260.582 127.758 260.023ZM221.482 222.504L221.5 222.522C221.569 222.595 221.844 222.882 222.277 223.337C222.526 223.606 222.847 223.916 223.18 224.303C223.514 224.689 223.891 225.124 224.303 225.599C225.923 227.518 227.935 230.211 229.632 233.104C231.341 235.986 232.764 239.036 233.628 241.397C233.87 241.978 234.05 242.525 234.213 243.009C234.376 243.493 234.519 243.915 234.636 244.262C234.759 244.608 234.832 244.887 234.887 245.076C234.94 245.265 234.969 245.365 234.969 245.365L231.239 246.468C231.239 246.468 231.212 246.374 231.163 246.199C231.113 246.023 231.045 245.764 230.93 245.444C230.821 245.121 230.688 244.73 230.537 244.281C230.386 243.83 230.219 243.322 229.994 242.784C229.193 240.59 227.869 237.76 226.283 235.081C224.706 232.395 222.837 229.893 221.331 228.109C220.949 227.669 220.599 227.263 220.289 226.905C219.979 226.544 219.68 226.258 219.449 226.008C218.979 225.514 218.711 225.232 218.711 225.232L221.482 222.504ZM134.689 234.205L138.083 236.105C138.083 236.105 138.032 236.194 137.942 236.349C137.851 236.504 137.724 236.726 137.589 237.003C137.313 237.551 136.928 238.274 136.569 239.01C136.232 239.756 135.894 240.503 135.641 241.063C135.415 241.634 135.264 242.015 135.264 242.015L131.653 240.569C131.653 240.569 131.816 240.159 132.06 239.544C132.333 238.941 132.696 238.137 133.059 237.334C133.445 236.541 133.858 235.761 134.157 235.172C134.304 234.874 134.44 234.635 134.538 234.469C134.634 234.301 134.689 234.205 134.689 234.205ZM148.024 218.371L150.475 221.391C150.475 221.391 150.416 221.437 150.307 221.523C150.196 221.606 150.039 221.738 149.845 221.909C149.452 222.25 148.892 222.737 148.221 223.322C146.93 224.547 145.206 226.188 143.697 228.025C143.299 228.465 142.936 228.936 142.577 229.396C142.221 229.861 141.847 230.297 141.529 230.755C140.889 231.666 140.266 232.497 139.803 233.26C139.324 234.01 138.915 234.629 138.669 235.087C138.41 235.537 138.262 235.794 138.262 235.794L134.882 233.87C134.882 233.87 135.041 233.593 135.32 233.109C135.586 232.616 136.024 231.948 136.541 231.142C137.04 230.323 137.708 229.425 138.399 228.447C138.741 227.955 139.143 227.483 139.525 226.984C139.912 226.488 140.304 225.983 140.731 225.508C142.357 223.533 144.209 221.764 145.6 220.448C146.322 219.818 146.925 219.295 147.346 218.928C147.557 218.744 147.725 218.601 147.844 218.512C147.962 218.419 148.024 218.371 148.024 218.371ZM211.273 214.348C211.273 214.348 211.942 214.777 212.946 215.42C213.921 216.103 215.235 217 216.466 218.005C216.777 218.253 217.095 218.492 217.395 218.743C217.69 218.999 217.981 219.251 218.264 219.494C218.826 219.982 219.357 220.432 219.78 220.852C220.642 221.675 221.215 222.224 221.215 222.224L218.463 224.972C218.463 224.972 217.929 224.462 217.128 223.698C216.737 223.306 216.241 222.89 215.719 222.436C215.456 222.209 215.187 221.975 214.912 221.738C214.633 221.505 214.338 221.283 214.05 221.052C212.906 220.118 211.684 219.286 210.778 218.649C209.846 218.052 209.224 217.654 209.224 217.654L211.273 214.348ZM154.098 214.081L156.118 217.406C156.118 217.406 155.773 217.627 155.256 217.958C154.741 218.294 154.039 218.717 153.381 219.206C152.717 219.686 152.036 220.143 151.563 220.536C151.079 220.916 150.757 221.169 150.757 221.169L148.329 218.131C148.329 218.131 148.676 217.859 149.195 217.45C149.705 217.027 150.437 216.535 151.152 216.019C151.86 215.494 152.615 215.036 153.17 214.675C153.727 214.319 154.098 214.081 154.098 214.081ZM199.418 208.844C199.418 208.844 200.172 209.099 201.3 209.481C202.409 209.921 203.899 210.478 205.335 211.161C206.066 211.476 206.771 211.842 207.433 212.184C208.097 212.521 208.717 212.836 209.228 213.144C209.745 213.442 210.175 213.689 210.477 213.862C210.779 214.034 210.948 214.139 210.948 214.139L208.922 217.459C208.922 217.459 208.765 217.362 208.484 217.203C208.204 217.042 207.805 216.812 207.324 216.536C206.851 216.249 206.274 215.957 205.657 215.644C205.042 215.326 204.388 214.985 203.709 214.695C202.376 214.058 200.991 213.544 199.963 213.135C198.914 212.78 198.216 212.543 198.216 212.543L199.418 208.844ZM175.999 206.554L176.455 210.416C176.455 210.416 176.125 210.459 175.546 210.531C175.258 210.574 174.904 210.601 174.505 210.676C174.106 210.747 173.655 210.828 173.163 210.916C172.175 211.064 171.047 211.366 169.828 211.636C168.628 211.978 167.337 212.311 166.083 212.766C165.768 212.873 165.452 212.979 165.139 213.085C164.824 213.192 164.521 213.324 164.215 213.441C163.608 213.688 163 213.905 162.429 214.159C161.861 214.417 161.31 214.666 160.789 214.902C160.263 215.127 159.794 215.4 159.345 215.62C158.902 215.85 158.49 216.051 158.134 216.246C157.782 216.448 157.476 216.626 157.223 216.771C156.718 217.06 156.429 217.227 156.429 217.227L154.433 213.888C154.433 213.888 154.744 213.709 155.288 213.396C155.56 213.241 155.89 213.051 156.269 212.833C156.652 212.623 157.095 212.405 157.573 212.157C158.055 211.92 158.561 211.629 159.127 211.384C159.69 211.131 160.282 210.863 160.895 210.586C161.509 210.312 162.163 210.076 162.817 209.812C163.147 209.686 163.475 209.545 163.812 209.428C164.151 209.314 164.49 209.199 164.83 209.084C166.18 208.596 167.57 208.234 168.864 207.867C170.176 207.574 171.391 207.254 172.455 207.091C172.985 206.996 173.471 206.91 173.901 206.833C174.33 206.754 174.711 206.723 175.022 206.677C175.644 206.599 175.999 206.554 175.999 206.554ZM187.831 206.424C190.683 206.719 193.513 207.224 195.6 207.754C196.126 207.865 196.598 208.009 197.019 208.127C197.439 208.247 197.806 208.351 198.107 208.437C198.714 208.601 199.051 208.72 199.051 208.72L197.876 212.428C197.876 212.428 197.796 212.401 197.648 212.352C197.498 212.308 197.279 212.245 196.999 212.165C196.718 212.085 196.378 211.988 195.987 211.877C195.597 211.767 195.159 211.632 194.67 211.531C192.733 211.038 190.105 210.571 187.455 210.295C184.801 210.034 182.129 210.032 180.131 210.109C179.134 210.156 178.304 210.241 177.723 210.278C177.432 210.298 177.203 210.316 177.049 210.34C176.894 210.361 176.812 210.37 176.812 210.37L176.383 206.505C176.383 206.505 176.472 206.493 176.639 206.473C176.805 206.447 177.051 206.427 177.364 206.405C177.99 206.364 178.882 206.274 179.955 206.223C182.103 206.139 184.974 206.142 187.831 206.424Z" fill="url(#paint0_linear_2186_28729)"/>
<path d="M209.746 319.055L210.031 319.664C210.031 319.664 209.557 319.885 208.728 320.27C208.314 320.468 207.792 320.659 207.203 320.905C206.611 321.138 205.954 321.431 205.214 321.694C202.281 322.806 198.251 323.986 194.13 324.714C192.07 325.08 189.994 325.354 188.039 325.502C187.064 325.61 186.116 325.634 185.218 325.669C184.769 325.686 184.332 325.703 183.909 325.72C183.487 325.738 183.078 325.716 182.686 325.717C181.902 325.708 181.182 325.7 180.545 325.693C179.909 325.67 179.354 325.624 178.898 325.599C177.985 325.542 177.462 325.51 177.462 325.51L177.517 324.839C177.517 324.839 178.034 324.871 178.938 324.927C179.39 324.952 179.938 324.997 180.568 325.021C181.199 325.027 181.911 325.036 182.687 325.044C185.79 325.053 189.936 324.796 194.011 324.053C198.089 323.331 202.077 322.163 204.98 321.064C205.711 320.803 206.362 320.512 206.949 320.282C207.529 320.038 208.048 319.851 208.456 319.654C209.277 319.272 209.746 319.055 209.746 319.055ZM166.645 323.005C166.645 323.005 166.791 323.045 167.046 323.114C167.174 323.148 167.329 323.19 167.506 323.237C167.687 323.276 167.89 323.32 168.111 323.368C168.553 323.464 169.07 323.576 169.624 323.696C169.901 323.757 170.187 323.819 170.477 323.882C170.767 323.945 171.068 323.983 171.366 324.036C171.961 324.133 172.557 324.232 173.117 324.324C173.396 324.369 173.665 324.419 173.923 324.453C174.181 324.481 174.425 324.509 174.65 324.535C175.55 324.637 176.151 324.705 176.151 324.705L176.082 325.374L176.054 325.371C175.926 325.356 175.361 325.293 174.566 325.202C174.338 325.177 174.091 325.149 173.831 325.12C173.571 325.084 173.299 325.034 173.017 324.989C172.64 324.927 172.247 324.863 171.848 324.797L171.247 324.698C170.947 324.645 170.643 324.607 170.349 324.542C170.056 324.479 169.767 324.416 169.487 324.355C168.928 324.234 168.405 324.121 167.958 324.024C167.735 323.975 167.53 323.93 167.348 323.891C167.168 323.843 167.011 323.801 166.882 323.767C166.624 323.697 166.477 323.657 166.477 323.657L166.645 323.005ZM162.191 321.682L163.749 322.188C164.137 322.318 164.527 322.441 164.825 322.514L165.028 322.569C165.209 322.617 165.32 322.647 165.32 322.647L165.137 323.296C165.137 323.296 164.937 323.241 164.638 323.161C164.337 323.086 163.942 322.962 163.55 322.831C162.763 322.576 161.976 322.32 161.976 322.32L162.191 321.682ZM152.366 317.422C152.366 317.422 152.683 317.614 153.184 317.853C153.68 318.101 154.341 318.431 155.003 318.762C155.169 318.844 155.334 318.926 155.497 319.008C155.663 319.081 155.827 319.154 155.986 319.225C156.303 319.364 156.599 319.494 156.853 319.605C157.361 319.828 157.7 319.977 157.7 319.977L157.437 320.596C157.437 320.596 157.095 320.446 156.581 320.221C156.325 320.108 156.025 319.977 155.705 319.836C155.545 319.765 155.379 319.692 155.211 319.617C155.047 319.535 154.879 319.451 154.712 319.368C154.044 319.034 153.374 318.701 152.873 318.451C152.368 318.207 152.047 318.014 152.047 318.014L152.366 317.422ZM177.367 316.497C177.367 316.497 177.47 316.509 177.573 316.52C177.676 316.532 177.779 316.536 177.779 316.536L177.372 321.344C177.372 321.344 177.245 321.342 177.026 321.314C176.806 321.289 176.492 321.253 176.114 321.212C175.738 321.169 175.298 321.119 174.826 321.066C174.591 321.039 174.348 321.011 174.1 320.982C173.854 320.942 173.604 320.902 173.354 320.86C172.357 320.687 171.353 320.554 170.611 320.386C169.87 320.225 169.374 320.118 169.374 320.118L170.258 316.108L170.667 316.197L169.904 319.79C169.904 319.79 170.341 319.885 170.996 320.027C171.655 320.15 172.538 320.286 173.419 320.433C174.298 320.598 175.19 320.661 175.855 320.747C176.521 320.822 176.964 320.872 176.964 320.872L177.367 316.497ZM226.422 295.365L230.215 298.349C230.215 298.349 229.688 299.066 228.664 300.238C228.412 300.534 228.132 300.862 227.828 301.218C227.514 301.567 227.163 301.933 226.794 302.329C226.42 302.721 226.036 303.152 225.605 303.58C225.168 304.003 224.71 304.448 224.231 304.912C222.284 306.732 219.926 308.776 217.177 310.666C214.439 312.568 211.358 314.368 208.135 315.872C204.913 317.381 201.557 318.594 198.339 319.474C195.115 320.335 192.038 320.853 189.391 321.18C188.727 321.24 188.091 321.297 187.485 321.352C186.879 321.409 186.305 321.46 185.763 321.471C184.68 321.504 183.736 321.571 182.958 321.557C181.402 321.539 180.514 321.529 180.514 321.529L180.651 317.426L181.07 317.43L180.975 321.102C180.975 321.102 181.843 321.112 183.364 321.13C184.123 321.101 185.046 321.065 186.104 321.024C186.633 321.01 187.193 320.936 187.785 320.891C188.377 320.833 189.001 320.791 189.647 320.713C192.234 320.392 195.235 319.856 198.383 319.011C201.53 318.154 204.804 316.952 207.952 315.481C211.101 314.011 214.115 312.257 216.797 310.408C219.479 308.556 221.798 306.578 223.713 304.812C224.646 303.902 225.522 303.089 226.229 302.3C226.956 301.529 227.59 300.858 228.071 300.268C228.563 299.689 228.95 299.234 229.214 298.924C229.476 298.612 229.602 298.435 229.602 298.435L226.169 295.693L226.422 295.365ZM142.751 301.148C142.751 301.148 142.821 301.226 142.899 301.296C142.976 301.368 143.053 301.44 143.053 301.44L140.49 304.071C140.49 304.071 140.835 304.396 141.441 304.964C141.747 305.245 142.105 305.601 142.541 305.981C142.982 306.356 143.478 306.779 144.02 307.241C146.207 309.061 149.283 311.308 152.587 313.186C155.879 315.078 159.366 316.617 162.051 317.566C163.394 318.04 164.53 318.386 165.319 318.644C166.121 318.86 166.579 318.984 166.579 318.984L167.735 314.746L168.135 314.854L166.9 319.519C166.9 319.519 166.425 319.391 165.594 319.166C165.175 319.063 164.68 318.893 164.109 318.708C163.539 318.522 162.896 318.312 162.194 318.083C159.413 317.092 155.784 315.528 152.372 313.56C148.946 311.615 145.762 309.276 143.508 307.372C142.948 306.892 142.427 306.46 141.979 306.061C141.542 305.651 141.161 305.293 140.847 304.999C140.532 304.705 140.286 304.473 140.118 304.315C139.948 304.159 139.865 304.069 139.865 304.069L142.751 301.148ZM146.86 314.081C146.86 314.081 147.043 314.21 147.32 314.402C147.6 314.59 147.984 314.823 148.363 315.063L149.884 316.017L149.538 316.596C149.538 316.596 148.77 316.113 148.002 315.631C147.619 315.388 147.23 315.152 146.947 314.963C146.669 314.769 146.482 314.639 146.482 314.639L146.86 314.081ZM214.116 316.815L214.447 317.4C214.447 317.4 214.379 317.44 214.263 317.508C214.148 317.58 213.979 317.675 213.771 317.779C213.417 317.965 212.963 318.203 212.494 318.449L212.259 318.572C211.711 318.862 211.162 319.152 210.735 319.338L210.031 319.664L209.746 319.055L210.443 318.732C210.866 318.548 211.409 318.261 211.951 317.974C212.495 317.688 213.039 317.403 213.447 317.19C213.653 317.085 213.82 316.992 213.934 316.922C214.05 316.853 214.116 316.815 214.116 316.815ZM142.36 310.751C142.36 310.751 142.522 310.883 142.769 311.073C143.017 311.263 143.346 311.518 143.675 311.771C144.004 312.025 144.334 312.28 144.58 312.47C144.825 312.665 144.997 312.782 144.997 312.782L144.6 313.325C144.6 313.325 144.426 313.207 144.179 313.011C143.98 312.857 143.727 312.662 143.463 312.458L143.264 312.304C142.931 312.047 142.599 311.791 142.349 311.597C142.099 311.406 141.935 311.274 141.935 311.274L142.36 310.751ZM216.303 315.531L216.657 316.103L215.551 316.752L215.209 316.172L216.303 315.531ZM129.3 296.314C129.3 296.314 129.449 296.541 129.709 296.939C129.957 297.345 130.374 297.881 130.846 298.545C131.084 298.876 131.344 299.233 131.618 299.61C131.891 299.989 132.211 300.363 132.525 300.764C132.843 301.162 133.171 301.573 133.506 301.99C133.84 302.407 134.212 302.803 134.567 303.215C134.926 303.622 135.285 304.03 135.639 304.431C136.004 304.821 136.374 305.195 136.727 305.562C137.081 305.927 137.424 306.281 137.749 306.616C138.081 306.943 138.409 307.239 138.704 307.519C139.299 308.076 139.795 308.539 140.143 308.863C140.504 309.172 140.711 309.347 140.711 309.347L140.27 309.855C140.27 309.855 140.061 309.677 139.695 309.366C139.344 309.039 138.843 308.569 138.241 308.008C137.943 307.724 137.612 307.426 137.277 307.095C136.948 306.755 136.602 306.398 136.244 306.029C135.887 305.658 135.513 305.28 135.143 304.887C134.786 304.482 134.424 304.07 134.061 303.658C133.703 303.243 133.326 302.843 132.988 302.42C132.651 301.999 132.319 301.584 131.998 301.181C131.68 300.777 131.357 300.398 131.08 300.016C130.804 299.634 130.543 299.273 130.301 298.94C129.823 298.269 129.403 297.726 129.152 297.316C128.89 296.914 128.739 296.685 128.739 296.685L129.3 296.314ZM222.843 310.883L223.265 311.407C223.265 311.407 222.937 311.67 222.445 312.063C221.962 312.469 221.275 312.955 220.594 313.448C219.912 313.941 219.237 314.441 218.7 314.773C218.173 315.118 217.82 315.348 217.82 315.348L217.455 314.783C217.455 314.783 217.803 314.555 218.325 314.214C218.857 313.886 219.524 313.39 220.199 312.902C220.872 312.415 221.552 311.935 222.03 311.532C222.518 311.142 222.843 310.883 222.843 310.883ZM136.339 293.584L136.585 293.923L133.605 296.071C133.605 296.071 133.9 296.477 134.342 297.088C134.787 297.695 135.432 298.468 136.055 299.256C136.686 300.038 137.373 300.773 137.864 301.344C138.111 301.628 138.321 301.862 138.477 302.016C138.631 302.175 138.718 302.265 138.718 302.265L141.912 299.248L142.2 299.545L138.716 302.884C138.716 302.884 138.619 302.784 138.447 302.607C138.28 302.427 138.023 302.186 137.748 301.866C137.198 301.227 136.431 300.403 135.722 299.531C135.37 299.092 135.019 298.654 134.69 298.242C134.526 298.035 134.367 297.836 134.216 297.647C134.073 297.453 133.939 297.268 133.815 297.097C133.32 296.415 132.99 295.959 132.99 295.959L136.339 293.584ZM235.564 297.13L236.12 297.51C236.12 297.51 235.977 297.716 235.725 298.076C235.468 298.432 235.128 298.961 234.67 299.559C234.211 300.155 233.673 300.851 233.098 301.596C232.502 302.324 231.841 303.08 231.193 303.848C230.532 304.602 229.826 305.319 229.188 306.011C228.873 306.36 228.541 306.672 228.231 306.972C227.922 307.272 227.628 307.556 227.358 307.818C227.088 308.08 226.84 308.321 226.62 308.534C226.39 308.736 226.19 308.912 226.026 309.058C225.696 309.348 225.508 309.514 225.508 309.514L225.063 309.01C225.063 309.01 225.249 308.845 225.575 308.558C225.739 308.415 225.936 308.24 226.163 308.04C226.38 307.828 226.626 307.591 226.894 307.332C227.161 307.072 227.451 306.791 227.757 306.494C228.064 306.197 228.392 305.888 228.705 305.542C229.336 304.858 230.034 304.15 230.688 303.402C231.33 302.643 231.985 301.894 232.574 301.173C233.143 300.436 233.675 299.748 234.13 299.157C234.583 298.566 234.919 298.043 235.174 297.69C235.422 297.333 235.564 297.13 235.564 297.13ZM126.923 292.443L128.127 294.494L127.553 294.846L126.337 292.775L126.923 292.443ZM126.952 271.647L127.031 272.059L123.43 272.783C123.43 272.783 123.495 273.123 123.61 273.719C123.753 274.308 123.959 275.15 124.205 276.162C124.316 276.67 124.499 277.204 124.661 277.778C124.834 278.348 125.002 278.954 125.202 279.572C125.641 280.795 126.061 282.119 126.61 283.393C126.88 284.032 127.113 284.686 127.411 285.301C127.698 285.92 127.98 286.53 128.254 287.119C128.518 287.713 128.837 288.256 129.105 288.788C129.386 289.314 129.635 289.819 129.894 290.27C130.421 291.167 130.859 291.914 131.166 292.437C131.484 292.953 131.68 293.239 131.68 293.239L135.385 290.877L135.611 291.223L131.562 293.848C131.562 293.848 131.364 293.545 131.016 293.013C130.676 292.476 130.228 291.686 129.673 290.748C129.387 290.284 129.128 289.753 128.834 289.202C128.549 288.647 128.227 288.072 127.935 287.457C127.361 286.222 126.731 284.913 126.21 283.555C125.634 282.221 125.199 280.832 124.738 279.55C124.543 278.897 124.356 278.266 124.178 277.668C124.089 277.368 124.003 277.077 123.92 276.795C123.841 276.512 123.78 276.235 123.713 275.971C123.463 274.91 123.221 274.034 123.11 273.407C122.99 272.783 122.921 272.426 122.921 272.426L126.952 271.647ZM119.968 273.762C119.968 273.762 120.015 274.006 120.097 274.432C120.175 274.861 120.339 275.46 120.51 276.185C120.69 276.908 120.875 277.759 121.158 278.647C121.291 279.094 121.427 279.555 121.567 280.024C121.636 280.258 121.707 280.494 121.777 280.732C121.858 280.965 121.941 281.2 122.023 281.434C122.187 281.903 122.352 282.372 122.514 282.833C122.674 283.295 122.83 283.75 123.014 284.179C123.365 285.042 123.693 285.847 123.973 286.538C124.601 287.89 125.019 288.792 125.019 288.792L124.413 289.084C124.413 289.084 123.99 288.172 123.356 286.807C123.073 286.109 122.742 285.295 122.387 284.422C122.201 283.99 122.044 283.529 121.881 283.063C121.718 282.597 121.551 282.123 121.386 281.649L121.136 280.939C121.065 280.699 120.994 280.461 120.924 280.223C120.784 279.75 120.646 279.284 120.511 278.832C120.226 277.935 120.038 277.075 119.856 276.344C119.684 275.612 119.517 275.006 119.438 274.573C119.355 274.142 119.308 273.895 119.308 273.895L119.968 273.762ZM241.608 274.543C241.128 276.644 240.49 278.943 239.686 281.191C238.415 284.831 236.716 288.307 235.276 290.81C234.592 292.084 233.906 293.076 233.47 293.798C233.247 294.155 233.07 294.435 232.937 294.616C232.808 294.802 232.739 294.901 232.739 294.901L229.341 292.596L229.581 292.252L232.636 294.291C232.636 294.291 232.708 294.199 232.823 294.016C232.939 293.831 233.109 293.56 233.325 293.216C233.757 292.529 234.389 291.555 235.051 290.329C236.422 287.907 238.052 284.555 239.279 281.046C240.07 278.831 240.697 276.565 241.171 274.504L241.608 274.543ZM238.956 291.592L239.547 291.913L238.37 294.008L237.791 293.664L238.956 291.592ZM245.532 273.271L246.193 273.399C246.193 273.399 245.959 274.471 245.611 276.08C245.216 277.677 244.65 279.8 243.936 281.878C243.231 283.955 242.413 285.995 241.729 287.492C241.564 287.869 241.411 288.215 241.277 288.52C241.127 288.82 240.997 289.081 240.889 289.296C240.675 289.725 240.553 289.971 240.553 289.971L239.951 289.67C239.951 289.67 240.073 289.426 240.285 289.001C240.391 288.789 240.52 288.531 240.667 288.235C240.8 287.932 240.95 287.59 241.115 287.217C241.792 285.736 242.602 283.717 243.3 281.661C244.006 279.606 244.565 277.505 244.956 275.924C245.301 274.332 245.532 273.271 245.532 273.271ZM118.784 264.286L118.786 264.314C118.79 264.418 118.807 264.797 118.829 265.324C118.884 265.945 118.959 266.775 119.033 267.603C119.089 268.434 119.227 269.255 119.309 269.873C119.397 270.491 119.455 270.903 119.455 270.903L118.789 271.007C118.789 271.007 118.731 270.59 118.643 269.965C118.56 269.341 118.421 268.51 118.364 267.671C118.288 266.834 118.214 265.997 118.157 265.369C118.13 264.738 118.112 264.319 118.112 264.319L118.784 264.286ZM122.335 264.108C122.349 264.488 122.367 264.865 122.4 265.227C122.469 266.009 122.534 266.739 122.591 267.365C122.634 267.993 122.737 268.507 122.778 268.871C122.83 269.235 122.859 269.442 122.859 269.442L127.208 268.822L127.265 269.231L122.494 269.948C122.494 269.948 122.359 269.058 122.189 267.719C122.129 267.047 122.058 266.262 121.983 265.423C121.937 265.002 121.917 264.567 121.903 264.125C121.902 264.106 121.902 264.088 121.901 264.07L122.335 264.108ZM118.7 261.646C118.7 261.646 118.699 261.725 118.698 261.845C118.693 261.963 118.698 262.121 118.705 262.279C118.718 262.596 118.73 262.914 118.73 262.914L118.058 262.932C118.058 262.932 118.046 262.612 118.033 262.292C118.025 262.132 118.02 261.972 118.025 261.851C118.026 261.731 118.027 261.652 118.027 261.652L118.7 261.646ZM129.494 224.286L130.048 224.668C130.048 224.668 129.753 225.093 129.238 225.839C128.997 226.221 128.705 226.687 128.369 227.222C128.037 227.758 127.641 228.35 127.274 229.034C125.69 231.704 123.871 235.442 122.479 239.342C121.064 243.236 120.117 247.281 119.612 250.343C119.491 251.109 119.359 251.809 119.28 252.435C119.209 253.062 119.148 253.608 119.097 254.058C118.995 254.958 118.937 255.473 118.937 255.473L118.785 257.924C118.767 258.231 118.744 258.536 118.732 258.824C118.729 259.112 118.726 259.381 118.723 259.611C118.718 260.071 118.714 260.378 118.714 260.378L118.042 260.371C118.042 260.371 118.045 260.061 118.051 259.595C118.053 259.363 118.056 259.09 118.059 258.8C118.071 258.51 118.095 258.201 118.112 257.891C118.183 256.765 118.252 255.639 118.265 255.443L118.273 255.353C118.292 255.191 118.346 254.713 118.427 253.985C118.479 253.531 118.542 252.978 118.613 252.345C118.693 251.712 118.826 251.006 118.949 250.231C119.013 249.844 119.079 249.441 119.148 249.024C119.22 248.607 119.325 248.182 119.417 247.742C119.512 247.303 119.61 246.852 119.71 246.391C119.76 246.16 119.811 245.927 119.862 245.692C119.924 245.46 119.987 245.224 120.05 244.988C120.178 244.514 120.308 244.034 120.44 243.547C120.575 243.06 120.693 242.563 120.863 242.076C121.19 241.1 121.485 240.095 121.846 239.114C123.253 235.173 125.091 231.394 126.692 228.697C127.063 228.006 127.463 227.407 127.798 226.866C128.137 226.325 128.433 225.855 128.675 225.468C129.197 224.715 129.494 224.286 129.494 224.286ZM246.327 267.837L246.997 267.907C246.997 267.907 246.903 268.743 246.808 269.578C246.77 269.998 246.69 270.411 246.641 270.722C246.59 271.033 246.556 271.24 246.556 271.24L245.892 271.135C245.892 271.135 245.925 270.93 245.976 270.622C246.025 270.314 246.104 269.905 246.141 269.49L246.327 267.837ZM247.356 261.997L247.35 262.565C247.343 262.904 247.352 263.359 247.313 263.812L247.201 265.622L246.53 265.575C246.53 265.575 246.585 264.678 246.641 263.782C246.672 263.424 246.672 263.065 246.675 262.763L246.678 262.548C246.681 262.211 246.684 261.987 246.684 261.987L247.356 261.997ZM246.901 253.157C246.901 253.157 246.965 253.525 247.006 254.085C247.056 254.643 247.123 255.388 247.19 256.131C247.274 256.875 247.276 257.623 247.304 258.183L247.341 259.117L246.668 259.136C246.668 259.136 246.654 258.766 246.632 258.212C246.603 257.658 246.602 256.917 246.518 256.182C246.453 255.445 246.387 254.709 246.337 254.156C246.297 253.602 246.233 253.238 246.233 253.238L246.901 253.157ZM132.244 226.867L135.642 229.171L135.402 229.515L132.346 227.475C132.346 227.475 132.276 227.568 132.16 227.752C132.044 227.936 131.874 228.207 131.659 228.551C131.226 229.238 130.593 230.212 129.932 231.438C128.561 233.86 126.931 237.212 125.704 240.721C125.205 242.12 124.773 243.537 124.402 244.911L123.961 244.872C124.341 243.462 124.784 242.009 125.296 240.577C126.568 236.935 128.267 233.46 129.706 230.957C130.391 229.683 131.077 228.691 131.512 227.97C131.735 227.613 131.912 227.332 132.046 227.15C132.12 227.045 132.174 226.967 132.206 226.92L132.244 226.867ZM242.489 251.819C242.489 251.819 242.622 252.709 242.794 254.048C242.828 254.425 242.865 254.84 242.904 255.278L242.467 255.24C242.441 254.946 242.415 254.664 242.392 254.402C242.348 253.775 242.246 253.26 242.204 252.895C242.153 252.533 242.125 252.325 242.125 252.325L237.775 252.946L237.717 252.536L242.489 251.819ZM233.421 227.919C233.421 227.919 233.619 228.222 233.967 228.754C234.307 229.291 234.754 230.081 235.309 231.019C235.596 231.483 235.855 232.014 236.149 232.565C236.433 233.12 236.755 233.695 237.047 234.31C237.621 235.545 238.252 236.854 238.773 238.212C239.349 239.547 239.784 240.935 240.245 242.217C240.439 242.87 240.627 243.501 240.805 244.099C240.894 244.399 240.979 244.69 241.063 244.972C241.142 245.255 241.203 245.533 241.269 245.796C241.52 246.857 241.761 247.734 241.873 248.36C241.993 248.984 242.062 249.341 242.062 249.341L238.03 250.12L237.952 249.708L241.553 248.984C241.553 248.984 241.488 248.644 241.373 248.048C241.229 247.458 241.023 246.616 240.778 245.605C240.666 245.097 240.484 244.563 240.322 243.989C240.149 243.419 239.981 242.814 239.78 242.195C239.341 240.971 238.922 239.648 238.372 238.374C238.102 237.735 237.87 237.081 237.572 236.466C237.284 235.847 237.002 235.237 236.729 234.648C236.463 234.054 236.146 233.511 235.877 232.979C235.597 232.453 235.347 231.948 235.088 231.497C234.562 230.6 234.123 229.853 233.817 229.33C233.499 228.813 233.303 228.528 233.303 228.528L229.598 230.89L229.371 230.543L233.421 227.919ZM245.393 245.136C245.393 245.136 245.589 245.94 245.785 246.744C245.89 247.145 245.971 247.55 246.025 247.855C246.085 248.161 246.124 248.364 246.124 248.364L245.463 248.495C245.463 248.495 245.425 248.294 245.367 247.993C245.313 247.691 245.233 247.289 245.129 246.893L245.056 246.596C244.889 245.911 244.741 245.302 244.741 245.302L245.393 245.136ZM241.73 234.616C241.73 234.616 241.794 234.754 241.907 234.997C242.026 235.236 242.165 235.591 242.338 236.015C242.51 236.439 242.711 236.934 242.927 237.465C243.032 237.731 243.15 238.001 243.255 238.283C243.354 238.567 243.455 238.855 243.556 239.143C243.758 239.719 243.961 240.296 244.15 240.836C244.345 241.374 244.473 241.893 244.612 242.33C244.872 243.208 245.045 243.794 245.045 243.794L244.396 243.973C244.396 243.973 244.224 243.394 243.967 242.525C243.831 242.093 243.704 241.579 243.511 241.046C243.323 240.512 243.123 239.941 242.924 239.371C242.823 239.086 242.723 238.801 242.625 238.52C242.522 238.242 242.405 237.973 242.3 237.71C242.088 237.186 241.888 236.696 241.717 236.276C241.547 235.857 241.409 235.505 241.291 235.268C241.179 235.029 241.116 234.891 241.116 234.891L241.73 234.616ZM184.469 200.238L184.332 204.342L183.912 204.337L184.008 200.665C184.008 200.665 183.139 200.655 181.619 200.638C180.86 200.667 179.937 200.702 178.879 200.743C178.349 200.757 177.79 200.831 177.197 200.876C176.606 200.934 175.982 200.976 175.335 201.054C172.748 201.376 169.748 201.911 166.599 202.757C163.453 203.614 160.179 204.815 157.031 206.286C153.881 207.756 150.868 209.51 148.186 211.36C145.503 213.212 143.184 215.189 141.27 216.955C140.337 217.865 139.461 218.679 138.754 219.468C138.027 220.238 137.393 220.909 136.912 221.499C136.419 222.078 136.032 222.533 135.768 222.843C135.507 223.156 135.38 223.332 135.38 223.332L138.814 226.074L138.56 226.402L134.767 223.418C134.767 223.418 135.295 222.702 136.319 221.529C136.571 221.233 136.85 220.905 137.154 220.549C137.469 220.201 137.82 219.835 138.189 219.438C138.563 219.046 138.947 218.615 139.378 218.187C139.814 217.765 140.273 217.32 140.752 216.855C142.698 215.035 145.056 212.992 147.806 211.101C150.544 209.199 153.625 207.399 156.848 205.896C160.069 204.386 163.426 203.173 166.644 202.293C169.868 201.432 172.944 200.915 175.592 200.587C176.256 200.527 176.892 200.47 177.498 200.415C178.103 200.358 178.678 200.308 179.22 200.297C180.303 200.263 181.247 200.196 182.025 200.21C183.58 200.228 184.469 200.238 184.469 200.238ZM215.634 205.367C215.634 205.367 215.703 205.404 215.817 205.477C215.932 205.55 216.096 205.652 216.293 205.776C216.688 206.024 217.213 206.354 217.739 206.684C218.271 207.004 218.778 207.361 219.158 207.63C219.502 207.869 219.742 208.037 219.787 208.068L219.794 208.074C219.794 208.074 220.223 208.373 220.972 208.899C221.334 209.177 221.775 209.517 222.279 209.907C222.78 210.301 223.365 210.721 223.952 211.241C226.387 213.22 229.422 216.122 232.117 219.325C234.829 222.513 237.163 226.005 238.714 228.73C238.911 229.069 239.102 229.393 239.283 229.701C239.449 230.017 239.606 230.318 239.754 230.6C240.05 231.165 240.308 231.657 240.521 232.062C240.74 232.463 240.883 232.794 240.987 233.016C241.09 233.239 241.145 233.357 241.145 233.357L240.537 233.646C240.537 233.646 240.483 233.528 240.381 233.308C240.277 233.089 240.136 232.762 239.92 232.364C239.709 231.963 239.454 231.477 239.161 230.918C239.014 230.638 238.858 230.341 238.694 230.028C238.515 229.722 238.327 229.402 238.131 229.067C236.596 226.37 234.287 222.914 231.602 219.759C228.935 216.59 225.932 213.716 223.522 211.759C222.941 211.244 222.362 210.829 221.866 210.439C221.367 210.054 220.932 209.718 220.573 209.441C219.832 208.921 219.408 208.625 219.408 208.625C219.408 208.625 219.157 208.449 218.779 208.185C218.402 207.92 217.9 207.566 217.374 207.249C216.853 206.922 216.334 206.596 215.943 206.351C215.748 206.229 215.586 206.127 215.472 206.056C215.36 205.983 215.291 205.947 215.291 205.947L215.634 205.367ZM136.587 215.694L137.067 216.165C137.067 216.165 136.653 216.606 136.033 217.266C135.723 217.597 135.361 217.983 134.974 218.396C134.606 218.826 134.214 219.286 133.822 219.746C133.437 220.212 133.022 220.652 132.687 221.109C132.341 221.558 132.018 221.976 131.741 222.335C131.464 222.694 131.233 222.993 131.071 223.202C130.92 223.418 130.833 223.542 130.833 223.542L130.288 223.147C130.288 223.147 130.376 223.022 130.529 222.803C130.693 222.592 130.925 222.29 131.206 221.927C131.485 221.565 131.811 221.142 132.162 220.689C132.501 220.227 132.919 219.781 133.308 219.311C133.705 218.847 134.101 218.382 134.473 217.946C134.864 217.53 135.229 217.14 135.542 216.806C136.17 216.138 136.587 215.694 136.587 215.694ZM226.266 218.883C226.266 218.883 226.365 218.983 226.535 219.159C226.703 219.34 226.961 219.581 227.235 219.901C227.785 220.54 228.552 221.364 229.262 222.236C229.612 222.675 229.963 223.114 230.293 223.526C230.457 223.732 230.616 223.931 230.766 224.119C230.909 224.315 231.044 224.499 231.168 224.67C231.663 225.353 231.992 225.808 231.992 225.808L228.643 228.184L228.397 227.844L231.378 225.696C231.378 225.696 231.083 225.29 230.641 224.679C230.195 224.072 229.55 223.299 228.928 222.511C228.297 221.73 227.609 220.995 227.119 220.423C226.871 220.139 226.661 219.906 226.506 219.751C226.352 219.593 226.265 219.503 226.265 219.503L223.071 222.52L222.783 222.222L226.266 218.883ZM140.013 212.482L140.457 212.987C140.457 212.987 139.843 213.529 139.229 214.07C138.642 214.64 138.054 215.21 138.054 215.21L137.584 214.727C137.584 214.727 138.179 214.152 138.772 213.576C139.393 213.029 140.013 212.482 140.013 212.482ZM198.083 202.248C198.083 202.248 198.558 202.376 199.389 202.601C199.808 202.704 200.302 202.874 200.873 203.059C201.444 203.245 202.086 203.455 202.789 203.685C205.57 204.675 209.198 206.239 212.611 208.207C216.037 210.152 219.22 212.491 221.474 214.395C222.034 214.875 222.556 215.307 223.003 215.706C223.368 216.048 223.693 216.353 223.973 216.616L224.136 216.768C224.45 217.062 224.696 217.294 224.865 217.453C225.034 217.608 225.118 217.698 225.118 217.698L222.232 220.619C222.232 220.619 222.162 220.541 222.084 220.471C222.007 220.4 221.93 220.327 221.93 220.327L224.493 217.696C224.493 217.696 224.147 217.371 223.541 216.803C223.235 216.522 222.877 216.166 222.441 215.787C222.001 215.411 221.504 214.988 220.963 214.527C218.776 212.706 215.699 210.46 212.396 208.582C209.103 206.689 205.616 205.15 202.931 204.201C201.589 203.727 200.453 203.381 199.663 203.123C198.861 202.907 198.403 202.783 198.403 202.783L197.248 207.021L196.847 206.913L198.083 202.248ZM148.699 206.026L149.053 206.597L146.575 208.214C145.375 209.078 144.175 209.942 144.175 209.942L143.77 209.405L146.196 207.659L148.699 206.026ZM154.401 202.887L154.696 203.492C154.696 203.492 154.646 203.516 154.556 203.556C154.466 203.596 154.341 203.659 154.192 203.739C153.954 203.864 153.652 204.022 153.336 204.187L153.099 204.312C152.701 204.52 152.303 204.728 152.005 204.885C151.705 205.037 151.513 205.154 151.513 205.154L151.184 204.566C151.184 204.566 151.378 204.449 151.682 204.294C151.984 204.137 152.385 203.926 152.787 203.715C153.189 203.504 153.591 203.294 153.892 203.136C154.042 203.055 154.169 202.993 154.26 202.952C154.35 202.911 154.401 202.887 154.401 202.887ZM187.957 200.454C188.177 200.478 188.491 200.514 188.869 200.556C189.245 200.599 189.685 200.648 190.157 200.701C190.392 200.729 190.635 200.756 190.883 200.785C191.129 200.825 191.379 200.866 191.629 200.907C192.626 201.08 193.63 201.213 194.371 201.381C195.113 201.542 195.608 201.649 195.608 201.649L194.725 205.659L194.315 205.57L195.079 201.977C195.079 201.977 194.642 201.882 193.987 201.74C193.328 201.617 192.444 201.481 191.563 201.334C190.684 201.169 189.792 201.106 189.128 201.02C188.462 200.945 188.018 200.895 188.018 200.895L187.616 205.271C187.616 205.271 187.512 205.259 187.41 205.247C187.307 205.235 187.203 205.231 187.203 205.231L187.611 200.423C187.611 200.423 187.737 200.425 187.957 200.454ZM159.589 200.631L159.829 201.26C159.829 201.26 159.059 201.573 158.288 201.886C157.903 202.043 157.518 202.2 157.229 202.317C156.946 202.448 156.757 202.536 156.757 202.536L156.483 201.92C156.483 201.92 156.674 201.832 156.96 201.699C157.253 201.581 157.642 201.423 158.031 201.265C158.81 200.948 159.589 200.631 159.589 200.631ZM213.4 204.113L214.517 204.741L214.186 205.326L213.081 204.705L213.4 204.113ZM178.82 196.486L178.859 197.158C178.859 197.158 178.791 197.161 178.664 197.166C178.536 197.167 178.351 197.186 178.114 197.207C177.64 197.25 176.965 197.311 176.153 197.383C175.339 197.435 174.401 197.591 173.393 197.728C172.889 197.806 172.364 197.856 171.84 197.963C171.316 198.064 170.782 198.166 170.248 198.268C169.177 198.451 168.125 198.725 167.136 198.965C166.643 199.092 166.159 199.187 165.714 199.328C165.267 199.46 164.844 199.586 164.453 199.702C163.674 199.938 163.017 200.112 162.573 200.284C162.124 200.44 161.868 200.531 161.868 200.531L161.649 199.895C161.649 199.895 161.908 199.803 162.361 199.645C162.809 199.472 163.473 199.295 164.261 199.057C164.656 198.939 165.083 198.813 165.536 198.679C165.985 198.537 166.475 198.441 166.972 198.312C167.972 198.069 169.036 197.792 170.118 197.608C170.657 197.504 171.196 197.401 171.727 197.3C172.256 197.192 172.787 197.141 173.295 197.063C174.314 196.924 175.262 196.767 176.085 196.714C176.905 196.64 177.589 196.579 178.066 196.536C178.306 196.514 178.493 196.496 178.622 196.494C178.75 196.489 178.82 196.486 178.82 196.486ZM206.034 200.728C206.034 200.728 206.426 200.879 207.016 201.102C207.603 201.333 208.365 201.688 209.138 202.02C209.521 202.192 209.91 202.352 210.266 202.522C210.618 202.698 210.947 202.863 211.23 203.003C211.794 203.284 212.17 203.472 212.17 203.472L211.863 204.071C211.863 204.071 211.491 203.886 210.932 203.607C210.653 203.467 210.328 203.305 209.979 203.131C209.627 202.963 209.242 202.804 208.862 202.634C208.099 202.305 207.343 201.954 206.763 201.726C206.18 201.504 205.791 201.356 205.791 201.356L206.034 200.728ZM188.254 196.611C188.691 196.652 189.315 196.729 190.063 196.812C190.811 196.899 191.687 196.977 192.613 197.15C193.078 197.226 193.558 197.305 194.045 197.385C194.533 197.463 195.029 197.544 195.517 197.661C196.497 197.88 197.484 198.07 198.396 198.302C199.305 198.547 200.153 198.777 200.88 198.973C201.606 199.173 202.196 199.391 202.616 199.519C203.034 199.654 203.273 199.732 203.273 199.732L203.059 200.37C203.059 200.37 202.823 200.294 202.41 200.159C201.994 200.032 201.41 199.817 200.692 199.619C199.972 199.425 199.133 199.198 198.233 198.954C197.331 198.726 196.355 198.538 195.385 198.32C194.901 198.205 194.411 198.124 193.927 198.048C193.445 197.969 192.97 197.89 192.51 197.815C191.594 197.644 190.727 197.566 189.987 197.48C189.246 197.399 188.629 197.322 188.196 197.282C187.762 197.255 187.514 197.24 187.514 197.24L187.566 196.569C187.566 196.569 187.816 196.584 188.254 196.611ZM183.408 196.392L183.399 197.065C183.399 197.065 182.805 197.059 182.211 197.051C181.913 197.045 181.617 197.045 181.394 197.059L181.023 197.074L181.006 196.401C181.006 196.401 181.157 196.394 181.381 196.386C181.606 196.372 181.906 196.372 182.206 196.378C182.807 196.385 183.408 196.392 183.408 196.392Z" fill="#2ED9C3"/>
<path opacity="0.496" fill-rule="evenodd" clip-rule="evenodd" d="M230.859 261.012C230.859 325.011 134.859 325.011 134.859 261.012C134.859 197.011 230.859 197.011 230.859 261.012ZM247.223 262.012C247.32 222.188 214.269 197.138 181.708 197.655C180.475 196.404 179.166 195.183 177.79 194C173.269 194.301 168.78 194.999 164.398 196.103C162.648 197.861 161.045 199.678 159.584 201.541C153.944 203.511 148.581 206.226 143.705 209.688C141.61 209.544 139.467 209.506 137.292 209.59C126.892 218.301 119.081 230.599 116 246.48C116.93 248.603 117.943 250.672 119.027 252.673C118.676 255.662 118.494 258.776 118.494 262.012C118.494 271.716 120.138 280.326 123.059 287.835C122.688 290.535 122.475 293.278 122.428 296.041C125.84 302.503 130.22 308.054 135.297 312.689C137.869 313.229 140.419 313.586 142.929 313.776C162.392 328.051 189.906 330.198 211.787 320.208C214.368 321.411 217.079 322.473 219.909 323.375C233.422 315.785 244.431 303.615 249.906 286.868C248.81 283.248 247.468 279.755 245.911 276.423C246.77 271.924 247.21 267.12 247.223 262.012Z" stroke="#2ED9C3" stroke-width="0.893"/>
<path d="M182.387 206.135C152.375 206.135 127.957 230.554 127.957 260.565C127.957 290.577 152.375 314.995 182.387 314.995C212.398 314.995 236.817 290.577 236.817 260.565C236.817 230.554 212.398 206.135 182.387 206.135ZM182.387 315.952C151.847 315.952 127 291.106 127 260.565C127 230.026 151.847 205.181 182.387 205.181C212.926 205.181 237.773 230.026 237.773 260.565C237.773 291.106 212.926 315.952 182.387 315.952Z" fill="#2ED9C3"/>
<path style="mix-blend-mode:soft-light" d="M182.387 206.135C152.375 206.135 127.957 230.554 127.957 260.565C127.957 290.577 152.375 314.995 182.387 314.995C212.398 314.995 236.817 290.577 236.817 260.565C236.817 230.554 212.398 206.135 182.387 206.135ZM182.387 315.952C151.847 315.952 127 291.106 127 260.565C127 230.026 151.847 205.181 182.387 205.181C212.926 205.181 237.773 230.026 237.773 260.565C237.773 291.106 212.926 315.952 182.387 315.952Z" fill="url(#paint1_linear_2186_28729)" fill-opacity="0.8"/>
<path d="M182.1 396.9L153 369H5V766L38 801H330L360 769V369H213L182.1 396.9Z" fill="black" fill-opacity="0.2"/>
<path fill-rule="evenodd" clip-rule="evenodd" d="M173.4 799.4H38.1L7.3 768.5L6.6 769.2L5.3 767.9L5.1 745.8H6.6V740.2H5.1V736.4H6V727.8H6.9V713.6H6V465.6H6.9V459.8H6V447.8H5.1V433.1H6V427.5H6.6V416.9H6V411.3H5.1V384.7H6V369.8H20.9V368.9H33V370.2H36.4V368.9H141.5V369.5H153.3L182.1 396.9V394.9L154.1 367.7H141.5V368.3H36.4V367H33V368.3H20.9V367.4H3.6V384.7H4.5V411.3H3.6V416.9H3V427.5H3.6V433.1H4.5V447.8H3.6V459.8H3V465.6H3.6V713.6H3V727.8H3.6V736.4H4.5V740.2H3V745.8H4.5L4.6 768.1L6.2 769.7L5.5 770.4L37.1 802H192V799.4H173.4Z" fill="#2ED9C3"/>
<path fill-rule="evenodd" clip-rule="evenodd" d="M362.1 407.7V400.4H361.5V394.3H360.5V368.4H357.6V367.9H290.8V368.4H217.8V367.1H213.8V368.4C213.9 368.4 213.1 368.4 213.1 368.4L203.8 377.7L202.5 376.4L182 394.9V397L204.2 378.1L213.3 369H213.9V370.3H217.8V369H290.8V369.5H357.6V369H359.4V394.3H358.9V400.4H358.3V407.7H357.8V440.1H358.3V447.4H358.9V453.5H359.4V738.3H358.9V769.1L328.9 799.1H203.2V800.1H191.4C191.2 800.1 190.8 800.1 190.8 800.1V800.7H203.3V801.7H330L361.5 770.2V738.4H360.5V453.6H361.5V447.5H362.1V440.2H362.6V407.8H362.1V407.7Z" fill="#2ED9C3"/>
<defs>
<linearGradient id="paint0_linear_2186_28729" x1="359.074" y1="2115.88" x2="11073.7" y2="10330.5" gradientUnits="userSpaceOnUse">
<stop stop-color="#6487BE"/>
<stop offset="1" stop-color="#74C8BE"/>
</linearGradient>
<linearGradient id="paint1_linear_2186_28729" x1="10878.7" y1="9850.48" x2="1390.86" y2="1250.91" gradientUnits="userSpaceOnUse">
<stop stop-color="#504F4B"/>
<stop offset="0.51846" stop-color="#FFF7EA"/>
<stop offset="1" stop-color="#403F3D"/>
</linearGradient>
</defs>
</svg>
