<svg width="30" height="264" viewBox="0 0 30 264" fill="none" xmlns="http://www.w3.org/2000/svg">
<path fill-rule="evenodd" clip-rule="evenodd" d="M1.14996 4.16619C1.14996 2.50562 2.48283 1.15006 4.13857 1.15006H13.434H13.4409H13.4477H13.4545H13.4612H13.4679H13.4745H13.481H13.4875H13.4939H13.5003H13.5066H13.5128H13.519H13.5251H13.5311H13.5371H13.543H13.5489H13.5547H13.5605H13.5662H13.5718H13.5774H13.5829H13.5884H13.5938H13.5991H13.6044H13.6096H13.6148H13.6199H13.625H13.63H13.635H13.6399H13.6447H13.6495H13.6542H13.6589H13.6635H13.6681H13.6726H13.6771H13.6815H13.6859H13.6902H13.6944H13.6987H13.7028H13.7069H13.711H13.715H13.7189H13.7228H13.7267H13.7305H13.7342H13.7379H13.7416H13.7452H13.7468H13.7468H13.7468H13.7468H13.7469H13.7469H13.7469H13.747H13.747H13.7471H13.7472H13.7473H13.7473H13.7474H13.7475H13.7476H13.7477H13.7478H13.7479H13.7481H13.7481H13.7484H13.7484H13.7487H13.7487H13.749H13.749H13.7493H13.7493H13.7496H13.7497H13.75H13.7501H13.7504H13.7506H13.7508H13.7511H13.7512H13.7516H13.7516H13.7521H13.7521H13.7522H13.7526H13.7526H13.7531H13.7532H13.7536H13.7538H13.7541H13.7545H13.7547H13.7552H13.7552H13.7557H13.7558H13.7559H13.7564H13.7566H13.7571H13.7574H13.7577H13.7582H13.7583H13.759H13.759H13.7591H13.7597H13.7599H13.7604H13.7608H13.7611H13.7617H13.7619H13.7625H13.7626H13.7626H13.7634H13.7636H13.7641H13.7647H13.7649H13.7657H13.7657H13.7658H13.7665H13.7668H13.7674H13.7679H13.7682H13.7691H13.7691H13.7691H13.7699H13.7703H13.7708H13.7715H13.7717H13.7723H13.7726H13.7728H13.7735H13.7741H13.7745H13.7754H13.7754H13.7754H13.7764H13.7768H13.7773H13.7782H13.7783H13.7786H13.7793H13.7796H13.7803H13.7811H13.7813H13.7817H13.7823H13.7826H13.7833H13.7842H13.7843H13.7847H13.7854H13.7857H13.7864H13.7874H13.7875H13.7877H13.7885H13.789H13.7896H13.7906H13.7907H13.7907H13.7918H13.7925H13.7929H13.7935H13.794H13.7942H13.7951H13.7961H13.7962H13.7964H13.7973H13.7979H13.7984H13.7992H13.7996H13.7998H13.8007H13.8017H13.8018H13.802H13.803H13.8037H13.8041H13.8047H13.8053H13.8057H13.8064H13.8074H13.8076H13.8078H13.8087H13.8098H13.8099H13.81H13.8111H13.812H13.8123H13.8126H13.8134H13.8141H13.8146H13.8151H13.8158H13.8164H13.817H13.8176H13.8181H13.8186H13.8193H13.8201H13.8205H13.8209H13.8217H13.8225H13.8229H13.8232H13.8241H13.8249H13.8253H13.8256H13.8264H13.8272H13.8276H13.828H13.8288H13.8295H13.83H13.8305H13.8312H13.8318H13.8324H13.833H13.8335H13.834H13.8347H13.8355H13.8359H13.8362H13.8371H13.8381H13.8382H13.8383H13.8394H13.8404H13.8406H13.8408H13.8417H13.8424H13.8429H13.8435H13.844H13.8444H13.8452H13.8462H13.8463H13.8464H13.8475H13.8483H13.8486H13.8489H13.8497H13.8502H13.8508H13.8518H13.852H13.8521H13.8531H13.8539H13.8542H13.8546H13.8553H13.8557H13.8564H13.8574H13.8574H13.8575H13.8585H13.8591H13.8596H13.8605H13.8607H13.8608H13.8617H13.8624H13.8628H13.8634H13.8638H13.864H13.8648H13.8655H13.8658H13.8665H13.8669H13.867H13.8679H13.8685H13.8689H13.8696H13.8698H13.87H13.8708H13.8714H13.8718H13.8727H13.8727H13.8727H13.8737H13.8741H13.8746H13.8754H13.8755H13.8759H13.8764H13.8766H13.8773H13.8779H13.8782H13.879H13.8791H13.8791H13.8799H13.8802H13.8808H13.8813H13.8816H13.8824H13.8824H13.8824H13.8832H13.8835H13.884H13.8845H13.8848H13.8855H13.8855H13.8857H13.8863H13.8865H13.887H13.8874H13.8877H13.8883H13.8884H13.889H13.8891H13.8891H13.8898H13.89H13.8904H13.8908H13.8911H13.8915H13.8917H13.8923H13.8923H13.8924H13.8929H13.893H13.8935H13.8937H13.894H13.8943H13.8945H13.8949H13.8951H13.8955H13.8956H13.8959H13.896H13.8961H13.8965H13.8966H13.8969H13.8971H13.8974H13.8976H13.8978H13.898H13.8981H13.8984H13.8985H13.8988H13.8988H13.8991H13.8992H13.8994H13.8995H13.8997H13.8998H13.9H13.9H13.9002H13.9003H13.9005H13.9005H13.9006H13.9007H13.9008H13.9009H13.901H13.901H13.9011H13.9011H13.9012H13.9012H13.9013H13.9013H13.9013H13.9013H13.9014H13.903H13.9066H13.9102H13.9139H13.9177H13.9215H13.9253H13.9292H13.9332H13.9372H13.9412H13.9453H13.9495H13.9537H13.9579H13.9623H13.9666H13.971H13.9755H13.98H13.9846H13.9892H13.9939H13.9986H14.0034H14.0083H14.0132H14.0181H14.0231H14.0282H14.0333H14.0385H14.0437H14.049H14.0544H14.0598H14.0652H14.0708H14.0763H14.082H14.0877H14.0934H14.0992H14.1051H14.111H14.117H14.1231H14.1292H14.1353H14.1416H14.1479H14.1542H14.1606H14.1671H14.1736H14.1802H14.1869H14.1936H14.2004H14.2072H14.2142V1.15767C14.2785 1.15263 14.3436 1.15006 14.4092 1.15006C15.7589 1.15006 16.8596 2.23684 16.8596 3.58554V4.51773V11.7433H15.8596V4.51773V3.58554C15.8596 2.79637 15.2139 2.15006 14.4092 2.15006C13.6053 2.15006 12.9601 2.79505 12.9588 3.58313L12.9768 5.32229L12.982 5.82748H12.4768H1.64996H1.14996V5.32748V4.16619ZM12.4293 2.15006H4.13857C3.04546 2.15006 2.14996 3.04751 2.14996 4.16619V4.82748H11.9716L11.9588 3.59073L11.9587 3.58554H11.9588C11.9588 3.04804 12.1336 2.55215 12.4293 2.15006ZM3.51486 16.0372V5.86511H4.51486V16.0372C4.51486 16.9332 5.24793 17.6662 6.16034 17.6662H12.2306V18.6662H6.16034C4.70291 18.6662 3.51486 17.4928 3.51486 16.0372Z" fill="white"/>
<path d="M6.65322 9.65H13.4532" stroke="white" stroke-linecap="round" stroke-linejoin="bevel"/>
<path d="M6.65356 13.1612H10.1536" stroke="white" stroke-linecap="round" stroke-linejoin="bevel"/>
<circle cx="16.5046" cy="16.5049" r="4.5" stroke="white"/>
<line x1="14.5049" y1="16.5049" x2="18.5049" y2="16.5049" stroke="white" stroke-linecap="round"/>
<line x1="16.5049" y1="14.5049" x2="16.5049" y2="18.5049" stroke="white" stroke-linecap="round"/>
<path fill-rule="evenodd" clip-rule="evenodd" d="M1.1499 37.166C1.1499 35.5055 2.48278 34.1499 4.13851 34.1499H13.4339H13.4408H13.4477H13.4545H13.4612H13.4679H13.4745H13.481H13.4875H13.4939H13.5002H13.5065H13.5127H13.5189H13.525H13.5311H13.5371H13.543H13.5489H13.5547H13.5604H13.5661H13.5717H13.5773H13.5828H13.5883H13.5937H13.5991H13.6043H13.6096H13.6148H13.6199H13.6249H13.6299H13.6349H13.6398H13.6446H13.6494H13.6542H13.6589H13.6635H13.6681H13.6726H13.677H13.6815H13.6858H13.6901H13.6944H13.6986H13.7028H13.7069H13.7109H13.7149H13.7189H13.7228H13.7266H13.7304H13.7342H13.7379H13.7415H13.7451H13.7467H13.7467H13.7468H13.7468H13.7468H13.7468H13.7469H13.7469H13.747H13.7471H13.7471H13.7472H13.7473H13.7474H13.7474H13.7476H13.7476H13.7478H13.7478H13.748H13.7481H13.7483H13.7483H13.7486H13.7487H13.7489H13.7489H13.7492H13.7493H13.7496H13.7497H13.7499H13.7501H13.7503H13.7505H13.7507H13.751H13.7511H13.7515H13.7516H13.752H13.752H13.7522H13.7525H13.7526H13.753H13.7532H13.7535H13.7538H13.7541H13.7544H13.7546H13.7551H13.7552H13.7556H13.7558H13.7558H13.7564H13.7565H13.757H13.7573H13.7576H13.7581H13.7583H13.7589H13.759H13.7591H13.7596H13.7598H13.7604H13.7607H13.7611H13.7616H13.7618H13.7624H13.7625H13.7626H13.7633H13.7636H13.7641H13.7646H13.7649H13.7657H13.7657H13.7657H13.7665H13.7668H13.7673H13.7679H13.7682H13.769H13.769H13.769H13.7699H13.7702H13.7708H13.7715H13.7717H13.7722H13.7726H13.7727H13.7735H13.774H13.7744H13.7753H13.7754H13.7754H13.7763H13.7767H13.7773H13.7781H13.7782H13.7785H13.7792H13.7796H13.7802H13.781H13.7812H13.7816H13.7822H13.7826H13.7833H13.7841H13.7843H13.7846H13.7853H13.7857H13.7864H13.7873H13.7874H13.7876H13.7885H13.789H13.7896H13.7906H13.7906H13.7907H13.7917H13.7924H13.7928H13.7935H13.7939H13.7942H13.795H13.796H13.7961H13.7963H13.7972H13.7978H13.7984H13.7991H13.7995H13.7997H13.8006H13.8017H13.8018H13.8019H13.8029H13.8036H13.8041H13.8046H13.8052H13.8056H13.8064H13.8073H13.8075H13.8077H13.8087H13.8098H13.8099H13.8099H13.811H13.8119H13.8122H13.8125H13.8134H13.8141H13.8145H13.8151H13.8157H13.8163H13.8169H13.8176H13.8181H13.8186H13.8193H13.8201H13.8205H13.8208H13.8216H13.8225H13.8228H13.8232H13.824H13.8248H13.8252H13.8256H13.8264H13.8272H13.8276H13.828H13.8288H13.8295H13.8299H13.8304H13.8311H13.8317H13.8323H13.8329H13.8335H13.8339H13.8347H13.8355H13.8358H13.8361H13.837H13.8381H13.8382H13.8382H13.8393H13.8403H13.8405H13.8407H13.8417H13.8424H13.8428H13.8434H13.844H13.8444H13.8451H13.8461H13.8463H13.8464H13.8474H13.8483H13.8485H13.8489H13.8497H13.8502H13.8508H13.8517H13.8519H13.852H13.853H13.8538H13.8541H13.8546H13.8552H13.8556H13.8563H13.8574H13.8574H13.8575H13.8585H13.8591H13.8595H13.8604H13.8606H13.8607H13.8617H13.8623H13.8627H13.8634H13.8637H13.8639H13.8648H13.8655H13.8658H13.8664H13.8668H13.867H13.8678H13.8685H13.8688H13.8695H13.8698H13.8699H13.8708H13.8713H13.8717H13.8726H13.8727H13.8727H13.8736H13.874H13.8745H13.8753H13.8755H13.8758H13.8764H13.8766H13.8773H13.8778H13.8781H13.879H13.879H13.879H13.8799H13.8802H13.8807H13.8813H13.8815H13.8823H13.8824H13.8824H13.8832H13.8834H13.8839H13.8845H13.8847H13.8854H13.8855H13.8856H13.8862H13.8864H13.887H13.8873H13.8877H13.8882H13.8884H13.889H13.8891H13.8891H13.8897H13.8899H13.8904H13.8907H13.891H13.8915H13.8916H13.8922H13.8923H13.8924H13.8928H13.8929H13.8934H13.8936H13.894H13.8942H13.8945H13.8949H13.895H13.8954H13.8955H13.8958H13.896H13.896H13.8964H13.8965H13.8969H13.897H13.8973H13.8975H13.8977H13.8979H13.8981H13.8983H13.8985H13.8987H13.8988H13.8991H13.8991H13.8994H13.8994H13.8997H13.8997H13.9H13.9H13.9002H13.9002H13.9004H13.9005H13.9006H13.9007H13.9008H13.9008H13.9009H13.901H13.901H13.9011H13.9011H13.9012H13.9012H13.9012H13.9013H13.9013H13.9013H13.9029H13.9065H13.9102H13.9139H13.9176H13.9214H13.9253H13.9292H13.9331H13.9371H13.9412H13.9453H13.9494H13.9536H13.9579H13.9622H13.9666H13.971H13.9754H13.98H13.9845H13.9892H13.9939H13.9986H14.0034H14.0082H14.0131H14.0181H14.0231H14.0282H14.0333H14.0385H14.0437H14.049H14.0543H14.0597H14.0652H14.0707H14.0763H14.0819H14.0876H14.0934H14.0992H14.105H14.111H14.117H14.123H14.1291H14.1353H14.1415H14.1478H14.1542H14.1606H14.167H14.1736H14.1802H14.1868H14.1936H14.2003H14.2072H14.2141V34.1575C14.2785 34.1525 14.3435 34.1499 14.4091 34.1499C15.7588 34.1499 16.8596 35.2367 16.8596 36.5854V37.5176V44.7431H15.8596V37.5176V36.5854C15.8596 35.7962 15.2138 35.1499 14.4091 35.1499C13.6053 35.1499 12.96 35.7949 12.9587 36.583L12.9767 38.3221L12.982 38.8273H12.4768H1.6499H1.1499V38.3273V37.166ZM12.4293 35.1499H4.13851C3.0454 35.1499 2.1499 36.0474 2.1499 37.166V37.8273H11.9716L11.9587 36.5906L11.9587 36.5854H11.9587C11.9587 36.0479 12.1335 35.552 12.4293 35.1499ZM3.5148 49.037V38.865H4.5148V49.037C4.5148 49.9331 5.24788 50.666 6.16028 50.666H12.2305V51.666H6.16028C4.70286 51.666 3.5148 50.4926 3.5148 49.037Z" fill="#32C5FF"/>
<path d="M6.65322 42.65H13.4532" stroke="#32C5FF" stroke-linecap="round" stroke-linejoin="bevel"/>
<path d="M6.65356 46.1612H10.1536" stroke="#32C5FF" stroke-linecap="round" stroke-linejoin="bevel"/>
<circle cx="16.5046" cy="49.5049" r="4.5" stroke="#32C5FF"/>
<line x1="14.5049" y1="49.5049" x2="18.5049" y2="49.5049" stroke="#32C5FF" stroke-linecap="round"/>
<line x1="16.5049" y1="47.5049" x2="16.5049" y2="51.5049" stroke="#32C5FF" stroke-linecap="round"/>
<rect x="2.5" y="136.5" width="17" height="15" rx="1.5" stroke="white"/>
<path d="M6.81543 141.626C7.25977 141.626 7.62598 141.26 7.62598 140.811C7.62598 140.366 7.25977 140 6.81543 140C6.36621 140 6 140.366 6 140.811C6 141.26 6.36621 141.626 6.81543 141.626ZM9.32031 141.401H15.8877C16.2148 141.401 16.4736 141.143 16.4736 140.811C16.4736 140.483 16.2197 140.225 15.8877 140.225H9.32031C8.99316 140.225 8.72949 140.483 8.72949 140.811C8.72949 141.138 8.98828 141.401 9.32031 141.401ZM6.81543 144.707C7.25977 144.707 7.62598 144.341 7.62598 143.892C7.62598 143.442 7.25977 143.076 6.81543 143.076C6.36621 143.076 6 143.442 6 143.892C6 144.341 6.36621 144.707 6.81543 144.707ZM9.32031 144.478H15.8877C16.2148 144.478 16.4736 144.224 16.4736 143.892C16.4736 143.564 16.2197 143.306 15.8877 143.306H9.32031C8.99316 143.306 8.72949 143.564 8.72949 143.892C8.72949 144.219 8.98828 144.478 9.32031 144.478ZM6.81543 147.788C7.25977 147.788 7.62598 147.422 7.62598 146.973C7.62598 146.523 7.25977 146.157 6.81543 146.157C6.36621 146.157 6 146.523 6 146.973C6 147.422 6.36621 147.788 6.81543 147.788ZM9.32031 147.559H15.8877C16.2148 147.559 16.4736 147.3 16.4736 146.973C16.4736 146.646 16.2197 146.387 15.8877 146.387H9.32031C8.99316 146.387 8.72949 146.641 8.72949 146.973C8.72949 147.3 8.98828 147.559 9.32031 147.559Z" fill="white"/>
<rect x="2.5" y="169.5" width="17" height="15" rx="1.5" stroke="#32C5FF"/>
<path d="M6.81543 174.626C7.25977 174.626 7.62598 174.26 7.62598 173.811C7.62598 173.366 7.25977 173 6.81543 173C6.36621 173 6 173.366 6 173.811C6 174.26 6.36621 174.626 6.81543 174.626ZM9.32031 174.401H15.8877C16.2148 174.401 16.4736 174.143 16.4736 173.811C16.4736 173.483 16.2197 173.225 15.8877 173.225H9.32031C8.99316 173.225 8.72949 173.483 8.72949 173.811C8.72949 174.138 8.98828 174.401 9.32031 174.401ZM6.81543 177.707C7.25977 177.707 7.62598 177.341 7.62598 176.892C7.62598 176.442 7.25977 176.076 6.81543 176.076C6.36621 176.076 6 176.442 6 176.892C6 177.341 6.36621 177.707 6.81543 177.707ZM9.32031 177.478H15.8877C16.2148 177.478 16.4736 177.224 16.4736 176.892C16.4736 176.564 16.2197 176.306 15.8877 176.306H9.32031C8.99316 176.306 8.72949 176.564 8.72949 176.892C8.72949 177.219 8.98828 177.478 9.32031 177.478ZM6.81543 180.788C7.25977 180.788 7.62598 180.422 7.62598 179.973C7.62598 179.523 7.25977 179.157 6.81543 179.157C6.36621 179.157 6 179.523 6 179.973C6 180.422 6.36621 180.788 6.81543 180.788ZM9.32031 180.559H15.8877C16.2148 180.559 16.4736 180.3 16.4736 179.973C16.4736 179.646 16.2197 179.387 15.8877 179.387H9.32031C8.99316 179.387 8.72949 179.641 8.72949 179.973C8.72949 180.3 8.98828 180.559 9.32031 180.559Z" fill="#32C5FF"/>
<rect x="1.5" y="204.5" width="19" height="11" rx="5.5" stroke="white"/>
<circle cx="15" cy="210" r="3" fill="white"/>
<rect x="1.5" y="237.5" width="19" height="11" rx="5.5" stroke="#32C5FF"/>
<circle cx="15" cy="243" r="3" fill="#32C5FF"/>
<rect x="12.5" y="70.5" width="6" height="6" rx="0.5" stroke="white"/>
<rect x="12.5" y="79.5" width="6" height="6" rx="0.5" stroke="white"/>
<rect x="3.5" y="79.5" width="6" height="6" rx="0.5" stroke="white"/>
<line x1="3.5" y1="73.5" x2="9.5" y2="73.5" stroke="white" stroke-linecap="round"/>
<line x1="6.5" y1="70.5" x2="6.5" y2="76.5" stroke="white" stroke-linecap="round"/>
<rect x="12.5" y="103.5" width="6" height="6" rx="0.5" stroke="#32C5FF"/>
<rect x="12.5" y="112.5" width="6" height="6" rx="0.5" stroke="#32C5FF"/>
<rect x="3.5" y="112.5" width="6" height="6" rx="0.5" stroke="#32C5FF"/>
<line x1="3.5" y1="106.5" x2="9.5" y2="106.5" stroke="#32C5FF" stroke-linecap="round"/>
<line x1="6.5" y1="103.5" x2="6.5" y2="109.5" stroke="#32C5FF" stroke-linecap="round"/>
</svg>
