<svg width="146" height="145" viewBox="0 0 146 145" fill="none" xmlns="http://www.w3.org/2000/svg">
<path fill-rule="evenodd" clip-rule="evenodd" d="M38.55 49.5748C38.55 43.5093 43.4199 38.5498 49.4791 38.5498H81.8968H81.9209H81.9448H81.9685H81.9919H82.0152H82.0382H82.061H82.0835H82.1059H82.128H82.15H82.1717H82.1932H82.2145H82.2356H82.2565H82.2772H82.2976H82.3179H82.338H82.3578H82.3775H82.3969H82.4162H82.4352H82.4541H82.4727H82.4912H82.5094H82.5275H82.5453H82.563H82.5805H82.5977H82.6148H82.6317H82.6484H82.665H82.6813H82.6974H82.7134H82.7291H82.7447H82.7601H82.7753H82.7904H82.8052H82.8199H82.8344H82.8487H82.8628H82.8768H82.8905H82.9041H82.9176H82.9308H82.9439H82.9568H82.9696H82.9821H82.9877H82.9878H82.9878H82.9879H82.988H82.9882H82.9883H82.9885H82.9887H82.9889H82.9891H82.9894H82.9896H82.99H82.9902H82.9907H82.9909H82.9914H82.9916H82.9923H82.9924H82.9932H82.9933H82.9943H82.9945H82.9954H82.9954H82.9965H82.9967H82.9977H82.998H82.9989H82.9995H83.0003H83.001H83.0017H83.0026H83.0031H83.0044H83.0047H83.0062H83.0063H83.0068H83.0079H83.0081H83.0097H83.0102H83.0115H83.0123H83.0133H83.0146H83.0153H83.0169H83.0173H83.0188H83.0193H83.0194H83.0214H83.022H83.0236H83.0246H83.0258H83.0274H83.0281H83.0303H83.0304H83.0307H83.0328H83.0333H83.0352H83.0365H83.0377H83.0397H83.0403H83.0424H83.0429H83.043H83.0455H83.0465H83.0483H83.0501H83.051H83.0538H83.0538H83.054H83.0567H83.0576H83.0596H83.0615H83.0625H83.0654H83.0655H83.0655H83.0685H83.0697H83.0716H83.074H83.0747H83.0766H83.0779H83.0784H83.0811H83.0829H83.0843H83.0875H83.0876H83.0877H83.0909H83.0923H83.0943H83.0972H83.0977H83.0986H83.1011H83.1022H83.1045H83.1074H83.108H83.1094H83.1116H83.1127H83.1151H83.1181H83.1187H83.1199H83.1223H83.1236H83.126H83.1293H83.1297H83.1304H83.1334H83.1351H83.1371H83.1407H83.1409H83.141H83.1446H83.147H83.1484H83.1508H83.1523H83.1532H83.1561H83.1595H83.16H83.1607H83.1639H83.166H83.1678H83.1705H83.1718H83.1726H83.1757H83.1793H83.1797H83.1802H83.1837H83.1862H83.1877H83.1897H83.1917H83.1932H83.1957H83.199H83.1998H83.2004H83.2038H83.2076H83.2079H83.2082H83.212H83.2151H83.2161H83.2172H83.2202H83.2226H83.2243H83.2261H83.2284H83.2304H83.2325H83.2349H83.2366H83.2382H83.2407H83.2434H83.2449H83.2462H83.249H83.2519H83.2531H83.2544H83.2573H83.2602H83.2614H83.2627H83.2655H83.2683H83.2697H83.2711H83.2738H83.2763H83.2779H83.2797H83.282H83.2842H83.2862H83.2884H83.2903H83.2919H83.2944H83.2973H83.2985H83.2995H83.3026H83.3063H83.3066H83.3069H83.3107H83.3142H83.3148H83.3155H83.3188H83.3213H83.3228H83.3249H83.3269H83.3283H83.3309H83.3344H83.3349H83.3352H83.3388H83.3419H83.3428H83.344H83.3467H83.3485H83.3506H83.3538H83.3545H83.355H83.3584H83.3613H83.3623H83.3638H83.3661H83.3675H83.3699H83.3736H83.3737H83.3739H83.3774H83.3795H83.3812H83.3842H83.3849H83.3853H83.3886H83.3909H83.3922H83.3946H83.3958H83.3965H83.3994H83.4019H83.403H83.4052H83.4065H83.4071H83.41H83.4123H83.4135H83.4159H83.4169H83.4173H83.4203H83.4222H83.4236H83.4268H83.4269H83.427H83.4302H83.4316H83.4335H83.4362H83.4367H83.4379H83.4398H83.4406H83.4429H83.4448H83.446H83.449H83.449H83.4491H83.452H83.4531H83.455H83.457H83.4579H83.4605H83.4607H83.4608H83.4635H83.4645H83.4663H83.468H83.469H83.4715H83.4716H83.4721H83.4742H83.4748H83.4768H83.4781H83.4793H83.4812H83.4817H83.4838H83.4841H83.4842H83.4865H83.4871H83.4887H83.4899H83.491H83.4926H83.4931H83.4951H83.4952H83.4957H83.4973H83.4976H83.4993H83.5H83.5012H83.5022H83.5031H83.5044H83.5049H83.5064H83.5066H83.5078H83.5083H83.5083H83.5099H83.5102H83.5114H83.5119H83.5129H83.5135H83.5143H83.5151H83.5156H83.5165H83.5169H83.5179H83.5181H83.5191H83.5192H83.52H83.5202H83.5212H83.5213H83.5221H83.5223H83.5229H83.5231H83.5237H83.5239H83.5243H83.5246H83.5249H83.5252H83.5254H83.5257H83.5259H83.5261H83.5262H83.5264H83.5265H83.5266H83.5267H83.5268H83.5268H83.5324H83.545H83.5577H83.5706H83.5837H83.597H83.6104H83.624H83.6378H83.6517H83.6659H83.6802H83.6947H83.7093H83.7242H83.7392H83.7544H83.7698H83.7854H83.8012H83.8171H83.8333H83.8496H83.8661H83.8828H83.8997H83.9168H83.9341H83.9515H83.9692H83.9871H84.0051H84.0234H84.0418H84.0605H84.0793H84.0984H84.1176H84.1371H84.1567H84.1766H84.1966H84.2169H84.2374H84.258H84.2789H84.3H84.3213H84.3428H84.3646H84.3865H84.4086H84.431H84.4536H84.4764H84.4994H84.5226H84.546H84.5697H84.5936H84.6177V38.5749C84.8423 38.5583 85.0691 38.5498 85.2979 38.5498C90.2809 38.5498 94.35 42.563 94.35 47.5498V50.8008V75.9998H89.85V50.8008V47.5498C89.85 45.0808 87.8283 43.0498 85.2979 43.0498C82.771 43.0498 80.7514 45.0751 80.7458 47.5394L80.8086 53.6015L80.8322 55.8748H78.5588H51.2976V90.9748C51.2976 93.8166 53.6239 96.1498 56.53 96.1498H77.7001V100.65H56.53C51.1713 100.65 46.7976 96.3344 46.7976 90.9748V55.8748H40.8H38.55V53.6248V49.5748ZM77.4561 43.0498H49.4791C45.9517 43.0498 43.05 45.9478 43.05 49.5748V51.3748H76.2853L76.2459 47.5731L76.2458 47.5615V47.5498C76.2458 45.9081 76.6867 44.372 77.4561 43.0498Z" fill="white"/>
<path d="M58.2497 63.6598H82.0303" stroke="white" stroke-width="4.5" stroke-linecap="round" stroke-linejoin="bevel"/>
<path d="M58.2497 73.5597H82.0303" stroke="white" stroke-width="4.5" stroke-linecap="round" stroke-linejoin="bevel"/>
<path d="M58.2498 84.3597H70.5" stroke="white" stroke-width="4.5" stroke-linecap="round" stroke-linejoin="bevel"/>
<path d="M91.5825 95.5L98.4225 98.92" stroke="white" stroke-width="4.275" stroke-linecap="round"/>
<path d="M91.5825 95.2046V86.2271" stroke="white" stroke-width="4.275" stroke-linecap="round"/>
<circle cx="93.0001" cy="92.9997" r="15.3" stroke="white" stroke-width="4.5"/>
<circle cx="73.2" cy="73.2" r="61.2" stroke="white" stroke-width="4.5"/>
</svg>
