<svg xmlns="http://www.w3.org/2000/svg" width="21.001" height="21" viewBox="0 0 21.001 21"><g transform="translate(-338.367 -116.185)"><path d="M-5790.633-721.815a10.5,10.5,0,0,1,10.5-10.5,10.5,10.5,0,0,1,10.5,10.5,10.5,10.5,0,0,1-10.5,10.5A10.5,10.5,0,0,1-5790.633-721.815Zm1,0a9.512,9.512,0,0,0,9.5,9.5,9.511,9.511,0,0,0,9.5-9.5,9.51,9.51,0,0,0-9.5-9.5A9.511,9.511,0,0,0-5789.633-721.815Zm4.017,2.668,3.033-1.75v1.067h5.425a.684.684,0,0,1,.685.683.685.685,0,0,1-.685.684h-5.425v1.067Zm8.248-4.5h-5.428a.683.683,0,0,1-.683-.683.683.683,0,0,1,.683-.684h5.428v-1.067l3.031,1.751-3.031,1.751Z" transform="translate(6129 848.5)" fill="#fc0"/></g></svg>