<svg xmlns="http://www.w3.org/2000/svg" width="21" height="21" viewBox="0 0 21 21"><g transform="translate(-338.367 -116.184)"><path d="M-5783.633-1907.77a10.5,10.5,0,0,1,10.5-10.5,10.5,10.5,0,0,1,10.5,10.5,10.5,10.5,0,0,1-10.5,10.5A10.5,10.5,0,0,1-5783.633-1907.77Zm1,0a9.511,9.511,0,0,0,9.5,9.5,9.511,9.511,0,0,0,9.5-9.5,9.511,9.511,0,0,0-9.5-9.5A9.511,9.511,0,0,0-5782.633-1907.77Zm4.017,2.669,3.032-1.75v1.067h5.427a.683.683,0,0,1,.683.684.682.682,0,0,1-.683.684h-5.427v1.068Zm8.247-4.5h-5.427a.683.683,0,0,1-.684-.684.683.683,0,0,1,.684-.684h5.427v-1.067l3.032,1.75-3.032,1.751Z" transform="translate(6122 2034.453)" fill="#8fdfff"/></g></svg>