<svg xmlns="http://www.w3.org/2000/svg" xmlns:xlink="http://www.w3.org/1999/xlink" width="24" height="24" viewBox="0 0 24 24">
  <defs>
    <linearGradient id="icon_game-boost-b" x1="90.18%" x2="12.65%" y1="30.259%" y2="61.525%">
      <stop offset="0%" stop-color="#C07D00"/>
      <stop offset="53.654%" stop-color="#FFDE98"/>
      <stop offset="100%" stop-color="#C07D00"/>
    </linearGradient>
    <path id="icon_game-boost-a" d="M21.8975741,3 L21.8975741,3.01315309 L23.6361186,3.03945926 C23.6361186,3.03945926 23.7708895,3.05261235 23.8382749,3.17099014 C23.9123989,3.28936792 24,3.54585312 24,3.54585312 L24,3.54585312 L23.703504,14.5615638 L24,20.4344172 C24,20.4344172 23.8989218,20.9145049 23.6428571,20.9539642 C23.4609164,20.9868469 22.3760108,20.9934235 21.6819407,21 L21.6819407,21 L21.2641509,21 C20.7048518,20.9934235 19.5188679,20.9802704 19.3369272,20.9539642 C19.0808625,20.9079284 19,20.4344172 19,20.4344172 L19,20.4344172 L19.3234501,14.5615638 L19.0269542,3.54585312 C19.0269542,3.54585312 19.1212938,3.28936792 19.1886792,3.17099014 C19.2560647,3.05261235 19.3908356,3.03945926 19.3908356,3.03945926 L19.3908356,3.03945926 L21.1293801,3.01315309 L21.1293801,3 L21.5134771,3.00657654 L21.8975741,3 Z M3.60413517,7 C3.91088406,7 4.16309982,7.05170154 4.34714916,7.09694039 C4.41531558,7.11632847 4.58573163,7.22619424 4.66753134,7.32959732 L4.66753134,7.32959732 L5.35601219,8.15035928 C5.58777802,8.42179237 6.00359319,8.61567315 6.37169187,8.61567315 L6.37169187,8.61567315 L11.6273229,8.61567315 C11.9954216,8.61567315 12.4112368,8.42825506 12.6430026,8.15035928 L12.6430026,8.15035928 L13.3246668,7.32959732 C13.4132832,7.22619424 13.5836992,7.11632847 13.645049,7.09694039 C14.1222139,6.97414923 15.0697272,6.86428346 16.1126734,7.5234781 C16.2217397,7.59456772 16.4057891,7.76906042 16.4807721,7.87892619 C16.9170372,8.52519545 17.9395335,10.3476748 17.9940667,13.3205133 C18.0690497,17.4307858 17.4282854,17.8314728 16.3580726,17.9930401 C15.3560262,18.1352193 14.2040137,16.060695 13.7677486,15.2787092 L13.7677486,15.2787092 L13.6995821,15.155918 C13.5700659,14.9167984 13.2974003,14.5936638 13.0179179,14.4385592 C12.4248701,14.1089618 11.2660409,13.7147376 9.11879864,13.6888868 L9.11879864,13.6888868 L8.88021616,13.6888868 C6.7329739,13.7212003 5.57414474,14.1089618 4.98109688,14.4385592 C4.70161455,14.5936638 4.42894887,14.9167984 4.29943266,15.155918 L4.29943266,15.155918 L4.23126624,15.2787092 C3.79500115,16.060695 2.63617199,18.1352193 1.64094224,17.9930401 C0.577546072,17.8314728 -0.0632182861,17.4307858 0.004948135,13.3205133 C0.0594812719,10.3476748 1.08197759,8.52519545 1.51824268,7.87892619 C1.59322575,7.76259772 1.77727508,7.58810502 1.88634136,7.51701541 C2.52028907,7.11632847 3.12015358,7 3.60413517,7 Z M21.5067385,13.6540007 C20.9946092,13.6540007 20.5768194,14.0617464 20.5768194,14.5615638 C20.5768194,15.0613811 20.9946092,15.4691268 21.5067385,15.4691268 C22.0188679,15.4691268 22.4366577,15.0613811 22.4366577,14.5615638 C22.4366577,14.0617464 22.0188679,13.6540007 21.5067385,13.6540007 Z M14.5448458,11.7888552 C14.197197,11.7888552 13.910898,12.0602883 13.910898,12.3898856 C13.910898,12.7194829 14.197197,12.990916 14.5448458,12.990916 C14.8924945,12.990916 15.1787935,12.7194829 15.1787935,12.3898856 C15.1787935,12.0602883 14.8924945,11.7888552 14.5448458,11.7888552 Z M3.61776845,10.1408686 L2.88838775,10.1408686 C2.82022133,10.1408686 2.75887155,10.1925701 2.75887155,10.2636598 L2.75887155,10.2636598 L2.75887155,10.9745559 L2.00904092,10.9745559 C1.94087449,10.9745559 1.87952471,11.0262575 1.87952471,11.0973471 L1.87952471,11.0973471 L1.87952471,11.7953179 C1.87952471,11.8599448 1.93405785,11.9181091 2.00904092,11.9181091 L2.00904092,11.9181091 L2.75887155,11.9181091 L2.75887155,12.6290052 C2.75887155,12.6936322 2.81340468,12.7517964 2.88838775,12.7517964 L2.88838775,12.7517964 L3.6245851,12.7517964 C3.69275152,12.7517964 3.7541013,12.7000949 3.7541013,12.6290052 L3.7541013,12.6290052 L3.7541013,11.9181091 L4.50393193,11.9181091 C4.57209835,11.9181091 4.63344813,11.8664075 4.63344813,11.7953179 L4.63344813,11.7953179 L4.62663149,11.7953179 L4.62663149,11.0973471 C4.62663149,11.0327202 4.57209835,10.9745559 4.49711529,10.9745559 L4.49711529,10.9745559 L3.74728465,10.9745559 L3.74728465,10.2636598 C3.74728465,10.1990328 3.69275152,10.1408686 3.61776845,10.1408686 L3.61776845,10.1408686 Z M13.5018995,10.8776155 C13.1542508,10.8776155 12.8679518,11.1490486 12.8679518,11.478646 C12.8679518,11.8082433 13.1542508,12.0796764 13.5018995,12.0796764 C13.8563649,12.0796764 14.1358472,11.8082433 14.1358472,11.478646 C14.1358472,11.1490486 13.8495483,10.8776155 13.5018995,10.8776155 Z M15.5809754,10.8776155 C15.2333266,10.8776155 14.9470276,11.1490486 14.9470276,11.478646 C14.9470276,11.8082433 15.2333266,12.0796764 15.5809754,12.0796764 C15.9354407,12.0796764 16.2217397,11.8082433 16.2149231,11.478646 C16.2149231,11.1490486 15.9286241,10.8776155 15.5809754,10.8776155 Z M14.5448458,9.94698782 C14.1903804,9.94698782 13.910898,10.2184209 13.910898,10.5480182 C13.910898,10.8776155 14.197197,11.1490486 14.5448458,11.1490486 C14.8924945,11.1490486 15.1787935,10.8776155 15.1787935,10.5480182 C15.1787935,10.2184209 14.8924945,9.94698782 14.5448458,9.94698782 Z"/>
  </defs>
  <g fill="none" fill-rule="evenodd">
    <use fill="#FFA83A" xlink:href="#icon_game-boost-a"/>
    <use fill="url(#icon_game-boost-b)" fill-opacity=".8" xlink:href="#icon_game-boost-a" style="mix-blend-mode:hard-light"/>
  </g>
</svg>
