<svg width="24" height="24" viewBox="0 0 24 24" fill="none" xmlns="http://www.w3.org/2000/svg">
<path d="M14.5 9L15.1431 9.38587C15.3202 9.09076 15.2737 8.71302 15.0303 8.46967L14.5 9ZM13 11.5L13.624 11.916L13.6339 11.9012L13.6431 11.8859L13 11.5ZM8.96967 8.46967L8.43934 9L9.5 10.0607L10.0303 9.53033L8.96967 8.46967ZM12 6.5L12.5303 5.96967C12.2374 5.67678 11.7626 5.67678 11.4697 5.96967L12 6.5ZM11.25 14V14.75H12.75V14H11.25ZM11.25 17V17.75H12.75V17H11.25ZM12.75 16.5V15.75H11.25V16.5H12.75ZM5.07846 5.43932L5.46063 6.08465L5.07846 5.43932ZM5.07846 18.5607L5.46063 17.9153L5.46063 17.9153L5.07846 18.5607ZM14.0785 21.4288L13.6963 20.7834L13.6963 20.7834L14.0785 21.4288ZM9.92154 21.4288L9.53937 22.0741L9.53937 22.0741L9.92154 21.4288ZM18.9215 18.5607L19.3037 19.206L19.3037 19.206L18.9215 18.5607ZM18.9215 5.43932L18.5394 6.08465L18.9215 5.43932ZM14.0785 2.57125L13.6963 3.21658L14.0785 2.57125ZM9.92154 2.57125L9.53937 1.92592L9.92154 2.57125ZM12.3359 12.4962L12.9599 12.9122L12.3359 12.4962ZM13.8569 8.61413L12.3569 11.1141L13.6431 11.8859L15.1431 9.38587L13.8569 8.61413ZM10.0303 9.53033L12.5303 7.03033L11.4697 5.96967L8.96967 8.46967L10.0303 9.53033ZM11.4697 7.03033L13.9697 9.53033L15.0303 8.46967L12.5303 5.96967L11.4697 7.03033ZM11.25 13.6056V14H12.75V13.6056H11.25ZM12.376 11.084L11.7119 12.0801L12.9599 12.9122L13.624 11.916L12.376 11.084ZM12.75 17V16.5H11.25V17H12.75ZM13.6963 3.21658L18.5394 6.08465L19.3037 4.79399L14.4606 1.92592L13.6963 3.21658ZM20.25 9.13192V14.8681H21.75V9.13192H20.25ZM18.5394 17.9153L13.6963 20.7834L14.4606 22.0741L19.3037 19.206L18.5394 17.9153ZM10.3037 20.7834L5.46063 17.9153L4.6963 19.206L9.53937 22.0741L10.3037 20.7834ZM3.75 14.8681V9.13192H2.25V14.8681H3.75ZM5.46063 6.08465L10.3037 3.21658L9.53937 1.92592L4.6963 4.79399L5.46063 6.08465ZM3.75 9.13192C3.75 7.86735 4.40779 6.70814 5.46063 6.08465L4.6963 4.79399C3.17682 5.69383 2.25 7.34985 2.25 9.13192H3.75ZM5.46063 17.9153C4.40779 17.2919 3.75 16.1327 3.75 14.8681H2.25C2.25 16.6502 3.17682 18.3062 4.6963 19.206L5.46063 17.9153ZM13.6963 20.7834C12.6458 21.4055 11.3542 21.4055 10.3037 20.7834L9.53937 22.0741C11.0612 22.9753 12.9388 22.9753 14.4606 22.0741L13.6963 20.7834ZM20.25 14.8681C20.25 16.1327 19.5922 17.2919 18.5394 17.9153L19.3037 19.206C20.8232 18.3062 21.75 16.6502 21.75 14.8681H20.25ZM18.5394 6.08465C19.5922 6.70814 20.25 7.86735 20.25 9.13192H21.75C21.75 7.34985 20.8232 5.69383 19.3037 4.79399L18.5394 6.08465ZM14.4606 1.92592C12.9388 1.02469 11.0612 1.02469 9.53937 1.92592L10.3037 3.21658C11.3542 2.59447 12.6458 2.59447 13.6963 3.21658L14.4606 1.92592ZM12.75 13.6056C12.75 13.3588 12.823 13.1175 12.9599 12.9122L11.7119 12.0801C11.4107 12.5319 11.25 13.0626 11.25 13.6056H12.75Z" fill="#898A8D"/>
</svg>
