<svg xmlns="http://www.w3.org/2000/svg" xmlns:xlink="http://www.w3.org/1999/xlink" width="16" height="16" viewBox="0 0 16 16">
  <defs>
    <linearGradient id="infected-b" x1="100%" x2="0%" y1="1.803%" y2="98.197%">
      <stop offset="0%" stop-color="#C07D00"/>
      <stop offset="53.654%" stop-color="#FFDE98"/>
      <stop offset="100%" stop-color="#C07D00"/>
    </linearGradient>
    <path id="infected-a" d="M3,11.7 C3.2,11.5 3.4,11.5 3.6,11.7 L3.6,11.7 L4.3,12.4 C4.5,12.6 4.5,12.8 4.3,13 L4.3,13 L3.8,13.3 C4.3,13.8 4.3,14.5 3.8,15 C3.4,15.5 2.6,15.4 2.2,15 C2,14.7 1.8,14.4 1.9,14 C1.5,14.1 1.2,14 0.8,13.6 C0.4,13.2 0.4,12.5 0.8,12 C1.3,11.5 2,11.5 2.5,12 L2.5,12 Z M12.4,11.6 C12.6,11.4 12.8,11.4 13,11.6 L13,11.6 L13.4,12.1 C13.9,11.6 14.6,11.6 15.1,12.1 C15.6,12.5 15.6,13.3 15,13.7 C14.7,13.9 14.4,14.1 14,14 C14.1,14.3 14,14.7 13.7,15 C13.3,15.4 12.6,15.4 12.1,15 C11.6,14.5 11.6,13.8 12.1,13.3 L12.1,13.3 L11.7,12.9 C11.5,12.7 11.5,12.5 11.7,12.3 L11.7,12.3 Z M8,2.7 C9.3,2.7 10.4,3.2 11.3,3.9 C11.8,4.3 12.2,4.8 12.5,5.4 C12.9,6.1 13.1,6.9 13.1,7.8 L13.1,7.8 L13.1,10.1 C13.1,10.2 13,10.4 12.9,10.5 L12.9,10.5 L12.6,10.7 L11,11.9 L10.7,12.1 L10.7,13.3 C10.7,13.6 10.5,13.8 10.2,13.8 L10.2,13.8 L5.8,13.8 C5.5,13.8 5.3,13.6 5.3,13.3 L5.3,13.3 L5.3,12.1 L5,11.9 L3.4,10.7 L3.1,10.5 C3,10.4 2.9,10.3 2.9,10.1 L2.9,10.1 L2.9,7.8 C2.9,6.9 3.1,6.1 3.5,5.4 C3.8,4.9 4.2,4.3 4.7,3.9 C5.6,3.2 6.7,2.7 8,2.7 Z M8,9.4 C8,9.4 7.3,10 7.3,10.5 L7.3,10.5 L7.3,10.7 C7.3,10.9 7.4,11.1 7.5,11.2 C7.5,11.3 7.6,11.3 7.7,11.3 L8.4,11.3 C8.5,11.3 8.5,11.2 8.6,11.2 C8.7,11.1 8.8,10.9 8.8,10.7 L8.8,10.7 L8.8,10.5 C8.7,10 8,9.4 8,9.4 Z M5.8,7.2 C4.9,7 4,7.5 3.8,8.3 C3.7,8.9 4,9.6 4.6,9.9 C4.8,10 5,10.1 5.2,10.1 C6.2,10.3 7.1,9.8 7.2,9 C7.3,8.5 7.2,8.1 6.8,7.7 C6.5,7.5 6.2,7.3 5.8,7.2 Z M12.1,8.3 C11.9,7.5 11,7 10.1,7.2 C9.9,7.2 9.7,7.3 9.5,7.4 C9,7.8 8.6,8.4 8.8,9 L8.8,9 L8.8388,9.1469 C8.981,9.578 9.35,9.92 9.8,10.1 C10.1,10.1 10.4,10.2 10.7,10.1 C11.1,10 11.5,9.8 11.7,9.6 C12.1,9.3 12.3,8.8 12.1,8.3 Z M2.2,1 C2.7,0.5 3.4,0.5 3.9,0.9 C4.4,1.4 4.4,2.1 3.9,2.6 L3.9,2.6 L4.3,3.1 C4.5,3.3 4.5,3.5 4.3,3.7 L4.3,3.7 L3.6,4.4 C3.4,4.6 3.2,4.6 3,4.4 L3,4.4 L2.5,4 C2.1,4.4 1.3,4.4 0.9,3.9 C0.4,3.5 0.5,2.7 0.9,2.3 C1.2,2 1.5,1.9 1.9,2 C1.8,1.6 1.9,1.2 2.2,1 Z M12.2,1 C12.6,0.5 13.4,0.6 13.8,1 C14,1.3 14.2,1.6 14.1,2 C14.5,1.9 14.8,2 15.2,2.4 C15.6,2.8 15.6,3.5 15.2,4 C14.7,4.5 14,4.5 13.5,4 L13.5,4 L13,4.3 C12.8,4.5 12.6,4.5 12.4,4.3 L12.4,4.3 L11.7,3.6 C11.5,3.4 11.5,3.2 11.7,3 L11.7,3 L12.2,2.7 C11.7,2.2 11.7,1.5 12.2,1 Z"/>
  </defs>
  <g fill="none" fill-rule="evenodd">
    <use fill="#FFA83A" xlink:href="#infected-a"/>
    <use fill="url(#infected-b)" fill-opacity=".8" xlink:href="#infected-a" style="mix-blend-mode:hard-light"/>
  </g>
</svg>
