<svg xmlns="http://www.w3.org/2000/svg" xmlns:xlink="http://www.w3.org/1999/xlink" width="16" height="16" viewBox="0 0 16 16">
  <defs>
    <linearGradient id="ips-b" x1="92.702%" x2="7.298%" y1="0%" y2="100%">
      <stop offset="0%" stop-color="#C07D00"/>
      <stop offset="53.654%" stop-color="#FFDE98"/>
      <stop offset="100%" stop-color="#C07D00"/>
    </linearGradient>
    <path id="ips-a" d="M4.5,8.3 C4.9,8.9 5.4,9.3 6.1,9.5 C7,9.7 7.7,9.5 8.4,8.9 C8.6,8.7 8.7,8.6 8.9,8.4 C9,8.3 9,8.3 9.1,8.3 C9.8,8.6 10.6,9 11.3,9.3 C12.3,9.8 12.8,10.6 13.1,11.7 C13.3,12.2 13.4,12.8 13.4,13.3 C13.4,13.5 13.3,13.5 13.2,13.6 C12.5,13.9 11.7,14.1 10.9,14.2 C9.5,14.4 8.1,14.4 6.7,14.5 C5.4,14.5 4,14.4 2.7,14.2 C1.9,14.1 1.1,13.9 0.3,13.6 C7.27418126e-13,13.5 7.27418126e-13,13.4 7.27418126e-13,13.1 C7.27418126e-13,12.1 0.3,11.3 0.7,10.5 C1,10 1.4,9.6 1.9,9.3 C2.7,8.9 3.5,8.6 4.3,8.2 C4.4,8.2 4.4,8.2 4.5,8.3 Z M4.5,0.3 C4.9,-0.1 8.5,-0.1 8.8,0.3 C9,0.7 9.3,1 9.4,1.4 C9.6,2 9.8,2.6 10,3.2 L9.967,3.1 L11.2,3.1 C11.4666667,3.1 11.654321,3.25802469 11.6927298,3.50384088 L11.7,3.6 C11.7,3.9 11.5,4.1 11.2,4.1 L9.71258446,4.10050562 C9.72511249,4.17533695 9.75011236,4.25011236 9.8,4.3 C9.9,4.4 10,4.7 10,4.8 C10.1,5.6 9.8,6.2 9.3,6.8 C9.2,6.9 9.1,7 9.1,7.1 C8.9,7.6 8.7,8 8.3,8.4 C7.3,9.4 6,9.3 5,8.3 C4.7,7.9 4.4,7.5 4.2,7.1 C4.2,7 4.2,6.9 4.1,6.8 C3.7,6.3 3.4,5.6 3.4,4.9 C3.4,4.6 3.4,4.3 3.7,4.2 L3.7,4.2 L3.7,4.1 L2.2,4.1 C1.93333333,4.1 1.74567901,3.94197531 1.70727023,3.69615912 L1.7,3.6 C1.7,3.3 1.9,3.1 2.2,3.1 L3.42592593,3.1 C3.45555556,3.03333333 3.5,2.96666667 3.5,2.9 C3.7,2.3 3.9,1.7 4.1,1 C4.2,0.8 4.4,0.6 4.5,0.3 Z M9.415,4.1 L7.177875,4.10018906 C6.895125,4.105125 6.8025,4.2075 6.9,4.5 L6.9,4.5 L6.9,5.1 C7,6 7.9,6.2 8.5,6.1 C9.1,5.9 9.6,5.2 9.6,4.5 C9.7,4.2 9.6,4.1 9.4,4.1 L9.415,4.1 Z M6.311,4.1 L3.98539502,4.10018226 C3.79519193,4.10499033 3.70246479,4.20492958 3.8,4.4 C3.8,5.2 4.5,6.2 5.3,6.1 C6.2,6 6.7,5.3 6.6,4.4 C6.5,4.2 6.5,4.1 6.3,4.1 L6.311,4.1 Z"/>
  </defs>
  <g fill="none" fill-rule="evenodd" transform="translate(1 1)">
    <use fill="#FFA83A" xlink:href="#ips-a"/>
    <use fill="url(#ips-b)" fill-opacity=".8" xlink:href="#ips-a" style="mix-blend-mode:hard-light"/>
  </g>
</svg>
