<svg xmlns="http://www.w3.org/2000/svg" xmlns:xlink="http://www.w3.org/1999/xlink" width="16" height="16" viewBox="0 0 16 16">
  <defs>
    <linearGradient id="mals-b" x1="100%" x2="0%" y1="1.198%" y2="98.802%">
      <stop offset="0%" stop-color="#C07D00"/>
      <stop offset="53.654%" stop-color="#FFDE98"/>
      <stop offset="100%" stop-color="#C07D00"/>
    </linearGradient>
    <path id="mals-a" d="M9.81994961,1.95601089 C10.1790183,1.20182332 10.7699729,0.744406711 11.22975,0.90595 C11.7508307,1.08903239 11.9060983,1.99780481 11.57655,2.93575 C11.5264386,3.07837472 11.4680026,3.21346132 11.4031002,3.33936075 C11.8575591,3.91264534 12.1791571,4.61839929 12.3201215,5.39964748 L14.6,5.4 C15,5.4 15.2,5.7 15.2,6 L15.2,6.5 C15.2,6.8 14.9,7.1 14.6,7.1 L12.4,7.09957378 L12.4,7.99957378 L14.6,8 C15,8 15.2,8.3 15.2,8.6 L15.2,9.1 C15.2,9.5 14.9,9.8 14.6,9.8 L12.4,9.79957378 L12.4,10.6 C12.4,10.6335751 12.3996573,10.66706 12.3989755,10.700451 L14.6,10.7 C15,10.7 15.2,11 15.2,11.3 L15.2,11.8 C15.2,12.2 14.9,12.4 14.6,12.4 L12.3,12.4 C12.2115556,12.4 12.1328891,12.385333 12.0640007,12.3592419 C11.4243808,13.9754643 9.92464396,15.1 8.2,15.1 L8.2,15.1 L7.7,15.1 C5.99984994,15.1 4.51826398,14.0071795 3.86109826,12.3870042 C3.81056569,12.3960418 3.7562724,12.4 3.7,12.4 L1.4,12.4 C1,12.4 0.8,12.1 0.8,11.8 L0.8,11.3 C0.8,10.9 1.1,10.7 1.4,10.7 L3.504,10.6995738 L3.5,10.5 L3.5,9.79957378 L1.4,9.8 C1,9.8 0.8,9.5 0.8,9.1 L0.8,8.6 C0.8,8.3 1,8 1.4,8 L3.5,7.99957378 L3.5,7.09957378 L1.4,7.1 C1,7.1 0.8,6.8 0.8,6.5 L0.8,6 C0.8,5.6 1.1,5.4 1.4,5.4 L3.58407562,5.39964748 C3.73179578,4.62066155 4.06735387,3.91673328 4.53636862,3.34224395 C4.47228251,3.21873915 4.41419764,3.08432406 4.36435,2.94245 C4.03480169,2.00450481 4.19006934,1.09573239 4.71115,0.91265 C5.19899137,0.741246276 5.83451298,1.26666988 6.1840275,2.10405919 C6.65485182,1.90753825 7.16667208,1.8 7.7,1.8 L7.7,1.8 L8.3,1.8 C8.81761401,1.8 9.30990437,1.90129462 9.76205347,2.08678662 Z M9.2,9 L6.8,9 C6.7,9 6.5,9.1 6.4,9.4 C6.4,9.6 6.5,9.8 6.8,9.8 L6.8,9.8 L9.2,9.8 C9.4,9.8 9.6,9.6 9.6,9.4 C9.6,9.2 9.5,9 9.2,9 L9.2,9 Z M9.2,7.2 L6.8,7.2 C6.6,7.2 6.4,7.4 6.4,7.6 C6.4,7.8 6.6,8 6.8,8 L6.8,8 L9.2,8 C9.4,8 9.6,7.8 9.6,7.6 C9.6,7.4 9.5,7.2 9.2,7.2 L9.2,7.2 Z"/>
  </defs>
  <g fill="none" fill-rule="evenodd">
    <use fill="#FFA83A" xlink:href="#mals-a"/>
    <use fill="url(#mals-b)" fill-opacity=".8" xlink:href="#mals-a" style="mix-blend-mode:hard-light"/>
  </g>
</svg>
