<svg width="312" height="267" viewBox="0 0 312 267" fill="none" xmlns="http://www.w3.org/2000/svg">
<path fill-rule="evenodd" clip-rule="evenodd" d="M30.0039 59.6C31.6019 59.6 32.7999 60.9 32.9999 62.5V69.4V70.1V72.7V74.019V75.019V76.019V76.819C32.9999 77.419 32.6009 77.819 32.0009 77.819C31.4019 77.819 31.0029 77.419 31.0029 76.819V76.019V75.019V74.019H4.99688V75.019V76.019V76.819C4.99688 77.419 4.59788 77.819 3.99888 77.819C3.39988 77.819 2.99988 77.419 2.99988 76.819V76.019V75.019V74.019V72.6V70V69.3V62.4C2.99988 60.9 4.19888 59.6 5.79588 59.6H5.99588H7.20488C8.70288 59.6 10.0019 60.8 10.0019 62.4V67.9C10.0019 68.7 10.6009 69.3 11.3999 69.3H24.6119C25.4109 69.3 26.0099 68.7 26.0099 67.9V62.4C26.0099 60.9 27.0429 59.6 28.6409 59.6H29.2019H30.0039ZM11.9989 67.3H24.0279V64.1H11.9989V67.3ZM11.9989 62.1C11.7989 59.6 9.83988 57.6 7.34388 57.6H6.04488V53.8C6.04488 52.3 7.24388 51 8.84188 51H27.2079C28.7059 51 30.0039 52.2 30.0039 53.8V57.6H28.7059C26.1089 57.6 24.2279 59.6 24.0279 62.1H11.9989Z" fill="#00FCFF"/>
<path fill-rule="evenodd" clip-rule="evenodd" d="M26.8232 19.5312C27.2832 19.2502 27.3742 18.5942 27.0072 18.1252C24.9852 15.1252 21.5842 13.3442 18.0002 13.3442C14.3242 13.3442 11.0152 15.1252 8.90115 18.1252C8.62515 18.5942 8.71715 19.2502 9.17715 19.5312C9.36115 19.6252 9.54415 19.7182 9.72815 19.7182C10.0962 19.7182 10.3722 19.5312 10.5552 19.2502C12.3022 16.8122 15.0592 15.3122 18.0002 15.3122C20.9412 15.3122 23.6982 16.8122 25.4442 19.2502C25.7202 19.7182 26.3632 19.8122 26.8232 19.5312ZM23.1472 23.6562C23.6062 23.2812 23.6062 22.6252 23.2392 22.2502C21.8602 20.8432 20.0222 20.0002 18.0002 20.0002C15.9782 20.0002 14.1402 20.8432 12.7612 22.2502C12.3942 22.6252 12.3942 23.2812 12.7612 23.6562C13.0372 23.8432 13.2212 23.9372 13.4962 23.9372C13.7722 23.9372 14.0482 23.8432 14.2322 23.6562C15.2432 22.6252 16.5292 22.0622 18.0002 22.0622C19.4702 22.0622 20.7572 22.6252 21.7682 23.6562C22.1362 24.0312 22.7792 24.0312 23.1472 23.6562ZM18.0002 29.0942C18.8272 29.0942 19.4702 28.4372 19.4702 27.5942C19.4702 27.0312 19.1952 26.5622 18.7352 26.2812C18.5512 26.1872 18.2762 26.0932 18.0002 26.0932C17.7242 26.0932 17.4482 26.1872 17.2652 26.2812C16.8052 26.5622 16.5292 27.0312 16.5292 27.5942C16.5292 28.4372 17.1732 29.0942 18.0002 29.0942ZM32.6132 16.5312C33.3482 17.0932 32.9812 18.3122 31.9702 18.3122H28.8452V29.3752C28.8452 30.5942 27.9262 31.5312 26.7312 31.5312H24.2502H22.1362H13.8642H10.8312H9.17715C8.07415 31.5312 7.15515 30.6872 7.06315 29.5622V29.3752V18.3122H4.03015C3.01915 18.3122 2.65115 17.0932 3.38715 16.5312L17.4482 5.84324C17.6322 5.75024 17.8162 5.65624 18.0922 5.65624C18.2762 5.65624 18.5512 5.65624 18.7352 5.84324L25.4442 11.0002L29.5802 14.1872L32.6132 16.5312ZM30.2242 6.21824V12.1252L25.4442 8.46824V6.21824C25.4442 5.56224 25.9962 5.00024 26.6392 5.00024H29.0292C29.6722 5.00024 30.2242 5.56224 30.2242 6.21824Z" fill="#00FCFF"/>
<path fill-rule="evenodd" clip-rule="evenodd" d="M32.5912 95.1992C33.0002 95.1992 33.0002 95.6972 33.0002 95.8972V108.056V111.644V119.518V123.006C33.0002 124.103 32.0802 125 30.9562 125H30.5482C29.4242 125 28.5042 124.103 28.5042 123.006V121.312L28.7092 118.422L29.0152 114.036L29.1172 112.741C29.1172 109.252 26.4612 108.953 26.4612 104.966C26.4612 104.169 26.4612 103.372 26.6652 102.674C26.7672 101.877 27.0742 101.179 27.3802 100.581C28.1982 99.0862 29.3222 97.7902 30.7522 96.3952C31.7742 95.4982 32.2842 95.1992 32.5912 95.1992ZM12.4632 105.265C12.5662 105.963 12.5662 108.554 11.2372 109.053C10.4202 109.451 9.80724 110.249 9.80724 111.146L9.90924 112.84L10.1132 117.724L10.3182 122.907C10.3182 124.003 9.39824 124.9 8.27424 124.9H7.18924C6.06524 124.9 5.14524 124.003 5.14524 122.907L5.65624 110.946C5.65624 109.95 5.14524 109.152 4.22624 108.853C3.10224 108.355 3.00024 106.162 3.00024 105.265L3.51124 95.7972C3.51124 95.2992 3.91924 95.0002 4.32824 95.0002C4.83924 95.0992 5.14524 95.3982 5.14524 95.8972L4.63424 104.069C4.63424 104.568 5.04324 104.966 5.55424 104.966C6.06524 104.966 6.47324 104.568 6.47324 104.069V95.7972C6.47324 95.3982 6.88224 95.0002 7.29124 95.0002H8.07024C8.47924 95.0002 8.88724 95.3982 8.88724 95.7972V104.069V104.169C8.88724 104.667 9.29624 105.066 9.80724 105.066H9.90924C10.4202 105.066 10.8292 104.667 10.8292 104.169L10.7272 101.677L10.4202 95.9962C10.3182 95.5982 10.7272 95.1992 11.1352 95.1992H11.2372C11.6462 95.1992 12.0552 95.4982 12.0552 95.8972L12.2592 100.182L12.3612 102.774L12.4632 105.265ZM19.6152 103.073C17.0612 103.073 14.7112 104.468 13.5872 106.561V105.265L13.4852 104.169C15.0182 102.674 17.2652 101.677 19.6152 101.677C21.8632 101.677 23.9072 102.475 25.4392 103.87C25.3372 104.169 25.3372 104.468 25.3372 104.867C25.3372 105.265 25.4392 105.664 25.4392 106.063C24.2132 104.269 22.0672 103.073 19.6152 103.073ZM26.6652 109.451C26.8692 109.75 26.9722 109.95 26.9722 110.249C27.4822 110.946 27.7892 111.445 27.8912 112.143C26.9722 115.83 23.6002 118.521 19.5132 118.521C15.0182 118.521 11.3402 115.133 10.9312 110.946C11.5442 110.648 11.9532 110.249 12.3612 109.75V110.049C12.3612 113.937 15.6312 117.026 19.5132 117.026C23.4982 117.026 26.6652 113.837 26.6652 110.049V109.451ZM11.0332 117.026C13.0762 119.418 16.1422 120.913 19.5132 121.013C22.7832 121.013 25.6432 119.618 27.6872 117.525L27.4822 120.315C25.2352 121.91 22.4762 122.907 19.5132 122.907C16.3462 122.907 13.3832 121.81 11.1352 119.917L11.0332 117.026ZM19.6152 99.1862C17.2652 99.1862 15.1202 99.8832 13.2812 101.179L13.1792 98.8872C15.1202 97.7902 17.2652 97.1922 19.6152 97.1922C22.2722 97.1922 24.7242 97.9902 26.7672 99.2852C26.4612 99.8832 26.1542 100.481 25.9502 101.179C24.2132 99.8832 21.9652 99.1862 19.6152 99.1862Z" fill="#00FCFF"/>
<path fill-rule="evenodd" clip-rule="evenodd" d="M78.9364 13.5332C79.5744 13.5332 80.0004 13.9602 80.0004 14.6002V30.3862C80.0004 31.0262 79.5744 31.4532 78.9364 31.4532C78.2984 31.4532 77.8724 31.0262 77.8724 30.3862V28.2532H50.1274V30.3862C50.1274 31.0262 49.7014 31.4532 49.0634 31.4532C48.4254 31.4532 48.0004 31.0262 48.0004 30.3862V14.6002C48.0004 13.9602 48.4254 13.5332 49.0634 13.5332C49.7014 13.5332 50.1274 13.9602 50.1274 14.6002V16.6262H51.8284H76.1714H77.8724V14.6002C77.8724 13.9602 78.2984 13.5332 78.9364 13.5332ZM55.3384 9.48024C54.7004 9.48024 54.1684 10.0132 54.1684 10.6532V14.8132H51.8284V7.98624C51.8284 6.38624 53.2114 5.00024 54.8064 5.00024H73.4064C75.0014 5.00024 76.3834 6.38624 76.3834 7.98624V14.8132H74.1504V10.6532C74.1504 10.0132 73.6184 9.48024 72.9804 9.48024H67.1104C66.4724 9.48024 65.9414 10.0132 65.9414 10.6532V14.8132H63.1754V10.6532C63.1754 10.0132 62.6444 9.48024 62.0054 9.48024H55.3384Z" fill="#00FCFF"/>
<path fill-rule="evenodd" clip-rule="evenodd" d="M53.7292 67C53.8752 67 53.9792 66.769 54.0002 66.5C54.0002 66.231 53.8752 66 53.7292 66H50.2712C50.1252 66 50.0002 66.231 50.0002 66.5C50.0002 66.769 50.1252 67 50.2712 67H53.7292ZM56.0002 69.434V70.846H49.0002C48.4482 70.846 48.0002 70.399 48.0002 69.846V69.434H56.0002ZM79.2692 62C79.7072 62 80.0002 62.286 80.0002 62.714V73.286C80.0002 73.714 79.7072 74 79.2692 74C78.8302 74 78.5372 73.714 78.5372 73.286V71.857H58.4622V73.286C58.4622 73.714 58.1702 74 57.7312 74C57.2922 74 57.0002 73.714 57.0002 73.286V62.714C57.0002 62.286 57.2922 62 57.7312 62C58.1702 62 58.4622 62.286 58.4622 62.714V64.071H59.6322H77.3682H78.5372V62.714C78.5372 62.286 78.8302 62 79.2692 62ZM61.7402 59.196C61.2922 59.196 60.9202 59.576 60.9202 60.033V63H59.2792V58.13C59.2792 56.989 60.2492 56 61.3672 56H75.6222C76.7412 56 77.7102 56.989 77.7102 58.13V63H76.1442V60.033C76.1442 59.576 75.7712 59.196 75.3242 59.196H70.4992C70.0522 59.196 69.6792 59.576 69.6792 60.033V63H68.7102H67.7402V60.033C67.7402 59.576 67.3672 59.196 66.9202 59.196H61.7402ZM52.5002 60V62H51.5002V60H49.1782C49.1222 60 49.0672 59.973 49.0392 59.946C49.0112 59.892 48.9842 59.839 49.0112 59.812L50.4252 55.134C50.4532 55.054 50.5082 55 50.5922 55H53.4202C53.5032 55 53.5582 55.054 53.5862 55.134L55.0002 59.812C55.0002 59.866 55.0002 59.919 54.9722 59.946C54.9442 59.973 54.8892 60 54.8332 60H52.5002ZM50.0002 64C50.0572 62.587 50.6002 61.954 51.7432 62.003H52.2282C53.4002 62.003 53.9432 62.587 54.0002 64H56.0002V68.658H48.0002V65C48.0002 64.448 48.4482 64 49.0002 64H50.0002Z" fill="#00FCFF"/>
<path fill-rule="evenodd" clip-rule="evenodd" d="M113.505 11.2759C111.355 11.2759 110.514 10.3359 110.514 10.3359L112.57 8.45488V6.47988C112.57 4.50488 114.159 2.99988 116.028 2.99988H117.15C119.112 2.99988 120.608 4.59888 120.608 6.47988V16.0719H118.552V6.47988C118.552 5.63288 117.898 4.97488 117.056 4.97488H115.935C115.094 4.97488 114.44 5.63288 114.44 6.47988V8.36088C115.468 9.11288 116.869 10.3359 116.869 10.3359C116.869 10.3359 115.748 11.2759 113.505 11.2759ZM115.561 15.3199C116.028 15.3199 116.309 15.6019 116.402 16.0719V16.1659C116.402 16.6369 116.028 17.0129 115.561 17.0129C115.094 17.0129 114.72 16.6369 114.72 16.1659V16.0719C114.813 15.6959 115.094 15.3199 115.561 15.3199ZM115.561 11.9339C116.028 11.9339 116.402 12.3099 116.402 12.7809C116.402 13.2509 116.028 13.6269 115.561 13.6269C115.094 13.6269 114.72 13.2509 114.72 12.7809C114.72 12.3099 115.094 11.9339 115.561 11.9339ZM111.542 15.3199C111.916 15.3199 112.29 15.6019 112.384 16.0719V16.1659C112.384 16.6369 112.01 17.0129 111.542 17.0129C111.075 17.0129 110.701 16.6369 110.701 16.1659V16.0719C110.795 15.6959 111.075 15.3199 111.542 15.3199ZM112.664 14.5679C112.664 14.0969 113.038 13.7209 113.505 13.7209C113.972 13.7209 114.346 14.0969 114.346 14.5679C114.346 15.0379 113.972 15.4139 113.505 15.4139C113.038 15.4139 112.664 15.0379 112.664 14.5679ZM111.542 11.9339C112.01 11.9339 112.384 12.3099 112.384 12.7809C112.384 13.2509 112.01 13.6269 111.542 13.6269C111.075 13.6269 110.701 13.2509 110.701 12.7809C110.701 12.3099 111.075 11.9339 111.542 11.9339ZM124.159 17.9529C124.72 17.9529 125 18.4229 125 18.8939C125 19.3639 124.627 19.8339 124.066 19.8339H122.757L120.888 27.6399C120.701 28.7679 119.954 29.6149 119.019 30.1789L119.393 31.8719C119.486 32.3419 119.112 32.9059 118.645 32.9999H118.458C117.991 32.9999 117.617 32.7179 117.524 32.2479L117.15 30.6489H108.552H108.926H102.851L102.477 32.2479C102.384 32.7179 102.01 32.9999 101.542 32.9999H101.355C100.795 32.9059 100.514 32.3419 100.608 31.8719L100.982 30.1789C100.047 29.6149 99.3928 28.7679 99.1118 27.6399L97.2428 19.8339H95.9348C95.4678 19.8339 94.9998 19.3639 94.9998 18.8939C94.9998 18.4229 95.3738 17.9529 95.9348 17.9529H118.645H120.608H124.159Z" fill="#00FCFF"/>
<path fill-rule="evenodd" clip-rule="evenodd" d="M110.368 70.376C110.736 70.376 111.104 70.085 111.104 69.601C111.104 69.117 110.736 68.826 110.368 68.826H109.448C108.988 68.826 108.712 69.117 108.712 69.601C108.712 70.085 109.08 70.376 109.448 70.376H110.368ZM117.914 66.986C118.65 66.986 119.294 67.567 119.386 68.439V70.957C119.386 71.732 118.742 72.41 118.006 72.41H101.442C100.705 72.41 100.061 71.732 100.061 70.957V68.439C100.061 67.664 100.705 66.986 101.442 66.986H117.914ZM123.62 62.918C124.356 62.918 125 63.596 125 64.371C125 65.145 124.356 65.823 123.62 65.823H122.147L123.435 77.06C123.435 77.544 123.067 78.028 122.607 78.125H122.515C122.055 78.125 121.687 77.738 121.595 77.253L120.307 65.823H99.0491L97.7611 77.253C97.6691 77.738 97.3011 78.125 96.8401 78.125H96.7481C96.1961 78.028 95.8281 77.544 95.9201 77.06L97.3931 65.823H96.3801C95.6441 65.823 95.0001 65.145 95.0001 64.371C95.0001 63.596 95.6441 62.918 96.3801 62.918H99.3251L95.9201 57.3C95.7361 57.106 95.7361 56.815 95.8281 56.622L98.4971 50.422C98.5891 50.035 98.9571 49.938 99.3251 50.035L102.178 51.197C103.374 50.229 105.215 50.229 106.411 51.391C106.503 51.391 106.503 51.488 106.595 51.585L102.178 56.525C102.086 56.428 101.994 56.428 101.902 56.331C100.797 55.362 100.613 53.716 101.166 52.456L99.3251 51.682L97.1161 56.815L100.797 62.918H114.233V61.852V61.271V60.884V60.69H110C108.528 60.69 107.423 59.431 107.423 57.978V54.394C107.423 52.844 108.62 51.682 110 51.682H119.847C121.319 51.682 122.423 52.941 122.423 54.394V57.978C122.423 59.527 121.227 60.69 119.847 60.69H115.613V60.884V61.271V61.852V62.918H123.62Z" fill="#00FCFF"/>
<path fill-rule="evenodd" clip-rule="evenodd" d="M142.873 120.557V120.465H152.989V116.492H142.873V120.557ZM147.182 114.552H157.298V110.58H147.182V114.552ZM151.397 104.667V108.64H161.513V104.667H154.863H151.397ZM155.893 98.8472V102.82H161.607H165.822V98.8472H155.893ZM167.249 97.0002C169.31 97.0002 171.09 98.6632 170.996 100.603V118.617C170.996 120.649 169.31 122.312 167.249 122.312H159.078H158.235H157.392H152.989H141.936C141.374 122.312 141 121.943 141 121.388V115.568C141 115.014 141.374 114.645 141.936 114.645H145.308V109.656C145.308 109.102 145.683 108.732 146.245 108.732H149.617V103.744C149.617 103.189 149.992 102.82 150.554 102.82H154.02V97.9242C154.02 97.3692 154.394 97.0002 154.956 97.0002H166.665H167.249Z" fill="#00FCFF"/>
<path fill-rule="evenodd" clip-rule="evenodd" d="M305.44 11.6615L300.856 8.27349V7.47149C300.856 6.84649 301.395 6.31249 302.024 6.31249H304.272C304.901 6.31249 305.44 6.84649 305.44 7.47149V11.6615ZM287.104 26.1945L287.733 24.8565L289.8 26.9075L288.452 27.5315C287.643 27.6205 287.014 26.9965 287.104 26.1945ZM288.542 22.8955L294.924 16.5655L298.07 19.5965L291.598 26.0155L290.789 26.3725L289.621 25.2135L289.351 24.9465L288.093 23.6975L288.542 22.8955ZM298.968 14.0685L300.586 15.6735C301.036 16.1195 301.036 16.7435 300.586 17.1895L298.968 18.7945L295.823 15.6735L297.44 14.0685C297.89 13.6225 298.519 13.6225 298.968 14.0685ZM303.283 17.6355H307.148L303.373 14.7825L300.946 12.9985L294.025 7.82749H293.845L280.722 17.6355H283.688H284.587V28.7795C284.677 29.3145 285.126 29.7605 285.666 29.7605H302.204C302.833 29.7605 303.283 29.3145 303.283 28.6905V17.6355ZM308.226 16.2085C308.856 16.6545 309.125 17.4565 308.945 18.0805C308.676 18.7945 307.957 19.3295 307.148 19.3295H305.17V28.6015C305.17 30.2065 303.912 31.4545 302.294 31.4545H285.756C284.228 31.4545 282.969 30.2955 282.879 28.8685V28.6905V19.4185H280.902C280.093 19.4185 279.374 18.8835 279.104 18.1705C278.835 17.4565 279.104 16.6545 279.733 16.2085L292.856 6.40149C293.575 5.86649 294.474 5.86649 295.193 6.40149L300.946 10.7695L305.44 14.1575L308.226 16.2085Z" fill="#00FCFF"/>
<path fill-rule="evenodd" clip-rule="evenodd" d="M62.0255 108.413C61.9315 108.599 61.6505 108.599 61.5565 108.413L60.8075 107.016C60.8075 106.923 60.7135 106.829 60.6195 106.829L59.0265 106.643C58.7455 106.643 58.6515 106.364 58.8395 106.177L59.9635 105.06C60.0575 104.966 60.0575 104.873 60.0575 104.78L59.7765 103.197C59.7765 103.01 60.0575 102.824 60.2455 102.917L61.6505 103.662H61.9315L63.3375 102.917C63.6185 102.824 63.8055 102.917 63.8055 103.197L63.5245 104.78C63.5245 104.873 63.5245 104.966 63.6185 105.06L64.7435 106.177C64.9305 106.364 64.8365 106.643 64.5555 106.643L62.9625 106.829C62.8685 106.829 62.7755 106.923 62.7755 107.016L62.0255 108.413ZM56.5905 99.7505C56.3095 99.7505 56.0285 99.6575 55.8405 99.5645C55.4655 99.1915 55.4655 98.5395 55.8405 98.1675C57.7145 96.2105 60.9945 95.0005 64.5555 95.0005C67.9295 95.0005 71.1155 96.0245 73.0835 97.8875C73.4575 98.2605 73.4575 98.9125 73.0835 99.2845C72.7085 99.6575 72.0525 99.6575 71.6775 99.2845C70.7405 98.3535 69.4285 97.7015 67.9295 97.3285V99.2845C67.9295 99.6575 67.5545 100.03 67.1795 100.03C66.8045 100.03 66.4295 99.6575 66.4295 99.2845V97.0495C65.8675 97.0495 65.2115 96.9565 64.5555 96.9565C63.8995 96.9565 63.1495 97.0495 62.4945 97.1425V101.427C62.4945 101.799 62.1195 102.172 61.7445 102.172C61.3695 102.172 60.9945 101.799 60.9945 101.427V97.4215C59.4955 97.8875 58.1835 98.5395 57.3405 99.4715C57.1525 99.6575 56.8715 99.7505 56.5905 99.7505ZM66.1485 104.687C65.7735 102.917 66.8045 101.334 68.4915 100.775C68.7725 100.775 68.9595 100.961 68.8665 101.241C68.6785 101.613 68.6785 102.079 68.6785 102.545C68.7725 103.383 69.3345 104.221 69.9905 104.687C70.7405 105.246 71.3965 105.432 72.0525 105.339C72.3335 105.246 72.4275 105.619 72.3335 105.805C71.5835 106.923 70.2715 107.575 68.7725 107.295C67.4605 107.016 66.4295 105.991 66.1485 104.687ZM74.1275 116.238H76.9385V110.556H74.1275V116.238ZM51.0615 116.237H53.7795V110.555H51.0615V116.237ZM69.6295 116.238H72.6285V110.556H69.6295V116.238ZM65.1315 116.238H68.1305V110.556H65.1315V116.238ZM55.3715 116.237H58.3705V110.555H55.3715V116.237ZM59.8705 116.238H62.8695V110.556H59.8705V116.238ZM77.9695 105.246C78.5315 105.246 78.9065 105.712 78.9995 106.736V123.503C78.9995 123.596 78.5315 124.062 77.9695 124.062C77.4065 124.062 76.9385 123.596 76.9385 123.037V121.454H51.0615V123.037C51.0615 123.596 50.5935 124.062 50.0305 124.062C49.4685 124.062 48.9995 123.596 48.9995 123.503V106.736C48.9995 105.712 49.4685 105.246 50.0305 105.246C50.5935 105.246 51.0615 105.712 51.0615 106.271V108.972H76.9385V106.271C76.9385 105.712 77.4065 105.246 77.9695 105.246Z" fill="#00FCFF"/>
<path fill-rule="evenodd" clip-rule="evenodd" d="M52.233 145.563V162.344H50.827V145.563C50.827 143.594 52.42 142 54.389 142H73.524C75.493 142 77.086 143.594 77.086 145.563V162.438H75.68V145.563C75.68 144.344 74.743 143.407 73.524 143.407H54.389C53.17 143.407 52.233 144.344 52.233 145.563ZM61.233 149.594H66.483V148.094C66.483 147.626 66.108 147.25 65.639 147.25H62.077C61.608 147.25 61.233 147.626 61.233 148.094V149.594ZM69.577 158.782C69.577 157.657 68.639 156.813 67.608 156.813C66.577 156.813 65.639 157.657 65.639 158.782C65.639 159.813 66.483 160.751 67.608 160.751C68.639 160.751 69.577 159.907 69.577 158.782ZM61.702 153.626L62.358 156.251L67.889 154.751L67.233 152.125L61.702 153.626ZM65.816 145.75C67.035 145.75 68.066 146.782 68.066 148.001V149.501H70.222C71.91 149.501 73.316 150.907 73.316 152.594V159.438C73.316 161.126 71.91 162.532 70.222 162.532H57.67C55.983 162.532 54.577 161.126 54.577 159.438V152.594C54.577 150.907 55.983 149.501 57.67 149.501H59.827V148.001C59.827 146.782 60.858 145.75 62.077 145.75H65.816ZM77.967 164.219C78.531 164.219 79 164.594 79 165.157C79 165.719 78.624 166.094 78.061 166.094H74.587C75.056 166.469 75.338 167.032 75.338 167.688C75.338 168.907 74.399 169.844 73.178 169.844C71.958 169.844 71.019 168.907 71.019 167.688C71.019 167.032 71.301 166.469 71.77 166.094H56.23C56.699 166.469 56.981 167.032 56.981 167.688C56.981 168.907 56.042 169.844 54.822 169.844C53.601 169.844 52.662 168.907 52.662 167.688C52.662 167.032 52.944 166.469 53.413 166.094H49.939C49.376 166.094 49 165.719 49 165.157C49 164.594 49.376 164.219 49.939 164.219H77.967Z" fill="#00FCFF"/>
<path fill-rule="evenodd" clip-rule="evenodd" d="M73.488 198.788L71.088 190.988C70.788 190.188 71.288 189.288 72.088 189.088C72.888 188.788 73.788 189.288 73.988 190.088L76.288 197.888C76.588 198.688 76.088 199.588 75.288 199.788C74.488 199.988 73.688 199.488 73.488 198.788ZM68.587 199.719C67.837 199.719 67.181 199.063 67.181 198.313V190.719C67.181 189.969 67.837 189.313 68.587 189.313C69.337 189.313 69.993 189.969 69.993 190.719V198.313C69.993 199.063 69.337 199.719 68.587 199.719ZM64.745 199.719C63.995 199.719 63.339 199.063 63.339 198.313V190.719C63.339 189.969 63.995 189.313 64.745 189.313C65.494 189.313 66.15 189.969 66.15 190.719V198.313C66.15 199.063 65.494 199.719 64.745 199.719ZM64.62 207.888C64.977 207.888 65.334 207.637 65.334 207.219C65.334 206.8 64.977 206.549 64.62 206.549H63.727C63.281 206.549 63.013 206.8 63.013 207.219C63.013 207.637 63.37 207.888 63.727 207.888H64.62ZM71.939 204.875C72.653 204.875 73.278 205.461 73.367 206.131V208.307C73.367 208.977 72.742 209.563 72.028 209.563H55.306C54.592 209.563 53.967 208.977 53.967 208.307V206.131C53.967 205.461 54.592 204.875 55.306 204.875H71.939ZM77.594 200.503C78.344 200.503 79 201.159 79 201.909C79 202.659 78.344 203.315 77.594 203.315H76.095L77.407 214.19C77.407 214.659 77.032 215.128 76.563 215.221H76.47C76.001 215.221 75.626 214.846 75.532 214.378L74.22 203.315H53.124L51.812 214.378C51.718 214.846 51.343 215.221 50.874 215.221H50.781C50.218 215.128 49.843 214.659 49.937 214.19L51.437 203.315H50.406C49.656 203.315 49 202.659 49 201.909C49 201.159 49.656 200.503 50.406 200.503H53.405L49.937 195.065C49.75 194.878 49.75 194.596 49.843 194.409L52.561 188.409C52.655 188.034 53.03 187.94 53.405 188.034L56.31 189.159C57.528 188.221 59.403 188.221 60.621 189.346C60.715 189.346 60.715 189.44 60.809 189.534L56.31 194.315C56.216 194.221 56.123 194.221 56.029 194.128C54.904 193.19 54.717 191.596 55.279 190.378L53.405 189.628L51.156 194.596L54.904 200.503H77.594Z" fill="#00FCFF"/>
<path fill-rule="evenodd" clip-rule="evenodd" d="M120.511 112.197C121.074 112.197 121.449 112.579 121.449 113.152C121.449 113.726 121.074 114.108 120.511 114.108H115.634C115.071 114.108 114.696 113.726 114.696 113.152C114.696 112.579 115.071 112.197 115.634 112.197H120.511ZM115.634 110.286C115.165 110.286 114.696 109.904 114.696 109.331C114.696 108.758 115.071 108.375 115.634 108.375H119.292C119.854 108.375 120.23 108.758 120.23 109.331C120.23 109.904 119.854 110.286 119.292 110.286H115.634ZM115.634 106.465C115.165 106.465 114.696 106.082 114.696 105.509C114.696 104.936 115.071 104.554 115.634 104.554H119.761C120.323 104.554 120.699 104.936 120.699 105.509C120.699 106.082 120.323 106.465 119.761 106.465H115.634ZM112.82 112.197C113.383 112.197 113.758 112.579 113.758 113.152C113.758 113.726 113.383 114.108 112.82 114.108C112.257 114.108 111.882 113.726 111.882 113.152C111.882 112.579 112.351 112.197 112.82 112.197ZM112.82 108.375C113.383 108.375 113.758 108.758 113.758 109.331C113.758 109.904 113.383 110.286 112.82 110.286C112.257 110.286 111.882 109.904 111.882 109.331C111.882 108.758 112.351 108.375 112.82 108.375ZM112.82 104.554C113.383 104.554 113.758 104.936 113.758 105.509C113.758 106.082 113.383 106.465 112.82 106.465C112.257 106.465 111.882 106.082 111.882 105.509C111.882 104.936 112.351 104.554 112.82 104.554ZM106.724 102.356C108.506 102.929 109.913 104.554 110.1 106.465C110.194 106.656 110.006 106.942 109.725 106.942L105.598 107.324C105.317 107.324 105.036 107.038 105.129 106.751L106.161 102.643C106.255 102.452 106.442 102.261 106.724 102.356ZM107.755 108.662C108.037 108.662 108.318 108.853 108.224 109.14C108.224 111.719 106.349 113.917 103.722 114.203C100.721 114.49 98.0011 111.91 98.2831 108.662C98.4701 106.751 99.6891 105.031 101.378 104.363C102.316 104.076 103.16 103.98 104.004 104.076C104.285 104.076 104.473 104.363 104.379 104.649L103.441 108.471C103.347 108.758 103.629 109.044 103.91 109.044L107.755 108.662ZM120.357 117.738C121.764 117.738 123.171 116.496 123.171 115.063V101.974C123.171 100.541 121.952 99.2995 120.545 99.2995H111.682H108.493H99.3951C97.9881 99.2995 96.7691 100.541 96.7691 101.974V115.063C96.7691 116.496 97.9881 117.738 99.3951 117.738H100.145H102.115H117.872H119.841H120.357ZM120.873 97.8665C123.124 97.8665 124.906 99.6815 125 101.974V115.063C125 117.356 123.218 119.172 120.967 119.172H120.31L121.623 123.853C121.717 124.331 121.436 124.808 120.967 125H120.686C120.217 125 119.841 124.713 119.748 124.331L118.247 119.076H101.646L100.145 124.331C99.9581 124.713 99.5831 125 99.2081 125H98.9261C98.4571 124.904 98.0821 124.331 98.2701 123.853L99.5831 119.172H99.0331C96.7821 119.172 95.0001 117.356 95.0001 115.063V101.974C95.0001 99.6815 96.7821 97.8665 99.0331 97.8665H108.211V96.7195C108.211 95.7645 108.962 95.0005 109.9 95.0005C110.838 95.0005 111.588 95.7645 111.588 96.7195V97.8665H120.873Z" fill="#00FCFF"/>
<path fill-rule="evenodd" clip-rule="evenodd" d="M63.7812 249.281C62.0812 249.281 61.2812 248.381 61.1812 248.281C60.8812 247.981 60.9812 247.481 61.2812 247.181C61.5812 246.881 62.0812 246.981 62.2812 247.281C62.2812 247.281 62.7812 247.781 63.6812 247.781C64.6812 247.781 65.0812 247.281 65.0812 247.281C65.3812 246.981 65.7812 246.981 66.1812 247.181C66.4812 247.481 66.5812 247.881 66.2812 248.181C66.2812 248.381 65.4812 249.281 63.7812 249.281ZM60.0782 240.593C59.9672 240.283 60.0292 240.036 60.2642 239.85L61.8332 239.2L62.8482 238.828V238.152C62.8482 237.595 63.1542 237.621 63.9562 237.098C64.7572 236.574 64.5432 235.291 63.5862 235.291C62.6292 235.291 62.5712 235.95 62.5712 236.228C62.5712 236.693 62.2022 236.971 61.8332 236.971C61.5562 236.971 61.1022 236.748 61.1022 236.077C61.1022 235.406 61.4642 235.021 61.9252 234.557C62.3872 234.186 62.9402 234 63.4942 234H63.6792C64.5092 234.093 65.8372 234.557 65.8372 236.228C65.8372 237.9 64.6942 238.367 64.4172 238.553C64.2942 238.63 64.2322 238.784 64.2322 239.014L66.9092 240.128C66.9942 240.507 66.9652 240.787 66.8202 240.968C66.6032 241.239 66.2692 241.368 65.8372 241.243C65.5502 241.159 65.0762 240.942 64.4172 240.593C63.8632 240.314 63.5862 240.221 62.7562 240.593L61.6482 241.057L61.1872 241.243C60.6002 241.243 60.2452 241.057 60.0782 240.593ZM56.7792 242.624C56.8592 242.995 57.6322 249.003 56.9752 250.157V262.135C58.2552 262.321 60.0252 262.766 63.9322 262.692C67.2042 262.631 69.4412 262.445 70.6412 262.135C70.6412 261.228 70.9522 249.93 70.6412 249.507C70.3292 249.084 70.1411 244.166 70.4911 242.721L68.4102 242.171C68.3042 242.543 67.4772 244.51 63.7622 244.51C60.0472 244.51 58.8942 242.357 58.7342 242.078L56.7792 242.624ZM79.0002 245.793C79.0002 246.164 78.2792 247.779 77.8372 248.448C77.3962 249.116 75.9542 250.435 75.4002 250.25L72.5392 249.414V262.785C72.5392 262.878 72.2032 263.51 71.3602 263.612C68.7762 263.892 68.4202 264 64.6442 264C60.8692 264 58.0572 263.808 56.7992 263.612C55.5412 263.416 55.4152 262.785 55.4152 262.692V249.321L52.0272 250.25C51.4732 250.435 50.4322 249.507 49.7732 248.448C49.1142 247.389 48.9302 245.461 49.0222 245.09C49.0842 244.842 51.0612 243.714 54.9532 241.707L59.4762 240.407C59.4762 240.407 61.0452 243.007 64.3682 243.007C67.6902 243.007 68.4782 240.314 68.4782 240.314L72.9081 241.614C76.9081 244.152 78.9382 245.545 79.0002 245.793Z" fill="#00FCFF"/>
<path fill-rule="evenodd" clip-rule="evenodd" d="M165.375 4.87495L168.238 8.62495H165.375V4.87495ZM162.562 18C162.045 18 161.625 17.58 161.625 17.063C161.625 16.545 162.045 16.125 162.562 16.125C163.08 16.125 163.5 16.545 163.5 17.063C163.5 17.58 163.08 18 162.562 18ZM170.818 9.76995L165.266 3.22095C165.084 3.03595 164.72 2.94395 164.447 3.03595C164.174 3.12795 163.992 3.40495 163.992 3.68195V9.58495H160.261C159.988 9.58495 159.806 9.76995 159.806 10.047V20.4699L156.802 21.761L153.435 18.81C153.162 18.533 152.798 18.533 152.434 18.625L141.694 22.961C141.239 23.145 140.966 23.699 141.148 24.16C141.33 24.529 141.603 24.805 142.058 24.805C142.149 24.805 142.331 24.8049 142.422 24.7129L152.707 20.655L156.074 23.606C156.347 23.883 156.711 23.883 157.075 23.791L159.806 22.5919V24.79C159.806 25.067 159.988 25.252 160.261 25.252H167.177L156.802 29.9559L153.435 27.004C153.162 26.727 152.798 26.727 152.434 26.82L141.603 31.155C141.148 31.34 140.875 31.893 141.057 32.354C141.239 32.723 141.512 33 141.967 33C142.058 33 142.24 33 142.331 32.908L152.616 28.849L155.983 31.801C156.256 32.078 156.62 32.078 156.984 31.985L170.272 25.99C170.818 25.624 171 25.4549 171 24.8829V10.231C171 10.047 170.909 9.95395 170.818 9.76995Z" fill="#00FCFF"/>
<path fill-rule="evenodd" clip-rule="evenodd" d="M262.258 152.677C262.888 153.237 263.068 153.983 262.978 154.729C262.708 155.475 261.988 156.034 261.178 156.034H259.199V164.031V164.218V165.616C259.199 166.176 258.839 166.549 258.299 166.549C257.759 166.549 257.399 166.176 257.399 165.616V164.218V164.124V161.607V161.513V154.076H261.268L257.489 151.092L255.059 149.227L248.131 143.818H247.951L234.813 154.076H237.783H238.683V161.607V161.7V164.218V164.311V165.71C238.683 166.269 238.323 166.642 237.783 166.642C237.243 166.642 236.883 166.269 236.883 165.71V164.311V164.124V156.034H234.903C234.094 156.034 233.374 155.475 233.104 154.729C232.834 153.983 233.104 153.143 233.734 152.677L246.871 142.419C247.591 141.86 248.491 141.86 249.211 142.419L254.969 146.989L259.469 150.532L262.258 152.677ZM259.25 143.219V147.625L254.562 144.062V143.219C254.562 142.562 255.114 142 255.757 142H258.055C258.698 142 259.25 142.562 259.25 143.219ZM242.375 161.687H253.625L251.605 157.937H244.394L242.375 161.687ZM252.218 165.437C252.976 165.437 253.625 164.788 253.625 164.031C253.625 163.274 252.976 162.625 252.218 162.625C251.461 162.625 250.812 163.274 250.812 164.031C250.812 164.788 251.461 165.437 252.218 165.437ZM243.781 165.437C244.538 165.437 245.187 164.788 245.187 164.031C245.187 163.274 244.538 162.625 243.781 162.625C243.024 162.625 242.375 163.274 242.375 164.031C242.375 164.788 243.024 165.437 243.781 165.437ZM255.092 159.556C255.625 159.208 256.004 159.361 256.283 159.664C256.543 160.072 256.476 160.452 256.066 160.808C255.792 161.044 255.535 161.246 255.293 161.413V168.38C255.293 168.884 255.004 169.187 254.521 169.187C254.039 169.187 253.749 168.783 253.749 168.38V167.37H242.264V168.38C242.264 168.884 241.975 169.187 241.492 169.187C241.01 169.187 240.72 168.783 240.72 168.38V161.413V161.312L239.948 160.908C239.562 160.707 239.466 160.303 239.659 159.899C239.852 159.495 240.238 159.394 240.624 159.596L241.299 160L243.133 156.466C243.326 156.163 243.519 156.062 243.809 156.062H251.916C252.205 156.062 252.495 156.264 252.591 156.466L254.425 160C254.514 159.935 254.736 159.787 255.092 159.556Z" fill="#00FCFF"/>
<path fill-rule="evenodd" clip-rule="evenodd" d="M157.08 76.5456H157.68H157.78V76.6456V76.8456V77.0996V77.3996V78.9996H157.68H154.696H154.496V77.2996V77.0996V77.5456V77.3456V76.6456V76.5456H154.696H155.3H155.5H156.529H157.08ZM147.335 53.6086L143.702 60.7556H144.447H144.634H145.193C145.658 60.7556 146.124 61.1316 146.124 61.6956C146.124 62.1666 145.752 62.6366 145.193 62.6366H144.634L142.957 64.0466V65.5516L143.422 65.1756L146.311 62.6366L146.404 62.5426L147.522 61.6016H148.919L147.801 62.5426L147.708 62.6366L144.82 65.1756L142.957 66.8686V68.4666L146.683 65.2696L149.572 62.7306L149.665 62.6366L149.944 62.4486C149.665 62.2606 149.572 61.9776 149.572 61.6956C149.572 61.1316 150.037 60.7556 150.503 60.6616H150.596H151.621H151.714H151.901V52.6676H148.919C148.267 52.6676 147.708 53.0436 147.335 53.6086ZM147.242 73.1696V71.5706L142.957 75.2386C143.05 75.6146 143.329 75.9906 143.609 76.2726L147.242 73.1696ZM151.062 62.6366L147.988 65.2696L142.957 69.5176V71.1946L149.851 65.2696L152.832 62.6366H151.714H151.621H151.062ZM145.752 77.3076L147.149 76.0846V74.4856L144.354 76.9306C144.727 77.1196 145.286 77.3076 145.752 77.3076ZM168.95 53.6086C168.95 52.1976 167.739 50.8806 166.342 50.8806H157.118H156.932H155.534C154.696 50.8806 154.044 51.5396 154.044 52.3856V61.6016V61.7896L154.23 61.6016H155.534H155.721L155.534 61.7896L151.528 65.2696L142.957 72.5236V74.1096L147.429 70.4416V70.1596C147.429 69.5956 147.801 69.2196 148.36 69.2196C148.454 69.2196 148.64 69.2196 148.733 69.3136L153.298 65.3636L155.441 63.4826L157.398 61.7896H158.795L155.348 64.7056L155.162 64.8936L154.603 65.3636L153.764 66.0216L149.106 70.0656V70.1596V70.8186H149.944L159.54 62.5426C159.261 62.3546 159.075 62.0726 159.075 61.6956C159.075 61.2256 159.447 60.7556 160.006 60.7556H168.95V53.6086ZM167.273 62.6366L154.696 73.5456C154.975 73.9216 155.068 74.2976 155.255 74.6736L168.95 62.7306V62.6366H167.273ZM160.845 62.6366L151.249 71.0066C151.621 71.1006 152.087 71.2886 152.46 71.4766L162.615 62.6366H160.845ZM154.044 72.6046C154.044 72.6986 154.137 72.6986 154.137 72.6986L165.876 62.5426H164.106L153.298 71.9466C153.578 72.1346 153.857 72.3226 154.044 72.6046ZM166.808 77.1196C167.739 76.9306 168.485 76.2726 168.857 75.3326L166.808 77.1196ZM165.317 77.2136L168.95 74.0156V72.4166L165.037 75.8966V77.2136H165.317ZM168.95 71.1946V69.5956L164.944 73.0756V74.6736L168.95 71.1946ZM168.95 68.3726V66.7746L164.944 70.2536V71.8526L168.95 68.3726ZM164.572 69.4076L168.95 65.5516V64.0466L160.752 71.1006C161.497 70.8186 162.149 70.7246 162.988 70.7246L163.081 70.6306V70.1596C163.081 69.5956 163.454 69.2196 164.013 69.2196C164.292 69.2196 164.385 69.3136 164.572 69.4076ZM166.249 48.9996C168.857 48.9996 171 51.0686 171 53.5146V74.2036C171 75.5206 170.441 76.7426 169.603 77.5896C168.764 78.4356 167.367 78.9996 166.249 78.9996H163.081V71.7586C162.429 71.7586 161.963 71.8526 161.404 72.0406C160.472 72.3226 159.727 72.6986 159.168 73.3576C158.795 73.7336 158.422 74.2976 158.236 74.7676C158.05 75.2386 157.863 75.6146 157.77 76.0846H157.677H157.211H156.745H156.652C156.745 75.4266 156.932 74.7676 157.304 74.0156L155.627 75.5206C155.627 75.7086 155.721 75.8966 155.721 76.0846H155.162H154.882H154.509C154.509 75.8026 154.23 74.9546 153.857 74.2036C153.671 73.9216 153.205 73.3576 153.205 73.3576C153.019 73.0756 152.739 72.8876 152.46 72.6986C152.18 72.5106 151.808 72.3226 151.528 72.2286C151.155 72.1346 150.969 72.0406 150.503 71.9466C150.224 71.8526 149.572 71.8526 149.292 71.8526V78.9996H145.752C144.634 78.9996 143.422 78.7176 142.491 77.8716C141.559 77.0246 141 75.8026 141 74.3916V64.1406C141 63.3886 141.186 62.7306 141.559 62.1666L142.957 59.5326L146.311 53.0436C146.87 52.1036 147.894 51.5396 148.919 51.5396H151.994C151.994 51.3516 152.087 51.1626 152.18 50.9746C152.739 49.7526 153.95 48.9996 155.255 48.9996H166.249Z" fill="#00FCFF"/>
<path fill-rule="evenodd" clip-rule="evenodd" d="M250.895 57.8676C250.708 57.8676 250.614 57.8676 250.614 57.7736C250.427 57.5866 250.427 57.3056 250.614 57.1186L251.27 56.4626C251.457 56.2756 251.738 56.2756 251.926 56.4626C252.113 56.6496 252.113 56.9306 251.926 57.1186L251.27 57.7736C251.176 57.8676 250.989 57.8676 250.895 57.8676ZM255.861 51.5926C255.58 51.4986 255.299 51.4046 254.83 51.3116H248.553V62.4566V63.0186H249.49H256.704V55.4326L251.926 60.3966C251.832 60.4906 251.645 60.5836 251.551 60.5836C251.457 60.5836 251.363 60.5836 251.27 60.4906C251.082 60.3026 251.082 60.0216 251.27 59.8346L256.798 54.1216V53.1846C256.798 52.8096 256.704 52.4356 256.517 52.1546L253.144 55.6196C253.05 55.7136 252.863 55.8066 252.769 55.8066C252.675 55.8066 252.581 55.8066 252.488 55.7136C252.3 55.5256 252.3 55.2446 252.488 55.0576L255.861 51.5926ZM238.996 53.1846V63.2066H246.21H247.335V62.5506V51.4046H240.776C239.839 51.4046 238.996 52.1546 238.996 53.1846ZM261.951 63.1126C262.419 63.1126 262.794 63.4876 262.794 64.0496C262.794 64.6116 262.419 64.9856 261.857 64.9856H250.989H248.646H247.147H244.805H233.937C233.375 64.9856 233 64.6116 233 64.0496C233 63.4876 233.375 63.1126 233.937 63.1126H237.591V53.1846C237.591 51.4046 238.996 49.9996 240.776 49.9996H255.111C256.891 49.9996 258.297 51.4046 258.297 53.1846V63.1126H261.951ZM259.721 74.7306H261.407H263V75.4806C263 77.0726 261.688 78.1246 260.189 78.1246H258.484H256.61H253.425H250.427H245.555H242.556H239.371H237.497H235.831C234.238 78.1246 233.02 76.9786 233.02 75.4806V74.7306H234.613H236.747H239.277H240.964H243.868H245.648H247.241H248.74H250.333H252.113H255.017H256.704H259.721ZM248.927 74.2116V74.2936H247.054V74.2116V65.8846H248.927V74.2116ZM252.546 74.2936H250.801C251.577 72.9616 252.061 71.2966 252.061 69.5476C252.061 68.2156 251.771 66.9666 251.383 65.8846H253.031C253.418 67.0506 253.612 68.2156 253.612 69.5476C253.612 71.2966 253.224 72.9616 252.546 74.2936ZM242.971 65.8846H244.577C244.176 66.9666 243.875 68.2156 243.875 69.5476C243.875 71.3796 244.377 73.0446 245.18 74.2936H243.473C242.771 72.9616 242.369 71.3796 242.369 69.5476C242.369 68.2156 242.57 66.9666 242.971 65.8846ZM257.192 74.2936H255.486C256.189 72.7956 256.691 71.2136 256.791 69.5476C256.791 68.2156 256.49 66.9666 256.088 65.8846H257.694C258.096 67.0506 258.297 68.2996 258.297 69.5476C258.297 71.2136 257.895 72.8786 257.192 74.2936ZM238.287 65.8846H239.993C239.491 67.0506 239.291 68.2996 239.291 69.5476C239.291 71.2966 239.792 72.8786 240.495 74.2936H238.789C238.086 72.8786 237.684 71.2136 237.684 69.5476C237.684 68.2156 237.885 67.0506 238.287 65.8846ZM261.032 74.2936H259.234C259.908 72.7116 260.358 71.1296 260.245 69.5476C260.245 68.2156 260.021 67.0506 259.683 65.8846H261.482C261.819 67.0506 262.044 68.2996 262.044 69.5476C262.044 71.2136 261.707 72.7956 261.032 74.2936ZM234.499 65.8846H236.298C235.96 67.0506 235.736 68.2996 235.736 69.5476C235.736 71.2136 236.073 72.7956 236.747 74.2936H234.949C234.274 72.7956 233.937 71.2136 233.937 69.5476C233.937 68.2156 234.162 67.0506 234.499 65.8846Z" fill="#00FCFF"/>
<path fill-rule="evenodd" clip-rule="evenodd" d="M255.215 21.6355C255.575 21.3665 255.934 21.4565 256.204 21.7255C256.473 22.0835 256.383 22.4415 256.114 22.7105L255.395 23.2485V29.2515H253.507C253.687 29.5205 253.777 29.7895 253.777 30.0585C253.777 30.7745 253.238 31.3125 252.519 31.3125C251.799 31.3125 251.26 30.7745 251.26 30.0585C251.26 29.6995 251.35 29.4305 251.53 29.2515H244.159C244.339 29.5205 244.429 29.7895 244.429 30.0585C244.429 30.7745 243.89 31.3125 243.171 31.3125C242.452 31.3125 241.912 30.7745 241.912 30.0585C241.912 29.6995 242.002 29.4305 242.182 29.2515H240.564C240.115 29.2515 239.845 28.9825 239.845 28.5345C239.845 28.0865 240.205 27.8185 240.564 27.8185H254.047V22.5315L255.215 21.6355ZM262.226 16.2595C262.855 16.7965 263.125 17.5135 262.945 18.1415C262.675 18.8575 261.956 19.3955 261.147 19.3955H259.17V27.9975V28.2665V28.7145V29.3415V30.1475C259.17 30.6855 258.81 31.0435 258.271 31.0435C257.732 31.0435 257.372 30.6855 257.372 30.1475V29.3415V28.8935V28.7145V28.2665V27.9975V17.6035H261.237L257.462 14.7365L255.035 12.9445L248.114 7.7475H247.934L234.812 17.6035H237.778H238.677V28.2665V28.8935V30.2375C238.677 30.6855 238.317 31.1335 237.778 31.1335C237.328 31.1335 236.879 30.7745 236.879 30.2375V29.4305V28.8035V28.3555V28.0865V19.4855H234.901C234.092 19.4855 233.373 18.9475 233.104 18.2305C232.834 17.5135 233.104 16.7075 233.733 16.2595L246.856 6.4035C247.575 5.8655 248.474 5.8655 249.193 6.4035L254.945 10.7935L259.44 14.1985L262.226 16.2595ZM259.44 11.7795L254.855 8.3745V7.5685C254.855 6.9405 255.395 6.4035 256.024 6.4035H258.271C258.9 6.4035 259.44 6.9405 259.44 7.5685V11.7795ZM252.698 22.8745V26.6535H240.564V21.2775H245.957V23.3375H247.305V22.8745H247.062V16.3125H249.739V18.2985H251.034V16.3125H253.625V22.8745H252.698Z" fill="#00FCFF"/>
<path fill-rule="evenodd" clip-rule="evenodd" d="M11.6161 170.199C11.0871 170.199 10.6591 169.77 10.6591 169.242C10.6591 168.713 11.0871 168.284 11.6161 168.284H24.9231C25.4521 168.284 25.8801 168.713 25.8801 169.242C25.8801 169.77 25.4521 170.199 24.9231 170.199H11.6161ZM21.8881 144.644C26.0511 145.872 28.9181 147.323 28.7671 148.302C28.6711 148.876 28.0971 149.163 27.4271 149.068L7.80113 144.951C7.13113 144.855 6.74813 144.281 6.84413 143.706C6.99413 142.731 10.2011 142.52 14.4851 143.074C15.3091 141.575 17.0451 140.706 18.7751 141.091C20.5101 141.476 21.7521 142.963 21.8881 144.644ZM20.3481 144.217C20.0821 143.384 19.3801 142.696 18.4631 142.493C17.5651 142.293 16.6531 142.639 16.0671 143.305C16.7721 143.42 17.4981 143.554 18.2361 143.706C18.9621 143.868 19.6681 144.039 20.3481 144.217ZM26.6541 162.204C26.4761 162.236 26.2931 162.253 26.1071 162.253H20.6771L22.2921 165.125C22.2921 165.125 23.0581 166.753 21.0481 167.04C21.6221 166.848 21.3351 166.274 21.3351 166.274L20.5691 164.934L19.8031 166.274C19.8031 166.274 19.5161 166.848 20.0901 167.04C18.0801 166.848 18.8461 165.125 18.8461 165.125L20.4611 162.253H15.1241L16.7401 165.125C16.7401 165.125 17.5061 166.753 15.4951 167.04C16.0701 166.848 15.7821 166.274 15.7821 166.274L15.0171 164.934L14.2511 166.274C14.2511 166.274 13.9631 166.848 14.5381 167.04C12.5271 166.848 13.2931 165.125 13.2931 165.125L14.9091 162.253H9.98913C9.69413 162.253 9.40713 162.211 9.13513 162.133L11.1871 164.838C11.1871 164.838 12.1441 166.37 10.2301 166.944C10.7081 166.753 10.4211 166.178 10.4211 166.178L9.46413 164.934L8.89013 166.37C8.89013 166.37 8.79413 166.944 9.36813 167.04C7.35813 167.04 7.83613 165.317 7.83613 165.317L9.06213 162.111C7.78013 161.708 6.82913 160.496 6.82913 159.094V152.215L3.51113 150.463C3.04313 150.216 2.86413 149.637 3.11113 149.169C3.35813 148.702 3.93713 148.523 4.40413 148.77L6.82913 150.05V149.999H29.2661V150.034L31.5861 148.775C32.0501 148.523 32.6311 148.695 32.8841 149.16C33.1361 149.624 32.9641 150.205 32.4991 150.458L29.2661 152.213V159.094C29.2661 160.612 28.1511 161.908 26.7081 162.194L27.7491 165.508C27.7491 165.508 28.1321 167.231 26.1221 166.944C26.6961 166.848 26.6001 166.274 26.6001 166.274L26.1221 164.838L25.0691 165.987C25.0691 165.987 24.7811 166.561 25.2601 166.848C23.3451 166.178 24.3981 164.742 24.3981 164.742L26.6541 162.204Z" fill="#00FCFF"/>
<path fill-rule="evenodd" clip-rule="evenodd" d="M195.85 12.0038H194.323H193.595L197.878 8.35776L201.226 5.50676C201.249 5.48676 201.276 5.48076 201.3 5.46276C201.472 5.33976 201.667 5.26776 201.867 5.26776C201.942 5.26776 202.015 5.28976 202.089 5.30676C202.154 5.32176 202.215 5.34176 202.276 5.37076C202.356 5.40776 202.437 5.44576 202.508 5.50676L205.353 7.92776L205.376 7.94976L205.378 7.95076L208.025 10.2038L209.037 11.0648L210.14 12.0038H208.554H208.025H207.829H207.027L207.426 11.6598L206.596 10.9538L205.377 12.0038H203.85L205.827 10.2988L204.997 9.59376L202.201 12.0038H200.673L204.229 8.93776L203.399 8.23276L199.026 12.0038H197.499L202.631 7.57876L201.867 6.92776L195.906 12.0038H195.85ZM212.121 27.2308H212.802V29.0118C212.802 29.2608 212.755 29.4968 212.685 29.7198C212.681 29.7368 212.677 29.7528 212.672 29.7698C212.637 29.8718 212.595 29.9688 212.547 30.0638C212.534 30.0908 212.522 30.1168 212.508 30.1418C212.461 30.2258 212.411 30.3058 212.355 30.3818C212.331 30.4158 212.305 30.4478 212.28 30.4798C212.228 30.5448 212.172 30.6068 212.112 30.6648C212.074 30.7018 212.035 30.7358 211.995 30.7698C211.938 30.8168 211.883 30.8628 211.822 30.9038C211.768 30.9408 211.711 30.9708 211.655 31.0018C211.599 31.0318 211.547 31.0628 211.489 31.0878C211.415 31.1198 211.336 31.1418 211.258 31.1648C211.211 31.1788 211.167 31.1958 211.119 31.2068C210.99 31.2338 210.858 31.2498 210.721 31.2498H210.72H210.472H208.905H208.236H207.213H206.13H205.646H203.954H202.387H200.695H199.128H197.869H197.437H195.87H194.89H194.179H194.177H193.247C193.225 31.2498 193.205 31.2438 193.183 31.2438C193.02 31.2378 192.864 31.2098 192.714 31.1658C192.344 31.0598 192.017 30.8488 191.761 30.5608C191.541 30.3128 191.372 30.0138 191.273 29.6768C191.228 29.5188 191.194 29.3568 191.181 29.1868C191.177 29.1278 191.164 29.0718 191.164 29.0118V28.3818V27.2308H192.57H192.59V28.5988L194.261 27.2308H195.828L192.922 29.6108C193.018 29.6728 193.126 29.7178 193.247 29.7178H194.481L197.519 27.2308H199.085H199.087L196.049 29.7178H197.741L200.779 27.2308H202.345L199.308 29.7178H201L204.037 27.2308H205.604L202.567 29.7178H204.258L207.296 27.2308H208.863L205.825 29.7178H206.13H207.517L210.554 27.2308H211.377H212.121ZM210.72 29.7178C210.747 29.7178 210.77 29.7048 210.796 29.7008L211.33 29.2638C211.358 29.1848 211.377 29.1018 211.377 29.0118V27.8408L209.084 29.7178H210.72ZM216.897 16.8808C216.902 16.8928 216.912 16.9028 216.917 16.9138C217.107 17.3438 216.96 17.8568 216.591 18.1368C216.422 18.2648 216.207 18.3458 215.956 18.3458H212.802V26.6608H211.625H192.404H191.164V18.3458H188.044C187.061 18.3458 186.625 17.1298 187.391 16.5248L191.629 13.1758H193.837H208.495H210.226H212.372L212.919 13.6078L213.518 14.0808L216.61 16.5248C216.741 16.6288 216.834 16.7518 216.897 16.8808ZM201.081 24.0748C201.379 23.8338 201.612 23.5328 201.779 23.1778C201.945 22.8218 202.029 22.4138 202.029 21.9548C202.029 21.6798 201.984 21.4218 201.894 21.1828C201.803 20.9428 201.673 20.7278 201.505 20.5388C201.335 20.3488 201.129 20.1908 200.884 20.0658C200.64 19.9398 200.366 19.8578 200.059 19.8208V19.7988C200.316 19.7318 200.543 19.6328 200.74 19.4998C200.936 19.3668 201.099 19.2058 201.23 19.0148C201.362 18.8268 201.461 18.6098 201.528 18.3678C201.595 18.1268 201.63 17.8668 201.63 17.5858C201.63 17.2258 201.571 16.9008 201.457 16.6158C201.342 16.3278 201.172 16.0848 200.949 15.8888C200.725 15.6928 200.449 15.5418 200.122 15.4378C199.796 15.3328 199.42 15.2808 198.996 15.2808C198.67 15.2808 198.369 15.3108 198.091 15.3688C197.813 15.4298 197.568 15.5008 197.356 15.5878C197.144 15.6708 196.969 15.7588 196.827 15.8498C196.687 15.9398 196.594 16.0078 196.551 16.0528C196.505 16.0978 196.473 16.1398 196.452 16.1778C196.432 16.2148 196.414 16.2598 196.401 16.3108C196.388 16.3638 196.379 16.4298 196.373 16.5088C196.37 16.5868 196.367 16.6848 196.367 16.8028C196.367 16.9458 196.371 17.0618 196.382 17.1518C196.39 17.2418 196.403 17.3118 196.421 17.3568C196.439 17.4058 196.462 17.4368 196.49 17.4538C196.515 17.4708 196.548 17.4788 196.585 17.4788C196.638 17.4788 196.723 17.4398 196.838 17.3648C196.953 17.2888 197.093 17.2068 197.258 17.1198C197.423 17.0318 197.609 16.9508 197.816 16.8778C198.025 16.8038 198.246 16.7678 198.48 16.7678C198.688 16.7678 198.868 16.7968 199.022 16.8568C199.176 16.9158 199.302 16.9958 199.398 17.0988C199.494 17.2008 199.569 17.3208 199.618 17.4618C199.668 17.6008 199.692 17.7498 199.692 17.9058C199.692 18.1108 199.656 18.2968 199.584 18.4648C199.512 18.6328 199.408 18.7758 199.269 18.8948C199.131 19.0138 198.961 19.1058 198.758 19.1688C198.555 19.2328 198.322 19.2648 198.06 19.2648H197.296C197.241 19.2648 197.195 19.2748 197.157 19.2938C197.118 19.3128 197.087 19.3458 197.062 19.3938C197.036 19.4398 197.018 19.5078 197.008 19.5968C196.996 19.6828 196.991 19.7968 196.991 19.9338C196.991 20.0808 196.996 20.2008 197.008 20.2928C197.018 20.3858 197.038 20.4578 197.065 20.5108C197.092 20.5618 197.126 20.5968 197.166 20.6128C197.207 20.6298 197.256 20.6388 197.316 20.6388H198.074C198.395 20.6388 198.674 20.6718 198.911 20.7378C199.148 20.8038 199.344 20.8988 199.499 21.0188C199.655 21.1398 199.772 21.2848 199.851 21.4568C199.931 21.6268 199.97 21.8188 199.97 22.0318C199.97 22.2278 199.937 22.4048 199.872 22.5628C199.806 22.7218 199.707 22.8568 199.575 22.9688C199.441 23.0798 199.28 23.1668 199.089 23.2278C198.9 23.2888 198.682 23.3208 198.432 23.3208C198.139 23.3208 197.877 23.2878 197.647 23.2248C197.417 23.1608 197.215 23.0908 197.045 23.0188C196.872 22.9448 196.731 22.8758 196.621 22.8118C196.511 22.7478 196.433 22.7158 196.388 22.7158C196.316 22.7158 196.262 22.7598 196.226 22.8468C196.188 22.9348 196.171 23.0928 196.171 23.3208C196.171 23.4578 196.174 23.5758 196.181 23.6728C196.187 23.7698 196.199 23.8498 196.215 23.9148C196.23 23.9788 196.249 24.0348 196.269 24.0818C196.289 24.1298 196.32 24.1718 196.36 24.2098C196.401 24.2478 196.486 24.3018 196.618 24.3738C196.748 24.4448 196.915 24.5138 197.116 24.5798C197.317 24.6468 197.548 24.7018 197.81 24.7468C198.072 24.7918 198.352 24.8138 198.65 24.8138C199.142 24.8138 199.596 24.7518 200.012 24.6258C200.426 24.5008 200.784 24.3178 201.081 24.0748ZM208.426 16.8028C208.451 16.7468 208.469 16.6688 208.481 16.5718C208.493 16.4738 208.498 16.3548 208.498 16.2118C208.498 16.0708 208.493 15.9498 208.481 15.8498C208.469 15.7498 208.451 15.6708 208.426 15.6118C208.402 15.5518 208.373 15.5098 208.342 15.4828C208.309 15.4578 208.274 15.4438 208.232 15.4438H204.109C203.959 15.4438 203.835 15.4908 203.732 15.5828C203.631 15.6748 203.58 15.8258 203.58 16.0338V24.3798C203.58 24.4328 203.595 24.4768 203.624 24.5158C203.653 24.5538 203.702 24.5858 203.77 24.6118C203.838 24.6378 203.928 24.6568 204.045 24.6718C204.159 24.6868 204.302 24.6938 204.475 24.6938C204.65 24.6938 204.795 24.6868 204.907 24.6718C205.021 24.6568 205.112 24.6378 205.181 24.6118C205.253 24.5858 205.3 24.5538 205.329 24.5158C205.354 24.4768 205.368 24.4328 205.368 24.3798V20.9518H208.057C208.098 20.9518 208.134 20.9378 208.166 20.9128C208.197 20.8858 208.225 20.8418 208.25 20.7798C208.275 20.7198 208.293 20.6418 208.304 20.5458C208.315 20.4498 208.321 20.3318 208.321 20.1898C208.321 20.0468 208.315 19.9288 208.304 19.8338C208.293 19.7398 208.275 19.6638 208.25 19.6058C208.225 19.5508 208.197 19.5088 208.166 19.4848C208.134 19.4628 208.098 19.4498 208.057 19.4498H205.368V16.9738H208.232C208.274 16.9738 208.309 16.9598 208.342 16.9308C208.373 16.9018 208.402 16.8608 208.426 16.8028ZM212.904 11.0518L210.275 9.09776L207.905 7.33476V6.23476C207.905 5.55276 208.464 4.99976 209.154 4.99976H211.654C212.344 4.99976 212.904 5.55276 212.904 6.23476V11.0518Z" fill="#00FCFF"/>
<path fill-rule="evenodd" clip-rule="evenodd" d="M212.088 73.2544H212.769V75.0254C212.769 75.3814 212.683 75.7134 212.544 76.0124C212.533 76.0364 212.52 76.0594 212.508 76.0834C212.413 76.2714 212.301 76.4484 212.161 76.5984C212.144 76.6164 212.125 76.6284 212.108 76.6464C211.975 76.7794 211.825 76.8894 211.662 76.9824C211.372 77.1464 211.045 77.2504 210.693 77.2504H210.445H208.882H208.216H207.195H206.117H205.633H203.947H202.384H200.698H199.137H197.88H197.449H195.887H194.91H194.2H193.272C193.262 77.2504 193.251 77.2484 193.24 77.2474C193.23 77.2454 193.22 77.2444 193.208 77.2434C193.127 77.2414 193.052 77.2184 192.974 77.2054C192.896 77.1914 192.815 77.1874 192.74 77.1664C192.373 77.0614 192.047 76.8524 191.791 76.5654C191.68 76.4424 191.584 76.3054 191.501 76.1584C191.419 76.0124 191.353 75.8544 191.304 75.6864C191.259 75.5294 191.225 75.3684 191.212 75.1984C191.208 75.1414 191.195 75.0844 191.195 75.0254V74.3974V73.2544H192.597H192.616V74.6154L194.282 73.2544H195.844L192.948 75.6204C193.044 75.6814 193.151 75.7264 193.272 75.7264H194.503L197.532 73.2544H199.093L196.066 75.7264H197.753L200.78 73.2544H202.342L199.315 75.7264H201.002L204.029 73.2544H205.591L202.564 75.7264H204.25L207.278 73.2544H208.84L205.812 75.7264H206.117H207.499L210.526 73.2544H211.348H212.088ZM210.693 75.7264C210.719 75.7264 210.742 75.7144 210.768 75.7104L211.301 75.2754C211.329 75.1964 211.348 75.1134 211.348 75.0254V73.8604L209.061 75.7264H210.693ZM193.889 58.2704H193.156L200.846 51.5254C200.916 51.4644 200.995 51.4264 201.074 51.3884C201.208 51.3224 201.348 51.2784 201.492 51.2784C201.504 51.2784 201.516 51.2844 201.529 51.2854C201.591 51.2894 201.654 51.3044 201.715 51.3194C201.778 51.3334 201.84 51.3544 201.9 51.3814C201.981 51.4164 202.059 51.4594 202.13 51.5214C202.132 51.5234 202.136 51.5244 202.137 51.5254L207.697 56.4014L208.716 57.2954L209.827 58.2704H208.229H207.697H207.5H206.691L207.092 57.9124L206.255 57.1804L205.028 58.2704H203.49L205.481 56.5014L204.645 55.7684L201.828 58.2704H200.289L203.871 55.0884L203.035 54.3564L198.628 58.2704H197.09L202.261 53.6774L201.492 53.0004L195.484 58.2704H195.428H193.889ZM213.49 60.3504L216.606 62.7174C217.089 63.0844 217.098 63.6814 216.795 64.0784C216.612 64.3164 216.319 64.4824 215.947 64.4824H212.769V72.5384H211.324H191.957H191.195V64.4824H188.052C187.061 64.4824 186.621 63.3044 187.394 62.7174L191.663 59.4734H193.399H208.17H209.915H212.336L212.886 59.8914L213.49 60.3504ZM201.628 70.4264C201.651 70.3654 201.668 70.2884 201.678 70.1954C201.69 70.1004 201.696 69.9874 201.696 69.8534C201.696 69.7254 201.688 69.6134 201.676 69.5194C201.662 69.4254 201.641 69.3484 201.614 69.2914C201.586 69.2344 201.554 69.1924 201.516 69.1644C201.476 69.1374 201.435 69.1224 201.389 69.1224H197.908L198.939 68.0534C199.457 67.5344 199.874 67.0794 200.188 66.6864C200.502 66.2934 200.745 65.9344 200.918 65.6114C201.091 65.2864 201.205 64.9844 201.259 64.7034C201.314 64.4234 201.341 64.1384 201.341 63.8484C201.341 63.5184 201.285 63.2094 201.174 62.9224C201.062 62.6354 200.893 62.3874 200.666 62.1774C200.438 61.9684 200.153 61.8054 199.809 61.6884C199.466 61.5714 199.064 61.5124 198.605 61.5124C198.313 61.5124 198.034 61.5404 197.765 61.5944C197.496 61.6514 197.252 61.7184 197.029 61.7984C196.804 61.8794 196.617 61.9614 196.466 62.0464C196.313 62.1314 196.208 62.2014 196.152 62.2564C196.095 62.3124 196.055 62.3594 196.032 62.3984C196.01 62.4374 195.99 62.4834 195.978 62.5364C195.964 62.5894 195.953 62.6504 195.947 62.7224C195.94 62.7934 195.937 62.8824 195.937 62.9874C195.937 63.1434 195.942 63.2764 195.953 63.3844C195.965 63.4914 195.98 63.5784 195.998 63.6424C196.016 63.7074 196.04 63.7534 196.069 63.7804C196.099 63.8074 196.135 63.8214 196.176 63.8214C196.235 63.8214 196.316 63.7864 196.421 63.7144C196.526 63.6434 196.657 63.5654 196.813 63.4814C196.97 63.3954 197.152 63.3184 197.36 63.2494C197.566 63.1804 197.803 63.1464 198.072 63.1464C198.263 63.1464 198.43 63.1734 198.57 63.2324C198.711 63.2894 198.829 63.3684 198.921 63.4704C199.016 63.5714 199.086 63.6894 199.135 63.8244C199.182 63.9604 199.206 64.1034 199.206 64.2564C199.206 64.4214 199.185 64.5954 199.147 64.7804C199.108 64.9644 199.036 65.1644 198.933 65.3834C198.828 65.6014 198.682 65.8434 198.496 66.1074C198.309 66.3714 198.063 66.6644 197.758 66.9864L196.23 68.6404C196.139 68.7374 196.064 68.8244 196.008 68.9054C195.951 68.9864 195.905 69.0694 195.868 69.1534C195.831 69.2384 195.807 69.3344 195.793 69.4424C195.78 69.5514 195.772 69.6804 195.772 69.8324C195.772 69.9934 195.783 70.1244 195.803 70.2264C195.824 70.3264 195.857 70.4034 195.903 70.4574C195.948 70.5104 196.007 70.5454 196.08 70.5624C196.153 70.5824 196.238 70.5914 196.339 70.5914H201.416C201.461 70.5914 201.502 70.5784 201.539 70.5534C201.576 70.5284 201.605 70.4854 201.628 70.4264ZM208.1 62.9874C208.126 62.9334 208.144 62.8574 208.156 62.7634C208.168 62.6684 208.173 62.5534 208.173 62.4154C208.173 62.2784 208.168 62.1604 208.156 62.0644C208.144 61.9674 208.126 61.8904 208.1 61.8334C208.076 61.7754 208.048 61.7344 208.016 61.7084C207.983 61.6844 207.946 61.6714 207.905 61.6714H203.75C203.6 61.6714 203.474 61.7154 203.371 61.8054C203.269 61.8944 203.218 62.0414 203.218 62.2424V70.3284C203.218 70.3794 203.233 70.4224 203.262 70.4604C203.292 70.4974 203.341 70.5284 203.409 70.5534C203.477 70.5784 203.569 70.5974 203.686 70.6114C203.801 70.6264 203.945 70.6324 204.12 70.6324C204.296 70.6324 204.442 70.6264 204.555 70.6114C204.67 70.5974 204.761 70.5784 204.831 70.5534C204.903 70.5284 204.951 70.4974 204.98 70.4604C205.006 70.4224 205.019 70.3794 205.019 70.3284V67.0064H207.729C207.77 67.0064 207.806 66.9934 207.838 66.9694C207.869 66.9434 207.898 66.9004 207.923 66.8414C207.948 66.7824 207.966 66.7064 207.977 66.6134C207.989 66.5214 207.995 66.4064 207.995 66.2694C207.995 66.1314 207.989 66.0154 207.977 65.9244C207.966 65.8324 207.948 65.7594 207.923 65.7034C207.898 65.6494 207.869 65.6094 207.838 65.5854C207.806 65.5644 207.77 65.5524 207.729 65.5524H205.019V63.1534H207.905C207.946 63.1534 207.983 63.1394 208.016 63.1114C208.048 63.0834 208.076 63.0434 208.1 62.9874ZM212.612 57.2834L209.964 55.2534L207.576 53.4234V52.2824C207.576 51.5744 208.139 51.0004 208.834 51.0004H211.353C212.049 51.0004 212.612 51.5744 212.612 52.2824V57.2834Z" fill="#00FCFF"/>
<path fill-rule="evenodd" clip-rule="evenodd" d="M211.83 111.583H213.25V121.13C213.25 122.301 212.321 123.25 211.174 123.25H210.713H209.472H208.699H207.466H206.601H206.226H204.219H203.3H203.297H202.979H200.973H199.732H198.369H197.726H196.485H195.4H194.479H193.762C193.6 123.25 193.444 123.224 193.289 123.187C193.182 123.161 193.076 123.131 192.976 123.088C192.838 123.03 192.71 122.954 192.588 122.867C192.368 122.709 192.182 122.509 192.036 122.276C191.855 121.989 191.732 121.658 191.704 121.296C191.701 121.26 191.698 121.226 191.693 121.191C191.691 121.171 191.688 121.151 191.688 121.13V118.776V117.277V114.854V113.356V111.601V111.583H193.107H194.398L193.107 113.139V115.562L196.388 111.601H197.629L193.107 117.06V119.484L194.662 117.607L197.254 114.478L199.636 111.601H200.876L197.976 115.102L195.384 118.233L193.107 120.982V121.065C193.113 121.108 193.117 121.145 193.12 121.183C193.147 121.534 193.424 121.799 193.763 121.799H194.439L202.882 111.601H204.123L195.679 121.799H197.685L206.13 111.601H207.371L198.927 121.799H200.933L209.377 111.601H210.617L202.174 121.799H204.18L211.83 112.56V111.601V111.583ZM206.959 122.277H207.805L212.313 116.934V114.5L207.321 120.417L205.75 122.277H206.959ZM208.591 122.277L211.437 122.276L212.313 121.192V119.233L209.734 122.276L208.591 122.277ZM216.939 108.974C216.933 108.994 216.919 109.008 216.91 109.028C216.88 109.097 216.847 109.167 216.801 109.227C216.799 109.229 216.797 109.23 216.795 109.233C216.618 109.464 216.333 109.624 215.973 109.624H214.049H212.871H211.437H192.53H191.096H189.607H188.027C187.06 109.624 186.631 108.467 187.385 107.891L201.339 97.2212C201.532 97.0742 201.765 97.0002 202 97.0002C202.204 97.0002 202.403 97.0672 202.58 97.1782C202.606 97.1952 202.637 97.2022 202.662 97.2212L208.358 101.577L209.402 102.375L212.986 105.115L213.574 105.565L215.862 107.315L216.616 107.891C216.993 108.18 217.074 108.613 216.939 108.974ZM204.709 107.416C204.728 107.364 204.741 107.299 204.75 107.222C204.76 107.144 204.765 107.048 204.765 106.935C204.765 106.82 204.76 106.724 204.75 106.646C204.741 106.569 204.728 106.506 204.709 106.459C204.69 106.411 204.667 106.377 204.639 106.356C204.611 106.335 204.578 106.325 204.541 106.325H202.26V100.397C202.26 100.358 202.248 100.324 202.224 100.294C202.2 100.263 202.159 100.239 202.103 100.22C202.047 100.201 201.973 100.185 201.879 100.175C201.786 100.163 201.666 100.158 201.521 100.158C201.379 100.158 201.26 100.163 201.165 100.175C201.07 100.185 200.994 100.201 200.938 100.22C200.882 100.239 200.842 100.263 200.818 100.294C200.793 100.324 200.781 100.358 200.781 100.397V107.088C200.781 107.255 200.824 107.375 200.907 107.45C200.991 107.524 201.095 107.56 201.218 107.56H204.541C204.578 107.56 204.611 107.549 204.639 107.527C204.667 107.504 204.69 107.467 204.709 107.416ZM213.25 102.833L210.785 100.949L208.563 99.2502V98.1902C208.563 97.5322 209.087 97.0002 209.734 97.0002H212.079C212.726 97.0002 213.25 97.5322 213.25 98.1902V102.833Z" fill="#00FCFF"/>
<path fill-rule="evenodd" clip-rule="evenodd" d="M212.894 155.112H212.874V157.692H212.894H213.851H214.806H215.883C216.166 157.692 216.414 157.825 216.589 158.026C216.74 158.201 216.84 158.426 216.84 158.68C216.84 159.225 216.412 159.668 215.883 159.668H214.806H213.851H212.894V166.363C212.894 167.559 211.956 168.528 210.798 168.528H210.778H208.298H208.277H206.178H206.158H197.864H197.842H194.864H194.844H193.21H193.19C192.64 168.528 192.141 168.308 191.77 167.949C191.398 167.589 191.154 167.09 191.11 166.532C191.106 166.475 191.094 166.42 191.094 166.363V159.778V159.668H190.159H189.201H188.404C187.876 159.668 187.448 159.225 187.448 158.68C187.448 158.134 187.876 157.692 188.404 157.692H188.495H189.201H190.159H191.094V157.219V155.112H190.639H189.421H188.045H188.024C187.683 155.112 187.412 154.961 187.234 154.746C187.222 154.732 187.207 154.723 187.197 154.71C186.91 154.327 186.917 153.759 187.344 153.391C187.358 153.378 187.366 153.364 187.382 153.35L187.886 152.959L188.059 152.824L190.63 150.826L191.551 150.11L192.897 149.064L193.458 148.629L193.805 148.359L195.694 146.89L195.696 146.888L198.686 144.565L198.687 144.564L199.992 143.55L201.339 142.503C201.412 142.447 201.495 142.411 201.579 142.375C201.596 142.368 201.616 142.364 201.633 142.357C201.659 142.348 201.685 142.338 201.711 142.331C201.791 142.306 201.872 142.289 201.955 142.284C201.969 142.283 201.985 142.279 202 142.279C202.003 142.279 202.007 142.28 202.011 142.28C202.213 142.282 202.411 142.348 202.587 142.464C202.611 142.479 202.639 142.486 202.662 142.503L204.01 143.55L204.508 143.938L205.271 144.532L206.566 145.537L207.331 146.132L208.36 146.931L208.626 147.138L209.39 147.733L209.404 147.743L210.197 148.359L210.544 148.629L210.684 148.738L211.449 149.332L211.484 149.359L212.451 150.11L212.743 150.339L212.989 150.529L213.508 150.932L213.577 150.987L214.802 151.938L215.106 152.174L215.437 152.432L215.183 152.218L216.64 153.35C216.756 153.441 216.834 153.546 216.897 153.658L216.865 153.63C217.005 153.862 217.031 154.128 216.967 154.37C216.859 154.774 216.496 155.112 215.976 155.112H215.106H213.598H212.894ZM207.575 150.11L204.863 153.665L201.791 157.692H203.853L208.844 151.151L209.638 150.11L209.796 149.903L209.048 149.32L208.542 148.927L208.501 148.896L208.36 149.083L208.189 149.306L207.575 150.11ZM211.855 151.502L211.403 151.151L210.561 150.496L210.061 151.151L205.071 157.692H207.133L211.855 151.502ZM204.577 160.307C204.477 160.097 204.335 159.925 204.161 159.778C204.136 159.759 204.118 159.732 204.092 159.713C204.068 159.695 204.038 159.684 204.013 159.668C203.916 159.603 203.812 159.543 203.696 159.494C203.576 159.443 203.452 159.398 203.312 159.363C203.121 159.315 202.894 159.287 202.65 159.268C202.501 159.258 202.351 159.247 202.183 159.247H200.605H200.362C200.239 159.247 200.135 159.285 200.051 159.359C199.978 159.425 199.943 159.533 199.933 159.668C199.932 159.689 199.925 159.704 199.925 159.727V159.778V166.257C199.925 166.428 199.967 166.551 200.051 166.625C200.135 166.701 200.239 166.739 200.362 166.739H202.29C202.581 166.739 202.845 166.719 203.083 166.683C203.32 166.647 203.543 166.59 203.753 166.513C203.962 166.435 204.153 166.337 204.326 166.216C204.501 166.097 204.65 165.955 204.775 165.788C204.9 165.623 204.999 165.432 205.069 165.216C205.141 165 205.176 164.758 205.176 164.492C205.176 164.237 205.139 164.007 205.064 163.802C204.989 163.598 204.887 163.42 204.759 163.267C204.629 163.115 204.477 162.99 204.304 162.895C204.131 162.798 203.941 162.73 203.736 162.692C203.896 162.63 204.039 162.549 204.165 162.448C204.289 162.348 204.395 162.233 204.481 162.1C204.567 161.97 204.632 161.824 204.677 161.665C204.722 161.504 204.744 161.333 204.744 161.152C204.744 160.828 204.688 160.546 204.577 160.307ZM210.412 157.692L211.439 156.347V155.112V153.643L208.35 157.692H210.412ZM212.715 152.17L212.62 152.096L211.449 153.631H212.874H213.511L213.914 153.102L212.715 152.17ZM207.737 148.302L206.442 147.296L205.632 148.359L205.425 148.629L204.948 149.255L204.294 150.11L198.51 157.692H200.573L204.111 153.054L204.878 152.051L206.357 150.11L206.986 149.288L207.488 148.629L207.695 148.359L207.737 148.302ZM205.678 146.702L204.384 145.696L202.352 148.359L202.145 148.629L201.707 149.205L201.016 150.11L195.232 157.692H197.293L203.078 150.11L203.745 149.236L204.209 148.629L204.414 148.359L205.678 146.702ZM201.134 148.359L203.618 145.102L202.325 144.095L199.072 148.359L198.866 148.629L198.466 149.152L197.735 150.11L192.529 156.934V157.692H194.013L199.797 150.11L200.504 149.185L200.928 148.629L201.134 148.359ZM189.408 153.631H190.552L192.219 151.446L189.408 153.631ZM193.94 150.785L191.77 153.631H192.529V155.112V155.339L196.518 150.11L197.264 149.134L197.649 148.629L197.855 148.359L200.277 145.183L196.191 148.359L195.844 148.629L195.235 149.101L195.211 149.12L194.456 150.11L193.942 150.784L193.94 150.785ZM202.755 162.198C202.587 162.252 202.364 162.279 202.084 162.279H201V160.279H201.981C202.281 160.279 202.52 160.301 202.699 160.344C202.878 160.387 203.028 160.45 203.146 160.531C203.265 160.613 203.353 160.715 203.412 160.838C203.471 160.961 203.5 161.1 203.5 161.255C203.5 161.393 203.472 161.526 203.419 161.651C203.366 161.776 203.281 161.885 203.172 161.979C203.061 162.071 202.923 162.145 202.755 162.198ZM203.136 163.55C203.255 163.638 203.346 163.745 203.407 163.874C203.469 164.002 203.5 164.148 203.5 164.311C203.5 164.467 203.468 164.605 203.405 164.726C203.34 164.848 203.252 164.949 203.139 165.03C203.027 165.113 202.894 165.174 202.74 165.215C202.585 165.257 202.395 165.279 202.17 165.279H201V163.279H201.961C202.256 163.279 202.496 163.302 202.681 163.349C202.866 163.397 203.017 163.463 203.136 163.55ZM212.836 148.272L210.157 146.257L207.7 144.409V143.284C207.7 142.575 208.274 142 208.983 142H211.552C212.261 142 212.836 142.575 212.836 143.284V148.272Z" fill="#00FCFF"/>
<path fill-rule="evenodd" clip-rule="evenodd" d="M240.838 118.943C240.156 118.943 239.465 118.126 239.003 117.178C238.231 115.597 237.771 113.404 237.771 112.168C237.771 110.19 239.148 109.24 240.838 109.24H245.461V108.828C245.461 108.237 245.663 107.693 245.997 107.244C246.129 107.068 246.285 106.912 246.455 106.77C246.612 106.639 246.783 106.527 246.966 106.431C247.376 106.216 247.837 106.084 248.337 106.084C248.834 106.084 249.296 106.216 249.705 106.431C249.89 106.527 250.061 106.639 250.218 106.77C250.394 106.917 250.557 107.078 250.691 107.263C251.016 107.707 251.211 108.246 251.211 108.828V109.24H255.834C257.527 109.24 258.902 110.554 258.902 112.168V112.233L258.895 112.298L258.774 113.5L258.769 113.543L258.763 113.588L258.713 113.881L258.669 114.145L258.572 114.712L258.421 115.595L258.222 116.771L258.184 116.993L258.132 117.298C258.011 117.908 257.574 118.549 256.87 118.811C256.735 118.86 256.585 118.891 256.431 118.912C256.351 118.922 256.272 118.935 256.186 118.935C255.958 118.935 255.74 118.89 255.532 118.817C255.515 118.811 255.498 118.809 255.481 118.802C255.241 118.711 255.022 118.572 254.834 118.389C254.796 118.352 254.766 118.31 254.732 118.27C254.504 118.008 254.362 117.707 254.29 117.432C254.279 117.392 254.265 117.35 254.256 117.312C254.254 117.301 254.247 117.289 254.246 117.28C254.244 117.29 254.24 117.301 254.237 117.312C254.225 117.379 254.194 117.444 254.175 117.511C254.122 117.686 254.045 117.853 253.944 118.013C253.731 118.352 253.423 118.645 253.013 118.801C252.795 118.885 252.554 118.935 252.29 118.935C252.194 118.935 252.105 118.92 252.014 118.907C251.865 118.883 251.721 118.849 251.585 118.796C251.357 118.706 251.159 118.563 250.979 118.393C250.869 118.289 250.771 118.172 250.684 118.041C250.541 117.826 250.422 117.588 250.357 117.312C250.356 117.308 250.353 117.304 250.351 117.303L250.349 117.312L250.338 117.363L250.326 117.404C250.208 117.862 249.859 118.391 249.308 118.692C249.246 118.726 249.192 118.771 249.123 118.799C248.91 118.883 248.673 118.935 248.408 118.935C248.16 118.935 247.923 118.887 247.702 118.801C247.648 118.781 247.599 118.75 247.549 118.724C247.362 118.634 247.187 118.524 247.038 118.374C246.72 118.056 246.541 117.653 246.476 117.312C246.475 117.307 246.471 117.301 246.47 117.297C246.467 117.303 246.466 117.309 246.466 117.312C246.442 117.477 245.592 118.943 244.511 118.943C243.429 118.943 242.817 118.013 242.554 117.426C242.521 117.794 241.967 118.943 240.838 118.943ZM246.899 110.612H240.838C239.942 110.612 239.209 111.312 239.209 112.168C239.693 115.764 240.236 117.563 240.838 117.563C241.474 117.563 241.75 114.266 241.75 114.266C241.867 113.955 242.165 113.733 242.521 113.733H242.641C242.997 113.733 243.294 113.955 243.411 114.266C243.413 114.273 243.418 114.279 243.421 114.287C243.432 114.319 243.452 114.348 243.459 114.384C243.725 116.594 244.076 117.657 244.511 117.571C244.945 117.485 245.306 116.42 245.592 114.377C245.6 114.344 245.618 114.318 245.63 114.287C245.631 114.279 245.638 114.274 245.641 114.266C245.674 114.178 245.719 114.096 245.781 114.025C245.808 113.996 245.845 113.978 245.875 113.954C246.007 113.839 246.167 113.755 246.356 113.742C246.366 113.742 246.378 113.737 246.389 113.737C246.397 113.737 246.403 113.733 246.41 113.733H246.53C246.595 113.733 246.653 113.751 246.714 113.765C246.84 113.793 246.959 113.838 247.057 113.915C247.205 114.03 247.312 114.192 247.35 114.384C247.35 114.384 247.697 116.123 247.828 116.771C247.848 116.878 247.865 116.958 247.87 116.993C247.874 117.007 247.88 117.046 247.88 117.046C247.88 117.046 247.976 117.563 248.408 117.563C248.814 117.563 248.937 117.057 248.937 117.057L248.939 117.041L248.949 116.993L248.994 116.771L249.483 114.377C249.512 114.235 249.587 114.116 249.682 114.014C249.761 113.926 249.857 113.857 249.967 113.808C250.068 113.762 250.181 113.733 250.3 113.733H250.42C250.56 113.733 250.684 113.778 250.799 113.838C250.821 113.849 250.847 113.857 250.87 113.871C251.019 113.964 251.128 114.102 251.191 114.266C251.193 114.273 251.199 114.279 251.201 114.287C251.213 114.319 251.233 114.348 251.24 114.384L251.373 115.06L251.436 115.384L251.71 116.771L251.753 116.993L251.764 117.041C251.764 117.041 251.876 117.563 252.29 117.563C252.756 117.563 252.83 117.041 252.83 117.041L252.84 116.993L252.885 116.771L253.168 115.384L253.233 115.06L253.374 114.377C253.38 114.344 253.399 114.318 253.41 114.287C253.412 114.279 253.417 114.273 253.42 114.266C253.537 113.955 253.835 113.733 254.191 113.733H254.311C254.667 113.733 254.964 113.955 255.081 114.266C255.083 114.273 255.089 114.279 255.092 114.287C255.103 114.319 255.122 114.348 255.13 114.384C255.13 114.384 255.188 114.675 255.265 115.06C255.285 115.164 255.307 115.27 255.33 115.384C255.432 115.896 255.544 116.458 255.606 116.771C255.628 116.879 255.643 116.957 255.651 116.993C255.653 117.007 255.66 117.046 255.66 117.046C255.66 117.046 255.759 117.563 256.186 117.563C256.617 117.563 256.721 117.041 256.721 117.041L256.728 116.993L256.766 116.771L256.956 115.652L257.055 115.073L257.145 114.533L257.187 114.29L257.32 113.507L257.335 113.423L257.343 113.368L257.464 112.168C257.464 111.312 256.731 110.612 255.834 110.612H249.774V109.532V108.828C249.774 108.685 249.731 108.553 249.689 108.423C249.612 108.191 249.486 107.985 249.302 107.826C249.046 107.601 248.711 107.456 248.337 107.456C247.962 107.456 247.627 107.601 247.37 107.826C247.188 107.986 247.061 108.191 246.985 108.423C246.942 108.553 246.899 108.685 246.899 108.828V109.497V110.612ZM259.776 116.771H263V121.519C263 122.958 261.779 124.125 260.271 124.125H235.73C234.223 124.125 233 122.958 233 121.519V116.771H236.403C236.956 119.938 237.891 121.521 239.209 121.521C241.184 121.521 241.487 120.448 241.792 120.056C241.853 120.263 242.345 121.521 243.998 121.521C245.651 121.521 246.164 120.217 246.22 119.998C246.335 120.394 247.029 121.521 248.417 121.517C249.264 121.514 249.999 121.008 250.622 119.998L250.631 120.026C251.053 121.023 251.783 121.52 252.819 121.517C254.374 121.512 254.81 120.754 255.03 120.007L255.038 119.982C255.168 120.431 255.699 121.521 257.239 121.517C258.872 121.512 259.717 119.93 259.776 116.771ZM246.172 105.467C246.012 105.564 245.857 105.67 245.714 105.789C245.419 104.218 245.277 102.546 245.277 101.337C245.277 96.925 246.828 96 248.129 96C249.431 96 250.981 96.925 250.981 101.337C250.981 102.576 250.846 104.243 250.558 105.802C250.411 105.677 250.253 105.568 250.087 105.467C249.933 105.372 249.771 105.294 249.602 105.222C249.149 105.029 248.655 104.912 248.129 104.912C247.605 104.912 247.111 105.029 246.656 105.222C246.489 105.293 246.327 105.372 246.172 105.467Z" fill="#00FCFF"/>
<path fill-rule="evenodd" clip-rule="evenodd" d="M288.527 68.122H299.453V64.288H288.527V68.122ZM285.243 72.529C284.263 72.529 283.468 71.744 283.468 70.776V61.236C283.468 60.268 284.263 59.483 285.243 59.483C286.223 59.483 287.018 60.268 287.018 61.236V70.776C287.018 71.744 286.223 72.529 285.243 72.529ZM281.046 70.07C280.367 70.07 279.817 69.526 279.817 68.857V63.154C279.817 62.484 280.367 61.94 281.046 61.94C281.725 61.94 282.275 62.484 282.275 63.154V68.857C282.275 69.526 281.725 70.07 281.046 70.07ZM302.738 72.529C301.758 72.529 300.963 71.744 300.963 70.776V61.236C300.963 60.268 301.758 59.483 302.738 59.483C303.718 59.483 304.513 60.268 304.513 61.236V70.776C304.513 71.744 303.718 72.529 302.738 72.529ZM306.935 70.07C306.256 70.07 305.706 69.526 305.706 68.857V63.154C305.706 62.484 306.256 61.94 306.935 61.94C307.614 61.94 308.164 62.484 308.164 63.154V68.857C308.164 69.526 307.614 70.07 306.935 70.07Z" fill="#00FCFF"/>
<path fill-rule="evenodd" clip-rule="evenodd" d="M302.726 113.491C301.914 113.487 301.204 112.77 301.211 111.956C301.214 111.141 301.929 110.432 302.741 110.437C303.554 110.44 304.261 111.157 304.258 111.972C304.253 112.787 303.539 113.493 302.726 113.491ZM299.455 110.179C298.642 110.173 297.933 109.457 297.94 108.643C297.943 107.828 298.658 107.119 299.47 107.122C300.283 107.128 300.99 107.844 300.985 108.659C300.982 109.473 300.268 110.182 299.455 110.179ZM289.169 111.182L287.793 111.176L287.786 112.554C287.783 113.047 287.385 113.443 286.894 113.44C286.404 113.438 286.008 113.037 286.01 112.545L286.018 111.167L284.642 111.16C284.152 111.157 283.757 110.757 283.758 110.265C283.761 109.773 284.161 109.378 284.651 109.379L286.027 109.387L286.034 108.009C286.036 107.517 286.436 107.121 286.927 107.122C287.417 107.126 287.812 107.527 287.809 108.019L287.802 109.395L289.179 109.404C289.668 109.407 290.064 109.806 290.062 110.298C290.059 110.788 289.659 111.186 289.169 111.182ZM307.363 118.856C307.501 119.949 307.188 121.332 305.839 121.961C304.896 122.47 303.638 122.071 303.037 121.071L301.097 118.331C301.447 117.855 301.654 117.268 301.654 116.633C301.654 115.047 300.369 113.763 298.784 113.763C297.198 113.763 295.914 115.047 295.914 116.633C295.914 116.715 295.916 116.795 295.924 116.876L292.723 116.855C292.725 116.831 292.725 116.807 292.725 116.782C292.725 115.197 291.44 113.912 289.855 113.912C288.27 113.912 286.985 115.197 286.985 116.782C286.985 117.167 287.06 117.533 287.198 117.869L284.984 120.927C284.194 122.127 282.77 122.325 281.649 121.438C280.866 120.743 280.474 119.693 280.65 118.747L282.344 109.196C282.73 106.737 284.837 104.822 287.142 104.834H293.833V101.72C293.833 100.841 294.547 100.126 295.426 100.126H300.133V98.4572C300.133 97.9282 300.562 97.5002 301.09 97.5002C301.619 97.5002 302.046 97.9282 302.046 98.4572V100.445C302.046 101.324 301.332 102.039 300.453 102.039H295.744V104.834H300.998C303.302 104.847 305.404 106.876 305.772 109.366L307.363 118.856ZM289.919 115.173C290.623 115.173 291.194 115.744 291.194 116.449C291.194 117.153 290.623 117.724 289.919 117.724C289.214 117.724 288.643 117.153 288.643 116.449C288.643 115.744 289.214 115.173 289.919 115.173ZM298.847 115.173C299.552 115.173 300.123 115.744 300.123 116.449C300.123 117.153 299.552 117.724 298.847 117.724C298.143 117.724 297.572 117.153 297.572 116.449C297.572 115.744 298.143 115.173 298.847 115.173Z" fill="#00FCFF"/>
<path fill-rule="evenodd" clip-rule="evenodd" d="M196.398 204.024C196.404 203.952 196.416 203.889 196.433 203.838C196.453 203.788 196.478 203.746 196.509 203.713C196.543 203.68 196.587 203.646 196.642 203.608L198.58 202.349C198.603 202.331 198.632 202.315 198.666 202.303C198.701 202.291 198.746 202.283 198.802 202.276C198.859 202.268 198.931 202.264 199.021 202.261C199.113 202.259 199.23 202.258 199.373 202.258C199.55 202.258 199.693 202.261 199.802 202.268C199.912 202.276 199.994 202.287 200.05 202.303C200.105 202.32 200.142 202.342 200.162 202.371C200.179 202.398 200.189 202.433 200.189 202.475V209.952H201.66C201.701 209.952 201.74 209.965 201.773 209.99C201.808 210.016 201.839 210.057 201.865 210.112C201.89 210.169 201.908 210.242 201.919 210.333C201.931 210.424 201.937 210.537 201.937 210.672C201.937 210.803 201.931 210.913 201.918 211.004C201.902 211.095 201.882 211.167 201.857 211.222C201.832 211.275 201.802 211.314 201.771 211.336C201.738 211.36 201.701 211.371 201.66 211.371H196.685C196.646 211.371 196.613 211.36 196.58 211.336C196.546 211.314 196.517 211.275 196.492 211.222C196.466 211.167 196.447 211.095 196.433 211.004C196.419 210.913 196.412 210.803 196.412 210.672C196.412 210.537 196.418 210.424 196.429 210.333C196.441 210.242 196.46 210.169 196.486 210.112C196.511 210.057 196.541 210.016 196.572 209.99C196.605 209.965 196.642 209.952 196.685 209.952H198.363V204.062L196.914 204.867C196.808 204.918 196.72 204.95 196.652 204.962C196.585 204.973 196.533 204.96 196.492 204.919C196.453 204.88 196.427 204.811 196.412 204.714C196.398 204.615 196.392 204.478 196.392 204.3C196.392 204.189 196.394 204.096 196.398 204.024ZM203.576 202.902C203.576 202.697 203.627 202.548 203.732 202.457C203.837 202.367 203.966 202.321 204.119 202.321H208.361C208.404 202.321 208.441 202.334 208.474 202.36C208.505 202.385 208.535 202.427 208.56 202.486C208.586 202.543 208.605 202.623 208.617 202.72C208.628 202.817 208.634 202.937 208.634 203.076C208.634 203.216 208.628 203.334 208.617 203.43C208.605 203.525 208.586 203.601 208.56 203.658C208.535 203.713 208.505 203.754 208.474 203.783C208.441 203.811 208.404 203.825 208.361 203.825H205.414V206.26H208.181C208.222 206.26 208.259 206.271 208.293 206.294C208.324 206.317 208.353 206.357 208.378 206.413C208.404 206.469 208.423 206.544 208.435 206.637C208.447 206.729 208.453 206.847 208.453 206.986C208.453 207.126 208.447 207.242 208.435 207.336C208.423 207.43 208.404 207.506 208.378 207.567C208.353 207.628 208.324 207.671 208.293 207.696C208.259 207.722 208.222 207.734 208.181 207.734H205.414V211.106C205.414 211.156 205.4 211.2 205.373 211.239C205.345 211.277 205.294 211.308 205.222 211.333C205.15 211.359 205.056 211.378 204.941 211.392C204.824 211.406 204.675 211.413 204.496 211.413C204.318 211.413 204.171 211.406 204.052 211.392C203.933 211.378 203.839 211.359 203.771 211.333C203.701 211.308 203.65 211.277 203.621 211.239C203.589 211.2 203.576 211.156 203.576 211.106V202.902ZM217.638 199.732C217.664 199.83 217.674 199.929 217.669 200.029C217.657 200.227 217.585 200.42 217.461 200.582C217.275 200.823 216.975 200.99 216.596 200.99H213.351V212.421C213.351 213.637 212.37 214.622 211.159 214.622H208.545H206.329H197.635H194.499H192.77C192.194 214.622 191.673 214.398 191.285 214.032C191.09 213.85 190.929 213.632 190.811 213.389C190.693 213.145 190.618 212.877 190.596 212.594C190.594 212.565 190.591 212.536 190.587 212.508C190.584 212.479 190.579 212.451 190.579 212.421V200.99H187.369C186.989 200.99 186.689 200.823 186.503 200.582C186.38 200.42 186.307 200.227 186.296 200.029C186.29 199.929 186.3 199.83 186.326 199.732C186.379 199.536 186.499 199.35 186.696 199.201L186.802 199.121H189.297H214.668H217.163L217.268 199.201C217.465 199.35 217.585 199.536 217.638 199.732ZM213.471 193.821L210.926 191.899L208.631 190.166V189.086C208.631 188.415 209.173 187.871 209.841 187.871H212.261C212.929 187.871 213.471 188.415 213.471 189.086V193.821ZM191.089 197.616H189.44H188.796L201.29 188.18C201.492 188.028 201.737 187.952 201.982 187.952C202.009 187.952 202.034 187.963 202.061 187.964C202.279 187.979 202.494 188.044 202.674 188.18L203.053 188.467L204.028 189.202L204.858 189.829L205.832 190.565L205.842 190.573L206.567 191.12L206.662 191.192L207.636 191.928L208.466 192.554L208.631 192.679L209.441 193.29L209.724 193.504L210.271 193.916L211.246 194.653L212.075 195.28L213.05 196.016L213.471 196.334L213.88 196.643L214.087 196.799L214.855 197.379L215.169 197.616H214.545H212.674L212.64 197.591L212.608 197.616H211.732H210.959L211.055 197.541C211.056 197.54 211.057 197.54 211.058 197.54L211.808 196.966L211.811 196.964L210.836 196.227L209.87 196.966L209.021 197.616H207.372L208.631 196.653L210.006 195.601L209.031 194.865L208.631 195.17L205.434 197.616H203.785L208.201 194.239L207.226 193.502L201.848 197.616H200.199L206.397 192.875L205.422 192.14L205.239 192.279L198.261 197.616H196.613L198.276 196.344C198.276 196.344 198.276 196.343 198.277 196.342L204.592 191.513L203.618 190.777L194.676 197.616H193.027L202.788 190.15L201.982 189.542L191.291 197.616H191.089Z" fill="#00FCFF"/>
</svg>
