<?xml version="1.0" encoding="UTF-8"?>
<svg width="259px" height="120px" viewBox="0 0 259 120" version="1.1" xmlns="http://www.w3.org/2000/svg" xmlns:xlink="http://www.w3.org/1999/xlink">
    <title>2023_singal-quality_GT_0301</title>
    <defs>
        <polygon id="path-1" points="0 0 46.042 0 46.042 116.8438 0 116.8438"></polygon>
        <polygon id="path-3" points="0 0 3.4 0 3.4 53.7631 0 53.7631"></polygon>
        <polygon id="path-5" points="0 0 46.042 0 46.042 116.8438 0 116.8438"></polygon>
        <polygon id="path-7" points="0 0 3.4 0 3.4 53.7631 0 53.7631"></polygon>
    </defs>
    <g id="Page-1" stroke="none" stroke-width="1" fill="none" fill-rule="evenodd">
        <g id="2023_singal-quality_GT_0301" transform="translate(-335.000000, -126.000000)">
            <g id="GT" transform="translate(335.000000, 126.000000)">
                <polygon id="Fill-1" fill="#1D0000" points="166.7656 120 182.7656 120 182.7656 0 166.7656 0"></polygon>
                <polygon id="Fill-2" fill="#00FF6B" points="173.0656 120 176.4656 120 176.4656 0 173.0656 0"></polygon>
                <polygon id="Fill-3" fill="#1D0000" points="242.7656 120 258.7656 120 258.7656 0 242.7656 0"></polygon>
                <polygon id="Fill-4" fill="#FEC937" points="249.0656 120 252.4656 120 252.4656 0 249.0656 0"></polygon>
                <g id="Group-37" transform="translate(-0.000000, 0.000000)">
                    <g id="Group-7" transform="translate(6.765700, 0.000000)">
                        <mask id="mask-2" fill="white">
                            <use xlink:href="#path-1"></use>
                        </mask>
                        <g id="Clip-6"></g>
                        <path d="M16,77.1298 L16,100.8438 L38.042,100.8438 C42.46,100.8438 46.042,104.4258 46.042,108.8438 C46.042,113.2618 42.46,116.8438 38.042,116.8438 L15.344,116.8438 C6.878,116.8438 0,109.9668 0,101.4998 L0,84.6618 L0,82.8268 L0,78.4108 L0,67.0038 L0,-0.0002 C0,-4.4182 3.582,-8.0002 8,-8.0002 C12.42,-8.0002 16,-4.4172 16,-0.0002 L16,66.0208 L16,77.1298 Z" id="Fill-5" fill="#1D0000" mask="url(#mask-2)"></path>
                    </g>
                    <path d="M22.1097,110.544 C17.1227,110.544 13.0657,106.487 13.0657,101.5 L13.0657,91.699 C13.0657,90.76 13.8267,89.999 14.7657,89.999 C15.7047,89.999 16.4657,90.76 16.4657,91.699 L16.4657,92.454 L16.4657,96.748 L16.4657,101.5 C16.4657,104.611 18.9987,107.144 22.1097,107.144 L44.8077,107.144 C45.7467,107.144 46.5077,107.905 46.5077,108.844 C46.5077,109.783 45.7467,110.544 44.8077,110.544 L22.1097,110.544 Z" id="Fill-8" fill="#00FF6B"></path>
                    <g id="Group-12" transform="translate(13.065700, 0.000000)">
                        <mask id="mask-4" fill="white">
                            <use xlink:href="#path-3"></use>
                        </mask>
                        <g id="Clip-11"></g>
                        <path d="M0,52.0631 L0,-13.0999 C0,-14.0389 0.761,-14.7999 1.7,-14.7999 C2.639,-14.7999 3.4,-14.0389 3.4,-13.0999 L3.4,52.0631 C3.4,53.0021 2.639,53.7631 1.7,53.7631 C0.761,53.7631 0,53.0021 0,52.0631" id="Fill-10" fill="#00FF6B" mask="url(#mask-4)"></path>
                    </g>
                    <path d="M14.8752,85.8437 C14.4432,85.8437 14.0122,85.7327 13.6252,85.5087 L3.7502,79.8087 C2.9772,79.3627 2.5002,78.5367 2.5002,77.6437 L2.5002,66.2397 C2.5002,65.3467 2.9772,64.5217 3.7502,64.0747 L13.6252,58.3727 C14.0122,58.1497 14.4432,58.0377 14.8752,58.0377 C15.3072,58.0377 15.7382,58.1497 16.1252,58.3727 L26.0002,64.0747 C26.7732,64.5217 27.2502,65.3467 27.2502,66.2397 L27.2502,77.6437 C27.2502,78.5367 26.7732,79.3627 26.0002,79.8087 L16.1252,85.5087 C15.7382,85.7327 15.3072,85.8437 14.8752,85.8437" id="Fill-13" fill="#00FF6B"></path>
                    <path d="M14.875,55.5383 C14.012,55.5383 13.148,55.7613 12.375,56.2083 L2.5,61.9103 C0.953,62.8033 -3.55271368e-15,64.4543 -3.55271368e-15,66.2403 L-3.55271368e-15,77.6433 C-3.55271368e-15,79.4293 0.953,81.0803 2.5,81.9733 L12.375,87.6743 C13.149,88.1203 14.012,88.3433 14.875,88.3433 C15.738,88.3433 16.601,88.1203 17.375,87.6743 L27.25,81.9733 C28.797,81.0803 29.75,79.4293 29.75,77.6433 L29.75,66.2403 C29.75,64.4543 28.797,62.8033 27.25,61.9103 L17.375,56.2083 C16.602,55.7613 15.738,55.5383 14.875,55.5383 M14.875,60.5383 L24.75,66.2403 L24.75,77.6433 L14.875,83.3433 L5,77.6433 L5,66.2403 L14.875,60.5383" id="Fill-15" fill="#1D0000"></path>
                    <path d="M14.7861,78.1202 C11.3791,78.1202 8.6071,75.3482 8.6071,71.9412 C8.6071,68.5342 11.3791,65.7632 14.7861,65.7632 C18.1931,65.7632 20.9651,68.5342 20.9651,71.9412 C20.9651,75.3482 18.1931,78.1202 14.7861,78.1202 Z" id="Stroke-17" stroke="#1D0000" stroke-width="2"></path>
                    <path d="M14.6441,74.4056 C13.2831,74.3676 12.2101,73.2336 12.2481,71.8726 C12.2861,70.5106 13.4211,69.4386 14.7821,69.4766 C16.1451,69.5156 17.2151,70.6486 17.1771,72.0116 C17.1381,73.3716 16.0071,74.4436 14.6441,74.4056" id="Fill-19" fill="#1D0000"></path>
                    <g id="Group-23" transform="translate(88.765700, 0.000000)">
                        <mask id="mask-6" fill="white">
                            <use xlink:href="#path-5"></use>
                        </mask>
                        <g id="Clip-22"></g>
                        <path d="M16,77.1298 L16,100.8438 L38.042,100.8438 C42.46,100.8438 46.042,104.4258 46.042,108.8438 C46.042,113.2618 42.46,116.8438 38.042,116.8438 L15.344,116.8438 C6.878,116.8438 0,109.9668 0,101.4998 L0,84.6618 L0,82.8268 L0,78.4108 L0,67.0038 L0,-0.0002 C0,-4.4182 3.582,-8.0002 8,-8.0002 C12.42,-8.0002 16,-4.4172 16,-0.0002 L16,66.0208 L16,77.1298 Z" id="Fill-21" fill="#1D0000" mask="url(#mask-6)"></path>
                    </g>
                    <path d="M104.1097,110.544 C99.1227,110.544 95.0657,106.487 95.0657,101.5 L95.0657,91.699 C95.0657,90.76 95.8267,89.999 96.7657,89.999 C97.7047,89.999 98.4657,90.76 98.4657,91.699 L98.4657,92.454 L98.4657,96.748 L98.4657,101.5 C98.4657,104.611 100.9987,107.144 104.1097,107.144 L126.8077,107.144 C127.7467,107.144 128.5077,107.905 128.5077,108.844 C128.5077,109.783 127.7467,110.544 126.8077,110.544 L104.1097,110.544 Z" id="Fill-24" fill="#FEC937"></path>
                    <g id="Group-28" transform="translate(95.065700, 0.000000)">
                        <mask id="mask-8" fill="white">
                            <use xlink:href="#path-7"></use>
                        </mask>
                        <g id="Clip-27"></g>
                        <path d="M0,52.0631 L0,-13.0999 C0,-14.0389 0.761,-14.7999 1.7,-14.7999 C2.639,-14.7999 3.4,-14.0389 3.4,-13.0999 L3.4,52.0631 C3.4,53.0021 2.639,53.7631 1.7,53.7631 C0.761,53.7631 0,53.0021 0,52.0631" id="Fill-26" fill="#FEC937" mask="url(#mask-8)"></path>
                    </g>
                    <path d="M96.8751,85.8437 C96.4431,85.8437 96.0121,85.7327 95.6251,85.5087 L85.7501,79.8087 C84.9771,79.3627 84.5001,78.5367 84.5001,77.6437 L84.5001,66.2397 C84.5001,65.3467 84.9771,64.5217 85.7501,64.0747 L95.6251,58.3727 C96.0121,58.1497 96.4431,58.0377 96.8751,58.0377 C97.3071,58.0377 97.7381,58.1497 98.1251,58.3727 L108.0001,64.0747 C108.7731,64.5217 109.2501,65.3467 109.2501,66.2397 L109.2501,77.6437 C109.2501,78.5367 108.7731,79.3627 108.0001,79.8087 L98.1251,85.5087 C97.7381,85.7327 97.3071,85.8437 96.8751,85.8437" id="Fill-29" fill="#FEC937"></path>
                    <path d="M96.875,55.5383 C96.012,55.5383 95.148,55.7613 94.375,56.2083 L84.5,61.9103 C82.953,62.8033 82,64.4543 82,66.2403 L82,77.6433 C82,79.4293 82.953,81.0803 84.5,81.9733 L94.375,87.6743 C95.149,88.1203 96.012,88.3433 96.875,88.3433 C97.738,88.3433 98.601,88.1203 99.375,87.6743 L109.25,81.9733 C110.797,81.0803 111.75,79.4293 111.75,77.6433 L111.75,66.2403 C111.75,64.4543 110.797,62.8033 109.25,61.9103 L99.375,56.2083 C98.602,55.7613 97.738,55.5383 96.875,55.5383 M96.875,60.5383 L106.75,66.2403 L106.75,77.6433 L96.875,83.3433 L87,77.6433 L87,66.2403 L96.875,60.5383" id="Fill-31" fill="#1D0000"></path>
                    <path d="M96.7861,78.1202 C93.3791,78.1202 90.6071,75.3482 90.6071,71.9412 C90.6071,68.5342 93.3791,65.7632 96.7861,65.7632 C100.1931,65.7632 102.9651,68.5342 102.9651,71.9412 C102.9651,75.3482 100.1931,78.1202 96.7861,78.1202 Z" id="Stroke-33" stroke="#1D0000" stroke-width="2"></path>
                    <path d="M96.6441,74.4056 C95.2831,74.3676 94.2101,73.2336 94.2481,71.8726 C94.2861,70.5106 95.4211,69.4386 96.7821,69.4766 C98.1451,69.5156 99.2151,70.6486 99.1771,72.0116 C99.1381,73.3716 98.0071,74.4436 96.6441,74.4056" id="Fill-35" fill="#1D0000"></path>
                </g>
            </g>
        </g>
    </g>
</svg>