<?xml version="1.0" encoding="utf-8"?>
<svg version="1.1" xmlns="http://www.w3.org/2000/svg" xmlns:xlink="http://www.w3.org/1999/xlink" x="0px" y="0px"
	 viewBox="0 0 16 16" style="enable-background:new 0 0 16 16;" xml:space="preserve">
<style type="text/css">
	.st0{fill:#FC0;}
</style>
<g>
	<path class="st0" d="M14.1,2c0.1-0.4-0.1-0.7-0.3-1c-0.4-0.4-1.2-0.5-1.6,0c-0.5,0.5-0.5,1.2,0,1.7L11.7,3c-0.2,0.2-0.2,0.4,0,0.6
		l0.7,0.7c0.2,0.2,0.4,0.2,0.6,0L13.5,4c0.5,0.5,1.2,0.5,1.7,0c0.4-0.5,0.4-1.2,0-1.6C14.8,2,14.5,1.9,14.1,2z"/>
	<path class="st0" d="M2.5,4L3,4.4c0.2,0.2,0.4,0.2,0.6,0l0.7-0.7c0.2-0.2,0.2-0.4,0-0.6L3.9,2.6c0.5-0.5,0.5-1.2,0-1.7
		C3.4,0.5,2.7,0.5,2.2,1C1.9,1.2,1.8,1.6,1.9,2C1.5,1.9,1.2,2,0.9,2.3c-0.4,0.4-0.5,1.2,0,1.6C1.3,4.4,2.1,4.4,2.5,4z"/>
	<path class="st0" d="M15.1,12.1c-0.5-0.5-1.2-0.5-1.7,0L13,11.6c-0.2-0.2-0.4-0.2-0.6,0l-0.7,0.7c-0.2,0.2-0.2,0.4,0,0.6l0.4,0.4
		c-0.5,0.5-0.5,1.2,0,1.7c0.5,0.4,1.2,0.4,1.6,0c0.3-0.3,0.4-0.7,0.3-1c0.4,0.1,0.7-0.1,1-0.3C15.6,13.3,15.6,12.5,15.1,12.1z"/>
	<path class="st0" d="M1.9,14c-0.1,0.4,0.1,0.7,0.3,1c0.4,0.4,1.2,0.5,1.6,0c0.5-0.5,0.5-1.2,0-1.7L4.3,13c0.2-0.2,0.2-0.4,0-0.6
		l-0.7-0.7c-0.2-0.2-0.4-0.2-0.6,0L2.5,12c-0.5-0.5-1.2-0.5-1.7,0c-0.4,0.5-0.4,1.2,0,1.6C1.2,14,1.5,14.1,1.9,14z"/>
	<path class="st0" d="M12.5,5.4c-0.3-0.6-0.7-1.1-1.2-1.5C10.4,3.2,9.3,2.7,8,2.7c-1.3,0-2.4,0.5-3.3,1.2C4.2,4.3,3.8,4.9,3.5,5.4
		C3.1,6.1,2.9,6.9,2.9,7.8v2.3c0,0.2,0.1,0.3,0.2,0.4l0.3,0.2L5,11.9l0.3,0.2v1.2c0,0.3,0.2,0.5,0.5,0.5H8h2.2
		c0.3,0,0.5-0.2,0.5-0.5v-1.2l0.3-0.2l1.6-1.2l0.3-0.2c0.1-0.1,0.2-0.3,0.2-0.4V7.8C13.1,6.9,12.9,6.1,12.5,5.4z M5.2,10.1
		C5,10.1,4.8,10,4.6,9.9c-0.6-0.3-0.9-1-0.8-1.6C4,7.5,4.9,7,5.8,7.2c0.4,0.1,0.7,0.3,1,0.5C7.2,8.1,7.3,8.5,7.2,9
		C7.1,9.8,6.2,10.3,5.2,10.1z M8.6,11.2c-0.1,0-0.1,0.1-0.2,0.1c-0.1,0-0.6,0-0.7,0c-0.1,0-0.2,0-0.2-0.1c-0.1-0.1-0.2-0.3-0.2-0.5
		c0-0.1,0-0.1,0-0.2C7.3,10,8,9.4,8,9.4s0.7,0.6,0.8,1.1c0,0.1,0,0.1,0,0.2C8.8,10.9,8.7,11.1,8.6,11.2z M11.7,9.6
		c-0.2,0.2-0.6,0.4-1,0.5c-0.3,0.1-0.6,0-0.9,0C9.3,9.9,8.9,9.5,8.8,9l0,0C8.6,8.4,9,7.8,9.5,7.4c0.2-0.1,0.4-0.2,0.6-0.2
		c0.9-0.2,1.8,0.3,2,1.1C12.3,8.8,12.1,9.3,11.7,9.6z"/>
</g>
</svg>
