<?xml version="1.0" encoding="utf-8"?>
<svg version="1.1" xmlns="http://www.w3.org/2000/svg" xmlns:xlink="http://www.w3.org/1999/xlink" x="0px" y="0px"
	 viewBox="0 0 16 16" style="enable-background:new 0 0 16 16;" xml:space="preserve">
<style type="text/css">
	.st0{fill:#FC0;}
</style>
<path class="st0" d="M8,15.4c-1.3,0-2.7-0.1-4-0.3c-0.8-0.1-1.6-0.3-2.4-0.6c-0.3-0.1-0.3-0.2-0.3-0.5C1.3,13,1.6,12.2,2,11.4
	c0.3-0.5,0.7-0.9,1.2-1.2c0.8-0.4,1.6-0.7,2.4-1.1c0.1,0,0.1,0,0.2,0.1c0.4,0.6,0.9,1,1.6,1.2c0.9,0.2,1.6,0,2.3-0.6
	c0.2-0.2,0.3-0.3,0.5-0.5c0.1-0.1,0.1-0.1,0.2-0.1c0.7,0.3,1.5,0.7,2.2,1c1,0.5,1.5,1.3,1.8,2.4c0.2,0.5,0.3,1.1,0.3,1.6
	c0,0.2-0.1,0.2-0.2,0.3c-0.7,0.3-1.5,0.5-2.3,0.6C10.8,15.3,9.4,15.3,8,15.4z"/>
<path class="st0" d="M11.1,5.2C11,5.1,11,4.9,11,4.8c0-0.1,0-0.6,0-0.7C9,4,7,4,5,4c0,0.2,0,0.7,0,0.9C5,5,5,5,5,5.1
	C4.7,5.2,4.7,5.5,4.7,5.8c0,0.7,0.3,1.4,0.7,1.9c0.1,0.1,0.1,0.2,0.1,0.3C5.7,8.4,6,8.8,6.3,9.2c1,1,2.3,1.1,3.3,0.1
	C10,8.9,10.2,8.5,10.4,8c0-0.1,0.1-0.2,0.2-0.3c0.5-0.6,0.8-1.2,0.7-2C11.3,5.6,11.2,5.3,11.1,5.2z M6.6,7C5.8,7.1,5.1,6.1,5.1,5.3
	C5,5.1,5.1,5,5.3,5c0.4,0,0.8,0,1.2,0c0.4,0,0.8,0,1.1,0c0.2,0,0.2,0.1,0.3,0.3C8,6.2,7.5,6.9,6.6,7z M10.9,5.4
	C10.9,6.1,10.4,6.8,9.8,7C9.2,7.1,8.3,6.9,8.2,6c0-0.2,0-0.4,0-0.6C8.1,5.1,8.2,5,8.5,5c0.4,0,0.7,0,1.1,0c0.4,0,0.7,0,1.1,0
	C10.9,5,11,5.1,10.9,5.4z"/>
<path class="st0" d="M12.1,4.1h-0.8c-0.2-0.6-0.4-1.2-0.6-1.8c-0.1-0.4-0.4-0.7-0.6-1.1c-0.3-0.4-3.9-0.4-4.3,0
	C5.7,1.5,5.5,1.7,5.4,1.9C5.2,2.6,5,3.2,4.8,3.8c0,0.1-0.1,0.2-0.1,0.3H3.9c-0.1,0-0.2,0.1-0.2,0.2c0,0.1,0.1,0.2,0.2,0.2h8.3
	c0.1,0,0.2-0.1,0.2-0.2C12.4,4.3,12.3,4.1,12.1,4.1z"/>
<path class="st0" d="M12.5,5h-9C3.2,5,3,4.8,3,4.5v0C3,4.2,3.2,4,3.5,4h9C12.8,4,13,4.2,13,4.5v0C13,4.8,12.8,5,12.5,5z"/>
</svg>
