<svg id="圖層_1" data-name="圖層 1" xmlns="http://www.w3.org/2000/svg" xmlns:xlink="http://www.w3.org/1999/xlink" viewBox="0 0 16 16"><defs><style>.cls-1{fill:none;}.cls-2{fill:#ccc;}.cls-3{fill:url(#未命名漸層);}.cls-4{fill:#ccc;}</style><linearGradient id="未命名漸層" x1="7.99" y1="4.39" x2="7.99" y2="14.18" gradientTransform="matrix(1, 0, 0, -1, 0, 17.28)" gradientUnits="userSpaceOnUse"><stop offset="0" stop-color="#25575c"/><stop offset="0.48" stop-color="#36585d"/><stop offset="1" stop-color="#45585d"/></linearGradient></defs><title>normal</title><polygon class="cls-1" points="2.42 3.1 2.42 5.83 1.97 5.83 1.97 7.63 2.42 7.63 2.42 10.43 5.08 10.43 5.08 12.03 6.14 12.03 6.14 12.89 9.77 12.89 9.77 12.03 11.08 12.03 11.08 10.43 13.53 10.43 13.53 7.63 14.03 7.63 14 5.83 13.53 5.83 13.53 3.1 2.42 3.1"/><polygon class="cls-2" points="9.97 13.1 5.93 13.1 5.93 12.23 4.88 12.23 4.88 10.6 2.18 10.6 2.18 7.83 1.77 7.83 1.77 5.64 2.18 5.64 2.18 2.89 13.73 2.89 13.73 5.64 14.21 5.64 14.21 7.84 13.7 7.84 13.7 10.63 11.25 10.63 11.25 12.26 9.95 12.26 9.97 13.1"/><polygon class="cls-3" points="6.13 12.89 9.76 12.89 9.74 12.06 11.05 12.06 11.05 10.43 13.5 10.43 13.5 7.63 14 7.63 14 5.84 13.53 5.84 13.53 3.1 2.38 3.1 2.38 5.84 1.98 5.84 1.98 7.62 2.38 7.62 2.38 10.39 5.08 10.39 5.08 12.03 6.13 12.03 6.13 12.89"/><rect class="cls-4" x="3.59" y="4.08" width="0.38" height="3.34"/><rect class="cls-4" x="4.52" y="4.08" width="0.37" height="3.34"/><rect class="cls-4" x="5.47" y="4.08" width="0.38" height="3.34"/><rect class="cls-4" x="6.39" y="4.08" width="0.38" height="3.34"/><rect class="cls-4" x="7.34" y="4.08" width="0.37" height="3.34"/><rect class="cls-4" x="8.26" y="4.08" width="0.38" height="3.34"/><rect class="cls-4" x="9.21" y="4.08" width="0.38" height="3.34"/><rect class="cls-4" x="10.14" y="4.08" width="0.38" height="3.34"/><rect class="cls-4" x="11.1" y="4.08" width="0.38" height="3.34"/><rect class="cls-4" x="12.03" y="4.08" width="0.38" height="3.34"/></svg>