<?xml version="1.0" encoding="utf-8"?>
<!-- Generator: Adobe Illustrator 21.0.0, SVG Export Plug-In . SVG Version: 6.00 Build 0)  -->
<svg version="1.1" id="圖層_1" xmlns="http://www.w3.org/2000/svg" xmlns:xlink="http://www.w3.org/1999/xlink" x="0px" y="0px"
	 viewBox="0 0 668 688" style="enable-background:new 0 0 668 688;" xml:space="preserve">
<style type="text/css">
	.st0{fill:#C9C9C9;}
</style>
<title>client-list</title>
<path id="Fill-1" class="st0" d="M37,27L37,27c0,0,0,0.1,0,0.2v-0.1V27"/>
<path id="Fill-2" class="st0" d="M36.6,30.1L36.6,30.1"/>
<path id="Fill-3" class="st0" d="M37.4,30.1L37.4,30.1"/>
<path id="Fill-4" class="st0" d="M52.5,35c-2.2-1.6-2.5-6.3-2.5-6.3c-0.2-8.4-6.1-15.1-13.4-15.1s-13.2,6.7-13.4,15.1
	c0,0-0.3,4.7-2.5,6.3s-7.1,5.5-7.1,7.7s3.7-2.2,6.6-1.9c0,0.2,0,0.4,0,0.6c0,3.6,1.1,7.1,3.3,9.9c0.3-0.1,0.6-0.2,0.9-0.3
	c-0.5-1.7-0.8-3.5-0.8-5.3c-0.1-5.2,2.2-10.2,6.3-13.4c-1.6-1.2-2.5-3.1-2.4-5.1c0-3.2,2.1-5.8,4.6-5.8s4.6,2.6,4.6,5.8
	c0,0.1,0,0.2,0,0.2s0,0.1,0,0.2c0,0.3,0,0.6-0.1,0.8c-0.1,0.5-0.3,1.1-0.5,1.6h0.5l0,0c0.3,0,0.5,0,0.8,0l0,0l0.8,0.1l0,0
	c-0.7-0.7-1.1-1.6-1.2-2.5c0-0.2,0-0.3,0-0.5c0-0.1,0-0.2,0-0.3c0.2-2.6,2.4-4.6,5-4.4c2.1-0.1,4,1.2,4.7,3.1
	C45.8,24,44.1,23,42.2,23c-1.1,0-2.3,0.4-3.2,1.1c0.7-0.4,1.6-0.7,2.4-0.7c2.3-0.1,4.3,1.7,4.4,4c-0.1,2.2-1.8,3.9-3.9,4l0,0
	l0.1,0.1l0,0c4.5,2.5,7.7,7.9,7.7,14.3c0,1.8-0.3,3.6-0.8,5.3c0.3,0.1,0.5,0.2,0.8,0.3c2.1-2.9,3.3-6.3,3.3-9.9c0-0.2,0-0.4,0-0.6
	c2.9-0.4,6.7,4,6.7,1.9S54.7,36.6,52.5,35"/>
<image style="overflow:visible;enable-background:new    ;" width="8" height="8" id="Image-5" xlink:href="8B9F79E0.png"  transform="matrix(0.1275 0 0 0.1275 36.85 27.98)">
</image>
<path id="Fill-6" class="st0" d="M35.6,25.8L35.6,25.8L35.6,25.8"/>
<path id="Fill-7" class="st0" d="M35.4,25.8L35.4,25.8"/>
<path id="Fill-8" class="st0" d="M36.7,27.5c-0.1-0.9-0.5-1.6-1.1-1.7c0.2,0,0.3,0.1,0.4,0.2c0.3,0.3,0.4,0.7,0.3,0.9
	s-0.6,0.2-0.9-0.1s-0.4-0.7-0.3-0.9c0.1-0.1,0.1-0.1,0.2-0.1c-0.6,0.1-1.1,0.9-1.1,1.9s0.6,2,1.3,2c0.5,0,0.9-0.5,1.1-1.1
	c0.1-0.3,0.1-0.5,0.1-0.8C36.7,27.7,36.7,27.6,36.7,27.5"/>
<path id="Fill-9" class="st0" d="M37.4,28.5L37.4,28.5c0.5,0.7,1.3,1,1.7,0.6s0.4-1.2-0.1-1.8s-1.2-0.9-1.6-0.7h-0.1
	c-0.1,0.1-0.2,0.2-0.2,0.3v0.1c0,0.2,0,0.3,0,0.5c0,0.2,0.1,0.5,0.3,0.7L37.4,28.5L37.4,28.5z M37.9,26.8c0.1-0.1,0.4-0.1,0.6,0.1
	s0.3,0.4,0.2,0.5s-0.4,0.1-0.6-0.1S37.8,26.9,37.9,26.8L37.9,26.8z"/>
<path id="Fill-10" class="st0" d="M41.9,31.4c-1.1-0.6-2.4-1-3.7-1.2l-0.8-0.1l0,0c-0.3,0-0.5,0-0.8,0l0,0h-0.5
	c-1.4,0.1-2.7,0.4-4,1c-1,1.2,4.6,6.1,4.6,6.1H37c0,0,6.1-4.5,5-5.7l0,0L41.9,31.4"/>
<path id="Fill-11" class="st0" d="M46.1,50.7c-4.5,0-8.1,2.8-8.1,6.2c0,0.6,0.1,1.1,0.3,1.7h15.6c0.2-0.5,0.3-1.1,0.3-1.7
	c0-2.4-1.8-4.5-4.4-5.5c-0.3-0.1-0.5-0.2-0.8-0.3C48,50.8,47,50.7,46.1,50.7"/>
<path id="Fill-12" class="st0" d="M19.1,56.8c0,0.6,0.1,1.2,0.3,1.7H35c0.2-0.5,0.3-1.1,0.3-1.7c0-3.4-3.6-6.2-8.1-6.2
	c-1,0-1.9,0.1-2.9,0.4c-0.3,0.1-0.6,0.2-0.9,0.3C20.9,52.4,19.1,54.5,19.1,56.8"/>
<g id="Imported-Layers-Copy-64">
	<path id="Fill-1-2" class="st0" d="M23,153.9c-0.5,0.9-1.7,2-1.2,2.9s1.4,0.9,2.4,0.9H36c1,0,1.9,0,2.4-0.9s-0.7-2-1.2-2.9
		l-0.5-0.9H23.5L23,153.9"/>
	<path id="Fill-2-2" class="st0" d="M46.4,118H13.8c-3.7,0-6.7,3.1-6.7,6.8v20.8c0,3.7,2.9,6.7,6.7,6.8h32.6
		c3.7-0.1,6.7-3.1,6.6-6.8v-20.8C53,121.1,50.1,118.1,46.4,118z M49,145.6c0,1.4-1.1,2.6-2.6,2.6H13.8c-1.4,0-2.6-1.2-2.6-2.6v-20.8
		c0-1.4,1.1-2.6,2.6-2.6h32.6c1.4,0,2.6,1.2,2.6,2.6c0,0,0,0,0,0V145.6z"/>
	<path id="Fill-3-2" class="st0" d="M53.9,120.1h7.7c0.5,0,0.9,0.5,0.9,1v1c0,0.5-0.4,1-0.9,1H55c0.1,0.5,0.1,1,0.1,1.6v0.6h6.4
		c0.5,0,0.9,0.5,0.9,1v1c0,0.5-0.4,1-0.9,1h-6.4v14.9h9.3v-22.5c0-1.4-1.2-2.6-2.6-2.7h-9.5h-0.3C52.8,118.6,53.4,119.3,53.9,120.1"
		/>
	<path id="Fill-4-2" class="st0" d="M53.9,150.3h8c1.4,0,2.6-1.2,2.6-2.6v-2.8h-9.3v0.8C55.2,147.2,54.7,148.8,53.9,150.3
		L53.9,150.3z M57.2,146.5c0.6,0,1.1,0.5,1.1,1.1c0,0.6-0.5,1.1-1.1,1.1c-0.6,0-1.1-0.5-1.1-1.1c0,0,0,0,0,0
		C56.1,147,56.6,146.5,57.2,146.5C57.2,146.5,57.2,146.5,57.2,146.5z"/>
	<path id="Fill-5" class="st0" d="M51.9,149.4c-0.2,0.2-0.3,0.4-0.5,0.6C51.6,149.8,51.7,149.6,51.9,149.4"/>
	<path id="Fill-6-2" class="st0" d="M30,132.4L30,132.4c0.1,0,0.2,0.1,0.3,0.1c0.2,0.2,0.3,0.4,0.1,0.5s-0.3,0.1-0.5-0.1
		s-0.3-0.4-0.1-0.5C29.9,132.4,29.9,132.4,30,132.4c-0.4,0-0.7,0.5-0.7,1.1s0.3,1.1,0.7,1.1s0.7-0.5,0.7-1.1S30.4,132.4,30,132.4"/>
	<path id="Fill-7-2" class="st0" d="M31.9,133.4c-0.3-0.4-0.7-0.5-0.9-0.3s-0.2,0.6,0.1,1s0.7,0.5,0.9,0.3
		C32.2,134.2,32.2,133.7,31.9,133.4z M31.7,133.4c-0.1,0.1-0.2,0.1-0.3,0s-0.1-0.2-0.1-0.3s0.2-0.1,0.3,0S31.8,133.3,31.7,133.4z"/>
	<path id="Fill-8-2" class="st0" d="M28.7,135.2c-0.4,0.5,2,2.7,2,2.7h0.2c0,0,2.8-2,2.3-2.6C31.7,134.6,30.1,134.6,28.7,135.2"/>
	<path id="Fill-9-2" class="st0" d="M37.8,137c-1-0.7-1.1-2.8-1.1-2.8c-0.1-3.8-2.7-6.8-5.9-6.8s-5.9,3-6,6.7c0,0-0.1,2.1-1.1,2.8
		s-3.2,2.5-3.2,3.5s1.6-1,2.9-0.8c0,0.1,0,0.2,0,0.3c0,1.6,0.5,3.2,1.5,4.5c-1.1,0.3-1.9,1.3-1.9,2.4c0,0.3,0,0.5,0.1,0.8h7
		c0.1-0.2,0.1-0.5,0.1-0.8c0-1.5-1.6-2.8-3.6-2.8c-0.4,0-0.9,0.1-1.3,0.2c-0.2-0.8-0.3-1.6-0.3-2.4c-0.1-2.3,1-4.5,2.8-6
		c-0.7-0.5-1.1-1.4-1.1-2.3c-0.1-1.3,0.7-2.4,2-2.6c1.3,0.2,2.1,1.3,2,2.6c0,0.4-0.1,0.9-0.3,1.3h0.3c0.2,0,0.5,0,0.7,0.1
		c-0.4-0.3-0.5-0.8-0.5-1.3c0-0.1,0-0.2,0-0.2c0.1-1.2,1-2.1,2.2-2c0.9,0,1.8,0.6,2.1,1.4c-0.4-0.7-1.2-1.2-2-1.2
		c-0.5,0-1,0.2-1.4,0.5c0.3-0.2,0.7-0.3,1.1-0.3c1-0.1,1.9,0.7,2,1.8c0,0,0,0,0,0c0,0.9-0.8,1.7-1.8,1.8c2.2,1.4,3.6,3.8,3.5,6.5
		c0,0.8-0.1,1.6-0.3,2.4c-0.4-0.1-0.8-0.2-1.3-0.2c-2,0-3.6,1.2-3.6,2.8c0,0.3,0,0.5,0.1,0.7h6.9c0.1-0.2,0.1-0.5,0.1-0.8
		c-0.1-1.2-0.9-2.1-2-2.5c1-1.3,1.5-2.8,1.6-4.4c0-0.1,0-0.2,0-0.3c1.3-0.2,3,1.8,3,0.9S38.8,137.7,37.8,137L37.8,137z M30.8,133.2
		c0-1.3-0.9-2.3-2.2-2.4c-1.3,0.1-2.2,1.2-2.2,2.4c0-0.1,0-0.1,0-0.1c-0.1-1.3,0.9-2.5,2.2-2.6c1.3,0.1,2.3,1.3,2.2,2.6
		C30.8,133.1,30.8,133.2,30.8,133.2L30.8,133.2z"/>
</g>
<g id="Imported-Layers-Copy-65">
	<path id="Fill-1-3" class="st0" d="M131.8,35.5l24.2-0.3V13.5l-24.2,4.8L131.8,35.5"/>
	<path id="Fill-2-3" class="st0" d="M131.8,37.5v17l24.2,4.9V37.7L131.8,37.5"/>
	<path id="Fill-3-3" class="st0" d="M129.8,35.5V18.8l-15.2,3v13.9L129.8,35.5"/>
	<path id="Fill-4-3" class="st0" d="M129.8,37.5l-15.2-0.2v13.8l15.2,3V37.5"/>
</g>
<g id="Imported-Layers-Copy-66">
	<path id="Fill-1-4" class="st0" d="M122,154c-0.5,0.9-1.7,2-1.2,2.9s1.4,0.9,2.4,0.9H135c1,0,1.9,0,2.4-0.9s-0.7-2-1.2-2.9
		l-0.5-0.9h-13.3L122,154"/>
	<path id="Fill-2-4" class="st0" d="M145.4,118.2h-32.6c-3.7,0-6.7,3.1-6.7,6.8v20.8c0,3.7,2.9,6.7,6.7,6.8h32.6
		c3.7,0,6.7-3.1,6.7-6.8V125C152.1,121.3,149.1,118.2,145.4,118.2z M148,145.8c0,1.4-1.1,2.6-2.6,2.6h-32.6c-1.4,0-2.6-1.2-2.6-2.6
		V125c0-1.4,1.1-2.6,2.6-2.6h32.6c1.4,0,2.6,1.2,2.6,2.6c0,0,0,0,0,0V145.8L148,145.8z"/>
	<path id="Fill-3-4" class="st0" d="M152.9,120.3h7.7c0.5,0,0.9,0.5,0.9,1v1c0,0.5-0.4,1-0.9,1H154c0.1,0.5,0.1,1,0.1,1.6v0.6h6.4
		c0.5,0,0.9,0.5,0.9,1v1c0,0.5-0.4,1-0.9,1h-6.4v14.9h9.3v-22.5c0-1.4-1.2-2.6-2.6-2.7h-9.5h-0.3
		C151.8,118.8,152.4,119.5,152.9,120.3"/>
	<path id="Fill-4-4" class="st0" d="M152.9,150.4h8c1.4,0,2.6-1.2,2.6-2.6V145h-9.3v0.8C154.1,147.5,153.7,149.1,152.9,150.4
		L152.9,150.4z M156.2,146.7c0.6,0,1.1,0.5,1.1,1.1c0,0.6-0.5,1.1-1.1,1.1s-1.1-0.5-1.1-1.1c0,0,0,0,0,0
		C155.1,147.2,155.6,146.7,156.2,146.7C156.2,146.7,156.2,146.7,156.2,146.7z"/>
	<path id="Fill-5-2" class="st0" d="M150.9,149.6c-0.2,0.2-0.3,0.4-0.5,0.6C150.6,150,150.7,149.8,150.9,149.6"/>
	<path id="Fill-6-3" class="st0" d="M127.7,135.8l9.5-0.1v-8.6l-9.5,1.9V135.8"/>
	<path id="Fill-7-3" class="st0" d="M127.7,136.5v6.7l9.5,1.9v-8.6L127.7,136.5"/>
	<path id="Fill-8-3" class="st0" d="M126.9,135.8v-6.6l-5.9,1.2v5.5L126.9,135.8"/>
	<path id="Fill-9-3" class="st0" d="M126.9,136.5l-5.9-0.1v5.4l5.9,1.2V136.5"/>
</g>
<g id="Imported-Layers-Copy-94">
	<path id="Fill-1-5" class="st0" d="M619,360c-0.5,0.9-1.7,2-1.2,2.9s1.4,0.9,2.4,0.9H632c1,0,1.9,0,2.4-0.9s-0.7-2-1.2-2.9
		l-0.5-0.9h-13.3L619,360"/>
	<path id="Fill-2-5" class="st0" d="M642.4,324.2h-32.6c-3.7,0-6.7,3.1-6.7,6.8v20.8c0,3.7,2.9,6.7,6.7,6.8h32.6
		c3.7,0,6.7-3.1,6.7-6.8V331C649.1,327.3,646.1,324.2,642.4,324.2z M645,351.8c0,1.4-1.1,2.6-2.6,2.6h-32.6c-1.4,0-2.6-1.2-2.6-2.6
		V331c0-1.4,1.1-2.6,2.6-2.6h32.6c1.4,0,2.6,1.2,2.6,2.6c0,0,0,0,0,0V351.8z"/>
	<path id="Fill-3-5" class="st0" d="M649.9,326.3h7.7c0.5,0,0.9,0.5,0.9,1v1c0,0.5-0.4,1-0.9,1H651c0.1,0.5,0.1,1,0.1,1.6v0.6h6.4
		c0.5,0,0.9,0.5,0.9,1v1c0,0.5-0.4,1-0.9,1h-6.4v14.9h9.3v-22.5c0-1.4-1.2-2.6-2.6-2.6h-9.5h-0.3
		C648.8,324.8,649.4,325.5,649.9,326.3"/>
	<path id="Fill-4-5" class="st0" d="M649.9,356.4h8c1.4,0,2.6-1.2,2.6-2.6V351h-9.3v0.8C651.1,353.5,650.7,355.1,649.9,356.4
		L649.9,356.4z M653.2,352.6c0.6,0,1.1,0.5,1.1,1.1c0,0.6-0.5,1.1-1.1,1.1c-0.6,0-1.1-0.5-1.1-1.1c0,0,0,0,0,0
		C652.1,353.2,652.6,352.7,653.2,352.6C653.2,352.6,653.2,352.6,653.2,352.6z"/>
</g>
<g id="Imported-Layers-Copy-67">
	<path id="Fill-1-6" class="st0" d="M156.8,220.3H113c-1.8,0.1-3.1,1.5-3.1,3.3v26.5c-0.1,1.8,1.3,3.2,3.1,3.3h43.8
		c1.8-0.1,3.1-1.5,3.1-3.3v-26.5C159.9,221.9,158.6,220.4,156.8,220.3L156.8,220.3z M154.8,247.4c0,1.4-1.1,2.6-2.5,2.6h-34.9
		c-1.4-0.1-2.5-1.2-2.5-2.6v-21.1c0-1.4,1.1-2.6,2.5-2.6h34.9c1.4,0.1,2.5,1.2,2.5,2.6L154.8,247.4L154.8,247.4z"/>
	<path id="Fill-2-6" class="st0" d="M163.5,255.1h-57.3c0,0.2,0,0.4-0.1,0.6v0.8c-0.1,1.8,1.3,3.3,3.1,3.3h51.2
		c1.8-0.1,3.2-1.6,3.1-3.3v-0.8C163.6,255.5,163.5,255.3,163.5,255.1L163.5,255.1z M153.8,258.3h-2.7c-0.3,0-0.6-0.4-0.5-0.7
		c0-0.3,0.3-0.5,0.5-0.5h2.7c0.3,0,0.6,0.4,0.5,0.7C154.3,258.1,154.1,258.3,153.8,258.3z M158.4,258.3h-2.7c-0.3,0-0.6-0.4-0.5-0.7
		c0-0.3,0.3-0.5,0.5-0.5h2.7c0.3,0,0.6,0.4,0.5,0.7C158.9,258.1,158.7,258.3,158.4,258.3z"/>
	<path id="Fill-3-6" class="st0" d="M133.6,236.6l8.5-0.1v-7.6l-8.5,1.7V236.6"/>
	<path id="Fill-4-6" class="st0" d="M133.6,237.3v6l8.5,1.7v-7.6L133.6,237.3"/>
	<path id="Fill-5-3" class="st0" d="M132.9,236.6v-5.9l-5.3,1.1v4.9L132.9,236.6"/>
	<path id="Fill-6-4" class="st0" d="M132.9,237.3l-5.3-0.1v4.8l5.3,1.1V237.3"/>
</g>
<g id="Imported-Layers-Copy-68">
	<path id="Fill-1-7" class="st0" d="M148.9,318.3h-28.2c-2.4,0-4.4,2-4.5,4.4v49.7c0,2.4,2,4.4,4.5,4.4h28.2c2.4,0,4.4-2,4.5-4.4
		v-49.7C153.3,320.2,151.3,318.3,148.9,318.3z M138.6,373.7h-7.7c-0.7,0-1.4-0.6-1.4-1.4s0.6-1.4,1.4-1.4h7.7c0.7,0,1.4,0.6,1.4,1.4
		S139.4,373.7,138.6,373.7L138.6,373.7z M149.4,326.5v40.8h-29.3v-43.6h29.3V326.5z"/>
	<path id="Fill-2-7" class="st0" d="M133.2,345.1l11.1-0.1v-9.8l-11.1,2.2V345.1"/>
	<path id="Fill-3-7" class="st0" d="M133.2,346v7.7l11.1,2.2v-9.8L133.2,346"/>
	<path id="Fill-4-7" class="st0" d="M132.3,345.1v-7.6l-7,1.4v6.3L132.3,345.1"/>
	<path id="Fill-5-4" class="st0" d="M132.3,346l-7-0.1v6.2l7,1.4V346"/>
</g>
<g id="Imported-Layers-Copy-69">
	<path id="Fill-1-8" class="st0" d="M251.8,27.7c-1.6,0-2.9,1.3-2.9,2.9c0,0,0,0,0,0v11.3c0,1.6,1.3,2.9,2.9,2.9s2.9-1.3,2.9-2.9
		c0,0,0,0,0,0V30.6C254.7,29,253.4,27.7,251.8,27.7C251.8,27.7,251.8,27.7,251.8,27.7L251.8,27.7z M217.1,27.7
		c-1.6,0-2.9,1.3-2.9,2.9c0,0,0,0,0,0v11.3c0,1.6,1.3,2.9,2.9,2.9s2.9-1.3,2.9-2.9c0,0,0,0,0,0V30.6C219.9,29,218.7,27.7,217.1,27.7
		C217.1,27.7,217.1,27.7,217.1,27.7L217.1,27.7z"/>
	<path id="Fill-2-8" class="st0" d="M221.7,27.8v20.6c0,1.2,1,2.2,2.2,2.2h2.6v6.3c0,1.6,1.3,2.9,2.9,2.9s2.9-1.3,2.9-2.9
		c0,0,0,0,0,0v-6.3h4.5v6.3c0,1.6,1.3,2.9,2.9,2.9s2.9-1.3,2.9-2.9c0,0,0,0,0,0v-6.3h2.5c1.2,0,2.2-1,2.2-2.2V27.8H221.7"/>
	<path id="Fill-3-8" class="st0" d="M240.5,17.1l2.4-3.4c0.1-0.2,0.1-0.4-0.1-0.6c0,0,0,0,0,0c-0.2-0.1-0.5-0.1-0.6,0.1l-2.5,3.5
		c-3.4-1.3-7.2-1.3-10.6,0l-2.5-3.5c-0.1-0.2-0.4-0.3-0.6-0.1c-0.2,0.1-0.2,0.4-0.1,0.6c0,0,0,0,0,0l2.4,3.4
		c-3.7,1.5-6.2,4.9-6.7,8.8h25.6C246.7,22,244.2,18.6,240.5,17.1L240.5,17.1z M229,22.5c-0.8,0-1.4-0.6-1.4-1.4
		c0-0.8,0.6-1.4,1.4-1.4c0.8,0,1.4,0.6,1.4,1.4C230.4,21.8,229.8,22.5,229,22.5C229,22.5,229,22.5,229,22.5z M240,22.5
		c-0.8,0-1.4-0.6-1.4-1.4c0-0.8,0.6-1.4,1.4-1.4c0.8,0,1.4,0.6,1.4,1.4C241.4,21.8,240.8,22.5,240,22.5C240,22.5,240,22.5,240,22.5z
		"/>
</g>
<g id="Imported-Layers-Copy-70">
	<path id="Fill-1-9" class="st0" d="M248.5,108.4h-28c-2.4,0-4.4,2-4.4,4.4v49.7c0,2.4,2,4.4,4.4,4.4h28c2.4,0,4.4-2,4.4-4.4v-49.7
		C252.9,110.4,250.9,108.4,248.5,108.4z M238.3,163.9h-7.6c-0.7,0-1.4-0.6-1.4-1.3c0-0.7,0.6-1.4,1.3-1.4c0,0,0,0,0,0h7.6
		c0.7,0,1.4,0.6,1.4,1.3C239.6,163.3,239,163.9,238.3,163.9C238.3,163.9,238.3,163.9,238.3,163.9z M249,116.7v40.8h-29.1v-43.6H249
		C249,113.9,249,116.6,249,116.7z"/>
	<path id="Fill-2-9" class="st0" d="M242.5,134.6c-0.8,0.8-0.8,2,0,2.8l5.5,5.5c0.6,0.9,1.9,1.1,2.8,0.5s1.1-1.9,0.5-2.8
		c-0.1-0.2-0.3-0.4-0.5-0.5l-5.5-5.5C244.5,133.9,243.3,133.9,242.5,134.6L242.5,134.6z M225.7,151.4c-0.8,0.8-0.8,2,0,2.8l5.5,5.5
		c0.6,0.9,1.9,1.1,2.8,0.5s1.1-1.9,0.5-2.8c-0.1-0.2-0.3-0.4-0.5-0.5l-5.5-5.5C227.7,150.7,226.5,150.7,225.7,151.4L225.7,151.4z"/>
	<path id="Fill-3-9" class="st0" d="M228,149.2l10.1,10.1c0.6,0.6,1.6,0.6,2.2,0c0,0,0,0,0,0l1.2-1.2l3.1,3.1
		c0.6,0.9,1.9,1.1,2.8,0.5s1.1-1.9,0.5-2.8c-0.1-0.2-0.3-0.4-0.5-0.5l-3.1-3.1l2.2-2.2l3.1,3.1c0.6,0.9,1.9,1.1,2.8,0.5
		s1.1-1.9,0.5-2.8c-0.1-0.2-0.3-0.4-0.5-0.5l-3.1-3.1l1.2-1.2c0.6-0.6,0.6-1.6,0-2.2c0,0,0,0,0,0l-10.1-10.1L228,149.2"/>
	<path id="Fill-4-8" class="st0" d="M231.9,134.9l-0.5-2.8c0-0.2-0.1-0.3-0.3-0.3c-0.2,0-0.3,0.1-0.3,0.3c0,0,0,0.1,0,0.1l0.5,2.9
		c-2.3,1-4.1,2.8-5.1,5.1l-2.9-0.5c-0.1-0.1-0.3,0-0.4,0.2c-0.1,0.1,0,0.3,0.2,0.4c0,0,0.1,0,0.1,0l2.8,0.5c-1,2.5-0.6,5.4,1.1,7.6
		l12.4-12.4C237.3,134.3,234.4,133.9,231.9,134.9L231.9,134.9z M229,143.1c-0.4,0.4-1,0.4-1.4,0s-0.4-1,0-1.4s1-0.4,1.4,0
		c0,0,0,0,0,0C229.3,142.1,229.3,142.7,229,143.1z M234.3,137.8c-0.4,0.4-1,0.4-1.4,0s-0.4-1,0-1.4s1-0.4,1.4,0c0,0,0,0,0,0
		C234.6,136.8,234.6,137.4,234.3,137.8z"/>
</g>
<g id="Imported-Layers-Copy-71">
	<path id="Fill-1-10" class="st0" d="M252.2,213.4h-35.3c-1.9,0-3.4,1.5-3.4,3.4v46.6c0,1.9,1.5,3.4,3.4,3.4h35.3
		c1.9,0,3.4-1.5,3.4-3.4v-46.6C255.6,214.9,254.1,213.4,252.2,213.4z M217.8,217.5h33.6v39.7h-33.6L217.8,217.5z M237.3,263.8h-6.7
		c-0.6,0-1-0.4-1-1v-0.6c0-0.6,0.4-1,1-1h6.7c0.6,0,1,0.4,1,1v0.6C238.3,263.4,237.8,263.8,237.3,263.8z"/>
	<path id="Fill-2-10" class="st0" d="M244.1,231.1c-0.8,0.8-0.8,2.1,0,2.9l5.8,5.8c0.8,0.8,2.1,0.8,2.9,0c0,0,0,0,0,0
		c0.8-0.8,0.8-2.1,0-2.9l-5.8-5.8C246.3,230.3,245,230.2,244.1,231.1C244.1,231,244.1,231.1,244.1,231.1z M226.6,248.7
		c-0.8,0.8-0.8,2.1,0,2.9l5.8,5.8c0.8,0.8,2.1,0.8,2.9,0c0,0,0,0,0,0c0.8-0.8,0.8-2.1,0-2.9l-5.8-5.8
		C228.8,247.9,227.4,247.9,226.6,248.7C226.6,248.7,226.6,248.7,226.6,248.7L226.6,248.7z"/>
	<path id="Fill-3-10" class="st0" d="M229,246.4l10.5,10.6c0.6,0.6,1.6,0.6,2.2,0c0,0,0,0,0,0l1.3-1.3l3.2,3.2
		c0.8,0.8,2.1,0.8,2.9,0c0,0,0,0,0,0c0.8-0.8,0.8-2.1,0-2.9l-3.2-3.2l2.3-2.3l3.2,3.2c0.8,0.8,2.1,0.8,2.9,0c0,0,0,0,0,0
		c0.8-0.8,0.8-2.1,0-2.9l-3.2-3.2l1.3-1.3c0.6-0.6,0.6-1.6,0-2.3l-10.5-10.6L229,246.4"/>
	<path id="Fill-4-9" class="st0" d="M233,231.3l-0.5-2.9c0-0.2-0.2-0.3-0.3-0.2c-0.2,0-0.3,0.2-0.2,0.3l0.6,3.1
		c-2.4,1.1-4.3,3-5.4,5.4l-3-0.6c-0.2,0-0.3,0.1-0.4,0.2c0,0.2,0.1,0.3,0.2,0.4c0,0,0,0,0,0l2.9,0.5c-1.1,2.7-0.7,5.7,1.1,8l12.9-13
		C238.7,230.7,235.7,230.3,233,231.3L233,231.3z M230,239.9c-0.4,0.4-1,0.4-1.4,0c0,0,0,0,0,0c-0.4-0.4-0.4-1,0-1.4c0,0,0,0,0,0
		c0.4-0.4,1-0.4,1.4,0c0,0,0,0,0,0C230.4,238.9,230.4,239.5,230,239.9C230,239.9,230,239.9,230,239.9z M235.5,234.3
		c-0.4,0.4-1,0.4-1.4,0c0,0,0,0,0,0c-0.4-0.4-0.4-1,0-1.4c0,0,0,0,0,0c0.4-0.4,1-0.4,1.4,0c0,0,0,0,0,0
		C235.9,233.3,235.9,233.9,235.5,234.3C235.6,234.3,235.5,234.3,235.5,234.3z"/>
</g>
<g id="Imported-Layers-Copy-72">
	<path id="Fill-1-11" class="st0" d="M353.9,47.4c-0.8,2-1.9,3.9-3.1,5.6c-2,3-4.8,6.7-8.3,6.7c-3.1,0-3.9-2-8.1-2s-5.1,2-8.2,2
		c-3.5,0-6.2-3.4-8.2-6.4c-5.6-8.3-6.2-18.1-2.7-23.3c2.2-3.5,5.9-5.7,10-5.9c3.7,0,6,2,9.1,2s4.8-2,9.1-2c3.6,0.2,6.9,1.9,9.1,4.7
		C344.6,33.2,345.8,44.4,353.9,47.4"/>
	<path id="Fill-2-11" class="st0" d="M340.1,20.9c1.8-2.1,2.6-4.8,2.3-7.5c-2.8,0.3-5.4,1.7-7.3,3.8c-1.6,1.9-2.9,4.6-2.4,7.4
		C335.7,24.4,338.4,23.1,340.1,20.9"/>
</g>
<g id="Imported-Layers-Copy-73">
	<path id="Fill-1-12" class="st0" d="M332.8,160.3c-1,0-1.9,0.9-1.8,1.9s0.9,1.9,1.9,1.8c1,0,1.8-0.9,1.9-1.9
		C334.7,161.1,333.8,160.3,332.8,160.3C332.8,160.3,332.8,160.3,332.8,160.3"/>
	<path id="Fill-2-12" class="st0" d="M341.7,108.1h-17.8c-3.2,0-5.8,2.6-5.9,5.8v47.4c0,3.2,2.7,5.8,5.9,5.8h17.8
		c3.2,0,5.8-2.6,5.9-5.8v-47.4C347.5,110.6,344.9,108,341.7,108.1z M345,158.6c0,0.2-0.2,0.4-0.4,0.4h-24c-0.2,0-0.4-0.2-0.4-0.4
		v-42.5c0-0.2,0.2-0.4,0.4-0.4h24c0.2,0,0.4,0.2,0.4,0.4V158.6z M332.8,164.8c-1.5,0-2.6-1.2-2.6-2.7s1.2-2.6,2.7-2.6
		c1.4,0,2.6,1.2,2.6,2.6C335.4,163.6,334.2,164.8,332.8,164.8C332.8,164.8,332.8,164.8,332.8,164.8z M334.8,112.8
		c0.2,0,0.4,0.2,0.4,0.4s-0.2,0.4-0.4,0.4h-4.3c-0.2,0-0.4-0.2-0.4-0.4s0.2-0.4,0.4-0.4l0,0H334.8z M332.4,111.1
		c0-0.2,0.2-0.4,0.4-0.4s0.4,0.2,0.4,0.4s-0.2,0.4-0.4,0.4l0,0C332.6,111.5,332.4,111.3,332.4,111.1z M328.9,112.8
		c0.2,0,0.4,0.2,0.4,0.4s-0.2,0.4-0.4,0.4c-0.2,0-0.4-0.2-0.4-0.4C328.5,113,328.7,112.8,328.9,112.8
		C328.9,112.8,328.9,112.8,328.9,112.8z"/>
	<path id="Fill-3-11" class="st0" d="M341.5,142.2c-0.4,0.8-0.8,1.7-1.3,2.4c-0.9,1.3-2.1,2.9-3.5,2.9c-1.3,0-1.7-0.9-3.5-0.8
		s-2.2,0.9-3.5,0.8c-1.5,0-2.6-1.4-3.5-2.7c-2.4-3.6-2.6-7.8-1.2-10c0.9-1.5,2.5-2.4,4.3-2.5c1.6,0,2.6,0.9,3.9,0.9s2-0.9,3.9-0.9
		c1.5,0.1,3,0.8,3.9,2c-2.1,1.1-2.9,3.8-1.8,5.9C339.6,141.1,340.5,141.8,341.5,142.2"/>
	<path id="Fill-4-10" class="st0" d="M335.6,130.8c0.8-0.9,1.1-2.1,1-3.2c-1.2,0.1-2.3,0.7-3.1,1.6c-0.8,0.9-1.1,2-1,3.2
		C333.8,132.3,334.9,131.8,335.6,130.8"/>
</g>
<g id="Imported-Layers-Copy-74">
	<path id="Fill-1-13" class="st0" d="M354.8,220.3H311c-1.8,0.1-3.1,1.5-3.1,3.3v26.5c-0.1,1.8,1.3,3.2,3.1,3.3h43.8
		c1.8-0.1,3.1-1.5,3.1-3.3v-26.5C357.9,221.9,356.6,220.4,354.8,220.3L354.8,220.3z M352.8,247.4c0,1.4-1.1,2.6-2.5,2.6h-34.9
		c-1.4-0.1-2.5-1.2-2.5-2.6v-21.1c0-1.4,1.1-2.6,2.5-2.6h34.9c1.4,0.1,2.5,1.2,2.5,2.6L352.8,247.4L352.8,247.4z"/>
	<path id="Fill-2-13" class="st0" d="M361.5,255.1h-57.3c0,0.2,0,0.4,0,0.6v0.8c-0.1,1.8,1.3,3.3,3.1,3.3h51.2
		c1.8-0.1,3.2-1.6,3.1-3.3v-0.8C361.6,255.5,361.5,255.3,361.5,255.1L361.5,255.1z M351.8,258.3h-2.7c-0.3,0-0.6-0.4-0.5-0.7
		c0-0.3,0.3-0.5,0.5-0.5h2.7c0.3,0,0.6,0.4,0.5,0.7C352.3,258.1,352.1,258.3,351.8,258.3z M356.4,258.3h-2.7c-0.3,0-0.6-0.4-0.5-0.7
		c0-0.3,0.3-0.5,0.5-0.5h2.7c0.3,0,0.6,0.4,0.5,0.7C356.9,258.1,356.7,258.3,356.4,258.3z"/>
	<path id="Fill-3-12" class="st0" d="M340.9,241.3c-0.3,0.8-0.7,1.6-1.2,2.3c-0.8,1.2-1.9,2.7-3.3,2.7c-1.2,0-1.5-0.8-3.2-0.8
		s-2,0.8-3.2,0.8c-1.4,0-2.4-1.4-3.2-2.6c-2.2-3.4-2.4-7.3-1.1-9.4c0.8-1.4,2.3-2.3,3.9-2.4c1.5,0,2.4,0.8,3.6,0.8s1.9-0.8,3.6-0.8
		c1.4,0.1,2.7,0.8,3.6,1.9c-2,1.1-2.7,3.6-1.6,5.6C339.2,240.3,340,240.9,340.9,241.3"/>
	<path id="Fill-4-11" class="st0" d="M335.5,230.6c0.7-0.9,1-2,0.9-3.1c-1.1,0.1-2.1,0.7-2.9,1.6c-0.7,0.8-1.1,1.9-0.9,3
		C333.7,232,334.8,231.5,335.5,230.6"/>
</g>
<g id="Imported-Layers-Copy-75">
	<path id="Fill-1-14" class="st0" d="M345.7,357.7h-25.1c-4.1,0.2-7.6-2.6-8.4-6.6c0.2,1.8,0.3,3.1,0.5,5c0.9,4.2,5.9,5.7,8.5,5.7
		h23.9c2.7,0,7.7-1.5,8.5-5.7c0.2-1.8,0.3-3.1,0.5-5C353.3,355.1,349.7,357.9,345.7,357.7"/>
	<path id="Fill-2-14" class="st0" d="M353.7,347.6v1.2C353.8,348.4,353.8,348,353.7,347.6"/>
	<path id="Fill-3-13" class="st0" d="M353.1,341.1l-1-10.2c-0.4-4.7-4.3-8.3-9-8.3h-19.8c-4.7,0.1-8.6,3.7-9,8.3l-1.7,16.8
		c-0.3,4.3,2.9,8,7.2,8.3c0.2,0,0.5,0,0.7,0h25.4c4.1,0.1,7.6-3.1,7.9-7.2v-1.3L353.1,341.1L353.1,341.1z M333.5,329.3
		c0.8-0.9,2-1.5,3.2-1.7c0.1,1.2-0.2,2.4-1,3.4c-0.8,1-2,1.6-3.2,1.6C332.4,331.4,332.7,330.2,333.5,329.3L333.5,329.3z
		 M340.4,345.2c-0.9,1.3-2.1,3-3.7,3c-1.4,0-1.7-0.9-3.6-0.9s-2.2,0.9-3.6,0.9c-1.5,0-2.7-1.5-3.6-2.8c-1.4-2-2.1-4.4-2.1-6.9
		c0-1.2,0.3-2.4,0.9-3.5c0.9-1.5,2.6-2.5,4.4-2.6c1.6,0,2.6,0.9,4,0.9s2.1-0.9,4-0.9c1.6,0.1,3,0.8,4,2.1c-1.5,0.8-2.4,2.3-2.4,4
		c0,1.9,1.2,3.6,3,4.2C341.4,343.6,341,344.4,340.4,345.2L340.4,345.2z"/>
</g>
<g id="Imported-Layers-Copy-76">
	<path id="Fill-1-15" class="st0" d="M356.3,424.7h-45.8c-1.8,0-3.3,1.5-3.3,3.3v32.6c0,1.8,1.5,3.3,3.3,3.3h20.7v1.8h-9.1
		c-1.2,0-2.2,1-2.2,2.2c0,1.2,1,2.2,2.2,2.2c0,0,0,0,0,0h22.5c1.2,0,2.2-1,2.2-2.2c0-1.2-1-2.2-2.2-2.2c0,0,0,0,0,0h-9.1v-1.8h20.7
		c1.8,0,3.3-1.5,3.3-3.3V428C359.6,426.2,358.1,424.7,356.3,424.7L356.3,424.7z M333.5,460.8c-0.8,0-1.4-0.6-1.4-1.4
		c0-0.8,0.6-1.4,1.4-1.4c0.8,0,1.4,0.6,1.4,1.4C334.9,460.2,334.3,460.8,333.5,460.8C333.6,460.8,333.6,460.8,333.5,460.8z
		 M312.8,429.1h40.8v26.1h-40.8L312.8,429.1z"/>
	<path id="Fill-2-15" class="st0" d="M340.3,445.1c-0.3,0.7-0.6,1.4-1.1,2c-0.7,1-1.7,2.4-2.9,2.4s-1.3-0.7-2.8-0.7
		s-1.8,0.7-2.8,0.7s-2.1-1.2-2.8-2.2c-1.9-2.9-2.1-6.4-0.9-8.2c0.7-1.2,2-2,3.4-2.1c1.3,0,2.1,0.7,3.1,0.7s1.6-0.7,3.1-0.7
		c1.2,0.1,2.4,0.7,3.1,1.7c-1.7,1-2.4,3.1-1.4,4.9C338.9,444.2,339.6,444.8,340.3,445.1"/>
	<path id="Fill-3-14" class="st0" d="M335.6,435.8c0.6-0.7,0.9-1.7,0.8-2.6c-1,0.1-1.9,0.6-2.5,1.3c-0.6,0.7-0.9,1.6-0.8,2.6
		C334.1,437,335,436.5,335.6,435.8"/>
</g>
<g id="Imported-Layers-Copy-77">
	<path id="Fill-1-16" class="st0" d="M351.2,519.1h-35.3c-1.9,0-3.4,1.5-3.4,3.4v46.6c0,1.9,1.5,3.4,3.4,3.4h35.3
		c1.9,0,3.4-1.5,3.4-3.4v-46.6C354.6,520.6,353.1,519.1,351.2,519.1L351.2,519.1z M333.6,569.6c-1.1,0-2.1-0.9-2.1-2.1
		c0-1.1,0.9-2.1,2.1-2.1c1.1,0,2.1,0.9,2.1,2.1c0,0,0,0,0,0C335.6,568.7,334.7,569.6,333.6,569.6
		C333.6,569.6,333.6,569.6,333.6,569.6z M316.8,523.2h33.6V563h-33.6V523.2z"/>
	<path id="Fill-2-16" class="st0" d="M342.9,546.6c-0.4,0.9-0.9,1.8-1.4,2.7c-0.9,1.4-2.2,3.2-3.8,3.2c-1.4,0-1.8-0.9-3.7-0.9
		s-2.3,0.9-3.8,0.9c-1.6,0-2.8-1.6-3.7-3c-2.6-3.9-2.8-8.6-1.3-11c1-1.6,2.7-2.7,4.6-2.8c1.7,0,2.8,0.9,4.2,0.9s2.2-0.9,4.2-0.9
		c1.7,0.1,3.2,0.9,4.2,2.2c-2.3,1.3-3.2,4.3-1.8,6.6C341,545.5,341.9,546.2,342.9,546.6"/>
	<path id="Fill-3-15" class="st0" d="M336.6,534.1c0.8-1,1.2-2.3,1.1-3.6c-1.3,0.2-2.5,0.8-3.3,1.8c-0.8,1-1.2,2.2-1.1,3.5
		C334.6,535.8,335.8,535.1,336.6,534.1"/>
</g>
<g id="Imported-Layers-Copy-78">
	<path id="Fill-1-17" class="st0" d="M456.4,39.1h-11.6v3.5h12c1.8-0.1,3.2-1.5,3.4-3.2c0.1-0.5,0.1-1,0-1.4
		c-0.3-1.6-1.5-2.8-3.1-3.1c-1.2-0.1-12.2-0.8-12.2-0.8c0.2,0.7,0.6,1.4,1.2,1.9c0.5,0.5,1.2,0.8,1.9,1l8.5,0.7c0.3,0,0.8,0,0.8,0.7
		c0,0.2-0.1,0.4-0.2,0.5C456.8,39,456.6,39.1,456.4,39.1"/>
	<path id="Fill-2-17" class="st0" d="M409.7,33.6l-3.7-0.4l-5.7,9.6h3.9L409.7,33.6"/>
	<path id="Fill-3-16" class="st0" d="M433.6,32.9v-3.5h-3.4v3.5L433.6,32.9"/>
	<path id="Fill-4-12" class="st0" d="M429.7,29.4h-11.2c-1.1,0.1-2.1,0.6-2.7,1.4c-0.4,0.6-0.7,1.2-0.8,1.8v-3.2h-6
		c-0.5,0-0.9,0.3-1.2,0.7c-0.3,0.5-1.7,2.8-1.7,2.8l23.6-0.1L429.7,29.4"/>
	<path id="Fill-5-5" class="st0" d="M430.3,38.1c-0.1-0.5-1-2.8-3.1-3c-1.2-0.1-12.1-1-12.1-1c0.1,0.8,0.5,1.5,1,2.1
		c0.6,0.5,1.3,0.9,2,1l8.4,0.7c0.4,0,0.7,0.3,0.7,0.7c0,0.4-0.3,0.7-0.7,0.7h-11.7V34l-3.3-0.2v9l15.7-0.1c1.6-0.3,2.8-1.6,3-3.2
		c0-0.2,0.1-0.4,0.1-0.6v-0.6C430.3,38.1,430.3,38.1,430.3,38.1"/>
	<path id="Fill-6-5" class="st0" d="M462.2,31.8v-0.7h0.5c0.1,0,0.1,0,0.2,0c0.1,0,0.1,0.1,0.1,0.2v0.3c0,0.1,0,0.1,0,0.1
		c0,0,0,0,0,0h0.3l0,0c0,0,0,0-0.1-0.1c0,0,0-0.1,0-0.1v-0.2c0-0.1,0-0.1,0-0.2c0,0-0.1-0.1-0.1-0.1c0.1,0,0.1-0.1,0.2-0.1
		c0-0.1,0.1-0.2,0-0.2c0-0.2-0.1-0.3-0.2-0.4c-0.1,0-0.2-0.1-0.3,0H462v1.6H462.2z M462.6,30.4c0.1,0,0.1,0,0.2,0
		c0.1,0.1,0.1,0.1,0.1,0.2c0,0.1,0,0.2-0.1,0.2c-0.1,0-0.1,0.1-0.2,0.1h-0.5v-0.6L462.6,30.4z"/>
	<path id="Fill-7-4" class="st0" d="M444.6,32.8v-3.5h-3.4v3.5H444.6"/>
	<path id="Fill-8-4" class="st0" d="M430.3,38.2c0,0.2,0,0.4,0,0.6v0.6c0.2,1.7,1.5,3,3.1,3.2h0.3h7.6c1.9-0.2,3.3-1.8,3.3-3.7v-4.9
		l-3.3-0.2V38c0,0,0,1.2-1.1,1.2h-5.7c-0.6,0-1-0.6-1-1.2v-4.7l-3.3-0.2L430.3,38.2"/>
	<path id="Fill-9-4" class="st0" d="M462.5,32.4c0.4,0,0.7-0.2,1-0.4c0.5-0.6,0.5-1.5,0-2.1c-0.3-0.3-0.6-0.4-1-0.4
		c-0.8,0-1.5,0.7-1.5,1.5C461,31.8,461.7,32.4,462.5,32.4z M462.5,29.5c0.3,0,0.7,0.1,0.9,0.4c0.3,0.3,0.4,0.6,0.4,1
		c0,0.4-0.1,0.7-0.4,1c-0.2,0.3-0.6,0.4-0.9,0.4c-0.8-0.1-1.3-0.7-1.3-1.5C461.3,30.2,461.8,29.6,462.5,29.5L462.5,29.5z"/>
	<path id="Fill-10-2" class="st0" d="M460.2,32.8v-3.5h-12c-1.1,0.1-2.1,0.6-2.7,1.4c-0.4,0.6-0.7,1.2-0.8,1.8v0.3L460.2,32.8"/>
</g>
<g id="Imported-Layers-Copy-79">
	<path id="Fill-1-18" class="st0" d="M445.9,108.3h-28.2c-2.4,0-4.4,2-4.5,4.4v49.7c0,2.4,2,4.4,4.5,4.4h28.2c2.4,0,4.4-2,4.5-4.4
		v-49.7C450.3,110.2,448.3,108.3,445.9,108.3z M435.6,163.7H428c-0.7,0-1.4-0.6-1.4-1.3c0-0.7,0.6-1.4,1.3-1.4c0,0,0,0,0,0h7.7
		c0.7,0,1.4,0.6,1.4,1.3C437,163.1,436.4,163.7,435.6,163.7C435.6,163.7,435.6,163.7,435.6,163.7z M446.4,116.5v40.8h-29.3v-43.6
		h29.3V116.5L446.4,116.5z"/>
	<path id="Fill-2-18" class="st0" d="M441.7,136.7h-4.9v1.4h5.1c0.7,0,1.3-0.6,1.5-1.3c0-0.2,0-0.4,0-0.6c-0.1-0.6-0.7-1.1-1.3-1.2
		c-0.5,0-5.1-0.3-5.1-0.3c0.1,0.3,0.2,0.6,0.5,0.7c0.2,0.2,0.5,0.3,0.8,0.4l3.6,0.3c0.1,0,0.3,0,0.3,0.3c0,0.1,0,0.2-0.1,0.2
		C441.8,136.7,441.8,136.7,441.7,136.7"/>
	<path id="Fill-3-17" class="st0" d="M422,134.6l-1.6-0.2l-2.4,3.8h1.7L422,134.6"/>
	<path id="Fill-4-13" class="st0" d="M432.1,134.3v-1.4h-1.4v1.4H432.1"/>
	<path id="Fill-5-6" class="st0" d="M430.4,132.9h-4.7c-0.4,0-0.9,0.2-1.1,0.6c-0.2,0.2-0.3,0.5-0.4,0.7v-1.3h-2.5
		c-0.2,0-0.4,0.1-0.5,0.3c-0.1,0.2-0.7,1.1-0.7,1.1h10L430.4,132.9"/>
	<path id="Fill-6-6" class="st0" d="M430.7,136.3c-0.2-0.6-0.7-1.1-1.3-1.2l-5.1-0.4c0.1,0.3,0.2,0.6,0.4,0.8
		c0.2,0.2,0.5,0.3,0.8,0.4l3.5,0.3c0.1,0,0.3,0,0.3,0.3c0,0.2-0.1,0.3-0.3,0.3c0,0,0,0,0,0h-5v-2.1l-1.4-0.1v3.5h6.6
		c0.6-0.1,1.2-0.6,1.3-1.3c0-0.1,0-0.2,0-0.2L430.7,136.3"/>
	<path id="Fill-7-5" class="st0" d="M444.2,133.9v-0.3h0.3c0,0,0,0.1,0,0.1v0.2h0.1l0,0c0,0,0,0,0-0.1v-0.1c0,0,0-0.1,0-0.1h-0.1
		c0,0,0.1,0,0.1-0.1c0,0,0-0.1,0-0.1c0-0.1,0-0.1-0.1-0.1h-0.1h-0.3v0.6L444.2,133.9z M444.4,133.3L444.4,133.3
		C444.5,133.3,444.5,133.4,444.4,133.3c0.1,0.1,0.1,0.2,0.1,0.2c0,0-0.1,0-0.1,0h-0.2v-0.2L444.4,133.3z"/>
	<path id="Fill-8-5" class="st0" d="M436.8,134.3v-1.4h-1.4v1.4H436.8"/>
	<path id="Fill-9-5" class="st0" d="M430.7,136.4c0,0.1,0,0.2,0,0.3v0.2c0.1,0.7,0.6,1.2,1.3,1.3h3.4c0.8,0,1.4-0.7,1.4-1.4v-1.9
		l-1.4-0.1v1.6c0,0.3-0.2,0.5-0.5,0.5h-2.4c-0.2,0-0.4-0.2-0.4-0.5v-1.8l-1.4-0.1L430.7,136.4"/>
	<path id="Fill-10-3" class="st0" d="M444.3,134.1c0.2,0,0.3-0.1,0.4-0.2c0.2-0.2,0.2-0.6,0-0.8c-0.2-0.2-0.6-0.2-0.8,0
		s-0.2,0.6,0,0.8C444,134,444.2,134.1,444.3,134.1L444.3,134.1z M444.3,133c0.3,0,0.5,0.2,0.5,0.5l0,0c0,0.1-0.1,0.3-0.2,0.4
		c-0.1,0.1-0.2,0.2-0.4,0.2c-0.3,0-0.5-0.2-0.5-0.5C443.8,133.2,444,133,444.3,133z"/>
	<path id="Fill-11-2" class="st0" d="M443.3,134.2v-1.4h-5.1c-0.4,0-0.9,0.2-1.1,0.6c-0.2,0.2-0.3,0.5-0.4,0.7v0.1H443.3"/>
</g>
<g id="Imported-Layers-Copy-93">
	<path id="Fill-1-19" class="st0" d="M645.9,209.3h-28.2c-2.4,0-4.4,2-4.5,4.4v49.7c0,2.4,2,4.4,4.5,4.4h28.2c2.4,0,4.4-2,4.5-4.4
		v-49.7C650.3,211.2,648.3,209.3,645.9,209.3L645.9,209.3z M635.6,264.7H628c-0.7,0-1.4-0.6-1.4-1.4s0.6-1.4,1.4-1.4h7.7
		c0.7,0,1.3,0.6,1.3,1.4S636.4,264.7,635.6,264.7z M646.4,217.5v40.8h-29.3v-43.6h29.3V217.5L646.4,217.5z"/>
</g>
<g id="Imported-Layers-Copy-80">
	<path id="Fill-1-20" class="st0" d="M453.8,220H410c-1.8,0.1-3.1,1.5-3.1,3.3v26.5c-0.1,1.8,1.3,3.2,3.1,3.3h43.8
		c1.8-0.1,3.1-1.5,3.1-3.3v-26.5C456.9,221.5,455.6,220.1,453.8,220L453.8,220z M451.8,247.1c0,1.4-1.1,2.6-2.5,2.6h-34.9
		c-1.4-0.1-2.5-1.2-2.5-2.6V226c0-1.4,1.1-2.6,2.5-2.6h34.9c1.4,0.1,2.5,1.2,2.5,2.6L451.8,247.1L451.8,247.1z"/>
	<path id="Fill-2-19" class="st0" d="M460.5,254.8h-57.3c0,0.2,0,0.4,0,0.6v0.8c-0.1,1.8,1.3,3.3,3.1,3.3h51.2
		c1.8-0.1,3.2-1.6,3.1-3.3v-0.8C460.6,255.2,460.5,255,460.5,254.8L460.5,254.8z M450.8,258h-2.7c-0.3,0-0.6-0.4-0.5-0.7
		c0-0.3,0.3-0.5,0.5-0.5h2.7c0.3,0,0.6,0.4,0.5,0.7C451.3,257.7,451.1,258,450.8,258z M455.4,258h-2.7c-0.3,0-0.6-0.4-0.5-0.7
		c0-0.3,0.3-0.5,0.5-0.5h2.7c0.3,0,0.6,0.4,0.5,0.7C455.9,257.7,455.7,258,455.4,258z"/>
	<path id="Fill-3-18" class="st0" d="M446.2,239h-6.6v1.9h6.8c1,0,1.8-0.8,2-1.7c0-0.3,0-0.5,0-0.8c-0.2-0.9-0.9-1.5-1.8-1.6
		c-0.7-0.1-6.9-0.4-6.9-0.4c0.1,0.4,0.3,0.7,0.6,1c0.3,0.3,0.7,0.4,1.1,0.5l4.8,0.4c0.1,0,0.5,0,0.5,0.4c0,0.1,0,0.2-0.1,0.3
		C446.4,239,446.3,239,446.2,239"/>
	<path id="Fill-4-14" class="st0" d="M419.7,236.1l-2.1-0.2l-3.3,5.1h2.3L419.7,236.1"/>
	<path id="Fill-5-7" class="st0" d="M433.3,235.7v-1.9h-1.9v1.9H433.3"/>
	<path id="Fill-6-7" class="st0" d="M431,233.8h-6.4c-0.6,0-1.2,0.3-1.5,0.8c-0.2,0.3-0.4,0.6-0.5,1v-1.7h-3.4
		c-0.3,0-0.5,0.1-0.7,0.4c-0.2,0.3-1,1.5-1,1.5l13.4-0.1L431,233.8"/>
	<path id="Fill-7-6" class="st0" d="M431.4,238.5c-0.2-0.8-0.9-1.5-1.8-1.6l-6.9-0.5c0.1,0.4,0.3,0.8,0.6,1.1
		c0.3,0.3,0.7,0.4,1.1,0.5l4.8,0.4c0.1,0,0.4,0,0.4,0.4c0,0.2-0.2,0.4-0.4,0.4h-6.7v-2.8l-1.9-0.1v4.8h8.9c0.9-0.2,1.6-0.8,1.7-1.7
		c0-0.1,0-0.2,0-0.3L431.4,238.5C431.4,238.5,431.4,238.5,431.4,238.5"/>
	<path id="Fill-8-6" class="st0" d="M449.5,235.1v-0.4h0.4c0,0,0.1,0.1,0.1,0.1v0.2h0.1l0,0c0,0,0,0,0-0.1c0,0,0,0,0-0.1v-0.1
		c0,0,0-0.1,0-0.1c0,0,0,0-0.1-0.1c0.1,0,0.1-0.1,0.1-0.2c0-0.1,0-0.2-0.1-0.2c-0.1,0-0.1,0-0.2,0h-0.4L449.5,235.1L449.5,235.1z
		 M449.8,234.4L449.8,234.4c0.1,0,0.2,0.1,0.1,0.1c0,0,0,0.1,0,0.1c0,0-0.1,0-0.1,0h-0.3v-0.3L449.8,234.4z"/>
	<path id="Fill-9-6" class="st0" d="M439.6,235.7v-1.9h-1.9v1.9H439.6"/>
	<path id="Fill-10-4" class="st0" d="M431.4,238.6c0,0.1,0,0.2,0,0.3v0.3c0.1,0.9,0.9,1.6,1.8,1.7h0.2h4.4c1-0.1,1.8-0.9,1.9-1.9
		v-2.6l-1.9-0.1v2.2c0,0.3-0.3,0.6-0.6,0.6c0,0,0,0,0,0h-3.2c-0.3,0-0.6-0.3-0.5-0.6V236l-1.9-0.1L431.4,238.6"/>
	<path id="Fill-11-3" class="st0" d="M449.7,235.5c0.4,0,0.8-0.4,0.8-0.8c0,0,0,0,0,0c0-0.4-0.4-0.8-0.8-0.8c-0.4,0-0.8,0.4-0.8,0.8
		C448.9,235.1,449.3,235.5,449.7,235.5z M449.7,233.9c0.2,0,0.4,0.1,0.5,0.2c0.1,0.1,0.2,0.3,0.2,0.5c0,0.4-0.3,0.7-0.7,0.7
		c-0.4,0-0.7-0.3-0.7-0.7C449,234.3,449.3,233.9,449.7,233.9L449.7,233.9z"/>
	<path id="Fill-12-2" class="st0" d="M448.4,235.7v-1.9h-6.8c-0.6,0-1.2,0.3-1.5,0.8c-0.2,0.3-0.4,0.6-0.5,1v0.1L448.4,235.7"/>
</g>
<g id="Imported-Layers-Copy-81">
	<path id="Fill-1-21" class="st0" d="M461.7,351.1v-2.7c0-1.6-1.3-3-2.9-3c0,0,0,0,0,0h-10.5v-17.4c0.6-0.5,1-1.2,1-2
		c0-1.3-1-2.3-2.3-2.3c-1.3,0-2.3,1-2.3,2.3c0,0.8,0.4,1.5,1,2v17.5h-39.8c-1.6,0-2.9,1.4-2.9,3c0,0,0,0,0,0v11.2c0,1.6,1.3,3,2.9,3
		c0,0,0,0,0,0h52.9c1.6,0,2.9-1.4,2.9-3c0,0,0,0,0,0v-3.4h-5V355h5v-0.8h-5V353h5v-0.8h-5V351L461.7,351.1z M455.5,355.5
		c0,0.6-0.4,1-1,1h-37.6c-0.9,1.4-2.4,2.2-4,2.2c-2.7-0.3-4.7-2.8-4.4-5.6c0.3-2.3,2.1-4.1,4.4-4.4c1.6,0,3.1,0.9,4,2.2h37.6
		c0.6,0,1,0.4,1,1L455.5,355.5L455.5,355.5z"/>
	<path id="Fill-2-20" class="st0" d="M412.8,350.2c-2-0.1-3.7,1.5-3.8,3.5c-0.1,2,1.5,3.7,3.5,3.8s3.7-1.5,3.8-3.5c0,0,0-0.1,0-0.1
		C416.4,351.9,414.8,350.2,412.8,350.2C412.8,350.2,412.8,350.2,412.8,350.2"/>
	<path id="Fill-3-19" class="st0" d="M436,352.9h4.9v2H436V352.9z"/>
	<path id="Fill-4-15" class="st0" d="M442.4,352.9h4.9v2h-4.9V352.9z"/>
	<path id="Fill-5-8" class="st0" d="M448.9,352.9h4.9v2h-4.9V352.9z"/>
</g>
<path id="Imported-Layers-Copy-82" class="st0" d="M450,421c-1.6,0-2.8,1.3-2.8,2.8c0,0.9,0.5,1.7,1.2,2.3v18.2h-1.9v-8.2
	c0-2.4-1.9-4.3-4.3-4.3h-1.8v5.1h-1v-5.1h-2v5.1h-1v-5.1h-2v5.1h-1v-5.1h-2v5.1h-1v-5.1h-2v5.1h-1v-5.1h-2v5.1h-1v-5.1h-2.3
	c-2.4,0-4.3,2-4.3,4.3v8.2h-2.5v-18.2c1.3-0.9,1.6-2.6,0.7-3.9s-2.6-1.6-3.9-0.7s-1.6,2.6-0.7,3.9c0.2,0.3,0.4,0.5,0.7,0.7v20.4
	c0,0.7,0.5,1.2,1.2,1.2c0,0,0,0,0,0h0.4v1.2c0,1.2,1,2.2,2.2,2.2c0,0,0,0,0.1,0h1.9v17.3c0,2.4,1.9,4.3,4.3,4.3h20
	c2.4,0,4.3-2,4.3-4.3v-17.3h1.3c1.2,0,2.2-1,2.2-2.2c0,0,0,0,0,0v-1.2h0.4c0.7,0,1.2-0.6,1.2-1.2v-20.4c1.3-0.9,1.6-2.6,0.7-3.9
	C451.7,421.5,450.9,421,450,421z M440.8,464.4c-0.9,0-1.6-0.7-1.6-1.6c0-0.9,0.7-1.6,1.6-1.6c0.9,0,1.6,0.7,1.6,1.6c0,0,0,0,0,0
	C442.4,463.7,441.7,464.4,440.8,464.4C440.8,464.4,440.8,464.4,440.8,464.4z M440.8,458.7c-0.9,0-1.6-0.7-1.6-1.6
	c0-0.9,0.7-1.6,1.6-1.6c0.9,0,1.6,0.7,1.6,1.6c0,0,0,0,0,0C442.4,457.9,441.7,458.7,440.8,458.7
	C440.8,458.7,440.8,458.7,440.8,458.7z M440.8,453.1c-0.9,0-1.6-0.7-1.6-1.6c0-0.9,0.7-1.6,1.6-1.6c0.9,0,1.6,0.7,1.6,1.6
	c0,0,0,0,0,0C442.4,452.3,441.7,453.1,440.8,453.1C440.8,453.1,440.8,453.1,440.8,453.1z"/>
<g id="Imported-Layers-Copy-83">
	<path id="Fill-1-22" class="st0" d="M432.4,535.7c-4.4,0-7.9,3.6-7.9,8c0,4.4,3.6,7.9,8,7.9c4.4,0,7.9-3.6,7.9-8c0,0,0,0,0,0
		C440.3,539.2,436.8,535.7,432.4,535.7z M432.6,549.2c-3.1,0-5.7-2.5-5.7-5.7c0-3.1,2.5-5.7,5.7-5.7c3.1,0,5.7,2.5,5.7,5.6
		C438.3,546.6,435.7,549.2,432.6,549.2z"/>
	<path id="Fill-2-21" class="st0" d="M436.1,543.4c0,2-1.6,3.7-3.6,3.8c-2,0-3.7-1.6-3.8-3.6c0-2,1.6-3.7,3.6-3.8c0,0,0,0,0.1,0
		c2-0.1,3.6,1.5,3.7,3.5C436.1,543.3,436.1,543.4,436.1,543.4z M430.8,541.8c-0.8,0.7-1.1,1.6-0.7,2s1.3,0.2,2.1-0.6s1.1-1.6,0.7-2
		S431.6,541.1,430.8,541.8z"/>
	<path id="Fill-3-20" class="st0" d="M432.4,525.2c-9.5,0-17.1,7.7-17,17.2c0,9.5,7.7,17.1,17.2,17c9.5,0,17.1-7.7,17-17.2
		c0,0,0,0,0,0C449.6,532.8,441.9,525.2,432.4,525.2C432.4,525.2,432.4,525.2,432.4,525.2z M432.4,527.5c0.6,0,1,0.4,1,1s-0.4,1-1,1
		s-1-0.4-1-1S431.9,527.5,432.4,527.5z M432.4,554.4c-6.2,0-11.2-5-11.2-11.2c0-6.2,5-11.2,11.2-11.2s11.2,5,11.2,11.2
		C443.6,549.4,438.6,554.4,432.4,554.4z"/>
	<path id="Fill-4-16" class="st0" d="M448.1,565.5c-1.6-3.2-4.5-4.7-7.7-5.7c-0.4,0-0.8,0.1-1.1,0.3c-4.3,1.9-9.2,1.9-13.5,0
		c-0.3-0.2-0.7-0.3-1.1-0.3c-3.2,1-6.1,2.5-7.7,5.7c-0.7,1.4-0.1,2.4,1.3,2.4c0.2-0.1,0.6-0.2,1-0.3c8.6-3.1,18.1-3.1,26.7,0
		c0.4,0.1,0.8,0.2,1,0.3C448.3,567.9,448.8,566.9,448.1,565.5"/>
</g>
<g id="Imported-Layers-Copy-84">
	<path id="Fill-1-23" class="st0" d="M504.2,34.8v4.7c9,0,16.3,7.4,16.3,16.4h4.6C525.1,44.3,515.7,34.9,504.2,34.8"/>
	<path id="Fill-2-22" class="st0" d="M504.2,41.9v4.7c5.2,0,9.3,4.2,9.3,9.4h4.6C518.1,48.2,511.9,42,504.2,41.9"/>
	<path id="Fill-3-21" class="st0" d="M504.2,48.9v7h7C511.2,52,508,48.9,504.2,48.9"/>
	<path id="Fill-4-17" class="st0" d="M523.6,48.3c0.1,0.3,0.2,0.7,0.3,1C523.9,48.9,523.8,48.6,523.6,48.3"/>
	<path id="Fill-5-9" class="st0" d="M524.7,52.3L524.7,52.3c-0.2-1-0.4-2-0.8-3C524.3,50.2,524.6,51.2,524.7,52.3"/>
	<path id="Fill-6-8" class="st0" d="M510.8,35.9c-1-0.3-2-0.6-3-0.8C508.8,35.3,509.8,35.6,510.8,35.9"/>
	<path id="Fill-7-7" class="st0" d="M552.2,16.3h-41.1c-1.8,0-3.3,1.5-3.3,3.3v11.5c1.4,0.2,2.7,0.5,4,0.9V20.3h39.8v28h-23.7
		c0.4,1.3,0.7,2.6,0.9,4h23.5c1.8,0,3.3-1.5,3.3-3.3V19.6C555.5,17.8,554,16.3,552.2,16.3"/>
	<path id="Fill-8-7" class="st0" d="M511.7,36.3L511.7,36.3l-1-0.3L511.7,36.3"/>
</g>
<g id="Imported-Layers-Copy-85">
	<path id="Fill-1-24" class="st0" d="M535.3,140.2l1.5,3.1h-13.5l1.5-3.1H535.3 M536.7,137.9h-13.2l-3.7,7.5h20.7L536.7,137.9"/>
	<path id="Fill-2-23" class="st0" d="M548.5,150.4l-4.2-13.7c-0.1-0.2-0.1-0.4-0.2-0.6l0,0c-0.1-0.3-0.3-0.5-0.4-0.7
		c-0.3-0.7-0.3-1.4,0-2.1c0.5-1.8,3.3-10.2,5-15.6c0.2-0.7-0.3-1.3-1.2-1.3h-34.8c-0.9,0-1.4,0.6-1.2,1.3c1.7,5.5,4.9,14.8,5.2,15.9
		c0.2,0.6,0.1,1.3-0.2,1.8c-0.1,0.2-0.2,0.3-0.3,0.5v0.1l0,0c-0.1,0.2-0.2,0.5-0.3,0.7l-4.2,13.7c-0.2,0.5-0.3,1-0.4,1.4v3.8
		c-0.1,1.6,1.1,2.9,2.6,3c0.1,0,0.1,0,0.2,0h31.9c1.7,0,3-1.3,3-3c0,0,0-0.1,0-0.1v-3.2C548.9,151.6,548.7,151,548.5,150.4
		L548.5,150.4z M540.5,154.8c-0.6,0-1-0.4-1-1s0.4-1,1-1s1,0.4,1,1S541,154.8,540.5,154.8z M543.3,154.8c-0.6,0-1-0.4-1-1s0.4-1,1-1
		s1,0.4,1,1S543.8,154.8,543.3,154.8z M546,149c-0.2,0.2-0.5,0.3-0.8,0.2h-30.3c-0.3,0-0.6-0.1-0.8-0.2c0-0.1,0-0.2,0-0.3l4-11.7
		c0.1-0.3,0.4-0.6,0.7-0.8h22.7c0.2,0.2,0.4,0.5,0.5,0.8l4,11.7C546.1,148.8,546.1,148.9,546,149L546,149z"/>
</g>
<g id="Imported-Layers-Copy-86">
	<path id="Fill-1-25" class="st0" d="M544.4,222.2c0-1.7-1.3-3-3-3h-22.8c-1.7,0-3,1.3-3,3v9h28.9L544.4,222.2L544.4,222.2z"/>
	<path id="Fill-2-24" class="st0" d="M548.8,233.2h-37.6c-2.6-0.1-4.8,2-4.9,4.7c0,0,0,0.1,0,0.1v14.5c0,2.6,2.1,4.8,4.7,4.8
		c0.1,0,0.1,0,0.2,0h1.6v-12.8h34.4v12.9h1.6c2.6,0.1,4.8-2,4.9-4.6c0-0.1,0-0.1,0-0.2V238c0-2.6-2.1-4.8-4.7-4.8
		C548.9,233.2,548.8,233.2,548.8,233.2L548.8,233.2z M543.8,241.2c-0.9,0-1.6-0.8-1.6-1.6c0-0.9,0.8-1.6,1.6-1.6
		c0.9,0,1.6,0.7,1.6,1.6c0,0.8-0.6,1.6-1.4,1.6C544,241.2,543.9,241.2,543.8,241.2z"/>
	<path id="Fill-3-22" class="st0" d="M515.5,258.7c0,1.7,1.3,3,3,3h22.8c1.7,0,3-1.3,3-3v-12h-28.8V258.7z M518.5,251.2h22.8v1.5
		h-22.8L518.5,251.2z M518.5,255.7h22.8v1.5h-22.8L518.5,255.7z"/>
</g>
<g id="Imported-Layers-Copy-87">
	<path id="Fill-1-26" class="st0" d="M549.1,321.1H510c-1,0-1.9,0.8-1.9,1.9v8.5c0,1,0.8,1.9,1.9,1.9h39.1c1,0,1.9-0.8,1.9-1.9V323
		C550.9,322,550.1,321.1,549.1,321.1z M514.5,330.3c-1.7,0-3.1-1.4-3.1-3.1c0-1.7,1.4-3.1,3.1-3.1c1.7,0,3.1,1.4,3.1,3.1
		c0,0,0,0,0,0C517.7,328.9,516.3,330.3,514.5,330.3L514.5,330.3z M536.5,328.7c-0.9,0-1.6-0.7-1.6-1.6c0-0.9,0.7-1.6,1.6-1.6
		s1.6,0.7,1.6,1.6c0,0,0,0,0,0C538.1,328,537.4,328.7,536.5,328.7C536.6,328.7,536.6,328.7,536.5,328.7z M541.3,328.7
		c-0.9,0-1.6-0.7-1.6-1.6c0-0.9,0.7-1.6,1.6-1.6s1.6,0.7,1.6,1.6c0,0,0,0,0,0C542.8,328,542.1,328.7,541.3,328.7
		C541.3,328.7,541.3,328.7,541.3,328.7z M546,328.7c-0.9,0-1.6-0.7-1.6-1.6c0-0.9,0.7-1.6,1.6-1.6s1.6,0.7,1.6,1.6c0,0,0,0,0,0
		C547.6,328,546.9,328.7,546,328.7L546,328.7L546,328.7z"/>
	<path id="Fill-2-25" class="st0" d="M549.3,334.4h-39.4c-0.9,0-1.7,0.8-1.7,1.7v8.8c0,0.9,0.8,1.7,1.7,1.7h39.4
		c0.9,0,1.7-0.8,1.7-1.7v-8.8C550.9,335.1,550.2,334.4,549.3,334.4z M516.6,342.9c-1.4,1.1-3.4,0.9-4.5-0.5c-0.9-1.2-0.9-2.8,0-4
		c0.1-0.2,0.2-0.3,0.4-0.4c1.4-1.1,3.4-0.9,4.5,0.5c0.9,1.2,0.9,2.8,0,4C516.9,342.6,516.8,342.8,516.6,342.9z M536.8,341.9
		c-0.8,0.2-1.7-0.4-1.9-1.2c-0.2-0.8,0.4-1.7,1.2-1.9c0.8-0.2,1.7,0.4,1.9,1.2c0,0.2,0,0.4,0,0.6
		C537.9,341.3,537.5,341.8,536.8,341.9z M541.6,341.9c-0.8,0.2-1.7-0.4-1.9-1.2c-0.2-0.8,0.4-1.7,1.2-1.9c0.8-0.2,1.7,0.4,1.9,1.2
		c0,0.2,0,0.4,0,0.6C542.7,341.3,542.2,341.8,541.6,341.9z M546.3,341.9c-0.8,0.2-1.7-0.4-1.9-1.2c-0.2-0.8,0.4-1.7,1.2-1.9
		c0.8-0.2,1.7,0.4,1.9,1.2c0,0.2,0,0.4,0,0.6C547.4,341.3,546.9,341.8,546.3,341.9z"/>
	<path id="Fill-3-23" class="st0" d="M549.1,347.6H510c-1,0-1.9,0.8-1.9,1.9v8.5c0,1,0.8,1.9,1.9,1.9h39.1c1,0,1.9-0.8,1.9-1.9v-8.5
		C550.9,348.5,550.1,347.7,549.1,347.6L549.1,347.6z M514.5,356.8c-1.7,0-3.1-1.4-3.1-3.1c0-1.7,1.4-3.1,3.1-3.1
		c1.7,0,3.1,1.4,3.1,3.1c0,0,0,0,0,0C517.7,355.4,516.3,356.8,514.5,356.8L514.5,356.8z M536.5,355.2c-0.9,0-1.6-0.7-1.6-1.6
		c0-0.9,0.7-1.6,1.6-1.6s1.6,0.7,1.6,1.6c0,0,0,0,0,0C538.1,354.5,537.4,355.2,536.5,355.2C536.6,355.2,536.6,355.2,536.5,355.2z
		 M541.3,355.2c-0.9,0-1.6-0.7-1.6-1.6c0-0.9,0.7-1.6,1.6-1.6s1.6,0.7,1.6,1.6c0,0,0,0,0,0C542.8,354.5,542.1,355.2,541.3,355.2
		C541.3,355.2,541.3,355.2,541.3,355.2z M546,355.2c-0.9,0-1.6-0.7-1.6-1.6c0-0.9,0.7-1.6,1.6-1.6s1.6,0.7,1.6,1.6c0,0,0,0,0,0
		C547.6,354.5,546.9,355.2,546,355.2C546,355.2,546,355.2,546,355.2z"/>
	<path id="Fill-4-18" class="st0" d="M528.5,328.6h2.1v35.2h-2.1V328.6z"/>
	<path id="Fill-5-10" class="st0" d="M543.2,366.4h-27.3c-0.4,0-0.7-0.3-0.7-0.7c0-0.4,0.3-0.7,0.7-0.7h27.3c0.4,0,0.7,0.3,0.7,0.7
		C543.9,366.1,543.6,366.4,543.2,366.4"/>
	<path id="Fill-6-9" class="st0" d="M533.5,368h-8c-0.6,0-1.1-0.5-1.1-1.1l0,0v-2.4c0-0.6,0.5-1.1,1.1-1.1l0,0h8
		c0.6,0,1.1,0.5,1.1,1.1v2.4C534.6,367.5,534.1,368,533.5,368"/>
</g>
<g id="Imported-Layers-Copy-88">
	<path id="Fill-1-27" class="st0" d="M536,458.3h-15c-1.3,0-2.4-1.1-2.4-2.4v-17.4c0-1.3,1.1-2.4,2.4-2.4h15c1.3,0,2.4,1.1,2.4,2.4
		v17.4C538.4,457.2,537.3,458.3,536,458.3"/>
	<path id="Fill-2-26" class="st0" d="M543.5,442v-1.3c0-0.8-0.6-1.5-1.4-1.7v4.6C542.9,443.6,543.5,442.9,543.5,442"/>
	<path id="Fill-3-24" class="st0" d="M543.2,455.2v-7.5c0-0.6-0.5-1.1-1-1.2v9.9C542.7,456.3,543.1,455.8,543.2,455.2"/>
	<path id="Fill-4-19" class="st0" d="M541.6,439.1v-4.5c0-1.1-0.9-2-2-2h-1.2c-0.1,0-0.1,0-0.2,0c-0.3,0.2-0.8,0.4-1.2,0.4h-17
		c-0.4,0-0.8-0.1-1.1-0.4c-0.1-0.1-0.2-0.1-0.2-0.1h-1.2c-1.1,0-2,0.9-2,2v25.9c0,1.1,0.9,2,2,2h0.8c0.1,0,0.2,0,0.2-0.1
		c0.3-0.5,0.9-0.8,1.5-0.7h17c0.6,0,1.2,0.2,1.5,0.7c0,0.1,0.1,0.1,0.2,0.1h0.8c1.1,0,2-0.9,2-2L541.6,439.1L541.6,439.1z
		 M537.3,460h-17.5c-1.5,0-2.6-1.2-2.6-2.6v-20c0-1.5,1.2-2.6,2.6-2.6h17.5c1.5,0,2.6,1.2,2.6,2.6v20
		C539.9,458.8,538.7,460,537.3,460z"/>
	<path id="Fill-5-11" class="st0" d="M536.5,423.4c-0.1-1.1-0.9-2-2-2.1h-12c-1.1,0.2-1.9,1-2,2.1l-1,6.7c-0.1,0.8,0.4,1.5,1.2,1.6
		c0.1,0,0.1,0,0.2,0H536c0.8,0,1.4-0.6,1.4-1.4c0-0.1,0-0.1,0-0.2L536.5,423.4"/>
	<path id="Fill-6-10" class="st0" d="M520.5,470.8c0.1,1.1,0.9,2,2,2.1h12c1.1-0.2,1.9-1,2-2.1l1-6.4c0.1-0.7-0.4-1.4-1.1-1.5
		c-0.1,0-0.1,0-0.2,0h-15.3c-0.7,0-1.3,0.6-1.3,1.3c0,0.1,0,0.1,0,0.2L520.5,470.8"/>
</g>
<g id="Imported-Layers-Copy-89">
	<path id="Fill-1-28" class="st0" d="M552.3,523.7h-45.8c-1.8,0-3.3,1.5-3.3,3.3v32.6c0,1.8,1.5,3.3,3.3,3.3h20.7v1.8h-9.1
		c-1.2,0-2.2,1-2.2,2.2s1,2.2,2.2,2.2h22.5c1.2,0,2.2-1,2.2-2.2s-1-2.2-2.2-2.2h-9.1v-1.8h20.7c1.8,0,3.3-1.5,3.3-3.3V527
		C555.6,525.2,554.1,523.7,552.3,523.7L552.3,523.7z M529.5,559.8c-0.8,0-1.4-0.6-1.4-1.4s0.6-1.4,1.4-1.4c0.8,0,1.4,0.6,1.4,1.4
		l0,0C530.9,559.2,530.3,559.8,529.5,559.8z M508.8,528.1h40.8v26.1h-40.8L508.8,528.1z"/>
	<path id="Fill-2-27" class="st0" d="M512.3,543.9c0.8,1,3,1.1,3,0c0-0.6-0.8-0.8-1.6-0.9c-1.3-0.2-2.7-0.7-2.7-2.3
		c0.1-1.4,1.6-2.1,3.1-2.1c1.1-0.1,2.2,0.4,2.9,1.3l-1.4,0.8c-0.3-0.4-0.9-0.7-1.4-0.7c-0.7,0-1.3,0.2-1.3,0.7l0,0
		c0,0.6,0.7,0.7,1.5,0.8c1.5,0.2,2.9,0.7,2.8,2.4c-0.1,1.4-1.7,2.1-3.2,2.1c-1.1,0-2.2-0.5-2.9-1.4L512.3,543.9"/>
	<path id="Fill-3-25" class="st0" d="M522.7,545.1h-1.1l-1-2.3l-0.3-1h-0.1l0.2,1.4v2.9h-1.5v-7.3h1.6l1.8,4.2l1.8-4.2h1.6v7.3H524
		v-2.9l0.2-1.4H524l-0.3,1L522.7,545.1"/>
	<path id="Fill-4-20" class="st0" d="M533.5,546.1h-1.6l-0.6-1.7h-2.2l-0.6,1.7h-1.6l2.5-7.3h1.5L533.5,546.1L533.5,546.1z
		 M529.5,543.1h1.4l-0.5-1.6l-0.2-1h-0.1l-0.2,1L529.5,543.1L529.5,543.1z"/>
	<path id="Fill-5-12" class="st0" d="M536.8,543.4h-0.5v2.7h-1.5v-7.3h2.9c1.5,0,2.5,0.7,2.6,2.3c0.1,1.1-0.6,2-1.6,2.2c0,0,0,0,0,0
		l2.2,2.8h-1.9L536.8,543.4L536.8,543.4z M537.7,542c0.7,0,1.1-0.3,1.1-0.9s-0.5-0.8-1.1-0.8h-1.3v1.7L537.7,542z"/>
	<path id="Fill-6-11" class="st0" d="M545.1,540.3v5.8h-1.5v-5.8h-2.1v-1.5h5.7v1.5H545.1"/>
</g>
<g id="Imported-Layers-Copy-90">
	<path id="Fill-1-29" class="st0" d="M653.7,16.3H610c-1.8,0.1-3.1,1.6-3.1,3.3v26.6c-0.1,1.8,1.3,3.2,3.1,3.3h43.7
		c1.8-0.1,3.1-1.6,3.1-3.3V19.6C656.9,17.9,655.5,16.4,653.7,16.3L653.7,16.3z M651.7,43.5c0,1.4-1.1,2.6-2.5,2.6h-34.8
		c-1.4-0.1-2.5-1.2-2.5-2.6V22.3c0-1.4,1.1-2.6,2.5-2.6h34.8c1.4,0.1,2.5,1.2,2.5,2.6L651.7,43.5L651.7,43.5z"/>
	<path id="Fill-2-28" class="st0" d="M660.5,51.2h-57.2c0,0.2,0,0.4,0,0.6v0.8c-0.1,1.8,1.3,3.3,3.1,3.3h51.1
		c1.8-0.1,3.2-1.6,3.1-3.3v-0.8C660.5,51.5,660.5,51.3,660.5,51.2z M650.8,54.4h-2.7c-0.3,0-0.6-0.4-0.5-0.7c0-0.3,0.3-0.5,0.5-0.5
		h2.7c0.3,0,0.6,0.4,0.5,0.7C651.3,54.1,651.1,54.3,650.8,54.4z M655.3,54.4h-2.7c-0.3,0-0.6-0.4-0.5-0.7c0-0.3,0.3-0.5,0.5-0.5h2.7
		c0.3,0,0.6,0.4,0.5,0.7C655.8,54.1,655.6,54.3,655.3,54.4z"/>
</g>
<g id="Imported-Layers-Copy-91">
	<path id="Fill-1-30" class="st0" d="M645.3,140.9l0.2,0.4L645.3,140.9z M657.5,116.5h-11.3c-1.7,0-3,1.3-3.1,3v11.6
		c0.4,0.4,0.7,0.8,1,1.2c2.6,3.6,4.3,10.2,5,12.8c0.7,2.7,1.1,5.4,1.3,8.2h7.1c1.7,0,3-1.3,3.1-3v-30.7
		C660.6,117.8,659.2,116.5,657.5,116.5C657.5,116.5,657.5,116.5,657.5,116.5L657.5,116.5z M650.9,122.1c-0.2-0.5,0.1-1.1,0.7-1.3
		c0.5-0.2,1.1,0.1,1.3,0.7c0.1,0.2,0.1,0.4,0,0.6V139c0.2,0.5-0.1,1.1-0.7,1.3c-0.5,0.2-1.1-0.1-1.3-0.7c-0.1-0.2-0.1-0.4,0-0.6
		V122.1L650.9,122.1z M652,149c-1.3,0-2.3-1.1-2.3-2.4c0-1.3,1.1-2.3,2.4-2.3c1.3,0,2.3,1.1,2.3,2.3C654.4,148,653.3,149,652,149
		C652,149,652,149,652,149z M620.5,142c0-1.1-0.6-2.2-1.5-2.8c-1.3-0.7-2.8-0.7-4.1,0c-1.6,1.1-1.9,3.2-0.9,4.8
		c0.2,0.3,0.5,0.6,0.9,0.9c1.3,0.7,2.8,0.7,4.1,0C619.9,144.2,620.5,143.1,620.5,142L620.5,142z M615.7,142.9l-1.5-0.9l1.5-0.9
		V142.9L615.7,142.9z M617,144.5l-0.9-1.5h1.8L617,144.5z M616.1,140.7l0.9-1.5l0.9,1.5H616.1z M647.4,149.2c-0.1-0.5-0.2-1-0.3-1.5
		c-0.2-0.8-0.3-1.6-0.6-2.4l-0.2-0.8c-0.3-1-0.6-2.1-0.9-3l-0.2-0.4c-0.6-1.9-1.4-3.7-2.4-5.5c-0.1-0.2-0.3-0.4-0.4-0.6l-0.1-0.2
		l-0.3-0.5l-0.1-0.1l-0.2-0.3l-0.1-0.1l-0.2-0.2l-0.2-0.1l-0.2-0.2l-0.2-0.1l-0.2-0.2l-0.2-0.1l-0.2-0.2l-0.2-0.1l-0.3-0.1l-0.1-0.1
		l-0.3-0.2h-0.1l-0.4-0.2h-0.1l-0.3-0.1h-0.1l-0.2-0.1h-0.2l-0.2-0.1h-0.2h-0.2h-0.2h-0.2h-0.2h-0.2H636h-0.5h-0.1h-0.5h-0.1
		l-0.4,0.1h-0.1l-0.4,0.1l0,0l-0.4,0.1h-0.1l-0.3,0.1h-0.1l-0.3,0.1l-0.3,0.1c-0.4,0.1-0.8,0.2-1.2,0.4c-0.7,0.3-1.4,0.6-2.3,0.9
		c-0.7,0.2-1.3,0.4-2,0.5c-0.4,0.1-0.8,0.1-1.2,0.2s-0.8-0.1-1.2-0.2c-0.7-0.1-1.3-0.3-2-0.5c-0.9-0.3-1.7-0.6-2.3-0.9
		c-0.4-0.2-0.8-0.3-1.2-0.4l-0.3-0.1l-0.3-0.1h-0.1l-0.3-0.1h-0.1l-0.4-0.1l0,0l-0.4-0.1h-0.1l-0.4-0.1h-0.1h-0.5h-0.1h-0.5H615
		h-0.2h-0.2h-0.2h-0.2h-0.2h-0.2h-0.2l-0.2,0.1h-0.2l-0.3,0.1h-0.1l-0.4,0.2h-0.1l-0.3,0.1l-0.1,0.1l-0.2,0.1l-0.2,0.1l-0.2,0.2
		l-0.2,0.1l-0.2,0.2l-0.2,0.1l-0.2,0.2l-0.2,0.1l-0.2,0.2l-0.1,0.1l-0.2,0.3l-0.1,0.1l-0.3,0.5l-0.1,0.2c-0.1,0.2-0.3,0.4-0.4,0.6
		c-1,1.7-1.8,3.6-2.4,5.5l-0.2,0.4c-0.3,1-0.6,2-0.9,3l-0.2,0.8c-0.2,0.8-0.4,1.6-0.6,2.4c-0.1,0.5-0.2,1-0.3,1.5
		c-0.5,3-0.7,5.4-0.4,6.2c0.2,0.4,0.3,0.8,0.5,1.1l0.2,0.3c0.4,0.6,0.9,1.1,1.6,1.4l0.3,0.1c0.3,0.1,0.5,0.2,0.8,0.2
		c0.5,0.1,0.9,0.1,1.4,0.1c0.2,0,0.4,0,0.6-0.1c0.5-0.1,0.9-0.3,1.3-0.5c0.8-0.4,1.6-0.9,2.3-1.5c2.6-1.9,5.4-4.6,6.6-4.9
		c1-0.2,2-0.4,3-0.4c1.4-0.1,2.9-0.1,3.4-0.2s2,0,3.4,0.2c1,0.1,2,0.2,3,0.4c1.2,0.3,4,3,6.6,4.9c0.7,0.5,1.5,1,2.3,1.5
		c0.4,0.2,0.9,0.4,1.3,0.5c0.2,0,0.4,0.1,0.6,0.1c0.5,0,0.9,0,1.4-0.1c0.3-0.1,0.5-0.1,0.8-0.2l0.3-0.1c0.6-0.3,1.1-0.8,1.4-1.4
		l0.2-0.3c0.2-0.4,0.4-0.7,0.5-1.1C648.1,154.6,648,152.1,647.4,149.2L647.4,149.2z M635.6,137.5c0.2-0.2,0.5-0.4,0.9-0.5
		c0.2,0,0.5,0,0.7,0c0.9,0.2,1.5,1.1,1.3,2c-0.1,0.7-0.6,1.2-1.3,1.3c-0.2,0-0.5,0-0.7,0c-0.3-0.1-0.6-0.2-0.9-0.5
		C634.9,139.3,634.9,138.2,635.6,137.5C635.6,137.5,635.6,137.5,635.6,137.5L635.6,137.5z M616.9,147.4c-0.6,0-1.2-0.1-1.8-0.2
		c-0.4-0.1-0.7-0.2-1.1-0.4c-0.5-0.2-1-0.6-1.4-0.9c-1.1-1-1.7-2.3-1.7-3.8c0-0.3,0-0.7,0.1-1v-0.2c0.1-0.4,0.3-0.8,0.5-1.2
		c0.1-0.1,0.1-0.2,0.2-0.3c0.3-0.4,0.6-0.7,0.9-1.1c0.4-0.4,0.9-0.7,1.4-0.9c0.3-0.2,0.7-0.3,1.1-0.4c0.6-0.2,1.2-0.2,1.8-0.2
		c1.9,0,3.8,0.8,5,2.4c0.3,0.4,0.6,0.9,0.8,1.4c0.4,1,0.4,2.2,0,3.2c-0.2,0.5-0.4,1-0.8,1.4C620.7,146.5,618.9,147.4,616.9,147.4
		L616.9,147.4z M627.3,147.4c0,0.2-0.1,0.3-0.2,0.5c-0.1,0.1-0.3,0.2-0.5,0.2h-4.4c-0.3,0-0.5-0.2-0.6-0.4c0-0.1-0.1-0.2,0-0.3v-0.1
		c0-0.1,0-0.2,0-0.3c0.1-0.2,0.4-0.4,0.6-0.4h4.4c0.2,0,0.3,0.1,0.5,0.2C627.2,146.9,627.3,147.1,627.3,147.4L627.3,147.4
		L627.3,147.4z M634.3,147.4c0,0.1,0,0.2,0,0.3c-0.1,0.2-0.4,0.4-0.6,0.4h-4.4c-0.2,0-0.3-0.1-0.5-0.2c-0.1-0.1-0.2-0.3-0.2-0.5
		v-0.1c0-0.2,0.1-0.3,0.2-0.5c0.1-0.1,0.3-0.2,0.5-0.2h4.4c0.3,0,0.5,0.2,0.6,0.4C634.3,147.1,634.3,147.2,634.3,147.4L634.3,147.4
		L634.3,147.4z M633.5,143.5c-0.9,0-1.7-0.7-1.7-1.6c0-0.8,0.6-1.5,1.4-1.7c0.1,0,0.2,0,0.3,0c0.9,0,1.7,0.7,1.7,1.7
		C635.2,142.7,634.4,143.5,633.5,143.5C633.5,143.5,633.5,143.5,633.5,143.5L633.5,143.5z M636.9,146.5c-0.1,0-0.2,0-0.3,0
		c-0.2,0-0.5,0-0.7-0.1c-0.9-0.3-1.3-1.3-0.9-2.2c0.2-0.4,0.5-0.8,0.9-0.9c0.2-0.1,0.4-0.1,0.7-0.1c0.1,0,0.2,0,0.3,0
		c0.9,0.2,1.5,1.1,1.3,2C638.1,145.8,637.6,146.3,636.9,146.5L636.9,146.5z M640,143.6c-0.9,0-1.7-0.8-1.6-1.7
		c0-0.9,0.8-1.7,1.7-1.6c0.9,0,1.6,0.8,1.6,1.7C641.7,142.8,640.9,143.5,640,143.6L640,143.6z M636.9,139.3c0.3,0,0.6-0.3,0.5-0.6
		c0-0.3-0.3-0.6-0.6-0.5c-0.3,0-0.5,0.3-0.5,0.6C636.3,139,636.5,139.2,636.9,139.3L636.9,139.3z M633.6,142.3
		c0.3,0,0.6-0.3,0.5-0.6c0-0.3-0.3-0.6-0.6-0.5c-0.3,0-0.5,0.3-0.5,0.6C633,142.1,633.2,142.3,633.6,142.3L633.6,142.3z
		 M636.6,144.3c-0.3,0-0.6,0.3-0.5,0.6c0,0.3,0.3,0.6,0.6,0.5c0.3,0,0.5-0.3,0.5-0.6C637.2,144.6,637,144.3,636.6,144.3
		C636.7,144.2,636.6,144.2,636.6,144.3L636.6,144.3z"/>
</g>
<g id="Imported-Layers-Copy-92">
	<path id="Fill-1-31" class="st0" d="M451.2,624.5h-35.3c-1.9,0-3.4,1.5-3.4,3.4v46.6c0,1.9,1.5,3.4,3.4,3.4h35.3
		c1.9,0,3.4-1.5,3.4-3.4v-46.6C454.6,626.1,453.1,624.6,451.2,624.5z M416.8,628.7h33.6v39.7h-33.6L416.8,628.7z M436.3,675h-6.7
		c-0.6,0-1-0.4-1-1v-0.6c0-0.6,0.4-1,1-1h6.7c0.6,0,1,0.4,1,1v0.6C437.3,674.6,436.9,675,436.3,675z M444.6,650.5h-5.4v1.5h5.6
		c0.8,0,1.5-0.6,1.6-1.4c0-0.2,0-0.4,0-0.6c-0.2-0.7-0.7-1.2-1.4-1.3c-0.6,0-5.6-0.3-5.6-0.3c0.1,0.3,0.3,0.6,0.5,0.8
		c0.3,0.2,0.6,0.4,0.9,0.4l3.9,0.3c0.1,0,0.4,0,0.4,0.3c0,0.1,0,0.2-0.1,0.2C444.8,650.5,444.7,650.5,444.6,650.5L444.6,650.5z
		 M423,648.2l-1.7-0.2l-2.7,4.2h1.8L423,648.2z M434.1,647.8v-1.5h-1.6v1.5H434.1z M432.2,646.3H427c-0.5,0-0.9,0.2-1.3,0.6
		c-0.2,0.2-0.3,0.5-0.4,0.8v-1.4h-2.8c-0.2,0-0.4,0.1-0.6,0.3c-0.2,0.2-0.8,1.2-0.8,1.2h10.9L432.2,646.3z M432.5,650.1
		c-0.2-0.7-0.7-1.2-1.4-1.3l-5.6-0.4c0.1,0.3,0.2,0.7,0.5,0.9c0.3,0.2,0.6,0.4,0.9,0.4l3.9,0.3c0.2,0,0.3,0.1,0.3,0.3
		s-0.1,0.3-0.3,0.3h-5.4v-2.3l-1.5-0.1v3.9h7.3c0.7-0.1,1.3-0.7,1.4-1.4c0-0.1,0-0.2,0-0.3L432.5,650.1L432.5,650.1z M447.3,647.4
		v-0.3h0.3c0,0,0,0.1,0,0.1v0.2h0.1l0,0l0,0c0,0,0,0,0-0.1v-0.1c0,0,0-0.1,0-0.1h-0.1c0,0,0.1,0,0.1-0.1c0,0,0-0.1,0-0.1
		c0-0.1,0-0.1-0.1-0.2h-0.1h-0.3v0.7L447.3,647.4z M439.2,647.8v-1.5h-1.6v1.5H439.2z M432.5,650.2c0,0.1,0,0.2,0,0.3v0.3
		c0.1,0.7,0.7,1.3,1.5,1.4h3.7c0.8-0.1,1.5-0.7,1.5-1.6v-2.2l-1.5-0.1v1.8c0,0.3-0.2,0.5-0.5,0.5c0,0,0,0,0,0h-2.6
		c-0.3,0-0.5-0.2-0.5-0.5v-2l-1.5-0.1V650.2z M447.4,647.6c0.2,0,0.3-0.1,0.5-0.2c0.3-0.3,0.3-0.7,0-0.9c-0.3-0.3-0.7-0.3-0.9,0
		c-0.3,0.3-0.3,0.7,0,0.9C447.1,647.6,447.3,647.6,447.4,647.6z M447.4,646.4c0.2,0,0.3,0.1,0.4,0.2c0.1,0.1,0.2,0.3,0.2,0.4
		c0,0.2-0.1,0.3-0.2,0.4c-0.1,0.1-0.3,0.2-0.4,0.2c-0.3,0-0.6-0.3-0.6-0.6C446.9,646.7,447.1,646.4,447.4,646.4L447.4,646.4z
		 M446.4,647.8v-1.5h-5.6c-0.5,0-0.9,0.2-1.3,0.6c-0.2,0.2-0.3,0.5-0.4,0.8v0.1H446.4z"/>
</g>
<g id="Imported-Layers">
	<path id="Fill-1-32" class="st0" d="M658.9,437.1h-53.8c-1.6,0-2.9,1.3-2.9,2.8c0,0,0,0,0,0v16.6c0,1.6,1.3,2.9,2.9,2.9
		c0,0,0,0,0,0h53.8c1.6,0,2.9-1.3,2.9-2.8c0,0,0,0,0,0V440C661.8,438.4,660.5,437.1,658.9,437.1
		C658.9,437.1,658.9,437.1,658.9,437.1L658.9,437.1z M657.2,451.9c0,0.8-0.6,1.4-1.4,1.4h0h-47.4c-0.8,0-1.4-0.6-1.4-1.4
		c0,0,0,0,0,0v-7.2c0-0.8,0.6-1.4,1.4-1.4h0h47.4c0.8,0,1.4,0.6,1.4,1.4c0,0,0,0,0,0V451.9z"/>
	<path id="Fill-2-29" class="st0" d="M632,445.8c-1.4,0-2.5,1.2-2.5,2.5c0,1.4,1.2,2.5,2.5,2.5c1.4,0,2.5-1.1,2.5-2.5
		C634.5,446.9,633.4,445.8,632,445.8C632,445.8,632,445.8,632,445.8z M632,449.3c-0.6,0-1-0.5-0.9-1.1c0-0.6,0.5-1,1.1-0.9
		c0.5,0,0.9,0.5,0.9,1C633.1,448.9,632.6,449.3,632,449.3C632,449.3,632,449.3,632,449.3z"/>
	<path id="Fill-3-26" class="st0" d="M642,445.8c-1.4,0-2.5,1.2-2.5,2.5c0,1.4,1.2,2.5,2.5,2.5c1.4,0,2.5-1.1,2.5-2.5
		C644.5,446.9,643.4,445.8,642,445.8C642,445.8,642,445.8,642,445.8z M642,449.3c-0.6,0-1-0.5-0.9-1.1c0-0.6,0.5-1,1.1-0.9
		c0.5,0,0.9,0.5,0.9,1C643.1,448.9,642.6,449.3,642,449.3C642,449.3,642,449.3,642,449.3z"/>
	<path id="Fill-4-21" class="st0" d="M654.4,448.3c0,1.4-1.1,2.6-2.5,2.6c-1.4,0-2.6-1.1-2.6-2.5c0-1.4,1.1-2.6,2.5-2.6c0,0,0,0,0,0
		C653.3,445.8,654.4,446.9,654.4,448.3C654.4,448.3,654.4,448.3,654.4,448.3z"/>
	<path id="Fill-5-13" class="st0" d="M624.6,448.3c0,1.4-1.1,2.6-2.5,2.6c-1.4,0-2.6-1.1-2.6-2.5c0-1.4,1.1-2.6,2.5-2.6c0,0,0,0,0,0
		C623.5,445.8,624.6,446.9,624.6,448.3C624.6,448.3,624.6,448.3,624.6,448.3z"/>
	<path id="Fill-6-12" class="st0" d="M614.7,448.3c0,1.4-1.1,2.6-2.5,2.6c-1.4,0-2.6-1.1-2.6-2.5c0-1.4,1.1-2.6,2.5-2.6c0,0,0,0,0,0
		C613.5,445.8,614.7,446.9,614.7,448.3C614.7,448.3,614.7,448.3,614.7,448.3z"/>
</g>
<g id="Imported-Layers-2">
	<path id="Fill-1-33" class="st0" d="M605.6,551c1.6,2,8,3.6,8.9,3.9c-0.9-0.4-6.7-2.9-8.2-5s-3.9-5.3-4.1-5.6
		C603.1,546.7,604.2,548.9,605.6,551 M602.2,544.3L602.2,544.3c0.3,0.3,8.4,7.8,12.4,10.6l0,0C610.5,552,602.2,544.3,602.2,544.3"/>
	<path id="Fill-2-30" class="st0" d="M605.6,551c1.6,2,8,3.6,8.9,3.9c-0.9-0.4-6.7-2.9-8.2-5s-3.9-5.3-4.1-5.6
		C603.1,546.7,604.2,548.9,605.6,551 M602.2,544.3L602.2,544.3c0.3,0.3,8.4,7.8,12.4,10.6l0,0C610.5,552,602.2,544.3,602.2,544.3"/>
	<path id="Fill-3-27" class="st0" d="M605.6,551c1.6,2,8,3.6,8.9,3.9c-0.9-0.4-6.7-2.9-8.2-5s-3.9-5.3-4.1-5.6
		C603.1,546.7,604.2,548.9,605.6,551 M602.2,544.3L602.2,544.3c0.3,0.3,8.4,7.8,12.4,10.6l0,0C610.5,552,602.2,544.3,602.2,544.3"/>
	<path id="Fill-4-22" class="st0" d="M647.1,539.8c-9.4,4.5-25.2,15.7-25.2,15.7l4-0.2l0,0l0.7-0.4l-0.7,0.4l0,0l0.2,0.1
		c3.3,1.6,10,4,14.8,4c0.9,0,1.7-0.1,2.5-0.3c4.6-1.2,9.7-10.6,10.5-12.3l0.1-0.3v0v0l0,0l5.5-5.3c0,0-6.2,2.5-12.5,5.4
		c-5.2,2.4-8.4,4-9.9,4.8l-0.3,0.1l0.3-0.1l-1,0.5l17.8-5.4l-3.2,1c0,0-3.9,9.2-9,10.2c-0.7,0.1-1.4,0.2-2.1,0.2
		c-5.2,0-12.1-2.7-12.1-2.7c0.8-0.6,10.2-7.6,32.5-16.7h0.1c0.8-0.6,1.4-1.4,1.6-2.3v-0.7C656.7,536.2,651.8,537.7,647.1,539.8
		L647.1,539.8z M652.4,549.7l-0.2,0.3L652.4,549.7L652.4,549.7L652.4,549.7L652.4,549.7z M652.2,550L652.2,550l-0.2,0.4l0,0
		L652.2,550L652.2,550z M652.3,549.8l-0.1,0.1L652.3,549.8z M652.1,550.2L652.1,550.2L652.1,550.2z M651.9,550.5l-0.2,0.3l0,0
		L651.9,550.5L651.9,550.5L651.9,550.5z M651.8,550.7L651.8,550.7z M651.6,550.9l-0.2,0.3l0.1-0.1l-0.1,0.1l0,0v0L651.6,550.9
		L651.6,550.9z M651.3,551.5l-0.1,0.1l0,0l0,0v0.1l0.2-0.3l-0.1,0.2L651.3,551.5L651.3,551.5z M651,551.9l-0.1,0.2l0,0l0,0l-0.1,0.1
		L651,551.9l-0.1,0.1L651,551.9L651,551.9z M650.7,552.3l-0.1,0.2l0,0l0,0l-0.1,0.2L650.7,552.3l-0.1,0.2L650.7,552.3L650.7,552.3z
		 M649.8,553.5L649.8,553.5l-0.2,0.2l0,0L649.8,553.5L649.8,553.5z M650.1,553.1L650.1,553.1z M650.1,553.2l-0.1,0.1L650.1,553.2
		L650.1,553.2L650.1,553.2z M650.4,552.7l-0.1,0.2L650.4,552.7L650.4,552.7L650.4,552.7z M650.3,552.9l-0.1,0.2l0,0l0.2-0.3
		L650.3,552.9L650.3,552.9z M650,553.3l-0.1,0.2l0,0l0.2-0.3L650,553.3L650,553.3z M649.7,553.7l-0.1,0.2l0,0l0,0l-0.1,0.2l0.1-0.1
		l0,0l0,0L649.7,553.7L649.7,553.7L649.7,553.7z M649.4,554.1L649.4,554.1L649.4,554.1L649.4,554.1z M649.4,554.2l-0.1,0.2v0.1l0,0
		l-0.1,0.2l0,0l0.1-0.1l0,0L649.4,554.2L649.4,554.2z M648.9,554.7L648.9,554.7L648.9,554.7l-0.2,0.2l0.1-0.1v0l0.2-0.2L648.9,554.7
		L648.9,554.7z M648.6,555.1L648.6,555.1L648.6,555.1l-0.2,0.2l0.1-0.1l-0.1,0.1L648.6,555.1L648.6,555.1L648.6,555.1z M648.2,555.6
		l-0.1,0.1L648.2,555.6l-0.1,0.1L648.2,555.6L648.2,555.6L648.2,555.6z M647.8,556l-0.2,0.2l0,0L647.8,556l-0.2,0.2L647.8,556
		L647.8,556L647.8,556z M647.5,556.3l-0.2,0.2L647.5,556.3L647.5,556.3L647.5,556.3z M646.7,557.1l-0.2,0.2L646.7,557.1z
		 M646.5,557.2L646.5,557.2l0.1-0.1L646.5,557.2L646.5,557.2z M646.9,556.9l0.2-0.2l0,0L646.9,556.9L646.9,556.9z M647.1,556.7
		l-0.2,0.2L647.1,556.7z M645.9,557.7l-0.4,0.3L645.9,557.7z M646.3,557.4l-0.3,0.2L646.3,557.4z M647.3,556.6L647.3,556.6l0.2-0.1
		L647.3,556.6L647.3,556.6z M653.9,547.1L653.9,547.1z M652.5,549.6l0.1-0.1L652.5,549.6z M652.7,549.2l0.1-0.1L652.7,549.2z
		 M652.9,548.9l0.1-0.1L652.9,548.9z M653.1,548.6l0.1-0.1L653.1,548.6z M653.3,548.3l0.1-0.1L653.3,548.3z M653.4,548L653.4,548
		L653.4,548z M653.6,547.7L653.6,547.7L653.6,547.7z M653.7,547.5L653.7,547.5L653.7,547.5z M653.8,547.3L653.8,547.3L653.8,547.3z
		 M654,546.9L654,546.9L654,546.9z M652.5,549.5l0.2-0.3L652.5,549.5z M652.8,549.1l0.1-0.2L652.8,549.1z M653,548.8l0.1-0.2
		L653,548.8z M653.2,548.4l0.1-0.2L653.2,548.4z M653.4,548.1l0.1-0.2L653.4,548.1z M653.5,547.8l0.1-0.2L653.5,547.8z M653.7,547.5
		l0.1-0.1L653.7,547.5z M653.8,547.3l0.1-0.1L653.8,547.3z M653.9,547.1L653.9,547.1L653.9,547.1z M654.1,546.8L654.1,546.8
		L654.1,546.8z M643.1,559.1c-0.3,0.1-0.7,0.1-1.1,0.2C642.4,559.2,642.8,559.2,643.1,559.1z M648,543.2l-1.6,0.8L648,543.2z
		 M655.3,540.2l-1.6,0.6L655.3,540.2z M653.4,540.9l-1.6,0.7L653.4,540.9z M651.7,541.6l-1.6,0.7L651.7,541.6z M649.9,542.4
		l-1.6,0.7L649.9,542.4z M627.3,554.6l6.1-3.5L627.3,554.6z M646.2,544.1l-1.6,0.8L646.2,544.1z M644.5,545l-1.6,0.8L644.5,545z
		 M642.6,546l-1.6,0.8L642.6,546z M640.7,547c-1.1,0.6-2.3,1.2-3.4,1.9C638.4,548.2,639.6,547.6,640.7,547z M637.1,549l-1.7,0.9
		L637.1,549z M635.2,550l-1.7,1L635.2,550z M655.6,540.1c1.5-0.5,3-1,4.5-1.5C658.6,539.1,657.1,539.6,655.6,540.1z"/>
	<path id="Fill-5-14" class="st0" d="M654.1,546.6L654.1,546.6"/>
	<path id="Fill-6-13" class="st0" d="M643.5,559.3c-0.8,0.2-1.7,0.3-2.5,0.3c-4.9,0-11.7-2.6-15-4.3l-3.2,0.1c0,0,1.2,0.7,2.2,1.1
		c6.7,3,15.2,4.6,18.8,4.6c0.4,0,0.8,0,1.2-0.1c5.9-2,11.8-13.8,14.5-19.5l-5,4.8C654.4,546.4,648.6,557.9,643.5,559.3"/>
	<path id="Fill-7-8" class="st0" d="M620,556.2c-0.6-1.1,0.1-2.6,4.9-6.1c4.3-3.2,19.8-16.1,34.6-19.6c-1.3-0.2-2.5-0.2-3.8-0.2
		c-5.1,0-10.2,0.9-15.1,2.4c-4,1.2-9.8,6.8-20.5,17.1c-1.5,0.8-6.7-2.2-9.7-3.6c0,0,5,7.8,6.7,10.2c2.7,3.6,7.6,5.8,7.6,5.8
		l-0.1-0.1C623,560.2,621.4,558.3,620,556.2"/>
	<path id="Fill-8-8" class="st0" d="M603.4,545.6l-0.2-0.2c0.8,1.2,2.2,3,3.3,4.4c1.2,1.2,2.6,2.2,4.2,3c1,0.6,2,1,2.8,1.4
		C610.3,551.8,605.6,547.7,603.4,545.6"/>
	<path id="Fill-9-7" class="st0" d="M614.7,555c0,0-1.5-0.6-3.2-1.5C613.2,554.4,614.7,555,614.7,555"/>
</g>
<g id="Imported-Layers-3">
	<path id="Fill-1-34" class="st0" d="M650.5,624h-34.2c-2.4,0-4.3,1.9-4.3,4.3v47.5c0,2.4,1.9,4.3,4.3,4.3h34.2
		c2.4,0,4.3-1.9,4.3-4.3v-47.5C654.8,625.9,652.9,624,650.5,624L650.5,624z M651.2,675.8c0,0.4-0.3,0.7-0.7,0.7h-34.2
		c-0.4,0-0.7-0.3-0.7-0.7v-47.5c0-0.4,0.3-0.7,0.7-0.7h34.2c0.4,0,0.7,0.3,0.7,0.7L651.2,675.8L651.2,675.8z"/>
	<path id="Fill-2-31" class="st0" d="M646.6,632h-26.4c-1,0-1.8,0.8-1.8,1.8v0v34.5c0,1,0.8,1.8,1.8,1.8h0h26.4c1,0,1.8-0.8,1.8-1.8
		v0v-34.4C648.4,632.8,647.6,632,646.6,632L646.6,632L646.6,632z M622,635.6h22.8v30.8H622V635.6z"/>
	<path id="Fill-3-28" class="st0" d="M625.2,640.9h16.3v3.6h-16.3V640.9z"/>
	<path id="Fill-4-23" class="st0" d="M625.2,657.7h16.3v3.6h-16.3V657.7z"/>
	<path id="Fill-5-15" class="st0" d="M625.2,649.3h16.3v3.6h-16.3V649.3z"/>
</g>
</svg>
