<svg id="圖層_1" data-name="圖層 1" xmlns="http://www.w3.org/2000/svg" viewBox="0 0 39.4 39.7"><defs><style>.cls-1{fill:#08fff0;}</style></defs><title>internet_allow</title><path id="_複合路徑_" data-name="&lt;複合路徑&gt;" class="cls-1" d="M35.6,8.6l-.9-1.2a19.51,19.51,0,0,0-15-7h-.1a19.63,19.63,0,0,0-14.9,7L3.8,8.6A19.18,19.18,0,0,0,.2,19.8,18.73,18.73,0,0,0,3.8,31l.9,1.2a19.31,19.31,0,0,0,14.9,7h.1a19.51,19.51,0,0,0,15-7l.9-1.2a19.22,19.22,0,0,0,0-22.4ZM14,2.9a17.92,17.92,0,0,0-4.3,7.3A18.35,18.35,0,0,1,6,8.3a17.56,17.56,0,0,1,8-5.4ZM5.1,9.6a20.57,20.57,0,0,0,4.2,2.1,29.18,29.18,0,0,0-1.1,8H1.8A17.42,17.42,0,0,1,5.1,9.6ZM1.9,21.3H8.2a33.68,33.68,0,0,0,1,6.7A20.57,20.57,0,0,0,5,30.1a17.57,17.57,0,0,1-3.1-8.8ZM6,31.3a18.18,18.18,0,0,1,3.7-1.8A17.92,17.92,0,0,0,14,36.8a18.59,18.59,0,0,1-8-5.5Zm12.9,6.4c-3.3-.4-6.1-3.8-7.7-8.7a30.3,30.3,0,0,1,7.7-1.2Zm0-11.5a30.59,30.59,0,0,0-8.2,1.3,29.86,29.86,0,0,1-.9-6.2h9.1Zm0-6.5H9.8a29.56,29.56,0,0,1,1-7.5A30,30,0,0,0,19,13.5v6.2Zm0-7.9a30.3,30.3,0,0,1-7.7-1.2c1.6-4.8,4.4-8.2,7.7-8.7Zm18.7,7.9H31.1a28.65,28.65,0,0,0-1.1-8,24.55,24.55,0,0,0,4.3-2.1,16.74,16.74,0,0,1,3.3,10.1ZM33.4,8.3a19.26,19.26,0,0,1-3.8,1.9,17.4,17.4,0,0,0-4.4-7.4,18.09,18.09,0,0,1,8.2,5.5ZM20.5,2c3.3.5,6,3.9,7.6,8.7a30.22,30.22,0,0,1-7.6,1.2Zm0,11.4a29.85,29.85,0,0,0,8.1-1.3,34.86,34.86,0,0,1,1,7.5h-9V13.4Zm0,7.9h9a29.86,29.86,0,0,1-.9,6.2,33.48,33.48,0,0,0-8.1-1.3V21.3Zm0,16.4V27.9a29.51,29.51,0,0,1,7.6,1.2c-1.6,4.7-4.4,8.1-7.6,8.6Zm4.8-.8a18.91,18.91,0,0,0,4.4-7.4,15,15,0,0,1,3.8,1.9,19.22,19.22,0,0,1-8.2,5.5Zm9-6.8A21.52,21.52,0,0,0,30,28a28.47,28.47,0,0,0,1-6.7h6.4a15.87,15.87,0,0,1-3.1,8.8Z"/></svg>