<svg width="108" height="32" viewBox="0 0 108 32" fill="none" xmlns="http://www.w3.org/2000/svg">
<g clip-path="url(#clip0_936_5959)">
<rect x="55" width="55" height="32" fill="#DCDCDC"/>
<rect width="55" height="32" fill="#E61929"/>
<g filter="url(#filter0_dd_936_5959)">
<rect x="42" y="3" width="26" height="26" fill="white"/>
<rect x="42.75" y="3.75" width="24.5" height="24.5" stroke="#F5F5F5" stroke-width="1.5"/>
</g>
<path d="M22.9631 15.9091C22.9631 16.9962 22.7642 17.9309 22.3665 18.7131C21.9688 19.492 21.4235 20.0919 20.7308 20.5128C20.0414 20.9304 19.2576 21.1392 18.3793 21.1392C17.4976 21.1392 16.7105 20.9304 16.0178 20.5128C15.3284 20.0919 14.7848 19.4903 14.3871 18.7081C13.9893 17.9259 13.7905 16.9929 13.7905 15.9091C13.7905 14.822 13.9893 13.889 14.3871 13.1101C14.7848 12.3279 15.3284 11.728 16.0178 11.3104C16.7105 10.8894 17.4976 10.679 18.3793 10.679C19.2576 10.679 20.0414 10.8894 20.7308 11.3104C21.4235 11.728 21.9688 12.3279 22.3665 13.1101C22.7642 13.889 22.9631 14.822 22.9631 15.9091ZM21.4418 15.9091C21.4418 15.0805 21.3075 14.3828 21.0391 13.8161C20.7739 13.246 20.4093 12.8151 19.9453 12.5234C19.4846 12.2285 18.9626 12.081 18.3793 12.081C17.7926 12.081 17.2689 12.2285 16.8082 12.5234C16.3475 12.8151 15.983 13.246 15.7145 13.8161C15.4493 14.3828 15.3168 15.0805 15.3168 15.9091C15.3168 16.7377 15.4493 17.437 15.7145 18.0071C15.983 18.5739 16.3475 19.0047 16.8082 19.2997C17.2689 19.5914 17.7926 19.7372 18.3793 19.7372C18.9626 19.7372 19.4846 19.5914 19.9453 19.2997C20.4093 19.0047 20.7739 18.5739 21.0391 18.0071C21.3075 17.437 21.4418 16.7377 21.4418 15.9091ZM33.0964 10.8182V21H31.6845L26.5091 13.5327H26.4146V21H24.8784V10.8182H26.3002L31.4806 18.2955H31.5751V10.8182H33.0964Z" fill="white"/>
<path d="M81.9631 15.9091C81.9631 16.9962 81.7642 17.9309 81.3665 18.7131C80.9688 19.492 80.4235 20.0919 79.7308 20.5128C79.0414 20.9304 78.2576 21.1392 77.3793 21.1392C76.4976 21.1392 75.7105 20.9304 75.0178 20.5128C74.3284 20.0919 73.7848 19.4903 73.3871 18.7081C72.9893 17.9259 72.7905 16.9929 72.7905 15.9091C72.7905 14.822 72.9893 13.889 73.3871 13.1101C73.7848 12.3279 74.3284 11.728 75.0178 11.3104C75.7105 10.8894 76.4976 10.679 77.3793 10.679C78.2576 10.679 79.0414 10.8894 79.7308 11.3104C80.4235 11.728 80.9688 12.3279 81.3665 13.1101C81.7642 13.889 81.9631 14.822 81.9631 15.9091ZM80.4418 15.9091C80.4418 15.0805 80.3075 14.3828 80.0391 13.8161C79.7739 13.246 79.4093 12.8151 78.9453 12.5234C78.4846 12.2285 77.9626 12.081 77.3793 12.081C76.7926 12.081 76.2689 12.2285 75.8082 12.5234C75.3475 12.8151 74.983 13.246 74.7145 13.8161C74.4493 14.3828 74.3168 15.0805 74.3168 15.9091C74.3168 16.7377 74.4493 17.437 74.7145 18.0071C74.983 18.5739 75.3475 19.0047 75.8082 19.2997C76.2689 19.5914 76.7926 19.7372 77.3793 19.7372C77.9626 19.7372 78.4846 19.5914 78.9453 19.2997C79.4093 19.0047 79.7739 18.5739 80.0391 18.0071C80.3075 17.437 80.4418 16.7377 80.4418 15.9091ZM83.8784 21V10.8182H90.1923V12.1406H85.4146V15.2429H89.7399V16.5604H85.4146V21H83.8784ZM92.0815 21V10.8182H98.3954V12.1406H93.6177V15.2429H97.943V16.5604H93.6177V21H92.0815Z" fill="black"/>
</g>
<defs>
<filter id="filter0_dd_936_5959" x="34" y="-2" width="42" height="42" filterUnits="userSpaceOnUse" color-interpolation-filters="sRGB">
<feFlood flood-opacity="0" result="BackgroundImageFix"/>
<feColorMatrix in="SourceAlpha" type="matrix" values="0 0 0 0 0 0 0 0 0 0 0 0 0 0 0 0 0 0 127 0" result="hardAlpha"/>
<feOffset dy="3"/>
<feGaussianBlur stdDeviation="0.5"/>
<feColorMatrix type="matrix" values="0 0 0 0 0 0 0 0 0 0 0 0 0 0 0 0 0 0 0.06 0"/>
<feBlend mode="normal" in2="BackgroundImageFix" result="effect1_dropShadow_936_5959"/>
<feColorMatrix in="SourceAlpha" type="matrix" values="0 0 0 0 0 0 0 0 0 0 0 0 0 0 0 0 0 0 127 0" result="hardAlpha"/>
<feOffset dy="3"/>
<feGaussianBlur stdDeviation="4"/>
<feColorMatrix type="matrix" values="0 0 0 0 0 0 0 0 0 0 0 0 0 0 0 0 0 0 0.15 0"/>
<feBlend mode="normal" in2="effect1_dropShadow_936_5959" result="effect2_dropShadow_936_5959"/>
<feBlend mode="normal" in="SourceGraphic" in2="effect2_dropShadow_936_5959" result="shape"/>
</filter>
<clipPath id="clip0_936_5959">
<rect width="108" height="32" fill="white"/>
</clipPath>
</defs>
</svg>
