<svg width="75" height="32" viewBox="0 0 75 32" fill="none" xmlns="http://www.w3.org/2000/svg">
<path fill-rule="evenodd" clip-rule="evenodd" d="M75 0H0V32H75V0ZM5.02372 14.2151C5 14.6072 5 15.0715 5 16C5 16.9285 5 17.3928 5.02372 17.7849C5.42063 24.3466 10.6534 29.5794 17.2151 29.9763C17.6072 30 18.0715 30 19 30H56.5C57.4285 30 57.8928 30 58.2849 29.9763C64.8466 29.5794 70.0794 24.3466 70.4763 17.7849C70.5 17.3928 70.5 16.9285 70.5 16C70.5 15.0715 70.5 14.6072 70.4763 14.2151C70.0794 7.65341 64.8466 2.42063 58.2849 2.02372C57.8928 2 57.4285 2 56.5 2H19C18.0715 2 17.6072 2 17.2151 2.02372C10.6534 2.42063 5.42063 7.65341 5.02372 14.2151Z" fill="#F5F5F5"/>
<path d="M55.5 1.25H19C10.8538 1.25 4.25 7.8538 4.25 16C4.25 24.1462 10.8538 30.75 19 30.75H55.5C63.6462 30.75 70.25 24.1462 70.25 16C70.25 7.8538 63.6462 1.25 55.5 1.25Z" stroke="white" stroke-width="1.5"/>
</svg>
