<?xml version="1.0" encoding="utf-8"?>
<!-- Generator: Adobe Illustrator 20.0.0, SVG Export Plug-In . SVG Version: 6.00 Build 0)  -->
<svg version="1.1" id="图层_1" xmlns="http://www.w3.org/2000/svg" xmlns:xlink="http://www.w3.org/1999/xlink" x="0px" y="0px"
	 viewBox="0 0 16 16" style="enable-background:new 0 0 16 16;" xml:space="preserve">
<style type="text/css">
	.st0{fill:#FFFFFF;}
</style>
<rect x="5" class="st0" width="6" height="1"/>
<g>
	<path class="st0" d="M1,2.5C1,2.8,1.2,3,1.5,3h13C14.8,3,15,2.8,15,2.5v0C15,2.2,14.8,2,14.5,2h-13C1.2,2,1,2.2,1,2.5L1,2.5z"/>
</g>
<rect x="5" y="1" class="st0" width="1" height="1"/>
<rect x="10" y="1" class="st0" width="1" height="1"/>
<g>
	<path class="st0" d="M2.1,15c0,0.6,0.4,1,1,1h10c0.6,0,1-0.4,1-1V5c0-0.6-0.4-1-1-1h-10c-0.6,0-1,0.4-1,1V15z"/>
</g>
<rect x="5" y="1" class="st0" width="1" height="1"/>
</svg>
