<svg id="圖層_1" data-name="圖層 1" xmlns="http://www.w3.org/2000/svg" viewBox="0 0 41.9 41.61"><defs><style>.cls-1{fill:#09e503;}</style></defs><title>02-bell</title><path class="cls-1" d="M21,41.6a5.83,5.83,0,0,0,5.83-5.8H15.12A5.83,5.83,0,0,0,21,41.6ZM34.33,28.8V17.5A13.38,13.38,0,0,0,24,4.5V3.26A3.2,3.2,0,0,0,21.11,0a3.08,3.08,0,0,0-3.25,2.91q0,0.09,0,.17v1.4a13.38,13.38,0,0,0-10.29,13V28.8L4,32.34a2.06,2.06,0,0,0-.6,1.46V35h35V33.8a2.06,2.06,0,0,0-.6-1.46Z"/><path class="cls-1" d="M11.11,3L8.25,0.18A20.92,20.92,0,0,0,0,15.88H4A17,17,0,0,1,11.11,3Z"/><path class="cls-1" d="M38,15.88h4A20.92,20.92,0,0,0,33.65.18L30.8,3A17,17,0,0,1,38,15.88Z"/></svg>
