<svg id="圖層_1" data-name="圖層 1" xmlns="http://www.w3.org/2000/svg" viewBox="0 0 24 24"><defs><style>.cls-1{fill:#AAAAAA;stroke:#aaa;stroke-miterlimit:10;stroke-width:0.25px;}</style></defs><title>ic_notifications_off_white_24px</title><path class="cls-1" d="M20,18.69L7.84,6.14,5.27,3.49,4,4.76l2.8,2.8h0A7.34,7.34,0,0,0,6,11v5L4,18v1H17.73l2,2L21,19.72Z"/><path class="cls-1" d="M12,22.21a2.41,2.41,0,0,0,2.42-2.42H9.58A2.41,2.41,0,0,0,12,22.21Z"/><path class="cls-1" d="M18,14.68V11c0-3.08-1.64-5.64-4.5-6.32V4a1.5,1.5,0,1,0-3,0V4.68a4.21,4.21,0,0,0-.42.12l-0.3.11h0C9.52,5,9.29,5.12,9.07,5.23a0,0,0,0,0,0,0Z"/></svg>
