<?xml version="1.0" encoding="utf-8"?>
<!-- Generator: Adobe Illustrator 20.0.0, SVG Export Plug-In . SVG Version: 6.00 Build 0)  -->
<svg version="1.1" id="圖層_1" xmlns="http://www.w3.org/2000/svg" xmlns:xlink="http://www.w3.org/1999/xlink" x="0px" y="0px"
	 viewBox="0 0 1692 1658" style="enable-background:new 0 0 1692 1658;" xml:space="preserve">
<style type="text/css">
	.st0{fill:#8D8D8D;}
</style>
<path class="st0" d="M1513.7,25h-1335C93.5,25,24.5,93.6,24.5,179.6v932.1c0,86.4,69,157.2,154.2,157.2h243.9v301
	c0,24.8,14,47.4,36.4,58c8.7,4.1,17.8,6.1,27.1,6.1c14.6,0,29.1-4.7,40.8-14.3l426.8-350.8h560c84.3,0,153.7-70.8,153.7-157.2V179.6
	C1667.5,93.6,1598,25,1513.7,25z M1421.9,897.9H729.8V782.5h692.1L1421.9,897.9L1421.9,897.9z M1421.9,667.2H268.3V551.8h1153.6
	L1421.9,667.2L1421.9,667.2z M1421.9,436.5H268.3V321.1h1153.6L1421.9,436.5L1421.9,436.5z"/>
</svg>
