<svg id="圖層_1" data-name="圖層 1" xmlns="http://www.w3.org/2000/svg" viewBox="0 0 42.08 43.25"><defs><style>.cls-1{fill:#cfd8dc;}.cls-2{fill:none;stroke:#000;stroke-miterlimit:10;stroke-width:2.5px;}</style></defs><title>setting</title><path class="cls-1" d="M40.06,26.11A17,17,0,0,0,40.21,24a17,17,0,0,0-.15-2.11l4.57-3.58a1.08,1.08,0,0,0,.26-1.38L40.57,9.44A1.07,1.07,0,0,0,39.25,9l-5.38,2.17A16.41,16.41,0,0,0,30.21,9L29.4,3.28a1.11,1.11,0,0,0-1.08-.91H19.67a1.09,1.09,0,0,0-1.07.91L17.79,9a16,16,0,0,0-3.65,2.13L8.75,9a1.08,1.08,0,0,0-1.32.46L3.1,16.93a1.08,1.08,0,0,0,.26,1.38l4.56,3.58A17,17,0,0,0,7.78,24a17,17,0,0,0,.15,2.11L3.36,29.69a1.08,1.08,0,0,0-.26,1.38l4.32,7.49A1.07,1.07,0,0,0,8.75,39l5.38-2.17A16.41,16.41,0,0,0,17.79,39l0.81,5.73a1.09,1.09,0,0,0,1.07.91h8.65a1.09,1.09,0,0,0,1.07-.91L30.2,39a16,16,0,0,0,3.65-2.13L39.24,39a1.08,1.08,0,0,0,1.32-.46l4.32-7.49a1.08,1.08,0,0,0-.26-1.38ZM24,31.5a7.5,7.5,0,1,1,7.5-7.5A7.49,7.49,0,0,1,24,31.5Z" transform="translate(-2.96 -2.37)"/><path d="M81.34,30.18" transform="translate(-2.96 -2.37)"/><path class="cls-2" d="M69.28,15" transform="translate(-2.96 -2.37)"/></svg>
