<svg width="440" height="240" viewBox="0 0 440 240" fill="none" xmlns="http://www.w3.org/2000/svg">
<path d="M208.288 237.01C323.322 237.01 416.576 205.38 416.576 166.363C416.576 127.345 323.322 95.7156 208.288 95.7156C93.2537 95.7156 0 127.345 0 166.363C0 205.38 93.2537 237.01 208.288 237.01Z" fill="black" fill-opacity="0.03"/>
<path d="M104.971 164.495L224.388 225.518L365.472 164.331" stroke="#61ADFF" stroke-width="7"/>
<path d="M120.008 144.077L232.491 199.411L325.155 157.804" stroke="#61ADFF" stroke-width="7"/>
<path d="M120.008 118.077L232.491 173.411L325.155 131.804" stroke="#61ADFF" stroke-width="7"/>
<path d="M35.8571 85.6299C35.8423 85.4759 35.7858 85.3289 35.6937 85.2046C35.6016 85.0803 35.4775 84.9834 35.3345 84.9244C34.9569 84.7337 34.5398 84.6344 34.1168 84.6344C33.6938 84.6344 33.2767 84.7337 32.8991 84.9244C32.7561 84.9834 32.6319 85.0803 32.5399 85.2046C32.4478 85.3289 32.3913 85.4759 32.3765 85.6299V119.465C32.3913 119.618 32.4478 119.766 32.5399 119.89C32.6319 120.014 32.7561 120.111 32.8991 120.17C33.2767 120.361 33.6938 120.46 34.1168 120.46C34.5398 120.46 34.9569 120.361 35.3345 120.17C35.4775 120.111 35.6016 120.014 35.6937 119.89C35.7858 119.766 35.8423 119.618 35.8571 119.465V85.6299Z" fill="#F0F0F0"/>
<path opacity="0.3" d="M32.9143 86.3354C33.2919 86.5261 33.709 86.6254 34.1321 86.6254C34.5551 86.6254 34.9721 86.5261 35.3498 86.3354C35.4986 86.2869 35.6283 86.1925 35.7203 86.0658C35.8122 85.939 35.8618 85.7865 35.8618 85.6299C35.8618 85.4733 35.8122 85.3208 35.7203 85.194C35.6283 85.0673 35.4986 84.9729 35.3498 84.9244C34.9721 84.7337 34.5551 84.6344 34.1321 84.6344C33.709 84.6344 33.2919 84.7337 32.9143 84.9244C32.7655 84.9729 32.6358 85.0673 32.5438 85.194C32.4519 85.3208 32.4023 85.4733 32.4023 85.6299C32.4023 85.7865 32.4519 85.939 32.5438 86.0658C32.6358 86.1925 32.7655 86.2869 32.9143 86.3354Z" fill="#E1EEF7"/>
<path d="M34.8947 70.4581C34.8876 70.3915 34.8631 70.328 34.8237 70.2738C34.7842 70.2197 34.7312 70.1769 34.67 70.1498C34.5032 70.0649 34.3188 70.0206 34.1317 70.0206C33.9446 70.0206 33.7601 70.0649 33.5934 70.1498C33.5322 70.1769 33.4791 70.2197 33.4397 70.2738C33.4002 70.328 33.3757 70.3915 33.3687 70.4581V85.3999C33.3757 85.4665 33.4002 85.5301 33.4397 85.5842C33.4791 85.6383 33.5322 85.6811 33.5934 85.7083C33.7601 85.7932 33.9446 85.8374 34.1317 85.8374C34.3188 85.8374 34.5032 85.7932 34.67 85.7083C34.7312 85.6811 34.7842 85.6383 34.8237 85.5842C34.8631 85.5301 34.8876 85.4665 34.8947 85.3999V70.4581Z" fill="#CCCCCC"/>
<path opacity="0.3" d="M33.5934 70.7717C33.7601 70.8566 33.9446 70.9009 34.1317 70.9009C34.3188 70.9009 34.5032 70.8566 34.67 70.7717C34.7313 70.7433 34.7842 70.6994 34.8236 70.6445C34.863 70.5895 34.8875 70.5253 34.8947 70.4581C34.8876 70.3915 34.8631 70.328 34.8237 70.2738C34.7842 70.2197 34.7312 70.1769 34.67 70.1498C34.5032 70.0649 34.3188 70.0206 34.1317 70.0206C33.9446 70.0206 33.7601 70.0649 33.5934 70.1498C33.5322 70.1769 33.4791 70.2197 33.4397 70.2738C33.4002 70.328 33.3757 70.3915 33.3687 70.4581C33.3759 70.5253 33.4004 70.5895 33.4398 70.6445C33.4791 70.6994 33.5321 70.7433 33.5934 70.7717Z" fill="#E1EEF7"/>
<path d="M93.4546 52.3754C93.4392 52.2216 93.3825 52.0749 93.2905 51.9507C93.1985 51.8265 93.0747 51.7295 92.932 51.6699C92.5535 51.4792 92.1355 51.3799 91.7117 51.3799C91.2879 51.3799 90.8699 51.4792 90.4914 51.6699C90.3487 51.7295 90.2249 51.8265 90.1329 51.9507C90.0409 52.0749 89.9842 52.2216 89.9688 52.3754V86.2101C89.9839 86.3633 90.0406 86.5095 90.1327 86.6329C90.2248 86.7563 90.3488 86.8522 90.4914 86.9104C90.8692 87.1035 91.2874 87.2042 91.7117 87.2042C92.136 87.2042 92.5542 87.1035 92.932 86.9104C93.0746 86.8522 93.1986 86.7563 93.2907 86.6329C93.3828 86.5095 93.4394 86.3633 93.4546 86.2101V52.3754Z" fill="#F0F0F0"/>
<path opacity="0.3" d="M90.5124 53.0914C90.8902 53.2845 91.3085 53.3852 91.7328 53.3852C92.1571 53.3852 92.5753 53.2845 92.9531 53.0914C93.1001 53.0416 93.2277 52.9471 93.3182 52.821C93.4086 52.6949 93.4572 52.5436 93.4572 52.3885C93.4572 52.2333 93.4086 52.082 93.3182 51.9559C93.2277 51.8299 93.1001 51.7353 92.9531 51.6855C92.5746 51.4948 92.1566 51.3955 91.7328 51.3955C91.3089 51.3955 90.891 51.4948 90.5124 51.6855C90.3655 51.7353 90.2378 51.8299 90.1474 51.9559C90.0569 52.082 90.0083 52.2333 90.0083 52.3885C90.0083 52.5436 90.0569 52.6949 90.1474 52.821C90.2378 52.9471 90.3655 53.0416 90.5124 53.0914Z" fill="#E1EEF7"/>
<path d="M92.4925 37.2036C92.4865 37.1367 92.4624 37.0727 92.4228 37.0183C92.3832 36.964 92.3297 36.9215 92.2678 36.8953C92.101 36.8104 91.9166 36.7661 91.7295 36.7661C91.5424 36.7661 91.3579 36.8104 91.1912 36.8953C91.1306 36.9227 91.0784 36.9657 91.0398 37.0198C91.0013 37.074 90.9778 37.1374 90.9717 37.2036V52.1454C90.9778 52.2116 91.0013 52.275 91.0398 52.3292C91.0784 52.3834 91.1306 52.4263 91.1912 52.4538C91.3579 52.5387 91.5424 52.5829 91.7295 52.5829C91.9166 52.5829 92.101 52.5387 92.2678 52.4538C92.3297 52.4275 92.3832 52.385 92.4228 52.3307C92.4624 52.2764 92.4865 52.2124 92.4925 52.1454V37.2036Z" fill="#CCCCCC"/>
<path opacity="0.3" d="M91.1912 37.5172C91.3586 37.5997 91.5428 37.6426 91.7295 37.6426C91.9162 37.6426 92.1003 37.5997 92.2678 37.5172C92.3297 37.4896 92.3832 37.446 92.4227 37.3909C92.4622 37.3358 92.4863 37.2711 92.4925 37.2036C92.4865 37.1367 92.4624 37.0727 92.4228 37.0183C92.3832 36.964 92.3297 36.9215 92.2678 36.8953C92.101 36.8104 91.9166 36.7661 91.7295 36.7661C91.5424 36.7661 91.3579 36.8104 91.1912 36.8953C91.1306 36.9227 91.0784 36.9657 91.0398 37.0198C91.0013 37.074 90.9778 37.1374 90.9717 37.2036C90.9774 37.2706 91.0007 37.3349 91.0393 37.3899C91.0778 37.445 91.1302 37.4889 91.1912 37.5172Z" fill="#E1EEF7"/>
<path d="M67.6689 176.749L18.72 148.491C17.236 147.521 16.1708 146.029 15.7358 144.31L15.7045 144.138C15.58 143.311 15.6978 142.465 16.0438 141.704C16.3898 140.942 16.949 140.297 17.6538 139.847L98.2737 93.3334C103.902 90.0827 113.116 90.0827 118.75 93.3334L170.49 123.201C171.193 123.655 171.756 124.295 172.118 125.05C172.479 125.804 172.625 126.644 172.538 127.476C172.17 129.206 171.133 130.72 169.654 131.689L91.5685 176.749C84.9939 180.544 74.2383 180.544 67.6689 176.749Z" fill="#CCCCCC"/>
<path opacity="0.15" d="M67.6689 176.749L18.72 148.491C17.236 147.521 16.1708 146.029 15.7358 144.31L15.7045 144.138C15.58 143.311 15.6978 142.465 16.0438 141.704C16.3898 140.942 16.949 140.297 17.6538 139.847L98.2737 93.3334C103.902 90.0827 113.116 90.0827 118.75 93.3334L170.49 123.201C171.193 123.655 171.756 124.295 172.118 125.05C172.479 125.804 172.625 126.644 172.538 127.476C172.17 129.206 171.133 130.72 169.654 131.689L91.5685 176.749C84.9939 180.544 74.2383 180.544 67.6689 176.749Z" fill="black" fill-opacity="0.1"/>
<path d="M98.3566 81.7678L19.1113 127.518C16.6393 128.945 14.6167 132.452 14.6167 135.305V138.18C14.6167 141.038 16.6393 144.545 19.1113 145.972L67.5532 173.938C74.133 177.737 84.8991 177.737 91.4841 173.938L169 129.175C171.477 127.748 173.499 124.241 173.499 121.388V118.508C173.499 115.655 171.477 112.148 169 110.721L118.854 81.7678C113.225 78.5118 103.996 78.5118 98.3566 81.7678Z" fill="#DCDCDC"/>
<path opacity="0.6" d="M98.3566 81.7678L19.1113 127.518C16.6393 128.945 14.6167 132.452 14.6167 135.305V138.18C14.6167 141.038 16.6393 144.545 19.1113 145.972L67.5532 173.938C74.133 177.737 84.8991 177.737 91.4841 173.938L169 129.175C171.477 127.748 173.499 124.241 173.499 121.388V118.508C173.499 115.655 171.477 112.148 169 110.721L118.854 81.7678C113.225 78.5118 103.996 78.5118 98.3566 81.7678Z" fill="white"/>
<path d="M14.6692 131.542C15.1437 130.015 16.1605 128.714 17.5279 127.884L98.2732 81.2659C103.902 78.0152 113.116 78.0152 118.75 81.2659L170.599 111.202C171.968 112.026 173.022 113.284 173.594 114.777C173.933 115.994 173.155 117.593 171.843 118.351L91.568 164.697C84.9934 168.492 74.2378 168.492 67.6684 164.697L16.5454 135.195C15.2388 134.438 14.3974 132.807 14.6692 131.542Z" fill="#2D2926"/>
<path opacity="0.82" d="M14.6692 131.542C15.1437 130.015 16.1605 128.714 17.5279 127.884L98.2732 81.2659C103.902 78.0152 113.116 78.0152 118.75 81.2659L170.599 111.202C171.968 112.026 173.022 113.284 173.594 114.777C173.933 115.994 173.155 117.593 171.843 118.351L91.568 164.697C84.9934 168.492 74.2378 168.492 67.6684 164.697L16.5454 135.195C15.2388 134.438 14.3974 132.807 14.6692 131.542Z" fill="white"/>
<path d="M98.2729 81.2765L17.8255 127.722C16.357 128.569 16.357 129.954 17.8255 130.8L67.6681 159.576C74.2375 163.37 84.9931 163.37 91.5677 159.576L170.301 114.108C171.769 113.261 171.769 111.876 170.301 111.024L118.749 81.2661C113.115 78.0258 103.902 78.0258 98.2729 81.2765Z" fill="white"/>
<path opacity="0.6" d="M98.2729 81.2765L17.8255 127.722C16.357 128.569 16.357 129.954 17.8255 130.8L67.6681 159.576C74.2375 163.37 84.9931 163.37 91.5677 159.576L170.301 114.108C171.769 113.261 171.769 111.876 170.301 111.024L118.749 81.2661C113.115 78.0258 103.902 78.0258 98.2729 81.2765Z" fill="#F5F5F5"/>
<path d="M114.647 153.221C114.483 153.333 114.348 153.483 114.252 153.657C114.155 153.831 114.101 154.025 114.093 154.224V158.405C114.093 158.781 114.344 158.928 114.647 158.766C114.813 158.654 114.951 158.504 115.048 158.329C115.145 158.153 115.199 157.957 115.206 157.757V153.576C115.17 153.205 114.929 153.043 114.647 153.221ZM117.981 151.282C117.817 151.394 117.682 151.544 117.586 151.718C117.49 151.892 117.435 152.086 117.427 152.285V156.466C117.427 156.842 117.678 156.989 117.981 156.827C118.147 156.715 118.284 156.566 118.381 156.392C118.478 156.218 118.533 156.023 118.541 155.823V151.642C118.514 151.266 118.264 151.104 117.955 151.282H117.981ZM97.9806 162.91C97.8151 163.022 97.6782 163.171 97.5811 163.345C97.4839 163.519 97.4292 163.714 97.4214 163.914V168.095C97.4214 168.471 97.667 168.617 97.9754 168.455C98.1402 168.343 98.2763 168.194 98.3726 168.02C98.4688 167.845 98.5226 167.651 98.5294 167.452V163.271C98.5084 162.894 98.2628 162.732 97.9545 162.91H97.9806ZM124.634 147.404C124.47 147.516 124.333 147.665 124.237 147.839C124.141 148.014 124.087 148.208 124.08 148.407V152.588C124.08 152.965 124.326 153.111 124.634 152.949C124.799 152.837 124.935 152.688 125.032 152.514C125.128 152.339 125.182 152.145 125.188 151.945V147.764C125.178 147.388 124.932 147.226 124.624 147.404H124.634ZM121.3 149.343C121.135 149.455 120.999 149.604 120.903 149.778C120.807 149.953 120.753 150.147 120.746 150.346V154.527C120.746 154.904 120.997 155.05 121.3 154.888C121.466 154.776 121.602 154.627 121.7 154.453C121.797 154.279 121.851 154.084 121.859 153.884V149.703C121.849 149.327 121.598 149.165 121.29 149.343H121.3ZM104.634 159.032C104.467 159.144 104.33 159.294 104.233 159.469C104.136 159.645 104.081 159.841 104.074 160.041V164.222C104.074 164.603 104.325 164.745 104.634 164.583C104.798 164.47 104.933 164.32 105.029 164.146C105.125 163.972 105.18 163.778 105.188 163.579V159.398C105.177 159.017 104.926 158.855 104.623 159.032H104.634ZM101.299 160.971C101.134 161.083 100.997 161.232 100.9 161.406C100.803 161.58 100.748 161.775 100.74 161.975V166.156C100.74 166.532 100.991 166.678 101.299 166.516C101.463 166.403 101.599 166.254 101.695 166.08C101.791 165.906 101.845 165.712 101.853 165.513V161.332C101.843 160.955 101.581 160.793 101.289 160.971H101.299ZM107.957 157.093C107.791 157.205 107.654 157.355 107.557 157.531C107.46 157.706 107.405 157.902 107.398 158.102V162.283C107.398 162.664 107.649 162.806 107.957 162.649C108.122 162.535 108.257 162.385 108.353 162.21C108.449 162.035 108.503 161.84 108.511 161.64V157.459C108.511 157.093 108.261 156.916 107.957 157.093ZM127.958 145.465C127.793 145.577 127.656 145.727 127.56 145.903C127.464 146.078 127.41 146.274 127.404 146.474V150.655C127.404 151.036 127.65 151.177 127.958 151.015C128.123 150.903 128.259 150.754 128.355 150.58C128.452 150.405 128.505 150.211 128.512 150.012V145.831C128.512 145.449 128.267 145.287 127.958 145.465ZM111.287 155.154C111.123 155.268 110.987 155.419 110.891 155.594C110.795 155.769 110.741 155.964 110.733 156.163V160.344C110.733 160.72 110.983 160.867 111.287 160.705C111.453 160.593 111.59 160.443 111.687 160.267C111.784 160.092 111.839 159.896 111.846 159.696V155.515C111.846 155.139 111.595 155.003 111.287 155.154ZM154.628 129.959C154.463 130.072 154.327 130.222 154.231 130.397C154.135 130.572 154.081 130.768 154.074 130.967V135.148C154.074 135.53 154.325 135.671 154.628 135.514C154.793 135.402 154.93 135.252 155.027 135.076C155.124 134.901 155.179 134.706 155.187 134.506V130.325C155.187 129.943 154.936 129.781 154.628 129.959ZM131.293 143.547C131.127 143.659 130.991 143.809 130.894 143.985C130.798 144.16 130.745 144.356 130.739 144.556V148.737C130.739 149.118 130.984 149.259 131.293 149.102C131.458 148.989 131.594 148.839 131.69 148.664C131.786 148.489 131.84 148.294 131.847 148.094V143.913C131.847 143.505 131.601 143.348 131.293 143.505V143.547ZM151.293 131.919C151.129 132.032 150.993 132.182 150.897 132.357C150.801 132.532 150.747 132.728 150.739 132.927V137.108C150.739 137.49 150.99 137.631 151.293 137.469C151.459 137.357 151.596 137.208 151.693 137.034C151.79 136.86 151.845 136.665 151.853 136.465V132.284C151.853 131.882 151.602 131.72 151.293 131.898V131.919ZM157.962 128.041C157.798 128.155 157.663 128.305 157.566 128.48C157.47 128.655 157.416 128.85 157.408 129.049V133.23C157.408 133.607 157.659 133.753 157.962 133.591C158.128 133.479 158.266 133.329 158.363 133.154C158.46 132.978 158.514 132.783 158.521 132.582V128.401C158.547 128.004 158.27 127.826 157.962 128.02V128.041ZM147.964 133.837C147.799 133.948 147.662 134.097 147.565 134.271C147.468 134.446 147.413 134.641 147.405 134.84V139.021C147.405 139.397 147.656 139.544 147.964 139.382C148.128 139.269 148.264 139.12 148.36 138.945C148.456 138.771 148.51 138.577 148.518 138.378V134.197C148.518 133.821 148.267 133.659 147.964 133.837ZM134.627 141.587C134.462 141.7 134.326 141.85 134.23 142.025C134.133 142.201 134.08 142.396 134.073 142.596V146.777C134.073 147.153 134.319 147.299 134.627 147.137C134.792 147.025 134.929 146.875 135.025 146.7C135.122 146.524 135.175 146.329 135.181 146.129V141.948C135.181 141.571 134.935 141.415 134.627 141.587ZM137.961 139.653C137.796 139.765 137.659 139.914 137.562 140.088C137.465 140.263 137.41 140.457 137.402 140.657V144.838C137.402 145.214 137.648 145.36 137.956 145.198C138.122 145.086 138.258 144.936 138.354 144.761C138.451 144.585 138.504 144.39 138.51 144.19V140.009C138.515 139.638 138.264 139.476 137.961 139.653ZM144.63 135.776C144.464 135.887 144.328 136.036 144.23 136.21C144.133 136.385 144.079 136.58 144.071 136.779V140.96C144.071 141.336 144.322 141.483 144.63 141.321C144.794 141.208 144.929 141.058 145.025 140.884C145.122 140.71 145.176 140.516 145.184 140.317V136.136C145.184 135.76 144.959 135.598 144.63 135.776ZM141.301 137.714C141.135 137.826 140.998 137.975 140.901 138.149C140.804 138.324 140.749 138.518 140.742 138.718V142.899C140.742 143.275 140.993 143.421 141.301 143.259C141.465 143.147 141.6 142.997 141.696 142.823C141.793 142.649 141.847 142.455 141.855 142.256V138.075C141.85 137.699 141.599 137.537 141.301 137.714Z" fill="#4D4D4D"/>
<path opacity="0.15" d="M121.29 149.343C121.125 149.455 120.989 149.604 120.892 149.778C120.796 149.953 120.742 150.147 120.736 150.346V154.527C120.736 154.904 120.986 155.05 121.29 154.888C121.455 154.776 121.592 154.627 121.689 154.453C121.786 154.279 121.841 154.084 121.849 153.884V149.703C121.849 149.327 121.598 149.165 121.29 149.343ZM114.647 153.221C114.483 153.333 114.348 153.483 114.252 153.657C114.155 153.831 114.101 154.025 114.093 154.224V158.405C114.093 158.781 114.344 158.928 114.647 158.766C114.813 158.654 114.951 158.504 115.048 158.329C115.145 158.153 115.199 157.957 115.206 157.757V153.576C115.17 153.205 114.929 153.043 114.647 153.221ZM117.981 151.282C117.817 151.395 117.682 151.544 117.586 151.718C117.49 151.892 117.435 152.086 117.427 152.285V156.466C117.427 156.843 117.678 156.989 117.981 156.827C118.147 156.715 118.284 156.566 118.381 156.392C118.478 156.218 118.533 156.023 118.541 155.823V151.642C118.514 151.266 118.264 151.104 117.955 151.282H117.981ZM97.9806 162.91C97.8151 163.022 97.6782 163.171 97.5811 163.345C97.4839 163.519 97.4292 163.714 97.4214 163.914V168.095C97.4214 168.471 97.667 168.617 97.9754 168.455C98.1402 168.343 98.2763 168.194 98.3726 168.02C98.4688 167.846 98.5226 167.651 98.5294 167.452V163.271C98.5084 162.895 98.2628 162.733 97.9545 162.91H97.9806ZM124.634 147.404C124.47 147.516 124.333 147.665 124.237 147.839C124.141 148.014 124.087 148.208 124.08 148.407V152.588C124.08 152.965 124.326 153.111 124.634 152.949C124.799 152.837 124.935 152.688 125.032 152.514C125.128 152.339 125.182 152.145 125.188 151.946V147.765C125.178 147.388 124.932 147.226 124.624 147.404H124.634ZM127.969 145.465C127.803 145.577 127.667 145.727 127.57 145.903C127.474 146.078 127.421 146.274 127.415 146.474V150.655C127.415 151.036 127.66 151.177 127.969 151.015C128.134 150.903 128.27 150.754 128.366 150.58C128.462 150.406 128.516 150.211 128.523 150.012V145.831C128.512 145.449 128.267 145.287 127.958 145.465H127.969ZM104.634 159.053C104.467 159.165 104.33 159.315 104.233 159.49C104.136 159.666 104.081 159.862 104.074 160.062V164.243C104.074 164.624 104.325 164.766 104.634 164.603C104.798 164.491 104.933 164.341 105.029 164.167C105.125 163.993 105.18 163.799 105.188 163.6V159.419C105.177 159.017 104.926 158.855 104.623 159.032L104.634 159.053ZM107.957 157.093C107.791 157.205 107.654 157.355 107.557 157.531C107.46 157.706 107.405 157.902 107.398 158.102V162.283C107.398 162.665 107.649 162.806 107.957 162.649C108.122 162.535 108.257 162.385 108.353 162.21C108.449 162.035 108.503 161.84 108.511 161.64V157.459C108.511 157.093 108.261 156.916 107.957 157.093ZM111.287 155.154C111.123 155.268 110.987 155.419 110.891 155.594C110.795 155.769 110.741 155.964 110.733 156.163V160.344C110.733 160.72 110.983 160.867 111.287 160.705C111.453 160.593 111.59 160.443 111.687 160.268C111.784 160.092 111.839 159.896 111.846 159.696V155.515C111.846 155.139 111.595 155.003 111.287 155.154ZM101.289 160.971C101.123 161.083 100.986 161.232 100.889 161.406C100.792 161.58 100.737 161.775 100.73 161.975V166.156C100.73 166.532 100.98 166.678 101.289 166.516C101.453 166.404 101.588 166.254 101.684 166.08C101.781 165.906 101.835 165.712 101.843 165.513V161.332C101.843 160.956 101.581 160.794 101.289 160.971ZM154.628 129.959C154.463 130.072 154.327 130.222 154.231 130.397C154.135 130.573 154.081 130.768 154.074 130.967V135.148C154.074 135.53 154.325 135.671 154.628 135.514C154.793 135.402 154.93 135.252 155.027 135.076C155.124 134.901 155.179 134.706 155.187 134.506V130.325C155.187 129.943 154.936 129.781 154.628 129.959ZM151.293 131.898C151.129 132.011 150.993 132.161 150.897 132.336C150.801 132.511 150.747 132.707 150.739 132.906V137.087C150.739 137.469 150.99 137.61 151.293 137.448C151.459 137.336 151.596 137.187 151.693 137.013C151.79 136.839 151.845 136.644 151.853 136.445V132.264C151.853 131.882 151.602 131.72 151.293 131.898ZM157.962 128.02C157.798 128.134 157.663 128.284 157.566 128.459C157.47 128.634 157.416 128.829 157.408 129.029V133.21C157.408 133.586 157.659 133.732 157.962 133.57C158.128 133.458 158.266 133.308 158.363 133.133C158.46 132.958 158.514 132.762 158.521 132.561V128.38C158.547 128.004 158.27 127.826 157.962 128.02ZM147.964 133.837C147.799 133.948 147.662 134.097 147.565 134.272C147.468 134.446 147.413 134.641 147.405 134.84V139.021C147.405 139.397 147.656 139.544 147.964 139.382C148.128 139.269 148.264 139.12 148.36 138.945C148.456 138.771 148.51 138.577 148.518 138.378V134.197C148.518 133.821 148.267 133.659 147.964 133.837ZM131.293 143.505C131.127 143.618 130.991 143.768 130.894 143.943C130.798 144.118 130.745 144.314 130.739 144.514V148.695C130.739 149.076 130.984 149.217 131.293 149.061C131.458 148.948 131.594 148.798 131.69 148.622C131.786 148.447 131.84 148.252 131.847 148.052V143.871C131.847 143.505 131.601 143.348 131.293 143.505ZM137.961 139.633C137.796 139.744 137.659 139.893 137.562 140.067C137.465 140.242 137.41 140.437 137.402 140.636V144.817C137.402 145.193 137.648 145.34 137.956 145.178C138.122 145.065 138.258 144.915 138.354 144.74C138.451 144.565 138.504 144.369 138.51 144.169V139.988C138.515 139.638 138.264 139.476 137.961 139.653V139.633ZM144.63 135.755C144.464 135.866 144.328 136.015 144.23 136.19C144.133 136.364 144.079 136.559 144.071 136.758V140.939C144.071 141.315 144.322 141.462 144.63 141.3C144.794 141.187 144.929 141.038 145.025 140.863C145.122 140.689 145.176 140.495 145.184 140.296V136.115C145.184 135.76 144.959 135.598 144.63 135.776V135.755ZM134.627 141.566C134.462 141.679 134.326 141.829 134.23 142.005C134.133 142.18 134.08 142.375 134.073 142.575V146.756C134.073 147.132 134.319 147.279 134.627 147.117C134.792 147.004 134.929 146.854 135.025 146.679C135.122 146.504 135.175 146.308 135.181 146.108V141.927C135.181 141.571 134.935 141.415 134.627 141.587V141.566ZM141.301 137.715C141.135 137.826 140.998 137.975 140.901 138.149C140.804 138.324 140.749 138.519 140.742 138.718V142.899C140.742 143.275 140.993 143.422 141.301 143.26C141.465 143.147 141.6 142.997 141.696 142.823C141.793 142.649 141.847 142.455 141.855 142.256V138.075C141.85 137.699 141.599 137.537 141.301 137.715Z" fill="#818181"/>
<path opacity="0.3" d="M111.287 155.154C111.122 155.268 110.987 155.419 110.891 155.594C110.795 155.769 110.741 155.964 110.733 156.163V160.344C110.73 160.388 110.73 160.431 110.733 160.475L110.821 160.438C110.985 160.324 111.121 160.174 111.217 159.999C111.313 159.824 111.367 159.629 111.375 159.43V155.249C111.378 155.203 111.378 155.158 111.375 155.113L111.287 155.154ZM114.621 153.221C114.457 153.333 114.321 153.483 114.225 153.657C114.129 153.831 114.075 154.025 114.067 154.224V158.405C114.064 158.449 114.064 158.492 114.067 158.536L114.156 158.499C114.32 158.386 114.456 158.236 114.552 158.061C114.649 157.886 114.702 157.69 114.71 157.491V153.31C114.713 153.264 114.713 153.219 114.71 153.174C114.687 153.187 114.666 153.203 114.647 153.221H114.621ZM117.955 151.282C117.791 151.395 117.656 151.544 117.56 151.718C117.464 151.892 117.409 152.086 117.401 152.285V156.466C117.398 156.51 117.398 156.553 117.401 156.597L117.49 156.56C117.655 156.447 117.791 156.297 117.887 156.122C117.983 155.947 118.037 155.751 118.044 155.552V151.371C118.047 151.325 118.047 151.28 118.044 151.235C118.012 151.246 117.982 151.262 117.955 151.282ZM121.29 149.343C121.125 149.455 120.989 149.604 120.892 149.778C120.796 149.953 120.742 150.147 120.736 150.346V154.527C120.733 154.571 120.733 154.614 120.736 154.658L120.819 154.621C120.985 154.51 121.122 154.361 121.219 154.187C121.316 154.012 121.371 153.817 121.378 153.618V149.437C121.384 149.392 121.384 149.346 121.378 149.301L121.29 149.343ZM124.624 147.404C124.459 147.516 124.323 147.665 124.227 147.839C124.13 148.014 124.077 148.208 124.07 148.407V152.588C124.067 152.634 124.067 152.679 124.07 152.724L124.154 152.682C124.319 152.571 124.456 152.422 124.553 152.248C124.65 152.073 124.705 151.878 124.713 151.679V147.498C124.718 147.455 124.718 147.411 124.713 147.367L124.624 147.404ZM101.289 160.992C101.123 161.104 100.986 161.253 100.889 161.427C100.792 161.601 100.737 161.796 100.73 161.996V166.177C100.724 166.222 100.724 166.267 100.73 166.312L100.813 166.271C100.978 166.159 101.114 166.01 101.21 165.835C101.307 165.661 101.36 165.466 101.367 165.267V161.086C101.37 161.043 101.37 160.999 101.367 160.956L101.289 160.992ZM107.957 157.093C107.791 157.205 107.654 157.355 107.557 157.531C107.46 157.706 107.405 157.902 107.398 158.102V162.283C107.392 162.328 107.392 162.374 107.398 162.419L107.482 162.377C107.646 162.264 107.781 162.115 107.877 161.941C107.974 161.767 108.028 161.572 108.036 161.374V157.193C108.039 157.149 108.039 157.106 108.036 157.062L107.957 157.093ZM97.9544 162.91C97.7889 163.022 97.652 163.171 97.5549 163.345C97.4577 163.519 97.403 163.714 97.3952 163.914V168.095C97.3897 168.138 97.3897 168.182 97.3952 168.225L97.4788 168.189C97.6437 168.077 97.7797 167.928 97.876 167.753C97.9723 167.579 98.026 167.384 98.0328 167.185V163.004C98.0382 162.959 98.0382 162.914 98.0328 162.868L97.9544 162.91ZM104.623 159.032C104.457 159.144 104.32 159.294 104.222 159.47C104.125 159.645 104.071 159.841 104.064 160.041V164.222C104.058 164.267 104.058 164.313 104.064 164.358C104.093 164.347 104.121 164.333 104.148 164.316C104.312 164.204 104.448 164.055 104.545 163.881C104.641 163.706 104.695 163.512 104.701 163.313V159.132C104.704 159.088 104.704 159.044 104.701 159.001L104.623 159.032ZM141.301 137.715C141.135 137.826 140.998 137.975 140.901 138.149C140.804 138.324 140.749 138.519 140.742 138.718V142.899C140.736 142.942 140.736 142.986 140.742 143.03L140.825 142.993C140.991 142.881 141.127 142.731 141.224 142.555C141.32 142.38 141.373 142.184 141.379 141.984V137.803C141.382 137.758 141.382 137.713 141.379 137.667L141.301 137.715ZM151.299 131.898C151.134 132.011 150.998 132.161 150.902 132.336C150.806 132.511 150.752 132.707 150.745 132.906V137.087C150.742 137.133 150.742 137.178 150.745 137.223C150.776 137.214 150.806 137.2 150.833 137.181C150.997 137.069 151.133 136.919 151.229 136.745C151.325 136.571 151.379 136.377 151.387 136.178V131.997C151.39 131.954 151.39 131.91 151.387 131.866L151.299 131.898ZM147.969 133.837C147.804 133.948 147.667 134.097 147.57 134.272C147.473 134.446 147.418 134.641 147.41 134.84V139.021C147.405 139.066 147.405 139.112 147.41 139.157L147.494 139.115C147.658 139.002 147.793 138.853 147.889 138.679C147.986 138.505 148.04 138.311 148.048 138.112V133.931C148.051 133.887 148.051 133.844 148.048 133.8L147.969 133.837ZM154.633 129.959C154.468 130.072 154.332 130.222 154.236 130.397C154.14 130.573 154.086 130.768 154.079 130.967V135.148C154.076 135.194 154.076 135.239 154.079 135.284L154.168 135.248C154.332 135.134 154.467 134.983 154.563 134.808C154.659 134.633 154.713 134.439 154.722 134.239V130.058C154.724 130.015 154.724 129.971 154.722 129.927L154.633 129.959ZM158.056 127.983L157.967 128.02C157.803 128.134 157.668 128.284 157.572 128.459C157.476 128.634 157.421 128.829 157.413 129.029V133.21C157.411 133.253 157.411 133.297 157.413 133.34L157.502 133.304C157.666 133.19 157.802 133.039 157.898 132.864C157.994 132.689 158.048 132.494 158.056 132.295V128.114C158.057 128.07 158.055 128.027 158.051 127.983H158.056ZM137.966 139.653C137.801 139.765 137.664 139.914 137.567 140.088C137.47 140.263 137.415 140.457 137.407 140.657V144.838C137.402 144.881 137.402 144.925 137.407 144.969L137.491 144.932C137.656 144.82 137.793 144.67 137.889 144.494C137.986 144.319 138.039 144.123 138.045 143.923V139.742C138.048 139.697 138.048 139.652 138.045 139.606C138.015 139.618 137.987 139.634 137.961 139.653H137.966ZM144.635 135.776C144.47 135.887 144.333 136.036 144.236 136.21C144.138 136.385 144.084 136.58 144.076 136.779V140.96C144.07 141.003 144.07 141.047 144.076 141.091L144.16 141.054C144.324 140.942 144.46 140.793 144.557 140.619C144.653 140.444 144.707 140.25 144.714 140.051V135.87C144.716 135.824 144.716 135.779 144.714 135.734L144.635 135.776ZM131.293 143.505C131.127 143.618 130.99 143.768 130.894 143.943C130.798 144.118 130.745 144.314 130.739 144.514V148.695C130.736 148.74 130.736 148.785 130.739 148.831C130.768 148.821 130.797 148.807 130.822 148.789C130.987 148.677 131.123 148.528 131.219 148.354C131.316 148.179 131.369 147.985 131.376 147.785V143.604C131.382 143.561 131.382 143.517 131.376 143.474L131.293 143.505ZM134.627 141.566C134.462 141.679 134.326 141.829 134.23 142.005C134.133 142.18 134.08 142.375 134.073 142.575V146.756C134.067 146.799 134.067 146.843 134.073 146.887L134.157 146.85C134.321 146.737 134.458 146.587 134.554 146.412C134.65 146.236 134.704 146.041 134.711 145.841V141.66C134.716 141.615 134.716 141.57 134.711 141.524L134.627 141.566ZM127.958 145.444C127.793 145.556 127.656 145.706 127.56 145.882C127.464 146.057 127.41 146.253 127.404 146.453V150.634C127.401 150.679 127.401 150.724 127.404 150.77C127.434 150.76 127.462 150.746 127.488 150.728C127.653 150.616 127.79 150.467 127.887 150.293C127.985 150.119 128.039 149.924 128.047 149.724V145.543C128.053 145.5 128.053 145.456 128.047 145.413L127.958 145.444Z" fill="black"/>
<path d="M86.4252 149.876L92.8012 153.561C93.5347 153.933 94.3459 154.127 95.1687 154.127C95.9915 154.127 96.8027 153.933 97.5362 153.561L150.588 122.93C151.899 122.172 151.899 120.949 150.588 120.191L144.217 116.533C143.482 116.162 142.67 115.968 141.847 115.968C141.023 115.968 140.212 116.162 139.477 116.533L86.4252 147.164C85.1239 147.895 85.1239 149.123 86.4252 149.876Z" fill="#818181"/>
<path d="M150.593 120.86L144.222 117.202C143.488 116.828 142.676 116.633 141.852 116.633C141.028 116.633 140.216 116.828 139.482 117.202L86.4254 147.812C86.1799 147.851 85.9563 147.976 85.7949 148.166C85.6336 148.355 85.5449 148.595 85.5449 148.844C85.5449 149.093 85.6336 149.333 85.7949 149.522C85.9563 149.711 86.1799 149.837 86.4254 149.876L92.8014 153.561C93.5349 153.933 94.3461 154.128 95.1689 154.128C95.9917 154.128 96.8029 153.933 97.5364 153.561L150.588 122.93C150.865 122.93 151.131 122.819 151.327 122.623C151.523 122.427 151.633 122.162 151.633 121.884C151.633 121.607 151.523 121.341 151.327 121.145C151.131 120.949 150.865 120.839 150.588 120.839L150.593 120.86Z" fill="#DCDCDC"/>
<path d="M96.3023 149.871C96.3442 149.845 96.3389 149.803 96.3023 149.777L94.7345 148.883C94.7075 148.87 94.678 148.864 94.6482 148.864C94.6184 148.864 94.589 148.87 94.562 148.883C94.5202 148.909 94.5254 148.956 94.562 148.982L96.1038 149.876C96.1344 149.893 96.1689 149.901 96.2037 149.9C96.2386 149.899 96.2726 149.889 96.3023 149.871ZM95.4661 148.789C95.4034 148.789 95.3773 148.836 95.4034 148.873C95.4225 148.894 95.4471 148.911 95.4747 148.92C95.5022 148.929 95.5318 148.931 95.5602 148.925C96.099 148.849 96.6478 148.946 97.1281 149.202C97.7605 149.573 97.8336 150.132 97.2797 150.451C96.9378 150.605 96.5646 150.677 96.1899 150.662C95.8152 150.646 95.4493 150.544 95.1212 150.362C94.6822 150.106 94.4993 149.756 94.6404 149.442C94.6404 149.411 94.6404 149.369 94.5568 149.353C94.5315 149.344 94.5041 149.343 94.4781 149.349C94.452 149.356 94.4285 149.37 94.4104 149.39C94.2432 149.751 94.4575 150.158 94.9644 150.435C95.3443 150.645 95.7677 150.763 96.2012 150.782C96.6347 150.8 97.0665 150.717 97.4626 150.54C98.1002 150.169 98.0218 149.526 97.2849 149.097C96.7263 148.805 96.0897 148.697 95.4661 148.789Z" fill="#666666"/>
<path d="M104.937 145.894L104.289 145.517C104.258 145.502 104.224 145.494 104.189 145.494C104.155 145.494 104.121 145.502 104.09 145.517L103.531 145.836L103.233 145.664L103.708 145.392C103.75 145.366 103.745 145.324 103.708 145.293C103.682 145.28 103.654 145.273 103.625 145.273C103.596 145.273 103.567 145.28 103.541 145.293L102.005 146.181L101.707 146.009L102.261 145.685C102.313 145.653 102.308 145.606 102.261 145.57L101.607 145.193C101.577 145.178 101.543 145.17 101.508 145.17C101.474 145.17 101.44 145.178 101.409 145.193L100.139 145.925C100.087 145.956 100.097 146.009 100.139 146.04L100.787 146.416C100.818 146.432 100.852 146.44 100.886 146.44C100.921 146.44 100.955 146.432 100.986 146.416L101.545 146.097L101.843 146.27L100.839 146.85L100.317 147.158C100.275 147.158 100.28 147.226 100.317 147.252C100.343 147.267 100.373 147.274 100.403 147.274C100.433 147.274 100.463 147.267 100.489 147.252L100.939 146.991L101.242 147.164L100.682 147.482C100.63 147.514 100.641 147.566 100.682 147.597L101.33 147.974C101.361 147.989 101.395 147.997 101.43 147.997C101.464 147.997 101.498 147.989 101.529 147.974L102.799 147.242C102.851 147.211 102.846 147.164 102.799 147.127L102.151 146.751C102.12 146.735 102.086 146.727 102.052 146.727C102.017 146.727 101.983 146.735 101.952 146.751L101.398 147.07L101.101 146.897L103.086 145.752L103.384 145.92L102.83 146.244C102.778 146.275 102.783 146.322 102.83 146.359L103.478 146.735C103.509 146.751 103.543 146.759 103.578 146.759C103.612 146.759 103.646 146.751 103.677 146.735L104.947 146.003C105.005 145.977 104.994 145.925 104.937 145.894Z" fill="#666666"/>
<path d="M110.398 141.347L109.28 141.477C109.186 141.477 109.165 141.556 109.238 141.603L109.593 141.807L106.917 143.348L106.593 142.789C106.587 142.779 106.584 142.768 106.582 142.756C106.581 142.745 106.583 142.733 106.587 142.722C106.591 142.711 106.597 142.701 106.606 142.692C106.614 142.684 106.624 142.678 106.635 142.674L107.158 142.382C107.289 142.438 107.43 142.468 107.573 142.468C107.716 142.468 107.858 142.438 107.989 142.382C108.229 142.24 108.203 141.995 107.921 141.859C107.778 141.779 107.619 141.733 107.455 141.726C107.292 141.719 107.129 141.75 106.98 141.817C106.766 141.943 106.766 142.152 106.98 142.308L106.458 142.601C106.435 142.61 106.414 142.625 106.398 142.642C106.381 142.66 106.368 142.682 106.36 142.705C106.352 142.728 106.349 142.753 106.352 142.777C106.354 142.802 106.362 142.825 106.374 142.847L106.74 143.484L106.217 143.793C106.085 143.734 105.941 143.704 105.796 143.704C105.652 143.704 105.508 143.734 105.376 143.793C105.135 143.929 105.167 144.174 105.444 144.315C105.587 144.395 105.746 144.439 105.91 144.445C106.073 144.452 106.236 144.42 106.384 144.352C106.599 144.232 106.599 144.023 106.384 143.866L107.498 143.223L108.606 143.437C108.748 143.469 108.897 143.452 109.029 143.39L109.551 143.082L109.818 143.233C109.85 143.25 109.886 143.259 109.923 143.259C109.959 143.259 109.995 143.25 110.027 143.233L110.628 142.883C110.686 142.852 110.675 142.8 110.628 142.763L109.928 142.361C109.896 142.345 109.861 142.337 109.826 142.337C109.791 142.337 109.756 142.345 109.724 142.361L109.118 142.706C109.065 142.737 109.071 142.794 109.118 142.826L109.363 142.972L108.841 143.28C108.776 143.302 108.706 143.302 108.642 143.28L107.67 143.092L109.761 141.885L110.111 142.089C110.189 142.131 110.304 142.12 110.325 142.089L110.555 141.446C110.586 141.415 110.492 141.336 110.398 141.347Z" fill="#666666"/>
<path d="M112.588 139.204C112.52 139.204 112.473 139.235 112.483 139.272C112.518 139.379 112.573 139.477 112.647 139.562C112.721 139.646 112.811 139.715 112.912 139.763C113.174 139.907 113.465 139.992 113.764 140.014C113.793 140.02 113.823 140.02 113.852 140.014C113.852 140.014 113.879 139.988 113.879 139.967C113.879 139.946 113.826 139.894 113.758 139.889C113.516 139.875 113.281 139.807 113.069 139.69C112.986 139.652 112.913 139.596 112.854 139.528C112.795 139.46 112.75 139.379 112.724 139.293C112.713 139.235 112.65 139.204 112.588 139.204ZM113.236 138.995C112.995 139.136 113.027 139.376 113.304 139.518C113.434 139.588 113.577 139.631 113.724 139.644C113.872 139.658 114.02 139.641 114.161 139.596L114.913 140.035C114.94 140.048 114.97 140.055 115 140.055C115.03 140.055 115.059 140.048 115.086 140.035C115.128 140.009 115.122 139.967 115.086 139.936L114.333 139.502C114.495 139.356 114.443 139.152 114.192 139.005C114.045 138.928 113.882 138.886 113.715 138.884C113.549 138.883 113.385 138.92 113.236 138.995ZM112.65 139.915C112.517 139.852 112.398 139.763 112.301 139.652C112.204 139.541 112.131 139.412 112.086 139.272C112.073 139.247 112.054 139.227 112.029 139.214C112.005 139.201 111.978 139.196 111.95 139.199C111.887 139.199 111.84 139.23 111.846 139.267C111.899 139.427 111.983 139.576 112.095 139.703C112.206 139.831 112.342 139.935 112.494 140.009C112.889 140.223 113.326 140.349 113.774 140.38C113.803 140.385 113.834 140.385 113.863 140.38C113.871 140.375 113.877 140.368 113.882 140.36C113.886 140.351 113.889 140.342 113.889 140.333C113.889 140.296 113.837 140.26 113.769 140.26C113.375 140.231 112.992 140.113 112.65 139.915ZM113.696 138.561C113.628 138.561 113.575 138.561 113.575 138.619C113.575 138.676 113.633 138.692 113.701 138.697C113.943 138.711 114.178 138.779 114.391 138.896C114.472 138.935 114.545 138.991 114.604 139.059C114.663 139.127 114.708 139.207 114.736 139.293C114.748 139.317 114.768 139.337 114.792 139.351C114.817 139.364 114.844 139.369 114.872 139.366C114.896 139.373 114.921 139.373 114.945 139.366C114.945 139.366 114.981 139.335 114.976 139.314C114.942 139.207 114.886 139.108 114.812 139.024C114.739 138.94 114.649 138.871 114.548 138.822C114.295 138.676 114.013 138.587 113.722 138.561H113.696ZM113.696 138.19C113.628 138.19 113.575 138.216 113.581 138.253C113.586 138.289 113.633 138.326 113.701 138.331C114.094 138.352 114.476 138.463 114.819 138.655C114.953 138.718 115.071 138.807 115.168 138.918C115.266 139.028 115.339 139.158 115.384 139.298C115.384 139.34 115.452 139.371 115.52 139.371C115.544 139.377 115.569 139.377 115.593 139.371C115.593 139.371 115.624 139.34 115.593 139.319C115.542 139.158 115.458 139.009 115.348 138.882C115.237 138.754 115.102 138.65 114.95 138.577C114.569 138.363 114.147 138.231 113.711 138.19H113.696Z" fill="#666666"/>
<path d="M121.488 135.41L120.85 135.488C120.652 135.488 120.542 135.624 120.615 135.744C120.688 135.864 120.578 135.985 120.38 136.006L119.444 136.115C119.354 136.131 119.261 136.123 119.175 136.092C119.089 136.061 119.012 136.008 118.953 135.938C118.894 135.869 118.818 135.818 118.733 135.787C118.648 135.757 118.556 135.749 118.467 135.765L117.829 135.838C117.626 135.838 117.521 135.979 117.589 136.1L117.657 136.215C117.668 136.237 117.684 136.257 117.704 136.272C117.868 136.399 118.055 136.492 118.255 136.546C118.455 136.599 118.664 136.613 118.869 136.586L121.388 136.288C121.817 136.241 122.094 136.027 122.068 135.765C122.07 135.744 122.07 135.723 122.068 135.702L122 135.588C121.939 135.514 121.859 135.458 121.769 135.427C121.678 135.396 121.581 135.39 121.488 135.41Z" fill="#666666"/>
<path d="M126.192 131.637L125.852 131.835L125.508 131.631C125.452 131.603 125.39 131.589 125.327 131.589C125.265 131.589 125.203 131.603 125.147 131.631L124.316 132.107C124.222 132.164 124.232 132.258 124.342 132.316L124.687 132.52L124.347 132.713C124.253 132.765 124.264 132.859 124.373 132.922L125.67 133.675C125.727 133.702 125.789 133.716 125.852 133.716C125.916 133.716 125.978 133.702 126.035 133.675L127.88 132.603C127.974 132.551 127.959 132.457 127.854 132.394L126.553 131.647C126.498 131.617 126.436 131.601 126.374 131.599C126.311 131.597 126.249 131.61 126.192 131.637ZM126.088 133.372C126.114 133.372 126.114 133.408 126.088 133.419L125.967 133.487C125.955 133.493 125.942 133.496 125.928 133.496C125.915 133.496 125.901 133.493 125.889 133.487L125.147 133.058C125.147 133.058 125.121 133.027 125.147 133.011L125.262 132.943C125.274 132.937 125.287 132.933 125.301 132.933C125.315 132.933 125.328 132.937 125.34 132.943L126.088 133.372ZM126.453 133.163C126.453 133.163 126.48 133.199 126.453 133.21L126.338 133.278C126.312 133.288 126.282 133.288 126.255 133.278L125.518 132.849C125.492 132.849 125.492 132.812 125.518 132.802L125.633 132.734C125.646 132.728 125.66 132.724 125.675 132.724C125.689 132.724 125.704 132.728 125.717 132.734L126.453 133.163ZM126.819 132.954C126.819 132.954 126.819 132.99 126.819 133.001L126.704 133.068C126.691 133.075 126.677 133.078 126.663 133.078C126.648 133.078 126.634 133.075 126.621 133.068L125.884 132.645C125.858 132.645 125.858 132.609 125.884 132.598L125.999 132.53C126.026 132.52 126.056 132.52 126.082 132.53L126.819 132.954ZM127.185 132.744V132.791L127.065 132.859C127.053 132.866 127.039 132.869 127.026 132.869C127.012 132.869 126.999 132.866 126.987 132.859L126.25 132.431C126.25 132.431 126.25 132.4 126.25 132.389L126.365 132.321C126.377 132.315 126.39 132.311 126.404 132.311C126.417 132.311 126.431 132.315 126.443 132.321L127.185 132.744ZM127.546 132.535C127.572 132.535 127.572 132.567 127.546 132.582L127.431 132.645C127.418 132.652 127.403 132.655 127.389 132.655C127.374 132.655 127.36 132.652 127.347 132.645L126.61 132.217V132.17L126.73 132.107C126.742 132.099 126.756 132.095 126.77 132.095C126.784 132.095 126.797 132.099 126.809 132.107L127.546 132.535Z" fill="#666666"/>
<path d="M138.269 124.618L137.281 125.192L137.072 124.67C137.057 124.647 137.036 124.629 137.011 124.618C136.986 124.607 136.958 124.603 136.931 124.607C136.863 124.607 136.827 124.644 136.842 124.686L137.046 125.208L136.168 125.093C136.105 125.093 136.043 125.093 136.037 125.14C136.032 125.187 136.084 125.219 136.147 125.224L137.03 125.344L136.043 125.914C135.996 125.94 136.001 125.987 136.043 126.013L137.773 127.011C137.799 127.025 137.829 127.033 137.859 127.033C137.889 127.033 137.918 127.025 137.945 127.011L140.171 125.726C140.213 125.699 140.208 125.658 140.171 125.626L138.436 124.628C138.411 124.613 138.383 124.605 138.354 124.603C138.325 124.601 138.296 124.606 138.269 124.618ZM139.92 125.663L137.83 126.86L136.262 125.966L138.353 124.769L139.92 125.663Z" fill="#666666"/>
<path d="M145.252 121.764C145.205 121.79 145.21 121.832 145.252 121.863L145.727 122.14L143.637 123.332L143.161 123.055C143.134 123.042 143.105 123.035 143.075 123.035C143.045 123.035 143.016 123.042 142.989 123.055C142.947 123.081 142.952 123.123 142.989 123.154L143.553 123.484C143.58 123.496 143.609 123.503 143.639 123.503C143.669 123.503 143.699 123.496 143.726 123.484L145.952 122.198C145.994 122.172 145.989 122.13 145.952 122.099L145.382 121.769C145.341 121.752 145.294 121.75 145.252 121.764ZM144.259 122.543C144.286 122.549 144.315 122.549 144.342 122.543C144.351 122.539 144.359 122.533 144.364 122.524C144.369 122.515 144.37 122.505 144.368 122.496L144.311 121.999C144.311 121.957 144.248 121.926 144.18 121.926C144.112 121.926 144.065 121.952 144.071 121.989L144.112 122.318L142.743 121.529C142.717 121.516 142.688 121.509 142.659 121.509C142.63 121.509 142.602 121.516 142.576 121.529C142.534 121.529 142.539 121.597 142.576 121.623L143.94 122.412H143.37C143.307 122.412 143.255 122.438 143.26 122.475C143.266 122.511 143.323 122.548 143.391 122.548L144.259 122.543Z" fill="#666666"/>
<path d="M132.458 128.407C132.315 128.334 132.164 128.278 132.008 128.239C131.858 128.202 131.703 128.184 131.548 128.187C131.397 128.192 131.246 128.213 131.099 128.25C130.949 128.291 130.805 128.351 130.67 128.428C130.572 128.484 130.485 128.558 130.414 128.647C130.356 128.72 130.322 128.81 130.315 128.903C130.317 129 130.346 129.094 130.399 129.175C130.473 129.281 130.569 129.37 130.681 129.436L130.775 129.494L130.911 129.577L131.052 129.656L131.156 129.713C131.303 129.784 131.457 129.838 131.616 129.875C131.769 129.907 131.925 129.921 132.081 129.917C132.23 129.917 132.377 129.898 132.52 129.859C132.652 129.83 132.779 129.781 132.897 129.713C132.978 129.666 133.055 129.612 133.127 129.551C133.178 129.506 133.223 129.455 133.263 129.4C133.314 129.317 133.336 129.219 133.325 129.123C133.325 129.123 133.325 129.096 133.299 129.086C133.275 129.078 133.25 129.078 133.226 129.086C133.204 129.079 133.18 129.079 133.158 129.086L133.048 129.149L133.017 129.18C133.018 129.194 133.018 129.208 133.017 129.222C133.019 129.251 133.019 129.281 133.017 129.311C133.003 129.342 132.984 129.37 132.959 129.394C132.931 129.426 132.899 129.456 132.865 129.483L132.703 129.588C132.616 129.636 132.523 129.675 132.426 129.703C132.203 129.752 131.971 129.752 131.747 129.703C131.622 129.675 131.501 129.633 131.386 129.577L131.277 129.525L131.146 129.452L131.026 129.379L130.932 129.316C130.846 129.26 130.772 129.189 130.712 129.107C130.672 129.047 130.652 128.975 130.655 128.903C130.661 128.834 130.688 128.768 130.733 128.715C130.787 128.649 130.852 128.594 130.926 128.553C131.128 128.434 131.356 128.368 131.59 128.36C131.836 128.359 132.078 128.418 132.296 128.532C132.371 128.566 132.444 128.604 132.515 128.647L132.641 128.725L132.698 128.767C132.713 128.782 132.726 128.8 132.735 128.819C132.738 128.828 132.74 128.837 132.74 128.846C132.74 128.855 132.738 128.864 132.735 128.872C132.725 128.895 132.706 128.914 132.682 128.924C132.633 128.951 132.576 128.962 132.52 128.955C132.457 128.949 132.396 128.927 132.343 128.893L131.747 128.553C131.723 128.545 131.698 128.545 131.674 128.553C131.651 128.547 131.628 128.547 131.606 128.553L131.527 128.595C131.523 128.601 131.521 128.608 131.521 128.616C131.521 128.623 131.523 128.63 131.527 128.637C131.527 128.637 131.527 128.663 131.559 128.678H131.585H131.371C131.3 128.685 131.232 128.708 131.172 128.746C131.118 128.774 131.074 128.818 131.047 128.872C131.036 128.894 131.031 128.918 131.031 128.942C131.031 128.967 131.036 128.991 131.047 129.013C131.073 129.069 131.11 129.119 131.156 129.159C131.215 129.216 131.282 129.263 131.355 129.3C131.431 129.346 131.512 129.384 131.595 129.415C131.678 129.445 131.764 129.466 131.851 129.478C131.933 129.488 132.016 129.488 132.097 129.478C132.174 129.467 132.248 129.442 132.317 129.405C132.358 129.382 132.397 129.354 132.432 129.321C132.453 129.303 132.469 129.28 132.479 129.253C132.486 129.233 132.486 129.211 132.479 129.191V129.133C132.543 129.143 132.608 129.143 132.672 129.133C132.75 129.122 132.824 129.095 132.891 129.055C132.933 129.032 132.97 129.002 133.001 128.966C133.025 128.936 133.038 128.899 133.038 128.861C133.035 128.817 133.019 128.775 132.991 128.741C132.95 128.691 132.901 128.648 132.844 128.616L132.787 128.584L132.703 128.532L132.594 128.469L132.458 128.407ZM132.186 129.123C132.223 129.175 132.186 129.227 132.108 129.274C132.068 129.297 132.023 129.31 131.977 129.311C131.876 129.322 131.775 129.304 131.684 129.258C131.638 129.244 131.594 129.223 131.554 129.196C131.514 129.176 131.477 129.151 131.444 129.123C131.414 129.099 131.387 129.071 131.365 129.039C131.355 129.01 131.355 128.979 131.365 128.95C131.37 128.934 131.379 128.918 131.391 128.906C131.403 128.893 131.417 128.883 131.433 128.877C131.473 128.852 131.518 128.836 131.564 128.83H131.7C131.75 128.84 131.799 128.856 131.846 128.877C131.899 128.896 131.95 128.92 131.998 128.95C132.072 128.993 132.136 129.052 132.186 129.123Z" fill="#666666"/>
<path d="M92.8748 147.033C93.3451 147.31 93.3974 147.723 92.9897 147.958C92.7365 148.073 92.4598 148.127 92.182 148.115C91.9042 148.103 91.633 148.026 91.3905 147.89C90.9149 147.618 90.8679 147.205 91.2755 146.97C91.5283 146.854 91.8048 146.8 92.0826 146.811C92.3605 146.822 92.6318 146.898 92.8748 147.033Z" fill="#34D399"/>
<path d="M98.8376 143.594C99.308 143.866 99.3603 144.279 98.9526 144.514C98.6998 144.63 98.4233 144.684 98.1455 144.673C97.8677 144.662 97.5963 144.586 97.3534 144.451C96.8778 144.174 96.8308 143.761 97.2384 143.526C97.4916 143.411 97.7683 143.357 98.0461 143.369C98.324 143.381 98.5951 143.458 98.8376 143.594Z" fill="#34D399"/>
<path d="M104.795 140.15C105.271 140.422 105.318 140.835 104.91 141.075C104.657 141.189 104.38 141.242 104.103 141.23C103.825 141.218 103.554 141.142 103.311 141.007C102.841 140.735 102.788 140.322 103.196 140.082C103.45 139.968 103.726 139.915 104.004 139.927C104.281 139.939 104.552 140.015 104.795 140.15Z" fill="#666666"/>
<path d="M110.759 136.711C111.234 136.988 111.281 137.401 110.874 137.636C110.621 137.751 110.344 137.805 110.066 137.793C109.788 137.781 109.517 137.704 109.274 137.568C108.804 137.296 108.752 136.884 109.16 136.648C109.412 136.533 109.689 136.478 109.967 136.489C110.244 136.5 110.516 136.576 110.759 136.711Z" fill="#34D399"/>
<path d="M116.738 133.267C117.213 133.539 117.26 133.952 116.853 134.187C116.6 134.303 116.323 134.357 116.046 134.346C115.768 134.335 115.496 134.259 115.253 134.124C114.783 133.847 114.731 133.434 115.139 133.199C115.392 133.084 115.668 133.03 115.946 133.042C116.224 133.054 116.495 133.131 116.738 133.267Z" fill="#666666"/>
<path d="M122.685 129.823C123.161 130.095 123.208 130.508 122.8 130.748C122.546 130.862 122.27 130.915 121.992 130.903C121.715 130.891 121.444 130.815 121.201 130.68C120.73 130.408 120.678 129.99 121.086 129.755C121.339 129.641 121.616 129.588 121.893 129.6C122.171 129.612 122.442 129.688 122.685 129.823Z" fill="#34D399"/>
<path d="M128.648 126.379C129.124 126.651 129.171 127.069 128.763 127.304C128.51 127.418 128.233 127.471 127.956 127.459C127.678 127.447 127.407 127.371 127.164 127.236C126.694 126.964 126.642 126.551 127.049 126.311C127.303 126.197 127.579 126.144 127.857 126.156C128.134 126.168 128.405 126.244 128.648 126.379Z" fill="#34D399"/>
<path d="M134.611 122.935C135.087 123.212 135.134 123.625 134.726 123.86C134.473 123.975 134.196 124.029 133.919 124.017C133.641 124.005 133.37 123.928 133.127 123.792C132.657 123.52 132.604 123.107 133.012 122.872C133.265 122.756 133.541 122.702 133.819 122.713C134.097 122.723 134.368 122.8 134.611 122.935Z" fill="#666666"/>
<path d="M140.574 119.496C141.05 119.768 141.097 120.181 140.689 120.416C140.437 120.532 140.16 120.586 139.882 120.575C139.605 120.564 139.333 120.488 139.09 120.353C138.615 120.076 138.568 119.663 138.975 119.428C139.228 119.313 139.505 119.259 139.783 119.271C140.061 119.283 140.332 119.36 140.574 119.496Z" fill="#666666"/>
<path d="M438.306 181.413L325.571 116.303C324.631 115.83 323.594 115.584 322.543 115.584C321.491 115.584 320.454 115.83 319.515 116.303L264.475 148.09C262.215 149.393 262.21 151.529 264.475 152.832L376.477 217.506C377.305 217.925 378.22 218.143 379.148 218.143C380.076 218.143 380.991 217.925 381.819 217.506L438.316 184.892C439.966 183.93 439.966 182.354 438.306 181.413Z" fill="black" fill-opacity="0.1"/>
<path d="M327.389 111.581L433.855 173.034C436.596 174.614 436.561 176.408 436.561 178.019C436.561 179.63 435.837 181.865 433.855 183.01L383.087 212.338C381.975 212.903 380.745 213.198 379.497 213.198C378.249 213.198 377.019 212.903 375.906 212.338L269.44 150.886C267.458 149.741 267.007 147.823 267.007 146.213C267.007 144.602 267.458 142.05 269.44 140.905L320.193 111.581C321.271 110.904 322.518 110.544 323.791 110.544C325.064 110.544 326.311 110.904 327.389 111.581Z" fill="#F5F5F5"/>
<path d="M324.762 113.797L272.562 143.938L379.499 205.658V213.201C378.248 213.225 377.011 212.928 375.906 212.339L269.44 150.886C267.458 149.741 267.007 147.823 267.007 146.213C267.007 144.602 267.458 142.05 269.44 140.905L320.193 111.581C321.553 110.74 323.164 110.402 324.747 110.625V113.797H324.762Z" fill="#CCCCCC"/>
<path d="M432.934 173.475L326.636 112.116C325.752 111.668 324.774 111.434 323.782 111.434C322.79 111.434 321.812 111.668 320.927 112.116L271.369 140.726C269.238 141.955 269.238 143.972 271.369 145.187L376.973 206.144C377.754 206.538 378.617 206.744 379.493 206.744C380.368 206.744 381.231 206.538 382.013 206.144L432.924 176.75C434.505 175.868 434.505 174.382 432.934 173.475Z" fill="white"/>
<path d="M301.57 164.197C301.974 164.45 302.313 164.794 302.56 165.202C302.806 165.61 302.952 166.071 302.987 166.546C303.003 166.706 302.975 166.867 302.906 167.012C302.837 167.158 302.73 167.281 302.595 167.369C302.427 167.463 301.783 167.865 301.604 167.949C301.438 168.018 301.257 168.044 301.078 168.023C300.9 168.002 300.729 167.935 300.583 167.83L291.911 162.82C291.507 162.568 291.168 162.224 290.922 161.817C290.675 161.41 290.529 160.95 290.493 160.475C290.479 160.321 290.504 160.165 290.568 160.024C290.631 159.882 290.73 159.759 290.855 159.668C291.029 159.559 291.698 159.172 291.876 159.073C292.041 159.001 292.223 158.974 292.402 158.994C292.581 159.014 292.752 159.08 292.897 159.187L301.57 164.197Z" fill="#818181"/>
<path d="M300.583 164.742L291.91 159.737C291.127 159.286 290.493 159.608 290.493 160.456C290.528 160.93 290.675 161.39 290.921 161.797C291.167 162.204 291.506 162.548 291.91 162.8L300.583 167.81C301.366 168.261 302 167.944 302 167.096C301.966 166.62 301.82 166.158 301.574 165.749C301.328 165.34 300.988 164.995 300.583 164.742Z" fill="#DCDCDC"/>
<path d="M286.39 155.406C286.793 155.659 287.131 156.004 287.376 156.412C287.621 156.82 287.767 157.28 287.802 157.755C287.819 157.915 287.791 158.076 287.722 158.221C287.653 158.366 287.545 158.489 287.411 158.577L286.42 159.157C286.254 159.228 286.072 159.254 285.893 159.233C285.714 159.212 285.544 159.145 285.399 159.038L276.721 154.033C276.318 153.78 275.98 153.435 275.734 153.027C275.489 152.619 275.343 152.159 275.309 151.684C275.293 151.53 275.318 151.374 275.381 151.233C275.443 151.091 275.541 150.968 275.665 150.876C275.839 150.767 276.508 150.38 276.686 150.281C276.852 150.209 277.033 150.182 277.212 150.202C277.391 150.222 277.562 150.289 277.707 150.395L286.39 155.406Z" fill="#818181"/>
<path d="M285.403 155.976L276.725 150.965C275.942 150.514 275.313 150.836 275.313 151.684C275.347 152.159 275.493 152.619 275.739 153.027C275.984 153.435 276.322 153.78 276.725 154.033L285.403 159.038C286.181 159.489 286.815 159.172 286.815 158.325C286.781 157.85 286.635 157.39 286.389 156.982C286.144 156.574 285.806 156.229 285.403 155.976Z" fill="#DCDCDC"/>
<path d="M328.985 115.714L428.052 172.915C429.539 173.782 429.539 175.194 428.052 176.062L381.997 202.655C381.153 203.085 380.219 203.309 379.272 203.309C378.324 203.309 377.39 203.085 376.546 202.655L276.76 145.038C275.541 144.334 275.303 143.274 276.071 142.436L276.255 142.243C276.409 142.113 276.575 141.997 276.75 141.896L289.715 134.413L290.557 133.917C290.818 133.783 291.108 133.713 291.402 133.713C291.696 133.713 291.986 133.783 292.247 133.917C292.52 134.049 292.82 134.114 293.123 134.108C293.426 134.102 293.724 134.025 293.991 133.882L309.092 125.165C309.588 124.878 309.617 124.427 309.156 124.174C308.695 123.921 308.661 123.52 309.067 123.247L309.151 123.193L321.823 115.878L322.091 115.719C323.16 115.181 324.34 114.9 325.537 114.899C326.734 114.898 327.915 115.177 328.985 115.714Z" fill="#B3B3B3"/>
<path d="M292.247 135.865C291.986 135.73 291.696 135.66 291.402 135.66C291.108 135.66 290.819 135.73 290.557 135.865L289.715 136.36L276.755 143.829C276.581 143.933 276.415 144.051 276.26 144.181L276.086 144.374L276.037 144.443C276.245 144.685 276.495 144.888 276.775 145.043L376.556 202.655C377.4 203.085 378.334 203.309 379.282 203.309C380.229 203.309 381.163 203.085 382.007 202.655L428.067 176.062C428.346 175.904 428.595 175.699 428.805 175.457C428.596 175.212 428.344 175.007 428.062 174.852L328.985 117.652C327.916 117.113 326.735 116.832 325.538 116.832C324.341 116.832 323.16 117.113 322.091 117.652L321.824 117.811L309.484 124.932V126.578C309.47 126.693 309.427 126.803 309.359 126.897C309.29 126.991 309.198 127.065 309.092 127.113L293.992 135.83C293.724 135.972 293.427 136.049 293.124 136.055C292.821 136.062 292.52 135.996 292.247 135.865Z" fill="white"/>
<path d="M293.431 130.929L300.37 126.934C300.592 126.815 300.84 126.75 301.092 126.745C301.344 126.74 301.594 126.795 301.822 126.905C302.208 127.128 302.188 127.504 301.772 127.742L294.834 131.737C294.611 131.855 294.364 131.919 294.111 131.924C293.859 131.929 293.609 131.875 293.382 131.766C293.01 131.543 293.03 131.167 293.431 130.929Z" fill="#818181"/>
<path d="M303.636 124.719C303.896 124.585 304.185 124.515 304.478 124.515C304.771 124.515 305.06 124.585 305.321 124.719C305.452 124.719 305.578 124.771 305.671 124.864C305.764 124.957 305.816 125.083 305.816 125.215C305.816 125.346 305.764 125.472 305.671 125.565C305.578 125.658 305.452 125.71 305.321 125.71C305.059 125.842 304.771 125.911 304.478 125.911C304.186 125.911 303.897 125.842 303.636 125.71C303.504 125.71 303.378 125.658 303.285 125.565C303.192 125.472 303.14 125.346 303.14 125.215C303.14 125.083 303.192 124.957 303.285 124.864C303.378 124.771 303.504 124.719 303.636 124.719Z" fill="#818181"/>
<g opacity="0.6">
<path d="M352.405 180.243C344.312 180.243 336.639 178.385 330.792 175.019C324.216 171.217 320.593 165.907 320.593 160.069C320.593 154.231 324.216 148.921 330.8 145.127C336.639 141.753 344.312 139.895 352.405 139.895C360.498 139.895 368.179 141.753 374.017 145.127C380.594 148.921 384.224 154.231 384.224 160.069C384.224 165.907 380.602 171.209 374.017 175.019C368.179 178.385 360.498 180.243 352.405 180.243ZM352.405 140.672C344.444 140.672 336.911 142.492 331.189 145.796C324.853 149.449 321.37 154.518 321.37 160.069C321.37 165.62 324.853 170.689 331.181 174.342C336.911 177.646 344.444 179.466 352.405 179.466C360.365 179.466 367.906 177.646 373.628 174.342C379.956 170.689 383.447 165.62 383.447 160.069C383.447 154.518 379.956 149.442 373.628 145.796C367.906 142.492 360.365 140.672 352.405 140.672Z" fill="#00DB90"/>
</g>
<path d="M352.405 175.967C367.613 175.967 379.941 168.849 379.941 160.069C379.941 151.289 367.613 144.171 352.405 144.171C337.197 144.171 324.869 151.289 324.869 160.069C324.869 168.849 337.197 175.967 352.405 175.967Z" fill="#006CE1"/>
<g opacity="0.15">
<path d="M370.796 139.859L357.807 132.356L346.314 185.195L359.309 192.699L370.796 139.859Z" fill="white"/>
<path d="M334.496 178.371L345.964 125.542L328.965 115.724C327.896 115.186 326.715 114.906 325.518 114.906C324.321 114.906 323.141 115.186 322.072 115.724L321.804 115.883L314.167 120.289L305.212 161.486L334.496 178.371Z" fill="white"/>
</g>
<path d="M336.572 169.223C336.564 159.25 347.55 150.128 361.191 148.783" stroke="white" stroke-width="2" stroke-linecap="round" stroke-linejoin="round"/>
<path d="M347.771 167.374C347.766 162.462 353.26 157.901 359.978 157.239" stroke="white" stroke-width="2" stroke-linecap="round" stroke-linejoin="round"/>
<path fill-rule="evenodd" clip-rule="evenodd" d="M363.853 165.788C363.855 167.268 362.215 168.63 360.191 168.829C358.167 169.029 356.525 167.991 356.524 166.511C356.523 165.031 358.162 163.67 360.186 163.47C362.21 163.271 363.852 164.309 363.853 165.788Z" fill="white"/>
<g filter="url(#filter0_f_571_24473)">
<ellipse cx="175.099" cy="147.228" rx="9.00988" ry="3.46534" fill="black" fill-opacity="0.15"/>
</g>
<g filter="url(#filter1_f_571_24473)">
<ellipse cx="191.099" cy="180.228" rx="9.00988" ry="3.46534" fill="black" fill-opacity="0.15"/>
</g>
<circle cx="19.1178" cy="19.1178" r="17.8678" transform="matrix(0.859406 -0.511293 0 1 173.596 99.5494)" fill="#FEFEFE" stroke="#006CE1" stroke-width="2.5" stroke-linecap="round" stroke-linejoin="round"/>
<path d="M157.202 132.549C162.038 124.045 168.134 117.189 174.418 112.618" stroke="#006CE1" stroke-width="2.5" stroke-linecap="round" stroke-linejoin="round"/>
<path d="M167.368 136.358C169.79 132.098 172.88 128.662 176.06 126.395" stroke="#006CE1" stroke-width="2.5" stroke-linecap="round" stroke-linejoin="round"/>
<path fill-rule="evenodd" clip-rule="evenodd" d="M180.752 143.969C179.068 146.931 176.337 148.556 174.653 147.598C172.969 146.64 172.969 143.463 174.653 140.501C176.337 137.539 179.068 135.914 180.752 136.872C182.437 137.83 182.437 141.008 180.752 143.969Z" fill="#006CE1"/>
<path d="M185.884 115.211C185.496 115.439 185.116 115.586 184.746 115.653C184.375 115.716 184.042 115.66 183.746 115.486C183.45 115.308 183.214 114.979 183.04 114.498C182.865 114.014 182.779 113.337 182.782 112.468C182.782 111.658 182.856 110.893 183.004 110.17C183.152 109.448 183.365 108.786 183.643 108.184C183.921 107.579 184.255 107.044 184.647 106.58C185.041 106.115 185.481 105.738 185.968 105.448C186.478 105.144 186.93 104.992 187.325 104.992C187.721 104.99 188.041 105.119 188.285 105.381C188.528 105.639 188.679 106.005 188.737 106.478L187.289 107.34C187.215 107.02 187.063 106.822 186.833 106.743C186.605 106.66 186.317 106.722 185.968 106.93C185.404 107.265 184.971 107.808 184.666 108.558C184.365 109.307 184.213 110.179 184.21 111.175L184.266 111.142C184.395 110.794 184.563 110.462 184.77 110.145C184.976 109.828 185.209 109.541 185.468 109.282C185.73 109.018 186.006 108.8 186.297 108.627C186.773 108.344 187.2 108.222 187.578 108.261C187.959 108.299 188.261 108.485 188.483 108.817C188.705 109.147 188.815 109.611 188.812 110.209C188.815 110.83 188.693 111.461 188.447 112.102C188.201 112.741 187.859 113.333 187.42 113.877C186.981 114.421 186.469 114.866 185.884 115.211ZM185.876 113.83C186.165 113.659 186.423 113.424 186.65 113.126C186.878 112.827 187.057 112.5 187.19 112.144C187.322 111.789 187.387 111.439 187.384 111.096C187.387 110.756 187.323 110.488 187.194 110.291C187.067 110.092 186.891 109.98 186.666 109.954C186.441 109.927 186.185 110 185.896 110.172C185.682 110.299 185.482 110.466 185.297 110.671C185.112 110.877 184.951 111.105 184.813 111.356C184.676 111.604 184.567 111.863 184.488 112.131C184.411 112.396 184.371 112.653 184.369 112.904C184.371 113.232 184.438 113.495 184.567 113.695C184.697 113.895 184.875 114.011 185.103 114.041C185.33 114.072 185.588 114.002 185.876 113.83ZM195.676 102.821C195.61 102.611 195.519 102.442 195.402 102.314C195.289 102.182 195.151 102.093 194.99 102.047C194.831 102 194.648 102.002 194.442 102.054C194.236 102.103 194.011 102.2 193.768 102.345C193.331 102.604 192.942 102.964 192.601 103.422C192.26 103.88 191.992 104.416 191.796 105.028C191.603 105.635 191.506 106.292 191.506 107C191.506 107.714 191.603 108.262 191.796 108.642C191.989 109.023 192.257 109.24 192.601 109.294C192.945 109.345 193.344 109.235 193.799 108.964C194.212 108.719 194.569 108.414 194.871 108.05C195.175 107.685 195.409 107.284 195.573 106.848C195.737 106.408 195.819 105.96 195.819 105.501L196.152 105.363L193.946 106.675V105.336L197.243 103.375V104.51C197.243 105.32 197.095 106.108 196.799 106.875C196.503 107.642 196.095 108.34 195.577 108.969C195.058 109.594 194.463 110.107 193.791 110.506C193.043 110.952 192.386 111.147 191.82 111.093C191.256 111.034 190.816 110.738 190.498 110.203C190.184 109.664 190.026 108.896 190.026 107.899C190.026 107.136 190.119 106.399 190.304 105.689C190.492 104.977 190.754 104.312 191.09 103.693C191.426 103.072 191.82 102.517 192.272 102.03C192.724 101.539 193.216 101.136 193.748 100.819C194.197 100.552 194.617 100.379 195.005 100.302C195.394 100.221 195.739 100.232 196.041 100.332C196.345 100.431 196.595 100.615 196.791 100.883C196.987 101.151 197.115 101.5 197.176 101.928L195.676 102.821Z" fill="black"/>
<circle cx="19.1178" cy="19.1178" r="17.8678" transform="matrix(0.859406 -0.511293 0 1 189.596 132.549)" fill="#FEFEFE" stroke="#006CE1" stroke-width="2.5" stroke-linecap="round" stroke-linejoin="round"/>
<path d="M173.202 165.549C178.038 157.045 184.134 150.189 190.418 145.618" stroke="#006CE1" stroke-width="2.5" stroke-linecap="round" stroke-linejoin="round"/>
<path d="M183.368 169.358C185.79 165.098 188.88 161.662 192.06 159.395" stroke="#006CE1" stroke-width="2.5" stroke-linecap="round" stroke-linejoin="round"/>
<path fill-rule="evenodd" clip-rule="evenodd" d="M196.752 176.969C195.068 179.931 192.337 181.556 190.653 180.598C188.969 179.64 188.969 176.463 190.653 173.501C192.337 170.539 195.068 168.914 196.752 169.872C198.437 170.83 198.437 174.008 196.752 176.969Z" fill="#006CE1"/>
<path d="M201.821 148.248C201.292 148.563 200.818 148.729 200.401 148.747C199.983 148.762 199.651 148.639 199.405 148.379C199.161 148.118 199.032 147.73 199.016 147.217L200.444 146.367C200.471 146.739 200.615 146.97 200.877 147.061C201.139 147.148 201.453 147.082 201.821 146.863C202.109 146.692 202.366 146.462 202.591 146.175C202.815 145.887 202.993 145.568 203.122 145.217C203.252 144.866 203.315 144.516 203.313 144.166C203.315 143.808 203.25 143.529 203.118 143.331C202.986 143.133 202.805 143.024 202.575 143.003C202.345 142.98 202.08 143.058 201.781 143.235C201.538 143.377 201.299 143.572 201.063 143.82C200.828 144.067 200.641 144.32 200.504 144.577L199.175 145.114L199.599 139.986L204.312 137.182V138.613L200.817 140.693L200.583 143.339L200.631 143.311C200.781 143.015 200.994 142.717 201.269 142.418C201.545 142.116 201.846 141.867 202.174 141.672C202.666 141.38 203.105 141.254 203.491 141.295C203.877 141.333 204.182 141.521 204.404 141.86C204.626 142.199 204.737 142.671 204.737 143.277C204.737 143.902 204.613 144.533 204.364 145.17C204.118 145.803 203.776 146.39 203.336 146.931C202.9 147.468 202.395 147.907 201.821 148.248ZM211.589 135.873C211.523 135.663 211.431 135.494 211.315 135.366C211.201 135.234 211.064 135.145 210.902 135.099C210.744 135.052 210.561 135.054 210.355 135.106C210.149 135.155 209.924 135.252 209.68 135.397C209.244 135.656 208.855 136.015 208.514 136.474C208.173 136.932 207.904 137.468 207.709 138.079C207.515 138.687 207.419 139.344 207.419 140.052C207.419 140.766 207.515 141.314 207.709 141.694C207.902 142.075 208.17 142.292 208.514 142.346C208.858 142.397 209.257 142.287 209.712 142.016C210.125 141.771 210.482 141.466 210.783 141.102C211.087 140.736 211.322 140.336 211.486 139.899C211.65 139.46 211.732 139.011 211.732 138.553L212.065 138.415L209.859 139.727V138.388L213.156 136.427V137.562C213.156 138.372 213.008 139.16 212.711 139.927C212.415 140.694 212.008 141.392 211.49 142.021C210.971 142.646 210.376 143.159 209.704 143.558C208.956 144.004 208.298 144.199 207.732 144.145C207.169 144.086 206.729 143.79 206.411 143.255C206.096 142.716 205.939 141.948 205.939 140.951C205.939 140.188 206.032 139.451 206.217 138.741C206.405 138.029 206.666 137.364 207.002 136.745C207.338 136.124 207.732 135.569 208.185 135.082C208.637 134.591 209.129 134.188 209.661 133.871C210.11 133.604 210.529 133.431 210.918 133.354C211.307 133.273 211.652 133.283 211.954 133.384C212.258 133.483 212.508 133.667 212.704 133.935C212.899 134.203 213.028 134.552 213.088 134.98L211.589 135.873Z" fill="black"/>
<g filter="url(#filter2_f_571_24473)">
<ellipse cx="211.485" cy="220.842" rx="9.00988" ry="3.46534" fill="black" fill-opacity="0.15"/>
</g>
<circle cx="18.891" cy="18.891" r="17.641" transform="matrix(0.866025 -0.5 0 1 208.517 173.891)" fill="#FEFEFE" stroke="#006CE1" stroke-width="2.5" stroke-linecap="round" stroke-linejoin="round"/>
<path d="M192.193 206.287C197.008 197.946 203.079 191.25 209.335 186.815" stroke="#006CE1" stroke-width="2.5" stroke-linecap="round" stroke-linejoin="round"/>
<path d="M202.316 210.182C204.728 206.005 207.805 202.649 210.971 200.45" stroke="#006CE1" stroke-width="2.5" stroke-linecap="round" stroke-linejoin="round"/>
<path fill-rule="evenodd" clip-rule="evenodd" d="M215.643 217.877C213.966 220.782 211.247 222.352 209.57 221.383C207.893 220.415 207.893 217.275 209.57 214.371C211.247 211.466 213.966 209.896 215.643 210.864C217.32 211.832 217.32 214.972 215.643 217.877Z" fill="#006CE1"/>
<path d="M217.859 191.164V189.927L220.701 185.068C220.973 184.594 221.2 184.182 221.381 183.831C221.562 183.48 221.698 183.163 221.789 182.88C221.88 182.597 221.925 182.324 221.925 182.063C221.925 181.764 221.866 181.543 221.749 181.398C221.632 181.25 221.47 181.177 221.265 181.179C221.06 181.18 220.827 181.256 220.566 181.407C220.296 181.563 220.06 181.763 219.858 182.01C219.655 182.253 219.498 182.524 219.386 182.822C219.277 183.119 219.222 183.429 219.222 183.752L217.811 184.567C217.811 183.967 217.93 183.377 218.167 182.797C218.404 182.217 218.73 181.685 219.146 181.202C219.565 180.717 220.044 180.318 220.586 180.006C221.135 179.689 221.617 179.529 222.033 179.526C222.449 179.523 222.771 179.661 223 179.941C223.232 180.22 223.348 180.624 223.348 181.153C223.348 181.507 223.289 181.889 223.172 182.298C223.055 182.707 222.848 183.205 222.553 183.792C222.259 184.376 221.848 185.117 221.317 186.014L219.906 188.487V188.551L223.472 186.492V187.923L217.859 191.164ZM230.417 177.479C230.35 177.268 230.258 177.098 230.141 176.968C230.026 176.835 229.888 176.744 229.725 176.696C229.565 176.647 229.381 176.647 229.173 176.696C228.965 176.742 228.739 176.836 228.494 176.978C228.054 177.232 227.662 177.586 227.318 178.039C226.974 178.493 226.704 179.025 226.507 179.634C226.312 180.239 226.215 180.896 226.215 181.603C226.215 182.317 226.312 182.866 226.507 183.249C226.701 183.632 226.972 183.853 227.318 183.912C227.665 183.967 228.067 183.862 228.526 183.598C228.941 183.358 229.301 183.058 229.605 182.697C229.911 182.336 230.147 181.938 230.313 181.504C230.478 181.067 230.56 180.619 230.56 180.161L230.896 180.027L228.673 181.31V179.971L231.996 178.053V179.189C231.996 179.998 231.847 180.785 231.548 181.548C231.249 182.311 230.839 183.004 230.317 183.625C229.794 184.244 229.195 184.749 228.518 185.14C227.763 185.575 227.101 185.762 226.531 185.7C225.963 185.634 225.519 185.332 225.199 184.793C224.882 184.25 224.723 183.48 224.723 182.483C224.723 181.72 224.817 180.984 225.003 180.276C225.193 179.567 225.456 178.905 225.795 178.291C226.133 177.674 226.531 177.125 226.986 176.643C227.442 176.158 227.938 175.761 228.474 175.452C228.927 175.19 229.349 175.023 229.741 174.951C230.133 174.876 230.481 174.89 230.784 174.995C231.091 175.098 231.343 175.285 231.54 175.556C231.737 175.827 231.867 176.177 231.928 176.606L230.417 177.479Z" fill="black"/>
<path d="M25.9814 52.7026C46.4435 21.475 79.1335 6.92047 99.2314 20.0897" stroke="#006CE1" stroke-width="6" stroke-linecap="round" stroke-linejoin="round"/>
<path d="M44.0078 61.1821C54.0861 45.8014 70.4312 38.5241 80.3301 45.0104" stroke="#006CE1" stroke-width="6" stroke-linecap="round" stroke-linejoin="round"/>
<path fill-rule="evenodd" clip-rule="evenodd" d="M67.7058 76.7098C64.6697 81.3432 59.7911 83.5153 56.8091 81.5613C53.8271 79.6073 53.8709 74.2672 56.9069 69.6338C59.943 65.0004 64.8216 62.8283 67.8036 64.7823C70.7856 66.7363 70.7418 72.0764 67.7058 76.7098Z" fill="#006CE1"/>
<defs>
<filter id="filter0_f_571_24473" x="164.089" y="141.762" width="22.0195" height="10.9307" filterUnits="userSpaceOnUse" color-interpolation-filters="sRGB">
<feFlood flood-opacity="0" result="BackgroundImageFix"/>
<feBlend mode="normal" in="SourceGraphic" in2="BackgroundImageFix" result="shape"/>
<feGaussianBlur stdDeviation="1" result="effect1_foregroundBlur_571_24473"/>
</filter>
<filter id="filter1_f_571_24473" x="180.089" y="174.762" width="22.0195" height="10.9307" filterUnits="userSpaceOnUse" color-interpolation-filters="sRGB">
<feFlood flood-opacity="0" result="BackgroundImageFix"/>
<feBlend mode="normal" in="SourceGraphic" in2="BackgroundImageFix" result="shape"/>
<feGaussianBlur stdDeviation="1" result="effect1_foregroundBlur_571_24473"/>
</filter>
<filter id="filter2_f_571_24473" x="200.475" y="215.376" width="22.0195" height="10.9307" filterUnits="userSpaceOnUse" color-interpolation-filters="sRGB">
<feFlood flood-opacity="0" result="BackgroundImageFix"/>
<feBlend mode="normal" in="SourceGraphic" in2="BackgroundImageFix" result="shape"/>
<feGaussianBlur stdDeviation="1" result="effect1_foregroundBlur_571_24473"/>
</filter>
</defs>
</svg>
