<svg width="440" height="280" viewBox="0 0 440 280" fill="none" xmlns="http://www.w3.org/2000/svg">
<g clip-path="url(#clip0_1355_11266)">
<path d="M-267.609 56.2076C-224.018 94.7028 -190.825 162.046 -129.152 176.105C-111.602 180.123 -93.7358 180.699 -76.0127 182.706C-9.85128 190.281 50.4734 222.65 115.529 233.733C144.651 238.725 172.83 235.725 200.335 229.69C251.075 218.585 292.273 190.776 328.384 158.057C397.1 95.8916 488.844 -7.7397 677.593 -35.1436C867.649 -62.7453 486.745 -314.263 486.745 -314.263L378.929 -440.331C-361.343 23.3592 -320.838 -1.68778 -345.125 12.4773C-316.405 19.7813 -290.074 36.3379 -267.609 56.2076Z" fill="url(#paint0_radial_1355_11266)"/>
<path opacity="0.4" d="M-299.109 53.2037C-299.795 53.6033 -300.482 54.0017 -301.21 54.4241L-228.602 96.2169C-228.601 96.2172 -228.601 96.2173 -228.601 96.2176C-217.985 105.589 -208.024 116.698 -198.149 128.256C-195.329 131.556 -192.518 134.891 -189.7 138.234C-182.629 146.623 -175.514 155.063 -168.11 163.137C-147.404 185.72 -124.717 205.112 -95.3452 211.795L-95.3438 211.795C-83.4601 214.511 -71.4803 215.576 -59.3864 216.65C-54.312 217.102 -49.2174 217.554 -44.1015 218.132L-44.0996 218.132C-11.9229 221.803 18.8014 231.498 49.2512 241.567C51.6262 242.352 53.9994 243.139 56.3715 243.927C84.4569 253.247 112.385 262.515 141.276 267.424L141.277 267.424C169.188 272.197 196.245 269.322 222.763 263.496L222.763 263.496C271.526 252.81 311.195 226.068 346.07 194.481L346.071 194.481C353.149 188.079 360.485 181.218 368.165 174.036C432.56 113.808 521.12 30.9794 684.729 7.17486C707.571 3.85043 721.527 -2.79502 728.759 -11.645C735.95 -20.4441 736.701 -31.6887 732.437 -44.7363C728.166 -57.8045 718.905 -72.5254 706.339 -88.0249C693.786 -103.51 677.993 -119.702 660.742 -135.707C626.241 -167.716 585.985 -198.905 554.339 -222.101C538.52 -233.696 524.858 -243.29 515.153 -249.983C510.3 -253.33 506.437 -255.952 503.788 -257.736C502.463 -258.628 501.442 -259.311 500.752 -259.771C500.407 -260 500.145 -260.174 499.97 -260.291L499.772 -260.422L499.722 -260.455L499.71 -260.463C499.708 -260.464 499.706 -260.465 500.475 -261.469L499.706 -260.465L499.54 -260.575L499.413 -260.723L395.971 -381.659C-265.029 32.3501 -281.815 43.1307 -299.109 53.2037Z" stroke="#E0F7FF" stroke-opacity="0.74" stroke-width="2.61586"/>
<g filter="url(#filter0_i_1355_11266)">
<path d="M446.893 -381.715C429.854 -350.469 392.22 -338.662 365.672 -316.386C329.063 -285.681 314.89 -237.786 294.239 -195.341C252.197 -108.842 167.01 -41.6588 57.0814 -47.9088C-10.2293 -51.7265 -83.8515 -70.0792 -147.717 -51.6292C-208.874 -33.9103 -276.81 4.26292 -346.456 -18.6468C-396.929 -35.2792 -339.17 -168.998 -336.939 -171.249C-334.708 -173.5 364.164 -520.447 364.164 -520.447C398.092 -477.237 405.385 -467.935 442.699 -420.4C450.145 -410.963 460.459 -406.617 446.893 -381.715Z" fill="url(#paint1_radial_1355_11266)" fill-opacity="0.6"/>
</g>
<path d="M322.514 -87.2233L322.514 -87.2236C327.255 -96.6875 331.669 -106.425 336.096 -116.194C336.516 -117.121 336.936 -118.048 337.357 -118.975C342.207 -129.668 347.112 -140.368 352.506 -150.719C363.294 -171.418 376.063 -190.775 394.359 -205.996C403.635 -213.717 414.27 -220.214 424.839 -226.672C429.345 -229.425 433.839 -232.17 438.21 -235C452.893 -244.505 466.311 -255.019 474.769 -270.13C481.549 -282.256 482.3 -289.132 480.688 -294.024C479.878 -296.48 478.451 -298.511 476.738 -300.522C476.048 -301.331 475.323 -302.125 474.575 -302.945C474.389 -303.149 474.201 -303.354 474.013 -303.562C473.071 -304.598 472.107 -305.679 471.185 -306.845L471.184 -306.847C458.443 -323.043 449.318 -334.645 441.402 -344.71C426.989 -363.035 416.583 -376.265 395.661 -402.855L394.407 -402.23L388.628 -399.35C383.567 -396.828 376.142 -393.127 366.692 -388.417C347.793 -378.997 320.791 -365.536 288.381 -349.377C223.562 -317.059 137.114 -273.945 50.5964 -230.761C-35.9213 -187.578 -122.508 -144.325 -187.604 -111.731C-220.152 -95.4332 -247.327 -81.8005 -266.433 -72.1732C-275.987 -67.3594 -283.522 -63.5476 -288.703 -60.905C-291.294 -59.5834 -293.294 -58.5554 -294.663 -57.841C-295.348 -57.4835 -295.871 -57.2065 -296.23 -57.0113C-296.41 -56.9133 -296.543 -56.8389 -296.632 -56.7869C-296.637 -56.7839 -296.642 -56.781 -296.647 -56.7782C-296.652 -56.7705 -296.658 -56.7618 -296.664 -56.7521C-296.713 -56.6744 -296.779 -56.5629 -296.862 -56.4137C-297.028 -56.1165 -297.245 -55.6981 -297.511 -55.1621C-298.042 -54.0916 -298.754 -52.5763 -299.607 -50.6735C-301.313 -46.8693 -303.576 -41.5321 -306.076 -35.1374C-311.078 -22.3459 -317.022 -5.34122 -321.354 12.0761C-325.69 29.5092 -328.393 47.2869 -326.961 61.6496C-325.526 76.044 -319.991 86.6758 -308.202 90.4239C-274.38 101.158 -240.75 97.1684 -207.96 88.2163C-191.566 83.7405 -175.409 78.032 -159.558 72.3187C-158.051 71.7756 -156.546 71.2323 -155.045 70.6901C-140.765 65.5333 -126.737 60.4676 -113.06 56.4255L-113.06 56.4253C-81.3935 47.0927 -47.4638 46.7523 -13.2442 49.1114C1.87539 50.1537 17.071 51.7249 32.1584 53.2848C34.1452 53.4902 36.13 53.6955 38.1125 53.8993C55.1594 55.6516 72.0405 57.2991 88.5384 58.0672C196.029 63.0867 280.273 -2.81703 322.514 -87.2233ZM-296.731 -56.7263C-296.731 -56.7263 -296.727 -56.7289 -296.72 -56.7337C-296.728 -56.7287 -296.731 -56.7263 -296.731 -56.7263Z" stroke="#4DC3E9" stroke-opacity="0.38" stroke-width="1.80553"/>
<mask id="mask0_1355_11266" style="mask-type:alpha" maskUnits="userSpaceOnUse" x="-20" y="-22" width="460" height="300">
<path d="M-20 -22H440V278H-20V-22Z" fill="url(#paint2_radial_1355_11266)"/>
</mask>
<g mask="url(#mask0_1355_11266)">
<g filter="url(#filter1_i_1355_11266)">
<path d="M305.999 34.0015C282.569 44.6301 254 82.5007 181.999 102.001C121.318 118.436 86.9995 101.78 14.9995 115.001C-57.0005 128.221 -128.803 215.016 -152 227.001C-199.081 251.343 -129.617 150.307 -176.079 177.341C-192.449 186.861 -205.334 200.967 -215.761 216.664C-248.159 265.548 -242.591 273.905 -254.865 304.179C-261.609 320.819 -270.981 338.186 -284.527 350.245C-289.734 354.895 -295.963 358.276 -300.813 363.333C-306.355 369.087 -309.183 377.881 -311.45 386.325C-311.942 388.175 -314.229 393.688 -313.518 395.461L-222.462 620.074C-222.462 620.074 362.414 316.501 388.499 316.501C389.883 318.085 450.999 170.305 450.999 170.305C424.253 169.204 365.857 6.83318 305.999 34.0015Z" fill="url(#paint3_linear_1355_11266)" fill-opacity="0.4"/>
</g>
<g filter="url(#filter2_i_1355_11266)">
<path d="M-73.0026 281C-59.4947 254.57 31.9978 186.232 61.9974 178C96.9442 168.409 183.646 133.145 213.498 117.5C250.469 98.1233 293.516 52.3495 331 34C357.692 20.934 411.145 15.3872 437.998 62.0004C478.048 131.601 474.998 264 474.998 264L146.543 356.269C146.543 356.269 51.0341 280.926 50.0259 271.402C49.0094 261.848 -73.0026 281 -73.0026 281Z" fill="url(#paint4_radial_1355_11266)"/>
</g>
<g filter="url(#filter3_i_1355_11266)">
<path d="M18.4982 151.001C-88.1272 211.608 -95.5018 220.001 -66.2808 263.655L21.9273 402.634C21.9273 402.634 84.0026 212.499 163 177.5C181.299 169.393 270.063 98.798 318.998 49.0012C333.878 33.8599 316 27.5 316 27.5C316 27.5 280.419 65.0983 229 94.0001C152.5 137 77.7913 117.288 18.4982 151.001Z" fill="url(#paint5_radial_1355_11266)" fill-opacity="0.7"/>
</g>
<path d="M309.5 33.5C270.5 66.5 215 106.5 137 116.5C70.0494 125.083 -9.99951 114 -52.9995 174.907C-95.9995 235.814 -51.0661 154.196 -73.9995 164.317C-120.541 184.878 -108.035 151.351 -153.595 174.907C-169.649 183.202 -181.472 196.901 -190.514 212.629C-218.596 261.62 -211.712 271.372 -220.908 302.678C-225.959 319.885 -233.686 337.556 -246.457 348.953C-251.364 353.349 -257.501 356.244 -261.984 361.127C-267.108 366.678 -269.003 375.864 -270.351 384.739C-270.642 386.684 -272.37 392.379 -271.405 394.389L-148.033 649.227L-52.9995 228C-52.9995 228 16.0005 159 178.001 127C216.534 119.388 269 72.1834 306 45.5" stroke="#4FF4FF" stroke-opacity="0.2" stroke-width="4"/>
<path d="M22.3003 342.936L22.3015 342.945L22.3027 342.953L20.3293 343.239C22.3027 342.953 22.3029 342.954 22.3031 342.955L22.3041 342.962L22.3082 342.991L22.3244 343.103L22.389 343.549C22.446 343.943 22.5309 344.527 22.6421 345.29C22.8644 346.817 23.192 349.057 23.6128 351.913C24.4545 357.626 25.6691 365.8 27.1607 375.648C30.144 395.344 34.2348 421.73 38.6657 448.494C43.0975 475.262 47.8661 502.388 52.2048 523.573C54.3749 534.169 56.4314 543.249 58.2786 550.044C59.2029 553.444 60.0656 556.237 60.8535 558.348C61.6752 560.549 62.3225 561.741 62.7231 562.189L62.7238 562.189C62.835 562.314 63.1287 562.558 63.7429 562.88C64.3352 563.191 65.1241 563.524 66.1225 563.87C68.1194 564.562 70.8046 565.26 74.1129 565.954C80.7212 567.341 89.6207 568.676 100.054 569.943C120.909 572.477 147.727 574.722 174.234 576.591C200.736 578.459 226.901 579.949 246.443 580.971C256.214 581.482 264.327 581.876 269.998 582.143C272.833 582.276 275.057 582.378 276.573 582.446C277.157 582.472 277.635 582.493 278.003 582.509L525.245 327.021C525.294 326.943 525.36 326.838 525.443 326.706C525.645 326.383 525.945 325.9 526.332 325.265C527.106 323.995 528.228 322.121 529.614 319.713C532.386 314.897 536.212 307.947 540.417 299.43C548.834 282.385 558.743 259.118 564.782 234.145C570.827 209.149 572.952 182.621 565.989 158.955C559.056 135.389 543.064 114.483 512.468 100.677C497.652 93.9994 483.495 87.0619 469.91 80.4054C464.351 77.6815 458.888 75.0046 453.516 72.4119C434.977 63.4656 417.485 55.5067 400.602 49.9298C366.947 38.8129 335.91 37.2176 304.146 56.1498C297.162 61.8705 289.502 68.7324 281.152 76.2122C279.725 77.49 278.279 78.7858 276.812 80.0971C266.73 89.1094 255.728 98.8199 243.87 108.289C220.195 127.193 193.01 145.218 162.714 154.877C154.501 158.585 146.535 161.731 138.722 164.815C108.986 176.556 81.4857 187.415 51.1681 225.024C34.6757 245.483 25.6347 262.6 21.6014 280.682C17.5614 298.793 18.501 318.063 22.3003 342.936Z" stroke="#4FF4FF" stroke-opacity="0.2" stroke-width="4"/>
<g style="mix-blend-mode:soft-light">
<path d="M286.5 63.5C282.5 67.4999 226.5 112 219.5 115" stroke="white" stroke-width="8" stroke-linecap="square"/>
</g>
<g style="mix-blend-mode:soft-light">
<path d="M276 61C269 67.5 226.246 98.4999 210 104" stroke="white" stroke-width="8" stroke-linecap="square"/>
</g>
<g style="mix-blend-mode:soft-light">
<path d="M262.5 60.5C250 70 223.5 87.5 203 95" stroke="white" stroke-width="8" stroke-linecap="square"/>
</g>
<g filter="url(#filter4_b_1355_11266)">
<path fill-rule="evenodd" clip-rule="evenodd" d="M179.457 80.7528C167.779 82.7596 155.128 84.9335 148.555 85.1446C148.555 85.1498 148.555 85.155 148.555 85.1602C148.509 85.1651 148.462 85.1707 148.416 85.177C144.523 85.7071 141.646 91.0623 140.098 99.3776C141.52 99.3486 142.882 99.1154 144.294 98.8341C145.781 93.954 147.971 90.9201 150.724 90.5452C155.783 89.8564 161.41 98.3265 165.426 111.327C166.817 116.04 167.954 121.321 168.718 126.937C169.71 134.218 170.47 140.349 170.761 145.869C170.978 161.749 167.709 173.472 162.12 174.233C160.075 174.511 157.938 173.294 155.852 170.886C154.68 171.803 153.428 172.667 152.185 173.33C154.875 177.477 157.709 179.908 160.425 180.058C160.425 180.058 160.425 180.059 160.424 180.059C160.424 180.059 160.426 180.059 160.429 180.059C160.559 180.066 160.687 180.068 160.816 180.064C161.726 180.077 163.982 180.106 164.997 180.091C170.259 180.015 182.014 174.091 191.5 168.5C201.701 162.487 208.626 157.545 215.859 152.383C216.733 151.759 217.611 151.132 218.5 150.5C226.749 144.633 233 139 240.642 131.047C248.284 123.095 245.059 111.242 239.5 93.9999C232.112 71.0836 230.635 71.3131 223.22 72.4656C223.147 72.4769 223.074 72.4883 223 72.4998C219.203 73.0888 214.79 74.0327 209.815 75.0965C203.908 76.3597 197.211 77.7919 189.817 78.9999C186.596 79.526 183.073 80.1314 179.457 80.7528Z" fill="#F4F7FF" fill-opacity="0.6"/>
</g>
<rect x="263.2" y="55" width="8" height="8" transform="rotate(52 263.2 55)" fill="white" fill-opacity="0.6"/>
<rect x="276.201" y="55.2" width="8" height="8" transform="rotate(48 276.201 55.2)" fill="white" fill-opacity="0.6"/>
<rect x="286.5" y="57.8" width="8" height="8" transform="rotate(45 286.5 57.8)" fill="white" fill-opacity="0.6"/>
</g>
<g filter="url(#filter5_f_1355_11266)">
<rect width="72.6692" height="35.1" rx="17.55" transform="matrix(-0.866025 0.5 -0.866025 -0.5 132.688 189.05)" fill="black" fill-opacity="0.2"/>
</g>
<rect width="64" height="32" rx="16" transform="matrix(-0.866025 0.5 -0.866025 -0.5 129.138 112)" fill="#E5E5E5" stroke="white"/>
<rect width="47.2" height="7.664" rx="3.832" transform="matrix(0.866025 -0.5 0.866025 0.5 64.647 129.515)" fill="white"/>
<path d="M121.022 113.115H120.522C120.522 115.985 118.503 118.678 115.032 120.682L87.3195 136.682C83.5871 138.837 78.6636 139.928 73.7131 139.928C68.7626 139.928 63.8391 138.837 60.1067 136.682C56.6361 134.678 54.6172 131.985 54.6172 129.115H54.1172H53.6172V186.314C53.6172 189.693 55.985 192.656 59.6067 194.747C63.5269 197.011 68.6336 198.128 73.7131 198.128C78.7927 198.128 83.8993 197.011 87.8195 194.747L115.532 178.747C119.154 176.656 121.522 173.693 121.522 170.314L121.522 113.115H121.022Z" fill="#DFDFDF"/>
<path d="M121.022 113.115H120.522C120.522 115.985 118.503 118.678 115.032 120.682L87.3195 136.682C83.5871 138.837 78.6636 139.928 73.7131 139.928C68.7626 139.928 63.8391 138.837 60.1067 136.682C56.6361 134.678 54.6172 131.985 54.6172 129.115H54.1172H53.6172V186.314C53.6172 189.693 55.985 192.656 59.6067 194.747C63.5269 197.011 68.6336 198.128 73.7131 198.128C78.7927 198.128 83.8993 197.011 87.8195 194.747L115.532 178.747C119.154 176.656 121.522 173.693 121.522 170.314L121.522 113.115H121.022Z" fill="url(#paint6_linear_1355_11266)" fill-opacity="0.2"/>
<path d="M121.022 113.115H120.522C120.522 115.985 118.503 118.678 115.032 120.682L87.3195 136.682C83.5871 138.837 78.6636 139.928 73.7131 139.928C68.7626 139.928 63.8391 138.837 60.1067 136.682C56.6361 134.678 54.6172 131.985 54.6172 129.115H54.1172H53.6172V186.314C53.6172 189.693 55.985 192.656 59.6067 194.747C63.5269 197.011 68.6336 198.128 73.7131 198.128C78.7927 198.128 83.8993 197.011 87.8195 194.747L115.532 178.747C119.154 176.656 121.522 173.693 121.522 170.314L121.522 113.115H121.022Z" stroke="white"/>
<path d="M121.521 172.875H121.021H120.521C120.521 173.083 120.427 173.429 120.181 173.896C119.941 174.351 119.579 174.878 119.101 175.438C118.146 176.556 116.755 177.772 115.032 178.767L87.319 194.767C83.5866 196.922 78.6631 198.014 73.7126 198.014C68.7621 198.014 63.8387 196.922 60.1062 194.767C58.3852 193.773 56.9925 192.536 56.0341 191.433C55.5548 190.881 55.1904 190.37 54.949 189.947C54.6939 189.501 54.6167 189.222 54.6167 189.115H54.1167H53.6167V202.799C53.6167 206.178 55.9845 209.141 59.6062 211.232C63.5265 213.496 68.6331 214.613 73.7126 214.613C78.7922 214.613 83.8988 213.496 87.819 211.232L115.532 195.232C119.154 193.141 121.521 190.178 121.521 186.8L121.521 172.875Z" fill="#DFDFDF" stroke="white"/>
<path d="M104.351 195.501L106.861 193.933C107.49 193.495 107.579 192.715 107.579 192.715C107.602 192.511 107.583 192.368 107.583 192.368C107.565 192.208 107.364 191.817 106.935 192.036C106.68 192.166 104.391 193.432 104.391 193.432C104.459 193.676 104.55 193.705 104.619 193.741C104.777 193.827 105.015 193.723 105.015 193.723C105.074 193.692 106.787 192.795 106.787 192.795C106.842 192.764 106.952 192.702 106.952 192.864C106.952 192.913 106.931 192.977 106.906 193.02C106.906 193.02 106.846 193.098 106.79 193.133L104.352 194.656L104.351 195.501ZM97.4231 199.823L100.704 197.773C101.275 197.277 101.335 196.61 101.335 196.61C101.362 196.406 101.346 196.265 101.346 196.265C101.329 196.15 101.131 195.716 100.702 195.936C100.447 196.066 98.1708 197.269 98.1708 197.269C98.2147 197.519 98.3172 197.594 98.3855 197.632C98.5436 197.717 98.7949 197.612 98.7949 197.612C98.8557 197.581 100.549 196.693 100.549 196.693C100.603 196.663 100.705 196.616 100.704 196.779C100.704 196.798 100.689 196.95 100.559 197.031L98.1048 198.565V197.304L97.4231 197.669V199.823ZM104.345 193.459L103.656 193.839V194.82C103.656 194.82 103.654 195.104 103.429 195.244L102.245 195.984C102.245 195.984 102.045 196.089 102.045 195.83V194.714L101.348 195.088V196.591C101.461 197.242 101.998 196.962 101.998 196.962C101.998 196.962 102.053 196.933 102.061 196.928L103.661 195.929C103.661 195.929 104.345 195.434 104.345 194.637V193.459ZM103.645 193.593L104.345 193.155V192.309L103.645 192.747V193.593ZM101.342 195.032L102.043 194.593V193.748L101.342 194.186V195.032ZM107.598 191.122V190.272L105.088 191.84C104.77 192.064 104.629 192.336 104.525 192.535C104.413 192.746 104.351 193.083 104.351 193.083V193.151L107.598 191.122ZM101.219 195.108V194.258L98.873 195.724C98.5539 195.948 98.4145 196.22 98.3097 196.419C98.1984 196.629 98.1347 196.967 98.1347 196.967V196.191L96.8893 196.97C96.7953 197.028 96.7059 197.132 96.6385 197.288C96.5679 197.445 96.2825 198.192 96.2825 198.192L101.219 195.108ZM96.2544 198.262L95.0474 201.307L95.8727 200.792L97.0329 197.875L96.2544 198.262Z" fill="#939393"/>
<path d="M104.351 195.501L106.861 193.933C107.49 193.495 107.579 192.715 107.579 192.715C107.602 192.511 107.583 192.368 107.583 192.368C107.565 192.208 107.364 191.817 106.935 192.036C106.68 192.166 104.391 193.432 104.391 193.432C104.459 193.676 104.55 193.705 104.619 193.741C104.777 193.827 105.015 193.723 105.015 193.723C105.074 193.692 106.787 192.795 106.787 192.795C106.842 192.764 106.952 192.702 106.952 192.864C106.952 192.913 106.931 192.977 106.906 193.02C106.906 193.02 106.846 193.098 106.79 193.133L104.352 194.656L104.351 195.501ZM97.4231 199.823L100.704 197.773C101.275 197.277 101.335 196.61 101.335 196.61C101.362 196.406 101.346 196.265 101.346 196.265C101.329 196.15 101.131 195.716 100.702 195.936C100.447 196.066 98.1708 197.269 98.1708 197.269C98.2147 197.519 98.3172 197.594 98.3855 197.632C98.5436 197.717 98.7949 197.612 98.7949 197.612C98.8557 197.581 100.549 196.693 100.549 196.693C100.603 196.663 100.705 196.616 100.704 196.779C100.704 196.798 100.689 196.95 100.559 197.031L98.1048 198.565V197.304L97.4231 197.669V199.823ZM104.345 193.459L103.656 193.839V194.82C103.656 194.82 103.654 195.104 103.429 195.244L102.245 195.984C102.245 195.984 102.045 196.089 102.045 195.83V194.714L101.348 195.088V196.591C101.461 197.242 101.998 196.962 101.998 196.962C101.998 196.962 102.053 196.933 102.061 196.928L103.661 195.929C103.661 195.929 104.345 195.434 104.345 194.637V193.459ZM103.645 193.593L104.345 193.155V192.309L103.645 192.747V193.593ZM101.342 195.032L102.043 194.593V193.748L101.342 194.186V195.032ZM107.598 191.122V190.272L105.088 191.84C104.77 192.064 104.629 192.336 104.525 192.535C104.413 192.746 104.351 193.083 104.351 193.083V193.151L107.598 191.122ZM101.219 195.108V194.258L98.873 195.724C98.5539 195.948 98.4145 196.22 98.3097 196.419C98.1984 196.629 98.1347 196.967 98.1347 196.967V196.191L96.8893 196.97C96.7953 197.028 96.7059 197.132 96.6385 197.288C96.5679 197.445 96.2825 198.192 96.2825 198.192L101.219 195.108ZM96.2544 198.262L95.0474 201.307L95.8727 200.792L97.0329 197.875L96.2544 198.262Z" fill="black" fill-opacity="0.2"/>
<path d="M104.351 195.501L106.861 193.933C107.49 193.495 107.579 192.715 107.579 192.715C107.602 192.511 107.583 192.368 107.583 192.368C107.565 192.208 107.364 191.817 106.935 192.036C106.68 192.166 104.391 193.432 104.391 193.432C104.459 193.676 104.55 193.705 104.619 193.741C104.777 193.827 105.015 193.723 105.015 193.723C105.074 193.692 106.787 192.795 106.787 192.795C106.842 192.764 106.952 192.702 106.952 192.864C106.952 192.913 106.931 192.977 106.906 193.02C106.906 193.02 106.846 193.098 106.79 193.133L104.352 194.656L104.351 195.501ZM97.4231 199.823L100.704 197.773C101.275 197.277 101.335 196.61 101.335 196.61C101.362 196.406 101.346 196.265 101.346 196.265C101.329 196.15 101.131 195.716 100.702 195.936C100.447 196.066 98.1708 197.269 98.1708 197.269C98.2147 197.519 98.3172 197.594 98.3855 197.632C98.5436 197.717 98.7949 197.612 98.7949 197.612C98.8557 197.581 100.549 196.693 100.549 196.693C100.603 196.663 100.705 196.616 100.704 196.779C100.704 196.798 100.689 196.95 100.559 197.031L98.1048 198.565V197.304L97.4231 197.669V199.823ZM104.345 193.459L103.656 193.839V194.82C103.656 194.82 103.654 195.104 103.429 195.244L102.245 195.984C102.245 195.984 102.045 196.089 102.045 195.83V194.714L101.348 195.088V196.591C101.461 197.242 101.998 196.962 101.998 196.962C101.998 196.962 102.053 196.933 102.061 196.928L103.661 195.929C103.661 195.929 104.345 195.434 104.345 194.637V193.459ZM103.645 193.593L104.345 193.155V192.309L103.645 192.747V193.593ZM101.342 195.032L102.043 194.593V193.748L101.342 194.186V195.032ZM107.598 191.122V190.272L105.088 191.84C104.77 192.064 104.629 192.336 104.525 192.535C104.413 192.746 104.351 193.083 104.351 193.083V193.151L107.598 191.122ZM101.219 195.108V194.258L98.873 195.724C98.5539 195.948 98.4145 196.22 98.3097 196.419C98.1984 196.629 98.1347 196.967 98.1347 196.967V196.191L96.8893 196.97C96.7953 197.028 96.7059 197.132 96.6385 197.288C96.5679 197.445 96.2825 198.192 96.2825 198.192L101.219 195.108ZM96.2544 198.262L95.0474 201.307L95.8727 200.792L97.0329 197.875L96.2544 198.262Z" fill="black" fill-opacity="0.2"/>
<path d="M100.866 200.6C100.866 200.931 101.099 201.066 101.386 200.9L105.004 198.811C105.291 198.645 105.524 198.242 105.524 197.911V197.911C105.524 197.58 105.291 197.445 105.004 197.611L101.386 199.7C101.099 199.866 100.866 200.269 100.866 200.6V200.6Z" fill="#00ED7B"/>
<path d="M64.2529 99.0645C77.2177 79.2786 97.9301 70.0569 110.664 78.4009" stroke="#006CE1" stroke-width="4" stroke-linecap="round" stroke-linejoin="round"/>
<path d="M75.6748 104.437C82.0604 94.692 92.4166 90.0811 98.6886 94.1909" stroke="#006CE1" stroke-width="4" stroke-linecap="round" stroke-linejoin="round"/>
<path fill-rule="evenodd" clip-rule="evenodd" d="M90.6895 114.275C88.7658 117.211 85.6747 118.587 83.7853 117.349C81.8959 116.111 81.9237 112.728 83.8473 109.792C85.771 106.856 88.8621 105.48 90.7515 106.718C92.6409 107.956 92.6131 111.34 90.6895 114.275Z" fill="#006CE1"/>
<g filter="url(#filter6_f_1355_11266)">
<path d="M396.505 64.6909L312.686 16.2817C311.988 15.9302 311.217 15.7471 310.435 15.7471C309.653 15.7471 308.882 15.9302 308.183 16.2817L267.262 39.9152C265.581 40.8842 265.578 42.4723 267.262 43.4414L350.535 91.5263C351.151 91.8378 351.831 92.0001 352.521 92.0001C353.211 92.0001 353.891 91.8378 354.507 91.5263L396.512 67.2775C397.739 66.5627 397.739 65.391 396.505 64.6909Z" fill="black" fill-opacity="0.2"/>
</g>
<path d="M314.038 12.7711L393.196 58.4609C395.233 59.6364 395.208 60.9702 395.208 62.1677C395.208 63.3652 394.67 65.027 393.196 65.8782L355.45 87.6841C354.623 88.1041 353.708 88.3231 352.78 88.3231C351.853 88.3231 350.938 88.1041 350.111 87.6841L270.953 41.9942C269.479 41.143 269.144 39.717 269.144 38.5195C269.144 37.322 269.479 35.4244 270.953 34.5732L308.688 12.7711C309.489 12.2673 310.416 12 311.363 12C312.309 12 313.237 12.2673 314.038 12.7711Z" fill="#F5F5F5"/>
<path d="M312.085 14.4186L273.275 36.8287L352.782 82.7176V88.3256C351.852 88.3437 350.932 88.123 350.111 87.6845L270.953 41.9946C269.479 41.1435 269.144 39.7175 269.144 38.52C269.144 37.3225 269.479 35.4249 270.953 34.5737L308.688 12.7715C309.699 12.1459 310.897 11.8943 312.074 12.0604V14.4186H312.085Z" fill="#CCCCCC"/>
<path d="M392.511 58.7889L313.478 13.169C312.821 12.8356 312.094 12.6619 311.356 12.6619C310.619 12.6619 309.892 12.8356 309.234 13.169L272.387 34.4406C270.803 35.3544 270.803 36.8541 272.387 37.7568L350.904 83.0783C351.485 83.3717 352.126 83.5245 352.777 83.5245C353.428 83.5245 354.07 83.3717 354.651 83.0783L392.504 61.2245C393.679 60.5686 393.679 59.4632 392.511 58.7889Z" fill="white"/>
<path d="M294.842 51.8912C295.142 52.0788 295.395 52.3347 295.578 52.6382C295.761 52.9417 295.87 53.2842 295.896 53.6377C295.908 53.7565 295.887 53.8764 295.836 53.9843C295.784 54.0921 295.704 54.1838 295.604 54.2494C295.479 54.3194 295 54.6178 294.868 54.6805C294.744 54.732 294.609 54.7509 294.476 54.7354C294.344 54.7199 294.217 54.6705 294.109 54.592L287.66 50.8668C287.36 50.6796 287.108 50.4242 286.925 50.1214C286.742 49.8186 286.633 49.4769 286.607 49.124C286.596 49.0092 286.615 48.8935 286.662 48.7882C286.709 48.6829 286.783 48.5917 286.875 48.5234C287.004 48.4423 287.502 48.1549 287.635 48.0812C287.757 48.0278 287.892 48.0074 288.025 48.0223C288.159 48.0372 288.286 48.0867 288.394 48.166L294.842 51.8912Z" fill="#818181"/>
<path d="M294.107 52.2965L287.659 48.575C287.077 48.2397 286.605 48.4792 286.605 49.1092C286.632 49.4621 286.741 49.8038 286.924 50.1066C287.107 50.4094 287.359 50.6648 287.659 50.8521L294.107 54.5773C294.69 54.9126 295.161 54.6768 295.161 54.0467C295.136 53.6925 295.027 53.3493 294.844 53.0452C294.661 52.741 294.409 52.4844 294.107 52.2965Z" fill="#DCDCDC"/>
<path d="M283.555 45.3546C283.855 45.543 284.106 45.7993 284.288 46.1027C284.471 46.406 284.579 46.748 284.605 47.1011C284.617 47.2199 284.597 47.3398 284.545 47.4477C284.494 47.5555 284.414 47.6472 284.314 47.7127L283.577 48.1438C283.454 48.1964 283.319 48.2159 283.186 48.2004C283.053 48.1849 282.926 48.1349 282.818 48.0554L276.366 44.3339C276.067 44.1457 275.815 43.8895 275.633 43.586C275.45 43.2826 275.342 42.9405 275.316 42.5874C275.305 42.4729 275.323 42.3574 275.37 42.2522C275.416 42.1469 275.489 42.0555 275.582 41.9868C275.71 41.9057 276.208 41.6183 276.341 41.5446C276.463 41.4911 276.598 41.4708 276.731 41.4857C276.865 41.5006 276.992 41.5501 277.1 41.6294L283.555 45.3546Z" fill="#818181"/>
<path d="M282.822 45.7784L276.37 42.0532C275.788 41.7179 275.32 41.9574 275.32 42.5875C275.345 42.9406 275.454 43.2828 275.636 43.5862C275.819 43.8896 276.07 44.1458 276.37 44.334L282.822 48.0556C283.4 48.3909 283.872 48.155 283.872 47.525C283.846 47.1719 283.737 46.8299 283.555 46.5265C283.373 46.2232 283.121 45.9669 282.822 45.7784Z" fill="#DCDCDC"/>
<path d="M315.224 15.8441L388.881 58.3725C389.986 59.0173 389.986 60.0675 388.881 60.7123L354.639 80.4842C354.012 80.8042 353.317 80.971 352.613 80.971C351.908 80.971 351.214 80.8042 350.586 80.4842L276.395 37.6462C275.489 37.123 275.312 36.3345 275.883 35.7118L276.02 35.5681C276.135 35.4715 276.258 35.3851 276.388 35.3102L286.027 29.7463L286.654 29.3778C286.848 29.278 287.063 29.2259 287.282 29.2259C287.5 29.2259 287.716 29.278 287.91 29.3778C288.113 29.4755 288.336 29.5241 288.562 29.5196C288.787 29.5152 289.008 29.4577 289.207 29.3521L300.434 22.8707C300.803 22.657 300.825 22.3217 300.482 22.1338C300.139 21.9459 300.114 21.6474 300.416 21.4448L300.478 21.4042L309.9 15.9657L310.099 15.8477C310.894 15.4473 311.771 15.2384 312.661 15.2378C313.551 15.2372 314.429 15.4448 315.224 15.8441Z" fill="#B3B3B3"/>
<path d="M287.91 30.8261C287.716 30.7262 287.5 30.6741 287.282 30.6741C287.063 30.6741 286.848 30.7262 286.653 30.8261L286.027 31.1946L276.392 36.7474C276.262 36.8248 276.139 36.9123 276.023 37.009L275.894 37.1527L275.857 37.2043C276.013 37.3842 276.199 37.5351 276.406 37.6501L350.594 80.4844C351.221 80.8044 351.916 80.9712 352.62 80.9712C353.325 80.9712 354.019 80.8044 354.647 80.4844L388.892 60.7125C389.099 60.595 389.285 60.443 389.441 60.2629C389.285 60.081 389.098 59.9286 388.888 59.8134L315.224 17.285C314.43 16.8843 313.552 16.6755 312.662 16.6755C311.772 16.6755 310.894 16.8843 310.099 17.285L309.9 17.4029L300.725 22.6977V23.9211C300.715 24.007 300.684 24.0889 300.632 24.1586C300.581 24.2284 300.513 24.2837 300.434 24.319L289.207 30.8003C289.008 30.906 288.787 30.9634 288.562 30.9679C288.336 30.9724 288.113 30.9238 287.91 30.8261Z" fill="white"/>
<path d="M288.791 27.156L293.95 24.1862C294.115 24.0977 294.299 24.0495 294.487 24.0457C294.674 24.0418 294.86 24.0824 295.029 24.1641C295.317 24.3299 295.302 24.6099 294.992 24.7868L289.834 27.7566C289.668 27.8443 289.484 27.892 289.297 27.8959C289.109 27.8997 288.923 27.8596 288.754 27.7787C288.478 27.6129 288.493 27.3329 288.791 27.156Z" fill="#818181"/>
<path d="M296.378 22.5392C296.571 22.4393 296.786 22.3872 297.004 22.3872C297.222 22.3872 297.437 22.4393 297.631 22.5392C297.728 22.5392 297.822 22.578 297.891 22.6471C297.96 22.7162 297.999 22.8099 297.999 22.9076C297.999 23.0054 297.96 23.0991 297.891 23.1682C297.822 23.2373 297.728 23.2761 297.631 23.2761C297.436 23.3742 297.222 23.4254 297.004 23.4254C296.787 23.4254 296.572 23.3742 296.378 23.2761C296.28 23.2761 296.186 23.2373 296.117 23.1682C296.048 23.0991 296.009 23.0054 296.009 22.9076C296.009 22.8099 296.048 22.7162 296.117 22.6471C296.186 22.578 296.28 22.5392 296.378 22.5392Z" fill="#818181"/>
<g opacity="0.6">
<path d="M332.637 63.8213C326.62 63.8213 320.915 62.4398 316.568 59.937C311.678 57.1106 308.985 53.1628 308.985 48.8219C308.985 44.481 311.678 40.5332 316.574 37.7125C320.915 35.204 326.62 33.8225 332.637 33.8225C338.654 33.8225 344.365 35.204 348.706 37.7125C353.596 40.5332 356.295 44.481 356.295 48.8219C356.295 53.1628 353.602 57.1048 348.706 59.937C344.365 62.4398 338.654 63.8213 332.637 63.8213ZM332.637 34.4005C326.718 34.4005 321.117 35.7531 316.863 38.2096C312.152 40.9263 309.563 44.6949 309.563 48.8219C309.563 52.9489 312.152 56.7175 316.857 59.4342C321.117 61.8907 326.718 63.2433 332.637 63.2433C338.556 63.2433 344.163 61.8907 348.417 59.4342C353.122 56.7175 355.717 52.9489 355.717 48.8219C355.717 44.6949 353.122 40.9205 348.417 38.2096C344.163 35.7531 338.556 34.4005 332.637 34.4005Z" fill="#00DB90"/>
</g>
<path d="M332.637 60.6421C343.944 60.6421 353.11 55.35 353.11 48.8218C353.11 42.2936 343.944 37.0015 332.637 37.0015C321.33 37.0015 312.164 42.2936 312.164 48.8218C312.164 55.35 321.33 60.6421 332.637 60.6421Z" fill="#006CE1"/>
<g opacity="0.15">
<path d="M346.312 33.7959L336.654 28.2173L328.109 67.5032L337.771 73.0818L346.312 33.7959Z" fill="white"/>
<path d="M319.322 62.4292L327.848 23.1506L315.21 15.8513C314.415 15.4514 313.537 15.2432 312.647 15.2432C311.757 15.2432 310.88 15.4514 310.085 15.8513L309.886 15.9692L304.208 19.2449L297.549 49.8755L319.322 62.4292Z" fill="white"/>
</g>
<path d="M320.866 55.6277C320.859 48.2128 329.028 41.4306 339.17 40.4307" stroke="white" stroke-width="2" stroke-linecap="round" stroke-linejoin="round"/>
<path d="M329.191 54.2534C329.188 50.6013 333.273 47.2102 338.268 46.7177" stroke="white" stroke-width="2" stroke-linecap="round" stroke-linejoin="round"/>
<path fill-rule="evenodd" clip-rule="evenodd" d="M341.149 53.0742C341.15 54.1743 339.931 55.1865 338.426 55.3349C336.922 55.4832 335.701 54.7116 335.7 53.6114C335.699 52.5113 336.918 51.4991 338.423 51.3507C339.928 51.2024 341.148 51.974 341.149 53.0742Z" fill="white"/>
</g>
<defs>
<filter id="filter0_i_1355_11266" x="-367.082" y="-520.447" width="820.59" height="510.725" filterUnits="userSpaceOnUse" color-interpolation-filters="sRGB">
<feFlood flood-opacity="0" result="BackgroundImageFix"/>
<feBlend mode="normal" in="SourceGraphic" in2="BackgroundImageFix" result="shape"/>
<feColorMatrix in="SourceAlpha" type="matrix" values="0 0 0 0 0 0 0 0 0 0 0 0 0 0 0 0 0 0 127 0" result="hardAlpha"/>
<feOffset dy="1.80553"/>
<feGaussianBlur stdDeviation="37.0134"/>
<feComposite in2="hardAlpha" operator="arithmetic" k2="-1" k3="1"/>
<feColorMatrix type="matrix" values="0 0 0 0 0.541667 0 0 0 0 0.89 0 0 0 0 1 0 0 0 1 0"/>
<feBlend mode="normal" in2="shape" result="effect1_innerShadow_1355_11266"/>
</filter>
<filter id="filter1_i_1355_11266" x="-313.654" y="30.9368" width="764.653" height="591.229" filterUnits="userSpaceOnUse" color-interpolation-filters="sRGB">
<feFlood flood-opacity="0" result="BackgroundImageFix"/>
<feBlend mode="normal" in="SourceGraphic" in2="BackgroundImageFix" result="shape"/>
<feColorMatrix in="SourceAlpha" type="matrix" values="0 0 0 0 0 0 0 0 0 0 0 0 0 0 0 0 0 0 127 0" result="hardAlpha"/>
<feOffset dy="2.09269"/>
<feGaussianBlur stdDeviation="65.3965"/>
<feComposite in2="hardAlpha" operator="arithmetic" k2="-1" k3="1"/>
<feColorMatrix type="matrix" values="0 0 0 0 0 0 0 0 0 0.396863 0 0 0 0 0.992157 0 0 0 0.72 0"/>
<feBlend mode="normal" in2="shape" result="effect1_innerShadow_1355_11266"/>
</filter>
<filter id="filter2_i_1355_11266" x="-73.0024" y="24.7869" width="548.054" height="345.702" filterUnits="userSpaceOnUse" color-interpolation-filters="sRGB">
<feFlood flood-opacity="0" result="BackgroundImageFix"/>
<feBlend mode="normal" in="SourceGraphic" in2="BackgroundImageFix" result="shape"/>
<feColorMatrix in="SourceAlpha" type="matrix" values="0 0 0 0 0 0 0 0 0 0 0 0 0 0 0 0 0 0 127 0" result="hardAlpha"/>
<feOffset dy="14.2198"/>
<feGaussianBlur stdDeviation="25"/>
<feComposite in2="hardAlpha" operator="arithmetic" k2="-1" k3="1"/>
<feColorMatrix type="matrix" values="0 0 0 0 1 0 0 0 0 1 0 0 0 0 1 0 0 0 0.7 0"/>
<feBlend mode="normal" in2="shape" result="effect1_innerShadow_1355_11266"/>
</filter>
<filter id="filter3_i_1355_11266" x="-81.043" y="27.5" width="405.958" height="389.354" filterUnits="userSpaceOnUse" color-interpolation-filters="sRGB">
<feFlood flood-opacity="0" result="BackgroundImageFix"/>
<feBlend mode="normal" in="SourceGraphic" in2="BackgroundImageFix" result="shape"/>
<feColorMatrix in="SourceAlpha" type="matrix" values="0 0 0 0 0 0 0 0 0 0 0 0 0 0 0 0 0 0 127 0" result="hardAlpha"/>
<feOffset dy="14.2198"/>
<feGaussianBlur stdDeviation="12.195"/>
<feComposite in2="hardAlpha" operator="arithmetic" k2="-1" k3="1"/>
<feColorMatrix type="matrix" values="0 0 0 0 1 0 0 0 0 1 0 0 0 0 1 0 0 0 0.5 0"/>
<feBlend mode="normal" in2="shape" result="effect1_innerShadow_1355_11266"/>
</filter>
<filter id="filter4_b_1355_11266" x="130.098" y="62.061" width="125.054" height="128.034" filterUnits="userSpaceOnUse" color-interpolation-filters="sRGB">
<feFlood flood-opacity="0" result="BackgroundImageFix"/>
<feGaussianBlur in="BackgroundImageFix" stdDeviation="5"/>
<feComposite in2="SourceAlpha" operator="in" result="effect1_backgroundBlur_1355_11266"/>
<feBlend mode="normal" in="SourceGraphic" in2="effect1_backgroundBlur_1355_11266" result="shape"/>
</filter>
<filter id="filter5_f_1355_11266" x="44.2607" y="172.64" width="83.5244" height="51.604" filterUnits="userSpaceOnUse" color-interpolation-filters="sRGB">
<feFlood flood-opacity="0" result="BackgroundImageFix"/>
<feBlend mode="normal" in="SourceGraphic" in2="BackgroundImageFix" result="shape"/>
<feGaussianBlur stdDeviation="2" result="effect1_foregroundBlur_1355_11266"/>
</filter>
<filter id="filter6_f_1355_11266" x="262" y="11.7471" width="139.432" height="84.2529" filterUnits="userSpaceOnUse" color-interpolation-filters="sRGB">
<feFlood flood-opacity="0" result="BackgroundImageFix"/>
<feBlend mode="normal" in="SourceGraphic" in2="BackgroundImageFix" result="shape"/>
<feGaussianBlur stdDeviation="2" result="effect1_foregroundBlur_1355_11266"/>
</filter>
<radialGradient id="paint0_radial_1355_11266" cx="0" cy="0" r="1" gradientUnits="userSpaceOnUse" gradientTransform="translate(117 -71.0001) rotate(70.0386) scale(225.55 305.924)">
<stop offset="0.611468" stop-color="#EEFAFF"/>
<stop offset="1" stop-color="#9AE6FF"/>
</radialGradient>
<radialGradient id="paint1_radial_1355_11266" cx="0" cy="0" r="1" gradientUnits="userSpaceOnUse" gradientTransform="translate(-283.717 -394.913) rotate(44.3285) scale(502.627 704.389)">
<stop offset="0.718909" stop-color="#4092F1"/>
<stop offset="1" stop-color="#4579FF"/>
</radialGradient>
<radialGradient id="paint2_radial_1355_11266" cx="0" cy="0" r="1" gradientUnits="userSpaceOnUse" gradientTransform="translate(226.771 47.3536) rotate(59.3374) scale(205.359 344.258)">
<stop offset="0.445297" stop-color="#D9D9D9"/>
<stop offset="0.667933" stop-color="#A9A9A9" stop-opacity="0.64"/>
<stop offset="0.856792" stop-color="#737373" stop-opacity="0"/>
</radialGradient>
<linearGradient id="paint3_linear_1355_11266" x1="337" y1="61.0007" x2="-47.003" y2="144.249" gradientUnits="userSpaceOnUse">
<stop stop-color="#E2A4FF"/>
<stop offset="1" stop-color="#217ACC"/>
</linearGradient>
<radialGradient id="paint4_radial_1355_11266" cx="0" cy="0" r="1" gradientUnits="userSpaceOnUse" gradientTransform="translate(252.046 248.726) rotate(-110.108) scale(155.773 226.096)">
<stop stop-color="#4200FD" stop-opacity="0.64"/>
<stop offset="1" stop-color="#00FDEE"/>
</radialGradient>
<radialGradient id="paint5_radial_1355_11266" cx="0" cy="0" r="1" gradientUnits="userSpaceOnUse" gradientTransform="translate(261.232 167.12) rotate(-127.181) scale(151.224 372.877)">
<stop stop-color="#4200FD" stop-opacity="0.64"/>
<stop offset="1" stop-color="#00FDEE"/>
</radialGradient>
<linearGradient id="paint6_linear_1355_11266" x1="65.5" y1="159" x2="131.5" y2="177" gradientUnits="userSpaceOnUse">
<stop stop-color="#AFAFAF" stop-opacity="0"/>
<stop offset="0.825321"/>
</linearGradient>
<clipPath id="clip0_1355_11266">
<rect width="440" height="280" fill="white"/>
</clipPath>
</defs>
</svg>
