<svg width="24" height="24" viewBox="0 0 24 24" fill="none" xmlns="http://www.w3.org/2000/svg">
<path fill-rule="evenodd" clip-rule="evenodd" d="M12.0013 21.2501C7.46147 21.2501 3.78125 17.5698 3.78125 13.0301C3.78125 8.49028 7.46147 4.81006 12.0013 4.81006C16.541 4.81006 20.2213 8.49028 20.2213 13.0301C20.2213 17.5698 16.541 21.2501 12.0013 21.2501Z" stroke="#4D4D4D" stroke-width="1.2" stroke-linecap="round" stroke-linejoin="round"/>
<path d="M19.2719 5.76001L18.1719 6.86002" stroke="#4D4D4D" stroke-width="1.2" stroke-linecap="round" stroke-linejoin="round"/>
<path fill-rule="evenodd" clip-rule="evenodd" d="M12.0027 14.06C11.4338 14.06 10.9727 13.5989 10.9727 13.03C10.9727 12.4611 11.4338 12 12.0027 12C12.5715 12 13.0327 12.4611 13.0327 13.03C13.0327 13.5989 12.5715 14.06 12.0027 14.06Z" stroke="#4D4D4D" stroke-width="1.2" stroke-linecap="round" stroke-linejoin="round"/>
<path d="M12.0039 13.03L14.5739 10.46" stroke="#4D4D4D" stroke-width="1.2" stroke-linecap="round" stroke-linejoin="round"/>
<path d="M10.9727 2.75H13.0327" stroke="#4D4D4D" stroke-width="1.2" stroke-linecap="round" stroke-linejoin="round"/>
</svg>
