<svg width="108" height="32" viewBox="0 0 108 32" fill="none" xmlns="http://www.w3.org/2000/svg">
<g clip-path="url(#clip0_909_138119)">
<path fill-rule="evenodd" clip-rule="evenodd" d="M55 0.040771V31.9592C56.2487 31.9997 57.5005 31.9998 58.7676 31.9999C58.9219 31.9999 59.0765 31.9999 59.2313 32L86.0831 31.999C86.2211 31.999 86.3591 31.999 86.4971 31.9991C88.1684 31.9997 89.8381 32.0004 91.5088 31.905C93.153 31.8111 94.7546 31.6139 96.3489 31.1711C99.705 30.24 102.636 28.2942 104.754 25.5381C106.86 22.7985 108 19.4468 108 15.999C108 12.5554 106.86 9.20166 104.754 6.46206C102.636 3.70491 99.705 1.76015 96.3489 0.829056C94.7546 0.38622 93.153 0.188027 91.5088 0.0951245C89.8251 -0.000972558 88.1423 -0.000451697 86.4294 7.84926e-05C86.3023 0.000117821 86.1751 0.000157201 86.0477 0.000157201L59.198 0.000157109C59.0732 0.000157109 58.9484 0.000117826 58.8236 7.85464e-05C57.5487 -0.000322767 56.2746 -0.000723799 55 0.040771Z" fill="#787880" fill-opacity="0.32"/>
<path fill-rule="evenodd" clip-rule="evenodd" d="M55 0.000168212C54.7536 -8.07892e-05 54.5066 -1.29017e-06 54.259 7.84197e-05C54.1368 0.000117748 54.0145 0.000157128 53.892 0.000157128H21.075C20.955 0.000157128 20.835 0.000117845 20.715 7.85653e-05C19.0952 -0.000451674 17.477 -0.00098142 15.857 0.0951244C14.277 0.188027 12.737 0.38622 11.204 0.829056C7.977 1.76015 5.159 3.70491 3.122 6.46206C1.097 9.20166 0 12.5555 0 16.0001C0 19.4468 1.097 22.7985 3.122 25.5381C5.159 28.2942 7.977 30.24 11.204 31.1711C12.737 31.6139 14.277 31.8111 15.857 31.905C17.4508 31.9996 19.043 31.9997 20.6611 31.9999C20.8095 31.9999 20.9581 31.9999 21.107 32L53.926 31.999C54.0587 31.999 54.1914 31.999 54.3241 31.9991C54.5494 31.9992 54.7747 31.9993 55 31.9991V0.000168212Z" fill="#32D74B"/>
<g filter="url(#filter0_dd_909_138119)">
<path fill-rule="evenodd" clip-rule="evenodd" d="M55 29C62.1797 29 68 23.1797 68 16C68 8.8203 62.1797 3 55 3C47.8203 3 42 8.8203 42 16C42 23.1797 47.8203 29 55 29Z" fill="white"/>
<path fill-rule="evenodd" clip-rule="evenodd" d="M55 29C62.1797 29 68 23.1797 68 16C68 8.8203 62.1797 3 55 3C47.8203 3 42 8.8203 42 16C42 23.1797 47.8203 29 55 29Z" stroke="#DCDCDC" stroke-width="1.4"/>
</g>
<path d="M22.9631 15.9091C22.9631 16.9962 22.7642 17.9309 22.3665 18.7131C21.9688 19.492 21.4235 20.0919 20.7308 20.5128C20.0414 20.9304 19.2576 21.1392 18.3793 21.1392C17.4976 21.1392 16.7105 20.9304 16.0178 20.5128C15.3284 20.0919 14.7848 19.4903 14.3871 18.7081C13.9893 17.9259 13.7905 16.9929 13.7905 15.9091C13.7905 14.822 13.9893 13.889 14.3871 13.1101C14.7848 12.3279 15.3284 11.728 16.0178 11.3104C16.7105 10.8894 17.4976 10.679 18.3793 10.679C19.2576 10.679 20.0414 10.8894 20.7308 11.3104C21.4235 11.728 21.9688 12.3279 22.3665 13.1101C22.7642 13.889 22.9631 14.822 22.9631 15.9091ZM21.4418 15.9091C21.4418 15.0805 21.3075 14.3828 21.0391 13.8161C20.7739 13.246 20.4093 12.8151 19.9453 12.5234C19.4846 12.2285 18.9626 12.081 18.3793 12.081C17.7926 12.081 17.2689 12.2285 16.8082 12.5234C16.3475 12.8151 15.983 13.246 15.7145 13.8161C15.4493 14.3828 15.3168 15.0805 15.3168 15.9091C15.3168 16.7377 15.4493 17.437 15.7145 18.0071C15.983 18.5739 16.3475 19.0047 16.8082 19.2997C17.2689 19.5914 17.7926 19.7372 18.3793 19.7372C18.9626 19.7372 19.4846 19.5914 19.9453 19.2997C20.4093 19.0047 20.7739 18.5739 21.0391 18.0071C21.3075 17.437 21.4418 16.7377 21.4418 15.9091ZM33.0964 10.8182V21H31.6845L26.5091 13.5327H26.4146V21H24.8784V10.8182H26.3002L31.4806 18.2955H31.5751V10.8182H33.0964Z" fill="black"/>
<path d="M83.9631 15.9091C83.9631 16.9962 83.7642 17.9309 83.3665 18.7131C82.9688 19.492 82.4235 20.0919 81.7308 20.5128C81.0414 20.9304 80.2576 21.1392 79.3793 21.1392C78.4976 21.1392 77.7105 20.9304 77.0178 20.5128C76.3284 20.0919 75.7848 19.4903 75.3871 18.7081C74.9893 17.9259 74.7905 16.9929 74.7905 15.9091C74.7905 14.822 74.9893 13.889 75.3871 13.1101C75.7848 12.3279 76.3284 11.728 77.0178 11.3104C77.7105 10.8894 78.4976 10.679 79.3793 10.679C80.2576 10.679 81.0414 10.8894 81.7308 11.3104C82.4235 11.728 82.9688 12.3279 83.3665 13.1101C83.7642 13.889 83.9631 14.822 83.9631 15.9091ZM82.4418 15.9091C82.4418 15.0805 82.3075 14.3828 82.0391 13.8161C81.7739 13.246 81.4093 12.8151 80.9453 12.5234C80.4846 12.2285 79.9626 12.081 79.3793 12.081C78.7926 12.081 78.2689 12.2285 77.8082 12.5234C77.3475 12.8151 76.983 13.246 76.7145 13.8161C76.4493 14.3828 76.3168 15.0805 76.3168 15.9091C76.3168 16.7377 76.4493 17.437 76.7145 18.0071C76.983 18.5739 77.3475 19.0047 77.8082 19.2997C78.2689 19.5914 78.7926 19.7372 79.3793 19.7372C79.9626 19.7372 80.4846 19.5914 80.9453 19.2997C81.4093 19.0047 81.7739 18.5739 82.0391 18.0071C82.3075 17.437 82.4418 16.7377 82.4418 15.9091ZM85.8784 21V10.8182H92.1923V12.1406H87.4146V15.2429H91.7399V16.5604H87.4146V21H85.8784ZM94.0815 21V10.8182H100.395V12.1406H95.6177V15.2429H99.943V16.5604H95.6177V21H94.0815Z" fill="black"/>
</g>
<defs>
<filter id="filter0_dd_909_138119" x="33.3" y="-2.69995" width="43.3999" height="43.3999" filterUnits="userSpaceOnUse" color-interpolation-filters="sRGB">
<feFlood flood-opacity="0" result="BackgroundImageFix"/>
<feColorMatrix in="SourceAlpha" type="matrix" values="0 0 0 0 0 0 0 0 0 0 0 0 0 0 0 0 0 0 127 0" result="hardAlpha"/>
<feOffset dy="3"/>
<feGaussianBlur stdDeviation="0.5"/>
<feColorMatrix type="matrix" values="0 0 0 0 0 0 0 0 0 0 0 0 0 0 0 0 0 0 0.11 0"/>
<feBlend mode="normal" in2="BackgroundImageFix" result="effect1_dropShadow_909_138119"/>
<feColorMatrix in="SourceAlpha" type="matrix" values="0 0 0 0 0 0 0 0 0 0 0 0 0 0 0 0 0 0 127 0" result="hardAlpha"/>
<feOffset dy="3"/>
<feGaussianBlur stdDeviation="4"/>
<feColorMatrix type="matrix" values="0 0 0 0 0 0 0 0 0 0 0 0 0 0 0 0 0 0 0.25 0"/>
<feBlend mode="normal" in2="effect1_dropShadow_909_138119" result="effect2_dropShadow_909_138119"/>
<feBlend mode="normal" in="SourceGraphic" in2="effect2_dropShadow_909_138119" result="shape"/>
</filter>
<clipPath id="clip0_909_138119">
<rect width="108" height="32" fill="white"/>
</clipPath>
</defs>
</svg>
