<svg xmlns="http://www.w3.org/2000/svg" width="24" height="24" viewBox="0 0 24 24">
  <g fill="none" fill-rule="evenodd">
    <polygon points="0 0 24 0 24 24 0 24"/>
    <path fill="#C80027" fill-opacity=".87" d="M4.33333333,21.3333333 C4.33333333,22.8 5.53333333,24 7,24 L17.6666667,24 C19.1333333,24 20.3333333,22.8 20.3333333,21.3333333 L20.3333333,8 C20.3333333,6.53333333 19.1333333,5.33333333 17.6666667,5.33333333 L7,5.33333333 C5.53333333,5.33333333 4.33333333,6.53333333 4.33333333,8 L4.33333333,21.3333333 Z M20.3333333,1.33333333 L17,1.33333333 L16.0533333,0.386666667 C15.8133333,0.146666667 15.4666667,0 15.12,0 L9.54666667,0 C9.2,0 8.85333333,0.146666667 8.61333333,0.386666667 L7.66666667,1.33333333 L4.33333333,1.33333333 C3.6,1.33333333 3,1.93333333 3,2.66666667 C3,3.4 3.6,4 4.33333333,4 L20.3333333,4 C21.0666667,4 21.6666667,3.4 21.6666667,2.66666667 C21.6666667,1.93333333 21.0666667,1.33333333 20.3333333,1.33333333 Z"/>
  </g>
</svg>
