<svg xmlns="http://www.w3.org/2000/svg" width="104" height="24" viewBox="0 0 104 24" fill="none">
  <g clip-path="url(#clip0_7429_11460)">
    <path d="M81.8074 17.6727L81.0061 15.6059H77.0344L76.2854 17.6727H73.5853L77.888 7.10494H80.2919L84.5597 17.6727H81.8074ZM79.0551 9.9266L77.7486 13.557H80.3267L79.0551 9.9266ZM73.1673 13.6828C73.1673 14.3119 73.0628 14.9049 72.8537 15.4261C72.6621 15.9294 72.3486 16.3966 71.9653 16.7741C71.5647 17.1515 71.0769 17.457 70.5718 17.6547C70.0317 17.8704 69.4221 17.9602 68.7427 17.9602C68.0633 17.9602 67.4536 17.8524 66.9136 17.6547C66.4085 17.457 65.9381 17.1695 65.5375 16.7741C65.1543 16.3966 64.8581 15.9294 64.6665 15.4261C64.4575 14.869 64.353 14.2759 64.353 13.6828V7.10494H66.8265V13.4851C66.8265 13.7727 66.8614 14.0423 66.9311 14.3119C67.0007 14.5635 67.1227 14.7971 67.262 15.0128C67.4188 15.2105 67.6104 15.3722 67.8543 15.498C68.0982 15.6238 68.3943 15.6778 68.7427 15.6778C69.0911 15.6778 69.3872 15.6238 69.6311 15.498C69.8575 15.3902 70.0666 15.2284 70.2408 15.0128C70.3976 14.8151 70.5021 14.5635 70.5718 14.3119C70.6414 14.0602 70.6763 13.7727 70.6763 13.4851V7.12291H73.1499L73.1673 13.6828ZM62.9942 17.0257C62.4368 17.3132 61.8445 17.5289 61.2348 17.6907C60.5206 17.8704 59.7716 17.9423 59.04 17.9423C58.2213 17.9423 57.4548 17.8165 56.7754 17.5469C56.1135 17.2953 55.5038 16.9178 54.9986 16.4146C54.4935 15.9294 54.0928 15.3183 53.8315 14.6713C53.5528 13.9884 53.4134 13.2335 53.4134 12.3888C53.4134 11.5441 53.5528 10.7713 53.8489 10.0884C54.1276 9.42338 54.5283 8.83029 55.0335 8.32706C55.5386 7.84181 56.1483 7.46439 56.8103 7.21278C57.507 6.94319 58.2561 6.81738 59.0051 6.81738C59.8239 6.81738 60.5729 6.94319 61.2697 7.1948C61.9665 7.44642 62.5239 7.78789 62.9594 8.21923L61.3916 10.0524C61.1303 9.74688 60.7994 9.51324 60.4335 9.35149C60.0329 9.17176 59.58 9.0819 59.0922 9.0819C58.6567 9.0819 58.2561 9.17176 57.8903 9.33351C57.5245 9.49526 57.2109 9.72891 56.9322 10.0165C56.6535 10.322 56.4444 10.6814 56.3051 11.0589C56.1483 11.4722 56.0786 11.9215 56.0786 12.3708C56.0786 12.8561 56.1483 13.3054 56.2877 13.7188C56.427 14.1321 56.6186 14.4736 56.8974 14.7612C57.1587 15.0487 57.4896 15.2824 57.8903 15.4441C58.2735 15.6059 58.7264 15.6957 59.2316 15.6957C59.5277 15.6957 59.789 15.6778 60.0503 15.6238C60.3116 15.5699 60.5555 15.498 60.7819 15.4082V13.4851H58.7613V11.4183H62.9942V17.0257ZM104 12.3529C104 13.2695 103.826 14.0782 103.495 14.7432C103.181 15.3902 102.728 15.9473 102.171 16.3966C101.614 16.828 100.986 17.1515 100.324 17.3492C99.6451 17.5469 98.9483 17.6547 98.2341 17.6547H94.4018V7.08697H98.1296C98.8612 7.08697 99.5754 7.17683 100.272 7.35655C100.986 7.53628 101.613 7.82384 102.154 8.21923C102.711 8.61462 103.146 9.15379 103.495 9.83674C103.843 10.5197 104 11.3644 104 12.3529ZM101.422 12.3529C101.422 11.7598 101.335 11.2566 101.143 10.8612C100.969 10.4837 100.708 10.1602 100.394 9.9266C100.063 9.69296 99.6973 9.51324 99.3141 9.42337C98.9135 9.31554 98.4954 9.2796 98.0773 9.2796H96.8405V15.4621H98.0076C98.4605 15.4621 98.8786 15.4082 99.2967 15.3003C99.7148 15.1925 100.063 15.0308 100.394 14.7791C100.725 14.5275 100.969 14.204 101.143 13.8266C101.335 13.4312 101.422 12.946 101.422 12.3529ZM52.2986 12.3529C52.2986 13.2695 52.1244 14.0782 51.7934 14.7432C51.4799 15.3902 51.0269 15.9473 50.4695 16.3966C49.9121 16.828 49.285 17.1515 48.623 17.3492C47.9437 17.5469 47.2469 17.6547 46.5327 17.6547H42.7004V7.08697H46.4108C47.1424 7.08697 47.8566 7.17683 48.5534 7.35655C49.2676 7.53628 49.8947 7.82384 50.4347 8.21923C50.9921 8.61462 51.4276 9.15379 51.776 9.83674C52.1244 10.5197 52.2986 11.3644 52.2986 12.3529ZM49.7205 12.3529C49.7205 11.7598 49.6334 11.2566 49.4418 10.8612C49.2676 10.4837 49.0063 10.1602 48.6927 9.9266C48.3618 9.69296 48.0134 9.51324 47.6127 9.42337C47.2121 9.31554 46.794 9.2796 46.3759 9.2796H45.1391V15.4621H46.3062C46.7591 15.4621 47.1772 15.4082 47.5953 15.3003C48.0134 15.1925 48.3618 15.0308 48.6927 14.7791C49.0237 14.5275 49.2676 14.204 49.4418 13.8266C49.616 13.4312 49.7205 12.946 49.7205 12.3529ZM39.1642 17.6727L38.3629 15.6059H34.3912L33.6422 17.6727H30.9421L35.2448 7.10494H37.6487L41.9165 17.6727H39.1642ZM36.4119 9.9266L35.1054 13.557H37.6835L36.4119 9.9266ZM90.8482 17.6727L88.6359 13.4851H87.7998V17.6727H85.361V7.10494H89.2804C89.7682 7.10494 90.2559 7.15886 90.7262 7.26669C91.1966 7.37453 91.6146 7.55425 91.9979 7.78789C92.3637 8.0395 92.6772 8.38098 92.8863 8.77637C93.1127 9.18973 93.2172 9.69296 93.2172 10.304C93.2172 11.0229 93.0256 11.616 92.6598 12.1013C92.2766 12.5865 91.754 12.928 91.0921 13.1437L93.7747 17.6547C93.7573 17.6727 90.8482 17.6727 90.8482 17.6727ZM90.7437 10.34C90.7437 10.0884 90.6914 9.89066 90.5869 9.72891C90.4824 9.58513 90.3604 9.45932 90.2037 9.36946C90.0295 9.2796 89.8553 9.22568 89.6637 9.18974C89.472 9.15379 89.2804 9.15379 89.0888 9.13582H87.7649V11.598H88.932C89.1411 11.598 89.3501 11.5801 89.5591 11.5441C89.7682 11.5082 89.9598 11.4543 90.134 11.3644C90.3082 11.2745 90.4475 11.1487 90.5695 10.969C90.6914 10.8252 90.7437 10.6095 90.7437 10.34Z" fill="#232323"/>
    <path d="M11.1736 0.817383C7.67966 0.817383 3.45931 1.63892 4.35408e-06 3.47426C4.35408e-06 7.42463 -0.0518848 17.2481 11.1736 23.9602C22.399 17.2481 22.3471 7.40715 22.3471 3.47426C18.8705 1.6564 14.6502 0.817383 11.1736 0.817383Z" fill="#68BC71"/>
    <path d="M11.1736 23.9602C-0.0519652 17.2481 4.37418e-06 7.42463 4.37418e-06 3.47426C3.46467 1.6564 7.69156 0.817383 11.1736 0.817383V23.9602Z" fill="#67B279"/>
    <path d="M11.0793 17.1029L18.0496 7.87808C17.5326 7.47548 17.087 7.75555 16.8374 7.9831H16.8196L11.008 13.9171L8.81534 11.3264C7.76356 10.1361 6.35525 11.0464 6.01654 11.2914L11.0793 17.1029Z" fill="white"/>
  </g>
  <defs>
    <clipPath id="clip0_7429_11460">
      <rect width="104" height="24" fill="white"/>
    </clipPath>
  </defs>
</svg>