<svg xmlns="http://www.w3.org/2000/svg" width="132" height="24" viewBox="0 0 132 24" fill="none">
  <g clip-path="url(#clip0_7429_11530)">
    <mask id="mask0_7429_11530" style="mask-type:luminance" maskUnits="userSpaceOnUse" x="0" y="0" width="132" height="24">
      <path d="M132 0.205078H0V23.3775H132V0.205078Z" fill="white"/>
    </mask>
    <g mask="url(#mask0_7429_11530)">
      <path d="M14.3211 19.7858C18.7225 19.7858 22.2906 16.2066 22.2906 11.7914C22.2906 7.37613 18.7225 3.79688 14.3211 3.79688C9.91969 3.79688 6.35162 7.37613 6.35162 11.7914C6.35162 16.2066 9.91969 19.7858 14.3211 19.7858Z" fill="white"/>
      <path fill-rule="evenodd" clip-rule="evenodd" d="M6.69983 6.80342C7.18328 3.08177 10.4123 0.205078 14.3228 0.205078C18.2333 0.205078 21.4624 3.08177 21.9458 6.80342C25.7243 7.28011 28.644 10.4589 28.644 14.3088C28.644 18.4881 25.2037 21.8755 20.9583 21.8755C20.2603 21.8755 19.5838 21.7844 18.9412 21.6123C17.5513 22.7577 15.8072 23.3818 14.0085 23.3775C12.2713 23.3818 10.583 22.8 9.21525 21.7257C8.7115 21.8256 8.1992 21.8757 7.6857 21.8755C3.44107 21.8755 0 18.4881 0 14.3088C0 10.4581 2.9205 7.28011 6.69983 6.80342Z" fill="#006CE1"/>
      <path fill-rule="evenodd" clip-rule="evenodd" d="M9.26888 11.0152C9.51968 10.76 9.86107 10.615 10.2184 10.6119C10.5756 10.6088 10.9195 10.7478 11.1746 10.9987L14.322 14.098L17.4686 10.9995C17.999 10.4765 18.8521 10.4839 19.3743 11.0152C19.8965 11.5465 19.8899 12.3998 19.3586 12.922L15.2666 16.9515C15.0143 17.1997 14.675 17.3388 14.3216 17.3388C13.9682 17.3388 13.6288 17.1997 13.3766 16.9515L9.28456 12.922C9.15833 12.798 9.05768 12.6502 8.98855 12.4871C8.91941 12.3241 8.88295 12.1489 8.88146 11.9717C8.87989 11.7944 8.91331 11.6186 8.97964 11.4543C9.04597 11.2901 9.14398 11.1406 9.26806 11.0144L9.26888 11.0152Z" fill="#F8F9FA"/>
      <path d="M104.819 16.3265V7.204H107.965C109.382 7.204 110.538 7.63848 111.436 8.50746C112.334 9.36815 112.783 10.4539 112.783 11.7657C112.783 13.0691 112.33 14.1557 111.424 15.0247C110.525 15.8937 109.373 16.3281 107.965 16.3281L104.819 16.3265ZM105.842 15.3756H107.965C109.096 15.3756 110.003 15.0363 110.685 14.3593C111.376 13.6724 111.721 12.8076 111.721 11.7648C111.721 10.7304 111.376 9.87049 110.685 9.18442C109.995 8.49835 109.088 8.1549 107.965 8.1549H105.842V15.3756ZM114.949 16.3265V7.204H115.907L121.618 14.5166V7.20317H122.616V16.3265H121.8L115.946 8.84511V16.3265H114.949ZM128.288 16.4573C126.898 16.4573 125.664 15.9706 124.584 14.9974L125.219 14.2418C125.703 14.6846 126.186 15.0115 126.67 15.2192C127.161 15.4277 127.714 15.532 128.327 15.532C128.932 15.532 129.419 15.3888 129.791 15.1017C130.162 14.8062 130.348 14.4239 130.348 13.9546C130.348 13.5119 130.183 13.1601 129.855 12.8995C129.527 12.6388 128.905 12.4128 127.99 12.2208C126.911 11.9866 126.134 11.6697 125.659 11.2691C125.185 10.8702 124.947 10.3008 124.947 9.56263C124.947 8.84098 125.228 8.24593 125.789 7.77669C126.35 7.30745 127.062 7.07324 127.925 7.07324C129.126 7.07324 130.187 7.44566 131.111 8.19379L130.516 8.98829C129.713 8.3287 128.841 7.99848 127.9 7.99848C127.321 7.99848 126.855 8.14166 126.501 8.42884C126.147 8.70608 125.97 9.06277 125.97 9.49642C125.97 9.94911 126.138 10.305 126.475 10.5657C126.821 10.8264 127.472 11.0614 128.431 11.2691C129.458 11.4959 130.205 11.8128 130.671 12.2208C131.146 12.6214 131.384 13.1726 131.384 13.876C131.384 14.6498 131.094 15.2755 130.516 15.7538C129.938 16.223 129.195 16.4573 128.288 16.4573Z" fill="#131313"/>
      <path fill-rule="evenodd" clip-rule="evenodd" d="M35.2275 16.3536L39.0497 7.16413H40.8589L44.682 16.3536H42.6302L41.8143 14.307H38.0432L37.2273 16.3536H35.2275ZM38.7436 12.5343H41.1139L39.9292 9.57571L38.7436 12.5343ZM45.7066 16.3536V7.22868H49.1848C50.5774 7.22868 51.7159 7.66151 52.6003 8.5255C53.4831 9.39033 53.9245 10.4786 53.9245 11.7912C53.9245 13.0946 53.4806 14.1812 52.5929 15.0502C51.7052 15.9192 50.5692 16.3536 49.1848 16.3536H45.7066ZM47.6685 14.5412H49.1848C49.9917 14.5412 50.6418 14.2872 51.1343 13.7798C51.6268 13.2725 51.8735 12.608 51.8735 11.7912C51.8735 10.9826 51.6244 10.3222 51.1277 9.80991C50.6311 9.29681 49.9834 9.04026 49.1848 9.04026H47.6685V14.5412ZM59.6128 16.51C58.2277 16.51 57.1007 16.0665 56.2295 15.1801C55.3591 14.2946 54.9235 13.1641 54.9235 11.7912C54.9235 10.4786 55.369 9.36467 56.2617 8.44771C57.1527 7.53075 58.2664 7.07227 59.5996 7.07227C60.3727 7.07227 61.0269 7.17489 61.5623 7.37847C62.0977 7.58206 62.6117 7.8982 63.1042 8.32357L61.8684 9.84881C61.4946 9.52771 61.1333 9.29267 60.7852 9.14536C60.437 8.99805 60.0204 8.92357 59.5361 8.92357C58.8225 8.92357 58.2177 9.20412 57.7211 9.76439C57.2236 10.3247 56.9753 11 56.9753 11.792C56.9753 12.6254 57.2278 13.3164 57.7335 13.8634C58.2384 14.4113 58.886 14.6852 59.6764 14.6852C60.4073 14.6852 61.0227 14.5032 61.5243 14.1374V12.8339H59.5485V11.1001H63.4219V15.0626C62.3089 16.0276 61.0401 16.51 59.6128 16.51ZM69.0294 16.4968C67.815 16.4968 66.8679 16.1517 66.1881 15.4607C65.5083 14.7696 65.1684 13.7641 65.1684 12.4433V7.22951H67.1311V12.3912C67.1311 13.1211 67.2985 13.6789 67.6343 14.0662C67.9701 14.4527 68.4428 14.6455 69.055 14.6455C69.6663 14.6455 70.1398 14.4593 70.4756 14.0852C70.8114 13.7112 70.9789 13.1683 70.9789 12.4557V7.22868H72.9415V12.3779C72.9415 13.7335 72.595 14.7589 71.9029 15.4541C71.2099 16.1492 70.2528 16.4968 69.0294 16.4968ZM73.4728 16.3536L77.2959 7.16413H79.1051L82.9282 16.3536H80.8764L80.0613 14.307H76.2894L75.4735 16.3536H73.4728ZM76.9898 12.5343H79.36L78.1753 9.57571L76.9898 12.5343ZM83.952 16.3536V7.22868H88.03C89.1594 7.22868 90.0264 7.53737 90.6295 8.15475C91.1394 8.67612 91.3935 9.37957 91.3935 10.2659C91.3935 11.6645 90.7566 12.608 89.4828 13.0946L91.6616 16.3536H89.3681L87.431 13.4339H85.9146V16.3536H83.952ZM85.9146 11.6612H87.9021C88.3781 11.6612 88.7477 11.5412 89.0109 11.3021C89.2741 11.0637 89.4061 10.7443 89.4061 10.3445C89.4061 9.91833 89.2699 9.59474 88.9985 9.37295C88.7263 9.15198 88.3484 9.04109 87.8641 9.04109H85.9146V11.6612ZM92.8133 16.3536V7.22868H96.2915C97.6849 7.22868 98.8234 7.66151 99.707 8.5255C100.591 9.39033 101.032 10.4786 101.032 11.7912C101.032 13.0946 100.588 14.1812 99.7004 15.0502C98.8127 15.9192 97.6767 16.3536 96.2915 16.3536H92.8133ZM94.7752 14.5412H96.2915C97.0984 14.5412 97.7485 14.2872 98.241 13.7798C98.7343 13.2709 98.9802 12.608 98.9802 11.7912C98.9802 10.9826 98.7319 10.3222 98.2352 9.80991C97.7377 9.29681 97.0901 9.04026 96.2915 9.04026H94.7752V14.5412Z" fill="#131313"/>
    </g>
  </g>
  <defs>
    <clipPath id="clip0_7429_11530">
      <rect width="132" height="24" fill="white"/>
    </clipPath>
  </defs>
</svg>