<svg width="48" height="48" viewBox="0 0 48 48" fill="none" xmlns="http://www.w3.org/2000/svg">
<path d="M48 43.7525C48 45.4025 46.65 46.7525 45 46.7525H3C1.35 46.7525 0 45.4025 0 43.7525V25.7525C0 24.1025 0.954 21.7987 2.122 20.6307L21.878 0.874561C23.044 -0.291439 24.954 -0.291439 26.12 0.874561L45.878 20.6325C47.044 21.7985 48 24.1045 48 25.7545V43.7545V43.7525Z" fill="#F2F4F9"/>
<path d="M45.878 20.6306L26.122 0.8745C24.956 -0.2915 23.046 -0.2915 21.88 0.8745L2.122 20.6306C0.956 21.7966 0 24.1024 0 25.7524V43.7524C0 45.4024 1.35 46.7524 3 46.7524H21.454L13.328 38.6264C12.91 38.7704 12.464 38.8524 12 38.8524C9.74 38.8524 7.9 37.0124 7.9 34.7524C7.9 32.4924 9.74 30.6524 12 30.6524C14.26 30.6524 16.1 32.4924 16.1 34.7524C16.1 35.2184 16.018 35.6644 15.874 36.0824L22.2 42.4084V19.2324C20.84 18.5645 19.9 17.1685 19.9 15.5545C19.9 13.2945 21.74 11.4545 24 11.4545C26.26 11.4545 28.1 13.2945 28.1 15.5545C28.1 17.1685 27.16 18.5645 25.8 19.2324V35.4864L32.092 29.1944C31.968 28.8024 31.9 28.3864 31.9 27.9544C31.9 25.6944 33.74 23.8544 36 23.8544C38.26 23.8544 40.1 25.6944 40.1 27.9544C40.1 30.2144 38.26 32.0544 36 32.0544C35.5 32.0544 35.024 31.9604 34.582 31.7964L25.8 40.5784V46.7544H45C46.65 46.7544 48 45.4044 48 43.7544V25.7544C48 24.1044 47.046 21.8004 45.878 20.6324V20.6306Z" fill="#18BCF2"/>
</svg>
