<svg width="48" height="48" viewBox="0 0 48 48" fill="none" xmlns="http://www.w3.org/2000/svg">
<path d="M47.2196 20.6132C46.0429 19.8187 42.9506 19.4793 40.7025 20.0867C40.5813 17.8407 39.4268 15.948 37.3145 14.2966L36.5325 13.7701L36.0114 14.5595C34.987 16.1192 34.5554 18.1972 34.7084 20.086C34.829 21.2498 35.2327 22.558 36.0114 23.5073C33.0855 25.2096 30.3886 24.8232 18.4448 24.8232H0.00413997C-0.0498097 27.5282 0.383692 32.7319 3.68287 36.968C4.04719 37.4359 4.44706 37.8886 4.88056 38.3246C7.56281 41.0188 11.6154 42.9943 17.6755 43C26.9206 43.0083 34.8417 37.9961 39.6597 25.8768C41.2452 25.9029 45.4304 26.162 47.4786 22.192C47.5287 22.1251 47.9997 21.139 47.9997 21.139L47.219 20.6125L47.2196 20.6132ZM12.0387 18.1393H6.85321V23.3405H12.0387V18.1393ZM18.738 18.1393H13.5525V23.3405H18.738V18.1393ZM25.4373 18.1393H20.2518V23.3405H25.4373V18.1393ZM32.1366 18.1393H26.9511V23.3405H32.1366V18.1393ZM5.33945 18.1393H0.15393V23.3405H5.33945V18.1393ZM12.0387 11.5699H6.85321V16.7711H12.0387V11.5699ZM18.738 11.5699H13.5525V16.7711H18.738V11.5699ZM25.4373 11.5699H20.2518V16.7711H25.4373V11.5699ZM25.4373 5H20.2518V10.2012H25.4373V5Z" fill="#1D63ED"/>
</svg>
