<svg width="169" height="48" viewBox="0 0 169 48" fill="none" xmlns="http://www.w3.org/2000/svg">
<path d="M39.5666 0.0726021C39.4321 0.228211 31.2234 2.78463 28.846 3.4293C26.648 4.0295 20.3681 6.40809 19.471 6.98606C19.1794 7.18613 18.9551 7.51958 18.9551 7.74187C18.9551 7.96417 19.5158 8.98674 20.1887 10.0093C21.7138 12.3212 21.7587 12.877 20.6148 15.5445C19.4934 18.1232 18.7981 18.9457 16.9814 19.7904C16.1516 20.1683 15.232 20.7241 14.9181 20.9908C14.6041 21.2576 13.7966 21.7022 13.1238 21.9467C12.451 22.1912 11.8678 22.5469 11.823 22.7247C11.7557 23.0137 11.8678 23.0137 12.6304 22.7692C13.8415 22.3468 14.4695 22.5469 14.4695 23.3472C14.4695 24.0585 13.5724 24.681 11.195 25.6591C5.49821 27.9487 3.83852 28.6823 3.07596 29.3048C1.9097 30.1939 1.7527 31.0165 2.35826 32.8838C2.60497 33.6396 2.80683 34.5065 2.80683 34.7733C2.80683 35.2401 3.99552 38.619 5.83463 43.4207C6.57476 45.3324 8.09988 47.9778 8.48116 48C8.5933 48 8.61573 47.4887 8.52602 46.8663C8.39145 45.8659 8.18959 40.3752 8.14474 35.6625C8.09988 33.2617 8.5933 32.1279 10.3876 30.394C12.0921 28.7268 14.6713 26.9706 16.959 25.8814C18.4841 25.17 18.6411 25.1256 20.3905 25.2589C22.2745 25.3923 25.392 24.97 27.0966 24.3697C27.7021 24.1475 28.2628 24.1252 28.8908 24.2364C30.1019 24.4587 37.7948 24.4809 37.7948 24.2586C37.7948 24.1697 37.0771 23.9696 36.2024 23.8362C33.8475 23.4806 33.8026 23.1693 36.0903 22.9915C39.8134 22.6803 37.7724 22.2135 32.6812 22.2135C29.3394 22.2135 28.689 22.0356 27.5003 20.813C26.334 19.5903 25.7733 16.3893 26.3789 14.433C26.5134 14.0107 26.6929 12.2101 26.805 10.4317C26.8947 8.6533 27.0517 7.03052 27.1414 6.80822C27.3433 6.29694 29.8552 4.852 32.2102 3.89612C33.2419 3.47376 34.9016 2.78463 35.8884 2.36227C37.4584 1.69538 39.6115 0.783955 41.0469 0.205981C41.3833 0.0503724 41.2936 0.00591282 40.5759 0.00591282C40.0825 -0.016317 39.6115 0.0281426 39.5666 0.0726021Z" fill="black"/>
<path d="M58.653 36.4405H61.322C63.5424 36.4405 64.0134 36.3738 64.1255 36.0849C64.1928 35.8848 64.2601 32.906 64.2601 29.4159V23.1249L70.8764 22.9915V17.6564L64.2601 17.523V12.4324L68.2523 12.3879L72.2221 12.3212L72.3567 6.87493H58.653V36.4405Z" fill="black"/>
<path d="M74.2631 7.20838C74.1958 7.40845 74.1285 13.9662 74.1285 21.7689C74.1285 33.6174 74.1734 35.9737 74.4425 36.196C74.6443 36.3738 75.5863 36.4405 77.1787 36.3961L79.6234 36.3294L79.6907 31.3721L79.7356 26.4371H81.1934L83.0998 31.3944L85.0286 36.3294H87.8097C90.4787 36.3294 90.6132 36.3072 90.6805 35.8626C90.7254 35.618 89.8282 33.0838 88.7068 30.2384C87.6079 27.393 86.6883 24.97 86.6883 24.8366C86.6883 24.7254 87.0023 24.2364 87.3611 23.7696C87.7424 23.3027 88.3255 22.3246 88.662 21.6133C89.2451 20.3684 89.2675 20.1906 89.2675 16.656C89.2675 13.0103 89.2675 12.9881 88.5498 11.4987C87.72 9.7648 86.4864 8.45325 84.8492 7.60851C83.6829 6.98608 83.5932 6.98608 79.0403 6.91939C74.9135 6.8527 74.3976 6.87493 74.2631 7.20838ZM82.4718 12.6769C83.3016 13.1215 83.7726 14.5887 83.7726 16.7227C83.7726 19.7904 83.1222 20.7685 80.8794 21.0353L79.7356 21.1687V12.4324H80.8794C81.5074 12.4324 82.2027 12.5435 82.4718 12.6769Z" fill="black"/>
<path d="M92.7439 36.4628L98.2388 36.3294V6.98608L92.7439 6.8527V36.4628Z" fill="black"/>
<path d="M103.734 7.58628C102.814 8.05311 102.029 8.65331 101.558 9.27575C100.19 11.0541 100.145 11.4987 100.145 21.7911C100.145 30.5052 100.168 31.1721 100.594 32.2613C101.177 33.8174 102.074 34.8622 103.532 35.6625C104.721 36.3072 104.81 36.3294 107.883 36.3294C110.866 36.3294 111.09 36.3072 112.167 35.7292C112.817 35.3957 113.692 34.7066 114.118 34.1953C115.509 32.5948 115.621 31.9501 115.621 25.5035V19.7682L111.427 19.8127L107.21 19.8794L107.076 25.3256H110.014V27.8376C110.014 29.5048 109.924 30.4385 109.744 30.6163C109.408 30.9498 106.784 30.972 106.178 30.6608C105.775 30.4385 105.752 30.105 105.752 21.7022C105.752 15.2111 105.82 12.8992 106.021 12.6991C106.38 12.3435 109.386 12.3435 109.744 12.6991C109.901 12.8547 110.014 13.5883 110.014 14.4775V15.9891H115.621V14.0329C115.621 12.8325 115.486 11.6766 115.262 11.0541C114.836 9.7648 113.625 8.38656 112.301 7.58628C111.314 7.03054 111.045 6.98608 108.219 6.91939L105.192 6.83047L103.734 7.58628Z" fill="black"/>
<path d="M122.91 7.14169C122.73 7.63074 117.639 34.9734 117.639 35.4402C117.639 35.707 117.751 36.0182 117.908 36.1738C118.29 36.5517 122.663 36.5295 122.977 36.1515C123.089 36.0182 123.515 34.2398 123.897 32.2169C124.278 30.194 124.659 28.26 124.727 27.9265L124.861 27.3041L129.616 27.4375L130.423 31.6611C130.849 33.973 131.298 36.0182 131.388 36.1515C131.59 36.4628 135.649 36.5739 136.344 36.3072C136.569 36.2182 136.703 35.907 136.703 35.4402C136.703 34.6399 131.634 7.43068 131.433 7.075C131.208 6.74155 123.022 6.80824 122.91 7.14169ZM127.822 18.0787C128.136 19.7904 128.405 21.3021 128.405 21.4799C128.405 21.68 128.046 21.7689 127.149 21.7689H125.893L126.027 21.0798C126.095 20.7019 126.386 19.168 126.655 17.6341C126.924 16.1225 127.171 14.8999 127.194 14.9443C127.216 14.9666 127.508 16.3893 127.822 18.0787Z" fill="black"/>
<path d="M136.636 7.03054C136.344 7.2973 136.456 11.8766 136.748 12.1656C136.927 12.3435 137.869 12.4324 139.552 12.4324H142.086V24.1697C142.086 32.9949 142.153 35.9737 142.355 36.1738C142.736 36.5517 147.379 36.5517 147.603 36.1738C147.715 36.0182 147.76 30.5719 147.715 24.0585L147.648 12.2101H153.3V6.87493H145.046C140.494 6.87493 136.703 6.94162 136.636 7.03054Z" fill="black"/>
<path d="M155.319 36.4405H169V30.8831H160.926V23.1249L167.542 22.9915V17.6564L160.926 17.523V12.4324H169V6.87493H155.319V36.4405Z" fill="black"/>
</svg>
