<svg width="108" height="32" viewBox="0 0 108 32" fill="none" xmlns="http://www.w3.org/2000/svg">
<path d="M107.284 28.2222C107.284 28.625 107.205 29.0238 107.05 29.3958C106.896 29.7679 106.67 30.1059 106.385 30.3905C106.1 30.6752 105.762 30.9009 105.389 31.0547C105.017 31.2085 104.618 31.2875 104.215 31.2871H3.78575C2.97176 31.2879 2.19077 30.9655 1.61452 30.3908C1.03827 29.816 0.713951 29.036 0.712891 28.2222V3.78112C0.713951 2.96699 1.03814 2.18655 1.61428 1.61116C2.19041 1.03578 2.9714 0.712492 3.78575 0.71228H104.214C104.617 0.71228 105.017 0.791664 105.389 0.945898C105.761 1.10013 106.1 1.32619 106.385 1.61117C106.67 1.89615 106.896 2.23446 107.05 2.60679C107.204 2.97911 107.283 3.37816 107.283 3.78112L107.284 28.2222Z" fill="white"/>
<path d="M104.215 32H3.78524C2.78251 31.9998 1.82081 31.6019 1.11117 30.8937C0.401526 30.1854 0.00190793 29.2246 0 28.2222L0 3.78184C0.0014834 2.77887 0.400838 1.81745 1.11046 1.10846C1.82007 0.399485 2.78201 0.000846542 3.78524 0L104.214 0C105.217 0.00126895 106.179 0.400043 106.888 1.10893C107.598 1.81782 107.997 2.779 107.999 3.78184V28.2222C108.001 30.3059 106.3 32 104.215 32Z" fill="#DCDCDC"/>
<path d="M107.284 28.2222C107.284 28.625 107.205 29.0238 107.05 29.3958C106.896 29.7679 106.67 30.1059 106.385 30.3905C106.1 30.6752 105.762 30.9009 105.389 31.0547C105.017 31.2085 104.618 31.2875 104.215 31.2871H3.78575C2.97176 31.2879 2.19077 30.9655 1.61452 30.3908C1.03827 29.816 0.713951 29.036 0.712891 28.2222V3.78112C0.713951 2.96699 1.03814 2.18655 1.61428 1.61116C2.19041 1.03578 2.9714 0.712492 3.78575 0.71228H104.214C104.617 0.71228 105.017 0.791664 105.389 0.945898C105.761 1.10013 106.1 1.32619 106.385 1.61117C106.67 1.89615 106.896 2.23446 107.05 2.60679C107.204 2.97911 107.283 3.37816 107.283 3.78112L107.284 28.2222Z" fill="black"/>
<path d="M24.1156 15.8316C24.0924 13.2525 26.228 11.9977 26.3256 11.9393C25.1162 10.1764 23.2416 9.93554 22.5828 9.91633C21.0083 9.75069 19.4811 10.8582 18.6791 10.8582C17.861 10.8582 16.626 9.93234 15.2949 9.95955C13.5819 9.98595 11.9795 10.9774 11.1006 12.517C9.28682 15.6563 10.6396 20.2696 12.3773 22.8071C13.2466 24.0506 14.2623 25.4374 15.5918 25.3886C16.8925 25.3358 17.3784 24.5604 18.948 24.5604C20.5033 24.5604 20.9595 25.3886 22.3155 25.3574C23.7114 25.3358 24.5903 24.109 25.4291 22.8551C26.4337 21.4315 26.8371 20.0279 26.8531 19.9559C26.8211 19.9447 24.1428 18.922 24.1156 15.8316ZM21.5542 8.24708C22.2538 7.37243 22.7325 6.18251 22.5996 4.97498C21.5871 5.01979 20.3208 5.67517 19.5916 6.5306C18.9464 7.28441 18.3701 8.51995 18.519 9.68187C19.6564 9.76669 20.8242 9.10811 21.5542 8.24708Z" fill="white"/>
<path d="M42.9557 25.2102H41.138L40.1422 22.0821H36.6812L35.7326 25.2102H33.9629L37.3927 14.5608H39.5107L42.9557 25.2102ZM39.8421 20.7697L38.9416 17.989C38.8463 17.7049 38.667 17.0359 38.4045 15.9828H38.3725C38.2668 16.4358 38.0979 17.1047 37.8666 17.989L36.9813 20.7697H39.8421ZM51.7589 21.2763C51.7589 22.5822 51.4043 23.6145 50.6943 24.3723C50.0588 25.0469 49.2688 25.3838 48.3266 25.3838C47.3093 25.3838 46.5777 25.0213 46.1335 24.2947V28.3238H44.4269V20.0552C44.4269 19.2349 44.4053 18.3939 44.3637 17.5313H45.8645L45.9598 18.7484H45.9918C46.5609 17.8313 47.4246 17.3728 48.5836 17.3728C49.4897 17.3728 50.2461 17.7305 50.8512 18.4467C51.4555 19.1645 51.7589 20.1072 51.7589 21.2763ZM50.0204 21.3387C50.0204 20.5913 49.8523 19.9751 49.5145 19.4894C49.1455 18.9845 48.65 18.7316 48.0289 18.7316C47.6079 18.7316 47.2252 18.8724 46.8835 19.1501C46.5409 19.4302 46.3168 19.7959 46.2119 20.2488C46.1651 20.4182 46.1385 20.5925 46.1327 20.7681V22.0493C46.1327 22.6071 46.304 23.0784 46.6465 23.4641C46.9891 23.8482 47.4342 24.041 47.9817 24.041C48.6244 24.041 49.1247 23.7922 49.4825 23.2984C49.8411 22.8031 50.0204 22.1501 50.0204 21.3387ZM60.5933 21.2763C60.5933 22.5822 60.2387 23.6145 59.5287 24.3723C58.8923 25.0469 58.1031 25.3838 57.1602 25.3838C56.1429 25.3838 55.4113 25.0213 54.967 24.2947V28.3238H53.2605V20.0552C53.2605 19.2349 53.2389 18.3939 53.1973 17.5313H54.6981L54.7933 18.7484H54.8254C55.3937 17.8313 56.2573 17.3728 57.4172 17.3728C58.3224 17.3728 59.0788 17.7305 59.6856 18.4467C60.2891 19.1645 60.5933 20.1072 60.5933 21.2763ZM58.8539 21.3387C58.8539 20.5913 58.685 19.9751 58.3473 19.4894C57.9783 18.9845 57.4844 18.7316 56.8633 18.7316C56.4422 18.7316 56.0596 18.8724 55.7162 19.1501C55.3737 19.4302 55.1503 19.7959 55.0455 20.2488C54.9934 20.4601 54.9654 20.6321 54.9654 20.7681V22.0493C54.9654 22.6071 55.1375 23.0784 55.4785 23.4641C55.8211 23.8474 56.2661 24.041 56.8152 24.041C57.4588 24.041 57.959 23.7922 58.316 23.2984C58.6746 22.8031 58.8539 22.1501 58.8539 21.3387ZM70.4706 22.2229C70.4706 23.1296 70.1536 23.8666 69.5237 24.4356C68.8305 25.0565 67.8628 25.3678 66.6221 25.3678C65.4759 25.3678 64.557 25.147 63.8638 24.7044L64.2584 23.2824C65.0068 23.7258 65.8289 23.9466 66.7238 23.9466C67.3673 23.9466 67.8676 23.801 68.2246 23.5121C68.5824 23.2224 68.7633 22.8351 68.7633 22.3518C68.7633 21.9189 68.6136 21.5564 68.3198 21.2611C68.0245 20.9666 67.5362 20.6921 66.8502 20.4401C64.9852 19.7447 64.0519 18.7276 64.0519 17.3896C64.0519 16.5158 64.3817 15.8004 65.0397 15.241C65.6976 14.6825 66.5701 14.4032 67.6555 14.4032C68.6248 14.4032 69.4324 14.572 70.0736 14.9089L69.6454 16.2997C69.0418 15.9732 68.3607 15.81 67.5987 15.81C66.9967 15.81 66.5245 15.958 66.1867 16.2525C65.9025 16.5158 65.7585 16.8367 65.7585 17.2176C65.7585 17.6377 65.9225 17.9866 66.2491 18.2603C66.5325 18.5123 67.0495 18.7868 67.7972 19.0813C68.7144 19.451 69.3884 19.8815 69.8198 20.376C70.2545 20.8706 70.4706 21.4875 70.4706 22.2229ZM76.1273 18.8116H74.2462V22.5398C74.2462 23.4881 74.5776 23.961 75.242 23.961C75.5469 23.961 75.7999 23.9354 76 23.8818L76.0472 25.1774C75.711 25.303 75.2684 25.3662 74.7201 25.3662C74.0461 25.3662 73.5194 25.1606 73.1392 24.7492C72.7606 24.3379 72.5701 23.6489 72.5701 22.6791V18.8084H71.4495V17.5281H72.5701V16.1221L74.2462 15.6163V17.5281H76.1273V18.8116ZM84.5974 21.3075C84.5974 22.4878 84.2596 23.4569 83.5857 24.2147C82.8805 24.9949 81.9424 25.3838 80.773 25.3838C79.6444 25.3838 78.7471 25.0101 78.0779 24.2635C77.4087 23.5153 77.0742 22.5726 77.0742 21.4355C77.0742 20.2456 77.4199 19.2709 78.1091 18.5131C78.7999 17.7545 79.73 17.3752 80.8994 17.3752C82.0264 17.3752 82.9317 17.7497 83.6169 18.4971C84.2716 19.2221 84.5974 20.1584 84.5974 21.3075ZM82.8285 21.3467C82.8285 20.6433 82.6764 20.0399 82.3714 19.535C82.0136 18.9252 81.5013 18.6204 80.8378 18.6204C80.1542 18.6204 79.6299 18.9252 79.273 19.535C78.9672 20.0399 78.8151 20.6537 78.8151 21.3787C78.8151 22.0829 78.9672 22.6879 79.273 23.1912C79.642 23.801 80.1566 24.1059 80.8234 24.1059C81.4757 24.1059 81.9872 23.7946 82.357 23.176C82.6708 22.6591 82.8285 22.0517 82.8285 21.3467ZM90.1468 19.0317C89.9693 18.9996 89.7893 18.9838 89.6089 18.9845C89.0086 18.9845 88.5444 19.2101 88.2178 19.6646C87.9344 20.0648 87.7919 20.5705 87.7919 21.1811V25.2102H86.0854V19.9495C86.0869 19.1434 86.0704 18.3374 86.0358 17.5321H87.5222L87.5846 19.0013H87.6319C87.8128 18.4963 88.0961 18.089 88.4851 17.7841C88.8412 17.5177 89.2738 17.3734 89.7186 17.3728C89.8763 17.3728 90.0188 17.384 90.1452 17.404L90.1468 19.0317ZM97.7789 21.0074C97.7833 21.2668 97.7624 21.5259 97.7165 21.7812H92.5969C92.6162 22.5398 92.8643 23.1208 93.3397 23.5209C93.7712 23.8778 94.3291 24.0571 95.0142 24.0571C95.7723 24.0571 96.4638 23.937 97.0858 23.6946L97.3531 24.8781C96.6263 25.195 95.7683 25.3526 94.7781 25.3526C93.5871 25.3526 92.6522 25.0021 91.9718 24.3027C91.293 23.6025 90.9529 22.6615 90.9529 21.4827C90.9529 20.3256 91.269 19.3614 91.9022 18.5923C92.5649 17.7713 93.4606 17.3608 94.5876 17.3608C95.6946 17.3608 96.5327 17.7713 97.1018 18.5923C97.5524 19.2429 97.7789 20.0496 97.7789 21.0074ZM96.1517 20.5649C96.1637 20.0584 96.0516 19.6222 95.8203 19.2533C95.5249 18.778 95.0703 18.5411 94.4611 18.5411C93.9032 18.5411 93.4486 18.7724 93.1028 19.2365C92.8187 19.6054 92.6498 20.0488 92.5977 20.5633L96.1517 20.5649Z" fill="white"/>
<path d="M36.188 10.7958C35.7133 10.7958 35.3027 10.7726 34.9609 10.7333V5.58473C35.439 5.51091 35.922 5.47452 36.4057 5.4759C38.3628 5.4759 39.2641 6.43856 39.2641 8.0078C39.2641 9.81789 38.1995 10.7958 36.188 10.7958ZM36.4746 6.13608C36.2104 6.13608 35.9855 6.15209 35.799 6.1905V10.1044C35.8998 10.1204 36.0935 10.1276 36.3657 10.1276C37.648 10.1276 38.378 9.39778 38.378 8.031C38.378 6.81227 37.7176 6.13608 36.4746 6.13608ZM42.0728 10.835C40.9698 10.835 40.255 10.0115 40.255 8.89364C40.255 7.72852 40.985 6.89789 42.1352 6.89789C43.2222 6.89789 43.953 7.68211 43.953 8.83202C43.953 10.0115 43.1998 10.835 42.0728 10.835ZM42.1048 7.51086C41.4989 7.51086 41.1107 8.07741 41.1107 8.86963C41.1107 9.64665 41.5069 10.2132 42.0968 10.2132C42.6867 10.2132 43.0829 9.60744 43.0829 8.85363C43.0829 8.08542 42.6947 7.51086 42.1048 7.51086ZM50.2428 6.97551L49.0621 10.7493H48.2929L47.8039 9.1105C47.6823 8.70963 47.581 8.30286 47.5005 7.89176H47.4845C47.4229 8.30308 47.306 8.71519 47.1819 9.1105L46.6617 10.7493H45.8844L44.7734 6.97551H45.6355L46.0629 8.76961C46.1638 9.19692 46.2486 9.60023 46.3191 9.98114H46.3351C46.3967 9.66345 46.4976 9.26654 46.6456 8.77761L47.1819 6.97631H47.8655L48.3786 8.7392C48.5026 9.16651 48.6035 9.58583 48.6819 9.98194H48.7044C48.7588 9.59383 48.8444 9.18172 48.9605 8.7392L49.4191 6.97631L50.2428 6.97551ZM54.5891 10.7493H53.7503V8.58235C53.7503 7.91497 53.4941 7.58048 52.9891 7.58048C52.492 7.58048 52.1502 8.0078 52.1502 8.50473V10.7493H51.3114V8.05421C51.3114 7.72052 51.3034 7.36282 51.2801 6.97471H52.0181L52.0574 7.55727H52.0806C52.3063 7.15396 52.7641 6.89789 53.2772 6.89789C54.0696 6.89789 54.5899 7.50366 54.5899 8.48953L54.5891 10.7493ZM56.9024 10.7493H56.0627V5.24384H56.9024V10.7493ZM59.9608 10.835C58.8586 10.835 58.143 10.0115 58.143 8.89364C58.143 7.72852 58.873 6.89789 60.0225 6.89789C61.1102 6.89789 61.8402 7.68211 61.8402 8.83202C61.841 10.0115 61.087 10.835 59.9608 10.835ZM59.992 7.51086C59.3861 7.51086 58.9979 8.07741 58.9979 8.86963C58.9979 9.64665 59.3949 10.2132 59.9832 10.2132C60.574 10.2132 60.9694 9.60744 60.9694 8.85363C60.9702 8.08542 60.5828 7.51086 59.992 7.51086ZM65.1476 10.7493L65.0868 10.3148H65.0644C64.8082 10.6645 64.4344 10.835 63.9606 10.835C63.2842 10.835 62.804 10.3612 62.804 9.72427C62.804 8.79281 63.6116 8.31108 65.01 8.31108V8.24146C65.01 7.74452 64.7466 7.49565 64.2263 7.49565C63.8541 7.49565 63.5276 7.58928 63.2402 7.77573L63.0697 7.22438C63.4187 7.00672 63.8541 6.89789 64.3656 6.89789C65.3517 6.89789 65.8496 7.41803 65.8496 8.45912V9.8491C65.8496 10.23 65.8664 10.5253 65.904 10.7502L65.1476 10.7493ZM65.0324 8.86963C64.1007 8.86963 63.6332 9.09529 63.6332 9.63064C63.6332 10.0268 63.8741 10.2204 64.2087 10.2204C64.6354 10.2204 65.0324 9.89472 65.0324 9.45219V8.86963ZM69.923 10.7493L69.8838 10.1436H69.8606C69.6196 10.6013 69.2146 10.835 68.6487 10.835C67.7386 10.835 67.0647 10.0348 67.0647 8.90884C67.0647 7.72852 67.7634 6.89709 68.7176 6.89709C69.2226 6.89709 69.5804 7.06754 69.7821 7.41003H69.7989V5.24384H70.6386V9.73227C70.6386 10.0972 70.6474 10.4389 70.6698 10.7493H69.923ZM69.7989 8.52874C69.7989 8.00059 69.4491 7.55007 68.9153 7.55007C68.2933 7.55007 67.9131 8.10142 67.9131 8.87763C67.9131 9.63864 68.3077 10.1596 68.8985 10.1596C69.4259 10.1596 69.7989 9.70106 69.7989 9.15771V8.52874ZM75.9623 10.835C74.8601 10.835 74.1453 10.0115 74.1453 8.89364C74.1453 7.72852 74.8753 6.89789 76.0247 6.89789C77.1125 6.89789 77.8425 7.68211 77.8425 8.83202C77.8433 10.0115 77.0901 10.835 75.9623 10.835ZM75.9935 7.51086C75.3884 7.51086 75.0001 8.07741 75.0001 8.86963C75.0001 9.64665 75.3964 10.2132 75.9855 10.2132C76.5762 10.2132 76.9716 9.60744 76.9716 8.85363C76.9732 8.08542 76.585 7.51086 75.9935 7.51086ZM82.3537 10.7493H81.5141V8.58235C81.5141 7.91497 81.2579 7.58048 80.7528 7.58048C80.2558 7.58048 79.9148 8.0078 79.9148 8.50473V10.7493H79.0751V8.05421C79.0751 7.72052 79.0671 7.36282 79.0439 6.97471H79.7819L79.8211 7.55727H79.8444C80.0693 7.15396 80.5279 6.89709 81.0402 6.89709C81.8326 6.89709 82.3537 7.50286 82.3537 8.48873V10.7493ZM87.9976 7.60449H87.0747V9.43699C87.0747 9.90352 87.2363 10.1364 87.5629 10.1364C87.711 10.1364 87.8351 10.1204 87.9351 10.0972L87.9583 10.7341C87.7958 10.7966 87.5781 10.8278 87.3076 10.8278C86.6464 10.8278 86.251 10.4629 86.251 9.50741V7.60449H85.7003V6.97551H86.251V6.28412L87.0747 6.03525V6.97471H87.9976V7.60449ZM92.4384 10.7493H91.6003V8.59836C91.6003 7.92297 91.345 7.58128 90.8391 7.58128C90.4045 7.58128 89.9994 7.87656 89.9994 8.47432V10.7493H89.1614V5.24384H89.9994V7.51086H90.0162C90.2804 7.09955 90.663 6.89709 91.1513 6.89709C91.9501 6.89709 92.4384 7.51806 92.4384 8.50473V10.7493ZM96.988 9.06409H94.4707C94.4867 9.77868 94.9597 10.182 95.6601 10.182C96.0323 10.182 96.3749 10.1196 96.6774 10.0035L96.8079 10.5861C96.4509 10.7413 96.0307 10.819 95.5416 10.819C94.361 10.819 93.6622 10.0732 93.6622 8.91685C93.6622 7.75973 94.3778 6.88989 95.4472 6.88989C96.4117 6.88989 97.0168 7.60449 97.0168 8.68398C97.0223 8.81138 97.0126 8.93896 96.988 9.06409ZM96.2188 8.46632C96.2188 7.88376 95.925 7.47245 95.3887 7.47245C94.9069 7.47245 94.5259 7.89176 94.4715 8.46632H96.2188Z" fill="white"/>
</svg>
