<svg width="108" height="32" viewBox="0 0 108 32" fill="none" xmlns="http://www.w3.org/2000/svg">
<path d="M103.989 31.9972H4C1.80086 31.9972 0 30.1964 0 27.9972V4.00001C0 1.80086 1.80086 0 4 0H103.989C106.188 0 107.989 1.80086 107.989 4.00001V27.9972C107.989 30.1992 106.188 31.9972 103.989 31.9972Z" fill="black"/>
<path d="M103.989 0.642983C105.841 0.642983 107.349 2.15081 107.349 4.00287V28.0001C107.349 29.8521 105.841 31.3599 103.989 31.3599H4C2.14794 31.3599 0.640115 29.8521 0.640115 28.0001V4.00287C0.640115 2.15081 2.14794 0.642983 4 0.642983H103.989ZM103.989 0.00286865H4C1.80086 0.00286865 0 1.80372 0 4.00287V28.0001C0 30.1992 1.80086 32.0001 4 32.0001H103.989C106.188 32.0001 107.989 30.1992 107.989 28.0001V4.00287C107.989 1.80088 106.188 0.00286865 103.989 0.00286865Z" fill="#DCDCDC"/>
<path d="M37.9315 8.19651C37.9315 8.86792 37.7324 9.39992 37.3341 9.79821C36.8817 10.2705 36.2957 10.5095 35.5702 10.5095C34.8761 10.5095 34.2871 10.2705 33.8035 9.78968C33.3199 9.30888 33.0752 8.71429 33.0752 8.00305C33.0752 7.29181 33.317 6.69721 33.8035 6.21642C34.2871 5.73562 34.8761 5.49664 35.5702 5.49664C35.9145 5.49664 36.2416 5.56492 36.5546 5.69863C36.8675 5.83235 37.1179 6.01158 37.3056 6.23349L36.8846 6.65454C36.566 6.27616 36.1278 6.08555 35.5702 6.08555C35.0638 6.08555 34.6285 6.26194 34.2587 6.61756C33.8889 6.97317 33.7068 7.43406 33.7068 8.00305C33.7068 8.56919 33.8917 9.03292 34.2587 9.38854C34.6285 9.74416 35.0638 9.92055 35.5702 9.92055C36.1051 9.92055 36.5517 9.74131 36.9102 9.38569C37.1435 9.15241 37.2772 8.82808 37.3113 8.41272H35.5674V7.8352H37.8917C37.9202 7.96037 37.9315 8.07986 37.9315 8.19651Z" fill="white"/>
<path d="M41.6187 6.19078H39.4338V7.71282H41.4053V8.29035H39.4338V9.8124H41.6187V10.4013H38.8164V5.60187H41.6187V6.19078Z" fill="white"/>
<path d="M44.219 10.4013H43.6017V6.19078H42.2617V5.60187H45.559V6.19078H44.219V10.4013Z" fill="white"/>
<path d="M47.9463 10.4013V5.60187H48.5636V10.4013H47.9463Z" fill="white"/>
<path d="M51.2972 10.4013H50.6798V6.19078H49.3398V5.60187H52.6371V6.19078H51.2972V10.4013Z" fill="white"/>
<path d="M58.882 9.7812C58.4097 10.2677 57.8237 10.5095 57.121 10.5095C56.4183 10.5095 55.8322 10.2677 55.3628 9.7812C54.8905 9.29756 54.6572 8.70297 54.6572 8.00311C54.6572 7.30325 54.8934 6.70865 55.3628 6.22501C55.835 5.73852 56.4211 5.4967 57.121 5.4967C57.818 5.4967 58.404 5.74137 58.8791 6.22786C59.3514 6.71434 59.5904 7.30609 59.5904 8.00311C59.5875 8.70297 59.3514 9.29472 58.882 9.7812ZM55.818 9.38006C56.1736 9.73853 56.6089 9.92061 57.121 9.92061C57.6359 9.92061 58.0712 9.74137 58.424 9.38006C58.7796 9.0216 58.9588 8.56072 58.9588 8.00311C58.9588 7.4455 58.7796 6.98462 58.424 6.62615C58.0683 6.26769 57.633 6.08561 57.121 6.08561C56.606 6.08561 56.1736 6.26484 55.818 6.62615C55.4624 6.98462 55.286 7.4455 55.286 8.00311C55.286 8.56072 55.4624 9.01876 55.818 9.38006Z" fill="white"/>
<path d="M60.4521 10.4013V5.60187H61.2032L63.5361 9.33445H63.5617L63.5361 8.40984V5.60187H64.1534V10.4013H63.5105L61.0695 6.48665H61.0439L61.0695 7.41126V10.4013H60.4521Z" fill="white"/>
<path d="M54.5039 17.3997C52.6234 17.3997 51.09 18.8307 51.09 20.8023C51.09 22.7625 52.6234 24.2048 54.5039 24.2048C56.3844 24.2048 57.9179 22.7625 57.9179 20.8023C57.9179 18.8307 56.3844 17.3997 54.5039 17.3997ZM54.5039 22.8649C53.474 22.8649 52.5836 22.0142 52.5836 20.8023C52.5836 19.579 53.474 18.7397 54.5039 18.7397C55.5338 18.7397 56.4243 19.5761 56.4243 20.8023C56.4243 22.0142 55.5338 22.8649 54.5039 22.8649ZM47.053 17.3997C45.1725 17.3997 43.639 18.8307 43.639 20.8023C43.639 22.7625 45.1725 24.2048 47.053 24.2048C48.9335 24.2048 50.4669 22.7625 50.4669 20.8023C50.4698 18.8307 48.9363 17.3997 47.053 17.3997ZM47.053 22.8649C46.0231 22.8649 45.1326 22.0142 45.1326 20.8023C45.1326 19.579 46.0231 18.7397 47.053 18.7397C48.0829 18.7397 48.9733 19.5761 48.9733 20.8023C48.9733 22.0142 48.0857 22.8649 47.053 22.8649ZM38.1909 18.4438V19.8862H41.6447C41.5423 20.697 41.272 21.2916 40.8595 21.7041C40.356 22.2077 39.5707 22.7596 38.1909 22.7596C36.0658 22.7596 34.4015 21.047 34.4015 18.9189C34.4015 16.7909 36.0629 15.0782 38.1909 15.0782C39.3375 15.0782 40.1767 15.5306 40.7941 16.1081L41.8126 15.0896C40.9506 14.2646 39.8012 13.633 38.1909 13.633C35.2777 13.633 32.8311 16.0028 32.8311 18.9161C32.8311 21.8293 35.2806 24.1992 38.1909 24.1992C39.7642 24.1992 40.9477 23.6842 41.8752 22.7169C42.8282 21.7639 43.1241 20.4239 43.1241 19.34C43.1241 19.0043 43.0985 18.697 43.0473 18.4381H38.1909V18.4438ZM74.4328 19.5647C74.1483 18.8051 73.2863 17.3997 71.5196 17.3997C69.7671 17.3997 68.3105 18.7795 68.3105 20.8023C68.3105 22.7084 69.7529 24.2048 71.6874 24.2048C73.2465 24.2048 74.1483 23.2518 74.5239 22.697L73.3631 21.9232C72.9762 22.4893 72.447 22.8649 71.6874 22.8649C70.9278 22.8649 70.3845 22.5178 70.0374 21.835L74.5864 19.9545L74.4328 19.5647ZM69.7955 20.6999C69.7557 19.3855 70.814 18.7141 71.5736 18.7141C72.1654 18.7141 72.669 19.01 72.8368 19.4367L69.7955 20.6999ZM66.0971 24H67.5907V14H66.0971V24ZM63.6476 18.1622H63.5964C63.2607 17.7639 62.6177 17.4026 61.8041 17.4026C60.1028 17.4026 58.5437 18.8962 58.5437 20.8165C58.5437 22.7226 60.1028 24.2048 61.8041 24.2048C62.6149 24.2048 63.2607 23.8435 63.5964 23.431H63.6476V23.9204C63.6476 25.2233 62.9506 25.9175 61.8297 25.9175C60.9136 25.9175 60.3474 25.2603 60.117 24.7056L58.814 25.2461C59.1867 26.148 60.1796 27.2575 61.8297 27.2575C63.5822 27.2575 65.0644 26.2276 65.0644 23.7127V17.6046H63.6476V18.1622ZM61.9349 22.8649C60.9051 22.8649 60.0402 22.0029 60.0402 20.8165C60.0402 19.6188 60.9051 18.7425 61.9349 18.7425C62.9534 18.7425 63.7529 19.6188 63.7529 20.8165C63.75 22.0029 62.9506 22.8649 61.9349 22.8649ZM81.4371 14H77.861V24H79.3546V20.2105H81.4399C83.0957 20.2105 84.7202 19.0128 84.7202 17.1038C84.7202 15.1949 83.09 14 81.4371 14ZM81.4741 18.8194H79.3517V15.3912H81.4741C82.5893 15.3912 83.2237 16.3158 83.2237 17.1038C83.2237 17.8805 82.5893 18.8194 81.4741 18.8194ZM90.6974 17.3826C89.6163 17.3826 88.4983 17.8578 88.0345 18.9132L89.3603 19.4652C89.6419 18.9132 90.1711 18.7312 90.723 18.7312C91.494 18.7312 92.2792 19.1949 92.2934 20.0171V20.1195C92.0232 19.9659 91.4456 19.7326 90.7372 19.7326C89.3091 19.7326 87.8553 20.5178 87.8553 21.9829C87.8553 23.3201 89.0246 24.1821 90.339 24.1821C91.3432 24.1821 91.8951 23.7326 92.2422 23.2034H92.2934V23.9744H93.733V20.1394C93.7358 18.3727 92.4101 17.3826 90.6974 17.3826ZM90.5182 22.862C90.0289 22.862 89.3461 22.6174 89.3461 22.0142C89.3461 21.2433 90.1939 20.9474 90.9279 20.9474C91.585 20.9474 91.8923 21.0896 92.2906 21.2831C92.1796 22.2077 91.3802 22.862 90.5182 22.862ZM98.9848 17.6017L97.275 21.9374H97.2237L95.4485 17.6017H93.8411L96.504 23.6615L94.9848 27.0327H96.541L100.646 17.6017H98.9848ZM85.5395 24H87.0331V14H85.5395V24Z" fill="white"/>
<path d="M8.34738 6.03145C8.1141 6.27896 7.97754 6.66018 7.97754 7.15521V24.8451C7.97754 25.3402 8.1141 25.7214 8.34738 25.9689L8.40713 26.0258L18.3161 16.1168V16.0002V15.8835L8.40713 5.97455L8.34738 6.03145Z" fill="url(#paint0_linear_7249_6196)"/>
<path d="M21.6214 19.4223L18.3184 16.1165V15.9998V15.8832L21.6214 12.5802L21.6953 12.6229L25.61 14.8476C26.728 15.4821 26.728 16.5233 25.61 17.1577L21.6953 19.3825L21.6214 19.4223Z" fill="url(#paint1_linear_7249_6196)"/>
<path d="M21.6953 19.3797L18.3183 15.9999L8.34961 25.9686C8.71945 26.3584 9.32543 26.4067 10.0111 26.017L21.6953 19.3797Z" fill="url(#paint2_linear_7249_6196)"/>
<path d="M21.6953 12.6233L10.0111 5.98312C9.32543 5.59337 8.71661 5.64173 8.34961 6.03149L18.3183 16.0002L21.6953 12.6233Z" fill="url(#paint3_linear_7249_6196)"/>
<path opacity="0.2" d="M21.6213 19.3059L10.0111 25.9034C9.36241 26.2732 8.78204 26.2476 8.40935 25.9119L8.34961 25.9716L8.40935 26.0285C8.78204 26.3642 9.36241 26.3898 10.0111 26.02L21.6953 19.3799L21.6213 19.3059Z" fill="black"/>
<path opacity="0.12" d="M8.34738 25.8522C8.1141 25.6047 7.97754 25.2235 7.97754 24.7285V24.8451C7.97754 25.3401 8.1141 25.7213 8.34738 25.9689L8.40713 25.9091L8.34738 25.8522Z" fill="black"/>
<path opacity="0.12" d="M25.6107 17.0383L21.6221 19.3057L21.696 19.3797L25.6107 17.1549C26.1683 16.8363 26.45 16.4181 26.45 15.9999C26.4016 16.3783 26.1171 16.7509 25.6107 17.0383Z" fill="black"/>
<path opacity="0.25" d="M10.0118 6.09973L25.6107 14.9618C26.1171 15.2491 26.4016 15.6218 26.4499 16.0002C26.4499 15.582 26.1711 15.1638 25.6107 14.8451L10.0118 5.98308C8.89371 5.34866 7.98048 5.87498 7.98048 7.15521V7.27185C7.97763 5.99162 8.89371 5.4653 10.0118 6.09973Z" fill="white"/>
<defs>
<linearGradient id="paint0_linear_7249_6196" x1="17.4389" y1="6.96903" x2="4.01463" y2="20.3933" gradientUnits="userSpaceOnUse">
<stop stop-color="#00A0FF"/>
<stop offset="0.00657445" stop-color="#00A1FF"/>
<stop offset="0.2601" stop-color="#00BEFF"/>
<stop offset="0.5122" stop-color="#00D2FF"/>
<stop offset="0.7604" stop-color="#00DFFF"/>
<stop offset="1" stop-color="#00E3FF"/>
</linearGradient>
<linearGradient id="paint1_linear_7249_6196" x1="27.0649" y1="16.001" x2="7.70973" y2="16.001" gradientUnits="userSpaceOnUse">
<stop stop-color="#FFE000"/>
<stop offset="0.4087" stop-color="#FFBD00"/>
<stop offset="0.7754" stop-color="#FFA500"/>
<stop offset="1" stop-color="#FF9C00"/>
</linearGradient>
<linearGradient id="paint2_linear_7249_6196" x1="19.8598" y1="17.8365" x2="1.65537" y2="36.0409" gradientUnits="userSpaceOnUse">
<stop stop-color="#FF3A44"/>
<stop offset="1" stop-color="#C31162"/>
</linearGradient>
<linearGradient id="paint3_linear_7249_6196" x1="5.8378" y1="0.14309" x2="13.9668" y2="8.27212" gradientUnits="userSpaceOnUse">
<stop stop-color="#32A071"/>
<stop offset="0.0685" stop-color="#2DA771"/>
<stop offset="0.4762" stop-color="#15CF74"/>
<stop offset="0.8009" stop-color="#06E775"/>
<stop offset="1" stop-color="#00F076"/>
</linearGradient>
</defs>
</svg>
