<svg width="311" height="133" viewBox="0 0 311 133" fill="none" xmlns="http://www.w3.org/2000/svg">
<path d="M96.4687 4.20924C94.2815 4.54175 24.8504 13.484 23.1268 13.7782C21.4032 14.0725 20.3334 14.0754 20.3334 16.3339V113.985C20.3334 116.481 21.5815 116.883 24.8504 117.135C27.1683 117.313 89.0576 123.597 95.6961 124.088C98.3112 124.282 98.4895 123.494 98.4895 121.889V5.87332C98.4895 4.10698 98.0735 3.96528 96.4687 4.20924Z" stroke="#7F8FA4"/>
<path d="M98.0734 4.20898C98.0734 4.20898 103 4.35052 104 4.45052C104.66 4.51647 105.337 4.70113 105.337 6.46747C105.337 10.3307 105.337 118.726 105.337 121.222C105.337 122.827 105 123.451 103.667 123.784C102.333 124.117 97 124.117 97 124.117" stroke="#7F8FA4"/>
<path d="M101.782 4.38379C101.782 4.38379 107.166 4.54385 109.474 4.78384C110.115 4.85041 111.667 5.61383 111.667 7.39688C111.667 11.2967 111.667 117.597 111.667 120.117C111.667 121.737 111.333 122.784 109.333 123.117C107.333 123.45 103 123.784 103 123.784" stroke="#7F8FA4"/>
<path d="M106.333 22.4079L106.333 35.2549C106.333 36.6613 107.419 37.6886 108.757 37.5481C110.094 37.4075 111.18 36.152 111.18 34.7456L111.18 21.8985C111.18 20.4921 110.094 19.4648 108.757 19.6054C107.419 19.746 106.333 21.0015 106.333 22.4079Z" fill="#293238" stroke="#A7C3D4" stroke-width="0.5"/>
<path d="M111 34.1908C111 35.5234 110.42 36.7326 109.483 36.8311L109.483 19.9165C110.5 20 111 21.2025 111 22.5351L111 34.1908Z" fill="#131313" fill-opacity="0.6"/>
<g filter="url(#filter0_d_788_11791)">
<path d="M106.576 22.5474L106.576 30.9737C106.576 32.3801 107.661 33.4074 108.999 33.2668C110.336 33.1262 111.422 31.8707 111.422 30.4643L111.422 22.038C111.422 20.6316 110.336 19.6043 108.999 19.7449C107.661 19.8855 106.576 21.141 106.576 22.5474Z" fill="#455765"/>
<path d="M106.824 30.9475L106.824 22.5212C106.824 21.2423 107.809 20.1199 108.999 19.9949C110.189 19.8698 111.173 20.7852 111.173 22.0642L111.173 30.4905C111.173 31.7694 110.189 32.8918 108.999 33.0168C107.809 33.1419 106.824 32.2265 106.824 30.9475Z" stroke="#A7C3D4" stroke-width="0.5"/>
</g>
<path d="M109.726 21.7266C109.726 22.1311 109.401 22.4917 108.999 22.534C108.597 22.5762 108.272 22.2839 108.272 21.8794C108.272 21.475 108.597 21.1144 108.999 21.0721C109.401 21.0298 109.726 21.3222 109.726 21.7266Z" fill="#DADADA"/>
<path fill-rule="evenodd" clip-rule="evenodd" d="M159.722 4.5C154.199 4.5 149.722 8.97715 149.722 14.5V48.4632L119.022 27.4564C117.213 26.2187 115.018 28.3722 116.221 30.2044L149.722 81.2425V114.5C149.722 120.023 154.199 124.5 159.722 124.5H259.722C265.245 124.5 269.722 120.023 269.722 114.5V14.5C269.722 8.97715 265.245 4.5 259.722 4.5H159.722Z" fill="#131313" fill-opacity="0.2"/>
<path d="M195.066 24.5V15.7727H196.383V19.5653H200.734V15.7727H202.055V24.5H200.734V20.6946H196.383V24.5H195.066ZM206.627 24.6321C206.014 24.6321 205.478 24.4915 205.021 24.2102C204.563 23.929 204.208 23.5355 203.955 23.0298C203.703 22.5241 203.576 21.9332 203.576 21.2571C203.576 20.5781 203.703 19.9844 203.955 19.4759C204.208 18.9673 204.563 18.5724 205.021 18.2912C205.478 18.0099 206.014 17.8693 206.627 17.8693C207.241 17.8693 207.776 18.0099 208.234 18.2912C208.691 18.5724 209.046 18.9673 209.299 19.4759C209.552 19.9844 209.678 20.5781 209.678 21.2571C209.678 21.9332 209.552 22.5241 209.299 23.0298C209.046 23.5355 208.691 23.929 208.234 24.2102C207.776 24.4915 207.241 24.6321 206.627 24.6321ZM206.632 23.5625C207.029 23.5625 207.359 23.4574 207.62 23.2472C207.882 23.0369 208.075 22.7571 208.2 22.4077C208.328 22.0582 208.392 21.6733 208.392 21.2528C208.392 20.8352 208.328 20.4517 208.2 20.1023C208.075 19.75 207.882 19.4673 207.62 19.2543C207.359 19.0412 207.029 18.9347 206.632 18.9347C206.231 18.9347 205.899 19.0412 205.634 19.2543C205.373 19.4673 205.178 19.75 205.051 20.1023C204.926 20.4517 204.863 20.8352 204.863 21.2528C204.863 21.6733 204.926 22.0582 205.051 22.4077C205.178 22.7571 205.373 23.0369 205.634 23.2472C205.899 23.4574 206.231 23.5625 206.632 23.5625ZM211.101 24.5V17.9545H212.324V19.0199H212.405C212.541 18.6591 212.764 18.3778 213.074 18.1761C213.383 17.9716 213.754 17.8693 214.186 17.8693C214.623 17.8693 214.99 17.9716 215.285 18.1761C215.584 18.3807 215.804 18.6619 215.946 19.0199H216.014C216.17 18.6705 216.419 18.392 216.76 18.1847C217.101 17.9744 217.507 17.8693 217.979 17.8693C218.572 17.8693 219.057 18.0554 219.432 18.4276C219.809 18.7997 219.998 19.3608 219.998 20.1108V24.5H218.724V20.2301C218.724 19.7869 218.604 19.4659 218.362 19.267C218.121 19.0682 217.832 18.9688 217.497 18.9688C217.082 18.9688 216.76 19.0966 216.53 19.3523C216.3 19.6051 216.184 19.9304 216.184 20.3281V24.5H214.915V20.1491C214.915 19.794 214.804 19.5085 214.582 19.2926C214.361 19.0767 214.072 18.9688 213.717 18.9688C213.476 18.9688 213.253 19.0327 213.048 19.1605C212.846 19.2855 212.683 19.4602 212.558 19.6847C212.436 19.9091 212.375 20.169 212.375 20.4645V24.5H211.101ZM224.527 24.6321C223.882 24.6321 223.327 24.4943 222.861 24.2188C222.398 23.9403 222.04 23.5497 221.787 23.0469C221.537 22.5412 221.412 21.9489 221.412 21.2699C221.412 20.5994 221.537 20.0085 221.787 19.4972C222.04 18.9858 222.392 18.5866 222.844 18.2997C223.298 18.0128 223.83 17.8693 224.438 17.8693C224.807 17.8693 225.165 17.9304 225.512 18.0526C225.858 18.1747 226.169 18.3665 226.445 18.6278C226.72 18.8892 226.938 19.2287 227.097 19.6463C227.256 20.0611 227.335 20.5653 227.335 21.1591V21.6108H222.132V20.6562H226.087C226.087 20.321 226.019 20.0241 225.882 19.7656C225.746 19.5043 225.554 19.2983 225.307 19.1477C225.063 18.9972 224.776 18.9219 224.446 18.9219C224.088 18.9219 223.776 19.0099 223.509 19.1861C223.244 19.3594 223.04 19.5866 222.895 19.8679C222.753 20.1463 222.682 20.4489 222.682 20.7756V21.5213C222.682 21.9588 222.759 22.331 222.912 22.6378C223.068 22.9446 223.286 23.179 223.564 23.3409C223.843 23.5 224.168 23.5795 224.54 23.5795C224.781 23.5795 225.002 23.5455 225.2 23.4773C225.399 23.4062 225.571 23.3011 225.716 23.1619C225.861 23.0227 225.972 22.8509 226.048 22.6463L227.254 22.8636C227.158 23.2187 226.985 23.5298 226.735 23.7969C226.487 24.0611 226.176 24.267 225.801 24.4148C225.429 24.5597 225.004 24.6321 224.527 24.6321Z" fill="white"/>
<path d="M201 41.5793L201 87.0427C201 92.8151 205.48 97.5 211 97.5C216.52 97.5 221 92.8151 221 87.0427L221 41.5793C221 35.8068 216.52 31.1219 211 31.1219C205.48 31.1219 201 35.8068 201 41.5793Z" fill="#293238" stroke="#A7C3D4" stroke-width="2"/>
<g filter="url(#filter1_d_788_11791)">
<path d="M201 41.0706L201 67.0427C201 72.8151 205.48 77.5 211 77.5C216.52 77.5 221 72.8151 221 67.0427L221 41.0706C221 35.2982 216.52 30.6133 211 30.6133C205.48 30.6133 201 35.2982 201 41.0706Z" fill="#455765"/>
<path d="M201.5 67.0427L201.5 41.0706C201.5 35.553 205.777 31.1133 211 31.1133C216.223 31.1133 220.5 35.553 220.5 41.0706L220.5 67.0427C220.5 72.5603 216.223 77 211 77C205.777 77 201.5 72.5603 201.5 67.0427Z" stroke="#A7C3D4"/>
</g>
<path d="M215.094 41.0635C215.094 43.2768 213.307 45.0635 211.094 45.0635C208.88 45.0635 207.094 43.2768 207.094 41.0635C207.094 38.8501 208.88 37.0635 211.094 37.0635C213.307 37.0635 215.094 38.8501 215.094 41.0635Z" fill="#DADADA"/>
<path d="M194.585 105.14V104.006H201.339V105.14H198.616V112.733H197.304V105.14H194.585ZM202.05 112.733V106.188H203.281V107.228H203.35C203.469 106.875 203.679 106.598 203.98 106.397C204.284 106.192 204.628 106.09 205.012 106.09C205.091 106.09 205.185 106.093 205.293 106.098C205.404 106.104 205.49 106.111 205.553 106.12V107.339C205.502 107.324 205.411 107.309 205.28 107.292C205.149 107.272 205.019 107.262 204.888 107.262C204.587 107.262 204.318 107.326 204.083 107.454C203.85 107.579 203.665 107.753 203.529 107.978C203.392 108.199 203.324 108.452 203.324 108.736V112.733H202.05ZM208.502 112.878C208.087 112.878 207.712 112.802 207.377 112.648C207.041 112.492 206.776 112.266 206.58 111.971C206.387 111.675 206.29 111.313 206.29 110.884C206.29 110.515 206.361 110.211 206.503 109.972C206.645 109.733 206.837 109.544 207.078 109.405C207.32 109.266 207.59 109.161 207.888 109.09C208.186 109.019 208.49 108.965 208.8 108.928C209.192 108.883 209.51 108.846 209.754 108.817C209.999 108.786 210.176 108.736 210.287 108.668C210.398 108.6 210.453 108.489 210.453 108.336V108.306C210.453 107.934 210.348 107.645 210.138 107.441C209.931 107.236 209.621 107.134 209.209 107.134C208.78 107.134 208.442 107.229 208.195 107.419C207.95 107.607 207.781 107.816 207.688 108.046L206.49 107.773C206.632 107.375 206.84 107.054 207.112 106.81C207.388 106.563 207.705 106.384 208.063 106.273C208.421 106.16 208.797 106.103 209.192 106.103C209.453 106.103 209.73 106.134 210.023 106.196C210.318 106.256 210.594 106.367 210.85 106.529C211.108 106.691 211.32 106.922 211.485 107.223C211.649 107.522 211.732 107.91 211.732 108.387V112.733H210.487V111.839H210.436C210.354 112.003 210.23 112.165 210.066 112.324C209.901 112.483 209.689 112.616 209.431 112.721C209.172 112.826 208.862 112.878 208.502 112.878ZM208.779 111.856C209.131 111.856 209.432 111.786 209.682 111.647C209.935 111.508 210.127 111.326 210.257 111.101C210.391 110.874 210.458 110.631 210.458 110.373V109.529C210.412 109.574 210.324 109.617 210.193 109.657C210.066 109.694 209.919 109.726 209.754 109.755C209.59 109.78 209.429 109.804 209.273 109.827C209.117 109.847 208.986 109.864 208.881 109.878C208.634 109.91 208.408 109.962 208.203 110.036C208.002 110.11 207.84 110.216 207.718 110.356C207.598 110.492 207.539 110.674 207.539 110.901C207.539 111.216 207.655 111.455 207.888 111.617C208.121 111.776 208.418 111.856 208.779 111.856ZM218.794 106.188L216.42 112.733H215.057L212.679 106.188H214.047L215.704 111.225H215.773L217.426 106.188H218.794ZM222.59 112.866C221.945 112.866 221.389 112.728 220.923 112.452C220.46 112.174 220.102 111.783 219.85 111.28C219.6 110.775 219.475 110.182 219.475 109.503C219.475 108.833 219.6 108.242 219.85 107.731C220.102 107.219 220.455 106.82 220.906 106.533C221.361 106.246 221.892 106.103 222.5 106.103C222.869 106.103 223.227 106.164 223.574 106.286C223.921 106.408 224.232 106.6 224.507 106.861C224.783 107.123 225 107.462 225.159 107.88C225.318 108.294 225.398 108.799 225.398 109.392V109.844H220.195V108.89H224.149C224.149 108.554 224.081 108.258 223.945 107.999C223.808 107.738 223.617 107.532 223.369 107.381C223.125 107.231 222.838 107.155 222.509 107.155C222.151 107.155 221.838 107.243 221.571 107.419C221.307 107.593 221.102 107.82 220.958 108.101C220.816 108.38 220.744 108.682 220.744 109.009V109.755C220.744 110.192 220.821 110.564 220.975 110.871C221.131 111.178 221.348 111.412 221.627 111.574C221.905 111.733 222.23 111.813 222.602 111.813C222.844 111.813 223.064 111.779 223.263 111.711C223.462 111.64 223.634 111.535 223.779 111.395C223.923 111.256 224.034 111.084 224.111 110.88L225.317 111.097C225.22 111.452 225.047 111.763 224.797 112.03C224.55 112.294 224.239 112.5 223.864 112.648C223.492 112.793 223.067 112.866 222.59 112.866ZM228.086 104.006V112.733H226.812V104.006H228.086Z" fill="white"/>
<defs>
<filter id="filter0_d_788_11791" x="105.576" y="18.7324" width="6.84619" height="15.5469" filterUnits="userSpaceOnUse" color-interpolation-filters="sRGB">
<feFlood flood-opacity="0" result="BackgroundImageFix"/>
<feColorMatrix in="SourceAlpha" type="matrix" values="0 0 0 0 0 0 0 0 0 0 0 0 0 0 0 0 0 0 127 0" result="hardAlpha"/>
<feOffset/>
<feGaussianBlur stdDeviation="0.5"/>
<feComposite in2="hardAlpha" operator="out"/>
<feColorMatrix type="matrix" values="0 0 0 0 0 0 0 0 0 0 0 0 0 0 0 0 0 0 1 0"/>
<feBlend mode="normal" in2="BackgroundImageFix" result="effect1_dropShadow_788_11791"/>
<feBlend mode="normal" in="SourceGraphic" in2="effect1_dropShadow_788_11791" result="shape"/>
</filter>
<filter id="filter1_d_788_11791" x="200" y="29.6133" width="22" height="48.8867" filterUnits="userSpaceOnUse" color-interpolation-filters="sRGB">
<feFlood flood-opacity="0" result="BackgroundImageFix"/>
<feColorMatrix in="SourceAlpha" type="matrix" values="0 0 0 0 0 0 0 0 0 0 0 0 0 0 0 0 0 0 127 0" result="hardAlpha"/>
<feOffset/>
<feGaussianBlur stdDeviation="0.5"/>
<feComposite in2="hardAlpha" operator="out"/>
<feColorMatrix type="matrix" values="0 0 0 0 0 0 0 0 0 0 0 0 0 0 0 0 0 0 1 0"/>
<feBlend mode="normal" in2="BackgroundImageFix" result="effect1_dropShadow_788_11791"/>
<feBlend mode="normal" in="SourceGraphic" in2="effect1_dropShadow_788_11791" result="shape"/>
</filter>
</defs>
</svg>
