<svg xmlns="http://www.w3.org/2000/svg" width="24" height="24" viewBox="0 0 24 24">
  <g fill="none" fill-rule="evenodd">
    <path d="M24,0 L24,24 L0,24 L0,0 L24,0 Z"/>
    <path fill="#FFF" fill-rule="nonzero" d="M5.5,0.25 C8.39949503,0.25 10.75,2.60050497 10.75,5.5 C10.75,8.14457531 8.79463285,10.33245 6.2508043,10.6967183 L6.25,17.0200195 C6.25,17.4342331 5.91421356,17.7700195 5.5,17.7700195 C5.12030423,17.7700195 4.80650904,17.4878656 4.75684662,17.1217901 L4.75,17.0200195 L4.75019658,10.6968615 C2.20588007,10.3330238 0.25,8.14492214 0.25,5.5 C0.25,2.60050497 2.60050497,0.25 5.5,0.25 Z M5.5,1.75 C3.42893209,1.75 1.75,3.42893209 1.75,5.5 C1.75,7.57106791 3.42893209,9.25 5.5,9.25 C7.57106791,9.25 9.25,7.57106791 9.25,5.5 C9.25,3.42893209 7.57106791,1.75 5.5,1.75 Z M6.11604452,3.3388546 C7.07519457,3.61289749 7.75,4.49232761 7.75,5.5 C7.75,5.91421356 7.41421356,6.25 7,6.25 C6.62030423,6.25 6.30650904,5.96784612 6.25684662,5.60177056 L6.25,5.5 C6.25,5.2041363 6.07139911,4.9385036 5.806967,4.81891446 L5.70396281,4.78114052 C5.30568655,4.66734729 5.07506748,4.25223296 5.1888607,3.8539567 C5.30265393,3.45568045 5.71776826,3.22506138 6.11604452,3.3388546 Z" transform="translate(6.5 2.99)"/>
  </g>
</svg>
