<svg xmlns="http://www.w3.org/2000/svg" xmlns:xlink="http://www.w3.org/1999/xlink" width="24" height="24" viewBox="0 0 24 24">
  <defs>
    <linearGradient id="gameboost_mobilegame-b" x1="19.987%" x2="81.337%" y1="17.429%" y2="79.215%">
      <stop offset="0%" stop-color="#6487BE"/>
      <stop offset="49.259%" stop-color="#59FFEA"/>
      <stop offset="100%" stop-color="#6792BE"/>
    </linearGradient>
    <path id="gameboost_mobilegame-a" d="M11.0709312,0 C12.5160926,0.00167149789 13.7029772,1.13999652 13.7947273,2.5904423 L13.7987996,2.67446229 L13.8002746,2.7620564 L13.8002746,4.71950195 L1.28879968,4.71935997 L1.28879968,18.8979138 L12.5111432,18.8979138 L12.5112379,15.889263 L13.8002746,15.889263 L13.8002746,21.2383224 C13.7986263,22.6996565 12.6745679,23.9014063 11.2402507,23.9943778 L11.1571632,23.9985054 L11.0705499,24 L2.72934337,24 C1.28418199,23.9983285 0.09729741,22.8600035 0.00554732,21.4095577 L0.00147501,21.3255377 L0,21.2379436 L0,2.7616776 C0.00164832,1.30034349 1.12570665,0.0985937089 2.56002383,0.00562217428 L2.64311134,0.00149462472 L2.72972464,0 L11.0709312,0 Z M12.5798595,20.0968018 L1.28879968,20.0968018 L1.28879968,21.2379436 C1.2898368,22.1765798 2.00152436,22.7897932 2.90836616,22.8526845 L3.06122506,22.8580322 L10.8074341,22.8580322 C11.7343687,22.856982 12.4947877,22.2931152 12.5731949,21.3913312 L12.5798595,21.2379436 L12.5798595,20.0968018 Z M15.1593297,4.71950195 C15.1593297,4.71950195 16.8108829,3.41640834 19,3.64590083 C18.9665236,5.86027636 17.4844388,7.35556565 17.4844388,7.35556565 C16.287583,8.81966036 12.0752756,11.4655853 12.0752756,11.4655853 L12.0752756,11.4655853 L8.3613306,13.8458925 C7.9363738,15.5479252 5.92492446,15.8726612 5.92492446,15.8726612 L5.92492446,15.8726612 L2.10739656,18.7315782 L5.38187827,15.2570199 C5.38187827,15.2570199 5.94127455,13.2860011 7.6712791,13.0635384 L7.6712791,13.0635384 L10.4611771,9.63564993 C10.4611771,9.63564993 13.572449,5.74140501 15.1593297,4.71950195 Z M13.686235,11.9900056 C13.2601529,12.9413159 12.6463372,13.8565032 11.8447878,14.7355676 C11.0432384,15.6146321 9.8461724,16.6854506 8.2535898,17.9480231 L9.2623884,16.0457227 C9.4489823,15.6938609 9.4089901,15.264819 9.1605797,14.9535053 L8.9321428,14.6672227 L13.686235,11.9900056 Z M10.3871117,8.377498 L6.97586173,12.6059984 L6.72608773,12.3495418 C6.44548488,12.0614316 6.019588,11.9694559 5.64509794,12.1160937 L3.65776361,12.8942675 C5.53000741,11.1093372 6.72886853,10.0405202 7.254347,9.68781663 C7.7798254,9.33511309 8.8240803,8.89834021 10.3871117,8.377498 Z M11.0705499,1.16094971 L3.06122506,1.16094971 C2.13429048,1.16199992 1.37387148,1.70883031 1.29546424,2.60882098 L1.28879968,2.7620564 L1.28879968,3.50109189 L12.8429753,3.50109189 L12.8429753,2.7620564 C12.8418806,1.77127375 12.0489809,1.16205826 11.0705499,1.16094971 Z"/>
  </defs>
  <g fill="none" fill-rule="evenodd" transform="translate(3)">
    <use fill="#2ED9C3" xlink:href="#gameboost_mobilegame-a"/>
    <use fill="url(#gameboost_mobilegame-b)" fill-opacity=".8" style="mix-blend-mode:hard-light" xlink:href="#gameboost_mobilegame-a"/>
  </g>
</svg>
