<svg xmlns="http://www.w3.org/2000/svg" xmlns:xlink="http://www.w3.org/1999/xlink" width="24" height="24" viewBox="0 0 24 24">
  <defs>
    <linearGradient id="gameboost_gamepriority-b" x1="2.113%" x2="100%" y1="33.658%" y2="64.658%">
      <stop offset="0%" stop-color="#6487BE"/>
      <stop offset="49.259%" stop-color="#59FFEA"/>
      <stop offset="100%" stop-color="#6792BE"/>
    </linearGradient>
    <path id="gameboost_gamepriority-a" d="M17.7995209,0 C18.670534,0 19.4752496,0.39869746 20.0110197,1.05060868 C20.6279286,0.65686043 22.1403687,-0.14238993 24,0.0536764 C23.9651654,2.36960849 22.5273868,3.9853552 22.3292382,4.19720169 L22.3066847,4.22088319 C22.1178042,4.45317533 21.8617149,4.71195323 21.5611697,4.98510124 L23.7959047,11.4609507 C23.9824058,12.0014302 23.8981647,12.6028659 23.5704965,13.0695011 C23.2428284,13.5361363 22.7096074,13.8145616 22.1433327,13.8145616 L22.1433327,13.8145616 L19.592227,13.8140972 C19.2199134,13.813865 18.8681436,13.6695436 18.6011888,13.4079539 L18.6011888,13.4079539 L17.5444995,12.254101 C17.469699,12.1724224 17.4277341,12.0659746 17.4266738,11.9552254 C17.4243005,11.7073183 17.623345,11.504426 17.8712521,11.5020527 L17.8712521,11.5020527 L18.6696579,11.4944094 C18.8029363,11.4931334 18.9312079,11.5451235 19.0259872,11.6388339 L19.0259872,11.6388339 L19.6424962,12.2483904 L22.1437917,12.2489709 C22.2300987,12.2489709 22.2810566,12.2021797 22.3087161,12.1629354 C22.3362609,12.123575 22.363117,12.0594838 22.3347689,11.9770476 L22.3347689,11.9770476 L20.2859446,6.0409334 C18.595854,7.346297 16.5752162,8.6394143 16.2956753,8.8171703 L16.2630157,8.8378896 L12.1133947,11.5117244 C11.6385915,13.4236632 9.39128184,13.7884723 9.39128184,13.7884723 L9.39128184,13.7884723 L5.12597272,17 L8.7844933,13.0969373 C8.7844933,13.0969373 9.40953025,10.8827712 11.3424852,10.6329084 L11.3424852,10.6329084 L14.4596361,6.78221 C14.4596361,6.78221 16.9379351,3.66338609 18.7767414,2.00151161 C18.5306397,1.7293906 18.1786943,1.56559072 17.7995209,1.56559072 L17.7995209,1.56559072 L15.8182479,1.56559072 C15.4681996,1.56559072 15.1378918,1.70248121 14.8880377,1.95095082 L14.8880377,1.95095082 L11.970506,4.88213564 C11.8768701,4.97620971 11.7496714,5.02919233 11.6169402,5.02940788 L11.6169402,5.02940788 L10.7160365,5.03087088 C10.5942902,5.03106859 10.4774502,4.98290227 10.3912123,4.89696488 C10.2116029,4.71798119 10.2110956,4.42728402 10.3900793,4.24767458 L10.3900793,4.24767458 L11.5152942,3.11852574 L6.01471651,3.11840963 C5.20914648,3.11840963 4.50801706,3.6323005 4.2595402,4.40244017 L4.2595402,4.40244017 L4.24576781,4.44098779 L1.30318196,11.9185296 C1.245797,12.0643603 1.2999684,12.1795388 1.33726862,12.2353864 C1.37468362,12.2911179 1.46053151,12.3847003 1.61570044,12.3847003 L1.61570044,12.3847003 L5.59075644,12.3851648 L6.29335815,11.6542927 C6.3869242,11.5569619 6.51587451,11.5016062 6.65088292,11.5008147 L6.65088292,11.5008147 L7.26163425,11.4972343 C7.35201603,11.4967044 7.43947068,11.5292502 7.50751714,11.5887382 C7.66148011,11.7233367 7.67717809,11.957262 7.54257958,12.111225 L7.54257958,12.111225 L6.5739903,13.2191634 C6.32849746,13.5115216 5.97007101,13.6790644 5.59075644,13.6790644 L5.59075644,13.6790644 L1.61558567,13.6787161 C1.0794954,13.6787161 0.579672416,13.4106244 0.278630929,12.9617536 C-0.0222957879,12.5127667 -0.0835829225,11.943841 0.114854261,11.4398192 L0.114854261,11.4398192 L3.05020961,3.98027405 C3.47726846,2.68625829 4.66054628,1.82439387 6.00794508,1.82439387 L6.00794508,1.82439387 L12.8112761,1.82462608 L13.80197,0.83539196 C14.3441431,0.29630581 15.0597335,0 15.8182479,0 L15.8182479,0 L17.7995209,0 Z M16.0665411,10.6290188 C15.9698855,11.8672688 15.7788701,12.6751813 15.4934949,13.0527564 C15.2081197,13.4303315 13.9743431,14.5075369 11.7921652,16.2843727 L12.9582889,14.0735517 C13.1432875,13.7228181 13.1035713,13.2959061 12.8570489,12.9853175 L12.5503352,12.5988951 L16.0665411,10.6290188 Z M12.4572339,6.9079015 L10.1064017,10.2059354 L9.77403591,9.8628159 C9.49306489,9.572754 9.0652058,9.4801565 8.68944404,9.628088 L6.39910391,10.5297586 C8.42681818,8.6452508 9.66258411,7.5703289 10.1064017,7.3049927 C10.5502193,7.0396565 11.33383,6.9072935 12.4572339,6.9079015 Z M6.92298266,4.69202336 L6.92298266,6.0504787 L8.26579067,6.0504787 L8.26579067,6.8863351 L6.92298266,6.8863351 L6.92298266,8.2447904 L6.09663927,8.2447904 L6.09663927,6.8863351 L4.75383127,6.8863351 L4.75383127,6.0504787 L6.09663927,6.0504787 L6.09663927,4.69202336 L6.92298266,4.69202336 Z M17.6900493,6.059631 C17.654214,6.0283156 17.6076931,6.0279752 17.5715971,6.0587801 L17.5715971,6.0587801 L17.2694071,6.3169626 C17.2393053,6.3428319 17.2210619,6.3864013 17.2208012,6.4333745 L17.2208012,6.4333745 L17.217803,7.1345689 C17.2175435,7.2118365 17.2652371,7.274978 17.3243981,7.2753184 L17.3243981,7.2753184 L17.9266932,7.27991638 C17.9858542,7.280254 18.0341994,7.2179634 18.03446,7.1406959 L18.03446,7.1406959 L18.0375881,6.4393312 C18.0377178,6.3925282 18.0198652,6.3484483 17.9900241,6.3224088 L17.9900241,6.3224088 L17.6900493,6.059631 Z M18.231472,5.41390493 C18.1850336,5.41377382 18.1416237,5.43183439 18.1157124,5.46202322 L18.1157124,5.46202322 L17.8560946,5.76549349 C17.8251356,5.80174646 17.8247991,5.8488094 17.8552533,5.88532602 L17.8552533,5.88532602 L18.1104965,6.1910374 C18.135903,6.2214899 18.1791446,6.2399459 18.2255831,6.2402096 L18.2255831,6.2402096 L18.9187947,6.2432427 C18.9951826,6.2435053 19.057437,6.1952559 19.0579418,6.1354056 L19.0579418,6.1354056 L19.0623225,5.5260921 C19.0628212,5.46624175 19.0012398,5.4173332 18.9246837,5.41706954 L18.9246837,5.41706954 L18.231472,5.41390493 Z M16.3367436,5.41390601 C16.260366,5.41364235 16.1979518,5.46189175 16.1976153,5.5217421 L16.1976153,5.5217421 L16.1930689,6.1310556 C16.1927366,6.1910377 16.2543096,6.2398145 16.3306872,6.2402099 L16.3306872,6.2402099 L17.0238049,6.243242 C17.0702371,6.2433738 17.1138093,6.2254451 17.1395489,6.1951244 L17.1395489,6.1951244 L17.3992998,5.89165416 C17.4302546,5.85553303 17.430591,5.80833826 17.400141,5.77195347 L17.400141,5.77195347 L17.1449323,5.46611028 C17.1195292,5.43565779 17.0762935,5.41720173 17.0298613,5.4170699 L17.0298613,5.4170699 L16.3367436,5.41390601 Z M17.328698,4.37722961 C17.2694067,4.37672516 17.2211918,4.43902417 17.2208009,4.51647239 L17.2208009,4.51647239 L17.217803,5.21776179 C17.2176734,5.26474137 17.2353957,5.30865706 17.2653671,5.33487031 L17.2653671,5.33487031 L17.5653418,5.5975134 C17.6010469,5.62883312 17.6476981,5.62917355 17.6836638,5.59836448 L17.6836638,5.59836448 L17.9859841,5.340147 C18.0160859,5.3144444 18.0343293,5.27069892 18.0344596,5.22371934 L18.0344596,5.22371934 L18.0375881,4.52242994 C18.0378477,4.44515194 17.9901541,4.38217206 17.9309931,4.38166142 L17.9309931,4.38166142 L17.328698,4.37722961 Z"/>
  </defs>
  <g fill="none" fill-rule="evenodd" transform="translate(0 4)">
    <use fill="#2ED9C3" xlink:href="#gameboost_gamepriority-a"/>
    <use fill="url(#gameboost_gamepriority-b)" fill-opacity=".8" style="mix-blend-mode:hard-light" xlink:href="#gameboost_gamepriority-a"/>
  </g>
</svg>
