<svg xmlns="http://www.w3.org/2000/svg" xmlns:xlink="http://www.w3.org/1999/xlink" width="86" height="64" viewBox="0 0 86 64">
  <defs>
    <linearGradient id="game-b" x1="2.113%" x2="100%" y1="31.962%" y2="66.18%">
      <stop offset="0%" stop-color="#6487BE"/>
      <stop offset="49.259%" stop-color="#59FFEA"/>
      <stop offset="100%" stop-color="#6792BE"/>
    </linearGradient>
    <path id="game-a" d="M4593.43127,889 L4593.43127,889.046767 L4599.69003,889.1403 C4599.69003,889.1403 4600.1752,889.187066 4600.41779,889.607965 C4600.68464,890.028864 4601,890.940811 4601,890.940811 L4601,890.940811 L4599.93261,930.107782 L4601,950.989039 C4601,950.989039 4600.63612,952.696018 4599.71429,952.836317 C4599.0593,952.953233 4595.15364,952.976617 4592.65499,953 L4592.65499,953 L4591.15094,953 C4589.13747,952.976617 4584.86792,952.92985 4584.21294,952.836317 C4583.29111,952.672634 4583,950.989039 4583,950.989039 L4583,950.989039 L4584.16442,930.107782 L4583.09704,890.940811 C4583.09704,890.940811 4583.43666,890.028864 4583.67925,889.607965 C4583.92183,889.187066 4584.40701,889.1403 4584.40701,889.1403 L4584.40701,889.1403 L4590.66577,889.046767 L4590.66577,889 L4592.04852,889.023383 L4593.43127,889 Z M4527.8147,903 C4528.90537,903 4529.80213,903.183305 4530.45653,903.343698 C4530.6989,903.412437 4531.30482,903.801961 4531.59567,904.168572 L4531.59567,904.168572 L4534.0436,907.078547 C4534.86766,908.0409 4536.34611,908.728296 4537.6549,908.728296 L4537.6549,908.728296 L4556.34159,908.728296 C4557.65039,908.728296 4559.12884,908.063813 4559.9529,907.078547 L4559.9529,907.078547 L4562.37659,904.168572 C4562.69167,903.801961 4563.2976,903.412437 4563.51573,903.343698 C4565.21232,902.908347 4568.58125,902.518823 4572.28951,904.855968 C4572.6773,905.108013 4573.33169,905.726669 4573.5983,906.116193 C4575.14947,908.407511 4578.78501,914.869029 4578.9789,925.409093 C4579.2399,939.675082 4577.06204,941.33685 4573.40032,941.937903 L4573.16204,941.975324 C4569.5992,942.479414 4565.50316,935.124282 4563.95199,932.351787 L4563.95199,932.351787 L4563.70963,931.916437 C4563.24912,931.068649 4562.27965,929.92299 4561.28593,929.373073 C4559.17732,928.204501 4555.05703,926.806797 4547.4224,926.715144 L4547.4224,926.715144 L4546.5741,926.715144 C4538.93946,926.82971 4534.81918,928.204501 4532.71057,929.373073 C4531.71685,929.92299 4530.74737,931.068649 4530.28687,931.916437 L4530.28687,931.916437 L4530.0445,932.351787 C4528.49334,935.124282 4524.37306,942.479414 4520.83446,941.975324 C4517.0535,941.402494 4514.77522,939.981877 4515.01759,925.409093 C4515.21149,914.869029 4518.84703,908.407511 4520.3982,906.116193 C4520.6648,905.703756 4521.3192,905.0851 4521.70699,904.833055 C4523.96103,903.412437 4526.09388,903 4527.8147,903 Z M4592.02426,926.880891 C4590.18059,926.880891 4588.67655,928.330654 4588.67655,930.107782 C4588.67655,931.88491 4590.18059,933.334673 4592.02426,933.334673 C4593.86792,933.334673 4595.37197,931.88491 4595.37197,930.107782 C4595.37197,928.330654 4593.86792,926.880891 4592.02426,926.880891 Z M4566.71501,919.978668 C4565.47892,919.978668 4564.46097,920.941022 4564.46097,922.109594 C4564.46097,923.278167 4565.47892,924.24052 4566.71501,924.24052 C4567.95109,924.24052 4568.96904,923.278167 4568.96904,922.109594 C4568.96904,920.941022 4567.95109,919.978668 4566.71501,919.978668 Z M4527.86318,914.135807 L4525.26982,914.135807 C4525.02745,914.135807 4524.80932,914.319112 4524.80932,914.571157 L4524.80932,914.571157 L4524.80932,917.091607 L4522.14326,917.091607 C4521.90089,917.091607 4521.68275,917.274913 4521.68275,917.526958 L4521.68275,917.526958 L4521.68275,920.001582 C4521.68275,920.230713 4521.87665,920.436932 4522.14326,920.436932 L4522.14326,920.436932 L4524.80932,920.436932 L4524.80932,922.957382 C4524.80932,923.186514 4525.00322,923.392733 4525.26982,923.392733 L4525.26982,923.392733 L4527.88741,923.392733 C4528.12978,923.392733 4528.34792,923.209427 4528.34792,922.957382 L4528.34792,922.957382 L4528.34792,920.436932 L4531.01398,920.436932 C4531.25635,920.436932 4531.47448,920.253627 4531.47448,920.001582 L4531.47448,920.001582 L4531.45025,920.001582 L4531.45025,917.526958 C4531.45025,917.297826 4531.25635,917.091607 4530.98974,917.091607 L4530.98974,917.091607 L4528.32368,917.091607 L4528.32368,914.571157 C4528.32368,914.342025 4528.12978,914.135807 4527.86318,914.135807 L4527.86318,914.135807 Z M4563.00675,916.74791 C4561.77067,916.74791 4560.75272,917.710263 4560.75272,918.878836 C4560.75272,920.047408 4561.77067,921.009762 4563.00675,921.009762 C4564.26708,921.009762 4565.26079,920.047408 4565.26079,918.878836 C4565.26079,917.710263 4564.24284,916.74791 4563.00675,916.74791 Z M4570.39902,916.74791 C4569.16294,916.74791 4568.14499,917.710263 4568.14499,918.878836 C4568.14499,920.047408 4569.16294,921.009762 4570.39902,921.009762 C4571.65934,921.009762 4572.6773,920.047408 4572.65306,918.878836 C4572.65306,917.710263 4571.63511,916.74791 4570.39902,916.74791 Z M4566.71501,913.448411 C4565.45469,913.448411 4564.46097,914.410765 4564.46097,915.579337 C4564.46097,916.74791 4565.47892,917.710263 4566.71501,917.710263 C4567.95109,917.710263 4568.96904,916.74791 4568.96904,915.579337 C4568.96904,914.410765 4567.95109,913.448411 4566.71501,913.448411 Z"/>
  </defs>
  <g fill="none" fill-rule="evenodd" transform="translate(-4515 -889)">
    <use fill="#2ED9C3" xlink:href="#game-a"/>
    <use fill="url(#game-b)" fill-opacity=".8" style="mix-blend-mode:hard-light" xlink:href="#game-a"/>
  </g>
</svg>
