<svg width="24" height="24" viewBox="0 0 24 24" fill="none" xmlns="http://www.w3.org/2000/svg">
<path fill-rule="evenodd" clip-rule="evenodd" d="M12 2.75C6.89 2.75 2.75 6.89 2.75 12C2.75 17.11 6.89 21.25 12 21.25C17.11 21.25 21.25 17.11 21.25 12C21.25 6.89 17.11 2.75 12 2.75ZM15.4247 8.57576C15.659 8.81007 15.659 9.18997 15.4247 9.42429L12.8489 12L15.4247 14.5758C15.659 14.8101 15.659 15.19 15.4247 15.4243C15.1903 15.6586 14.8104 15.6586 14.5761 15.4243L12.0004 12.8486L9.42465 15.4243C9.19034 15.6586 8.81044 15.6586 8.57613 15.4243C8.34181 15.19 8.34181 14.8101 8.57613 14.5758L11.1519 12L8.57613 9.42429C8.34181 9.18997 8.34181 8.81007 8.57613 8.57576C8.81044 8.34145 9.19034 8.34145 9.42465 8.57576L12.0004 11.1515L14.5761 8.57576C14.8104 8.34145 15.1903 8.34145 15.4247 8.57576Z" fill="#B9C5D5"/>
</svg>
