<?xml version="1.0" encoding="UTF-8" standalone="no"?>
<svg
   xmlns:dc="http://purl.org/dc/elements/1.1/"
   xmlns:cc="http://creativecommons.org/ns#"
   xmlns:rdf="http://www.w3.org/1999/02/22-rdf-syntax-ns#"
   xmlns:svg="http://www.w3.org/2000/svg"
   xmlns="http://www.w3.org/2000/svg"
   viewBox="0 0 303.75 303.75"
   height="303.75"
   width="303.75"
   xml:space="preserve"
   version="1.1"
   id="svg2"><metadata
     id="metadata8"><rdf:RDF><cc:Work
         rdf:about=""><dc:format>image/svg+xml</dc:format><dc:type
           rdf:resource="http://purl.org/dc/dcmitype/StillImage" /></cc:Work></rdf:RDF></metadata><defs
     id="defs6"><clipPath
       id="clipPath16"
       clipPathUnits="userSpaceOnUse"><path
         id="path18"
         d="M 0,243 243,243 243,0 0,0 0,243 Z" /></clipPath><clipPath
       id="clipPath440"
       clipPathUnits="userSpaceOnUse"><path
         id="path442"
         d="M 0,243 243,243 243,0 0,0 0,243 Z" /></clipPath></defs><g
     transform="matrix(1.25,0,0,-1.25,0,303.75)"
     id="g10"><g
       id="g12"><g
         clip-path="url(#clipPath16)"
         id="g14"><g
           transform="translate(122.75,194.25)"
           id="g20"><path
             id="path22"
             style="fill:#261d0a;fill-opacity:1;fill-rule:nonzero;stroke:none"
             d="M 0,0 C 97.5,1 94.003,-144.237 -0.75,-144 -100.5,-143.75 -96.995,-0.995 0,0 m -1.5,44.333 c -64.803,0 -117.333,-52.532 -117.333,-117.333 0,-64.803 52.53,-117.333 117.333,-117.333 64.803,0 117.333,52.53 117.333,117.333 0,64.801 -52.53,117.333 -117.333,117.333" /></g><g
           transform="translate(232.2236,159.4155)"
           id="g24"><path
             id="path26"
             style="fill:none;stroke:#634c18;stroke-width:1;stroke-linecap:butt;stroke-linejoin:miter;stroke-miterlimit:10;stroke-dasharray:none;stroke-opacity:1"
             d="m 0,0 c 0,0 -31.842,-25.347 -32.955,-41.279 -1.27,-18.093 25.733,-47.682 25.733,-47.682" /></g><g
           transform="translate(16.3154,171.7593)"
           id="g28"><path
             id="path30"
             style="fill:none;stroke:#634c18;stroke-width:1;stroke-linecap:butt;stroke-linejoin:miter;stroke-miterlimit:10;stroke-dasharray:none;stroke-opacity:1"
             d="m 0,0 c 0,0 28,-29.538 26.889,-45.464 -1.265,-18.094 -32.12,-43.64 -32.12,-43.64" /></g><g
           transform="translate(234.6211,151.6084)"
           id="g32"><path
             id="path34"
             style="fill:none;stroke:#634c18;stroke-width:1;stroke-linecap:butt;stroke-linejoin:miter;stroke-miterlimit:10;stroke-dasharray:none;stroke-opacity:1"
             d="m 0,0 c 0,0 -33.532,-23.064 -35.754,-38.879 -2.528,-17.961 22.345,-49.362 22.345,-49.362" /></g><g
           transform="translate(20.1006,178.9829)"
           id="g36"><path
             id="path38"
             style="fill:none;stroke:#634c18;stroke-width:1;stroke-linecap:butt;stroke-linejoin:miter;stroke-miterlimit:10;stroke-dasharray:none;stroke-opacity:1"
             d="M 0,0 C 0,0 25.871,-31.418 23.651,-47.229 21.128,-65.191 -11.435,-88.522 -11.435,-88.522" /></g><g
           transform="translate(236.4639,143.6523)"
           id="g40"><path
             id="path42"
             style="fill:none;stroke:#634c18;stroke-width:1;stroke-linecap:butt;stroke-linejoin:miter;stroke-miterlimit:10;stroke-dasharray:none;stroke-opacity:1"
             d="m 0,0 c 0,0 -35.06,-20.669 -38.379,-36.29 -3.775,-17.741 18.847,-50.801 18.847,-50.801" /></g><g
           transform="translate(24.375,185.9243)"
           id="g44"><path
             id="path46"
             style="fill:none;stroke:#634c18;stroke-width:1;stroke-linecap:butt;stroke-linejoin:miter;stroke-miterlimit:10;stroke-dasharray:none;stroke-opacity:1"
             d="M 0,0 C 0,0 23.617,-33.146 20.3,-48.764 16.529,-66.506 -17.581,-87.509 -17.581,-87.509" /></g><g
           transform="translate(237.7422,135.5859)"
           id="g48"><path
             id="path50"
             style="fill:none;stroke:#634c18;stroke-width:1;stroke-linecap:butt;stroke-linejoin:miter;stroke-miterlimit:10;stroke-dasharray:none;stroke-opacity:1"
             d="M 0,0 C 0,0 -36.416,-18.173 -40.816,-33.524 -45.82,-50.959 -25.56,-85.517 -25.56,-85.517" /></g><g
           transform="translate(29.1191,192.5493)"
           id="g52"><path
             id="path54"
             style="fill:none;stroke:#634c18;stroke-width:1;stroke-linecap:butt;stroke-linejoin:miter;stroke-miterlimit:10;stroke-dasharray:none;stroke-opacity:1"
             d="M 0,0 C 0,0 21.247,-34.713 16.849,-50.061 11.85,-67.498 -23.643,-86.07 -23.643,-86.07" /></g><g
           transform="translate(238.4502,127.4482)"
           id="g56"><path
             id="path58"
             style="fill:none;stroke:#634c18;stroke-width:1;stroke-linecap:butt;stroke-linejoin:miter;stroke-miterlimit:10;stroke-dasharray:none;stroke-opacity:1"
             d="m 0,0 c 0,0 -37.595,-15.588 -43.056,-30.596 -6.208,-17.043 11.593,-52.929 11.593,-52.929" /></g><g
           transform="translate(34.3086,198.8257)"
           id="g60"><path
             id="path62"
             style="fill:none;stroke:#634c18;stroke-width:1;stroke-linecap:butt;stroke-linejoin:miter;stroke-miterlimit:10;stroke-dasharray:none;stroke-opacity:1"
             d="M 0,0 C 0,0 18.774,-36.11 13.316,-51.114 7.113,-68.16 -29.589,-84.21 -29.589,-84.21" /></g><g
           transform="translate(238.584,119.2793)"
           id="g64"><path
             id="path66"
             style="fill:none;stroke:#634c18;stroke-width:1;stroke-linecap:butt;stroke-linejoin:miter;stroke-miterlimit:10;stroke-dasharray:none;stroke-opacity:1"
             d="m 0,0 c 0,0 -38.59,-12.928 -45.085,-27.518 -7.382,-16.568 7.873,-53.609 7.873,-53.609" /></g><g
           transform="translate(39.9189,204.7231)"
           id="g68"><path
             id="path70"
             style="fill:none;stroke:#634c18;stroke-width:1;stroke-linecap:butt;stroke-linejoin:miter;stroke-miterlimit:10;stroke-dasharray:none;stroke-opacity:1"
             d="M 0,0 C 0,0 16.21,-37.332 9.719,-51.919 2.342,-68.49 -35.391,-81.941 -35.391,-81.941" /></g><g
           transform="translate(238.1436,111.1182)"
           id="g72"><path
             id="path74"
             style="fill:none;stroke:#634c18;stroke-width:1;stroke-linecap:butt;stroke-linejoin:miter;stroke-miterlimit:10;stroke-dasharray:none;stroke-opacity:1"
             d="m 0,0 c 0,0 -39.397,-10.204 -46.895,-24.305 -8.519,-16.013 4.115,-54.028 4.115,-54.028" /></g><g
           transform="translate(45.9229,210.2124)"
           id="g76"><path
             id="path78"
             style="fill:none;stroke:#634c18;stroke-width:1;stroke-linecap:butt;stroke-linejoin:miter;stroke-miterlimit:10;stroke-dasharray:none;stroke-opacity:1"
             d="M 0,0 C 0,0 13.566,-38.372 6.073,-52.47 -2.441,-68.487 -41.021,-79.273 -41.021,-79.273" /></g><g
           transform="translate(237.1309,103.0059)"
           id="g80"><path
             id="path82"
             style="fill:none;stroke:#634c18;stroke-width:1;stroke-linecap:butt;stroke-linejoin:miter;stroke-miterlimit:10;stroke-dasharray:none;stroke-opacity:1"
             d="m 0,0 c 0,0 -40.014,-7.432 -48.476,-20.975 -9.616,-15.379 0.335,-54.183 0.335,-54.183" /></g><g
           transform="translate(52.291,215.2671)"
           id="g84"><path
             id="path86"
             style="fill:none;stroke:#634c18;stroke-width:1;stroke-linecap:butt;stroke-linejoin:miter;stroke-miterlimit:10;stroke-dasharray:none;stroke-opacity:1"
             d="M 0,0 C 0,0 10.856,-39.225 2.398,-52.766 -7.213,-68.15 -46.45,-76.218 -46.45,-76.218" /></g><g
           transform="translate(235.5508,94.9814)"
           id="g88"><path
             id="path90"
             style="fill:none;stroke:#634c18;stroke-width:1;stroke-linecap:butt;stroke-linejoin:miter;stroke-miterlimit:10;stroke-dasharray:none;stroke-opacity:1"
             d="m 0,0 c 0,0 -40.435,-4.623 -49.82,-17.543 -10.666,-14.671 -3.447,-54.074 -3.447,-54.074" /></g><g
           transform="translate(58.9922,219.8623)"
           id="g92"><path
             id="path94"
             style="fill:none;stroke:#634c18;stroke-width:1;stroke-linecap:butt;stroke-linejoin:miter;stroke-miterlimit:10;stroke-dasharray:none;stroke-opacity:1"
             d="M 0,0 C 0,0 8.094,-39.886 -1.288,-52.805 -11.949,-67.48 -51.654,-72.792 -51.654,-72.792" /></g><g
           transform="translate(233.4111,87.083)"
           id="g96"><path
             id="path98"
             style="fill:none;stroke:#634c18;stroke-width:1;stroke-linecap:butt;stroke-linejoin:miter;stroke-miterlimit:10;stroke-dasharray:none;stroke-opacity:1"
             d="m 0,0 c 0,0 -40.659,-1.791 -50.923,-14.024 -11.663,-13.892 -7.21,-53.703 -7.21,-53.703" /></g><g
           transform="translate(65.9941,223.9761)"
           id="g100"><path
             id="path102"
             style="fill:none;stroke:#634c18;stroke-width:1;stroke-linecap:butt;stroke-linejoin:miter;stroke-miterlimit:10;stroke-dasharray:none;stroke-opacity:1"
             d="M 0,0 C 0,0 5.291,-40.354 -4.969,-52.586 -16.628,-66.482 -56.606,-69.011 -56.606,-69.011" /></g><g
           transform="translate(230.7217,79.3506)"
           id="g104"><path
             id="path106"
             style="fill:none;stroke:#634c18;stroke-width:1;stroke-linecap:butt;stroke-linejoin:miter;stroke-miterlimit:10;stroke-dasharray:none;stroke-opacity:1"
             d="M 0,0 C 0,0 -40.685,1.05 -51.777,-10.438 -64.381,-23.482 -62.715,-63.506 -62.715,-63.506" /></g><g
           transform="translate(73.2617,227.5889)"
           id="g108"><path
             id="path110"
             style="fill:none;stroke:#634c18;stroke-width:1;stroke-linecap:butt;stroke-linejoin:miter;stroke-miterlimit:10;stroke-dasharray:none;stroke-opacity:1"
             d="m 0,0 c 0,0 2.463,-40.625 -8.625,-52.111 -12.6,-13.05 -52.657,-12.784 -52.657,-12.784" /></g><g
           transform="translate(227.4971,71.8213)"
           id="g112"><path
             id="path114"
             style="fill:none;stroke:#634c18;stroke-width:1;stroke-linecap:butt;stroke-linejoin:miter;stroke-miterlimit:10;stroke-dasharray:none;stroke-opacity:1"
             d="M 0,0 C 0,0 -40.513,3.886 -52.38,-6.8 -65.862,-18.935 -66.992,-58.977 -66.992,-58.977" /></g><g
           transform="translate(80.7607,230.6826)"
           id="g116"><path
             id="path118"
             style="fill:none;stroke:#634c18;stroke-width:1;stroke-linecap:butt;stroke-linejoin:miter;stroke-miterlimit:10;stroke-dasharray:none;stroke-opacity:1"
             d="m 0,0 c 0,0 -0.377,-40.698 -12.238,-51.383 -13.48,-12.138 -53.421,-9.079 -53.421,-9.079" /></g><g
           transform="translate(223.752,64.5313)"
           id="g120"><path
             id="path122"
             style="fill:none;stroke:#634c18;stroke-width:1;stroke-linecap:butt;stroke-linejoin:miter;stroke-miterlimit:10;stroke-dasharray:none;stroke-opacity:1"
             d="m 0,0 c 0,0 -40.144,6.702 -52.727,-3.129 -14.295,-11.165 -18.216,-51.03 -18.216,-51.03" /></g><g
           transform="translate(88.4541,233.2417)"
           id="g124"><path
             id="path126"
             style="fill:none;stroke:#634c18;stroke-width:1;stroke-linecap:butt;stroke-linejoin:miter;stroke-miterlimit:10;stroke-dasharray:none;stroke-opacity:1"
             d="m 0,0 c 0,0 -3.215,-40.572 -15.792,-50.404 -14.294,-11.169 -53.925,-5.33 -53.925,-5.33" /></g><g
           transform="translate(219.5049,57.5166)"
           id="g128"><path
             id="path130"
             style="fill:none;stroke:#634c18;stroke-width:1;stroke-linecap:butt;stroke-linejoin:miter;stroke-miterlimit:10;stroke-dasharray:none;stroke-opacity:1"
             d="M 0,0 C 0,0 -39.579,9.486 -52.817,0.557 -67.856,-9.584 -74.549,-49.078 -74.549,-49.078" /></g><g
           transform="translate(96.3047,235.2539)"
           id="g132"><path
             id="path134"
             style="fill:none;stroke:#634c18;stroke-width:1;stroke-linecap:butt;stroke-linejoin:miter;stroke-miterlimit:10;stroke-dasharray:none;stroke-opacity:1"
             d="m 0,0 c 0,0 -6.037,-40.249 -19.27,-49.179 -15.038,-10.145 -54.165,-1.556 -54.165,-1.556" /></g><g
           transform="translate(214.7754,50.8115)"
           id="g136"><path
             id="path138"
             style="fill:none;stroke:#634c18;stroke-width:1;stroke-linecap:butt;stroke-linejoin:miter;stroke-miterlimit:10;stroke-dasharray:none;stroke-opacity:1"
             d="M 0,0 C 0,0 -38.82,12.224 -52.649,4.239 -68.359,-4.827 -77.79,-43.759 -77.79,-43.759" /></g><g
           transform="translate(104.2744,236.7095)"
           id="g140"><path
             id="path142"
             style="fill:none;stroke:#634c18;stroke-width:1;stroke-linecap:butt;stroke-linejoin:miter;stroke-miterlimit:10;stroke-dasharray:none;stroke-opacity:1"
             d="m 0,0 c 0,0 -8.83,-39.73 -22.653,-47.715 -15.709,-9.072 -54.142,2.226 -54.142,2.226" /></g><g
           transform="translate(209.5879,44.4482)"
           id="g144"><path
             id="path146"
             style="fill:none;stroke:#634c18;stroke-width:1;stroke-linecap:butt;stroke-linejoin:miter;stroke-miterlimit:10;stroke-dasharray:none;stroke-opacity:1"
             d="M 0,0 C 0,0 -37.873,14.901 -52.226,7.901 -68.529,-0.047 -80.653,-38.226 -80.653,-38.226" /></g><g
           transform="translate(112.3232,237.6016)"
           id="g148"><path
             id="path150"
             style="fill:none;stroke:#634c18;stroke-width:1;stroke-linecap:butt;stroke-linejoin:miter;stroke-miterlimit:10;stroke-dasharray:none;stroke-opacity:1"
             d="m 0,0 c 0,0 -11.58,-39.018 -25.927,-46.019 -16.302,-7.954 -53.853,5.998 -53.853,5.998" /></g><g
           transform="translate(203.9668,38.458)"
           id="g152"><path
             id="path154"
             style="fill:none;stroke:#634c18;stroke-width:1;stroke-linecap:butt;stroke-linejoin:miter;stroke-miterlimit:10;stroke-dasharray:none;stroke-opacity:1"
             d="M 0,0 C 0,0 -36.741,17.507 -51.547,11.525 -68.365,4.733 -83.123,-32.507 -83.123,-32.507" /></g><g
           transform="translate(120.4131,237.9253)"
           id="g156"><path
             id="path158"
             style="fill:none;stroke:#634c18;stroke-width:1;stroke-linecap:butt;stroke-linejoin:miter;stroke-miterlimit:10;stroke-dasharray:none;stroke-opacity:1"
             d="m 0,0 c 0,0 -14.273,-38.115 -29.074,-44.098 -16.818,-6.798 -53.304,9.739 -53.304,9.739" /></g><g
           transform="translate(197.9404,32.8701)"
           id="g160"><path
             id="path162"
             style="fill:none;stroke:#634c18;stroke-width:1;stroke-linecap:butt;stroke-linejoin:miter;stroke-miterlimit:10;stroke-dasharray:none;stroke-opacity:1"
             d="M 0,0 C 0,0 -35.431,20.026 -50.618,15.093 -67.869,9.49 -85.188,-26.63 -85.188,-26.63" /></g><g
           transform="translate(128.5039,237.6797)"
           id="g164"><path
             id="path166"
             style="fill:none;stroke:#634c18;stroke-width:1;stroke-linecap:butt;stroke-linejoin:miter;stroke-miterlimit:10;stroke-dasharray:none;stroke-opacity:1"
             d="m 0,0 c 0,0 -16.897,-37.026 -32.079,-41.963 -17.251,-5.607 -52.495,13.434 -52.495,13.434" /></g><g
           transform="translate(191.5371,27.7109)"
           id="g168"><path
             id="path170"
             style="fill:none;stroke:#634c18;stroke-width:1;stroke-linecap:butt;stroke-linejoin:miter;stroke-miterlimit:10;stroke-dasharray:none;stroke-opacity:1"
             d="m 0,0 c 0,0 -33.947,22.449 -49.442,18.587 -17.6,-4.386 -37.397,-39.209 -37.397,-39.209" /></g><g
           transform="translate(136.5566,236.8652)"
           id="g172"><path
             id="path174"
             style="fill:none;stroke:#634c18;stroke-width:1;stroke-linecap:butt;stroke-linejoin:miter;stroke-miterlimit:10;stroke-dasharray:none;stroke-opacity:1"
             d="m 0,0 c 0,0 -19.439,-35.757 -34.928,-39.623 -17.6,-4.39 -51.43,17.063 -51.43,17.063" /></g><g
           transform="translate(184.7891,23.0068)"
           id="g176"><path
             id="path178"
             style="fill:none;stroke:#634c18;stroke-width:1;stroke-linecap:butt;stroke-linejoin:miter;stroke-miterlimit:10;stroke-dasharray:none;stroke-opacity:1"
             d="m 0,0 c 0,0 -32.299,24.763 -48.026,21.99 -17.863,-3.147 -40.04,-36.505 -40.04,-36.505" /></g><g
           transform="translate(144.5322,235.4863)"
           id="g180"><path
             id="path182"
             style="fill:none;stroke:#634c18;stroke-width:1;stroke-linecap:butt;stroke-linejoin:miter;stroke-miterlimit:10;stroke-dasharray:none;stroke-opacity:1"
             d="m 0,0 c 0,0 -21.887,-34.314 -37.607,-37.089 -17.864,-3.153 -50.115,20.609 -50.115,20.609" /></g><g
           transform="translate(177.7285,18.7793)"
           id="g184"><path
             id="path186"
             style="fill:none;stroke:#634c18;stroke-width:1;stroke-linecap:butt;stroke-linejoin:miter;stroke-miterlimit:10;stroke-dasharray:none;stroke-opacity:1"
             d="M 0,0 C 0,0 -30.493,26.956 -46.376,25.287 -64.414,23.394 -88.865,-8.336 -88.865,-8.336" /></g><g
           transform="translate(152.3916,233.5498)"
           id="g188"><path
             id="path190"
             style="fill:none;stroke:#634c18;stroke-width:1;stroke-linecap:butt;stroke-linejoin:miter;stroke-miterlimit:10;stroke-dasharray:none;stroke-opacity:1"
             d="m 0,0 c 0,0 -24.228,-32.704 -40.104,-34.375 -18.04,-1.899 -48.554,24.054 -48.554,24.054" /></g><g
           transform="translate(170.3896,15.0498)"
           id="g192"><path
             id="path194"
             style="fill:none;stroke:#634c18;stroke-width:1;stroke-linecap:butt;stroke-linejoin:miter;stroke-miterlimit:10;stroke-dasharray:none;stroke-opacity:1"
             d="M 0,0 C 0,0 -28.539,29.018 -44.499,28.461 -62.625,27.83 -89.23,-2.116 -89.23,-2.116" /></g><g
           transform="translate(160.0957,231.0649)"
           id="g196"><path
             id="path198"
             style="fill:none;stroke:#634c18;stroke-width:1;stroke-linecap:butt;stroke-linejoin:miter;stroke-miterlimit:10;stroke-dasharray:none;stroke-opacity:1"
             d="M 0,0 C 0,0 -26.449,-30.934 -42.403,-31.494 -60.532,-32.13 -89.162,-4.112 -89.162,-4.112" /></g><g
           transform="translate(162.877,11.8418)"
           id="g200"><path
             id="path202"
             style="fill:none;stroke:#634c18;stroke-width:1;stroke-linecap:butt;stroke-linejoin:miter;stroke-miterlimit:10;stroke-dasharray:none;stroke-opacity:1"
             d="M 0,0 C 0,0 -26.445,30.937 -42.405,31.496 -60.53,32.131 -89.16,4.113 -89.16,4.113" /></g><g
           transform="translate(167.6768,228.0488)"
           id="g204"><path
             id="path206"
             style="fill:none;stroke:#634c18;stroke-width:1;stroke-linecap:butt;stroke-linejoin:miter;stroke-miterlimit:10;stroke-dasharray:none;stroke-opacity:1"
             d="m 0,0 c 0,0 -28.542,-29.014 -44.497,-28.459 -18.129,0.63 -44.734,30.577 -44.734,30.577" /></g><g
           transform="translate(155.1592,9.1699)"
           id="g208"><path
             id="path210"
             style="fill:none;stroke:#634c18;stroke-width:1;stroke-linecap:butt;stroke-linejoin:miter;stroke-miterlimit:10;stroke-dasharray:none;stroke-opacity:1"
             d="M 0,0 C 0,0 -24.224,32.707 -40.105,34.378 -58.142,36.275 -88.656,10.323 -88.656,10.323" /></g><g
           transform="translate(175.0283,224.5161)"
           id="g212"><path
             id="path214"
             style="fill:none;stroke:#634c18;stroke-width:1;stroke-linecap:butt;stroke-linejoin:miter;stroke-miterlimit:10;stroke-dasharray:none;stroke-opacity:1"
             d="M 0,0 C 0,0 -30.496,-26.952 -46.373,-25.286 -64.414,-23.393 -88.866,8.337 -88.866,8.337" /></g><g
           transform="translate(147.2725,7.0479)"
           id="g216"><path
             id="path218"
             style="fill:none;stroke:#634c18;stroke-width:1;stroke-linecap:butt;stroke-linejoin:miter;stroke-miterlimit:10;stroke-dasharray:none;stroke-opacity:1"
             d="M 0,0 C 0,0 -21.883,34.317 -37.609,37.092 -55.47,40.243 -87.72,16.482 -87.72,16.482" /></g><g
           transform="translate(182.1152,220.4839)"
           id="g220"><path
             id="path222"
             style="fill:none;stroke:#634c18;stroke-width:1;stroke-linecap:butt;stroke-linejoin:miter;stroke-miterlimit:10;stroke-dasharray:none;stroke-opacity:1"
             d="m 0,0 c 0,0 -32.302,-24.759 -48.023,-21.99 -17.866,3.147 -40.045,36.506 -40.045,36.506" /></g><g
           transform="translate(139.2559,5.4863)"
           id="g224"><path
             id="path226"
             style="fill:none;stroke:#634c18;stroke-width:1;stroke-linecap:butt;stroke-linejoin:miter;stroke-miterlimit:10;stroke-dasharray:none;stroke-opacity:1"
             d="M 0,0 C 0,0 -19.436,35.76 -34.93,39.625 -52.527,44.015 -86.356,22.562 -86.356,22.562" /></g><g
           transform="translate(188.9023,215.9717)"
           id="g228"><path
             id="path230"
             style="fill:none;stroke:#634c18;stroke-width:1;stroke-linecap:butt;stroke-linejoin:miter;stroke-miterlimit:10;stroke-dasharray:none;stroke-opacity:1"
             d="m 0,0 c 0,0 -33.95,-22.445 -49.44,-18.586 -17.602,4.385 -37.401,39.21 -37.401,39.21" /></g><g
           transform="translate(131.1484,4.4922)"
           id="g232"><path
             id="path234"
             style="fill:none;stroke:#634c18;stroke-width:1;stroke-linecap:butt;stroke-linejoin:miter;stroke-miterlimit:10;stroke-dasharray:none;stroke-opacity:1"
             d="M 0,0 C 0,0 -16.894,37.028 -32.08,41.965 -49.329,47.572 -84.572,28.53 -84.572,28.53" /></g><g
           transform="translate(195.3574,211.002)"
           id="g236"><path
             id="path238"
             style="fill:none;stroke:#634c18;stroke-width:1;stroke-linecap:butt;stroke-linejoin:miter;stroke-miterlimit:10;stroke-dasharray:none;stroke-opacity:1"
             d="M 0,0 C 0,0 -35.434,-20.022 -50.617,-15.092 -67.869,-9.49 -85.191,26.631 -85.191,26.631" /></g><g
           transform="translate(122.9902,4.0703)"
           id="g240"><path
             id="path242"
             style="fill:none;stroke:#634c18;stroke-width:1;stroke-linecap:butt;stroke-linejoin:miter;stroke-miterlimit:10;stroke-dasharray:none;stroke-opacity:1"
             d="M 0,0 C 0,0 -14.27,38.117 -29.074,44.101 -45.891,50.897 -82.376,34.36 -82.376,34.36" /></g><g
           transform="translate(201.4482,205.5986)"
           id="g244"><path
             id="path246"
             style="fill:none;stroke:#634c18;stroke-width:1;stroke-linecap:butt;stroke-linejoin:miter;stroke-miterlimit:10;stroke-dasharray:none;stroke-opacity:1"
             d="m 0,0 c 0,0 -36.744,-17.502 -51.547,-11.524 -16.819,6.792 -31.579,44.032 -31.579,44.032" /></g><g
           transform="translate(114.8203,4.2236)"
           id="g248"><path
             id="path250"
             style="fill:none;stroke:#634c18;stroke-width:1;stroke-linecap:butt;stroke-linejoin:miter;stroke-miterlimit:10;stroke-dasharray:none;stroke-opacity:1"
             d="m 0,0 c 0,0 -11.576,39.02 -25.927,46.021 -16.302,7.954 -53.851,-5.999 -53.851,-5.999" /></g><g
           transform="translate(207.1455,199.7881)"
           id="g252"><path
             id="path254"
             style="fill:none;stroke:#634c18;stroke-width:1;stroke-linecap:butt;stroke-linejoin:miter;stroke-miterlimit:10;stroke-dasharray:none;stroke-opacity:1"
             d="m 0,0 c 0,0 -37.876,-14.896 -52.226,-7.901 -16.304,7.949 -28.43,46.129 -28.43,46.129" /></g><g
           transform="translate(106.6787,4.9502)"
           id="g256"><path
             id="path258"
             style="fill:none;stroke:#634c18;stroke-width:1;stroke-linecap:butt;stroke-linejoin:miter;stroke-miterlimit:10;stroke-dasharray:none;stroke-opacity:1"
             d="M 0,0 C 0,0 -8.826,39.732 -22.653,47.719 -38.36,56.789 -76.792,45.49 -76.792,45.49" /></g><g
           transform="translate(212.4209,193.5986)"
           id="g260"><path
             id="path262"
             style="fill:none;stroke:#634c18;stroke-width:1;stroke-linecap:butt;stroke-linejoin:miter;stroke-miterlimit:10;stroke-dasharray:none;stroke-opacity:1"
             d="m 0,0 c 0,0 -38.823,-12.218 -52.649,-4.239 -15.711,9.067 -25.144,48 -25.144,48" /></g><g
           transform="translate(98.6055,6.2471)"
           id="g264"><path
             id="path266"
             style="fill:none;stroke:#634c18;stroke-width:1;stroke-linecap:butt;stroke-linejoin:miter;stroke-miterlimit:10;stroke-dasharray:none;stroke-opacity:1"
             d="m 0,0 c 0,0 -6.033,40.252 -19.27,49.183 -15.036,10.144 -54.163,1.553 -54.163,1.553" /></g><g
           transform="translate(217.249,187.0601)"
           id="g268"><path
             id="path270"
             style="fill:none;stroke:#634c18;stroke-width:1;stroke-linecap:butt;stroke-linejoin:miter;stroke-miterlimit:10;stroke-dasharray:none;stroke-opacity:1"
             d="M 0,0 C 0,0 -39.581,-9.48 -52.816,-0.556 -67.857,9.585 -74.551,49.081 -74.551,49.081" /></g><g
           transform="translate(90.6387,8.1084)"
           id="g272"><path
             id="path274"
             style="fill:none;stroke:#634c18;stroke-width:1;stroke-linecap:butt;stroke-linejoin:miter;stroke-miterlimit:10;stroke-dasharray:none;stroke-opacity:1"
             d="m 0,0 c 0,0 -3.21,40.574 -15.791,50.407 -14.292,11.168 -53.923,5.328 -53.923,5.328" /></g><g
           transform="translate(221.6064,180.2046)"
           id="g276"><path
             id="path278"
             style="fill:none;stroke:#634c18;stroke-width:1;stroke-linecap:butt;stroke-linejoin:miter;stroke-miterlimit:10;stroke-dasharray:none;stroke-opacity:1"
             d="M 0,0 C 0,0 -40.146,-6.696 -52.727,3.13 -67.023,14.295 -70.945,54.162 -70.945,54.162" /></g><g
           transform="translate(82.8184,10.5244)"
           id="g280"><path
             id="path282"
             style="fill:none;stroke:#634c18;stroke-width:1;stroke-linecap:butt;stroke-linejoin:miter;stroke-miterlimit:10;stroke-dasharray:none;stroke-opacity:1"
             d="m 0,0 c 0,0 -0.372,40.699 -12.236,51.386 -13.479,12.137 -53.42,9.077 -53.42,9.077" /></g><g
           transform="translate(225.4717,173.0654)"
           id="g284"><path
             id="path286"
             style="fill:none;stroke:#634c18;stroke-width:1;stroke-linecap:butt;stroke-linejoin:miter;stroke-miterlimit:10;stroke-dasharray:none;stroke-opacity:1"
             d="M 0,0 C 0,0 -40.515,-3.879 -52.38,6.8 -65.862,18.936 -66.994,58.979 -66.994,58.979" /></g><g
           transform="translate(75.1826,13.4834)"
           id="g288"><path
             id="path290"
             style="fill:none;stroke:#634c18;stroke-width:1;stroke-linecap:butt;stroke-linejoin:miter;stroke-miterlimit:10;stroke-dasharray:none;stroke-opacity:1"
             d="M 0,0 C 0,0 2.468,40.626 -8.622,52.114 -21.221,65.163 -61.278,64.896 -61.278,64.896" /></g><g
           transform="translate(228.8271,165.6777)"
           id="g292"><path
             id="path294"
             style="fill:none;stroke:#634c18;stroke-width:1;stroke-linecap:butt;stroke-linejoin:miter;stroke-miterlimit:10;stroke-dasharray:none;stroke-opacity:1"
             d="m 0,0 c 0,0 -40.687,-1.044 -51.778,10.438 -12.603,13.046 -10.939,53.07 -10.939,53.07" /></g><g
           transform="translate(67.7686,16.9707)"
           id="g296"><path
             id="path298"
             style="fill:none;stroke:#634c18;stroke-width:1;stroke-linecap:butt;stroke-linejoin:miter;stroke-miterlimit:10;stroke-dasharray:none;stroke-opacity:1"
             d="M 0,0 C 0,0 5.296,40.354 -4.966,52.589 -16.623,66.484 -56.603,69.012 -56.603,69.012" /></g><g
           transform="translate(231.6553,158.0767)"
           id="g300"><path
             id="path302"
             style="fill:none;stroke:#634c18;stroke-width:1;stroke-linecap:butt;stroke-linejoin:miter;stroke-miterlimit:10;stroke-dasharray:none;stroke-opacity:1"
             d="m 0,0 c 0,0 -40.66,1.796 -50.924,14.024 -11.662,13.893 -7.21,53.704 -7.21,53.704" /></g><g
           transform="translate(60.6123,20.9697)"
           id="g304"><path
             id="path306"
             style="fill:none;stroke:#634c18;stroke-width:1;stroke-linecap:butt;stroke-linejoin:miter;stroke-miterlimit:10;stroke-dasharray:none;stroke-opacity:1"
             d="M 0,0 C 0,0 8.098,39.887 -1.286,52.807 -11.945,67.481 -51.651,72.792 -51.651,72.792" /></g><g
           transform="translate(233.9424,150.2998)"
           id="g308"><path
             id="path310"
             style="fill:none;stroke:#634c18;stroke-width:1;stroke-linecap:butt;stroke-linejoin:miter;stroke-miterlimit:10;stroke-dasharray:none;stroke-opacity:1"
             d="m 0,0 c 0,0 -40.436,4.628 -49.821,17.542 -10.665,14.673 -3.447,54.076 -3.447,54.076" /></g><g
           transform="translate(53.748,25.4609)"
           id="g312"><path
             id="path314"
             style="fill:none;stroke:#634c18;stroke-width:1;stroke-linecap:butt;stroke-linejoin:miter;stroke-miterlimit:10;stroke-dasharray:none;stroke-opacity:1"
             d="m 0,0 c 0,0 10.86,39.225 2.4,52.768 -9.609,15.382 -48.847,23.45 -48.847,23.45" /></g><g
           transform="translate(235.6777,142.3848)"
           id="g316"><path
             id="path318"
             style="fill:none;stroke:#634c18;stroke-width:1;stroke-linecap:butt;stroke-linejoin:miter;stroke-miterlimit:10;stroke-dasharray:none;stroke-opacity:1"
             d="m 0,0 c 0,0 -40.015,7.437 -48.477,20.975 -9.615,15.381 0.334,54.185 0.334,54.185" /></g><g
           transform="translate(47.21,30.4229)"
           id="g320"><path
             id="path322"
             style="fill:none;stroke:#634c18;stroke-width:1;stroke-linecap:butt;stroke-linejoin:miter;stroke-miterlimit:10;stroke-dasharray:none;stroke-opacity:1"
             d="m 0,0 c 0,0 13.569,38.371 6.075,52.471 -8.513,16.015 -47.093,26.8 -47.093,26.8" /></g><g
           transform="translate(236.8525,134.3706)"
           id="g324"><path
             id="path326"
             style="fill:none;stroke:#634c18;stroke-width:1;stroke-linecap:butt;stroke-linejoin:miter;stroke-miterlimit:10;stroke-dasharray:none;stroke-opacity:1"
             d="m 0,0 c 0,0 -39.398,10.21 -46.896,24.306 -8.518,16.014 4.114,54.029 4.114,54.029" /></g><g
           transform="translate(41.0293,35.8301)"
           id="g328"><path
             id="path330"
             style="fill:none;stroke:#634c18;stroke-width:1;stroke-linecap:butt;stroke-linejoin:miter;stroke-miterlimit:10;stroke-dasharray:none;stroke-opacity:1"
             d="M 0,0 C 0,0 16.213,37.331 9.721,51.92 2.346,68.49 -35.388,81.94 -35.388,81.94" /></g><g
           transform="translate(237.4609,126.2964)"
           id="g332"><path
             id="path334"
             style="fill:none;stroke:#634c18;stroke-width:1;stroke-linecap:butt;stroke-linejoin:miter;stroke-miterlimit:10;stroke-dasharray:none;stroke-opacity:1"
             d="m 0,0 c 0,0 -38.59,12.934 -45.086,27.518 -7.381,16.569 7.872,53.61 7.872,53.61" /></g><g
           transform="translate(35.2363,41.6572)"
           id="g336"><path
             id="path338"
             style="fill:none;stroke:#634c18;stroke-width:1;stroke-linecap:butt;stroke-linejoin:miter;stroke-miterlimit:10;stroke-dasharray:none;stroke-opacity:1"
             d="M 0,0 C 0,0 18.777,36.109 13.318,51.115 7.117,68.16 -29.586,84.209 -29.586,84.209" /></g><g
           transform="translate(237.5,118.2012)"
           id="g340"><path
             id="path342"
             style="fill:none;stroke:#634c18;stroke-width:1;stroke-linecap:butt;stroke-linejoin:miter;stroke-miterlimit:10;stroke-dasharray:none;stroke-opacity:1"
             d="m 0,0 c 0,0 -37.594,15.594 -43.057,30.596 -6.207,17.044 11.593,52.93 11.593,52.93" /></g><g
           transform="translate(29.8594,47.876)"
           id="g344"><path
             id="path346"
             style="fill:none;stroke:#634c18;stroke-width:1;stroke-linecap:butt;stroke-linejoin:miter;stroke-miterlimit:10;stroke-dasharray:none;stroke-opacity:1"
             d="M 0,0 C 0,0 21.25,34.712 16.852,50.062 11.854,67.498 -23.64,86.068 -23.64,86.068" /></g><g
           transform="translate(236.9697,110.124)"
           id="g348"><path
             id="path350"
             style="fill:none;stroke:#634c18;stroke-width:1;stroke-linecap:butt;stroke-linejoin:miter;stroke-miterlimit:10;stroke-dasharray:none;stroke-opacity:1"
             d="m 0,0 c 0,0 -36.414,18.179 -40.817,33.525 -5.003,17.435 15.256,51.993 15.256,51.993" /></g><g
           transform="translate(24.9248,54.4561)"
           id="g352"><path
             id="path354"
             style="fill:none;stroke:#634c18;stroke-width:1;stroke-linecap:butt;stroke-linejoin:miter;stroke-miterlimit:10;stroke-dasharray:none;stroke-opacity:1"
             d="M 0,0 C 0,0 23.619,33.146 20.303,48.764 16.534,66.507 -17.578,87.508 -17.578,87.508" /></g><g
           transform="translate(235.873,102.1055)"
           id="g356"><path
             id="path358"
             style="fill:none;stroke:#634c18;stroke-width:1;stroke-linecap:butt;stroke-linejoin:miter;stroke-miterlimit:10;stroke-dasharray:none;stroke-opacity:1"
             d="m 0,0 c 0,0 -35.058,20.674 -38.38,36.29 -3.774,17.742 18.847,50.802 18.847,50.802" /></g><g
           transform="translate(20.4561,61.3652)"
           id="g360"><path
             id="path362"
             style="fill:none;stroke:#634c18;stroke-width:1;stroke-linecap:butt;stroke-linejoin:miter;stroke-miterlimit:10;stroke-dasharray:none;stroke-opacity:1"
             d="M 0,0 C 0,0 25.874,31.417 23.655,47.229 21.133,65.191 -11.431,88.521 -11.431,88.521" /></g><g
           transform="translate(234.2148,94.1836)"
           id="g364"><path
             id="path366"
             style="fill:none;stroke:#634c18;stroke-width:1;stroke-linecap:butt;stroke-linejoin:miter;stroke-miterlimit:10;stroke-dasharray:none;stroke-opacity:1"
             d="m 0,0 c 0,0 -33.53,23.069 -35.755,38.879 -2.528,17.962 22.344,49.364 22.344,49.364" /></g><g
           transform="translate(16.4756,68.5693)"
           id="g368"><path
             id="path370"
             style="fill:none;stroke:#634c18;stroke-width:1;stroke-linecap:butt;stroke-linejoin:miter;stroke-miterlimit:10;stroke-dasharray:none;stroke-opacity:1"
             d="M 0,0 C 0,0 28.002,29.536 26.892,45.464 25.629,63.559 -5.228,89.103 -5.228,89.103" /></g><g
           transform="translate(232.0029,86.3975)"
           id="g372"><path
             id="path374"
             style="fill:none;stroke:#634c18;stroke-width:1;stroke-linecap:butt;stroke-linejoin:miter;stroke-miterlimit:10;stroke-dasharray:none;stroke-opacity:1"
             d="m 0,0 c 0,0 -31.84,25.352 -32.956,41.278 -1.269,18.095 25.733,47.685 25.733,47.685" /></g><g
           transform="translate(13.0039,76)"
           id="g376"><path
             id="path378"
             style="fill:none;stroke:#634c18;stroke-width:1;stroke-linecap:butt;stroke-linejoin:miter;stroke-miterlimit:10;stroke-dasharray:none;stroke-opacity:1"
             d="M 0,0 C 0,0 29.994,27.511 29.997,43.477 30,61.616 1,89.25 1,89.25" /></g><g
           transform="translate(229.25,78.75)"
           id="g380"><path
             id="path382"
             style="fill:none;stroke:#634c18;stroke-width:1;stroke-linecap:butt;stroke-linejoin:miter;stroke-miterlimit:10;stroke-dasharray:none;stroke-opacity:1"
             d="M 0,0 C 0,0 -29.994,27.511 -29.997,43.477 -30,61.616 -1,89.25 -1,89.25" /></g><text
           id="text384"
           style="font-variant:normal;font-weight:normal;font-stretch:normal;font-size:44.00001144px;font-family:Copperplate;-inkscape-font-specification:Copperplate;writing-mode:lr-tb;fill:#a27e24;fill-opacity:1;fill-rule:nonzero;stroke:none"
           transform="matrix(0.96767929,0.25218403,0.25218403,-0.96767929,87.0785,200.7256)"><tspan
             id="tspan386"
             y="0"
             x="0">L</tspan></text>
<text
           id="text388"
           style="font-variant:normal;font-weight:normal;font-stretch:normal;font-size:44.00001907px;font-family:Copperplate;-inkscape-font-specification:Copperplate;writing-mode:lr-tb;fill:#a27e24;fill-opacity:1;fill-rule:nonzero;stroke:none"
           transform="matrix(0.9991541,0.04112271,0.04112271,-0.9991541,110.8387,206.5004)"><tspan
             id="tspan390"
             y="0"
             x="0">I</tspan></text>
<text
           id="text392"
           style="font-variant:normal;font-weight:normal;font-stretch:normal;font-size:43.99998474px;font-family:Copperplate;-inkscape-font-specification:Copperplate;writing-mode:lr-tb;fill:#a27e24;fill-opacity:1;fill-rule:nonzero;stroke:none"
           transform="matrix(0.98093674,-0.19432735,-0.19432735,-0.98093674,122.9192,208.3297)"><tspan
             id="tspan394"
             y="0"
             x="0">B</tspan></text>
<text
           id="text396"
           style="font-variant:normal;font-weight:normal;font-stretch:normal;font-size:44.00000381px;font-family:Copperplate;-inkscape-font-specification:Copperplate;writing-mode:lr-tb;fill:#a27e24;fill-opacity:1;fill-rule:nonzero;stroke:none"
           transform="matrix(0.55693403,-0.83055673,-0.83055673,-0.55693403,21.5714,75.4311)"><tspan
             id="tspan398"
             y="0"
             x="0">O</tspan></text>
<text
           id="text400"
           style="font-variant:normal;font-weight:normal;font-stretch:normal;font-size:43.99995041px;font-family:Copperplate;-inkscape-font-specification:Copperplate;writing-mode:lr-tb;fill:#a27e24;fill-opacity:1;fill-rule:nonzero;stroke:none"
           transform="matrix(0.80680091,-0.5908234,-0.5908234,-0.80680091,43.4877,44.0316)"><tspan
             id="tspan402"
             y="0"
             x="0">N</tspan></text>
<text
           id="text404"
           style="font-variant:normal;font-weight:normal;font-stretch:normal;font-size:44.00000381px;font-family:Copperplate;-inkscape-font-specification:Copperplate;writing-mode:lr-tb;fill:#a27e24;fill-opacity:1;fill-rule:nonzero;stroke:none"
           transform="matrix(0.95341586,-0.30165908,-0.30165908,-0.95341586,74.671,22.4301)"><tspan
             id="tspan406"
             y="0"
             x="0">E</tspan></text>
<text
           id="text408"
           style="font-variant:normal;font-weight:normal;font-stretch:normal;font-size:43.99995422px;font-family:Copperplate;-inkscape-font-specification:Copperplate;writing-mode:lr-tb;fill:#a27e24;fill-opacity:1;fill-rule:nonzero;stroke:none"
           transform="matrix(0.9937988,0.1111933,0.1111933,-0.9937988,120.3628,12.141)"><tspan
             id="tspan410"
             y="0"
             x="0">F</tspan></text>
<text
           id="text412"
           style="font-variant:normal;font-weight:normal;font-stretch:normal;font-size:44.00001144px;font-family:Copperplate;-inkscape-font-specification:Copperplate;writing-mode:lr-tb;fill:#a27e24;fill-opacity:1;fill-rule:nonzero;stroke:none"
           transform="matrix(0.91975884,0.39248398,0.39248398,-0.91975884,150.6767,15.886)"><tspan
             id="tspan414"
             y="0"
             x="0">A</tspan></text>
<text
           id="text416"
           style="font-variant:normal;font-weight:normal;font-stretch:normal;font-size:44.00001144px;font-family:Copperplate;-inkscape-font-specification:Copperplate;writing-mode:lr-tb;fill:#a27e24;fill-opacity:1;fill-rule:nonzero;stroke:none"
           transform="matrix(0.75565661,0.654968,0.654968,-0.75565661,180.715,29.0992)"><tspan
             id="tspan418"
             y="0"
             x="0">R</tspan></text>
<text
           id="text420"
           style="font-variant:normal;font-weight:normal;font-stretch:normal;font-size:44px;font-family:Copperplate;-inkscape-font-specification:Copperplate;writing-mode:lr-tb;fill:#a27e24;fill-opacity:1;fill-rule:nonzero;stroke:none"
           transform="matrix(0.51517273,0.85708637,0.85708637,-0.51517273,207.2325,53.183)"><tspan
             id="tspan422"
             y="0"
             x="0">E</tspan></text>
<g
           transform="translate(32.5,117)"
           id="g424"><path
             id="path426"
             style="fill:#a27e24;fill-opacity:1;fill-rule:nonzero;stroke:none"
             d="m 0,0 c 0,-2.623 -2.127,-4.75 -4.75,-4.75 -2.623,0 -4.75,2.127 -4.75,4.75 0,2.623 2.127,4.75 4.75,4.75 C -2.127,4.75 0,2.623 0,0" /></g><g
           transform="translate(222.834,118.083)"
           id="g428"><path
             id="path430"
             style="fill:#a27e24;fill-opacity:1;fill-rule:nonzero;stroke:none"
             d="m 0,0 c 0,-2.623 -2.127,-4.75 -4.75,-4.75 -2.623,0 -4.75,2.127 -4.75,4.75 0,2.623 2.127,4.75 4.75,4.75 C -2.127,4.75 0,2.623 0,0" /></g><g
           transform="translate(238.833,121)"
           id="g432"><path
             id="path434"
             style="fill:none;stroke:#a27e24;stroke-width:4;stroke-linecap:butt;stroke-linejoin:miter;stroke-miterlimit:10;stroke-dasharray:none;stroke-opacity:1"
             d="m 0,0 c 0,-64.803 -52.53,-117.333 -117.333,-117.333 -64.803,0 -117.333,52.53 -117.333,117.333 0,64.801 52.53,117.333 117.333,117.333 C -52.53,117.333 0,64.801 0,0 Z" /></g></g></g><g
       id="g436"><g
         clip-path="url(#clipPath440)"
         id="g438"><g
           transform="translate(148.5527,171.083)"
           id="g444"><path
             id="path446"
             style="fill:#a27e24;fill-opacity:1;fill-rule:nonzero;stroke:none"
             d="m 0,0 -11.795,-93.315 c -0.197,-1.555 -0.796,-6.288 -4.88,-6.474 -4.118,-0.19 -5.112,4.47 -5.45,6 l -3.085,13.976 -3.229,-14.679 c -0.88,-4.005 -2.701,-6.035 -5.41,-6.035 l -0.043,0 c -2.732,0.021 -4.535,2.08 -5.357,6.119 l -18.806,92.343 c -0.44,2.165 0.957,4.276 3.122,4.717 2.159,0.446 4.277,-0.956 4.718,-3.121 l 16.473,-80.891 3.072,13.964 c 0.881,4.007 2.716,6.041 5.453,6.042 l 0.002,0 c 2.736,0 4.571,-2.032 5.456,-6.039 l 2.02,-9.151 9.802,77.547 c 0.277,2.191 2.269,3.74 4.47,3.467 C -1.275,4.193 0.276,2.191 0,0 m -26.97,26.582 c -42.158,0 -76.332,-34.174 -76.332,-76.332 0,-42.158 34.174,-76.332 76.332,-76.332 42.158,0 76.332,34.174 76.332,76.332 0,42.158 -34.174,76.332 -76.332,76.332" /></g><g
           transform="translate(149.584,125.5845)"
           id="g448"><path
             id="path450"
             style="fill:none;stroke:#70561b;stroke-width:8;stroke-linecap:round;stroke-linejoin:miter;stroke-miterlimit:10;stroke-dasharray:none;stroke-opacity:1"
             d="m 0,0 16.61,29.24 c 1.956,3.443 2.023,3.406 0.147,-0.081 L 14.076,24.174 C 12.2,20.687 10.656,14.593 10.646,10.633 L 10.5,-39.333" /></g><g
           transform="translate(91.251,123.751)"
           id="g452"><path
             id="path454"
             style="fill:none;stroke:#70561b;stroke-width:8;stroke-linecap:round;stroke-linejoin:miter;stroke-miterlimit:10;stroke-dasharray:none;stroke-opacity:1"
             d="m 0,0 -16.61,29.24 c -1.956,3.443 -2.023,3.406 -0.147,-0.081 l 2.681,-4.985 c 1.876,-3.487 3.42,-9.581 3.43,-13.541 l 0.125,-42.766 c 0.011,-3.96 -1.636,-4.416 -3.663,-1.013 L -27.667,-10.5" /></g></g></g></g></svg>