<svg width="24" height="24" viewBox="0 0 24 24" fill="none" xmlns="http://www.w3.org/2000/svg">
<path d="M14.8 3C13.1 3 11.4 3.7 10.2 4.9C8.3 6.8 7.7 9.7 8.8 12.2L8.9 12.5L3.6 17.8C3.2 18.2 3 18.8 3 19.4C3 20 3.2 20.5 3.6 21L3.7 21.1C4.1 21.5 4.7 21.7 5.3 21.7C5.9 21.7 6.4 21.5 6.9 21.1L12.3 15.7L12.5 15.8C13.3 16.1 14.1 16.2 14.9 16.2C16.6 16.2 18.3 15.5 19.5 14.3C21.4 12.4 22 9.5 20.9 7L17.2 10.6C16.8 10.9 16.3 10.9 15.9 10.6L14.1 8.8C13.9 8.6 13.8 8.4 13.8 8.1C13.8 7.9 13.9 7.6 14.1 7.4L17.8 3.7C17.8 3.7 17.8 3.7 17.7 3.7L14 7.4C13.8 7.6 13.7 7.8 13.7 8.1C13.7 8.4 13.8 8.6 14 8.8L15.8 10.6C16.2 11 16.8 11 17.2 10.6L20.8 7L21 7.6C21.4 8.7 21.4 9.9 21.1 11.1C20.8 12.3 20.2 13.3 19.4 14.2C18.8 14.8 18.1 15.3 17.3 15.6C16.5 15.9 15.7 16.1 14.8 16.1C13.9 16.1 13 15.9 12.2 15.6L6.7 21C5.9 21.8 4.5 21.8 3.7 21L3.6 20.9C3.2 20.5 3 20 3 19.4C3 18.8 3.2 18.3 3.6 17.9L8.9 12.6C7.7 10.1 8.2 7.1 10.1 5.1C11.5 3.8 13.1 3.1 14.8 3ZM14.8 3C15.6 3.1 16.4 3.2 17.1 3.5L17.6 3.7C16.8 3.2 15.8 3 14.8 3Z" stroke="black" stroke-width="1.2" stroke-miterlimit="10" stroke-linecap="round" stroke-linejoin="round"/>
</svg>
