<svg width="24" height="24" viewBox="0 0 24 24" fill="none" xmlns="http://www.w3.org/2000/svg">
<path d="M8.3668 16.0708C8.3668 16.9699 9.11222 17.6689 9.99451 17.6689C10.8768 17.6689 11.6222 16.9699 11.6222 16.0708C11.6222 15.1718 10.8768 14.4728 9.99451 14.4728C9.11222 14.4728 8.3668 15.1718 8.3668 16.0708Z" stroke="black" stroke-width="1.2" stroke-linecap="round" stroke-linejoin="round"/>
<path d="M13.3766 12.6023C13.3766 13.4849 14.092 14.2004 14.9746 14.2004C15.8572 14.2004 16.5727 13.4849 16.5727 12.6023C16.5727 11.7197 15.8572 11.0042 14.9746 11.0042C14.092 11.0042 13.3766 11.7197 13.3766 12.6023Z" stroke="black" stroke-width="1.2" stroke-linecap="round" stroke-linejoin="round"/>
<path d="M13.3766 19.5395C13.3766 20.422 14.092 21.1375 14.9746 21.1375C15.8572 21.1375 16.5727 20.422 16.5727 19.5395C16.5727 18.6569 15.8572 17.9414 14.9746 17.9414C14.092 17.9414 13.3766 18.6569 13.3766 19.5395Z" stroke="black" stroke-width="1.2" stroke-linecap="round" stroke-linejoin="round"/>
<path d="M11.5586 14.8376L13.3829 13.3667" stroke="black" stroke-width="1.2" stroke-linecap="round" stroke-linejoin="round"/>
<path d="M13.3016 18.912L11.1016 17.25" stroke="black" stroke-width="1.2" stroke-linecap="round" stroke-linejoin="round"/>
<path d="M15.6953 2.95996C18.8214 2.40874 21.7852 4.48403 22.3365 7.61014" stroke="black" stroke-width="1.2" stroke-linecap="round" stroke-linejoin="round"/>
<path d="M16.4004 5.49902C17.9401 5.22753 19.422 6.26517 19.6935 7.8049" stroke="black" stroke-width="1.2" stroke-linecap="round" stroke-linejoin="round"/>
<mask id="path-8-inside-1_2548_52266" fill="white">
<path fill-rule="evenodd" clip-rule="evenodd" d="M4.95211 9.76396C4.95983 7.6345 6.87956 5.81597 9.36906 5.81597C10.9542 5.81597 12.5446 6.45922 13.9208 8.14897C14.1301 8.4059 14.508 8.44455 14.7649 8.23528C14.7867 8.2176 14.8068 8.19871 14.8254 8.1788C15.3077 7.95154 15.8533 7.76026 16.399 8.03311C16.6033 8.13527 16.8802 8.32076 17.0978 8.56354C17.3077 8.79783 17.4278 9.04441 17.4353 9.29574C17.4349 9.30408 17.4347 9.31246 17.4347 9.32087C17.4347 9.65225 17.7034 9.92087 18.0347 9.92087C19.0092 9.92087 20.1713 10.9937 20.1713 12.5134C20.1713 14.1972 18.8063 15.5622 17.1226 15.5622C16.7912 15.5622 16.5226 15.8308 16.5226 16.1622C16.5226 16.4935 16.7912 16.7622 17.1226 16.7622C19.4691 16.7622 21.3713 14.8599 21.3713 12.5134C21.3713 10.6704 20.099 9.07616 18.5618 8.77278C18.451 8.36789 18.2293 8.02811 17.9914 7.76269C17.6536 7.38571 17.2463 7.11511 16.9357 6.9598C15.9909 6.48738 15.0823 6.75446 14.5147 7.00008C12.9883 5.32294 11.1926 4.61597 9.36906 4.61597C6.46185 4.61597 3.98902 6.6715 3.76813 9.38135C3.19157 9.66738 2.73268 10.0463 2.41834 10.5929C2.05229 11.2294 1.92773 12.0168 1.92773 12.9695C1.92773 15.2049 3.91567 16.7621 6.17644 16.7621C6.50781 16.7621 6.77644 16.4935 6.77644 16.1621C6.77644 15.8307 6.50781 15.5621 6.17644 15.5621C4.40697 15.5621 3.12773 14.3828 3.12773 12.9695C3.12773 12.0978 3.24677 11.5595 3.4586 11.1911C3.65807 10.8442 3.98212 10.5758 4.56508 10.3379C4.59869 10.3252 4.63086 10.3095 4.66127 10.2912C4.73809 10.2451 4.80171 10.1835 4.84967 10.1122C4.89776 10.041 4.93096 9.95896 4.94483 9.87047C4.95039 9.83547 4.95288 9.79983 4.95211 9.76396Z"/>
</mask>
<path d="M4.95211 9.76396L3.75212 9.7596L3.75207 9.77456L3.75238 9.78952L4.95211 9.76396ZM13.9208 8.14897L14.8513 7.39115V7.39115L13.9208 8.14897ZM14.7649 8.23528L14.0071 7.30484L14.0071 7.30484L14.7649 8.23528ZM14.8254 8.1788L14.3139 7.09326L14.1052 7.1916L13.9478 7.36032L14.8254 8.1788ZM16.399 8.03311L15.8624 9.10641V9.10641L16.399 8.03311ZM17.0978 8.56354L16.2041 9.3644L17.0978 8.56354ZM17.4353 9.29574L18.6342 9.34513L18.636 9.30255L18.6347 9.25995L17.4353 9.29574ZM18.5618 8.77278L17.4043 9.08947L17.6004 9.80619L18.3294 9.95007L18.5618 8.77278ZM17.9914 7.76269L18.8851 6.96183L18.8851 6.96183L17.9914 7.76269ZM16.9357 6.9598L17.4724 5.8865V5.8865L16.9357 6.9598ZM14.5147 7.00008L13.6272 7.80778L14.2044 8.44194L14.9913 8.10136L14.5147 7.00008ZM3.76813 9.38135L4.30143 10.4563L4.90906 10.1549L4.96416 9.47884L3.76813 9.38135ZM2.41834 10.5929L3.4586 11.1911L3.4586 11.1911L2.41834 10.5929ZM3.4586 11.1911L2.41834 10.5929L2.41834 10.5929L3.4586 11.1911ZM4.56508 10.3379L4.13901 9.21614L4.12532 9.22133L4.11176 9.22687L4.56508 10.3379ZM4.66127 10.2912L4.04426 9.26193L4.04203 9.26328L4.66127 10.2912ZM4.84967 10.1122L3.85522 9.44062L3.854 9.44244L4.84967 10.1122ZM4.94483 9.87047L3.7597 9.68214L3.75929 9.68472L4.94483 9.87047ZM9.36906 4.61597C6.32303 4.61597 3.7626 6.86924 3.75212 9.7596L6.1521 9.76831C6.15707 8.39976 7.43609 7.01597 9.36906 7.01597V4.61597ZM14.8513 7.39115C13.2557 5.43211 11.3284 4.61597 9.36906 4.61597V7.01597C10.58 7.01597 11.8335 7.48634 12.9904 8.90679L14.8513 7.39115ZM14.0071 7.30484C14.2641 7.09558 14.642 7.13422 14.8513 7.39115L12.9904 8.90679C13.6182 9.67759 14.752 9.79351 15.5228 9.16572L14.0071 7.30484ZM13.9478 7.36032C13.9665 7.34035 13.9863 7.32181 14.0071 7.30484L15.5228 9.16572C15.587 9.11339 15.6471 9.05708 15.7029 8.99728L13.9478 7.36032ZM16.9357 6.9598C15.8397 6.4118 14.8104 6.85931 14.3139 7.09326L15.3369 9.26433C15.5511 9.16341 15.6839 9.11832 15.7769 9.10352C15.8445 9.09277 15.8552 9.10281 15.8624 9.10641L16.9357 6.9598ZM17.9914 7.76269C17.6536 7.38575 17.2464 7.11514 16.9357 6.9598L15.8624 9.10641C15.9027 9.12657 15.9651 9.16286 16.0335 9.21304C16.1018 9.26319 16.1606 9.31585 16.2041 9.3644L17.9914 7.76269ZM18.6347 9.25995C18.6161 8.63603 18.3206 8.12997 17.9914 7.76269L16.2041 9.3644C16.2249 9.38761 16.2384 9.40544 16.2465 9.41738C16.2546 9.42928 16.2566 9.43406 16.2553 9.43142C16.254 9.42861 16.2494 9.41812 16.245 9.40033C16.2404 9.38224 16.2366 9.35888 16.2358 9.33153L18.6347 9.25995ZM18.6347 9.32087C18.6347 9.32895 18.6346 9.33704 18.6342 9.34513L16.2363 9.24635C16.2353 9.27112 16.2347 9.29596 16.2347 9.32087H18.6347ZM18.0347 8.72087C18.3661 8.72087 18.6347 8.9895 18.6347 9.32087H16.2347C16.2347 10.315 17.0406 11.1209 18.0347 11.1209V8.72087ZM21.3713 12.5134C21.3713 11.4405 20.9596 10.5103 20.3604 9.84455C19.781 9.20074 18.9432 8.72087 18.0347 8.72087V11.1209C18.1007 11.1209 18.3312 11.1774 18.5764 11.45C18.8019 11.7006 18.9713 12.0667 18.9713 12.5134H21.3713ZM17.1226 16.7622C19.4691 16.7622 21.3713 14.8599 21.3713 12.5134H18.9713C18.9713 13.5345 18.1436 14.3622 17.1226 14.3622V16.7622ZM17.7226 16.1622C17.7226 16.4935 17.4539 16.7622 17.1226 16.7622V14.3622C16.1285 14.3622 15.3226 15.168 15.3226 16.1622H17.7226ZM17.1226 15.5622C17.4539 15.5622 17.7226 15.8308 17.7226 16.1622H15.3226C15.3226 17.1563 16.1285 17.9622 17.1226 17.9622V15.5622ZM20.1713 12.5134C20.1713 14.1972 18.8063 15.5622 17.1226 15.5622V17.9622C20.1318 17.9622 22.5713 15.5227 22.5713 12.5134H20.1713ZM18.3294 9.95007C19.235 10.1288 20.1713 11.1698 20.1713 12.5134H22.5713C22.5713 10.171 20.963 8.02353 18.7941 7.59549L18.3294 9.95007ZM17.0978 8.56354C17.2485 8.73171 17.3555 8.9112 17.4043 9.08947L19.7192 8.45608C19.5464 7.82459 19.2101 7.32452 18.8851 6.96183L17.0978 8.56354ZM16.399 8.03311C16.6034 8.13529 16.8802 8.32078 17.0978 8.56355L18.8851 6.96183C18.427 6.45063 17.8892 6.09492 17.4724 5.8865L16.399 8.03311ZM14.9913 8.10136C15.4518 7.90209 15.9355 7.80134 16.399 8.03311L17.4724 5.8865C16.0463 5.17343 14.7127 5.60682 14.0381 5.89879L14.9913 8.10136ZM9.36906 5.81597C10.85 5.81597 12.325 6.37696 13.6272 7.80778L15.4022 6.19238C13.6516 4.26892 11.5353 3.41597 9.36906 3.41597V5.81597ZM4.96416 9.47884C5.12681 7.48344 6.9905 5.81597 9.36906 5.81597V3.41597C5.93321 3.41597 2.85122 5.85956 2.5721 9.28386L4.96416 9.47884ZM3.4586 11.1911C3.62843 10.8958 3.88442 10.6632 4.30143 10.4563L3.23483 8.30637C2.49873 8.67154 1.83692 9.19679 1.37808 9.99468L3.4586 11.1911ZM3.12773 12.9695C3.12773 12.098 3.24671 11.5596 3.4586 11.1911L1.37808 9.99468C0.857864 10.8993 0.727734 11.9356 0.727734 12.9695H3.12773ZM6.17644 15.5621C4.39914 15.5621 3.12773 14.376 3.12773 12.9695H0.727734C0.727734 16.0337 3.43219 17.9621 6.17644 17.9621V15.5621ZM5.57644 16.1621C5.57644 15.8307 5.84507 15.5621 6.17644 15.5621V17.9621C7.17055 17.9621 7.97644 17.1562 7.97644 16.1621H5.57644ZM6.17644 16.7621C5.84507 16.7621 5.57644 16.4935 5.57644 16.1621H7.97644C7.97644 15.168 7.17056 14.3621 6.17644 14.3621V16.7621ZM1.92773 12.9695C1.92773 15.1952 3.90449 16.7621 6.17644 16.7621V14.3621C4.90944 14.3621 4.32773 13.5704 4.32773 12.9695H1.92773ZM2.41834 10.5929C2.05221 11.2296 1.92773 12.0171 1.92773 12.9695H4.32773C4.32773 12.1785 4.44133 11.8894 4.49886 11.7893L2.41834 10.5929ZM4.11176 9.22687C3.37129 9.52898 2.79231 9.94258 2.41834 10.5929L4.49886 11.7893C4.52023 11.7522 4.54839 11.7151 4.60845 11.668C4.67632 11.6148 4.79809 11.5389 5.01841 11.449L4.11176 9.22687ZM4.04203 9.26328C4.07245 9.24495 4.10488 9.2291 4.13901 9.21614L4.99116 11.4598C5.0925 11.4213 5.18927 11.374 5.28052 11.319L4.04203 9.26328ZM3.854 9.44244C3.90188 9.37125 3.96626 9.3087 4.04426 9.26194L5.27828 11.3204C5.50993 11.1815 5.70155 10.9958 5.84535 10.782L3.854 9.44244ZM3.75929 9.68472C3.77336 9.5949 3.80719 9.51175 3.85522 9.44063L5.84412 10.7838C5.98833 10.5703 6.08856 10.323 6.13037 10.0562L3.75929 9.68472ZM3.75238 9.78952C3.75161 9.75304 3.75414 9.7171 3.7597 9.68214L6.12996 10.0588C6.14664 9.95384 6.15415 9.84663 6.15184 9.73839L3.75238 9.78952Z" fill="black" mask="url(#path-8-inside-1_2548_52266)"/>
</svg>
