<svg width="24" height="24" viewBox="0 0 24 24" fill="none" xmlns="http://www.w3.org/2000/svg">
<path d="M8.19922 10.9201C9.34922 10.2101 10.6992 9.80005 12.1292 9.80005C13.4792 9.80005 14.7392 10.1501 15.8292 10.7701" stroke="black" stroke-width="1.2" stroke-linecap="round" stroke-linejoin="round"/>
<path d="M10.1992 14.1101C10.7692 13.7501 11.4492 13.55 12.1692 13.55C12.8392 13.55 13.4792 13.7201 14.0192 14.0401" stroke="black" stroke-width="1.2" stroke-linecap="round" stroke-linejoin="round"/>
<path d="M11.1992 17.43C11.1992 16.8749 11.6481 16.42 12.2042 16.42H12.2176C12.7736 16.42 13.2292 16.8749 13.2292 17.43C13.2292 17.9919 12.7736 18.44 12.2176 18.44C11.6615 18.44 11.1992 17.9852 11.1992 17.43Z" fill="black"/>
<path d="M21.25 18.1C21.25 19.84 19.91 21.25 18.25 21.25H5.75C4.09 21.25 2.75 19.84 2.75 18.1V11.39C2.75 10.45 3.14 9.57 3.83 8.97L10.08 3.48C11.19 2.5 12.81 2.5 13.92 3.48L20.17 8.97C20.86 9.57 21.25 10.45 21.25 11.39V18.1Z" stroke="black" stroke-width="1.2" stroke-linecap="round" stroke-linejoin="round"/>
</svg>
