<svg width="24" height="24" viewBox="0 0 24 24" fill="none" xmlns="http://www.w3.org/2000/svg">
<g clip-path="url(#clip0_71_45203)">
<path d="M6.66016 4.42358C9.63297 1.45077 14.425 1.45077 17.3978 4.42358M9.37988 6.42017C10.8441 4.95594 13.2401 4.95594 14.7043 6.42017" stroke="black" stroke-width="1.2" stroke-linecap="square" stroke-linejoin="round"/>
<path fill-rule="evenodd" clip-rule="evenodd" d="M12.7964 9.92562C12.3553 10.3667 11.6401 10.3667 11.1991 9.92562C10.758 9.48453 10.758 8.76938 11.1991 8.32829C11.6401 7.8872 12.3553 7.8872 12.7964 8.32829C13.2375 8.76938 13.2375 9.48453 12.7964 9.92562Z" fill="black"/>
<path d="M16.9758 9.65865L19.3731 8C20.1964 9.16271 20.7264 10.5032 20.9188 11.9097C21.1112 13.3161 20.9605 14.7476 20.4793 16.0847C19.998 17.4219 19.2002 18.6258 18.1523 19.596C17.1045 20.5663 15.8371 21.2746 14.4559 21.6621C13.0747 22.0495 11.6198 22.1047 10.2126 21.8231C8.80546 21.5414 7.48685 20.9312 6.36687 20.0432C5.2469 19.1552 4.35806 18.0152 3.77454 16.7185C3.28983 15.6413 3.02748 14.4819 3 13.3081L3 12.6212M5.69795 12.6574L5.70032 12.9404C5.67299 13.9242 5.88256 14.9004 6.31179 15.7887C6.74102 16.677 7.37766 17.4521 8.1694 18.0502C8.96114 18.6484 9.88536 19.0525 10.8661 19.2294C11.8469 19.4064 12.8562 19.351 13.811 19.0679C14.7659 18.7849 15.6391 18.2822 16.3588 17.6011C17.0786 16.9201 17.6244 16.0802 17.9513 15.1504C18.2782 14.2207 18.3769 13.2276 18.2394 12.2528C18.1018 11.278 17.7319 10.3494 17.1601 9.54321L14.9444 11.0748C15.2708 11.5349 15.4819 12.0648 15.5604 12.6212C15.6389 13.1775 15.5826 13.7443 15.396 14.2749C15.2094 14.8055 14.8979 15.2849 14.4872 15.6736C14.0764 16.0622 13.578 16.3491 13.0331 16.5107C12.4881 16.6722 11.9121 16.7038 11.3524 16.6029C10.7926 16.5019 10.2652 16.2712 9.81329 15.9299C9.36144 15.5885 8.99809 15.1461 8.75312 14.6392C8.50815 14.1322 8.38855 13.5751 8.40414 13.0136L8.39831 12.6574" stroke="black" stroke-linejoin="round"/>
<path d="M5.66806 7.66072C5.57341 7.55827 5.44027 7.5 5.30078 7.5C5.1613 7.5 5.02815 7.55827 4.9335 7.66072L1.4694 11.4107C1.33462 11.5566 1.29899 11.7685 1.37862 11.9505C1.45825 12.1324 1.63805 12.25 1.83668 12.25H8.76488C8.96351 12.25 9.14331 12.1324 9.22294 11.9505C9.30258 11.7685 9.26694 11.5566 9.13216 11.4107L5.66806 7.66072Z" stroke="black" stroke-linejoin="round"/>
</g>
<defs>
<clipPath id="clip0_71_45203">
<rect width="24" height="24" fill="white"/>
</clipPath>
</defs>
</svg>
