<svg width="24" height="24" viewBox="0 0 24 24" fill="none" xmlns="http://www.w3.org/2000/svg">
<path d="M15.5684 2.99548C18.6945 2.44427 21.6583 4.51955 22.2095 7.64566" stroke="black" stroke-width="1.2" stroke-linecap="round" stroke-linejoin="round"/>
<path d="M16.2734 5.53455C17.8132 5.26305 19.2951 6.30069 19.5666 7.84042" stroke="black" stroke-width="1.2" stroke-linecap="round" stroke-linejoin="round"/>
<mask id="path-3-inside-1_2784_50750" fill="white">
<path fill-rule="evenodd" clip-rule="evenodd" d="M4.82516 9.79948C4.83288 7.67002 6.75261 5.85149 9.24211 5.85149C10.8272 5.85149 12.4176 6.49475 13.7939 8.18449C14.0031 8.44143 14.3811 8.48007 14.638 8.2708C14.6597 8.25312 14.6798 8.23424 14.6984 8.21432C15.1807 7.98706 15.7264 7.79578 16.2721 8.06863C16.4764 8.17079 16.7532 8.35628 16.9708 8.59907C17.1808 8.83335 17.3008 9.07993 17.3083 9.33126C17.308 9.3396 17.3078 9.34798 17.3078 9.3564C17.3078 9.68777 17.5764 9.9564 17.9078 9.9564C18.8822 9.9564 20.0443 11.0293 20.0443 12.549C20.0443 13.6326 19.5569 14.325 18.9649 14.7895C18.3526 15.2699 17.6297 15.5006 17.2346 15.5947C16.8115 15.6954 16.3801 15.7828 16.0529 15.8453C15.8897 15.8764 15.7533 15.9012 15.658 15.9181C15.6104 15.9266 15.5731 15.9331 15.5479 15.9374L15.5194 15.9423L15.5124 15.9435L15.5108 15.9438L15.5105 15.9438L15.5105 15.9438L15.5104 15.9438C15.1837 15.9987 14.9632 16.3081 15.0181 16.6349C15.0729 16.9617 15.3823 17.1821 15.7091 17.1273L15.6098 16.5355L15.7092 17.1272L15.7092 17.1272L15.7094 17.1272L15.7101 17.1271L15.7123 17.1267L15.7206 17.1253L15.7518 17.12C15.7789 17.1153 15.8182 17.1085 15.868 17.0996C15.9674 17.0819 16.1089 17.0563 16.2778 17.024C16.6149 16.9597 17.0654 16.8685 17.5125 16.762C17.9876 16.6489 18.9 16.3657 19.7056 15.7336C20.5315 15.0856 21.2443 14.067 21.2443 12.549C21.2443 10.7059 19.972 9.11169 18.4348 8.8083C18.324 8.40342 18.1023 8.06364 17.8645 7.79821C17.5266 7.42123 17.1193 7.15063 16.8088 6.99532C15.8639 6.52291 14.9553 6.78998 14.3878 7.0356C12.8614 5.35846 11.0657 4.65149 9.24211 4.65149C6.3349 4.65149 3.86207 6.70702 3.64118 9.41687C3.06462 9.7029 2.60572 10.0818 2.29139 10.6284C1.92534 11.265 1.80078 12.0523 1.80078 13.005C1.80078 15.2404 3.78871 16.7976 6.04949 16.7976C6.38086 16.7976 6.64949 16.529 6.64949 16.1976C6.64949 15.8663 6.38086 15.5976 6.04949 15.5976C4.28001 15.5976 3.00078 14.4183 3.00078 13.005C3.00078 12.1333 3.11982 11.595 3.33165 11.2266C3.53112 10.8798 3.85517 10.6113 4.43813 10.3735C4.47174 10.3607 4.50391 10.345 4.53432 10.3267C4.61114 10.2806 4.67476 10.219 4.72272 10.1478C4.7708 10.0766 4.80401 9.99448 4.81788 9.90599C4.82344 9.87099 4.82592 9.83535 4.82516 9.79948Z"/>
</mask>
<path d="M4.82516 9.79948L3.62517 9.79513L3.62511 9.81008L3.62543 9.82504L4.82516 9.79948ZM13.7939 8.18449L14.7243 7.42668L14.7243 7.42668L13.7939 8.18449ZM14.638 8.2708L13.8802 7.34036L13.8802 7.34037L14.638 8.2708ZM14.6984 8.21432L14.1869 7.12878L13.9782 7.22712L13.8209 7.39584L14.6984 8.21432ZM16.2721 8.06863L15.7354 9.14193L15.7354 9.14193L16.2721 8.06863ZM16.9708 8.59907L16.0771 9.39992L16.9708 8.59907ZM17.3083 9.33126L18.5073 9.38065L18.509 9.33807L18.5078 9.29548L17.3083 9.33126ZM18.9649 14.7895L18.2241 13.8454L18.2241 13.8454L18.9649 14.7895ZM17.2346 15.5947L17.5125 16.762L17.5125 16.762L17.2346 15.5947ZM16.0529 15.8453L16.2778 17.024L16.2778 17.024L16.0529 15.8453ZM15.658 15.9181L15.868 17.0996L15.868 17.0996L15.658 15.9181ZM15.5479 15.9374L15.7506 17.1202L15.7519 17.12L15.5479 15.9374ZM15.5194 15.9423L15.7201 17.1254L15.7221 17.1251L15.5194 15.9423ZM15.5124 15.9435L15.7118 17.1268L15.7131 17.1266L15.5124 15.9435ZM15.5108 15.9438L15.3114 14.7604L15.3102 14.7606L15.5108 15.9438ZM15.5105 15.9438L15.6299 17.1379L15.6707 17.1338L15.7111 17.1269L15.5105 15.9438ZM15.5105 15.9438L15.3911 14.7498L15.3486 14.754L15.3066 14.7613L15.5105 15.9438ZM15.5104 15.9438L15.7091 17.1273L15.7143 17.1264L15.5104 15.9438ZM15.0181 16.6349L16.2015 16.4362L16.2015 16.4362L15.0181 16.6349ZM15.7091 17.1273L15.9077 18.3107L17.0912 18.1121L16.8926 16.9286L15.7091 17.1273ZM15.6098 16.5355L16.7932 16.3368L14.4263 16.7342L15.6098 16.5355ZM15.7092 17.1272L14.5257 17.326L14.7242 18.508L15.9064 18.3109L15.7092 17.1272ZM15.7094 17.1272L15.9067 18.3109L15.9078 18.3107L15.7094 17.1272ZM15.7101 17.1271L15.9085 18.3106L15.9098 18.3104L15.7101 17.1271ZM15.7123 17.1267L15.912 18.31L15.913 18.3098L15.7123 17.1267ZM15.7206 17.1253L15.9213 18.3084L15.9233 18.3081L15.7206 17.1253ZM15.7518 17.12L15.9545 18.3027L15.9557 18.3025L15.7518 17.12ZM15.868 17.0996L15.6581 15.9181L15.658 15.9181L15.868 17.0996ZM16.2778 17.024L16.0529 15.8453L16.0529 15.8453L16.2778 17.024ZM17.5125 16.762L17.7905 17.9294L17.7905 17.9294L17.5125 16.762ZM19.7056 15.7336L20.4464 16.6777L20.4464 16.6777L19.7056 15.7336ZM18.4348 8.8083L17.2774 9.12499L17.4735 9.84171L18.2025 9.98559L18.4348 8.8083ZM17.8645 7.79821L18.7581 6.99735L18.7581 6.99735L17.8645 7.79821ZM16.8088 6.99532L17.3454 5.92202L17.3454 5.92202L16.8088 6.99532ZM14.3878 7.0356L13.5003 7.8433L14.0774 8.47747L14.8644 8.13689L14.3878 7.0356ZM3.64118 9.41687L4.17447 10.4919L4.7821 10.1904L4.83721 9.51437L3.64118 9.41687ZM2.29139 10.6284L3.33165 11.2266L3.33165 11.2266L2.29139 10.6284ZM3.33165 11.2266L2.29139 10.6284L2.29139 10.6284L3.33165 11.2266ZM4.43813 10.3735L4.01206 9.25166L3.99837 9.25686L3.98481 9.26239L4.43813 10.3735ZM4.53432 10.3267L3.91731 9.29746L3.91507 9.2988L4.53432 10.3267ZM4.72272 10.1478L3.72826 9.47615L3.72704 9.47796L4.72272 10.1478ZM4.81788 9.90599L3.63274 9.71766L3.63234 9.72024L4.81788 9.90599ZM9.24211 4.65149C6.19608 4.65149 3.63565 6.90476 3.62517 9.79513L6.02515 9.80383C6.03011 8.43528 7.30914 7.05149 9.24211 7.05149V4.65149ZM14.7243 7.42668C13.1287 5.46763 11.2014 4.65149 9.24211 4.65149V7.05149C10.4531 7.05149 11.7065 7.52186 12.8634 8.94231L14.7243 7.42668ZM13.8802 7.34037C14.1371 7.1311 14.515 7.16974 14.7243 7.42668L12.8634 8.94231C13.4912 9.71311 14.625 9.82904 15.3958 9.20124L13.8802 7.34037ZM13.8209 7.39584C13.8395 7.37587 13.8593 7.35733 13.8802 7.34036L15.3958 9.20124C15.4601 9.14891 15.5202 9.0926 15.576 9.0328L13.8209 7.39584ZM16.8088 6.99533C15.7128 6.44732 14.6835 6.89484 14.1869 7.12878L15.2099 9.29986C15.4241 9.19893 15.5569 9.15384 15.6499 9.13905C15.7176 9.12829 15.7282 9.13833 15.7354 9.14193L16.8088 6.99533ZM17.8645 7.79821C17.5267 7.42127 17.1194 7.15066 16.8087 6.99532L15.7354 9.14193C15.7757 9.16209 15.8381 9.19839 15.9065 9.24856C15.9749 9.29872 16.0336 9.35137 16.0771 9.39992L17.8645 7.79821ZM18.5078 9.29548C18.4892 8.67155 18.1936 8.16549 17.8645 7.79821L16.0771 9.39992C16.0979 9.42313 16.1114 9.44096 16.1195 9.4529C16.1277 9.4648 16.1296 9.46958 16.1284 9.46695C16.1271 9.46413 16.1225 9.45364 16.118 9.43585C16.1135 9.41776 16.1097 9.3944 16.1088 9.36705L18.5078 9.29548ZM18.5078 9.3564C18.5078 9.36447 18.5076 9.37256 18.5073 9.38065L16.1093 9.28188C16.1083 9.30664 16.1078 9.33148 16.1078 9.3564H18.5078ZM17.9078 8.7564C18.2392 8.7564 18.5078 9.02503 18.5078 9.3564H16.1078C16.1078 10.3505 16.9137 11.1564 17.9078 11.1564V8.7564ZM21.2443 12.549C21.2443 11.476 20.8326 10.5459 20.2335 9.88008C19.6541 9.23627 18.8163 8.7564 17.9078 8.7564V11.1564C17.9738 11.1564 18.2042 11.213 18.4495 11.4855C18.675 11.7361 18.8443 12.1023 18.8443 12.549H21.2443ZM19.7056 15.7336C20.5325 15.0848 21.2443 14.0659 21.2443 12.549H18.8443C18.8443 13.1993 18.5813 13.5652 18.2241 13.8454L19.7056 15.7336ZM17.5125 16.762C17.9875 16.6489 18.9 16.3657 19.7056 15.7336L18.2241 13.8454C17.8053 14.1741 17.2719 14.3522 16.9566 14.4273L17.5125 16.762ZM16.2778 17.024C16.6149 16.9597 17.0654 16.8685 17.5125 16.762L16.9566 14.4273C16.5575 14.5223 16.1454 14.606 15.8279 14.6666L16.2778 17.024ZM15.868 17.0996C15.9674 17.0819 16.1089 17.0563 16.2778 17.024L15.8279 14.6666C15.6705 14.6966 15.5392 14.7204 15.4481 14.7366L15.868 17.0996ZM15.7519 17.12C15.7789 17.1153 15.8182 17.1085 15.868 17.0996L15.4481 14.7366C15.4027 14.7447 15.3674 14.7508 15.344 14.7549L15.7519 17.12ZM15.7221 17.1251L15.7506 17.1202L15.3453 14.7546L15.3168 14.7595L15.7221 17.1251ZM15.7131 17.1266L15.7201 17.1254L15.3188 14.7592L15.3118 14.7604L15.7131 17.1266ZM15.7102 17.1271L15.7118 17.1268L15.313 14.7602L15.3114 14.7604L15.7102 17.1271ZM15.7111 17.1269L15.7114 17.1269L15.3102 14.7606L15.3099 14.7607L15.7111 17.1269ZM15.6299 17.1379L15.6299 17.1379L15.3911 14.7498L15.3911 14.7498L15.6299 17.1379ZM15.7143 17.1264L15.7144 17.1264L15.3066 14.7613L15.3065 14.7613L15.7143 17.1264ZM16.2015 16.4362C16.2564 16.763 16.0359 17.0724 15.7091 17.1273L15.3117 14.7604C14.3314 14.925 13.6701 15.8531 13.8346 16.8335L16.2015 16.4362ZM15.5105 15.9438C15.8373 15.889 16.1467 16.1094 16.2015 16.4362L13.8346 16.8335C13.9992 17.8139 14.9274 18.4753 15.9077 18.3107L15.5105 15.9438ZM14.4263 16.7342L14.5257 17.3259L16.8926 16.9286L16.7932 16.3369L14.4263 16.7342ZM16.8926 16.9285L16.7932 16.3368L14.4264 16.7343L14.5257 17.326L16.8926 16.9285ZM15.5119 15.9436L15.5119 15.9436L15.9064 18.3109L15.9065 18.3109L15.5119 15.9436ZM15.5121 15.9435L15.5119 15.9436L15.9065 18.3109L15.9067 18.3109L15.5121 15.9435ZM15.5116 15.9436L15.511 15.9437L15.9078 18.3107L15.9085 18.3106L15.5116 15.9436ZM15.5126 15.9435L15.5104 15.9438L15.9098 18.3104L15.912 18.31L15.5126 15.9435ZM15.5199 15.9422L15.5116 15.9436L15.913 18.3098L15.9213 18.3084L15.5199 15.9422ZM15.5492 15.9372L15.518 15.9425L15.9233 18.3081L15.9545 18.3027L15.5492 15.9372ZM15.658 15.9181C15.6104 15.9266 15.5731 15.9331 15.5479 15.9374L15.9557 18.3025C15.9846 18.2975 16.026 18.2903 16.0779 18.2811L15.658 15.9181ZM16.0529 15.8453C15.8897 15.8764 15.7533 15.9012 15.6581 15.9181L16.0779 18.2811C16.1815 18.2627 16.3281 18.2361 16.5028 18.2027L16.0529 15.8453ZM17.2346 15.5947C16.8115 15.6954 16.3801 15.7828 16.0529 15.8453L16.5028 18.2027C16.8496 18.1365 17.3194 18.0416 17.7905 17.9294L17.2346 15.5947ZM18.9649 14.7895C18.3526 15.2699 17.6296 15.5006 17.2346 15.5947L17.7905 17.9294C18.3456 17.7972 19.4475 17.4614 20.4464 16.6777L18.9649 14.7895ZM20.0443 12.549C20.0443 13.6318 19.5576 14.3245 18.9649 14.7895L20.4464 16.6777C21.5053 15.8468 22.4443 14.5021 22.4443 12.549H20.0443ZM18.2025 9.98559C19.108 10.1643 20.0443 11.2054 20.0443 12.549H22.4443C22.4443 10.2065 20.836 8.05906 18.6672 7.63101L18.2025 9.98559ZM16.9708 8.59906C17.1215 8.76723 17.2286 8.94672 17.2774 9.12499L19.5923 8.4916C19.4195 7.86011 19.0832 7.36004 18.7581 6.99735L16.9708 8.59906ZM16.2721 8.06863C16.4764 8.17081 16.7533 8.35631 16.9708 8.59907L18.7581 6.99735C18.3 6.48616 17.7623 6.13045 17.3454 5.92202L16.2721 8.06863ZM14.8644 8.13689C15.3248 7.93761 15.8086 7.83686 16.2721 8.06863L17.3454 5.92202C15.9193 5.20895 14.5858 5.64234 13.9111 5.93431L14.8644 8.13689ZM9.24211 5.85149C10.723 5.85149 12.1981 6.41248 13.5003 7.8433L15.2752 6.2279C13.5247 4.30444 11.4083 3.45149 9.24211 3.45149V5.85149ZM4.83721 9.51437C4.99986 7.51896 6.86355 5.85149 9.24211 5.85149V3.45149C5.80625 3.45149 2.72427 5.89508 2.44514 9.31938L4.83721 9.51437ZM3.33165 11.2266C3.50148 10.9313 3.75747 10.6987 4.17447 10.4919L3.10788 8.34189C2.37178 8.70707 1.70997 9.23231 1.25113 10.0302L3.33165 11.2266ZM3.00078 13.005C3.00078 12.1335 3.11976 11.5951 3.33165 11.2266L1.25113 10.0302C0.730911 10.9348 0.600781 11.9711 0.600781 13.005H3.00078ZM6.04949 15.5976C4.27218 15.5976 3.00078 14.4116 3.00078 13.005H0.600781C0.600781 16.0692 3.30524 17.9976 6.04949 17.9976V15.5976ZM5.44949 16.1976C5.44949 15.8663 5.71812 15.5976 6.04949 15.5976V17.9976C7.0436 17.9976 7.84949 17.1917 7.84949 16.1976H5.44949ZM6.04949 16.7976C5.71812 16.7976 5.44949 16.529 5.44949 16.1976H7.84949C7.84949 15.2035 7.0436 14.3976 6.04949 14.3976V16.7976ZM1.80078 13.005C1.80078 15.2307 3.77754 16.7976 6.04949 16.7976V14.3976C4.78249 14.3976 4.20078 13.6059 4.20078 13.005H1.80078ZM2.29139 10.6284C1.92526 11.2651 1.80078 12.0526 1.80078 13.005H4.20078C4.20078 12.2141 4.31438 11.9249 4.37191 11.8249L2.29139 10.6284ZM3.98481 9.26239C3.24434 9.5645 2.66536 9.97811 2.29139 10.6284L4.37191 11.8249C4.39328 11.7877 4.42143 11.7506 4.4815 11.7035C4.54936 11.6503 4.67114 11.5744 4.89145 11.4845L3.98481 9.26239ZM3.91507 9.2988C3.9455 9.28047 3.97793 9.26462 4.01206 9.25166L4.8642 11.4953C4.96555 11.4568 5.06231 11.4095 5.15356 11.3546L3.91507 9.2988ZM3.72704 9.47796C3.77493 9.40678 3.83931 9.34422 3.91731 9.29746L5.15132 11.3559C5.38297 11.217 5.57459 11.0313 5.71839 10.8176L3.72704 9.47796ZM3.63234 9.72024C3.64641 9.63042 3.68023 9.54727 3.72826 9.47615L5.71717 10.8194C5.86138 10.6058 5.96161 10.3585 6.00341 10.0917L3.63234 9.72024ZM3.62543 9.82504C3.62465 9.78856 3.62719 9.75262 3.63275 9.71766L6.003 10.0943C6.01968 9.98937 6.02719 9.88215 6.02489 9.77392L3.62543 9.82504Z" fill="black" mask="url(#path-3-inside-1_2784_50750)"/>
<path d="M9.62915 17.9081L7.3151 17.1367C6.05903 16.718 6.05903 14.9413 7.3151 14.5227L14.5573 12.1086C15.6343 11.7496 16.659 12.7743 16.3 13.8513L13.8859 21.0935C13.4672 22.3495 11.6905 22.3495 11.2719 21.0935L10.5005 18.7794C10.3634 18.368 10.0405 18.0452 9.62915 17.9081Z" stroke="black" stroke-width="1.2" stroke-linecap="round" stroke-linejoin="round"/>
</svg>
