<svg width="24" height="24" viewBox="0 0 24 24" fill="none" xmlns="http://www.w3.org/2000/svg">
<path d="M15.5684 2.95996C18.6945 2.40874 21.6583 4.48403 22.2095 7.61014" stroke="black" stroke-width="1.2" stroke-linecap="round" stroke-linejoin="round"/>
<path d="M16.2734 5.49902C17.8132 5.22753 19.2951 6.26517 19.5666 7.8049" stroke="black" stroke-width="1.2" stroke-linecap="round" stroke-linejoin="round"/>
<mask id="path-3-inside-1_2784_50749" fill="white">
<path fill-rule="evenodd" clip-rule="evenodd" d="M4.82516 9.76396C4.83288 7.6345 6.75261 5.81597 9.24211 5.81597C10.8272 5.81597 12.4176 6.45922 13.7939 8.14897C14.0031 8.4059 14.3811 8.44455 14.638 8.23528C14.6597 8.2176 14.6798 8.19871 14.6984 8.1788C15.1807 7.95154 15.7264 7.76026 16.2721 8.03311C16.4764 8.13527 16.7532 8.32076 16.9708 8.56354C17.1808 8.79783 17.3008 9.04441 17.3083 9.29574C17.308 9.30408 17.3078 9.31246 17.3078 9.32087C17.3078 9.65225 17.5764 9.92087 17.9078 9.92087C18.8822 9.92087 20.0443 10.9937 20.0443 12.5134C20.0443 14.0902 18.8469 15.388 17.3121 15.546C16.9825 15.5799 16.7428 15.8746 16.7767 16.2042C16.8106 16.5339 17.1053 16.7736 17.435 16.7397C19.5753 16.5194 21.2443 14.7117 21.2443 12.5134C21.2443 10.6704 19.972 9.07616 18.4348 8.77278C18.324 8.36789 18.1023 8.02811 17.8645 7.76269C17.5266 7.38571 17.1193 7.11511 16.8088 6.9598C15.8639 6.48738 14.9553 6.75446 14.3878 7.00008C12.8614 5.32294 11.0657 4.61597 9.24211 4.61597C6.3349 4.61597 3.86207 6.6715 3.64118 9.38135C3.06462 9.66738 2.60572 10.0463 2.29139 10.5929C1.92534 11.2294 1.80078 12.0168 1.80078 12.9695C1.80078 15.2049 3.78871 16.7621 6.04949 16.7621C6.38086 16.7621 6.64949 16.4935 6.64949 16.1621C6.64949 15.8307 6.38086 15.5621 6.04949 15.5621C4.28001 15.5621 3.00078 14.3828 3.00078 12.9695C3.00078 12.0978 3.11982 11.5595 3.33165 11.1911C3.53112 10.8442 3.85517 10.5758 4.43813 10.3379C4.47174 10.3252 4.50391 10.3095 4.53432 10.2912C4.61114 10.2451 4.67476 10.1835 4.72272 10.1122C4.7708 10.041 4.80401 9.95896 4.81788 9.87047C4.82344 9.83547 4.82592 9.79983 4.82516 9.76396Z"/>
</mask>
<path d="M4.82516 9.76396L3.62517 9.7596L3.62511 9.77456L3.62543 9.78952L4.82516 9.76396ZM13.7939 8.14897L14.7243 7.39115L14.7243 7.39115L13.7939 8.14897ZM14.638 8.23528L13.8802 7.30484L13.8802 7.30484L14.638 8.23528ZM14.6984 8.1788L14.1869 7.09326L13.9782 7.1916L13.8209 7.36032L14.6984 8.1788ZM16.2721 8.03311L15.7354 9.10641L15.7354 9.10641L16.2721 8.03311ZM16.9708 8.56354L16.0771 9.3644L16.9708 8.56354ZM17.3083 9.29574L18.5073 9.34513L18.509 9.30255L18.5078 9.25995L17.3083 9.29574ZM17.3121 15.546L17.1893 14.3523L17.1893 14.3523L17.3121 15.546ZM16.7767 16.2042L15.583 16.3271L15.583 16.3271L16.7767 16.2042ZM17.435 16.7397L17.5578 17.9334L17.5578 17.9334L17.435 16.7397ZM18.4348 8.77278L17.2774 9.08947L17.4735 9.80619L18.2025 9.95007L18.4348 8.77278ZM17.8645 7.76269L18.7581 6.96183L18.7581 6.96183L17.8645 7.76269ZM16.8088 6.9598L17.3454 5.8865L17.3454 5.8865L16.8088 6.9598ZM14.3878 7.00008L13.5003 7.80778L14.0774 8.44194L14.8644 8.10136L14.3878 7.00008ZM3.64118 9.38135L4.17447 10.4563L4.7821 10.1549L4.83721 9.47884L3.64118 9.38135ZM2.29139 10.5929L3.33165 11.1911L3.33165 11.1911L2.29139 10.5929ZM3.33165 11.1911L2.29139 10.5929L2.29139 10.5929L3.33165 11.1911ZM4.43813 10.3379L4.01206 9.21614L3.99837 9.22133L3.98481 9.22687L4.43813 10.3379ZM4.53432 10.2912L3.91731 9.26193L3.91507 9.26328L4.53432 10.2912ZM4.72272 10.1122L3.72826 9.44062L3.72704 9.44244L4.72272 10.1122ZM4.81788 9.87047L3.63274 9.68214L3.63234 9.68472L4.81788 9.87047ZM9.24211 4.61597C6.19608 4.61597 3.63565 6.86924 3.62517 9.7596L6.02515 9.76831C6.03011 8.39976 7.30914 7.01597 9.24211 7.01597V4.61597ZM14.7243 7.39115C13.1287 5.43211 11.2014 4.61597 9.24211 4.61597V7.01597C10.4531 7.01597 11.7065 7.48634 12.8634 8.90679L14.7243 7.39115ZM13.8802 7.30484C14.1371 7.09558 14.515 7.13422 14.7243 7.39115L12.8634 8.90679C13.4912 9.67759 14.625 9.79351 15.3958 9.16572L13.8802 7.30484ZM13.8209 7.36032C13.8395 7.34035 13.8593 7.32181 13.8802 7.30484L15.3958 9.16572C15.4601 9.11339 15.5202 9.05708 15.576 8.99728L13.8209 7.36032ZM16.8088 6.9598C15.7128 6.4118 14.6835 6.85931 14.1869 7.09326L15.2099 9.26433C15.4241 9.16341 15.5569 9.11832 15.6499 9.10352C15.7176 9.09277 15.7282 9.10281 15.7354 9.10641L16.8088 6.9598ZM17.8645 7.76269C17.5267 7.38575 17.1194 7.11514 16.8087 6.9598L15.7354 9.10641C15.7757 9.12657 15.8381 9.16286 15.9065 9.21304C15.9749 9.26319 16.0336 9.31585 16.0771 9.3644L17.8645 7.76269ZM18.5078 9.25995C18.4892 8.63603 18.1936 8.12997 17.8645 7.76269L16.0771 9.3644C16.0979 9.38761 16.1114 9.40544 16.1195 9.41738C16.1277 9.42928 16.1296 9.43406 16.1284 9.43142C16.1271 9.42861 16.1225 9.41812 16.118 9.40033C16.1135 9.38224 16.1097 9.35888 16.1088 9.33153L18.5078 9.25995ZM18.5078 9.32087C18.5078 9.32895 18.5076 9.33704 18.5073 9.34513L16.1093 9.24635C16.1083 9.27112 16.1078 9.29596 16.1078 9.32087H18.5078ZM17.9078 8.72087C18.2392 8.72087 18.5078 8.9895 18.5078 9.32087H16.1078C16.1078 10.315 16.9137 11.1209 17.9078 11.1209V8.72087ZM21.2443 12.5134C21.2443 11.4405 20.8326 10.5103 20.2335 9.84455C19.6541 9.20074 18.8163 8.72087 17.9078 8.72087V11.1209C17.9738 11.1209 18.2042 11.1774 18.4495 11.45C18.675 11.7006 18.8443 12.0667 18.8443 12.5134H21.2443ZM17.435 16.7397C19.5756 16.5194 21.2443 14.7114 21.2443 12.5134H18.8443C18.8443 13.469 18.1181 14.2567 17.1893 14.3523L17.435 16.7397ZM17.9704 16.0814C18.0043 16.411 17.7646 16.7057 17.435 16.7397L17.1893 14.3523C16.2004 14.454 15.4812 15.3382 15.583 16.3271L17.9704 16.0814ZM17.3121 15.546C17.6418 15.512 17.9365 15.7518 17.9704 16.0814L15.583 16.3271C15.6848 17.316 16.5689 18.0351 17.5578 17.9334L17.3121 15.546ZM20.0443 12.5134C20.0443 14.09 18.8471 15.388 17.3121 15.546L17.5578 17.9334C20.3035 17.6508 22.4443 15.3335 22.4443 12.5134H20.0443ZM18.2025 9.95007C19.108 10.1288 20.0443 11.1698 20.0443 12.5134H22.4443C22.4443 10.171 20.836 8.02353 18.6672 7.59549L18.2025 9.95007ZM16.9708 8.56354C17.1215 8.73171 17.2286 8.9112 17.2774 9.08947L19.5923 8.45608C19.4195 7.82459 19.0832 7.32452 18.7581 6.96183L16.9708 8.56354ZM16.2721 8.03311C16.4764 8.13529 16.7533 8.32078 16.9708 8.56355L18.7581 6.96183C18.3 6.45063 17.7623 6.09492 17.3454 5.8865L16.2721 8.03311ZM14.8644 8.10136C15.3248 7.90209 15.8086 7.80134 16.2721 8.03311L17.3454 5.8865C15.9193 5.17343 14.5858 5.60682 13.9111 5.89879L14.8644 8.10136ZM9.24211 5.81597C10.723 5.81597 12.1981 6.37696 13.5003 7.80778L15.2752 6.19238C13.5247 4.26892 11.4083 3.41597 9.24211 3.41597V5.81597ZM4.83721 9.47884C4.99986 7.48344 6.86355 5.81597 9.24211 5.81597V3.41597C5.80625 3.41597 2.72427 5.85956 2.44514 9.28386L4.83721 9.47884ZM3.33165 11.1911C3.50148 10.8958 3.75747 10.6632 4.17447 10.4563L3.10788 8.30637C2.37177 8.67154 1.70997 9.19679 1.25113 9.99468L3.33165 11.1911ZM3.00078 12.9695C3.00078 12.098 3.11976 11.5596 3.33165 11.1911L1.25113 9.99468C0.730911 10.8993 0.600781 11.9356 0.600781 12.9695H3.00078ZM6.04949 15.5621C4.27218 15.5621 3.00078 14.376 3.00078 12.9695H0.600781C0.600781 16.0337 3.30524 17.9621 6.04949 17.9621V15.5621ZM5.44949 16.1621C5.44949 15.8307 5.71812 15.5621 6.04949 15.5621V17.9621C7.0436 17.9621 7.84949 17.1562 7.84949 16.1621H5.44949ZM6.04949 16.7621C5.71812 16.7621 5.44949 16.4935 5.44949 16.1621H7.84949C7.84949 15.168 7.0436 14.3621 6.04949 14.3621V16.7621ZM1.80078 12.9695C1.80078 15.1952 3.77754 16.7621 6.04949 16.7621V14.3621C4.78249 14.3621 4.20078 13.5704 4.20078 12.9695H1.80078ZM2.29139 10.5929C1.92526 11.2296 1.80078 12.0171 1.80078 12.9695H4.20078C4.20078 12.1785 4.31438 11.8894 4.37191 11.7893L2.29139 10.5929ZM3.98481 9.22687C3.24434 9.52898 2.66536 9.94258 2.29139 10.5929L4.37191 11.7893C4.39328 11.7522 4.42143 11.7151 4.4815 11.668C4.54936 11.6148 4.67114 11.5389 4.89145 11.449L3.98481 9.22687ZM3.91507 9.26328C3.9455 9.24495 3.97793 9.2291 4.01206 9.21614L4.8642 11.4598C4.96555 11.4213 5.06231 11.374 5.15356 11.319L3.91507 9.26328ZM3.72704 9.44244C3.77493 9.37125 3.83931 9.3087 3.91731 9.26194L5.15132 11.3204C5.38297 11.1815 5.57459 10.9958 5.71839 10.782L3.72704 9.44244ZM3.63234 9.68472C3.64641 9.5949 3.68023 9.51175 3.72826 9.44063L5.71717 10.7838C5.86138 10.5703 5.96161 10.323 6.00341 10.0562L3.63234 9.68472ZM3.62543 9.78952C3.62465 9.75304 3.62719 9.7171 3.63275 9.68214L6.003 10.0588C6.01968 9.95384 6.02719 9.84663 6.02489 9.73839L3.62543 9.78952Z" fill="black" mask="url(#path-3-inside-1_2784_50749)"/>
<path d="M8.875 11.8058V10.6041" stroke="black" stroke-linecap="round" stroke-linejoin="round"/>
<path d="M14.8711 11.8058V10.6041" stroke="black" stroke-linecap="round" stroke-linejoin="round"/>
<path d="M8.34323 11.205C7.31073 11.205 6.47656 12.0391 6.47656 13.0716V19.535C6.47656 20.5675 7.31073 21.4016 8.34323 21.4016H15.4074C16.4399 21.4016 17.2741 20.5675 17.2741 19.535V13.0716C17.2682 12.0391 16.4341 11.205 15.4016 11.205H8.34323Z" stroke="black" stroke-width="1.2" stroke-linecap="round" stroke-linejoin="round"/>
<path d="M6.47656 13.6083H17.2682" stroke="black" stroke-linecap="round" stroke-linejoin="round"/>
<path fill-rule="evenodd" clip-rule="evenodd" d="M15.3724 15.9999C15.0502 15.9999 14.7891 15.7388 14.7891 15.4166C14.7891 15.0944 15.0502 14.8333 15.3724 14.8333C15.6946 14.8333 15.9557 15.0944 15.9557 15.4166C15.9557 15.7388 15.6946 15.9999 15.3724 15.9999Z" fill="black"/>
<path fill-rule="evenodd" clip-rule="evenodd" d="M13.0384 15.9999C12.7162 15.9999 12.4551 15.7388 12.4551 15.4166C12.4551 15.0944 12.7162 14.8333 13.0384 14.8333C13.3606 14.8333 13.6217 15.0944 13.6217 15.4166C13.6217 15.7388 13.3606 15.9999 13.0384 15.9999Z" fill="black"/>
<path fill-rule="evenodd" clip-rule="evenodd" d="M10.7064 15.9999C10.3842 15.9999 10.123 15.7388 10.123 15.4166C10.123 15.0944 10.3842 14.8333 10.7064 14.8333C11.0285 14.8333 11.2897 15.0944 11.2897 15.4166C11.2897 15.7388 11.0285 15.9999 10.7064 15.9999Z" fill="black"/>
<path fill-rule="evenodd" clip-rule="evenodd" d="M8.3724 15.9999C8.05023 15.9999 7.78906 15.7388 7.78906 15.4166C7.78906 15.0944 8.05023 14.8333 8.3724 14.8333C8.69456 14.8333 8.95573 15.0944 8.95573 15.4166C8.95573 15.7388 8.69456 15.9999 8.3724 15.9999Z" fill="black"/>
<path fill-rule="evenodd" clip-rule="evenodd" d="M15.3724 18.0358C15.0502 18.0358 14.7891 17.7746 14.7891 17.4525C14.7891 17.1303 15.0502 16.8691 15.3724 16.8691C15.6946 16.8691 15.9557 17.1303 15.9557 17.4525C15.9557 17.7746 15.6946 18.0358 15.3724 18.0358Z" fill="black"/>
<path fill-rule="evenodd" clip-rule="evenodd" d="M13.0384 18.0358C12.7162 18.0358 12.4551 17.7746 12.4551 17.4525C12.4551 17.1303 12.7162 16.8691 13.0384 16.8691C13.3606 16.8691 13.6217 17.1303 13.6217 17.4525C13.6217 17.7746 13.3606 18.0358 13.0384 18.0358Z" fill="black"/>
<path fill-rule="evenodd" clip-rule="evenodd" d="M10.7064 18.0358C10.3842 18.0358 10.123 17.7746 10.123 17.4525C10.123 17.1303 10.3842 16.8691 10.7064 16.8691C11.0285 16.8691 11.2897 17.1303 11.2897 17.4525C11.2897 17.7746 11.0285 18.0358 10.7064 18.0358Z" fill="black"/>
<path fill-rule="evenodd" clip-rule="evenodd" d="M8.3724 18.0358C8.05023 18.0358 7.78906 17.7746 7.78906 17.4525C7.78906 17.1303 8.05023 16.8691 8.3724 16.8691C8.69456 16.8691 8.95573 17.1303 8.95573 17.4525C8.95573 17.7746 8.69456 18.0358 8.3724 18.0358Z" fill="black"/>
<path fill-rule="evenodd" clip-rule="evenodd" d="M13.0384 20.0657C12.7162 20.0657 12.4551 19.8045 12.4551 19.4824C12.4551 19.1602 12.7162 18.899 13.0384 18.899C13.3606 18.899 13.6217 19.1602 13.6217 19.4824C13.6217 19.8045 13.3606 20.0657 13.0384 20.0657Z" fill="black"/>
<path fill-rule="evenodd" clip-rule="evenodd" d="M10.7064 20.0657C10.3842 20.0657 10.123 19.8045 10.123 19.4824C10.123 19.1602 10.3842 18.899 10.7064 18.899C11.0285 18.899 11.2897 19.1602 11.2897 19.4824C11.2897 19.8045 11.0285 20.0657 10.7064 20.0657Z" fill="black"/>
<path fill-rule="evenodd" clip-rule="evenodd" d="M8.3724 20.0657C8.05023 20.0657 7.78906 19.8045 7.78906 19.4824C7.78906 19.1602 8.05023 18.899 8.3724 18.899C8.69456 18.899 8.95573 19.1602 8.95573 19.4824C8.95573 19.8045 8.69456 20.0657 8.3724 20.0657Z" fill="black"/>
</svg>
