<svg width="24" height="24" viewBox="0 0 24 24" fill="none" xmlns="http://www.w3.org/2000/svg">
<path d="M11.8513 5.34277C11.4608 5.34277 11.0874 5.36824 10.7224 5.42765C8.82111 5.69078 7.14051 6.64991 5.93523 8.03343C4.72996 9.39998 4 11.2164 4 13.1856C4 15.1548 4.72996 16.9712 5.93523 18.3377C7.14051 19.7212 8.82111 20.6804 10.7224 20.9435C11.0959 21.0029 11.4608 21.0284 11.8513 21.0284C12.2417 21.0284 12.6152 21.0029 12.9802 20.9435C14.8815 20.6804 16.5621 19.7212 17.7673 18.3377C18.737 17.2383 19.399 15.8478 19.6208 14.3209" stroke="black" stroke-width="1.2" stroke-linecap="round" stroke-linejoin="round"/>
<path d="M11.5721 20.952C11.0289 20.3833 8.45703 17.5738 8.45703 13.1856C8.45703 8.79736 11.2241 5.98788 11.7673 5.41919" stroke="black" stroke-width="1.2" stroke-linecap="round" stroke-linejoin="round"/>
<path d="M12.1309 20.952C12.6741 20.3833 15.2459 17.5738 15.2459 13.1855" stroke="black" stroke-width="1.2" stroke-linecap="round" stroke-linejoin="round"/>
<path d="M4.21289 13.1855H15.2471" stroke="black" stroke-width="1.2" stroke-linecap="round" stroke-linejoin="round"/>
<path d="M14.8945 4.92924C14.8945 3.86535 15.8131 3 16.9424 3C18.0717 3 18.9903 3.86535 18.9903 4.92924V5.81582H14.8945V4.92924Z" stroke="black" stroke-width="1.2" stroke-linecap="round" stroke-linejoin="round"/>
<rect x="13.9594" y="6.15981" width="5.96754" height="5.45557" rx="1.4" stroke="black" stroke-width="1.2"/>
<path fill-rule="evenodd" clip-rule="evenodd" d="M16.9433 9.45084C16.5475 9.45084 16.2266 9.12994 16.2266 8.73409C16.2266 8.33823 16.5475 8.01733 16.9433 8.01733C17.3392 8.01733 17.6601 8.33823 17.6601 8.73409C17.6601 9.12994 17.3392 9.45084 16.9433 9.45084Z" fill="black"/>
</svg>
