<svg xmlns="http://www.w3.org/2000/svg" width="24" height="24" viewBox="0 0 24 24">
  <path fill="#08FFF0" d="M12.9870875,0 C13.8421978,0 14.5727215,0.616392273 14.7162613,1.45934778 L14.9615203,2.8941799 C15.4250506,3.04714489 15.8760655,3.23575019 16.3104964,3.45829621 L17.5368429,2.5998382 C18.2364645,2.13259971 19.1677998,2.21958889 19.7687925,2.8083238 L21.2036246,4.24315593 C21.8170297,4.83616562 21.9105083,5.78624812 21.424368,6.48741487 L20.56591,7.7137614 C20.7700055,8.10977822 20.9462146,8.51955588 21.0932529,8.94010792 L22.5526007,9.18536692 C23.3961227,9.32473502 24.0111243,10.0596365 23.9998474,10.9145408 L23.9998474,12.9625719 C23.9998474,13.8176822 23.3832984,14.5482059 22.5403429,14.6917457 L21.0809951,14.9370047 C20.9401373,15.4035171 20.7638433,15.858586 20.5536522,16.2982386 L21.4121102,17.5245851 C21.8961903,18.2242067 21.8082741,19.1703235 21.2036246,19.768844 L19.7687925,21.2036761 C19.1578597,21.7977674 18.2113824,21.8749194 17.5122758,21.3876462 L16.2859293,20.5291881 C15.8664346,20.7406932 15.4319468,20.9210469 14.9859844,21.0687888 L14.7407254,22.5281366 C14.6095979,23.3717101 13.8898384,23.9982485 13.0361702,24.0119999 L10.9758813,24.0119999 C10.120771,24.0119999 9.39024729,23.3956077 9.24670742,22.5526522 L8.94010792,21.0933044 C8.51990682,20.9501738 8.11014103,20.7780656 7.7137614,20.5782193 L6.48741487,21.4489352 C5.78475452,21.8932546 4.8679947,21.791381 4.27998083,21.2036761 L2.80837531,19.7933596 C2.19672139,19.1841779 2.12368963,18.2189019 2.6366631,17.5245851 L3.49512112,16.2982386 C3.28190318,15.9032659 3.09747119,15.493419 2.94326261,15.071892 L1.45934778,14.8143752 C0.616392273,14.6708869 0,13.9403117 0,13.0852014 L0,11.0249125 C0,10.1698022 0.616392273,9.43927849 1.45934778,9.29573862 L2.8941799,9.05047962 C3.0396834,8.59179395 3.22007704,8.14491635 3.43378062,7.7137614 L2.5630648,6.48741487 C2.10906267,5.78696917 2.21165737,4.86366842 2.8083238,4.27998083 L4.21864033,2.80837531 C4.83662915,2.21624117 5.78732969,2.14429097 6.48741487,2.6366631 L7.7137614,3.49512112 C8.1088058,3.28204851 8.51864212,3.0976213 8.94010792,2.94326261 L9.19762472,1.45934778 C9.34111308,0.616392273 10.0716883,0 10.9267986,0 L12.9870875,0 Z M12.9871905,0.625402302 L10.9391594,0.625402302 C10.3792663,0.624117777 9.90121213,1.02939772 9.81092674,1.58197728 L9.49206943,3.43378062 L9.30809943,3.43378062 C8.77766111,3.60133345 8.26436653,3.81897146 7.7751534,4.08375303 L7.6034412,4.16960913 L6.10726857,3.12718111 C5.64713188,2.84122977 5.05388472,2.89108054 4.64792084,3.24981061 L3.18857311,4.70915834 C2.79276979,5.10346807 2.7408544,5.72640121 3.06594361,6.18076386 L4.14514503,7.71370989 L4.03477333,7.87311279 C3.77743045,8.36702967 3.56798845,8.8844604 3.40931652,9.41831662 L3.40931652,9.60228663 L1.58202878,9.89662833 C1.02944923,9.98691372 0.62416928,10.4649679 0.625453805,11.024861 L0.625453805,13.0851499 C0.62416928,13.6450429 1.02944923,14.1230971 1.58202878,14.2133825 L3.43383212,14.5322398 L3.43383212,14.7162098 C3.601007,15.2467875 3.81866,15.7601175 4.08380453,16.2491559 L4.16966063,16.4208681 L3.09045921,17.9170407 C2.76717262,18.3675406 2.81913951,18.986199 3.21308871,19.3763884 L4.67243644,20.8357361 C5.06710669,21.2200542 5.67855459,21.2714546 6.13178417,20.9583656 L7.7138129,19.8546486 L7.8855251,19.9405047 C8.36470395,20.1896765 8.86547568,20.3949154 9.38169773,20.5537037 L9.56566774,20.5537037 L9.84775164,22.4300227 C9.94339338,22.9777094 10.4200055,23.3766544 10.9759843,23.3743468 L13.0362732,23.3743468 C13.5961662,23.3756244 14.0742204,22.9703444 14.1645058,22.4177649 L14.4711053,20.5904771 L14.6550753,20.5904771 C15.1837194,20.4333434 15.6968479,20.2280851 16.1880214,19.9772781 L16.3597336,19.891422 L17.868164,20.9706234 C18.3239172,21.2905623 18.9432451,21.238956 19.3397695,20.8479939 L20.7991173,19.3886462 C21.1949206,18.9943365 21.246836,18.3714033 20.9217468,17.9170407 L19.8302875,16.2982386 L19.9161436,16.1265264 C20.1767551,15.6326216 20.3902694,15.1152691 20.5538582,14.5813225 L20.5538582,14.3973525 L22.4301772,14.1643513 C22.9778639,14.0687096 23.376809,13.5920975 23.3744913,13.0361187 L23.3744913,10.9758298 C23.3872641,10.4161427 22.9834263,9.93355624 22.4301772,9.84759713 L20.6028894,9.54099763 L20.6028894,9.35702762 C20.4417908,8.82796911 20.2324253,8.31483044 19.9774326,7.82408159 L19.8425453,7.71370989 L20.9217468,6.20527946 C21.2450333,5.75477957 21.1930665,5.1361212 20.7991173,4.74593174 L19.3397695,3.22524351 C18.9450993,2.84092543 18.3336514,2.78952508 17.8804218,3.10261401 L16.3719914,4.18181543 L16.2002792,4.03467032 C15.6916606,3.76258473 15.1577006,3.54078994 14.6059926,3.37244011 L14.4220226,3.37244011 L14.1154231,1.58197728 C14.0251377,1.02939772 13.5470835,0.624117777 12.9871905,0.625402302 Z M12.9993968,1.63090414 C13.0626022,1.63061311 13.1156851,1.67838999 13.1220263,1.74127717 L13.1220263,1.74127717 L13.4653992,3.77705051 C13.5106728,4.03414839 13.7027631,4.24065961 13.9559172,4.30439342 C14.692409,4.48874299 15.3986299,4.77784309 16.0529796,5.16285144 C16.2728595,5.30623675 16.5566703,5.30623675 16.7765503,5.16285144 L16.7765503,5.16285144 L18.4566414,3.93650492 L18.5302397,3.93650492 C18.5617858,3.92419397 18.5968075,3.92419397 18.6283536,3.93650492 L18.6283536,3.93650492 L20.0999591,5.39585265 C20.141075,5.44570627 20.141075,5.51771122 20.0999591,5.56756485 L20.0999591,5.56756485 L18.8736126,7.25991378 C18.7302273,7.47979372 18.7302273,7.76360456 18.8736126,7.9834845 C19.2514255,8.62255299 19.5363498,9.31214616 19.7198128,10.0315156 C19.7849214,10.2815731 19.9919462,10.4693289 20.2471557,10.5097758 L20.2471557,10.5097758 L22.2951869,10.8531487 C22.3532178,10.8649972 22.394498,10.9166137 22.3933262,10.9758298 L22.3933262,10.9758298 L22.3933262,12.987036 C22.3935931,13.0502414 22.3458163,13.1033243 22.2829291,13.1096655 L22.2829291,13.1096655 L20.2348979,13.4530384 C19.9796763,13.4934601 19.7726397,13.6812267 19.707555,13.9312986 C19.5240654,14.6506592 19.2391426,15.3402487 18.8613548,15.9793297 C18.7179695,16.1992097 18.7179695,16.4830205 18.8613548,16.7029005 L18.8613548,16.7029005 L20.0877013,18.4075587 C20.1288172,18.4574123 20.1288172,18.5294173 20.0877013,18.5792709 L20.0877013,18.5792709 L18.6283536,20.0386186 C18.5970726,20.0522656 18.5615207,20.0522656 18.5302397,20.0386186 L18.5302397,20.0386186 L18.4566414,20.0386186 L16.7642925,18.8122721 C16.5444125,18.6688868 16.2606017,18.6688868 16.0407218,18.8122721 C15.4016533,19.190085 14.7120601,19.4750093 13.9926906,19.6584723 C13.7426187,19.723557 13.5548521,19.9305936 13.5144304,20.1858152 L13.5144304,20.1858152 L13.1710575,22.2338464 C13.1647163,22.2967336 13.1116334,22.3445104 13.048428,22.3442194 L13.048428,22.3442194 L10.9881391,22.3442194 C10.9249337,22.3445104 10.8718507,22.2967336 10.8655096,22.2338464 L10.8655096,22.2338464 L10.5221366,20.1858152 C10.4817402,19.9305815 10.2939628,19.7235331 10.0438764,19.6584723 C9.34392487,19.4748682 8.67165586,19.1985264 8.044928,18.8367877 C7.94377009,18.7801856 7.82972934,18.7506155 7.7138129,18.7509316 C7.56742381,18.7481006 7.42451905,18.7957295 7.30909949,18.8858189 L7.30909949,18.8858189 L5.60444126,20.1121654 L5.53084295,20.1121654 C5.49929687,20.1244764 5.46427514,20.1244764 5.43272905,20.1121654 L5.43272905,20.1121654 L3.97338133,18.6528177 C3.93226549,18.6029641 3.93226549,18.5309591 3.97338133,18.4811055 L3.97338133,18.4811055 L5.19972785,16.8010144 C5.34001996,16.5802249 5.34001996,16.2982331 5.19972785,16.0774436 C4.81674222,15.4395171 4.52762204,14.7497604 4.34126983,14.0294125 C4.27077608,13.7826591 4.06637253,13.5972805 3.81392692,13.5511523 L3.81392692,13.5511523 L1.74138018,13.1955216 C1.678493,13.1891804 1.63071612,13.1360975 1.63100714,13.0728921 L1.63100714,13.0728921 L1.63100714,11.0126032 C1.63071612,10.9493978 1.678493,10.8963148 1.74138018,10.8899737 L1.74138018,10.8899737 L3.77715352,10.5466007 C4.0342514,10.5013272 4.24076261,10.3092369 4.30449643,10.0560827 C4.48398,9.3373229 4.76477217,8.64774158 5.13843885,8.0080516 C5.27966378,7.79197652 5.27966378,7.51281376 5.13843885,7.29673868 L5.13843885,7.29673868 L3.91209233,5.59208045 C3.87097649,5.54222682 3.87097649,5.47022187 3.91209233,5.42036825 L3.91209233,5.42036825 L5.35918225,3.97327832 C5.39046323,3.9596313 5.42601518,3.9596313 5.45729615,3.97327832 L5.45729615,3.97327832 L5.53089446,3.97327832 L7.21098559,5.19962484 C7.43177504,5.33991696 7.71376685,5.33991696 7.9345563,5.19962484 C8.57248286,4.81663922 9.26223952,4.52751904 9.98258744,4.34116682 C10.2293408,4.27067308 10.4147194,4.06626952 10.4608477,3.81382391 L10.4608477,3.81382391 L10.8164784,1.74127717 C10.8228195,1.67838999 10.8759025,1.63061311 10.9391079,1.63090414 L10.9391079,1.63090414 Z M12.0060515,6.94110798 C9.21559939,6.94110798 6.95346878,9.20323859 6.95346878,11.9936907 C6.95346878,14.7841428 9.21559939,17.0462734 12.0060515,17.0462734 C14.7965036,17.0462734 17.0586342,14.7841428 17.0586342,11.9936907 C17.0586342,9.20323859 14.7965036,6.94110798 12.0060515,6.94110798 Z M12.0060515,8.2778262 C14.0650366,8.2778262 15.7341737,9.9469634 15.7341737,12.0059485 C15.7341737,14.0649335 14.0650366,15.7340707 12.0060515,15.7340707 C9.9470664,15.7340707 8.27792921,14.0649335 8.27792921,12.0059485 C8.27792921,9.9469634 9.9470664,8.2778262 12.0060515,8.2778262 Z"/>
</svg>
