<svg xmlns="http://www.w3.org/2000/svg" xmlns:xlink="http://www.w3.org/1999/xlink" width="24" height="24" viewBox="0 0 24 24">
  <defs>
    <radialGradient id="btn_qos_game_act-_gt-theme-b" cx="47.017%" cy="-14.611%" r="99.643%" fx="47.017%" fy="-14.611%" gradientTransform="matrix(0 1 -1.45462 0 .258 -.616)">
      <stop offset="0%" stop-color="#007871"/>
      <stop offset="61.528%" stop-color="#003F42"/>
      <stop offset="100%" stop-opacity="0"/>
    </radialGradient>
    <radialGradient id="btn_qos_game_act-_gt-theme-c" cx="50%" cy="7.518%" r="92.482%" fx="50%" fy="7.518%" gradientTransform="matrix(0 1 -1.17693 0 .588 -.425)">
      <stop offset="0%"/>
      <stop offset="67.083%" stop-color="#00414B"/>
      <stop offset="100%" stop-color="#FFF"/>
    </radialGradient>
    <circle id="btn_qos_game_act-_gt-theme-a" cx="12" cy="12" r="11"/>
    <filter id="btn_qos_game_act-_gt-theme-d" width="100%" height="100%" x="0%" y="0%" filterUnits="objectBoundingBox">
      <feGaussianBlur in="SourceGraphic"/>
    </filter>
  </defs>
  <g fill="none" fill-rule="evenodd">
    <use fill="#00F7E8" xlink:href="#btn_qos_game_act-_gt-theme-a"/>
    <use fill="#000" fill-opacity=".18" xlink:href="#btn_qos_game_act-_gt-theme-a"/>
    <use fill="url(#btn_qos_game_act-_gt-theme-b)" fill-opacity=".5" xlink:href="#btn_qos_game_act-_gt-theme-a"/>
    <use fill="url(#btn_qos_game_act-_gt-theme-c)" fill-opacity=".7" xlink:href="#btn_qos_game_act-_gt-theme-a" style="mix-blend-mode:overlay"/>
    <circle cx="12" cy="12" r="11.5" stroke="#E4E4E4"/>
    <path fill="#FFF" fill-opacity=".2" d="M12,12 C16.9705627,12 21,9.76142375 21,7 C21,4.23857625 16.9705627,2 12,2 C7.02943725,2 3,4.23857625 3,7 C3,9.76142375 7.02943725,12 12,12 Z" filter="url(#btn_qos_game_act-_gt-theme-d)"/>
    <path fill="#FFF" fill-rule="nonzero" d="M18.5744396,6 L18.5744396,6.00876872 L19.7532684,6.02630617 C19.7532684,6.02630617 19.8446505,6.0350749 19.8903415,6.11399342 C19.9406016,6.19291195 20,6.36390208 20,6.36390208 L20,6.36390208 L19.7989594,13.7077092 L20,17.6229448 C20,17.6229448 19.9314634,17.9430033 19.7578375,17.9693095 C19.6344717,17.9912313 18.898846,17.9956156 18.4282282,18 L18.4282282,18 L18.1449438,18 C17.7657082,17.9956156 16.9615459,17.9868469 16.8381801,17.9693095 C16.6645541,17.9386189 16.6097249,17.6229448 16.6097249,17.6229448 L16.6097249,17.6229448 L16.8290419,13.7077092 L16.6280013,6.36390208 C16.6280013,6.36390208 16.6919688,6.19291195 16.7376598,6.11399342 C16.7833508,6.0350749 16.8747329,6.02630617 16.8747329,6.02630617 L16.8747329,6.02630617 L18.0535617,6.00876872 L18.0535617,6 L18.3140007,6.00438436 L18.5744396,6 Z M6.41580354,8.88491049 C6.62141322,8.88491049 6.79047006,8.91998539 6.91383587,8.95067592 C6.95952691,8.96382901 7.07375451,9.03836317 7.12858375,9.10851297 L7.12858375,9.10851297 L7.59006325,9.665327 C7.74541278,9.84947022 8.02412812,9.9810011 8.27085974,9.9810011 L8.27085974,9.9810011 L11.7936389,9.9810011 C12.0403705,9.9810011 12.3190858,9.85385459 12.4744353,9.665327 L12.4744353,9.665327 L12.9313457,9.10851297 C12.9907441,9.03836317 13.1049717,8.96382901 13.1460936,8.95067592 C13.4659309,8.86737304 14.1010363,8.79283887 14.8001092,9.24004384 C14.8732149,9.28827183 14.9965807,9.40664962 15.0468409,9.48118378 C15.3392635,9.91962002 16.0246291,11.1560102 16.0611819,13.172817 C16.1114421,15.9612715 15.6819463,16.2331019 14.964597,16.342711 C14.2929387,16.439167 13.5207601,15.0317866 13.2283375,14.5012788 L13.2283375,14.5012788 L13.1826465,14.4179759 C13.0958335,14.2557545 12.9130693,14.0365364 12.7257361,13.9313117 C12.328224,13.7077092 11.5514764,13.4402631 10.1122086,13.4227256 L10.1122086,13.4227256 L9.95228998,13.4227256 C8.51302224,13.4446474 7.73627458,13.7077092 7.33876253,13.9313117 C7.15142927,14.0365364 6.96866512,14.2557545 6.88185214,14.4179759 L6.88185214,14.4179759 L6.8361611,14.5012788 C6.54373845,15.0317866 5.76699078,16.439167 5.09990161,16.342711 C4.3871214,16.2331019 3.95762563,15.9612715 4.00331667,13.172817 C4.0398695,11.1560102 4.72523509,9.91962002 5.01765774,9.48118378 C5.06791788,9.40226525 5.19128369,9.28388747 5.26438935,9.23565948 C5.68931602,8.96382901 6.09139716,8.88491049 6.41580354,8.88491049 Z M18.3094315,13.1026672 C17.9621796,13.1026672 17.6788952,13.3744976 17.6788952,13.7077092 C17.6788952,14.0409207 17.9621796,14.3127512 18.3094315,14.3127512 C18.6566834,14.3127512 18.9399679,14.0409207 18.9399679,13.7077092 C18.9399679,13.3744976 18.6566834,13.1026672 18.3094315,13.1026672 Z M13.7492153,12.1337231 C13.516191,12.1337231 13.3242887,12.3178663 13.3242887,12.5414688 C13.3242887,12.7650712 13.516191,12.9492145 13.7492153,12.9492145 C13.9822396,12.9492145 14.174142,12.7650712 14.174142,12.5414688 C14.174142,12.3178663 13.9822396,12.1337231 13.7492153,12.1337231 Z M6.42494175,11.0157106 L5.93604763,11.0157106 C5.89035659,11.0157106 5.84923465,11.0507855 5.84923465,11.0990135 L5.84923465,11.0990135 L5.84923465,11.5812934 L5.34663322,11.5812934 C5.30094218,11.5812934 5.25982025,11.6163683 5.25982025,11.6645963 L5.25982025,11.6645963 L5.25982025,12.1381074 C5.25982025,12.181951 5.29637308,12.2214103 5.34663322,12.2214103 L5.34663322,12.2214103 L5.84923465,12.2214103 L5.84923465,12.7036902 C5.84923465,12.7475338 5.88578749,12.7869931 5.93604763,12.7869931 L5.93604763,12.7869931 L6.42951085,12.7869931 C6.47520189,12.7869931 6.51632383,12.7519182 6.51632383,12.7036902 L6.51632383,12.7036902 L6.51632383,12.2214103 L7.01892526,12.2214103 C7.0646163,12.2214103 7.10573823,12.1863354 7.10573823,12.1381074 L7.10573823,12.1381074 L7.10116913,12.1381074 L7.10116913,11.6645963 C7.10116913,11.6207526 7.0646163,11.5812934 7.01435616,11.5812934 L7.01435616,11.5812934 L6.51175472,11.5812934 L6.51175472,11.0990135 C6.51175472,11.0551699 6.47520189,11.0157106 6.42494175,11.0157106 L6.42494175,11.0157106 Z M13.0501424,11.515528 C12.8171181,11.515528 12.6252158,11.6996712 12.6252158,11.9232737 C12.6252158,12.1468761 12.8171181,12.3310194 13.0501424,12.3310194 C13.2877358,12.3310194 13.4750691,12.1468761 13.4750691,11.9232737 C13.4750691,11.6996712 13.2831667,11.515528 13.0501424,11.515528 Z M14.4437191,11.515528 C14.2106948,11.515528 14.0187925,11.6996712 14.0187925,11.9232737 C14.0187925,12.1468761 14.2106948,12.3310194 14.4437191,12.3310194 C14.6813125,12.3310194 14.8732149,12.1468761 14.8686458,11.9232737 C14.8686458,11.6996712 14.6767434,11.515528 14.4437191,11.515528 Z M13.7492153,10.8841798 C13.5116219,10.8841798 13.3242887,11.068323 13.3242887,11.2919255 C13.3242887,11.515528 13.516191,11.6996712 13.7492153,11.6996712 C13.9822396,11.6996712 14.174142,11.515528 14.174142,11.2919255 C14.174142,11.068323 13.9822396,10.8841798 13.7492153,10.8841798 Z"/>
  </g>
</svg>
