<svg xmlns="http://www.w3.org/2000/svg" xmlns:xlink="http://www.w3.org/1999/xlink" width="24" height="24" viewBox="0 0 24 24">
  <defs>
    <radialGradient id="btn_qos_media_act-_gt-theme-b" cx="47.017%" cy="-14.611%" r="99.643%" fx="47.017%" fy="-14.611%" gradientTransform="matrix(0 1 -1.45462 0 .258 -.616)">
      <stop offset="0%" stop-color="#007871"/>
      <stop offset="61.528%" stop-color="#003F42"/>
      <stop offset="100%" stop-opacity="0"/>
    </radialGradient>
    <radialGradient id="btn_qos_media_act-_gt-theme-c" cx="50%" cy="7.518%" r="92.482%" fx="50%" fy="7.518%" gradientTransform="matrix(0 1 -1.17693 0 .588 -.425)">
      <stop offset="0%"/>
      <stop offset="67.083%" stop-color="#00414B"/>
      <stop offset="100%" stop-color="#FFF"/>
    </radialGradient>
    <circle id="btn_qos_media_act-_gt-theme-a" cx="12" cy="12" r="11"/>
    <filter id="btn_qos_media_act-_gt-theme-d" width="100%" height="100%" x="0%" y="0%" filterUnits="objectBoundingBox">
      <feGaussianBlur in="SourceGraphic"/>
    </filter>
  </defs>
  <g fill="none" fill-rule="evenodd">
    <use fill="#00F7E8" xlink:href="#btn_qos_media_act-_gt-theme-a"/>
    <use fill="#000" fill-opacity=".18" xlink:href="#btn_qos_media_act-_gt-theme-a"/>
    <use fill="url(#btn_qos_media_act-_gt-theme-b)" fill-opacity=".5" xlink:href="#btn_qos_media_act-_gt-theme-a"/>
    <use fill="url(#btn_qos_media_act-_gt-theme-c)" fill-opacity=".7" xlink:href="#btn_qos_media_act-_gt-theme-a" style="mix-blend-mode:overlay"/>
    <circle cx="12" cy="12" r="11.5" stroke="#E4E4E4"/>
    <path fill="#FFF" fill-opacity=".2" d="M12,12 C16.9705627,12 21,9.76142375 21,7 C21,4.23857625 16.9705627,2 12,2 C7.02943725,2 3,4.23857625 3,7 C3,9.76142375 7.02943725,12 12,12 Z" filter="url(#btn_qos_media_act-_gt-theme-d)"/>
    <path fill="#FFF" fill-rule="nonzero" d="M20.3861858,12.0704874 C20.4144756,12.0658925 20.4427653,12.088867 20.4427653,12.1164363 L20.4427653,12.1164363 L20.4427653,16.4815861 C20.4427653,16.8491776 20.1645825,17.138656 19.7260909,17.2489335 C19.6317916,17.2719079 19.5374923,17.2810977 19.447908,17.2810977 C19.2027299,17.2810977 18.9811266,17.1983896 18.8396777,17.0605428 C18.7689532,16.9916194 18.7123737,16.9089113 18.6887989,16.8124185 C18.6510792,16.6653819 18.6840839,16.5137504 18.7642383,16.3804984 C18.7642383,16.3759035 18.7689532,16.3759035 18.7736682,16.3713086 C18.8443927,16.2702209 18.8915423,16.2058924 18.9386919,16.1691333 C18.9434069,16.1599435 18.9622668,16.1507537 18.9716967,16.1461588 C19.0848558,16.0588558 19.2263047,15.9899324 19.3866135,15.9485783 C19.4573379,15.9347936 19.5280624,15.9256039 19.5940719,15.921009 C19.6176467,15.921009 19.6412215,15.9164141 19.6647963,15.9164141 C19.7590956,15.9164141 19.8486799,15.9256039 19.9335493,15.9485783 C19.966554,15.9577681 19.9995588,15.9347936 19.9995588,15.9026294 L19.9995588,15.9026294 L19.9995588,13.3616527 C19.9995588,13.3340834 19.971269,13.3111089 19.9429792,13.3157038 L19.9429792,13.3157038 L19.5987869,13.3754374 L17.5902123,13.7338392 C17.5666375,13.7384341 17.5477777,13.7568137 17.5477777,13.7797881 L17.5477777,13.7797881 L17.5383477,17.051353 L17.5383477,17.051353 C17.5336328,17.3684007 17.24602,17.6716638 16.8311032,17.7727514 C16.7415189,17.7957259 16.6519346,17.8049157 16.5670652,17.8049157 C16.1851532,17.8049157 15.8456758,17.6073352 15.8032411,17.3408314 C15.7796663,17.2443386 15.7843812,17.1478458 15.812671,17.0559479 C15.8881104,16.8032287 16.1474334,16.573484 16.4963408,16.4907759 C16.59064,16.4678014 16.6802243,16.4586116 16.7698087,16.4586116 C16.859393,16.4586116 16.9489773,16.4678014 17.0291317,16.4907759 C17.0621364,16.4999657 17.0951411,16.4769912 17.0951411,16.4448269 L17.0951411,16.4448269 L17.0951411,12.5897105 L18.5096302,12.3645606 L19.5987869,12.1945495 Z M12.6892368,15.2708844 L12.792966,16.1830954 C12.792966,16.1830954 12.8259707,16.3163473 12.9579897,16.4450043 C13.0900087,16.5736614 13.3257569,16.766647 13.3257569,16.766647 C13.3257569,16.766647 13.5379303,16.9182785 13.2173127,16.9642274 C13.0334291,16.9917968 12.2366003,17.0147713 11.5670754,17.0147713 L10.7827816,17.0143937 C10.1632278,17.0116442 9.46773787,16.9940942 9.29917792,16.9688223 C8.97856039,16.9228734 9.19073376,16.7758368 9.19073376,16.7758368 C9.19073376,16.7758368 9.42648194,16.592041 9.55850092,16.4633839 C9.68580494,16.3393218 9.72352465,16.1830954 9.72352465,16.1830954 L9.72352465,16.1830954 L9.82725385,15.2708844 L12.6892368,15.2708844 Z M17.7295329,6.28629756 C17.9134165,6.28629756 18.0737253,6.43792908 18.0737253,6.61712996 L18.0737253,6.61712996 L18.0737253,10.8030788 C17.8898417,10.8260533 17.4416961,10.8674074 17.2578125,10.8949767 L17.2578125,10.8949767 L17.2578125,7.205613 L5.34537316,7.205613 L5.34537316,13.7707141 L16.2396044,13.7707141 L16.2396044,14.9194994 L4.78224273,14.9194994 C4.59835915,14.9194994 4.44276535,14.7357036 4.44276535,14.5519078 L4.44276535,14.5519078 L4.44276535,6.62172486 C4.44276535,6.43792908 4.59835915,6.28629756 4.78224273,6.28629756 L4.78224273,6.28629756 Z M10.4967787,9.16270151 L12.660947,10.3803486 C12.7222415,10.4171077 12.7646762,10.4814362 12.7646762,10.5549545 C12.7646762,10.6284729 12.7269565,10.6928014 12.660947,10.7295605 L10.4967787,11.9472076 C10.4307692,11.9839667 10.3553298,11.9839667 10.2893203,11.9472076 C10.2233108,11.9104484 10.1855911,11.8461199 10.1855911,11.7726016 L10.1855911,9.3373075 C10.1855911,9.26378919 10.2233108,9.19946067 10.2893203,9.16270151 C10.3553298,9.12594236 10.4307692,9.12594236 10.4967787,9.16270151 Z"/>
  </g>
</svg>
