<svg xmlns="http://www.w3.org/2000/svg" xmlns:xlink="http://www.w3.org/1999/xlink" width="24" height="24" viewBox="0 0 24 24">
  <defs>
    <radialGradient id="btn_qos_media-_gt-theme-b" cx="50%" cy="7.518%" r="92.482%" fx="50%" fy="7.518%" gradientTransform="matrix(0 1 -1.17693 0 .588 -.425)">
      <stop offset="0%" stop-color="#230007"/>
      <stop offset="55.579%" stop-color="#1E0006"/>
      <stop offset="100%" stop-color="#FFF"/>
    </radialGradient>
    <circle id="btn_qos_media-_gt-theme-a" cx="12" cy="12" r="11"/>
    <filter id="btn_qos_media-_gt-theme-c" width="100%" height="100%" x="0%" y="0%" filterUnits="objectBoundingBox">
      <feGaussianBlur in="SourceGraphic"/>
    </filter>
  </defs>
  <g fill="none" fill-rule="evenodd">
    <use fill="#DB0730" xlink:href="#btn_qos_media-_gt-theme-a"/>
    <use fill="#000" fill-opacity=".3" xlink:href="#btn_qos_media-_gt-theme-a"/>
    <use fill="url(#btn_qos_media-_gt-theme-b)" fill-opacity=".5" xlink:href="#btn_qos_media-_gt-theme-a" style="mix-blend-mode:overlay"/>
    <circle cx="12" cy="12" r="11.5" stroke="#E4E4E4"/>
    <path fill="#FFF" fill-opacity=".2" d="M12,12 C16.9705627,12 21,9.76142375 21,7 C21,4.23857625 16.9705627,2 12,2 C7.02943725,2 3,4.23857625 3,7 C3,9.76142375 7.02943725,12 12,12 Z" filter="url(#btn_qos_media-_gt-theme-c)"/>
    <path fill="#FFF" fill-rule="nonzero" d="M19.9434204,12.0259206 C19.9717102,12.0211336 20,12.0450682 20,12.0737898 L20,12.0737898 L20,16.6213663 C20,17.0043201 19.7218171,17.3058962 19.2833255,17.4207824 C19.1890262,17.444717 19.094727,17.4542908 19.0051427,17.4542908 C18.7599646,17.4542908 18.5383613,17.3681262 18.3969124,17.2245185 C18.3261879,17.1527147 18.2696083,17.0665501 18.2460335,16.9660247 C18.2083138,16.8128432 18.2413186,16.6548747 18.3214729,16.516054 C18.3214729,16.5112671 18.3261879,16.5112671 18.3309029,16.5064801 C18.4016273,16.4011678 18.448777,16.3341509 18.4959266,16.2958555 C18.5006416,16.2862817 18.5195014,16.2767079 18.5289313,16.2719209 C18.6420905,16.1809694 18.7835394,16.1091656 18.9438481,16.0660833 C19.0145726,16.0517225 19.085297,16.0421486 19.1513065,16.0373617 C19.1748814,16.0373617 19.1984562,16.0325748 19.222031,16.0325748 C19.3163303,16.0325748 19.4059146,16.0421486 19.4907839,16.0660833 C19.5237887,16.0756571 19.5567934,16.0517225 19.5567934,16.018214 L19.5567934,16.018214 L19.5567934,13.3710458 C19.5567934,13.3423243 19.5285036,13.3183897 19.5002139,13.3231766 L19.5002139,13.3231766 L19.1560215,13.3854066 L17.147447,13.7587865 C17.1238722,13.7635735 17.1050123,13.7827212 17.1050123,13.8066558 L17.1050123,13.8066558 L17.0955824,17.2149447 L17.0955824,17.2149447 C17.0908674,17.5452423 16.8032546,17.8611792 16.3883378,17.9664915 C16.2987535,17.9904262 16.2091692,18 16.1242999,18 C15.7423878,18 15.4029104,17.7941623 15.3604758,17.5165208 C15.3369009,17.4159954 15.3416159,17.3154701 15.3699057,17.2197316 C15.4453451,16.9564509 15.7046681,16.7171047 16.0535754,16.6309401 C16.1478747,16.6070055 16.237459,16.5974317 16.3270433,16.5974317 C16.4166276,16.5974317 16.5062119,16.6070055 16.5863663,16.6309401 C16.6193711,16.640514 16.6523758,16.6165794 16.6523758,16.5830709 L16.6523758,16.5830709 L16.6523758,12.5668428 L18.0668649,12.3322836 L19.1560215,12.1551675 Z M12.2464714,15.3600674 L12.3502006,16.3104011 C12.3502006,16.3104011 12.3832054,16.4492219 12.5152244,16.5832557 C12.6472434,16.7172896 12.8829915,16.9183403 12.8829915,16.9183403 C12.8829915,16.9183403 13.0951649,17.0763088 12.7745474,17.124178 C12.5906638,17.1528995 11.7938349,17.1768341 11.1243101,17.1768341 L10.3400163,17.1764408 C9.72046241,17.1735764 9.02497252,17.155293 8.85641257,17.1289649 C8.53579504,17.0810957 8.74796841,16.9279142 8.74796841,16.9279142 C8.74796841,16.9279142 8.98371659,16.7364373 9.11573557,16.6024034 C9.24303959,16.4731565 9.2807593,16.3104011 9.2807593,16.3104011 L9.2807593,16.3104011 L9.3844885,15.3600674 L12.2464714,15.3600674 Z M17.2867676,6 C17.4706512,6 17.63096,6.15796845 17.63096,6.34465843 L17.63096,6.34465843 L17.63096,10.7055449 C17.4470764,10.7294796 16.9989307,10.7725619 16.8150472,10.8012834 L16.8150472,10.8012834 L16.8150472,6.95773513 L4.90260781,6.95773513 L4.90260781,13.7972025 L15.7968391,13.7972025 L15.7968391,14.9939974 L4.33947738,14.9939974 C4.1555938,14.9939974 4,14.8025205 4,14.6110436 L4,14.6110436 L4,6.34944535 C4,6.15796845 4.1555938,6 4.33947738,6 L4.33947738,6 Z M10.0540133,8.99661357 L12.2181817,10.2651481 C12.2794762,10.3034434 12.3219109,10.3704604 12.3219109,10.4470511 C12.3219109,10.5236419 12.2841912,10.5906588 12.2181817,10.6289542 L10.0540133,11.8974887 C9.98800385,11.9357841 9.91256443,11.9357841 9.84655494,11.8974887 C9.78054545,11.8591933 9.74282574,11.7921764 9.74282574,11.7155856 L9.74282574,9.17851663 C9.74282574,9.10192587 9.78054545,9.03490895 9.84655494,8.99661357 C9.91256443,8.95831819 9.98800385,8.95831819 10.0540133,8.99661357 Z"/>
  </g>
</svg>
