<svg xmlns="http://www.w3.org/2000/svg" xmlns:xlink="http://www.w3.org/1999/xlink" width="24" height="24" viewBox="0 0 24 24">
  <defs>
    <radialGradient id="btn_qos_video-conference_act_gt-theme-b" cx="47.017%" cy="-14.611%" r="99.643%" fx="47.017%" fy="-14.611%" gradientTransform="matrix(0 1 -1.45462 0 .258 -.616)">
      <stop offset="0%" stop-color="#007871"/>
      <stop offset="61.528%" stop-color="#003F42"/>
      <stop offset="100%" stop-opacity="0"/>
    </radialGradient>
    <radialGradient id="btn_qos_video-conference_act_gt-theme-c" cx="50%" cy="7.518%" r="92.482%" fx="50%" fy="7.518%" gradientTransform="matrix(0 1 -1.17693 0 .588 -.425)">
      <stop offset="0%"/>
      <stop offset="67.083%" stop-color="#00414B"/>
      <stop offset="100%" stop-color="#FFF"/>
    </radialGradient>
    <circle id="btn_qos_video-conference_act_gt-theme-a" cx="12" cy="12" r="11"/>
    <filter id="btn_qos_video-conference_act_gt-theme-d" width="100%" height="100%" x="0%" y="0%" filterUnits="objectBoundingBox">
      <feGaussianBlur in="SourceGraphic"/>
    </filter>
  </defs>
  <g fill="none" fill-rule="evenodd">
    <use fill="#00F7E8" xlink:href="#btn_qos_video-conference_act_gt-theme-a"/>
    <use fill="#000" fill-opacity=".18" xlink:href="#btn_qos_video-conference_act_gt-theme-a"/>
    <use fill="url(#btn_qos_video-conference_act_gt-theme-b)" fill-opacity=".5" xlink:href="#btn_qos_video-conference_act_gt-theme-a"/>
    <use fill="url(#btn_qos_video-conference_act_gt-theme-c)" fill-opacity=".7" xlink:href="#btn_qos_video-conference_act_gt-theme-a" style="mix-blend-mode:overlay"/>
    <circle cx="12" cy="12" r="11.5" stroke="#E4E4E4"/>
    <path fill="#FFF" fill-opacity=".2" d="M12,12 C16.9705627,12 21,9.76142375 21,7 C21,4.23857625 16.9705627,2 12,2 C7.02943725,2 3,4.23857625 3,7 C3,9.76142375 7.02943725,12 12,12 Z" filter="url(#btn_qos_video-conference_act_gt-theme-d)"/>
    <path fill="#FFF" fill-rule="nonzero" d="M16.6461151,16.5282937 C18.078194,16.5282937 20.0587966,17.1252062 20.0587966,18.2105018 L20.0587966,18.4486276 L13.5214839,18.4486276 L13.5214839,18.2105018 C13.5214839,17.1252062 15.2140361,16.5282937 16.6461151,16.5282937 Z M12.8637966,17.3314945 L12.8642578,18.4473881 L9.24255141,18.4473881 C8.95696867,18.4473881 8.72545812,18.1976416 8.72545812,17.8895637 C8.72545812,17.6020243 8.92712954,17.365298 9.1862084,17.3350125 L9.24255141,17.3317392 L12.8637966,17.3314945 Z M6.48070586,6.31038936 L6.48070586,7.18049593 C6.00746293,7.18049593 5.94352653,7.55620994 5.90765621,8.03338911 L5.90494926,8.10569269 L5.90494926,13.9963307 C5.90494926,14.7954005 6.5131681,15.4483917 7.2795186,15.4924754 L7.36221217,15.4948476 L14.4145111,15.4957022 C14.4813408,15.6320918 14.5586739,15.7614176 14.6453717,15.882397 C14.1452218,16.093233 13.6767037,16.1815365 13.3458376,16.3645192 L7.36221217,16.3649541 C6.12445308,16.3649541 5.11471711,15.3610333 5.06104092,14.1018385 L5.05879661,13.9963307 L5.05879661,8.10569269 C5.05879661,7.14615851 5.5595893,6.35995325 6.48070586,6.31038936 Z M16.6155415,12.1972704 C17.6490595,12.1972704 18.4833451,13.0544659 18.4833451,14.1163648 C18.4833451,15.1782638 17.6490595,16.0354593 16.6155415,16.0354593 C15.5820235,16.0354593 14.7477378,15.1782638 14.7477378,14.1163648 C14.7477378,13.0544659 15.5820235,12.1972704 16.6155415,12.1972704 Z M10.6765226,3.53849451 C11.2184014,3.53849451 11.6708047,3.93498972 11.7776754,4.46296276 L12.4532248,4.46278211 C13.3801644,4.46278211 13.4977922,5.09060498 13.5106803,5.67373906 L16.3931772,5.67415948 C16.8243462,5.67465744 17.180046,6.0063594 17.2326304,6.43517454 L17.2393298,6.54426605 L17.2394637,11.609073 C17.0401234,11.5533794 16.8310642,11.5237647 16.6155415,11.5237647 C16.614192,11.5237647 16.6128427,11.5237658 16.6114938,11.5237682 L16.6109296,6.93112296 C16.6105336,6.54908647 16.3247909,6.23949172 15.9721876,6.23906265 L8.10817074,6.23906265 C7.75556744,6.23949172 7.46982475,6.54908647 7.46942874,6.93112296 L7.46942874,12.9685281 C7.46982475,13.3505646 7.75556744,13.6601593 8.10817074,13.6605884 L14.1799949,13.6604952 C14.1440496,13.8436795 14.1251366,14.0337763 14.1251366,14.2287429 C14.1251366,14.3059624 14.1281035,14.382418 14.1339218,14.4579798 L7.65268694,14.4582432 C7.22151795,14.4577453 6.86581811,14.1260433 6.81323373,13.6972281 L6.80653429,13.5881366 L6.80653429,6.54426605 C6.80701854,6.10089101 7.12958879,5.73512158 7.54659871,5.68104858 L7.65268694,5.67415948 L10.057499,5.67542585 C9.75261177,5.46711548 9.55145295,5.10933807 9.55145295,4.70293342 C9.55145295,4.05983157 10.0551638,3.53849451 10.6765226,3.53849451 Z M17.6365526,6.31038936 C18.617432,6.31038936 19.0158361,7.10250733 19.0649384,8.09860652 L19.0673239,8.19562026 L19.0684345,13.7576022 C18.9657141,13.1203059 18.6581706,12.5603256 18.2220103,12.1604335 L18.2211713,8.19562026 C18.2211713,7.65935812 18.1488529,7.21766837 17.6365526,7.18049593 L17.6365526,6.31038936 Z M12.0229321,7.10739605 L12.1505639,7.10769732 C13.3584852,7.12642509 14.3450203,8.01602526 14.4534588,9.14851879 L14.4650988,9.14925921 C14.9253081,9.14925921 15.3050841,9.48792901 15.3607881,9.92566624 L15.3678216,10.0370258 L15.3607881,10.1483854 C15.3097261,10.5496445 14.9863536,10.8676595 14.5783344,10.9178754 L14.4650988,10.9247924 L14.4497885,10.9243735 C14.3667842,11.8823616 13.9075948,12.7054898 13.0214995,12.9177299 L12.8968396,12.9421707 C12.8359256,13.0323353 12.732769,13.091616 12.6157667,13.091616 L11.8738103,13.091616 C11.6866066,13.091616 11.5348479,12.9398574 11.5348479,12.7526536 L11.5348479,12.7203652 C11.5348479,12.5331614 11.6866066,12.3814028 11.8738103,12.3814028 L12.6157667,12.3814028 C12.7248129,12.3814028 12.8218323,12.4328954 12.8838361,12.5128918 C13.6524932,12.3542686 13.9803763,11.6188269 14.0162911,10.7862226 L14.01964,10.6290878 L14.0193843,9.32601586 C14.0033779,8.38197942 13.2375662,7.61223877 12.2666091,7.5376248 L12.1116746,7.53169626 L11.9913804,7.53194069 C11.0041522,7.5472468 10.1785839,8.27955393 10.0984952,9.20803119 L10.0921298,9.35618715 L10.0916579,10.9387413 C10.0841464,11.0494063 9.98790021,11.1369425 9.8702734,11.1369425 C9.7681668,11.1369425 9.6821709,11.0709822 9.6563419,10.9811903 L9.64841697,10.9247924 L9.64824867,10.919396 L9.61787728,10.9229135 C9.59863695,10.9241596 9.57922954,10.9247924 9.5596744,10.9247924 C9.0695627,10.9247924 8.67224867,10.5273257 8.67224867,10.0370258 C8.67224867,9.54672585 9.0695627,9.14925921 9.5596744,9.14925921 C9.59295244,9.14925921 9.62580266,9.15109163 9.65812974,9.15466112 C9.76135249,8.05740197 10.7069795,7.18639743 11.8634024,7.11248138 L12.0229321,7.10739605 Z M12.0930641,8.03338911 C12.9120806,8.03338911 13.5760247,8.69733317 13.5760247,9.51634968 L13.5760247,10.7182495 C13.5760247,11.4175414 13.0920047,12.0037845 12.440707,12.1602365 L11.698542,12.1603526 C11.0470003,12.0040747 10.5627406,11.4177146 10.5627406,10.7182495 L10.5627406,9.51634968 C10.5627406,8.69733317 11.2266847,8.03338911 12.0457012,8.03338911 L12.0930641,8.03338911 Z M11.7957966,4.81349451 L11.8015922,4.70293342 C11.8015922,5.10912628 11.600643,5.46674257 11.2960228,5.67510005 L13.1707835,5.67380195 C13.1411453,5.11796354 12.9392397,4.87808181 12.5635962,4.82049547 L11.7957966,4.81349451 Z M10.6841448,3.84495573 C10.2181257,3.84495573 9.8403426,4.23595852 9.8403426,4.71828491 C9.8403426,5.2006113 10.2181257,5.5916141 10.6841448,5.5916141 C11.1501639,5.5916141 11.5279471,5.2006113 11.5279471,4.71828491 C11.5279471,4.23595852 11.1501639,3.84495573 10.6841448,3.84495573 Z M10.6791595,4.22993697 C10.927703,4.22993697 11.1291873,4.43847179 11.1291873,4.69571254 C11.1291873,4.95295328 10.927703,5.1614881 10.6791595,5.1614881 C10.430616,5.1614881 10.2291316,4.95295328 10.2291316,4.69571254 C10.2291316,4.43847179 10.430616,4.22993697 10.6791595,4.22993697 Z"/>
  </g>
</svg>
