<svg xmlns="http://www.w3.org/2000/svg" xmlns:xlink="http://www.w3.org/1999/xlink" width="24" height="24" viewBox="0 0 24 24">
  <defs>
    <radialGradient id="btn_qos_web_gt-theme-b" cx="50%" cy="7.518%" r="92.482%" fx="50%" fy="7.518%" gradientTransform="matrix(0 1 -1.17693 0 .588 -.425)">
      <stop offset="0%" stop-color="#230007"/>
      <stop offset="55.579%" stop-color="#1E0006"/>
      <stop offset="100%" stop-color="#FFF"/>
    </radialGradient>
    <circle id="btn_qos_web_gt-theme-a" cx="12" cy="12" r="11"/>
    <filter id="btn_qos_web_gt-theme-c" width="100%" height="100%" x="0%" y="0%" filterUnits="objectBoundingBox">
      <feGaussianBlur in="SourceGraphic"/>
    </filter>
  </defs>
  <g fill="none" fill-rule="evenodd">
    <use fill="#DB0730" xlink:href="#btn_qos_web_gt-theme-a"/>
    <use fill="#000" fill-opacity=".3" xlink:href="#btn_qos_web_gt-theme-a"/>
    <use fill="url(#btn_qos_web_gt-theme-b)" fill-opacity=".5" xlink:href="#btn_qos_web_gt-theme-a" style="mix-blend-mode:overlay"/>
    <circle cx="12" cy="12" r="11.5" stroke="#E4E4E4"/>
    <path fill="#FFF" fill-opacity=".2" d="M12,12 C16.9705627,12 21,9.76142375 21,7 C21,4.23857625 16.9705627,2 12,2 C7.02943725,2 3,4.23857625 3,7 C3,9.76142375 7.02943725,12 12,12 Z" filter="url(#btn_qos_web_gt-theme-c)"/>
    <path fill="#FFF" fill-rule="nonzero" d="M19.1240506,11.5036928 C19.2810127,11.5036928 19.4075949,11.6225997 19.4075949,11.767356 L19.4075949,16.0014771 C19.4075949,16.0232644 19.4047274,16.0444661 19.3993204,16.064765 C19.4022355,16.123085 19.4037563,16.1756415 19.3974684,16.1927622 C19.4126582,16.2237814 19.4278481,16.2548006 19.4379747,16.2909897 L19.9848101,18.5140325 C19.9949367,18.5502216 20,18.5864106 20,18.6225997 C20,18.8293944 19.8379747,19 19.635443,19 L11.6101266,19 C11.4987342,19 11.3924051,18.9483013 11.321519,18.8552437 C11.2506329,18.7621861 11.2253165,18.6432792 11.2556962,18.534712 L11.8025316,16.2858198 C11.8126582,16.2496307 11.8227848,16.2186115 11.843038,16.1875923 C11.8278481,16.1462334 11.8582278,15.88774 11.8481013,15.8463811 L11.853,15.846 L11.8531646,11.767356 C11.8531646,11.6225997 11.9797468,11.5036928 12.1367089,11.5036928 L19.1240506,11.5036928 Z M16.4810127,17.4800591 L14.7746835,17.4800591 C14.7341772,17.4800591 14.7037975,17.5059084 14.6987342,17.5472674 L14.5417722,18.4416544 C14.5367089,18.4675037 14.5417722,18.4881832 14.556962,18.5088626 C14.5721519,18.5295421 14.5924051,18.5398818 14.6177215,18.5398818 L16.6379747,18.5398818 L16.6379747,18.5398818 C16.6835443,18.5398818 16.7189873,18.5036928 16.7189873,18.457164 C16.7189873,18.4519941 16.7189873,18.4416544 16.7139241,18.4364845 L16.556962,17.5472674 C16.5518987,17.5110783 16.5164557,17.4800591 16.4810127,17.4800591 Z M9.39240506,5 C11.0531646,5 12.5468354,5.77031019 13.5341772,6.98522895 C13.6253165,7.09896603 13.7113924,7.2127031 13.7924051,7.33161004 C14.4151899,8.23116691 14.7848101,9.32200886 14.7848101,10.5059084 C14.7848101,10.640325 14.7797468,10.7747415 14.7696203,10.9091581 L14.7696203,10.9091581 L11.6506329,10.9091581 C11.635443,10.9091581 11.6253165,10.9143279 11.6101266,10.9143279 L11.6101266,10.9143279 L9.61518987,10.9143279 L9.61518987,12.3153619 C10.2278481,12.3308715 10.8151899,12.4084195 11.3620253,12.5376662 L11.3620253,12.5376662 L11.3620253,12.9977843 C10.8202532,12.8685377 10.2278481,12.7858198 9.61012658,12.7703102 L9.61012658,12.7703102 L9.61012658,15.5465288 C10.2987342,15.4379616 10.9113924,14.8537666 11.3620253,13.9800591 L11.3620253,13.9800591 L11.3620253,14.8072378 C11.2253165,14.993353 11.078481,15.1639586 10.9265823,15.3138848 C11.0734177,15.2621861 11.2202532,15.2053176 11.3620253,15.1432792 L11.3620253,15.1432792 L11.3670886,15.1432792 L11.3677215,15.6033973 L11.3677215,15.6033973 L11.3721519,15.6292467 C10.7594937,15.8774003 10.0962025,16.0118168 9.39746835,16.0118168 L9.39746835,16.0118168 L9.36202532,16.0118168 C7.71139241,16.0014771 6.23291139,15.2311669 5.25063291,14.0265879 C5.15949367,13.9128508 5.07341772,13.7991137 4.99240506,13.6802068 C4.36962025,12.7806499 4,11.6846381 4,10.5059084 C4,9.32717873 4.36455696,8.23116691 4.98734177,7.33161004 C5.06835443,7.2127031 5.15443038,7.09896603 5.24556962,6.98522895 C6.2278481,5.78064993 7.70632911,5.01033973 9.35696203,5 L9.35696203,5 Z M18.8050633,12.1447563 L12.4506329,12.1447563 L12.4506329,15.774003 L18.8050633,15.774003 L18.8050633,12.1447563 Z M9.16962025,12.7651403 C8.4,12.7858198 7.67088608,12.9047267 7.03291139,13.1011817 C7.47848101,14.4711965 8.26329114,15.4172821 9.16962025,15.5465288 L9.16962025,15.5465288 Z M6.62278481,13.2407681 C6.24303797,13.3855244 5.89873418,13.5612999 5.60506329,13.7577548 C6.18227848,14.4556869 6.94683544,14.9985229 7.81265823,15.2983752 C7.3164557,14.8124077 6.90632911,14.098966 6.62278481,13.2407681 Z M6.21265823,10.9143279 L4.46075949,10.9143279 C4.53164557,11.8397341 4.85063291,12.6927622 5.34683544,13.4113737 C5.68101266,13.1838996 6.06582278,12.9822747 6.50126582,12.816839 C6.3443038,12.232644 6.24303797,11.5915805 6.21265823,10.9143279 L6.21265823,10.9143279 Z M9.16962025,10.9143279 L6.65316456,10.9143279 C6.6835443,11.5398818 6.76962025,12.1344165 6.91139241,12.6772526 C7.58987342,12.465288 8.35949367,12.3360414 9.16962025,12.3153619 L9.16962025,12.3153619 L9.16962025,10.9143279 Z M13.4379747,7.605613 C13.0936709,7.83825702 12.6987342,8.03988183 12.2582278,8.21048744 C12.4405063,8.89807976 12.5468354,9.65805022 12.5518987,10.4645495 L12.5518987,10.4645495 L14.3392405,10.4645495 C14.3341772,9.39955687 13.9949367,8.41728213 13.4379747,7.605613 Z M11.843038,8.35007386 C11.1696203,8.55686854 10.4151899,8.68094535 9.61012658,8.70162482 L9.61012658,8.70162482 L9.60506329,8.70162482 L9.60506329,10.4645495 L12.1063291,10.4645495 C12.1063291,9.70457903 12.0101266,8.99113737 11.843038,8.35007386 Z M5.34683544,7.605613 C4.78481013,8.41211226 4.45063291,9.39955687 4.44050633,10.4645495 L4.44050633,10.4645495 L6.20253165,10.4645495 C6.20759494,9.65805022 6.31392405,8.8929099 6.49620253,8.20014771 C6.07088608,8.03471196 5.68101266,7.83308715 5.34683544,7.605613 Z M6.91139241,8.33973412 C6.7443038,8.9859675 6.64810127,9.69940916 6.64303797,10.4593796 L6.64303797,10.4593796 L9.16962025,10.4593796 L9.16962025,8.70162482 C8.35949367,8.68094535 7.58987342,8.55169867 6.91139241,8.33973412 Z M9.16962025,5.4704579 C8.25822785,5.59453471 7.47848101,6.54579025 7.03291139,7.91580502 C7.67594937,8.11225997 8.4,8.23116691 9.16962025,8.25184638 L9.16962025,8.25184638 Z M9.61012658,5.4704579 L9.61012658,8.24667651 C10.3696203,8.23116691 11.0886076,8.11225997 11.721519,7.92097489 C11.2810127,6.56129985 10.5113924,5.61004431 9.61012658,5.4704579 L9.61012658,5.4704579 Z M10.9265823,5.70827179 C11.4329114,6.19423929 11.8481013,6.91802068 12.1367089,7.78655835 C12.521519,7.6366322 12.8708861,7.46085672 13.1746835,7.25923191 C12.5873418,6.54579025 11.8126582,5.99778434 10.9265823,5.70827179 Z M7.81265823,5.71861152 C6.94683544,6.01846381 6.18227848,6.55612999 5.60506329,7.25923191 C5.89873418,7.45568685 6.24303797,7.63146233 6.62278481,7.77621861 C6.90632911,6.92319055 7.3164557,6.20457903 7.81265823,5.71861152 Z"/>
  </g>
</svg>
