<?xml version="1.0" encoding="UTF-8" standalone="no"?>
<svg width="570px" height="594px" viewBox="0 0 570 594" version="1.1" xmlns="http://www.w3.org/2000/svg" xmlns:xlink="http://www.w3.org/1999/xlink">
    <!-- Generator: Sketch 39.1 (31720) - http://www.bohemiancoding.com/sketch -->
    <title> </title>
    <desc>Created with Sketch.</desc>
    <defs>
        <polygon id="path-1" points="0 85 117.684 85 117.684 0.803 0 0.803"></polygon>
        <polygon id="path-3" points="0 58 79.539 58 79.539 0.867 0 0.867"></polygon>
    </defs>
    <g id="Page-1" stroke="none" stroke-width="1" fill="none" fill-rule="evenodd">
        <g id="AiMesh-gui-with-outline-Copy">
            <g id="AiMesh-gui-with-word">
                <g id="Line" transform="translate(36.000000, 203.000000)" stroke="#888888" stroke-width="2.5" stroke-linecap="round">
                    <path d="M0.3535,0.4052 L63.6035,0.4052" id="Stroke-11"></path>
                </g>
                <g id="WiFi-signal" transform="translate(190.000000, 178.000000)" stroke="#888888" stroke-width="2.5" stroke-linecap="round">
                    <path d="M16.5306,52.0848 C30.8756,38.0418 31.1186,15.0698 17.0756,0.7258" id="Stroke-5"></path>
                    <path d="M8.9054,41.4142 C16.8454,33.0332 16.9774,19.9362 9.2044,11.3962" id="Stroke-7"></path>
                    <path d="M0.7331,32.029 C3.6761,28.918 3.6771,24.011 0.7331,20.781" id="Stroke-9"></path>
                </g>
                <g id="LAN" transform="translate(317.000000, 175.000000)">
                    <path d="M10.6812,10.8705 L0.9912,10.8705 C0.4442,10.8705 0.0002,10.4265 0.0002,9.8795 L0.0002,0.9915 C0.0002,0.4435 0.4442,-0.0005 0.9912,-0.0005 L10.6812,-0.0005 C11.2282,-0.0005 11.6722,0.4435 11.6722,0.9915 L11.6722,9.8795 C11.6722,10.4265 11.2282,10.8705 10.6812,10.8705" id="Fill-5" fill="#F8B52C"></path>
                    <path d="M45.1584,57.0758 L25.5494,57.0758 C14.6784,57.0758 5.8644,48.2648 5.8604,37.3928 L5.8364,7.0468" id="Stroke-6" stroke="#F8B52C" stroke-width="2.5" stroke-linecap="round" stroke-linejoin="round"></path>
                    <path d="M45.1584,57.0758 L25.5494,57.0758 C14.6784,57.0758 5.8644,48.2648 5.8604,37.3928 L5.8364,7.0468" id="Stroke-7" stroke="#040000" stroke-width="2.5" stroke-linecap="round" stroke-linejoin="round" opacity="0.33" style="mix-blend-mode: darken;"></path>
                </g>
                <g id="WAN" transform="translate(453.000000, 175.000000)">
                    <path d="M45.1847,10.8705 L35.4947,10.8705 C34.9477,10.8705 34.5037,10.4265 34.5037,9.8795 L34.5037,0.9915 C34.5037,0.4435 34.9477,-0.0005 35.4947,-0.0005 L45.1847,-0.0005 C45.7317,-0.0005 46.1757,0.4435 46.1757,0.9915 L46.1757,9.8795 C46.1757,10.4265 45.7317,10.8705 45.1847,10.8705" id="Fill-2" fill="#2383BD"></path>
                    <path d="M0.8251,57.0758 L20.6261,57.0758 C31.4981,57.0758 40.3121,48.2648 40.3151,37.3928 L40.3401,7.0468" id="Stroke-3" stroke="#2383BD" stroke-width="2.5" stroke-linecap="round" stroke-linejoin="round"></path>
                    <path d="M0.8251,57.0758 L20.6261,57.0758 C31.4981,57.0758 40.3121,48.2648 40.3151,37.3928 L40.3401,7.0468" id="Stroke-4" stroke="#040000" stroke-width="2.5" stroke-linecap="round" stroke-linejoin="round" opacity="0.33" style="mix-blend-mode: darken;"></path>
                </g>
                <g id="connect" transform="translate(448.000000, 301.000000)" stroke-width="2.5" stroke-linecap="round">
                    <path d="M0.25,118.559 L16.051,118.559 C26.923,118.559 35.737,109.248 35.74,98.376 L35.764,87.282" id="Stroke-1" stroke="#8DC21F" stroke-linejoin="round"></path>
                    <path d="M35.752,1.2502 L35.752,28.4642" id="Stroke-3" stroke="#8DC21F"></path>
                    <path d="M56.2473,57.81 C56.2473,69.129 47.0713,78.305 35.7523,78.305 C24.4333,78.305 15.2563,69.129 15.2563,57.81 C15.2563,46.491 24.4333,37.315 35.7523,37.315 C47.0713,37.315 56.2473,46.491 56.2473,57.81 L56.2473,57.81 Z" id="Stroke-5" stroke="#8DC21F"></path>
                    <polyline id="Stroke-7" stroke="#8DC21F" stroke-linejoin="round" points="42.9633 59.7423 35.7523 66.9533 28.5403 59.7423"></polyline>
                    <path d="M35.752,66.9537 L35.752,48.6667" id="Stroke-9" stroke="#8DC21F" stroke-linejoin="round"></path>
                    <g id="shading" opacity="0.33" style="mix-blend-mode: darken;" transform="translate(0.000000, 0.809000)" stroke="#040000" stroke-linejoin="round">
                        <path d="M0.25,117.75 L16.051,117.75 C26.923,117.75 35.737,108.439 35.74,97.567 L35.764,86.473" id="Stroke-11"></path>
                        <path d="M35.752,0.4412 L35.752,27.6552" id="Stroke-13"></path>
                        <path d="M56.2473,57.001 C56.2473,68.32 47.0713,77.496 35.7523,77.496 C24.4333,77.496 15.2563,68.32 15.2563,57.001 C15.2563,45.682 24.4333,36.506 35.7523,36.506 C47.0713,36.506 56.2473,45.682 56.2473,57.001 L56.2473,57.001 Z" id="Stroke-15"></path>
                        <polyline id="Stroke-17" points="42.9633 58.9333 35.7523 66.1443 28.5403 58.9333"></polyline>
                        <path d="M35.752,66.1447 L35.752,47.8577" id="Stroke-19"></path>
                    </g>
                </g>
                <g id="connect-2" transform="translate(340.500000, 360.500000) scale(-1, 1) translate(-340.500000, -340.500000) translate(312.000000, 281.000000)" stroke-width="2.5" stroke-linecap="round">
                    <path d="M0.25,118.559 L16.051,118.559 C26.923,118.559 35.737,109.248 35.74,98.376 L35.764,87.282" id="Stroke-1" stroke="#8DC21F" stroke-linejoin="round"></path>
                    <path d="M35.752,1.2502 L35.752,28.4642" id="Stroke-3" stroke="#8DC21F"></path>
                    <path d="M56.2473,57.81 C56.2473,69.129 47.0713,78.305 35.7523,78.305 C24.4333,78.305 15.2563,69.129 15.2563,57.81 C15.2563,46.491 24.4333,37.315 35.7523,37.315 C47.0713,37.315 56.2473,46.491 56.2473,57.81 L56.2473,57.81 Z" id="Stroke-5" stroke="#8DC21F"></path>
                    <polyline id="Stroke-7" stroke="#8DC21F" stroke-linejoin="round" points="42.9633 59.7423 35.7523 66.9533 28.5403 59.7423"></polyline>
                    <path d="M35.752,66.9537 L35.752,48.6667" id="Stroke-9" stroke="#8DC21F" stroke-linejoin="round"></path>
                    <g id="shading" opacity="0.33" style="mix-blend-mode: darken;" transform="translate(0.000000, 0.809000)" stroke="#040000" stroke-linejoin="round">
                        <path d="M0.25,117.75 L16.051,117.75 C26.923,117.75 35.737,108.439 35.74,97.567 L35.764,86.473" id="Stroke-11"></path>
                        <path d="M35.752,0.4412 L35.752,27.6552" id="Stroke-13"></path>
                        <path d="M56.2473,57.001 C56.2473,68.32 47.0713,77.496 35.7523,77.496 C24.4333,77.496 15.2563,68.32 15.2563,57.001 C15.2563,45.682 24.4333,36.506 35.7523,36.506 C47.0713,36.506 56.2473,45.682 56.2473,57.001 L56.2473,57.001 Z" id="Stroke-15"></path>
                        <polyline id="Stroke-17" points="42.9633 58.9333 35.7523 66.1443 28.5403 58.9333"></polyline>
                        <path d="M35.752,66.1447 L35.752,47.8577" id="Stroke-19"></path>
                    </g>
                </g>
                <g id="disconnect" transform="translate(49.000000, 300.000000)" stroke="#888888" stroke-width="2.5" stroke-linecap="round" opacity="0.25" stroke-linejoin="round">
                    <path d="M0.9977,2.5 L0.9977,28.713 L0.9857,88.532 L1.0097,99.626 C1.0137,110.497 9.8267,119.809 20.6987,119.809 L36.4997,119.809" id="Page-1"></path>
                </g>
                <g id="disconnect-2" transform="translate(204.500000, 360.000000) scale(-1, 1) translate(-204.500000, -340.000000) translate(185.000000, 280.000000)" stroke="#888888" stroke-width="2.5" stroke-linecap="round" opacity="0.25" stroke-linejoin="round">
                    <path d="M0.9977,2.5 L0.9977,28.713 L0.9857,88.532 L1.0097,99.626 C1.0137,110.497 9.8267,119.809 20.6987,119.809 L36.4997,119.809" id="Page-1"></path>
                </g>
                <g id="device-2" transform="translate(9.000000, 500.000000)">
                    <path d="M107.9305,72.9189 L31.0355,72.9189 C26.3585,72.9189 22.5315,69.0919 22.5315,64.4149 L22.5315,10.5569 C22.5315,5.8799 26.3585,2.0529 31.0355,2.0529 L107.9305,2.0529 C112.6075,2.0529 116.4345,5.8799 116.4345,10.5569 L116.4345,64.4149 C116.4345,69.0919 112.6075,72.9189 107.9305,72.9189 L107.9305,72.9189 Z" id="Stroke-1" stroke="#888888" stroke-width="2.5"></path>
                    <path d="M83.9051,83.75 L55.0611,83.75 C52.6961,83.75 51.3711,81.025 52.8311,79.165 L57.7331,72.919 L81.2331,72.919 L86.1351,79.165 C87.5951,81.025 86.2701,83.75 83.9051,83.75 L83.9051,83.75 Z" id="Stroke-3" stroke="#888888" stroke-width="2.5"></path>
                    <path d="M12.1763,16.0835 C10.5883,16.0835 9.2963,14.7915 9.2963,13.2035 L9.2963,13.0495 C9.2963,11.4615 10.5883,10.1695 12.1763,10.1695 L19.0513,10.1695 C19.0783,9.3095 19.1973,8.4745 19.3973,7.6695 L12.1763,7.6695 C9.2103,7.6695 6.7963,10.0835 6.7963,13.0495 L6.7963,13.2035 C6.7963,16.1695 9.2103,18.5835 12.1763,18.5835 L19.0313,18.5835 L19.0313,16.0835 L12.1763,16.0835 Z" id="Fill-5" fill="#888888"></path>
                    <path d="M12.1763,31.001 C10.5883,31.001 9.2963,29.709 9.2963,28.121 L9.2963,27.967 C9.2963,26.379 10.5883,25.087 12.1763,25.087 L19.0313,25.087 L19.0313,22.587 L12.1763,22.587 C9.2103,22.587 6.7963,25.001 6.7963,27.967 L6.7963,28.121 C6.7963,31.087 9.2103,33.501 12.1763,33.501 L19.0313,33.501 L19.0313,31.001 L12.1763,31.001 Z" id="Fill-7" fill="#888888"></path>
                    <path d="M28.4959,82.5 L9.7539,82.5 C5.7539,82.5 2.4999,79.246 2.4999,75.246 L2.4999,69.455 L-0.0001,69.455 L-0.0001,75.246 C-0.0001,80.625 4.3759,85 9.7539,85 L28.4959,85 C33.4769,85 37.5899,81.245 38.1719,76.419 L35.6459,76.419 C35.0829,79.862 32.0959,82.5 28.4959,82.5" id="Fill-12" fill="#888888"></path>
                    <path d="M19.0313,64.415 L19.0313,62.649 L2.5003,62.649 L2.5003,64.918 L19.0563,64.918 C19.0493,64.75 19.0313,64.585 19.0313,64.415" id="Fill-15" fill="#888888"></path>
                    <polygon id="Fill-17" fill="#888888" points="0 64.918 2.5 64.918 2.5 62.649 0 62.649"></polygon>
                    <path d="M19.3671,67.1865 L2.5001,67.1865 L2.5001,69.4555 L20.1651,69.4555 C19.8301,68.7335 19.5551,67.9775 19.3671,67.1865" id="Fill-19" fill="#888888"></path>
                    <polygon id="Fill-20" fill="#888888" points="0 69.456 2.5 69.456 2.5 67.187 0 67.187"></polygon>
                    <path d="M8.9311,73.3653 C10.1101,73.3653 11.0661,74.3213 11.0661,75.5003 C11.0661,76.6793 10.1101,77.6343 8.9311,77.6343 C7.7521,77.6343 6.7961,76.6793 6.7961,75.5003 C6.7961,74.3213 7.7521,73.3653 8.9311,73.3653" id="Fill-21" fill="#888888"></path>
                    <mask id="mask-2" fill="white">
                        <use xlink:href="#path-1"></use>
                    </mask>
                    <g id="Clip-18"></g>
                    <path d="M2.5,10.5566 C2.5,6.5566 5.754,3.3026 9.754,3.3026 L21.493,3.3026 C22.222,2.3466 23.087,1.5036 24.065,0.8026 L9.754,0.8026 C4.375,0.8026 0,5.1786 0,10.5566 L0,62.6496 L2.5,62.6496 L2.5,10.5566 Z" id="Fill-9" fill="#888888" mask="url(#mask-2)"></path>
                </g>
                <g id="layout-node" transform="translate(175.000000, 500.000000)">
                    <g id="Group" transform="translate(0.000000, 0.197300)">
                        <path d="M0.8249,53.7728 C0.8249,56.0438 2.6829,57.9028 4.9549,57.9028 L76.2339,57.9028 C78.5059,57.9028 80.3639,56.0438 80.3639,53.7728 L80.3639,14.9788 L0.8249,14.9788 L0.8249,53.7728 Z" id="Fill-22" fill="#E5E5E6"></path>
                        <path d="M80.3643,4.8999 C80.3643,2.6289 78.5063,0.7699 76.2343,0.7699 L4.9553,0.7699 C2.6833,0.7699 0.8253,2.6289 0.8253,4.8999 L0.8253,12.9789 L80.3643,12.9789 L80.3643,4.8999 Z" id="Fill-23" fill="#E5E5E6"></path>
                        <polygon id="Fill-24" fill="#4D585C" points="80.364 14.979 80.364 14.979 80.364 12.979 80.364 12.979"></polygon>
                        <path d="M17.909,22.5378 L5.161,22.5378 C3.992,22.5378 3.035,21.5808 3.035,20.4118 L3.035,19.0168 C3.035,17.8478 3.992,16.8908 5.161,16.8908 L17.909,16.8908 C19.078,16.8908 20.035,17.8478 20.035,19.0168 L20.035,20.4118 C20.035,21.5808 19.078,22.5378 17.909,22.5378" id="Fill-25" fill="#888888"></path>
                        <path d="M17.909,24.0551 L5.161,24.0551 C3.992,24.0551 3.035,25.0121 3.035,26.1811 L3.035,57.4051 C3.612,57.7121 4.259,57.9031 4.955,57.9031 L20.035,57.9031 L20.035,26.1811 C20.035,25.0121 19.078,24.0551 17.909,24.0551" id="Fill-26" fill="#888888"></path>
                        <path d="M80.3643,53.7729 L80.3643,17.0129 L24.1193,17.0129 C22.9503,17.0129 21.9933,17.9699 21.9933,19.1389 L21.9933,57.9029 L76.2343,57.9029 C78.5063,57.9029 80.3643,56.0439 80.3643,53.7729" id="Fill-27" fill="#888888"></path>
                        <path d="M73.564,53.502 L29.126,53.502 C27.956,53.502 27,52.545 27,51.376 L27,23.126 C27,21.957 27.956,21 29.126,21 L73.564,21 C74.733,21 75.69,21.957 75.69,23.126 L75.69,51.376 C75.69,52.545 74.733,53.502 73.564,53.502" id="Fill-28" fill="#E5E5E6"></path>
                        <path d="M55.793,31.605 L57.331,31.605 L57.331,30.995 L55.793,30.995 L55.793,31.605 Z M53.758,31.605 L55.296,31.605 L55.296,30.995 L53.758,30.995 L53.758,31.605 Z M51.723,31.605 L53.261,31.605 L53.261,30.995 L51.723,30.995 L51.723,31.605 Z M56.555,28.84 L46.109,28.84 L46.109,24.304 C46.109,24.093 45.937,23.921 45.727,23.921 C45.516,23.921 45.344,24.093 45.344,24.304 L45.344,28.885 C44.231,29.101 43.383,30.085 43.383,31.259 L43.383,31.259 C43.383,32.589 44.472,33.677 45.802,33.677 L56.555,33.677 C57.886,33.677 58.974,32.589 58.974,31.259 L58.974,31.259 C58.974,29.929 57.886,28.84 56.555,28.84 L56.555,28.84 Z" id="Fill-29" fill="#888888"></path>
                    </g>
                    <path d="M33.90995,47.614 L34.17095,49 L35.31395,49 L34.13495,42.934 L32.72195,42.934 L31.40795,49 L32.55095,49 L32.82095,47.614 L33.90995,47.614 Z M32.93795,46.696 L33.16295,45.436 C33.22595,45.085 33.31595,44.455 33.37895,44.05 L33.40595,44.05 C33.45995,44.455 33.54095,45.058 33.60395,45.427 L33.80195,46.696 L32.93795,46.696 Z M37.05095,49 L37.05095,44.599 L35.87195,44.599 L35.87195,49 L37.05095,49 Z M36.44795,42.79 C36.12395,42.79 35.83595,43.033 35.84495,43.429 C35.83595,43.807 36.10595,44.068 36.42995,44.068 C36.78995,44.068 37.05995,43.807 37.05095,43.429 C37.05095,43.033 36.78995,42.79 36.44795,42.79 L36.44795,42.79 Z M41.80295,49 L42.85595,49 L42.48695,42.934 L41.24495,42.934 L40.76795,45.13 C40.60595,45.895 40.47095,46.579 40.38095,47.254 L40.36295,47.254 C40.25495,46.57 40.10195,45.895 39.93095,45.13 L39.44495,42.934 L38.20295,42.934 L37.76195,49 L38.77895,49 L38.87795,46.894 C38.91395,46.291 38.94995,45.526 38.96795,44.869 L38.99495,44.869 C39.08495,45.526 39.24695,46.282 39.36395,46.768 L39.86795,48.901 L40.70495,48.901 L41.22695,46.732 C41.34395,46.264 41.50595,45.517 41.61395,44.869 L41.64095,44.869 C41.62295,45.517 41.66795,46.3 41.69495,46.876 L41.80295,49 Z M46.68095,47.218 C46.70795,47.092 46.71695,46.921 46.71695,46.606 C46.71695,45.274 46.16795,44.527 45.22295,44.527 C44.22395,44.527 43.45895,45.409 43.45895,46.885 C43.45895,48.262 44.11595,49.054 45.31295,49.054 C45.76295,49.054 46.22195,48.973 46.52795,48.856 L46.36595,48.01 C46.15895,48.082 45.86195,48.154 45.52895,48.154 C45.00695,48.154 44.61095,47.902 44.59295,47.218 L46.68095,47.218 Z M44.60195,46.39 C44.61095,45.949 44.76395,45.382 45.15095,45.382 C45.50195,45.382 45.64595,45.823 45.64595,46.39 L44.60195,46.39 Z M47.13095,48.802 C47.33795,48.955 47.76995,49.054 48.13895,49.054 C49.04795,49.054 49.69595,48.568 49.69595,47.668 C49.69595,47.164 49.45295,46.705 48.80495,46.336 C48.39095,46.093 48.29195,45.985 48.29195,45.787 C48.29195,45.589 48.43595,45.409 48.73295,45.409 C48.96695,45.409 49.17395,45.49 49.34495,45.589 L49.55195,44.725 C49.31795,44.617 49.02995,44.527 48.66095,44.527 C47.77895,44.527 47.21195,45.121 47.21195,45.913 C47.21195,46.318 47.38295,46.777 48.10295,47.182 C48.48995,47.407 48.61595,47.551 48.61595,47.776 C48.61595,48.037 48.44495,48.172 48.13895,48.172 C47.84195,48.172 47.51795,48.046 47.34695,47.938 L47.13095,48.802 Z M50.29895,49 L51.47795,49 L51.47795,46.264 C51.47795,46.165 51.50495,46.003 51.52295,45.931 C51.61295,45.634 51.78395,45.517 51.98195,45.517 C52.33295,45.517 52.41395,45.895 52.41395,46.327 L52.41395,49 L53.59295,49 L53.59295,46.327 C53.59295,45.211 53.27795,44.527 52.46795,44.527 C52.25195,44.527 52.04495,44.581 51.87395,44.68 C51.72995,44.779 51.59495,44.905 51.49595,45.058 L51.47795,45.058 L51.47795,42.772 L50.29895,42.772 L50.29895,49 Z M56.99495,49 L56.99495,47.632 C56.99495,46.417 56.94995,45.481 56.92295,44.869 L56.94095,44.869 C57.07595,45.418 57.35495,46.183 57.55295,46.696 L58.47995,49 L59.55995,49 L59.55995,42.934 L58.52495,42.934 L58.52495,44.275 C58.52495,45.391 58.60595,46.444 58.64195,47.083 L58.62395,47.083 C58.45295,46.561 58.15595,45.778 57.97595,45.31 L57.03995,42.934 L55.95995,42.934 L55.95995,49 L56.99495,49 Z M61.95305,44.527 C61.08005,44.527 60.25205,45.229 60.25205,46.813 C60.25205,48.244 60.88205,49.072 61.93505,49.072 C62.60105,49.072 63.61805,48.622 63.61805,46.786 C63.61805,45.4 62.98805,44.527 61.95305,44.527 L61.95305,44.527 Z M61.94405,45.418 C62.34005,45.418 62.43905,46.183 62.43905,46.786 C62.43905,47.434 62.34005,48.172 61.96205,48.172 C61.53905,48.172 61.42205,47.542 61.42205,46.786 C61.42205,46.183 61.51205,45.418 61.94405,45.418 L61.94405,45.418 Z M66.30005,42.772 L66.30005,44.968 L66.28205,44.968 C66.17405,44.716 65.93105,44.527 65.54405,44.527 C64.79705,44.527 64.13105,45.274 64.13105,46.804 C64.13105,48.037 64.56305,49.072 65.49905,49.072 C65.90405,49.072 66.25505,48.811 66.41705,48.505 L66.43505,48.505 L66.49805,49 L67.51505,49 C67.49705,48.595 67.47905,48.118 67.47905,47.695 L67.47905,42.772 L66.30005,42.772 Z M66.30005,47.452 C66.30005,47.56 66.29105,47.659 66.26405,47.722 C66.17405,48.028 66.00305,48.109 65.85905,48.109 C65.52605,48.109 65.30105,47.668 65.30105,46.831 C65.30105,46.12 65.45405,45.517 65.86805,45.517 C66.10205,45.517 66.24605,45.76 66.29105,46.03 C66.30005,46.12 66.30005,46.21 66.30005,46.291 L66.30005,47.452 Z M71.37605,47.218 C71.40305,47.092 71.41205,46.921 71.41205,46.606 C71.41205,45.274 70.86305,44.527 69.91805,44.527 C68.91905,44.527 68.15405,45.409 68.15405,46.885 C68.15405,48.262 68.81105,49.054 70.00805,49.054 C70.45805,49.054 70.91705,48.973 71.22305,48.856 L71.06105,48.01 C70.85405,48.082 70.55705,48.154 70.22405,48.154 C69.70205,48.154 69.30605,47.902 69.28805,47.218 L71.37605,47.218 Z M69.29705,46.39 C69.30605,45.949 69.45905,45.382 69.84605,45.382 C70.19705,45.382 70.34105,45.823 70.34105,46.39 L69.29705,46.39 Z" id="AiMesh-Node" fill="#888888"></path>
                    <path d="M7.4661,9.16418176 L7.7271,10.5501818 L8.8701,10.5501818 L7.6911,4.48418176 L6.2781,4.48418176 L4.9641,10.5501818 L6.1071,10.5501818 L6.3771,9.16418176 L7.4661,9.16418176 Z M6.4941,8.24618176 L6.7191,6.98618176 C6.7821,6.63518176 6.8721,6.00518176 6.9351,5.60018176 L6.9621,5.60018176 C7.0161,6.00518176 7.0971,6.60818176 7.1601,6.97718176 L7.3581,8.24618176 L6.4941,8.24618176 Z M9.2301,10.3611818 C9.4281,10.4781818 9.9051,10.6041818 10.3911,10.6041818 C11.5791,10.6041818 12.3981,9.87518176 12.3981,8.76818176 C12.3981,8.12918176 12.1011,7.51718176 11.3001,7.03118176 C10.6431,6.63518176 10.4631,6.44618176 10.4631,6.08618176 C10.4631,5.76218176 10.7061,5.45618176 11.2101,5.45618176 C11.5521,5.45618176 11.8131,5.55518176 11.9841,5.66318176 L12.1731,4.64618176 C11.9931,4.53818176 11.6151,4.43018176 11.2191,4.43018176 C9.9501,4.43018176 9.3021,5.24018176 9.3021,6.21218176 C9.3021,6.76118176 9.6171,7.40018176 10.4451,7.90418176 C10.9581,8.23718176 11.2281,8.45318176 11.2281,8.89418176 C11.2281,9.29018176 10.9581,9.57818176 10.4001,9.57818176 C10.0581,9.57818176 9.6441,9.47918176 9.4011,9.34418176 L9.2301,10.3611818 Z M13.0461,4.48418176 L13.0461,8.22818176 C13.0461,9.74918176 13.5411,10.6221818 14.8101,10.6221818 C15.9801,10.6221818 16.5651,9.77618176 16.5651,8.21918176 L16.5651,4.48418176 L15.3861,4.48418176 L15.3861,8.42618176 C15.3861,9.34418176 15.1431,9.58718176 14.8011,9.58718176 C14.4951,9.58718176 14.2251,9.31718176 14.2251,8.42618176 L14.2251,4.48418176 L13.0461,4.48418176 Z M17.2761,10.3611818 C17.4741,10.4781818 17.9511,10.6041818 18.4371,10.6041818 C19.6251,10.6041818 20.4441,9.87518176 20.4441,8.76818176 C20.4441,8.12918176 20.1471,7.51718176 19.3461,7.03118176 C18.6891,6.63518176 18.5091,6.44618176 18.5091,6.08618176 C18.5091,5.76218176 18.7521,5.45618176 19.2561,5.45618176 C19.5981,5.45618176 19.8591,5.55518176 20.0301,5.66318176 L20.2191,4.64618176 C20.0391,4.53818176 19.6611,4.43018176 19.2651,4.43018176 C17.9961,4.43018176 17.3481,5.24018176 17.3481,6.21218176 C17.3481,6.76118176 17.6631,7.40018176 18.4911,7.90418176 C19.0041,8.23718176 19.2741,8.45318176 19.2741,8.89418176 C19.2741,9.29018176 19.0041,9.57818176 18.4461,9.57818176 C18.1041,9.57818176 17.6901,9.47918176 17.4471,9.34418176 L17.2761,10.3611818 Z" id="ASUS-" fill="#888888"></path>
                    <path d="M37.342,11 L38.8639,11 L38.8639,10.6295 L37.7809,10.6295 L37.7809,7.1582 L37.342,7.1582 L37.342,11 Z M39.8851,8.1956 C39.412,8.1956 38.9617,8.6174 38.9617,9.6263 C38.9617,10.5953 39.3607,11.0456 39.8566,11.0456 C40.2784,11.0456 40.7743,10.6865 40.7743,9.6206 C40.7743,8.6573 40.3753,8.1956 39.8851,8.1956 L39.8851,8.1956 Z M39.868,8.549 C40.2556,8.549 40.3297,9.1988 40.3297,9.6206 C40.3297,10.0481 40.2556,10.6979 39.8794,10.6979 C39.4804,10.6979 39.4006,10.0766 39.4006,9.6206 C39.4006,9.1988 39.4747,8.549 39.868,8.549 L39.868,8.549 Z M42.5584,8.2412 L42.5356,8.5547 L42.5242,8.5547 C42.4444,8.3894 42.3076,8.1956 42.0112,8.1956 C41.6065,8.1956 41.1448,8.6174 41.1448,9.632 C41.1448,10.4414 41.464,10.9943 41.9542,10.9943 C42.1879,10.9943 42.3874,10.8746 42.4843,10.658 L42.4957,10.658 L42.4957,10.9373 C42.4957,11.5643 42.2791,11.7809 41.9314,11.7809 C41.7091,11.7809 41.5267,11.7182 41.4184,11.6612 L41.3158,12.0032 C41.4583,12.083 41.6863,12.14 41.92,12.14 C42.2278,12.14 42.49,12.0317 42.6553,11.8436 C42.8377,11.6441 42.9289,11.3705 42.9289,10.6466 L42.9289,9.1019 C42.9289,8.6801 42.946,8.435 42.9517,8.2412 L42.5584,8.2412 Z M42.4957,9.9911 C42.4957,10.0709 42.49,10.1564 42.4672,10.2419 C42.376,10.5725 42.205,10.6352 42.0739,10.6352 C41.806,10.6352 41.5837,10.316 41.5837,9.6092 C41.5837,8.9993 41.7547,8.5718 42.0739,8.5718 C42.3247,8.5718 42.4216,8.8055 42.4729,8.9936 C42.49,9.0506 42.4957,9.1247 42.4957,9.1931 L42.4957,9.9911 Z M44.3425,8.1956 C43.8694,8.1956 43.4191,8.6174 43.4191,9.6263 C43.4191,10.5953 43.8181,11.0456 44.314,11.0456 C44.7358,11.0456 45.2317,10.6865 45.2317,9.6206 C45.2317,8.6573 44.8327,8.1956 44.3425,8.1956 L44.3425,8.1956 Z M44.3254,8.549 C44.713,8.549 44.7871,9.1988 44.7871,9.6206 C44.7871,10.0481 44.713,10.6979 44.3368,10.6979 C43.9378,10.6979 43.858,10.0766 43.858,9.6206 C43.858,9.1988 43.9321,8.549 44.3254,8.549 L44.3254,8.549 Z M47.3749,8.2412 L46.936,8.2412 L46.936,10.0595 C46.936,10.1507 46.9303,10.2362 46.9132,10.3103 C46.8904,10.4357 46.7764,10.6751 46.5199,10.6751 C46.2178,10.6751 46.1494,10.3559 46.1494,9.9227 L46.1494,8.2412 L45.7105,8.2412 L45.7105,9.9854 C45.7105,10.6694 45.8986,11.0456 46.3831,11.0456 C46.6795,11.0456 46.8904,10.8461 46.9759,10.7093 L46.9873,10.7093 L47.0158,11 L47.3977,11 C47.392,10.7948 47.3749,10.5554 47.3749,10.2476 L47.3749,8.2412 Z M48.0874,7.637 L48.0874,8.2412 L47.7511,8.2412 L47.7511,8.5775 L48.0874,8.5775 L48.0874,10.1735 C48.0874,10.5554 48.1444,10.7435 48.2527,10.8689 C48.361,10.9886 48.5149,11.0342 48.6859,11.0342 C48.8284,11.0342 48.931,11.0171 49.0108,10.9886 L48.9937,10.6523 C48.9424,10.6637 48.8854,10.6694 48.817,10.6694 C48.6574,10.6694 48.5263,10.5725 48.5263,10.2134 L48.5263,8.5775 L49.0564,8.5775 L49.0564,8.2412 L48.5263,8.2412 L48.5263,7.5116 L48.0874,7.637 Z M50.4016,11.228 L51.6328,7.1126 L51.3022,7.1126 L50.0767,11.228 L50.4016,11.228 Z M52.8697,11 L53.3086,11 L53.3086,9.3242 L53.4796,9.3242 C53.8558,9.3242 54.0211,9.5237 54.1066,10.0481 C54.1807,10.5212 54.2548,10.886 54.3118,11 L54.7564,11 C54.7051,10.8803 54.6253,10.5554 54.5398,10.0253 C54.4543,9.5237 54.3061,9.2501 54.0211,9.1646 L54.0211,9.1532 C54.4087,8.9765 54.6367,8.6573 54.6367,8.1671 C54.6367,7.865 54.5569,7.6085 54.3688,7.4147 C54.1693,7.2209 53.8843,7.1411 53.5024,7.1411 C53.2858,7.1411 53.0578,7.1639 52.8697,7.2152 L52.8697,11 Z M53.3086,7.5173 C53.3656,7.5002 53.4511,7.4945 53.5366,7.4945 C54.0097,7.5002 54.1921,7.7738 54.1921,8.2184 C54.1921,8.6801 53.9128,8.9879 53.491,8.9879 L53.3086,8.9879 L53.3086,7.5173 Z M56.7571,9.6605 C56.7628,9.5921 56.7628,9.518 56.7628,9.4154 C56.7628,8.7884 56.5405,8.1956 55.9762,8.1956 C55.4233,8.1956 55.0471,8.7542 55.0471,9.6491 C55.0471,10.4927 55.3891,11.0342 56.0503,11.0342 C56.2669,11.0342 56.5006,10.9886 56.6545,10.9031 L56.5861,10.5782 C56.4778,10.6409 56.3182,10.6865 56.1301,10.6865 C55.8109,10.6865 55.4803,10.5041 55.4746,9.6605 L56.7571,9.6605 Z M55.4803,9.3356 C55.4974,8.9594 55.6456,8.5376 55.9306,8.5376 C56.1415,8.5376 56.3524,8.7827 56.341,9.3356 L55.4803,9.3356 Z M57.5836,11 L57.6121,10.6409 L57.6292,10.6409 C57.7375,10.8746 57.8857,11.0456 58.1764,11.0456 C58.6039,11.0456 59.0143,10.5896 59.0143,9.5921 C59.0143,8.6915 58.6894,8.1956 58.2619,8.1956 C58.0282,8.1956 57.823,8.2925 57.6805,8.5661 L57.6691,8.5661 L57.6691,7.0556 L57.2302,7.0556 L57.2302,10.3388 C57.2302,10.5269 57.2131,10.8404 57.2074,11 L57.5836,11 Z M57.6691,9.2558 C57.6691,9.1931 57.6691,9.1247 57.6805,9.062 C57.7147,8.8283 57.8857,8.5718 58.0909,8.5718 C58.4443,8.5718 58.5754,9.062 58.5754,9.6149 C58.5754,10.202 58.45,10.6808 58.0966,10.6808 C57.9769,10.6808 57.7888,10.6067 57.6862,10.1963 C57.6691,10.1507 57.6691,10.088 57.6691,10.0253 L57.6691,9.2558 Z M60.3139,8.1956 C59.8408,8.1956 59.3905,8.6174 59.3905,9.6263 C59.3905,10.5953 59.7895,11.0456 60.2854,11.0456 C60.7072,11.0456 61.2031,10.6865 61.2031,9.6206 C61.2031,8.6573 60.8041,8.1956 60.3139,8.1956 L60.3139,8.1956 Z M60.2968,8.549 C60.6844,8.549 60.7585,9.1988 60.7585,9.6206 C60.7585,10.0481 60.6844,10.6979 60.3082,10.6979 C59.9092,10.6979 59.8294,10.0766 59.8294,9.6206 C59.8294,9.1988 59.9035,8.549 60.2968,8.549 L60.2968,8.549 Z M62.497,8.1956 C62.0239,8.1956 61.5736,8.6174 61.5736,9.6263 C61.5736,10.5953 61.9726,11.0456 62.4685,11.0456 C62.8903,11.0456 63.3862,10.6865 63.3862,9.6206 C63.3862,8.6573 62.9872,8.1956 62.497,8.1956 L62.497,8.1956 Z M62.4799,8.549 C62.8675,8.549 62.9416,9.1988 62.9416,9.6206 C62.9416,10.0481 62.8675,10.6979 62.4913,10.6979 C62.0923,10.6979 62.0125,10.0766 62.0125,9.6206 C62.0125,9.1988 62.0866,8.549 62.4799,8.549 L62.4799,8.549 Z M63.9733,7.637 L63.9733,8.2412 L63.637,8.2412 L63.637,8.5775 L63.9733,8.5775 L63.9733,10.1735 C63.9733,10.5554 64.0303,10.7435 64.1386,10.8689 C64.2469,10.9886 64.4008,11.0342 64.5718,11.0342 C64.7143,11.0342 64.8169,11.0171 64.8967,10.9886 L64.8796,10.6523 C64.8283,10.6637 64.7713,10.6694 64.7029,10.6694 C64.5433,10.6694 64.4122,10.5725 64.4122,10.2134 L64.4122,8.5775 L64.9423,8.5775 L64.9423,8.2412 L64.4122,8.2412 L64.4122,7.5116 L63.9733,7.637 Z" id="Logout-/-Reboot" fill="#888888"></path>
                    <g transform="translate(51.000000, 35.197300)" fill="#888888">
                        <path d="M0.7159,0.5702 C0.7159,0.3802 0.5619,0.2252 0.3709,0.2252 C0.1809,0.2252 0.0269,0.3802 0.0269,0.5702 C0.0269,0.7602 0.1809,0.9152 0.3709,0.9152 C0.5619,0.9152 0.7159,0.7602 0.7159,0.5702" id="Fill-31"></path>
                        <path d="M0.7159,2.1156 C0.7159,1.9256 0.5619,1.7706 0.3709,1.7706 C0.1809,1.7706 0.0269,1.9256 0.0269,2.1156 C0.0269,2.3056 0.1809,2.4606 0.3709,2.4606 C0.5619,2.4606 0.7159,2.3056 0.7159,2.1156" id="Fill-33"></path>
                        <path d="M0.7159,3.6611 C0.7159,3.4711 0.5619,3.3161 0.3709,3.3161 C0.1809,3.3161 0.0269,3.4711 0.0269,3.6611 C0.0269,3.8511 0.1809,4.0061 0.3709,4.0061 C0.5619,4.0061 0.7159,3.8511 0.7159,3.6611" id="Fill-35"></path>
                        <path d="M0.7159,5.2065 C0.7159,5.0165 0.5619,4.8615 0.3709,4.8615 C0.1809,4.8615 0.0269,5.0165 0.0269,5.2065 C0.0269,5.3965 0.1809,5.5515 0.3709,5.5515 C0.5619,5.5515 0.7159,5.3965 0.7159,5.2065" id="Fill-37"></path>
                    </g>
                </g>
                <g id="layout-change" transform="translate(325.000000, 500.000000)">
                    <g id="Group-12" transform="translate(0.000000, 0.132900)">
                        <path d="M0,53.87 C0,56.141 1.858,58 4.13,58 L75.409,58 C77.681,58 79.539,56.141 79.539,53.87 L79.539,15.076 L0,15.076 L0,53.87 L0,53.87 Z" id="Fill-1" fill="#E5E5E6"></path>
                        <path d="M79.5394,4.9971 C79.5394,2.7261 77.6814,0.8671 75.4094,0.8671 L4.1304,0.8671 C1.8584,0.8671 0.0004,2.7261 0.0004,4.9971 L0.0004,13.0761 L79.5394,13.0761 L79.5394,4.9971 Z" id="Fill-3" fill="#E5E5E6"></path>
                        <mask id="mask-4" fill="white">
                            <use xlink:href="#path-3"></use>
                        </mask>
                        <g id="Clip-7"></g>
                        <polygon id="Fill-6" fill="#4D585C" mask="url(#mask-4)" points="79.539 15.076 79.539 15.076 79.539 13.076 79.539 13.076"></polygon>
                        <path d="M17.0841,22.6349 L4.3361,22.6349 C3.1671,22.6349 2.2101,21.6779 2.2101,20.5089 L2.2101,19.1139 C2.2101,17.9449 3.1671,16.9879 4.3361,16.9879 L17.0841,16.9879 C18.2531,16.9879 19.2101,17.9449 19.2101,19.1139 L19.2101,20.5089 C19.2101,21.6779 18.2531,22.6349 17.0841,22.6349" id="Fill-8" fill="#888888" mask="url(#mask-4)"></path>
                        <path d="M17.0841,24.1523 L4.3361,24.1523 C3.1671,24.1523 2.2101,25.1093 2.2101,26.2783 L2.2101,57.5023 C2.7871,57.8093 3.4341,58.0003 4.1301,58.0003 L19.2101,58.0003 L19.2101,26.2783 C19.2101,25.1093 18.2531,24.1523 17.0841,24.1523" id="Fill-9" fill="#888888" mask="url(#mask-4)"></path>
                        <path d="M79.5394,53.8701 L79.5394,17.1101 L23.2944,17.1101 C22.1254,17.1101 21.1684,18.0671 21.1684,19.2361 L21.1684,58.0001 L75.4094,58.0001 C77.6814,58.0001 79.5394,56.1411 79.5394,53.8701" id="Fill-10" fill="#888888" mask="url(#mask-4)"></path>
                        <path d="M28.126,53.502 C26.956,53.502 26,52.545 26,51.376 L26,23.126 C26,21.957 26.956,21 28.126,21 L72.564,21 C73.733,21 74.69,21.957 74.69,23.126 L74.69,51.376 C74.69,52.545 73.733,53.502 72.564,53.502 L28.126,53.502 Z" id="Fill-11" fill="#E5E5E6" mask="url(#mask-4)"></path>
                    </g>
                    <path d="M31.067,47.614 L31.328,49 L32.471,49 L31.292,42.934 L29.879,42.934 L28.565,49 L29.708,49 L29.978,47.614 L31.067,47.614 Z M30.095,46.696 L30.32,45.436 C30.383,45.085 30.473,44.455 30.536,44.05 L30.563,44.05 C30.617,44.455 30.698,45.058 30.761,45.427 L30.959,46.696 L30.095,46.696 Z M34.008,49 L34.008,44.599 L32.829,44.599 L32.829,49 L34.008,49 Z M33.405,42.79 C33.081,42.79 32.793,43.033 32.802,43.429 C32.793,43.807 33.063,44.068 33.387,44.068 C33.747,44.068 34.017,43.807 34.008,43.429 C34.008,43.033 33.747,42.79 33.405,42.79 L33.405,42.79 Z M38.56,49 L39.613,49 L39.244,42.934 L38.002,42.934 L37.525,45.13 C37.363,45.895 37.228,46.579 37.138,47.254 L37.12,47.254 C37.012,46.57 36.859,45.895 36.688,45.13 L36.202,42.934 L34.96,42.934 L34.519,49 L35.536,49 L35.635,46.894 C35.671,46.291 35.707,45.526 35.725,44.869 L35.752,44.869 C35.842,45.526 36.004,46.282 36.121,46.768 L36.625,48.901 L37.462,48.901 L37.984,46.732 C38.101,46.264 38.263,45.517 38.371,44.869 L38.398,44.869 C38.38,45.517 38.425,46.3 38.452,46.876 L38.56,49 Z M43.238,47.218 C43.265,47.092 43.274,46.921 43.274,46.606 C43.274,45.274 42.725,44.527 41.78,44.527 C40.781,44.527 40.016,45.409 40.016,46.885 C40.016,48.262 40.673,49.054 41.87,49.054 C42.32,49.054 42.779,48.973 43.085,48.856 L42.923,48.01 C42.716,48.082 42.419,48.154 42.086,48.154 C41.564,48.154 41.168,47.902 41.15,47.218 L43.238,47.218 Z M41.159,46.39 C41.168,45.949 41.321,45.382 41.708,45.382 C42.059,45.382 42.203,45.823 42.203,46.39 L41.159,46.39 Z M43.488,48.802 C43.695,48.955 44.127,49.054 44.496,49.054 C45.405,49.054 46.053,48.568 46.053,47.668 C46.053,47.164 45.81,46.705 45.162,46.336 C44.748,46.093 44.649,45.985 44.649,45.787 C44.649,45.589 44.793,45.409 45.09,45.409 C45.324,45.409 45.531,45.49 45.702,45.589 L45.909,44.725 C45.675,44.617 45.387,44.527 45.018,44.527 C44.136,44.527 43.569,45.121 43.569,45.913 C43.569,46.318 43.74,46.777 44.46,47.182 C44.847,47.407 44.973,47.551 44.973,47.776 C44.973,48.037 44.802,48.172 44.496,48.172 C44.199,48.172 43.875,48.046 43.704,47.938 L43.488,48.802 Z M46.456,49 L47.635,49 L47.635,46.264 C47.635,46.165 47.662,46.003 47.68,45.931 C47.77,45.634 47.941,45.517 48.139,45.517 C48.49,45.517 48.571,45.895 48.571,46.327 L48.571,49 L49.75,49 L49.75,46.327 C49.75,45.211 49.435,44.527 48.625,44.527 C48.409,44.527 48.202,44.581 48.031,44.68 C47.887,44.779 47.752,44.905 47.653,45.058 L47.635,45.058 L47.635,42.772 L46.456,42.772 L46.456,49 Z M51.717,49 L52.896,49 L52.896,46.579 L53.067,46.579 C53.463,46.579 53.652,46.795 53.76,47.551 C53.85,48.217 53.985,48.829 54.057,49 L55.29,49 C55.182,48.775 55.02,48.028 54.903,47.353 C54.786,46.705 54.579,46.318 54.165,46.156 L54.165,46.138 C54.786,45.85 55.101,45.265 55.101,44.617 C55.101,44.095 54.993,43.69 54.624,43.357 C54.228,42.997 53.652,42.907 53.004,42.907 C52.554,42.907 52.086,42.952 51.717,43.024 L51.717,49 Z M52.896,43.861 C52.959,43.834 53.076,43.825 53.175,43.825 C53.706,43.843 53.913,44.212 53.913,44.725 C53.913,45.256 53.616,45.67 53.103,45.67 L52.896,45.67 L52.896,43.861 Z M57.16,44.527 C56.287,44.527 55.459,45.229 55.459,46.813 C55.459,48.244 56.089,49.072 57.142,49.072 C57.808,49.072 58.825,48.622 58.825,46.786 C58.825,45.4 58.195,44.527 57.16,44.527 L57.16,44.527 Z M57.151,45.418 C57.547,45.418 57.646,46.183 57.646,46.786 C57.646,47.434 57.547,48.172 57.169,48.172 C56.746,48.172 56.629,47.542 56.629,46.786 C56.629,46.183 56.719,45.418 57.151,45.418 L57.151,45.418 Z M62.513,44.599 L61.334,44.599 L61.334,47.407 C61.334,47.56 61.307,47.695 61.262,47.785 C61.208,47.929 61.082,48.082 60.884,48.082 C60.551,48.082 60.443,47.713 60.443,47.137 L60.443,44.599 L59.255,44.599 L59.255,47.263 C59.255,48.451 59.597,49.072 60.434,49.072 C60.884,49.072 61.244,48.829 61.451,48.532 L61.469,48.532 L61.532,49 L62.549,49 C62.531,48.586 62.513,48.127 62.513,47.659 L62.513,44.599 Z M63.366,43.69 L63.366,44.599 L62.844,44.599 L62.844,45.436 L63.366,45.436 L63.366,47.515 C63.366,48.208 63.501,48.541 63.744,48.775 C63.951,48.973 64.248,49.054 64.59,49.054 C64.905,49.054 65.148,49.018 65.31,48.973 L65.301,48.055 C65.202,48.073 65.112,48.082 64.995,48.082 C64.761,48.082 64.545,47.956 64.545,47.443 L64.545,45.436 L65.409,45.436 L65.409,44.599 L64.545,44.599 L64.545,43.411 L63.366,43.69 Z M68.773,47.218 C68.8,47.092 68.809,46.921 68.809,46.606 C68.809,45.274 68.26,44.527 67.315,44.527 C66.316,44.527 65.551,45.409 65.551,46.885 C65.551,48.262 66.208,49.054 67.405,49.054 C67.855,49.054 68.314,48.973 68.62,48.856 L68.458,48.01 C68.251,48.082 67.954,48.154 67.621,48.154 C67.099,48.154 66.703,47.902 66.685,47.218 L68.773,47.218 Z M66.694,46.39 C66.703,45.949 66.856,45.382 67.243,45.382 C67.594,45.382 67.738,45.823 67.738,46.39 L66.694,46.39 Z M69.266,49 L70.454,49 L70.454,46.768 C70.454,46.579 70.472,46.426 70.499,46.327 C70.634,45.868 70.967,45.697 71.219,45.697 C71.318,45.697 71.399,45.697 71.471,45.715 L71.471,44.545 C71.399,44.527 71.336,44.527 71.219,44.527 C70.895,44.527 70.544,44.77 70.346,45.238 L70.319,45.238 L70.256,44.599 L69.23,44.599 C69.248,45.004 69.266,45.481 69.266,45.922 L69.266,49 Z" id="AiMesh-Router" fill="#888888"></path>
                    <path d="M32.574,29.614 L32.835,31 L33.978,31 L32.799,24.934 L31.386,24.934 L30.072,31 L31.215,31 L31.485,29.614 L32.574,29.614 Z M31.602,28.696 L31.827,27.436 C31.89,27.085 31.98,26.455 32.043,26.05 L32.07,26.05 C32.124,26.455 32.205,27.058 32.268,27.427 L32.466,28.696 L31.602,28.696 Z M35.715,31 L35.715,26.599 L34.536,26.599 L34.536,31 L35.715,31 Z M35.112,24.79 C34.788,24.79 34.5,25.033 34.509,25.429 C34.5,25.807 34.77,26.068 35.094,26.068 C35.454,26.068 35.724,25.807 35.715,25.429 C35.715,25.033 35.454,24.79 35.112,24.79 L35.112,24.79 Z M40.467,31 L41.52,31 L41.151,24.934 L39.909,24.934 L39.432,27.13 C39.27,27.895 39.135,28.579 39.045,29.254 L39.027,29.254 C38.919,28.57 38.766,27.895 38.595,27.13 L38.109,24.934 L36.867,24.934 L36.426,31 L37.443,31 L37.542,28.894 C37.578,28.291 37.614,27.526 37.632,26.869 L37.659,26.869 C37.749,27.526 37.911,28.282 38.028,28.768 L38.532,30.901 L39.369,30.901 L39.891,28.732 C40.008,28.264 40.17,27.517 40.278,26.869 L40.305,26.869 C40.287,27.517 40.332,28.3 40.359,28.876 L40.467,31 Z M45.345,29.218 C45.372,29.092 45.381,28.921 45.381,28.606 C45.381,27.274 44.832,26.527 43.887,26.527 C42.888,26.527 42.123,27.409 42.123,28.885 C42.123,30.262 42.78,31.054 43.977,31.054 C44.427,31.054 44.886,30.973 45.192,30.856 L45.03,30.01 C44.823,30.082 44.526,30.154 44.193,30.154 C43.671,30.154 43.275,29.902 43.257,29.218 L45.345,29.218 Z M43.266,28.39 C43.275,27.949 43.428,27.382 43.815,27.382 C44.166,27.382 44.31,27.823 44.31,28.39 L43.266,28.39 Z M45.795,30.802 C46.002,30.955 46.434,31.054 46.803,31.054 C47.712,31.054 48.36,30.568 48.36,29.668 C48.36,29.164 48.117,28.705 47.469,28.336 C47.055,28.093 46.956,27.985 46.956,27.787 C46.956,27.589 47.1,27.409 47.397,27.409 C47.631,27.409 47.838,27.49 48.009,27.589 L48.216,26.725 C47.982,26.617 47.694,26.527 47.325,26.527 C46.443,26.527 45.876,27.121 45.876,27.913 C45.876,28.318 46.047,28.777 46.767,29.182 C47.154,29.407 47.28,29.551 47.28,29.776 C47.28,30.037 47.109,30.172 46.803,30.172 C46.506,30.172 46.182,30.046 46.011,29.938 L45.795,30.802 Z M48.963,31 L50.142,31 L50.142,28.264 C50.142,28.165 50.169,28.003 50.187,27.931 C50.277,27.634 50.448,27.517 50.646,27.517 C50.997,27.517 51.078,27.895 51.078,28.327 L51.078,31 L52.257,31 L52.257,28.327 C52.257,27.211 51.942,26.527 51.132,26.527 C50.916,26.527 50.709,26.581 50.538,26.68 C50.394,26.779 50.259,26.905 50.16,27.058 L50.142,27.058 L50.142,24.772 L48.963,24.772 L48.963,31 Z M55.659,31 L55.659,29.632 C55.659,28.417 55.614,27.481 55.587,26.869 L55.605,26.869 C55.74,27.418 56.019,28.183 56.217,28.696 L57.144,31 L58.224,31 L58.224,24.934 L57.189,24.934 L57.189,26.275 C57.189,27.391 57.27,28.444 57.306,29.083 L57.288,29.083 C57.117,28.561 56.82,27.778 56.64,27.31 L55.704,24.934 L54.624,24.934 L54.624,31 L55.659,31 Z M60.62025,26.527 C59.74725,26.527 58.91925,27.229 58.91925,28.813 C58.91925,30.244 59.54925,31.072 60.60225,31.072 C61.26825,31.072 62.28525,30.622 62.28525,28.786 C62.28525,27.4 61.65525,26.527 60.62025,26.527 L60.62025,26.527 Z M60.61125,27.418 C61.00725,27.418 61.10625,28.183 61.10625,28.786 C61.10625,29.434 61.00725,30.172 60.62925,30.172 C60.20625,30.172 60.08925,29.542 60.08925,28.786 C60.08925,28.183 60.17925,27.418 60.61125,27.418 L60.61125,27.418 Z M64.96725,24.772 L64.96725,26.968 L64.94925,26.968 C64.84125,26.716 64.59825,26.527 64.21125,26.527 C63.46425,26.527 62.79825,27.274 62.79825,28.804 C62.79825,30.037 63.23025,31.072 64.16625,31.072 C64.57125,31.072 64.92225,30.811 65.08425,30.505 L65.10225,30.505 L65.16525,31 L66.18225,31 C66.16425,30.595 66.14625,30.118 66.14625,29.695 L66.14625,24.772 L64.96725,24.772 Z M64.96725,29.452 C64.96725,29.56 64.95825,29.659 64.93125,29.722 C64.84125,30.028 64.67025,30.109 64.52625,30.109 C64.19325,30.109 63.96825,29.668 63.96825,28.831 C63.96825,28.12 64.12125,27.517 64.53525,27.517 C64.76925,27.517 64.91325,27.76 64.95825,28.03 C64.96725,28.12 64.96725,28.21 64.96725,28.291 L64.96725,29.452 Z M70.04325,29.218 C70.07025,29.092 70.07925,28.921 70.07925,28.606 C70.07925,27.274 69.53025,26.527 68.58525,26.527 C67.58625,26.527 66.82125,27.409 66.82125,28.885 C66.82125,30.262 67.47825,31.054 68.67525,31.054 C69.12525,31.054 69.58425,30.973 69.89025,30.856 L69.72825,30.01 C69.52125,30.082 69.22425,30.154 68.89125,30.154 C68.36925,30.154 67.97325,29.902 67.95525,29.218 L70.04325,29.218 Z M67.96425,28.39 C67.97325,27.949 68.12625,27.382 68.51325,27.382 C68.86425,27.382 69.00825,27.823 69.00825,28.39 L67.96425,28.39 Z" id="AiMesh-Node" fill="#888888" opacity="0.25"></path>
                    <path d="M6.6433,9.19708176 L6.9043,10.5830818 L8.0473,10.5830818 L6.8683,4.51708176 L5.4553,4.51708176 L4.1413,10.5830818 L5.2843,10.5830818 L5.5543,9.19708176 L6.6433,9.19708176 Z M5.6713,8.27908176 L5.8963,7.01908176 C5.9593,6.66808176 6.0493,6.03808176 6.1123,5.63308176 L6.1393,5.63308176 C6.1933,6.03808176 6.2743,6.64108176 6.3373,7.01008176 L6.5353,8.27908176 L5.6713,8.27908176 Z M8.4073,10.3940818 C8.6053,10.5110818 9.0823,10.6370818 9.5683,10.6370818 C10.7563,10.6370818 11.5753,9.90808176 11.5753,8.80108176 C11.5753,8.16208176 11.2783,7.55008176 10.4773,7.06408176 C9.8203,6.66808176 9.6403,6.47908176 9.6403,6.11908176 C9.6403,5.79508176 9.8833,5.48908176 10.3873,5.48908176 C10.7293,5.48908176 10.9903,5.58808176 11.1613,5.69608176 L11.3503,4.67908176 C11.1703,4.57108176 10.7923,4.46308176 10.3963,4.46308176 C9.1273,4.46308176 8.4793,5.27308176 8.4793,6.24508176 C8.4793,6.79408176 8.7943,7.43308176 9.6223,7.93708176 C10.1353,8.27008176 10.4053,8.48608176 10.4053,8.92708176 C10.4053,9.32308176 10.1353,9.61108176 9.5773,9.61108176 C9.2353,9.61108176 8.8213,9.51208176 8.5783,9.37708176 L8.4073,10.3940818 Z M12.2233,4.51708176 L12.2233,8.26108176 C12.2233,9.78208176 12.7183,10.6550818 13.9873,10.6550818 C15.1573,10.6550818 15.7423,9.80908176 15.7423,8.25208176 L15.7423,4.51708176 L14.5633,4.51708176 L14.5633,8.45908176 C14.5633,9.37708176 14.3203,9.62008176 13.9783,9.62008176 C13.6723,9.62008176 13.4023,9.35008176 13.4023,8.45908176 L13.4023,4.51708176 L12.2233,4.51708176 Z M16.4533,10.3940818 C16.6513,10.5110818 17.1283,10.6370818 17.6143,10.6370818 C18.8023,10.6370818 19.6213,9.90808176 19.6213,8.80108176 C19.6213,8.16208176 19.3243,7.55008176 18.5233,7.06408176 C17.8663,6.66808176 17.6863,6.47908176 17.6863,6.11908176 C17.6863,5.79508176 17.9293,5.48908176 18.4333,5.48908176 C18.7753,5.48908176 19.0363,5.58808176 19.2073,5.69608176 L19.3963,4.67908176 C19.2163,4.57108176 18.8383,4.46308176 18.4423,4.46308176 C17.1733,4.46308176 16.5253,5.27308176 16.5253,6.24508176 C16.5253,6.79408176 16.8403,7.43308176 17.6683,7.93708176 C18.1813,8.27008176 18.4513,8.48608176 18.4513,8.92708176 C18.4513,9.32308176 18.1813,9.61108176 17.6233,9.61108176 C17.2813,9.61108176 16.8673,9.51208176 16.6243,9.37708176 L16.4533,10.3940818 Z" id="ASUS-" fill="#888888"></path>
                    <path d="M36.342,11 L37.8639,11 L37.8639,10.6295 L36.7809,10.6295 L36.7809,7.1582 L36.342,7.1582 L36.342,11 Z M38.8851,8.1956 C38.412,8.1956 37.9617,8.6174 37.9617,9.6263 C37.9617,10.5953 38.3607,11.0456 38.8566,11.0456 C39.2784,11.0456 39.7743,10.6865 39.7743,9.6206 C39.7743,8.6573 39.3753,8.1956 38.8851,8.1956 L38.8851,8.1956 Z M38.868,8.549 C39.2556,8.549 39.3297,9.1988 39.3297,9.6206 C39.3297,10.0481 39.2556,10.6979 38.8794,10.6979 C38.4804,10.6979 38.4006,10.0766 38.4006,9.6206 C38.4006,9.1988 38.4747,8.549 38.868,8.549 L38.868,8.549 Z M41.5584,8.2412 L41.5356,8.5547 L41.5242,8.5547 C41.4444,8.3894 41.3076,8.1956 41.0112,8.1956 C40.6065,8.1956 40.1448,8.6174 40.1448,9.632 C40.1448,10.4414 40.464,10.9943 40.9542,10.9943 C41.1879,10.9943 41.3874,10.8746 41.4843,10.658 L41.4957,10.658 L41.4957,10.9373 C41.4957,11.5643 41.2791,11.7809 40.9314,11.7809 C40.7091,11.7809 40.5267,11.7182 40.4184,11.6612 L40.3158,12.0032 C40.4583,12.083 40.6863,12.14 40.92,12.14 C41.2278,12.14 41.49,12.0317 41.6553,11.8436 C41.8377,11.6441 41.9289,11.3705 41.9289,10.6466 L41.9289,9.1019 C41.9289,8.6801 41.946,8.435 41.9517,8.2412 L41.5584,8.2412 Z M41.4957,9.9911 C41.4957,10.0709 41.49,10.1564 41.4672,10.2419 C41.376,10.5725 41.205,10.6352 41.0739,10.6352 C40.806,10.6352 40.5837,10.316 40.5837,9.6092 C40.5837,8.9993 40.7547,8.5718 41.0739,8.5718 C41.3247,8.5718 41.4216,8.8055 41.4729,8.9936 C41.49,9.0506 41.4957,9.1247 41.4957,9.1931 L41.4957,9.9911 Z M43.3425,8.1956 C42.8694,8.1956 42.4191,8.6174 42.4191,9.6263 C42.4191,10.5953 42.8181,11.0456 43.314,11.0456 C43.7358,11.0456 44.2317,10.6865 44.2317,9.6206 C44.2317,8.6573 43.8327,8.1956 43.3425,8.1956 L43.3425,8.1956 Z M43.3254,8.549 C43.713,8.549 43.7871,9.1988 43.7871,9.6206 C43.7871,10.0481 43.713,10.6979 43.3368,10.6979 C42.9378,10.6979 42.858,10.0766 42.858,9.6206 C42.858,9.1988 42.9321,8.549 43.3254,8.549 L43.3254,8.549 Z M46.3749,8.2412 L45.936,8.2412 L45.936,10.0595 C45.936,10.1507 45.9303,10.2362 45.9132,10.3103 C45.8904,10.4357 45.7764,10.6751 45.5199,10.6751 C45.2178,10.6751 45.1494,10.3559 45.1494,9.9227 L45.1494,8.2412 L44.7105,8.2412 L44.7105,9.9854 C44.7105,10.6694 44.8986,11.0456 45.3831,11.0456 C45.6795,11.0456 45.8904,10.8461 45.9759,10.7093 L45.9873,10.7093 L46.0158,11 L46.3977,11 C46.392,10.7948 46.3749,10.5554 46.3749,10.2476 L46.3749,8.2412 Z M47.0874,7.637 L47.0874,8.2412 L46.7511,8.2412 L46.7511,8.5775 L47.0874,8.5775 L47.0874,10.1735 C47.0874,10.5554 47.1444,10.7435 47.2527,10.8689 C47.361,10.9886 47.5149,11.0342 47.6859,11.0342 C47.8284,11.0342 47.931,11.0171 48.0108,10.9886 L47.9937,10.6523 C47.9424,10.6637 47.8854,10.6694 47.817,10.6694 C47.6574,10.6694 47.5263,10.5725 47.5263,10.2134 L47.5263,8.5775 L48.0564,8.5775 L48.0564,8.2412 L47.5263,8.2412 L47.5263,7.5116 L47.0874,7.637 Z M49.4016,11.228 L50.6328,7.1126 L50.3022,7.1126 L49.0767,11.228 L49.4016,11.228 Z M51.8697,11 L52.3086,11 L52.3086,9.3242 L52.4796,9.3242 C52.8558,9.3242 53.0211,9.5237 53.1066,10.0481 C53.1807,10.5212 53.2548,10.886 53.3118,11 L53.7564,11 C53.7051,10.8803 53.6253,10.5554 53.5398,10.0253 C53.4543,9.5237 53.3061,9.2501 53.0211,9.1646 L53.0211,9.1532 C53.4087,8.9765 53.6367,8.6573 53.6367,8.1671 C53.6367,7.865 53.5569,7.6085 53.3688,7.4147 C53.1693,7.2209 52.8843,7.1411 52.5024,7.1411 C52.2858,7.1411 52.0578,7.1639 51.8697,7.2152 L51.8697,11 Z M52.3086,7.5173 C52.3656,7.5002 52.4511,7.4945 52.5366,7.4945 C53.0097,7.5002 53.1921,7.7738 53.1921,8.2184 C53.1921,8.6801 52.9128,8.9879 52.491,8.9879 L52.3086,8.9879 L52.3086,7.5173 Z M55.7571,9.6605 C55.7628,9.5921 55.7628,9.518 55.7628,9.4154 C55.7628,8.7884 55.5405,8.1956 54.9762,8.1956 C54.4233,8.1956 54.0471,8.7542 54.0471,9.6491 C54.0471,10.4927 54.3891,11.0342 55.0503,11.0342 C55.2669,11.0342 55.5006,10.9886 55.6545,10.9031 L55.5861,10.5782 C55.4778,10.6409 55.3182,10.6865 55.1301,10.6865 C54.8109,10.6865 54.4803,10.5041 54.4746,9.6605 L55.7571,9.6605 Z M54.4803,9.3356 C54.4974,8.9594 54.6456,8.5376 54.9306,8.5376 C55.1415,8.5376 55.3524,8.7827 55.341,9.3356 L54.4803,9.3356 Z M56.5836,11 L56.6121,10.6409 L56.6292,10.6409 C56.7375,10.8746 56.8857,11.0456 57.1764,11.0456 C57.6039,11.0456 58.0143,10.5896 58.0143,9.5921 C58.0143,8.6915 57.6894,8.1956 57.2619,8.1956 C57.0282,8.1956 56.823,8.2925 56.6805,8.5661 L56.6691,8.5661 L56.6691,7.0556 L56.2302,7.0556 L56.2302,10.3388 C56.2302,10.5269 56.2131,10.8404 56.2074,11 L56.5836,11 Z M56.6691,9.2558 C56.6691,9.1931 56.6691,9.1247 56.6805,9.062 C56.7147,8.8283 56.8857,8.5718 57.0909,8.5718 C57.4443,8.5718 57.5754,9.062 57.5754,9.6149 C57.5754,10.202 57.45,10.6808 57.0966,10.6808 C56.9769,10.6808 56.7888,10.6067 56.6862,10.1963 C56.6691,10.1507 56.6691,10.088 56.6691,10.0253 L56.6691,9.2558 Z M59.3139,8.1956 C58.8408,8.1956 58.3905,8.6174 58.3905,9.6263 C58.3905,10.5953 58.7895,11.0456 59.2854,11.0456 C59.7072,11.0456 60.2031,10.6865 60.2031,9.6206 C60.2031,8.6573 59.8041,8.1956 59.3139,8.1956 L59.3139,8.1956 Z M59.2968,8.549 C59.6844,8.549 59.7585,9.1988 59.7585,9.6206 C59.7585,10.0481 59.6844,10.6979 59.3082,10.6979 C58.9092,10.6979 58.8294,10.0766 58.8294,9.6206 C58.8294,9.1988 58.9035,8.549 59.2968,8.549 L59.2968,8.549 Z M61.497,8.1956 C61.0239,8.1956 60.5736,8.6174 60.5736,9.6263 C60.5736,10.5953 60.9726,11.0456 61.4685,11.0456 C61.8903,11.0456 62.3862,10.6865 62.3862,9.6206 C62.3862,8.6573 61.9872,8.1956 61.497,8.1956 L61.497,8.1956 Z M61.4799,8.549 C61.8675,8.549 61.9416,9.1988 61.9416,9.6206 C61.9416,10.0481 61.8675,10.6979 61.4913,10.6979 C61.0923,10.6979 61.0125,10.0766 61.0125,9.6206 C61.0125,9.1988 61.0866,8.549 61.4799,8.549 L61.4799,8.549 Z M62.9733,7.637 L62.9733,8.2412 L62.637,8.2412 L62.637,8.5775 L62.9733,8.5775 L62.9733,10.1735 C62.9733,10.5554 63.0303,10.7435 63.1386,10.8689 C63.2469,10.9886 63.4008,11.0342 63.5718,11.0342 C63.7143,11.0342 63.8169,11.0171 63.8967,10.9886 L63.8796,10.6523 C63.8283,10.6637 63.7713,10.6694 63.7029,10.6694 C63.5433,10.6694 63.4122,10.5725 63.4122,10.2134 L63.4122,8.5775 L63.9423,8.5775 L63.9423,8.2412 L63.4122,8.2412 L63.4122,7.5116 L62.9733,7.637 Z" id="Logout-/-Reboot" fill="#888888"></path>
                    <g id="Group-18" transform="translate(48.000000, 33.000000)" stroke="#888888" stroke-width="0.5" stroke-linecap="round" stroke-linejoin="round">
                        <polyline id="Stroke-14" opacity="0.25" points="3.2801 7.2071 3.2801 0.9811 4.5791 2.4301"></polyline>
                        <polyline id="Stroke-16" points="1.4818 0.9811 1.4818 7.2071 0.1828 5.7581"></polyline>
                    </g>
                </g>
                <g id="layout-router" transform="translate(475.000000, 500.000000)">
                    <g id="Group" transform="translate(0.000000, 0.197300)">
                        <path d="M0.8249,53.7728 C0.8249,56.0438 2.6829,57.9028 4.9549,57.9028 L76.2339,57.9028 C78.5059,57.9028 80.3639,56.0438 80.3639,53.7728 L80.3639,14.9788 L0.8249,14.9788 L0.8249,53.7728 Z" id="Fill-22" fill="#E5E5E6"></path>
                        <path d="M80.3643,4.8999 C80.3643,2.6289 78.5063,0.7699 76.2343,0.7699 L4.9553,0.7699 C2.6833,0.7699 0.8253,2.6289 0.8253,4.8999 L0.8253,12.9789 L80.3643,12.9789 L80.3643,4.8999 Z" id="Fill-23" fill="#E5E5E6"></path>
                        <polygon id="Fill-24" fill="#4D585C" points="80.364 14.979 80.364 14.979 80.364 12.979 80.364 12.979"></polygon>
                        <path d="M17.909,22.5378 L5.161,22.5378 C3.992,22.5378 3.035,21.5808 3.035,20.4118 L3.035,19.0168 C3.035,17.8478 3.992,16.8908 5.161,16.8908 L17.909,16.8908 C19.078,16.8908 20.035,17.8478 20.035,19.0168 L20.035,20.4118 C20.035,21.5808 19.078,22.5378 17.909,22.5378" id="Fill-25" fill="#888888"></path>
                        <path d="M17.909,24.0551 L5.161,24.0551 C3.992,24.0551 3.035,25.0121 3.035,26.1811 L3.035,57.4051 C3.612,57.7121 4.259,57.9031 4.955,57.9031 L20.035,57.9031 L20.035,26.1811 C20.035,25.0121 19.078,24.0551 17.909,24.0551" id="Fill-26" fill="#888888"></path>
                        <path d="M80.3643,53.7729 L80.3643,17.0129 L24.1193,17.0129 C22.9503,17.0129 21.9933,17.9699 21.9933,19.1389 L21.9933,57.9029 L76.2343,57.9029 C78.5063,57.9029 80.3643,56.0439 80.3643,53.7729" id="Fill-27" fill="#888888"></path>
                        <path d="M73.564,53.502 L29.126,53.502 C27.956,53.502 27,52.545 27,51.376 L27,23.126 C27,21.957 27.956,21 29.126,21 L73.564,21 C74.733,21 75.69,21.957 75.69,23.126 L75.69,51.376 C75.69,52.545 74.733,53.502 73.564,53.502" id="Fill-28" fill="#E5E5E6"></path>
                        <path d="M55.793,31.605 L57.331,31.605 L57.331,30.995 L55.793,30.995 L55.793,31.605 Z M53.758,31.605 L55.296,31.605 L55.296,30.995 L53.758,30.995 L53.758,31.605 Z M51.723,31.605 L53.261,31.605 L53.261,30.995 L51.723,30.995 L51.723,31.605 Z M56.555,28.84 L46.109,28.84 L46.109,24.304 C46.109,24.093 45.937,23.921 45.727,23.921 C45.516,23.921 45.344,24.093 45.344,24.304 L45.344,28.885 C44.231,29.101 43.383,30.085 43.383,31.259 L43.383,31.259 C43.383,32.589 44.472,33.677 45.802,33.677 L56.555,33.677 C57.886,33.677 58.974,32.589 58.974,31.259 L58.974,31.259 C58.974,29.929 57.886,28.84 56.555,28.84 L56.555,28.84 Z" id="Fill-29" fill="#888888"></path>
                    </g>
                    <path d="M32.567,47.614 L32.828,49 L33.971,49 L32.792,42.934 L31.379,42.934 L30.065,49 L31.208,49 L31.478,47.614 L32.567,47.614 Z M31.595,46.696 L31.82,45.436 C31.883,45.085 31.973,44.455 32.036,44.05 L32.063,44.05 C32.117,44.455 32.198,45.058 32.261,45.427 L32.459,46.696 L31.595,46.696 Z M35.508,49 L35.508,44.599 L34.329,44.599 L34.329,49 L35.508,49 Z M34.905,42.79 C34.581,42.79 34.293,43.033 34.302,43.429 C34.293,43.807 34.563,44.068 34.887,44.068 C35.247,44.068 35.517,43.807 35.508,43.429 C35.508,43.033 35.247,42.79 34.905,42.79 L34.905,42.79 Z M40.06,49 L41.113,49 L40.744,42.934 L39.502,42.934 L39.025,45.13 C38.863,45.895 38.728,46.579 38.638,47.254 L38.62,47.254 C38.512,46.57 38.359,45.895 38.188,45.13 L37.702,42.934 L36.46,42.934 L36.019,49 L37.036,49 L37.135,46.894 C37.171,46.291 37.207,45.526 37.225,44.869 L37.252,44.869 C37.342,45.526 37.504,46.282 37.621,46.768 L38.125,48.901 L38.962,48.901 L39.484,46.732 C39.601,46.264 39.763,45.517 39.871,44.869 L39.898,44.869 C39.88,45.517 39.925,46.3 39.952,46.876 L40.06,49 Z M44.738,47.218 C44.765,47.092 44.774,46.921 44.774,46.606 C44.774,45.274 44.225,44.527 43.28,44.527 C42.281,44.527 41.516,45.409 41.516,46.885 C41.516,48.262 42.173,49.054 43.37,49.054 C43.82,49.054 44.279,48.973 44.585,48.856 L44.423,48.01 C44.216,48.082 43.919,48.154 43.586,48.154 C43.064,48.154 42.668,47.902 42.65,47.218 L44.738,47.218 Z M42.659,46.39 C42.668,45.949 42.821,45.382 43.208,45.382 C43.559,45.382 43.703,45.823 43.703,46.39 L42.659,46.39 Z M44.988,48.802 C45.195,48.955 45.627,49.054 45.996,49.054 C46.905,49.054 47.553,48.568 47.553,47.668 C47.553,47.164 47.31,46.705 46.662,46.336 C46.248,46.093 46.149,45.985 46.149,45.787 C46.149,45.589 46.293,45.409 46.59,45.409 C46.824,45.409 47.031,45.49 47.202,45.589 L47.409,44.725 C47.175,44.617 46.887,44.527 46.518,44.527 C45.636,44.527 45.069,45.121 45.069,45.913 C45.069,46.318 45.24,46.777 45.96,47.182 C46.347,47.407 46.473,47.551 46.473,47.776 C46.473,48.037 46.302,48.172 45.996,48.172 C45.699,48.172 45.375,48.046 45.204,47.938 L44.988,48.802 Z M47.956,49 L49.135,49 L49.135,46.264 C49.135,46.165 49.162,46.003 49.18,45.931 C49.27,45.634 49.441,45.517 49.639,45.517 C49.99,45.517 50.071,45.895 50.071,46.327 L50.071,49 L51.25,49 L51.25,46.327 C51.25,45.211 50.935,44.527 50.125,44.527 C49.909,44.527 49.702,44.581 49.531,44.68 C49.387,44.779 49.252,44.905 49.153,45.058 L49.135,45.058 L49.135,42.772 L47.956,42.772 L47.956,49 Z M53.217,49 L54.396,49 L54.396,46.579 L54.567,46.579 C54.963,46.579 55.152,46.795 55.26,47.551 C55.35,48.217 55.485,48.829 55.557,49 L56.79,49 C56.682,48.775 56.52,48.028 56.403,47.353 C56.286,46.705 56.079,46.318 55.665,46.156 L55.665,46.138 C56.286,45.85 56.601,45.265 56.601,44.617 C56.601,44.095 56.493,43.69 56.124,43.357 C55.728,42.997 55.152,42.907 54.504,42.907 C54.054,42.907 53.586,42.952 53.217,43.024 L53.217,49 Z M54.396,43.861 C54.459,43.834 54.576,43.825 54.675,43.825 C55.206,43.843 55.413,44.212 55.413,44.725 C55.413,45.256 55.116,45.67 54.603,45.67 L54.396,45.67 L54.396,43.861 Z M58.66,44.527 C57.787,44.527 56.959,45.229 56.959,46.813 C56.959,48.244 57.589,49.072 58.642,49.072 C59.308,49.072 60.325,48.622 60.325,46.786 C60.325,45.4 59.695,44.527 58.66,44.527 L58.66,44.527 Z M58.651,45.418 C59.047,45.418 59.146,46.183 59.146,46.786 C59.146,47.434 59.047,48.172 58.669,48.172 C58.246,48.172 58.129,47.542 58.129,46.786 C58.129,46.183 58.219,45.418 58.651,45.418 L58.651,45.418 Z M64.013,44.599 L62.834,44.599 L62.834,47.407 C62.834,47.56 62.807,47.695 62.762,47.785 C62.708,47.929 62.582,48.082 62.384,48.082 C62.051,48.082 61.943,47.713 61.943,47.137 L61.943,44.599 L60.755,44.599 L60.755,47.263 C60.755,48.451 61.097,49.072 61.934,49.072 C62.384,49.072 62.744,48.829 62.951,48.532 L62.969,48.532 L63.032,49 L64.049,49 C64.031,48.586 64.013,48.127 64.013,47.659 L64.013,44.599 Z M64.866,43.69 L64.866,44.599 L64.344,44.599 L64.344,45.436 L64.866,45.436 L64.866,47.515 C64.866,48.208 65.001,48.541 65.244,48.775 C65.451,48.973 65.748,49.054 66.09,49.054 C66.405,49.054 66.648,49.018 66.81,48.973 L66.801,48.055 C66.702,48.073 66.612,48.082 66.495,48.082 C66.261,48.082 66.045,47.956 66.045,47.443 L66.045,45.436 L66.909,45.436 L66.909,44.599 L66.045,44.599 L66.045,43.411 L64.866,43.69 Z M70.273,47.218 C70.3,47.092 70.309,46.921 70.309,46.606 C70.309,45.274 69.76,44.527 68.815,44.527 C67.816,44.527 67.051,45.409 67.051,46.885 C67.051,48.262 67.708,49.054 68.905,49.054 C69.355,49.054 69.814,48.973 70.12,48.856 L69.958,48.01 C69.751,48.082 69.454,48.154 69.121,48.154 C68.599,48.154 68.203,47.902 68.185,47.218 L70.273,47.218 Z M68.194,46.39 C68.203,45.949 68.356,45.382 68.743,45.382 C69.094,45.382 69.238,45.823 69.238,46.39 L68.194,46.39 Z M70.766,49 L71.954,49 L71.954,46.768 C71.954,46.579 71.972,46.426 71.999,46.327 C72.134,45.868 72.467,45.697 72.719,45.697 C72.818,45.697 72.899,45.697 72.971,45.715 L72.971,44.545 C72.899,44.527 72.836,44.527 72.719,44.527 C72.395,44.527 72.044,44.77 71.846,45.238 L71.819,45.238 L71.756,44.599 L70.73,44.599 C70.748,45.004 70.766,45.481 70.766,45.922 L70.766,49 Z" id="AiMesh-Router" fill="#888888"></path>
                    <path d="M7.4661,9.16418176 L7.7271,10.5501818 L8.8701,10.5501818 L7.6911,4.48418176 L6.2781,4.48418176 L4.9641,10.5501818 L6.1071,10.5501818 L6.3771,9.16418176 L7.4661,9.16418176 Z M6.4941,8.24618176 L6.7191,6.98618176 C6.7821,6.63518176 6.8721,6.00518176 6.9351,5.60018176 L6.9621,5.60018176 C7.0161,6.00518176 7.0971,6.60818176 7.1601,6.97718176 L7.3581,8.24618176 L6.4941,8.24618176 Z M9.2301,10.3611818 C9.4281,10.4781818 9.9051,10.6041818 10.3911,10.6041818 C11.5791,10.6041818 12.3981,9.87518176 12.3981,8.76818176 C12.3981,8.12918176 12.1011,7.51718176 11.3001,7.03118176 C10.6431,6.63518176 10.4631,6.44618176 10.4631,6.08618176 C10.4631,5.76218176 10.7061,5.45618176 11.2101,5.45618176 C11.5521,5.45618176 11.8131,5.55518176 11.9841,5.66318176 L12.1731,4.64618176 C11.9931,4.53818176 11.6151,4.43018176 11.2191,4.43018176 C9.9501,4.43018176 9.3021,5.24018176 9.3021,6.21218176 C9.3021,6.76118176 9.6171,7.40018176 10.4451,7.90418176 C10.9581,8.23718176 11.2281,8.45318176 11.2281,8.89418176 C11.2281,9.29018176 10.9581,9.57818176 10.4001,9.57818176 C10.0581,9.57818176 9.6441,9.47918176 9.4011,9.34418176 L9.2301,10.3611818 Z M13.0461,4.48418176 L13.0461,8.22818176 C13.0461,9.74918176 13.5411,10.6221818 14.8101,10.6221818 C15.9801,10.6221818 16.5651,9.77618176 16.5651,8.21918176 L16.5651,4.48418176 L15.3861,4.48418176 L15.3861,8.42618176 C15.3861,9.34418176 15.1431,9.58718176 14.8011,9.58718176 C14.4951,9.58718176 14.2251,9.31718176 14.2251,8.42618176 L14.2251,4.48418176 L13.0461,4.48418176 Z M17.2761,10.3611818 C17.4741,10.4781818 17.9511,10.6041818 18.4371,10.6041818 C19.6251,10.6041818 20.4441,9.87518176 20.4441,8.76818176 C20.4441,8.12918176 20.1471,7.51718176 19.3461,7.03118176 C18.6891,6.63518176 18.5091,6.44618176 18.5091,6.08618176 C18.5091,5.76218176 18.7521,5.45618176 19.2561,5.45618176 C19.5981,5.45618176 19.8591,5.55518176 20.0301,5.66318176 L20.2191,4.64618176 C20.0391,4.53818176 19.6611,4.43018176 19.2651,4.43018176 C17.9961,4.43018176 17.3481,5.24018176 17.3481,6.21218176 C17.3481,6.76118176 17.6631,7.40018176 18.4911,7.90418176 C19.0041,8.23718176 19.2741,8.45318176 19.2741,8.89418176 C19.2741,9.29018176 19.0041,9.57818176 18.4461,9.57818176 C18.1041,9.57818176 17.6901,9.47918176 17.4471,9.34418176 L17.2761,10.3611818 Z" id="ASUS-" fill="#888888"></path>
                    <path d="M37.342,11 L38.8639,11 L38.8639,10.6295 L37.7809,10.6295 L37.7809,7.1582 L37.342,7.1582 L37.342,11 Z M39.8851,8.1956 C39.412,8.1956 38.9617,8.6174 38.9617,9.6263 C38.9617,10.5953 39.3607,11.0456 39.8566,11.0456 C40.2784,11.0456 40.7743,10.6865 40.7743,9.6206 C40.7743,8.6573 40.3753,8.1956 39.8851,8.1956 L39.8851,8.1956 Z M39.868,8.549 C40.2556,8.549 40.3297,9.1988 40.3297,9.6206 C40.3297,10.0481 40.2556,10.6979 39.8794,10.6979 C39.4804,10.6979 39.4006,10.0766 39.4006,9.6206 C39.4006,9.1988 39.4747,8.549 39.868,8.549 L39.868,8.549 Z M42.5584,8.2412 L42.5356,8.5547 L42.5242,8.5547 C42.4444,8.3894 42.3076,8.1956 42.0112,8.1956 C41.6065,8.1956 41.1448,8.6174 41.1448,9.632 C41.1448,10.4414 41.464,10.9943 41.9542,10.9943 C42.1879,10.9943 42.3874,10.8746 42.4843,10.658 L42.4957,10.658 L42.4957,10.9373 C42.4957,11.5643 42.2791,11.7809 41.9314,11.7809 C41.7091,11.7809 41.5267,11.7182 41.4184,11.6612 L41.3158,12.0032 C41.4583,12.083 41.6863,12.14 41.92,12.14 C42.2278,12.14 42.49,12.0317 42.6553,11.8436 C42.8377,11.6441 42.9289,11.3705 42.9289,10.6466 L42.9289,9.1019 C42.9289,8.6801 42.946,8.435 42.9517,8.2412 L42.5584,8.2412 Z M42.4957,9.9911 C42.4957,10.0709 42.49,10.1564 42.4672,10.2419 C42.376,10.5725 42.205,10.6352 42.0739,10.6352 C41.806,10.6352 41.5837,10.316 41.5837,9.6092 C41.5837,8.9993 41.7547,8.5718 42.0739,8.5718 C42.3247,8.5718 42.4216,8.8055 42.4729,8.9936 C42.49,9.0506 42.4957,9.1247 42.4957,9.1931 L42.4957,9.9911 Z M44.3425,8.1956 C43.8694,8.1956 43.4191,8.6174 43.4191,9.6263 C43.4191,10.5953 43.8181,11.0456 44.314,11.0456 C44.7358,11.0456 45.2317,10.6865 45.2317,9.6206 C45.2317,8.6573 44.8327,8.1956 44.3425,8.1956 L44.3425,8.1956 Z M44.3254,8.549 C44.713,8.549 44.7871,9.1988 44.7871,9.6206 C44.7871,10.0481 44.713,10.6979 44.3368,10.6979 C43.9378,10.6979 43.858,10.0766 43.858,9.6206 C43.858,9.1988 43.9321,8.549 44.3254,8.549 L44.3254,8.549 Z M47.3749,8.2412 L46.936,8.2412 L46.936,10.0595 C46.936,10.1507 46.9303,10.2362 46.9132,10.3103 C46.8904,10.4357 46.7764,10.6751 46.5199,10.6751 C46.2178,10.6751 46.1494,10.3559 46.1494,9.9227 L46.1494,8.2412 L45.7105,8.2412 L45.7105,9.9854 C45.7105,10.6694 45.8986,11.0456 46.3831,11.0456 C46.6795,11.0456 46.8904,10.8461 46.9759,10.7093 L46.9873,10.7093 L47.0158,11 L47.3977,11 C47.392,10.7948 47.3749,10.5554 47.3749,10.2476 L47.3749,8.2412 Z M48.0874,7.637 L48.0874,8.2412 L47.7511,8.2412 L47.7511,8.5775 L48.0874,8.5775 L48.0874,10.1735 C48.0874,10.5554 48.1444,10.7435 48.2527,10.8689 C48.361,10.9886 48.5149,11.0342 48.6859,11.0342 C48.8284,11.0342 48.931,11.0171 49.0108,10.9886 L48.9937,10.6523 C48.9424,10.6637 48.8854,10.6694 48.817,10.6694 C48.6574,10.6694 48.5263,10.5725 48.5263,10.2134 L48.5263,8.5775 L49.0564,8.5775 L49.0564,8.2412 L48.5263,8.2412 L48.5263,7.5116 L48.0874,7.637 Z M50.4016,11.228 L51.6328,7.1126 L51.3022,7.1126 L50.0767,11.228 L50.4016,11.228 Z M52.8697,11 L53.3086,11 L53.3086,9.3242 L53.4796,9.3242 C53.8558,9.3242 54.0211,9.5237 54.1066,10.0481 C54.1807,10.5212 54.2548,10.886 54.3118,11 L54.7564,11 C54.7051,10.8803 54.6253,10.5554 54.5398,10.0253 C54.4543,9.5237 54.3061,9.2501 54.0211,9.1646 L54.0211,9.1532 C54.4087,8.9765 54.6367,8.6573 54.6367,8.1671 C54.6367,7.865 54.5569,7.6085 54.3688,7.4147 C54.1693,7.2209 53.8843,7.1411 53.5024,7.1411 C53.2858,7.1411 53.0578,7.1639 52.8697,7.2152 L52.8697,11 Z M53.3086,7.5173 C53.3656,7.5002 53.4511,7.4945 53.5366,7.4945 C54.0097,7.5002 54.1921,7.7738 54.1921,8.2184 C54.1921,8.6801 53.9128,8.9879 53.491,8.9879 L53.3086,8.9879 L53.3086,7.5173 Z M56.7571,9.6605 C56.7628,9.5921 56.7628,9.518 56.7628,9.4154 C56.7628,8.7884 56.5405,8.1956 55.9762,8.1956 C55.4233,8.1956 55.0471,8.7542 55.0471,9.6491 C55.0471,10.4927 55.3891,11.0342 56.0503,11.0342 C56.2669,11.0342 56.5006,10.9886 56.6545,10.9031 L56.5861,10.5782 C56.4778,10.6409 56.3182,10.6865 56.1301,10.6865 C55.8109,10.6865 55.4803,10.5041 55.4746,9.6605 L56.7571,9.6605 Z M55.4803,9.3356 C55.4974,8.9594 55.6456,8.5376 55.9306,8.5376 C56.1415,8.5376 56.3524,8.7827 56.341,9.3356 L55.4803,9.3356 Z M57.5836,11 L57.6121,10.6409 L57.6292,10.6409 C57.7375,10.8746 57.8857,11.0456 58.1764,11.0456 C58.6039,11.0456 59.0143,10.5896 59.0143,9.5921 C59.0143,8.6915 58.6894,8.1956 58.2619,8.1956 C58.0282,8.1956 57.823,8.2925 57.6805,8.5661 L57.6691,8.5661 L57.6691,7.0556 L57.2302,7.0556 L57.2302,10.3388 C57.2302,10.5269 57.2131,10.8404 57.2074,11 L57.5836,11 Z M57.6691,9.2558 C57.6691,9.1931 57.6691,9.1247 57.6805,9.062 C57.7147,8.8283 57.8857,8.5718 58.0909,8.5718 C58.4443,8.5718 58.5754,9.062 58.5754,9.6149 C58.5754,10.202 58.45,10.6808 58.0966,10.6808 C57.9769,10.6808 57.7888,10.6067 57.6862,10.1963 C57.6691,10.1507 57.6691,10.088 57.6691,10.0253 L57.6691,9.2558 Z M60.3139,8.1956 C59.8408,8.1956 59.3905,8.6174 59.3905,9.6263 C59.3905,10.5953 59.7895,11.0456 60.2854,11.0456 C60.7072,11.0456 61.2031,10.6865 61.2031,9.6206 C61.2031,8.6573 60.8041,8.1956 60.3139,8.1956 L60.3139,8.1956 Z M60.2968,8.549 C60.6844,8.549 60.7585,9.1988 60.7585,9.6206 C60.7585,10.0481 60.6844,10.6979 60.3082,10.6979 C59.9092,10.6979 59.8294,10.0766 59.8294,9.6206 C59.8294,9.1988 59.9035,8.549 60.2968,8.549 L60.2968,8.549 Z M62.497,8.1956 C62.0239,8.1956 61.5736,8.6174 61.5736,9.6263 C61.5736,10.5953 61.9726,11.0456 62.4685,11.0456 C62.8903,11.0456 63.3862,10.6865 63.3862,9.6206 C63.3862,8.6573 62.9872,8.1956 62.497,8.1956 L62.497,8.1956 Z M62.4799,8.549 C62.8675,8.549 62.9416,9.1988 62.9416,9.6206 C62.9416,10.0481 62.8675,10.6979 62.4913,10.6979 C62.0923,10.6979 62.0125,10.0766 62.0125,9.6206 C62.0125,9.1988 62.0866,8.549 62.4799,8.549 L62.4799,8.549 Z M63.9733,7.637 L63.9733,8.2412 L63.637,8.2412 L63.637,8.5775 L63.9733,8.5775 L63.9733,10.1735 C63.9733,10.5554 64.0303,10.7435 64.1386,10.8689 C64.2469,10.9886 64.4008,11.0342 64.5718,11.0342 C64.7143,11.0342 64.8169,11.0171 64.8967,10.9886 L64.8796,10.6523 C64.8283,10.6637 64.7713,10.6694 64.7029,10.6694 C64.5433,10.6694 64.4122,10.5725 64.4122,10.2134 L64.4122,8.5775 L64.9423,8.5775 L64.9423,8.2412 L64.4122,8.2412 L64.4122,7.5116 L63.9733,7.637 Z" id="Logout-/-Reboot" fill="#888888"></path>
                    <g id="layout-point" transform="translate(51.000000, 35.197300)" fill="#888888">
                        <path d="M0.7159,0.5702 C0.7159,0.3802 0.5619,0.2252 0.3709,0.2252 C0.1809,0.2252 0.0269,0.3802 0.0269,0.5702 C0.0269,0.7602 0.1809,0.9152 0.3709,0.9152 C0.5619,0.9152 0.7159,0.7602 0.7159,0.5702" id="Fill-31"></path>
                        <path d="M0.7159,2.1156 C0.7159,1.9256 0.5619,1.7706 0.3709,1.7706 C0.1809,1.7706 0.0269,1.9256 0.0269,2.1156 C0.0269,2.3056 0.1809,2.4606 0.3709,2.4606 C0.5619,2.4606 0.7159,2.3056 0.7159,2.1156" id="Fill-33"></path>
                        <path d="M0.7159,3.6611 C0.7159,3.4711 0.5619,3.3161 0.3709,3.3161 C0.1809,3.3161 0.0269,3.4711 0.0269,3.6611 C0.0269,3.8511 0.1809,4.0061 0.3709,4.0061 C0.5619,4.0061 0.7159,3.8511 0.7159,3.6611" id="Fill-35"></path>
                        <path d="M0.7159,5.2065 C0.7159,5.0165 0.5619,4.8615 0.3709,4.8615 C0.1809,4.8615 0.0269,5.0165 0.0269,5.2065 C0.0269,5.3965 0.1809,5.5515 0.3709,5.5515 C0.5619,5.5515 0.7159,5.3965 0.7159,5.2065" id="Fill-37"></path>
                    </g>
                </g>
                <g id="router-back" transform="translate(360.000000, 19.000000)">
                    <path d="M108.984,80.655 L20.828,80.655 C9.923,80.655 1,71.733 1,60.827 L1,60.827 C1,49.922 9.923,41 20.828,41 L108.984,41 C119.889,41 128.812,49.922 128.812,60.827 L128.812,60.827 C128.812,71.733 119.889,80.655 108.984,80.655" id="Fill-1" fill="#E5E5E6"></path>
                    <path d="M108.984,80.655 L20.828,80.655 C9.923,80.655 1,71.733 1,60.827 L1,60.827 C1,49.922 9.923,41 20.828,41 L108.984,41 C119.889,41 128.812,49.922 128.812,60.827 L128.812,60.827 C128.812,71.733 119.889,80.655 108.984,80.655 L108.984,80.655 Z" id="Stroke-3" stroke="#888888" stroke-width="2.5"></path>
                    <path d="M97.5306,57.0399 L97.5306,60.9869" id="Stroke-5" stroke="#888888" stroke-linecap="round" stroke-linejoin="round"></path>
                    <path d="M94.8539,58.1015 C94.2199,58.7655 93.8299,59.6655 93.8299,60.6565 C93.8299,62.7005 95.4869,64.3575 97.5309,64.3575 C99.5749,64.3575 101.2319,62.7005 101.2319,60.6565 C101.2319,59.6655 100.8409,58.7645 100.2059,58.1005" id="Stroke-7" stroke="#888888" stroke-linecap="round" stroke-linejoin="round"></path>
                    <path d="M109.8528,63.1689 L109.8528,63.1689 C111.5788,63.1689 112.9898,61.7569 112.9898,60.0319 L112.9898,3.3869 C112.9898,1.6619 111.5788,0.2499 109.8528,0.2499 L109.8528,0.2499 C108.1268,0.2499 106.7158,1.6619 106.7158,3.3869 L106.7158,60.0319 C106.7158,61.7569 108.1268,63.1689 109.8528,63.1689" id="Fill-9" fill="#E5E5E6"></path>
                    <path d="M109.8528,63.1689 L109.8528,63.1689 C111.5788,63.1689 112.9898,61.7569 112.9898,60.0319 L112.9898,3.3869 C112.9898,1.6619 111.5788,0.2499 109.8528,0.2499 L109.8528,0.2499 C108.1268,0.2499 106.7158,1.6619 106.7158,3.3869 L106.7158,60.0319 C106.7158,61.7569 108.1268,63.1689 109.8528,63.1689 L109.8528,63.1689 Z" id="Stroke-11" stroke="#888888" stroke-width="2.5"></path>
                    <path d="M89.5129,53.7165 L89.5129,67.1525 C89.5129,68.0085 88.8119,68.7095 87.9559,68.7095 L82.3489,68.7095 C81.4919,68.7095 80.7909,68.0085 80.7909,67.1525 L80.7909,53.7165 C80.7909,52.8595 81.4919,52.1595 82.3489,52.1595 L87.9559,52.1595 C88.8119,52.1595 89.5129,52.8595 89.5129,53.7165 L89.5129,53.7165 Z" id="Stroke-13" stroke="#888888"></path>
                    <path d="M85.8371,54.3194 L85.8371,66.5494 C85.8371,66.8924 85.5571,67.1724 85.2141,67.1724 L82.8281,67.1724 C82.4851,67.1724 82.2051,66.8924 82.2051,66.5494 L82.2051,54.3194 C82.2051,53.9774 82.4851,53.6964 82.8281,53.6964 L85.2141,53.6964 C85.5571,53.6964 85.8371,53.9774 85.8371,54.3194" id="Fill-15" fill="#888888"></path>
                    <path d="M32.7268,54.6834 L32.7268,66.1854" id="Stroke-17" stroke="#888888" stroke-linecap="round"></path>
                    <polygon id="Fill-19" fill="#F8B52C" opacity="0.33" points="43.4598 64.0771 44.7638 64.0811 44.7578 64.8871 47.1978 64.8991 47.1998 64.0991 48.5018 64.1031 48.5098 62.3461 50.8608 62.3581 50.8948 56.0201 41.1478 55.9691 41.1198 62.3101 43.4678 62.3221"></polygon>
                    <path d="M54.5485,54.0764 C54.5485,53.4064 53.9995,52.8544 53.3285,52.8504 L38.7635,52.7804 C38.4335,52.7764 38.1235,52.9074 37.8905,53.1334 C37.6565,53.3654 37.5275,53.6744 37.5255,54.0034 L37.4665,66.7824 L37.4665,66.7904 C37.4665,67.4624 38.0135,68.0144 38.6885,68.0184 L53.2505,68.0884 C53.5795,68.0924 53.8885,67.9614 54.1225,67.7334 C54.3565,67.5034 54.4855,67.1944 54.4895,66.8654 L54.5485,54.0764 L54.5485,54.0764 Z M36.4425,66.7784 L36.5015,53.9994 C36.5035,53.3994 36.7435,52.8304 37.1715,52.4084 C37.6005,51.9864 38.1675,51.7524 38.7675,51.7564 L53.3305,51.8244 C54.5665,51.8344 55.5725,52.8424 55.5725,54.0904 L55.5135,66.8694 C55.5095,67.4704 55.2735,68.0384 54.8435,68.4604 C54.4155,68.8844 53.8475,69.1164 53.2445,69.1124 L38.6845,69.0434 C37.4465,69.0354 36.4425,68.0284 36.4425,66.7904 L36.4425,66.7784 Z" id="Fill-21" fill="#F8B52C"></path>
                    <polygon id="Fill-23" fill="#F8B52C" points="47.3862 60.9285 48.4102 60.9325 48.4322 55.8435 47.4082 55.8395"></polygon>
                    <polygon id="Fill-25" fill="#F8B52C" points="45.4936 60.9285 46.5176 60.9325 46.5436 55.8435 45.5196 55.8395"></polygon>
                    <polygon id="Fill-27" fill="#F8B52C" points="43.6051 60.9285 44.6291 60.9325 44.6531 55.8435 43.6291 55.8395"></polygon>
                    <path d="M43.461,64.0761 L44.765,64.0801 L44.759,64.8861 L47.199,64.8981 L47.201,64.0981 L48.503,64.1021 L48.511,62.3451 L50.862,62.3571 L50.896,56.0191 L41.149,55.9681 L41.121,62.3091 L43.469,62.3211 L43.461,64.0761 Z M40.129,54.9421 L51.924,54.9991 L51.882,63.3851 L49.531,63.3751 L49.523,65.1301 L48.221,65.1261 L48.221,65.9261 L43.732,65.9061 L43.734,65.1001 L42.433,65.0961 L42.441,63.3411 L40.091,63.3291 L40.129,54.9421 Z" id="Fill-29" fill="#F8B52C"></path>
                    <polygon id="Fill-31" fill="#F8B52C" opacity="0.33" points="61.6081 64.0771 62.9121 64.0811 62.9061 64.8871 65.3461 64.8991 65.3481 64.0991 66.6501 64.1031 66.6581 62.3461 69.0091 62.3581 69.0431 56.0201 59.2961 55.9691 59.2681 62.3101 61.6161 62.3221"></polygon>
                    <path d="M72.6968,54.0764 C72.6968,53.4064 72.1478,52.8544 71.4768,52.8504 L56.9118,52.7804 C56.5818,52.7764 56.2718,52.9074 56.0388,53.1334 C55.8048,53.3654 55.6758,53.6744 55.6738,54.0034 L55.6148,66.7824 L55.6148,66.7904 C55.6148,67.4624 56.1618,68.0144 56.8368,68.0184 L71.3988,68.0884 C71.7278,68.0924 72.0368,67.9614 72.2708,67.7334 C72.5048,67.5034 72.6338,67.1944 72.6378,66.8654 L72.6968,54.0764 L72.6968,54.0764 Z M54.5908,66.7784 L54.6498,53.9994 C54.6518,53.3994 54.8918,52.8304 55.3198,52.4084 C55.7488,51.9864 56.3158,51.7524 56.9158,51.7564 L71.4788,51.8244 C72.7148,51.8344 73.7208,52.8424 73.7208,54.0904 L73.6618,66.8694 C73.6578,67.4704 73.4218,68.0384 72.9918,68.4604 C72.5638,68.8844 71.9958,69.1164 71.3928,69.1124 L56.8328,69.0434 C55.5948,69.0354 54.5908,68.0284 54.5908,66.7904 L54.5908,66.7784 Z" id="Fill-33" fill="#F8B52C"></path>
                    <polygon id="Fill-35" fill="#F8B52C" points="65.5345 60.9285 66.5585 60.9325 66.5805 55.8435 65.5565 55.8395"></polygon>
                    <polygon id="Fill-37" fill="#F8B52C" points="63.6418 60.9285 64.6658 60.9325 64.6918 55.8435 63.6678 55.8395"></polygon>
                    <polygon id="Fill-39" fill="#F8B52C" points="61.7533 60.9285 62.7773 60.9325 62.8013 55.8435 61.7773 55.8395"></polygon>
                    <path d="M61.6093,64.0761 L62.9133,64.0801 L62.9073,64.8861 L65.3473,64.8981 L65.3493,64.0981 L66.6513,64.1021 L66.6593,62.3451 L69.0103,62.3571 L69.0443,56.0191 L59.2973,55.9681 L59.2693,62.3091 L61.6173,62.3211 L61.6093,64.0761 Z M58.2773,54.9421 L70.0723,54.9991 L70.0303,63.3851 L67.6793,63.3751 L67.6713,65.1301 L66.3693,65.1261 L66.3693,65.9261 L61.8803,65.9061 L61.8823,65.1001 L60.5813,65.0961 L60.5893,63.3411 L58.2393,63.3291 L58.2773,54.9421 Z" id="Fill-41" fill="#F8B52C"></path>
                    <polygon id="Fill-43" fill="#2383BD" opacity="0.33" points="16.6352 64.0771 17.9392 64.0811 17.9332 64.8871 20.3732 64.8991 20.3752 64.0991 21.6772 64.1031 21.6852 62.3461 24.0362 62.3581 24.0702 56.0201 14.3232 55.9691 14.2952 62.3101 16.6432 62.3221"></polygon>
                    <path d="M27.7239,54.0764 C27.7239,53.4064 27.1749,52.8544 26.5039,52.8504 L11.9389,52.7804 C11.6089,52.7764 11.2989,52.9074 11.0659,53.1334 C10.8319,53.3654 10.7029,53.6744 10.7009,54.0034 L10.6419,66.7824 L10.6419,66.7904 C10.6419,67.4624 11.1889,68.0144 11.8639,68.0184 L26.4259,68.0884 C26.7549,68.0924 27.0639,67.9614 27.2979,67.7334 C27.5319,67.5034 27.6609,67.1944 27.6649,66.8654 L27.7239,54.0764 L27.7239,54.0764 Z M9.6179,66.7784 L9.6769,53.9994 C9.6789,53.3994 9.9189,52.8304 10.3469,52.4084 C10.7759,51.9864 11.3429,51.7524 11.9429,51.7564 L26.5059,51.8244 C27.7419,51.8344 28.7479,52.8424 28.7479,54.0904 L28.6889,66.8694 C28.6849,67.4704 28.4489,68.0384 28.0189,68.4604 C27.5909,68.8844 27.0229,69.1164 26.4199,69.1124 L11.8599,69.0434 C10.6219,69.0354 9.6179,68.0284 9.6179,66.7904 L9.6179,66.7784 Z" id="Fill-45" fill="#2383BD"></path>
                    <polygon id="Fill-47" fill="#2383BD" points="20.5616 60.9285 21.5856 60.9325 21.6076 55.8435 20.5836 55.8395"></polygon>
                    <polygon id="Fill-49" fill="#2383BD" points="18.669 60.9285 19.693 60.9325 19.719 55.8435 18.695 55.8395"></polygon>
                    <polygon id="Fill-51" fill="#2383BD" points="16.7805 60.9285 17.8045 60.9325 17.8285 55.8435 16.8045 55.8395"></polygon>
                    <path d="M16.6364,64.0761 L17.9404,64.0801 L17.9344,64.8861 L20.3744,64.8981 L20.3764,64.0981 L21.6784,64.1021 L21.6864,62.3451 L24.0374,62.3571 L24.0714,56.0191 L14.3244,55.9681 L14.2964,62.3091 L16.6444,62.3211 L16.6364,64.0761 Z M13.3044,54.9421 L25.0994,54.9991 L25.0574,63.3851 L22.7064,63.3751 L22.6984,65.1301 L21.3964,65.1261 L21.3964,65.9261 L16.9074,65.9061 L16.9094,65.1001 L15.6084,65.0961 L15.6164,63.3411 L13.2664,63.3291 L13.3044,54.9421 Z" id="Fill-53" fill="#2383BD"></path>
                </g>
                <g id="router-front" transform="translate(180.000000, 19.000000)">
                    <path d="M20.157,63.1689 L20.157,63.1689 C18.431,63.1689 17.02,61.7569 17.02,60.0319 L17.02,3.3869 C17.02,1.6619 18.431,0.2499 20.157,0.2499 C21.883,0.2499 23.294,1.6619 23.294,3.3869 L23.294,60.0319 C23.294,61.7569 21.883,63.1689 20.157,63.1689" id="Fill-13" fill="#E5E5E6"></path>
                    <path d="M20.157,63.1689 L20.157,63.1689 C18.431,63.1689 17.02,61.7569 17.02,60.0319 L17.02,3.3869 C17.02,1.6619 18.431,0.2499 20.157,0.2499 C21.883,0.2499 23.294,1.6619 23.294,3.3869 L23.294,60.0319 C23.294,61.7569 21.883,63.1689 20.157,63.1689 L20.157,63.1689 Z" id="Stroke-15" stroke="#888888" stroke-width="2.5"></path>
                    <path d="M19.827,41 L107.982,41 C118.888,41 127.81,49.922 127.81,60.827 L127.81,60.827 C127.81,71.733 118.888,80.655 107.982,80.655 L19.827,80.655 C8.922,80.655 0,71.733 0,60.827 L0,60.827 C0,49.922 8.922,41 19.827,41" id="Fill-17" fill="#E5E5E6"></path>
                    <path d="M19.827,41 L107.982,41 C118.888,41 127.81,49.922 127.81,60.827 L127.81,60.827 C127.81,71.733 118.888,80.655 107.982,80.655 L19.827,80.655 C8.922,80.655 0,71.733 0,60.827 L0,60.827 C0,49.922 8.922,41 19.827,41 L19.827,41 Z" id="Stroke-19" stroke="#888888" stroke-width="2.5"></path>
                    <path d="M45.3952,58.3001 L45.3952,55.6901 L45.4332,55.6901 L48.0322,55.6901 L48.0322,58.3001 L45.3952,58.3001 Z M59.7612,58.3011 L59.7612,55.6771 L50.7302,55.6771 C49.2772,55.6771 48.0862,56.8531 48.0602,58.3001 L59.7612,58.3011 Z M21.8482,58.6351 L17.6782,65.1331 L14.4162,65.1331 L18.8152,58.4601 L21.8482,58.6351 Z M36.7382,58.3011 L36.7382,55.6771 L28.2812,55.6771 C27.0332,55.6771 25.9782,56.5451 25.6892,57.7071 L25.6892,55.6901 L20.6412,55.6901 L18.9202,58.3001 L25.6112,58.3001 L36.7382,58.3011 Z M25.6892,65.1331 L34.5732,65.1331 C35.8692,65.1331 36.9562,64.1991 37.1962,62.9711 C37.4072,64.1951 38.4772,65.1331 39.7562,65.1331 L45.4332,65.1331 C46.7012,65.1331 47.7652,64.2101 47.9882,63.0011 L47.9882,65.1331 L57.0902,65.1331 C58.5592,65.1331 59.7612,63.9311 59.7612,62.4621 L59.7612,62.0831 C59.7612,60.6141 58.5592,59.4121 57.0902,59.4121 L56.5902,59.3901 C53.7582,59.2661 50.9352,59.1231 48.1072,58.9771 C48.3272,60.0871 49.2642,61.0111 50.7302,61.2091 L56.8962,61.5871 C57.1492,61.5871 57.3572,61.7941 57.3572,62.0481 L57.3572,62.0481 C57.3572,62.3021 57.1492,62.5091 56.8962,62.5091 L48.0322,62.5091 L48.0322,58.9731 L45.3952,58.8371 L45.3952,61.8611 C45.3952,62.2851 45.0492,62.6311 44.6252,62.6311 L40.5632,62.6311 C40.1402,62.6311 39.7942,62.2851 39.7942,61.8611 L39.7942,58.5481 L37.1572,58.4121 L37.1572,61.4101 C36.8562,60.2761 35.8092,59.4581 34.5732,59.4581 L22.9612,58.6991 L22.9612,65.1331 L25.4722,65.1331 L25.6892,65.1331 Z M28.2812,61.2091 L34.3792,61.5871 C34.6332,61.5871 34.8402,61.7941 34.8402,62.0481 L34.8402,62.0481 C34.8402,62.3021 34.6332,62.5091 34.3792,62.5091 L25.6892,62.5091 L25.6892,59.1121 C25.9562,60.1611 26.8752,61.0191 28.2812,61.2091 L28.2812,61.2091 Z M39.7562,55.6901 L39.7942,55.6901 L39.7942,58.3001 L37.1572,58.3001 L37.1572,55.6901 L39.7562,55.6901 Z" id="Fill-29" fill="#888888"></path>
                    <polygon id="Fill-31" fill="#888888" points="69.312 63.2408 81.924 63.2408 81.924 58.2428 69.312 58.2428"></polygon>
                    <polygon id="Fill-33" fill="#888888" points="85.996 63.2408 98.608 63.2408 98.608 58.2428 85.996 58.2428"></polygon>
                    <polygon id="Fill-34" fill="#888888" points="102.679 63.2408 115.291 63.2408 115.291 58.2428 102.679 58.2428"></polygon>
                </g>
                <g id="modem" transform="translate(13.000000, 31.000000)">
                    <path d="M17.3341,23.163 L17.3341,0.577" id="Stroke-44" stroke="#888888" stroke-width="2.5" stroke-linecap="round"></path>
                    <path d="M110.058,35.769 L110.058,55.967 C110.058,62.989 104.312,68.735 97.289,68.735 L12.769,68.735 C5.746,68.735 0,62.989 0,55.967 L0,35.769 C0,28.746 5.746,23 12.769,23 L97.289,23 C104.312,23 110.058,28.746 110.058,35.769 L110.058,35.769 Z" id="Fill-1" fill="#E5E5E6"></path>
                    <path d="M110.058,35.769 L110.058,55.967 C110.058,62.989 104.312,68.735 97.289,68.735 L12.769,68.735 C5.746,68.735 0,62.989 0,55.967 L0,35.769 C0,28.746 5.746,23 12.769,23 L97.289,23 C104.312,23 110.058,28.746 110.058,35.769 L110.058,35.769 Z" id="Stroke-3" stroke="#888888" stroke-width="2.5"></path>
                    <path d="M64.9775,46.0304 C64.9775,44.4104 63.6645,43.0974 62.0445,43.0974 C60.4255,43.0974 59.1125,44.4104 59.1125,46.0304 C59.1125,47.6504 60.4255,48.9634 62.0445,48.9634 C63.6645,48.9634 64.9775,47.6504 64.9775,46.0304" id="Fill-21" fill="#888888"></path>
                    <path d="M80.6123,46.0304 C80.6123,44.4104 79.2993,43.0974 77.6793,43.0974 C76.0603,43.0974 74.7473,44.4104 74.7473,46.0304 C74.7473,47.6504 76.0603,48.9634 77.6793,48.9634 C79.2993,48.9634 80.6123,47.6504 80.6123,46.0304" id="Fill-23" fill="#888888"></path>
                    <path d="M96.247,46.0304 C96.247,44.4104 94.934,43.0974 93.314,43.0974 C91.695,43.0974 90.382,44.4104 90.382,46.0304 C90.382,47.6504 91.695,48.9634 93.314,48.9634 C94.934,48.9634 96.247,47.6504 96.247,46.0304" id="Fill-25" fill="#888888"></path>
                    <path d="M12.1868,46.0304 L40.6868,46.0304" id="Stroke-27" stroke="#888888" stroke-width="2.5" stroke-linecap="round"></path>
                </g>
            </g>
            <g id="cut-1"></g>
            <g id="cut-1-copy" transform="translate(0.000000, 136.000000)"></g>
            <g id="cut-1-copy-2" transform="translate(0.000000, 272.000000)"></g>
            <g id="cut-1-copy-3" transform="translate(0.000000, 408.000000)"></g>
        </g>
    </g>
</svg>