<?xml version="1.0" encoding="UTF-8"?>
<svg width="306px" height="246px" viewBox="0 0 306 246" version="1.1" xmlns="http://www.w3.org/2000/svg" xmlns:xlink="http://www.w3.org/1999/xlink">
    <!-- Generator: Sketch 54.1 (76490) - https://sketchapp.com -->
    <title>ic-collect-cards-usage-margin30px</title>
    <desc>Created with Sketch.</desc>
    <g id="Page-1" stroke="none" stroke-width="1" fill="none" fill-rule="evenodd">
        <g id="Artboard" transform="translate(-154.000000, -1103.000000)">
            <g id="ic-collect-cards-usage" transform="translate(154.000000, 1077.000000)">
                <path d="M195,28 C208.807511,28 220,39.1924892 220,53 C220,66.8075108 208.807511,78 195,78 C181.192489,78 170,66.8075108 170,53 C170,39.1924892 181.192489,28 195,28 Z M213.407147,68.3165552 C213.810214,67.832383 214.19362,67.328549 214.558592,66.814884 C217.328451,62.9070979 218.960381,58.1403362 218.960381,53 C218.960381,47.8535195 217.328451,43.0916732 214.558592,39.1838871 C214.19362,38.6665356 213.81513,38.1663881 213.407147,37.6822159 C209.009044,32.4017892 202.390385,29.0371608 195.002458,29.0371608 L194.964363,29.0371608 L194.944701,29.0371608 C194.916437,29.0371608 194.886945,29.0420763 194.863596,29.0420763 C187.523594,29.0801711 180.966378,32.439884 176.594082,37.6822159 C176.189786,38.1663881 175.80638,38.6665356 175.441408,39.1838871 C172.671549,43.0916732 171.039619,47.8535195 171.039619,53 C171.039619,58.1403362 172.671549,62.9070979 175.441408,66.814884 C175.80638,67.328549 176.189786,67.832383 176.594082,68.3165552 C180.966378,73.5588871 187.523594,76.9149135 194.863596,76.9579237 C194.886945,76.9579237 194.916437,76.9628392 194.944701,76.9628392 C194.949617,76.9628392 194.959448,76.9579237 194.964363,76.9579237 C194.974194,76.9579237 194.987711,76.9628392 195.002458,76.9628392 C202.390385,76.9628392 209.009044,73.5969819 213.407147,68.3165552 Z M183.975742,62.4266123 C183.356395,60.0745674 182.958243,57.4878097 182.839043,54.7609615 L194.018015,54.7609615 L194.018015,60.8573535 C190.408843,60.943374 187.004891,61.501278 183.975742,62.4266123 Z M194.018015,74.9216968 C189.981198,74.3699371 186.501057,70.2323535 184.528731,64.274823 C187.374779,63.4207629 190.59563,62.9021825 194.018015,62.8210775 L194.018015,74.9216968 Z M182.79972,52.7984664 C182.814466,49.4952812 183.247026,46.3751966 183.985573,43.5721589 C187.009806,44.498722 190.413758,45.0553972 194.018015,45.1414176 L194.018015,52.7984664 L182.79972,52.7984664 Z M209.053161,52.7984664 C209.038414,49.2937475 208.56776,45.9770448 207.751794,42.9810755 C209.700772,42.2609615 211.458047,41.3786374 212.974464,40.364825 C215.460455,43.8928923 216.948609,48.1705663 216.987933,52.7984664 L209.053161,52.7984664 Z M178.186566,67.1319308 C179.497763,66.2766418 181.014181,65.518433 182.698953,64.8843394 C183.962225,68.6151691 185.790774,71.7205073 187.994126,73.8427546 C184.134266,72.5413881 180.754891,70.1893433 178.186566,67.1319308 Z M187.994126,32.1523299 C185.795689,34.2782639 183.962225,37.3848309 182.703868,41.1095163 C181.009266,40.4803382 179.492848,39.7172139 178.177964,38.8582383 C180.749975,35.8045124 184.134266,33.4524676 187.994126,32.1523299 Z M182.142278,42.9429807 C181.321397,45.9475521 180.850742,49.2790012 180.832309,52.7984664 L173.008135,52.7984664 C173.051145,48.1705663 174.539299,43.8892057 177.02529,40.364825 C178.518359,41.3589756 180.241226,42.2277821 182.142278,42.9429807 Z M180.870404,54.7609615 C180.995748,57.7040897 181.446741,60.4972965 182.142278,63.050875 C180.23631,63.770989 178.513444,64.6397955 177.02529,65.6339461 C174.821938,62.5089461 173.401371,58.7891762 173.084325,54.7609615 L180.870404,54.7609615 Z M184.532417,41.7239481 C186.505972,35.7664176 189.986114,31.6288341 194.018015,31.0721589 L194.018015,43.1776937 C190.59563,43.0916732 187.374779,42.5780083 184.532417,41.7239481 Z M207.751794,63.0127802 C208.443644,60.4690326 208.889722,57.6893433 209.013837,54.7609615 L216.91543,54.7609615 C216.598383,58.7891762 215.182732,62.5089461 212.974464,65.6339461 C211.458047,64.6213626 209.700772,63.7378097 207.751794,63.0127802 Z M195.981616,62.8210775 C199.365906,62.9021825 202.548663,63.4060165 205.371363,64.2465592 C203.412554,70.1598506 199.975423,74.2937475 195.981616,74.9081793 L195.981616,62.8210775 Z M211.818104,38.8631538 C210.478642,39.7368757 208.922901,40.5098309 207.195119,41.1476111 C205.923245,37.3700845 204.065203,34.2254227 201.828672,32.0945733 C205.764722,33.3811935 209.206769,35.7615022 211.818104,38.8631538 Z M201.828672,73.9041978 C204.065203,71.7733484 205.928161,68.633602 207.200034,64.85116 C208.922901,65.4901691 210.478642,66.2582088 211.813188,67.1368462 C209.201853,70.2323535 205.764722,72.6138911 201.828672,73.9041978 Z M195.981616,31.0869052 C199.975423,31.7050236 203.412554,35.8389206 205.361532,41.752212 C202.548663,42.5878392 199.360991,43.0965887 195.981616,43.1776937 L195.981616,31.0869052 Z M205.908499,43.6053382 C206.643359,46.3997739 207.069775,49.5100275 207.089437,52.7984664 L195.981739,52.7984664 L195.981739,45.1414176 C199.547901,45.0603126 202.908843,44.5122395 205.908499,43.6053382 Z M207.046549,54.7609615 C206.926121,57.4730633 206.532884,60.0463036 205.918453,62.393433 C202.913881,61.4865317 199.548024,60.9396874 195.986777,60.8524381 L195.986777,54.7609615 L207.046549,54.7609615 Z" id="Combined-Shape" fill="#00FCFF"></path>
                <path d="M264,32 L264,67 C264,71.418278 267.581722,75 272,75 L294,75" id="Path-2-Copy" stroke="#647C8D" stroke-width="3" stroke-linecap="round" transform="translate(279.000000, 53.500000) rotate(-90.000000) translate(-279.000000, -53.500000) "></path>
                <path d="M60,272 C65.5228475,272 70,267.522848 70,262 C70,256.477153 65.5228475,252 60,252 C54.4771525,252 50,256.477153 50,262 C50,267.522848 54.4771525,272 60,272 L60,272 L60,272 L60,272 L60,272 Z M58.7504688,265.75 C59.2516638,265.75 59.7228625,265.552965 60.0753238,265.196307 L64.634415,260.405224 C65.1218613,259.91139 65.1218613,259.113274 64.634415,258.61944 C64.1457188,258.126853 63.354555,258.126853 62.8671088,258.61944 L58.7504688,262.965325 L57.1338288,261.11944 C56.6463825,260.626853 55.8552188,260.626853 55.3665225,261.11944 C54.8778263,261.613274 54.8778263,262.41139 55.3665225,262.905224 L57.4243638,265.196307 C57.779325,265.552965 58.2480238,265.75 58.7504688,265.75 L58.7504688,265.75 L58.7504688,265.75 L58.7504688,265.75 L58.7504688,265.75 Z" id="Ok-Circle-Filled-Icon-Copy-2" fill="#00FF47"></path>
                <path d="M46.6719632,63.2392604 C46.6719632,63.6866965 46.3031313,64.0527806 45.8523369,64.0527806 L27,64.0527806 L13.755118,64.0527806 C13.0202485,65.1538062 11.7637986,65.881352 10.3336438,65.881352 C8.0657005,65.881352 6.22759533,64.0564784 6.22759533,61.8058934 C6.22759533,59.5553084 8.0657005,57.730897 10.3336438,57.730897 C11.7637986,57.730897 13.0202485,58.4584429 13.755118,59.5590062 L27,59.5590062 L45.8523369,59.5590062 C46.3031313,59.5590062 46.6719632,59.9250903 46.6719632,60.3725264 L46.6719632,63.2392604 Z M52,59.5761086 L47.7649535,59.5761086 L47.7649535,60.5250614 L52,60.5250614 L52,61.1865087 L47.7649535,61.1865087 L47.7649535,62.1354615 L52,62.1354615 L52,62.7964466 L47.7649535,62.7964466 L47.7649535,63.7453994 L52,63.7453994 L52,66.5589773 C52,67.9017478 50.8930388,69 49.5406553,69 L27,69 L4.45934467,69 C3.10696124,69 2,67.9017478 2,66.5589773 L2,57.3389282 C2,55.99662 3.10696124,54.8983678 4.45934467,54.8983678 L27,54.8983678 L38.3560159,54.8983678 L38.3560159,40.5804131 C37.8404895,40.2254225 37.501928,39.6356204 37.501928,38.965853 C37.501928,37.8800809 38.3890803,37 39.4830021,37 C40.5769238,37 41.4636105,37.8800809 41.4636105,38.965853 C41.4636105,39.6356204 41.1250489,40.2254225 40.6099883,40.5804131 L40.6099883,54.8983678 L49.5406553,54.8983678 C50.8930388,54.8983678 52,55.99662 52,57.3389282 L52,59.5761086 Z M10.0318967,58.9736302 C8.43472176,58.9736302 7.14049771,60.2590485 7.14049771,61.8443683 C7.14049771,63.4301305 8.43472176,64.7155489 10.0318967,64.7155489 C11.6290716,64.7155489 12.9232957,63.4301305 12.9232957,61.8443683 C12.9232957,60.2590485 11.6290716,58.9736302 10.0318967,58.9736302 Z M30.2716896,62.163585 L34.1268883,62.163585 L34.1268883,60.8876031 L30.2716896,60.8876031 L30.2716896,62.163585 Z M35.4119545,62.163585 L39.2671531,62.163585 L39.2671531,60.8876031 L35.4119545,60.8876031 L35.4119545,62.163585 Z M41.1947525,62.163585 L45.0499511,62.163585 L45.0499511,60.8876031 L41.1947525,60.8876031 L41.1947525,62.163585 Z" id="Combined-Shape" fill="#A4B7C3"></path>
                <path d="M111,28 C124.807511,28 136,39.1924892 136,53 C136,66.8075108 124.807511,78 111,78 C97.1924892,78 86,66.8075108 86,53 C86,39.1924892 97.1924892,28 111,28 Z M129.407147,68.3165552 C129.810214,67.832383 130.19362,67.328549 130.558592,66.814884 C133.328451,62.9070979 134.960381,58.1403362 134.960381,53 C134.960381,47.8535195 133.328451,43.0916732 130.558592,39.1838871 C130.19362,38.6665356 129.81513,38.1663881 129.407147,37.6822159 C125.009044,32.4017892 118.390385,29.0371608 111.002458,29.0371608 L110.964363,29.0371608 L110.944701,29.0371608 C110.916437,29.0371608 110.886945,29.0420763 110.863596,29.0420763 C103.523594,29.0801711 96.9663783,32.439884 92.5940818,37.6822159 C92.1897857,38.1663881 91.8063803,38.6665356 91.4414078,39.1838871 C88.6715494,43.0916732 87.0396186,47.8535195 87.0396186,53 C87.0396186,58.1403362 88.6715494,62.9070979 91.4414078,66.814884 C91.8063803,67.328549 92.1897857,67.832383 92.5940818,68.3165552 C96.9663783,73.5588871 103.523594,76.9149135 110.863596,76.9579237 C110.886945,76.9579237 110.916437,76.9628392 110.944701,76.9628392 C110.949617,76.9628392 110.959448,76.9579237 110.964363,76.9579237 C110.974194,76.9579237 110.987711,76.9628392 111.002458,76.9628392 C118.390385,76.9628392 125.009044,73.5969819 129.407147,68.3165552 Z M99.9757422,62.4266123 C99.356395,60.0745674 98.9582432,57.4878097 98.8390435,54.7609615 L110.018015,54.7609615 L110.018015,60.8573535 C106.408843,60.943374 103.004891,61.501278 99.9757422,62.4266123 Z M110.018015,74.9216968 C105.981198,74.3699371 102.501057,70.2323535 100.528731,64.274823 C103.374779,63.4207629 106.59563,62.9021825 110.018015,62.8210775 L110.018015,74.9216968 Z M98.7997198,52.7984664 C98.8144662,49.4952812 99.2470262,46.3751966 99.9855731,43.5721589 C103.009806,44.498722 106.413758,45.0553972 110.018015,45.1414176 L110.018015,52.7984664 L98.7997198,52.7984664 Z M125.053161,52.7984664 C125.038414,49.2937475 124.56776,45.9770448 123.751794,42.9810755 C125.700772,42.2609615 127.458047,41.3786374 128.974464,40.364825 C131.460455,43.8928923 132.948609,48.1705663 132.987933,52.7984664 L125.053161,52.7984664 Z M94.1865661,67.1319308 C95.4977635,66.2766418 97.0141811,65.518433 98.698953,64.8843394 C99.9622247,68.6151691 101.790774,71.7205073 103.994126,73.8427546 C100.134266,72.5413881 96.7548909,70.1893433 94.1865661,67.1319308 Z M103.994126,32.1523299 C101.795689,34.2782639 99.9622247,37.3848309 98.7038685,41.1095163 C97.0092656,40.4803382 95.492848,39.7172139 94.177964,38.8582383 C96.7499754,35.8045124 100.134266,33.4524676 103.994126,32.1523299 Z M98.1422778,42.9429807 C97.321397,45.9475521 96.8507422,49.2790012 96.8323093,52.7984664 L89.0081351,52.7984664 C89.0511453,48.1705663 90.5392991,43.8892057 93.02529,40.364825 C94.5183592,41.3589756 96.2412259,42.2277821 98.1422778,42.9429807 Z M96.8704041,54.7609615 C96.9957481,57.7040897 97.4467411,60.4972965 98.1422778,63.050875 C96.2363105,63.770989 94.5134438,64.6397955 93.02529,65.6339461 C90.8219377,62.5089461 89.4013714,58.7891762 89.0843246,54.7609615 L96.8704041,54.7609615 Z M100.532417,41.7239481 C102.505972,35.7664176 105.986114,31.6288341 110.018015,31.0721589 L110.018015,43.1776937 C106.59563,43.0916732 103.374779,42.5780083 100.532417,41.7239481 Z M123.751794,63.0127802 C124.443644,60.4690326 124.889722,57.6893433 125.013837,54.7609615 L132.91543,54.7609615 C132.598383,58.7891762 131.182732,62.5089461 128.974464,65.6339461 C127.458047,64.6213626 125.700772,63.7378097 123.751794,63.0127802 Z M111.981616,62.8210775 C115.365906,62.9021825 118.548663,63.4060165 121.371363,64.2465592 C119.412554,70.1598506 115.975423,74.2937475 111.981616,74.9081793 L111.981616,62.8210775 Z M127.818104,38.8631538 C126.478642,39.7368757 124.922901,40.5098309 123.195119,41.1476111 C121.923245,37.3700845 120.065203,34.2254227 117.828672,32.0945733 C121.764722,33.3811935 125.206769,35.7615022 127.818104,38.8631538 Z M117.828672,73.9041978 C120.065203,71.7733484 121.928161,68.633602 123.200034,64.85116 C124.922901,65.4901691 126.478642,66.2582088 127.813188,67.1368462 C125.201853,70.2323535 121.764722,72.6138911 117.828672,73.9041978 Z M111.981616,31.0869052 C115.975423,31.7050236 119.412554,35.8389206 121.361532,41.752212 C118.548663,42.5878392 115.360991,43.0965887 111.981616,43.1776937 L111.981616,31.0869052 Z M121.908499,43.6053382 C122.643359,46.3997739 123.069775,49.5100275 123.089437,52.7984664 L111.981739,52.7984664 L111.981739,45.1414176 C115.547901,45.0603126 118.908843,44.5122395 121.908499,43.6053382 Z M123.046549,54.7609615 C122.926121,57.4730633 122.532884,60.0463036 121.918453,62.393433 C118.913881,61.4865317 115.548024,60.9396874 111.986777,60.8524381 L111.986777,54.7609615 L123.046549,54.7609615 Z" id="Combined-Shape" fill="#A4B7C3"></path>
                <path d="M10,272 C4.4771525,272 0,267.522847 0,262 C0,256.477153 4.4771525,252 10,252 C15.5228475,252 20,256.477153 20,262 C20,267.522847 15.5228475,272 10,272 L10,272 L10,272 L10,272 Z M13.535625,266.785358 C13.2038634,266.785358 12.8857103,266.653471 12.65125,266.41875 L10,263.7675 L7.34875,266.41875 C6.86066835,266.907177 6.06905183,266.907457 5.580625,266.419375 C5.09219817,265.931293 5.09191835,265.139677 5.58,264.65125 L8.2325,262 L5.58,259.34875 C5.26426653,259.032793 5.1410777,258.572395 5.25683755,258.140984 C5.37259739,257.709572 5.70971924,257.372689 6.14121255,257.257234 C6.57270586,257.141779 7.03301653,257.265293 7.34875,257.58125 L10,260.2325 L12.65125,257.58125 C12.9669835,257.265293 13.4272942,257.141779 13.8587875,257.257234 C14.2902808,257.372689 14.6274027,257.709572 14.7431625,258.140984 C14.8589224,258.572395 14.7357335,259.032793 14.42,259.34875 L11.7675,262 L14.42,264.65125 C14.6547213,264.88571 14.7866083,265.203863 14.7866083,265.535625 C14.7866083,265.867387 14.6547213,266.18554 14.42,266.42 C14.1855397,266.653471 13.8673866,266.785358 13.535625,266.785358 L13.535625,266.785358 L13.535625,266.785358 Z" id="Close-Circle-Filled-Icon-Copy-2" fill="#EF0044"></path>
                <path d="M57,110 C61.9707039,110 66,114.029296 66,119 C66,123.970704 61.9707039,128 57,128 C52.0292961,128 48,123.970704 48,119 C48,114.029296 52.0292961,110 57,110 Z M63.6265729,124.51396 C63.7716772,124.339658 63.9097031,124.158278 64.0410932,123.973358 C65.0382422,122.566555 65.6257373,120.850521 65.6257373,119 C65.6257373,117.147267 65.0382422,115.433002 64.0410932,114.026199 C63.9097031,113.839953 63.7734467,113.6599 63.6265729,113.485598 C62.043256,111.584644 59.6605387,110.373378 57.0008848,110.373378 L56.9871707,110.373378 L56.9800924,110.373378 C56.9699174,110.373378 56.9593,110.375147 56.9508946,110.375147 C54.3084939,110.388862 51.9478962,111.598358 50.3738694,113.485598 C50.2283228,113.6599 50.0902969,113.839953 49.9589068,114.026199 C48.9617578,115.433002 48.3742627,117.147267 48.3742627,119 C48.3742627,120.850521 48.9617578,122.566555 49.9589068,123.973358 C50.0902969,124.158278 50.2283228,124.339658 50.3738694,124.51396 C51.9478962,126.401199 54.3084939,127.609369 56.9508946,127.624853 C56.9593,127.624853 56.9699174,127.626622 56.9800924,127.626622 C56.981862,127.626622 56.9854011,127.624853 56.9871707,127.624853 C56.9907098,127.624853 56.9955761,127.626622 57.0008848,127.626622 C59.6605387,127.626622 62.043256,126.414913 63.6265729,124.51396 Z M53.0312672,122.39358 C52.8083022,121.546844 52.6649676,120.615611 52.6220556,119.633946 L56.6464855,119.633946 L56.6464855,121.828647 C55.3471834,121.859615 54.1217607,122.06046 53.0312672,122.39358 Z M56.6464855,126.891811 C55.1932314,126.693177 53.9403805,125.203647 53.2303431,123.058936 C54.2549204,122.751475 55.4144269,122.564786 56.6464855,122.535588 L56.6464855,126.891811 Z M52.6078991,118.927448 C52.6132078,117.738301 52.7689294,116.615071 53.0348063,115.605977 C54.1235303,115.93954 55.348953,116.139943 56.6464855,116.17091 L56.6464855,118.927448 L52.6078991,118.927448 Z M62.0591378,118.927448 C62.0538291,117.665749 61.8843934,116.471736 61.5906459,115.393187 C62.2922778,115.133946 62.9248968,114.816309 63.4708071,114.451337 C64.3657639,115.721441 64.9014992,117.261404 64.9156557,118.927448 L62.0591378,118.927448 Z M50.9471638,124.087495 C51.4191948,123.779591 51.9651052,123.506636 52.5716231,123.278362 C53.0264009,124.621461 53.6846785,125.739383 54.4778854,126.503392 C53.0883356,126.0349 51.8717607,125.188164 50.9471638,124.087495 Z M54.4778854,111.494839 C53.6864481,112.260175 53.0264009,113.378539 52.5733926,114.719426 C51.9633356,114.492922 51.4174253,114.218197 50.944067,113.908966 C51.8699912,112.809624 53.0883356,111.962888 54.4778854,111.494839 Z M52.37122,115.379473 C52.0757029,116.461119 51.9062672,117.66044 51.8996313,118.927448 L49.0829286,118.927448 C49.0984123,117.261404 49.6341477,115.720114 50.5291044,114.451337 C51.0666093,114.809231 51.6868413,115.122002 52.37122,115.379473 Z M51.9133455,119.633946 C51.9584693,120.693472 52.1208268,121.699027 52.37122,122.618315 C51.6850718,122.877556 51.0648398,123.190326 50.5291044,123.548221 C49.7358976,122.423221 49.2244937,121.084103 49.1103569,119.633946 L51.9133455,119.633946 Z M53.2316703,114.940621 C53.94215,112.79591 55.195001,111.30638 56.6464855,111.105977 L56.6464855,115.46397 C55.4144269,115.433002 54.2549204,115.248083 53.2316703,114.940621 Z M61.5906459,122.604601 C61.839712,121.688852 62.0002998,120.688164 62.0449813,119.633946 L64.8895547,119.633946 C64.7754178,121.084103 64.2657835,122.423221 63.4708071,123.548221 C62.9248968,123.183691 62.2922778,122.865611 61.5906459,122.604601 Z M57.3533818,122.535588 C58.5717263,122.564786 59.7175187,122.746166 60.7336905,123.048761 C60.0285195,125.177546 58.7911522,126.665749 57.3533818,126.886945 L57.3533818,122.535588 Z M63.0545173,113.910735 C62.5723112,114.225275 62.0122444,114.503539 61.3902428,114.73314 C60.9323683,113.37323 60.2634733,112.241152 59.4583219,111.474046 C60.8752998,111.93723 62.1144367,112.794141 63.0545173,113.910735 Z M59.4583219,126.525511 C60.2634733,125.758405 60.9341378,124.628097 61.3920124,123.266418 C62.0122444,123.496461 62.5723112,123.772955 63.0527477,124.089265 C62.1126671,125.203647 60.8752998,126.061001 59.4583219,126.525511 Z M57.3533818,111.111286 C58.7911522,111.333808 60.0285195,112.822011 60.7301514,114.950796 C59.7175187,115.251622 58.5699567,115.434772 57.3533818,115.46397 L57.3533818,111.111286 Z M60.9270596,115.617922 C61.1916093,116.623919 61.345119,117.74361 61.3521972,118.927448 L57.3534261,118.927448 L57.3534261,116.17091 C58.6372444,116.141713 59.8471834,115.944406 60.9270596,115.617922 Z M61.3367578,119.633946 C61.2934035,120.610303 61.1518384,121.536669 60.9306429,122.381636 C59.8489972,122.055151 58.6372886,121.858287 57.3552399,121.826878 L57.3552399,119.633946 L61.3367578,119.633946 Z" id="Combined-Shape-Copy-11" fill="#A4B7C3"></path>
                <path d="M57,158 C61.9707039,158 66,162.029296 66,167 C66,171.970704 61.9707039,176 57,176 C52.0292961,176 48,171.970704 48,167 C48,162.029296 52.0292961,158 57,158 Z M63.6265729,172.51396 C63.7716772,172.339658 63.9097031,172.158278 64.0410932,171.973358 C65.0382422,170.566555 65.6257373,168.850521 65.6257373,167 C65.6257373,165.147267 65.0382422,163.433002 64.0410932,162.026199 C63.9097031,161.839953 63.7734467,161.6599 63.6265729,161.485598 C62.043256,159.584644 59.6605387,158.373378 57.0008848,158.373378 L56.9871707,158.373378 L56.9800924,158.373378 C56.9699174,158.373378 56.9593,158.375147 56.9508946,158.375147 C54.3084939,158.388862 51.9478962,159.598358 50.3738694,161.485598 C50.2283228,161.6599 50.0902969,161.839953 49.9589068,162.026199 C48.9617578,163.433002 48.3742627,165.147267 48.3742627,167 C48.3742627,168.850521 48.9617578,170.566555 49.9589068,171.973358 C50.0902969,172.158278 50.2283228,172.339658 50.3738694,172.51396 C51.9478962,174.401199 54.3084939,175.609369 56.9508946,175.624853 C56.9593,175.624853 56.9699174,175.626622 56.9800924,175.626622 C56.981862,175.626622 56.9854011,175.624853 56.9871707,175.624853 C56.9907098,175.624853 56.9955761,175.626622 57.0008848,175.626622 C59.6605387,175.626622 62.043256,174.414913 63.6265729,172.51396 Z M53.0312672,170.39358 C52.8083022,169.546844 52.6649676,168.615611 52.6220556,167.633946 L56.6464855,167.633946 L56.6464855,169.828647 C55.3471834,169.859615 54.1217607,170.06046 53.0312672,170.39358 Z M56.6464855,174.891811 C55.1932314,174.693177 53.9403805,173.203647 53.2303431,171.058936 C54.2549204,170.751475 55.4144269,170.564786 56.6464855,170.535588 L56.6464855,174.891811 Z M52.6078991,166.927448 C52.6132078,165.738301 52.7689294,164.615071 53.0348063,163.605977 C54.1235303,163.93954 55.348953,164.139943 56.6464855,164.17091 L56.6464855,166.927448 L52.6078991,166.927448 Z M62.0591378,166.927448 C62.0538291,165.665749 61.8843934,164.471736 61.5906459,163.393187 C62.2922778,163.133946 62.9248968,162.816309 63.4708071,162.451337 C64.3657639,163.721441 64.9014992,165.261404 64.9156557,166.927448 L62.0591378,166.927448 Z M50.9471638,172.087495 C51.4191948,171.779591 51.9651052,171.506636 52.5716231,171.278362 C53.0264009,172.621461 53.6846785,173.739383 54.4778854,174.503392 C53.0883356,174.0349 51.8717607,173.188164 50.9471638,172.087495 Z M54.4778854,159.494839 C53.6864481,160.260175 53.0264009,161.378539 52.5733926,162.719426 C51.9633356,162.492922 51.4174253,162.218197 50.944067,161.908966 C51.8699912,160.809624 53.0883356,159.962888 54.4778854,159.494839 Z M52.37122,163.379473 C52.0757029,164.461119 51.9062672,165.66044 51.8996313,166.927448 L49.0829286,166.927448 C49.0984123,165.261404 49.6341477,163.720114 50.5291044,162.451337 C51.0666093,162.809231 51.6868413,163.122002 52.37122,163.379473 Z M51.9133455,167.633946 C51.9584693,168.693472 52.1208268,169.699027 52.37122,170.618315 C51.6850718,170.877556 51.0648398,171.190326 50.5291044,171.548221 C49.7358976,170.423221 49.2244937,169.084103 49.1103569,167.633946 L51.9133455,167.633946 Z M53.2316703,162.940621 C53.94215,160.79591 55.195001,159.30638 56.6464855,159.105977 L56.6464855,163.46397 C55.4144269,163.433002 54.2549204,163.248083 53.2316703,162.940621 Z M61.5906459,170.604601 C61.839712,169.688852 62.0002998,168.688164 62.0449813,167.633946 L64.8895547,167.633946 C64.7754178,169.084103 64.2657835,170.423221 63.4708071,171.548221 C62.9248968,171.183691 62.2922778,170.865611 61.5906459,170.604601 Z M57.3533818,170.535588 C58.5717263,170.564786 59.7175187,170.746166 60.7336905,171.048761 C60.0285195,173.177546 58.7911522,174.665749 57.3533818,174.886945 L57.3533818,170.535588 Z M63.0545173,161.910735 C62.5723112,162.225275 62.0122444,162.503539 61.3902428,162.73314 C60.9323683,161.37323 60.2634733,160.241152 59.4583219,159.474046 C60.8752998,159.93723 62.1144367,160.794141 63.0545173,161.910735 Z M59.4583219,174.525511 C60.2634733,173.758405 60.9341378,172.628097 61.3920124,171.266418 C62.0122444,171.496461 62.5723112,171.772955 63.0527477,172.089265 C62.1126671,173.203647 60.8752998,174.061001 59.4583219,174.525511 Z M57.3533818,159.111286 C58.7911522,159.333808 60.0285195,160.822011 60.7301514,162.950796 C59.7175187,163.251622 58.5699567,163.434772 57.3533818,163.46397 L57.3533818,159.111286 Z M60.9270596,163.617922 C61.1916093,164.623919 61.345119,165.74361 61.3521972,166.927448 L57.3534261,166.927448 L57.3534261,164.17091 C58.6372444,164.141713 59.8471834,163.944406 60.9270596,163.617922 Z M61.3367578,167.633946 C61.2934035,168.610303 61.1518384,169.536669 60.9306429,170.381636 C59.8489972,170.055151 58.6372886,169.858287 57.3552399,169.826878 L57.3552399,167.633946 L61.3367578,167.633946 Z" id="Combined-Shape-Copy-12" fill="#00FCFF"></path>
                <path d="M12.3407313,113.42393 C11.8257184,113.093522 11.4827936,112.517968 11.4827936,111.860124 C11.4827936,110.833075 12.3158568,110.000015 13.3468213,110.000015 C14.3738748,110.000015 15.206938,110.833075 15.206938,111.860124 C15.206938,112.890302 14.3738748,113.724144 13.3468213,113.724144 C13.0225134,113.724144 12.7254266,113.632625 12.4618188,113.490575 C12.4222385,113.466639 12.3795294,113.444893 12.3407313,113.42393 Z M3.60076253,120.798492 C3.60076253,121.999952 4.79844527,121.999952 4.79844527,121.999952 L4.79844527,126.798529 L3.15227436,126.798529 C2.63677767,126.798529 2.19570128,126.428395 2.10600364,125.920766 L1.20146426,120.798492 C1.20146426,120.798492 0,120.798492 0,119.600815 L0,115.399261 C0,114.200827 1.20146426,114.200827 1.20146426,114.200827 L3.74400647,114.200827 C3.60378774,114.529213 3.60076253,114.798456 3.60076253,114.798456 L3.60076253,120.798492 Z M10.2414121,111.860124 C10.2414121,112.890302 9.40756675,113.724144 8.37738441,113.724144 C7.35033094,113.724144 6.51726777,112.890302 6.51726777,111.860124 C6.51726777,110.833075 7.35033094,110.000015 8.37738441,110.000015 C9.40756675,110.000015 10.2414121,110.833075 10.2414121,111.860124 Z M3.60076253,113.600748 C2.60471039,113.600748 1.7984905,112.794531 1.7984905,111.798483 C1.7984905,110.80546 2.60471039,110 3.60076253,110 C4.59378946,110 5.39925303,110.80546 5.39925303,111.798483 C5.39925303,112.437557 5.06844574,112.994043 4.5704953,113.313505 C4.53222632,113.333774 4.49093213,113.351774 4.45568838,113.375068 C4.20157029,113.512261 3.91130088,113.600748 3.60076253,113.600748 Z M16.7985669,119.210821 C17.6176439,120.221541 18.0806531,121.533723 17.988384,122.958896 C17.8164006,125.615175 15.6833212,127.776532 13.0294511,127.983304 C11.5814318,128.095993 10.239295,127.631322 9.21072181,126.798484 L7.76875293,126.798484 C7.35853373,126.798484 7.00745749,126.50398 6.93621367,126.100115 L6.00006079,120.798447 C6.00006079,120.798447 4.79844527,120.798447 4.79844527,119.600769 L4.79844527,115.399216 C4.79844527,114.200782 6.00006079,114.200782 6.00006079,114.200782 L10.7985061,114.200782 C11.9999703,114.200782 11.9999703,115.399216 11.9999703,115.399216 L11.9999703,117.235968 C12.1964581,117.212825 12.3982399,117.200724 12.6007781,117.200724 C12.80256,117.200724 13.0020729,117.212825 13.2015859,117.235968 L13.2015859,114.798562 C13.2015859,114.798562 13.1985606,114.529319 13.0575856,114.200782 L15.6007329,114.200782 C16.7985669,114.200782 16.7985669,115.399216 16.7985669,115.399216 L16.7985669,119.210821 Z M12.6007781,126.798484 C14.9182443,126.795458 16.7962979,124.917564 16.7985669,122.600712 C16.7962979,120.28023 14.9182443,118.402184 12.6007781,118.39931 C10.2802867,118.402184 8.40223301,120.28023 8.3992078,122.600712 C8.40223301,124.917564 10.2802867,126.795458 12.6007781,126.798484 Z M13.2310934,121.965505 L14.3988505,121.965505 L14.8965926,121.965505 L14.8965926,124.896532 L10.2414121,124.896532 L10.2414121,121.965505 L10.7354858,121.965505 C10.732551,121.88777 10.7274151,121.810921 10.7274151,121.725206 C10.7296162,121.32722 10.7784806,120.851646 11.0512703,120.402527 C11.3183372,119.94454 11.8894493,119.603747 12.5690024,119.621333 C13.2448869,119.603747 13.8167328,119.94454 14.0810116,120.402527 C14.2804313,120.727507 14.3584969,121.065935 14.3890189,121.37924 L13.2145117,121.37924 C13.1892724,121.232489 13.1481852,121.104212 13.0943317,121.023964 C12.9924941,120.889036 12.9386405,120.809232 12.5690024,120.791646 C12.1964295,120.809232 12.1397878,120.889036 12.0400046,121.023964 C11.9462377,121.163917 11.8894493,121.444561 11.8923841,121.725206 C11.8923841,121.807966 11.8953189,121.88777 11.9039766,121.965505 L12.5690024,121.965505 L13.2310934,121.965505 Z" id="Combined-Shape-Copy-13" fill="#A4B7C3"></path>
                <path d="M12.3407313,161.42393 C11.8257184,161.093522 11.4827936,160.517968 11.4827936,159.860124 C11.4827936,158.833075 12.3158568,158.000015 13.3468213,158.000015 C14.3738748,158.000015 15.206938,158.833075 15.206938,159.860124 C15.206938,160.890302 14.3738748,161.724144 13.3468213,161.724144 C13.0225134,161.724144 12.7254266,161.632625 12.4618188,161.490575 C12.4222385,161.466639 12.3795294,161.444893 12.3407313,161.42393 Z M3.60076253,168.798492 C3.60076253,169.999952 4.79844527,169.999952 4.79844527,169.999952 L4.79844527,174.798529 L3.15227436,174.798529 C2.63677767,174.798529 2.19570128,174.428395 2.10600364,173.920766 L1.20146426,168.798492 C1.20146426,168.798492 0,168.798492 0,167.600815 L0,163.399261 C0,162.200827 1.20146426,162.200827 1.20146426,162.200827 L3.74400647,162.200827 C3.60378774,162.529213 3.60076253,162.798456 3.60076253,162.798456 L3.60076253,168.798492 Z M10.2414121,159.860124 C10.2414121,160.890302 9.40756675,161.724144 8.37738441,161.724144 C7.35033094,161.724144 6.51726777,160.890302 6.51726777,159.860124 C6.51726777,158.833075 7.35033094,158.000015 8.37738441,158.000015 C9.40756675,158.000015 10.2414121,158.833075 10.2414121,159.860124 Z M3.60076253,161.600748 C2.60471039,161.600748 1.7984905,160.794531 1.7984905,159.798483 C1.7984905,158.80546 2.60471039,158 3.60076253,158 C4.59378946,158 5.39925303,158.80546 5.39925303,159.798483 C5.39925303,160.437557 5.06844574,160.994043 4.5704953,161.313505 C4.53222632,161.333774 4.49093213,161.351774 4.45568838,161.375068 C4.20157029,161.512261 3.91130088,161.600748 3.60076253,161.600748 Z M16.7985669,167.210821 C17.6176439,168.221541 18.0806531,169.533723 17.988384,170.958896 C17.8164006,173.615175 15.6833212,175.776532 13.0294511,175.983304 C11.5814318,176.095993 10.239295,175.631322 9.21072181,174.798484 L7.76875293,174.798484 C7.35853373,174.798484 7.00745749,174.50398 6.93621367,174.100115 L6.00006079,168.798447 C6.00006079,168.798447 4.79844527,168.798447 4.79844527,167.600769 L4.79844527,163.399216 C4.79844527,162.200782 6.00006079,162.200782 6.00006079,162.200782 L10.7985061,162.200782 C11.9999703,162.200782 11.9999703,163.399216 11.9999703,163.399216 L11.9999703,165.235968 C12.1964581,165.212825 12.3982399,165.200724 12.6007781,165.200724 C12.80256,165.200724 13.0020729,165.212825 13.2015859,165.235968 L13.2015859,162.798562 C13.2015859,162.798562 13.1985606,162.529319 13.0575856,162.200782 L15.6007329,162.200782 C16.7985669,162.200782 16.7985669,163.399216 16.7985669,163.399216 L16.7985669,167.210821 Z M12.6007781,174.798484 C14.9182443,174.795458 16.7962979,172.917564 16.7985669,170.600712 C16.7962979,168.28023 14.9182443,166.402184 12.6007781,166.39931 C10.2802867,166.402184 8.40223301,168.28023 8.3992078,170.600712 C8.40223301,172.917564 10.2802867,174.795458 12.6007781,174.798484 Z M13.2310934,169.965505 L14.3988505,169.965505 L14.8965926,169.965505 L14.8965926,172.896532 L10.2414121,172.896532 L10.2414121,169.965505 L10.7354858,169.965505 C10.732551,169.88777 10.7274151,169.810921 10.7274151,169.725206 C10.7296162,169.32722 10.7784806,168.851646 11.0512703,168.402527 C11.3183372,167.94454 11.8894493,167.603747 12.5690024,167.621333 C13.2448869,167.603747 13.8167328,167.94454 14.0810116,168.402527 C14.2804313,168.727507 14.3584969,169.065935 14.3890189,169.37924 L13.2145117,169.37924 C13.1892724,169.232489 13.1481852,169.104212 13.0943317,169.023964 C12.9924941,168.889036 12.9386405,168.809232 12.5690024,168.791646 C12.1964295,168.809232 12.1397878,168.889036 12.0400046,169.023964 C11.9462377,169.163917 11.8894493,169.444561 11.8923841,169.725206 C11.8923841,169.807966 11.8953189,169.88777 11.9039766,169.965505 L12.5690024,169.965505 L13.2310934,169.965505 Z" id="Combined-Shape-Copy-14" fill="#00FCFF"></path>
                <path d="M112.875,120.142857 L111.75,120.142857 C111.12868,120.142857 110.625,119.631183 110.625,119 C110.625,118.368817 111.12868,117.857143 111.75,117.857143 L112.875,117.857143 C113.49632,117.857143 114,118.368817 114,119 C114,119.631183 113.49632,120.142857 112.875,120.142857 L112.875,120.142857 L112.875,120.142857 Z M112.875,114.428572 L104.685,114.428572 C104.289259,115.135318 103.550384,115.571715 102.75,115.571429 C101.507359,115.571429 100.5,114.54808 100.5,113.285714 C100.5,112.023349 101.507359,111 102.75,111 C103.550384,110.999713 104.289259,111.436111 104.685,112.142857 L112.875,112.142857 C113.49632,112.142857 114,112.654532 114,113.285714 C114,113.916897 113.49632,114.428571 112.875,114.428572 L112.875,114.428572 L112.875,114.428572 Z M98.25,114.428572 L97.125,114.428572 C96.5036797,114.428572 96,113.916897 96,113.285714 C96,112.654532 96.5036797,112.142857 97.125,112.142857 L98.25,112.142857 C98.8713203,112.142857 99.375,112.654532 99.375,113.285714 C99.375,113.916897 98.8713203,114.428572 98.25,114.428572 L98.25,114.428572 L98.25,114.428572 Z M97.125,117.857143 L105.315,117.857143 C105.710741,117.150396 106.449616,116.713999 107.25,116.714286 C108.492641,116.714286 109.5,117.737635 109.5,119 C109.5,120.262365 108.492641,121.285714 107.25,121.285714 C106.449616,121.286001 105.710741,120.849604 105.315,120.142857 L97.125,120.142857 C96.5036797,120.142857 96,119.631183 96,119 C96,118.368817 96.5036797,117.857143 97.125,117.857143 L97.125,117.857143 L97.125,117.857143 Z M97.125,123.571428 L98.25,123.571428 C98.8713203,123.571428 99.375,124.083103 99.375,124.714286 C99.375,125.345468 98.8713203,125.857143 98.25,125.857143 L97.125,125.857143 C96.5036797,125.857143 96,125.345468 96,124.714286 C96,124.083103 96.5036797,123.571428 97.125,123.571428 L97.125,123.571428 L97.125,123.571428 Z M104.685,123.571428 L112.875,123.571428 C113.49632,123.571428 114,124.083103 114,124.714286 C114,125.345468 113.49632,125.857143 112.875,125.857143 L104.685,125.857143 C104.289259,126.563889 103.550384,127.000287 102.75,127 C101.507359,127 100.5,125.976651 100.5,124.714286 C100.5,123.45192 101.507359,122.428571 102.75,122.428571 C103.550384,122.428285 104.289259,122.864682 104.685,123.571428 L104.685,123.571428 Z" id="Settings-#2-Icon-Copy-4" fill="#A4B7C3"></path>
                <path d="M112.875,168.142857 L111.75,168.142857 C111.12868,168.142857 110.625,167.631183 110.625,167 C110.625,166.368817 111.12868,165.857143 111.75,165.857143 L112.875,165.857143 C113.49632,165.857143 114,166.368817 114,167 C114,167.631183 113.49632,168.142857 112.875,168.142857 L112.875,168.142857 L112.875,168.142857 Z M112.875,162.428572 L104.685,162.428572 C104.289259,163.135318 103.550384,163.571715 102.75,163.571429 C101.507359,163.571429 100.5,162.54808 100.5,161.285714 C100.5,160.023349 101.507359,159 102.75,159 C103.550384,158.999713 104.289259,159.436111 104.685,160.142857 L112.875,160.142857 C113.49632,160.142857 114,160.654532 114,161.285714 C114,161.916897 113.49632,162.428571 112.875,162.428572 L112.875,162.428572 L112.875,162.428572 Z M98.25,162.428572 L97.125,162.428572 C96.5036797,162.428572 96,161.916897 96,161.285714 C96,160.654532 96.5036797,160.142857 97.125,160.142857 L98.25,160.142857 C98.8713203,160.142857 99.375,160.654532 99.375,161.285714 C99.375,161.916897 98.8713203,162.428572 98.25,162.428572 L98.25,162.428572 L98.25,162.428572 Z M97.125,165.857143 L105.315,165.857143 C105.710741,165.150396 106.449616,164.713999 107.25,164.714286 C108.492641,164.714286 109.5,165.737635 109.5,167 C109.5,168.262365 108.492641,169.285714 107.25,169.285714 C106.449616,169.286001 105.710741,168.849604 105.315,168.142857 L97.125,168.142857 C96.5036797,168.142857 96,167.631183 96,167 C96,166.368817 96.5036797,165.857143 97.125,165.857143 L97.125,165.857143 L97.125,165.857143 Z M97.125,171.571428 L98.25,171.571428 C98.8713203,171.571428 99.375,172.083103 99.375,172.714286 C99.375,173.345468 98.8713203,173.857143 98.25,173.857143 L97.125,173.857143 C96.5036797,173.857143 96,173.345468 96,172.714286 C96,172.083103 96.5036797,171.571428 97.125,171.571428 L97.125,171.571428 L97.125,171.571428 Z M104.685,171.571428 L112.875,171.571428 C113.49632,171.571428 114,172.083103 114,172.714286 C114,173.345468 113.49632,173.857143 112.875,173.857143 L104.685,173.857143 C104.289259,174.563889 103.550384,175.000287 102.75,175 C101.507359,175 100.5,173.976651 100.5,172.714286 C100.5,171.45192 101.507359,170.428571 102.75,170.428571 C103.550384,170.428285 104.289259,170.864682 104.685,171.571428 L104.685,171.571428 Z" id="Settings-#2-Icon-Copy-5" fill="#00FCFF"></path>
                <g id="Bubble-Filled-Copy-4" transform="translate(54.000000, 214.500000) scale(-1, 1) translate(-54.000000, -214.500000) translate(46.000000, 206.000000)">
                    <path d="M15.7065449,15.7014971 C15.9637238,15.4443175 16.0613202,15.0679562 15.9615272,14.7182078 C15.8617343,14.3684593 15.0949392,11.6916538 15.0959411,11.6826372 C16.9138965,8.18067447 15.9061994,3.87616454 12.7227075,1.54505992 C9.53921563,-0.786044706 5.13135262,-0.447066203 2.34172278,2.34339023 C-0.447907068,5.13384667 -0.785590331,9.54182058 1.54644289,12.7246362 C3.87847611,15.9074518 8.18327047,16.9138875 11.6846901,15.094899 L14.7232581,15.9564801 C15.0730057,16.0562733 15.449366,15.9586766 15.7065449,15.7014971 Z" id="Bubble-Filled-Icon" fill="#4E6D81"></path>
                    <path d="M8,4.06494141 L8,9" id="Line" stroke="#FFFFFF" stroke-width="2" fill="#FFFFFF" stroke-linecap="round"></path>
                    <circle id="Oval" fill="#FFFFFF" cx="8" cy="12" r="1"></circle>
                </g>
                <g id="Bubble-Filled-Copy-5" transform="translate(100.000000, 214.500000) scale(-1, 1) translate(-100.000000, -214.500000) translate(92.000000, 206.000000)">
                    <path d="M15.7065449,15.7014971 C15.9637238,15.4443175 16.0613202,15.0679562 15.9615272,14.7182078 C15.8617343,14.3684593 15.0949392,11.6916538 15.0959411,11.6826372 C16.9138965,8.18067447 15.9061994,3.87616454 12.7227075,1.54505992 C9.53921563,-0.786044706 5.13135262,-0.447066203 2.34172278,2.34339023 C-0.447907068,5.13384667 -0.785590331,9.54182058 1.54644289,12.7246362 C3.87847611,15.9074518 8.18327047,16.9138875 11.6846901,15.094899 L14.7232581,15.9564801 C15.0730057,16.0562733 15.449366,15.9586766 15.7065449,15.7014971 Z" id="Bubble-Filled-Icon" fill="#4E6D81"></path>
                    <circle id="Oval" fill="#FFFFFF" cx="10.5" cy="8.5" r="1.5"></circle>
                    <circle id="Oval-Copy" fill="#FFFFFF" cx="5.5" cy="8.5" r="1.5"></circle>
                </g>
                <g id="Bubble-Filled-Copy-6" transform="translate(8.000000, 214.500000) scale(-1, 1) translate(-8.000000, -214.500000) translate(0.000000, 206.000000)">
                    <path d="M15.7065449,15.7014971 C15.9637238,15.4443175 16.0613202,15.0679562 15.9615272,14.7182078 C15.8617343,14.3684593 15.0949392,11.6916538 15.0959411,11.6826372 C16.9138965,8.18067447 15.9061994,3.87616454 12.7227075,1.54505992 C9.53921563,-0.786044706 5.13135262,-0.447066203 2.34172278,2.34339023 C-0.447907068,5.13384667 -0.785590331,9.54182058 1.54644289,12.7246362 C3.87847611,15.9074518 8.18327047,16.9138875 11.6846901,15.094899 L14.7232581,15.9564801 C15.0730057,16.0562733 15.449366,15.9586766 15.7065449,15.7014971 Z" id="Bubble-Filled-Icon" fill="#FF0048"></path>
                    <path d="M8,4.06494141 L8,9" id="Line" stroke="#FFFFFF" stroke-width="2" fill="#F8E71C" stroke-linecap="round"></path>
                    <circle id="Oval" fill="#FFFFFF" cx="8" cy="12" r="1"></circle>
                </g>
                <circle id="Oval-Copy-3" fill="#374A57" cx="144" cy="214" r="8"></circle>
                <path d="M144,210 C141.790861,210 140,211.790861 140,214 C140,216.209139 141.790861,218 144,218 C146.209139,218 148,216.209139 148,214 C148,211.790861 146.209139,210 144,210 L144,210 Z M145.014072,211.463523 L145.072239,211.252245 C145.098371,211.155352 145.165596,211.074914 145.256054,211.032302 C145.346513,210.989689 145.451046,210.989216 145.541883,211.031009 C146.168262,211.329299 146.672728,211.836048 146.969773,212.465363 C147.011632,212.558327 147.009941,212.665226 146.965164,212.756806 C146.920386,212.848386 146.83721,212.915058 146.738398,212.938574 L146.522965,212.990095 C146.378424,213.027007 146.22773,212.958309 146.160175,212.824709 C145.95155,212.394731 145.605307,212.047578 145.176939,211.838889 C145.03924,211.769954 144.970046,211.61215 145.012348,211.463523 L145.012348,211.463523 L145.014072,211.463523 Z M141.030624,212.458461 C141.328859,211.831968 141.835631,211.327429 142.464996,211.030408 C142.557946,210.988379 142.664921,210.989989 142.756552,211.034796 C142.848182,211.079603 142.914836,211.162898 142.938213,211.26181 L142.990167,211.477267 C143.026909,211.621809 142.958257,211.772418 142.824779,211.840098 C142.394688,212.048389 142.047468,212.394582 141.838947,212.823015 C141.76985,212.960796 141.611894,213.029984 141.463144,212.987624 L141.251863,212.929882 C141.155047,212.903647 141.074717,212.836373 141.032193,212.745918 C140.989669,212.655462 140.989254,212.550972 141.031057,212.460184 L141.031057,212.460184 L141.030624,212.458461 Z M142.985765,216.53656 L142.928027,216.7478 C142.901893,216.844676 142.834665,216.925099 142.744203,216.967704 C142.65374,217.010309 142.549202,217.010782 142.458361,216.968996 C141.832036,216.670642 141.327583,216.164019 141.030406,215.534901 C140.98838,215.441969 140.98999,215.335014 141.034794,215.243401 C141.079598,215.151788 141.162886,215.085147 141.261792,215.061775 L141.477235,215.009831 C141.621767,214.973097 141.772365,215.041735 141.84004,215.175187 C142.048317,215.605345 142.394679,215.952539 142.823321,216.16083 C142.961059,216.229931 143.030096,216.387935 142.987489,216.53656 L142.987489,216.53656 L142.985765,216.53656 Z M142,214 C142,212.895431 142.895431,212 144,212 C145.104569,212 146,212.895431 146,214 C146,215.104569 145.104569,216 144,216 C142.895431,216 142,215.104569 142,214 L142,214 L142,214 Z M146.968562,215.54159 C146.670421,216.167892 146.163843,216.672334 145.534691,216.969417 C145.441761,217.011606 145.334714,217.010077 145.243038,216.965253 C145.151363,216.920429 145.08473,216.837039 145.061496,216.738053 L145.009977,216.522629 C144.972895,216.37808 145.041637,216.227289 145.175357,216.159856 C145.60538,215.951322 145.952544,215.605071 146.161143,215.176663 C146.230254,215.038937 146.388281,214.969907 146.536929,215.01251 L146.747767,215.070244 C146.844629,215.096268 146.92507,215.163405 146.967689,215.253795 C147.010309,215.344185 147.010787,215.448664 146.968995,215.539436 L146.968995,215.539436 L146.968562,215.54159 Z" id="Support-icon-Copy-2" fill="#A4B7C3"></path>
                <g id="ic-reboot" transform="translate(148.000000, 252.000000)" fill="#778690">
                    <path d="M5.77894832,11.25 C6.33139968,11.25 6.46859317,11.5593693 6.07352901,11.9527962 L4.24575,13.773 C5.472,14.99475 7.167,15.75 9.03975,15.75 C12.4905,15.75 15.3375,13.182 15.762,9.861 C15.762,9.861 15.89175,9 16.8705,9 C17.49375,9 17.99925,9.504 17.99925,10.125 C17.99925,10.2105 17.9895,10.293 17.9715,10.3725 C17.307,14.691 13.563,18 9.03975,18 C6.543,18 4.28325,16.99275 2.6475,15.3645 L0.709481414,17.2937344 C0.317645649,17.6837941 -3.55271368e-15,17.5571136 -3.55271368e-15,17.0040143 L-3.55271368e-15,11.7573471 C-3.55271368e-15,11.477147 0.225557779,11.25 0.509545581,11.25 L5.77894832,11.25 Z M12.2210517,6.75 C11.6686003,6.75 11.5314068,6.44063068 11.926471,6.04720384 L13.75425,4.227 C12.52725,3.006 10.833,2.25 8.96025,2.25 C5.5095,2.25 2.6625,4.818 2.238,8.139 C2.238,8.139 2.10825,9 1.1295,9 C0.50625,9 0.00075,8.496 0.00075,7.875 C0.00075,7.79025 0.0105,7.70775 0.0285,7.6275 C0.693,3.309 4.437,0 8.96025,0 C11.457,0 13.71675,1.00725 15.3525,2.63625 L17.2905186,0.706466621 C17.6823544,0.31629588 18,0.442886353 18,0.995985746 L18,6.24265292 C18,6.52285298 17.7744422,6.75 17.4904544,6.75 L12.2210517,6.75 Z"></path>
                </g>
                <path d="M116.875,256.5 L116.875,267.75 C116.875,268.992641 115.867641,270 114.625,270 L103.375,270 C102.132359,270 101.125,268.992641 101.125,267.75 L101.125,256.5 C100.50368,256.5 100,255.99632 100,255.375 C100,254.75368 100.50368,254.25 101.125,254.25 L106.75,254.25 C106.75,253.007359 107.757359,252 109,252 C110.242641,252 111.25,253.007359 111.25,254.25 L116.875,254.25 C117.49632,254.25 118,254.75368 118,255.375 C118,255.99632 117.49632,256.5 116.875,256.5 L116.875,256.5 Z M114.625,256.5 L103.375,256.5 L103.375,267.75 L114.625,267.75 L114.625,256.5 L114.625,256.5 Z M105.625,257.625 C106.24632,257.625 106.75,258.12868 106.75,258.75 L106.75,265.5 C106.75,266.12132 106.24632,266.625 105.625,266.625 C105.00368,266.625 104.5,266.12132 104.5,265.5 L104.5,258.75 C104.5,258.12868 105.00368,257.625 105.625,257.625 L105.625,257.625 Z M109,257.625 C109.62132,257.625 110.125,258.12868 110.125,258.75 L110.125,265.5 C110.125,266.12132 109.62132,266.625 109,266.625 C108.37868,266.625 107.875,266.12132 107.875,265.5 L107.875,258.75 C107.875,258.12868 108.37868,257.625 109,257.625 L109,257.625 Z M112.375,257.625 C112.99632,257.625 113.5,258.12868 113.5,258.75 L113.5,265.5 C113.5,266.12132 112.99632,266.625 112.375,266.625 C111.75368,266.625 111.25,266.12132 111.25,265.5 L111.25,258.75 C111.25,258.12868 111.75368,257.625 112.375,257.625 L112.375,257.625 Z" id="Trash-Icon-Copy-2" fill="#778690"></path>
                <path d="M289.249875,261.51575 L280.7475,261.51575 C280.188375,261.51575 279.736875,260.988125 279.736875,260.33975 C279.736875,259.691375 280.188375,259.16375 280.7475,259.16375 L282.375,258.875 L282.375,251 L280.7475,250.6955 C280.188375,250.6955 279.736875,250.167875 279.736875,249.5195 C279.736875,248.871125 280.188375,248.3435 280.7475,248.3435 L287.34675,248.3435 C287.548875,248.3435 287.6145,248.2595 287.643375,248.19125 C287.6355,248.230625 287.625,248.267375 287.625,248.375 L287.625,258.875 L289.249875,259.16375 C289.809,259.16375 290.263125,259.691375 290.263125,260.33975 C290.263125,260.988125 289.809,261.51575 289.249875,261.51575 L289.249875,261.51575 Z M282.375,240.5 L284.9475,240.5 C284.965875,240.5 284.981625,240.4895 285,240.4895 C285.018375,240.4895 285.034125,240.5 285.0525,240.5 L287.625,240.5 L287.625,242.9675 C287.627625,243.02525 287.6565,243.0725 287.6565,243.127625 C287.6565,243.185375 287.627625,243.232625 287.625,243.28775 L287.625,245.75 L285.086625,245.75 C285.055125,245.752625 285.028875,245.768375 285,245.768375 C284.9685,245.768375 284.94225,245.752625 284.913375,245.75 L282.375,245.75 L282.375,243.285125 C282.36975,243.23 282.340875,243.185375 282.340875,243.127625 C282.340875,243.0725 282.36975,243.02525 282.375,242.970125 L282.375,240.5 Z M285,230 C273.400125,230 264,239.40275 264,251 C264,262.59725 273.400125,272 285,272 C296.59725,272 306,262.59725 306,251 C306,239.40275 296.59725,230 285,230 L285,230 Z" id="Info-Icon" fill="#A4B7C3"></path>
            </g>
        </g>
    </g>
</svg>