<svg width="306" height="246" viewBox="0 0 306 246" fill="none" xmlns="http://www.w3.org/2000/svg">
<path fill-rule="evenodd" clip-rule="evenodd" d="M195 2C208.808 2 220 13.1925 220 27C220 40.8075 208.808 52 195 52C181.192 52 170 40.8075 170 27C170 13.1925 181.192 2 195 2ZM213.407 42.3166C213.81 41.8324 214.194 41.3285 214.559 40.8149C217.328 36.9071 218.96 32.1403 218.96 27C218.96 21.8535 217.328 17.0917 214.559 13.1839C214.194 12.6665 213.815 12.1664 213.407 11.6822C209.009 6.40179 202.39 3.03716 195.002 3.03716H194.964H194.945C194.916 3.03716 194.887 3.04208 194.864 3.04208C187.524 3.08017 180.966 6.43988 176.594 11.6822C176.19 12.1664 175.806 12.6665 175.441 13.1839C172.672 17.0917 171.04 21.8535 171.04 27C171.04 32.1403 172.672 36.9071 175.441 40.8149C175.806 41.3285 176.19 41.8324 176.594 42.3166C180.966 47.5589 187.524 50.9149 194.864 50.9579C194.887 50.9579 194.916 50.9628 194.945 50.9628C194.95 50.9628 194.959 50.9579 194.964 50.9579C194.974 50.9579 194.988 50.9628 195.002 50.9628C202.39 50.9628 209.009 47.597 213.407 42.3166ZM183.976 36.4266C183.356 34.0746 182.958 31.4878 182.839 28.761H194.018V34.8574C190.409 34.9434 187.005 35.5013 183.976 36.4266ZM194.018 48.9217C189.981 48.3699 186.501 44.2324 184.529 38.2748C187.375 37.4208 190.596 36.9022 194.018 36.8211V48.9217ZM182.8 26.7985C182.814 23.4953 183.247 20.3752 183.986 17.5722C187.01 18.4987 190.414 19.0554 194.018 19.1414V26.7985H182.8ZM209.053 26.7985C209.038 23.2937 208.568 19.977 207.752 16.9811C209.701 16.261 211.458 15.3786 212.974 14.3648C215.46 17.8929 216.949 22.1706 216.988 26.7985H209.053ZM178.187 41.1319C179.498 40.2766 181.014 39.5184 182.699 38.8843C183.962 42.6152 185.791 45.7205 187.994 47.8428C184.134 46.5414 180.755 44.1893 178.187 41.1319ZM187.994 6.15233C185.796 8.27826 183.962 11.3848 182.704 15.1095C181.009 14.4803 179.493 13.7172 178.178 12.8582C180.75 9.80451 184.134 7.45247 187.994 6.15233ZM182.142 16.943C181.321 19.9476 180.851 23.279 180.832 26.7985H173.008C173.051 22.1706 174.539 17.8892 177.025 14.3648C178.518 15.359 180.241 16.2278 182.142 16.943ZM180.87 28.761C180.996 31.7041 181.447 34.4973 182.142 37.0509C180.236 37.771 178.513 38.6398 177.025 39.6339C174.822 36.5089 173.401 32.7892 173.084 28.761H180.87ZM184.532 15.7239C186.506 9.76642 189.986 5.62883 194.018 5.07216V17.1777C190.596 17.0917 187.375 16.578 184.532 15.7239ZM207.752 37.0128C208.444 34.469 208.89 31.6893 209.014 28.761H216.915C216.598 32.7892 215.183 36.5089 212.974 39.6339C211.458 38.6214 209.701 37.7378 207.752 37.0128ZM195.982 36.8211C199.366 36.9022 202.549 37.406 205.371 38.2466C203.413 44.1599 199.975 48.2937 195.982 48.9082V36.8211ZM211.818 12.8632C210.479 13.7369 208.923 14.5098 207.195 15.1476C205.923 11.3701 204.065 8.22542 201.829 6.09457C205.765 7.38119 209.207 9.7615 211.818 12.8632ZM201.829 47.9042C204.065 45.7733 205.928 42.6336 207.2 38.8512C208.923 39.4902 210.479 40.2582 211.813 41.1368C209.202 44.2324 205.765 46.6139 201.829 47.9042ZM195.982 5.0869C199.975 5.70502 203.413 9.83892 205.362 15.7522C202.549 16.5878 199.361 17.0966 195.982 17.1777V5.0869ZM205.908 17.6053C206.643 20.3998 207.07 23.51 207.089 26.7985H195.982V19.1414C199.548 19.0603 202.909 18.5122 205.908 17.6053ZM207.047 28.761C206.926 31.4731 206.533 34.0463 205.918 36.3934C202.914 35.4865 199.548 34.9397 195.987 34.8524V28.761H207.047Z" fill="#00FCFF"/>
<path d="M257.5 42.5H292.5C296.918 42.5 300.5 38.9183 300.5 34.5V12.5" stroke="#647C8D" stroke-width="3" stroke-linecap="round"/>
<path fill-rule="evenodd" clip-rule="evenodd" d="M60 246C65.5228 246 70 241.523 70 236C70 230.477 65.5228 226 60 226C54.4772 226 50 230.477 50 236C50 241.523 54.4772 246 60 246ZM58.7505 239.75C59.2517 239.75 59.7229 239.553 60.0753 239.196L64.6344 234.405C65.1219 233.911 65.1219 233.113 64.6344 232.619C64.1457 232.127 63.3546 232.127 62.8671 232.619L58.7505 236.965L57.1338 235.119C56.6464 234.627 55.8552 234.627 55.3665 235.119C54.8778 235.613 54.8778 236.411 55.3665 236.905L57.4244 239.196C57.7793 239.553 58.248 239.75 58.7505 239.75Z" fill="#00FF47"/>
<path fill-rule="evenodd" clip-rule="evenodd" d="M46.672 37.2393C46.672 37.6867 46.3031 38.0528 45.8523 38.0528H27H13.7551C13.0202 39.1538 11.7638 39.8814 10.3336 39.8814C8.0657 39.8814 6.2276 38.0565 6.2276 35.8059C6.2276 33.5553 8.0657 31.7309 10.3336 31.7309C11.7638 31.7309 13.0202 32.4584 13.7551 33.559H27H45.8523C46.3031 33.559 46.672 33.9251 46.672 34.3725V37.2393ZM52 33.5761H47.765V34.5251H52V35.1865H47.765V36.1355H52V36.7964H47.765V37.7454H52V40.559C52 41.9017 50.893 43 49.5407 43H27H4.45934C3.10696 43 2 41.9017 2 40.559V31.3389C2 29.9966 3.10696 28.8984 4.45934 28.8984H27H38.356V14.5804C37.8405 14.2254 37.5019 13.6356 37.5019 12.9659C37.5019 11.8801 38.3891 11 39.483 11C40.5769 11 41.4636 11.8801 41.4636 12.9659C41.4636 13.6356 41.125 14.2254 40.61 14.5804V28.8984H49.5407C50.893 28.8984 52 29.9966 52 31.3389V33.5761ZM10.0319 32.9736C8.43472 32.9736 7.1405 34.259 7.1405 35.8444C7.1405 37.4301 8.43472 38.7155 10.0319 38.7155C11.6291 38.7155 12.9233 37.4301 12.9233 35.8444C12.9233 34.259 11.6291 32.9736 10.0319 32.9736ZM30.2717 36.1636H34.1269V34.8876H30.2717V36.1636ZM35.412 36.1636H39.2672V34.8876H35.412V36.1636ZM41.1948 36.1636H45.0499V34.8876H41.1948V36.1636Z" fill="#A4B7C3"/>
<path fill-rule="evenodd" clip-rule="evenodd" d="M111 2C124.808 2 136 13.1925 136 27C136 40.8075 124.808 52 111 52C97.1925 52 86 40.8075 86 27C86 13.1925 97.1925 2 111 2ZM129.407 42.3166C129.81 41.8324 130.194 41.3285 130.559 40.8149C133.328 36.9071 134.96 32.1403 134.96 27C134.96 21.8535 133.328 17.0917 130.559 13.1839C130.194 12.6665 129.815 12.1664 129.407 11.6822C125.009 6.40179 118.39 3.03716 111.002 3.03716H110.964H110.945C110.916 3.03716 110.887 3.04208 110.864 3.04208C103.524 3.08017 96.9664 6.43988 92.5941 11.6822C92.1898 12.1664 91.8064 12.6665 91.4414 13.1839C88.6715 17.0917 87.0396 21.8535 87.0396 27C87.0396 32.1403 88.6715 36.9071 91.4414 40.8149C91.8064 41.3285 92.1898 41.8324 92.5941 42.3166C96.9664 47.5589 103.524 50.9149 110.864 50.9579C110.887 50.9579 110.916 50.9628 110.945 50.9628C110.95 50.9628 110.959 50.9579 110.964 50.9579C110.974 50.9579 110.988 50.9628 111.002 50.9628C118.39 50.9628 125.009 47.597 129.407 42.3166ZM99.9757 36.4266C99.3564 34.0746 98.9582 31.4878 98.839 28.761H110.018V34.8574C106.409 34.9434 103.005 35.5013 99.9757 36.4266ZM110.018 48.9217C105.981 48.3699 102.501 44.2324 100.529 38.2748C103.375 37.4208 106.596 36.9022 110.018 36.8211V48.9217ZM98.7997 26.7985C98.8145 23.4953 99.247 20.3752 99.9856 17.5722C103.01 18.4987 106.414 19.0554 110.018 19.1414V26.7985H98.7997ZM125.053 26.7985C125.038 23.2937 124.568 19.977 123.752 16.9811C125.701 16.261 127.458 15.3786 128.974 14.3648C131.46 17.8929 132.949 22.1706 132.988 26.7985H125.053ZM94.1866 41.1319C95.4978 40.2766 97.0142 39.5184 98.699 38.8843C99.9622 42.6152 101.791 45.7205 103.994 47.8428C100.134 46.5414 96.7549 44.1893 94.1866 41.1319ZM103.994 6.15233C101.796 8.27826 99.9622 11.3848 98.7039 15.1095C97.0093 14.4803 95.4928 13.7172 94.178 12.8582C96.75 9.80451 100.134 7.45247 103.994 6.15233ZM98.1423 16.943C97.3214 19.9476 96.8507 23.279 96.8323 26.7985H89.0081C89.0511 22.1706 90.5393 17.8892 93.0253 14.3648C94.5184 15.359 96.2412 16.2278 98.1423 16.943ZM96.8704 28.761C96.9958 31.7041 97.4467 34.4973 98.1423 37.0509C96.2363 37.771 94.5134 38.6398 93.0253 39.6339C90.8219 36.5089 89.4014 32.7892 89.0843 28.761H96.8704ZM100.532 15.7239C102.506 9.76642 105.986 5.62883 110.018 5.07216V17.1777C106.596 17.0917 103.375 16.578 100.532 15.7239ZM123.752 37.0128C124.444 34.469 124.89 31.6893 125.014 28.761H132.915C132.598 32.7892 131.183 36.5089 128.974 39.6339C127.458 38.6214 125.701 37.7378 123.752 37.0128ZM111.982 36.8211C115.366 36.9022 118.549 37.406 121.371 38.2466C119.413 44.1599 115.975 48.2937 111.982 48.9082V36.8211ZM127.818 12.8632C126.479 13.7369 124.923 14.5098 123.195 15.1476C121.923 11.3701 120.065 8.22542 117.829 6.09457C121.765 7.38119 125.207 9.7615 127.818 12.8632ZM117.829 47.9042C120.065 45.7733 121.928 42.6336 123.2 38.8512C124.923 39.4902 126.479 40.2582 127.813 41.1368C125.202 44.2324 121.765 46.6139 117.829 47.9042ZM111.982 5.0869C115.975 5.70502 119.413 9.83892 121.362 15.7522C118.549 16.5878 115.361 17.0966 111.982 17.1777V5.0869ZM121.909 17.6053C122.643 20.3998 123.07 23.51 123.089 26.7985H111.982V19.1414C115.548 19.0603 118.909 18.5122 121.909 17.6053ZM123.047 28.761C122.926 31.4731 122.533 34.0463 121.918 36.3934C118.914 35.4865 115.548 34.9397 111.987 34.8524V28.761H123.047Z" fill="#A4B7C3"/>
<path fill-rule="evenodd" clip-rule="evenodd" d="M10 246C4.47715 246 0 241.523 0 236C0 230.477 4.47715 226 10 226C15.5228 226 20 230.477 20 236C20 241.523 15.5228 246 10 246ZM13.5356 240.785C13.2039 240.785 12.8857 240.653 12.6512 240.419L10 237.767L7.34875 240.419C6.86067 240.907 6.06905 240.907 5.58063 240.419C5.0922 239.931 5.09192 239.14 5.58 238.651L8.2325 236L5.58 233.349C5.26427 233.033 5.14108 232.572 5.25684 232.141C5.3726 231.71 5.70972 231.373 6.14121 231.257C6.57271 231.142 7.03302 231.265 7.34875 231.581L10 234.233L12.6512 231.581C12.967 231.265 13.4273 231.142 13.8588 231.257C14.2903 231.373 14.6274 231.71 14.7432 232.141C14.8589 232.572 14.7357 233.033 14.42 233.349L11.7675 236L14.42 238.651C14.6547 238.886 14.7866 239.204 14.7866 239.536C14.7866 239.867 14.6547 240.186 14.42 240.42C14.1855 240.653 13.8674 240.785 13.5356 240.785Z" fill="#EF0044"/>
<path fill-rule="evenodd" clip-rule="evenodd" d="M57 84C61.9707 84 66 88.0293 66 93C66 97.9707 61.9707 102 57 102C52.0293 102 48 97.9707 48 93C48 88.0293 52.0293 84 57 84ZM63.6266 98.514C63.7717 98.3397 63.9097 98.1583 64.0411 97.9734C65.0382 96.5666 65.6257 94.8505 65.6257 93C65.6257 91.1473 65.0382 89.433 64.0411 88.0262C63.9097 87.84 63.7734 87.6599 63.6266 87.4856C62.0433 85.5846 59.6605 84.3734 57.0009 84.3734H56.9872H56.9801C56.9699 84.3734 56.9593 84.3751 56.9509 84.3751C54.3085 84.3889 51.9479 85.5984 50.3739 87.4856C50.2283 87.6599 50.0903 87.84 49.9589 88.0262C48.9618 89.433 48.3743 91.1473 48.3743 93C48.3743 94.8505 48.9618 96.5666 49.9589 97.9734C50.0903 98.1583 50.2283 98.3397 50.3739 98.514C51.9479 100.401 54.3085 101.609 56.9509 101.625C56.9593 101.625 56.9699 101.627 56.9801 101.627L56.9872 101.625C56.9907 101.625 56.9956 101.627 57.0009 101.627C59.6605 101.627 62.0433 100.415 63.6266 98.514ZM53.0313 96.3936C52.8083 95.5468 52.665 94.6156 52.6221 93.6339H56.6465V95.8286C55.3472 95.8596 54.1218 96.0605 53.0313 96.3936ZM56.6465 100.892C55.1932 100.693 53.9404 99.2036 53.2303 97.0589C54.2549 96.7515 55.4144 96.5648 56.6465 96.5356V100.892ZM52.6079 92.9274C52.6132 91.7383 52.7689 90.6151 53.0348 89.606C54.1235 89.9395 55.349 90.1399 56.6465 90.1709V92.9274H52.6079ZM62.0591 92.9274C62.0538 91.6657 61.8844 90.4717 61.5906 89.3932C62.2923 89.1339 62.9249 88.8163 63.4708 88.4513C64.3658 89.7214 64.9015 91.2614 64.9157 92.9274H62.0591ZM50.9472 98.0875C51.4192 97.7796 51.9651 97.5066 52.5716 97.2784C53.0264 98.6215 53.6847 99.7394 54.4779 100.503C53.0883 100.035 51.8718 99.1882 50.9472 98.0875ZM54.4779 85.4948C53.6864 86.2602 53.0264 87.3785 52.5734 88.7194C51.9633 88.4929 51.4174 88.2182 50.9441 87.909C51.87 86.8096 53.0883 85.9629 54.4779 85.4948ZM52.3712 89.3795C52.0757 90.4611 51.9063 91.6604 51.8996 92.9274H49.0829C49.0984 91.2614 49.6341 89.7201 50.5291 88.4513C51.0666 88.8092 51.6868 89.122 52.3712 89.3795ZM51.9133 93.6339C51.9585 94.6935 52.1208 95.699 52.3712 96.6183C51.6851 96.8776 51.0648 97.1903 50.5291 97.5482C49.7359 96.4232 49.2245 95.0841 49.1104 93.6339H51.9133ZM53.2317 88.9406C53.9422 86.7959 55.195 85.3064 56.6465 85.106V89.464C55.4144 89.433 54.2549 89.2481 53.2317 88.9406ZM61.5906 96.6046C61.8397 95.6888 62.0003 94.6882 62.045 93.6339H64.8896C64.7754 95.0841 64.2658 96.4232 63.4708 97.5482C62.9249 97.1837 62.2923 96.8656 61.5906 96.6046ZM57.3534 96.5356C58.5717 96.5648 59.7175 96.7462 60.7337 97.0488C60.0285 99.1775 58.7912 100.666 57.3534 100.887V96.5356ZM63.0545 87.9107C62.5723 88.2253 62.0122 88.5035 61.3902 88.7331C60.9324 87.3732 60.2635 86.2412 59.4583 85.474C60.8753 85.9372 62.1144 86.7941 63.0545 87.9107ZM59.4583 100.526C60.2635 99.7584 60.9341 98.6281 61.392 97.2664C62.0122 97.4965 62.5723 97.773 63.0527 98.0893C62.1127 99.2036 60.8753 100.061 59.4583 100.526ZM57.3534 85.1113C58.7912 85.3338 60.0285 86.822 60.7302 88.9508C59.7175 89.2516 58.57 89.4348 57.3534 89.464V85.1113ZM60.9271 89.6179C61.1916 90.6239 61.3451 91.7436 61.3522 92.9274H57.3534V90.1709C58.6372 90.1417 59.8472 89.9444 60.9271 89.6179ZM61.3368 93.6339C61.2934 94.6103 61.1518 95.5367 60.9306 96.3816C59.849 96.0552 58.6373 95.8583 57.3552 95.8269V93.6339H61.3368Z" fill="#A4B7C3"/>
<path fill-rule="evenodd" clip-rule="evenodd" d="M57 132C61.9707 132 66 136.029 66 141C66 145.971 61.9707 150 57 150C52.0293 150 48 145.971 48 141C48 136.029 52.0293 132 57 132ZM63.6266 146.514C63.7717 146.34 63.9097 146.158 64.0411 145.973C65.0382 144.567 65.6257 142.851 65.6257 141C65.6257 139.147 65.0382 137.433 64.0411 136.026C63.9097 135.84 63.7734 135.66 63.6266 135.486C62.0433 133.585 59.6605 132.373 57.0009 132.373H56.9872H56.9801C56.9699 132.373 56.9593 132.375 56.9509 132.375C54.3085 132.389 51.9479 133.598 50.3739 135.486C50.2283 135.66 50.0903 135.84 49.9589 136.026C48.9618 137.433 48.3743 139.147 48.3743 141C48.3743 142.851 48.9618 144.567 49.9589 145.973C50.0903 146.158 50.2283 146.34 50.3739 146.514C51.9479 148.401 54.3085 149.609 56.9509 149.625C56.9593 149.625 56.9699 149.627 56.9801 149.627L56.9872 149.625C56.9907 149.625 56.9956 149.627 57.0009 149.627C59.6605 149.627 62.0433 148.415 63.6266 146.514ZM53.0313 144.394C52.8083 143.547 52.665 142.616 52.6221 141.634H56.6465V143.829C55.3472 143.86 54.1218 144.06 53.0313 144.394ZM56.6465 148.892C55.1932 148.693 53.9404 147.204 53.2303 145.059C54.2549 144.751 55.4144 144.565 56.6465 144.536V148.892ZM52.6079 140.927C52.6132 139.738 52.7689 138.615 53.0348 137.606C54.1235 137.94 55.349 138.14 56.6465 138.171V140.927H52.6079ZM62.0591 140.927C62.0538 139.666 61.8844 138.472 61.5906 137.393C62.2923 137.134 62.9249 136.816 63.4708 136.451C64.3658 137.721 64.9015 139.261 64.9157 140.927H62.0591ZM50.9472 146.087C51.4192 145.78 51.9651 145.507 52.5716 145.278C53.0264 146.621 53.6847 147.739 54.4779 148.503C53.0883 148.035 51.8718 147.188 50.9472 146.087ZM54.4779 133.495C53.6864 134.26 53.0264 135.379 52.5734 136.719C51.9633 136.493 51.4174 136.218 50.9441 135.909C51.87 134.81 53.0883 133.963 54.4779 133.495ZM52.3712 137.379C52.0757 138.461 51.9063 139.66 51.8996 140.927H49.0829C49.0984 139.261 49.6341 137.72 50.5291 136.451C51.0666 136.809 51.6868 137.122 52.3712 137.379ZM51.9133 141.634C51.9585 142.693 52.1208 143.699 52.3712 144.618C51.6851 144.878 51.0648 145.19 50.5291 145.548C49.7359 144.423 49.2245 143.084 49.1104 141.634H51.9133ZM53.2317 136.941C53.9422 134.796 55.195 133.306 56.6465 133.106V137.464C55.4144 137.433 54.2549 137.248 53.2317 136.941ZM61.5906 144.605C61.8397 143.689 62.0003 142.688 62.045 141.634H64.8896C64.7754 143.084 64.2658 144.423 63.4708 145.548C62.9249 145.184 62.2923 144.866 61.5906 144.605ZM57.3534 144.536C58.5717 144.565 59.7175 144.746 60.7337 145.049C60.0285 147.178 58.7912 148.666 57.3534 148.887V144.536ZM63.0545 135.911C62.5723 136.225 62.0122 136.504 61.3902 136.733C60.9324 135.373 60.2635 134.241 59.4583 133.474C60.8753 133.937 62.1144 134.794 63.0545 135.911ZM59.4583 148.526C60.2635 147.758 60.9341 146.628 61.392 145.266C62.0122 145.496 62.5723 145.773 63.0527 146.089C62.1127 147.204 60.8753 148.061 59.4583 148.526ZM57.3534 133.111C58.7912 133.334 60.0285 134.822 60.7302 136.951C59.7175 137.252 58.57 137.435 57.3534 137.464V133.111ZM60.9271 137.618C61.1916 138.624 61.3451 139.744 61.3522 140.927H57.3534V138.171C58.6372 138.142 59.8472 137.944 60.9271 137.618ZM61.3368 141.634C61.2934 142.61 61.1518 143.537 60.9306 144.382C59.849 144.055 58.6373 143.858 57.3552 143.827V141.634H61.3368Z" fill="#00FCFF"/>
<path fill-rule="evenodd" clip-rule="evenodd" d="M12.3407 87.4239C11.8257 87.0935 11.4828 86.518 11.4828 85.8601C11.4828 84.8331 12.3159 84 13.3468 84C14.3739 84 15.2069 84.8331 15.2069 85.8601C15.2069 86.8903 14.3739 87.7241 13.3468 87.7241C13.0225 87.7241 12.7254 87.6326 12.4618 87.4906C12.4222 87.4666 12.3795 87.4449 12.3407 87.4239ZM3.60076 94.7985C3.60076 96 4.79845 96 4.79845 96V100.799H3.15227C2.63678 100.799 2.1957 100.428 2.106 99.9208L1.20146 94.7985C1.20146 94.7985 0 94.7985 0 93.6008V89.3993C0 88.2008 1.20146 88.2008 1.20146 88.2008H3.74401C3.60379 88.5292 3.60076 88.7985 3.60076 88.7985V94.7985ZM10.2414 85.8601C10.2414 86.8903 9.40757 87.7241 8.37738 87.7241C7.35033 87.7241 6.51727 86.8903 6.51727 85.8601C6.51727 84.8331 7.35033 84 8.37738 84C9.40757 84 10.2414 84.8331 10.2414 85.8601ZM3.60076 87.6007C2.60471 87.6007 1.79849 86.7945 1.79849 85.7985C1.79849 84.8055 2.60471 84 3.60076 84C4.59379 84 5.39925 84.8055 5.39925 85.7985C5.39925 86.4376 5.06845 86.994 4.5705 87.3135C4.53223 87.3338 4.49093 87.3518 4.45569 87.3751C4.20157 87.5123 3.9113 87.6007 3.60076 87.6007ZM16.7986 93.2108C17.6176 94.2215 18.0807 95.5337 17.9884 96.9589C17.8164 99.6152 15.6833 101.777 13.0295 101.983C11.5814 102.096 10.2393 101.631 9.21072 100.798H7.76875C7.35853 100.798 7.00746 100.504 6.93621 100.1L6.00006 94.7984C6.00006 94.7984 4.79845 94.7984 4.79845 93.6008V89.3992C4.79845 88.2008 6.00006 88.2008 6.00006 88.2008H10.7985C12 88.2008 12 89.3992 12 89.3992V91.236C12.1965 91.2128 12.3982 91.2007 12.6008 91.2007C12.8026 91.2007 13.0021 91.2128 13.2016 91.236V88.7986C13.2016 88.7986 13.1986 88.5293 13.0576 88.2008H15.6007C16.7986 88.2008 16.7986 89.3992 16.7986 89.3992V93.2108ZM12.6008 100.798C14.9182 100.795 16.7963 98.9176 16.7986 96.6007C16.7963 94.2802 14.9182 92.4022 12.6008 92.3993C10.2803 92.4022 8.40223 94.2802 8.39921 96.6007C8.40223 98.9176 10.2803 100.795 12.6008 100.798ZM13.2311 95.9655H14.3989H14.8966V98.8965H10.2414V95.9655H10.7355C10.7326 95.8878 10.7274 95.8109 10.7274 95.7252C10.7296 95.3272 10.7785 94.8516 11.0513 94.4025C11.3183 93.9445 11.8894 93.6037 12.569 93.6213C13.2449 93.6037 13.8167 93.9445 14.081 94.4025C14.2804 94.7275 14.3585 95.0659 14.389 95.3792H13.2145C13.1893 95.2325 13.1482 95.1042 13.0943 95.024C12.9925 94.889 12.9386 94.8092 12.569 94.7916C12.1964 94.8092 12.1398 94.889 12.04 95.024C11.9462 95.1639 11.8894 95.4446 11.8924 95.7252C11.8924 95.808 11.8953 95.8878 11.904 95.9655H12.569H13.2311Z" fill="#A4B7C3"/>
<path fill-rule="evenodd" clip-rule="evenodd" d="M12.3407 135.424C11.8257 135.094 11.4828 134.518 11.4828 133.86C11.4828 132.833 12.3159 132 13.3468 132C14.3739 132 15.2069 132.833 15.2069 133.86C15.2069 134.89 14.3739 135.724 13.3468 135.724C13.0225 135.724 12.7254 135.633 12.4618 135.491C12.4222 135.467 12.3795 135.445 12.3407 135.424ZM3.60076 142.798C3.60076 144 4.79845 144 4.79845 144V148.799H3.15227C2.63678 148.799 2.1957 148.428 2.106 147.921L1.20146 142.798C1.20146 142.798 0 142.798 0 141.601V137.399C0 136.201 1.20146 136.201 1.20146 136.201H3.74401C3.60379 136.529 3.60076 136.798 3.60076 136.798V142.798ZM10.2414 133.86C10.2414 134.89 9.40757 135.724 8.37738 135.724C7.35033 135.724 6.51727 134.89 6.51727 133.86C6.51727 132.833 7.35033 132 8.37738 132C9.40757 132 10.2414 132.833 10.2414 133.86ZM3.60076 135.601C2.60471 135.601 1.79849 134.795 1.79849 133.798C1.79849 132.805 2.60471 132 3.60076 132C4.59379 132 5.39925 132.805 5.39925 133.798C5.39925 134.438 5.06845 134.994 4.5705 135.314C4.53223 135.334 4.49093 135.352 4.45569 135.375C4.20157 135.512 3.9113 135.601 3.60076 135.601ZM16.7986 141.211C17.6176 142.222 18.0807 143.534 17.9884 144.959C17.8164 147.615 15.6833 149.777 13.0295 149.983C11.5814 150.096 10.2393 149.631 9.21072 148.798H7.76875C7.35853 148.798 7.00746 148.504 6.93621 148.1L6.00006 142.798C6.00006 142.798 4.79845 142.798 4.79845 141.601V137.399C4.79845 136.201 6.00006 136.201 6.00006 136.201H10.7985C12 136.201 12 137.399 12 137.399V139.236C12.1965 139.213 12.3982 139.201 12.6008 139.201C12.8026 139.201 13.0021 139.213 13.2016 139.236V136.799C13.2016 136.799 13.1986 136.529 13.0576 136.201H15.6007C16.7986 136.201 16.7986 137.399 16.7986 137.399V141.211ZM12.6008 148.798C14.9182 148.795 16.7963 146.918 16.7986 144.601C16.7963 142.28 14.9182 140.402 12.6008 140.399C10.2803 140.402 8.40223 142.28 8.39921 144.601C8.40223 146.918 10.2803 148.795 12.6008 148.798ZM13.2311 143.965H14.3989H14.8966V146.897H10.2414V143.965H10.7355C10.7326 143.888 10.7274 143.811 10.7274 143.725C10.7296 143.327 10.7785 142.852 11.0513 142.403C11.3183 141.945 11.8894 141.604 12.569 141.621C13.2449 141.604 13.8167 141.945 14.081 142.403C14.2804 142.728 14.3585 143.066 14.389 143.379H13.2145C13.1893 143.232 13.1482 143.104 13.0943 143.024C12.9925 142.889 12.9386 142.809 12.569 142.792C12.1964 142.809 12.1398 142.889 12.04 143.024C11.9462 143.164 11.8894 143.445 11.8924 143.725C11.8924 143.808 11.8953 143.888 11.904 143.965H12.569H13.2311Z" fill="#00FCFF"/>
<path fill-rule="evenodd" clip-rule="evenodd" d="M112.875 94.1429H111.75C111.129 94.1429 110.625 93.6312 110.625 93C110.625 92.3688 111.129 91.8571 111.75 91.8571H112.875C113.496 91.8571 114 92.3688 114 93C114 93.6312 113.496 94.1429 112.875 94.1429ZM112.875 88.4286H104.685C104.289 89.1353 103.55 89.5717 102.75 89.5714C101.507 89.5714 100.5 88.5481 100.5 87.2857C100.5 86.0233 101.507 85 102.75 85C103.55 84.9997 104.289 85.4361 104.685 86.1429H112.875C113.496 86.1429 114 86.6545 114 87.2857C114 87.9169 113.496 88.4286 112.875 88.4286ZM98.25 88.4286H97.125C96.5037 88.4286 96 87.9169 96 87.2857C96 86.6545 96.5037 86.1429 97.125 86.1429H98.25C98.8713 86.1429 99.375 86.6545 99.375 87.2857C99.375 87.9169 98.8713 88.4286 98.25 88.4286ZM97.125 91.8571H105.315C105.711 91.1504 106.45 90.714 107.25 90.7143C108.493 90.7143 109.5 91.7376 109.5 93C109.5 94.2624 108.493 95.2857 107.25 95.2857C106.45 95.286 105.711 94.8496 105.315 94.1429H97.125C96.5037 94.1429 96 93.6312 96 93C96 92.3688 96.5037 91.8571 97.125 91.8571ZM97.125 97.5714H98.25C98.8713 97.5714 99.375 98.0831 99.375 98.7143C99.375 99.3455 98.8713 99.8571 98.25 99.8571H97.125C96.5037 99.8571 96 99.3455 96 98.7143C96 98.0831 96.5037 97.5714 97.125 97.5714ZM104.685 97.5714H112.875C113.496 97.5714 114 98.0831 114 98.7143C114 99.3455 113.496 99.8571 112.875 99.8571H104.685C104.289 100.564 103.55 101 102.75 101C101.507 101 100.5 99.9767 100.5 98.7143C100.5 97.4519 101.507 96.4286 102.75 96.4286C103.55 96.4283 104.289 96.8647 104.685 97.5714Z" fill="#A4B7C3"/>
<path fill-rule="evenodd" clip-rule="evenodd" d="M112.875 142.143H111.75C111.129 142.143 110.625 141.631 110.625 141C110.625 140.369 111.129 139.857 111.75 139.857H112.875C113.496 139.857 114 140.369 114 141C114 141.631 113.496 142.143 112.875 142.143ZM112.875 136.429H104.685C104.289 137.135 103.55 137.572 102.75 137.571C101.507 137.571 100.5 136.548 100.5 135.286C100.5 134.023 101.507 133 102.75 133C103.55 133 104.289 133.436 104.685 134.143H112.875C113.496 134.143 114 134.655 114 135.286C114 135.917 113.496 136.429 112.875 136.429ZM98.25 136.429H97.125C96.5037 136.429 96 135.917 96 135.286C96 134.655 96.5037 134.143 97.125 134.143H98.25C98.8713 134.143 99.375 134.655 99.375 135.286C99.375 135.917 98.8713 136.429 98.25 136.429ZM97.125 139.857H105.315C105.711 139.15 106.45 138.714 107.25 138.714C108.493 138.714 109.5 139.738 109.5 141C109.5 142.262 108.493 143.286 107.25 143.286C106.45 143.286 105.711 142.85 105.315 142.143H97.125C96.5037 142.143 96 141.631 96 141C96 140.369 96.5037 139.857 97.125 139.857ZM97.125 145.571H98.25C98.8713 145.571 99.375 146.083 99.375 146.714C99.375 147.345 98.8713 147.857 98.25 147.857H97.125C96.5037 147.857 96 147.345 96 146.714C96 146.083 96.5037 145.571 97.125 145.571ZM104.685 145.571H112.875C113.496 145.571 114 146.083 114 146.714C114 147.345 113.496 147.857 112.875 147.857H104.685C104.289 148.564 103.55 149 102.75 149C101.507 149 100.5 147.977 100.5 146.714C100.5 145.452 101.507 144.429 102.75 144.429C103.55 144.428 104.289 144.865 104.685 145.571Z" fill="#00FCFF"/>
<path fill-rule="evenodd" clip-rule="evenodd" d="M46.2935 195.701C46.0363 195.444 45.9387 195.068 46.0385 194.718C46.1383 194.368 46.9051 191.692 46.9041 191.683C45.0861 188.181 46.0938 183.876 49.2773 181.545C52.4608 179.214 56.8686 179.553 59.6583 182.343C62.4479 185.134 62.7856 189.542 60.4536 192.725C58.1215 195.907 53.8167 196.914 50.3153 195.095L47.2767 195.956C46.927 196.056 46.5506 195.959 46.2935 195.701Z" fill="#4E6D81"/>
<path fill-rule="evenodd" clip-rule="evenodd" d="M54 184.065V189Z" fill="white"/>
<path d="M54 184.065V189" stroke="white" stroke-width="2" stroke-linecap="round"/>
<path d="M54 193C53.4477 193 53 192.552 53 192C53 191.448 53.4477 191 54 191C54.5523 191 55 191.448 55 192C55 192.552 54.5523 193 54 193Z" fill="white"/>
<path fill-rule="evenodd" clip-rule="evenodd" d="M92.2935 195.701C92.0363 195.444 91.9387 195.068 92.0385 194.718C92.1383 194.368 92.9051 191.692 92.9041 191.683C91.0861 188.181 92.0938 183.876 95.2773 181.545C98.4608 179.214 102.869 179.553 105.658 182.343C108.448 185.134 108.786 189.542 106.454 192.725C104.122 195.907 99.8167 196.914 96.3153 195.095L93.2767 195.956C92.927 196.056 92.5506 195.959 92.2935 195.701Z" fill="#4E6D81"/>
<path d="M97.5 190C96.6716 190 96 189.328 96 188.5C96 187.672 96.6716 187 97.5 187C98.3284 187 99 187.672 99 188.5C99 189.328 98.3284 190 97.5 190Z" fill="white"/>
<path d="M102.5 190C101.672 190 101 189.328 101 188.5C101 187.672 101.672 187 102.5 187C103.328 187 104 187.672 104 188.5C104 189.328 103.328 190 102.5 190Z" fill="white"/>
<path fill-rule="evenodd" clip-rule="evenodd" d="M0.293455 195.701C0.0362762 195.444 -0.0613199 195.068 0.0384731 194.718C0.138266 194.368 0.90506 191.692 0.904058 191.683C-0.913897 188.181 0.0938003 183.876 3.27729 181.545C6.46078 179.214 10.8686 179.553 13.6583 182.343C16.4479 185.134 16.7856 189.542 14.4536 192.725C12.1215 195.907 7.81673 196.914 4.31531 195.095L1.27674 195.956C0.926994 196.056 0.550634 195.959 0.293455 195.701Z" fill="#FF0048"/>
<path fill-rule="evenodd" clip-rule="evenodd" d="M8 184.065V189Z" fill="#F8E71C"/>
<path d="M8 184.065V189" stroke="white" stroke-width="2" stroke-linecap="round"/>
<path d="M8 193C7.44772 193 7 192.552 7 192C7 191.448 7.44772 191 8 191C8.55228 191 9 191.448 9 192C9 192.552 8.55228 193 8 193Z" fill="white"/>
<path d="M144 196C148.418 196 152 192.418 152 188C152 183.582 148.418 180 144 180C139.582 180 136 183.582 136 188C136 192.418 139.582 196 144 196Z" fill="#374A57"/>
<path fill-rule="evenodd" clip-rule="evenodd" d="M144 184C141.791 184 140 185.791 140 188C140 190.209 141.791 192 144 192C146.209 192 148 190.209 148 188C148 185.791 146.209 184 144 184ZM145.014 185.464L145.072 185.252C145.098 185.155 145.166 185.075 145.256 185.032C145.347 184.99 145.451 184.989 145.542 185.031C146.168 185.329 146.673 185.836 146.97 186.465C147.012 186.558 147.01 186.665 146.965 186.757C146.92 186.848 146.837 186.915 146.738 186.939L146.523 186.99C146.378 187.027 146.228 186.958 146.16 186.825C145.952 186.395 145.605 186.048 145.177 185.839C145.039 185.77 144.97 185.612 145.012 185.464H145.014ZM141.031 186.458C141.329 185.832 141.836 185.327 142.465 185.03C142.558 184.988 142.665 184.99 142.757 185.035C142.848 185.08 142.915 185.163 142.938 185.262L142.99 185.477C143.027 185.622 142.958 185.772 142.825 185.84C142.395 186.048 142.047 186.395 141.839 186.823C141.77 186.961 141.612 187.03 141.463 186.988L141.252 186.93C141.155 186.904 141.075 186.836 141.032 186.746C140.99 186.655 140.989 186.551 141.031 186.46L141.031 186.458ZM142.986 190.537L142.928 190.748C142.902 190.845 142.835 190.925 142.744 190.968C142.654 191.01 142.549 191.011 142.458 190.969C141.832 190.671 141.328 190.164 141.03 189.535C140.988 189.442 140.99 189.335 141.035 189.243C141.08 189.152 141.163 189.085 141.262 189.062L141.477 189.01C141.622 188.973 141.772 189.042 141.84 189.175C142.048 189.605 142.395 189.953 142.823 190.161C142.961 190.23 143.03 190.388 142.987 190.537H142.986ZM142 188C142 186.895 142.895 186 144 186C145.105 186 146 186.895 146 188C146 189.105 145.105 190 144 190C142.895 190 142 189.105 142 188ZM146.969 189.542C146.67 190.168 146.164 190.672 145.535 190.969C145.442 191.012 145.335 191.01 145.243 190.965C145.151 190.92 145.085 190.837 145.061 190.738L145.01 190.523C144.973 190.378 145.042 190.227 145.175 190.16C145.605 189.951 145.953 189.605 146.161 189.177C146.23 189.039 146.388 188.97 146.537 189.013L146.748 189.07C146.845 189.096 146.925 189.163 146.968 189.254C147.01 189.344 147.011 189.449 146.969 189.539L146.969 189.542Z" fill="#A4B7C3"/>
<path fill-rule="evenodd" clip-rule="evenodd" d="M153.779 237.25C154.331 237.25 154.469 237.559 154.074 237.953L152.246 239.773C153.472 240.995 155.167 241.75 157.04 241.75C160.491 241.75 163.338 239.182 163.762 235.861C163.762 235.861 163.892 235 164.871 235C165.494 235 165.999 235.504 165.999 236.125C165.999 236.211 165.99 236.293 165.972 236.373C165.307 240.691 161.563 244 157.04 244C154.543 244 152.283 242.993 150.648 241.365L148.709 243.294C148.318 243.684 148 243.557 148 243.004V237.757C148 237.477 148.226 237.25 148.51 237.25H153.779ZM160.221 232.75C159.669 232.75 159.531 232.441 159.926 232.047L161.754 230.227C160.527 229.006 158.833 228.25 156.96 228.25C153.509 228.25 150.662 230.818 150.238 234.139C150.238 234.139 150.108 235 149.13 235C148.506 235 148.001 234.496 148.001 233.875C148.001 233.79 148.011 233.708 148.029 233.628C148.693 229.309 152.437 226 156.96 226C159.457 226 161.717 227.007 163.352 228.636L165.291 226.706C165.682 226.316 166 226.443 166 226.996V232.243C166 232.523 165.774 232.75 165.49 232.75H160.221Z" fill="#778690"/>
<path fill-rule="evenodd" clip-rule="evenodd" d="M116.875 230.5V241.75C116.875 242.993 115.868 244 114.625 244H103.375C102.132 244 101.125 242.993 101.125 241.75V230.5C100.504 230.5 100 229.996 100 229.375C100 228.754 100.504 228.25 101.125 228.25H106.75C106.75 227.007 107.757 226 109 226C110.243 226 111.25 227.007 111.25 228.25H116.875C117.496 228.25 118 228.754 118 229.375C118 229.996 117.496 230.5 116.875 230.5ZM114.625 230.5H103.375V241.75H114.625V230.5ZM105.625 231.625C106.246 231.625 106.75 232.129 106.75 232.75V239.5C106.75 240.121 106.246 240.625 105.625 240.625C105.004 240.625 104.5 240.121 104.5 239.5V232.75C104.5 232.129 105.004 231.625 105.625 231.625ZM109 231.625C109.621 231.625 110.125 232.129 110.125 232.75V239.5C110.125 240.121 109.621 240.625 109 240.625C108.379 240.625 107.875 240.121 107.875 239.5V232.75C107.875 232.129 108.379 231.625 109 231.625ZM112.375 231.625C112.996 231.625 113.5 232.129 113.5 232.75V239.5C113.5 240.121 112.996 240.625 112.375 240.625C111.754 240.625 111.25 240.121 111.25 239.5V232.75C111.25 232.129 111.754 231.625 112.375 231.625Z" fill="#778690"/>
<path fill-rule="evenodd" clip-rule="evenodd" d="M289.25 235.516H280.747C280.188 235.516 279.737 234.988 279.737 234.34C279.737 233.691 280.188 233.164 280.747 233.164L282.375 232.875V225L280.747 224.695C280.188 224.695 279.737 224.168 279.737 223.52C279.737 222.871 280.188 222.344 280.747 222.344H287.347C287.549 222.344 287.614 222.26 287.643 222.191C287.635 222.231 287.625 222.267 287.625 222.375V232.875L289.25 233.164C289.809 233.164 290.263 233.691 290.263 234.34C290.263 234.988 289.809 235.516 289.25 235.516ZM282.375 214.5H284.948C284.966 214.5 284.982 214.49 285 214.49C285.018 214.49 285.034 214.5 285.052 214.5H287.625V216.967C287.628 217.025 287.656 217.072 287.656 217.128C287.656 217.185 287.628 217.233 287.625 217.288V219.75H285.087C285.055 219.753 285.029 219.768 285 219.768C284.968 219.768 284.942 219.753 284.913 219.75H282.375V217.285C282.37 217.23 282.341 217.185 282.341 217.128C282.341 217.072 282.37 217.025 282.375 216.97V214.5ZM285 204C273.4 204 264 213.403 264 225C264 236.597 273.4 246 285 246C296.597 246 306 236.597 306 225C306 213.403 296.597 204 285 204Z" fill="#A4B7C3"/>
<g clip-path="url(#clip0_215_114)">
<path d="M152.773 144.711C152.773 142.492 154.571 140.694 156.789 140.694C159.008 140.694 160.806 142.492 160.806 144.711C160.806 146.929 159.008 148.727 156.789 148.727C154.571 148.727 152.773 146.929 152.773 144.711Z" stroke="#00FCFF" stroke-width="1.5" stroke-linecap="round" stroke-linejoin="round"/>
<path d="M156.572 143.664C156.255 143.503 155.878 143.734 155.878 144.09V145.331C155.878 145.687 156.255 145.918 156.572 145.757L157.784 145.136C158.131 144.958 158.131 144.463 157.784 144.285L156.572 143.664Z" fill="#00FCFF"/>
<path d="M151.172 141.401C150.437 140.973 150.27 139.981 150.825 139.338L152.857 136.985C153.096 136.708 153.498 136.641 153.814 136.825C154.13 137.008 154.272 137.391 154.151 137.737L153.128 140.676C152.848 141.479 151.907 141.828 151.172 141.401Z" fill="#00FCFF"/>
<path d="M148.242 145.65C146.579 144.424 145.5 142.454 145.5 140.232C145.5 136.514 148.522 133.5 152.25 133.5C155.978 133.5 159 136.514 159 140.232C159 140.622 158.967 141.004 158.903 141.375" stroke="#00FCFF" stroke-width="1.8"/>
</g>
<g clip-path="url(#clip1_215_114)">
<path d="M152.773 96.7106C152.773 94.4918 154.571 92.6941 156.789 92.6941C159.008 92.6941 160.806 94.4918 160.806 96.7106C160.806 98.9294 159.008 100.727 156.789 100.727C154.571 100.727 152.773 98.9294 152.773 96.7106Z" stroke="#A4B7C3" stroke-width="1.5" stroke-linecap="round" stroke-linejoin="round"/>
<path d="M156.572 95.6641C156.255 95.5034 155.878 95.7335 155.878 96.0896V97.3314C155.878 97.6875 156.255 97.9176 156.572 97.7569L157.784 97.136C158.131 96.958 158.131 96.463 157.784 96.285L156.572 95.6641Z" fill="#A4B7C3"/>
<path d="M151.172 93.4007C150.437 92.9734 150.27 91.9813 150.825 91.3379L152.857 88.9848C153.096 88.7082 153.498 88.641 153.814 88.8247C154.13 89.0085 154.272 89.3913 154.151 89.7368L153.128 92.6758C152.848 93.4794 151.907 93.828 151.172 93.4007Z" fill="#A4B7C3"/>
<path d="M148.242 97.65C146.579 96.4238 145.5 94.4537 145.5 92.2323C145.5 88.5142 148.522 85.5 152.25 85.5C155.978 85.5 159 88.5142 159 92.2323C159 92.6219 158.967 93.0036 158.903 93.375" stroke="#A4B7C3" stroke-width="1.8"/>
</g>
<defs>
<clipPath id="clip0_215_114">
<rect width="18" height="18" fill="white" transform="translate(144 132)"/>
</clipPath>
<clipPath id="clip1_215_114">
<rect width="18" height="18" fill="white" transform="translate(144 84)"/>
</clipPath>
</defs>
</svg>
