<?xml version="1.0" encoding="UTF-8"?>
<svg width="389px" height="22px" viewBox="0 0 389 22" version="1.1" xmlns="http://www.w3.org/2000/svg" xmlns:xlink="http://www.w3.org/1999/xlink">
    <title>Artboard</title>
    <defs>
        <path d="M3.882,0.173 C3.652,0.173 3.463,0.363 3.463,0.595 L3.463,0.595 L3.463,2.731 L0.643,2.731 C0.41,2.731 0.221,2.92 0.221,3.152 L0.221,3.152 L0.221,9.82 C0.221,10.053 0.41,10.24 0.643,10.24 L0.643,10.24 L12.706,10.24 C12.94,10.24 13.126,10.053 13.126,9.82 L13.126,9.82 L13.126,3.152 C13.126,2.92 12.94,2.731 12.706,2.731 L12.706,2.731 L9.885,2.731 L9.885,0.595 C9.885,0.363 9.698,0.173 9.466,0.173 L9.466,0.173 L3.882,0.173 Z M1.063,3.574 L3.882,3.574 C4.113,3.574 4.301,3.385 4.301,3.152 L4.301,3.152 L4.301,1.014 L9.045,1.014 L9.045,3.152 C9.045,3.385 9.234,3.574 9.466,3.574 L9.466,3.574 L12.286,3.574 L12.286,9.4 L10.512,9.4 L10.512,6.117 C10.512,5.885 10.323,5.696 10.093,5.696 L10.093,5.696 C9.86,5.696 9.671,5.885 9.671,6.117 L9.671,6.117 L9.671,9.4 L8.234,9.4 L8.234,6.117 C8.234,5.885 8.045,5.696 7.813,5.696 L7.813,5.696 C7.583,5.696 7.394,5.885 7.394,6.117 L7.394,6.117 L7.394,9.4 L5.954,9.4 L5.954,6.117 C5.954,5.885 5.767,5.696 5.535,5.696 L5.535,5.696 C5.303,5.696 5.114,5.885 5.114,6.117 L5.114,6.117 L5.114,9.4 L3.676,9.4 L3.676,6.117 C3.676,5.885 3.487,5.696 3.257,5.696 L3.257,5.696 C3.023,5.696 2.837,5.885 2.837,6.117 L2.837,6.117 L2.837,9.4 L1.063,9.4 L1.063,3.574 Z" id="path-1"></path>
        <path d="M1.581,0.625 C1.181,0.701 0.919,1.081 0.996,1.473 L0.996,1.473 C1.074,1.863 1.464,2.118 1.866,2.044 L1.866,2.044 C4.637,1.516 7.332,3.282 7.874,5.982 L7.874,5.982 C7.913,6.176 8.029,6.339 8.187,6.441 L8.187,6.441 C8.344,6.545 8.542,6.588 8.742,6.55 L8.742,6.55 C9.142,6.474 9.404,6.095 9.327,5.702 L9.327,5.702 C8.713,2.636 5.945,0.504 2.853,0.504 L2.853,0.504 C2.434,0.504 2.008,0.543 1.581,0.625 L1.581,0.625 Z" id="path-3"></path>
        <path d="M1.125,0.332 C0.725,0.408 0.463,0.787 0.539,1.18 L0.539,1.18 C0.618,1.569 1.007,1.825 1.41,1.75 L1.41,1.75 C2.648,1.512 3.854,2.303 4.094,3.509 L4.094,3.509 C4.133,3.704 4.249,3.866 4.406,3.97 L4.406,3.97 C4.564,4.072 4.762,4.116 4.962,4.079 L4.962,4.079 C5.361,4.002 5.624,3.622 5.545,3.233 L5.545,3.233 C5.198,1.481 3.617,0.263 1.85,0.263 L1.85,0.263 C1.611,0.263 1.369,0.286 1.125,0.332 L1.125,0.332 Z" id="path-5"></path>
        <path d="M1.032,0.873 C0.631,0.95 0.369,1.33 0.446,1.722 L0.446,1.722 C0.524,2.112 0.913,2.367 1.316,2.293 L1.316,2.293 C5.641,1.466 9.85,4.224 10.698,8.441 L10.698,8.441 C10.736,8.636 10.852,8.798 11.01,8.901 L11.01,8.901 C11.166,9.005 11.365,9.048 11.564,9.01 L11.564,9.01 C11.965,8.934 12.227,8.555 12.15,8.162 L12.15,8.162 C11.265,3.762 7.289,0.701 2.851,0.701 L2.851,0.701 C2.251,0.701 1.642,0.757 1.032,0.873 L1.032,0.873 Z" id="path-7"></path>
        <polygon id="path-9" points="0 25 388.782 25 388.782 0.203 0 0.203"></polygon>
        <path d="M1.581,0.625 C1.181,0.701 0.919,1.081 0.996,1.473 L0.996,1.473 C1.074,1.863 1.464,2.118 1.866,2.044 L1.866,2.044 C4.637,1.516 7.332,3.282 7.874,5.982 L7.874,5.982 C7.913,6.176 8.029,6.339 8.187,6.441 L8.187,6.441 C8.344,6.545 8.542,6.588 8.742,6.55 L8.742,6.55 C9.142,6.474 9.404,6.095 9.327,5.702 L9.327,5.702 C8.713,2.636 5.945,0.504 2.853,0.504 L2.853,0.504 C2.434,0.504 2.008,0.543 1.581,0.625 L1.581,0.625 Z" id="path-11"></path>
        <path d="M1.125,0.332 C0.725,0.408 0.463,0.787 0.539,1.18 L0.539,1.18 C0.618,1.569 1.007,1.825 1.41,1.75 L1.41,1.75 C2.648,1.512 3.854,2.303 4.094,3.509 L4.094,3.509 C4.133,3.704 4.249,3.866 4.406,3.97 L4.406,3.97 C4.564,4.072 4.762,4.116 4.962,4.079 L4.962,4.079 C5.361,4.002 5.624,3.622 5.545,3.233 L5.545,3.233 C5.198,1.481 3.617,0.263 1.85,0.263 L1.85,0.263 C1.611,0.263 1.369,0.286 1.125,0.332 L1.125,0.332 Z" id="path-13"></path>
        <path d="M1.032,0.873 C0.631,0.95 0.369,1.33 0.446,1.722 L0.446,1.722 C0.524,2.112 0.913,2.367 1.316,2.293 L1.316,2.293 C5.641,1.466 9.85,4.224 10.698,8.441 L10.698,8.441 C10.736,8.636 10.852,8.798 11.01,8.901 L11.01,8.901 C11.166,9.005 11.365,9.048 11.564,9.01 L11.564,9.01 C11.965,8.934 12.227,8.555 12.15,8.162 L12.15,8.162 C11.265,3.762 7.289,0.701 2.851,0.701 L2.851,0.701 C2.251,0.701 1.642,0.757 1.032,0.873 L1.032,0.873 Z" id="path-15"></path>
        <path d="M0.677,0.625 C0.276,0.701 0.014,1.081 0.092,1.473 L0.092,1.473 C0.17,1.863 0.56,2.118 0.962,2.044 L0.962,2.044 C3.732,1.516 6.428,3.282 6.969,5.982 L6.969,5.982 C7.009,6.176 7.125,6.339 7.282,6.441 L7.282,6.441 C7.439,6.545 7.637,6.588 7.838,6.55 L7.838,6.55 C8.238,6.474 8.5,6.095 8.423,5.702 L8.423,5.702 C7.809,2.636 5.04,0.504 1.948,0.504 L1.948,0.504 C1.529,0.504 1.104,0.543 0.677,0.625 L0.677,0.625 Z" id="path-17"></path>
        <path d="M1.22,0.332 C0.821,0.408 0.559,0.787 0.634,1.18 L0.634,1.18 C0.714,1.569 1.102,1.825 1.505,1.75 L1.505,1.75 C2.743,1.512 3.948,2.303 4.189,3.509 L4.189,3.509 C4.228,3.704 4.343,3.866 4.502,3.97 L4.502,3.97 C4.658,4.072 4.856,4.116 5.057,4.079 L5.057,4.079 C5.457,4.002 5.719,3.622 5.64,3.233 L5.64,3.233 C5.292,1.481 3.711,0.263 1.945,0.263 L1.945,0.263 C1.706,0.263 1.464,0.286 1.22,0.332 L1.22,0.332 Z" id="path-19"></path>
        <path d="M1.127,0.873 C0.726,0.95 0.464,1.33 0.541,1.722 L0.541,1.722 C0.619,2.112 1.009,2.367 1.411,2.293 L1.411,2.293 C5.738,1.466 9.945,4.224 10.792,8.441 L10.792,8.441 C10.831,8.636 10.948,8.798 11.104,8.901 L11.104,8.901 C11.262,9.005 11.46,9.048 11.66,9.01 L11.66,9.01 C12.061,8.934 12.322,8.555 12.246,8.162 L12.246,8.162 C11.361,3.762 7.385,0.701 2.947,0.701 L2.947,0.701 C2.346,0.701 1.738,0.757 1.127,0.873 L1.127,0.873 Z" id="path-21"></path>
        <path d="M0.677,0.625 C0.276,0.701 0.014,1.081 0.092,1.473 L0.092,1.473 C0.17,1.863 0.56,2.118 0.962,2.044 L0.962,2.044 C3.732,1.516 6.428,3.282 6.969,5.982 L6.969,5.982 C7.009,6.176 7.125,6.339 7.282,6.441 L7.282,6.441 C7.439,6.545 7.637,6.588 7.838,6.55 L7.838,6.55 C8.238,6.474 8.5,6.095 8.423,5.702 L8.423,5.702 C7.809,2.636 5.04,0.504 1.948,0.504 L1.948,0.504 C1.529,0.504 1.104,0.543 0.677,0.625 L0.677,0.625 Z" id="path-23"></path>
        <path d="M1.22,0.332 C0.821,0.408 0.559,0.787 0.634,1.18 L0.634,1.18 C0.714,1.569 1.102,1.825 1.505,1.75 L1.505,1.75 C2.743,1.512 3.948,2.303 4.189,3.509 L4.189,3.509 C4.228,3.704 4.343,3.866 4.502,3.97 L4.502,3.97 C4.658,4.072 4.856,4.116 5.057,4.079 L5.057,4.079 C5.457,4.002 5.719,3.622 5.64,3.233 L5.64,3.233 C5.292,1.481 3.711,0.263 1.945,0.263 L1.945,0.263 C1.706,0.263 1.464,0.286 1.22,0.332 L1.22,0.332 Z" id="path-25"></path>
        <path d="M1.127,0.873 C0.726,0.95 0.464,1.33 0.541,1.722 L0.541,1.722 C0.619,2.112 1.009,2.367 1.411,2.293 L1.411,2.293 C5.738,1.466 9.945,4.224 10.792,8.441 L10.792,8.441 C10.831,8.636 10.948,8.798 11.104,8.901 L11.104,8.901 C11.262,9.005 11.46,9.048 11.66,9.01 L11.66,9.01 C12.061,8.934 12.322,8.555 12.246,8.162 L12.246,8.162 C11.361,3.762 7.385,0.701 2.947,0.701 L2.947,0.701 C2.346,0.701 1.738,0.757 1.127,0.873 L1.127,0.873 Z" id="path-27"></path>
        <path d="M0.773,0.625 C0.373,0.701 0.11,1.081 0.188,1.473 L0.188,1.473 C0.265,1.863 0.655,2.118 1.057,2.043 L1.057,2.043 C3.828,1.516 6.523,3.282 7.066,5.982 L7.066,5.982 C7.104,6.176 7.22,6.339 7.378,6.441 L7.378,6.441 C7.535,6.545 7.733,6.588 7.933,6.55 L7.933,6.55 C8.333,6.474 8.596,6.095 8.518,5.702 L8.518,5.702 C7.905,2.636 5.136,0.504 2.044,0.504 L2.044,0.504 C1.625,0.504 1.2,0.543 0.773,0.625 L0.773,0.625 Z" id="path-29"></path>
        <path d="M1.316,0.332 C0.916,0.408 0.654,0.787 0.731,1.18 L0.731,1.18 C0.81,1.569 1.199,1.825 1.602,1.75 L1.602,1.75 C2.839,1.512 4.045,2.303 4.286,3.509 L4.286,3.509 C4.324,3.704 4.44,3.867 4.598,3.97 L4.598,3.97 C4.755,4.072 4.953,4.116 5.152,4.079 L5.152,4.079 C5.553,4.002 5.816,3.622 5.736,3.233 L5.736,3.233 C5.389,1.481 3.808,0.263 2.042,0.263 L2.042,0.263 C1.803,0.263 1.56,0.286 1.316,0.332 L1.316,0.332 Z" id="path-31"></path>
        <path d="M1.223,0.873 C0.822,0.95 0.561,1.33 0.637,1.722 L0.637,1.722 C0.714,2.112 1.104,2.367 1.507,2.293 L1.507,2.293 C5.833,1.466 10.041,4.224 10.889,8.441 L10.889,8.441 C10.928,8.636 11.043,8.798 11.2,8.901 L11.2,8.901 C11.357,9.005 11.556,9.048 11.756,9.01 L11.756,9.01 C12.156,8.934 12.418,8.555 12.342,8.162 L12.342,8.162 C11.457,3.762 7.481,0.701 3.043,0.701 L3.043,0.701 C2.442,0.701 1.834,0.757 1.223,0.873 L1.223,0.873 Z" id="path-33"></path>
        <polygon id="path-35" points="0 25 388.782 25 388.782 0.203 0 0.203"></polygon>
        <path d="M0.868,0.625 C0.468,0.701 0.206,1.081 0.282,1.473 L0.282,1.473 C0.361,1.863 0.75,2.118 1.153,2.043 L1.153,2.043 C3.923,1.516 6.618,3.282 7.16,5.982 L7.16,5.982 C7.199,6.176 7.316,6.339 7.472,6.441 L7.472,6.441 C7.63,6.545 7.828,6.588 8.029,6.55 L8.029,6.55 C8.429,6.474 8.69,6.095 8.615,5.702 L8.615,5.702 C8,2.636 5.231,0.504 2.14,0.504 L2.14,0.504 C1.72,0.504 1.295,0.543 0.868,0.625 L0.868,0.625 Z" id="path-37"></path>
        <path d="M1.411,0.332 C1.011,0.408 0.749,0.787 0.826,1.18 L0.826,1.18 C0.904,1.569 1.294,1.825 1.696,1.75 L1.696,1.75 C2.934,1.512 4.14,2.303 4.38,3.509 L4.38,3.509 C4.419,3.704 4.535,3.867 4.692,3.97 L4.692,3.97 C4.85,4.072 5.048,4.116 5.248,4.079 L5.248,4.079 C5.648,4.002 5.91,3.622 5.832,3.233 L5.832,3.233 C5.484,1.481 3.903,0.263 2.136,0.263 L2.136,0.263 C1.897,0.263 1.654,0.286 1.411,0.332 L1.411,0.332 Z" id="path-39"></path>
        <path d="M1.317,0.873 C0.917,0.95 0.655,1.33 0.731,1.722 L0.731,1.722 C0.811,2.112 1.199,2.367 1.603,2.293 L1.603,2.293 C5.928,1.466 10.136,4.224 10.983,8.441 L10.983,8.441 C11.022,8.636 11.139,8.798 11.296,8.901 L11.296,8.901 C11.453,9.005 11.651,9.048 11.852,9.01 L11.852,9.01 C12.251,8.934 12.513,8.555 12.437,8.162 L12.437,8.162 C11.551,3.762 7.576,0.701 3.137,0.701 L3.137,0.701 C2.537,0.701 1.928,0.757 1.317,0.873 L1.317,0.873 Z" id="path-41"></path>
        <polygon id="path-43" points="0 25 388.782 25 388.782 0.203 0 0.203"></polygon>
        <path d="M0.963,0.625 C0.562,0.701 0.301,1.081 0.377,1.473 L0.377,1.473 C0.456,1.863 0.845,2.118 1.248,2.043 L1.248,2.043 C4.017,1.516 6.713,3.282 7.256,5.982 L7.256,5.982 C7.295,6.176 7.41,6.339 7.568,6.441 L7.568,6.441 C7.724,6.545 7.923,6.588 8.123,6.55 L8.123,6.55 C8.523,6.474 8.785,6.095 8.709,5.702 L8.709,5.702 C8.095,2.636 5.326,0.504 2.234,0.504 L2.234,0.504 C1.815,0.504 1.39,0.543 0.963,0.625 L0.963,0.625 Z" id="path-45"></path>
        <path d="M1.507,0.332 C1.107,0.408 0.845,0.787 0.921,1.18 L0.921,1.18 C0.999,1.569 1.388,1.825 1.791,1.75 L1.791,1.75 C3.029,1.512 4.234,2.303 4.474,3.509 L4.474,3.509 C4.514,3.704 4.63,3.867 4.787,3.97 L4.787,3.97 C4.944,4.072 5.142,4.116 5.343,4.079 L5.343,4.079 C5.743,4.002 6.005,3.622 5.927,3.233 L5.927,3.233 C5.578,1.481 3.997,0.263 2.232,0.263 L2.232,0.263 C1.993,0.263 1.75,0.286 1.507,0.332 L1.507,0.332 Z" id="path-47"></path>
        <path d="M1.412,0.873 C1.011,0.95 0.75,1.33 0.827,1.722 L0.827,1.722 C0.905,2.112 1.295,2.367 1.697,2.293 L1.697,2.293 C6.022,1.466 10.232,4.224 11.078,8.441 L11.078,8.441 C11.117,8.636 11.234,8.798 11.391,8.901 L11.391,8.901 C11.548,9.005 11.747,9.048 11.946,9.01 L11.946,9.01 C12.347,8.934 12.609,8.555 12.531,8.162 L12.531,8.162 C11.646,3.762 7.671,0.701 3.232,0.701 L3.232,0.701 C2.631,0.701 2.023,0.757 1.412,0.873 L1.412,0.873 Z" id="path-49"></path>
        <path d="M5.789,0.748 L0.25,8.327 C0.152,8.463 0.102,8.592 0.102,8.714 L0.102,8.714 C0.102,8.828 0.141,8.923 0.215,8.997 L0.215,8.997 C0.291,9.072 0.385,9.11 0.496,9.11 L0.496,9.11 L3.923,9.11 L2.077,14.514 C2.005,14.713 2.007,14.876 2.087,15.001 L2.087,15.001 C2.165,15.126 2.276,15.192 2.42,15.199 L2.42,15.199 C2.564,15.207 2.695,15.128 2.814,14.964 L2.814,14.964 L8.352,7.384 C8.451,7.241 8.499,7.113 8.499,6.999 L8.499,6.999 C8.499,6.884 8.461,6.789 8.386,6.714 L8.386,6.714 C8.31,6.639 8.217,6.602 8.107,6.602 L8.107,6.602 L4.679,6.602 L6.525,1.188 C6.596,0.988 6.594,0.825 6.516,0.7 L6.516,0.7 C6.436,0.575 6.326,0.51 6.182,0.507 L6.182,0.507 C6.178,0.507 6.175,0.507 6.172,0.507 L6.172,0.507 C6.031,0.507 5.904,0.587 5.789,0.748 L5.789,0.748 Z" id="path-51"></path>
    </defs>
    <g id="Artboard" stroke="none" stroke-width="1" fill="none" fill-rule="evenodd">
        <g id="Group-133" transform="translate(0.000000, -4.000000)">
            <g id="Group-21" transform="translate(0.000000, 4.796700)">
                <path d="M305.4951,9.4891 C306.3921,8.6471 307.9581,8.6471 308.8551,9.4891 L309.4161,10.0141 L310.5361,8.9641 L309.9751,8.4391 C309.2281,7.7381 308.2331,7.3511 307.1761,7.3511 C306.1171,7.3511 305.1221,7.7381 304.3751,8.4391 L302.6931,10.0141 C301.1501,11.4651 301.1501,13.8141 302.6931,15.2651 C303.4351,15.9621 304.4431,16.3521 305.4941,16.3511 C306.5451,16.3531 307.5541,15.9621 308.2961,15.2651 L308.8551,14.7401 L307.7351,13.6901 L307.1761,14.2151 C306.2461,15.0821 304.7431,15.0821 303.8131,14.2151 C302.8881,13.3441 302.8881,11.9351 303.8131,11.0641 L305.4951,9.4891 Z" id="Fill-1" fill="#FFFFFF"></path>
                <path d="M310.6973,12.263 L312.3793,10.688 C313.9223,9.236 313.9223,6.888 312.3793,5.436 C310.8303,3.989 308.3243,3.989 306.7763,5.436 L306.2173,5.962 L307.3373,7.012 L307.8963,6.487 C308.8263,5.619 310.3293,5.619 311.2593,6.487 C312.1843,7.358 312.1843,8.767 311.2593,9.638 L309.5773,11.213 C308.6793,12.054 307.1143,12.054 306.2173,11.213 L305.6563,10.688 L304.5363,11.738 L305.0963,12.263 C305.8433,12.964 306.8393,13.351 307.8963,13.351 C308.9553,13.351 309.9503,12.964 310.6973,12.263" id="Fill-3" fill="#FFFFFF"></path>
                <path d="M350.959,10.1824 C350.96,9.0064 350.579,7.8574 349.866,6.8854 C349.856,6.8694 349.85,6.8524 349.838,6.8374 C349.753,6.7234 349.659,6.6154 349.566,6.5084 C349.556,6.4954 349.546,6.4824 349.534,6.4694 C348.914,5.7594 348.12,5.1994 347.219,4.8334 L347.146,4.8024 C347.002,4.7474 346.856,4.6974 346.709,4.6514 C346.655,4.6354 346.604,4.6174 346.549,4.6014 C346.421,4.5664 346.29,4.5344 346.159,4.5074 C346.087,4.4914 346.015,4.4744 345.94,4.4604 C345.904,4.4534 345.87,4.4444 345.834,4.4374 C345.736,4.4224 345.638,4.4154 345.54,4.4034 C345.472,4.3954 345.405,4.3854 345.337,4.3784 C345.173,4.3654 345.009,4.3574 344.845,4.3554 C344.815,4.3554 344.786,4.3504 344.756,4.3504 L344.74,4.3524 C343.472,4.3524 342.233,4.7214 341.2,5.4054 C340.862,5.6274 340.78,6.0634 341.016,6.3804 C341.128,6.5324 341.301,6.6364 341.496,6.6684 C341.69,6.7004 341.892,6.6584 342.053,6.5524 C342.852,6.0234 343.811,5.7434 344.791,5.7524 C344.932,5.7534 345.068,5.7594 345.205,5.7724 L345.331,5.7864 C345.442,5.8014 345.554,5.8154 345.663,5.8354 C345.712,5.8444 345.759,5.8554 345.807,5.8664 C345.914,5.8884 346.021,5.9134 346.126,5.9424 L346.225,5.9744 C346.345,6.0114 346.463,6.0514 346.579,6.0964 C346.591,6.1004 346.603,6.1064 346.613,6.1114 C347.305,6.3914 347.914,6.8204 348.391,7.3644 L348.399,7.3744 C349.093,8.1684 349.471,9.1604 349.47,10.1824 L348.377,10.1824 C348.348,10.1824 348.32,10.1974 348.307,10.2214 C348.292,10.2454 348.294,10.2744 348.311,10.2974 L350.148,12.8884 C350.163,12.9094 350.188,12.9224 350.215,12.9224 C350.242,12.9224 350.267,12.9094 350.281,12.8884 L352.118,10.2974 C352.135,10.2744 352.136,10.2454 352.122,10.2214 C352.108,10.1974 352.081,10.1824 352.052,10.1824 L350.959,10.1824 M347.211,14.1474 C346.406,14.6794 345.438,14.9594 344.45,14.9464 C344.321,14.9444 344.192,14.9384 344.064,14.9284 C344.013,14.9234 343.961,14.9144 343.908,14.9094 C343.809,14.8974 343.709,14.8834 343.61,14.8664 C343.55,14.8554 343.49,14.8414 343.433,14.8284 C343.337,14.8074 343.242,14.7854 343.148,14.7594 C343.104,14.7464 343.06,14.7324 343.016,14.7174 C342.906,14.6834 342.8,14.6494 342.695,14.6074 L342.625,14.5784 C342.498,14.5264 342.372,14.4694 342.25,14.4074 C341.856,14.2044 341.495,13.9504 341.178,13.6524 L341.163,13.6374 C341.064,13.5434 340.971,13.4464 340.881,13.3454 L340.826,13.2794 C340.156,12.4934 339.792,11.5204 339.792,10.5174 L340.886,10.5174 C340.915,10.5184 340.942,10.5034 340.956,10.4794 C340.971,10.4554 340.969,10.4264 340.952,10.4034 L339.115,7.8134 C339.101,7.7924 339.075,7.7794 339.049,7.7794 C339.021,7.7794 338.997,7.7924 338.982,7.8134 L337.146,10.4034 C337.129,10.4264 337.127,10.4554 337.141,10.4794 C337.155,10.5034 337.183,10.5184 337.212,10.5174 L338.305,10.5174 C338.305,11.7454 338.711,12.8824 339.402,13.8234 C339.41,13.8354 339.417,13.8494 339.426,13.8624 C339.498,13.9584 339.577,14.0474 339.654,14.1384 C339.683,14.1724 339.71,14.2084 339.739,14.2414 C339.852,14.3714 339.973,14.4924 340.096,14.6104 L340.13,14.6444 C340.542,15.0324 341.012,15.3634 341.524,15.6264 C341.538,15.6344 341.55,15.6414 341.565,15.6484 C341.713,15.7234 341.863,15.7894 342.016,15.8534 C342.055,15.8694 342.092,15.8864 342.131,15.9014 C342.262,15.9524 342.396,15.9974 342.531,16.0404 C342.595,16.0604 342.658,16.0814 342.724,16.0994 C342.842,16.1324 342.964,16.1614 343.085,16.1874 C343.167,16.2054 343.246,16.2244 343.329,16.2394 C343.363,16.2464 343.396,16.2564 343.43,16.2604 C343.544,16.2804 343.66,16.2904 343.775,16.3034 C343.817,16.3084 343.857,16.3154 343.899,16.3194 C344.105,16.3384 344.313,16.3504 344.519,16.3504 C345.79,16.3494 347.029,15.9804 348.064,15.2934 C348.4,15.0694 348.482,14.6364 348.247,14.3194 C348.136,14.1674 347.963,14.0634 347.768,14.0314 C347.573,13.9994 347.372,14.0414 347.211,14.1474" id="Fill-5" fill="#FFFFFF"></path>
                <line x1="375.4648" y1="4.1453" x2="387.9888" y2="15.8253" id="Stroke-7" stroke="#253238" stroke-width="1.121" stroke-linecap="square"></line>
                <path d="M379.8437,9.7488 C380.6537,8.9148 382.0657,8.9148 382.8747,9.7488 L383.3807,10.2698 L384.3917,9.2278 L383.8857,8.7068 C383.2117,8.0118 382.3147,7.6278 381.3597,7.6278 C380.4047,7.6278 379.5067,8.0118 378.8327,8.7068 L377.3167,10.2698 C375.9237,11.7098 375.9237,14.0398 377.3167,15.4788 C377.9857,16.1698 378.8957,16.5578 379.8427,16.5558173 C380.7907,16.5588 381.6997,16.1708 382.3697,15.4788 L382.8747,14.9578 L381.8647,13.9158 L381.3597,14.4368 C380.5207,15.2978 379.1647,15.2978 378.3267,14.4368 C377.4907,13.5738 377.4907,12.1758 378.3267,11.3108 L379.8437,9.7488 Z" id="Fill-9" fill="#253238"></path>
                <path d="M385.3105,12.1287 L386.8275,10.5667 C388.2195,9.1267 388.2195,6.7967 386.8275,5.3577 C385.4305,3.9207 383.1695,3.9207 381.7725,5.3577 L381.2675,5.8777 L382.2785,6.9197 L382.7835,6.3987 C383.6225,5.5387 384.9775,5.5387 385.8165,6.3987 C386.6515,7.2627 386.6515,8.6607 385.8165,9.5247 L384.2995,11.0867 C383.4895,11.9217 382.0775,11.9217 381.2675,11.0867 L380.7625,10.5667 L379.7515,11.6077 L380.2565,12.1287 C380.9305,12.8247 381.8295,13.2087 382.7835,13.2087 C383.7385,13.2087 384.6355,12.8247 385.3105,12.1287" id="Fill-11" fill="#253238"></path>
                <polygon id="Stroke-13" stroke="#FFFFFF" stroke-width="1.173" stroke-linecap="round" stroke-linejoin="round" points="10.7729 7.3582 8.9779 7.3582 7.1819 7.3582 8.9779 7.3582"></polygon>
                <polygon id="Stroke-15" stroke="#FFFFFF" stroke-width="1.173" stroke-linecap="round" stroke-linejoin="round" points="14.9624 10.2986 11.0724 10.2986 7.1824 10.2986 11.0724 10.2986"></polygon>
                <polygon id="Stroke-17" stroke="#FFFFFF" stroke-width="1.173" stroke-linecap="round" stroke-linejoin="round" points="13.167 13.2391 10.174 13.2391 7.182 13.2391 10.174 13.2391"></polygon>
                <path d="M10.8481,19.927 C6.3871,19.927 1.5711,16.267 1.5711,10.357 L1.5711,9.902 L1.0961,9.926 C1.0511,9.927 0.7721,9.933 0.4511,9.933 C0.2701,9.933 0.1221,9.931 0.0001,9.928 C0.5261,9.051 1.6881,7.272 2.2791,6.413 C2.5981,6.885 3.2521,7.874 4.5711,9.94 C4.5001,9.942 4.4211,9.943 4.3291,9.943 C4.1181,9.943 3.9051,9.936 3.7341,9.931 L2.9831,9.923 L2.9831,10.357 C2.9811,12.545 3.8261,14.588 5.3601,16.11 C6.8291,17.567 8.8201,18.402 10.8201,18.402 C12.3941,18.402 13.9311,17.889 15.2651,16.919 C15.3961,16.825 15.5271,16.777 15.6551,16.777 C15.9291,16.777 16.2091,17.007 16.3221,17.325 C16.4421,17.662 16.3401,17.981 16.0431,18.198 C14.4951,19.329 12.6991,19.927 10.8481,19.927 M19.2901,14.317 C18.9731,13.848 18.3211,12.863 16.9941,10.788 L18.5721,10.788 L18.5721,10.357 C18.5761,8.108 17.6911,6.024 16.0851,4.491 C14.6311,3.105 12.6841,2.31 10.7431,2.31 C9.1661,2.31 7.6281,2.823 6.2931,3.795 C6.1611,3.891 6.0261,3.941 5.8961,3.941 C5.6261,3.941 5.3481,3.711 5.2371,3.393 C5.1161,3.051 5.2181,2.732 5.5141,2.517 C7.0791,1.377 8.8821,0.775 10.7271,0.775 C13.0731,0.775 15.4131,1.756 17.1471,3.468 C18.9801,5.277 19.9881,7.724 19.9871,10.357 L19.9861,10.79 C19.9861,10.79 20.9351,10.78 21.1991,10.78 C21.3331,10.78 21.4481,10.782 21.5461,10.783 C21.2301,11.305 20.5871,12.327 19.2901,14.317" id="Fill-19" fill="#FFFFFF"></path>
            </g>
            <g id="Group-24" transform="translate(41.000000, 9.796700)">
                <mask id="mask-2" fill="white">
                    <use xlink:href="#path-1"></use>
                </mask>
                <g id="Clip-23"></g>
                <polygon id="Fill-22" fill="#43B9EB" mask="url(#mask-2)" points="-3.277 13.738 16.624 13.738 16.624 -3.325 -3.277 -3.325"></polygon>
            </g>
            <g id="Group-31" transform="translate(37.000000, 3.796700)" fill="#43B9EB">
                <path d="M3.2837,2.115 C2.3737,2.115 1.6327,2.856 1.6327,3.766 L1.6327,18.935 C1.6327,19.846 2.3737,20.586 3.2837,20.586 L18.4527,20.586 C19.3627,20.586 20.1037,19.846 20.1037,18.935 L20.1037,3.766 C20.1037,2.856 19.3627,2.115 18.4527,2.115 L3.2837,2.115 Z M18.4527,21.706 L3.2837,21.706 C1.7567,21.706 0.5127,20.463 0.5127,18.935 L0.5127,3.766 C0.5127,2.239 1.7567,0.995 3.2837,0.995 L18.4527,0.995 C19.9807,0.995 21.2237,2.239 21.2237,3.766 L21.2237,18.935 C21.2237,20.463 19.9807,21.706 18.4527,21.706 L18.4527,21.706 Z" id="Fill-25"></path>
                <path d="M14.5806,15.3328 L16.2186,15.3328 L16.2186,9.6408 L13.4656,9.6408 C13.1966,9.6408 12.9776,9.4208 12.9776,9.1508 L12.9776,7.0828 L8.3696,7.0828 L8.3696,9.1508 C8.3696,9.4208 8.1506,9.6408 7.8816,9.6408 L5.1306,9.6408 L5.1306,15.3328 L6.7686,15.3328 L6.7686,12.1168 C6.7686,11.8478 6.9876,11.6278 7.2566,11.6278 C7.5246,11.6278 7.7436,11.8478 7.7436,12.1168 L7.7436,15.3328 L9.0466,15.3328 L9.0466,12.1168 C9.0466,11.8478 9.2656,11.6278 9.5336,11.6278 C9.8026,11.6278 10.0216,11.8478 10.0216,12.1168 L10.0216,15.3328 L11.3256,15.3328 L11.3256,12.1168 C11.3256,11.8478 11.5446,11.6278 11.8136,11.6278 C12.0816,11.6278 12.3006,11.8478 12.3006,12.1168 L12.3006,15.3328 L13.6036,15.3328 L13.6036,12.1168 C13.6036,11.8478 13.8236,11.6278 14.0936,11.6278 C14.3616,11.6278 14.5806,11.8478 14.5806,12.1168 L14.5806,15.3328 Z M16.3536,15.4678 L14.4456,15.4678 L14.4456,12.1168 C14.4456,11.9218 14.2876,11.7628 14.0936,11.7628 C13.8976,11.7628 13.7386,11.9218 13.7386,12.1168 L13.7386,15.4678 L12.1656,15.4678 L12.1656,12.1168 C12.1656,11.9218 12.0076,11.7628 11.8136,11.7628 C11.6196,11.7628 11.4616,11.9218 11.4616,12.1168 L11.4616,15.4678 L9.8866,15.4678 L9.8866,12.1168 C9.8866,11.9218 9.7276,11.7628 9.5336,11.7628 C9.3396,11.7628 9.1816,11.9218 9.1816,12.1168 L9.1816,15.4678 L7.6086,15.4678 L7.6086,12.1168 C7.6086,11.9218 7.4506,11.7628 7.2566,11.7628 C7.0626,11.7628 6.9046,11.9218 6.9046,12.1168 L6.9046,15.4678 L4.9956,15.4678 L4.9956,9.5058 L7.8816,9.5058 C8.0766,9.5058 8.2346,9.3468 8.2346,9.1508 L8.2346,6.9468 L13.1136,6.9468 L13.1136,9.1508 C13.1136,9.3468 13.2716,9.5058 13.4656,9.5058 L16.3536,9.5058 L16.3536,15.4678 Z M4.6426,8.7988 C4.4476,8.7988 4.2886,8.9578 4.2886,9.1508 L4.2886,15.8198 C4.2886,16.0148 4.4476,16.1718 4.6426,16.1718 L16.7056,16.1718 C16.9006,16.1718 17.0586,16.0148 17.0586,15.8198 L17.0586,9.1508 C17.0586,8.9578 16.9006,8.7988 16.7056,8.7988 L13.8176,8.7988 L13.8176,6.5948 C13.8176,6.3998 13.6596,6.2408 13.4656,6.2408 L7.8816,6.2408 C7.6876,6.2408 7.5296,6.3998 7.5296,6.5948 L7.5296,8.7988 L4.6426,8.7988 Z M16.7056,16.3078 L4.6426,16.3078 C4.3726,16.3078 4.1536,16.0888 4.1536,15.8198 L4.1536,9.1508 C4.1536,8.8828 4.3726,8.6638 4.6426,8.6638 L7.3946,8.6638 L7.3946,6.5948 C7.3946,6.3248 7.6136,6.1048 7.8816,6.1048 L13.4656,6.1048 C13.7336,6.1048 13.9536,6.3248 13.9536,6.5948 L13.9536,8.6638 L16.7056,8.6638 C16.9756,8.6638 17.1936,8.8828 17.1936,9.1508 L17.1936,15.8198 C17.1936,16.0888 16.9756,16.3078 16.7056,16.3078 L16.7056,16.3078 Z" id="Fill-27"></path>
                <path d="M55.5479,21.9998 L40.3799,21.9998 C38.8519,21.9998 37.6089,20.7568 37.6089,19.2288 L37.6089,4.0608 C37.6089,2.5328 38.8519,1.2898 40.3799,1.2898 L42.1219,1.2898 L42.1219,2.4088 L40.3799,2.4088 C39.4689,2.4088 38.7279,3.1498 38.7279,4.0608 L38.7279,19.2288 C38.7279,20.1398 39.4689,20.8798 40.3799,20.8798 L55.5479,20.8798 C56.4579,20.8798 57.1989,20.1398 57.1989,19.2288 L57.1989,4.0608 C57.1989,3.1498 56.4579,2.4088 55.5479,2.4088 L53.1039,2.4088 L53.1039,1.2898 L55.5479,1.2898 C57.0759,1.2898 58.3189,2.5328 58.3189,4.0608 L58.3189,19.2288 C58.3189,20.7568 57.0759,21.9998 55.5479,21.9998" id="Fill-29"></path>
            </g>
            <g id="Group-34" transform="translate(80.000000, 6.796700)">
                <mask id="mask-4" fill="white">
                    <use xlink:href="#path-3"></use>
                </mask>
                <g id="Clip-33"></g>
                <polygon id="Fill-32" fill="#43B9EB" mask="url(#mask-4)" points="-2.516 10.062 12.838 10.062 12.838 -2.994 -2.516 -2.994"></polygon>
            </g>
            <g id="Group-37" transform="translate(81.000000, 9.796700)">
                <mask id="mask-6" fill="white">
                    <use xlink:href="#path-5"></use>
                </mask>
                <g id="Clip-36"></g>
                <polygon id="Fill-35" fill="#43B9EB" mask="url(#mask-6)" points="-2.972 7.59 9.058 7.59 9.058 -3.236 -2.972 -3.236"></polygon>
            </g>
            <g id="Group-40" transform="translate(80.000000, 3.796700)">
                <mask id="mask-8" fill="white">
                    <use xlink:href="#path-7"></use>
                </mask>
                <g id="Clip-39"></g>
                <polygon id="Fill-38" fill="#43B9EB" mask="url(#mask-8)" points="-3.066 12.522 15.662 12.522 15.662 -2.797 -3.066 -2.797"></polygon>
            </g>
            <g id="Group-47" transform="translate(0.000000, 0.796700)">
                <path d="M82.9639,21.5428 L78.6699,21.5428 L78.6699,20.7978 L80.7749,18.5048 C81.1189,18.1288 81.3549,17.8208 81.4849,17.5788 C81.6159,17.3378 81.6809,17.1018 81.6809,16.8708 C81.6809,16.5808 81.5969,16.3378 81.4279,16.1418 C81.2589,15.9468 81.0309,15.8498 80.7439,15.8498 C80.3649,15.8498 80.0839,15.9558 79.8999,16.1688 C79.7159,16.3818 79.6249,16.6758 79.6249,17.0478 L78.5809,17.0478 L78.5719,17.0218 C78.5569,16.4468 78.7449,15.9638 79.1359,15.5718 C79.5269,15.1798 80.0629,14.9828 80.7439,14.9828 C81.3659,14.9828 81.8569,15.1548 82.2189,15.4988 C82.5799,15.8418 82.7609,16.2908 82.7609,16.8438 C82.7609,17.2138 82.6559,17.5678 82.4469,17.9048 C82.2379,18.2428 81.9149,18.6528 81.4769,19.1358 L80.0379,20.6498 L80.0509,20.6768 L82.9639,20.6768 L82.9639,21.5428 Z" id="Fill-41" fill="#43B9EB"></path>
                <mask id="mask-10" fill="white">
                    <use xlink:href="#path-9"></use>
                </mask>
                <g id="Clip-44"></g>
                <polygon id="Fill-43" fill="#43B9EB" mask="url(#mask-10)" points="84.035 21.543 85.109 21.543 85.109 20.509 84.035 20.509"></polygon>
                <path d="M87.21,19.2376 L88.947,19.2376 L88.947,16.6126 L88.92,16.6046 L88.831,16.7956 L87.21,19.2376 Z M90.022,19.2376 L90.839,19.2376 L90.839,20.1046 L90.022,20.1046 L90.022,21.5426 L88.947,21.5426 L88.947,20.1046 L86.172,20.1046 L86.145,19.4456 L88.911,15.0766 L90.022,15.0766 L90.022,19.2376 Z" id="Fill-45" fill="#43B9EB" mask="url(#mask-10)"></path>
                <path d="M92.5479,24.9998 L77.3799,24.9998 C75.8519,24.9998 74.6089,23.7568 74.6089,22.2288 L74.6089,7.0608 C74.6089,5.5328 75.8519,4.2898 77.3799,4.2898 L79.1219,4.2898 L79.1219,5.4088 L77.3799,5.4088 C76.4689,5.4088 75.7279,6.1498 75.7279,7.0608 L75.7279,22.2288 C75.7279,23.1398 76.4689,23.8798 77.3799,23.8798 L92.5479,23.8798 C93.4579,23.8798 94.1989,23.1398 94.1989,22.2288 L94.1989,7.0608 C94.1989,6.1498 93.4579,5.4088 92.5479,5.4088 L90.1039,5.4088 L90.1039,4.2898 L92.5479,4.2898 C94.0759,4.2898 95.3189,5.5328 95.3189,7.0608 L95.3189,22.2288 C95.3189,23.7568 94.0759,24.9998 92.5479,24.9998" id="Fill-46" fill="#43B9EB" mask="url(#mask-10)"></path>
            </g>
            <g id="Group-50" transform="translate(80.000000, 6.796700)">
                <mask id="mask-12" fill="white">
                    <use xlink:href="#path-11"></use>
                </mask>
                <g id="Clip-49"></g>
                <polygon id="Fill-48" fill="#43B9EB" mask="url(#mask-12)" points="-2.516 10.062 12.838 10.062 12.838 -2.994 -2.516 -2.994"></polygon>
            </g>
            <g id="Group-53" transform="translate(81.000000, 9.796700)">
                <mask id="mask-14" fill="white">
                    <use xlink:href="#path-13"></use>
                </mask>
                <g id="Clip-52"></g>
                <polygon id="Fill-51" fill="#43B9EB" mask="url(#mask-14)" points="-2.972 7.59 9.058 7.59 9.058 -3.236 -2.972 -3.236"></polygon>
            </g>
            <g id="Group-56" transform="translate(80.000000, 3.796700)">
                <mask id="mask-16" fill="white">
                    <use xlink:href="#path-15"></use>
                </mask>
                <g id="Clip-55"></g>
                <polygon id="Fill-54" fill="#43B9EB" mask="url(#mask-16)" points="-3.066 12.522 15.662 12.522 15.662 -2.797 -3.066 -2.797"></polygon>
            </g>
            <path d="M129.6436,25.7965 L114.4746,25.7965 C112.9476,25.7965 111.7046,24.5535 111.7046,23.0255 L111.7046,7.8575 C111.7046,6.3295 112.9476,5.0865 114.4746,5.0865 L116.2166,5.0865 L116.2166,6.2055 L114.4746,6.2055 C113.5646,6.2055 112.8236,6.9465 112.8236,7.8575 L112.8236,23.0255 C112.8236,23.9365 113.5646,24.6765 114.4746,24.6765 L129.6436,24.6765 C130.5536,24.6765 131.2946,23.9365 131.2946,23.0255 L131.2946,7.8575 C131.2946,6.9465 130.5536,6.2055 129.6436,6.2055 L127.1986,6.2055 L127.1986,5.0865 L129.6436,5.0865 C131.1706,5.0865 132.4146,6.3295 132.4146,7.8575 L132.4146,23.0255 C132.4146,24.5535 131.1706,25.7965 129.6436,25.7965" id="Fill-57" fill="#43B9EB"></path>
            <g id="Group-61" transform="translate(118.000000, 6.796700)">
                <mask id="mask-18" fill="white">
                    <use xlink:href="#path-17"></use>
                </mask>
                <g id="Clip-60"></g>
                <polygon id="Fill-59" fill="#43B9EB" mask="url(#mask-18)" points="-3.42 10.062 11.934 10.062 11.934 -2.994 -3.42 -2.994"></polygon>
            </g>
            <g id="Group-64" transform="translate(118.000000, 9.796700)">
                <mask id="mask-20" fill="white">
                    <use xlink:href="#path-19"></use>
                </mask>
                <g id="Clip-63"></g>
                <polygon id="Fill-62" fill="#43B9EB" mask="url(#mask-20)" points="-2.877 7.59 9.153 7.59 9.153 -3.236 -2.877 -3.236"></polygon>
            </g>
            <g id="Group-67" transform="translate(117.000000, 3.796700)">
                <mask id="mask-22" fill="white">
                    <use xlink:href="#path-21"></use>
                </mask>
                <g id="Clip-66"></g>
                <polygon id="Fill-65" fill="#43B9EB" mask="url(#mask-22)" points="-2.971 12.522 15.758 12.522 15.758 -2.797 -2.971 -2.797"></polygon>
            </g>
            <g id="Group-72" transform="translate(111.000000, 4.796700)" fill="#43B9EB">
                <path d="M9.3027,14.6517 L9.6767,11.0767 L13.0907,11.0767 L13.0907,12.0097 L10.5737,12.0097 L10.3777,13.6307 C10.5057,13.5357 10.6527,13.4587 10.8207,13.3977 C10.9877,13.3367 11.1757,13.3037 11.3857,13.2977 C11.9927,13.2917 12.4677,13.4837 12.8117,13.8747 C13.1557,14.2657 13.3267,14.7997 13.3267,15.4777 C13.3267,16.1117 13.1467,16.6307 12.7847,17.0327 C12.4237,17.4357 11.9017,17.6367 11.2177,17.6367 C10.6487,17.6367 10.1687,17.4797 9.7767,17.1677 C9.3837,16.8557 9.1957,16.4117 9.2097,15.8387 L9.2187,15.8157 L10.2267,15.7797 C10.2267,16.0917 10.3187,16.3357 10.5017,16.5097 C10.6857,16.6837 10.9237,16.7707 11.2177,16.7707 C11.5517,16.7707 11.8067,16.6527 11.9837,16.4177 C12.1587,16.1817 12.2467,15.8707 12.2467,15.4827 C12.2467,15.0917 12.1577,14.7737 11.9767,14.5297 C11.7967,14.2847 11.5377,14.1637 11.2037,14.1637 C10.9077,14.1637 10.6887,14.2127 10.5437,14.3087 C10.4007,14.4057 10.2957,14.5457 10.2317,14.7277 L9.3027,14.6517 Z" id="Fill-68"></path>
                <path d="M18.6436,20.9998 L3.4746,20.9998 C1.9476,20.9998 0.7046,19.7568 0.7046,18.2288 L0.7046,3.0608 C0.7046,1.5328 1.9476,0.2898 3.4746,0.2898 L5.2166,0.2898 L5.2166,1.4088 L3.4746,1.4088 C2.5646,1.4088 1.8236,2.1498 1.8236,3.0608 L1.8236,18.2288 C1.8236,19.1398 2.5646,19.8798 3.4746,19.8798 L18.6436,19.8798 C19.5536,19.8798 20.2946,19.1398 20.2946,18.2288 L20.2946,3.0608 C20.2946,2.1498 19.5536,1.4088 18.6436,1.4088 L16.1986,1.4088 L16.1986,0.2898 L18.6436,0.2898 C20.1706,0.2898 21.4146,1.5328 21.4146,3.0608 L21.4146,18.2288 C21.4146,19.7568 20.1706,20.9998 18.6436,20.9998" id="Fill-70"></path>
            </g>
            <g id="Group-75" transform="translate(118.000000, 6.796700)">
                <mask id="mask-24" fill="white">
                    <use xlink:href="#path-23"></use>
                </mask>
                <g id="Clip-74"></g>
                <polygon id="Fill-73" fill="#43B9EB" mask="url(#mask-24)" points="-3.42 10.062 11.934 10.062 11.934 -2.994 -3.42 -2.994"></polygon>
            </g>
            <g id="Group-78" transform="translate(118.000000, 9.796700)">
                <mask id="mask-26" fill="white">
                    <use xlink:href="#path-25"></use>
                </mask>
                <g id="Clip-77"></g>
                <polygon id="Fill-76" fill="#43B9EB" mask="url(#mask-26)" points="-2.877 7.59 9.153 7.59 9.153 -3.236 -2.877 -3.236"></polygon>
            </g>
            <g id="Group-81" transform="translate(117.000000, 3.796700)">
                <mask id="mask-28" fill="white">
                    <use xlink:href="#path-27"></use>
                </mask>
                <g id="Clip-80"></g>
                <polygon id="Fill-79" fill="#43B9EB" mask="url(#mask-28)" points="-2.971 12.522 15.758 12.522 15.758 -2.797 -2.971 -2.797"></polygon>
            </g>
            <path d="M166.7393,25.7965 L151.5703,25.7965 C150.0433,25.7965 148.7993,24.5535 148.7993,23.0255 L148.7993,7.8575 C148.7993,6.3295 150.0433,5.0865 151.5703,5.0865 L153.3123,5.0865 L153.3123,6.2055 L151.5703,6.2055 C150.6603,6.2055 149.9193,6.9465 149.9193,7.8575 L149.9193,23.0255 C149.9193,23.9365 150.6603,24.6765 151.5703,24.6765 L166.7393,24.6765 C167.6503,24.6765 168.3893,23.9365 168.3893,23.0255 L168.3893,7.8575 C168.3893,6.9465 167.6503,6.2055 166.7393,6.2055 L164.2943,6.2055 L164.2943,5.0865 L166.7393,5.0865 C168.2663,5.0865 169.5103,6.3295 169.5103,7.8575 L169.5103,23.0255 C169.5103,24.5535 168.2663,25.7965 166.7393,25.7965" id="Fill-82" fill="#43B9EB"></path>
            <g id="Group-86" transform="translate(155.000000, 6.796700)">
                <mask id="mask-30" fill="white">
                    <use xlink:href="#path-29"></use>
                </mask>
                <g id="Clip-85"></g>
                <polygon id="Fill-84" fill="#43B9EB" mask="url(#mask-30)" points="-3.324 10.062 12.03 10.062 12.03 -2.994 -3.324 -2.994"></polygon>
            </g>
            <g id="Group-89" transform="translate(155.000000, 9.796700)">
                <mask id="mask-32" fill="white">
                    <use xlink:href="#path-31"></use>
                </mask>
                <g id="Clip-88"></g>
                <polygon id="Fill-87" fill="#43B9EB" mask="url(#mask-32)" points="-2.78 7.59 9.249 7.59 9.249 -3.236 -2.78 -3.236"></polygon>
            </g>
            <g id="Group-92" transform="translate(154.000000, 3.796700)">
                <mask id="mask-34" fill="white">
                    <use xlink:href="#path-33"></use>
                </mask>
                <g id="Clip-91"></g>
                <polygon id="Fill-90" fill="#43B9EB" mask="url(#mask-34)" points="-2.875 12.522 15.854 12.522 15.854 -2.797 -2.875 -2.797"></polygon>
            </g>
            <g id="Group-99" transform="translate(0.000000, 0.796700)">
                <path d="M153.8311,18.6517 L154.2041,15.0767 L157.6191,15.0767 L157.6191,16.0097 L155.1011,16.0097 L154.9051,17.6307 C155.0331,17.5357 155.1801,17.4587 155.3481,17.3977 C155.5151,17.3367 155.7031,17.3037 155.9141,17.2977 C156.5201,17.2917 156.9961,17.4837 157.3401,17.8747 C157.6831,18.2657 157.8541,18.7997 157.8541,19.4777 C157.8541,20.1117 157.6741,20.6307 157.3131,21.0327 C156.9511,21.4357 156.4291,21.6367 155.7451,21.6367 C155.1771,21.6367 154.6961,21.4797 154.3041,21.1677 C153.9121,20.8557 153.7231,20.4117 153.7381,19.8387 L153.7471,19.8157 L154.7551,19.7797 C154.7551,20.0917 154.8461,20.3357 155.0301,20.5097 C155.2141,20.6837 155.4521,20.7707 155.7451,20.7707 C156.0791,20.7707 156.3351,20.6527 156.5121,20.4177 C156.6871,20.1817 156.7751,19.8707 156.7751,19.4827 C156.7751,19.0917 156.6851,18.7737 156.5051,18.5297 C156.3231,18.2847 156.0661,18.1637 155.7311,18.1637 C155.4351,18.1637 155.2161,18.2127 155.0721,18.3087 C154.9281,18.4057 154.8241,18.5457 154.7591,18.7277 L153.8311,18.6517 Z" id="Fill-93" fill="#43B9EB"></path>
                <mask id="mask-36" fill="white">
                    <use xlink:href="#path-35"></use>
                </mask>
                <g id="Clip-96"></g>
                <polygon id="Fill-95" fill="#43B9EB" mask="url(#mask-36)" points="158.623 19.225 160.954 19.225 160.954 18.359 158.623 18.359"></polygon>
                <polygon id="Fill-97" fill="#43B9EB" mask="url(#mask-36)" points="164.4805 21.5433 163.4025 21.5433 163.4025 16.1033 162.0875 16.1033 162.0875 15.3073 164.4805 15.0773"></polygon>
                <path d="M203.834,24.9998 L188.666,24.9998 C187.139,24.9998 185.895,23.7568 185.895,22.2288 L185.895,7.0608 C185.895,5.5328 187.139,4.2898 188.666,4.2898 L190.408,4.2898 L190.408,5.4088 L188.666,5.4088 C187.755,5.4088 187.015,6.1498 187.015,7.0608 L187.015,22.2288 C187.015,23.1398 187.755,23.8798 188.666,23.8798 L203.834,23.8798 C204.744,23.8798 205.485,23.1398 205.485,22.2288 L205.485,7.0608 C205.485,6.1498 204.744,5.4088 203.834,5.4088 L201.389,5.4088 L201.389,4.2898 L203.834,4.2898 C205.361,4.2898 206.605,5.5328 206.605,7.0608 L206.605,22.2288 C206.605,23.7568 205.361,24.9998 203.834,24.9998" id="Fill-98" fill="#43B9EB" mask="url(#mask-36)"></path>
            </g>
            <g id="Group-102" transform="translate(192.000000, 6.796700)">
                <mask id="mask-38" fill="white">
                    <use xlink:href="#path-37"></use>
                </mask>
                <g id="Clip-101"></g>
                <polygon id="Fill-100" fill="#43B9EB" mask="url(#mask-38)" points="-3.229 10.062 12.125 10.062 12.125 -2.994 -3.229 -2.994"></polygon>
            </g>
            <g id="Group-105" transform="translate(192.000000, 9.796700)">
                <mask id="mask-40" fill="white">
                    <use xlink:href="#path-39"></use>
                </mask>
                <g id="Clip-104"></g>
                <polygon id="Fill-103" fill="#43B9EB" mask="url(#mask-40)" points="-2.686 7.59 9.343 7.59 9.343 -3.236 -2.686 -3.236"></polygon>
            </g>
            <g id="Group-108" transform="translate(191.000000, 3.796700)">
                <mask id="mask-42" fill="white">
                    <use xlink:href="#path-41"></use>
                </mask>
                <g id="Clip-107"></g>
                <polygon id="Fill-106" fill="#43B9EB" mask="url(#mask-42)" points="-2.78 12.522 15.949 12.522 15.949 -2.797 -2.78 -2.797"></polygon>
            </g>
            <g id="Group-115" transform="translate(0.000000, 0.796700)">
                <path d="M190.5059,18.6517 L190.8799,15.0767 L194.2939,15.0767 L194.2939,16.0097 L191.7769,16.0097 L191.5809,17.6307 C191.7079,17.5357 191.8559,17.4587 192.0229,17.3977 C192.1899,17.3367 192.3789,17.3037 192.5889,17.2977 C193.1959,17.2917 193.6709,17.4837 194.0149,17.8747 C194.3589,18.2657 194.5299,18.7997 194.5299,19.4777 C194.5299,20.1117 194.3499,20.6307 193.9869,21.0327 C193.6269,21.4357 193.1049,21.6367 192.4199,21.6367 C191.8519,21.6367 191.3719,21.4797 190.9799,21.1677 C190.5859,20.8557 190.3989,20.4117 190.4119,19.8387 L190.4219,19.8157 L191.4299,19.7797 C191.4299,20.0917 191.5219,20.3357 191.7049,20.5097 C191.8889,20.6837 192.1269,20.7707 192.4199,20.7707 C192.7559,20.7707 193.0109,20.6527 193.1869,20.4177 C193.3619,20.1817 193.4499,19.8707 193.4499,19.4827 C193.4499,19.0917 193.3599,18.7737 193.1799,18.5297 C192.9999,18.2847 192.7409,18.1637 192.4069,18.1637 C192.1099,18.1637 191.8909,18.2127 191.7469,18.3087 C191.6049,18.4057 191.4989,18.5457 191.4349,18.7277 L190.5059,18.6517 Z" id="Fill-109" fill="#43B9EB"></path>
                <mask id="mask-44" fill="white">
                    <use xlink:href="#path-43"></use>
                </mask>
                <g id="Clip-112"></g>
                <polygon id="Fill-111" fill="#43B9EB" mask="url(#mask-44)" points="195.299 19.225 197.63 19.225 197.63 18.359 195.299 18.359"></polygon>
                <path d="M202.7461,21.5433 L198.4511,21.5433 L198.4511,20.7983 L200.5571,18.5053 C200.9001,18.1293 201.1371,17.8213 201.2671,17.5793 C201.3961,17.3383 201.4631,17.1023 201.4631,16.8713 C201.4631,16.5813 201.3781,16.3383 201.2101,16.1423 C201.0411,15.9473 200.8131,15.8503 200.5251,15.8503 C200.1471,15.8503 199.8661,15.9563 199.6821,16.1693 C199.4981,16.3823 199.4061,16.6763 199.4061,17.0483 L198.3631,17.0483 L198.3541,17.0223 C198.3381,16.4473 198.5261,15.9643 198.9181,15.5723 C199.3081,15.1803 199.8451,14.9833 200.5251,14.9833 C201.1471,14.9833 201.6391,15.1553 202.0001,15.4993 C202.3621,15.8413 202.5421,16.2913 202.5421,16.8443 C202.5421,17.2143 202.4371,17.5683 202.2281,17.9053 C202.0191,18.2433 201.6961,18.6533 201.2581,19.1363 L199.8191,20.6503 L199.8321,20.6773 L202.7461,20.6773 L202.7461,21.5433 Z" id="Fill-113" fill="#43B9EB" mask="url(#mask-44)"></path>
                <path d="M240.9297,24.9998 L225.7607,24.9998 C224.2327,24.9998 222.9907,23.7568 222.9907,22.2288 L222.9907,7.0608 C222.9907,5.5328 224.2327,4.2898 225.7607,4.2898 L227.5017,4.2898 L227.5017,5.4088 L225.7607,5.4088 C224.8497,5.4088 224.1097,6.1498 224.1097,7.0608 L224.1097,22.2288 C224.1097,23.1398 224.8497,23.8798 225.7607,23.8798 L240.9297,23.8798 C241.8397,23.8798 242.5807,23.1398 242.5807,22.2288 L242.5807,7.0608 C242.5807,6.1498 241.8397,5.4088 240.9297,5.4088 L238.4847,5.4088 L238.4847,4.2898 L240.9297,4.2898 C242.4567,4.2898 243.7007,5.5328 243.7007,7.0608 L243.7007,22.2288 C243.7007,23.7568 242.4567,24.9998 240.9297,24.9998" id="Fill-114" fill="#43B9EB" mask="url(#mask-44)"></path>
            </g>
            <g id="Group-118" transform="translate(229.000000, 6.796700)">
                <mask id="mask-46" fill="white">
                    <use xlink:href="#path-45"></use>
                </mask>
                <g id="Clip-117"></g>
                <polygon id="Fill-116" fill="#43B9EB" mask="url(#mask-46)" points="-3.135 10.062 12.22 10.062 12.22 -2.994 -3.135 -2.994"></polygon>
            </g>
            <g id="Group-121" transform="translate(229.000000, 9.796700)">
                <mask id="mask-48" fill="white">
                    <use xlink:href="#path-47"></use>
                </mask>
                <g id="Clip-120"></g>
                <polygon id="Fill-119" fill="#43B9EB" mask="url(#mask-48)" points="-2.591 7.59 9.438 7.59 9.438 -3.236 -2.591 -3.236"></polygon>
            </g>
            <g id="Group-124" transform="translate(228.000000, 3.796700)">
                <mask id="mask-50" fill="white">
                    <use xlink:href="#path-49"></use>
                </mask>
                <g id="Clip-123"></g>
                <polygon id="Fill-122" fill="#43B9EB" mask="url(#mask-50)" points="-2.685 12.522 16.043 12.522 16.043 -2.797 -2.685 -2.797"></polygon>
            </g>
            <g id="Group-129" transform="translate(231.000000, 4.796700)" fill="#43B9EB">
                <path d="M2.6143,14.0657 C2.3423,14.0657 2.1113,14.1137 1.9223,14.2107 C1.7313,14.3067 1.5873,14.4367 1.4863,14.6027 L1.4863,15.0637 C1.4863,15.6107 1.5963,16.0317 1.8173,16.3277 C2.0383,16.6237 2.3203,16.7717 2.6633,16.7717 C2.9773,16.7717 3.2243,16.6367 3.4053,16.3677 C3.5863,16.0987 3.6763,15.7677 3.6763,15.3747 C3.6763,14.9867 3.5813,14.6717 3.3923,14.4297 C3.2023,14.1877 2.9433,14.0657 2.6143,14.0657 M2.9173,10.9837 C3.1473,10.9837 3.3693,11.0077 3.5833,11.0567 C3.7963,11.1047 3.9873,11.1697 4.1563,11.2487 L3.9513,12.0767 C3.7863,12.0057 3.6243,11.9507 3.4683,11.9097 C3.3103,11.8707 3.1293,11.8507 2.9213,11.8507 C2.4883,11.8507 2.1413,12.0177 1.8803,12.3527 C1.6173,12.6887 1.4863,13.1397 1.4863,13.7067 L1.4863,13.7367 C1.6643,13.5747 1.8713,13.4487 2.1063,13.3597 C2.3423,13.2717 2.5993,13.2267 2.8813,13.2267 C3.4583,13.2267 3.9153,13.4287 4.2513,13.8327 C4.5883,14.2367 4.7553,14.7517 4.7553,15.3767 C4.7553,16.0367 4.5623,16.5787 4.1773,17.0027 C3.7933,17.4247 3.2883,17.6367 2.6633,17.6367 C2.0063,17.6367 1.4673,17.4057 1.0453,16.9437 C0.6233,16.4827 0.4123,15.8367 0.4123,15.0077 L0.4123,13.7737 C0.4123,12.9317 0.6493,12.2567 1.1253,11.7487 C1.5993,11.2387 2.1973,10.9837 2.9173,10.9837" id="Fill-125"></path>
                <path d="M47.0244,20.7059 L31.8564,20.7059 C30.3294,20.7059 29.0864,19.4629 29.0864,17.9349 L29.0864,2.7669 C29.0864,1.2389 30.3294,-0.0041 31.8564,-0.0041 L33.5984,-0.0041 L33.5984,1.1149 L31.8564,1.1149 C30.9464,1.1149 30.2054,1.8559 30.2054,2.7669 L30.2054,17.9349 C30.2054,18.8459 30.9464,19.5859 31.8564,19.5859 L47.0244,19.5859 C47.9354,19.5859 48.6764,18.8459 48.6764,17.9349 L48.6764,2.7669 C48.6764,1.8559 47.9354,1.1149 47.0244,1.1149 L44.5814,1.1149 L44.5814,-0.0041 L47.0244,-0.0041 C48.5524,-0.0041 49.7954,1.2389 49.7954,2.7669 L49.7954,17.9349 C49.7954,19.4629 48.5524,20.7059 47.0244,20.7059" id="Fill-127"></path>
            </g>
            <g id="Group-132" transform="translate(266.000000, 5.796700)">
                <mask id="mask-52" fill="white">
                    <use xlink:href="#path-51"></use>
                </mask>
                <g id="Clip-131"></g>
                <polygon id="Fill-130" fill="#43B9EB" mask="url(#mask-52)" points="-3.396 18.698 11.997 18.698 11.997 -2.992 -3.396 -2.992"></polygon>
            </g>
        </g>
    </g>
</svg>