<?xml version="1.0" encoding="UTF-8"?>
<svg width="165px" height="305px" viewBox="0 0 165 305" version="1.1" xmlns="http://www.w3.org/2000/svg" xmlns:xlink="http://www.w3.org/1999/xlink">
    <!-- Generator: Sketch 60.1 (88133) - https://sketch.com -->
    <title>cilent_icon</title>
    <desc>Created with Sketch.</desc>
    <defs>
        <polygon id="path-1" points="0 0.09525 23.15475 0.09525 23.15475 23.25 0 23.25"></polygon>
        <polygon id="path-3" points="0 0.09525 23.15475 0.09525 23.15475 23.25 0 23.25"></polygon>
    </defs>
    <g id="cilent_icon" stroke="none" stroke-width="1" fill="none" fill-rule="evenodd">
        <g id="Group-50" transform="translate(1.000000, 79.000000)" fill="#FFFFFF" fill-rule="nonzero">
            <path d="M3.95894747,5.13804579 C4.85656062,4.29664049 6.422036,4.29664049 7.31964916,5.13804579 L7.87976612,5.66308864 L9,4.61300293 L8.43988306,4.08796009 C7.69279637,3.38691278 6.69773713,3 5.63929831,3 C4.58085949,3 3.58580025,3.38691276 2.83871358,4.08796009 L1.15757049,5.66308864 C-0.38585683,7.11452147 -0.38585683,9.46282695 1.15757049,10.9142598 C1.89981967,11.6110259 2.90770645,12.001764 3.95815524,12 C5.00889576,12.002044 6.01713894,11.6112783 6.75953221,10.9142598 L7.31964916,10.3892169 L6.19941527,9.33913123 L5.63929831,9.86417407 C4.70983138,10.7315424 3.20727132,10.7315424 2.27780439,9.86417407 C1.35162444,8.99324631 1.35162444,7.5841021 2.27780439,6.71317434 L3.95894747,5.13804579 L3.95894747,5.13804579 Z" id="Path"></path>
            <path d="M9.16128642,7.91203464 L10.8424295,6.33689845 C12.3858568,4.88545858 12.3858568,2.53714171 10.8424295,1.08570185 C9.29439758,-0.361900615 6.78849972,-0.361900615 5.24046779,1.08570185 L4.68035084,1.61074724 L5.80058473,2.66083803 L6.36070169,2.13579264 C7.29016862,1.26842014 8.79272868,1.26842014 9.72219561,2.13579264 C10.6483756,3.00672462 10.6483756,4.41587567 9.72219561,5.28680765 L8.04105253,6.86194384 C7.14343938,7.70335322 5.577964,7.70335322 4.68035084,6.86194384 L4.12023388,6.33689845 L3,7.38698925 L3.56011694,7.91203464 C4.30720363,8.61308535 5.30226287,9 6.36070169,9 C7.41914051,9 8.41419975,8.61308536 9.16128642,7.91203464 L9.16128642,7.91203464 Z" id="Path"></path>
        </g>
        <path d="M52.0791557,88.7963134 C51.2743136,89.3288952 50.30728,89.6087635 49.3191009,89.5950984 C49.1901758,89.5938417 49.0613532,89.5878948 48.9329296,89.5772714 C48.8812431,89.5724718 48.8295567,89.564244 48.7771319,89.5580731 C48.6772619,89.5466749 48.5777824,89.5324984 48.4788275,89.5155627 C48.4182805,89.5045923 48.3592103,89.4901936 48.3008785,89.4771662 C48.2054096,89.4569311 48.1106093,89.4340659 48.0166032,89.4086009 C47.9715622,89.3955735 47.9279979,89.3811748 47.8836953,89.3667761 C47.7751538,89.3324935 47.6680891,89.2982109 47.5639779,89.2570718 L47.493832,89.2269031 C47.3661908,89.1753265 47.2410393,89.1185917 47.1187363,89.0568613 C46.7246824,88.8533431 46.3637117,88.5989458 46.0466123,88.3012724 L46.0318448,88.2861881 C45.9330984,88.1930903 45.8389803,88.095855 45.7497846,87.9947858 L45.6944063,87.9282775 C45.0243048,87.1425234 44.660001,86.1694562 44.6606779,85.1671556 L45.7542149,85.1671556 C45.7836415,85.1675162 45.8108451,85.1526592 45.8248067,85.1286025 C45.8387683,85.1045458 45.8371737,85.0752771 45.8206688,85.0526517 L43.9835858,82.4622572 C43.9690479,82.4412622 43.9440119,82.4285714 43.9171319,82.4285714 C43.8902518,82.4285714 43.8652159,82.4412622 43.8506779,82.4622572 L42.0135949,85.0526517 C41.99709,85.0752771 41.9954954,85.1045458 42.0094571,85.1286025 C42.0234187,85.1526592 42.0506223,85.1675162 42.0800489,85.1671556 L43.1728475,85.1671556 C43.1728475,86.3944733 43.5796934,87.5312849 44.2708147,88.4719998 C44.2789368,88.4843416 44.2855822,88.4987403 44.2944427,88.5117677 C44.3660653,88.607759 44.4458101,88.6968938 44.5226013,88.7873999 C44.5513981,88.8216825 44.5779797,88.8573365 44.6075148,88.8902478 C44.7204865,89.0205217 44.840842,89.1411965 44.964151,89.2598144 L44.9988548,89.294097 C45.410732,89.6814476 45.8801742,90.0120825 46.3929113,90.2759511 C46.4062021,90.2834933 46.4187545,90.2910355 46.4335221,90.297892 C46.5811976,90.3719425 46.7318265,90.4391364 46.8839323,90.5029021 C46.9230663,90.5179864 46.9599851,90.5358134 46.9991191,90.5508977 C47.1298119,90.601636 47.2641966,90.646889 47.4000581,90.6893995 C47.4635585,90.7099691 47.527059,90.7305386 47.5920362,90.7490512 C47.7101766,90.7819626 47.8320089,90.8100743 47.9538411,90.8368147 C48.0350626,90.8546417 48.1148074,90.87384 48.1975057,90.8889243 C48.2322094,90.8957808 48.2639596,90.90538 48.297925,90.9094939 C48.4123735,90.9293778 48.5282987,90.9396626 48.6434856,90.95269 C48.6855731,90.9574896 48.7261839,90.9643461 48.767533,90.96846 C48.9742787,90.9876583 49.1810244,91 49.3870317,91 C50.6586254,90.9988564 51.8981379,90.6292507 52.9327199,89.9427241 C53.2693521,89.7184784 53.3507685,89.2852869 53.1158375,88.9684121 C53.0040534,88.8165987 52.8312223,88.7129039 52.6362392,88.6806639 C52.441256,88.6484238 52.2405019,88.6903471 52.0791557,88.7969991 M55.8277624,84.8317486 C55.8287459,83.6555819 55.4478587,82.5064749 54.734844,81.5344991 C54.7245056,81.5180368 54.7178595,81.5015746 54.7067826,81.4864842 C54.6211214,81.3719345 54.5280757,81.2649299 54.4350299,81.1579253 C54.4239531,81.1448927 54.4143531,81.1311742 54.4025378,81.1181416 C53.7829075,80.4087741 52.9889645,79.8479719 52.0874708,79.4828924 L52.0136249,79.4513398 C51.8700433,79.3964317 51.7244819,79.346101 51.5771961,79.3004359 C51.524027,79.2846596 51.4715965,79.2661396 51.417689,79.2510492 C51.288908,79.2154174 51.1588648,79.1838467 51.027783,79.1563913 C50.9554141,79.140615 50.8830452,79.1234668 50.8091994,79.1097483 C50.7730149,79.102889 50.7390458,79.093286 50.7028613,79.0871127 C50.6046464,79.0713364 50.5064314,79.0644771 50.4082165,79.0528164 C50.3402783,79.0445852 50.273817,79.0342963 50.2051404,79.028123 C50.0415774,79.0145978 49.8775226,79.0068184 49.7133271,79.0048015 C49.6837888,79.0048015 49.6542505,79 49.6247121,79 L49.6092045,79.0020578 C48.3397015,79.0022059 47.1018812,79.3702747 46.0682967,80.0549552 C45.7308212,80.2765095 45.6488523,80.7127589 45.8844205,81.029657 C45.996348,81.1813774 46.1691838,81.2849893 46.3641268,81.3172321 C46.5590697,81.3494748 46.7597863,81.3076469 46.9212161,81.2011387 C47.7199671,80.6724315 48.6786609,80.3926508 49.6594197,80.4020341 C49.7997268,80.4027201 49.93708,80.4088934 50.0736948,80.4212401 L50.1992327,80.4363305 C50.31074,80.450049 50.4222472,80.4644535 50.531539,80.4843453 C50.5802773,80.4932624 50.6275386,80.5049231 50.6747999,80.515212 C50.7826149,80.5378476 50.8889529,80.562541 50.9945524,80.5920358 L51.0935058,80.6235885 C51.2131361,80.6606285 51.3312894,80.7004122 51.4472274,80.7456834 C51.4590427,80.749799 51.4708581,80.7559723 51.4819349,80.7600879 C52.1734201,81.040363 52.7828216,81.4700158 53.2594042,82.0132759 L53.2675272,82.0235648 C53.9614902,82.8174001 54.3396516,83.8091648 54.3382919,84.8317486 L53.2453735,84.8317486 C53.2159436,84.8313879 53.1887371,84.8462509 53.1747739,84.8703172 C53.1608108,84.8943834 53.1624055,84.9236639 53.1789122,84.9462984 L55.0169351,87.5377294 C55.0314747,87.5587327 55.0565134,87.5714286 55.0833964,87.5714286 C55.1102794,87.5714286 55.1353181,87.5587327 55.1498576,87.5377294 L56.9864036,84.9462984 C57.0029103,84.9236639 57.0045051,84.8943834 56.9905419,84.8703172 C56.9765787,84.8462509 56.9493722,84.8313879 56.9199423,84.8317486 L55.8270239,84.8317486" id="Shape" fill="#FFFFFF" fill-rule="nonzero"></path>
        <g id="Group-12" transform="translate(45.000000, 36.000000)">
            <path d="M16.125,6.8232 C15.8145,6.8232 15.5625,7.0752 15.5625,7.3857 L15.5625,16.9617 C15.5625,17.2722 15.8145,17.5242 16.125,17.5242 C16.4355,17.5242 16.6875,17.2722 16.6875,16.9617 L16.6875,7.3857 C16.6875,7.0752 16.4355,6.8232 16.125,6.8232" id="Fill-1" fill="#43B9EB"></path>
            <path d="M11.125,9.35895 C10.8145,9.35895 10.5625,9.61095 10.5625,9.92145 L10.5625,16.9617 C10.5625,17.2722 10.8145,17.5242 11.125,17.5242 C11.4355,17.5242 11.6875,17.2722 11.6875,16.9617 L11.6875,9.92145 C11.6875,9.61095 11.4355,9.35895 11.125,9.35895" id="Fill-3" fill="#43B9EB"></path>
            <path d="M6.6327,11.94285 C6.3222,11.94285 6.0702,12.19485 6.0702,12.50535 L6.0702,16.96035 C6.0702,17.27085 6.3222,17.52285 6.6327,17.52285 C6.9432,17.52285 7.1952,17.27085 7.1952,16.96035 L7.1952,12.50535 C7.1952,12.19485 6.9432,11.94285 6.6327,11.94285" id="Fill-5" fill="#43B9EB"></path>
            <g id="Group-11" transform="translate(0.000000, 0.654750)">
                <mask id="mask-2" fill="white">
                    <use xlink:href="#path-1"></use>
                </mask>
                <g id="Clip-10"></g>
                <path d="M11.577375,22.125 C5.812875,22.125 1.123875,17.436 1.123875,11.6715 C1.123875,5.90925 5.812875,1.22025 11.577375,1.22025 C17.341875,1.22025 22.030875,5.90925 22.030875,11.6715 C22.030875,17.436 17.341875,22.125 11.577375,22.125 M11.577375,0.09525 C5.194125,0.09525 -0.001125,5.2905 -0.001125,11.6715 C-0.001125,18.05475 5.194125,23.25 11.577375,23.25 C17.960625,23.25 23.155875,18.05475 23.155875,11.6715 C23.155875,5.2905 17.960625,0.09525 11.577375,0.09525" id="Fill-9" fill="#43B9EB" mask="url(#mask-2)"></path>
            </g>
        </g>
        <g id="Group-6" transform="translate(1.000000, 36.000000)">
            <path d="M17.593425,16.82085 L15.692175,16.82085 L14.789925,16.82085 L14.248675,16.82085 L14.248675,13.30185 C14.248675,13.0521 14.046175,12.8496 13.798675,12.8496 C13.551175,12.8496 13.348675,13.0521 13.348675,13.30185 L13.348675,16.82085 L9.805175,16.82085 L9.805175,13.30185 C9.805175,13.0521 9.604925,12.8496 9.355175,12.8496 C9.107675,12.8496 8.905175,13.0521 8.905175,13.30185 L8.905175,16.82085 L8.363925,16.82085 L7.463925,16.82085 L5.562675,16.82085 L5.562675,10.57485 L8.584425,10.57485 C8.831925,10.57485 9.034425,10.37235 9.034425,10.1226 L9.034425,7.8321 L14.119425,7.8321 L14.119425,10.1226 C14.119425,10.37235 14.321925,10.57485 14.569425,10.57485 L17.593425,10.57485 L17.593425,16.82085 Z M18.043425,9.6726 L15.019425,9.6726 L15.019425,7.3821 C15.019425,7.13235 14.819175,6.92985 14.569425,6.92985 L8.584425,6.92985 C8.336925,6.92985 8.134425,7.13235 8.134425,7.3821 L8.134425,9.6726 L5.112675,9.6726 C4.862925,9.6726 4.660425,9.8751 4.660425,10.1226 L4.660425,17.27085 C4.660425,17.5206 4.862925,17.72085 5.112675,17.72085 L18.043425,17.72085 C18.293175,17.72085 18.493425,17.5206 18.493425,17.27085 L18.493425,10.1226 C18.493425,9.8751 18.293175,9.6726 18.043425,9.6726 L18.043425,9.6726 Z" id="Fill-1" fill="#43B9EB"></path>
            <g id="Group-5" transform="translate(0.000000, 0.654750)">
                <mask id="mask-4" fill="white">
                    <use xlink:href="#path-3"></use>
                </mask>
                <g id="Clip-4"></g>
                <path d="M11.577375,22.125 C5.812875,22.125 1.123875,17.436 1.123875,11.6715 C1.123875,5.90925 5.812875,1.22025 11.577375,1.22025 C17.341875,1.22025 22.030875,5.90925 22.030875,11.6715 C22.030875,17.436 17.341875,22.125 11.577375,22.125 M11.577375,0.09525 C5.194125,0.09525 -0.001125,5.2905 -0.001125,11.6715 C-0.001125,18.05475 5.194125,23.25 11.577375,23.25 C17.960625,23.25 23.155875,18.05475 23.155875,11.6715 C23.155875,5.2905 17.960625,0.09525 11.577375,0.09525" id="Fill-3" fill="#43B9EB" mask="url(#mask-4)"></path>
            </g>
        </g>
        <g id="Group-50" transform="translate(1.000000, 109.000000)">
            <g id="Group-4" transform="translate(0.234000, 0.234000)">
                <g id="Group">
                    <line x1="3.10862447e-15" y1="-3.99680289e-15" x2="12.5247387" y2="11.6795078" id="Line-4" stroke="#253238" stroke-width="1.12125" stroke-linecap="square"></line>
                    <path d="M4.37894622,5.60354788 C5.18874646,4.76886521 6.60107241,4.76886521 7.41087265,5.60354788 L7.91619374,6.12439576 L8.92683587,5.08269998 L8.4215148,4.56185211 C7.74751512,3.866406 6.84980188,3.48258456 5.89490944,3.48258456 C4.94001699,3.48258456 4.04230375,3.86640598 3.36830409,4.56185211 L1.85162612,6.12439576 C0.459191292,7.56423199 0.459191292,9.89377507 1.85162612,11.3336113 C2.52126155,12.0248105 3.43054742,12.4124266 4.37823149,12.4106767 C5.32617876,12.4127044 6.23578616,12.0250608 6.90555159,11.3336113 L7.41087265,10.8127634 L6.40023052,9.77106765 L5.89490944,10.2919155 C5.05637165,11.1523538 3.70080606,11.1523538 2.86226827,10.2919155 C2.02669591,9.42794627 2.02669591,8.03006079 2.86226827,7.16609153 L4.37894622,5.60354788 L4.37894622,5.60354788 Z" id="Path" fill="#253238" fill-rule="nonzero"></path>
                    <path d="M9.84563287,7.98336938 L11.3623108,6.42081815 C12.7547457,4.98097494 12.7547457,2.65142056 11.3623108,1.21157735 C9.96572185,-0.224459116 7.70497435,-0.224459116 6.30838537,1.21157735 L5.8030643,1.73242775 L6.81370644,2.77412858 L7.31902752,2.25327817 C8.1575653,1.39283577 9.5131309,1.39283577 10.3516687,2.25327817 C11.187241,3.11725162 11.187241,4.51514388 10.3516687,5.37911733 L8.83499074,6.94166856 C8.02519049,7.77635527 6.61286454,7.77635527 5.8030643,6.94166856 L5.29774322,6.42081815 L4.28710109,7.46251898 L4.79242215,7.98336938 C5.46642183,8.67881886 6.36413508,9.06264216 7.31902752,9.06264216 C8.27391996,9.06264216 9.1716332,8.67881888 9.84563287,7.98336938 L9.84563287,7.98336938 Z" id="Path" fill="#253238" fill-rule="nonzero"></path>
                </g>
            </g>
        </g>
        <g id="Group-23" transform="translate(1.000000, 1.000000)">
            <g id="Group-21" transform="translate(7.182000, 5.985000)" stroke="#FFFFFF" stroke-linecap="round" stroke-linejoin="round" stroke-width="1.17290398">
                <polygon id="Stroke-10" points="3.591 0.5985 1.79552038 0.5985 6.03961325e-14 0.5985 1.79552038 0.5985"></polygon>
                <path d="M7.78053097,3.53881958 C7.78053097,3.53881958 6.48377361,3.53881958 3.89025889,3.53881958 L3.09687833e-05,3.53881958 L3.89025889,3.53881958 C6.48377361,3.53881958 7.78053097,3.53881958 7.78053097,3.53881958 Z" id="Stroke-12"></path>
                <polygon id="Stroke-14" points="5.98500387 6.47913917 2.99250387 6.47913917 3.87109768e-06 6.47913917 2.99250387 6.47913917"></polygon>
            </g>
            <g id="Group-3" fill="#FFFFFF">
                <path d="M19.2907215,13.5417317 C18.9731048,13.0734955 18.3208918,12.0875349 16.9944924,10.0128301 L18.5715893,10.0128301 L18.5715893,9.5817102 C18.5755845,7.33284436 17.6916511,5.24957424 16.0855892,3.7163864 C14.6313441,2.32976029 12.6846931,1.53509123 10.7430362,1.53509123 C9.16593927,1.53509123 7.62779538,2.04805725 6.29340562,3.0197424 C6.16056592,3.11681574 6.02572863,3.16630411 5.89588531,3.16630411 C5.62621074,3.16630411 5.3485458,2.93599284 5.23668079,2.61812522 C5.11582663,2.27646512 5.21770369,1.9576458 5.51434573,1.74256172 C7.07945707,0.60242576 8.88228157,0 10.7270554,0 C13.0732243,0 15.4134003,0.981202147 17.147308,2.69330948 C18.9800963,4.50249016 19.9878802,6.94930948 19.9868814,9.5817102 L19.9858826,10.0156852 C19.9858826,10.0156852 20.9357364,10.0052165 21.1994182,10.0052165 C21.3332567,10.0052165 21.4481181,10.0071199 21.546,10.0080716 C21.2303809,10.5305546 20.5871571,11.5526798 19.2907215,13.5417317 M10.8479096,19.152 C6.38729232,19.152 1.57110412,15.4927156 1.57110412,9.5817102 L1.57110412,9.12679785 L1.09567782,9.15059034 C1.05073206,9.15249374 0.772068329,9.15820394 0.450456425,9.15820394 C0.270673373,9.15820394 0.121852958,9.15630054 0,9.15344544 C0.526364825,8.27597853 1.6879631,6.49725224 2.27924958,5.63786762 C2.5988639,6.10991055 3.25207565,7.099678 4.5714835,9.16486583 C4.50056907,9.16676923 4.42066549,9.16772093 4.32977517,9.16772093 C4.11803069,9.16772093 3.90528741,9.16105903 3.73449351,9.15630054 L2.98339987,9.14773524 L2.98339987,9.5817102 C2.98140228,11.7696673 3.82638263,13.812966 5.36053134,15.3347335 C6.82975839,16.7917853 8.8203563,17.6273775 10.8199434,17.6273775 C12.3940439,17.6273775 13.9311889,17.1144114 15.2655787,16.1446297 C15.3964208,16.0504114 15.5272629,16.0018748 15.6551087,16.0018748 C15.9287784,16.0018748 16.2094397,16.232186 16.3223035,16.5500537 C16.4421589,16.8869553 16.3402818,17.2057746 16.0436398,17.4237138 C14.495508,18.5543327 12.6986762,19.152 10.8479096,19.152" id="Fill-1"></path>
            </g>
        </g>
    </g>
</svg>