<svg width="389" height="60" viewBox="0 0 389 60" fill="none" xmlns="http://www.w3.org/2000/svg">
<path d="M304.393 10.3155L301.568 13.1407C300.398 14.3107 300.398 16.2107 301.568 17.3807C302.738 18.5507 304.638 18.5507 305.808 17.3807L308.633 14.5555" stroke="white" stroke-width="1.2" stroke-linecap="round" stroke-linejoin="round"/>
<path d="M307.222 7.4872L310.09 4.61911C311.26 3.44911 313.16 3.44911 314.33 4.61911C315.5 5.7891 315.5 7.68911 314.33 8.85911L311.462 11.7271" stroke="white" stroke-width="1.2" stroke-linecap="round" stroke-linejoin="round"/>
<path d="M310.049 8.90005L305.806 13.1422" stroke="white" stroke-width="1.2" stroke-linecap="round" stroke-linejoin="round"/>
<path d="M339.39 8.66681C339.69 7.95567 340.124 7.31453 340.659 6.77465C341.746 5.67879 343.253 5.00014 344.919 5.00014C348.233 5.00014 350.919 7.68643 350.919 11.0001V12.0001" stroke="white" stroke-width="1.2" stroke-linecap="round"/>
<path d="M338.918 11.0001C338.918 12.6482 339.582 14.1412 340.658 15.2256C341.745 16.3214 343.252 17.0001 344.918 17.0001C346.998 17.0001 348.831 15.9414 349.907 14.3334" stroke="white" stroke-width="1.2" stroke-linecap="round"/>
<path d="M337.669 12.2501L338.919 11.0001L340.169 12.2501" stroke="white" stroke-width="1.2" stroke-linecap="round"/>
<path d="M352.169 11.0835L350.919 12.3335L349.669 11.0835" stroke="white" stroke-width="1.2" stroke-linecap="round"/>
<path d="M377.622 10.5319L374.797 13.3577C373.627 14.5277 373.627 16.4277 374.797 17.5977C375.967 18.7677 377.867 18.7677 379.037 17.5977L382.419 14.2148" stroke="#253238" stroke-width="1.2" stroke-linecap="round" stroke-linejoin="round"/>
<path d="M384.69 11.9439L387.516 9.11804C388.686 7.94804 388.686 6.04805 387.516 4.87805C386.346 3.70805 384.446 3.70805 383.276 4.87805L380.199 7.95515" stroke="#253238" stroke-width="1.2" stroke-linecap="round" stroke-linejoin="round"/>
<path d="M387.986 13.068L374.326 9.40777" stroke="#253238" stroke-width="1.2" stroke-linecap="round" stroke-linejoin="round"/>
<path d="M381.156 11.2376L383.985 8.40976" stroke="#253238" stroke-width="1.2" stroke-linecap="round" stroke-linejoin="round"/>
<path fill-rule="evenodd" clip-rule="evenodd" d="M10.848 20.752C6.387 20.752 1.571 17.092 1.571 11.182V10.727L1.096 10.751C1.051 10.752 0.772 10.758 0.451 10.758C0.27 10.758 0.122 10.756 0 10.753C0.526 9.87601 1.688 8.09701 2.279 7.23801C2.598 7.71001 3.252 8.69901 4.571 10.765C4.5 10.767 4.421 10.768 4.329 10.768C4.118 10.768 3.905 10.761 3.734 10.756L2.983 10.748V11.182C2.981 13.37 3.826 15.413 5.36 16.935C6.829 18.392 8.82 19.227 10.82 19.227C12.394 19.227 13.931 18.714 15.265 17.744C15.396 17.65 15.527 17.602 15.655 17.602C15.929 17.602 16.209 17.832 16.322 18.15C16.442 18.487 16.34 18.806 16.043 19.023C14.495 20.154 12.699 20.752 10.848 20.752ZM19.29 15.142C18.973 14.673 18.321 13.688 16.994 11.613H18.572V11.182C18.576 8.93301 17.691 6.84901 16.085 5.31601C14.631 3.93001 12.684 3.13501 10.743 3.13501C9.166 3.13501 7.628 3.64801 6.293 4.62001C6.161 4.71601 6.026 4.76601 5.896 4.76601C5.626 4.76601 5.348 4.53601 5.237 4.21801C5.116 3.87601 5.218 3.55701 5.514 3.34201C7.079 2.20201 8.882 1.60001 10.727 1.60001C13.073 1.60001 15.413 2.58101 17.147 4.29301C18.98 6.10201 19.988 8.54901 19.987 11.182L19.986 11.615C19.986 11.615 20.935 11.605 21.199 11.605C21.333 11.605 21.448 11.607 21.546 11.608C21.23 12.13 20.587 13.152 19.29 15.142Z" fill="white"/>
<path fill-rule="evenodd" clip-rule="evenodd" d="M1.571 11.182C1.571 17.092 6.387 20.752 10.848 20.752C12.699 20.752 14.495 20.154 16.043 19.023C16.34 18.806 16.442 18.487 16.322 18.15C16.209 17.832 15.929 17.602 15.655 17.602C15.527 17.602 15.396 17.65 15.265 17.744C13.931 18.714 12.394 19.227 10.82 19.227C8.82 19.227 6.829 18.392 5.36 16.935C3.826 15.413 2.981 13.37 2.983 11.182V10.748L3.734 10.756C3.75075 10.7565 3.7679 10.757 3.78541 10.7575C3.94671 10.7623 4.13867 10.768 4.329 10.768C4.421 10.768 4.5 10.767 4.571 10.765C3.252 8.69901 2.598 7.71001 2.279 7.23801C1.688 8.09701 0.526 9.87601 0 10.753C0.122 10.756 0.27 10.758 0.451 10.758C0.772 10.758 1.051 10.752 1.096 10.751L1.571 10.727V11.182ZM16.994 11.613C18.321 13.688 18.973 14.673 19.29 15.142C20.587 13.152 21.23 12.13 21.546 11.608C21.5204 11.6077 21.4936 11.6074 21.4657 11.6071C21.3866 11.6061 21.298 11.605 21.199 11.605C20.935 11.605 19.986 11.615 19.986 11.615L19.987 11.182C19.988 8.54901 18.98 6.10201 17.147 4.29301C15.413 2.58101 13.073 1.60001 10.727 1.60001C8.882 1.60001 7.079 2.20201 5.514 3.34201C5.218 3.55701 5.116 3.87601 5.237 4.21801C5.348 4.53601 5.626 4.76601 5.896 4.76601C6.026 4.76601 6.161 4.71601 6.293 4.62001C7.628 3.64801 9.166 3.13501 10.743 3.13501C12.684 3.13501 14.631 3.93001 16.085 5.31601C17.691 6.84901 18.576 8.93301 18.572 11.182V11.613H16.994ZM6.50128 8.15494C6.50128 7.82356 6.76991 7.55494 7.10128 7.55494H10.6923C11.0236 7.55494 11.2923 7.82356 11.2923 8.15494C11.2923 8.48631 11.0236 8.75494 10.6923 8.75494H7.10128C6.76991 8.75494 6.50128 8.48631 6.50128 8.15494ZM7.10177 10.4953C6.7704 10.4953 6.50177 10.764 6.50177 11.0953C6.50177 11.4267 6.7704 11.6953 7.10177 11.6953H14.8818C15.2131 11.6953 15.4818 11.4267 15.4818 11.0953C15.4818 10.764 15.2131 10.4953 14.8818 10.4953H7.10177ZM6.50128 14.036C6.50128 13.7047 6.76991 13.436 7.10128 13.436H13.0863C13.4176 13.436 13.6863 13.7047 13.6863 14.036C13.6863 14.3674 13.4176 14.636 13.0863 14.636H7.10128C6.76991 14.636 6.50128 14.3674 6.50128 14.036Z" fill="white"/>
<path d="M55.9192 20.4001H39.9192C39.146 20.4001 38.5192 19.7733 38.5192 19.0001V3.00015C38.5192 2.22695 39.146 1.60015 39.9192 1.60015H55.9192C56.6924 1.60015 57.3192 2.22695 57.3192 3.00015V19.0001C57.3192 19.7733 56.6924 20.4001 55.9192 20.4001Z" stroke="#43B9EB" stroke-width="1.2"/>
<path d="M41.6692 16.6251V17.2251C41.3378 17.2251 41.0692 16.9565 41.0692 16.6251H41.6692ZM54.1692 16.6251H54.7691C54.7691 16.9565 54.5006 17.2251 54.1692 17.2251V16.6251ZM41.6692 9.12515H41.0692C41.0692 8.79378 41.3378 8.52515 41.6692 8.52515V9.12515ZM44.1692 9.12515H44.7691C44.7691 9.45652 44.5006 9.72515 44.1692 9.72515V9.12515ZM44.1692 6.12505H43.5692C43.5692 5.79368 43.8378 5.52505 44.1692 5.52505V6.12505ZM51.6692 6.12505V5.52505C52.0006 5.52505 52.2691 5.79368 52.2691 6.12505H51.6692ZM51.6692 9.12515V9.72515C51.3378 9.72515 51.0692 9.45652 51.0692 9.12515H51.6692ZM54.1692 9.12515V8.52515C54.5006 8.52515 54.7691 8.79378 54.7691 9.12515H54.1692ZM41.6692 16.0251H54.1692V17.2251H41.6692V16.0251ZM42.2691 9.12515V16.6251H41.0692V9.12515H42.2691ZM44.1692 9.72515H41.6692V8.52515H44.1692V9.72515ZM44.7691 6.12505V9.12515H43.5692V6.12505H44.7691ZM51.6692 6.72505H44.1692V5.52505H51.6692V6.72505ZM51.0692 9.12515V6.12505H52.2691V9.12515H51.0692ZM54.1692 9.72515H51.6692V8.52515H54.1692V9.72515ZM53.5692 16.6251V9.12515H54.7691V16.6251H53.5692Z" fill="#43B9EB"/>
<path d="M44.1692 16.6251V13.8251" stroke="#43B9EB" stroke-width="1.2" stroke-linecap="round" stroke-linejoin="round"/>
<path d="M46.6692 16.6251V13.8251" stroke="#43B9EB" stroke-width="1.2" stroke-linecap="round" stroke-linejoin="round"/>
<path d="M49.1692 16.6251V13.8251" stroke="#43B9EB" stroke-width="1.2" stroke-linecap="round" stroke-linejoin="round"/>
<path d="M51.6692 16.6251V13.8251" stroke="#43B9EB" stroke-width="1.2" stroke-linecap="round" stroke-linejoin="round"/>
<path fill-rule="evenodd" clip-rule="evenodd" d="M81.9188 0.6C81.9188 0.268629 82.1874 0 82.5188 0C87.0376 0 90.6813 3.64362 90.6813 8.1625C90.6813 8.49387 90.4126 8.7625 90.0813 8.7625C89.7499 8.7625 89.4813 8.49387 89.4813 8.1625C89.4813 4.30637 86.3749 1.2 82.5188 1.2C82.1874 1.2 81.9188 0.931371 81.9188 0.6ZM75.119 5.15C75.119 3.67863 76.3076 2.49 77.779 2.49H79.839C80.1703 2.49 80.439 2.75863 80.439 3.09C80.439 3.42137 80.1703 3.69 79.839 3.69H77.779C76.9703 3.69 76.319 4.34137 76.319 5.15V19.34C76.319 20.1486 76.9703 20.8 77.779 20.8H92.169C92.9776 20.8 93.629 20.1486 93.629 19.34V5.15C93.629 4.34137 92.9776 3.69 92.169 3.69H92.109C91.7776 3.69 91.509 3.42137 91.509 3.09C91.509 2.75863 91.7776 2.49 92.109 2.49H92.169C93.6403 2.49 94.829 3.67863 94.829 5.15V19.34C94.829 20.8114 93.6403 22 92.169 22H77.779C76.3076 22 75.119 20.8114 75.119 19.34V5.15ZM82.8312 3.4375C82.4999 3.4375 82.2312 3.70613 82.2312 4.0375C82.2312 4.36887 82.4999 4.6375 82.8312 4.6375C84.5624 4.6375 85.9812 6.05637 85.9812 7.7875C85.9812 8.11887 86.2499 8.3875 86.5812 8.3875C86.9126 8.3875 87.1812 8.11887 87.1812 7.7875C87.1812 5.39363 85.2251 3.4375 82.8312 3.4375Z" fill="#43B9EB"/>
<path d="M82.8756 19.032V17.808H79.6716V17.784L80.3556 17.196C81.7116 15.936 82.6956 14.832 82.6956 13.464C82.6956 12.192 81.8556 11.1 80.1276 11.1C79.1436 11.1 78.2916 11.448 77.7276 11.904L78.1596 12.948C78.5556 12.648 79.1436 12.3 79.8276 12.3C80.8476 12.3 81.2196 12.912 81.2196 13.608C81.2076 14.64 80.3436 15.576 78.5076 17.28L77.5836 18.132V19.032H82.8756ZM85.0252 19.164C85.5772 19.164 85.9372 18.756 85.9372 18.216C85.9372 17.652 85.5652 17.268 85.0252 17.268C84.4972 17.268 84.1132 17.664 84.1132 18.216C84.1132 18.756 84.4852 19.164 85.0252 19.164ZM91.4972 19.032V17.052H92.5052V15.936H91.4972V11.232H89.7572L86.5772 16.092V17.052H90.1052V19.032H91.4972ZM87.9812 15.936L87.9932 15.912L89.4212 13.776C89.6612 13.344 89.8652 12.948 90.1052 12.456H90.1532C90.1172 12.912 90.1052 13.368 90.1052 13.812V15.936H87.9812Z" fill="#43B9EB"/>
<path fill-rule="evenodd" clip-rule="evenodd" d="M112.119 5.15C112.119 3.67863 113.308 2.49 114.779 2.49H116.839C117.171 2.49 117.439 2.75863 117.439 3.09C117.439 3.42137 117.171 3.69 116.839 3.69H114.779C113.971 3.69 113.319 4.34137 113.319 5.15V19.34C113.319 20.1486 113.971 20.8 114.779 20.8H129.169C129.978 20.8 130.629 20.1486 130.629 19.34V5.15C130.629 4.34137 129.978 3.69 129.169 3.69H129.109C128.778 3.69 128.509 3.42137 128.509 3.09C128.509 2.75863 128.778 2.49 129.109 2.49H129.169C130.641 2.49 131.829 3.67863 131.829 5.15V19.34C131.829 20.8114 130.641 22 129.169 22H114.779C113.308 22 112.119 20.8114 112.119 19.34V5.15Z" fill="#43B9EB"/>
<path fill-rule="evenodd" clip-rule="evenodd" d="M118.919 0.600244C118.919 0.268873 119.188 0.000244141 119.519 0.000244141C124.038 0.000244141 127.681 3.6439 127.681 8.16275C127.681 8.49412 127.413 8.76275 127.081 8.76275C126.75 8.76275 126.481 8.49412 126.481 8.16275C126.481 4.30659 123.375 1.20024 119.519 1.20024C119.188 1.20024 118.919 0.931615 118.919 0.600244Z" fill="#43B9EB"/>
<path fill-rule="evenodd" clip-rule="evenodd" d="M119.231 4.03774C119.231 3.70637 119.5 3.43774 119.831 3.43774C122.226 3.43774 124.181 5.39393 124.181 7.78774C124.181 8.11911 123.913 8.38774 123.581 8.38774C123.25 8.38774 122.981 8.11911 122.981 7.78774C122.981 6.05656 121.563 4.63774 119.831 4.63774C119.5 4.63774 119.231 4.36912 119.231 4.03774Z" fill="#43B9EB"/>
<path d="M124.147 10.6H119.779L119.22 14.864C119.558 14.812 119.909 14.786 120.377 14.786C122.067 14.786 122.782 15.423 122.782 16.385C122.782 17.399 121.885 17.932 120.949 17.932C120.182 17.932 119.454 17.685 119.09 17.49L118.765 18.699C119.207 18.946 120.026 19.193 121.001 19.193C123.081 19.193 124.42 17.88 124.42 16.268C124.42 15.241 123.952 14.526 123.315 14.123C122.743 13.746 122.002 13.577 121.261 13.577C121.014 13.577 120.845 13.59 120.65 13.616L120.897 11.926H124.147V10.6Z" fill="#43B9EB"/>
<path fill-rule="evenodd" clip-rule="evenodd" d="M149.119 5.14999C149.119 3.67861 150.308 2.49 151.779 2.49H153.839C154.171 2.49 154.439 2.75863 154.439 3.09C154.439 3.42137 154.171 3.69 153.839 3.69H151.779C150.971 3.69 150.319 4.34136 150.319 5.14999V19.3399C150.319 20.1486 150.971 20.7999 151.779 20.7999H166.169C166.978 20.7999 167.629 20.1486 167.629 19.3399V5.14999C167.629 4.34136 166.978 3.69 166.169 3.69H166.109C165.778 3.69 165.509 3.42137 165.509 3.09C165.509 2.75863 165.778 2.49 166.109 2.49H166.169C167.641 2.49 168.829 3.67861 168.829 5.14999V19.3399C168.829 20.8113 167.641 21.9999 166.169 21.9999H151.779C150.308 21.9999 149.119 20.8113 149.119 19.3399V5.14999Z" fill="#43B9EB"/>
<path fill-rule="evenodd" clip-rule="evenodd" d="M155.919 0.600244C155.919 0.268873 156.188 0.000244141 156.519 0.000244141C161.038 0.000244141 164.681 3.6439 164.681 8.16275C164.681 8.49412 164.413 8.76275 164.081 8.76275C163.75 8.76275 163.481 8.49412 163.481 8.16275C163.481 4.30659 160.375 1.20024 156.519 1.20024C156.188 1.20024 155.919 0.931615 155.919 0.600244Z" fill="#43B9EB"/>
<path fill-rule="evenodd" clip-rule="evenodd" d="M156.231 4.03774C156.231 3.70637 156.5 3.43774 156.831 3.43774C159.226 3.43774 161.181 5.39393 161.181 7.78774C161.181 8.11911 160.913 8.38774 160.581 8.38774C160.25 8.38774 159.981 8.11911 159.981 7.78774C159.981 6.05656 158.563 4.63774 156.831 4.63774C156.5 4.63774 156.231 4.36912 156.231 4.03774Z" fill="#43B9EB"/>
<path d="M156.565 11.1H152.533L152.017 15.036C152.329 14.988 152.653 14.964 153.085 14.964C154.645 14.964 155.305 15.552 155.305 16.44C155.305 17.376 154.477 17.868 153.613 17.868C152.905 17.868 152.233 17.64 151.897 17.46L151.597 18.576C152.005 18.804 152.761 19.032 153.661 19.032C155.581 19.032 156.817 17.82 156.817 16.332C156.817 15.384 156.385 14.724 155.797 14.352C155.269 14.004 154.585 13.848 153.901 13.848C153.673 13.848 153.517 13.86 153.337 13.884L153.565 12.324H156.565V11.1ZM157.886 15.192V16.212H160.946V15.192H157.886ZM164.144 18.9H165.572V11.1H164.336L162.44 12.036L162.692 13.152L164.12 12.432H164.144V18.9Z" fill="#43B9EB"/>
<path fill-rule="evenodd" clip-rule="evenodd" d="M186.119 5.14999C186.119 3.67861 187.308 2.49 188.779 2.49H190.839C191.171 2.49 191.439 2.75863 191.439 3.09C191.439 3.42137 191.171 3.69 190.839 3.69H188.779C187.971 3.69 187.319 4.34136 187.319 5.14999V19.3399C187.319 20.1486 187.971 20.7999 188.779 20.7999H203.169C203.978 20.7999 204.629 20.1486 204.629 19.3399V5.14999C204.629 4.34136 203.978 3.69 203.169 3.69H203.109C202.778 3.69 202.509 3.42137 202.509 3.09C202.509 2.75863 202.778 2.49 203.109 2.49H203.169C204.641 2.49 205.829 3.67861 205.829 5.14999V19.3399C205.829 20.8113 204.641 21.9999 203.169 21.9999H188.779C187.308 21.9999 186.119 20.8113 186.119 19.3399V5.14999Z" fill="#43B9EB"/>
<path fill-rule="evenodd" clip-rule="evenodd" d="M192.919 0.600244C192.919 0.268873 193.188 0.000244141 193.519 0.000244141C198.038 0.000244141 201.681 3.6439 201.681 8.16275C201.681 8.49412 201.413 8.76275 201.081 8.76275C200.75 8.76275 200.481 8.49412 200.481 8.16275C200.481 4.30659 197.375 1.20024 193.519 1.20024C193.188 1.20024 192.919 0.931615 192.919 0.600244Z" fill="#43B9EB"/>
<path fill-rule="evenodd" clip-rule="evenodd" d="M193.231 4.03774C193.231 3.70637 193.5 3.43774 193.831 3.43774C196.226 3.43774 198.181 5.39393 198.181 7.78774C198.181 8.11911 197.913 8.38774 197.581 8.38774C197.25 8.38774 196.981 8.11911 196.981 7.78774C196.981 6.05656 195.563 4.63774 193.831 4.63774C193.5 4.63774 193.231 4.36912 193.231 4.03774Z" fill="#43B9EB"/>
<path d="M193.065 11.232H189.033L188.517 15.168C188.829 15.12 189.153 15.096 189.585 15.096C191.145 15.096 191.805 15.684 191.805 16.572C191.805 17.508 190.977 18 190.113 18C189.405 18 188.733 17.772 188.397 17.592L188.097 18.708C188.505 18.936 189.261 19.164 190.161 19.164C192.081 19.164 193.317 17.952 193.317 16.464C193.317 15.516 192.885 14.856 192.297 14.484C191.769 14.136 191.085 13.98 190.401 13.98C190.173 13.98 190.017 13.992 189.837 14.016L190.065 12.456H193.065V11.232ZM194.386 15.324V16.344H197.446V15.324H194.386ZM203.62 19.032V17.808H200.416V17.784L201.1 17.196C202.456 15.936 203.44 14.832 203.44 13.464C203.44 12.192 202.6 11.1 200.872 11.1C199.888 11.1 199.036 11.448 198.472 11.904L198.904 12.948C199.3 12.648 199.888 12.3 200.572 12.3C201.592 12.3 201.964 12.912 201.964 13.608C201.952 14.64 201.088 15.576 199.252 17.28L198.328 18.132V19.032H203.62Z" fill="#43B9EB"/>
<path fill-rule="evenodd" clip-rule="evenodd" d="M223.119 5.14999C223.119 3.67861 224.308 2.49 225.779 2.49H227.839C228.171 2.49 228.439 2.75863 228.439 3.09C228.439 3.42137 228.171 3.69 227.839 3.69H225.779C224.971 3.69 224.319 4.34136 224.319 5.14999V19.3399C224.319 20.1486 224.971 20.7999 225.779 20.7999H240.169C240.978 20.7999 241.629 20.1486 241.629 19.3399V5.14999C241.629 4.34136 240.978 3.69 240.169 3.69H240.109C239.778 3.69 239.509 3.42137 239.509 3.09C239.509 2.75863 239.778 2.49 240.109 2.49H240.169C241.641 2.49 242.829 3.67861 242.829 5.14999V19.3399C242.829 20.8113 241.641 21.9999 240.169 21.9999H225.779C224.308 21.9999 223.119 20.8113 223.119 19.3399V5.14999Z" fill="#43B9EB"/>
<path fill-rule="evenodd" clip-rule="evenodd" d="M229.919 0.600244C229.919 0.268873 230.188 0.000244141 230.519 0.000244141C235.038 0.000244141 238.681 3.6439 238.681 8.16275C238.681 8.49412 238.413 8.76275 238.081 8.76275C237.75 8.76275 237.481 8.49412 237.481 8.16275C237.481 4.30659 234.375 1.20024 230.519 1.20024C230.188 1.20024 229.919 0.931615 229.919 0.600244Z" fill="#43B9EB"/>
<path fill-rule="evenodd" clip-rule="evenodd" d="M230.231 4.03774C230.231 3.70637 230.5 3.43774 230.831 3.43774C233.226 3.43774 235.181 5.39393 235.181 7.78774C235.181 8.11911 234.913 8.38774 234.581 8.38774C234.25 8.38774 233.981 8.11911 233.981 7.78774C233.981 6.05656 232.563 4.63774 230.831 4.63774C230.5 4.63774 230.231 4.36912 230.231 4.03774Z" fill="#43B9EB"/>
<path d="M234.913 10.6078C234.718 10.5948 234.458 10.5948 234.107 10.6338C232.898 10.7378 231.884 11.1538 231.104 11.8818C230.22 12.7268 229.635 14.0528 229.635 15.6778C229.635 17.7578 230.766 19.3178 232.82 19.3178C234.614 19.3178 235.797 17.9138 235.797 16.3018C235.797 14.5858 234.666 13.5458 233.21 13.5458C232.365 13.5458 231.728 13.8838 231.312 14.3648H231.273C231.481 13.1948 232.339 12.1028 234.107 11.8948C234.432 11.8558 234.692 11.8558 234.926 11.8558L234.913 10.6078ZM232.807 18.1218C231.78 18.1218 231.247 17.2118 231.221 16.0938C231.221 15.8728 231.26 15.7168 231.325 15.5868C231.572 15.0798 232.105 14.7158 232.703 14.7158C233.639 14.7158 234.172 15.4178 234.172 16.3928C234.172 17.4068 233.639 18.1218 232.807 18.1218Z" fill="#43B9EB"/>
<path d="M273.887 9.95591C273.794 9.78189 273.632 9.67749 273.434 9.66588L270.569 9.46867L271.427 4.93271C271.474 4.67749 271.335 4.42227 271.103 4.32946C270.859 4.22505 270.58 4.30626 270.43 4.52667L265.987 11.058C265.871 11.2204 265.859 11.4292 265.94 11.6032C266.021 11.7772 266.195 11.8932 266.393 11.9164L269.687 12.2064L268.713 17.0556C268.655 17.3225 268.806 17.5777 269.049 17.6705C269.119 17.6937 269.177 17.7053 269.246 17.7053C269.432 17.7053 269.618 17.6125 269.71 17.4385L273.864 10.4895C273.968 10.3271 273.968 10.1299 273.887 9.95591Z" fill="#43B9EB"/>
<path d="M269.919 1.00014C264.409 1.00014 259.919 5.48971 259.919 11.0001C259.919 16.5105 264.409 21.0001 269.919 21.0001C275.429 21.0001 279.919 16.5105 279.919 11.0001C279.919 5.48971 275.429 1.00014 269.919 1.00014ZM269.919 19.898C265.012 19.898 261.009 15.9073 261.009 10.9885C261.009 6.06976 265.012 2.09064 269.919 2.09064C274.826 2.09064 278.829 6.08136 278.829 11.0001C278.829 15.9189 274.826 19.898 269.919 19.898Z" fill="#43B9EB"/>
<path fill-rule="evenodd" clip-rule="evenodd" d="M5.8006 38.6C5.8006 38.2686 6.06923 38 6.4006 38C10.9195 38 14.5631 41.6436 14.5631 46.1625C14.5631 46.4939 14.2945 46.7625 13.9631 46.7625C13.6317 46.7625 13.3631 46.4939 13.3631 46.1625C13.3631 42.3064 10.2567 39.2 6.4006 39.2C6.06923 39.2 5.8006 38.9314 5.8006 38.6ZM2.66 58.8C1.85137 58.8 1.2 58.1486 1.2 57.34V43.15C1.2 42.3414 1.85137 41.69 2.66 41.69H3.72C4.05137 41.69 4.31999 41.4214 4.31999 41.09C4.31999 40.7586 4.05137 40.49 3.72 40.49H2.66C1.18863 40.49 0 41.6786 0 43.15V57.34C0 58.8114 1.18863 60 2.66 60H17.05C18.5214 60 19.71 58.8114 19.71 57.34V43.15C19.71 41.6786 18.5214 40.49 17.05 40.49H15.8002C15.4688 40.49 15.2002 40.7586 15.2002 41.09C15.2002 41.4214 15.4688 41.69 15.8002 41.69H17.05C17.8586 41.69 18.51 42.3414 18.51 43.15V57.34C18.51 58.1486 17.8586 58.8 17.05 58.8H2.66ZM6.7131 41.4375C6.38173 41.4375 6.1131 41.7061 6.1131 42.0375C6.1131 42.3689 6.38173 42.6375 6.7131 42.6375C8.44423 42.6375 9.8631 44.0564 9.8631 45.7875C9.8631 46.1189 10.1317 46.3875 10.4631 46.3875C10.7945 46.3875 11.0631 46.1189 11.0631 45.7875C11.0631 43.3936 9.10697 41.4375 6.7131 41.4375Z" fill="#43B9EB"/>
<path d="M14.5248 57.1V50.632H14.5008L13.0728 51.352L12.8208 50.236L14.7168 49.3H15.9528V57.1H14.5248Z" fill="#43B9EB"/>
<path d="M8.26764 53.392H11.3276V54.412H8.26764V53.392Z" fill="#43B9EB"/>
<path d="M6.73003 49.192L6.74203 50.344C6.52603 50.344 6.28603 50.344 5.98603 50.38C4.35403 50.572 3.56203 51.58 3.37003 52.66H3.40603C3.79003 52.216 4.37803 51.904 5.15803 51.904C6.50203 51.904 7.54603 52.864 7.54603 54.448C7.54603 55.936 6.45403 57.232 4.79803 57.232C2.90203 57.232 1.85803 55.792 1.85803 53.872C1.85803 52.372 2.39803 51.148 3.21403 50.368C3.93403 49.696 4.87003 49.312 5.98603 49.216C6.31003 49.18 6.55003 49.18 6.73003 49.192ZM4.78603 56.128C5.55403 56.128 6.04603 55.468 6.04603 54.532C6.04603 53.632 5.55403 52.984 4.69003 52.984C4.13803 52.984 3.64603 53.32 3.41803 53.788C3.35803 53.908 3.32203 54.052 3.32203 54.256C3.34603 55.288 3.83803 56.128 4.78603 56.128Z" fill="#43B9EB"/>
<path fill-rule="evenodd" clip-rule="evenodd" d="M43.5106 38.6C43.5106 38.2686 43.7792 38 44.1106 38C48.6295 38 52.2731 41.6436 52.2731 46.1625C52.2731 46.4939 52.0045 46.7625 51.6731 46.7625C51.3417 46.7625 51.0731 46.4939 51.0731 46.1625C51.0731 42.3064 47.9667 39.2 44.1106 39.2C43.7792 39.2 43.5106 38.9314 43.5106 38.6ZM40.37 58.8C39.5614 58.8 38.91 58.1486 38.91 57.34V43.15C38.91 42.3414 39.5614 41.69 40.37 41.69H41.43C41.7614 41.69 42.03 41.4214 42.03 41.09C42.03 40.7586 41.7614 40.49 41.43 40.49H40.37C38.8986 40.49 37.71 41.6786 37.71 43.15V57.34C37.71 58.8114 38.8986 60 40.37 60H54.76C56.2314 60 57.42 58.8114 57.42 57.34V43.15C57.42 41.6786 56.2314 40.49 54.76 40.49H53.5102C53.1788 40.49 52.9102 40.7586 52.9102 41.09C52.9102 41.4214 53.1788 41.69 53.5102 41.69H54.76C55.5686 41.69 56.22 42.3414 56.22 43.15V57.34C56.22 58.1486 55.5686 58.8 54.76 58.8H40.37ZM44.4231 41.4375C44.0917 41.4375 43.8231 41.7061 43.8231 42.0375C43.8231 42.3689 44.0917 42.6375 44.4231 42.6375C46.1542 42.6375 47.5731 44.0564 47.5731 45.7875C47.5731 46.1189 47.8417 46.3875 48.1731 46.3875C48.5045 46.3875 48.7731 46.1189 48.7731 45.7875C48.7731 43.3936 46.817 41.4375 44.4231 41.4375Z" fill="#43B9EB"/>
<path d="M55.2108 57.1H49.9188V56.2L50.8428 55.348C52.6788 53.644 53.5428 52.708 53.5548 51.676C53.5548 50.98 53.1828 50.368 52.1628 50.368C51.4788 50.368 50.8908 50.716 50.4948 51.016L50.0628 49.972C50.6268 49.516 51.4788 49.168 52.4628 49.168C54.1908 49.168 55.0308 50.26 55.0308 51.532C55.0308 52.9 54.0468 54.004 52.6908 55.264L52.0068 55.852V55.876H55.2108V57.1Z" fill="#43B9EB"/>
<path d="M45.9777 53.392H49.0377V54.412H45.9777V53.392Z" fill="#43B9EB"/>
<path d="M44.4401 49.192L44.4521 50.344C44.2361 50.344 43.9961 50.344 43.6961 50.38C42.0641 50.572 41.2721 51.58 41.0801 52.66H41.1161C41.5001 52.216 42.0881 51.904 42.8681 51.904C44.2121 51.904 45.2561 52.864 45.2561 54.448C45.2561 55.936 44.1641 57.232 42.5081 57.232C40.6121 57.232 39.5681 55.792 39.5681 53.872C39.5681 52.372 40.1081 51.148 40.9241 50.368C41.6441 49.696 42.5801 49.312 43.6961 49.216C44.0201 49.18 44.2601 49.18 44.4401 49.192ZM42.4961 56.128C43.2641 56.128 43.7561 55.468 43.7561 54.532C43.7561 53.632 43.2641 52.984 42.4001 52.984C41.8481 52.984 41.3561 53.32 41.1281 53.788C41.0681 53.908 41.0321 54.052 41.0321 54.256C41.0561 55.288 41.5481 56.128 42.4961 56.128Z" fill="#43B9EB"/>
</svg>
