<?xml version="1.0" encoding="utf-8"?>
<!-- Generator: Adobe Illustrator 27.8.1, SVG Export Plug-In . SVG Version: 6.00 Build 0)  -->
<svg version="1.1" id="圖層_1" xmlns="http://www.w3.org/2000/svg" xmlns:xlink="http://www.w3.org/1999/xlink" x="0px" y="0px"
	 viewBox="0 0 16 16" style="enable-background:new 0 0 16 16;" xml:space="preserve">
<style type="text/css">
	.st0{fill:#FBC210;}
</style>
<path class="st0" d="M1.01,14.97c-0.32-0.19-0.57-0.45-0.75-0.77C0.09,13.88,0,13.52,0,13.13c0-0.38,0.1-0.75,0.3-1.1L6.16,1.82
	c0.2-0.36,0.46-0.63,0.79-0.81S7.64,0.74,8,0.74c0.36,0,0.71,0.09,1.04,0.27c0.33,0.18,0.6,0.45,0.8,0.81l5.86,10.21
	c0.1,0.17,0.18,0.35,0.23,0.54c0.05,0.19,0.08,0.37,0.08,0.56c0,0.39-0.09,0.75-0.26,1.07c-0.18,0.32-0.43,0.58-0.75,0.77
	c-0.32,0.19-0.7,0.29-1.14,0.29H2.15C1.71,15.26,1.33,15.17,1.01,14.97z M8.66,12.44c0.18-0.16,0.27-0.37,0.27-0.62
	c0-0.25-0.09-0.45-0.27-0.62c-0.18-0.17-0.4-0.25-0.65-0.25c-0.26,0-0.48,0.08-0.66,0.25c-0.18,0.17-0.27,0.37-0.27,0.62
	c0,0.25,0.09,0.46,0.28,0.62c0.18,0.16,0.4,0.24,0.65,0.24C8.26,12.68,8.48,12.6,8.66,12.44z M8.7,9.37l0.12-3.8
	C8.83,5.34,8.75,5.15,8.6,5C8.44,4.85,8.24,4.78,8,4.78C7.75,4.78,7.55,4.85,7.4,5C7.25,5.15,7.18,5.34,7.19,5.57L7.3,9.38
	c0.02,0.46,0.25,0.7,0.71,0.7C8.46,10.08,8.69,9.84,8.7,9.37L8.7,9.37z"/>
</svg>
