<svg width="24" height="24" viewBox="0 0 24 24" fill="none" xmlns="http://www.w3.org/2000/svg">
<rect width="24" height="24" fill="none"/>
<path d="M11.6974 16.9474C11.6974 13.989 14.0942 11.5921 17.0526 11.5921C20.0111 11.5921 22.4079 13.989 22.4079 16.9474C22.4079 19.9058 20.0111 22.3027 17.0526 22.3027C14.0942 22.3027 11.6974 19.9058 11.6974 16.9474Z" stroke="#00FCFF" stroke-width="1.5" stroke-linecap="round" stroke-linejoin="round"/>
<path d="M16.7632 15.5521C16.3405 15.3379 15.8368 15.6447 15.8368 16.1195V17.7752C15.8368 18.25 16.3405 18.5568 16.7632 18.3426L18.3784 17.5147C18.8416 17.2774 18.8416 16.6174 18.3784 16.38L16.7632 15.5521Z" fill="#00FCFF"/>
<path d="M9.56247 12.5343C8.58212 11.9645 8.36 10.6417 9.10065 9.78395L11.8098 6.64641C12.1282 6.27758 12.6635 6.18799 13.0851 6.43298V6.43298C13.5066 6.67796 13.6955 7.1884 13.535 7.64907L12.1702 11.5678C11.797 12.6392 10.5428 13.104 9.56247 12.5343V12.5343Z" fill="#00FCFF"/>
<path d="M5.65625 18.2C3.43828 16.5651 2 13.9383 2 10.9764C2 6.01888 6.02944 2 11 2C15.9706 2 20 6.01888 20 10.9764C20 11.4958 19.9558 12.0048 19.8709 12.5" stroke="#00FCFF" stroke-width="1.8"/>
</svg>
