<?xml version="1.0" encoding="UTF-8"?>
<svg width="312px" height="267px" viewBox="0 0 312 267" version="1.1" xmlns="http://www.w3.org/2000/svg" xmlns:xlink="http://www.w3.org/1999/xlink">
    <!-- Generator: Sketch 54.1 (76490) - https://sketchapp.com -->
    <title>location_topology</title>
    <desc>Created with Sketch.</desc>
    <g id="----sub-menu-@-aimesh-#-location" stroke="none" stroke-width="1" fill="none" fill-rule="evenodd">
        <g id="location_topology" fill="#FFFFFF">
            <g transform="translate(3.000000, 3.000000)">
                <path d="M27.0039,56.6 C28.6019,56.6 29.7999,57.9 29.9999,59.5 L29.9999,66.4 L29.9999,67.1 L29.9999,69.7 L29.9999,71.019 L29.9999,72.019 L29.9999,73.019 L29.9999,73.819 C29.9999,74.419 29.6009,74.819 29.0009,74.819 C28.4019,74.819 28.0029,74.419 28.0029,73.819 L28.0029,73.019 L28.0029,72.019 L28.0029,71.019 L1.9969,71.019 L1.9969,72.019 L1.9969,73.019 L1.9969,73.819 C1.9969,74.419 1.5979,74.819 0.9989,74.819 C0.3999,74.819 -0.0001,74.419 -0.0001,73.819 L-0.0001,73.019 L-0.0001,72.019 L-0.0001,71.019 L-0.0001,69.6 L-0.0001,67 L-0.0001,66.3 L-0.0001,59.4 C-0.0001,57.9 1.1989,56.6 2.7959,56.6 L2.9959,56.6 L4.2049,56.6 C5.7029,56.6 7.0019,57.8 7.0019,59.4 L7.0019,64.9 C7.0019,65.7 7.6009,66.3 8.3999,66.3 L21.6119,66.3 C22.4109,66.3 23.0099,65.7 23.0099,64.9 L23.0099,59.4 C23.0099,57.9 24.0429,56.6 25.6409,56.6 L26.2019,56.6 L27.0039,56.6 Z M8.9989,64.3 L21.0279,64.3 L21.0279,61.1 L8.9989,61.1 L8.9989,64.3 Z M8.9989,59.1 C8.7989,56.6 6.8399,54.6 4.3439,54.6 L3.0449,54.6 L3.0449,50.8 C3.0449,49.3 4.2439,48 5.8419,48 L24.2079,48 C25.7059,48 27.0039,49.2 27.0039,50.8 L27.0039,54.6 L25.7059,54.6 C23.1089,54.6 21.2279,56.6 21.0279,59.1 L8.9989,59.1 Z" id="Fill-1"></path>
                <path d="M23.8231,16.5313 C24.2831,16.2503 24.3741,15.5943 24.0071,15.1253 C21.9851,12.1253 18.5841,10.3443 15.0001,10.3443 C11.3241,10.3443 8.0151,12.1253 5.9011,15.1253 C5.6251,15.5943 5.7171,16.2503 6.1771,16.5313 C6.3611,16.6253 6.5441,16.7183 6.7281,16.7183 C7.0961,16.7183 7.3721,16.5313 7.5551,16.2503 C9.3021,13.8123 12.0591,12.3123 15.0001,12.3123 C17.9411,12.3123 20.6981,13.8123 22.4441,16.2503 C22.7201,16.7183 23.3631,16.8123 23.8231,16.5313 L23.8231,16.5313 Z M20.1471,20.6563 C20.6061,20.2813 20.6061,19.6253 20.2391,19.2503 C18.8601,17.8433 17.0221,17.0003 15.0001,17.0003 C12.9781,17.0003 11.1401,17.8433 9.7611,19.2503 C9.3941,19.6253 9.3941,20.2813 9.7611,20.6563 C10.0371,20.8433 10.2211,20.9373 10.4961,20.9373 C10.7721,20.9373 11.0481,20.8433 11.2321,20.6563 C12.2431,19.6253 13.5291,19.0623 15.0001,19.0623 C16.4701,19.0623 17.7571,19.6253 18.7681,20.6563 C19.1361,21.0313 19.7791,21.0313 20.1471,20.6563 L20.1471,20.6563 Z M15.0001,26.0943 C15.8271,26.0943 16.4701,25.4373 16.4701,24.5943 C16.4701,24.0313 16.1951,23.5623 15.7351,23.2813 C15.5511,23.1873 15.2761,23.0933 15.0001,23.0933 C14.7241,23.0933 14.4481,23.1873 14.2651,23.2813 C13.8051,23.5623 13.5291,24.0313 13.5291,24.5943 C13.5291,25.4373 14.1731,26.0943 15.0001,26.0943 L15.0001,26.0943 Z M29.6131,13.5313 C30.3481,14.0933 29.9811,15.3123 28.9701,15.3123 L25.8451,15.3123 L25.8451,26.3753 C25.8451,27.5943 24.9261,28.5313 23.7311,28.5313 L21.2501,28.5313 L19.1361,28.5313 L10.8641,28.5313 L7.8311,28.5313 L6.1771,28.5313 C5.0741,28.5313 4.1551,27.6873 4.0631,26.5623 L4.0631,26.3753 L4.0631,15.3123 L1.0301,15.3123 C0.0191,15.3123 -0.3489,14.0933 0.3871,13.5313 L14.4481,2.8433 C14.6321,2.7503 14.8161,2.6563 15.0921,2.6563 C15.2761,2.6563 15.5511,2.6563 15.7351,2.8433 L22.4441,8.0003 L26.5801,11.1873 L29.6131,13.5313 Z M27.2241,3.2183 L27.2241,9.1253 L22.4441,5.4683 L22.4441,3.2183 C22.4441,2.5623 22.9961,2.0003 23.6391,2.0003 L26.0291,2.0003 C26.6721,2.0003 27.2241,2.5623 27.2241,3.2183 L27.2241,3.2183 Z" id="Fill-3"></path>
                <path d="M29.5913,92.1993 C30.0003,92.1993 30.0003,92.6973 30.0003,92.8973 L30.0003,105.0563 L30.0003,108.6443 L30.0003,116.5183 L30.0003,120.0063 C30.0003,121.1033 29.0803,122.0003 27.9563,122.0003 L27.5483,122.0003 C26.4243,122.0003 25.5043,121.1033 25.5043,120.0063 L25.5043,118.3123 L25.7093,115.4223 L26.0153,111.0363 L26.1173,109.7413 C26.1173,106.2523 23.4613,105.9533 23.4613,101.9663 C23.4613,101.1693 23.4613,100.3723 23.6653,99.6743 C23.7673,98.8773 24.0743,98.1793 24.3803,97.5813 C25.1983,96.0863 26.3223,94.7903 27.7523,93.3953 C28.7743,92.4983 29.2843,92.1993 29.5913,92.1993 L29.5913,92.1993 Z M9.4633,102.2653 C9.5663,102.9633 9.5663,105.5543 8.2373,106.0533 C7.4203,106.4513 6.8073,107.2493 6.8073,108.1463 L6.9093,109.8403 L7.1133,114.7243 L7.3183,119.9073 C7.3183,121.0033 6.3983,121.9003 5.2743,121.9003 L4.1893,121.9003 C3.0653,121.9003 2.1453,121.0033 2.1453,119.9073 L2.6563,107.9463 C2.6563,106.9503 2.1453,106.1523 1.2263,105.8533 C0.1023,105.3553 0.0003,103.1623 0.0003,102.2653 L0.5113,92.7973 C0.5113,92.2993 0.9193,92.0003 1.3283,92.0003 C1.8393,92.0993 2.1453,92.3983 2.1453,92.8973 L1.6343,101.0693 C1.6343,101.5683 2.0433,101.9663 2.5543,101.9663 C3.0653,101.9663 3.4733,101.5683 3.4733,101.0693 L3.4733,92.7973 C3.4733,92.3983 3.8823,92.0003 4.2913,92.0003 L5.0703,92.0003 C5.4793,92.0003 5.8873,92.3983 5.8873,92.7973 L5.8873,101.0693 L5.8873,101.1693 C5.8873,101.6673 6.2963,102.0663 6.8073,102.0663 L6.9093,102.0663 C7.4203,102.0663 7.8293,101.6673 7.8293,101.1693 L7.7273,98.6773 L7.4203,92.9963 C7.3183,92.5983 7.7273,92.1993 8.1353,92.1993 L8.2373,92.1993 C8.6463,92.1993 9.0553,92.4983 9.0553,92.8973 L9.2593,97.1823 L9.3613,99.7743 L9.4633,102.2653 Z M16.6153,100.0733 C14.0613,100.0733 11.7113,101.4683 10.5873,103.5613 L10.5873,102.2653 L10.4853,101.1693 C12.0183,99.6743 14.2653,98.6773 16.6153,98.6773 C18.8633,98.6773 20.9073,99.4753 22.4393,100.8703 C22.3373,101.1693 22.3373,101.4683 22.3373,101.8673 C22.3373,102.2653 22.4393,102.6643 22.4393,103.0633 C21.2133,101.2693 19.0673,100.0733 16.6153,100.0733 L16.6153,100.0733 Z M23.6653,106.4513 C23.8693,106.7503 23.9723,106.9503 23.9723,107.2493 C24.4823,107.9463 24.7893,108.4453 24.8913,109.1433 C23.9723,112.8303 20.6003,115.5213 16.5133,115.5213 C12.0183,115.5213 8.3403,112.1333 7.9313,107.9463 C8.5443,107.6483 8.9533,107.2493 9.3613,106.7503 L9.3613,107.0493 C9.3613,110.9373 12.6313,114.0263 16.5133,114.0263 C20.4983,114.0263 23.6653,110.8373 23.6653,107.0493 L23.6653,106.4513 Z M8.0333,114.0263 C10.0763,116.4183 13.1423,117.9133 16.5133,118.0133 C19.7833,118.0133 22.6433,116.6183 24.6873,114.5253 L24.4823,117.3153 C22.2353,118.9103 19.4763,119.9073 16.5133,119.9073 C13.3463,119.9073 10.3833,118.8103 8.1353,116.9173 L8.0333,114.0263 Z M16.6153,96.1863 C14.2653,96.1863 12.1203,96.8833 10.2813,98.1793 L10.1793,95.8873 C12.1203,94.7903 14.2653,94.1923 16.6153,94.1923 C19.2723,94.1923 21.7243,94.9903 23.7673,96.2853 C23.4613,96.8833 23.1543,97.4813 22.9503,98.1793 C21.2133,96.8833 18.9653,96.1863 16.6153,96.1863 L16.6153,96.1863 Z" id="Fill-5"></path>
                <path d="M75.9364,10.5333 C76.5744,10.5333 77.0004,10.9603 77.0004,11.6003 L77.0004,27.3863 C77.0004,28.0263 76.5744,28.4533 75.9364,28.4533 C75.2984,28.4533 74.8724,28.0263 74.8724,27.3863 L74.8724,25.2533 L47.1274,25.2533 L47.1274,27.3863 C47.1274,28.0263 46.7014,28.4533 46.0634,28.4533 C45.4254,28.4533 45.0004,28.0263 45.0004,27.3863 L45.0004,11.6003 C45.0004,10.9603 45.4254,10.5333 46.0634,10.5333 C46.7014,10.5333 47.1274,10.9603 47.1274,11.6003 L47.1274,13.6263 L48.8284,13.6263 L73.1714,13.6263 L74.8724,13.6263 L74.8724,11.6003 C74.8724,10.9603 75.2984,10.5333 75.9364,10.5333 L75.9364,10.5333 Z M52.3384,6.4803 C51.7004,6.4803 51.1684,7.0133 51.1684,7.6533 L51.1684,11.8133 L48.8284,11.8133 L48.8284,4.9863 C48.8284,3.3863 50.2114,2.0003 51.8064,2.0003 L70.4064,2.0003 C72.0014,2.0003 73.3834,3.3863 73.3834,4.9863 L73.3834,11.8133 L71.1504,11.8133 L71.1504,7.6533 C71.1504,7.0133 70.6184,6.4803 69.9804,6.4803 L64.1104,6.4803 C63.4724,6.4803 62.9414,7.0133 62.9414,7.6533 L62.9414,11.8133 L60.1754,11.8133 L60.1754,7.6533 C60.1754,7.0133 59.6444,6.4803 59.0054,6.4803 L52.3384,6.4803 Z" id="Fill-7"></path>
                <path d="M50.7292,64 C50.8752,64 50.9792,63.769 51.0002,63.5 C51.0002,63.231 50.8752,63 50.7292,63 L47.2712,63 C47.1252,63 47.0002,63.231 47.0002,63.5 C47.0002,63.769 47.1252,64 47.2712,64 L50.7292,64 Z M53.0002,66.434 L53.0002,67.846 L46.0002,67.846 C45.4482,67.846 45.0002,67.399 45.0002,66.846 L45.0002,66.434 L53.0002,66.434 Z M76.2692,59 C76.7072,59 77.0002,59.286 77.0002,59.714 L77.0002,70.286 C77.0002,70.714 76.7072,71 76.2692,71 C75.8302,71 75.5372,70.714 75.5372,70.286 L75.5372,68.857 L55.4622,68.857 L55.4622,70.286 C55.4622,70.714 55.1702,71 54.7312,71 C54.2922,71 54.0002,70.714 54.0002,70.286 L54.0002,59.714 C54.0002,59.286 54.2922,59 54.7312,59 C55.1702,59 55.4622,59.286 55.4622,59.714 L55.4622,61.071 L56.6322,61.071 L74.3682,61.071 L75.5372,61.071 L75.5372,59.714 C75.5372,59.286 75.8302,59 76.2692,59 L76.2692,59 Z M58.7402,56.196 C58.2922,56.196 57.9202,56.576 57.9202,57.033 L57.9202,60 L56.2792,60 L56.2792,55.13 C56.2792,53.989 57.2492,53 58.3672,53 L72.6222,53 C73.7412,53 74.7102,53.989 74.7102,55.13 L74.7102,60 L73.1442,60 L73.1442,57.033 C73.1442,56.576 72.7712,56.196 72.3242,56.196 L67.4992,56.196 C67.0522,56.196 66.6792,56.576 66.6792,57.033 L66.6792,60 L65.7102,60 L64.7402,60 L64.7402,57.033 C64.7402,56.576 64.3672,56.196 63.9202,56.196 L58.7402,56.196 Z M49.5002,57 L49.5002,59 L48.5002,59 L48.5002,57 L46.1782,57 C46.1222,57 46.0672,56.973 46.0392,56.946 C46.0112,56.892 45.9842,56.839 46.0112,56.812 L47.4252,52.134 C47.4532,52.054 47.5082,52 47.5922,52 L50.4202,52 C50.5032,52 50.5582,52.054 50.5862,52.134 L52.0002,56.812 C52.0002,56.866 52.0002,56.919 51.9722,56.946 C51.9442,56.973 51.8892,57 51.8332,57 L49.5002,57 Z M47.0002,61 C47.0572,59.587 47.6002,58.954 48.7432,59.003 L49.2282,59.003 C50.4002,59.003 50.9432,59.587 51.0002,61 L53.0002,61 L53.0002,65.658 L45.0002,65.658 L45.0002,62 C45.0002,61.448 45.4482,61 46.0002,61 L47.0002,61 Z" id="Fill-9"></path>
                <path d="M110.5047,8.2759 C108.3547,8.2759 107.5137,7.3359 107.5137,7.3359 L109.5697,5.4549 L109.5697,3.4799 C109.5697,1.5049 111.1587,-0.0001 113.0277,-0.0001 L114.1497,-0.0001 C116.1117,-0.0001 117.6077,1.5989 117.6077,3.4799 L117.6077,13.0719 L115.5517,13.0719 L115.5517,3.4799 C115.5517,2.6329 114.8977,1.9749 114.0557,1.9749 L112.9347,1.9749 C112.0937,1.9749 111.4397,2.6329 111.4397,3.4799 L111.4397,5.3609 C112.4677,6.1129 113.8687,7.3359 113.8687,7.3359 C113.8687,7.3359 112.7477,8.2759 110.5047,8.2759 L110.5047,8.2759 Z M112.5607,12.3199 C113.0277,12.3199 113.3087,12.6019 113.4017,13.0719 L113.4017,13.1659 C113.4017,13.6369 113.0277,14.0129 112.5607,14.0129 C112.0937,14.0129 111.7197,13.6369 111.7197,13.1659 L111.7197,13.0719 C111.8127,12.6959 112.0937,12.3199 112.5607,12.3199 L112.5607,12.3199 Z M112.5607,8.9339 C113.0277,8.9339 113.4017,9.3099 113.4017,9.7809 C113.4017,10.2509 113.0277,10.6269 112.5607,10.6269 C112.0937,10.6269 111.7197,10.2509 111.7197,9.7809 C111.7197,9.3099 112.0937,8.9339 112.5607,8.9339 L112.5607,8.9339 Z M108.5417,12.3199 C108.9157,12.3199 109.2897,12.6019 109.3837,13.0719 L109.3837,13.1659 C109.3837,13.6369 109.0097,14.0129 108.5417,14.0129 C108.0747,14.0129 107.7007,13.6369 107.7007,13.1659 L107.7007,13.0719 C107.7947,12.6959 108.0747,12.3199 108.5417,12.3199 L108.5417,12.3199 Z M109.6637,11.5679 C109.6637,11.0969 110.0377,10.7209 110.5047,10.7209 C110.9717,10.7209 111.3457,11.0969 111.3457,11.5679 C111.3457,12.0379 110.9717,12.4139 110.5047,12.4139 C110.0377,12.4139 109.6637,12.0379 109.6637,11.5679 L109.6637,11.5679 Z M108.5417,8.9339 C109.0097,8.9339 109.3837,9.3099 109.3837,9.7809 C109.3837,10.2509 109.0097,10.6269 108.5417,10.6269 C108.0747,10.6269 107.7007,10.2509 107.7007,9.7809 C107.7007,9.3099 108.0747,8.9339 108.5417,8.9339 L108.5417,8.9339 Z M121.1587,14.9529 C121.7197,14.9529 121.9997,15.4229 121.9997,15.8939 C121.9997,16.3639 121.6267,16.8339 121.0657,16.8339 L119.7567,16.8339 L117.8877,24.6399 C117.7007,25.7679 116.9537,26.6149 116.0187,27.1789 L116.3927,28.8719 C116.4857,29.3419 116.1117,29.9059 115.6447,29.9999 L115.4577,29.9999 C114.9907,29.9999 114.6167,29.7179 114.5237,29.2479 L114.1497,27.6489 L105.5517,27.6489 L105.9257,27.6489 L99.8507,27.6489 L99.4767,29.2479 C99.3837,29.7179 99.0097,29.9999 98.5417,29.9999 L98.3547,29.9999 C97.7947,29.9059 97.5137,29.3419 97.6077,28.8719 L97.9817,27.1789 C97.0467,26.6149 96.3927,25.7679 96.1117,24.6399 L94.2427,16.8339 L92.9347,16.8339 C92.4677,16.8339 91.9997,16.3639 91.9997,15.8939 C91.9997,15.4229 92.3737,14.9529 92.9347,14.9529 L115.6447,14.9529 L117.6077,14.9529 L121.1587,14.9529 Z" id="Fill-11"></path>
                <path d="M107.3681,67.376 C107.7361,67.376 108.1041,67.085 108.1041,66.601 C108.1041,66.117 107.7361,65.826 107.3681,65.826 L106.4481,65.826 C105.9881,65.826 105.7121,66.117 105.7121,66.601 C105.7121,67.085 106.0801,67.376 106.4481,67.376 L107.3681,67.376 Z M114.9141,63.986 C115.6501,63.986 116.2941,64.567 116.3861,65.439 L116.3861,67.957 C116.3861,68.732 115.7421,69.41 115.0061,69.41 L98.4421,69.41 C97.7051,69.41 97.0611,68.732 97.0611,67.957 L97.0611,65.439 C97.0611,64.664 97.7051,63.986 98.4421,63.986 L114.9141,63.986 Z M120.6201,59.918 C121.3561,59.918 122.0001,60.596 122.0001,61.371 C122.0001,62.145 121.3561,62.823 120.6201,62.823 L119.1471,62.823 L120.4351,74.06 C120.4351,74.544 120.0671,75.028 119.6071,75.125 L119.5151,75.125 C119.0551,75.125 118.6871,74.738 118.5951,74.253 L117.3071,62.823 L96.0491,62.823 L94.7611,74.253 C94.6691,74.738 94.3011,75.125 93.8401,75.125 L93.7481,75.125 C93.1961,75.028 92.8281,74.544 92.9201,74.06 L94.3931,62.823 L93.3801,62.823 C92.6441,62.823 92.0001,62.145 92.0001,61.371 C92.0001,60.596 92.6441,59.918 93.3801,59.918 L96.3251,59.918 L92.9201,54.3 C92.7361,54.106 92.7361,53.815 92.8281,53.622 L95.4971,47.422 C95.5891,47.035 95.9571,46.938 96.3251,47.035 L99.1781,48.197 C100.3741,47.229 102.2151,47.229 103.4111,48.391 C103.5031,48.391 103.5031,48.488 103.5951,48.585 L99.1781,53.525 C99.0861,53.428 98.9941,53.428 98.9021,53.331 C97.7971,52.362 97.6131,50.716 98.1661,49.456 L96.3251,48.682 L94.1161,53.815 L97.7971,59.918 L111.2331,59.918 L111.2331,58.852 L111.2331,58.271 L111.2331,57.884 L111.2331,57.69 L107.0001,57.69 C105.5281,57.69 104.4231,56.431 104.4231,54.978 L104.4231,51.394 C104.4231,49.844 105.6201,48.682 107.0001,48.682 L116.8471,48.682 C118.3191,48.682 119.4231,49.941 119.4231,51.394 L119.4231,54.978 C119.4231,56.527 118.2271,57.69 116.8471,57.69 L112.6131,57.69 L112.6131,57.884 L112.6131,58.271 L112.6131,58.852 L112.6131,59.918 L120.6201,59.918 Z" id="Fill-13"></path>
                <path d="M139.8734,117.5573 L139.8734,117.4653 L149.9894,117.4653 L149.9894,113.4923 L139.8734,113.4923 L139.8734,117.5573 Z M144.1824,111.5523 L154.2984,111.5523 L154.2984,107.5803 L144.1824,107.5803 L144.1824,111.5523 Z M148.3974,101.6673 L148.3974,105.6403 L158.5134,105.6403 L158.5134,101.6673 L151.8634,101.6673 L148.3974,101.6673 Z M152.8934,95.8473 L152.8934,99.8203 L158.6074,99.8203 L162.8224,99.8203 L162.8224,95.8473 L152.8934,95.8473 Z M164.2494,94.0003 C166.3104,94.0003 168.0904,95.6633 167.9964,97.6033 L167.9964,115.6173 C167.9964,117.6493 166.3104,119.3123 164.2494,119.3123 L156.0784,119.3123 L155.2354,119.3123 L154.3924,119.3123 L149.9894,119.3123 L138.9364,119.3123 C138.3744,119.3123 138.0004,118.9433 138.0004,118.3883 L138.0004,112.5683 C138.0004,112.0143 138.3744,111.6453 138.9364,111.6453 L142.3084,111.6453 L142.3084,106.6563 C142.3084,106.1023 142.6834,105.7323 143.2454,105.7323 L146.6174,105.7323 L146.6174,100.7443 C146.6174,100.1893 146.9924,99.8203 147.5544,99.8203 L151.0204,99.8203 L151.0204,94.9243 C151.0204,94.3693 151.3944,94.0003 151.9564,94.0003 L163.6654,94.0003 L164.2494,94.0003 Z" id="Fill-15"></path>
                <path d="M302.4399,8.6615 L297.8559,5.2735 L297.8559,4.4715 C297.8559,3.8465 298.3949,3.3125 299.0239,3.3125 L301.2719,3.3125 C301.9009,3.3125 302.4399,3.8465 302.4399,4.4715 L302.4399,8.6615 Z M284.1039,23.1945 L284.7329,21.8565 L286.7999,23.9075 L285.4519,24.5315 C284.6429,24.6205 284.0139,23.9965 284.1039,23.1945 L284.1039,23.1945 Z M285.5419,19.8955 L291.9239,13.5655 L295.0699,16.5965 L288.5979,23.0155 L287.7889,23.3725 L286.6209,22.2135 L286.3509,21.9465 L285.0929,20.6975 L285.5419,19.8955 Z M295.9679,11.0685 L297.5859,12.6735 C298.0359,13.1195 298.0359,13.7435 297.5859,14.1895 L295.9679,15.7945 L292.8229,12.6735 L294.4399,11.0685 C294.8899,10.6225 295.5189,10.6225 295.9679,11.0685 L295.9679,11.0685 Z M300.2829,14.6355 L304.1479,14.6355 L300.3729,11.7825 L297.9459,9.9985 L291.0249,4.8275 L290.8449,4.8275 L277.7219,14.6355 L280.6879,14.6355 L281.5869,14.6355 L281.5869,25.7795 C281.6769,26.3145 282.1259,26.7605 282.6659,26.7605 L299.2039,26.7605 C299.8329,26.7605 300.2829,26.3145 300.2829,25.6905 L300.2829,14.6355 Z M305.2259,13.2085 C305.8559,13.6545 306.1249,14.4565 305.9449,15.0805 C305.6759,15.7945 304.9569,16.3295 304.1479,16.3295 L302.1699,16.3295 L302.1699,25.6015 C302.1699,27.2065 300.9119,28.4545 299.2939,28.4545 L282.7559,28.4545 C281.2279,28.4545 279.9689,27.2955 279.8789,25.8685 L279.8789,25.6905 L279.8789,16.4185 L277.9019,16.4185 C277.0929,16.4185 276.3739,15.8835 276.1039,15.1705 C275.8349,14.4565 276.1039,13.6545 276.7329,13.2085 L289.8559,3.4015 C290.5749,2.8665 291.4739,2.8665 292.1929,3.4015 L297.9459,7.7695 L302.4399,11.1575 L305.2259,13.2085 Z" id="Fill-17"></path>
                <path d="M59.0255,105.4135 C58.9315,105.5995 58.6505,105.5995 58.5565,105.4135 L57.8075,104.0165 C57.8075,103.9235 57.7135,103.8295 57.6195,103.8295 L56.0265,103.6435 C55.7455,103.6435 55.6515,103.3645 55.8395,103.1775 L56.9635,102.0605 C57.0575,101.9665 57.0575,101.8735 57.0575,101.7805 L56.7765,100.1975 C56.7765,100.0105 57.0575,99.8245 57.2455,99.9175 L58.6505,100.6625 L58.9315,100.6625 L60.3375,99.9175 C60.6185,99.8245 60.8055,99.9175 60.8055,100.1975 L60.5245,101.7805 C60.5245,101.8735 60.5245,101.9665 60.6185,102.0605 L61.7435,103.1775 C61.9305,103.3645 61.8365,103.6435 61.5555,103.6435 L59.9625,103.8295 C59.8685,103.8295 59.7755,103.9235 59.7755,104.0165 L59.0255,105.4135 Z M53.5905,96.7505 C53.3095,96.7505 53.0285,96.6575 52.8405,96.5645 C52.4655,96.1915 52.4655,95.5395 52.8405,95.1675 C54.7145,93.2105 57.9945,92.0005 61.5555,92.0005 C64.9295,92.0005 68.1155,93.0245 70.0835,94.8875 C70.4575,95.2605 70.4575,95.9125 70.0835,96.2845 C69.7085,96.6575 69.0525,96.6575 68.6775,96.2845 C67.7405,95.3535 66.4285,94.7015 64.9295,94.3285 L64.9295,96.2845 C64.9295,96.6575 64.5545,97.0305 64.1795,97.0305 C63.8045,97.0305 63.4295,96.6575 63.4295,96.2845 L63.4295,94.0495 C62.8675,94.0495 62.2115,93.9565 61.5555,93.9565 C60.8995,93.9565 60.1495,94.0495 59.4945,94.1425 L59.4945,98.4275 C59.4945,98.7995 59.1195,99.1725 58.7445,99.1725 C58.3695,99.1725 57.9945,98.7995 57.9945,98.4275 L57.9945,94.4215 C56.4955,94.8875 55.1835,95.5395 54.3405,96.4715 C54.1525,96.6575 53.8715,96.7505 53.5905,96.7505 L53.5905,96.7505 Z M63.1485,101.6875 C62.7735,99.9175 63.8045,98.3345 65.4915,97.7755 C65.7725,97.7755 65.9595,97.9615 65.8665,98.2415 C65.6785,98.6135 65.6785,99.0795 65.6785,99.5455 C65.7725,100.3835 66.3345,101.2215 66.9905,101.6875 C67.7405,102.2465 68.3965,102.4325 69.0525,102.3395 C69.3335,102.2465 69.4275,102.6195 69.3335,102.8055 C68.5835,103.9235 67.2715,104.5755 65.7725,104.2955 C64.4605,104.0165 63.4295,102.9915 63.1485,101.6875 L63.1485,101.6875 Z M71.1275,113.2385 L73.9385,113.2385 L73.9385,107.5565 L71.1275,107.5565 L71.1275,113.2385 Z M48.0615,113.2375 L50.7795,113.2375 L50.7795,107.5555 L48.0615,107.5555 L48.0615,113.2375 Z M66.6295,113.2385 L69.6285,113.2385 L69.6285,107.5565 L66.6295,107.5565 L66.6295,113.2385 Z M62.1315,113.2385 L65.1305,113.2385 L65.1305,107.5565 L62.1315,107.5565 L62.1315,113.2385 Z M52.3715,113.2375 L55.3705,113.2375 L55.3705,107.5555 L52.3715,107.5555 L52.3715,113.2375 Z M56.8705,113.2385 L59.8695,113.2385 L59.8695,107.5565 L56.8705,107.5565 L56.8705,113.2385 Z M74.9695,102.2465 C75.5315,102.2465 75.9065,102.7125 75.9995,103.7365 L75.9995,120.5035 C75.9995,120.5965 75.5315,121.0625 74.9695,121.0625 C74.4065,121.0625 73.9385,120.5965 73.9385,120.0375 L73.9385,118.4545 L48.0615,118.4545 L48.0615,120.0375 C48.0615,120.5965 47.5935,121.0625 47.0305,121.0625 C46.4685,121.0625 45.9995,120.5965 45.9995,120.5035 L45.9995,103.7365 C45.9995,102.7125 46.4685,102.2465 47.0305,102.2465 C47.5935,102.2465 48.0615,102.7125 48.0615,103.2715 L48.0615,105.9725 L73.9385,105.9725 L73.9385,103.2715 C73.9385,102.7125 74.4065,102.2465 74.9695,102.2465 L74.9695,102.2465 Z" id="Fill-19"></path>
                <path d="M49.233,142.5625 L49.233,159.3435 L47.827,159.3435 L47.827,142.5625 C47.827,140.5935 49.42,138.9995 51.389,138.9995 L70.524,138.9995 C72.493,138.9995 74.086,140.5935 74.086,142.5625 L74.086,159.4375 L72.68,159.4375 L72.68,142.5625 C72.68,141.3435 71.743,140.4065 70.524,140.4065 L51.389,140.4065 C50.17,140.4065 49.233,141.3435 49.233,142.5625 L49.233,142.5625 Z M58.233,146.5935 L63.483,146.5935 L63.483,145.0935 C63.483,144.6255 63.108,144.2495 62.639,144.2495 L59.077,144.2495 C58.608,144.2495 58.233,144.6255 58.233,145.0935 L58.233,146.5935 Z M66.577,155.7815 C66.577,154.6565 65.639,153.8125 64.608,153.8125 C63.577,153.8125 62.639,154.6565 62.639,155.7815 C62.639,156.8125 63.483,157.7505 64.608,157.7505 C65.639,157.7505 66.577,156.9065 66.577,155.7815 L66.577,155.7815 Z M58.702,150.6255 L59.358,153.2505 L64.889,151.7505 L64.233,149.1245 L58.702,150.6255 Z M62.816,142.7495 C64.035,142.7495 65.066,143.7815 65.066,145.0005 L65.066,146.5005 L67.222,146.5005 C68.91,146.5005 70.316,147.9065 70.316,149.5935 L70.316,156.4375 C70.316,158.1255 68.91,159.5315 67.222,159.5315 L54.67,159.5315 C52.983,159.5315 51.577,158.1255 51.577,156.4375 L51.577,149.5935 C51.577,147.9065 52.983,146.5005 54.67,146.5005 L56.827,146.5005 L56.827,145.0005 C56.827,143.7815 57.858,142.7495 59.077,142.7495 L62.816,142.7495 Z M74.967,161.2185 C75.531,161.2185 76,161.5935 76,162.1565 C76,162.7185 75.624,163.0935 75.061,163.0935 L71.587,163.0935 C72.056,163.4685 72.338,164.0315 72.338,164.6875 C72.338,165.9065 71.399,166.8435 70.178,166.8435 C68.958,166.8435 68.019,165.9065 68.019,164.6875 C68.019,164.0315 68.301,163.4685 68.77,163.0935 L53.23,163.0935 C53.699,163.4685 53.981,164.0315 53.981,164.6875 C53.981,165.9065 53.042,166.8435 51.822,166.8435 C50.601,166.8435 49.662,165.9065 49.662,164.6875 C49.662,164.0315 49.944,163.4685 50.413,163.0935 L46.939,163.0935 C46.376,163.0935 46,162.7185 46,162.1565 C46,161.5935 46.376,161.2185 46.939,161.2185 L74.967,161.2185 Z" id="Fill-21"></path>
                <path d="M70.488,195.788 L68.088,187.988 C67.788,187.188 68.288,186.288 69.088,186.088 C69.888,185.788 70.788,186.288 70.988,187.088 L73.288,194.888 C73.588,195.688 73.088,196.588 72.288,196.788 C71.488,196.988 70.688,196.488 70.488,195.788 L70.488,195.788 Z M65.587,196.719 C64.837,196.719 64.181,196.063 64.181,195.313 L64.181,187.719 C64.181,186.969 64.837,186.313 65.587,186.313 C66.337,186.313 66.993,186.969 66.993,187.719 L66.993,195.313 C66.993,196.063 66.337,196.719 65.587,196.719 L65.587,196.719 Z M61.745,196.719 C60.995,196.719 60.339,196.063 60.339,195.313 L60.339,187.719 C60.339,186.969 60.995,186.313 61.745,186.313 C62.494,186.313 63.15,186.969 63.15,187.719 L63.15,195.313 C63.15,196.063 62.494,196.719 61.745,196.719 L61.745,196.719 Z M61.62,204.888 C61.977,204.888 62.334,204.637 62.334,204.219 C62.334,203.8 61.977,203.549 61.62,203.549 L60.727,203.549 C60.281,203.549 60.013,203.8 60.013,204.219 C60.013,204.637 60.37,204.888 60.727,204.888 L61.62,204.888 Z M68.939,201.875 C69.653,201.875 70.278,202.461 70.367,203.131 L70.367,205.307 C70.367,205.977 69.742,206.563 69.028,206.563 L52.306,206.563 C51.592,206.563 50.967,205.977 50.967,205.307 L50.967,203.131 C50.967,202.461 51.592,201.875 52.306,201.875 L68.939,201.875 Z M74.594,197.503 C75.344,197.503 76,198.159 76,198.909 C76,199.659 75.344,200.315 74.594,200.315 L73.095,200.315 L74.407,211.19 C74.407,211.659 74.032,212.128 73.563,212.221 L73.47,212.221 C73.001,212.221 72.626,211.846 72.532,211.378 L71.22,200.315 L50.124,200.315 L48.812,211.378 C48.718,211.846 48.343,212.221 47.874,212.221 L47.781,212.221 C47.218,212.128 46.843,211.659 46.937,211.19 L48.437,200.315 L47.406,200.315 C46.656,200.315 46,199.659 46,198.909 C46,198.159 46.656,197.503 47.406,197.503 L50.405,197.503 L46.937,192.065 C46.75,191.878 46.75,191.596 46.843,191.409 L49.561,185.409 C49.655,185.034 50.03,184.94 50.405,185.034 L53.31,186.159 C54.528,185.221 56.403,185.221 57.621,186.346 C57.715,186.346 57.715,186.44 57.809,186.534 L53.31,191.315 C53.216,191.221 53.123,191.221 53.029,191.128 C51.904,190.19 51.717,188.596 52.279,187.378 L50.405,186.628 L48.156,191.596 L51.904,197.503 L74.594,197.503 Z" id="Fill-23"></path>
                <path d="M117.5111,109.1974 C118.0741,109.1974 118.4491,109.5794 118.4491,110.1524 C118.4491,110.7264 118.0741,111.1084 117.5111,111.1084 L112.6341,111.1084 C112.0711,111.1084 111.6961,110.7264 111.6961,110.1524 C111.6961,109.5794 112.0711,109.1974 112.6341,109.1974 L117.5111,109.1974 Z M112.6341,107.2864 C112.1651,107.2864 111.6961,106.9044 111.6961,106.3314 C111.6961,105.7584 112.0711,105.3754 112.6341,105.3754 L116.2921,105.3754 C116.8541,105.3754 117.2301,105.7584 117.2301,106.3314 C117.2301,106.9044 116.8541,107.2864 116.2921,107.2864 L112.6341,107.2864 Z M112.6341,103.4654 C112.1651,103.4654 111.6961,103.0824 111.6961,102.5094 C111.6961,101.9364 112.0711,101.5544 112.6341,101.5544 L116.7611,101.5544 C117.3231,101.5544 117.6991,101.9364 117.6991,102.5094 C117.6991,103.0824 117.3231,103.4654 116.7611,103.4654 L112.6341,103.4654 Z M109.8201,109.1974 C110.3831,109.1974 110.7581,109.5794 110.7581,110.1524 C110.7581,110.7264 110.3831,111.1084 109.8201,111.1084 C109.2571,111.1084 108.8821,110.7264 108.8821,110.1524 C108.8821,109.5794 109.3511,109.1974 109.8201,109.1974 L109.8201,109.1974 Z M109.8201,105.3754 C110.3831,105.3754 110.7581,105.7584 110.7581,106.3314 C110.7581,106.9044 110.3831,107.2864 109.8201,107.2864 C109.2571,107.2864 108.8821,106.9044 108.8821,106.3314 C108.8821,105.7584 109.3511,105.3754 109.8201,105.3754 L109.8201,105.3754 Z M109.8201,101.5544 C110.3831,101.5544 110.7581,101.9364 110.7581,102.5094 C110.7581,103.0824 110.3831,103.4654 109.8201,103.4654 C109.2571,103.4654 108.8821,103.0824 108.8821,102.5094 C108.8821,101.9364 109.3511,101.5544 109.8201,101.5544 L109.8201,101.5544 Z M103.7241,99.3564 C105.5061,99.9294 106.9131,101.5544 107.1001,103.4654 C107.1941,103.6564 107.0061,103.9424 106.7251,103.9424 L102.5981,104.3244 C102.3171,104.3244 102.0361,104.0384 102.1291,103.7514 L103.1611,99.6434 C103.2551,99.4524 103.4421,99.2614 103.7241,99.3564 L103.7241,99.3564 Z M104.7551,105.6624 C105.0371,105.6624 105.3181,105.8534 105.2241,106.1404 C105.2241,108.7194 103.3491,110.9174 100.7221,111.2034 C97.7211,111.4904 95.0011,108.9104 95.2831,105.6624 C95.4701,103.7514 96.6891,102.0314 98.3781,101.3634 C99.3161,101.0764 100.1601,100.9804 101.0041,101.0764 C101.2851,101.0764 101.4731,101.3634 101.3791,101.6494 L100.4411,105.4714 C100.3471,105.7584 100.6291,106.0444 100.9101,106.0444 L104.7551,105.6624 Z M117.3571,114.7384 C118.7641,114.7384 120.1711,113.4964 120.1711,112.0634 L120.1711,98.9744 C120.1711,97.5414 118.9521,96.2994 117.5451,96.2994 L108.6821,96.2994 L105.4931,96.2994 L96.3951,96.2994 C94.9881,96.2994 93.7691,97.5414 93.7691,98.9744 L93.7691,112.0634 C93.7691,113.4964 94.9881,114.7384 96.3951,114.7384 L97.1451,114.7384 L99.1151,114.7384 L114.8721,114.7384 L116.8411,114.7384 L117.3571,114.7384 Z M117.8731,94.8664 C120.1241,94.8664 121.9061,96.6814 122.0001,98.9744 L122.0001,112.0634 C122.0001,114.3564 120.2181,116.1724 117.9671,116.1724 L117.3101,116.1724 L118.6231,120.8534 C118.7171,121.3314 118.4361,121.8084 117.9671,122.0004 L117.6861,122.0004 C117.2171,122.0004 116.8411,121.7134 116.7481,121.3314 L115.2471,116.0764 L98.6461,116.0764 L97.1451,121.3314 C96.9581,121.7134 96.5831,122.0004 96.2081,122.0004 L95.9261,122.0004 C95.4571,121.9044 95.0821,121.3314 95.2701,120.8534 L96.5831,116.1724 L96.0331,116.1724 C93.7821,116.1724 92.0001,114.3564 92.0001,112.0634 L92.0001,98.9744 C92.0001,96.6814 93.7821,94.8664 96.0331,94.8664 L105.2111,94.8664 L105.2111,93.7194 C105.2111,92.7644 105.9621,92.0004 106.9001,92.0004 C107.8381,92.0004 108.5881,92.7644 108.5881,93.7194 L108.5881,94.8664 L117.8731,94.8664 Z" id="Fill-25"></path>
                <path d="M60.7811,246.2811 C59.0811,246.2811 58.2811,245.3811 58.1811,245.2811 C57.8811,244.9811 57.9811,244.4811 58.2811,244.1811 C58.5811,243.8811 59.0811,243.9811 59.2811,244.2811 C59.2811,244.2811 59.7811,244.7811 60.6811,244.7811 C61.6811,244.7811 62.0811,244.2811 62.0811,244.2811 C62.3811,243.9811 62.7811,243.9811 63.1811,244.1811 C63.4811,244.4811 63.5811,244.8811 63.2811,245.1811 C63.2811,245.3811 62.4811,246.2811 60.7811,246.2811 L60.7811,246.2811 Z M57.0781,237.5931 C56.9671,237.2831 57.0291,237.0361 57.2641,236.8501 L58.8331,236.2001 L59.8481,235.8281 L59.8481,235.1521 C59.8481,234.5951 60.1541,234.6211 60.9561,234.0981 C61.7571,233.5741 61.5431,232.2911 60.5861,232.2911 C59.6291,232.2911 59.5711,232.9501 59.5711,233.2281 C59.5711,233.6931 59.2021,233.9711 58.8331,233.9711 C58.5561,233.9711 58.1021,233.7481 58.1021,233.0771 C58.1021,232.4061 58.4641,232.0211 58.9251,231.5571 C59.3871,231.1861 59.9401,231.0001 60.4941,231.0001 L60.6791,231.0001 C61.5091,231.0931 62.8371,231.5571 62.8371,233.2281 C62.8371,234.9001 61.6941,235.3671 61.4171,235.5531 C61.2941,235.6301 61.2321,235.7841 61.2321,236.0141 L63.9091,237.1281 C63.9941,237.5071 63.9651,237.7871 63.8201,237.9681 C63.6031,238.2391 63.2691,238.3681 62.8371,238.2431 C62.5501,238.1591 62.0761,237.9421 61.4171,237.5931 C60.8631,237.3141 60.5861,237.2211 59.7561,237.5931 L58.6481,238.0571 L58.1871,238.2431 C57.6001,238.2431 57.2451,238.0571 57.0781,237.5931 L57.0781,237.5931 Z M53.7791,239.6241 C53.8591,239.9951 54.6321,246.0031 53.9751,247.1571 L53.9751,259.1351 C55.2551,259.3211 57.0251,259.7661 60.9321,259.6921 C64.2041,259.6311 66.4411,259.4451 67.6411,259.1351 C67.6411,258.2281 67.9521,246.9301 67.6411,246.5071 C67.3291,246.0841 67.1411,241.1661 67.4911,239.7211 L65.4101,239.1711 C65.3041,239.5431 64.4771,241.5101 60.7621,241.5101 C57.0471,241.5101 55.8941,239.3571 55.7341,239.0781 L53.7791,239.6241 Z M76.0001,242.7931 C76.0001,243.1641 75.2791,244.7791 74.8371,245.4481 C74.3961,246.1161 72.9541,247.4351 72.4001,247.2501 L69.5391,246.4141 L69.5391,259.7851 C69.5391,259.8781 69.2031,260.5101 68.3601,260.6121 C65.7761,260.8921 65.4201,261.0001 61.6441,261.0001 C57.8691,261.0001 55.0571,260.8081 53.7991,260.6121 C52.5411,260.4161 52.4151,259.7851 52.4151,259.6921 L52.4151,246.3211 L49.0271,247.2501 C48.4731,247.4351 47.4321,246.5071 46.7731,245.4481 C46.1141,244.3891 45.9301,242.4611 46.0221,242.0901 C46.0841,241.8421 48.0611,240.7141 51.9531,238.7071 L56.4761,237.4071 C56.4761,237.4071 58.0451,240.0071 61.3681,240.0071 C64.6901,240.0071 65.4781,237.3141 65.4781,237.3141 L69.9081,238.6141 C73.9081,241.1521 75.9381,242.5451 76.0001,242.7931 L76.0001,242.7931 Z" id="Fill-27"></path>
                <path d="M162.375,1.875 L165.238,5.625 L162.375,5.625 L162.375,1.875 Z M159.562,15 C159.045,15 158.625,14.58 158.625,14.063 C158.625,13.545 159.045,13.125 159.562,13.125 C160.08,13.125 160.5,13.545 160.5,14.063 C160.5,14.58 160.08,15 159.562,15 L159.562,15 Z M167.818,6.77 L162.266,0.221 C162.084,0.036 161.72,-0.056 161.447,0.036 C161.174,0.128 160.992,0.405 160.992,0.682 L160.992,6.585 L157.261,6.585 C156.988,6.585 156.806,6.77 156.806,7.047 L156.806,17.47 L153.802,18.761 L150.435,15.81 C150.162,15.533 149.798,15.533 149.434,15.625 L138.694,19.961 C138.239,20.145 137.966,20.699 138.148,21.16 C138.33,21.529 138.603,21.805 139.058,21.805 C139.149,21.805 139.331,21.805 139.422,21.713 L149.707,17.655 L153.074,20.606 C153.347,20.883 153.711,20.883 154.075,20.791 L156.806,19.592 L156.806,21.79 C156.806,22.067 156.988,22.252 157.261,22.252 L164.177,22.252 L153.802,26.956 L150.435,24.004 C150.162,23.727 149.798,23.727 149.434,23.82 L138.603,28.155 C138.148,28.34 137.875,28.893 138.057,29.354 C138.239,29.723 138.512,30 138.967,30 C139.058,30 139.24,30 139.331,29.908 L149.616,25.849 L152.983,28.801 C153.256,29.078 153.62,29.078 153.984,28.985 L167.272,22.99 C167.818,22.624 168,22.455 168,21.883 L168,7.231 C168,7.047 167.909,6.954 167.818,6.77 L167.818,6.77 Z" id="Fill-29"></path>
                <path d="M259.2584,149.6772 C259.8884,150.2372 260.0684,150.9832 259.9784,151.7292 C259.7084,152.4752 258.9884,153.0342 258.1784,153.0342 L256.1994,153.0342 L256.1994,161.0312 L256.1994,161.2182 L256.1994,162.6162 C256.1994,163.1762 255.8394,163.5492 255.2994,163.5492 C254.7594,163.5492 254.3994,163.1762 254.3994,162.6162 L254.3994,161.2182 L254.3994,161.1242 L254.3994,158.6072 L254.3994,158.5132 L254.3994,151.0762 L258.2684,151.0762 L254.4894,148.0922 L252.0594,146.2272 L245.1314,140.8182 L244.9514,140.8182 L231.8134,151.0762 L234.7834,151.0762 L235.6834,151.0762 L235.6834,158.6072 L235.6834,158.7002 L235.6834,161.2182 L235.6834,161.3112 L235.6834,162.7102 C235.6834,163.2692 235.3234,163.6422 234.7834,163.6422 C234.2434,163.6422 233.8834,163.2692 233.8834,162.7102 L233.8834,161.3112 L233.8834,161.1242 L233.8834,153.0342 L231.9034,153.0342 C231.0944,153.0342 230.3744,152.4752 230.1044,151.7292 C229.8344,150.9832 230.1044,150.1432 230.7344,149.6772 L243.8714,139.4192 C244.5914,138.8602 245.4914,138.8602 246.2114,139.4192 L251.9694,143.9892 L256.4694,147.5322 L259.2584,149.6772 Z M256.2504,140.2192 L256.2504,144.6252 L251.5624,141.0622 L251.5624,140.2192 C251.5624,139.5622 252.1144,139.0002 252.7574,139.0002 L255.0554,139.0002 C255.6984,139.0002 256.2504,139.5622 256.2504,140.2192 L256.2504,140.2192 Z M239.3754,158.6872 L250.6254,158.6872 L248.6054,154.9372 L241.3944,154.9372 L239.3754,158.6872 Z M249.2184,162.4372 C249.9764,162.4372 250.6254,161.7882 250.6254,161.0312 C250.6254,160.2742 249.9764,159.6252 249.2184,159.6252 C248.4614,159.6252 247.8124,160.2742 247.8124,161.0312 C247.8124,161.7882 248.4614,162.4372 249.2184,162.4372 L249.2184,162.4372 Z M240.7814,162.4372 C241.5384,162.4372 242.1874,161.7882 242.1874,161.0312 C242.1874,160.2742 241.5384,159.6252 240.7814,159.6252 C240.0244,159.6252 239.3754,160.2742 239.3754,161.0312 C239.3754,161.7882 240.0244,162.4372 240.7814,162.4372 L240.7814,162.4372 Z M252.0924,156.5562 C252.6254,156.2082 253.0044,156.3612 253.2834,156.6642 C253.5434,157.0722 253.4764,157.4522 253.0664,157.8082 C252.7924,158.0442 252.5354,158.2462 252.2934,158.4132 L252.2934,165.3802 C252.2934,165.8842 252.0044,166.1872 251.5214,166.1872 C251.0394,166.1872 250.7494,165.7832 250.7494,165.3802 L250.7494,164.3702 L239.2644,164.3702 L239.2644,165.3802 C239.2644,165.8842 238.9754,166.1872 238.4924,166.1872 C238.0104,166.1872 237.7204,165.7832 237.7204,165.3802 L237.7204,158.4132 L237.7204,158.3122 L236.9484,157.9082 C236.5624,157.7072 236.4664,157.3032 236.6594,156.8992 C236.8524,156.4952 237.2384,156.3942 237.6244,156.5962 L238.2994,157.0002 L240.1334,153.4662 C240.3264,153.1632 240.5194,153.0622 240.8094,153.0622 L248.9164,153.0622 C249.2054,153.0622 249.4954,153.2642 249.5914,153.4662 L251.4254,157.0002 C251.5144,156.9352 251.7364,156.7872 252.0924,156.5562 L252.0924,156.5562 Z" id="Fill-31"></path>
                <path d="M154.0799,73.5456 L154.6799,73.5456 L154.7799,73.5456 L154.7799,73.6456 L154.7799,73.8456 L154.7799,74.0996 L154.7799,74.3996 L154.7799,75.9996 L154.6799,75.9996 L151.6959,75.9996 L151.4959,75.9996 L151.4959,74.2996 L151.4959,74.0996 L151.4959,74.5456 L151.4959,74.3456 L151.4959,73.6456 L151.4959,73.5456 L151.6959,73.5456 L152.2999,73.5456 L152.4999,73.5456 L153.5289,73.5456 L154.0799,73.5456 Z M144.3349,50.6086 L140.7019,57.7556 L141.4469,57.7556 L141.6339,57.7556 L142.1929,57.7556 C142.6579,57.7556 143.1239,58.1316 143.1239,58.6956 C143.1239,59.1666 142.7519,59.6366 142.1929,59.6366 L141.6339,59.6366 L139.9569,61.0466 L139.9569,62.5516 L140.4219,62.1756 L143.3109,59.6366 L143.4039,59.5426 L144.5219,58.6016 L145.9189,58.6016 L144.8009,59.5426 L144.7079,59.6366 L141.8199,62.1756 L139.9569,63.8686 L139.9569,65.4666 L143.6829,62.2696 L146.5719,59.7306 L146.6649,59.6366 L146.9439,59.4486 C146.6649,59.2606 146.5719,58.9776 146.5719,58.6956 C146.5719,58.1316 147.0369,57.7556 147.5029,57.6616 L147.5959,57.6616 L148.6209,57.6616 L148.7139,57.6616 L148.9009,57.6616 L148.9009,49.6676 L145.9189,49.6676 C145.2669,49.6676 144.7079,50.0436 144.3349,50.6086 L144.3349,50.6086 Z M144.2419,70.1696 L144.2419,68.5706 L139.9569,72.2386 C140.0499,72.6146 140.3289,72.9906 140.6089,73.2726 L144.2419,70.1696 Z M148.0619,59.6366 L144.9879,62.2696 L139.9569,66.5176 L139.9569,68.1946 L146.8509,62.2696 L149.8319,59.6366 L148.7139,59.6366 L148.6209,59.6366 L148.0619,59.6366 Z M142.7519,74.3076 L142.5649,74.3076 L142.7519,74.3076 L144.1489,73.0846 L144.1489,71.4856 L141.3539,73.9306 C141.7269,74.1196 142.2859,74.3076 142.7519,74.3076 L142.7519,74.3076 Z M165.9499,50.6086 C165.9499,49.1976 164.7389,47.8806 163.3419,47.8806 L154.1179,47.8806 L153.9319,47.8806 L152.5339,47.8806 C151.6959,47.8806 151.0439,48.5396 151.0439,49.3856 L151.0439,58.6016 L151.0439,58.7896 L151.2299,58.6016 L152.5339,58.6016 L152.7209,58.6016 L152.5339,58.7896 L148.5279,62.2696 L139.9569,69.5236 L139.9569,71.1096 L144.4289,67.4416 L144.4289,67.1596 C144.4289,66.5956 144.8009,66.2196 145.3599,66.2196 C145.4539,66.2196 145.6399,66.2196 145.7329,66.3136 L150.2979,62.3636 L152.4409,60.4826 L154.3979,58.7896 L155.7949,58.7896 L152.3479,61.7056 L152.1619,61.8936 L151.6029,62.3636 L150.7639,63.0216 L146.1059,67.0656 L146.1059,67.1596 L146.1059,67.8186 L146.9439,67.8186 L156.5399,59.5426 C156.2609,59.3546 156.0749,59.0726 156.0749,58.6956 C156.0749,58.2256 156.4469,57.7556 157.0059,57.7556 L165.9499,57.7556 L165.9499,50.6086 Z M164.2729,59.6366 L151.6959,70.5456 C151.9749,70.9216 152.0679,71.2976 152.2549,71.6736 L165.9499,59.7306 L165.9499,59.6366 L164.2729,59.6366 Z M157.8449,59.6366 L148.2489,68.0066 C148.6209,68.1006 149.0869,68.2886 149.4599,68.4766 L159.6149,59.6366 L157.8449,59.6366 Z M151.0439,69.6046 C151.0439,69.6986 151.1369,69.6986 151.1369,69.6986 L162.8759,59.5426 L161.1059,59.5426 L150.2979,68.9466 C150.5779,69.1346 150.8569,69.3226 151.0439,69.6046 L151.0439,69.6046 Z M163.8079,74.1196 C164.7389,73.9306 165.4849,73.2726 165.8569,72.3326 L163.8079,74.1196 Z M162.3169,74.2136 L165.9499,71.0156 L165.9499,69.4166 L162.0369,72.8966 L162.0369,74.2136 L162.3169,74.2136 Z M165.9499,68.1946 L165.9499,66.5956 L161.9439,70.0756 L161.9439,71.6736 L165.9499,68.1946 Z M165.9499,65.3726 L165.9499,63.7746 L161.9439,67.2536 L161.9439,68.8526 L165.9499,65.3726 Z M161.5719,66.4076 L165.9499,62.5516 L165.9499,61.0466 L157.7519,68.1006 C158.4969,67.8186 159.1489,67.7246 159.9879,67.7246 L160.0809,67.6306 L160.0809,67.1596 C160.0809,66.5956 160.4539,66.2196 161.0129,66.2196 C161.2919,66.2196 161.3849,66.3136 161.5719,66.4076 L161.5719,66.4076 Z M163.2489,45.9996 C165.8569,45.9996 167.9999,48.0686 167.9999,50.5146 L167.9999,71.2036 C167.9999,72.5206 167.4409,73.7426 166.6029,74.5896 C165.7639,75.4356 164.3669,75.9996 163.2489,75.9996 L160.0809,75.9996 L160.0809,68.7586 C159.4289,68.7586 158.9629,68.8526 158.4039,69.0406 C157.4719,69.3226 156.7269,69.6986 156.1679,70.3576 C155.7949,70.7336 155.4219,71.2976 155.2359,71.7676 C155.0499,72.2386 154.8629,72.6146 154.7699,73.0846 L154.6769,73.0846 L154.2109,73.0846 L153.7449,73.0846 L153.6519,73.0846 C153.7449,72.4266 153.9319,71.7676 154.3039,71.0156 L152.6269,72.5206 C152.6269,72.7086 152.7209,72.8966 152.7209,73.0846 L152.1619,73.0846 L151.8819,73.0846 L151.5089,73.0846 C151.5089,72.8026 151.2299,71.9546 150.8569,71.2036 C150.6709,70.9216 150.2049,70.3576 150.2049,70.3576 C150.0189,70.0756 149.7389,69.8876 149.4599,69.6986 C149.1799,69.5106 148.8079,69.3226 148.5279,69.2286 C148.1549,69.1346 147.9689,69.0406 147.5029,68.9466 C147.2239,68.8526 146.5719,68.8526 146.2919,68.8526 L146.2919,75.9996 L142.7519,75.9996 C141.6339,75.9996 140.4219,75.7176 139.4909,74.8716 C138.5589,74.0246 137.9999,72.8026 137.9999,71.3916 L137.9999,61.1406 C137.9999,60.3886 138.1859,59.7306 138.5589,59.1666 L139.9569,56.5326 L143.3109,50.0436 C143.8699,49.1036 144.8939,48.5396 145.9189,48.5396 L148.9939,48.5396 C148.9939,48.3516 149.0869,48.1626 149.1799,47.9746 C149.7389,46.7526 150.9499,45.9996 152.2549,45.9996 L163.2489,45.9996 Z" id="Fill-33"></path>
                <path d="M247.8952,54.8676 C247.7082,54.8676 247.6142,54.8676 247.6142,54.7736 C247.4272,54.5866 247.4272,54.3056 247.6142,54.1186 L248.2702,53.4626 C248.4572,53.2756 248.7382,53.2756 248.9262,53.4626 C249.1132,53.6496 249.1132,53.9306 248.9262,54.1186 L248.2702,54.7736 C248.1762,54.8676 247.9892,54.8676 247.8952,54.8676 L247.8952,54.8676 Z M252.8612,48.5926 C252.5802,48.4986 252.2992,48.4046 251.8302,48.3116 L245.5532,48.3116 L245.5532,59.4566 L245.5532,60.0186 L246.4902,60.0186 L253.7042,60.0186 L253.7042,52.4326 L248.9262,57.3966 C248.8322,57.4906 248.6452,57.5836 248.5512,57.5836 C248.4572,57.5836 248.3632,57.5836 248.2702,57.4906 C248.0822,57.3026 248.0822,57.0216 248.2702,56.8346 L253.7982,51.1216 L253.7982,50.1846 C253.7982,49.8096 253.7042,49.4356 253.5172,49.1546 L250.1442,52.6196 C250.0502,52.7136 249.8632,52.8066 249.7692,52.8066 C249.6752,52.8066 249.5812,52.8066 249.4882,52.7136 C249.3002,52.5256 249.3002,52.2446 249.4882,52.0576 L252.8612,48.5926 Z M235.9962,50.1846 L235.9962,60.2066 L243.2102,60.2066 L244.3352,60.2066 L244.3352,59.5506 L244.3352,48.4046 L237.7762,48.4046 C236.8392,48.4046 235.9962,49.1546 235.9962,50.1846 L235.9962,50.1846 Z M258.9512,60.1126 C259.4192,60.1126 259.7942,60.4876 259.7942,61.0496 C259.7942,61.6116 259.4192,61.9856 258.8572,61.9856 L247.9892,61.9856 L245.6462,61.9856 L244.1472,61.9856 L241.8052,61.9856 L230.9372,61.9856 C230.3752,61.9856 230.0002,61.6116 230.0002,61.0496 C230.0002,60.4876 230.3752,60.1126 230.9372,60.1126 L234.5912,60.1126 L234.5912,50.1846 C234.5912,48.4046 235.9962,46.9996 237.7762,46.9996 L252.1112,46.9996 C253.8912,46.9996 255.2972,48.4046 255.2972,50.1846 L255.2972,60.1126 L258.9512,60.1126 Z M256.7212,71.7306 L258.4072,71.7306 L260.0002,71.7306 L260.0002,72.4806 C260.0002,74.0726 258.6882,75.1246 257.1892,75.1246 L255.4842,75.1246 L253.6102,75.1246 L250.4252,75.1246 L247.4272,75.1246 L242.5552,75.1246 L239.5562,75.1246 L236.3712,75.1246 L234.4972,75.1246 L232.8312,75.1246 C231.2382,75.1246 230.0202,73.9786 230.0202,72.4806 L230.0202,71.7306 L231.6132,71.7306 L233.7472,71.7306 L236.2772,71.7306 L237.9642,71.7306 L240.8682,71.7306 L242.6482,71.7306 L244.2412,71.7306 L245.7402,71.7306 L247.3332,71.7306 L249.1132,71.7306 L252.0172,71.7306 L253.7042,71.7306 L256.7212,71.7306 Z M245.9272,71.2116 L245.9272,71.2936 L244.0542,71.2936 L244.0542,71.2116 L244.0542,62.8846 L245.9272,62.8846 L245.9272,71.2116 Z M249.5462,71.2936 L247.8012,71.2936 C248.5772,69.9616 249.0612,68.2966 249.0612,66.5476 C249.0612,65.2156 248.7712,63.9666 248.3832,62.8846 L250.0312,62.8846 C250.4182,64.0506 250.6122,65.2156 250.6122,66.5476 C250.6122,68.2966 250.2242,69.9616 249.5462,71.2936 L249.5462,71.2936 Z M239.9712,62.8846 L241.5772,62.8846 C241.1762,63.9666 240.8752,65.2156 240.8752,66.5476 C240.8752,68.3796 241.3772,70.0446 242.1802,71.2936 L240.4732,71.2936 C239.7712,69.9616 239.3692,68.3796 239.3692,66.5476 C239.3692,65.2156 239.5702,63.9666 239.9712,62.8846 L239.9712,62.8846 Z M254.1922,71.2936 L252.4862,71.2936 C253.1892,69.7956 253.6912,68.2136 253.7912,66.5476 C253.7912,65.2156 253.4902,63.9666 253.0882,62.8846 L254.6942,62.8846 C255.0962,64.0506 255.2972,65.2996 255.2972,66.5476 C255.2972,68.2136 254.8952,69.8786 254.1922,71.2936 L254.1922,71.2936 Z M235.2872,62.8846 L236.9932,62.8846 C236.4912,64.0506 236.2912,65.2996 236.2912,66.5476 C236.2912,68.2966 236.7922,69.8786 237.4952,71.2936 L235.7892,71.2936 C235.0862,69.8786 234.6842,68.2136 234.6842,66.5476 C234.6842,65.2156 234.8852,64.0506 235.2872,62.8846 L235.2872,62.8846 Z M258.0322,71.2936 L256.2342,71.2936 C256.9082,69.7116 257.3582,68.1296 257.2452,66.5476 C257.2452,65.2156 257.0212,64.0506 256.6832,62.8846 L258.4822,62.8846 C258.8192,64.0506 259.0442,65.2996 259.0442,66.5476 C259.0442,68.2136 258.7072,69.7956 258.0322,71.2936 L258.0322,71.2936 Z M231.4992,62.8846 L233.2982,62.8846 C232.9602,64.0506 232.7362,65.2996 232.7362,66.5476 C232.7362,68.2136 233.0732,69.7956 233.7472,71.2936 L231.9492,71.2936 C231.2742,69.7956 230.9372,68.2136 230.9372,66.5476 C230.9372,65.2156 231.1622,64.0506 231.4992,62.8846 L231.4992,62.8846 Z" id="Fill-35"></path>
                <path d="M252.2154,18.6355 C252.5754,18.3665 252.9344,18.4565 253.2044,18.7255 C253.4734,19.0835 253.3834,19.4415 253.1144,19.7105 L252.3954,20.2485 L252.3954,26.2515 L250.5074,26.2515 C250.6874,26.5205 250.7774,26.7895 250.7774,27.0585 C250.7774,27.7745 250.2384,28.3125 249.5194,28.3125 C248.7994,28.3125 248.2604,27.7745 248.2604,27.0585 C248.2604,26.6995 248.3504,26.4305 248.5304,26.2515 L241.1594,26.2515 C241.3394,26.5205 241.4294,26.7895 241.4294,27.0585 C241.4294,27.7745 240.8904,28.3125 240.1714,28.3125 C239.4524,28.3125 238.9124,27.7745 238.9124,27.0585 C238.9124,26.6995 239.0024,26.4305 239.1824,26.2515 L237.5644,26.2515 C237.1154,26.2515 236.8454,25.9825 236.8454,25.5345 C236.8454,25.0865 237.2054,24.8185 237.5644,24.8185 L251.0474,24.8185 L251.0474,19.5315 L252.2154,18.6355 Z M259.2264,13.2595 C259.8554,13.7965 260.1254,14.5135 259.9454,15.1415 C259.6754,15.8575 258.9564,16.3955 258.1474,16.3955 L256.1704,16.3955 L256.1704,24.9975 L256.1704,25.2665 L256.1704,25.7145 L256.1704,26.3415 L256.1704,27.1475 C256.1704,27.6855 255.8104,28.0435 255.2714,28.0435 C254.7324,28.0435 254.3724,27.6855 254.3724,27.1475 L254.3724,26.3415 L254.3724,25.8935 L254.3724,25.7145 L254.3724,25.2665 L254.3724,24.9975 L254.3724,14.6035 L258.2374,14.6035 L254.4624,11.7365 L252.0354,9.9445 L245.1144,4.7475 L244.9344,4.7475 L231.8124,14.6035 L234.7784,14.6035 L235.6774,14.6035 L235.6774,25.2665 L235.6774,25.8935 L235.6774,27.2375 C235.6774,27.6855 235.3174,28.1335 234.7784,28.1335 C234.3284,28.1335 233.8794,27.7745 233.8794,27.2375 L233.8794,26.4305 L233.8794,25.8035 L233.8794,25.3555 L233.8794,25.0865 L233.8794,16.4855 L231.9014,16.4855 C231.0924,16.4855 230.3734,15.9475 230.1044,15.2305 C229.8344,14.5135 230.1044,13.7075 230.7334,13.2595 L243.8564,3.4035 C244.5754,2.8655 245.4744,2.8655 246.1934,3.4035 L251.9454,7.7935 L256.4404,11.1985 L259.2264,13.2595 Z M256.4404,8.7795 L251.8554,5.3745 L251.8554,4.5685 C251.8554,3.9405 252.3954,3.4035 253.0244,3.4035 L255.2714,3.4035 C255.9004,3.4035 256.4404,3.9405 256.4404,4.5685 L256.4404,8.7795 Z M249.6984,19.8745 L249.6984,23.6535 L237.5644,23.6535 L237.5644,18.2775 L242.9574,18.2775 L242.9574,20.3375 L244.3054,20.3375 L244.3054,19.8745 L244.0624,19.8745 L244.0624,13.3125 L246.7394,13.3125 L246.7394,15.2985 L248.0344,15.2985 L248.0344,13.3125 L250.6254,13.3125 L250.6254,19.8745 L249.6984,19.8745 Z" id="Fill-37"></path>
                <path d="M8.6161,167.199 C8.0871,167.199 7.6591,166.77 7.6591,166.242 C7.6591,165.713 8.0871,165.284 8.6161,165.284 L21.9231,165.284 C22.4521,165.284 22.8801,165.713 22.8801,166.242 C22.8801,166.77 22.4521,167.199 21.9231,167.199 L8.6161,167.199 Z M18.8881,141.644 C23.0511,142.872 25.9181,144.323 25.7671,145.302 C25.6711,145.876 25.0971,146.163 24.4271,146.068 L4.8011,141.951 C4.1311,141.855 3.7481,141.281 3.8441,140.706 C3.9941,139.731 7.2011,139.52 11.4851,140.074 C12.3091,138.575 14.0451,137.706 15.7751,138.091 C17.5101,138.476 18.7521,139.963 18.8881,141.644 L18.8881,141.644 Z M17.3481,141.217 C17.0821,140.384 16.3801,139.696 15.4631,139.493 C14.5651,139.293 13.6531,139.639 13.0671,140.305 C13.7721,140.42 14.4981,140.554 15.2361,140.706 C15.9621,140.868 16.6681,141.039 17.3481,141.217 L17.3481,141.217 Z M23.6541,159.204 C23.4761,159.236 23.2931,159.253 23.1071,159.253 L17.6771,159.253 L19.2921,162.125 C19.2921,162.125 20.0581,163.753 18.0481,164.04 C18.6221,163.848 18.3351,163.274 18.3351,163.274 L17.5691,161.934 L16.8031,163.274 C16.8031,163.274 16.5161,163.848 17.0901,164.04 C15.0801,163.848 15.8461,162.125 15.8461,162.125 L17.4611,159.253 L12.1241,159.253 L13.7401,162.125 C13.7401,162.125 14.5061,163.753 12.4951,164.04 C13.0701,163.848 12.7821,163.274 12.7821,163.274 L12.0171,161.934 L11.2511,163.274 C11.2511,163.274 10.9631,163.848 11.5381,164.04 C9.5271,163.848 10.2931,162.125 10.2931,162.125 L11.9091,159.253 L6.9891,159.253 C6.6941,159.253 6.4071,159.211 6.1351,159.133 L8.1871,161.838 C8.1871,161.838 9.1441,163.37 7.2301,163.944 C7.7081,163.753 7.4211,163.178 7.4211,163.178 L6.4641,161.934 L5.8901,163.37 C5.8901,163.37 5.7941,163.944 6.3681,164.04 C4.3581,164.04 4.8361,162.317 4.8361,162.317 L6.0621,159.111 C4.7801,158.708 3.8291,157.496 3.8291,156.094 L3.8291,149.215 L0.5111,147.463 C0.0431,147.216 -0.1359,146.637 0.1111,146.169 C0.3581,145.702 0.9371,145.523 1.4041,145.77 L3.8291,147.05 L3.8291,146.999 L26.2661,146.999 L26.2661,147.034 L28.5861,145.775 C29.0501,145.523 29.6311,145.695 29.8841,146.16 C30.1361,146.624 29.9641,147.205 29.4991,147.458 L26.2661,149.213 L26.2661,156.094 C26.2661,157.612 25.1511,158.908 23.7081,159.194 L24.7491,162.508 C24.7491,162.508 25.1321,164.231 23.1221,163.944 C23.6961,163.848 23.6001,163.274 23.6001,163.274 L23.1221,161.838 L22.0691,162.987 C22.0691,162.987 21.7811,163.561 22.2601,163.848 C20.3451,163.178 21.3981,161.742 21.3981,161.742 L23.6541,159.204 Z" id="Fill-39"></path>
                <path d="M192.8497,9.0037 L191.3227,9.0037 L190.5947,9.0037 L194.8777,5.3577 L198.2257,2.5067 C198.2487,2.4867 198.2757,2.4807 198.2997,2.4627 C198.4717,2.3397 198.6667,2.2677 198.8667,2.2677 C198.9417,2.2677 199.0147,2.2897 199.0887,2.3067 C199.1537,2.3217 199.2147,2.3417 199.2757,2.3707 C199.3557,2.4077 199.4367,2.4457 199.5077,2.5067 L202.3527,4.9277 L202.3757,4.9497 L202.3777,4.9507 L205.0247,7.2037 L206.0367,8.0647 L207.1397,9.0037 L207.1387,9.0037 L205.5537,9.0037 L205.0247,9.0037 L204.8287,9.0037 L204.0267,9.0037 L204.4257,8.6597 L203.5957,7.9537 L202.3767,9.0037 L200.8497,9.0037 L202.8267,7.2987 L201.9967,6.5937 L199.2007,9.0037 L197.6727,9.0037 L201.2287,5.9377 L200.3987,5.2327 L196.0257,9.0037 L194.4987,9.0037 L199.6307,4.5787 L198.8667,3.9277 L192.9057,9.0037 L192.8497,9.0037 Z M209.1207,24.2307 L209.8017,24.2307 L209.8017,26.0117 C209.8017,26.2607 209.7547,26.4967 209.6847,26.7197 C209.6807,26.7367 209.6767,26.7527 209.6717,26.7697 C209.6367,26.8717 209.5947,26.9687 209.5467,27.0637 C209.5337,27.0907 209.5217,27.1167 209.5077,27.1417 C209.4607,27.2257 209.4107,27.3057 209.3547,27.3817 C209.3307,27.4157 209.3047,27.4477 209.2797,27.4797 C209.2277,27.5447 209.1717,27.6067 209.1117,27.6647 C209.0737,27.7017 209.0347,27.7357 208.9947,27.7697 C208.9377,27.8167 208.8827,27.8627 208.8217,27.9037 C208.7677,27.9407 208.7107,27.9707 208.6547,28.0017 C208.5987,28.0317 208.5467,28.0627 208.4887,28.0877 C208.4147,28.1197 208.3357,28.1417 208.2577,28.1647 C208.2107,28.1787 208.1667,28.1957 208.1187,28.2067 C207.9897,28.2337 207.8577,28.2497 207.7207,28.2497 L207.7197,28.2497 L207.4717,28.2497 L205.9047,28.2497 L205.2357,28.2497 L204.2127,28.2497 L203.1297,28.2497 L202.6457,28.2497 L200.9537,28.2497 L199.3867,28.2497 L197.6947,28.2497 L196.1277,28.2497 L194.8687,28.2497 L194.4367,28.2497 L192.8697,28.2497 L191.8897,28.2497 L191.1787,28.2497 L191.1767,28.2497 L190.2467,28.2497 C190.2247,28.2497 190.2047,28.2437 190.1827,28.2437 C190.0197,28.2377 189.8637,28.2097 189.7137,28.1657 C189.3437,28.0597 189.0167,27.8487 188.7607,27.5607 L188.7597,27.5607 C188.5397,27.3127 188.3717,27.0137 188.2727,26.6767 C188.2277,26.5187 188.1937,26.3567 188.1807,26.1867 C188.1767,26.1277 188.1637,26.0717 188.1637,26.0117 L188.1637,25.3817 L188.1637,24.2307 L189.5697,24.2307 L189.5897,24.2307 L189.5897,25.5987 L191.2607,24.2307 L192.8277,24.2307 L189.9217,26.6107 C190.0177,26.6727 190.1257,26.7177 190.2467,26.7177 L191.4807,26.7177 L194.5187,24.2307 L194.5197,24.2307 L196.0847,24.2307 L196.0867,24.2307 L193.0487,26.7177 L194.7407,26.7177 L197.7787,24.2307 L199.3447,24.2307 L196.3077,26.7177 L197.9997,26.7177 L201.0367,24.2307 L202.6037,24.2307 L199.5667,26.7177 L201.2577,26.7177 L204.2957,24.2307 L205.8627,24.2307 L202.8247,26.7177 L203.1297,26.7177 L204.5167,26.7177 L207.5537,24.2307 L208.3767,24.2307 L209.1207,24.2307 Z M207.7197,26.7177 C207.7467,26.7177 207.7697,26.7047 207.7957,26.7007 L208.3297,26.2637 C208.3577,26.1847 208.3767,26.1017 208.3767,26.0117 L208.3767,24.8407 L206.0837,26.7177 L207.7197,26.7177 Z M213.8967,13.8807 C213.9017,13.8927 213.9117,13.9027 213.9167,13.9137 C214.1067,14.3437 213.9597,14.8567 213.5907,15.1367 C213.4217,15.2647 213.2067,15.3457 212.9557,15.3457 L209.8017,15.3457 L209.8017,23.6607 L208.6247,23.6607 L189.4037,23.6607 L188.1637,23.6607 L188.1637,15.3457 L185.0437,15.3457 C184.0607,15.3457 183.6247,14.1297 184.3907,13.5247 L188.6287,10.1757 L190.8367,10.1757 L205.4947,10.1757 L207.2257,10.1757 L209.3717,10.1757 L209.9187,10.6077 L210.5177,11.0807 L213.6097,13.5247 C213.7407,13.6287 213.8337,13.7517 213.8967,13.8807 L213.8967,13.8807 Z M198.0807,21.0747 C198.3787,20.8337 198.6117,20.5327 198.7787,20.1777 C198.9447,19.8217 199.0287,19.4137 199.0287,18.9547 C199.0287,18.6797 198.9837,18.4217 198.8937,18.1827 C198.8027,17.9427 198.6727,17.7277 198.5047,17.5387 C198.3347,17.3487 198.1287,17.1907 197.8837,17.0657 C197.6397,16.9397 197.3657,16.8577 197.0587,16.8207 L197.0587,16.7987 C197.3157,16.7317 197.5427,16.6327 197.7397,16.4997 C197.9357,16.3667 198.0987,16.2057 198.2297,16.0147 C198.3617,15.8267 198.4607,15.6097 198.5277,15.3677 C198.5947,15.1267 198.6297,14.8667 198.6297,14.5857 C198.6297,14.2257 198.5707,13.9007 198.4567,13.6157 C198.3417,13.3277 198.1717,13.0847 197.9487,12.8887 C197.7247,12.6927 197.4487,12.5417 197.1217,12.4377 C196.7957,12.3327 196.4197,12.2807 195.9957,12.2807 C195.6697,12.2807 195.3687,12.3107 195.0907,12.3687 C194.8127,12.4297 194.5677,12.5007 194.3557,12.5877 C194.1437,12.6707 193.9687,12.7587 193.8267,12.8497 C193.6867,12.9397 193.5937,13.0077 193.5507,13.0527 C193.5047,13.0977 193.4727,13.1397 193.4517,13.1777 C193.4317,13.2147 193.4137,13.2597 193.4007,13.3107 C193.3877,13.3637 193.3787,13.4297 193.3727,13.5087 C193.3697,13.5867 193.3667,13.6847 193.3667,13.8027 C193.3667,13.9457 193.3707,14.0617 193.3817,14.1517 C193.3897,14.2417 193.4027,14.3117 193.4207,14.3567 C193.4387,14.4057 193.4617,14.4367 193.4897,14.4537 C193.5147,14.4707 193.5477,14.4787 193.5847,14.4787 C193.6377,14.4787 193.7227,14.4397 193.8377,14.3647 C193.9527,14.2887 194.0927,14.2067 194.2577,14.1197 C194.4227,14.0317 194.6087,13.9507 194.8157,13.8777 C195.0247,13.8037 195.2457,13.7677 195.4797,13.7677 C195.6877,13.7677 195.8677,13.7967 196.0217,13.8567 C196.1757,13.9157 196.3017,13.9957 196.3977,14.0987 C196.4937,14.2007 196.5687,14.3207 196.6177,14.4617 C196.6677,14.6007 196.6917,14.7497 196.6917,14.9057 C196.6917,15.1107 196.6557,15.2967 196.5837,15.4647 C196.5117,15.6327 196.4077,15.7757 196.2687,15.8947 C196.1307,16.0137 195.9607,16.1057 195.7577,16.1687 C195.5547,16.2327 195.3217,16.2647 195.0597,16.2647 L194.2957,16.2647 C194.2407,16.2647 194.1947,16.2747 194.1567,16.2937 C194.1177,16.3127 194.0867,16.3457 194.0617,16.3937 C194.0357,16.4397 194.0177,16.5077 194.0077,16.5967 C193.9957,16.6827 193.9907,16.7967 193.9907,16.9337 C193.9907,17.0807 193.9957,17.2007 194.0077,17.2927 C194.0177,17.3857 194.0377,17.4577 194.0647,17.5107 C194.0917,17.5617 194.1257,17.5967 194.1657,17.6127 C194.2067,17.6297 194.2557,17.6387 194.3157,17.6387 L195.0737,17.6387 C195.3947,17.6387 195.6737,17.6717 195.9107,17.7377 C196.1477,17.8037 196.3437,17.8987 196.4987,18.0187 C196.6547,18.1397 196.7717,18.2847 196.8507,18.4567 C196.9307,18.6267 196.9697,18.8187 196.9697,19.0317 C196.9697,19.2277 196.9367,19.4047 196.8717,19.5627 C196.8057,19.7217 196.7067,19.8567 196.5747,19.9687 C196.4407,20.0797 196.2797,20.1667 196.0887,20.2277 C195.8997,20.2887 195.6817,20.3207 195.4317,20.3207 C195.1387,20.3207 194.8767,20.2877 194.6467,20.2247 C194.4167,20.1607 194.2147,20.0907 194.0447,20.0187 C193.8717,19.9447 193.7307,19.8757 193.6207,19.8117 C193.5107,19.7477 193.4327,19.7157 193.3877,19.7157 C193.3157,19.7157 193.2617,19.7597 193.2257,19.8467 C193.1877,19.9347 193.1707,20.0927 193.1707,20.3207 C193.1707,20.4577 193.1737,20.5757 193.1807,20.6727 C193.1867,20.7697 193.1987,20.8497 193.2147,20.9147 C193.2297,20.9787 193.2487,21.0347 193.2687,21.0817 C193.2887,21.1297 193.3197,21.1717 193.3597,21.2097 C193.4007,21.2477 193.4857,21.3017 193.6177,21.3737 C193.7477,21.4447 193.9147,21.5137 194.1157,21.5797 C194.3167,21.6467 194.5477,21.7017 194.8097,21.7467 C195.0717,21.7917 195.3517,21.8137 195.6497,21.8137 C196.1417,21.8137 196.5957,21.7517 197.0117,21.6257 C197.4257,21.5007 197.7837,21.3177 198.0807,21.0747 L198.0807,21.0747 Z M205.4257,13.8027 C205.4507,13.7467 205.4687,13.6687 205.4807,13.5717 C205.4927,13.4737 205.4977,13.3547 205.4977,13.2117 C205.4977,13.0707 205.4927,12.9497 205.4807,12.8497 C205.4687,12.7497 205.4507,12.6707 205.4257,12.6117 C205.4017,12.5517 205.3727,12.5097 205.3417,12.4827 C205.3087,12.4577 205.2737,12.4437 205.2317,12.4437 L201.1087,12.4437 C200.9587,12.4437 200.8347,12.4907 200.7317,12.5827 C200.6307,12.6747 200.5797,12.8257 200.5797,13.0337 L200.5797,21.3797 C200.5797,21.4327 200.5947,21.4767 200.6237,21.5157 C200.6527,21.5537 200.7017,21.5857 200.7697,21.6117 C200.8377,21.6377 200.9277,21.6567 201.0447,21.6717 C201.1587,21.6867 201.3017,21.6937 201.4747,21.6937 C201.6497,21.6937 201.7947,21.6867 201.9067,21.6717 C202.0207,21.6567 202.1117,21.6377 202.1807,21.6117 C202.2527,21.5857 202.2997,21.5537 202.3287,21.5157 C202.3537,21.4767 202.3677,21.4327 202.3677,21.3797 L202.3677,17.9517 L205.0567,17.9517 C205.0977,17.9517 205.1337,17.9377 205.1657,17.9127 C205.1967,17.8857 205.2247,17.8417 205.2497,17.7797 C205.2747,17.7197 205.2927,17.6417 205.3037,17.5457 C205.3147,17.4497 205.3207,17.3317 205.3207,17.1897 C205.3207,17.0467 205.3147,16.9287 205.3037,16.8337 C205.2927,16.7397 205.2747,16.6637 205.2497,16.6057 C205.2247,16.5507 205.1967,16.5087 205.1657,16.4847 C205.1337,16.4627 205.0977,16.4497 205.0567,16.4497 L202.3677,16.4497 L202.3677,13.9737 L205.2317,13.9737 C205.2737,13.9737 205.3087,13.9597 205.3417,13.9307 C205.3727,13.9017 205.4017,13.8607 205.4257,13.8027 L205.4257,13.8027 Z M209.9037,8.0517 L207.2747,6.0977 L204.9047,4.3347 L204.9047,3.2347 C204.9047,2.5527 205.4637,1.9997 206.1537,1.9997 L208.6537,1.9997 C209.3437,1.9997 209.9037,2.5527 209.9037,3.2347 L209.9037,8.0517 Z" id="Fill-41"></path>
                <path d="M209.0883,70.2544 L209.7693,70.2544 L209.7693,72.0254 C209.7693,72.3814 209.6833,72.7134 209.5443,73.0124 C209.5333,73.0364 209.5203,73.0594 209.5083,73.0834 C209.4133,73.2714 209.3013,73.4484 209.1613,73.5984 C209.1443,73.6164 209.1253,73.6284 209.1083,73.6464 C208.9753,73.7794 208.8253,73.8894 208.6623,73.9824 C208.3723,74.1464 208.0453,74.2504 207.6933,74.2504 L207.4453,74.2504 L205.8823,74.2504 L205.2163,74.2504 L204.1953,74.2504 L203.1173,74.2504 L202.6333,74.2504 L200.9473,74.2504 L199.3843,74.2504 L197.6983,74.2504 L196.1373,74.2504 L196.1363,74.2504 L194.8803,74.2504 L194.4493,74.2504 L192.8873,74.2504 L191.9103,74.2504 L191.2003,74.2504 L190.2723,74.2504 C190.2623,74.2504 190.2513,74.2484 190.2403,74.2474 C190.2303,74.2454 190.2203,74.2444 190.2083,74.2434 C190.1273,74.2414 190.0523,74.2184 189.9743,74.2054 C189.8963,74.1914 189.8153,74.1874 189.7403,74.1664 C189.3733,74.0614 189.0473,73.8524 188.7913,73.5654 C188.6803,73.4424 188.5843,73.3054 188.5013,73.1584 C188.4193,73.0124 188.3533,72.8544 188.3043,72.6864 C188.2593,72.5294 188.2253,72.3684 188.2123,72.1984 C188.2083,72.1414 188.1953,72.0844 188.1953,72.0254 L188.1953,71.3974 L188.1953,70.2544 L189.5973,70.2544 L189.6163,70.2544 L189.6163,71.6154 L191.2823,70.2544 L192.8443,70.2544 L189.9483,72.6204 C190.0443,72.6814 190.1513,72.7264 190.2723,72.7264 L191.5033,72.7264 L194.5323,70.2544 L196.0933,70.2544 L196.0943,70.2544 L193.0663,72.7264 L194.7533,72.7264 L197.7803,70.2544 L199.3423,70.2544 L196.3153,72.7264 L198.0023,72.7264 L201.0293,70.2544 L202.5913,70.2544 L199.5643,72.7264 L201.2503,72.7264 L204.2783,70.2544 L205.8403,70.2544 L202.8123,72.7264 L203.1173,72.7264 L204.4993,72.7264 L207.5263,70.2544 L208.3483,70.2544 L209.0883,70.2544 Z M207.6933,72.7264 C207.7193,72.7264 207.7423,72.7144 207.7683,72.7104 L208.3013,72.2754 C208.3293,72.1964 208.3483,72.1134 208.3483,72.0254 L208.3483,70.8604 L206.0613,72.7264 L207.6933,72.7264 Z M190.8893,55.2704 L190.1563,55.2704 L197.8463,48.5254 C197.9163,48.4644 197.9953,48.4264 198.0743,48.3884 C198.2083,48.3224 198.3483,48.2784 198.4923,48.2784 C198.5043,48.2784 198.5163,48.2844 198.5293,48.2854 C198.5913,48.2894 198.6543,48.3044 198.7153,48.3194 L198.7163,48.3194 C198.7793,48.3334 198.8403,48.3544 198.9003,48.3814 C198.9813,48.4164 199.0593,48.4594 199.1303,48.5214 C199.1323,48.5234 199.1363,48.5244 199.1373,48.5254 L204.6973,53.4014 L205.7163,54.2954 L206.8273,55.2704 L205.2293,55.2704 L204.6973,55.2704 L204.5003,55.2704 L203.6913,55.2704 L204.0923,54.9124 L203.2553,54.1804 L202.0283,55.2704 L200.4903,55.2704 L202.4813,53.5014 L201.6453,52.7684 L198.8283,55.2704 L197.2893,55.2704 L200.8713,52.0884 L200.0353,51.3564 L195.6283,55.2704 L194.0903,55.2704 L199.2613,50.6774 L198.4923,50.0004 L192.4843,55.2704 L192.4283,55.2704 L190.8893,55.2704 Z M210.4903,57.3504 L213.6063,59.7174 C214.0893,60.0844 214.0983,60.6814 213.7953,61.0784 C213.6123,61.3164 213.3193,61.4824 212.9473,61.4824 L209.7693,61.4824 L209.7693,69.5384 L208.3243,69.5384 L188.9573,69.5384 L188.1953,69.5384 L188.1953,61.4824 L185.0523,61.4824 C184.0613,61.4824 183.6213,60.3044 184.3943,59.7174 L188.6633,56.4734 L190.3993,56.4734 L205.1703,56.4734 L206.9153,56.4734 L209.3363,56.4734 L209.8863,56.8914 L210.4903,57.3504 Z M198.6283,67.4264 C198.6513,67.3654 198.6683,67.2884 198.6783,67.1954 C198.6903,67.1004 198.6963,66.9874 198.6963,66.8534 C198.6963,66.7254 198.6883,66.6134 198.6763,66.5194 C198.6623,66.4254 198.6413,66.3484 198.6143,66.2914 C198.5863,66.2344 198.5543,66.1924 198.5163,66.1644 C198.4763,66.1374 198.4353,66.1224 198.3893,66.1224 L194.9083,66.1224 L195.9393,65.0534 C196.4573,64.5344 196.8743,64.0794 197.1883,63.6864 C197.5023,63.2934 197.7453,62.9344 197.9183,62.6114 C198.0913,62.2864 198.2053,61.9844 198.2593,61.7034 C198.3143,61.4234 198.3413,61.1384 198.3413,60.8484 C198.3413,60.5184 198.2853,60.2094 198.1743,59.9224 C198.0623,59.6354 197.8933,59.3874 197.6663,59.1774 C197.4383,58.9684 197.1533,58.8054 196.8093,58.6884 C196.4663,58.5714 196.0643,58.5124 195.6053,58.5124 C195.3133,58.5124 195.0343,58.5404 194.7653,58.5944 C194.4963,58.6514 194.2523,58.7184 194.0293,58.7984 C193.8043,58.8794 193.6173,58.9614 193.4663,59.0464 C193.3133,59.1314 193.2083,59.2014 193.1523,59.2564 C193.0953,59.3124 193.0553,59.3594 193.0323,59.3984 C193.0103,59.4374 192.9903,59.4834 192.9783,59.5364 C192.9643,59.5894 192.9533,59.6504 192.9473,59.7224 C192.9403,59.7934 192.9373,59.8824 192.9373,59.9874 C192.9373,60.1434 192.9423,60.2764 192.9533,60.3844 C192.9653,60.4914 192.9803,60.5784 192.9983,60.6424 C193.0163,60.7074 193.0403,60.7534 193.0693,60.7804 C193.0993,60.8074 193.1353,60.8214 193.1763,60.8214 C193.2353,60.8214 193.3163,60.7864 193.4213,60.7144 C193.5263,60.6434 193.6573,60.5654 193.8133,60.4814 C193.9703,60.3954 194.1523,60.3184 194.3603,60.2494 C194.5663,60.1804 194.8033,60.1464 195.0723,60.1464 C195.2633,60.1464 195.4303,60.1734 195.5703,60.2324 C195.7113,60.2894 195.8293,60.3684 195.9213,60.4704 C196.0163,60.5714 196.0863,60.6894 196.1353,60.8244 C196.1823,60.9604 196.2063,61.1034 196.2063,61.2564 C196.2063,61.4214 196.1853,61.5954 196.1473,61.7804 C196.1083,61.9644 196.0363,62.1644 195.9333,62.3834 C195.8283,62.6014 195.6823,62.8434 195.4963,63.1074 C195.3093,63.3714 195.0633,63.6644 194.7583,63.9864 L193.2303,65.6404 C193.1393,65.7374 193.0643,65.8244 193.0083,65.9054 C192.9513,65.9864 192.9053,66.0694 192.8683,66.1534 C192.8313,66.2384 192.8073,66.3344 192.7933,66.4424 C192.7803,66.5514 192.7723,66.6804 192.7723,66.8324 C192.7723,66.9934 192.7833,67.1244 192.8033,67.2264 C192.8243,67.3264 192.8573,67.4034 192.9033,67.4574 C192.9483,67.5104 193.0073,67.5454 193.0803,67.5624 C193.1533,67.5824 193.2383,67.5914 193.3393,67.5914 L198.4163,67.5914 C198.4613,67.5914 198.5023,67.5784 198.5393,67.5534 C198.5763,67.5284 198.6053,67.4854 198.6283,67.4264 L198.6283,67.4264 Z M205.1003,59.9874 C205.1263,59.9334 205.1443,59.8574 205.1563,59.7634 C205.1683,59.6684 205.1733,59.5534 205.1733,59.4154 C205.1733,59.2784 205.1683,59.1604 205.1563,59.0644 C205.1443,58.9674 205.1263,58.8904 205.1003,58.8334 C205.0763,58.7754 205.0483,58.7344 205.0163,58.7084 C204.9833,58.6844 204.9463,58.6714 204.9053,58.6714 L200.7503,58.6714 C200.6003,58.6714 200.4743,58.7154 200.3713,58.8054 C200.2693,58.8944 200.2183,59.0414 200.2183,59.2424 L200.2183,67.3284 C200.2183,67.3794 200.2333,67.4224 200.2623,67.4604 C200.2923,67.4974 200.3413,67.5284 200.4093,67.5534 C200.4773,67.5784 200.5693,67.5974 200.6863,67.6114 C200.8013,67.6264 200.9453,67.6324 201.1203,67.6324 C201.2963,67.6324 201.4423,67.6264 201.5553,67.6114 C201.6703,67.5974 201.7613,67.5784 201.8313,67.5534 C201.9033,67.5284 201.9513,67.4974 201.9803,67.4604 C202.0063,67.4224 202.0193,67.3794 202.0193,67.3284 L202.0193,64.0064 L204.7293,64.0064 C204.7703,64.0064 204.8063,63.9934 204.8383,63.9694 C204.8693,63.9434 204.8983,63.9004 204.9233,63.8414 C204.9483,63.7824 204.9663,63.7064 204.9773,63.6134 C204.9893,63.5214 204.9953,63.4064 204.9953,63.2694 C204.9953,63.1314 204.9893,63.0154 204.9773,62.9244 C204.9663,62.8324 204.9483,62.7594 204.9233,62.7034 C204.8983,62.6494 204.8693,62.6094 204.8383,62.5854 C204.8063,62.5644 204.7703,62.5524 204.7293,62.5524 L202.0193,62.5524 L202.0193,60.1534 L204.9053,60.1534 C204.9463,60.1534 204.9833,60.1394 205.0163,60.1114 C205.0483,60.0834 205.0763,60.0434 205.1003,59.9874 L205.1003,59.9874 Z M209.6123,54.2834 L206.9643,52.2534 L204.5763,50.4234 L204.5763,49.2824 C204.5763,48.5744 205.1393,48.0004 205.8343,48.0004 L208.3533,48.0004 C209.0493,48.0004 209.6123,48.5744 209.6123,49.2824 L209.6123,54.2834 Z" id="Fill-43"></path>
                <path d="M208.8296,108.5833 L210.2496,108.5833 L210.2496,118.1303 C210.2496,119.3013 209.3206,120.2503 208.1736,120.2503 L207.7126,120.2503 L206.4716,120.2503 L205.6986,120.2503 L204.4656,120.2503 L203.6006,120.2503 L203.2256,120.2503 L201.2186,120.2503 L200.2996,120.2503 L200.2966,120.2503 L199.9786,120.2503 L197.9726,120.2503 L196.7316,120.2503 L195.3686,120.2503 L194.7256,120.2503 L193.4846,120.2503 L192.3996,120.2503 L191.4786,120.2503 L190.7616,120.2503 C190.5996,120.2503 190.4436,120.2243 190.2886,120.1873 C190.1816,120.1613 190.0756,120.1313 189.9756,120.0883 C189.8376,120.0303 189.7096,119.9543 189.5876,119.8673 C189.3676,119.7093 189.1816,119.5093 189.0356,119.2763 C188.8546,118.9893 188.7316,118.6583 188.7036,118.2963 C188.7006,118.2603 188.6976,118.2263 188.6926,118.1913 C188.6906,118.1713 188.6876,118.1513 188.6876,118.1303 L188.6876,115.7763 L188.6876,114.2773 L188.6876,111.8543 L188.6876,110.3563 L188.6876,108.6013 L188.6876,108.5833 L190.1066,108.5833 L191.3976,108.5833 L190.1066,110.1393 L190.1066,112.5623 L193.3876,108.6013 L194.6286,108.6013 L190.1066,114.0603 L190.1066,116.4843 L191.6616,114.6073 L194.2536,111.4783 L196.6356,108.6013 L197.8756,108.6013 L194.9756,112.1023 L192.3836,115.2333 L190.1066,117.9823 L190.1066,118.0653 C190.1126,118.1083 190.1166,118.1453 190.1196,118.1833 C190.1466,118.5343 190.4236,118.7993 190.7626,118.7993 L191.4386,118.7993 L199.8816,108.6013 L201.1226,108.6013 L192.6786,118.7993 L194.6846,118.7993 L203.1296,108.6013 L204.3706,108.6013 L195.9266,118.7993 L197.9326,118.7993 L206.3766,108.6013 L207.6166,108.6013 L199.1736,118.7993 L201.1796,118.7993 L208.8296,109.5603 L208.8296,108.6013 L208.8296,108.5833 Z M203.9586,119.2773 L204.8046,119.2773 L209.3126,113.9343 L209.3126,111.5003 L204.3206,117.4173 L202.7496,119.2773 L203.9586,119.2773 Z M205.5906,119.2773 L208.4366,119.2763 L209.3126,118.1923 L209.3126,116.2333 L206.7336,119.2763 L205.5906,119.2773 Z M213.9386,105.9743 C213.9326,105.9943 213.9186,106.0083 213.9096,106.0283 C213.8796,106.0973 213.8466,106.1673 213.8006,106.2273 C213.7986,106.2293 213.7966,106.2303 213.7946,106.2333 C213.6176,106.4643 213.3326,106.6243 212.9726,106.6243 L211.0486,106.6243 L209.8706,106.6243 L209.8706,106.6393 L209.8706,106.6243 L208.4366,106.6243 L189.5296,106.6243 L188.0956,106.6243 L186.6066,106.6243 L185.0266,106.6243 C184.0596,106.6243 183.6306,105.4673 184.3846,104.8913 L198.3386,94.2213 C198.5316,94.0743 198.7646,94.0003 198.9996,94.0003 C199.2036,94.0003 199.4026,94.0673 199.5796,94.1783 C199.6056,94.1953 199.6366,94.2023 199.6616,94.2213 L205.3576,98.5773 L206.4016,99.3753 L209.9856,102.1153 L210.5736,102.5653 L212.8616,104.3153 L213.6156,104.8913 C213.9926,105.1803 214.0736,105.6133 213.9386,105.9743 L213.9386,105.9743 Z M201.7086,104.4163 C201.7276,104.3643 201.7406,104.2993 201.7496,104.2223 C201.7596,104.1443 201.7646,104.0483 201.7646,103.9353 C201.7646,103.8203 201.7596,103.7243 201.7496,103.6463 C201.7406,103.5693 201.7276,103.5063 201.7086,103.4593 C201.6896,103.4113 201.6666,103.3773 201.6386,103.3563 C201.6106,103.3353 201.5776,103.3253 201.5406,103.3253 L199.2596,103.3253 L199.2596,97.3973 C199.2596,97.3583 199.2476,97.3243 199.2236,97.2943 C199.1996,97.2633 199.1586,97.2393 199.1026,97.2203 C199.0466,97.2013 198.9726,97.1853 198.8786,97.1753 C198.7856,97.1633 198.6656,97.1583 198.5206,97.1583 C198.3786,97.1583 198.2596,97.1633 198.1646,97.1753 C198.0696,97.1853 197.9936,97.2013 197.9376,97.2203 C197.8816,97.2393 197.8416,97.2633 197.8176,97.2943 C197.7926,97.3243 197.7806,97.3583 197.7806,97.3973 L197.7806,104.0883 C197.7806,104.2553 197.8236,104.3753 197.9066,104.4503 C197.9906,104.5243 198.0946,104.5603 198.2176,104.5603 L201.5406,104.5603 C201.5776,104.5603 201.6106,104.5493 201.6386,104.5273 C201.6666,104.5043 201.6896,104.4673 201.7086,104.4163 L201.7086,104.4163 Z M210.2496,99.8333 L207.7846,97.9493 L205.5626,96.2503 L205.5626,95.1903 C205.5626,94.5323 206.0866,94.0003 206.7336,94.0003 L209.0786,94.0003 C209.7256,94.0003 210.2496,94.5323 210.2496,95.1903 L210.2496,99.8333 Z" id="Fill-45"></path>
                <path d="M209.8942,152.1116 L209.8742,152.1116 L209.8742,154.6916 L209.8942,154.6916 L210.8512,154.6916 L211.8062,154.6916 L212.8832,154.6916 C213.1662,154.6916 213.4142,154.8246 213.5892,155.0256 C213.7402,155.2006 213.8402,155.4256 213.8402,155.6796 C213.8402,156.2246 213.4122,156.6676 212.8832,156.6676 L211.8062,156.6676 L210.8512,156.6676 L209.8942,156.6676 L209.8942,163.3626 C209.8942,164.5586 208.9562,165.5276 207.7982,165.5276 L207.7782,165.5276 L205.2982,165.5276 L205.2772,165.5276 L203.1782,165.5276 L203.1582,165.5276 L194.8642,165.5276 L194.8422,165.5276 L191.8642,165.5276 L191.8442,165.5276 L190.2102,165.5276 L190.1902,165.5276 C189.6402,165.5276 189.1412,165.3076 188.7702,164.9486 C188.3982,164.5886 188.1542,164.0896 188.1102,163.5316 C188.1062,163.4746 188.0942,163.4196 188.0942,163.3626 L188.0942,156.7776 L188.0942,156.6676 L187.1592,156.6676 L186.2012,156.6676 L185.4042,156.6676 C184.8762,156.6676 184.4482,156.2246 184.4482,155.6796 C184.4482,155.1336 184.8762,154.6916 185.4042,154.6916 L185.4952,154.6916 L186.2012,154.6916 L187.1592,154.6916 L188.0942,154.6916 L188.0942,154.2186 L188.0942,152.1116 L187.6392,152.1116 L186.4212,152.1116 L185.0452,152.1116 L185.0442,152.1116 L185.0242,152.1116 C184.6832,152.1116 184.4122,151.9606 184.2342,151.7456 C184.2222,151.7316 184.2072,151.7226 184.1972,151.7096 C183.9102,151.3266 183.9172,150.7586 184.3442,150.3906 C184.3582,150.3776 184.3662,150.3636 184.3822,150.3496 L184.8862,149.9586 L185.0592,149.8236 L185.0592,149.8236 L187.6302,147.8256 L187.6302,147.8256 L188.5512,147.1096 L189.8972,146.0636 L190.4582,145.6286 L190.8052,145.3586 L192.6942,143.8896 L192.6962,143.8876 L195.6862,141.5646 L195.6872,141.5636 L196.9922,140.5496 L198.3392,139.5026 C198.4122,139.4466 198.4952,139.4106 198.5792,139.3746 C198.5962,139.3676 198.6162,139.3636 198.6332,139.3566 C198.6592,139.3476 198.6852,139.3376 198.7112,139.3306 C198.7912,139.3056 198.8722,139.2886 198.9552,139.2836 C198.9692,139.2826 198.9852,139.2786 199.0002,139.2786 C199.0032,139.2786 199.0072,139.2796 199.0112,139.2796 C199.2132,139.2816 199.4112,139.3476 199.5872,139.4636 C199.6112,139.4786 199.6392,139.4856 199.6622,139.5026 L201.0102,140.5496 L201.5082,140.9376 L202.2712,141.5316 L203.5662,142.5366 L204.3312,143.1316 L205.3602,143.9306 L205.6262,144.1376 L206.3902,144.7326 L206.4042,144.7426 L207.1972,145.3586 L207.5442,145.6286 L207.6842,145.7376 L207.6852,145.7376 L208.4492,146.3316 L208.4842,146.3586 L209.4512,147.1096 L209.7432,147.3386 L209.9892,147.5286 L210.5082,147.9316 L210.5772,147.9866 L211.8022,148.9376 L212.1062,149.1736 L212.4372,149.4316 L212.4362,149.4316 L212.1832,149.2176 L213.6402,150.3496 C213.7562,150.4406 213.8342,150.5456 213.8972,150.6576 L213.8652,150.6296 C214.0052,150.8616 214.0312,151.1276 213.9672,151.3696 C213.8592,151.7736 213.4962,152.1116 212.9762,152.1116 L212.1062,152.1116 L210.5982,152.1116 L209.8942,152.1116 Z M204.5752,147.1096 L201.8632,150.6646 L198.7912,154.6916 L200.8532,154.6916 L205.8442,148.1506 L206.6382,147.1096 L206.7962,146.9026 L206.0482,146.3196 L205.5422,145.9266 L205.5012,145.8956 L205.3602,146.0826 L205.1892,146.3056 L204.5752,147.1096 Z M208.8552,148.5016 L208.4032,148.1506 L207.5612,147.4956 L207.0612,148.1506 L202.0712,154.6916 L204.1332,154.6916 L208.8552,148.5016 Z M201.5772,157.3066 C201.4772,157.0966 201.3352,156.9246 201.1612,156.7776 C201.1362,156.7586 201.1182,156.7316 201.0922,156.7126 C201.0682,156.6946 201.0382,156.6836 201.0132,156.6676 C200.9162,156.6026 200.8122,156.5426 200.6962,156.4936 C200.5762,156.4426 200.4522,156.3976 200.3122,156.3626 C200.1212,156.3146 199.8942,156.2866 199.6502,156.2676 C199.5012,156.2576 199.3512,156.2466 199.1832,156.2466 L197.6052,156.2466 L197.3622,156.2466 C197.2392,156.2466 197.1352,156.2846 197.0512,156.3586 C196.9782,156.4246 196.9432,156.5326 196.9332,156.6676 C196.9322,156.6886 196.9252,156.7036 196.9252,156.7266 L196.9252,156.7776 L196.9252,163.2566 C196.9252,163.4276 196.9672,163.5506 197.0512,163.6246 C197.1352,163.7006 197.2392,163.7386 197.3622,163.7386 L199.2902,163.7386 C199.5812,163.7386 199.8452,163.7186 200.0832,163.6826 C200.3202,163.6466 200.5432,163.5896 200.7532,163.5126 C200.9622,163.4346 201.1532,163.3366 201.3262,163.2156 C201.5012,163.0966 201.6502,162.9546 201.7752,162.7876 C201.9002,162.6226 201.9992,162.4316 202.0692,162.2156 C202.1412,161.9996 202.1762,161.7576 202.1762,161.4916 C202.1762,161.2366 202.1392,161.0066 202.0642,160.8016 C201.9892,160.5976 201.8872,160.4196 201.7592,160.2666 C201.6292,160.1146 201.4772,159.9896 201.3042,159.8946 C201.1312,159.7976 200.9412,159.7296 200.7362,159.6916 C200.8962,159.6296 201.0392,159.5486 201.1652,159.4476 C201.2892,159.3476 201.3952,159.2326 201.4812,159.0996 C201.5672,158.9696 201.6322,158.8236 201.6772,158.6646 C201.7222,158.5036 201.7442,158.3326 201.7442,158.1516 C201.7442,157.8276 201.6882,157.5456 201.5772,157.3066 L201.5772,157.3066 Z M207.4122,154.6916 L208.4392,153.3466 L208.4392,152.1116 L208.4392,150.6426 L205.3502,154.6916 L207.4122,154.6916 Z M209.7152,149.1696 L209.6202,149.0956 L208.4492,150.6306 L209.8742,150.6306 L210.5112,150.6306 L210.9142,150.1016 L209.7152,149.1696 Z M204.7372,145.3016 L203.4422,144.2956 L202.6322,145.3586 L202.4252,145.6286 L201.9482,146.2546 L201.2942,147.1096 L195.5102,154.6916 L197.5732,154.6916 L201.1112,150.0536 L201.8782,149.0506 L203.3572,147.1096 L203.9862,146.2876 L204.4882,145.6286 L204.6952,145.3586 L204.7372,145.3016 Z M202.6782,143.7016 L201.3842,142.6956 L199.3522,145.3586 L199.1452,145.6286 L198.7072,146.2046 L198.0162,147.1096 L192.2322,154.6916 L194.2932,154.6916 L200.0782,147.1096 L200.7452,146.2356 L201.2092,145.6286 L201.4142,145.3586 L202.6782,143.7016 Z M198.1342,145.3586 L200.6182,142.1016 L199.3252,141.0946 L196.0722,145.3586 L195.8662,145.6286 L195.4662,146.1516 L194.7352,147.1096 L189.5292,153.9336 L189.5292,154.6916 L191.0132,154.6916 L196.7972,147.1096 L197.5042,146.1846 L197.9282,145.6286 L198.1342,145.3586 Z M186.4082,150.6306 L187.5522,150.6306 L189.2192,148.4456 L186.4082,150.6306 Z M190.9402,147.7846 L188.7702,150.6306 L189.5292,150.6306 L189.5292,152.1116 L189.5292,152.3386 L193.5182,147.1096 L194.2642,146.1336 L194.6492,145.6286 L194.8552,145.3586 L197.2772,142.1826 L193.1912,145.3586 L192.8442,145.6286 L192.2352,146.1006 L192.2112,146.1196 L191.4562,147.1096 L190.9422,147.7836 L190.9402,147.7846 Z M199.7552,159.1976 C199.5872,159.2516 199.3642,159.2786 199.0842,159.2786 L198.0002,159.2786 L198.0002,157.2786 L198.9812,157.2786 C199.2812,157.2786 199.5202,157.3006 199.6992,157.3436 C199.8782,157.3866 200.0282,157.4496 200.1462,157.5306 C200.2652,157.6126 200.3532,157.7146 200.4122,157.8376 C200.4712,157.9606 200.5002,158.0996 200.5002,158.2546 C200.5002,158.3926 200.4722,158.5256 200.4192,158.6506 C200.3662,158.7756 200.2812,158.8846 200.1722,158.9786 C200.0612,159.0706 199.9232,159.1446 199.7552,159.1976 L199.7552,159.1976 Z M200.1362,160.5496 C200.2552,160.6376 200.3462,160.7446 200.4072,160.8736 C200.4692,161.0016 200.5002,161.1476 200.5002,161.3106 C200.5002,161.4666 200.4682,161.6046 200.4052,161.7256 C200.3402,161.8476 200.2522,161.9486 200.1392,162.0296 C200.0272,162.1126 199.8942,162.1736 199.7402,162.2146 C199.5852,162.2566 199.3952,162.2786 199.1702,162.2786 L198.0002,162.2786 L198.0002,160.2786 L198.9612,160.2786 C199.2562,160.2786 199.4962,160.3016 199.6812,160.3486 C199.8662,160.3966 200.0172,160.4626 200.1362,160.5496 L200.1362,160.5496 Z M209.8362,145.2716 L207.1572,143.2566 L204.7002,141.4086 L204.7002,140.2836 C204.7002,139.5746 205.2742,138.9996 205.9832,138.9996 L208.5522,138.9996 C209.2612,138.9996 209.8362,139.5746 209.8362,140.2836 L209.8362,145.2716 Z" id="Fill-47"></path>
                <path d="M237.8376,115.9431 C237.1556,115.9431 236.4646,115.1261 236.0026,114.1781 C235.2306,112.5971 234.7706,110.4041 234.7706,109.1681 C234.7706,107.1901 236.1476,106.2401 237.8376,106.2401 L242.4606,106.2401 L242.4606,105.8281 C242.4606,105.2371 242.6626,104.6931 242.9966,104.2441 C243.1286,104.0681 243.2846,103.9121 243.4546,103.7701 C243.6116,103.6391 243.7826,103.5271 243.9656,103.4311 C244.3756,103.2161 244.8366,103.0841 245.3366,103.0841 C245.8336,103.0841 246.2956,103.2161 246.7046,103.4311 C246.8896,103.5271 247.0606,103.6391 247.2176,103.7701 C247.3936,103.9171 247.5566,104.0781 247.6906,104.2631 C248.0156,104.7071 248.2106,105.2461 248.2106,105.8281 L248.2106,106.2401 L252.8336,106.2401 C254.5266,106.2401 255.9016,107.5541 255.9016,109.1681 L255.9016,109.2331 L255.8946,109.2981 L255.7736,110.5001 L255.7686,110.5431 L255.7626,110.5881 L255.7126,110.8811 L255.6686,111.1451 L255.5716,111.7121 L255.4206,112.5951 L255.2216,113.7711 L255.1836,113.9931 L255.1316,114.2981 C255.0106,114.9081 254.5736,115.5491 253.8696,115.8111 C253.7346,115.8601 253.5846,115.8911 253.4306,115.9121 C253.3506,115.9221 253.2716,115.9351 253.1856,115.9351 C252.9576,115.9351 252.7396,115.8901 252.5316,115.8171 C252.5146,115.8111 252.4976,115.8091 252.4806,115.8021 C252.2406,115.7111 252.0216,115.5721 251.8336,115.3891 C251.7956,115.3521 251.7656,115.3101 251.7316,115.2701 C251.5036,115.0081 251.3616,114.7071 251.2896,114.4321 C251.2786,114.3921 251.2646,114.3501 251.2556,114.3121 C251.2536,114.3011 251.2466,114.2891 251.2456,114.2801 C251.2436,114.2901 251.2396,114.3011 251.2366,114.3121 C251.2246,114.3791 251.1936,114.4441 251.1746,114.5111 C251.1216,114.6861 251.0446,114.8531 250.9436,115.0131 C250.7306,115.3521 250.4226,115.6451 250.0126,115.8011 C249.7946,115.8851 249.5536,115.9351 249.2896,115.9351 C249.1936,115.9351 249.1046,115.9201 249.0136,115.9071 C248.8646,115.8831 248.7206,115.8491 248.5846,115.7961 C248.3566,115.7061 248.1586,115.5631 247.9786,115.3931 C247.8686,115.2891 247.7706,115.1721 247.6836,115.0411 C247.5406,114.8261 247.4216,114.5881 247.3566,114.3121 C247.3556,114.3081 247.3526,114.3041 247.3506,114.3031 L247.3486,114.3121 L247.3376,114.3631 L247.3256,114.4041 C247.2076,114.8621 246.8586,115.3911 246.3076,115.6921 C246.2456,115.7261 246.1916,115.7711 246.1226,115.7991 C245.9096,115.8831 245.6726,115.9351 245.4076,115.9351 C245.1596,115.9351 244.9226,115.8871 244.7016,115.8011 C244.6476,115.7811 244.5986,115.7501 244.5486,115.7241 C244.3616,115.6341 244.1866,115.5241 244.0376,115.3741 C243.7196,115.0561 243.5406,114.6531 243.4756,114.3121 C243.4746,114.3071 243.4706,114.3011 243.4696,114.2971 C243.4666,114.3031 243.4656,114.3091 243.4656,114.3121 C243.4416,114.4771 242.5916,115.9431 241.5106,115.9431 C240.4286,115.9431 239.8166,115.0131 239.5536,114.4261 C239.5206,114.7941 238.9666,115.9431 237.8376,115.9431 L237.8376,115.9431 Z M243.8986,107.6121 L237.8376,107.6121 C236.9416,107.6121 236.2086,108.3121 236.2086,109.1681 C236.6926,112.7641 237.2356,114.5631 237.8376,114.5631 C238.4736,114.5631 238.7486,111.2671 238.7496,111.2661 C238.8666,110.9551 239.1646,110.7331 239.5206,110.7331 L239.6406,110.7331 C239.9966,110.7331 240.2936,110.9551 240.4106,111.2661 C240.4126,111.2731 240.4176,111.2791 240.4206,111.2871 C240.4316,111.3191 240.4516,111.3481 240.4586,111.3841 C240.7246,113.5941 241.0756,114.6571 241.5106,114.5711 C241.9446,114.4851 242.3056,113.4201 242.5916,111.3771 C242.5996,111.3441 242.6176,111.3181 242.6296,111.2871 C242.6306,111.2791 242.6376,111.2741 242.6406,111.2661 C242.6736,111.1781 242.7186,111.0961 242.7806,111.0251 C242.8076,110.9961 242.8446,110.9781 242.8746,110.9541 C243.0066,110.8391 243.1666,110.7551 243.3556,110.7421 C243.3656,110.7421 243.3776,110.7371 243.3886,110.7371 C243.3966,110.7371 243.4026,110.7331 243.4096,110.7331 L243.5296,110.7331 C243.5946,110.7331 243.6526,110.7511 243.7136,110.7651 C243.8396,110.7931 243.9586,110.8381 244.0566,110.9151 C244.2046,111.0301 244.3116,111.1921 244.3496,111.3841 C244.3496,111.3841 244.6966,113.1231 244.8276,113.7711 C244.8476,113.8781 244.8646,113.9581 244.8696,113.9931 C244.8736,114.0071 244.8796,114.0461 244.8796,114.0461 C244.8796,114.0461 244.9756,114.5631 245.4076,114.5631 C245.8136,114.5631 245.9366,114.0571 245.9366,114.0571 L245.9386,114.0411 L245.9486,113.9931 L245.9936,113.7711 L246.4826,111.3771 C246.5116,111.2351 246.5866,111.1161 246.6816,111.0141 C246.7606,110.9261 246.8566,110.8571 246.9666,110.8081 C247.0676,110.7621 247.1806,110.7331 247.2996,110.7331 L247.4196,110.7331 C247.5596,110.7331 247.6836,110.7781 247.7986,110.8381 C247.8206,110.8491 247.8466,110.8571 247.8696,110.8711 C248.0186,110.9641 248.1276,111.1021 248.1906,111.2661 C248.1926,111.2731 248.1986,111.2791 248.2006,111.2871 C248.2126,111.3191 248.2326,111.3481 248.2396,111.3841 L248.3726,112.0601 L248.4356,112.3841 L248.7096,113.7711 L248.7526,113.9931 L248.7636,114.0411 C248.7636,114.0411 248.8756,114.5631 249.2896,114.5631 C249.7556,114.5631 249.8296,114.0411 249.8296,114.0411 L249.8396,113.9931 L249.8846,113.7711 L250.1676,112.3841 L250.2326,112.0601 L250.3736,111.3771 C250.3796,111.3441 250.3986,111.3181 250.4096,111.2871 C250.4116,111.2791 250.4166,111.2731 250.4196,111.2661 C250.5366,110.9551 250.8346,110.7331 251.1906,110.7331 L251.3106,110.7331 C251.6666,110.7331 251.9636,110.9551 252.0806,111.2661 C252.0826,111.2731 252.0886,111.2791 252.0916,111.2871 C252.1026,111.3191 252.1216,111.3481 252.1296,111.3841 C252.1296,111.3841 252.1876,111.6751 252.2646,112.0601 C252.2846,112.1641 252.3066,112.2701 252.3296,112.3841 C252.4316,112.8961 252.5436,113.4581 252.6056,113.7711 C252.6276,113.8791 252.6426,113.9571 252.6506,113.9931 C252.6526,114.0071 252.6596,114.0461 252.6596,114.0461 C252.6596,114.0461 252.7586,114.5631 253.1856,114.5631 C253.6166,114.5631 253.7206,114.0411 253.7206,114.0411 L253.7276,113.9931 L253.7656,113.7711 L253.9556,112.6521 L254.0546,112.0731 L254.1446,111.5331 L254.1866,111.2901 L254.3196,110.5071 L254.3346,110.4231 L254.3426,110.3681 L254.4636,109.1681 C254.4636,108.3121 253.7306,107.6121 252.8336,107.6121 L246.7736,107.6121 L246.7736,106.5321 L246.7736,105.8281 C246.7736,105.6851 246.7306,105.5531 246.6886,105.4231 C246.6116,105.1911 246.4856,104.9851 246.3016,104.8261 C246.0456,104.6011 245.7106,104.4561 245.3366,104.4561 C244.9616,104.4561 244.6266,104.6011 244.3696,104.8261 C244.1876,104.9861 244.0606,105.1911 243.9846,105.4231 C243.9416,105.5531 243.8986,105.6851 243.8986,105.8281 L243.8986,106.4971 L243.8986,107.6121 Z M256.7756,113.7711 L259.9996,113.7711 L259.9996,118.5191 C259.9996,119.9581 258.7786,121.1251 257.2706,121.1251 L232.7296,121.1251 C231.2226,121.1251 229.9996,119.9581 229.9996,118.5191 L229.9996,113.7711 L233.4026,113.7711 C233.9556,116.9381 234.8906,118.5211 236.2086,118.5211 C238.1836,118.5211 238.4866,117.4481 238.7916,117.0561 C238.8526,117.2631 239.3446,118.5211 240.9976,118.5211 C242.6506,118.5211 243.1636,117.2171 243.2196,116.9981 C243.3346,117.3941 244.0286,118.5211 245.4166,118.5171 C246.2636,118.5141 246.9986,118.0081 247.6216,116.9981 L247.6306,117.0261 C248.0526,118.0231 248.7826,118.5201 249.8186,118.5171 C251.3736,118.5121 251.8096,117.7541 252.0296,117.0071 L252.0376,116.9821 C252.1676,117.4311 252.6986,118.5211 254.2386,118.5171 C255.8716,118.5121 256.7166,116.9301 256.7756,113.7711 L256.7756,113.7711 Z M243.1716,102.4671 C243.0116,102.5641 242.8566,102.6701 242.7136,102.7891 C242.4186,101.2181 242.2766,99.5461 242.2766,98.3371 C242.2766,93.9251 243.8276,93.0001 245.1286,93.0001 C246.4306,93.0001 247.9806,93.9251 247.9806,98.3371 C247.9806,99.5761 247.8456,101.2431 247.5576,102.8021 C247.4106,102.6771 247.2526,102.5681 247.0866,102.4671 C246.9326,102.3721 246.7706,102.2941 246.6016,102.2221 C246.1486,102.0291 245.6546,101.9121 245.1286,101.9121 C244.6046,101.9121 244.1106,102.0291 243.6556,102.2221 C243.4886,102.2931 243.3266,102.3721 243.1716,102.4671 L243.1716,102.4671 Z" id="Fill-49"></path>
                <path d="M285.527,65.122 L296.453,65.122 L296.453,61.288 L285.527,61.288 L285.527,65.122 Z M282.243,69.529 C281.263,69.529 280.468,68.744 280.468,67.776 L280.468,58.236 C280.468,57.268 281.263,56.483 282.243,56.483 C283.223,56.483 284.018,57.268 284.018,58.236 L284.018,67.776 C284.018,68.744 283.223,69.529 282.243,69.529 L282.243,69.529 Z M278.046,67.07 C277.367,67.07 276.817,66.526 276.817,65.857 L276.817,60.154 C276.817,59.484 277.367,58.94 278.046,58.94 C278.725,58.94 279.275,59.484 279.275,60.154 L279.275,65.857 C279.275,66.526 278.725,67.07 278.046,67.07 L278.046,67.07 Z M299.738,69.529 C298.758,69.529 297.963,68.744 297.963,67.776 L297.963,58.236 C297.963,57.268 298.758,56.483 299.738,56.483 C300.718,56.483 301.513,57.268 301.513,58.236 L301.513,67.776 C301.513,68.744 300.718,69.529 299.738,69.529 L299.738,69.529 Z M303.935,67.07 C303.256,67.07 302.706,66.526 302.706,65.857 L302.706,60.154 C302.706,59.484 303.256,58.94 303.935,58.94 C304.614,58.94 305.164,59.484 305.164,60.154 L305.164,65.857 C305.164,66.526 304.614,67.07 303.935,67.07 L303.935,67.07 Z" id="Fill-53"></path>
                <path d="M299.7256,110.4912 C298.9136,110.4872 298.2036,109.7702 298.2106,108.9562 C298.2136,108.1412 298.9286,107.4322 299.7406,107.4372 C300.5536,107.4402 301.2606,108.1572 301.2576,108.9722 C301.2526,109.7872 300.5386,110.4932 299.7256,110.4912 L299.7256,110.4912 Z M296.4546,107.1792 C295.6416,107.1732 294.9326,106.4572 294.9396,105.6432 C294.9426,104.8282 295.6576,104.1192 296.4696,104.1222 C297.2826,104.1282 297.9896,104.8442 297.9846,105.6592 C297.9816,106.4732 297.2676,107.1822 296.4546,107.1792 L296.4546,107.1792 Z M286.1686,108.1822 L284.7926,108.1762 L284.7856,109.5542 C284.7826,110.0472 284.3846,110.4432 283.8936,110.4402 C283.4036,110.4382 283.0076,110.0372 283.0096,109.5452 L283.0176,108.1672 L281.6416,108.1602 C281.1516,108.1572 280.7566,107.7572 280.7576,107.2652 C280.7606,106.7732 281.1606,106.3782 281.6506,106.3792 L283.0266,106.3872 L283.0336,105.0092 C283.0356,104.5172 283.4356,104.1212 283.9266,104.1222 C284.4166,104.1262 284.8116,104.5272 284.8086,105.0192 L284.8016,106.3952 L286.1786,106.4042 C286.6676,106.4072 287.0636,106.8062 287.0616,107.2982 C287.0586,107.7882 286.6586,108.1862 286.1686,108.1822 L286.1686,108.1822 Z M304.3626,115.8562 C304.5006,116.9492 304.1876,118.3322 302.8386,118.9612 C301.8956,119.4702 300.6376,119.0712 300.0366,118.0712 L298.0966,115.3312 C298.4466,114.8552 298.6536,114.2682 298.6536,113.6332 C298.6536,112.0472 297.3686,110.7632 295.7836,110.7632 C294.1976,110.7632 292.9136,112.0472 292.9136,113.6332 C292.9136,113.7152 292.9156,113.7952 292.9236,113.8762 L289.7226,113.8552 C289.7246,113.8312 289.7246,113.8072 289.7246,113.7822 C289.7246,112.1972 288.4396,110.9122 286.8546,110.9122 C285.2696,110.9122 283.9846,112.1972 283.9846,113.7822 C283.9846,114.1672 284.0596,114.5332 284.1976,114.8692 L281.9836,117.9272 C281.1936,119.1272 279.7696,119.3252 278.6486,118.4382 C277.8656,117.7432 277.4736,116.6932 277.6496,115.7472 L279.3436,106.1962 C279.7296,103.7372 281.8366,101.8222 284.1416,101.8342 L290.8326,101.8342 L290.8326,98.7202 C290.8326,97.8412 291.5466,97.1262 292.4256,97.1262 L297.1326,97.1262 L297.1326,95.4572 C297.1326,94.9282 297.5616,94.5002 298.0896,94.5002 C298.6186,94.5002 299.0456,94.9282 299.0456,95.4572 L299.0456,97.4452 C299.0456,98.3242 298.3316,99.0392 297.4526,99.0392 L292.7436,99.0392 L292.7436,101.8342 L297.9976,101.8342 C300.3016,101.8472 302.4036,103.8762 302.7716,106.3662 L304.3626,115.8562 Z M286.9186,112.1732 C287.6226,112.1732 288.1936,112.7442 288.1936,113.4492 C288.1936,114.1532 287.6226,114.7242 286.9186,114.7242 C286.2136,114.7242 285.6426,114.1532 285.6426,113.4492 C285.6426,112.7442 286.2136,112.1732 286.9186,112.1732 L286.9186,112.1732 Z M295.8466,112.1732 C296.5516,112.1732 297.1226,112.7442 297.1226,113.4492 C297.1226,114.1532 296.5516,114.7242 295.8466,114.7242 C295.1426,114.7242 294.5716,114.1532 294.5716,113.4492 C294.5716,112.7442 295.1426,112.1732 295.8466,112.1732 L295.8466,112.1732 Z" id="Fill-59"></path>
                <path d="M193.3982,201.0235 C193.4042,200.9515 193.4162,200.8885 193.4332,200.8375 C193.4532,200.7875 193.4782,200.7455 193.5092,200.7125 C193.5432,200.6795 193.5872,200.6455 193.6422,200.6075 L195.5802,199.3485 C195.6032,199.3305 195.6322,199.3145 195.6662,199.3025 C195.7012,199.2905 195.7462,199.2825 195.8022,199.2755 C195.8592,199.2675 195.9312,199.2635 196.0212,199.2605 C196.1132,199.2585 196.2302,199.2575 196.3732,199.2575 C196.5502,199.2575 196.6932,199.2605 196.8022,199.2675 C196.9122,199.2755 196.9942,199.2865 197.0502,199.3025 C197.1052,199.3195 197.1422,199.3415 197.1622,199.3705 C197.1792,199.3975 197.1892,199.4325 197.1892,199.4745 L197.1892,206.9515 L198.6602,206.9515 C198.7012,206.9515 198.7402,206.9645 198.7732,206.9895 C198.8082,207.0155 198.8392,207.0565 198.8652,207.1115 C198.8902,207.1685 198.9082,207.2415 198.9192,207.3325 C198.9312,207.4235 198.9372,207.5365 198.9372,207.6715 C198.9372,207.8025 198.9312,207.9125 198.9182,208.0035 C198.9022,208.0945 198.8822,208.1665 198.8572,208.2215 C198.8322,208.2745 198.8022,208.3135 198.7712,208.3355 C198.7382,208.3595 198.7012,208.3705 198.6602,208.3705 L193.6852,208.3705 C193.6462,208.3705 193.6132,208.3595 193.5802,208.3355 C193.5462,208.3135 193.5172,208.2745 193.4922,208.2215 C193.4662,208.1665 193.4472,208.0945 193.4332,208.0035 C193.4192,207.9125 193.4122,207.8025 193.4122,207.6715 C193.4122,207.5365 193.4182,207.4235 193.4292,207.3325 C193.4412,207.2415 193.4602,207.1685 193.4862,207.1115 C193.5112,207.0565 193.5412,207.0155 193.5722,206.9895 C193.6052,206.9645 193.6422,206.9515 193.6852,206.9515 L195.3632,206.9515 L195.3632,201.0615 L193.9142,201.8665 C193.8082,201.9175 193.7202,201.9495 193.6522,201.9615 C193.5852,201.9725 193.5332,201.9595 193.4922,201.9185 C193.4532,201.8795 193.4272,201.8105 193.4122,201.7135 C193.3982,201.6145 193.3922,201.4775 193.3922,201.2995 C193.3922,201.1885 193.3942,201.0955 193.3982,201.0235 L193.3982,201.0235 Z M200.5762,199.9015 C200.5762,199.6965 200.6272,199.5475 200.7322,199.4565 C200.8372,199.3665 200.9662,199.3205 201.1192,199.3205 L205.3612,199.3205 C205.4042,199.3205 205.4412,199.3335 205.4742,199.3595 C205.5052,199.3845 205.5352,199.4265 205.5602,199.4855 C205.5862,199.5425 205.6052,199.6225 205.6172,199.7195 C205.6282,199.8165 205.6342,199.9365 205.6342,200.0755 C205.6342,200.2155 205.6282,200.3335 205.6172,200.4295 C205.6052,200.5245 205.5862,200.6005 205.5602,200.6575 C205.5352,200.7125 205.5052,200.7535 205.4742,200.7825 C205.4412,200.8105 205.4042,200.8245 205.3612,200.8245 L202.4142,200.8245 L202.4142,203.2595 L205.1812,203.2595 C205.2222,203.2595 205.2592,203.2705 205.2932,203.2935 C205.3242,203.3165 205.3532,203.3565 205.3782,203.4125 C205.4042,203.4685 205.4232,203.5435 205.4352,203.6365 C205.4472,203.7285 205.4532,203.8465 205.4532,203.9855 C205.4532,204.1255 205.4472,204.2415 205.4352,204.3355 C205.4232,204.4295 205.4042,204.5055 205.3782,204.5665 C205.3532,204.6275 205.3242,204.6705 205.2932,204.6955 C205.2592,204.7215 205.2222,204.7335 205.1812,204.7335 L202.4142,204.7335 L202.4142,208.1055 C202.4142,208.1555 202.4002,208.1995 202.3732,208.2385 C202.3452,208.2765 202.2942,208.3075 202.2222,208.3325 C202.1502,208.3585 202.0562,208.3775 201.9412,208.3915 C201.8242,208.4055 201.6752,208.4125 201.4962,208.4125 C201.3182,208.4125 201.1712,208.4055 201.0522,208.3915 C200.9332,208.3775 200.8392,208.3585 200.7712,208.3325 C200.7012,208.3075 200.6502,208.2765 200.6212,208.2385 C200.5892,208.1995 200.5762,208.1555 200.5762,208.1055 L200.5762,199.9015 Z M214.6382,196.7315 C214.6642,196.8295 214.6742,196.9285 214.6692,197.0285 C214.6572,197.2265 214.5852,197.4195 214.4612,197.5815 C214.2752,197.8225 213.9752,197.9895 213.5962,197.9895 L210.3512,197.9895 L210.3512,209.4205 C210.3512,210.6365 209.3702,211.6215 208.1592,211.6215 L205.5452,211.6215 L203.3292,211.6215 L194.6352,211.6215 L191.4992,211.6215 L189.7702,211.6215 C189.1942,211.6215 188.6732,211.3975 188.2852,211.0315 C188.0902,210.8495 187.9292,210.6315 187.8112,210.3885 C187.6932,210.1445 187.6182,209.8765 187.5962,209.5935 C187.5942,209.5645 187.5912,209.5355 187.5872,209.5075 C187.5842,209.4785 187.5792,209.4505 187.5792,209.4205 L187.5792,197.9895 L184.3692,197.9895 C183.9892,197.9895 183.6892,197.8225 183.5032,197.5815 C183.3802,197.4195 183.3072,197.2265 183.2962,197.0285 C183.2902,196.9285 183.3002,196.8295 183.3262,196.7315 C183.3792,196.5355 183.4992,196.3495 183.6962,196.2005 L183.8022,196.1205 L186.2972,196.1205 L211.6682,196.1205 L214.1632,196.1205 L214.2682,196.2005 C214.4652,196.3495 214.5852,196.5355 214.6382,196.7315 L214.6382,196.7315 Z M210.4712,190.8205 L207.9262,188.8985 L205.6312,187.1655 L205.6312,186.0855 C205.6312,185.4145 206.1732,184.8705 206.8412,184.8705 L209.2612,184.8705 C209.9292,184.8705 210.4712,185.4145 210.4712,186.0855 L210.4712,190.8205 Z M188.0892,194.6155 L186.4402,194.6155 L185.7962,194.6155 L198.2902,185.1795 C198.4922,185.0275 198.7372,184.9515 198.9822,184.9515 C199.0092,184.9515 199.0342,184.9625 199.0612,184.9635 C199.2792,184.9785 199.4942,185.0435 199.6742,185.1795 L200.0532,185.4665 L201.0282,186.2015 L201.8582,186.8285 L202.8322,187.5645 L202.8422,187.5725 L203.5672,188.1195 L203.6622,188.1915 L204.6362,188.9275 L205.4662,189.5535 L205.6312,189.6785 L206.4412,190.2895 L206.7242,190.5035 L207.2712,190.9155 L208.2462,191.6525 L209.0752,192.2795 L210.0502,193.0155 L210.4712,193.3335 L210.8802,193.6425 L211.0872,193.7985 L211.8552,194.3785 L212.1692,194.6155 L211.5452,194.6155 L209.6742,194.6155 L209.6402,194.5905 L209.6082,194.6155 L208.7322,194.6155 L207.9592,194.6155 L207.9582,194.6155 L208.0552,194.5405 C208.0562,194.5395 208.0572,194.5395 208.0582,194.5395 L208.8082,193.9655 L208.8112,193.9635 L207.8362,193.2265 L206.8702,193.9655 L206.0212,194.6155 L204.3722,194.6155 L205.6312,193.6525 L207.0062,192.6005 L206.0312,191.8645 L205.6312,192.1695 L202.4342,194.6155 L200.7852,194.6155 L205.2012,191.2385 L204.2262,190.5015 L198.8482,194.6155 L197.1992,194.6155 L203.3972,189.8745 L202.4222,189.1395 L202.2392,189.2785 L195.2612,194.6155 L193.6132,194.6155 L195.2762,193.3435 C195.2762,193.3435 195.2762,193.3425 195.2772,193.3415 L201.5922,188.5125 L200.6182,187.7765 L191.6762,194.6155 L190.0272,194.6155 L199.7882,187.1495 L198.9822,186.5415 L188.2912,194.6155 L188.0892,194.6155 Z" id="Fill-64"></path>
            </g>
        </g>
    </g>
</svg>