<?xml version="1.0" encoding="UTF-8"?>
<svg width="102px" height="314px" viewBox="0 0 102 314" version="1.1" xmlns="http://www.w3.org/2000/svg" xmlns:xlink="http://www.w3.org/1999/xlink">
    <!-- Generator: Sketch 60.1 (88133) - https://sketch.com -->
    <title>Managment_icon</title>
    <desc>Created with Sketch.</desc>
    <g id="Managment_icon" stroke="none" stroke-width="1" fill="none" fill-rule="evenodd">
        <g id="Group-5" transform="translate(0.000000, 130.000000)" fill="#FFFFFF" fill-rule="nonzero">
            <polygon id="Path" points="10.9229755 6.51508974 9.62084133 6.46732944 9.33853572 14.1766866 10.6406699 14.224252"></polygon>
            <rect id="Rectangle" x="7.10130681" y="6.49120959" width="1.30297896" height="7.70938965"></rect>
            <polygon id="Path" points="6.16682943 14.1764917 5.88452382 6.46710201 4.5823896 6.5148948 4.8647277 14.224252"></polygon>
            <path d="M-2.48689958e-14,3.27716883 L-2.48689958e-14,4.58014779 L1.35772461,4.58014779 L2.43483309,16.8202679 C2.4643665,17.1566369 2.7460548,17.41464 3.08372337,17.41464 L12.399906,17.41464 C12.737607,17.41464 13.0194903,17.156442 13.0487962,16.8200405 L14.1259372,4.58014779 L15.5055926,4.58014779 L15.5055926,3.27716883 L-2.48689958e-14,3.27716883 Z M11.8031621,16.111661 L3.68030475,16.111661 L2.66570703,4.58014779 L12.8179873,4.58014779 L11.8031621,16.111661 Z" id="Shape"></path>
            <path d="M9.88102125,-1.11022302e-15 L5.62457133,-1.11022302e-15 C5.02584561,-1.11022302e-15 4.53875553,0.48709008 4.53875553,1.0858158 L4.53875553,3.27716883 L5.84173449,3.27716883 L5.84173449,1.30297896 L9.66385809,1.30297896 L9.66385809,3.27716883 L10.9668371,3.27716883 L10.9668371,1.0858158 C10.9668371,0.48709008 10.479747,-1.11022302e-15 9.88102125,-1.11022302e-15 Z" id="Path"></path>
        </g>
        <path d="M12.3002394,50.4089306 C11.3180391,51.1076374 10.1379059,51.4748034 8.93196776,51.4568758 C8.77463218,51.4552271 8.61742171,51.4474252 8.46069809,51.4334881 C8.39762184,51.4271915 8.3345456,51.4163972 8.27056826,51.4083015 C8.14869045,51.3933478 8.02728921,51.3747493 7.90652821,51.352531 C7.83263889,51.3381386 7.76055175,51.3192486 7.6893657,51.3021577 C7.57285883,51.2756108 7.45716798,51.2456134 7.34244635,51.2122053 C7.2874799,51.1951143 7.23431564,51.1762244 7.18025028,51.1573343 C7.04779015,51.1123582 6.91713221,51.067382 6.79007864,51.0134105 L6.70447516,50.9738315 C6.54870637,50.906167 6.39597605,50.8317353 6.24672182,50.7507496 C5.76583265,50.4837492 5.32531699,50.1499992 4.93834023,49.7594744 L4.92031845,49.7396849 C4.79981189,49.6175477 4.68495364,49.4899823 4.57610237,49.3573873 L4.50852067,49.2701335 C3.69075284,48.2392837 3.24616958,46.9626934 3.24699572,45.6477512 L4.5815089,45.6477512 C4.6174201,45.6482242 4.65061839,45.628733 4.66765666,45.5971724 C4.68469492,45.5656119 4.68274894,45.5272135 4.66260693,45.4975307 L2.42069689,42.0991299 C2.40295527,42.0715861 2.37240231,42.0549368 2.33959886,42.0549368 C2.30679541,42.0549368 2.27624245,42.0715861 2.25850083,42.0991299 L0.0165907851,45.4975307 C-0.00355122155,45.5272135 -0.00549720647,45.5656119 0.0115410599,45.5971724 C0.0285793262,45.628733 0.0617776163,45.6482242 0.0976888207,45.6477512 L1.43130089,45.6477512 C1.43130089,47.2578988 1.92780107,48.7493092 2.7712206,49.9834558 C2.78113258,49.9996472 2.78924238,50.0185372 2.80005546,50.0356282 C2.88746112,50.1615615 2.98477876,50.2784996 3.07849203,50.3972368 C3.11363451,50.4422129 3.14607373,50.4889882 3.1821173,50.5321653 C3.31998395,50.7030749 3.4668615,50.861391 3.61734341,51.0170086 L3.6596946,51.0619848 C4.16233471,51.5701593 4.73522512,52.0039273 5.36095109,52.3501029 C5.3771707,52.3599976 5.39248921,52.3698924 5.41051101,52.3788876 C5.59072886,52.4760362 5.77455106,52.5641895 5.96017544,52.6478453 C6.00793317,52.6676348 6.05298763,52.6910224 6.10074536,52.7108119 C6.26023815,52.7773767 6.4242364,52.8367452 6.59003683,52.8925157 C6.6675305,52.9195014 6.74502418,52.9464872 6.82432003,52.9707743 C6.9684943,53.0139514 7.11717404,53.0508319 7.26585376,53.0859133 C7.36497357,53.1093009 7.46229121,53.1344876 7.56321321,53.1542771 C7.60556441,53.1632724 7.64431125,53.1758657 7.68576134,53.1812629 C7.82543017,53.207349 7.96690119,53.2208419 8.10747112,53.2379329 C8.1588332,53.2442295 8.20839311,53.2532248 8.25885411,53.2586219 C8.51115909,53.2838086 8.76346409,53.3 9.01486797,53.3 C10.5666753,53.2984997 12.0793318,52.813605 13.3418985,51.9129343 C13.7527123,51.618741 13.8520699,51.0504267 13.5653687,50.634711 C13.4289513,50.4355433 13.2180345,50.2995037 12.980084,50.2572072 C12.7421336,50.2149107 12.4971405,50.2699109 12.3002394,50.4098301 M16.5696002,45.6477512 C16.5708003,44.105327 16.1060302,42.5983888 15.2359881,41.3237404 C15.2233729,41.3021518 15.2152631,41.2805632 15.2017467,41.2607737 C15.0972204,41.1105532 14.9836831,40.9702275 14.8701459,40.8299018 C14.8566296,40.8128109 14.8449154,40.7948204 14.830498,40.7777294 C14.0744064,39.8474654 13.1056132,39.1120298 12.0055832,38.6332647 L11.9154742,38.5918867 C11.7402716,38.5198802 11.5626532,38.4538766 11.3829305,38.3939914 C11.3180521,38.3733024 11.2540747,38.3490152 11.1882952,38.3292257 C11.0311527,38.2824982 10.87247,38.2410964 10.7125201,38.2050914 C10.6242134,38.1844024 10.5359066,38.1619143 10.4457977,38.1439238 C10.4016443,38.1349286 10.3601942,38.1223352 10.3160408,38.1142395 C10.196196,38.0935505 10.0763511,38.0845552 9.95650623,38.0692633 C9.87360603,38.0584691 9.79250799,38.0449762 9.7087067,38.0368805 C9.5091222,38.0191435 9.30893756,38.0089416 9.10858126,38.0062967 C9.07253769,38.0062967 9.03649411,38 9.00045055,38 L8.98152768,38.0026986 C7.43244163,38.0028928 5.92201585,38.485578 4.66080475,39.3834676 C4.24900696,39.6740138 4.14898606,40.2461109 4.43643352,40.6616909 C4.5730108,40.8606569 4.78391035,40.9965334 5.0217856,41.0388165 C5.25966084,41.0810997 5.50458133,41.0262466 5.70156283,40.8865718 C6.67622303,40.1932256 7.84605019,39.8263213 9.04280175,39.8386266 C9.21400871,39.8395261 9.3816113,39.8476219 9.54831281,39.8638133 L9.70149798,39.8836028 C9.83756245,39.9015933 9.97362693,39.9204833 10.1069881,39.9465695 C10.16646,39.9582633 10.2241297,39.9735552 10.2817995,39.987048 C10.4133585,40.0167323 10.5431153,40.0491152 10.6719711,40.0877947 L10.7927171,40.1291728 C10.9386935,40.1777471 11.0828678,40.2299195 11.2243388,40.289288 C11.2387562,40.2946852 11.2531737,40.3027809 11.26669,40.308178 C12.1104611,40.6757307 12.8540713,41.2391771 13.4356118,41.951608 L13.4455238,41.9651008 C14.2923184,43.0061359 14.7537623,44.3067355 14.7521032,45.6477512 L13.4184911,45.6477512 C13.3825799,45.6472782 13.3493816,45.6667694 13.3323434,45.69833 C13.3153051,45.7298905 13.3172511,45.7682888 13.3373931,45.7979717 L15.5802042,49.1963725 C15.5979458,49.2239163 15.6284988,49.2405656 15.6613022,49.2405656 C15.6941057,49.2405656 15.7246587,49.2239163 15.7424003,49.1963725 L17.9834092,45.7979717 C18.0035512,45.7682888 18.0054972,45.7298905 17.9884589,45.69833 C17.9714207,45.6667694 17.9382224,45.6472782 17.9023112,45.6477512 L16.5686991,45.6477512" id="Shape" fill="#FFFFFF" fill-rule="nonzero"></path>
        <polyline id="Path-2" stroke="#FFFFFF" stroke-width="2" points="1 1 7.90341575 7.90341575 1 14.8122559"></polyline>
        <g id="Group-12" transform="translate(0.000000, 84.000000)">
            <path d="M9.19172355,15.8369256 C7.78792162,15.8369256 6.40886927,15.4674129 5.19314546,14.7655354 C3.97742164,14.063611 2.96788196,13.0540713 2.26600439,11.8383475 C1.56412682,10.6226237 1.19461415,9.24357135 1.19461415,7.83981621 C1.19461415,6.43601428 1.56412682,5.05696193 2.26600439,3.84123812" id="Stroke-2" stroke="#FFFFFF" stroke-width="1.49454" stroke-linecap="round"></path>
            <path d="M11.8990659,6.53540093 C12.1784227,7.0192576 12.3255166,7.56814626 12.3255166,8.1268599 C12.3255166,8.68557353 12.1784227,9.23441541 11.8990659,9.71827208 C11.619709,10.2021755 11.2179143,10.6039703 10.7340576,10.8833271 C10.250201,11.1626839 9.7013123,11.3097311 9.14259867,11.3097311 C8.58388503,11.3097311 8.03499637,11.1626839 7.5511397,10.8833271 C7.06728302,10.6039703 6.66548829,10.2021755 6.38613147,9.71827208 C6.10677465,9.23441541 5.95972751,8.68557353 5.95972751,8.1268599 C5.95972751,7.56814626 6.10677465,7.0192576 6.38613147,6.53540093" id="Stroke-4" stroke="#FFFFFF" stroke-width="1.2632112" stroke-linecap="round"></path>
            <polygon id="Fill-6" fill="#FFFFFF" points="0 2.28636081 3.90304189 0.728353542 4.4397663 4.89643586"></polygon>
            <path d="M9.14025939,0.00801437328 C10.5440613,0.00801437328 11.9231137,0.377527042 13.1388375,1.07940461 C14.3545613,1.78132897 15.364101,2.79086865 16.0659785,4.00659246 C16.7678561,5.22231628 17.1373688,6.60136862 17.1373688,8.00512377 C17.1373688,9.40892569 16.7678561,10.787978 16.0659785,12.0037019" id="Stroke-8" stroke="#FFFFFF" stroke-width="1.49454" stroke-linecap="round"></path>
            <polygon id="Fill-10" fill="#FFFFFF" points="18.3319783 13.5585792 14.4289364 15.1165864 13.892212 10.9485041"></polygon>
            <polygon id="Stroke-1" stroke="#FFFFFF" stroke-width="1.2632112" stroke-linecap="round" stroke-linejoin="round" points="9.16920587 6.03584768 9.16920587 7.79723195 9.16920587 6.03584768 9.16920587 4.27446342"></polygon>
        </g>
    </g>
</svg>