<svg width="70" height="353" viewBox="0 0 70 353" fill="none" xmlns="http://www.w3.org/2000/svg">
<mask id="mask0_1_2" style="mask-type:luminance" maskUnits="userSpaceOnUse" x="0" y="0" width="70" height="347">
<path d="M70 0H0V347H70V0Z" fill="white"/>
</mask>
<g mask="url(#mask0_1_2)">
<path d="M5.5 170.5C8.26142 170.5 10.5 168.261 10.5 165.5C10.5 162.739 8.26142 160.5 5.5 160.5C2.73858 160.5 0.5 162.739 0.5 165.5C0.5 168.261 2.73858 170.5 5.5 170.5Z" stroke="#ECC000"/>
<path d="M5.077 163L5.238 166.584H5.791L5.952 163H5.077ZM5.511 166.997C5.371 166.997 5.252 167.039 5.154 167.137C5.049 167.228 5 167.347 5 167.494C5 167.634 5.049 167.753 5.154 167.851C5.252 167.949 5.371 167.998 5.511 167.998C5.651 167.998 5.777 167.949 5.882 167.858C5.98 167.76 6.029 167.641 6.029 167.494C6.029 167.347 5.98 167.228 5.882 167.137C5.784 167.039 5.658 166.997 5.511 166.997Z" fill="#ECC000"/>
<path fill-rule="evenodd" clip-rule="evenodd" d="M17.4946 15H3.49463V5.11653H6.11914V2H14.8616V5.11653H17.4946V15ZM0 16.5355C0 17.3443 0.671225 18 1.49896 18H19.5013C20.329 18 21 17.3443 21 16.5355V1.46449C21 0.655651 20.329 0 19.5013 0H1.49896C0.671225 0 0 0.655651 0 1.46449V16.5355Z" fill="#25C100"/>
<path opacity="0.695173" fill-rule="evenodd" clip-rule="evenodd" d="M2.88051 91.9548C2.33061 92.3328 1.81221 92.7567 1.36851 93.1905C1.34061 93.0573 1.32621 92.9142 1.32621 92.7702C1.32621 91.6317 2.25321 90.7047 3.39351 90.7047C3.58791 90.7047 3.78411 90.7335 3.97311 90.7875C4.15851 90.8424 4.33041 90.9297 4.49331 91.0341C3.95421 91.2834 3.40161 91.5993 2.88051 91.9548ZM7.67209 90.9C7.27159 90.3168 6.32929 90.3447 5.24209 90.7263C5.22859 90.7065 5.21779 90.6876 5.19979 90.6714C4.89829 90.4131 4.54999 90.2232 4.17109 90.1107C3.91369 90.0387 3.65269 90 3.39349 90C1.86529 90 0.621486 91.2447 0.621486 92.7702C0.621486 93.1311 0.695286 93.4686 0.819486 93.7827C0.112086 94.6359 -0.225414 95.472 0.164286 96.0435C0.305586 96.2478 0.603486 96.4917 1.22449 96.4899C1.40359 96.4881 1.54849 96.3441 1.54669 96.165C1.54669 95.9841 1.39999 95.841 1.22089 95.841C0.958986 95.841 0.771786 95.7834 0.698886 95.6781C0.558486 95.472 0.718686 94.9959 1.16329 94.4019C1.66729 95.0886 2.47639 95.5422 3.39349 95.5422C4.82269 95.5422 6.00799 94.4757 6.15019 93.0519C6.16909 92.8584 6.02689 92.6856 5.83339 92.6685C5.64079 92.6487 5.46889 92.7882 5.44999 92.9817C5.34289 94.041 4.45909 94.8375 3.39349 94.8375C2.64919 94.8375 2.00119 94.4424 1.63759 93.8493C2.04889 93.4155 2.57629 92.9484 3.24589 92.4894C5.21149 91.1484 6.86389 90.8667 7.13659 91.2654C7.25179 91.4346 7.15189 91.8108 6.87919 92.25C6.78469 92.4012 6.83059 92.5983 6.97999 92.6946C7.13389 92.79 7.33189 92.7441 7.42639 92.5947C7.98169 91.7091 7.86559 91.1853 7.67209 90.9Z" fill="white"/>
<path fill-rule="evenodd" clip-rule="evenodd" d="M17.4946 45H3.49463V35.1165H6.11914V32H14.8616V35.1165H17.4946V45ZM0 46.5355C0 47.3443 0.671225 48 1.49896 48H19.5013C20.329 48 21 47.3443 21 46.5355V31.4645C21 30.6557 20.329 30 19.5013 30H1.49896C0.671225 30 0 30.6557 0 31.4645V46.5355Z" fill="#ECC000"/>
<path fill-rule="evenodd" clip-rule="evenodd" d="M17.4946 75H3.49463V65.1165H6.11914V62H14.8616V65.1165H17.4946V75ZM0 76.5355C0 77.3443 0.671225 78 1.49896 78H19.5013C20.329 78 21 77.3443 21 76.5355V61.4645C21 60.6557 20.329 60 19.5013 60H1.49896C0.671225 60 0 60.6557 0 61.4645V76.5355Z" fill="#D7D7D7"/>
<path d="M8 106H0V114H8V106Z" fill="#25C100"/>
<path d="M8 124H0V132H8V124Z" fill="#ECC000"/>
<path d="M8 142H0V150H8V142Z" fill="#D7D7D7"/>
<path d="M14.6372 187C14.6372 183.335 11.6656 180.363 8 180.363C4.33441 180.363 1.36285 183.335 1.36285 187C1.36285 190.666 4.33441 193.637 8 193.637C11.6656 193.637 14.6372 190.666 14.6372 187Z" fill="#55A5F4" stroke="#303D43" stroke-width="1.27434"/>
<path fill-rule="evenodd" clip-rule="evenodd" d="M7.31325 186.049C6.78113 186.415 6.27949 186.825 5.85014 187.245C5.82314 187.116 5.8092 186.978 5.8092 186.839C5.8092 185.737 6.70623 184.84 7.80966 184.84C7.99778 184.84 8.18763 184.868 8.37052 184.92C8.54993 184.973 8.71627 185.058 8.8739 185.159C8.35223 185.4 7.8175 185.705 7.31325 186.049ZM11.9502 185.029C11.5626 184.464 10.6508 184.491 9.59872 184.861C9.58566 184.842 9.5752 184.823 9.55779 184.808C9.26604 184.558 8.929 184.374 8.56235 184.265C8.31327 184.195 8.06071 184.158 7.80989 184.158C6.3311 184.158 5.12752 185.362 5.12752 186.839C5.12752 187.188 5.19893 187.514 5.31912 187.818C4.63459 188.644 4.308 189.453 4.6851 190.006C4.82183 190.204 5.1101 190.44 5.71102 190.438C5.88433 190.436 6.02455 190.297 6.0228 190.124C6.0228 189.948 5.88085 189.81 5.70754 189.81C5.45411 189.81 5.27296 189.754 5.20242 189.652C5.06656 189.453 5.22158 188.992 5.6518 188.417C6.1395 189.082 6.92244 189.521 7.80989 189.521C9.19288 189.521 10.3399 188.489 10.4775 187.111C10.4958 186.924 10.3582 186.757 10.1709 186.74C9.98453 186.721 9.81819 186.856 9.7999 187.043C9.69626 188.068 8.84104 188.839 7.80989 188.839C7.08966 188.839 6.46261 188.457 6.11077 187.883C6.50877 187.463 7.01911 187.011 7.66706 186.567C9.56911 185.269 11.1681 184.997 11.432 185.382C11.5434 185.546 11.4468 185.91 11.1829 186.335C11.0915 186.481 11.1359 186.672 11.2804 186.765C11.4294 186.858 11.621 186.813 11.7124 186.669C12.2497 185.812 12.1374 185.305 11.9502 185.029Z" fill="white"/>
<path fill-rule="evenodd" clip-rule="evenodd" d="M17.9119 245.149C17.9119 245.501 17.6269 245.786 17.2755 245.786H3.72469C3.37323 245.786 3.08832 245.501 3.08832 245.149V236.988V234.851C3.08832 234.499 3.37323 234.214 3.72469 234.214H5.86722H15.1239H17.2755C17.6269 234.214 17.9119 234.499 17.9119 234.851V236.988V245.149ZM0 247.536C0 248.344 0.671225 249 1.49896 249H19.5013C20.329 249 21 248.344 21 247.536V232.464C21 231.656 20.329 231 19.5013 231H1.49896C0.671225 231 0 231.656 0 232.464V247.536Z" fill="#25C100"/>
<path d="M14.7121 241.436C14.7121 241.951 14.7121 242.466 14.7121 243.001C14.2176 243.001 13.7232 243.001 13.2089 243.001C13.2089 242.836 13.2089 242.692 13.2089 242.507C13.1694 242.507 13.1496 242.507 13.11 242.507C12.4969 242.507 11.8837 242.507 11.2706 242.507C11.231 242.507 11.1915 242.486 11.1519 242.466C10.5388 241.827 9.92564 241.189 9.29271 240.531C9.27294 240.51 9.23338 240.489 9.19382 240.489C8.462 240.489 7.7104 240.489 6.97858 240.489H6.9588C6.78079 241.107 6.2072 241.354 5.75229 241.251C5.29737 241.148 4.94135 240.716 4.94135 240.242C4.94135 239.707 5.25782 239.275 5.73251 239.151C6.16765 239.048 6.76101 239.234 6.97858 239.913C7.25549 239.913 7.51261 239.913 7.78952 239.913C7.8093 239.913 7.84885 239.892 7.86863 239.872C8.24443 239.481 8.62023 239.09 8.97625 238.719C9.2136 238.472 9.45095 238.204 9.70807 237.957C9.72785 237.937 9.78719 237.916 9.82674 237.916C10.4399 237.916 11.0728 237.916 11.6859 237.916C11.765 237.916 11.8046 237.896 11.8244 237.834C11.9826 237.525 12.2991 237.381 12.6353 237.443C12.932 237.504 13.1694 237.772 13.2287 238.081C13.288 238.451 13.0902 238.822 12.7342 238.945C12.398 239.069 12.0024 238.925 11.8244 238.595C11.7848 238.513 11.7453 238.493 11.6464 238.493C11.1123 238.493 10.5585 238.493 10.0245 238.493C9.98498 238.493 9.94541 238.513 9.92563 238.534C9.49049 238.966 9.07515 239.419 8.64001 239.872L8.62023 239.892C11.231 239.892 12.6021 239.892 15.213 239.892C15.213 239.645 15.213 239.419 15.213 239.151C15.7074 239.501 16.1821 239.831 16.6766 240.181C16.1821 240.531 15.7074 240.86 15.213 241.21C15.213 240.963 15.213 240.716 15.213 240.469C13.0966 240.469 12.2002 240.469 10.0641 240.469C10.0838 240.489 10.0838 240.51 10.1036 240.51C10.519 240.963 10.9541 241.395 11.3695 241.848C11.409 241.889 11.4486 241.91 11.4881 241.91C12.0222 241.91 12.5562 241.91 13.11 241.91C13.1298 241.91 13.1496 241.91 13.1891 241.91C13.1891 241.745 13.1891 241.601 13.1891 241.436C13.7034 241.436 14.1979 241.436 14.7121 241.436Z" fill="#25C100"/>
<path fill-rule="evenodd" clip-rule="evenodd" d="M17.9117 217.149C17.9117 217.5 17.6264 217.786 17.2745 217.786H3.72533C3.37343 217.786 3.08816 217.5 3.08816 217.149V208.988V206.851C3.08816 206.5 3.37343 206.214 3.72533 206.214H5.86706H15.1238H17.2745C17.6264 206.214 17.9117 206.5 17.9117 206.851V208.988V217.149ZM0 219.536C0 220.344 0.671225 221 1.49896 221H19.5013C20.329 221 21 220.344 21 219.536V204.464C21 203.656 20.329 203 19.5013 203H1.49896C0.671225 203 0 203.656 0 204.464V219.536Z" fill="#D7D7D7"/>
<path d="M14.7119 213.436C14.7119 213.951 14.7119 214.466 14.7119 215.001C14.2174 215.001 13.7229 215.001 13.2087 215.001C13.2087 214.836 13.2087 214.692 13.2087 214.507C13.1691 214.507 13.1493 214.507 13.1098 214.507C12.4966 214.507 11.8835 214.507 11.2703 214.507C11.2308 214.507 11.1912 214.486 11.1517 214.466C10.5385 213.827 9.92538 213.189 9.29246 212.531C9.27268 212.51 9.23312 212.489 9.19356 212.489C8.46174 212.489 7.71014 212.489 6.97832 212.489H6.95854C6.78053 213.107 6.20695 213.354 5.75203 213.251C5.29712 213.148 4.94109 212.716 4.9411 212.242C4.9411 211.707 5.25756 211.275 5.73225 211.151C6.16739 211.048 6.76076 211.234 6.97832 211.913C7.25523 211.913 7.51235 211.913 7.78926 211.913C7.80904 211.913 7.8486 211.892 7.86837 211.872C8.24417 211.481 8.61997 211.089 8.97599 210.719C9.21334 210.472 9.45069 210.204 9.70781 209.957C9.72759 209.937 9.78693 209.916 9.82649 209.916C10.4396 209.916 11.0726 209.916 11.6857 209.916C11.7648 209.916 11.8044 209.895 11.8242 209.834C11.9824 209.525 12.2989 209.381 12.6351 209.443C12.9318 209.504 13.1691 209.772 13.2285 210.081C13.2878 210.451 13.09 210.822 12.734 210.945C12.3977 211.069 12.0022 210.925 11.8242 210.595C11.7846 210.513 11.745 210.492 11.6461 210.492C11.1121 210.492 10.5583 210.492 10.0243 210.492C9.98472 210.492 9.94516 210.513 9.92538 210.534C9.49024 210.966 9.07489 211.419 8.63975 211.872L8.61997 211.892C11.2308 211.892 12.6019 211.892 15.2127 211.892C15.2127 211.645 15.2127 211.419 15.2127 211.151C15.7072 211.501 16.1819 211.831 16.6764 212.181C16.1819 212.531 15.7072 212.86 15.2127 213.21C15.2127 212.963 15.2127 212.716 15.2127 212.469C13.0964 212.469 12.2 212.469 10.0638 212.469C10.0836 212.489 10.0836 212.51 10.1034 212.51C10.5187 212.963 10.9539 213.395 11.3692 213.848C11.4088 213.889 11.4484 213.91 11.4879 213.91C12.0219 213.91 12.556 213.91 13.1098 213.91C13.1296 213.91 13.1493 213.91 13.1889 213.91C13.1889 213.745 13.1889 213.601 13.1889 213.436C13.7032 213.436 14.1976 213.436 14.7119 213.436Z" fill="#D7D7D7"/>
<path fill-rule="evenodd" clip-rule="evenodd" d="M11.4166 278C16.6633 278 20.9166 273.747 20.9166 268.5C20.9166 263.253 16.6633 259 11.4166 259C6.16993 259 1.91664 263.253 1.91664 268.5C1.91664 273.747 6.16993 278 11.4166 278ZM11.4567 275.04C15.0465 275.04 17.9567 272.13 17.9567 268.54C17.9567 264.95 15.0465 262.04 11.4567 262.04C7.86683 262.04 4.95668 264.95 4.95668 268.54C4.95668 272.13 7.86683 275.04 11.4567 275.04Z" fill="#D4D4D4"/>
<circle cx="11.5" cy="268.5" r="1.5" fill="#D9D9D9"/>
<ellipse cx="11.4366" cy="268.52" rx="4.2" ry="4.2" stroke="#D9D9D9" stroke-width="1.02"/>
<path fill-rule="evenodd" clip-rule="evenodd" d="M11.4166 307C16.6633 307 20.9166 302.747 20.9166 297.5C20.9166 292.253 16.6633 288 11.4166 288C6.16993 288 1.91664 292.253 1.91664 297.5C1.91664 302.747 6.16993 307 11.4166 307ZM11.4567 304.04C15.0465 304.04 17.9567 301.13 17.9567 297.54C17.9567 293.95 15.0465 291.04 11.4567 291.04C7.86683 291.04 4.95668 293.95 4.95668 297.54C4.95668 301.13 7.86683 304.04 11.4567 304.04Z" fill="#25C100"/>
<circle cx="11.5" cy="297.5" r="1.5" fill="#25C100"/>
<ellipse cx="11.4366" cy="297.52" rx="4.2" ry="4.2" stroke="#25C100" stroke-width="1.02"/>
<path fill-rule="evenodd" clip-rule="evenodd" d="M11.4166 336C16.6633 336 20.9166 331.747 20.9166 326.5C20.9166 321.253 16.6633 317 11.4166 317C6.16993 317 1.91664 321.253 1.91664 326.5C1.91664 331.747 6.16993 336 11.4166 336ZM11.4567 333.04C15.0465 333.04 17.9567 330.13 17.9567 326.54C17.9567 322.95 15.0465 320.04 11.4567 320.04C7.86683 320.04 4.95668 322.95 4.95668 326.54C4.95668 330.13 7.86683 333.04 11.4567 333.04Z" fill="#ECC000"/>
<circle cx="11.5" cy="326.5" r="1.5" fill="#ECC000"/>
<ellipse cx="11.4366" cy="326.52" rx="4.2" ry="4.2" stroke="#ECC000" stroke-width="1.02"/>
</g>
</svg>
