<?xml version="1.0" encoding="utf-8"?>
<!-- Generator: Adobe Illustrator 22.0.1, SVG Export Plug-In . SVG Version: 6.00 Build 0)  -->
<svg version="1.1" id="圖層_1" xmlns="http://www.w3.org/2000/svg" xmlns:xlink="http://www.w3.org/1999/xlink" x="0px" y="0px"
	 viewBox="0 0 6 3.1" style="enable-background:new 0 0 6 3.1;" xml:space="preserve">
<style type="text/css">
	.st0{fill:#3DBBCC;}
	.st1{fill:#3CBBCE;}
</style>
<path class="st0" d="M5.8,3H5.4c0-1.3-1.1-2.4-2.4-2.4V0.2C4.6,0.2,5.8,1.5,5.8,3z"/>
<g>
	<path class="st0" d="M5.1,3H4.7c0-0.9-0.7-1.7-1.7-1.7V0.9C4.1,0.9,5.1,1.9,5.1,3z"/>
</g>
<g>
	<path class="st0" d="M4.3,3H3.9c0-0.5-0.4-0.9-0.9-0.9V1.7C3.7,1.7,4.3,2.3,4.3,3z"/>
</g>
<path class="st1" d="M3.5,3c0-0.3-0.2-0.5-0.5-0.5v0.3l0,0V3h0.2l0,0C3.2,3,3.5,3,3.5,3z"/>
<circle class="st0" cx="1.3" cy="0.9" r="0.7"/>
<path class="st0" d="M1.5,1.7L1.5,1.7"/>
<path class="st0" d="M1.6,1.7H1.4l0,0H1.1c-0.5,0-1,0.4-1,1V3h1.1l0,0h1.4V2.7C2.6,2.2,2.2,1.7,1.6,1.7z"/>
</svg>
