<svg width="28" height="15" viewBox="0 0 28 15" fill="none" xmlns="http://www.w3.org/2000/svg">
<g clip-path="url(#clip0_3210_54637)">
<path d="M6.06745 7.46668C7.87158 7.46668 9.33411 6.00415 9.33411 4.20002C9.33411 2.39589 7.87158 0.93335 6.06745 0.93335C4.26332 0.93335 2.80078 2.39589 2.80078 4.20002C2.80078 6.00415 4.26332 7.46668 6.06745 7.46668Z" fill="#06CCDE"/>
<path d="M7.4668 7.93335H6.53346H5.13346C2.80013 7.93335 0.466797 9.80002 0.466797 12.6V14H5.60013H12.1335V12.6C12.1335 10.2667 10.2668 7.93335 7.4668 7.93335Z" fill="#06CCDE"/>
<rect x="0.5" y="-0.5" width="11" height="11" rx="1.5" transform="matrix(1 0 0 -1 14 13)" stroke="#06CCDE"/>
<path d="M16.25 11.375V11.775C16.0291 11.775 15.85 11.5959 15.85 11.375H16.25ZM23.75 11.375H24.15C24.15 11.5959 23.9709 11.775 23.75 11.775V11.375ZM16.25 6.875H15.85C15.85 6.65409 16.0291 6.475 16.25 6.475V6.875ZM17.75 6.875H18.15C18.15 7.09591 17.9709 7.275 17.75 7.275V6.875ZM17.75 5.07497H17.35C17.35 4.85405 17.5291 4.67497 17.75 4.67497V5.07497ZM22.25 5.07497V4.67497C22.4709 4.67497 22.65 4.85405 22.65 5.07497H22.25ZM22.25 6.875V7.275C22.0291 7.275 21.85 7.09591 21.85 6.875H22.25ZM23.75 6.875V6.475C23.9709 6.475 24.15 6.65409 24.15 6.875H23.75ZM16.25 10.975H23.75V11.775H16.25V10.975ZM16.65 6.875V11.375H15.85V6.875H16.65ZM17.75 7.275H16.25V6.475H17.75V7.275ZM18.15 5.07497V6.875H17.35V5.07497H18.15ZM22.25 5.47497H17.75V4.67497H22.25V5.47497ZM21.85 6.875V5.07497H22.65V6.875H21.85ZM23.75 7.275H22.25V6.475H23.75V7.275ZM23.35 11.375V6.875H24.15V11.375H23.35Z" fill="#06CCDE"/>
<path d="M17.75 11.375V8.575" stroke="#06CCDE" stroke-linecap="round" stroke-linejoin="round"/>
<path d="M19.25 11.375V8.575" stroke="#06CCDE" stroke-linecap="round" stroke-linejoin="round"/>
<path d="M20.75 11.375V8.575" stroke="#06CCDE" stroke-linecap="round" stroke-linejoin="round"/>
<path d="M22.25 11.375V8.575" stroke="#06CCDE" stroke-linecap="round" stroke-linejoin="round"/>
</g>
<defs>
<clipPath id="clip0_3210_54637">
<rect width="28" height="14.4667" fill="white"/>
</clipPath>
</defs>
</svg>
