<?xml version="1.0" encoding="UTF-8"?>
<svg width="59px" height="268px" viewBox="0 0 59 268" version="1.1" xmlns="http://www.w3.org/2000/svg" xmlns:xlink="http://www.w3.org/1999/xlink">
    <title>2023_connect-quality_moca_0306</title>
    <g id="Page-1" stroke="none" stroke-width="1" fill="none" fill-rule="evenodd">
        <g id="2023_singal-quality_white_0301-copy" transform="translate(-365.000000, -40.000000)">
            <g id="ouline" transform="translate(365.000000, 40.000000)">
                <path d="M29.45,0 L0,17.011 L0,50.93 L29.45,67.941 L58.9,50.93 L58.9,17.011 L29.45,0 Z M3.5,48.91 L3.5,19.03 L29.45,4.041 L55.4,19.03 L55.4,48.91 L29.45,63.9 L3.5,48.91 Z" id="Fill-1" fill="#4EF81C"></path>
                <g id="Group-18" transform="translate(0.000200, 16.370900)">
                    <path d="M29.1494,3.5 C21.3474,3.5 15.0004,9.848 15.0004,17.649 C15.0004,25.452 21.3474,31.8 29.1494,31.8 C36.9524,31.8 43.2994,25.452 43.2994,17.649 C43.2994,9.848 36.9524,3.5 29.1494,3.5 M29.1494,35.3 C19.4184,35.3 11.5004,27.382 11.5004,17.649 C11.5004,7.918 19.4184,0 29.1494,0 C38.8814,0 46.7994,7.918 46.7994,17.649 C46.7994,27.382 38.8814,35.3 29.1494,35.3" id="Fill-2" fill="#4EF81C"></path>
                    <path d="M28.9498,23.3497 C25.7498,23.3497 23.1498,20.7497 23.1498,17.5497 C23.1498,14.3497 25.7498,11.7497 28.9498,11.7497 C32.1498,11.7497 34.7498,14.3497 34.7498,17.5497 C34.7498,20.7497 32.1498,23.3497 28.9498,23.3497" id="Fill-4" fill="#4FF81D"></path>
                    <path d="M3.5,130.7402 L29.45,145.7292 L55.399,130.7402 L55.399,100.8592 L29.45,85.8702 L3.5,100.8592 L3.5,130.7402 Z M29.45,149.7702 L0,132.7602 L0,98.8402 L29.45,81.8292 L58.899,98.8402 L58.899,132.7602 L29.45,149.7702 Z" id="Fill-6" fill="#FFA500"></path>
                    <path d="M29.1494,101.5996 C21.3474,101.5996 15.0004,107.9476 15.0004,115.7496 C15.0004,123.5516 21.3474,129.8996 29.1494,129.8996 C36.9524,129.8996 43.2994,123.5516 43.2994,115.7496 C43.2994,107.9476 36.9524,101.5996 29.1494,101.5996 M29.1494,133.3996 C19.4184,133.3996 11.5004,125.4816 11.5004,115.7496 C11.5004,106.0176 19.4184,98.0996 29.1494,98.0996 C38.8814,98.0996 46.7994,106.0176 46.7994,115.7496 C46.7994,125.4816 38.8814,133.3996 29.1494,133.3996" id="Fill-8" fill="#FFA500"></path>
                    <path d="M28.9498,121.5497 C25.7498,121.5497 23.1498,118.9497 23.1498,115.7497 C23.1498,112.5497 25.7498,109.9497 28.9498,109.9497 C32.1498,109.9497 34.7498,112.5497 34.7498,115.7497 C34.7498,118.9497 32.1498,121.5497 28.9498,121.5497" id="Fill-10" fill="#FFA500"></path>
                    <path d="M3.5,232.3398 L29.45,247.3288 L55.399,232.3398 L55.399,202.4588 L29.45,187.4708 L3.5,202.4588 L3.5,232.3398 Z M29.45,251.3698 L0,234.3598 L0,200.4398 L29.45,183.4298 L58.899,200.4398 L58.899,234.3598 L29.45,251.3698 Z" id="Fill-12" fill="#3F5159"></path>
                    <path d="M29.1494,203.2998 C21.3474,203.2998 15.0004,209.6478 15.0004,217.4488 C15.0004,225.2518 21.3474,231.5998 29.1494,231.5998 C36.9524,231.5998 43.2994,225.2518 43.2994,217.4488 C43.2994,209.6478 36.9524,203.2998 29.1494,203.2998 M29.1494,235.0998 C19.4184,235.0998 11.5004,227.1818 11.5004,217.4488 C11.5004,207.7178 19.4184,199.7998 29.1494,199.7998 C38.8814,199.7998 46.7994,207.7178 46.7994,217.4488 C46.7994,227.1818 38.8814,235.0998 29.1494,235.0998" id="Fill-14" fill="#3F5159"></path>
                    <path d="M28.9498,223.2497 C25.7498,223.2497 23.1498,220.6497 23.1498,217.4497 C23.1498,214.2497 25.7498,211.6497 28.9498,211.6497 C32.1498,211.6497 34.7498,214.2497 34.7498,217.4497 C34.7498,220.6497 32.1498,223.2497 28.9498,223.2497" id="Fill-16" fill="#3F5159"></path>
                </g>
            </g>
        </g>
    </g>
</svg>