<?xml version="1.0" encoding="utf-8"?>
<!-- Generator: Adobe Illustrator 27.8.1, SVG Export Plug-In . SVG Version: 6.00 Build 0)  -->
<svg version="1.1" id="圖層_1" xmlns="http://www.w3.org/2000/svg" xmlns:xlink="http://www.w3.org/1999/xlink" x="0px" y="0px"
	 viewBox="0 0 16 16" style="enable-background:new 0 0 16 16;" xml:space="preserve">
<style type="text/css">
	.st0{fill:#0DDD0A;}
</style>
<path class="st0" d="M4.97,15.28c-0.96-0.41-1.8-0.99-2.54-1.72c-0.73-0.73-1.3-1.58-1.72-2.54C0.3,10.06,0.09,9.04,0.09,7.95
	c0-1.09,0.21-2.11,0.62-3.07c0.42-0.96,0.99-1.8,1.72-2.54s1.57-1.3,2.53-1.72C5.93,0.21,6.95,0,8.04,0c1.09,0,2.12,0.21,3.08,0.62
	c0.96,0.42,1.81,0.99,2.54,1.72c0.73,0.73,1.31,1.58,1.72,2.54C15.79,5.84,16,6.86,16,7.95c0,1.09-0.21,2.11-0.62,3.07
	c-0.42,0.96-0.99,1.81-1.72,2.54c-0.73,0.73-1.58,1.31-2.54,1.72c-0.96,0.41-1.98,0.62-3.07,0.62C6.96,15.9,5.93,15.69,4.97,15.28z
	 M7.59,11.64c0.12-0.07,0.23-0.17,0.32-0.3l3.6-5.62c0.05-0.08,0.1-0.17,0.14-0.27c0.04-0.09,0.06-0.19,0.06-0.27
	c0-0.2-0.08-0.36-0.23-0.48c-0.15-0.12-0.32-0.18-0.51-0.18c-0.25,0-0.46,0.13-0.62,0.4l-3.19,5.09L5.68,8.13
	c-0.1-0.13-0.2-0.22-0.3-0.27c-0.1-0.05-0.21-0.08-0.33-0.08c-0.2,0-0.36,0.07-0.5,0.21c-0.14,0.14-0.2,0.31-0.2,0.5
	c0,0.1,0.02,0.19,0.05,0.28c0.04,0.09,0.09,0.18,0.15,0.27l1.89,2.29c0.11,0.14,0.23,0.24,0.35,0.3c0.12,0.06,0.25,0.09,0.4,0.09
	C7.33,11.74,7.46,11.71,7.59,11.64z"/>
</svg>
