<?xml version="1.0" encoding="UTF-8"?>
<svg width="167px" height="314px" viewBox="0 0 167 314" version="1.1" xmlns="http://www.w3.org/2000/svg" xmlns:xlink="http://www.w3.org/1999/xlink">
    <!-- Generator: Sketch 60.1 (88133) - https://sketch.com -->
    <title>system_icon</title>
    <desc>Created with Sketch.</desc>
    <defs>
        <polygon id="path-1" points="0 31.461102 28.37592 31.461102 28.37592 0 0 0"></polygon>
    </defs>
    <g id="system_icon" stroke="none" stroke-width="1" fill="none" fill-rule="evenodd">
        <g id="Group-5" transform="translate(1.000000, 68.000000)">
            <g id="Group-3" stroke="#32C5FF">
                <circle id="Oval-Copy-2" cx="22" cy="22" r="22"></circle>
            </g>
            <g id="Group-15" transform="translate(8.000000, 6.000000)">
                <path d="M8.639973,19.0079568 L8.639973,13.8239568 C8.639973,10.9653588 10.965375,8.6399568 13.823973,8.6399568 C16.682625,8.6399568 19.007973,10.9653588 19.007973,13.8239568 L19.007973,19.0079568 L8.639973,19.0079568 Z M10.368027,20.7589568 L17.279973,20.7589568 L10.368027,20.7589568 Z M19.008027,20.7360108 L21.600027,20.7360108 C22.077603,20.7360108 22.464027,20.3495328 22.464027,19.8719028 C22.464027,19.3943268 22.077549,19.0079568 21.599973,19.0079568 L21.599973,19.0079568 L20.735973,19.0079568 L20.735973,13.8239568 C20.735973,10.0127448 17.635185,6.9119568 13.823973,6.9119568 C10.012761,6.9119568 6.911973,10.0127448 6.911973,13.8239568 L6.911973,19.0079568 L6.047973,19.0079568 C5.570397,19.0079568 5.183973,19.3943808 5.183973,19.8719568 C5.183973,20.3495868 5.570397,20.7360108 6.047973,20.7360108 L8.639973,20.7360108 L19.008027,20.7360108 Z" id="Fill-1" fill="#32C5FF"></path>
                <mask id="mask-2" fill="white">
                    <use xlink:href="#path-1"></use>
                </mask>
                <g id="Clip-4"></g>
                <polygon id="Fill-3" fill="#32C5FF" mask="url(#mask-2)" points="24.919866 15.077934 28.375866 15.077934 28.375866 13.349934 24.919866 13.349934"></polygon>
                <polygon id="Fill-5" fill="#32C5FF" mask="url(#mask-2)" points="0 15.077934 3.456 15.077934 3.456 13.349934 0 13.349934"></polygon>
                <polygon id="Fill-6" fill="#32C5FF" mask="url(#mask-2)" points="12.96 3.456 14.688 3.456 14.688 0 12.96 0"></polygon>
                <polygon id="Fill-7" fill="#32C5FF" mask="url(#mask-2)" points="3.4377966 4.6592928 4.6593846 3.4377048 7.1025066 5.8808808 5.8809186 7.1024148"></polygon>
                <polygon id="Fill-8" fill="#32C5FF" mask="url(#mask-2)" points="20.541357 5.8809402 22.984479 3.4378182 24.206067 4.6593522 21.762945 7.1025282"></polygon>
                <path d="M6.102,23.6671038 L9.75618,23.6671038 L9.75618,25.2871038 L6.102,25.2871038 C5.65488,25.2871038 5.292,24.9242238 5.292,24.4771038 C5.292,24.0299838 5.65488,23.6671038 6.102,23.6671038" id="Fill-9" fill="#32C5FF" mask="url(#mask-2)"></path>
                <path d="M21.546,25.2871038 L12.96,25.2871038 L12.96,23.6671038 L21.546,23.6671038 C21.99312,23.6671038 22.356,24.0299838 22.356,24.4771038 C22.356,24.9242238 21.99312,25.2871038 21.546,25.2871038 Z" id="Fill-10" fill="#32C5FF" mask="url(#mask-2)"></path>
                <line x1="10.0490018" y1="22.7851002" x2="10.0490018" y2="26.1691182" id="Stroke-11" stroke="#32C5FF" stroke-width="1.62" stroke-linecap="round" mask="url(#mask-2)"></line>
                <path d="M21.546,28.1490984 L18.323982,28.1490984 L18.323982,29.7690984 L21.546,29.7690984 C21.993336,29.7690984 22.356,29.4064344 22.356,28.9590984 C22.356,28.5117624 21.993336,28.1490984 21.546,28.1490984" id="Fill-12" fill="#32C5FF" mask="url(#mask-2)"></path>
                <path d="M15.703982,28.1490984 L6.102,28.1490984 C5.654664,28.1490984 5.292,28.5117624 5.292,28.9590984 C5.292,29.4064344 5.654664,29.7690984 6.102,29.7690984 L15.703982,29.7690984 L15.703982,28.1490984 Z" id="Fill-13" fill="#32C5FF" mask="url(#mask-2)"></path>
                <line x1="15.4569982" y1="27.2671002" x2="15.4569982" y2="30.6511182" id="Stroke-14" stroke="#32C5FF" stroke-width="1.62" stroke-linecap="round" mask="url(#mask-2)"></line>
            </g>
        </g>
        <g id="Group-6" transform="translate(1.000000, 135.000000)">
            <g id="Group-13">
                <circle id="Oval-Copy-3" stroke="#32C5FF" cx="22" cy="22" r="22"></circle>
                <g id="Group-16" transform="translate(9.000000, 9.000000)"></g>
                <g id="Group-15" transform="translate(9.000000, 9.000000)">
                    <path d="M9.46303691,23.8426748 C9.25592332,23.8426748 9.07882091,23.6921254 9.05109827,23.492573 L8.57456016,20.260238 L8.20625997,20.0981079 C7.67490074,19.8641673 7.16559478,19.5772285 6.6924895,19.2452816 L6.36262651,19.013819 L3.24120308,20.2380374 C3.19189527,20.25599 3.14061099,20.2651433 3.08870256,20.2651433 C2.93193702,20.2651433 2.78656221,20.1827635 2.7092717,20.0502174 L0.271968085,15.9456369 C0.167527077,15.7680322 0.210489364,15.5430426 0.375420857,15.4117102 L3.02816006,13.3945414 L2.98124483,12.995841 C2.91550109,12.4363255 2.91550109,11.8689715 2.98124483,11.3094559 L3.02816006,10.9106545 L0.372768222,8.89196853 C0.209501128,8.76670461 0.164562367,8.53701195 0.270719787,8.35950838 L2.71811382,4.24708941 C2.79119132,4.12000495 2.92959646,4.0410639 3.07939233,4.0410639 C3.1302085,4.0410639 3.18034851,4.05026779 3.22846003,4.06837214 L6.35893363,5.2931468 L6.68827649,5.06279672 C7.16252605,4.73110272 7.6722481,4.44264677 8.20319124,4.20557077 L8.56826666,4.04258102 L9.04470074,0.809942587 C9.07361966,0.612210686 9.2495778,0.463734763 9.45409077,0.463734763 L14.3504912,0.463734763 C14.5576568,0.463734763 14.7347072,0.61428409 14.7624299,0.813887111 L15.235015,4.04895295 L15.6035753,4.21138642 C16.1346745,4.44547873 16.6434603,4.73267041 17.1158894,5.06497126 L17.4459604,5.29714189 L20.5671238,4.07302466 C20.6162236,4.0552743 20.6672478,4.04627269 20.7188962,4.04627269 C20.8762338,4.04627269 21.0220247,4.12895598 21.0994713,4.26205838 L23.5349545,8.36198635 C23.6401237,8.54009677 23.5972654,8.76442892 23.4322819,8.89520506 L20.7759018,10.9076202 L20.8207886,11.3052586 C20.8493954,11.5586689 20.8655713,11.8157204 20.8690041,12.0705468 C20.45951,12.005715 20.0434104,11.9728945 19.6291312,11.9728945 C18.9556739,11.9728945 18.2871059,12.0584603 17.6376784,12.227468 C17.6378864,12.20638 17.6379904,12.1853425 17.6379384,12.1643051 C17.6308127,9.09202669 15.0547399,6.59301912 11.8956594,6.59301912 L11.8823442,6.59301912 C8.71582599,6.60004846 6.14557854,9.11043447 6.15280827,12.1891353 C6.15998599,15.2608574 8.73595481,17.7599156 11.8950873,17.7599156 L11.9512607,17.7597638 L11.9584384,17.7589547 C11.7886698,18.3932645 11.7020691,19.0464372 11.7010808,19.7035038 C11.6994684,21.1804752 12.1267507,22.6043471 12.9399135,23.8426748 L9.46303691,23.8426748 Z" id="Fill-13" fill="#32C5FF"></path>
                    <g id="Group-7" transform="translate(14.387040, 14.249544)">
                        <path d="M10.2334157,10.2334286 C9.63939306,10.827452 8.92713686,11.2900219 8.14288544,11.5910368 C7.35857195,11.8921138 6.51976553,12.0249327 5.68083497,11.9809908 C4.84196648,11.9370488 4.02159332,11.7172148 3.27309125,11.3358259 C2.52458918,10.9544369 1.86459158,10.4199958 1.3359232,9.76713484 C0.807254827,9.11427387 0.421707989,8.35757829 0.204232761,7.54614144 C-0.0131804029,6.73464252 -0.0576188343,5.88658737 0.0738345144,5.05684137 C0.205225798,4.22709536 0.509591814,3.43427799 0.967133876,2.72971694 C1.42461387,2.0251559 2.02515334,1.42461567 2.7297135,0.967135095 C3.43427366,0.509592457 4.22709003,0.205226057 5.05683499,0.0738346075 C5.88657995,-0.057618907 6.73463403,-0.0131804196 7.54613192,0.204233018 C8.35756775,0.421708521 9.11426238,0.807255844 9.76712252,1.33592489 C10.4199827,1.86459393 10.9544231,2.52459236 11.3358116,3.27309538 C11.7172001,4.02159839 11.9370337,4.84197259 11.9809757,5.68084214 C11.9914646,5.8806912 11.9918991,6.08054026 11.9824032,6.27964455" id="Stroke-3" stroke="#32C5FF" stroke-width="1.53424294"></path>
                        <polygon id="Fill-5" fill="#32C5FF" points="14.9865 4.9955 11.9892303 7.9928 8.9919 4.9955"></polygon>
                    </g>
                </g>
            </g>
        </g>
        <circle id="Oval-Copy-4" stroke="#32C5FF" cx="23" cy="225" r="22"></circle>
        <g id="Group-13" transform="translate(9.000000, 212.000000)">
            <polygon id="Stroke-1" stroke="#41B9EB" stroke-width="1.944" stroke-linecap="round" stroke-linejoin="round" points="14.0838656 9.3124656 14.0838656 12.0231216 14.0838656 9.3124656 14.0838656 6.6018096"></polygon>
            <g id="Group-12" transform="translate(0.000000, 0.023688)">
                <path d="M14.1454656,24.372 C11.9851056,24.372 9.8628336,23.803344 7.9919136,22.7232 C6.1209936,21.642984 4.5673776,20.089368 3.4872336,18.218448 C2.4070896,16.347528 1.8384336,14.225256 1.8384336,12.064968 C1.8384336,9.904608 2.4070896,7.782336 3.4872336,5.911416" id="Stroke-2" stroke="#41B9EB" stroke-width="2.3" stroke-linecap="round"></path>
                <path d="M18.3118896,10.0575576 C18.7418016,10.8021816 18.9681696,11.6468856 18.9681696,12.5067096 C18.9681696,13.3665336 18.7418016,14.2111656 18.3118896,14.9557896 C17.8819776,15.7004856 17.2636416,16.3188216 16.5190176,16.7487336 C15.7743936,17.1786456 14.9296896,17.4049416 14.0698656,17.4049416 C13.2100416,17.4049416 12.3653376,17.1786456 11.6207136,16.7487336 C10.8760896,16.3188216 10.2577536,15.7004856 9.8278416,14.9557896 C9.3979296,14.2111656 9.1716336,13.3665336 9.1716336,12.5067096 C9.1716336,11.6468856 9.3979296,10.8021816 9.8278416,10.0575576" id="Stroke-4" stroke="#41B9EB" stroke-width="1.944" stroke-linecap="round"></path>
                <polygon id="Fill-6" fill="#41B9EB" points="0 3.5185608 6.006528 1.1208888 6.832512 7.5352968"></polygon>
                <path d="M14.0662656,0.0123336 C16.2266256,0.0123336 18.3488976,0.5809896 20.2198176,1.6611336 C22.0907376,2.7413496 23.6443536,4.2949656 24.7244976,6.1658856 C25.8046416,8.0368056 26.3732976,10.1590776 26.3732976,12.3193656 C26.3732976,14.4797256 25.8046416,16.6019976 24.7244976,18.4729176" id="Stroke-8" stroke="#41B9EB" stroke-width="2.3" stroke-linecap="round"></path>
                <polygon id="Fill-10" fill="#41B9EB" points="28.211724 20.8657728 22.205196 23.2634448 21.379212 16.8490368"></polygon>
            </g>
        </g>
        <g id="Group" transform="translate(1.000000, 1.000000)">
            <circle id="Oval" stroke="#32C5FF" cx="22" cy="22" r="22"></circle>
            <g id="ethernet-(1)" transform="translate(10.000000, 11.000000)" fill="#32C5FF" fill-rule="nonzero">
                <path d="M22.8027344,0 L2.19726563,0 C0.985717773,0 0,0.942083333 0,2.1 L0,18.9 C0,20.0579167 0.985717773,21 2.19726563,21 L22.8027344,21 C24.0142822,21 25,20.0579167 25,18.9 L25,2.1 C25,0.942083333 24.0142822,0 22.8027344,0 Z M23.5351563,18.9 C23.5351563,19.2859114 23.2065201,19.6 22.8027344,19.6 L2.19726563,19.6 C1.79347993,19.6 1.46484375,19.2859114 1.46484375,18.9 L1.46484375,2.1 C1.46484375,1.71408855 1.79347993,1.4 2.19726563,1.4 L22.8027344,1.4 C23.2065201,1.4 23.5351563,1.71408855 23.5351563,2.1 L23.5351563,18.9 Z" id="Shape"></path>
                <path d="M20.5630769,2.64 L4.31692308,2.64 C3.94302886,2.64 3.64,2.94440626 3.64,3.32 L3.64,11.48 C3.64,11.8555937 3.94302886,12.16 4.31692308,12.16 L4.99384615,12.16 L4.99384615,14.2 C4.99384615,14.5755937 5.29687501,14.88 5.67076923,14.88 L7.70153846,14.88 L7.70153846,16.92 C7.70153846,17.2955937 8.00456732,17.6 8.37846154,17.6 L16.5015385,17.6 C16.8754327,17.6 17.1784615,17.2955937 17.1784615,16.92 L17.1784615,14.88 L19.2092308,14.88 C19.583125,14.88 19.8861538,14.5755937 19.8861538,14.2 L19.8861538,12.16 L20.5630769,12.16 C20.9369711,12.16 21.24,11.8555937 21.24,11.48 L21.24,3.32 C21.24,2.94440626 20.9369711,2.64 20.5630769,2.64 Z M19.8861538,10.8 L19.2092308,10.8 C18.8353365,10.8 18.5323077,11.1044063 18.5323077,11.48 L18.5323077,13.52 L16.5015385,13.52 C16.1276442,13.52 15.8246154,13.8244063 15.8246154,14.2 L15.8246154,16.24 L9.05538462,16.24 L9.05538462,14.2 C9.05538462,13.8244063 8.75235576,13.52 8.37846154,13.52 L6.34769231,13.52 L6.34769231,11.48 C6.34769231,11.1044063 6.04466345,10.8 5.67076923,10.8 L4.99384615,10.8 L4.99384615,4 L19.8861538,4 L19.8861538,10.8 Z" id="Shape"></path>
                <path d="M7.16,9.68 C7.64606249,9.68 8.04,9.35171874 8.04,8.94666667 L8.04,6.01333333 C8.04,5.60828126 7.64606249,5.28 7.16,5.28 C6.67393751,5.28 6.28,5.60828126 6.28,6.01333333 L6.28,8.94666667 C6.28,9.35171874 6.67393751,9.68 7.16,9.68 Z" id="Path"></path>
                <path d="M9.8,9.68 C10.2860625,9.68 10.68,9.35171874 10.68,8.94666667 L10.68,6.01333333 C10.68,5.60828126 10.2860625,5.28 9.8,5.28 C9.31393751,5.28 8.92,5.60828126 8.92,6.01333333 L8.92,8.94666667 C8.92,9.35171874 9.31393751,9.68 9.8,9.68 Z" id="Path"></path>
                <path d="M12.44,9.68 C12.9260625,9.68 13.32,9.35171874 13.32,8.94666667 L13.32,6.01333333 C13.32,5.60828126 12.9260625,5.28 12.44,5.28 C11.9539375,5.28 11.56,5.60828126 11.56,6.01333333 L11.56,8.94666667 C11.56,9.35171874 11.9539375,9.68 12.44,9.68 Z" id="Path"></path>
                <path d="M15.08,9.68 C15.5660625,9.68 15.96,9.35171874 15.96,8.94666667 L15.96,6.01333333 C15.96,5.60828126 15.5660625,5.28 15.08,5.28 C14.5939375,5.28 14.2,5.60828126 14.2,6.01333333 L14.2,8.94666667 C14.2,9.35171874 14.5939375,9.68 15.08,9.68 Z" id="Path"></path>
                <path d="M17.72,9.68 C18.2060625,9.68 18.6,9.35171874 18.6,8.94666667 L18.6,6.01333333 C18.6,5.60828126 18.2060625,5.28 17.72,5.28 C17.2339375,5.28 16.84,5.60828126 16.84,6.01333333 L16.84,8.94666667 C16.84,9.35171874 17.2339375,9.68 17.72,9.68 Z" id="Path"></path>
            </g>
        </g>
        <g id="Group-2" transform="translate(0.000000, 270.000000)">
            <circle id="Oval-Copy" stroke="#32C5FF" cx="22" cy="22" r="22"></circle>
            <g id="list-(2)" transform="translate(11.000000, 12.000000)" fill="#32C5FF" fill-rule="nonzero">
                <path d="M21.0833888,-2.77555756e-17 L0.916654134,-2.77555756e-17 C0.410438302,-2.77555756e-17 -5.55111512e-17,0.410394531 -5.55111512e-17,0.916652344 L-5.55111512e-17,21.0833047 C-5.55111512e-17,21.5896055 0.410438302,22 0.916654134,22 L21.0833459,22 C21.5896047,22 22,21.5896055 22,21.0833477 L22,0.916652344 C22,0.410394531 21.5896906,-2.77555756e-17 21.0833888,-2.77555756e-17 Z M20,20 L20,20 L2,20 L2,2 L20,2 L20,20 L20,20 Z" id="Shape"></path>
                <path d="M17.2134,5.26668 L10.38668,5.26668 C9.9154,5.26668 9.53336,5.64872 9.53336,6.12 C9.53336,6.59128 9.9154,6.97332 10.38668,6.97332 L17.21336,6.97332 C17.68464,6.97332 18.06668,6.59128 18.06668,6.12 C18.06668,5.64872 17.68468,5.26668 17.2134,5.26668 Z" id="Path"></path>
                <path d="M17.2134,10.38668 L10.38668,10.38668 C9.9154,10.38668 9.53336,10.76872 9.53336,11.24 C9.53336,11.71128 9.9154,12.09332 10.38668,12.09332 L17.21336,12.09332 C17.68464,12.09332 18.06668,11.71128 18.06668,11.24 C18.06668,10.76872 17.68468,10.38668 17.2134,10.38668 Z" id="Path"></path>
                <path d="M17.2134,15.50668 L10.38668,15.50668 C9.9154,15.50668 9.53336,15.88872 9.53336,16.36 C9.53336,16.83128 9.9154,17.21332 10.38668,17.21332 L17.21336,17.21332 C17.68464,17.21332 18.06668,16.83128 18.06668,16.36 C18.06668,15.88872 17.68468,15.50668 17.2134,15.50668 Z" id="Path"></path>
                <path d="M7.3268,6.12 L7.57672,5.87008 C7.90996,5.53684 7.90996,4.99652 7.57672,4.66328 C7.24348,4.33004 6.70316,4.33004 6.36992,4.66328 L6.12,4.9132 L5.87008,4.66328 C5.53684,4.33004 4.99652,4.33004 4.66328,4.66328 C4.33004,4.99652 4.33004,5.53684 4.66328,5.87008 L4.91324,6.12 L4.66332,6.36992 C4.33008,6.7032 4.33008,7.24348 4.66332,7.57672 C4.99656,7.90996 5.53688,7.90996 5.87012,7.57672 L6.12,7.3268 L6.36992,7.57672 C6.70316,7.90996 7.24348,7.90996 7.57672,7.57672 C7.90996,7.24348 7.90996,6.70316 7.57672,6.36992 L7.3268,6.12 Z" id="Path"></path>
                <path d="M7.3268,11.24 L7.57672,10.99008 C7.90996,10.65684 7.90996,10.11652 7.57672,9.78328 C7.24348,9.45004 6.70316,9.45004 6.36992,9.78328 L6.12,10.0332 L5.87008,9.78328 C5.53684,9.45004 4.99652,9.45004 4.66328,9.78328 C4.33004,10.11652 4.33004,10.65684 4.66328,10.99008 L4.91324,11.24 L4.66332,11.48992 C4.33008,11.8232 4.33008,12.36348 4.66332,12.69672 C4.99656,13.02996 5.53688,13.02996 5.87012,12.69672 L6.12,12.4468 L6.36992,12.69672 C6.70316,13.02996 7.24348,13.02996 7.57672,12.69672 C7.90996,12.36348 7.90996,11.82316 7.57672,11.48992 L7.3268,11.24 Z" id="Path"></path>
                <path d="M7.3268,16.36 L7.57672,16.11008 C7.90996,15.77684 7.90996,15.23652 7.57672,14.90328 C7.24348,14.57004 6.70316,14.57004 6.36992,14.90328 L6.12,15.1532 L5.87008,14.90328 C5.53684,14.57004 4.99652,14.57004 4.66328,14.90328 C4.33004,15.23652 4.33004,15.77684 4.66328,16.11008 L4.91324,16.36 L4.66332,16.60992 C4.33008,16.9432 4.33008,17.48348 4.66332,17.81672 C4.99656,18.14996 5.53688,18.14996 5.87012,17.81672 L6.12,17.5668 L6.36992,17.81672 C6.70316,18.14996 7.24348,18.14996 7.57672,17.81672 C7.90996,17.48348 7.90996,16.94316 7.57672,16.60992 L7.3268,16.36 Z" id="Path"></path>
            </g>
        </g>
    </g>
</svg>