<svg width="43" height="445" viewBox="0 0 43 445" fill="none" xmlns="http://www.w3.org/2000/svg">
<circle cx="22" cy="21" r="21" fill="black" fill-opacity="0.1"/>
<path d="M32.3333 20.7396V13.3333C32.3333 12.2288 31.4379 11.3333 30.3333 11.3333H13.3333C12.2288 11.3333 11.3333 12.2288 11.3333 13.3333V30.3333C11.3333 31.4379 12.2288 32.3333 13.3333 32.3333H21.5417" stroke="#32C5FF" stroke-width="2" stroke-linecap="round"/>
<path d="M28.8333 23.0686V21.2843V16H14.8333V24.2353H16.9333V26.2941H19.5V27.6667H21.775H24.1667" stroke="#32C5FF" stroke-width="1.5" stroke-linejoin="round"/>
<path d="M18.1667 17.1667V20.1667" stroke="#32C5FF" stroke-width="1.5" stroke-linecap="square" stroke-linejoin="round"/>
<path d="M20.6667 17.1667V20.1667" stroke="#32C5FF" stroke-width="1.5" stroke-linecap="square" stroke-linejoin="round"/>
<path d="M23.1667 17.1667L23.1667 20.1667" stroke="#32C5FF" stroke-width="1.5" stroke-linecap="square" stroke-linejoin="round"/>
<path d="M25.6667 17.1667V20.1667" stroke="#32C5FF" stroke-width="1.5" stroke-linecap="square" stroke-linejoin="round"/>
<path d="M34.7464 29.0282L35.2183 28.5564C36.2606 27.5141 36.2606 25.8241 35.2183 24.7818C34.1759 23.7394 32.486 23.7394 31.4437 24.7818L29.5564 26.6691C28.5141 27.7114 28.5141 29.4014 29.5564 30.4437M26.2536 29.9718L25.7817 30.4436C24.7394 31.4859 24.7394 33.1759 25.7817 34.2182C26.8241 35.2606 28.514 35.2606 29.5563 34.2182L31.4436 32.3309C32.4859 31.2886 32.4859 29.5986 31.4436 28.5563" stroke="#32C5FF" stroke-width="2" stroke-linecap="round"/>
<circle cx="22" cy="88" r="21" fill="black" fill-opacity="0.1"/>
<path d="M25.0572 88.9C27.1653 87.9324 28.6293 85.8029 28.6293 83.3315C28.6293 82.7679 28.1724 82.3109 27.6087 82.3109H15.3613C14.7977 82.3109 14.3407 82.7679 14.3407 83.3315C14.3407 85.8029 15.8048 87.9324 17.9129 88.9" stroke="#32C5FF" stroke-width="2" stroke-linecap="round" stroke-linejoin="round"/>
<path d="M21.485 75.1667V77.5481M29.82 77.5481L28.0339 79.3342M13.15 77.5481L14.9361 79.3342" stroke="#32C5FF" stroke-width="1.5" stroke-linecap="round"/>
<path d="M13.5 93.1667H17.5M21.5 93.1667H29.5M25.5 98.5H29.5M13.5 98.5H21.5M17.5 91.8333V94.5M25.5 97.1667V99.8333" stroke="#32C5FF" stroke-width="2" stroke-linecap="round"/>
<circle cx="22" cy="155" r="21" fill="black" fill-opacity="0.1"/>
<path fill-rule="evenodd" clip-rule="evenodd" d="M20.3476 142.66C18.4345 142.66 16.8744 144.22 16.8744 146.133V146.517L16.5355 146.324C14.877 145.368 12.7573 145.948 11.8033 147.598L11.8032 147.598L11.803 147.598L10.6923 149.518C9.71973 151.178 10.3005 153.313 11.964 154.268L12.2953 154.46L11.9666 154.651L11.9642 154.652C10.3005 155.607 9.71971 157.742 10.6923 159.402L10.6941 159.405L11.8011 161.318C12.2581 162.123 13.0071 162.701 13.9104 162.943C14.8158 163.187 15.7438 163.044 16.531 162.599L16.5327 162.598L16.8744 162.403V162.787C16.8744 164.7 18.4345 166.26 20.3476 166.26H21.7437C21.1404 165.678 20.6285 165.002 20.2315 164.255C19.4764 164.195 18.8744 163.556 18.8744 162.787V162.15C18.8744 161.203 18.2312 160.705 17.946 160.545C17.6784 160.392 16.9247 160.065 16.0907 160.548L15.5458 160.858L15.5452 160.859C15.1884 161.06 14.7998 161.111 14.4317 161.012L14.4277 161.011C14.0375 160.907 13.7299 160.666 13.5391 160.329L13.5391 160.329L13.5343 160.32L12.4219 158.398L12.422 158.398L12.4187 158.392C12.0119 157.7 12.2511 156.793 12.9606 156.386L12.9606 156.386L12.9653 156.383L13.5053 156.07L13.5075 156.069C14.3434 155.581 14.4356 154.768 14.4356 154.46C14.4356 154.152 14.3434 153.339 13.5075 152.851L13.5053 152.85L12.9653 152.537L12.9654 152.537L12.9606 152.534C12.2511 152.128 12.0119 151.221 12.4187 150.528L12.4188 150.528L12.4219 150.522L13.5343 148.6L13.5346 148.599C13.9408 147.896 14.8427 147.656 15.538 148.057L15.538 148.057L15.5441 148.061L16.0909 148.372C16.9247 148.855 17.6783 148.528 17.946 148.375C18.2311 148.215 18.8744 147.717 18.8744 146.77V146.133C18.8744 145.325 19.5391 144.66 20.3476 144.66H22.5724C23.3809 144.66 24.0456 145.325 24.0456 146.133V146.77C24.0456 147.69 24.651 148.192 24.9838 148.375C25.2954 148.557 26.0284 148.836 26.8292 148.372L27.3759 148.061L27.3759 148.061L27.382 148.057C28.0791 147.654 28.9911 147.898 29.3962 148.599L29.3965 148.6L30.5061 150.517C30.6997 150.861 30.7499 151.259 30.6469 151.639L30.6448 151.646L30.6428 151.654C30.5502 152.019 30.3163 152.33 29.967 152.536L29.7969 152.632C30.5223 152.849 31.2043 153.166 31.8271 153.566C32.181 153.169 32.4417 152.69 32.5792 152.155C32.8187 151.264 32.6961 150.326 32.2447 149.529L32.2447 149.529L32.2399 149.52L31.1278 147.598C30.1728 145.946 28.0414 145.369 26.3845 146.324L26.0456 146.517V146.133C26.0456 144.22 24.4855 142.66 22.5724 142.66H20.3476ZM25.596 152.48C24.8558 150.94 23.2801 149.874 21.46 149.874C18.9313 149.874 16.8744 151.931 16.8744 154.46C16.8744 156.28 17.94 157.856 19.4801 158.596C19.625 157.926 19.8539 157.287 20.1553 156.691C19.39 156.241 18.8744 155.409 18.8744 154.46C18.8744 153.036 20.0359 151.874 21.46 151.874C22.4089 151.874 23.2412 152.39 23.691 153.156C24.2872 152.854 24.926 152.625 25.596 152.48Z" fill="#32C5FF"/>
<path d="M33.1407 160.737C33.2918 159.496 32.9264 158.426 32.2282 157.344C31.5299 156.261 30.4739 155.428 29.2355 154.984C27.7678 154.518 26.1859 154.624 24.8377 155.279C23.4894 155.934 22.4851 157.084 22.0455 158.477C21.5474 159.849 21.6448 161.373 22.3164 162.713C22.988 164.053 24.1789 165.1 25.6271 165.623C26.8811 166.025 28.2271 166.008 29.4411 165.574C30.6551 165.139 31.1619 164.746 31.7998 164.115" stroke="#32C5FF" stroke-width="2" stroke-linecap="round" stroke-linejoin="round"/>
<path d="M30.2675 159.57C30.0672 159.215 30.3537 158.773 30.7538 158.839C31.2029 158.902 32.1621 158.925 32.5887 159.014C32.8378 159.043 33.0604 159.05 33.2755 158.959C33.7094 158.825 34.6533 158.651 35.0608 158.495C35.4456 158.366 35.8233 158.78 35.6538 159.139L33.6973 162.801C33.5542 163.182 33.0146 163.226 32.8143 162.872L30.2675 159.57Z" fill="#32C5FF"/>
<circle cx="22" cy="222" r="21" fill="black" fill-opacity="0.1"/>
<path fill-rule="evenodd" clip-rule="evenodd" d="M20.3354 210.576C19.7869 210.641 19.2896 210.249 19.2245 209.701C19.1593 209.152 19.5512 208.655 20.0996 208.59C21.7564 208.393 23.4612 208.519 25.1244 208.975C28.5738 209.922 31.5651 212.217 33.453 215.343C33.4594 215.354 33.4657 215.364 33.4717 215.375C34.9849 218.107 35.5688 221.252 35.1177 224.29C34.8567 226.049 34.39 227.662 33.5775 229.11C33.7842 229.214 34.0259 229.344 34.275 229.477C34.7731 229.745 35.3001 230.027 35.6325 230.15C36.1593 230.37 36.1745 231.158 35.6623 231.38L30.1996 233.436C29.6943 233.706 29.084 233.252 29.2008 232.692L29.5711 226.841C29.6879 226.281 30.4011 226.079 30.7621 226.52C30.9376 226.724 31.2156 227.004 31.5061 227.296C31.6747 227.466 31.8476 227.64 32.007 227.806C32.5736 226.692 32.9264 225.431 33.1394 223.997C33.5236 221.409 33.0297 218.713 31.7312 216.361C30.0997 213.668 27.5294 211.71 24.5949 210.904C23.1783 210.515 21.7334 210.41 20.3354 210.576ZM23.7628 235.154C23.6977 234.606 23.2003 234.214 22.6518 234.279C21.2538 234.445 19.8089 234.34 18.3924 233.951C15.4579 233.145 12.8875 231.187 11.256 228.494C9.95751 226.142 9.46363 223.447 9.84781 220.858C10.0608 219.424 10.4136 218.163 10.9802 217.049C11.1397 217.215 11.3125 217.389 11.4812 217.559C11.7716 217.851 12.0496 218.131 12.2252 218.335C12.5861 218.776 13.2993 218.574 13.4161 218.014L13.7864 212.163C13.9032 211.603 13.2929 211.149 12.7877 211.419L7.32493 213.475C6.8127 213.697 6.82789 214.485 7.35473 214.705C7.68709 214.828 8.21412 215.11 8.71227 215.378C8.96128 215.511 9.20306 215.641 9.40971 215.745C8.59719 217.193 8.1305 218.806 7.86949 220.565C7.41842 223.604 8.0023 226.748 9.5155 229.48C9.52155 229.491 9.5278 229.502 9.53425 229.512C11.4222 232.639 14.4134 234.933 17.8628 235.88C19.5261 236.337 21.2308 236.462 22.8876 236.265C23.4361 236.2 23.8279 235.703 23.7628 235.154Z" fill="#32C5FF"/>
<path d="M23.8067 219.353C25.06 220.127 25.9 221.513 25.9 223.1C25.9 225.533 23.9333 227.5 21.5 227.5C19.0667 227.5 17.1 225.533 17.1 223.1C17.1 221.513 17.94 220.127 19.1933 219.353" stroke="#32C5FF" stroke-width="1.5" stroke-linecap="round" stroke-linejoin="round"/>
<path d="M21.5 217.5V220.433" stroke="#32C5FF" stroke-width="1.5" stroke-linecap="round" stroke-linejoin="round"/>
<circle cx="22" cy="289" r="21" fill="black" fill-opacity="0.1"/>
<g clip-path="url(#clip0_30_46560)">
<path d="M31.5 290.5V283.5C31.5 281.291 29.7091 279.5 27.5 279.5H15.5C13.2909 279.5 11.5 281.291 11.5 283.5V295.5C11.5 297.709 13.2909 299.5 15.5 299.5H22.5" stroke="#32C5FF" stroke-width="2" stroke-linecap="round"/>
<path d="M16.5 284.5H26.5" stroke="#32C5FF" stroke-width="1.5" stroke-linecap="round" stroke-linejoin="round"/>
<path d="M16.5 289.5H26.5" stroke="#32C5FF" stroke-width="1.5" stroke-linecap="round" stroke-linejoin="round"/>
<path d="M16.5 294.5H24.5" stroke="#32C5FF" stroke-width="1.5" stroke-linecap="round" stroke-linejoin="round"/>
<path d="M32.6187 294.379L27.3787 299.619" stroke="#32C5FF" stroke-width="1.5" stroke-linecap="round" stroke-linejoin="round"/>
<path d="M32.6187 299.619L27.3787 294.379" stroke="#32C5FF" stroke-width="1.5" stroke-linecap="round" stroke-linejoin="round"/>
</g>
<circle cx="22" cy="356" r="21" fill="black" fill-opacity="0.1"/>
<path d="M22.105 366.477C21.7083 367.048 20.775 366.792 20.775 366.103L20.7633 359.523C20.7633 358.765 20.1217 358.158 19.3283 358.147L14.6267 358.088C14.055 358.077 13.7167 357.482 14.0317 357.027L21.9067 345.523C22.3033 344.952 23.2367 345.208 23.2367 345.897L23.2483 352.477C23.2483 353.235 23.89 353.842 24.6833 353.853L29.385 353.912C29.945 353.912 30.2833 354.518 29.98 354.973L22.105 366.477Z" stroke="#32C5FF" stroke-width="2" stroke-linecap="round" stroke-linejoin="round"/>
<circle cx="22" cy="423" r="21" fill="black" fill-opacity="0.1"/>
<path d="M20.5 431.505H15C13.34 431.505 12 430.095 12 428.355V421.645C12 420.705 12.39 419.825 13.08 419.225L19.33 413.735C20.44 412.755 22.06 412.755 23.17 413.735L29.42 419.225C30.11 419.825 30.5 420.705 30.5 421.645V422" stroke="#32C5FF" stroke-width="2" stroke-linecap="round" stroke-linejoin="round"/>
<path d="M27.9773 424H27.0227C26.4955 424 26.0682 424.403 26.0682 424.9C26.0682 425.469 25.4596 425.83 24.96 425.558L24.9093 425.531C24.4527 425.282 23.8689 425.43 23.6053 425.86L23.128 426.64C22.8645 427.07 23.0209 427.621 23.4774 427.869C23.9772 428.141 23.9773 428.859 23.4774 429.131C23.0209 429.379 22.8645 429.93 23.1281 430.36L23.6053 431.14C23.8689 431.57 24.4527 431.718 24.9093 431.469L24.96 431.442C25.4596 431.17 26.0682 431.531 26.0682 432.1C26.0682 432.597 26.4955 433 27.0227 433H27.9773C28.5045 433 28.9318 432.597 28.9318 432.1C28.9318 431.531 29.5404 431.17 30.04 431.442L30.0907 431.469C30.5473 431.718 31.1311 431.57 31.3947 431.14L31.8719 430.36C32.1355 429.93 31.9791 429.379 31.5226 429.131C31.0227 428.859 31.0228 428.141 31.5226 427.869C31.9791 427.621 32.1355 427.07 31.872 426.64L31.3947 425.86C31.1311 425.43 30.5473 425.282 30.0907 425.531L30.04 425.558C29.5404 425.83 28.9318 425.469 28.9318 424.9C28.9318 424.403 28.5045 424 27.9773 424Z" stroke="#32C5FF" stroke-width="1.5" stroke-linecap="round" stroke-linejoin="round"/>
<path d="M28.625 428.5C28.625 429.121 28.1213 429.625 27.5 429.625C26.8787 429.625 26.375 429.121 26.375 428.5C26.375 427.879 26.8787 427.375 27.5 427.375C28.1213 427.375 28.625 427.879 28.625 428.5Z" fill="#32C5FF"/>
<path d="M24 422.333C21.566 422.637 19.6368 424.566 19.3333 427M24 419C19.5817 419 16 422.582 16 427" stroke="#32C5FF" stroke-width="1.5" stroke-linecap="round"/>
<defs>
<clipPath id="clip0_30_46560">
<rect width="24" height="24" fill="white" transform="translate(9.5 277.5)"/>
</clipPath>
</defs>
</svg>
