<svg xmlns="http://www.w3.org/2000/svg" xmlns:xlink="http://www.w3.org/1999/xlink" width="44" height="379" viewBox="0 0 44 379">
  <defs>
    <polygon id="system_icon-a" points="0 31.461 28.376 31.461 28.376 0 0 0"/>
    <polygon id="system_icon-c" points="0 31.461 28.376 31.461 28.376 0 0 0"/>
    <polygon id="system_icon-e" points="0 31.461 28.376 31.461 28.376 0 0 0"/>
    <polygon id="system_icon-g" points="0 31.461 28.376 31.461 28.376 0 0 0"/>
    <polygon id="system_icon-i" points="0 31.461 28.376 31.461 28.376 0 0 0"/>
    <polygon id="system_icon-k" points="0 31.461 28.376 31.461 28.376 0 0 0"/>
    <polygon id="system_icon-m" points="0 31.461 28.376 31.461 28.376 0 0 0"/>
    <polygon id="system_icon-o" points="0 31.461 28.376 31.461 28.376 0 0 0"/>
    <polygon id="system_icon-q" points="0 31.461 28.376 31.461 28.376 0 0 0"/>
    <polygon id="system_icon-s" points="0 31.461 28.376 31.461 28.376 0 0 0"/>
    <polygon id="system_icon-u" points="0 31.461 28.376 31.461 28.376 0 0 0"/>
  </defs>
  <g fill="none" fill-rule="evenodd">
    <g transform="translate(0 67)">
      <circle cx="22" cy="22" r="21.5" stroke="#32C5FF"/>
      <g transform="translate(8 6)">
        <path fill="#32C5FF" fill-rule="nonzero" d="M8.639973,19.0079568 L8.639973,13.8239568 C8.639973,10.9653588 10.965375,8.6399568 13.823973,8.6399568 C16.682625,8.6399568 19.007973,10.9653588 19.007973,13.8239568 L19.007973,19.0079568 L8.639973,19.0079568 Z M10.368027,20.7589568 L17.279973,20.7589568 L10.368027,20.7589568 Z M19.008027,20.7360108 L21.600027,20.7360108 C22.077603,20.7360108 22.464027,20.3495328 22.464027,19.8719028 C22.464027,19.3943268 22.077549,19.0079568 21.599973,19.0079568 L21.599973,19.0079568 L20.735973,19.0079568 L20.735973,13.8239568 C20.735973,10.0127448 17.635185,6.9119568 13.823973,6.9119568 C10.012761,6.9119568 6.911973,10.0127448 6.911973,13.8239568 L6.911973,19.0079568 L6.047973,19.0079568 C5.570397,19.0079568 5.183973,19.3943808 5.183973,19.8719568 C5.183973,20.3495868 5.570397,20.7360108 6.047973,20.7360108 L8.639973,20.7360108 L19.008027,20.7360108 Z"/>
        <mask id="system_icon-b" fill="#fff">
          <use xlink:href="#system_icon-a"/>
        </mask>
        <polygon fill="#32C5FF" fill-rule="nonzero" points="24.92 15.078 28.376 15.078 28.376 13.35 24.92 13.35" mask="url(#system_icon-b)"/>
        <mask id="system_icon-d" fill="#fff">
          <use xlink:href="#system_icon-c"/>
        </mask>
        <polygon fill="#32C5FF" fill-rule="nonzero" points="0 15.078 3.456 15.078 3.456 13.35 0 13.35" mask="url(#system_icon-d)"/>
        <mask id="system_icon-f" fill="#fff">
          <use xlink:href="#system_icon-e"/>
        </mask>
        <polygon fill="#32C5FF" fill-rule="nonzero" points="12.96 3.456 14.688 3.456 14.688 0 12.96 0" mask="url(#system_icon-f)"/>
        <mask id="system_icon-h" fill="#fff">
          <use xlink:href="#system_icon-g"/>
        </mask>
        <polygon fill="#32C5FF" fill-rule="nonzero" points="3.438 4.659 4.659 3.438 7.103 5.881 5.881 7.102" mask="url(#system_icon-h)"/>
        <mask id="system_icon-j" fill="#fff">
          <use xlink:href="#system_icon-i"/>
        </mask>
        <polygon fill="#32C5FF" fill-rule="nonzero" points="20.541 5.881 22.984 3.438 24.206 4.659 21.763 7.103" mask="url(#system_icon-j)"/>
        <mask id="system_icon-l" fill="#fff">
          <use xlink:href="#system_icon-k"/>
        </mask>
        <path fill="#32C5FF" fill-rule="nonzero" d="M6.102,23.6671038 L9.75618,23.6671038 L9.75618,25.2871038 L6.102,25.2871038 C5.65488,25.2871038 5.292,24.9242238 5.292,24.4771038 C5.292,24.0299838 5.65488,23.6671038 6.102,23.6671038" mask="url(#system_icon-l)"/>
        <mask id="system_icon-n" fill="#fff">
          <use xlink:href="#system_icon-m"/>
        </mask>
        <path fill="#32C5FF" fill-rule="nonzero" d="M21.546,25.2871038 L12.96,25.2871038 L12.96,23.6671038 L21.546,23.6671038 C21.99312,23.6671038 22.356,24.0299838 22.356,24.4771038 C22.356,24.9242238 21.99312,25.2871038 21.546,25.2871038 Z" mask="url(#system_icon-n)"/>
        <mask id="system_icon-p" fill="#fff">
          <use xlink:href="#system_icon-o"/>
        </mask>
        <line x1="10.049" x2="10.049" y1="22.785" y2="26.169" stroke="#32C5FF" stroke-linecap="round" stroke-width="1.62" mask="url(#system_icon-p)"/>
        <mask id="system_icon-r" fill="#fff">
          <use xlink:href="#system_icon-q"/>
        </mask>
        <path fill="#32C5FF" fill-rule="nonzero" d="M21.546,28.1490984 L18.323982,28.1490984 L18.323982,29.7690984 L21.546,29.7690984 C21.993336,29.7690984 22.356,29.4064344 22.356,28.9590984 C22.356,28.5117624 21.993336,28.1490984 21.546,28.1490984" mask="url(#system_icon-r)"/>
        <mask id="system_icon-t" fill="#fff">
          <use xlink:href="#system_icon-s"/>
        </mask>
        <path fill="#32C5FF" fill-rule="nonzero" d="M15.703982,28.1490984 L6.102,28.1490984 C5.654664,28.1490984 5.292,28.5117624 5.292,28.9590984 C5.292,29.4064344 5.654664,29.7690984 6.102,29.7690984 L15.703982,29.7690984 L15.703982,28.1490984 Z" mask="url(#system_icon-t)"/>
        <mask id="system_icon-v" fill="#fff">
          <use xlink:href="#system_icon-u"/>
        </mask>
        <line x1="15.457" x2="15.457" y1="27.267" y2="30.651" stroke="#32C5FF" stroke-linecap="round" stroke-width="1.62" mask="url(#system_icon-v)"/>
      </g>
    </g>
    <g transform="translate(0 134)">
      <circle cx="22" cy="22" r="21.5" stroke="#32C5FF"/>
      <g transform="translate(9 9)">
        <path fill="#32C5FF" fill-rule="nonzero" d="M9.46303691,23.8426748 C9.25592332,23.8426748 9.07882091,23.6921254 9.05109827,23.492573 L8.57456016,20.260238 L8.20625997,20.0981079 C7.67490074,19.8641673 7.16559478,19.5772285 6.6924895,19.2452816 L6.36262651,19.013819 L3.24120308,20.2380374 C3.19189527,20.25599 3.14061099,20.2651433 3.08870256,20.2651433 C2.93193702,20.2651433 2.78656221,20.1827635 2.7092717,20.0502174 L0.271968085,15.9456369 C0.167527077,15.7680322 0.210489364,15.5430426 0.375420857,15.4117102 L3.02816006,13.3945414 L2.98124483,12.995841 C2.91550109,12.4363255 2.91550109,11.8689715 2.98124483,11.3094559 L3.02816006,10.9106545 L0.372768222,8.89196853 C0.209501128,8.76670461 0.164562367,8.53701195 0.270719787,8.35950838 L2.71811382,4.24708941 C2.79119132,4.12000495 2.92959646,4.0410639 3.07939233,4.0410639 C3.1302085,4.0410639 3.18034851,4.05026779 3.22846003,4.06837214 L6.35893363,5.2931468 L6.68827649,5.06279672 C7.16252605,4.73110272 7.6722481,4.44264677 8.20319124,4.20557077 L8.56826666,4.04258102 L9.04470074,0.809942587 C9.07361966,0.612210686 9.2495778,0.463734763 9.45409077,0.463734763 L14.3504912,0.463734763 C14.5576568,0.463734763 14.7347072,0.61428409 14.7624299,0.813887111 L15.235015,4.04895295 L15.6035753,4.21138642 C16.1346745,4.44547873 16.6434603,4.73267041 17.1158894,5.06497126 L17.4459604,5.29714189 L20.5671238,4.07302466 C20.6162236,4.0552743 20.6672478,4.04627269 20.7188962,4.04627269 C20.8762338,4.04627269 21.0220247,4.12895598 21.0994713,4.26205838 L23.5349545,8.36198635 C23.6401237,8.54009677 23.5972654,8.76442892 23.4322819,8.89520506 L20.7759018,10.9076202 L20.8207886,11.3052586 C20.8493954,11.5586689 20.8655713,11.8157204 20.8690041,12.0705468 C20.45951,12.005715 20.0434104,11.9728945 19.6291312,11.9728945 C18.9556739,11.9728945 18.2871059,12.0584603 17.6376784,12.227468 C17.6378864,12.20638 17.6379904,12.1853425 17.6379384,12.1643051 C17.6308127,9.09202669 15.0547399,6.59301912 11.8956594,6.59301912 L11.8823442,6.59301912 C8.71582599,6.60004846 6.14557854,9.11043447 6.15280827,12.1891353 C6.15998599,15.2608574 8.73595481,17.7599156 11.8950873,17.7599156 L11.9512607,17.7597638 L11.9584384,17.7589547 C11.7886698,18.3932645 11.7020691,19.0464372 11.7010808,19.7035038 C11.6994684,21.1804752 12.1267507,22.6043471 12.9399135,23.8426748 L9.46303691,23.8426748 Z"/>
        <g transform="translate(14.387 14.25)">
          <path stroke="#32C5FF" stroke-width="1.534" d="M10.2334157,10.2334286 C9.63939306,10.827452 8.92713686,11.2900219 8.14288544,11.5910368 C7.35857195,11.8921138 6.51976553,12.0249327 5.68083497,11.9809908 C4.84196648,11.9370488 4.02159332,11.7172148 3.27309125,11.3358259 C2.52458918,10.9544369 1.86459158,10.4199958 1.3359232,9.76713484 C0.807254827,9.11427387 0.421707989,8.35757829 0.204232761,7.54614144 C-0.0131804029,6.73464252 -0.0576188343,5.88658737 0.0738345144,5.05684137 C0.205225798,4.22709536 0.509591814,3.43427799 0.967133876,2.72971694 C1.42461387,2.0251559 2.02515334,1.42461567 2.7297135,0.967135095 C3.43427366,0.509592457 4.22709003,0.205226057 5.05683499,0.0738346075 C5.88657995,-0.057618907 6.73463403,-0.0131804196 7.54613192,0.204233018 C8.35756775,0.421708521 9.11426238,0.807255844 9.76712252,1.33592489 C10.4199827,1.86459393 10.9544231,2.52459236 11.3358116,3.27309538 C11.7172001,4.02159839 11.9370337,4.84197259 11.9809757,5.68084214 C11.9914646,5.8806912 11.9918991,6.08054026 11.9824032,6.27964455"/>
          <polygon fill="#32C5FF" fill-rule="nonzero" points="14.986 4.995 11.989 7.993 8.992 4.995"/>
        </g>
      </g>
    </g>
    <g transform="translate(0 201)">
      <circle cx="22" cy="22" r="21.5" stroke="#32C5FF"/>
      <path fill="#32C5FF" d="M6.006528,2.2585552 L6.832512,8.6729632 L4.5956345,7.35663372 C4.57017049,7.44815577 4.53286695,7.53798976 4.48317023,7.62406956 C3.50394887,9.32018121 2.9884336,11.2441489 2.9884336,13.2026344 C2.9884336,15.1610563 3.50395306,17.0850228 4.48317023,18.7811272 C5.46236921,20.4772001 6.87080419,21.8856518 8.56690076,22.8649298 C10.2630124,23.8441511 12.1869801,24.3596664 14.1454656,24.3596664 C14.7805931,24.3596664 15.2954656,24.8745389 15.2954656,25.5096664 C15.2954656,26.1447939 14.7805931,26.6596664 14.1454656,26.6596664 C11.7832547,26.6596664 9.46267518,26.0378814 7.4168977,24.8567864 C5.37113933,23.6756237 3.67236077,21.976825 2.49129697,19.9311016 C1.31022361,17.8853616 0.6884336,15.5647834 0.6884336,13.2026344 C0.6884336,10.8404235 1.31021856,8.51984398 2.49129697,6.47409524 C2.54397691,6.38284819 2.60727323,6.30155169 2.67872496,6.23086517 L3.99680289e-15,4.6562272 L6.006528,2.2585552 Z M14.0662656,-1.0658141e-14 C16.4284765,-1.0658141e-14 18.749056,0.621784961 20.7948335,1.80287997 C22.8405919,2.98404267 24.5393704,4.68284141 25.7204342,6.72856484 C26.9015076,8.77430483 27.5232976,11.094883 27.5232976,13.457032 C27.5232976,15.8192429 26.9015126,18.1398224 25.7204342,20.1855712 C25.6676298,20.2770338 25.6041587,20.3584989 25.5324995,20.4293022 L28.211724,22.0034392 L22.205196,24.4011112 L21.379212,17.9867032 L23.6162784,19.3023804 C23.641738,19.2110838 23.6789823,19.1214721 23.728561,19.0355968 C24.7077823,17.3394852 25.2232976,15.4155175 25.2232976,13.457032 C25.2232976,11.4986101 24.7077781,9.57464356 23.728561,7.87853916 C22.749362,6.18246627 21.340927,4.77401455 19.6448304,3.79473663 C17.9487188,2.81551527 16.0247511,2.3 14.0662656,2.3 C13.4311381,2.3 12.9162656,1.78512746 12.9162656,1.15 C12.9162656,0.514872538 13.4311381,-1.0658141e-14 14.0662656,-1.0658141e-14 Z M19.1536648,10.7092213 C19.6688993,11.6016272 19.9401696,12.6139508 19.9401696,13.644376 C19.9401696,14.6747874 19.6689062,15.6870408 19.1536851,16.5794234 C18.6384738,17.4718754 17.8974369,18.2129344 17.0050203,18.7281752 C16.1126592,19.2433838 15.1003426,19.514608 14.0698656,19.514608 C13.0393886,19.514608 12.027072,19.2433838 11.1347109,18.7281752 C10.2422943,18.2129344 9.50125745,17.4718754 8.98606644,16.5794587 C8.47085086,15.6870856 8.1996336,14.6748391 8.1996336,13.644376 C8.1996336,12.613899 8.4708578,11.6015824 8.98606644,10.7092213 C9.2544783,10.2443218 9.84894467,10.085037 10.3138443,10.3534488 C10.7787438,10.6218607 10.9380286,11.2163271 10.6696168,11.6812267 C10.32504,12.2780467 10.1436336,12.9551277 10.1436336,13.644376 C10.1436336,14.3336031 10.3250294,15.010615 10.6696371,15.6074886 C11.0142245,16.2043849 11.5098412,16.7000164 12.1067163,17.0446248 C12.7035363,17.3892016 13.3806173,17.570608 14.0698656,17.570608 C14.7591139,17.570608 15.4361949,17.3892016 16.0330149,17.0446248 C16.62989,16.7000164 17.1255067,16.2043849 17.4701144,15.6074533 C17.8147413,15.0105464 17.9961696,14.333524 17.9961696,13.644376 C17.9961696,12.9552068 17.8147307,12.2781152 17.4701144,11.6812267 C17.2017026,11.2163271 17.3609874,10.6218607 17.8258869,10.3534488 C18.2907865,10.085037 18.8852529,10.2443218 19.1536648,10.7092213 Z M14,6.1139784 C14.5522847,6.1139784 15,6.56169365 15,7.1139784 L15,13.1139784 C15,13.6662631 14.5522847,14.1139784 14,14.1139784 C13.4477153,14.1139784 13,13.6662631 13,13.1139784 L13,7.1139784 C13,6.56169365 13.4477153,6.1139784 14,6.1139784 Z" transform="translate(8 9.024)"/>
    </g>
    <circle cx="22" cy="22" r="21.5" stroke="#32C5FF"/>
    <g fill="#32C5FF" fill-rule="nonzero" transform="translate(10 11)">
      <path d="M22.8027344,0 L2.19726563,0 C0.985717773,0 0,0.942083333 0,2.1 L0,18.9 C0,20.0579167 0.985717773,21 2.19726563,21 L22.8027344,21 C24.0142822,21 25,20.0579167 25,18.9 L25,2.1 C25,0.942083333 24.0142822,0 22.8027344,0 Z M23.5351563,18.9 C23.5351563,19.2859114 23.2065201,19.6 22.8027344,19.6 L2.19726563,19.6 C1.79347993,19.6 1.46484375,19.2859114 1.46484375,18.9 L1.46484375,2.1 C1.46484375,1.71408855 1.79347993,1.4 2.19726563,1.4 L22.8027344,1.4 C23.2065201,1.4 23.5351563,1.71408855 23.5351563,2.1 L23.5351563,18.9 Z"/>
      <path d="M20.5630769,2.64 L4.31692308,2.64 C3.94302886,2.64 3.64,2.94440626 3.64,3.32 L3.64,11.48 C3.64,11.8555937 3.94302886,12.16 4.31692308,12.16 L4.99384615,12.16 L4.99384615,14.2 C4.99384615,14.5755937 5.29687501,14.88 5.67076923,14.88 L7.70153846,14.88 L7.70153846,16.92 C7.70153846,17.2955937 8.00456732,17.6 8.37846154,17.6 L16.5015385,17.6 C16.8754327,17.6 17.1784615,17.2955937 17.1784615,16.92 L17.1784615,14.88 L19.2092308,14.88 C19.583125,14.88 19.8861538,14.5755937 19.8861538,14.2 L19.8861538,12.16 L20.5630769,12.16 C20.9369711,12.16 21.24,11.8555937 21.24,11.48 L21.24,3.32 C21.24,2.94440626 20.9369711,2.64 20.5630769,2.64 Z M19.8861538,10.8 L19.2092308,10.8 C18.8353365,10.8 18.5323077,11.1044063 18.5323077,11.48 L18.5323077,13.52 L16.5015385,13.52 C16.1276442,13.52 15.8246154,13.8244063 15.8246154,14.2 L15.8246154,16.24 L9.05538462,16.24 L9.05538462,14.2 C9.05538462,13.8244063 8.75235576,13.52 8.37846154,13.52 L6.34769231,13.52 L6.34769231,11.48 C6.34769231,11.1044063 6.04466345,10.8 5.67076923,10.8 L4.99384615,10.8 L4.99384615,4 L19.8861538,4 L19.8861538,10.8 Z"/>
      <path d="M7.16 9.68C7.64606249 9.68 8.04 9.35171874 8.04 8.94666667L8.04 6.01333333C8.04 5.60828126 7.64606249 5.28 7.16 5.28 6.67393751 5.28 6.28 5.60828126 6.28 6.01333333L6.28 8.94666667C6.28 9.35171874 6.67393751 9.68 7.16 9.68zM9.8 9.68C10.2860625 9.68 10.68 9.35171874 10.68 8.94666667L10.68 6.01333333C10.68 5.60828126 10.2860625 5.28 9.8 5.28 9.31393751 5.28 8.92 5.60828126 8.92 6.01333333L8.92 8.94666667C8.92 9.35171874 9.31393751 9.68 9.8 9.68zM12.44 9.68C12.9260625 9.68 13.32 9.35171874 13.32 8.94666667L13.32 6.01333333C13.32 5.60828126 12.9260625 5.28 12.44 5.28 11.9539375 5.28 11.56 5.60828126 11.56 6.01333333L11.56 8.94666667C11.56 9.35171874 11.9539375 9.68 12.44 9.68zM15.08 9.68C15.5660625 9.68 15.96 9.35171874 15.96 8.94666667L15.96 6.01333333C15.96 5.60828126 15.5660625 5.28 15.08 5.28 14.5939375 5.28 14.2 5.60828126 14.2 6.01333333L14.2 8.94666667C14.2 9.35171874 14.5939375 9.68 15.08 9.68zM17.72 9.68C18.2060625 9.68 18.6 9.35171874 18.6 8.94666667L18.6 6.01333333C18.6 5.60828126 18.2060625 5.28 17.72 5.28 17.2339375 5.28 16.84 5.60828126 16.84 6.01333333L16.84 8.94666667C16.84 9.35171874 17.2339375 9.68 17.72 9.68z"/>
    </g>
    <g transform="translate(0 268)">
      <circle cx="22" cy="22" r="21.5" stroke="#32C5FF"/>
      <path fill="#32C5FF" fill-rule="nonzero" d="M21.0833888,-2.77555756e-17 C21.5896906,-2.77555756e-17 22,0.410394531 22,0.916652344 L22,0.916652344 L22,21.0833477 C22,21.5896055 21.5896047,22 21.0833459,22 L21.0833459,22 L0.916654134,22 C0.410438302,22 -5.55111512e-17,21.5896055 -5.55111512e-17,21.0833047 L-5.55111512e-17,21.0833047 L-5.55111512e-17,0.916652344 C-5.55111512e-17,0.410394531 0.410438302,-2.77555756e-17 0.916654134,-2.77555756e-17 L0.916654134,-2.77555756e-17 Z M20,2 L2,2 L2,20 L20,20 L20,2 Z M6.36992,14.90328 C6.70316,14.57004 7.24348,14.57004 7.57672,14.90328 C7.90996,15.23652 7.90996,15.77684 7.57672,16.11008 L7.57672,16.11008 L7.3268,16.36 L7.57672,16.60992 C7.90996,16.94316 7.90996,17.48348 7.57672,17.81672 C7.24348,18.14996 6.70316,18.14996 6.36992,17.81672 L6.36992,17.81672 L6.12,17.5668 L5.87012,17.81672 C5.53688,18.14996 4.99656,18.14996 4.66332,17.81672 C4.33008,17.48348 4.33008,16.9432 4.66332,16.60992 L4.66332,16.60992 L4.91324,16.36 L4.66328,16.11008 C4.33004,15.77684 4.33004,15.23652 4.66328,14.90328 C4.99652,14.57004 5.53684,14.57004 5.87008,14.90328 L5.87008,14.90328 L6.12,15.1532 Z M17.2134,15.50668 C17.68468,15.50668 18.06668,15.88872 18.06668,16.36 C18.06668,16.83128 17.68464,17.21332 17.21336,17.21332 L17.21336,17.21332 L10.38668,17.21332 C9.9154,17.21332 9.53336,16.83128 9.53336,16.36 C9.53336,15.88872 9.9154,15.50668 10.38668,15.50668 L10.38668,15.50668 Z M6.36992,9.78328 C6.70316,9.45004 7.24348,9.45004 7.57672,9.78328 C7.90996,10.11652 7.90996,10.65684 7.57672,10.99008 L7.57672,10.99008 L7.3268,11.24 L7.57672,11.48992 C7.90996,11.82316 7.90996,12.36348 7.57672,12.69672 C7.24348,13.02996 6.70316,13.02996 6.36992,12.69672 L6.36992,12.69672 L6.12,12.4468 L5.87012,12.69672 C5.53688,13.02996 4.99656,13.02996 4.66332,12.69672 C4.33008,12.36348 4.33008,11.8232 4.66332,11.48992 L4.66332,11.48992 L4.91324,11.24 L4.66328,10.99008 C4.33004,10.65684 4.33004,10.11652 4.66328,9.78328 C4.99652,9.45004 5.53684,9.45004 5.87008,9.78328 L5.87008,9.78328 L6.12,10.0332 Z M17.2134,10.38668 C17.68468,10.38668 18.06668,10.76872 18.06668,11.24 C18.06668,11.71128 17.68464,12.09332 17.21336,12.09332 L17.21336,12.09332 L10.38668,12.09332 C9.9154,12.09332 9.53336,11.71128 9.53336,11.24 C9.53336,10.76872 9.9154,10.38668 10.38668,10.38668 L10.38668,10.38668 Z M6.36992,4.66328 C6.70316,4.33004 7.24348,4.33004 7.57672,4.66328 C7.90996,4.99652 7.90996,5.53684 7.57672,5.87008 L7.57672,5.87008 L7.3268,6.12 L7.57672,6.36992 C7.90996,6.70316 7.90996,7.24348 7.57672,7.57672 C7.24348,7.90996 6.70316,7.90996 6.36992,7.57672 L6.36992,7.57672 L6.12,7.3268 L5.87012,7.57672 C5.53688,7.90996 4.99656,7.90996 4.66332,7.57672 C4.33008,7.24348 4.33008,6.7032 4.66332,6.36992 L4.66332,6.36992 L4.91324,6.12 L4.66328,5.87008 C4.33004,5.53684 4.33004,4.99652 4.66328,4.66328 C4.99652,4.33004 5.53684,4.33004 5.87008,4.66328 L5.87008,4.66328 L6.12,4.9132 Z M17.2134,5.26668 C17.68468,5.26668 18.06668,5.64872 18.06668,6.12 C18.06668,6.59128 17.68464,6.97332 17.21336,6.97332 L17.21336,6.97332 L10.38668,6.97332 C9.9154,6.97332 9.53336,6.59128 9.53336,6.12 C9.53336,5.64872 9.9154,5.26668 10.38668,5.26668 L10.38668,5.26668 Z" transform="translate(11 11)"/>
    </g>
    <g transform="translate(0 335)">
      <circle cx="22" cy="22" r="21.5" stroke="#32C5FF"/>
      <path fill="#32C5FF" d="M29.3375219,19.7315071 L24.0685326,19.7315071 L26.0304304,8.80312011 C26.1126995,8.34359119 25.7566188,8.02135672 25.3798138,8.00380315 C25.1581269,7.98060722 24.9238798,8.06210623 24.7631098,8.28716879 L14.1070656,23.1914525 C14.0819452,23.2265597 14.0850853,23.2660554 14.0675011,23.3024165 C13.8602583,23.7393764 14.1503981,24.2684929 14.6622249,24.2684929 L19.9312142,24.2684929 L17.9699443,35.1968799 C17.8876753,35.6570357 18.243128,35.9786432 18.6205609,35.9961969 C18.8416198,36.0193927 19.0758669,35.9378937 19.2366371,35.7128312 L29.8926812,20.8085475 C29.9178015,20.7734403 29.9152895,20.7339446 29.9322458,20.6975835 C30.1401165,20.2612505 29.8493486,19.7315071 29.3375219,19.7315071 Z"/>
    </g>
  </g>
</svg>
