<?xml version="1.0" encoding="UTF-8"?>
<svg width="259px" height="120px" viewBox="0 0 259 120" version="1.1" xmlns="http://www.w3.org/2000/svg" xmlns:xlink="http://www.w3.org/1999/xlink">
    <title>2023_singal-quality_RT_0301</title>
    <defs>
        <polygon id="path-1" points="0 0 29.7499 0 29.7499 32.805 0 32.805"></polygon>
    </defs>
    <g id="Page-1" stroke="none" stroke-width="1" fill="none" fill-rule="evenodd">
        <g id="2023_singal-quality_RT_0301" transform="translate(-335.000000, -126.000000)">
            <g id="RT" transform="translate(335.000000, 111.000000)">
                <polygon id="Fill-1" fill="#4D595D" points="166.766 134.7999 182.766 134.7999 182.766 14.7999 166.766 14.7999"></polygon>
                <polygon id="Fill-2" fill="#00FF6B" points="173.066 134.7999 176.466 134.7999 176.466 14.7999 173.066 14.7999"></polygon>
                <polygon id="Fill-3" fill="#4D595D" points="242.766 134.7999 258.765 134.7999 258.765 14.7999 242.766 14.7999"></polygon>
                <polygon id="Fill-4" fill="#FEC937" points="249.066 134.7999 252.465 134.7999 252.465 14.7999 249.066 14.7999"></polygon>
                <g id="Group-34">
                    <path d="M22.7656,91.9297 L22.7656,115.6437 L44.8076,115.6437 C49.2256,115.6437 52.8076,119.2257 52.8076,123.6437 C52.8076,128.0617 49.2256,131.6437 44.8076,131.6437 L22.1096,131.6437 C13.6436,131.6437 6.7656,124.7667 6.7656,116.2997 L6.7656,99.4617 L6.7656,97.6267 L6.7656,93.2107 L6.7656,81.8037 L6.7656,14.7997 C6.7656,10.3817 10.3476,6.7997 14.7656,6.7997 C19.1856,6.7997 22.7656,10.3827 22.7656,14.7997 L22.7656,80.8207 L22.7656,91.9297 Z" id="Fill-5" fill="#4D595D"></path>
                    <path d="M22.1096,125.3439 C17.1226,125.3439 13.0656,121.2869 13.0656,116.2999 L13.0656,106.4989 C13.0656,105.5599 13.8266,104.7989 14.7656,104.7989 C15.7046,104.7989 16.4656,105.5599 16.4656,106.4989 L16.4656,107.2539 L16.4656,111.5479 L16.4656,116.2999 C16.4656,119.4109 18.9986,121.9439 22.1096,121.9439 L44.8076,121.9439 C45.7466,121.9439 46.5076,122.7049 46.5076,123.6439 C46.5076,124.5829 45.7466,125.3439 44.8076,125.3439 L22.1096,125.3439 Z" id="Fill-7" fill="#00FF6B"></path>
                    <path d="M13.0656,66.863 L13.0656,1.7 C13.0656,0.761 13.8266,0 14.7656,0 C15.7046,0 16.4656,0.761 16.4656,1.7 L16.4656,66.863 C16.4656,67.802 15.7046,68.563 14.7656,68.563 C13.8266,68.563 13.0656,67.802 13.0656,66.863" id="Fill-9" fill="#00FF6B"></path>
                    <path d="M14.8749,100.6436 C14.4429,100.6436 14.0119,100.5326 13.6249,100.3086 L3.7499,94.6086 C2.9769,94.1626 2.4999,93.3366 2.4999,92.4436 L2.4999,81.0396 C2.4999,80.1466 2.9769,79.3216 3.7499,78.8746 L13.6249,73.1726 C14.0119,72.9496 14.4429,72.8376 14.8749,72.8376 C15.3069,72.8376 15.7379,72.9496 16.1249,73.1726 L25.9999,78.8746 C26.7729,79.3216 27.2499,80.1466 27.2499,81.0396 L27.2499,92.4436 C27.2499,93.3366 26.7729,94.1626 25.9999,94.6086 L16.1249,100.3086 C15.7379,100.5326 15.3069,100.6436 14.8749,100.6436" id="Fill-11" fill="#00FF6B"></path>
                    <g id="Group-15" transform="translate(0.000000, 70.338200)">
                        <mask id="mask-2" fill="white">
                            <use xlink:href="#path-1"></use>
                        </mask>
                        <g id="Clip-14"></g>
                        <path d="M14.8749,0 C14.0119,0 13.1479,0.223 12.3749,0.67 L2.4999,6.372 C0.9529,7.265 -0.0001,8.916 -0.0001,10.702 L-0.0001,22.105 C-0.0001,23.891 0.9529,25.542 2.4999,26.435 L12.3749,32.136 C13.1489,32.582 14.0119,32.805 14.8749,32.805 C15.7379,32.805 16.6009,32.582 17.3749,32.136 L27.2499,26.435 C28.7969,25.542 29.7499,23.891 29.7499,22.105 L29.7499,10.702 C29.7499,8.916 28.7969,7.265 27.2499,6.372 L17.3749,0.67 C16.6019,0.223 15.7379,0 14.8749,0 M14.8749,5 L24.7499,10.702 L24.7499,22.105 L14.8749,27.805 L4.9999,22.105 L4.9999,10.702 L14.8749,5" id="Fill-13" fill="#4D595D" mask="url(#mask-2)"></path>
                    </g>
                    <path d="M14.786,92.9201 C11.379,92.9201 8.607,90.1481 8.607,86.7411 C8.607,83.3341 11.379,80.5631 14.786,80.5631 C18.193,80.5631 20.965,83.3341 20.965,86.7411 C20.965,90.1481 18.193,92.9201 14.786,92.9201 Z" id="Stroke-16" stroke="#4D595D" stroke-width="2"></path>
                    <path d="M14.644,89.2055 C13.283,89.1675 12.21,88.0335 12.248,86.6725 C12.286,85.3105 13.421,84.2385 14.782,84.2765 C16.145,84.3155 17.215,85.4485 17.177,86.8115 C17.138,88.1715 16.007,89.2435 14.644,89.2055" id="Fill-18" fill="#4D595D"></path>
                    <path d="M104.7656,91.9297 L104.7656,115.6437 L126.8076,115.6437 C131.2256,115.6437 134.8076,119.2257 134.8076,123.6437 C134.8076,128.0617 131.2256,131.6437 126.8076,131.6437 L104.1096,131.6437 C95.6436,131.6437 88.7656,124.7667 88.7656,116.2997 L88.7656,99.4617 L88.7656,97.6267 L88.7656,93.2107 L88.7656,81.8037 L88.7656,14.7997 C88.7656,10.3817 92.3476,6.7997 96.7656,6.7997 C101.1856,6.7997 104.7656,10.3827 104.7656,14.7997 L104.7656,80.8207 L104.7656,91.9297 Z" id="Fill-20" fill="#4D595D"></path>
                    <path d="M104.1096,125.3439 C99.1226,125.3439 95.0656,121.2869 95.0656,116.2999 L95.0656,106.4989 C95.0656,105.5599 95.8266,104.7989 96.7656,104.7989 C97.7046,104.7989 98.4656,105.5599 98.4656,106.4989 L98.4656,107.2539 L98.4656,111.5479 L98.4656,116.2999 C98.4656,119.4109 100.9986,121.9439 104.1096,121.9439 L126.8076,121.9439 C127.7466,121.9439 128.5076,122.7049 128.5076,123.6439 C128.5076,124.5829 127.7466,125.3439 126.8076,125.3439 L104.1096,125.3439 Z" id="Fill-22" fill="#FEC937"></path>
                    <path d="M95.0656,66.863 L95.0656,1.7 C95.0656,0.761 95.8266,0 96.7656,0 C97.7046,0 98.4656,0.761 98.4656,1.7 L98.4656,66.863 C98.4656,67.802 97.7046,68.563 96.7656,68.563 C95.8266,68.563 95.0656,67.802 95.0656,66.863" id="Fill-24" fill="#FEC937"></path>
                    <path d="M96.8749,100.6436 C96.4429,100.6436 96.0119,100.5326 95.6249,100.3086 L85.7499,94.6086 C84.9769,94.1626 84.4999,93.3366 84.4999,92.4436 L84.4999,81.0396 C84.4999,80.1466 84.9769,79.3216 85.7499,78.8746 L95.6249,73.1726 C96.0119,72.9496 96.4429,72.8376 96.8749,72.8376 C97.3069,72.8376 97.7379,72.9496 98.1249,73.1726 L107.9999,78.8746 C108.7729,79.3216 109.2499,80.1466 109.2499,81.0396 L109.2499,92.4436 C109.2499,93.3366 108.7729,94.1626 107.9999,94.6086 L98.1249,100.3086 C97.7379,100.5326 97.3069,100.6436 96.8749,100.6436" id="Fill-26" fill="#FEC937"></path>
                    <path d="M96.8749,70.3382 C96.0119,70.3382 95.1479,70.5612 94.3749,71.0082 L84.4999,76.7102 C82.9529,77.6032 81.9999,79.2542 81.9999,81.0402 L81.9999,92.4432 C81.9999,94.2292 82.9529,95.8802 84.4999,96.7732 L94.3749,102.4742 C95.1489,102.9202 96.0119,103.1432 96.8749,103.1432 C97.7379,103.1432 98.6009,102.9202 99.3749,102.4742 L109.2499,96.7732 C110.7969,95.8802 111.7499,94.2292 111.7499,92.4432 L111.7499,81.0402 C111.7499,79.2542 110.7969,77.6032 109.2499,76.7102 L99.3749,71.0082 C98.6019,70.5612 97.7379,70.3382 96.8749,70.3382 M96.8749,75.3382 L106.7499,81.0402 L106.7499,92.4432 L96.8749,98.1432 L86.9999,92.4432 L86.9999,81.0402 L96.8749,75.3382" id="Fill-28" fill="#4D595D"></path>
                    <path d="M96.786,92.9201 C93.379,92.9201 90.607,90.1481 90.607,86.7411 C90.607,83.3341 93.379,80.5631 96.786,80.5631 C100.193,80.5631 102.965,83.3341 102.965,86.7411 C102.965,90.1481 100.193,92.9201 96.786,92.9201 Z" id="Stroke-30" stroke="#4D595D" stroke-width="2"></path>
                    <path d="M96.644,89.2055 C95.283,89.1675 94.21,88.0335 94.248,86.6725 C94.286,85.3105 95.421,84.2385 96.782,84.2765 C98.145,84.3155 99.215,85.4485 99.177,86.8115 C99.138,88.1715 98.007,89.2435 96.644,89.2055" id="Fill-32" fill="#4D595D"></path>
                </g>
            </g>
        </g>
    </g>
</svg>