<svg xmlns="http://www.w3.org/2000/svg" width="24" height="24" viewBox="0 0 24 24">
  <g fill="none" fill-rule="evenodd">
    <path fill="#006EFF" d="M12,24 C5.38378804,24 0,18.6179624 0,12.0003935 C0,5.3836115 5.38378804,0 12,0 C18.616212,0 24,5.3836115 24,12.0003935 C24,18.6179624 18.616212,24 12,24"/>
    <path fill="#FFF" d="M6.52185205,12.904771 C7.14435992,12.904771 7.73774921,13.1723383 8.15013116,13.6390071 L9.02919727,14.4983703 C9.6139297,15.1830278 10.6606243,15.2058498 11.2563746,14.610906 L12.1692812,13.6224809 C12.9885362,12.7072433 14.5908447,12.7096042 15.4100997,13.6390071 L16.2891658,14.4983703 C16.8738982,15.1830278 17.9213799,15.2066367 18.5171301,14.610906 L19.2616212,13.9970751 C19.4040661,13.8790307 19.614979,13.8987048 19.7330273,14.042719 C19.8502886,14.1851592 19.8298269,14.3960652 19.686595,14.5133226 L18.9657135,15.1059055 C18.5793022,15.4938781 18.0347062,15.7189494 17.4546957,15.7189494 C16.8164481,15.7189494 16.2136149,15.4403646 15.800446,14.9540217 L14.9253148,14.0993803 C14.3248426,13.4210185 13.2356506,13.4343968 12.66351,14.0726235 L11.7380115,15.074427 C10.8589454,15.9550382 9.32825289,15.8810637 8.53969045,14.9540217 L7.66534627,14.0993803 C7.04677335,13.4021314 5.92295383,13.4391186 5.36261805,14.1198413 L4.78024659,14.8021379 C4.65983736,14.9422173 4.44813746,14.9587435 4.30805352,14.8391252 C4.16796957,14.7187199 4.15144281,14.5078139 4.27106506,14.3669476 L4.85028856,13.6893727 C5.26109654,13.1920123 5.87179958,12.904771 6.52185205,12.904771 Z M6.52185205,8.64635866 C7.14435992,8.64635866 7.73774921,8.91392596 8.15013116,9.38059481 L9.02919727,10.240745 C9.61629066,10.9261895 10.6606243,10.9482244 11.2563746,10.3524937 L12.1692812,9.36485556 C12.9901102,8.44804407 14.5908447,8.45197888 15.4100997,9.38059481 L16.2891658,10.240745 C16.8754722,10.9254025 17.9198059,10.9482244 18.5171301,10.3524937 L19.2624082,9.73944978 C19.4056401,9.62061842 19.616553,9.64186641 19.7330273,9.78509362 C19.8502886,9.92832082 19.8298269,10.1384398 19.686595,10.2556973 L18.9649265,10.8474932 C18.5793022,11.2354658 18.0339192,11.4613241 17.4546957,11.4613241 C16.817235,11.4613241 16.2144019,11.1827393 15.800446,10.6963964 L14.9253148,9.84096796 C14.3248426,9.16260616 13.2364376,9.1744106 12.66351,9.8149982 L11.7380115,10.8160147 C10.8581584,11.6974129 9.32982686,11.6242253 8.54047744,10.6963964 L7.66534627,9.84096796 C7.04834732,9.14450602 5.92452781,9.18228022 5.36261805,9.86221596 L4.7794596,10.5437256 C4.65905037,10.6845919 4.44735047,10.7003312 4.30805352,10.5807129 C4.16796957,10.4610945 4.15144281,10.2494016 4.27185205,10.1085353 L4.85028856,9.43174738 C5.26109654,8.93438699 5.87179958,8.64635866 6.52185205,8.64635866 Z"/>
  </g>
</svg>
