<svg xmlns="http://www.w3.org/2000/svg" xmlns:xlink="http://www.w3.org/1999/xlink" width="24" height="24" viewBox="0 0 24 24">
  <defs>
    <radialGradient id="btn_qos_customize-b" cx="50%" cy="7.518%" r="92.482%" fx="50%" fy="7.518%" gradientTransform="rotate(89.987 .507 .082) scale(1 1.17693)">
      <stop offset="0%" stop-color="#162B45"/>
      <stop offset="57.699%" stop-color="#385989" stop-opacity=".3"/>
      <stop offset="100%" stop-color="#FFF"/>
    </radialGradient>
    <circle id="btn_qos_customize-a" cx="12" cy="12" r="11"/>
    <filter id="btn_qos_customize-c" width="100%" height="100%" x="0%" y="0%" filterUnits="objectBoundingBox">
      <feGaussianBlur in="SourceGraphic"/>
    </filter>
  </defs>
  <g fill="none" fill-rule="evenodd">
    <use fill="#383D43" xlink:href="#btn_qos_customize-a"/>
    <use fill="url(#btn_qos_customize-b)" fill-opacity=".8" xlink:href="#btn_qos_customize-a" style="mix-blend-mode:overlay"/>
    <circle cx="12" cy="12" r="11.4" stroke="#E4E4E4" stroke-width=".8"/>
    <path fill="#FFF" fill-opacity=".2" d="M12,12 C16.9705627,12 21,9.76142375 21,7 C21,4.23857625 16.9705627,2 12,2 C7.02943725,2 3,4.23857625 3,7 C3,9.76142375 7.02943725,12 12,12 Z" filter="url(#btn_qos_customize-c)"/>
    <path fill="#FFF" fill-rule="nonzero" d="M15.5847542,12 C15.9395236,12 16.2271745,12.2752294 16.2271745,12.6146789 L16.2271745,13.0504587 C16.5244138,13.1651376 16.8024763,13.3165138 17.0517737,13.5045872 L17.4448966,13.2844037 C17.5407802,13.2293578 17.6510464,13.2018349 17.7661068,13.2018349 C17.9962275,13.2018349 18.2071715,13.3211009 18.3222318,13.5091743 L18.9119161,14.4862385 C18.9982114,14.6284404 19.0221823,14.793578 18.9790347,14.9541284 C18.935887,15.1146789 18.830415,15.2431193 18.6817954,15.3256881 L18.2886725,15.5458716 C18.3126434,15.706422 18.327026,15.853211 18.327026,16 C18.327026,16.146789 18.3174376,16.293578 18.2886725,16.4541284 L18.6817954,16.6743119 C18.830415,16.7568807 18.935887,16.8899083 18.9790347,17.0458716 C19.0221823,17.206422 18.9982114,17.3715596 18.9119161,17.5137615 L18.3222318,18.4908257 C18.2359365,18.6330275 18.0969053,18.733945 17.9339031,18.7752294 C17.7709009,18.8165138 17.5935162,18.793578 17.4448966,18.7155963 L17.0517737,18.4954128 C16.8024763,18.6834862 16.529208,18.8348624 16.2271745,18.9495413 L16.2271745,19.3853211 C16.2271745,19.7247706 15.9395236,20 15.5847542,20 L14.4101798,20 C14.0554103,20 13.7677595,19.7247706 13.7677595,19.3853211 L13.7677595,18.9495413 C13.4705202,18.8348624 13.1924577,18.6834862 12.9479544,18.4954128 L12.5500374,18.7155963 C12.4541538,18.7706422 12.3438876,18.7981651 12.2288272,18.7981651 C11.9987065,18.7981651 11.7877625,18.6788991 11.6727022,18.4908257 L11.0830179,17.5137615 C10.9056332,17.2201835 11.0111051,16.8440367 11.3179328,16.6743119 L11.7158498,16.4541284 C11.6918789,16.2981651 11.6822905,16.146789 11.6822905,16 C11.6822905,15.853211 11.6918789,15.7018349 11.7158498,15.5458716 L11.3179328,15.3256881 C11.0111051,15.1559633 10.9056332,14.7798165 11.0830179,14.4862385 L11.6727022,13.5091743 C11.7877625,13.3211009 11.9987065,13.2018349 12.2288272,13.2018349 C12.3390934,13.2018349 12.4541538,13.2293578 12.5500374,13.2844037 L12.9431603,13.5045872 C13.1924577,13.3165138 13.465726,13.1651376 13.7677595,13.0504587 L13.7677595,12.6146789 C13.7677595,12.2752294 14.0554103,12 14.4101798,12 L15.5847542,12 Z M15.5640138,12.4618884 L14.4362474,12.4618884 C14.2843441,12.4618884 14.1600596,12.5803094 14.1600596,12.7250463 L14.1600596,13.3697831 L14.0449814,13.4092568 C13.7135562,13.5232919 13.4143528,13.6855726 13.1565776,13.8960989 L13.0645151,13.9706603 L12.4799178,13.6460989 C12.3510302,13.5759235 12.1761113,13.6197831 12.1024612,13.7425901 L11.5362764,14.6768006 C11.4580233,14.8039936 11.5040545,14.9618884 11.6375453,15.0364498 L12.2221426,15.3566252 L12.1991269,15.4706603 C12.166905,15.6460989 12.1530956,15.8039936 12.1530956,15.9618884 C12.1530956,16.1197831 12.166905,16.2776778 12.1991269,16.4531164 L12.2221426,16.5671515 L11.6375453,16.887327 C11.5086577,16.9575024 11.4626264,17.1197831 11.5362764,17.2469761 L12.1024612,18.1811866 C12.1530956,18.260134 12.2451582,18.3127656 12.3418239,18.3127656 C12.3878552,18.3127656 12.4384896,18.2996077 12.4799178,18.2776778 L13.0645151,17.9531164 L13.1565776,18.0276778 C13.4143528,18.2382042 13.7135562,18.4048708 14.0449814,18.5145199 L14.1600596,18.5539936 L14.1600596,19.1987305 C14.1600596,19.3434673 14.2843441,19.4618884 14.4362474,19.4618884 L15.5640138,19.4618884 C15.7159171,19.4618884 15.8402015,19.3434673 15.8402015,19.1987305 L15.8402015,18.5539936 L15.9552797,18.5145199 C16.2821019,18.4048708 16.5813052,18.2382042 16.8436835,18.0276778 L16.9357461,17.9531164 L17.5203434,18.2776778 C17.5847872,18.3127656 17.6584373,18.3215375 17.7320873,18.3039936 C17.8011342,18.2864498 17.8609749,18.2425901 17.8977999,18.1811866 L18.4639847,17.2469761 C18.5008098,17.1855726 18.510016,17.1153971 18.4916035,17.0452217 C18.473191,16.9794322 18.4271597,16.9224147 18.3627159,16.887327 L17.7781186,16.5671515 L17.8011342,16.4531164 C17.8333561,16.2776778 17.8517687,16.1153971 17.8517687,15.9618884 C17.8517687,15.8083796 17.8379593,15.6460989 17.8011342,15.4706603 L17.7781186,15.3566252 L18.3627159,15.0364498 C18.4271597,15.001362 18.473191,14.9443445 18.4916035,14.878555 C18.510016,14.8127656 18.5008098,14.7382042 18.4639847,14.6811866 L17.8977999,13.7469761 C17.8241499,13.628555 17.649231,13.5803094 17.5203434,13.6504849 L16.9357461,13.9706603 L16.8436835,13.8960989 C16.5813052,13.6855726 16.2821019,13.5189059 15.9552797,13.4092568 L15.8402015,13.3697831 L15.8402015,12.7250463 C15.8402015,12.5803094 15.7159171,12.4618884 15.5640138,12.4618884 Z M15.0027786,14.0693359 C16.1075562,14.0693359 17.0035569,14.9649881 17.0035569,16.0693359 C16.9992074,17.1736838 16.1032067,18.0693359 15.0027786,18.0693359 C13.9023506,18.0693359 13.0020003,17.1736838 13.0020003,16.0693359 C13.0020003,14.9693359 13.898001,14.0693359 15.0027786,14.0693359 Z M15.011718,14.5685425 C14.1854609,14.5685425 13.5111342,15.2425931 13.5111342,16.0685425 C13.5064105,16.8944918 14.1807123,17.5685425 15.011718,17.5685425 C15.8379751,17.5685425 16.5122769,16.8944918 16.5122769,16.0685425 C16.5122769,15.2425931 15.8379751,14.5685425 15.011718,14.5685425 Z M9.65804067,4 C10.1864967,4.05457026 10.7204008,4.15279673 11.0418329,4.2728513 C12.333009,4.7585266 12.3711451,5.76261937 12.3929371,6.36289222 C12.3929371,6.47203274 12.3983851,6.57571623 12.4092811,6.66302865 C12.5291371,6.73396999 12.6544411,6.88130969 12.6980251,7.18690314 C12.7742971,7.71077763 12.5727211,8.54024557 12.027921,8.81855389 C11.918961,9.24420191 11.668353,10.2046385 10.9819049,10.8103683 C10.9819049,10.8540246 10.9764569,10.9031378 10.9764569,10.946794 C10.9655609,11.154161 10.9546649,11.3451569 11.0363849,11.4324693 C11.0799689,11.4815825 11.2216169,11.568895 11.6356649,11.5579809 C12.076953,11.5525239 12.9544141,11.5416098 13.3848061,11.6616644 C13.3793581,11.7107776 13.3739101,11.7653479 13.3739101,11.8144611 L13.3739101,11.8144611 L13.3739101,12.1091405 C13.1614381,12.212824 12.5672731,12.3274216 12.3765931,12.4638472 L12.3765931,12.4638472 L12.125985,12.3165075 C11.962545,12.2237381 11.777313,12.1746248 11.5866329,12.1746248 C11.2052729,12.1746248 10.8457048,12.3819918 10.6550248,12.7148704 L10.6550248,12.7148704 L9.98492071,13.8772169 C9.68528067,14.3901774 9.8650647,15.3120725 10.3771768,15.6122089 L10.3771768,15.6122089 L10.6277848,15.7595486 C10.6168888,15.8796032 10.6114408,15.9942007 10.6223368,16.0978842 L10.6223368,16.0978842 L10.6223368,16.1579115 C10.3009048,16.2179388 9.97402471,16.256138 9.65804067,16.261595 L9.65804067,16.261595 L9.62535266,16.261595 C7.90378441,16.2233958 5.94250413,15.9665706 5.17978403,15.213501 C5.11440802,15.1534737 5,15.0661613 5,14.9188216 C5,14.8915364 5.010896,13.2769441 5.31598405,12.4911323 C5.6973441,11.5197817 6.77604825,11.5416098 7.64772838,11.5579809 C8.05632844,11.568895 8.19797646,11.4815825 8.24700846,11.4324693 C8.32872848,11.3451569 8.31783247,11.154161 8.30693647,10.946794 C8.30148847,10.9031378 8.30148847,10.8540246 8.30148847,10.8103683 C7.61504037,10.2046385 7.36443234,9.24420191 7.25547232,8.81855389 C6.71067224,8.53478854 6.50909622,7.71077763 6.58536823,7.18690314 C6.62895223,6.88130969 6.75425625,6.73396999 6.87411227,6.66302865 C6.88500827,6.57571623 6.88500827,6.47203274 6.89045627,6.36289222 C6.91224827,5.76261937 6.95038428,4.7585266 8.24156046,4.2728513 C8.56299251,4.15279673 9.09144858,4.04911323 9.62535266,4.00545703 L9.62535266,4.00545703 L9.62535266,4 L9.65804067,4 Z"/>
  </g>
</svg>
