<?xml version="1.0" encoding="utf-8"?>
<!-- Generator: Adobe Illustrator 17.0.0, SVG Export Plug-In . SVG Version: 6.00 Build 0)  -->
<!DOCTYPE svg PUBLIC "-//W3C//DTD SVG 1.1//EN" "http://www.w3.org/Graphics/SVG/1.1/DTD/svg11.dtd">
<svg version="1.1" id="圖層_1" xmlns="http://www.w3.org/2000/svg" xmlns:xlink="http://www.w3.org/1999/xlink" x="0px" y="0px"
	 width="494px" height="494px" viewBox="0 0 494 494" enable-background="new 0 0 494 494" xml:space="preserve">
<title>customize_act</title>
<g>
	<g>
		<g id="圖層_5">
			<g>
				<linearGradient id="SVGID_1_" gradientUnits="userSpaceOnUse" x1="246.8613" y1="351.9326" x2="246.8613" y2="835.9575" gradientTransform="matrix(1 0 0 -1 0.14 840.945)">
					<stop  offset="0" style="stop-color:#3984FF"/>
					<stop  offset="0.1279" style="stop-color:#367FF6"/>
					<stop  offset="0.3366" style="stop-color:#2F72DE"/>
					<stop  offset="0.6" style="stop-color:#245DB6"/>
					<stop  offset="0.905" style="stop-color:#143F7F"/>
					<stop  offset="1" style="stop-color:#0F356D"/>
				</linearGradient>
				<path fill="url(#SVGID_1_)" d="M247,489.012c-64.644,0-125.419-25.173-171.129-70.884C30.162,372.419,4.988,311.644,4.988,247
					c0-64.643,25.174-125.418,70.884-171.129c45.709-45.71,106.484-70.884,171.129-70.884S372.421,30.161,418.13,75.871
					c45.71,45.709,70.884,106.484,70.884,171.129s-25.173,125.419-70.884,171.129C372.42,463.839,311.645,489.012,247,489.012z"/>
				<path fill="#E5E5E5" d="M247,9.977c130.905,0,237.025,106.119,237.025,237.024S377.905,484.024,247,484.024
					S9.977,377.905,9.977,247S116.095,9.977,247,9.977 M247,0c-33.341,0-65.689,6.532-96.147,19.415
					c-29.414,12.441-55.828,30.249-78.509,52.93s-40.489,49.095-52.93,78.509C6.531,181.311,0,213.659,0,247
					s6.531,65.689,19.414,96.147c12.441,29.414,30.25,55.828,52.93,78.509c22.681,22.68,49.095,40.489,78.509,52.93
					C181.311,487.468,213.659,494,247,494s65.689-6.532,96.147-19.415c29.414-12.441,55.828-30.249,78.509-52.93
					c22.681-22.681,40.489-49.095,52.93-78.509C487.468,312.689,494,280.341,494,247s-6.532-65.689-19.415-96.147
					c-12.441-29.414-30.25-55.828-52.93-78.509c-22.681-22.681-49.096-40.489-78.509-52.93C312.69,6.531,280.341,0,247,0L247,0z"/>
			</g>
		</g>
		<g id="white">
			<path fill="#FFFFFF" d="M297.343,344.28c17.28,0.006,31.293-13.998,31.299-31.279c0.006-17.28-13.998-31.293-31.279-31.298
				c-17.28-0.006-31.293,13.998-31.299,31.279c0,0.003,0,0.007,0,0.01C266.081,330.261,280.073,344.258,297.343,344.28
				L297.343,344.28z"/>
			<path fill="#FFFFFF" d="M309.488,399.304h-24.29c-7.32-0.011-13.252-5.943-13.263-13.263v-9.443
				c-6.116-2.418-11.847-5.712-17.015-9.78l-8.176,4.711c-2.01,1.161-4.291,1.773-6.612,1.772l0,0
				c-4.741-0.007-9.121-2.532-11.502-6.632l-12.115-21.043c-3.637-6.344-1.471-14.435,4.85-18.114l8.166-4.722
				c-0.981-6.496-0.981-13.103,0-19.598l-8.166-4.721c-6.326-3.675-8.49-11.773-4.84-18.114l12.145-21.043
				c3.664-6.339,11.773-8.51,18.114-4.85l8.136,4.712c5.159-4.067,10.88-7.365,16.985-9.79v-9.453
				c0.011-7.319,5.944-13.248,13.264-13.254h24.29c7.32,0.006,13.252,5.934,13.263,13.254v9.443
				c6.107,2.423,11.828,5.72,16.985,9.79l8.156-4.712c6.329-3.666,14.432-1.507,18.098,4.823c0.005,0.009,0.011,0.018,0.016,0.027
				l12.145,21.063c3.668,6.328,1.512,14.431-4.816,18.099c-0.008,0.005-0.016,0.009-0.024,0.014l-8.166,4.721
				c1.001,6.495,1.001,13.104,0,19.598l8.166,4.712c6.337,3.652,8.513,11.751,4.861,18.088c-0.007,0.012-0.014,0.024-0.021,0.036
				l-12.145,21.043c-3.651,6.338-11.748,8.517-18.086,4.866c-0.009-0.005-0.018-0.011-0.027-0.016l-8.127-4.761
				c-5.16,4.066-10.88,7.363-16.985,9.79v9.443C322.763,393.337,316.824,399.293,309.488,399.304z M255.741,357.91l1.98,1.683
				c5.644,4.81,12.123,8.544,19.114,11.017l2.435,0.871v14.56c0,3.28,2.659,5.939,5.939,5.939h24.29c3.28,0,5.939-2.659,5.939-5.939
				v-14.56l2.435-0.871c6.997-2.478,13.482-6.215,19.134-11.027l1.98-1.683l12.601,7.276c2.838,1.637,6.465,0.667,8.107-2.167
				l12.145-21.043c1.639-2.835,0.673-6.462-2.157-8.107l-12.581-7.266l0.446-2.524c1.401-7.311,1.401-14.821,0-22.133l-0.446-2.534
				l12.571-7.266c2.828-1.642,3.798-5.261,2.167-8.097l-12.155-21.063c-1.689-2.766-5.252-3.72-8.097-2.167l-12.611,7.276
				l-1.98-1.683c-5.648-4.82-12.133-8.562-19.134-11.037l-2.435-0.871v-14.56c0-3.28-2.659-5.939-5.939-5.939h-24.29
				c-3.28,0-5.939,2.659-5.939,5.939v14.56l-2.435,0.871c-6.998,2.48-13.483,6.22-19.134,11.037l-1.98,1.683l-12.601-7.276
				c-2.852-1.546-6.413-0.589-8.107,2.177l-12.145,21.053c-1.637,2.838-0.667,6.465,2.167,8.107l12.571,7.276l-0.446,2.524
				c-1.378,7.313-1.378,14.82,0,22.133l0.446,2.524l-12.581,7.266c-2.831,1.645-3.796,5.272-2.157,8.107l12.145,21.033
				c1.063,1.842,3.03,2.975,5.157,2.97l0,0c1.043,0.001,2.066-0.272,2.97-0.792L255.741,357.91z M297.313,358.484
				c-25.146,0-45.532-20.385-45.532-45.532c0-25.146,20.386-45.532,45.532-45.532c25.146,0,45.532,20.385,45.532,45.532
				c0,25.135-20.368,45.516-45.502,45.532H297.313z M297.313,274.834c-21.074,0-38.158,17.083-38.158,38.158
				c0,21.074,17.084,38.158,38.158,38.158c21.074,0,38.158-17.083,38.158-38.158l0,0c-0.022-21.053-17.075-38.119-38.128-38.158
				H297.313z"/>
			<path fill="#FFFFFF" d="M216.514,302.905l-4.583-2.653c-9.342-5.416-12.535-17.373-7.137-26.725l12.145-21.043
				c5.401-9.356,17.362-12.562,26.718-7.161c0.002,0.002,0.005,0.003,0.007,0.004l4.583,2.643c3.517-2.452,7.239-4.594,11.126-6.404
				v-5.315c0.007-0.921,0.081-1.841,0.218-2.752c-7.81-2.147-16.778-1.98-24.746-1.841c-7.473,0.168-10.047-1.346-10.888-2.256
				c-1.495-1.554-1.297-5.078-1.089-8.809c0-0.821,0.059-1.643,0.089-2.474c12.432-11.027,17.015-28.458,18.955-36.158
				c9.899-5.078,13.541-20.083,12.185-29.546c-0.801-5.523-3.079-8.196-5.276-9.492c-0.178-1.574-0.258-3.474-0.327-5.434
				c-0.396-10.888-1.059-29.14-24.518-37.94c-5.82-2.187-15.521-3.959-25.171-4.82v-0.05h-0.287h-0.287v0.05
				c-9.651,0.841-19.342,2.633-25.171,4.82c-23.459,8.799-24.112,27.042-24.518,37.94c-0.069,1.98-0.139,3.86-0.327,5.434
				c-2.187,1.287-4.474,3.959-5.276,9.492c-1.366,9.463,2.296,24.469,12.185,29.546c1.98,7.71,6.523,25.131,18.955,36.158
				c0,0.821,0,1.653,0.089,2.474c0.208,3.731,0.406,7.256-1.089,8.809c-0.871,0.9-3.444,2.425-10.888,2.256
				c-15.837-0.287-35.476-0.653-42.325,16.965c-3.411,8.79-5.345,18.085-5.721,27.508c0,2.673,2.069,4.296,3.306,5.375
				c13.858,13.62,49.491,30.071,80.799,30.734l0,0h0.584l0,0c5.876-0.154,11.731-0.773,17.51-1.851c0-0.367,0-0.732,0-1.099
				C216.217,307.201,216.316,305.073,216.514,302.905z M114.176,276.18l9.621-0.099c-0.01,0.069-8.523,0.059-9.621,0.069V276.18z"/>
		</g>
	</g>
	<g>
		<defs>
			<filter id="Adobe_OpacityMaskFilter" filterUnits="userSpaceOnUse" x="28.975" y="4.988" width="436.483" height="292.312">
				<feColorMatrix  type="matrix" values="1 0 0 0 0  0 1 0 0 0  0 0 1 0 0  0 0 0 1 0"/>
			</filter>
		</defs>
		<mask maskUnits="userSpaceOnUse" x="28.975" y="4.988" width="436.483" height="292.312" id="SVGID_2_">
			<g filter="url(#Adobe_OpacityMaskFilter)">
				
					<linearGradient id="SVGID_3_" gradientUnits="userSpaceOnUse" x1="242.2445" y1="571.913" x2="242.2445" y2="833.8025" gradientTransform="matrix(1 0 0 -1 0.14 840.945)">
					<stop  offset="0" style="stop-color:#000000"/>
					<stop  offset="0.3726" style="stop-color:#020202"/>
					<stop  offset="0.5069" style="stop-color:#090909"/>
					<stop  offset="0.6026" style="stop-color:#141414"/>
					<stop  offset="0.68" style="stop-color:#252525"/>
					<stop  offset="0.7463" style="stop-color:#3B3B3B"/>
					<stop  offset="0.805" style="stop-color:#575757"/>
					<stop  offset="0.8581" style="stop-color:#777777"/>
					<stop  offset="0.9069" style="stop-color:#9D9D9D"/>
					<stop  offset="0.9523" style="stop-color:#C8C8C8"/>
					<stop  offset="0.9926" style="stop-color:#F6F6F6"/>
					<stop  offset="1" style="stop-color:#FFFFFF"/>
				</linearGradient>
				<rect x="19.311" y="7.143" fill="url(#SVGID_3_)" width="446.147" height="261.889"/>
			</g>
		</mask>
		<g mask="url(#SVGID_2_)">
			<g>
				
					<radialGradient id="SVGID_4_" cx="245.0323" cy="822.731" r="179.7374" gradientTransform="matrix(0.9529 0 0 -0.6975 14.1366 720.8643)" gradientUnits="userSpaceOnUse">
					<stop  offset="0.6765" style="stop-color:#FFFFFF;stop-opacity:0.6"/>
					<stop  offset="0.9543" style="stop-color:#FFFFFF;stop-opacity:0.0848"/>
					<stop  offset="1" style="stop-color:#FFFFFF;stop-opacity:0"/>
				</radialGradient>
				<path opacity="0.3" fill="url(#SVGID_4_)" enable-background="new    " d="M421.713,93.186c0,0-5.687-8.102-17.585-19.017
					c-23.492-22.531-72.902-57.05-155.152-57.05c-0.456,0-0.902,0.011-1.357,0.013c-0.454-0.002-0.9-0.013-1.357-0.013
					c-82.25,0-131.66,34.52-155.152,57.05C79.212,85.083,73.525,93.186,73.525,93.186S-81.124,276.833,226.366,276.833h42.506
					C576.362,276.833,421.713,93.186,421.713,93.186z"/>
			</g>
			<g>
				
					<radialGradient id="SVGID_5_" cx="234.8865" cy="877.299" r="231.2206" gradientTransform="matrix(0.8053 0 0 -0.5191 58.0647 606.5784)" gradientUnits="userSpaceOnUse">
					<stop  offset="0.6765" style="stop-color:#FFFFFF;stop-opacity:0.6"/>
					<stop  offset="0.9543" style="stop-color:#FFFFFF;stop-opacity:0.0848"/>
					<stop  offset="1" style="stop-color:#FFFFFF;stop-opacity:0"/>
				</radialGradient>
				
					<rect x="28.975" y="4.988" opacity="0.1" fill="url(#SVGID_5_)" enable-background="new    " width="436.483" height="292.312"/>
			</g>
		</g>
		<defs>
			<filter id="Adobe_OpacityMaskFilter_1_" filterUnits="userSpaceOnUse" x="18.756" y="17.119" width="456.921" height="259.714">
				<feColorMatrix  type="matrix" values="1 0 0 0 0  0 1 0 0 0  0 0 1 0 0  0 0 0 1 0"/>
			</filter>
		</defs>
		<mask maskUnits="userSpaceOnUse" x="18.756" y="17.119" width="456.921" height="259.714" id="SVGID_6_">
			<g filter="url(#Adobe_OpacityMaskFilter_1_)">
				
					<linearGradient id="SVGID_7_" gradientUnits="userSpaceOnUse" x1="241.4617" y1="528.1933" x2="241.4617" y2="833.8025" gradientTransform="matrix(1 0 0 -1 0.14 840.945)">
					<stop  offset="0" style="stop-color:#000000;stop-opacity:0.9"/>
					<stop  offset="0.1733" style="stop-color:#343434;stop-opacity:0.9173"/>
					<stop  offset="0.477" style="stop-color:#8A8A8A;stop-opacity:0.9477"/>
					<stop  offset="0.7255" style="stop-color:#C9C9C9;stop-opacity:0.9725"/>
					<stop  offset="0.906" style="stop-color:#F0F0F0;stop-opacity:0.9906"/>
					<stop  offset="1" style="stop-color:#FFFFFF"/>
				</linearGradient>
				<rect x="2.317" y="7.143" fill="url(#SVGID_7_)" width="478.569" height="305.609"/>
			</g>
		</mask>
		<g opacity="0.9" mask="url(#SVGID_6_)">
			<g>
				
					<radialGradient id="SVGID_8_" cx="248.2094" cy="822.731" r="179.7385" gradientTransform="matrix(1.0221 0 0 -0.6975 -6.483 720.8643)" gradientUnits="userSpaceOnUse">
					<stop  offset="0.6765" style="stop-color:#FFFFFF;stop-opacity:0.7"/>
					<stop  offset="0.9543" style="stop-color:#FFFFFF;stop-opacity:0.0989"/>
					<stop  offset="1" style="stop-color:#FFFFFF;stop-opacity:0"/>
				</radialGradient>
				<path opacity="0.3" fill="url(#SVGID_8_)" enable-background="new    " d="M433.962,93.186c0,0-6.1-8.102-18.863-19.017
					c-25.199-22.531-78.2-57.05-166.427-57.05c-0.49,0-0.968,0.011-1.455,0.013c-0.487-0.002-0.966-0.013-1.455-0.013
					c-88.227,0-141.228,34.52-166.427,57.05C66.572,85.083,60.472,93.186,60.472,93.186s-165.888,183.647,163.947,183.647h45.595
					C599.849,276.833,433.962,93.186,433.962,93.186z"/>
			</g>
		</g>
	</g>
</g>
</svg>
