<svg xmlns="http://www.w3.org/2000/svg" xmlns:xlink="http://www.w3.org/1999/xlink" width="24" height="24" viewBox="0 0 24 24">
  <defs>
    <radialGradient id="btn_qos_e-learning-_act-b" cx="50%" cy="7.518%" r="92.482%" fx="50%" fy="7.518%" gradientTransform="matrix(0 1 -1.17693 0 .588 -.425)">
      <stop offset="0%" stop-color="#0050AD"/>
      <stop offset="55.579%" stop-color="#004683" stop-opacity=".5"/>
      <stop offset="100%" stop-color="#FFF"/>
    </radialGradient>
    <circle id="btn_qos_e-learning-_act-a" cx="12" cy="12" r="11"/>
    <filter id="btn_qos_e-learning-_act-c" width="100%" height="100%" x="0%" y="0%" filterUnits="objectBoundingBox">
      <feGaussianBlur in="SourceGraphic"/>
    </filter>
  </defs>
  <g fill="none" fill-rule="evenodd">
    <use fill="#298AD1" xlink:href="#btn_qos_e-learning-_act-a"/>
    <use fill="url(#btn_qos_e-learning-_act-b)" fill-opacity=".5" xlink:href="#btn_qos_e-learning-_act-a" style="mix-blend-mode:overlay"/>
    <circle cx="12" cy="12" r="11.5" stroke="#E4E4E4"/>
    <path fill="#FFF" fill-opacity=".2" d="M12,12 C16.9705627,12 21,9.76142375 21,7 C21,4.23857625 16.9705627,2 12,2 C7.02943725,2 3,4.23857625 3,7 C3,9.76142375 7.02943725,12 12,12 Z" filter="url(#btn_qos_e-learning-_act-c)"/>
    <path fill="#FFF" fill-rule="nonzero" d="M16.9210174,16.3009914 C18.3530964,16.3009914 20.333699,16.897904 20.333699,17.9831995 L20.333699,18.2213253 L14.91625,18.2212571 L14.9013842,18.2222571 L8.86111577,18.2222571 C8.55532052,18.2222571 8.3074245,17.9753993 8.3074245,17.6708847 C8.3074245,17.3866711 8.52336948,17.1526829 8.80078501,17.1227476 L8.86111577,17.1195123 L13.13025,17.1192571 L13.1308594,18.2200859 L13.79625,18.2192571 L13.7963862,17.9831995 C13.7963862,16.897904 15.4889385,16.3009914 16.9210174,16.3009914 Z M5.90379683,6.22564007 L5.90379683,7.08568261 C5.39705948,7.08568261 5.32859789,7.45705095 5.2901888,7.92871086 L5.28729027,8.00017815 L5.28729027,13.8226825 C5.28729027,14.6125099 5.93855662,15.2579483 6.75914663,15.3015222 L6.84769295,15.3038669 L14.7072155,15.3040761 C14.7698624,15.4273811 14.8411702,15.5447121 14.920274,15.6550947 C14.3972892,15.8755567 13.9063604,15.962042 13.571496,16.1628926 L6.84769295,16.1639094 C5.52232977,16.1639094 4.44112835,15.1716004 4.38365315,13.9269699 L4.38125,13.8226825 L4.38125,8.00017815 C4.38125,7.05174236 4.91748698,6.27463068 5.90379683,6.22564007 Z M16.8904438,11.9699681 C17.9239618,11.9699681 18.7582475,12.8271637 18.7582475,13.8890626 C18.7582475,14.9509615 17.9239618,15.808157 16.8904438,15.808157 C15.8569258,15.808157 15.0226402,14.9509615 15.0226402,13.8890626 C15.0226402,12.8271637 15.8569258,11.9699681 16.8904438,11.9699681 Z M16.5178368,5.2222571 C16.9795224,5.2227493 17.3603974,5.55061465 17.4167035,5.97446993 L17.4238771,6.08229964 L17.4241429,11.3585105 C17.2522492,11.3178695 17.0736825,11.2964624 16.8904438,11.2964624 C16.8159477,11.2964624 16.7422238,11.3000007 16.6694065,11.3069312 L16.6693917,6.87167116 C16.66883,6.39690382 16.2635108,6.01216184 15.7633515,6.01162862 L7.80786133,6.01162862 C7.30770197,6.01216184 6.90238279,6.39690382 6.90182106,6.87167116 L6.90182106,12.5718195 C6.90238279,13.0465868 7.30770197,13.4313288 7.80786133,13.431862 L14.4552908,13.4311912 C14.41909,13.6149923 14.400039,13.8057638 14.400039,14.0014407 C14.400039,14.0519207 14.4013068,14.1020743 14.4038104,14.1518652 L7.15872647,14.1516356 C6.69704091,14.1511434 6.31616592,13.823278 6.25985981,13.3994227 L6.2526862,13.291593 L6.2526862,6.08229964 C6.25320472,5.64405287 6.59860533,5.28251409 7.0451297,5.22906652 L7.15872647,5.2222571 L16.5178368,5.2222571 Z M17.8492139,6.22564007 C18.8995163,6.22564007 19.326118,7.00859606 19.3786956,7.99317394 L19.38125,8.08906557 L19.38125,13.8226825 L19.3795909,13.9144728 C19.3562433,13.1084263 19.0094723,12.3922021 18.4752955,11.9135372 L18.4752097,8.08906557 C18.4752097,7.55900608 18.3977729,7.1224251 17.8492139,7.08568261 L17.8492139,6.22564007 Z M9.48603795,11.9144335 C9.60392173,11.9144335 9.70267401,11.9942937 9.72848315,12.1015503 L9.73506,12.1572188 L15.0680669,12.1563473 C14.9415169,12.3037683 14.8299831,12.4666041 14.7360889,12.6420051 L9.73506,12.6427893 C9.73506,12.7768759 9.62356903,12.8855746 9.48603795,12.8855746 C9.36815417,12.8855746 9.26940189,12.8057144 9.24359275,12.6984578 L9.2370159,12.6427893 L8.0921012,12.6427893 C7.95457012,12.6427893 7.84307915,12.5340907 7.84307915,12.4000041 C7.84307915,12.2850727 7.92499088,12.1887937 8.03500273,12.1636309 L8.0921012,12.1572188 L9.2370159,12.1572188 C9.2370159,12.0231322 9.34850687,11.9144335 9.48603795,11.9144335 Z M11.8705196,6.5821955 L11.9242545,6.59491303 L15.6893321,7.9656653 C15.7817084,7.99930968 15.8430792,8.08633347 15.8430792,8.18367881 C15.8430792,8.28102415 15.7817084,8.36804793 15.6893321,8.40169231 L15.6893321,8.40169231 L15.3674503,8.5188742 L15.3674503,9.68918592 C15.3932831,10.079566 15.3149663,10.2747561 15.1325,10.2747561 C14.9500338,10.2747561 14.871717,10.079566 14.8975498,9.68918592 L14.8975498,9.68918592 L14.8975498,8.68995687 L14.1926991,8.9465373 L14.1926991,11.2640961 C14.1926991,11.3924089 14.0875083,11.496427 13.9577488,11.496427 L13.9577488,11.496427 L9.72864442,11.496427 C9.59888499,11.496427 9.49369418,11.3924089 9.49369418,11.2640961 L9.49369418,11.2640961 L9.49369418,8.9465373 L7.99682617,8.40169231 C7.90444988,8.36804793 7.84307915,8.28102415 7.84307915,8.18367881 C7.84307915,8.08633347 7.90444988,7.99930968 7.99682617,7.9656653 L7.99682617,7.9656653 L11.7619038,6.59491303 C11.8143015,6.57583673 11.8718568,6.57583673 11.9242545,6.59491303 Z M13.7227986,9.11761996 L11.9243719,9.77224129 C11.8719766,9.79133031 11.8144167,9.79133031 11.7620213,9.77224129 L11.7620213,9.77224129 L9.96359467,9.11761996 L9.96359467,11.0317652 L13.7227986,11.0317652 L13.7227986,9.11761996 Z"/>
  </g>
</svg>
