<?xml version="1.0" encoding="utf-8"?>
<!-- Generator: Adobe Illustrator 17.0.0, SVG Export Plug-In . SVG Version: 6.00 Build 0)  -->
<!DOCTYPE svg PUBLIC "-//W3C//DTD SVG 1.1//EN" "http://www.w3.org/Graphics/SVG/1.1/DTD/svg11.dtd">
<svg version="1.1" id="圖層_1" xmlns="http://www.w3.org/2000/svg" xmlns:xlink="http://www.w3.org/1999/xlink" x="0px" y="0px"
	 width="494px" height="494px" viewBox="0 0 494 494" enable-background="new 0 0 494 494" xml:space="preserve">
<title>customize</title>
<g>
	<g>
		<g id="圖層_5">
			<g>
				<linearGradient id="SVGID_1_" gradientUnits="userSpaceOnUse" x1="246.8613" y1="351.9326" x2="246.8613" y2="835.9575" gradientTransform="matrix(1 0 0 -1 0.14 840.945)">
					<stop  offset="0" style="stop-color:#353D46"/>
					<stop  offset="0.1279" style="stop-color:#39434D"/>
					<stop  offset="0.3366" style="stop-color:#444D57"/>
					<stop  offset="0.6" style="stop-color:#464F5B"/>
					<stop  offset="0.905" style="stop-color:#56606E"/>
					<stop  offset="1" style="stop-color:#5D6775"/>
				</linearGradient>
				<path fill="url(#SVGID_1_)" d="M247,489.012c-64.644,0-125.419-25.173-171.129-70.884C30.162,372.419,4.988,311.644,4.988,247
					c0-64.643,25.174-125.418,70.884-171.129c45.709-45.71,106.484-70.884,171.129-70.884S372.421,30.161,418.13,75.871
					c45.71,45.709,70.884,106.484,70.884,171.129s-25.173,125.419-70.884,171.129C372.42,463.839,311.645,489.012,247,489.012z"/>
				<path fill="#E5E5E5" d="M247,9.977c130.905,0,237.025,106.119,237.025,237.024S377.905,484.024,247,484.024
					S9.977,377.905,9.977,247S116.095,9.977,247,9.977 M247,0c-33.341,0-65.689,6.532-96.147,19.415
					c-29.414,12.441-55.828,30.249-78.509,52.93s-40.489,49.095-52.93,78.509C6.531,181.311,0,213.659,0,247
					s6.531,65.689,19.414,96.147c12.441,29.414,30.25,55.828,52.93,78.509c22.681,22.68,49.095,40.489,78.509,52.93
					C181.311,487.468,213.659,494,247,494s65.689-6.532,96.147-19.415c29.414-12.441,55.828-30.249,78.509-52.93
					c22.681-22.681,40.489-49.095,52.93-78.509C487.468,312.689,494,280.341,494,247s-6.532-65.689-19.415-96.147
					c-12.441-29.414-30.25-55.828-52.93-78.509c-22.681-22.681-49.096-40.489-78.509-52.93C312.69,6.531,280.341,0,247,0L247,0z"/>
			</g>
		</g>
	</g>
	<g>
		<defs>
			<filter id="Adobe_OpacityMaskFilter" filterUnits="userSpaceOnUse" x="28.975" y="3.489" width="436.483" height="293.811">
				<feColorMatrix  type="matrix" values="1 0 0 0 0  0 1 0 0 0  0 0 1 0 0  0 0 0 1 0"/>
			</filter>
		</defs>
		<mask maskUnits="userSpaceOnUse" x="28.975" y="3.489" width="436.483" height="293.811" id="SVGID_2_">
			<g filter="url(#Adobe_OpacityMaskFilter)">
				
					<linearGradient id="SVGID_3_" gradientUnits="userSpaceOnUse" x1="242.2445" y1="571.913" x2="242.2445" y2="833.8025" gradientTransform="matrix(1 0 0 -1 0.14 840.945)">
					<stop  offset="0" style="stop-color:#000000"/>
					<stop  offset="0.3726" style="stop-color:#020202"/>
					<stop  offset="0.5069" style="stop-color:#090909"/>
					<stop  offset="0.6026" style="stop-color:#141414"/>
					<stop  offset="0.68" style="stop-color:#252525"/>
					<stop  offset="0.7463" style="stop-color:#3B3B3B"/>
					<stop  offset="0.805" style="stop-color:#575757"/>
					<stop  offset="0.8581" style="stop-color:#777777"/>
					<stop  offset="0.9069" style="stop-color:#9D9D9D"/>
					<stop  offset="0.9523" style="stop-color:#C8C8C8"/>
					<stop  offset="0.9926" style="stop-color:#F6F6F6"/>
					<stop  offset="1" style="stop-color:#FFFFFF"/>
				</linearGradient>
				<rect x="19.311" y="7.143" fill="url(#SVGID_3_)" width="446.147" height="261.889"/>
			</g>
		</mask>
		<g mask="url(#SVGID_2_)">
			<g>
				
					<radialGradient id="SVGID_4_" cx="245.0323" cy="822.731" r="179.7374" gradientTransform="matrix(0.9529 0 0 -0.6975 14.1366 720.8643)" gradientUnits="userSpaceOnUse">
					<stop  offset="0.6765" style="stop-color:#FFFFFF;stop-opacity:0.6"/>
					<stop  offset="0.9543" style="stop-color:#FFFFFF;stop-opacity:0.0848"/>
					<stop  offset="1" style="stop-color:#FFFFFF;stop-opacity:0"/>
				</radialGradient>
				<path opacity="0.3" fill="url(#SVGID_4_)" enable-background="new    " d="M421.713,93.186c0,0-5.687-8.102-17.585-19.017
					c-23.492-22.531-72.902-57.05-155.152-57.05c-0.456,0-0.902,0.011-1.357,0.013c-0.454-0.003-0.9-0.013-1.357-0.013
					c-82.25,0-131.66,34.52-155.152,57.05C79.212,85.083,73.525,93.186,73.525,93.186S-81.124,276.833,226.366,276.833h42.506
					C576.362,276.833,421.713,93.186,421.713,93.186z"/>
			</g>
			<g>
				
					<radialGradient id="SVGID_5_" cx="234.8865" cy="875.5895" r="231.2206" gradientTransform="matrix(0.8053 0 0 -0.5218 58.0647 607.2723)" gradientUnits="userSpaceOnUse">
					<stop  offset="0.6765" style="stop-color:#FFFFFF;stop-opacity:0.6"/>
					<stop  offset="0.9543" style="stop-color:#FFFFFF;stop-opacity:0.0848"/>
					<stop  offset="1" style="stop-color:#FFFFFF;stop-opacity:0"/>
				</radialGradient>
				
					<rect x="28.975" y="3.489" opacity="0.1" fill="url(#SVGID_5_)" enable-background="new    " width="436.483" height="293.811"/>
			</g>
		</g>
		<defs>
			<filter id="Adobe_OpacityMaskFilter_1_" filterUnits="userSpaceOnUse" x="18.756" y="17.119" width="456.921" height="259.714">
				<feColorMatrix  type="matrix" values="1 0 0 0 0  0 1 0 0 0  0 0 1 0 0  0 0 0 1 0"/>
			</filter>
		</defs>
		<mask maskUnits="userSpaceOnUse" x="18.756" y="17.119" width="456.921" height="259.714" id="SVGID_6_">
			<g filter="url(#Adobe_OpacityMaskFilter_1_)">
				
					<linearGradient id="SVGID_7_" gradientUnits="userSpaceOnUse" x1="241.4617" y1="528.1933" x2="241.4617" y2="833.8025" gradientTransform="matrix(1 0 0 -1 0.14 840.945)">
					<stop  offset="0" style="stop-color:#000000;stop-opacity:0.9"/>
					<stop  offset="0.1733" style="stop-color:#343434;stop-opacity:0.9173"/>
					<stop  offset="0.477" style="stop-color:#8A8A8A;stop-opacity:0.9477"/>
					<stop  offset="0.7255" style="stop-color:#C9C9C9;stop-opacity:0.9725"/>
					<stop  offset="0.906" style="stop-color:#F0F0F0;stop-opacity:0.9906"/>
					<stop  offset="1" style="stop-color:#FFFFFF"/>
				</linearGradient>
				<rect x="2.317" y="7.143" fill="url(#SVGID_7_)" width="478.569" height="305.609"/>
			</g>
		</mask>
		<g opacity="0.9" mask="url(#SVGID_6_)">
			<g>
				
					<radialGradient id="SVGID_8_" cx="248.2094" cy="822.731" r="179.7385" gradientTransform="matrix(1.0221 0 0 -0.6975 -6.483 720.8643)" gradientUnits="userSpaceOnUse">
					<stop  offset="0.6765" style="stop-color:#FFFFFF;stop-opacity:0.7"/>
					<stop  offset="0.9543" style="stop-color:#FFFFFF;stop-opacity:0.0989"/>
					<stop  offset="1" style="stop-color:#FFFFFF;stop-opacity:0"/>
				</radialGradient>
				<path opacity="0.3" fill="url(#SVGID_8_)" enable-background="new    " d="M433.962,93.186c0,0-6.1-8.102-18.863-19.017
					c-25.199-22.531-78.2-57.05-166.427-57.05c-0.49,0-0.968,0.011-1.455,0.013c-0.487-0.003-0.966-0.013-1.455-0.013
					c-88.227,0-141.228,34.52-166.427,57.05C66.572,85.083,60.472,93.186,60.472,93.186s-165.888,183.647,163.947,183.647h45.595
					C599.849,276.833,433.962,93.186,433.962,93.186z"/>
			</g>
		</g>
	</g>
	<g id="white">
		<path fill="#FFFFFF" d="M269.47,349.566c0,0-4.949-4.197-7.681-6.929c-1.643-1.652-2.835-3.696-3.464-5.939l-2.157-22.954h-60.053
			l-2.167,22.964c-0.604,2.325-1.801,4.454-3.474,6.176c-2.722,2.732-7.681,6.81-7.681,6.81s-4.455,2.91,2.227,3.9
			c3.83,0.565,20.915,0.732,34.644,0.732h12.956c14.006,0,30.803-0.238,34.644-0.801C273.953,352.575,269.47,349.566,269.47,349.566
			z"/>
		<path fill="#FFFFFF" d="M361.939,134.932H90.123c-3.932,0.037-7.109,3.215-7.147,7.147v159.669c0,3.959,3.247,7.918,7.147,7.918
			h240.528v-12.67H93.32V147.533h264.353v86.65c3.84-0.545,7.651-1.455,11.492-1.98v-90.124
			C369.085,138.135,365.884,134.969,361.939,134.932z"/>
		<path fill="#FFFFFF" d="M393.317,238.092l-22.825,3.702l-29.695,4.82l0,0v83.076c-0.003,0.574-0.471,1.037-1.046,1.033
			c-0.098-0.001-0.196-0.015-0.291-0.043c-1.783-0.472-3.62-0.708-5.464-0.703c-1.939,0.002-3.87,0.241-5.751,0.712
			c-7.295,1.832-12.72,6.711-14.372,12.195c-0.624,1.993-0.693,4.118-0.198,6.146c0.91,5.781,8.008,10.008,15.995,10.008
			c1.852-0.001,3.697-0.229,5.494-0.683c8.721-2.167,14.788-8.75,14.847-15.471c0,0,0-0.059,0-0.089l0,0l0.228-70.506
			c0.015-0.489,0.37-0.901,0.851-0.99l42.187-7.71l7.216-1.316c0.565-0.104,1.107,0.269,1.211,0.834
			c0.009,0.052,0.015,0.104,0.017,0.156v54.717c-0.002,0.574-0.469,1.038-1.043,1.036c-0.103,0-0.205-0.016-0.303-0.047
			c-1.83-0.494-3.717-0.74-5.613-0.732c-0.485,0-0.99,0.059-1.495,0.089c-1.458,0.08-2.906,0.292-4.326,0.634
			c-3.189,0.779-6.176,2.231-8.76,4.256c-0.158,0.129-0.555,0.337-0.713,0.466c-1.338,1.29-2.508,2.744-3.484,4.326
			c-0.05,0.079-0.158,0.099-0.208,0.178c-1.734,2.775-2.297,6.125-1.564,9.314c0.537,2.049,1.626,3.911,3.148,5.385
			c3.464,3.205,8.051,4.919,12.769,4.771c1.955-0.004,3.903-0.247,5.801-0.723c9.175-2.326,15.046-8.602,15.046-16.491v-94.035
			c-0.02-0.574-0.5-1.023-1.074-1.003c-0.045,0.002-0.089,0.006-0.133,0.013L393.317,238.092z"/>
		<path fill="#FFFFFF" d="M257.671,226.887c0.001,1.548-0.826,2.979-2.167,3.751l-45.462,26.26
			c-2.068,1.197-4.714,0.492-5.911-1.575c-0.383-0.661-0.584-1.412-0.582-2.176v-52.461c-0.004-2.389,1.928-4.329,4.317-4.334
			c0.764-0.002,1.515,0.2,2.176,0.582l45.462,26.25C256.83,223.948,257.654,225.356,257.671,226.887z"/>
	</g>
</g>
</svg>
