<svg xmlns="http://www.w3.org/2000/svg" width="24" height="24" viewBox="0 0 24 24">
  <path fill="#0AFF04" d="M19.3518915,3 L4.64805274,3 C2.08400795,3.00730624 0.00730624209,5.08406373 0,7.64805274 L0,15.7356723 C0.0717238727,18.2529237 2.12979745,20.2580689 4.64805274,20.2642039 L19.3519473,20.2642039 C21.915992,20.2568976 23.9926938,18.1801401 24,15.6161511 L24,7.59490123 C23.9637477,5.05171548 21.8954119,3.00702738 19.3518915,3 Z M9.92025934,15.908345 C9.6196995,16.0771137 9.23921719,15.9702529 9.07044857,15.6696931 C9.0202039,15.5802292 8.99280925,15.4797502 8.99069341,15.3771645 L8.99069341,7.88709514 C8.99788811,7.54247476 9.28311041,7.26890897 9.62778657,7.27610367 C9.73035282,7.27822304 9.83085548,7.30566328 9.92031511,7.35585883 L16.4010634,11.1008935 C16.6981095,11.2757971 16.7971063,11.6583988 16.6222027,11.955445 C16.5684526,12.0467317 16.4923501,12.1228341 16.4010634,12.1765843 L16.4010634,12.1633104 L9.92025934,15.908345 Z"/>
</svg>
