<svg xmlns="http://www.w3.org/2000/svg" width="24" height="24" viewBox="0 0 24 24">
  <path fill="#0AFF04" d="M18.5397096,20.9089469 C20.8310359,20.9089469 24,21.8697633 24,23.6167023 L24,24 L13.5402996,24 L13.5402996,23.6167023 C13.5402996,21.8697633 16.2483833,20.9089469 18.5397096,20.9089469 Z M12.488,22.202 L12.4887379,23.9980049 L6.69400769,23.9980049 C6.23707531,23.9980049 5.86665842,23.5960021 5.86665842,23.1001064 C5.86665842,22.6372704 6.18933269,22.2562255 6.60385887,22.2074766 L6.69400769,22.2022078 L12.488,22.202 Z M2.27505481,4.46176276 L2.27505481,5.86232421 C1.51786612,5.86232421 1.41556787,6.46708986 1.35817536,7.23517825 L1.35384425,7.35156125 L1.35384425,16.8333889 C1.35384425,18.1196065 2.32699439,19.1706895 3.55315519,19.2416486 L3.68546491,19.245467 L14.9688268,19.246193 C15.0758265,19.4659706 15.1996668,19.6743576 15.3385201,19.8692834 C14.5376823,20.2089078 13.7875309,20.3510037 13.2580792,20.6459889 L3.68546491,20.6460284 C1.70505036,20.6460284 0.0894727988,19.0300737 0.00359089609,17.0032188 L0,16.8333889 L0,7.35156125 C0,5.80705321 0.801268302,4.54154296 2.27505481,4.46176276 Z M18.4907918,13.937543 C20.1444206,13.937543 21.4792776,15.3173223 21.4792776,17.0266011 C21.4792776,18.7358799 20.1444206,20.1156592 18.4907918,20.1156592 C16.837163,20.1156592 15.502306,18.7358799 15.502306,17.0266011 C15.502306,15.3173223 16.837163,13.937543 18.4907918,13.937543 Z M8.98836158,-2.88657986e-15 C9.85505144,-2.88657986e-15 10.578685,0.637750594 10.7500187,1.48713476 L11.8310852,1.48777361 C13.3143141,1.48777361 13.5024249,2.49851597 13.5230191,3.43722135 L18.1350089,3.43765941 C18.8384062,3.43847666 19.416271,3.99352596 19.482521,4.7034022 L19.4888532,4.83822087 L19.4888057,12.9906813 C19.1699399,12.901082 18.8355338,12.8534389 18.4907918,12.8534389 C18.4884431,12.8534389 18.4860948,12.8534411 18.483747,12.8534455 L18.4834128,5.46092261 C18.4827791,4.84598003 18.0255908,4.34764283 17.4614256,4.34695218 L4.87899861,4.34695218 C4.31483333,4.34764283 3.85764503,4.84598003 3.85701141,5.46092261 L3.85701141,15.178993 C3.85764503,15.7939356 4.31483333,16.2922728 4.87899861,16.2929634 L14.5940232,16.2922706 C14.536442,16.5872993 14.506144,16.8934705 14.506144,17.2074897 C14.506144,17.33196 14.5109043,17.4551971 14.5202395,17.5769912 L4.15022454,17.5769034 C3.44682729,17.5760862 2.8689624,17.0210369 2.80271241,16.3111606 L2.79638029,16.176342 L2.79638029,4.83822087 C2.79717028,4.11055143 3.33370532,3.51274612 4.0199029,3.44421004 L4.15022454,3.43765941 L7.99644196,3.43867818 C7.50945259,3.10322564 7.18825014,2.52783564 7.18825014,1.87433162 C7.18825014,0.839166851 7.99418748,-2.88657986e-15 8.98836158,-2.88657986e-15 Z M20.1244096,4.46176276 C21.6938166,4.46176276 22.3312632,5.73679037 22.4098269,7.34015504 L22.4136437,7.49631257 L22.4143214,16.4422917 C22.2487807,15.4186717 21.7568447,14.5193982 21.0598569,13.877064 L21.0597995,7.49631257 C21.0597995,6.63312167 20.9440901,5.92215859 20.1244096,5.86232421 L20.1244096,4.46176276 Z M11.1426167,5.74465945 L11.3468277,5.7451444 C13.2801601,5.7752997 14.8590332,7.20820436 15.0316363,9.0320026 L15.0500835,9.03133138 C15.8477796,9.03133138 16.49444,9.67111101 16.49444,10.4603192 C16.49444,11.2495273 15.8477796,11.889307 15.0500835,11.889307 L15.0247906,11.8890923 L15.0247906,11.8890923 C14.8866881,13.5014509 14.0893386,14.8768198 12.540685,15.1379947 C12.4435924,15.2821647 12.2784613,15.3771208 12.0911521,15.3771208 L10.9040219,15.3771208 C10.6044959,15.3771208 10.3616821,15.1343069 10.3616821,14.8347809 L10.3616821,14.7762704 C10.3616821,14.4767443 10.6044959,14.2339305 10.9040219,14.2339305 L12.0911521,14.2339305 C12.2665888,14.2339305 12.4225697,14.3172305 12.5217004,14.4464361 C13.7704672,14.1850182 14.2914875,12.9669313 14.334433,11.6005027 L14.3373493,11.413328 L14.3369404,9.3158466 C14.310945,7.77343384 13.0489089,6.52007635 11.4621961,6.43251818 L11.2846048,6.42763156 L11.1426167,6.42763156 L11.092134,6.42802501 C9.4888161,6.45303288 8.15199164,7.66712807 8.05854922,9.19356653 L8.05333316,9.36441163 L8.05257812,11.9117598 C8.04055972,12.089891 7.88656576,12.230793 7.69836287,12.230793 C7.52682378,12.230793 7.38370397,12.1137378 7.35060431,11.9581283 L7.34339258,11.889307 L7.3425233,11.8806595 L7.2943116,11.8862968 C7.2635983,11.8882933 7.23261901,11.889307 7.20140446,11.889307 C6.41722575,11.889307 5.7815233,11.2495273 5.7815233,10.4603192 C5.7815233,9.67111101 6.41722575,9.03133138 7.20140446,9.03133138 C7.25501205,9.03133138 7.30792576,9.03432126 7.35998995,9.04014435 C7.52637564,7.25509774 9.0687611,5.84295874 10.9446582,5.74957748 L11.1426167,5.74465945 Z M11.254828,7.23517825 C12.5652544,7.23517825 13.6275649,8.29748875 13.6275649,9.60791516 L13.6275649,11.5711476 C13.6275649,12.6881505 12.8557115,13.6248773 11.8162633,13.8770697 L10.6176121,13.8770697 C9.57816382,13.6248773 8.80631046,12.6881505 8.80631046,11.5711476 L8.80631046,9.60791516 C8.80631046,8.29748875 9.86862096,7.23517825 11.1790474,7.23517825 L11.254828,7.23517825 Z M9.98028119,3.43867818 L12.9791213,3.43599863 C12.9314966,2.54206991 12.6084658,2.15622061 12.0076793,2.06356462 L10.78046,2.05234679 C10.7280538,2.63153633 10.4225293,3.13404476 9.98028119,3.43867818 Z M9.00055715,0.493293332 C8.25492659,0.493293332 7.65047358,1.12266847 7.65047358,1.89904205 C7.65047358,2.67541563 8.25492659,3.30479077 9.00055715,3.30479077 C9.74618772,3.30479077 10.3506407,2.67541563 10.3506407,1.89904205 C10.3506407,1.12266847 9.74618772,0.493293332 9.00055715,0.493293332 Z M8.99258059,1.11297592 C9.39025022,1.11297592 9.71262516,1.44864266 9.71262516,1.86270857 C9.71262516,2.27677448 9.39025022,2.61244122 8.99258059,2.61244122 C8.59491095,2.61244122 8.27253601,2.27677448 8.27253601,1.86270857 C8.27253601,1.44864266 8.59491095,1.11297592 8.99258059,1.11297592 Z"/>
</svg>
