<?xml version="1.0" encoding="utf-8"?>
<!-- Generator: Adobe Illustrator 17.0.0, SVG Export Plug-In . SVG Version: 6.00 Build 0)  -->
<!DOCTYPE svg PUBLIC "-//W3C//DTD SVG 1.1//EN" "http://www.w3.org/Graphics/SVG/1.1/DTD/svg11.dtd">
<svg version="1.1" id="圖層_1" xmlns="http://www.w3.org/2000/svg" xmlns:xlink="http://www.w3.org/1999/xlink" x="0px" y="0px"
	 width="494px" height="494px" viewBox="0 0 494 494" enable-background="new 0 0 494 494" xml:space="preserve">
<title>customize</title>
<g>
	<g>
		<g id="圖層_5">
			<g>
				<linearGradient id="SVGID_1_" gradientUnits="userSpaceOnUse" x1="246.8613" y1="351.9326" x2="246.8613" y2="835.9575" gradientTransform="matrix(1 0 0 -1 0.14 840.945)">
					<stop  offset="0" style="stop-color:#353D46"/>
					<stop  offset="0.1279" style="stop-color:#39434D"/>
					<stop  offset="0.3366" style="stop-color:#444D57"/>
					<stop  offset="0.6" style="stop-color:#464F5B"/>
					<stop  offset="0.905" style="stop-color:#56606E"/>
					<stop  offset="1" style="stop-color:#5D6775"/>
				</linearGradient>
				<path fill="url(#SVGID_1_)" d="M247,489.012c-64.644,0-125.419-25.173-171.129-70.884C30.162,372.419,4.988,311.644,4.988,247
					c0-64.643,25.174-125.418,70.884-171.129c45.709-45.71,106.484-70.884,171.129-70.884S372.421,30.161,418.13,75.871
					c45.71,45.709,70.884,106.484,70.884,171.129s-25.173,125.419-70.884,171.129C372.42,463.839,311.645,489.012,247,489.012z"/>
				<path fill="#E5E5E5" d="M247,9.977c130.905,0,237.025,106.119,237.025,237.024S377.905,484.024,247,484.024
					S9.977,377.905,9.977,247S116.095,9.977,247,9.977 M247,0c-33.341,0-65.689,6.532-96.147,19.415
					c-29.414,12.441-55.828,30.249-78.509,52.93s-40.489,49.095-52.93,78.509C6.531,181.311,0,213.659,0,247
					s6.531,65.689,19.414,96.147c12.441,29.414,30.25,55.828,52.93,78.509c22.681,22.68,49.095,40.489,78.509,52.93
					C181.311,487.468,213.659,494,247,494s65.689-6.532,96.147-19.415c29.414-12.441,55.828-30.249,78.509-52.93
					c22.681-22.681,40.489-49.095,52.93-78.509C487.468,312.689,494,280.341,494,247s-6.532-65.689-19.415-96.147
					c-12.441-29.414-30.25-55.828-52.93-78.509c-22.681-22.681-49.096-40.489-78.509-52.93C312.69,6.531,280.341,0,247,0L247,0z"/>
			</g>
		</g>
		<g id="white">
			<path fill="#FFFFFF" d="M403.116,371.718c1.148,3.804-1.006,7.82-4.81,8.968c-0.658,0.199-1.342,0.302-2.029,0.307H239.359
				c-2.203-0.002-4.282-1.021-5.632-2.762c-1.354-1.748-1.832-4.021-1.297-6.166l10.72-43.107c0.162-0.653,0.416-1.279,0.752-1.861
				c-0.267-0.752,0.307-5.771,0.149-6.572l147.484,0.277c-0.158,0.801,0.416,5.543,0.149,6.295c0.336,0.582,0.589,1.209,0.752,1.861
				L403.116,371.718z M339.252,370.639c-0.001-0.141-0.021-0.28-0.059-0.416l-3.049-17.005c-0.13-0.734-0.769-1.269-1.515-1.267
				h-33.347c-0.744,0.002-1.381,0.535-1.515,1.267l-3.079,17.143c-0.153,0.839,0.403,1.643,1.242,1.796
				c0.09,0.017,0.181,0.025,0.273,0.025h39.504c0.849-0.006,1.534-0.695,1.534-1.544L339.252,370.639L339.252,370.639z"/>
			<path fill="#FFFFFF" d="M386.229,237.498c2.94-0.129,5.433,2.139,5.583,5.078v81.057c-0.15,2.939-2.643,5.207-5.583,5.078
				H249.633c-2.94,0.129-5.433-2.139-5.583-5.078v-81.057c0.15-2.939,2.643-5.207,5.583-5.078L386.229,237.498L386.229,237.498z
				 M380.073,249.752H255.83v69.505h124.243V249.752z"/>
			<path fill="#FFFFFF" d="M234.519,307.151c-2.762,1.207-5.593,2.306-8.483,3.257c3.108-2.991,5.947-6.25,8.483-9.74v-15.837
				c-8.76,16.768-20.787,27.913-34.209,29.982v-53.164c11.526,0.246,22.993,1.716,34.209,4.385v-8.78
				c-11.221-2.591-22.676-4.037-34.189-4.316v-26.725h38.999c0.265-0.042,0.533-0.066,0.801-0.069h60.983
				c0.188-2.534,0.287-5.097,0.287-7.681c0.025-21.783-6.743-43.03-19.361-60.785c-1.604-2.276-3.267-4.474-5.068-6.602
				c-19.985-24.094-49.664-38.033-80.968-38.029h-0.258h-0.357c-31.093,0.165-60.519,14.081-80.374,38.01
				c-1.782,2.132-3.471,4.332-5.068,6.602c-25.822,36.406-25.822,85.154,0,121.561c1.604,2.256,3.296,4.474,5.068,6.602
				c19.86,23.923,49.282,37.84,80.374,38.019h0.357h0.089h0.168c13.216,0.009,26.315-2.483,38.603-7.345
				c-0.059-0.327-0.089-0.658-0.089-0.99v-8.355H234.519z M275.102,162.855c11.334,16.002,17.496,35.09,17.659,54.697h-34.941
				c-0.02-14.583-1.943-29.101-5.721-43.186c8.081-2.922,15.792-6.783,22.974-11.502L275.102,162.855z M270.014,156.252
				c-6.385,4.096-13.208,7.466-20.341,10.047c-5.593-16.62-13.769-30.457-23.607-39.83c17.123,5.647,32.333,15.958,43.919,29.774
				L270.014,156.252z M200.34,122.045c17.569,2.722,32.664,20.905,41.266,46.918c-13.42,3.892-27.295,6.002-41.266,6.275V122.045z
				 M200.34,183.879c14.802-0.28,29.498-2.557,43.691-6.77c3.412,13.212,5.158,26.799,5.196,40.444H200.31L200.34,183.879z
				 M165.201,126.736c-9.671,9.354-17.738,23.023-23.271,39.405c-6.985-2.55-13.665-5.87-19.915-9.899
				c11.416-13.6,26.343-23.809,43.156-29.517L165.201,126.736z M116.918,162.864c7.05,4.62,14.601,8.425,22.508,11.344
				c-3.796,14.14-5.732,28.714-5.761,43.355H99.239C99.417,197.954,105.586,178.869,116.918,162.864z M116.918,274.032
				c-9.978-14.089-15.969-30.609-17.342-47.819h34.258c0.503,12.329,2.379,24.562,5.593,36.475
				c-7.907,2.916-15.458,6.718-22.508,11.334L116.918,274.032L116.918,274.032z M122.025,280.624
				c6.24-4.009,12.898-7.328,19.856-9.899c5.553,16.411,13.6,30.071,23.291,39.415c-16.812-5.69-31.738-15.89-43.147-29.487V280.624
				z M191.669,314.893c-17.758-2.425-33.07-20.628-41.751-46.838c13.572-3.976,27.612-6.126,41.751-6.394V314.893z M191.669,253.018
				c-14.971,0.3-29.832,2.631-44.176,6.929c-2.859-11.035-4.535-22.343-4.998-33.733h49.175L191.669,253.018L191.669,253.018z
				 M191.669,217.563h-49.353c0.025-13.693,1.778-27.329,5.216-40.583c14.33,4.301,29.178,6.632,44.136,6.929V217.563z
				 M191.669,175.237c-14.134-0.291-28.166-2.454-41.731-6.434c8.681-26.211,23.993-44.413,41.731-46.858V175.237z"/>
		</g>
	</g>
	<g>
		<defs>
			<filter id="Adobe_OpacityMaskFilter" filterUnits="userSpaceOnUse" x="28.975" y="4.988" width="436.483" height="292.312">
				<feColorMatrix  type="matrix" values="1 0 0 0 0  0 1 0 0 0  0 0 1 0 0  0 0 0 1 0"/>
			</filter>
		</defs>
		<mask maskUnits="userSpaceOnUse" x="28.975" y="4.988" width="436.483" height="292.312" id="SVGID_2_">
			<g filter="url(#Adobe_OpacityMaskFilter)">
				
					<linearGradient id="SVGID_3_" gradientUnits="userSpaceOnUse" x1="242.2445" y1="571.913" x2="242.2445" y2="833.8025" gradientTransform="matrix(1 0 0 -1 0.14 840.945)">
					<stop  offset="0" style="stop-color:#000000"/>
					<stop  offset="0.3726" style="stop-color:#020202"/>
					<stop  offset="0.5069" style="stop-color:#090909"/>
					<stop  offset="0.6026" style="stop-color:#141414"/>
					<stop  offset="0.68" style="stop-color:#252525"/>
					<stop  offset="0.7463" style="stop-color:#3B3B3B"/>
					<stop  offset="0.805" style="stop-color:#575757"/>
					<stop  offset="0.8581" style="stop-color:#777777"/>
					<stop  offset="0.9069" style="stop-color:#9D9D9D"/>
					<stop  offset="0.9523" style="stop-color:#C8C8C8"/>
					<stop  offset="0.9926" style="stop-color:#F6F6F6"/>
					<stop  offset="1" style="stop-color:#FFFFFF"/>
				</linearGradient>
				<rect x="19.311" y="7.143" fill="url(#SVGID_3_)" width="446.147" height="261.889"/>
			</g>
		</mask>
		<g mask="url(#SVGID_2_)">
			<g>
				
					<radialGradient id="SVGID_4_" cx="245.0323" cy="822.731" r="179.7374" gradientTransform="matrix(0.9529 0 0 -0.6975 14.1366 720.8643)" gradientUnits="userSpaceOnUse">
					<stop  offset="0.6765" style="stop-color:#FFFFFF;stop-opacity:0.6"/>
					<stop  offset="0.9543" style="stop-color:#FFFFFF;stop-opacity:0.0848"/>
					<stop  offset="1" style="stop-color:#FFFFFF;stop-opacity:0"/>
				</radialGradient>
				<path opacity="0.3" fill="url(#SVGID_4_)" enable-background="new    " d="M421.713,93.186c0,0-5.687-8.102-17.585-19.017
					c-23.492-22.531-72.902-57.05-155.152-57.05c-0.456,0-0.902,0.011-1.357,0.013c-0.454-0.002-0.9-0.013-1.357-0.013
					c-82.25,0-131.66,34.52-155.152,57.05C79.212,85.083,73.525,93.186,73.525,93.186S-81.124,276.833,226.366,276.833h42.506
					C576.362,276.833,421.713,93.186,421.713,93.186z"/>
			</g>
			<g>
				
					<radialGradient id="SVGID_5_" cx="234.8865" cy="877.299" r="231.2206" gradientTransform="matrix(0.8053 0 0 -0.5191 58.0647 606.5784)" gradientUnits="userSpaceOnUse">
					<stop  offset="0.6765" style="stop-color:#FFFFFF;stop-opacity:0.6"/>
					<stop  offset="0.9543" style="stop-color:#FFFFFF;stop-opacity:0.0848"/>
					<stop  offset="1" style="stop-color:#FFFFFF;stop-opacity:0"/>
				</radialGradient>
				
					<rect x="28.975" y="4.988" opacity="0.1" fill="url(#SVGID_5_)" enable-background="new    " width="436.483" height="292.312"/>
			</g>
		</g>
		<defs>
			<filter id="Adobe_OpacityMaskFilter_1_" filterUnits="userSpaceOnUse" x="18.756" y="17.119" width="456.921" height="259.714">
				<feColorMatrix  type="matrix" values="1 0 0 0 0  0 1 0 0 0  0 0 1 0 0  0 0 0 1 0"/>
			</filter>
		</defs>
		<mask maskUnits="userSpaceOnUse" x="18.756" y="17.119" width="456.921" height="259.714" id="SVGID_6_">
			<g filter="url(#Adobe_OpacityMaskFilter_1_)">
				
					<linearGradient id="SVGID_7_" gradientUnits="userSpaceOnUse" x1="241.4617" y1="528.1933" x2="241.4617" y2="833.8025" gradientTransform="matrix(1 0 0 -1 0.14 840.945)">
					<stop  offset="0" style="stop-color:#000000;stop-opacity:0.9"/>
					<stop  offset="0.1733" style="stop-color:#343434;stop-opacity:0.9173"/>
					<stop  offset="0.477" style="stop-color:#8A8A8A;stop-opacity:0.9477"/>
					<stop  offset="0.7255" style="stop-color:#C9C9C9;stop-opacity:0.9725"/>
					<stop  offset="0.906" style="stop-color:#F0F0F0;stop-opacity:0.9906"/>
					<stop  offset="1" style="stop-color:#FFFFFF"/>
				</linearGradient>
				<rect x="2.317" y="7.143" fill="url(#SVGID_7_)" width="478.569" height="305.609"/>
			</g>
		</mask>
		<g opacity="0.9" mask="url(#SVGID_6_)">
			<g>
				
					<radialGradient id="SVGID_8_" cx="248.2094" cy="822.731" r="179.7385" gradientTransform="matrix(1.0221 0 0 -0.6975 -6.483 720.8643)" gradientUnits="userSpaceOnUse">
					<stop  offset="0.6765" style="stop-color:#FFFFFF;stop-opacity:0.7"/>
					<stop  offset="0.9543" style="stop-color:#FFFFFF;stop-opacity:0.0989"/>
					<stop  offset="1" style="stop-color:#FFFFFF;stop-opacity:0"/>
				</radialGradient>
				<path opacity="0.3" fill="url(#SVGID_8_)" enable-background="new    " d="M433.962,93.186c0,0-6.1-8.102-18.863-19.017
					c-25.199-22.531-78.2-57.05-166.427-57.05c-0.49,0-0.968,0.011-1.455,0.013c-0.487-0.002-0.966-0.013-1.455-0.013
					c-88.227,0-141.228,34.52-166.427,57.05C66.572,85.083,60.472,93.186,60.472,93.186s-165.888,183.647,163.947,183.647h45.595
					C599.849,276.833,433.962,93.186,433.962,93.186z"/>
			</g>
		</g>
	</g>
</g>
</svg>
