<svg xmlns="http://www.w3.org/2000/svg" xmlns:xlink="http://www.w3.org/1999/xlink" width="24" height="24" viewBox="0 0 24 24">
  <defs>
    <radialGradient id="btn_qos_web_act-b" cx="50%" cy="7.518%" r="92.482%" fx="50%" fy="7.518%" gradientTransform="matrix(0 1 -1.17693 0 .588 -.425)">
      <stop offset="0%" stop-color="#0050AD"/>
      <stop offset="55.579%" stop-color="#004683" stop-opacity=".5"/>
      <stop offset="100%" stop-color="#FFF"/>
    </radialGradient>
    <circle id="btn_qos_web_act-a" cx="12" cy="12" r="11"/>
    <filter id="btn_qos_web_act-c" width="100%" height="100%" x="0%" y="0%" filterUnits="objectBoundingBox">
      <feGaussianBlur in="SourceGraphic"/>
    </filter>
  </defs>
  <g fill="none" fill-rule="evenodd">
    <use fill="#298AD1" xlink:href="#btn_qos_web_act-a"/>
    <use fill="url(#btn_qos_web_act-b)" fill-opacity=".5" xlink:href="#btn_qos_web_act-a" style="mix-blend-mode:overlay"/>
    <circle cx="12" cy="12" r="11.5" stroke="#E4E4E4"/>
    <path fill="#FFF" fill-opacity=".2" d="M12,12 C16.9705627,12 21,9.76142375 21,7 C21,4.23857625 16.9705627,2 12,2 C7.02943725,2 3,4.23857625 3,7 C3,9.76142375 7.02943725,12 12,12 Z" filter="url(#btn_qos_web_act-c)"/>
    <path fill="#FFF" fill-rule="nonzero" d="M18.9240506,11.1036928 C19.0810127,11.1036928 19.2075949,11.2225997 19.2075949,11.367356 L19.2075949,15.6014771 C19.2075949,15.6232644 19.2047274,15.6444661 19.1993204,15.664765 C19.2022355,15.723085 19.2037563,15.7756415 19.1974684,15.7927622 C19.2126582,15.8237814 19.2278481,15.8548006 19.2379747,15.8909897 L19.7848101,18.1140325 C19.7949367,18.1502216 19.8,18.1864106 19.8,18.2225997 C19.8,18.4293944 19.6379747,18.6 19.435443,18.6 L11.4101266,18.6 C11.2987342,18.6 11.1924051,18.5483013 11.121519,18.4552437 C11.0506329,18.3621861 11.0253165,18.2432792 11.0556962,18.134712 L11.6025316,15.8858198 C11.6126582,15.8496307 11.6227848,15.8186115 11.643038,15.7875923 C11.6278481,15.7462334 11.6582278,15.48774 11.6481013,15.4463811 L11.653,15.446 L11.6531646,11.367356 C11.6531646,11.2225997 11.7797468,11.1036928 11.9367089,11.1036928 L18.9240506,11.1036928 Z M16.2810127,17.0800591 L14.5746835,17.0800591 C14.5341772,17.0800591 14.5037975,17.1059084 14.4987342,17.1472674 L14.3417722,18.0416544 C14.3367089,18.0675037 14.3417722,18.0881832 14.356962,18.1088626 C14.3721519,18.1295421 14.3924051,18.1398818 14.4177215,18.1398818 L16.4379747,18.1398818 L16.4379747,18.1398818 C16.4835443,18.1398818 16.5189873,18.1036928 16.5189873,18.057164 C16.5189873,18.0519941 16.5189873,18.0416544 16.5139241,18.0364845 L16.356962,17.1472674 C16.3518987,17.1110783 16.3164557,17.0800591 16.2810127,17.0800591 Z M9.19240506,4.6 C10.8531646,4.6 12.3468354,5.37031019 13.3341772,6.58522895 C13.4253165,6.69896603 13.5113924,6.8127031 13.5924051,6.93161004 C14.2151899,7.83116691 14.5848101,8.92200886 14.5848101,10.1059084 C14.5848101,10.240325 14.5797468,10.3747415 14.5696203,10.5091581 L14.5696203,10.5091581 L11.4506329,10.5091581 C11.435443,10.5091581 11.4253165,10.5143279 11.4101266,10.5143279 L11.4101266,10.5143279 L9.41518987,10.5143279 L9.41518987,11.9153619 C10.0278481,11.9308715 10.6151899,12.0084195 11.1620253,12.1376662 L11.1620253,12.1376662 L11.1620253,12.5977843 C10.6202532,12.4685377 10.0278481,12.3858198 9.41012658,12.3703102 L9.41012658,12.3703102 L9.41012658,15.1465288 C10.0987342,15.0379616 10.7113924,14.4537666 11.1620253,13.5800591 L11.1620253,13.5800591 L11.1620253,14.4072378 C11.0253165,14.593353 10.878481,14.7639586 10.7265823,14.9138848 C10.8734177,14.8621861 11.0202532,14.8053176 11.1620253,14.7432792 L11.1620253,14.7432792 L11.1670886,14.7432792 L11.1677215,15.2033973 L11.1677215,15.2033973 L11.1721519,15.2292467 C10.5594937,15.4774003 9.89620253,15.6118168 9.19746835,15.6118168 L9.19746835,15.6118168 L9.16202532,15.6118168 C7.51139241,15.6014771 6.03291139,14.8311669 5.05063291,13.6265879 C4.95949367,13.5128508 4.87341772,13.3991137 4.79240506,13.2802068 C4.16962025,12.3806499 3.8,11.2846381 3.8,10.1059084 C3.8,8.92717873 4.16455696,7.83116691 4.78734177,6.93161004 C4.86835443,6.8127031 4.95443038,6.69896603 5.04556962,6.58522895 C6.0278481,5.38064993 7.50632911,4.61033973 9.15696203,4.6 L9.15696203,4.6 Z M18.6050633,11.7447563 L12.2506329,11.7447563 L12.2506329,15.374003 L18.6050633,15.374003 L18.6050633,11.7447563 Z M8.96962025,12.3651403 C8.2,12.3858198 7.47088608,12.5047267 6.83291139,12.7011817 C7.27848101,14.0711965 8.06329114,15.0172821 8.96962025,15.1465288 L8.96962025,15.1465288 Z M6.42278481,12.8407681 C6.04303797,12.9855244 5.69873418,13.1612999 5.40506329,13.3577548 C5.98227848,14.0556869 6.74683544,14.5985229 7.61265823,14.8983752 C7.1164557,14.4124077 6.70632911,13.698966 6.42278481,12.8407681 Z M6.01265823,10.5143279 L4.26075949,10.5143279 C4.33164557,11.4397341 4.65063291,12.2927622 5.14683544,13.0113737 C5.48101266,12.7838996 5.86582278,12.5822747 6.30126582,12.416839 C6.1443038,11.832644 6.04303797,11.1915805 6.01265823,10.5143279 L6.01265823,10.5143279 Z M8.96962025,10.5143279 L6.45316456,10.5143279 C6.4835443,11.1398818 6.56962025,11.7344165 6.71139241,12.2772526 C7.38987342,12.065288 8.15949367,11.9360414 8.96962025,11.9153619 L8.96962025,11.9153619 L8.96962025,10.5143279 Z M13.2379747,7.205613 C12.8936709,7.43825702 12.4987342,7.63988183 12.0582278,7.81048744 C12.2405063,8.49807976 12.3468354,9.25805022 12.3518987,10.0645495 L12.3518987,10.0645495 L14.1392405,10.0645495 C14.1341772,8.99955687 13.7949367,8.01728213 13.2379747,7.205613 Z M11.643038,7.95007386 C10.9696203,8.15686854 10.2151899,8.28094535 9.41012658,8.30162482 L9.41012658,8.30162482 L9.40506329,8.30162482 L9.40506329,10.0645495 L11.9063291,10.0645495 C11.9063291,9.30457903 11.8101266,8.59113737 11.643038,7.95007386 Z M5.14683544,7.205613 C4.58481013,8.01211226 4.25063291,8.99955687 4.24050633,10.0645495 L4.24050633,10.0645495 L6.00253165,10.0645495 C6.00759494,9.25805022 6.11392405,8.4929099 6.29620253,7.80014771 C5.87088608,7.63471196 5.48101266,7.43308715 5.14683544,7.205613 Z M6.71139241,7.93973412 C6.5443038,8.5859675 6.44810127,9.29940916 6.44303797,10.0593796 L6.44303797,10.0593796 L8.96962025,10.0593796 L8.96962025,8.30162482 C8.15949367,8.28094535 7.38987342,8.15169867 6.71139241,7.93973412 Z M8.96962025,5.0704579 C8.05822785,5.19453471 7.27848101,6.14579025 6.83291139,7.51580502 C7.47594937,7.71225997 8.2,7.83116691 8.96962025,7.85184638 L8.96962025,7.85184638 Z M9.41012658,5.0704579 L9.41012658,7.84667651 C10.1696203,7.83116691 10.8886076,7.71225997 11.521519,7.52097489 C11.0810127,6.16129985 10.3113924,5.21004431 9.41012658,5.0704579 L9.41012658,5.0704579 Z M10.7265823,5.30827179 C11.2329114,5.79423929 11.6481013,6.51802068 11.9367089,7.38655835 C12.321519,7.2366322 12.6708861,7.06085672 12.9746835,6.85923191 C12.3873418,6.14579025 11.6126582,5.59778434 10.7265823,5.30827179 Z M7.61265823,5.31861152 C6.74683544,5.61846381 5.98227848,6.15612999 5.40506329,6.85923191 C5.69873418,7.05568685 6.04303797,7.23146233 6.42278481,7.37621861 C6.70632911,6.52319055 7.1164557,5.80457903 7.61265823,5.31861152 Z"/>
  </g>
</svg>
