<svg id="图层_1" data-name="图层 1" xmlns="http://www.w3.org/2000/svg" viewBox="0 0 16 16"><defs><style>.cls-1{fill:#cf0a2c;}</style></defs><title>1</title><path class="cls-1" d="M15,8.68a8.64,8.64,0,0,0-1.18-4.5,1.31,1.31,0,0,0-.29-.3,2.32,2.32,0,0,0-1.93-.35.74.74,0,0,0-.25.19l-.54.68a1.08,1.08,0,0,1-.8.39H5.94a1.08,1.08,0,0,1-.8-.38l-.54-.68a.73.73,0,0,0-.25-.19,2.2,2.2,0,0,0-.58-.08,2.4,2.4,0,0,0-1.35.43,1.32,1.32,0,0,0-.29.3A8.64,8.64,0,0,0,1,8.68c-.06,3.4.44,3.73,1.28,3.86s1.69-1.6,2-2.25l.05-.1a1.64,1.64,0,0,1,.53-.59A6.28,6.28,0,0,1,7.91,9h.19a6.28,6.28,0,0,1,3.06.62,1.63,1.63,0,0,1,.53.59l.05.1c.34.65,1.25,2.36,2,2.25S15.11,12.08,15,8.68ZM4.57,7.42a.1.1,0,0,1-.1.1H3.88v.59a.1.1,0,0,1-.1.1H3.2a.1.1,0,0,1-.1-.1V7.52H2.51a.1.1,0,0,1-.1-.1V6.84a.1.1,0,0,1,.1-.1H3.1V6.15A.1.1,0,0,1,3.2,6h.58a.1.1,0,0,1,.1.1v.59h.59a.1.1,0,0,1,.1.1Zm7.77-1.52a.5.5,0,1,1-.5.5A.5.5,0,0,1,12.34,5.89Zm-.81,1.76a.5.5,0,1,1,.5-.5A.5.5,0,0,1,11.53,7.65Zm.81.75a.5.5,0,1,1,.5-.5A.5.5,0,0,1,12.34,8.4Zm.81-.75a.5.5,0,1,1,.5-.5A.5.5,0,0,1,13.16,7.65Z"/></svg>