<svg xmlns="http://www.w3.org/2000/svg" viewBox="0 0 557.33 274.67"><defs><style>.cls-1{opacity:0.44;}.cls-2{fill:none;stroke:#f1f1f1;stroke-miterlimit:10;}</style></defs><title>earth</title><g class="cls-1"><path class="cls-2" d="M17.3,68.88c-1.32-.52-.65,2-2,2.32s-2.88,1.08-1.83,1.4,3.4-.16,3.67-.62S17.69,69,17.3,68.88Z"/><path class="cls-2" d="M7.21,72.29c-1.57-.15-3.15,0-3.41.62S5.24,74,6.29,74s3.14-.78,2.75-.93S7.21,72.29,7.21,72.29Z"/><path class="cls-2" d="M15.86,58.82c-.53.19.92,1.24,1.44,1.24s1.44-1.7.4-1.7S17.17,58.36,15.86,58.82Z"/><path class="cls-2" d="M20.44,46.12l.79.78a5.85,5.85,0,0,0,3.27,1.24c1.18.16,1.18-.77.26-1.7a2.5,2.5,0,0,0-2-.93c-.78-.16-.92-1.08-3-1.08s-1.83-1.24-2.1-1.86,2-1.83,2.53-1.67a8.72,8.72,0,0,0,2.45-.34s3.41-1.54,3.8-1.24,2.36-.31,3.28-.62,1.44-2,1.44-2A5.39,5.39,0,0,1,33,37.94c.65.77,2.1,0,2.49,0s2.56.5,2.56.5L41.22,38c1-.16,4.09,1.2,5.14,1.52s6.55-1,7.08-1,2.35,2.75,4.06,2.28a3.33,3.33,0,0,1,2.88.46,2.29,2.29,0,0,1,1.44,1.08c.65.93,1.31.15,2.23-.46s.79-1.24.79-1.24l.79-.15c.78-.16,1.31.31,3.54.46s1.7-.46,3.27-1.08,3.15.77,3.67.62,1.18-1.39,1.57-.78,1,1.86,1,1.86S80.38,40,80.91,40a40.26,40.26,0,0,0,4.44.13,5.69,5.69,0,0,1,3.82,1c.79.78,2.75.62,3.8,1.39s2.1-.62,1.57-.93A18.46,18.46,0,0,1,92.71,40s-2-2.78-2.23-3.25-.65-.46-1.18.77-2.43,1.19-4.66,1.32-.78-1.24-3.27-1.39-1.58-1.21-.79-1.21,1.31-1.86,1.57-2.94,1.18-.93,3-.77,2.36-.31,4.19,0,1.7-.93,3.53-.78.92.46,2,1.24,1.7.62,3.15,1.39.92.77,1.57.93a24.77,24.77,0,0,0,4.19-.47c1.31-.15,2.36-.31,3,.62s.53,2,1.44,2.78-.53-2.78-.53-4,1.83-.16,3-.16,2.49-.46,2.75.16-1.7,1.55-.52,2.94,2,1.86,3,1.86,3.41.31,2.36,2-3.8,1.55-4.71,1.55-2.49.62-2.1,1.55,2.49.46,3.93.46,5.9.46,7.07,0,.92-2.32-.39-2.79-.26-1.39,1-1.08,2.62-.46,2.36,0,.13,1.55.13,2.79.39,2,1.31,1.7.76-1.33,1.67-1.49.69-1.92.16-3.31-.92-2.17-.78-2.94,1.57-.93,2.36-.16a20.11,20.11,0,0,1,1.83,2.32,6.81,6.81,0,0,1,2.1,2.32c.53,1.24.66.93,1.7.16s1.31-.62,2.23.15.26,2.32.26,2.79,1.31,0,1.57-.93,1.31-.93,2-1.24.65-2.17.65-2.17a11,11,0,0,0-3.41-.31c-1.7.15-2.23-.16-3.54-1.24s-.52-1.86-1.18-2.94,2.1-1.71,3.8-2.63,3.4-.31,3,2-.65,2,1.31,1.55-.13-2.48.78-2.64a19.22,19.22,0,0,1,4.06-.47c.79.16,5.11-.46,6.16-.46s2.75,1.08,3.93,1.86,4.33,1.86,5.11,2.32,6.29,1.39,6.81,1.55.53,2,1,3.56,2,.46,2.49.46a6.12,6.12,0,0,1,2.88,1.86c.52.78,4.45,1.39,4.45,1.39s-.92,1.39-1.31,1.86a23,23,0,0,1-2.1,1.39c-.79.62-1.7-.15-2.75-.93s-2.88-1.24-3.27-.93-.13.93.13,1.4,2,1.08,3,2,.79,1.86.92,3.1-1-.46-2.36-.77-1.44,1.24-1.44,1.24-1.52-.1-2.35-.1,0,0-1.44-1.24-1.18.78-2,.16-1.57-1.55-2-1.24-1.7-1.39-2.49-1.24-3.93-.47-4.71-.16-1.44.31-2.1.62-.92-2.17-.53-2.94,1.31-.93,3-.46,1.83,0,2.23-.78a3.75,3.75,0,0,1,2.62-2.16c1.84-.62-.13-1.08-.65-1.39s-1.18-.93-1.57,0a9.85,9.85,0,0,1-1.31,2s-1,0-2.49-.16-.39-.78.26-1.08,1.44-2.17.79-2.63a1.91,1.91,0,0,0-2.09-.47c-1.18.31-.39-1.09-1.18-1.55s-.53.31-.53.93-1.18.47-1.18.47a6.44,6.44,0,0,0-2.49,0c-.66.31-1.84.93-1.44,1.39s1.7.46,2.09,1.86-1.7,1.71-2.09,1.86l-2,.78a12.18,12.18,0,0,0-2.88-.46c-1.31,0-1.7.15-1.44.77s.92.31,1.31.31.39.78,1.57.46.92-.77,2,.47,2.1,1.08,3.8,2.17-.26,2.33-1.18,2.33-.92-.93-1.44-1.86-2.62.15-2.62.15A7.36,7.36,0,0,1,142,52.82c-.92,0-1.57-.16-.4-1.24s-1.44-1.24-1.44-2.79-.75,2.64-.75,3.41-.82-.93-3-.62-1.86,1.24-4.77,3.37-2.13,1.67-1.87,3.68-.49,2.36.69,2.67.78,2.63,1.7,2.47,1.57-.93,3.41.16a13.18,13.18,0,0,0,5,1.89,8.3,8.3,0,0,0,4.49-.11c1.18-.31,2.32,1.19,2.32,2.28s.79,1.24.65,2.63,1.44-1.24,1.44-1.24.65,2.33.13,2.63.13,1.7.79,1.55,1.57.46,2.36-.31-.39-3.09-.39-4-.79-1.43-1.17-2.43,1-1.09,1.57-.15,1.44.15,2.36-.62a3.13,3.13,0,0,0,.92-2.17s-1.57-2.48-2.75-3.09-.66-.77.52-1.08,0-.78.26-2.48.26-2.79.92-2.79a33.71,33.71,0,0,1,5-.31c2,.16,2.88,1.86,4.19,2s3.4.46,3.8,1.24-2.32,1.26-1.4,2.49,1.92.76,2.84,1.22,2,.15,3.14-1.71,1.7-2,2.09-1.7,2.89,3.72,3.54,4.49a11.21,11.21,0,0,1,1.42,3.8c.13.77,2.64.22,3.17.22a5.78,5.78,0,0,1,2.75,2.63c.27.93.79,1.24,2.49,1.7s0,2.16-.39,3.09-.65,1.24-1.18,2.32,0,0,.66.46.92,1.09,2,.78a1.39,1.39,0,0,1,2,.93c.39.93.92,1.7,1.31,2.48s0,2-.53,1.24-2.23-.31-2.23-.31-.79.93-1,.46a1.37,1.37,0,0,0-1.7-.77c-.91.31-1.83,0-2.88.16s-1.44-.62-.79-1.24.79-2.94,2.1-3.87.92-2.32,0-2.32-1.31,1.39-1.83,1.7-2.32-.58-3.23.2-2.4,1.35-1.48,1.66S177.55,79,176.77,79s-.53-2-.53-2.79-1,.46-1,.46-2.1-1.39-2.88-.46-3.78.58-4.78,1.58a8.24,8.24,0,0,0-1.36,3.34,11.54,11.54,0,0,1,2.36-.93,7.64,7.64,0,0,0,2.75-1.08c1.31-.78,2.62-1.08,3.54.31a1.45,1.45,0,0,1-.22,2l-.17.12a4.16,4.16,0,0,0,1,1.39c.53.31.66-.31,1.57-.93s.52,1.24.79,1.86,1.18.62,1.7-.15.92-1.39,1.31-.93A10.74,10.74,0,0,1,182,85.49c.39,1.08-2.75,1.4-3.27,1.55s-3,.77-3.41.93-1.7,1.54-2.75,1.54-.92-1.86-1-2.94-1.44.15-1.57.62-1.31.31-2.23.46-2.49,1.24-2.49,2.48,1.85,2.57,1.45,3.19-3.42.37-4.34.06-2.23.46-1.83,1.09.13,1.54-.79,1.39-1,.93-.66,1.7-1.18,2.32-1.57,1.7-1.18-.93-1.18,0a8.09,8.09,0,0,0,1.56,3.45c.79,1.24-2.21,1.51-3.13,2.43s-3,4.11-4.27,4.73-2.41,2.54-1.76,3.32,1.44,4,1.84,5.11-.13,4.18-1.31,4-.53-2-1.7-2.48-1.83-3.25-2.1-5.11-.52-.77-1.31-.16-1.57-1.23-2-1.7-2.34.9-3.91.75-2.38.18-2.38.64-.26,1.86-1.7.93a4.18,4.18,0,0,0-3.14-.93c-1.44,0-2.75-.16-3,.46a6.23,6.23,0,0,1-2.62,2.32c-.92.31-2.62,1.86-1.83,2.17s.79,2.48.26,3.71-.39,3.41-.13,5.57,1.84,3.56,3.28,5,2,1.86,3.41.62,2-.46,2.36-.31,1.44-.78,1-2.17a1.79,1.79,0,0,1,1.7-2.48c1.18.16,2.88-.46,3.8-.31s1.44,3.09,0,4.33-.66,3.1-.92,4.49-1.44,1.7,0,1.7,1.05.31,2,.46,1.83-.93,2.75-1.08,3.27,2.32,2.88,3.57a16.16,16.16,0,0,0-.66,5.41,4.7,4.7,0,0,0,.92,2.79c.26.62,1.31,2,2.49,1.39s2.36-1.08,2.75-1.7,2.88,1.08,2.62,1.55.92.93,1.7.46a7.46,7.46,0,0,0,2-2.47,6.34,6.34,0,0,1,2.75-2.48c.65-.15,2.23-2,3.27-1.7s-.39,1.85-.52,2.78,0,3.56.52,3.72.26-1.86.92-3.25a3.67,3.67,0,0,1,2.62-2.17c.65,0,1.18,3.25,2.09,2.33s2.75-.78,3.15.15a5.88,5.88,0,0,0,.78,1.39,2.19,2.19,0,0,0,.66-1.39c0-.77,2.09-1.55,3.41-.62s.78,1.24,1.44,1.4,1.31-2,1.7-2.17,0,2.48-.92,3.87.78.93.78.93l.39.46c.39.46,1.7-.46,2.23.46s1.44,1.24,2.23,2.94,1.68.19,3.25-.12,3.82,2,5.39,4,1.31,3.56,2.36,3.56,1.31,1.7,1.31,2.32-2.36,2-3.67,2.32-1.31,1.86.79,1.39,1.18-1.39,2.49-1.86,2.62.62,1.44,2.48-3.54,2-1.44,2.32.92-.31,2.1-2.16,1-1.24,1.84-1.24a6,6,0,0,1,3.14,1.08c.66.62,2.36,1.55,3.41,2.32a3.27,3.27,0,0,0,3.14.16c.79-.31,3,.93,3.8,2.17s2.75,1.4,3.67,1.86a5.84,5.84,0,0,1,2.49,3.87c.13,1.55-1.44,4.8-1.57,5.57s-2.22,3.56-4.19,5.42-.79,4-.65,5-1.31,4.33-.92,5.11-.53,2.48-1.31,3.56-1.31,3.09-1.83,4-2.23.62-3.8,1.08a11.51,11.51,0,0,0-2.36.93,42.77,42.77,0,0,0-4.32,2.79c-1.57,1.23.52,3.4-.27,5.11s-1.43.18-2.21,2.19-1.32,1.68-2,2.14a4.41,4.41,0,0,0-1.18,2.94c-.13,1.24-1.44,2.48-3.14,4.34s-2.75,1.55-4.59.93-1.57-5.88-1.84-5.11-1.16,3.46-.9,3.92a18.06,18.06,0,0,0,2.74,2.73c.65.46.52,1.24,0,2s-2,3.56-2.49,3.71-4.59.78-5.37.31-1.18,1.08-1,2,.79,2-.65,1.7-3.42-1.39-3.42-.65S174,245,174.76,245s1.57-.62,1.18.46a6.9,6.9,0,0,1-2,2.48c-.53.47-1.18,2-2.49,3.09s-1.31,1.7-1,2.17,2.23.16,2.62.46-.39,2.48-.92,2.94-2.75,2.63-3.67,3.25-.92,2.48-.65,3.41a9.07,9.07,0,0,0,3.54,3.72c1.18.47,3.67.31,3.41.77s-3.14.93-3.53,1.08a14.88,14.88,0,0,1-3.54.78c-1,0-3-1.24-3.41-1.24s.26-.62,1.57-1.86-.52-2.63-.78-.93-.79,2.16-1.44,2.16-1.44-1.08-1.84-1.55-2.1-.93-1.83-2.78-.79-1.7-1.57-2.48,1-1.39.79-2.17-1.44-.31-1.57-1.39,1-2.63,1.18-3.09-.79-1.39-.92-2.17.53-1.55,1.44-2.78a8.56,8.56,0,0,0,1.57-3.25,26.73,26.73,0,0,1-.65-3.41c0-1.24.65-1.7.92-3.41s-.92-1.08-.92-2.48,1.31-.93,1-2.32.66-2.32,1-3.25.79-2.47,1.31-3.56-.53-3.56-.53-4,1.7-1.08.92-2,.69-1.24,1.47-2-.56-3.41-.16-6.19.78-7.59.78-8a7.9,7.9,0,0,0-.46-3.68,5.92,5.92,0,0,0-2.36-2.63c-.92-.46-2.1-1.86-2.75-2s-4.62-1.46-4.62-3.63-1.41-4-1.67-5.5-2.23-5-2.36-6.5-2.88-2-3.27-3.72.58-2.81.84-3.89a15.06,15.06,0,0,0-.32-4.31,6.52,6.52,0,0,1,2-3.79c.78-.46,2.23-2.09,2.75-2.09s.4-1.71.92-3.41a5.72,5.72,0,0,0-.65-4.33c-.39-.31-.78-2.32-1.44-2.94s-2-.31-2-.31a2.23,2.23,0,0,1-.92,2.17c-1.18.77-1.44-.16-1.83-.62s-1.83-.62-2.49-1.39a12.17,12.17,0,0,0-2.49-2.32c-.79-.47-2.7-.87-2.56-2.73a3.62,3.62,0,0,0-1.5-3.31c-.52-.31-1.57-1.09-2.23-.62s-1.83-.93-2.75-.77-2.75-1.86-3.41-2.63-1.18-1.86-2.36-1.86-1.31.47-2.1,1.55-2-.77-2.36-1.24-2.3.31-3.74.31-2.1-3-2.15-3.56c-.2-2.31-4.19-2.32-5.11-2.94s-1.84-2.94-1.44-3.56-.65-2.63-.65-2.63-1.84-2.48-2.49-2.48-2.75-4.33-3.93-5.57-3.93-4-4.45-5.42-.66-3.56-2-2.47-.27,2.17,1,3.4,1.05,2.48,2.88,4.18,1,3.41,1.84,4.18,3.54,2.63,2.36,3.87-2.36-1.55-2.88-1.7-1.7-.46-1.57-1.39-1-1.71-2-3.1-1.31-.62-2.49-.62-.13-1.7.52-2.48-.65-1.86-1.44-2.17-1.84-3.87-2.88-6-1.84-3.25-3-3.1-3.13-1-3.91-1.64-.54-4.09-1.85-5.63a10.66,10.66,0,0,1-2.36-6.19c.13-1.7.52-6,.52-7.12s-1-3.14-1-3.61-.3-1.81-.82-2-2.23-1.68-3.41-1.68-1.7-2.2-1.31-3.28-1-2.94-1.7-2.94-1.7-2-2.1-3.1-1.44-1.08-1.18-.47-.13,1.7.52,2,1.18,2.78.66,3.09-1.7-.93-3-1.7-.79-3.87-.79-4.65-1.72-1.51-2.53-1.51-1.57.16-1.7-1.86-2.49-3.1-3.28-3.1-5.21-1.54-6.51-1.54-3.31-1.9-4.1-1.28-2.23-1.08-3-1.08-.37,2.11-1.81,3.19-2.38-1-3.17-.25-2.75,1.55-2.1-.31.65-2.17-.39-1.71a2.64,2.64,0,0,0-1.31,2.48c0,.77-1.83,2-1.83,2a11.33,11.33,0,0,0,2.36,0c.65-.15.13,1.71-.53,2.17s-1.57,1.7-2.62,1.39-1.2-1.34-1.84-1.49-1.37,2-3.73,3.39-2.69-.6-3.61-.14a28.77,28.77,0,0,1-5.37,2c-1.18.15-.92-1.7-.26-1.7a14.37,14.37,0,0,0,3.8-1.86c.66-.46,3.54-1.7,4.32-2.17s2.1-1.24,1.57-2.17-2.23.47-2.23.47-1.31-1.4-1.7-1.71-1.15,1.26-1.15,1.26a1.61,1.61,0,0,1-1.31-2c.39-1.7-.92-1.7-1.18-.93s-2.49,2-2.62,1.24-2.1-2.32-2.62-3.56.53-1.39,1.7-2.48a5.58,5.58,0,0,1,4.33-1.24c1.44.15,2.36-1.86,1.83-2a2.14,2.14,0,0,0-2.23.46c-.79.78-2.75.62-2.75.62s-2.88,0-4.06-.93a7.33,7.33,0,0,1-1.83-2.32A15.51,15.51,0,0,1,19,46.92Zm120,46.13c1.31.17,1.31-2,1.18-2.63s-.13-3.25.4-3.72,1.18-1.86,2.62-2a2.09,2.09,0,0,1,2.23,2.48c-.13,1.39.26,2.78.79,2.78s2.1-1.08,1.57-2,.39-4,.39-2.94,1.05,1.86,1.71,1.7-.65-2.94-1.57-3.09a10.41,10.41,0,0,0-3.18,0c-.39.15-2.62-.78-3.67-.62s-2.62.62-3.14,1.86,0,3.56-.13,4.49-.37,3.55.81,3.71Zm7.34,0c.3.71,1.7.16,2.49-.78s2.49-1.24,3-2,.92-.61,2.22-1.24,2.36-.77,1.84-1.55-3.28,0-3.67-.31-3.08,3.45-3.08,3.45-2.36,1.08-2.49,1.55-.69,0-.3.89ZM134.16,80.34c0,.83,1.31.93,2.09.46a11.92,11.92,0,0,1,2.49-.93c.52-.16.26.77,1.44.77s2.62.46,3,.31,1.57-2,.65-2.17a6.91,6.91,0,0,1-3.14-2.17c-.78-.93-2.62,1.24-4.33,2S134.16,79.1,134.16,80.34ZM80.45,75.23c-1.07-.42.39,1.86,1,2.32s2,.47,2.1,1.24.52,2.63,1.18,2.48.65-1.86.13-2.48S82.37,76.31,82,76.31,80.84,75.38,80.45,75.23Z"/><path class="cls-2" d="M145.17,54c-.36.46,1.57,1.13,1.92.51S146,52.82,145.17,54Z"/><path class="cls-2" d="M150.24,54.9c-1.39.47-.09,1.65.79,1.24S151.46,54.48,150.24,54.9Z"/><path class="cls-2" d="M85.08,29.72c-.18.63.78.62,1.92.62A11.28,11.28,0,0,0,90.5,30c.52-.31,3.14-1,3.06-.1s1,2.37,1.66,2.17,1.84-1.55,2.45-1,.7,1.75,1.31,2.06a5.12,5.12,0,0,0,3.06,0,10,10,0,0,1,3.93-.1c1,.21,3.75.83,4,.21s1-.72,1.14-1.35.52-2.58.52-2.58-.52-1.13-1.4-.62-1.14.83-1.92.62-.79-1.86-2.18-1.55S104.47,29,104,29.44a2,2,0,0,1-1.75.52c-.35-.21-2.36-1.55-2.36-1.55s-4.19-.2-4.37-.83-.87-1.65-2.8-1.44S87.52,27.69,87,27.69s.62,1.23-.09,1.23S85.34,28.82,85.08,29.72Z"/><path class="cls-2" d="M99.93,25.49c-1,.4-.79,1.55-.09,1.55s2.45-.72,3-.21,1.84.1,1.75-.41.53-2.58-.52-2.68S101.5,24.82,99.93,25.49Z"/><path class="cls-2" d="M111.72,24.15c-.14.74.7,1.34,1.75,1.34s3.32-.62,3.49-.11-.09.93,1.14,1.14a17,17,0,0,0,2.45.42c.7,0,.44-1.35-.17-2.27s-.44-.82-2-1.34a10.54,10.54,0,0,0-4.19-.41C113.11,23,112,22.7,111.72,24.15Z"/><path class="cls-2" d="M113.46,28.89c-.66.68,0,2.78-.26,3s.09,1.14.79.93,1-2.16,1.57-2.16,3.23-.72,3.67.41.44.62,1.66.72,2.18-1.44,2.27-2-.61-1.55-2.27-1.34S114.16,28.17,113.46,28.89Z"/><path class="cls-2" d="M116.7,34.36a1.29,1.29,0,0,0,.7,2.06c1,.11,2.62-.72,2.79-.1s.79,3.4,2.36,2.48S124,37,124.47,36.94s-.09-2.38-.79-2.89-3-.2-3.58.11S117.66,33.64,116.7,34.36Z"/><path class="cls-2" d="M126.58,35.29a1.75,1.75,0,0,0,1.92.62c1.13-.21,2.79-.41,3.58-.51s1-1.65.09-1.76-1.57-1-2.36-.72S126.3,34.57,126.58,35.29Z"/><path class="cls-2" d="M126.3,31c-.38,1.08,3.5,1.65,3.06.41S126.74,29.72,126.3,31Z"/><path class="cls-2" d="M127,25.69c-1.11-.32-3-.72-3-1s-.52,1.45.44,2,2.53,1.44,3.67,2,3.32.62,4,1.65,3.06,1.86,3.06,1.86l2.8.31a12.21,12.21,0,0,1,3.93-.31,51.31,51.31,0,0,0,6.64.41c1.66-.1,1.92-.72,2.1-1.14s-3.06-1.24-3.84-1.13-5.24.1-6.55,0a25.3,25.3,0,0,0-4,0c-1,.1-1.83-.82-2.62-1.34s-2.53-2.17-3.58-2.38A29,29,0,0,1,127,25.69Z"/><path class="cls-2" d="M236.58,47.16c-.35.69-1,.72-.35,2.17s1.23,2.27,1.84,2.17,2.71-.21,3,.62a1.65,1.65,0,0,0,2.44,1c1.44-.55,2.71-.82,3.06-1.44s2.71-.72,2.71-.72,1.92-1.76,1.22-2.48a6.55,6.55,0,0,0-3.15-1.35c-.79-.1-1.57.72-3.32.72s-2.88.83-3.58,0S236.85,46.64,236.58,47.16Z"/><path class="cls-2" d="M162.17,26.72c1,.83,1.52.31,2.72.62s2.15,2.58,2.79,2.89a1.59,1.59,0,0,0,1.92-.62,15.89,15.89,0,0,0,1-2.79s0,2.06,1,2.47,3.35-.31,4-.2,4.39.72,5.43,1.34,3.59,1,4.31,2.37.8,6,1.2,6.5,1.76-1.65,2.08-2.16,2-.21,2.56.51,1.83,2.48,1.76,3.2-.32,1.86-.8,1.44-1.28-.31-1-1.14.48-2.58-.16-2.58h-1.2s-1.2-.41-2,1.14-.16,3.1.4,3.1,1.84,0,1.84.41-1.36,1.65-1.28,2.38a17.9,17.9,0,0,0,1.44,3.72c.32.51,2,1,2.47,1.14s-1.12.2-.72.93,1,2.47,1.92,2.89,3.35,2.27,3.67,3.1,2.24-.62,2.64-.72.28,2.16,1.44,2.26,1.51-.21,2.47-1.14.72-2.17.8-3.1,0-1.65,1-1.34,1.6-.21,1.52-1.24-1-2.27.72-2.58,2.56-1.65,3.6-1.65,3.91.52,4.23,0,1.68-3.6,2.56-3.7,3.19.4,5.26,0,4.31-2,5-1.86,2.47.1,1.92-.51-1.36-2.06-2.56-2.06-1.4-3.18-1.08-3.18,3.24,1.22,3.16,2.25.48,2.37,2.08,2a1.57,1.57,0,0,0,1-2.38,15.74,15.74,0,0,1-.88-2.17c-.32-.72-1.08-3,.6-3.2s4.83,2.16,4.75.51a10,10,0,0,1,.48-4.34c.48-.93,1.52-1.55,1-1.86s-1.28.41-1.84-1.13a3.08,3.08,0,0,1,1.12-3.3c.64-.62,4-4.64,5.83-5.26s3.12-3,1.83-3.51-3.83-1.45-5.51.2S238,17.57,236.09,17s-2.21-3.25-3.3-4.66c-1.58-2-.62-6.07-2.29-5.76l-1.68.31a9,9,0,0,0-3.18-.11c-1.6.4-2.63,1.54-3.54,1.29-1.79-.48-3.4.63-3.85.74a13.64,13.64,0,0,1-7.63-.47,21,21,0,0,0,5.21,0c1.9-.34,5.1-1.1,6.66-1.41s.31-1-.25-1.12c-2-.26-5.09-1.24-7.51-1.39-1.9-.11-3.13.57-5,.63-2.43.07-5.33-.09-7.23,1.29-1.67,1.22-3.83,1.35-4,1.57-1,1.24-1.83,4.33-2.71,3.51s-1-2.89-2.16-2.06-.08,2.89-1,4.33-3.67,1.24-4.47.72-1.6-.93-4.79-.72-6.71,1.45-6,2.68-1.44,2-2,1.34-3.12.72-3,2-.4,2.68-1.76,2.37a1.94,1.94,0,0,0-2.4,1.75c-.08,1-3.12,1.76-3.35,1.76S160.73,25.49,162.17,26.72Z"/><path class="cls-2" d="M144.25,126.93c-.13,1.55,1.18,1.08,2.75,1.08s4.32-.31,4.85.46,2.88,2,3.54,2.63,2.75.77,2.88.15-1.44-2.32-2.36-2.16S153,128,152,126.92s-3-1.08-3.8-1.08A26.09,26.09,0,0,0,144.25,126.93Z"/><path class="cls-2" d="M153.81,122.6c-1.2.15-.91,1.85.53,1.55S155,122.44,153.81,122.6Z"/><path class="cls-2" d="M154.47,135.42c-1.2.25-.92,3,.52,2.51S155.65,135.16,154.47,135.42Z"/><path class="cls-2" d="M171.76,133.71c-1.2.25-.91,3,.53,2.51S172.94,133.46,171.76,133.71Z"/><path class="cls-2" d="M159.84,134.36a14.6,14.6,0,0,0,2.36.31c.92,0,1.44.62,2.23,1.09s2.23-.62,2.75-.62,1.18,1.86,1.31-.15a3.27,3.27,0,0,0-2.62-3.25,6.42,6.42,0,0,0-3,.15C162.07,132,159.84,134.36,159.84,134.36Z"/><path class="cls-2" d="M269.64,104c.53-.31,2.62-1.09,3.8-1.7a34.34,34.34,0,0,1,5.5-2.17c.53,0,7.07.16,8-.31s4.47-1.12,5.51,2.28-1.19,2.05-2.23,2.67.39,2,.91,2,2.36,2,3.27,2a11.94,11.94,0,0,1,3.15,1.08s2.22,2,3.41,2,3.18,2.4,4.49.86,1.93-4.73,3.24-4.42,2.75,1.55,4.45,1.55,4.85-.31,5.37.46-3.54,3.4-3.28,4,.79.47,2.1-1.39,3.28-1.86,4.85-2.32,2.36,2.47,2.62,3.4,1.44,2.63,2.36,4.65,1.83,4.8,2.88,7-.12,6.52.93,7.91,3.79,2.62,4.44,4.48,2.23,3.71,2.75,3.87,2.75,3.71,2.88,4.64-.79,2.94,1.31,3.1a8.73,8.73,0,0,0,4.59-1.39c.65-.31,5.76-2.63,6.42-1.71s-.91,5-1,6-3.93,6.34-4.07,7.74-2.36,3.87-3.79,4.18-4.46,4.65-5.5,6-2.75,4.48-3.54,4.79-1.39,4.42-1,5,.47,3.47,1.65,4.71,1.57,2.17,1,3.25.26,3.56,0,5.57-2.49,4-3,4.63-3,2.33-4.06,3.88-2,2.94-1.7,3.71a23.89,23.89,0,0,1,1.18,5.57c-.13.93-3.6,1.41-4.65,2s.47,2.62.73,3.86-1.84,3.25-2.75,4.34-3.41,4.8-5.11,6.19-4.16,1.11-5.86,1a8.61,8.61,0,0,0-5.14,2.14c-.65.78-1.57.62-2.88-.15s-1.44-1.86-1.57-3.57a11.56,11.56,0,0,0-.53-2.79,8.62,8.62,0,0,0-1.57-3.87c-1.18-1.24-1.57-2.63-2.22-3.57s1.21-3.57,1.08-5.27-2.39-3.7-3-4.79-2-4-2.49-5.11a13.71,13.71,0,0,1-1-6.34,8,8,0,0,1,2.51-5.84c1-.93.64-2.06-.28-3.91s.13-5-.66-6-2-7.13-3.44-8.06-3-.92-2.19-3.09,0-4.33,1.31-5.73.65-2.32-.79-3.25-.92-1.39-2.1-.31-2.75,1.7-3.67.62-.66-2.79-2.36-4a6.19,6.19,0,0,0-5.09-.5c-.65.31-2,3-3.82,3.29s-3.14-.15-5-.15-3.41.15-3.67,1.24-.65,1.7-1.83.62S258,157,258,157s-2.18-4.27-2.83-6.13-2.93-1.92-5.42-3.31-1-2.94-1.31-4.49-1.57-2.17-.92-2.32.53-1.24,2-3.4.52-4.49.27-5.73-1.57-3.09-.27-5.11,2.13-6.81,3.18-8.05,4.16-2.47,5.6-3.24.53-2.79,1.31-5.11,2-3.41,2.36-3.41,1.85-1.61,3.4-2.63C266.36,103.4,269.11,104.33,269.64,104Zm57.26,63.62c-.36-.67-2.62-.47-3,.31s-.79,4.33.39,4.64,3.29-3.71,2.6-4.95Z"/><path class="cls-2" d="M350.73,190.55c-1.64-.55-1.83,2-3.14,3.72s-2.75,3.09-3.28,2.94-3.41,1.08-2.49,3.4.79,4.65-.13,5.73.78,4.18.53,5.88.39,2.78,2.23,2.78,2.49-.77,3.27-2.78.91-4,1.7-5.73,1.44-5.27,1.83-6.19a16.25,16.25,0,0,0,1-5.57C352.18,193,351.65,190.82,350.73,190.55Z"/><path class="cls-2" d="M398.29,150.82c-.85.44-1.72,7.89-.15,8.51s2.64-4.65,2.12-5.42S399.47,150.15,398.29,150.82Z"/><path class="cls-2" d="M288,93c-1.24,0-1.84,2.33-1,3.1s1.58.62,2.23-.46a2,2,0,0,0-1.1-2.61Z"/><path class="cls-2" d="M278,95.51c-.32.59,1,.78,1.31.16S278.93,93.82,278,95.51Z"/><path class="cls-2" d="M293.58,98.14c-.48.34.78,1.39,1.44,1.7s1.18,1.24,1.7,1.39,2.22,0,1.7-1.55a2,2,0,0,0-2.1-1.55C296,98.14,294.27,97.68,293.58,98.14Z"/><path class="cls-2" d="M262.3,66.82c-1.19.23-1.31,1.71-2.1,1.71s-1.7.31-1.44,1.39.79,1.86,0,2.32.13,2.32,1.18,2.48,2.23-.77,3.14-1.24,2.23-1.39,2.23-2.79a5.41,5.41,0,0,0-.79-3.25A2.34,2.34,0,0,0,262.3,66.82Z"/><path class="cls-2" d="M263.74,62.23c-1.06.42-.66,2-.13,2.79s1.44,2.48,2.75,3.09,4.06,1.24,3,1.86-4.08,3.67-4.34,4.6,3.43.51,3.43.51-.79,1.09-.13,1.39,1-1.08,2.09-1.08,3.14.78,4.19.78,2.75-1.7,2.62-2.79A5.74,5.74,0,0,0,274.58,70c-1.18-.62-2.49-3.41-3.28-4s2.91-2.67,2-3.75-3.7-.43-4.75-1.2-2,.16-2.62,1.09S264.52,61.91,263.74,62.23Z"/><path class="cls-2" d="M272.39,83.74c-.13-1.39-2.75-2.63-4.45-2.94s-1.44-1.24.39-1.39,1.7-.93,3.27-1.24,3.15-.77,4.33-.93,1.18-1.4,1.18-2.32,3.28-1.24,3.28-1.24,1.84-2,2.88-2.94,2.88-.78,4.33-.31-.13-1.08-.66-1.86-.13-2.48.27-3.41,2.75-1.4,3.41-1.08,0,1.7.13,2.94a3.2,3.2,0,0,0,1.18,2l1-.15h1.7a6.38,6.38,0,0,0,3.1-.43c1.31-.46,2.27.12,2.8-.19s2-.31,3.93.46.92-1.4,1.31-2.63,1.18-3.4,2.49-3.25,2.36,1.08,3.41.31-2-1.86-2-2.32,2.49-.46,4.71-.62a29.41,29.41,0,0,0,4.59-.31c1-.31-.79-2.48-1.18-2.48a32.5,32.5,0,0,1-4.32.16c-1.31-.16-2.75.93-3.93,1.24s-1.44-1.86-2.1-2.79a2.34,2.34,0,0,1,.79-3.56c1.7-.93,4.72-2.94,5.24-3.87s-2.09-.77-4.58-.62.39.93-2,3.72-3.54.93-5.37,2.79-.52,2,1.18,2.63.26,2.48-.13,2.94-2.36,2.17-2.09,3.41-1.31,2-1.31,2-4.85,1.24-5.77,1.39-1.18-.77-.91-1.7-1-3.1-1.18-4.49-2.1.62-2.23,1.55-2.62,1.08-4.06.46-2.23-2.94-2-3.41-.78-2.79-.78-3.41,3.06-5.12,5.55-5.75A18.46,18.46,0,0,0,295,46.41c1.7-1.55,2.49-3.41,3-3.87s9.57-5.59,12.85-6.22,10.54,3.15,11.73,3.5a42.35,42.35,0,0,1,4.72,2c2.88,1.24,5.61-.11,7.44.2s2.78,2.28,4,2.9,0,1.08-2.89,2.16a8.33,8.33,0,0,1-6.42.16c-1.58-.62-2.49-.62-1.31.31s.79,1.39.91,2.79,2,.16,2.36-.15.39-.93,1.84.15a2.15,2.15,0,0,0,2.62.31c.62-.15.13-1.86.53-2.48s2-.62,2.36-.93a5.88,5.88,0,0,1,2.09-.93c.78-.16.66,1.39,1.44,1.86s.39-2,.13-2.63-.52-2.32-.13-2.79,3.15-.77,3.8-.15-1,2.48-.65,3.56,1.31-.61,2-1.55,2.09,0,4.45-.46,1.84-2,4.32-1.08,1.84.93,2.63,0,2.22.16,3.66-.46,1.45,0,2.5.62,2.36-1.24,2.88-1.86,2.62-.62,3.67-.46,2.36.93,3.41.93a7.91,7.91,0,0,1,2.75.93s2.23.93,2.75.31-.13-1.39-2.1-2.48-1.18-2.94,0-3.09,1-.93,2-1.55,2.09-2.94,3.14-2.48a36.67,36.67,0,0,1,3.28,2.17c1.28.78.13,1.86-.13,2.63a8.69,8.69,0,0,0,.65,4.18c.4.47-.39,2.17-1.44,2.94s-2.62,2.42-2.26,2.74,3.54-1.39,3.54-1.39A30.1,30.1,0,0,1,390,43.19c.92-.78,1.83-.78,2.1.15s1.7,1.24,3,.62,0-1.08-.13-2.48-2.23-.62-3.41-.31-2.1,1.71-2.48,1.71-.4-.93-.13-2.33-.53-2.16-.53-2.94.39-.78,1.31-2.32.92,1.08,1,2.47,1,.78,1.84.62.39-2,1-2.94,2.1-1.08,3.4.31,1.18.93,2.75,1.55,1.7.78,1.84,2.17,1.18,1.55,1.83,1.08.13-2.32-.26-2.94-3.54-1.71-4.59-2.79.53-1.08,1.71-1.08,3.4.16,3.4.16a11.75,11.75,0,0,0,3.8-1.71c1.31-1.08,2.23-1.08,3.54-1.7a8.19,8.19,0,0,1,4.72-.31c1.31.31,2.22-.62,3.53-1.24s3-4.65,3.15-.77c0,.5,3.66,1.24,4.19,1.08a12.17,12.17,0,0,0,3.8-1.55c3.8-2.32.51-3.41,2-1.24.51.76,2.1-.62,4.85.77s0,0,.78.93,1.18-.16,3-.47a12,12,0,0,1,4.19.16c1.18.15,3.8.15,5,1.08s-.79,2.94-1.44,3.56,1,1.08,1.57.93a38,38,0,0,1,6.81.31c2,.31,2.75,1.4,3.67,1.4A4.53,4.53,0,0,0,463.75,34c.53-.62,3.8-.93,4.85-1.08a12.26,12.26,0,0,1,4.32.31,5.51,5.51,0,0,1,.79,3.1,2.76,2.76,0,0,0,2.1,2.48c.92.16,2.62-1.86,3.28-2.17s1.44,1.39,1.83.93,3.67.15,5-.62,2.09,0,2.75-.31a4.7,4.7,0,0,0,1.7-2.63c0-.62.53-1.08,0-2s-2.36-.31-4.33-.93.08-3.84.66-2.17c.32,1,2.09,0,3.4.31s.82-.44,1.48-.44,3,.77,4.32.77,2.36,1.7,2.36,1.7a33.3,33.3,0,0,1-4.45,1.24c-.79,0-.27,1.24.39,1.24A4.48,4.48,0,0,1,496.69,35c.92.77,5,0,5.5,0a10.76,10.76,0,0,1,3.67,1.81,18,18,0,0,0,2.62,1.55,37.25,37.25,0,0,0,4.46-.31c2.22-.31,5.11-.31,5.63.15s2,.93,3,2,1.83.62,3.27.46a42.12,42.12,0,0,1,4.19-.46c1.31,0,5.63-.16,6.42,1.24s1.7,1.08,1.7,1.08a17.37,17.37,0,0,1,1.7-2.94c.53-.46,2.23.31,3.27.93s6.16,0,7.47.31,3.15,1.86,2.1,3.1.79,3.41.39,4.64-1.45,1.39-2.49,1.7,1,1.86,2,2.94-.52,1.39-1.44.93-3.28.16-6.29,1.08-4.19,2.78-7.34,2.94-1.84-.15-5.76-.15-3.8,1.24-4.59,2.79.39,1.24,0,2.47a14.87,14.87,0,0,0-1,3.72c0,1.08-2.36,1.24-3.15,2.17a25.71,25.71,0,0,1-4.33,5,17.65,17.65,0,0,0-3.79,4.34A15.44,15.44,0,0,1,515.34,74c1-1.86-1.18-4.49-1.31-6.5s.66-2.63,2-4.49,4.46-2.48,5.77-3.4,6.68-5.26,6.68-5.26a16.19,16.19,0,0,1-2.36,1.39c-1.32.62-2.89,1.86-3.93,1.86s-.65-1.24-.78-2.48-2.62-.31-3.54.93-2.62,2-4.45,3.56-1.31,1.39-2.49,1.55a6.71,6.71,0,0,1-4.06-1.55c-.92-.77-1.84.62-4.72.77s-6.16-.31-7.47-.16-4.58,4.64-6.55,5.42-4.55,2.17-3.89,3.23,1.83-.93,2.36-.93-.39,2.17.79,2.17,1.83-.78,3-.93,2.1,1.08,2.36,2.79-.52,3.09-1,5.26a11.17,11.17,0,0,1-3.41,6.19,68.49,68.49,0,0,0-6.16,6.19c-.66.93-3,.16-3.4-.46s-1.57,1.39-2.49,1.86a3.09,3.09,0,0,0-1.84,2.63c0,1.24-2.62,1.24-2.62,2s1.57,2.94,2.22,4-.13,4.49-1.31,5.26-1.7,1.7-3.27.62-.26-1.71.39-3.41-.65-2.63-.92-3.1-1.31.93-1.83,1.08-.53-1.39-.13-2.32a3.7,3.7,0,0,0-.65-3.09c-.39-.16-2.88,2.32-3.93,2.16s-.13-2.94.26-3.71-.79-.16-1.57.62-2.49,2.48-3.14,2.32-2,1.24-.92,2.16,1.44,1.71,2.1,1.86a10.18,10.18,0,0,0,3-.46c.65-.15,2,1.08.65,2.48s-4.06,1.55-3.53,2.48a41.18,41.18,0,0,1,2.88,4.49c1,2.17.65,4.49.92,6.19s-3.8,5.26-5,6.35-2.36,3.71-4.32,5-6.16,2.32-6.81,1.86-2.49.78-2.36,2.48,1,1.55,1,2a14.71,14.71,0,0,1-1.83,3.1c-.53.77-2.36,0-2.1-2.32s1.57-3.25,1.44-4.34a1.18,1.18,0,0,0-2.1-.77c-.79.93-3.27,3.56-3.27,3.56a11.71,11.71,0,0,0,2.1,3.87c1.18,1.08,2,2.63,3.54,5s.39,4.33,0,6-1.7,1.7-2.75,2-1.31.77-1.7,1.7-2.29,5.37-2.55,4.6-1.9-6-1.9-6a12.89,12.89,0,0,0-2.88-4.18c-1.71-1.39-2.36-2-2.36-.62s-1,4-1,5-2.36-2.79-2.36-4.33-.39-4.18-.26-6.65-2.75-.16-2.75-.16S420.55,144,419.9,144s0-5.09.13-6.94a7.55,7.55,0,0,0-1-4.18c-.39-.62-2.62-3.09-3-4.8s-1.18-1.08-2-.15-.53.93-3.67.93-3,2.32-4.59,3.71-2.88,4-4.71,5-2.62,1.86-2.62,2.94.74,4.65.35,6.2a18.21,18.21,0,0,1-2.31,4.48c-.92,1.55-1.7,4-2.49,4s-1-2.16-1-3.56-2.22-4.64-2.75-5.73S387.7,140,387.7,140s-1.57-5.11-1.44-6.5.13-5.26.13-5.26-2.09,2.48-3,2.32-1.83-1.86-1.71-3.87-1.57-1.86-2.49-2.17-2.1-3.09-2.75-3.09a1.42,1.42,0,0,0-1.57.93c-.53.93-3.27.77-3.93.77a27.45,27.45,0,0,1-5.76-.62c-1.18-.46-2.49-3.25-3.15-3.56s-2.62,1.7-3.4,1.39-2.36-1.86-4.07-2.79-2.22-3.1-2.88-4.49-2.88.77-2.62,2.32,3.15,3.56,3.15,4.65.52,1.39,2,2.78.26,2.17,1.18,2.48,2.23-1.24,3.54-2,1.18-1.86,1.84-1.86.52,2,1.57,2.16a9.35,9.35,0,0,1,4.45,3.25c.66,1.24-.65,2-1.18,3.09a23.44,23.44,0,0,1-3.41,5.42c-1.31,1.24-2.75,2.94-4.72,3.4s-2.22,1.71-3.8,1.86-5.9,2.63-6.55,3.1-4.19,1.7-5.24,1.24-1.44-3.56-1.84-5.88a18,18,0,0,0-1.31-4.49,21.41,21.41,0,0,0-3.28-3.87c-.53-.46-1.83-4.18-2-5.73s-1.57-.93-1.83-2.63-1.71-4-2-5.11-2.88.16-3.93.31a2.83,2.83,0,0,1-2.75-3.41c.26-2.47,1.31-2.47,2.62-2.47s.79-.78,2.1-2.33,1.71-4.64,1.83-6.65-.92-1.08-2-.77a9.53,9.53,0,0,1-3.14.62c-.53-.15-2.62-.93-3-.46s-2.62.15-3.14-.62-3.15-1.71-3.41-2.32,0-4.33-.52-5.26-1.7.16-2.36.78-2.49,1.08-2,1.55,2.23,1.39,2.1,2.63-1.31,1.55-2,2.17-3,3.07-3.43,2.3-.63-5.7-1-6.32a14.5,14.5,0,0,1-2-3.56c-.39-1.39-1.83-1.86-2.75-2.94s-3.54-2.78-4.59-4-2.89-2.17-3-.62,1.84,1.86,2.62,3.41a7.55,7.55,0,0,0,3.4,2.94,35,35,0,0,1,3.41,2.48,4.06,4.06,0,0,1-2,.31c-.92-.15.52,3.34.39,4.42s-1.7-.39-2-1.63a6.94,6.94,0,0,0-1.57-3.1c-.52-.46-3.93-1.7-4.46-2s-2.75-2-3-3.4-2.23-1.55-2.75-1.24-2.49,2-3.41,2-2.36-.77-3.41-.93-1.18,2-1.57,3.25-2.1.31-3,1.39-2.49,2.17-2.1,3.1,1,.93-.13,1.7-1.84,2.32-3,2.48-2.75.77-3.41.31-1.18,1.55-1.57,2-1-1.39-1.7-2.17-2.36-.16-2.88-.31-1-1.55-1.7-2.17a2,2,0,0,1,0-2.48,2.35,2.35,0,0,0,.65-2.63c-.39-1.39-.65-4.49.66-5.11s4.45,0,6,0,4.27.64,4.72-.31A8.51,8.51,0,0,0,272.39,83.74ZM321.78,56.5c-.45,1.46,3,2.63,3.67,1.55S322.43,54.33,321.78,56.5ZM317.33,94c.26.62,1.57-.93,2.62-.93s3.41.47,4.07-.62,2.75-1.24,4.45-.93,3.15,1.71,4.32,1.86a20.46,20.46,0,0,0,5.37-.46c1-.31.79-2.48-.92-3.56s-3.15-2.79-4.72-3.41-2.1-1.24-1.18-1.55,2.1-1.55.79-1.55-2.49.46-2.62,1.24a3.56,3.56,0,0,1-1.44,2c-.53.31-1.84,1.55-2.23.62S324,83,323.35,82.81s-1.7,0-2.49,1.55a12.74,12.74,0,0,1-2.49,3.72c-.79.62-1.83,2.48-1,2.79s0,3.09,0,3.09Zm30-10.84c-1.59,1.25-2.1,2.94-1.44,4s2.49,4.49,3.41,4.8,4.19.93,2.88,2.32-1.57,1.86-2.75,1.7-.65,3.72.26,4,3.67,1.4,4.59,1.55,3.93-.31,3.8-1.24-.66-4.64-1.7-5.57,1.44-1.86.79-2.63-1.57-.46-2.1-1.39a7.52,7.52,0,0,0-1.57-2.48c-.79-.62-1.44.62-1.31-1.08s2-2.79,2.75-1.86,3.15.46,3.67,0-1-1.86-1.44-2.79-3-1.7-3.41-1.39-1.44,1.24-2.49,2-3.15-.57-3.94.05Z"/><path class="cls-2" d="M362.39,39.31c-1,1.15-3,.77-4.45-.16A15.78,15.78,0,0,0,354,37.76c-.78-.31.13-2.17,1-2.63s3.41-1.86,5.24-2.79,2.36-2.78,3.67-2.78,7.6-1.55,8.39-1.24,4.58.62,5.37-.62,3.53-.46,2.88.62-3,3.56-4.59,3.1-6-.31-8,0-3.8,1.7-5.5,2.79-1.31,2.32-.65,2.48a1.81,1.81,0,0,1,.67,2.47Z"/><path class="cls-2" d="M495,70.12c-.76.25-3-.31-2.23,1.86a11.93,11.93,0,0,1,.78,5.42,23.83,23.83,0,0,0,.27,5.72c.26.46,1.31,1.55,2,1.24s-.26-3.4-.26-4a2.49,2.49,0,0,1,1.44-1.7c.53-.15,0-2.79-.66-3.87s-1.57-1.7-1-1.86,1.18-1.39.79-1.71S495.9,69.82,495,70.12Z"/><path class="cls-2" d="M493.67,85.91c-1,.28-1.31,1.86-1.31,2.32s-3.67,1.39-2.49,2.63,2.36.31,4.19.15a15.7,15.7,0,0,0,3.54-.77s2.75.15,2.36-1.39-3.28-1.71-3.8-1.55S494.72,85.6,493.67,85.91Z"/><path class="cls-2" d="M490.66,91.95c-1,.68-.39,3.41-1.18,5.26s-1.44,3.56-2,3.56a10.19,10.19,0,0,0-4.06,2.17c-.79.93-4.58-.77-5.11,0a16.65,16.65,0,0,1-2.23,2.32c-.66.62-2.49.16-2.1,2s1.31,3.56,2.1,3.56,1.84-.62,1.84-2.32,1.83,0,2.75-.15,1.44-1.24,1.83-2.48-.52.62,1,1.08a1.48,1.48,0,0,0,2.1-1.24c0-.46,2.88-1.24,3.41-1.7s2.62-1.24,2.76-1.86,0-4.18.65-4.49,1.57-.31.53-2.48S492,91,490.66,91.95Z"/><path class="cls-2" d="M461.83,122.44c-1.94.36-3.14,5.27-1.57,5.11S463.58,122.13,461.83,122.44Z"/><path class="cls-2" d="M542.67,232c-.53.31,0,2,.52,2.63a6.34,6.34,0,0,1,.65,3.41c-.13.62-2.36,1.39-1.31,2.16s3,0,2.75.93-1.31,2.17-.13,2.48,1.57-1.08,2.09-2.16a6,6,0,0,1,1.83-2.63c.92-.62,0-2-.52-2s-.78.77-2,0-.92-.46-1.7-2S544,231.26,542.67,232Z"/><path class="cls-2" d="M541.58,241.95c-.21.75-1.31.93-2.09,1.7s0,1.08-2.23,2.63-5,3.25-5.5,4.64.53,2.17,2.62,2.32,1.57.62,3-1.24a32.79,32.79,0,0,1,4.45-4.49,5.72,5.72,0,0,0,1.7-3.87S541.75,241.48,541.58,241.95Z"/><path class="cls-2" d="M497.87,243.18c-1.44,1.7,1.44,1.7,1,3.41s2,1.08,2.62.78,2.23-3.87,2-4.8-2.88,1.55-3.53,1.4A19.14,19.14,0,0,1,497.87,243.18Z"/><path class="cls-2" d="M488.3,231.11c0-1.58-.79,1.7-1.31.31s.53-3.72-.78-2.79-2,1.7-2.1,2.48-2.49,1.08-2.36.31,1-2.63.13-3.4-2.49-1.09-3.67-1.55.13-2-3-1.24a12.38,12.38,0,0,0-4.32,1.7s-2.89-1.08-3.8.15-1.44,5.18-1.44,5.18-4.46-1.46-5.25-1.31-2.09,1.39-3.27,1.85-3.15.93-3.93.16-2.09-2.17-1.7-3.1,3.27-2.17,2.23-3.72-1.7-1.86-1.84-2.78.39-1.39-1.18-3.25-1.18-4-.52-4.33-2.18-2.17-2.7-2.94,1.26-3.56,2.31-4.33,4.19-3.71,5.11-3.71,2.36.46,3.27-.31,3.67-.46,3.67-1.08-.76-5.6-.11-6.37,4.44,1,4.83.33,1-3.25,1.83-3.71,1.45-1.55,2.63,0,2.36,2.17,2.88.62.13-1.09,1.31-2.48-.13-3.72,1-2.33,2,2.48,2,2.48-.13-3.1.66-3.1,1.57,1.55,2,1.55,3.93-.93,4.59.15-1.84,4-.92,5.11,2.75,1.7,4.06,2.63,2.88,3.1,3.54,1.24,2-4.64,1-6,.26-5.89.66-6.19,1,3.56,2.36,5.26,2.62,2.94,3.27,4.79.79,5.11,2,6.2,5.72,1,5.58,2.4a13.71,13.71,0,0,0,1.89,6.73c1.44,2.63,4.22,8.8,4.22,11.27s-4.22,5.29-5.4,7.15-1.57,4.33-2.09,5.26-.27.77-2.23,1.39-3.41,2.48-3.93,1.86-2.36-1.7-2.88-.93-1.18,2.47-2.1.62-3-1.55-3.41-1.86-.39-1.24-.39-2.79-1.7-1.7-1.84-2.16S488.3,231.58,488.3,231.11Z"/><path class="cls-2" d="M548.69,200.77c1.71.77,4.72-2.79,3.54-3.25S548.69,200.77,548.69,200.77Z"/><path class="cls-2" d="M532.06,208.51c-.26,1.51-1.83.78-2.62-.61s-2.36-2.48,0-1.86S532.19,207.73,532.06,208.51Z"/><path class="cls-2" d="M421.58,158c-1.63.39,2.36,3.72,2.75,4.18s3.93,4,3.93,5.73,1.14,7,1.79,7.62,5.15,1.67,5.67,2.91,1.7,1.55,1.7-.16.26-3.72.91-4.64.39-2.32-.65-2.17-2-2-3.67-3.41a24.74,24.74,0,0,1-4.53-4.28c-1.57-2-3.54-3.25-4.59-4.34A4.35,4.35,0,0,0,421.58,158Z"/><path class="cls-2" d="M426.72,149.82c-1,.15-1,2.48-.52,3.25s1.57.31,2.23,3.09a35,35,0,0,0,2.49,6.66c.52,1.08,2.75,2.63,3.54,3.4s2-.31,1.44-1.24a10.72,10.72,0,0,1-1.71-3.41,14.35,14.35,0,0,0-1.83-4.64c-1-1.86-2-2.32-2.62-3.56A22.8,22.8,0,0,0,426.72,149.82Z"/><path class="cls-2" d="M437.73,179.1a2,2,0,0,0,.62,2.76l0,0a5.59,5.59,0,0,0,3.15.46c1.31-.15,3.14-.62,1.7-1.55s-3.15,0-3.67-1.24S438.25,178.32,437.73,179.1Z"/><path class="cls-2" d="M445.33,180.34c-.92.46-2.36.77-1.31,1.86a3.39,3.39,0,0,0,3.27,1.4c1.57-.16,3.93.93,4.06,0s-1.44-2.32-2.09-2.32A35.55,35.55,0,0,1,445.33,180.34Z"/><path class="cls-2" d="M458.17,185.45c-.29,1.38,2,2,2.1.46a1.07,1.07,0,1,0-2.1-.46Z"/><path class="cls-2" d="M465.11,186.53c.2,1.69,2.88-.93,2.88-.93s2.1-.31,2.1-1.39-2.1-2.48-2.89-1.24S465,185.45,465.11,186.53Z"/><path class="cls-2" d="M459.34,169.19c-.79.31-.65,1.08-.91,2.63s-1.44,2.63-.4,3.41,3-2.63,3.54-1.55-.13,1.55.79,2.94a3,3,0,0,0,2.62,1.2s-.13-3.72-1.57-4.65-2.36-2-.66-1.7,2.62-.47,2.23-1.39-2.88-.47-3.67-.31A3.56,3.56,0,0,1,459.34,169.19Z"/><path class="cls-2" d="M460.13,166.09c-.91,1.08-.26,2.17,1.18,2s4.46-.62,5.11-.62,1.57-2,1-2a40.51,40.51,0,0,0-4.59.93A12.88,12.88,0,0,1,460.13,166.09Z"/><path class="cls-2" d="M473.49,163.92c-1.2-.61-3.4,5.11-1.83,5.57S474.41,164.39,473.49,163.92Z"/><path class="cls-2" d="M455.58,155.72c0-1.09-2.1.31-2.23,1.39s1.45,2-1,2-2.62,2.32-3.14,2.79a5,5,0,0,1-2.1.93c-1,.31-1.31,1.54-1.57,2.32s-2.09-1.39-2.62-.78-.13,3.56.78,6,3.28,4,3.93,4a10,10,0,0,1,2.89.31c.91.31,3.93.62,3.8-.77s-.39-3.56.92-5,2.62-2.17,2-4.18-2-3.25-1-4.18,2-1.24,2-2S455.81,160.82,455.58,155.72Z"/><path class="cls-2" d="M462,133.9c-.92,0,.13,1.7-1.18,2.79s-2.75,1.54-2,3.4,3.54,3.25,2.88,4-2.62,2.32-2.88,3.71,3.15-2.17,4.06-3.56,2.75-.62,3.14-1.39l.39-.77a19.78,19.78,0,0,1-2.62-.77c-1.18-.47-2.62,1.24-2-1.24s2.62-2,2.23-3.87A2.62,2.62,0,0,0,462,133.9Z"/><path class="cls-2" d="M463.14,147.36c-.45.19-1.57,2.94-.13,2.94s3.93.47,3.4-.31S464.58,146.74,463.14,147.36Z"/><path class="cls-2" d="M467.47,145c-.53,0-2.23,3.25.13,3.09S469.3,145.2,467.47,145Z"/><path class="cls-2" d="M467.86,150.82c-1.83,2.79-1.7,2.17-3,1.55s-3.41,1.39-3,2.17,3.28-.16,3.93,1.24.65,1.55,2,1.24,2.62-2.47,2.23-3.56A9.75,9.75,0,0,0,467.86,150.82Z"/><path class="cls-2" d="M476.77,169c-1,1.16-1.44,1.24.79,1.71s2.88.46,2,1.7-1.57,2.79-.79,2.94,3.14-.62,3.4,0-.52.77,2.1,1.24a4.87,4.87,0,0,1,3.67,2.17c.52.62,2.1,2.63,1,2.63s-2.23,1.54-1.44,1.7,3.14-.46,3.27,0,1.44,3.41,2.75,3.25,2.1-2.94,2.75-3.72,3.28-1.24,3.54.15a5.4,5.4,0,0,0,2.62,3.72c1.57.93,3.41,1.86,3.54,1.08s-.79-3.71-1.84-4.18-2.88-3.09-2.88-4.18-1.57-1.39-2.36-2.16-1.44-2.94-3.41-3.41-2.49-1.24-4.58-2.47-6.81-1.24-7-.46,0,0-1.57-.62-2.75,0-3.14-1.09S478,167.64,476.77,169Z"/></g></svg>