<svg width="24" height="24" viewBox="0 0 24 24" fill="none" xmlns="http://www.w3.org/2000/svg">
<path d="M5.31966 10.36C4.38966 10.36 3.63965 9.60999 3.63965 8.67999V5.32001C3.63965 4.39001 4.38966 3.64001 5.31966 3.64001H8.67964C9.60964 3.64001 10.3596 4.39001 10.3596 5.32001V8.67999C10.3596 9.60999 9.60964 10.36 8.67964 10.36H5.31966Z" stroke="black" stroke-width="1.2" stroke-linecap="round" stroke-linejoin="round"/>
<path d="M15.3197 10.36C14.3897 10.36 13.6396 9.60999 13.6396 8.67999V5.32001C13.6396 4.39001 14.3897 3.64001 15.3197 3.64001H18.6796C19.6096 3.64001 20.3596 4.39001 20.3596 5.32001V8.67999C20.3596 9.60999 19.6096 10.36 18.6796 10.36H15.3197Z" stroke="black" stroke-width="1.2" stroke-linecap="round" stroke-linejoin="round"/>
<path d="M5.31966 20.36C4.38966 20.36 3.63965 19.61 3.63965 18.68V15.32C3.63965 14.39 4.38966 13.64 5.31966 13.64H8.67964C9.60964 13.64 10.3596 14.39 10.3596 15.32V18.68C10.3596 19.61 9.60964 20.36 8.67964 20.36H5.31966Z" stroke="black" stroke-width="1.2" stroke-linecap="round" stroke-linejoin="round"/>
<path d="M15.3197 20.36C14.3897 20.36 13.6396 19.61 13.6396 18.68V15.32C13.6396 14.39 14.3897 13.64 15.3197 13.64H18.6796C19.6096 13.64 20.3596 14.39 20.3596 15.32V18.68C20.3596 19.61 19.6096 20.36 18.6796 20.36H15.3197Z" stroke="black" stroke-width="1.2" stroke-linecap="round" stroke-linejoin="round"/>
</svg>
