<svg width="24" height="24" viewBox="0 0 24 24" fill="none" xmlns="http://www.w3.org/2000/svg">
<path d="M5.64967 8.08341C5.20967 10.1634 5.74969 12.2534 7.13969 13.8134C7.81969 14.5734 8.20966 15.5834 8.20966 16.5734V17.6534C8.20966 18.3834 8.67966 18.9934 9.32966 19.2034C9.54966 20.4634 10.6497 21.4834 11.9997 21.4834C13.3597 21.4834 14.4597 20.4634 14.6697 19.2034C15.3197 18.9834 15.7897 18.3834 15.7897 17.6534V16.5734C15.7897 15.5734 16.1797 14.5834 16.8897 13.7634C17.9297 12.5834 18.4997 11.0634 18.4997 9.48343C18.4997 5.40343 14.7397 2.28344 10.5997 3.14344C8.14968 3.65344 6.16967 5.62341 5.64967 8.08341Z" stroke="black" stroke-width="1.2" stroke-linecap="round" stroke-linejoin="round"/>
<path d="M11.9893 6.08337C13.8793 6.08337 15.4193 7.62339 15.4193 9.50339" stroke="black" stroke-width="1.2" stroke-linecap="round" stroke-linejoin="round"/>
<path d="M8.91016 18.4235H15.0801" stroke="black" stroke-width="1.2" stroke-linecap="round" stroke-linejoin="round"/>
<path d="M8.40723 15.3334H15.6426" stroke="black" stroke-width="1.2" stroke-linecap="round" stroke-linejoin="round"/>
</svg>
