<svg width="24" height="24" viewBox="0 0 24 24" fill="none" xmlns="http://www.w3.org/2000/svg">
<path fill-rule="evenodd" clip-rule="evenodd" d="M20.0009 8.8014C20.1552 8.28639 20.0948 7.98374 19.9935 7.80823C19.8922 7.63272 19.6603 7.42908 19.1371 7.30525C18.6113 7.18081 17.884 7.16354 16.98 7.29475C15.949 7.44439 14.7547 7.77734 13.4829 8.28807L13.0378 7.89719C12.897 7.77293 12.7411 7.67782 12.5771 7.61187C16.4722 5.92651 19.9168 5.72943 20.8361 7.32176C21.5303 8.52424 20.6208 10.4637 18.6665 12.431C20.5741 14.3749 21.4548 16.2834 20.7686 17.472C20.0947 18.6392 18.0638 18.8449 15.4933 18.2077C15.4524 18.3192 15.4107 18.4285 15.3679 18.5357C14.9891 19.4857 14.5258 20.2872 13.9865 20.8591C13.4463 21.4321 12.7958 21.8076 12.0609 21.8076C11.326 21.8076 10.6754 21.4321 10.1352 20.8591C9.59595 20.2872 9.1327 19.4857 8.75385 18.5357C8.7066 18.4172 8.66051 18.296 8.61562 18.1723C6.02549 18.822 3.97643 18.6204 3.29891 17.4469C2.61567 16.2635 3.48575 14.3663 5.37627 12.4312C3.43905 10.4724 2.54009 8.54425 3.23141 7.34686C4.1458 5.76308 7.55843 5.94955 11.4277 7.60995C11.262 7.67597 11.1043 7.77172 10.9622 7.89719L10.5185 8.28678C9.27145 7.79096 8.10067 7.46689 7.08751 7.31984C6.18351 7.18864 5.4562 7.20591 4.93042 7.33035C4.40722 7.45417 4.17533 7.65782 4.074 7.83333C3.97267 8.00884 3.91225 8.31148 4.06661 8.8265C4.22174 9.34405 4.57044 9.98256 5.13606 10.6998C5.408 11.0447 5.72265 11.3984 6.07645 11.7555C7.00737 10.9062 8.12298 10.0647 9.37821 9.28816L7.58378 10.864C7.21081 11.1882 7 11.6637 7 12.1717V12.2349C6.92682 12.299 6.85481 12.3631 6.78397 12.4272C6.85484 12.4907 6.92685 12.5542 7 12.6176V13.883C6.67688 13.6249 6.36986 13.3643 6.08024 13.1029C5.75228 13.438 5.45907 13.7699 5.20356 14.0939C4.63793 14.8112 4.28924 15.4497 4.13411 15.9672C3.97975 16.4822 4.04017 16.7849 4.1415 16.9604C4.24283 17.1359 4.47472 17.3395 4.99791 17.4634C5.5237 17.5878 6.25101 17.6051 7.15501 17.4739C7.40205 17.438 7.65847 17.3916 7.92308 17.3348C8.13449 17.4407 8.37133 17.5 8.62162 17.5H10.7179C10.3229 17.6518 9.93433 17.7875 9.55447 17.9067C9.58819 17.9979 9.62256 18.0875 9.65758 18.1753C10.0094 19.0576 10.4163 19.7389 10.8431 20.1917C11.2691 20.6435 11.6808 20.8346 12.0609 20.8346C12.441 20.8346 12.8527 20.6435 13.2786 20.1917C13.7055 19.7389 14.1123 19.0576 14.4642 18.1753C14.4944 18.0996 14.5241 18.0226 14.5533 17.9444C14.1399 17.8157 13.716 17.6674 13.2846 17.5H15.3784C15.6229 17.5 15.8547 17.4434 16.0624 17.342C16.3561 17.4071 16.64 17.4594 16.9125 17.499C17.8165 17.6302 18.5438 17.6129 19.0696 17.4885C19.5928 17.3646 19.8247 17.161 19.926 16.9855C20.0273 16.81 20.0877 16.5073 19.9334 15.9923C19.7783 15.4748 19.4296 14.8363 18.8639 14.119C18.6017 13.7864 18.2997 13.4456 17.9611 13.1013C17.659 13.373 17.3382 13.6437 17 13.9116V12.6508C17.0868 12.5763 17.172 12.5017 17.2556 12.4271C17.172 12.3518 17.0868 12.2765 17 12.2012V12.1717C17 11.6637 16.7892 11.1882 16.4162 10.864L14.5596 9.23359C15.8559 10.0248 17.0072 10.8864 17.9649 11.7568C18.3293 11.3907 18.6528 11.0281 18.9314 10.6747C19.4971 9.95746 19.8458 9.31896 20.0009 8.8014Z" fill="black"/>
<path d="M10.61 17.0317V14.0567C10.61 13.7817 10.835 13.5567 11.11 13.5567H12.89C13.165 13.5567 13.39 13.7817 13.39 14.0567V17.0317" stroke="black" stroke-width="1.2" stroke-linecap="round" stroke-linejoin="round"/>
<path d="M10.5 17.0317H8.87501C8.04501 17.0317 7.37501 16.3267 7.37501 15.4567V12.1017C7.37501 11.6317 7.57001 11.1917 7.91501 10.8917L11.04 8.14672C11.595 7.65672 12.405 7.65672 12.96 8.14672L16.085 10.8917C16.43 11.1917 16.625 11.6317 16.625 12.1017V15.4567C16.625 16.3267 15.955 17.0317 15.125 17.0317H13.5" stroke="black" stroke-width="1.2" stroke-linecap="round" stroke-linejoin="round"/>
<path d="M9 2.88856C9.90764 2.32486 10.9682 2 12.0955 2C13.1561 2 14.1497 2.27709 15 2.76435" stroke="black" stroke-linecap="round" stroke-linejoin="round"/>
<path d="M10.5386 4.93951C10.9876 4.65289 11.5226 4.5 12.0863 4.5C12.6213 4.5 13.1182 4.63378 13.5386 4.88219" stroke="black" stroke-linecap="round" stroke-linejoin="round"/>
</svg>
