<svg width="24" height="24" viewBox="0 0 24 24" fill="none" xmlns="http://www.w3.org/2000/svg">
<path d="M8.02687 19.7747C6.5599 18.4227 5.47126 16.7277 4.62375 15.0326C3.13431 12.0537 2.76194 8.7025 3.1343 5.35125C4.62375 5.35125 5.74083 5.35125 7.60263 4.60653C9.48929 3.85186 10.9539 2.74472 11.6986 2C12.4433 2.74472 14.0317 3.90138 15.7946 4.60653C17.284 5.2023 19.5182 5.35125 21.0076 5.35125C21.0076 8.7025 20.4757 12.7985 19.5182 15.0326C18.8893 16.5001 17.7889 18.3382 16.1613 19.8043" stroke="black" stroke-width="1.2" stroke-linecap="round" stroke-linejoin="round"/>
<path d="M14.4247 14.7957V14.1624C14.4247 12.9996 13.3998 12.0537 12.1398 12.0537C10.8797 12.0537 9.85483 12.9996 9.85483 14.1624V14.7957" stroke="black" stroke-width="1.2" stroke-linecap="square" stroke-linejoin="round"/>
<path d="M16.7097 19.235V17.3179C16.7097 16.2134 15.8142 15.3179 14.7097 15.3179H9.56988C8.46531 15.3179 7.56988 16.2134 7.56988 17.3179V19.235" stroke="black" stroke-width="1.2"/>
<path d="M7.56988 19.3656C8.82469 20.522 10.3246 21.4563 12.137 22C13.8623 21.4824 15.385 20.5176 16.664 19.3656" stroke="black" stroke-width="1.2" stroke-linecap="round" stroke-linejoin="round"/>
<path fill-rule="evenodd" clip-rule="evenodd" d="M12.1399 19.3656C11.6352 19.3656 11.226 18.9564 11.226 18.4516C11.226 17.9468 11.6352 17.5376 12.1399 17.5376C12.6447 17.5376 13.0539 17.9468 13.0539 18.4516C13.0539 18.9564 12.6447 19.3656 12.1399 19.3656Z" fill="black"/>
<path d="M9.39784 7.83899C10.2274 7.32379 11.1967 7.02687 12.2271 7.02687C13.1964 7.02687 14.1045 7.28012 14.8817 7.72547" stroke="black" stroke-linecap="round" stroke-linejoin="round"/>
<path d="M10.804 10.1268C11.2145 9.86485 11.7035 9.72511 12.2187 9.72511C12.7077 9.72511 13.1617 9.84739 13.546 10.0744" stroke="black" stroke-linecap="round" stroke-linejoin="round"/>
</svg>
