<svg width="24" height="24" viewBox="0 0 24 24" fill="none" xmlns="http://www.w3.org/2000/svg">
<path d="M10.3607 15.166C10.5777 15.166 10.7523 15.3383 10.7523 15.5626V19.0033C10.7523 19.2263 10.5747 19.4 10.3607 19.4H4.99156C4.77456 19.4 4.6 19.2277 4.6 19.0033V15.5626C4.6 15.3397 4.77762 15.166 4.99156 15.166H10.3607ZM19.0084 11.4894C19.2181 11.4894 19.4 11.6601 19.4 11.8992V18.9902C19.4 19.2346 19.2193 19.4 19.0084 19.4H13.6393C13.4296 19.4 13.2477 19.2293 13.2477 18.9902V11.8992C13.2477 11.6548 13.4284 11.4894 13.6393 11.4894H19.0084ZM10.3607 4.6C10.5804 4.6 10.7523 4.77287 10.7523 4.99203V12.2777C10.7523 12.4927 10.5756 12.6697 10.3607 12.6697H4.99156C4.77192 12.6697 4.6 12.4969 4.6 12.2777V4.99203C4.6 4.77704 4.77673 4.6 4.99156 4.6H10.3607ZM19.0084 4.6C19.2235 4.6 19.4 4.77188 19.4 5.00006V8.59374C19.4 8.82487 19.2233 8.9938 19.0084 8.9938H13.6393C13.4242 8.9938 13.2477 8.82192 13.2477 8.59374V5.00006C13.2477 4.76893 13.4244 4.6 13.6393 4.6H19.0084Z" stroke="black" stroke-width="1.2"/>
</svg>
