<svg width="24" height="24" viewBox="0 0 24 24" fill="none" xmlns="http://www.w3.org/2000/svg">
<path d="M10 5L10.6 5V5L10 5ZM10 19L9.4 19V19L10 19ZM14 19L13.4 19V19L14 19ZM14 5L14.6 5V5L14 5ZM2 14L2.6 14L2 14ZM2 19L1.4 19L2 19ZM6 19L5.4 19L6 19ZM6 14L6.6 14L6 14ZM18 10L17.4 10V10H18ZM18 19L18.6 19V19H18ZM22 19L22.6 19V19H22ZM22 10L21.4 10V10H22ZM13.4 5L13.4 19L14.6 19L14.6 5L13.4 5ZM10.6 19L10.6 5L9.4 5L9.4 19L10.6 19ZM10.6 5C10.6 4.2268 11.2268 3.6 12 3.6L12 2.4C10.5641 2.4 9.4 3.56406 9.4 5L10.6 5ZM12 20.4C11.2268 20.4 10.6 19.7732 10.6 19L9.4 19C9.4 20.4359 10.5641 21.6 12 21.6L12 20.4ZM13.4 19C13.4 19.7732 12.7732 20.4 12 20.4L12 21.6C13.4359 21.6 14.6 20.4359 14.6 19L13.4 19ZM14.6 5C14.6 3.56406 13.4359 2.4 12 2.4L12 3.6C12.7732 3.6 13.4 4.2268 13.4 5L14.6 5ZM5.4 14L5.4 19L6.6 19L6.6 14L5.4 14ZM2.6 19L2.6 14L1.4 14L1.4 19L2.6 19ZM2.6 14C2.6 13.2268 3.2268 12.6 4 12.6L4 11.4C2.56406 11.4 1.4 12.5641 1.4 14L2.6 14ZM4 20.4C3.2268 20.4 2.6 19.7732 2.6 19L1.4 19C1.4 20.4359 2.56406 21.6 4 21.6L4 20.4ZM5.4 19C5.4 19.7732 4.7732 20.4 4 20.4L4 21.6C5.43594 21.6 6.6 20.4359 6.6 19L5.4 19ZM6.6 14C6.6 12.5641 5.43594 11.4 4 11.4L4 12.6C4.7732 12.6 5.4 13.2268 5.4 14L6.6 14ZM21.4 10V19H22.6V10H21.4ZM18.6 19V10H17.4V19H18.6ZM18.6 10C18.6 9.2268 19.2268 8.6 20 8.6L20 7.4C18.5641 7.4 17.4 8.56406 17.4 10L18.6 10ZM20 20.4C19.2268 20.4 18.6 19.7732 18.6 19L17.4 19C17.4 20.4359 18.5641 21.6 20 21.6L20 20.4ZM21.4 19C21.4 19.7732 20.7732 20.4 20 20.4L20 21.6C21.4359 21.6 22.6 20.4359 22.6 19L21.4 19ZM22.6 10C22.6 8.56406 21.4359 7.4 20 7.4L20 8.6C20.7732 8.6 21.4 9.2268 21.4 10L22.6 10ZM2 23.6H22V22.4H2V23.6Z" fill="black"/>
</svg>
