<svg width="24" height="24" viewBox="0 0 24 24" fill="none" xmlns="http://www.w3.org/2000/svg">
<path fill-rule="evenodd" clip-rule="evenodd" d="M9.39083 13.8589C8.32523 13.8589 7.46139 12.995 7.46139 11.9294C7.46139 10.8638 8.32523 9.99999 9.39083 9.99999C10.4564 9.99999 11.3203 10.8638 11.3203 11.9294C11.3203 12.995 10.4564 13.8589 9.39083 13.8589Z" stroke="black" stroke-width="1.2" stroke-linecap="round" stroke-linejoin="round"/>
<path d="M5.5 19.2V18.1011C5.5 16.8233 6.53499 15.7883 7.81277 15.7883H11.2755C12.5533 15.7883 13.5883 16.8233 13.5883 18.1011V19.2" stroke="black" stroke-width="1.2" stroke-linecap="round" stroke-linejoin="round"/>
<path fill-rule="evenodd" clip-rule="evenodd" d="M15.51 14.02C14.676 14.02 14 13.3439 14 12.51C14 11.676 14.676 11 15.51 11C16.3439 11 17.02 11.676 17.02 12.51C17.02 13.3439 16.3439 14.02 15.51 14.02Z" stroke="black" stroke-width="1.2" stroke-linecap="round" stroke-linejoin="round"/>
<path d="M14.275 15.8H16.985C17.985 15.8 18.795 16.61 18.795 17.61V18.47" stroke="black" stroke-width="1.2" stroke-linecap="round" stroke-linejoin="round"/>
<path d="M16.6946 1.95996C19.8208 1.40874 22.7846 3.48403 23.3358 6.61014" stroke="black" stroke-width="1.2" stroke-linecap="round" stroke-linejoin="round"/>
<path d="M17.4002 4.49907C18.9399 4.22757 20.4218 5.26522 20.6933 6.80494" stroke="black" stroke-width="1.2" stroke-linecap="round" stroke-linejoin="round"/>
<mask id="path-7-inside-1_2806_50599" fill="white">
<path fill-rule="evenodd" clip-rule="evenodd" d="M4.21154 9.67141C4.21926 7.28653 6.36678 5.26085 9.13733 5.26085C10.9022 5.26085 12.671 5.97812 14.1979 7.8529C14.4072 8.10983 14.7851 8.14848 15.042 7.93921C15.0668 7.91902 15.0896 7.89726 15.1103 7.87418C15.646 7.62057 16.2756 7.3933 16.9075 7.70929C17.1379 7.82451 17.4495 8.03313 17.6952 8.30734C17.9331 8.57276 18.0744 8.85834 18.0825 9.15489C18.0821 9.16391 18.0819 9.17298 18.0819 9.1821C18.0819 9.51347 18.3505 9.7821 18.6819 9.7821C19.7951 9.7821 21.096 10.9977 21.096 12.6985C21.096 14.2338 20.0835 15.5342 18.6884 15.9654C18.3718 16.0633 18.1944 16.3992 18.2923 16.7158C18.3902 17.0324 18.7261 17.2098 19.0427 17.1119C20.9264 16.5297 22.296 14.7748 22.296 12.6985C22.296 10.6776 20.8906 8.9407 19.2134 8.6311C19.0981 8.18047 18.8537 7.80203 18.5889 7.50648C18.2229 7.09808 17.7809 6.80435 17.4442 6.63599C16.4046 6.1162 15.4048 6.42717 14.7892 6.6993C13.1129 4.84094 11.1398 4.06085 9.13733 4.06085C5.94979 4.06085 3.24879 6.32219 3.02632 9.28799C2.38448 9.60093 1.8787 10.0147 1.5344 10.6135C1.13904 11.301 1.00213 12.1555 1.00213 13.2007C1.00213 15.6212 3.15575 17.3172 5.6209 17.3172C5.95227 17.3172 6.2209 17.0485 6.2209 16.7172C6.2209 16.3858 5.95227 16.1172 5.6209 16.1172C3.64705 16.1172 2.20213 14.7991 2.20213 13.2007C2.20213 12.2365 2.33352 11.631 2.57466 11.2117C2.80337 10.814 3.17356 10.5108 3.8243 10.2455C3.93985 10.2017 4.03834 10.1232 4.10707 10.0227C4.15626 9.9508 4.1902 9.86766 4.20426 9.77793C4.20982 9.74293 4.21231 9.70729 4.21154 9.67141Z"/>
</mask>
<path d="M4.21154 9.67141L3.01155 9.66753L3.0115 9.68226L3.01181 9.69698L4.21154 9.67141ZM14.1979 7.8529L15.1284 7.09508L15.1284 7.09508L14.1979 7.8529ZM15.042 7.93921L14.2842 7.00877L14.2842 7.00877L15.042 7.93921ZM15.1103 7.87418L14.5969 6.78958L14.3785 6.89296L14.2171 7.07281L15.1103 7.87418ZM16.9075 7.70929L16.3708 8.7826L16.3708 8.7826L16.9075 7.70929ZM17.6952 8.30734L16.8016 9.1082L16.8016 9.1082L17.6952 8.30734ZM18.0825 9.15489L19.2813 9.20838L19.2833 9.16517L19.2821 9.12194L18.0825 9.15489ZM18.6884 15.9654L18.334 14.8189L18.334 14.8189L18.6884 15.9654ZM18.2923 16.7158L17.1458 17.0702L17.1458 17.0702L18.2923 16.7158ZM19.0427 17.1119L19.3971 18.2584L19.3971 18.2584L19.0427 17.1119ZM19.2134 8.6311L18.0508 8.92847L18.241 9.67188L18.9955 9.81116L19.2134 8.6311ZM18.5889 7.50648L17.6952 8.30734L17.6952 8.30734L18.5889 7.50648ZM17.4442 6.63599L17.9809 5.56268L17.9809 5.56268L17.4442 6.63599ZM14.7892 6.6993L13.8982 7.50308L14.48 8.14803L15.2744 7.79683L14.7892 6.6993ZM3.02632 9.28799L3.55223 10.3666L4.17143 10.0647L4.22296 9.37775L3.02632 9.28799ZM1.5344 10.6135L2.57466 11.2117L2.57466 11.2117L1.5344 10.6135ZM2.57466 11.2117L3.61492 11.8099L3.61492 11.8099L2.57466 11.2117ZM3.8243 10.2455L3.39866 9.12352L3.38488 9.12874L3.37124 9.13431L3.8243 10.2455ZM4.10707 10.0227L5.09747 10.7003L5.09747 10.7003L4.10707 10.0227ZM4.20426 9.77793L3.01913 9.5896L3.01872 9.59219L4.20426 9.77793ZM9.13733 4.06085C5.81066 4.06085 3.02173 6.52101 3.01155 9.66753L5.41154 9.6753C5.41679 8.05205 6.9229 6.46085 9.13733 6.46085V4.06085ZM15.1284 7.09508C13.3821 4.95101 11.2764 4.06085 9.13733 4.06085V6.46085C10.528 6.46085 11.9599 7.00523 13.2675 8.61072L15.1284 7.09508ZM14.2842 7.00877C14.5412 6.79951 14.9191 6.83815 15.1284 7.09508L13.2675 8.61072C13.8953 9.38152 15.0291 9.49744 15.7999 8.86964L14.2842 7.00877ZM14.2171 7.07281C14.2379 7.04958 14.2604 7.02816 14.2842 7.00877L15.7999 8.86965C15.8733 8.80987 15.9413 8.74493 16.0035 8.67556L14.2171 7.07281ZM17.4442 6.63599C16.2594 6.04357 15.144 6.53058 14.5969 6.78958L15.6237 8.95879C15.8658 8.84422 16.0329 8.784 16.1643 8.76277C16.2707 8.74556 16.3224 8.7584 16.3708 8.7826L17.4442 6.63599ZM18.5889 7.50649C18.2229 7.09812 17.7809 6.80437 17.4442 6.63599L16.3708 8.7826C16.4244 8.80937 16.502 8.85475 16.5857 8.91614C16.6693 8.97751 16.7438 9.0438 16.8016 9.1082L18.5889 7.50649ZM19.2821 9.12194C19.2636 8.45117 18.946 7.90503 18.5889 7.50648L16.8016 9.1082C16.8581 9.17135 16.8807 9.21208 16.8875 9.22676C16.893 9.23852 16.8839 9.22334 16.883 9.18783L19.2821 9.12194ZM19.2819 9.1821C19.2819 9.19089 19.2817 9.19965 19.2813 9.20838L16.8837 9.1014C16.8825 9.12816 16.8819 9.15507 16.8819 9.1821H19.2819ZM18.6819 8.5821C19.0133 8.5821 19.2819 8.85072 19.2819 9.1821H16.8819C16.8819 10.1762 17.6878 10.9821 18.6819 10.9821V8.5821ZM22.296 12.6985C22.296 11.5354 21.8499 10.5245 21.1988 9.80021C20.5662 9.09658 19.6586 8.5821 18.6819 8.5821V10.9821C18.8184 10.9821 19.1179 11.0754 19.414 11.4048C19.6916 11.7135 19.896 12.1608 19.896 12.6985H22.296ZM19.0427 17.1119C20.9268 16.5295 22.296 14.7743 22.296 12.6985H19.896C19.896 13.6932 19.2402 14.5388 18.334 14.8189L19.0427 17.1119ZM19.4388 16.3615C19.5366 16.6781 19.3593 17.014 19.0427 17.1119L18.334 14.8189C17.3842 15.1125 16.8522 16.1204 17.1458 17.0702L19.4388 16.3615ZM18.6884 15.9654C19.0049 15.8676 19.3409 16.0449 19.4388 16.3615L17.1458 17.0702C17.4394 18.02 18.4473 18.5519 19.3971 18.2584L18.6884 15.9654ZM21.096 12.6985C21.096 14.2334 20.0838 15.5341 18.6884 15.9654L19.3971 18.2584C21.7689 17.5253 23.496 15.3162 23.496 12.6985H21.096ZM18.9955 9.81116C20.0317 10.0024 21.096 11.1799 21.096 12.6985H23.496C23.496 10.1753 21.7495 7.87897 19.4312 7.45103L18.9955 9.81116ZM17.6952 8.30734C17.8707 8.50314 17.9961 8.71476 18.0508 8.92847L20.3759 8.33372C20.2001 7.64619 19.8368 7.10093 19.4825 6.70563L17.6952 8.30734ZM16.9075 7.70929C17.138 7.82453 17.4495 8.03315 17.6952 8.30734L19.4825 6.70563C18.9963 6.16301 18.4238 5.78416 17.9809 5.56268L16.9075 7.70929ZM15.2744 7.79683C15.7928 7.56768 16.3598 7.43543 16.9075 7.70929L17.9809 5.56268C16.4495 4.79696 15.0168 5.28667 14.304 5.60176L15.2744 7.79683ZM9.13733 5.26085C10.7948 5.26085 12.4458 5.89298 13.8982 7.50308L15.6803 5.89552C13.7799 3.7889 11.4848 2.86085 9.13733 2.86085V5.26085ZM4.22296 9.37775C4.39151 7.13072 6.48039 5.26085 9.13733 5.26085V2.86085C5.4192 2.86085 2.10606 5.51367 1.82968 9.19823L4.22296 9.37775ZM2.57466 11.2117C2.7719 10.8687 3.07048 10.6015 3.55223 10.3666L2.50041 8.20937C1.69849 8.60037 0.985496 9.16081 0.494139 10.0152L2.57466 11.2117ZM2.20213 13.2007C2.20213 12.2367 2.33347 11.6311 2.57466 11.2117L0.494139 10.0152C-0.0553901 10.9708 -0.197868 12.0744 -0.197868 13.2007H2.20213ZM5.6209 16.1172C3.63984 16.1172 2.20213 14.7929 2.20213 13.2007H-0.197868C-0.197868 16.4494 2.67165 18.5172 5.6209 18.5172V16.1172ZM5.0209 16.7172C5.0209 16.3858 5.28953 16.1172 5.6209 16.1172V18.5172C6.61502 18.5172 7.4209 17.7113 7.4209 16.7172H5.0209ZM5.6209 17.3172C5.28953 17.3172 5.0209 17.0485 5.0209 16.7172H7.4209C7.4209 15.7231 6.61502 14.9172 5.6209 14.9172V17.3172ZM1.00213 13.2007C1.00213 15.6125 3.1458 17.3172 5.6209 17.3172V14.9172C4.1483 14.9172 3.40213 13.9856 3.40213 13.2007H1.00213ZM1.5344 10.6135C1.13897 11.3011 1.00213 12.1558 1.00213 13.2007H3.40213C3.40213 12.3173 3.52807 11.9609 3.61492 11.8099L1.5344 10.6135ZM3.37124 9.13431C2.56316 9.46378 1.93777 9.91202 1.5344 10.6135L3.61492 11.8099C3.66897 11.7159 3.78395 11.5579 4.27736 11.3567L3.37124 9.13431ZM3.11667 9.34512C3.18439 9.24613 3.28171 9.16788 3.39866 9.12352L4.24994 11.3675C4.59798 11.2354 4.89229 11.0002 5.09747 10.7003L3.11667 9.34512ZM3.01872 9.59219C3.033 9.50109 3.06757 9.41688 3.11667 9.34512L5.09747 10.7003C5.24494 10.4847 5.34741 10.2342 5.3898 9.96367L3.01872 9.59219ZM3.01181 9.69698C3.01104 9.66056 3.01357 9.62462 3.01913 9.5896L5.38939 9.96626C5.40608 9.86125 5.41357 9.75403 5.41127 9.64585L3.01181 9.69698Z" fill="black" mask="url(#path-7-inside-1_2806_50599)"/>
</svg>
