<svg width="24" height="24" viewBox="0 0 24 24" fill="none" xmlns="http://www.w3.org/2000/svg">
<path d="M11.5387 13.2748L12.4205 12.393L13.3024 11.5111L10.8332 9.04184C11.715 8.15997 13.3024 7.98359 15.0662 9.74734C15.948 10.6292 16.8299 12.393 15.5071 13.7158C16.8299 15.0386 19.9165 17.2433 21.2393 18.5661C21.6802 19.007 22.1211 20.3298 21.2393 21.2117C20.3574 22.0936 19.0346 21.6526 18.5936 21.2117C17.2708 19.8889 15.0662 16.8023 13.7433 15.4795C12.4205 16.8023 10.6568 15.9205 9.77491 15.0386C8.01116 13.2748 8.18754 11.6875 9.06941 10.8056L11.5387 13.2748Z" stroke="black" stroke-linejoin="round"/>
<path d="M20 16.5L20.52 15.74C20.95 15 20.69 14.06 19.96 13.63L19.45 13.34C18.42 12.75 18.42 11.26 19.45 10.67L19.96 10.38C20.7 9.95 20.95 9 20.52 8.27L19.49 6.49C19.06 5.75 18.12 5.5 17.38 5.93L16.87 6.22C15.84 6.81 14.56 6.07 14.56 4.88V4.29C14.56 3.44 13.87 2.75 13.02 2.75H10.96C10.11 2.75 9.42 3.44 9.42 4.29V4.88C9.42 6.07 8.13997 6.81 7.10997 6.22L6.59999 5.93C5.85999 5.5 4.91998 5.76 4.48998 6.49L3.45998 8.27C3.02998 9.01 3.28998 9.95 4.01998 10.38L4.52999 10.67C5.55999 11.26 5.55999 12.75 4.52999 13.34L4.01998 13.63C3.27998 14.06 3.02998 15 3.45998 15.74L4.48998 17.52C4.91998 18.26 5.85999 18.51 6.59999 18.08L7.10997 17.79C8.13997 17.2 9.42 17.94 9.42 19.13V19.72C9.42 20.57 10.11 21.26 10.96 21.26H13.02C13.87 21.26 14.56 20.57 14.56 19.72V19.13C14.56 18.7116 14.7182 18.3489 14.9681 18.08" stroke="black" stroke-width="1.2" stroke-linecap="round" stroke-linejoin="round"/>
</svg>
