<svg width="24" height="24" viewBox="0 0 24 24" fill="none" xmlns="http://www.w3.org/2000/svg">
<path d="M9.7542 9.5C9.4838 8.70809 8.73332 8.1386 7.84984 8.1386C6.73875 8.1386 5.83803 9.03931 5.83803 10.1504C5.83803 11.2615 6.73875 12.1622 7.84984 12.1622C8.07736 12.1622 8.29605 12.1244 8.5 12.0548" stroke="black" stroke-width="1.2" stroke-linecap="round" stroke-linejoin="round"/>
<path d="M10.3 17.3992H7.03571C6.37033 17.3992 5.83021 16.859 5.83021 16.1937V15.7318C5.83021 14.8003 4.8282 14.221 4.02191 14.6828L3.6227 14.9099C3.04343 15.2465 2.30758 15.0508 1.97097 14.4715L1.16468 13.0781C0.828078 12.4988 1.02378 11.763 1.60305 11.4264L2.00229 11.1994C2.80858 10.7375 2.80858 9.57113 2.00229 9.10928L1.60305 8.88226C1.03161 8.54566 0.828078 7.80982 1.16468 7.23055L1.97097 5.83715C2.30758 5.26571 3.04343 5.06218 3.6227 5.39879L4.02191 5.6258C4.8282 6.08765 5.83021 5.50838 5.83021 4.57684V4.11499C5.83021 3.4496 6.37033 2.90947 7.03571 2.90947H8.64829C9.31367 2.90947 9.85381 3.4496 9.85381 4.11499V4.57684C9.85381 5.50838 10.8558 6.08765 11.6621 5.6258L12.0613 5.39879C12.6406 5.06218 13.3764 5.25788 13.713 5.83715L14.5193 7.23055C14.8559 7.80199 14.6602 8.54566 14.0809 8.88226L13.6817 9.10928C13.3497 9.29949 13.0958 9.50001 13.0958 9.60001" stroke="black" stroke-width="1.2" stroke-linecap="square" stroke-linejoin="round"/>
<path d="M20.8316 19.3396H7" stroke="black" stroke-width="1.2" stroke-linecap="round" stroke-linejoin="round"/>
<path d="M21 17.3926H8.53683V9.78001H13.8724C15.8935 9.78001 17.7191 10.6558 19.0126 12.0638C19.6189 12.7173 20.1107 13.4853 20.4543 14.3476C20.8114 15.2166 21 16.1733 21 17.1771V17.3926Z" stroke="black" stroke-width="1.2" stroke-linecap="round" stroke-linejoin="round"/>
<path d="M20.3128 14.6238H15.9137C15.2804 14.6238 14.7684 14.159 14.7684 13.5863C14.7684 13.0137 15.2804 12.5489 15.9137 12.5489H19.336" stroke="black" stroke-width="1.2" stroke-linecap="round" stroke-linejoin="round"/>
<path fill-rule="evenodd" clip-rule="evenodd" d="M9.92464 13.236V13.9299H9.23074V13.236H9.92464Z" stroke="black" stroke-width="1.2" stroke-linecap="round" stroke-linejoin="round"/>
<path fill-rule="evenodd" clip-rule="evenodd" d="M12.6935 13.236V13.9299H11.9996V13.236H12.6935Z" stroke="black" stroke-width="1.2" stroke-linecap="round" stroke-linejoin="round"/>
<path d="M17.5373 17.3926C17.5373 17.7766 17.8472 18.0865 18.2312 18.0865C18.6152 18.0865 18.925 17.7766 18.925 17.3926" stroke="black" stroke-width="1.2" stroke-linecap="round" stroke-linejoin="round"/>
<path d="M9.92464 17.3926C9.92464 17.7766 10.2345 18.0865 10.6185 18.0865C11.0025 18.0865 11.3124 17.7766 11.3124 17.3926" stroke="black" stroke-width="1.2" stroke-linecap="round" stroke-linejoin="round"/>
</svg>
