<svg width="24" height="24" viewBox="0 0 24 24" fill="none" xmlns="http://www.w3.org/2000/svg">
<path d="M10 5H10.6H10ZM10 19H9.4H10ZM14 19H13.4H14ZM14 5H14.6H14ZM2 14H2.6H2ZM2 19H1.4H2ZM6 19H5.4H6ZM6 14H6.6H6ZM18 10H17.4H18ZM18 19H18.6H18ZM22 19H22.6H22ZM22 10H21.4H22ZM13.4 5L13.4 19H14.6L14.6 5H13.4ZM10.6 19L10.6 5H9.4L9.4 19H10.6ZM10.6 5C10.6 4.2268 11.2268 3.6 12 3.6V2.4C10.5641 2.4 9.4 3.56406 9.4 5H10.6ZM12 20.4C11.2268 20.4 10.6 19.7732 10.6 19H9.4C9.4 20.4359 10.5641 21.6 12 21.6V20.4ZM13.4 19C13.4 19.7732 12.7732 20.4 12 20.4V21.6C13.4359 21.6 14.6 20.4359 14.6 19H13.4ZM14.6 5C14.6 3.56406 13.4359 2.4 12 2.4V3.6C12.7732 3.6 13.4 4.2268 13.4 5H14.6ZM5.4 14L5.4 19H6.6V14H5.4ZM2.6 19L2.6 14H1.4L1.4 19H2.6ZM2.6 14C2.6 13.2268 3.2268 12.6 4 12.6V11.4C2.56406 11.4 1.4 12.5641 1.4 14H2.6ZM4 20.4C3.2268 20.4 2.6 19.7732 2.6 19H1.4C1.4 20.4359 2.56406 21.6 4 21.6V20.4ZM5.4 19C5.4 19.7732 4.7732 20.4 4 20.4V21.6C5.43594 21.6 6.6 20.4359 6.6 19H5.4ZM6.6 14C6.6 12.5641 5.43594 11.4 4 11.4V12.6C4.7732 12.6 5.4 13.2268 5.4 14H6.6ZM21.4 10V19H22.6V10H21.4ZM18.6 19V10H17.4V19H18.6ZM18.6 10C18.6 9.2268 19.2268 8.6 20 8.6V7.4C18.5641 7.4 17.4 8.56406 17.4 10H18.6ZM20 20.4C19.2268 20.4 18.6 19.7732 18.6 19H17.4C17.4 20.4359 18.5641 21.6 20 21.6V20.4ZM21.4 19C21.4 19.7732 20.7732 20.4 20 20.4V21.6C21.4359 21.6 22.6 20.4359 22.6 19H21.4ZM22.6 10C22.6 8.56406 21.4359 7.4 20 7.4V8.6C20.7732 8.6 21.4 9.2268 21.4 10H22.6ZM2 23.6H22V22.4H2V23.6Z" fill="black"/>
</svg>
