<svg width="24" height="24" viewBox="0 0 24 24" fill="none" xmlns="http://www.w3.org/2000/svg">
<path d="M15.6057 16.4302C15.5174 16.3419 15.4291 16.2536 15.3409 16.3419L12.2511 18.4606C12.1628 18.3723 11.898 18.3723 11.7214 18.3723C11.1918 18.4606 10.7504 18.902 10.8386 19.52C10.9269 20.0496 11.3683 20.491 11.9863 20.4027C12.5159 20.3145 12.9573 19.8731 12.8691 19.2551L15.694 16.695C15.694 16.695 15.694 16.5185 15.6057 16.4302Z" fill="black"/>
<path fill-rule="evenodd" clip-rule="evenodd" d="M5.65419 18.4537H4.84757C5.10396 14.819 8.13379 11.95 11.8337 11.95C15.5337 11.95 18.5635 14.819 18.8199 18.4537L18.4546 18.4537L18.0133 18.4537L17.1305 18.4537V19.4537L18.0133 19.4537L18.4546 19.4537L19.3374 19.4537H19.8374V18.9537C19.8374 14.5334 16.2541 10.95 11.8337 10.95C7.41339 10.95 3.83 14.5334 3.83 18.9537V19.4537H4.33H5.65419L6.53698 19.4537H7.03698V18.9537C7.03698 16.3045 9.18455 14.157 11.8337 14.157C13.0506 14.157 14.1605 14.6094 15.0064 15.356L15.6681 14.6063C14.6466 13.7046 13.3035 13.157 11.8337 13.157C8.80071 13.157 6.31175 15.4863 6.05824 18.4537L5.65419 18.4537Z" fill="black"/>
<path fill-rule="evenodd" clip-rule="evenodd" d="M10.1558 5.36839C8.24925 5.73748 6.56626 6.74779 5.3324 8.16412L5.32999 8.16689L5.32998 8.16688C4.12753 9.53023 3.3539 11.3024 3.22058 13.24H6.2C6.53137 13.24 6.8 13.5086 6.8 13.84C6.8 14.1714 6.53137 14.44 6.2 14.44H3.22058C3.3241 15.9447 3.81373 17.3495 4.59057 18.5408C4.77157 18.8183 4.69329 19.1901 4.41572 19.3711C4.13816 19.5521 3.76641 19.4738 3.58541 19.1962C2.58203 17.6576 2 15.8088 2 13.84C2 11.3712 2.91507 9.09143 4.4288 7.3745C5.9379 5.64286 8.04409 4.43873 10.4307 4.10664C10.8958 4.03138 11.3664 4 11.85 4C12.3352 4 12.7952 4.03159 13.2683 4.1065C15.6553 4.43837 17.7619 5.6426 19.2712 7.37449C20.7849 9.09142 21.7 11.3712 21.7 13.84C21.7 15.8088 21.118 17.6576 20.1146 19.1962C19.9336 19.4738 19.5618 19.5521 19.2843 19.3711C19.0067 19.1901 18.9284 18.8183 19.1094 18.5408C19.8863 17.3495 20.3759 15.9447 20.4794 14.44H17.48C17.1486 14.44 16.88 14.1714 16.88 13.84C16.88 13.5086 17.1486 13.24 17.48 13.24H20.4794C20.3461 11.3024 19.5725 9.53023 18.37 8.16688L18.3676 8.16413C17.1337 6.74779 15.4507 5.73748 13.5442 5.36839C14.5607 6.70188 15.9965 9.08027 16.3626 12.2943C16.4001 12.6235 16.1636 12.9208 15.8343 12.9583C15.5051 12.9958 15.2078 12.7593 15.1703 12.4301C14.7259 8.52782 12.5467 5.9644 11.85 5.21465C11.1527 5.96502 8.97056 8.53204 8.52863 12.4397C8.49139 12.769 8.19428 13.0057 7.86501 12.9685C7.53574 12.9312 7.299 12.6341 7.33623 12.3048C7.70032 9.08549 9.13821 6.70334 10.1558 5.36839Z" fill="black"/>
</svg>
