<svg width="24" height="24" viewBox="0 0 24 24" fill="none" xmlns="http://www.w3.org/2000/svg">
<path d="M4 21.6107H9.39796" stroke="black" stroke-width="1.2" stroke-linecap="round" stroke-linejoin="round"/>
<path d="M14.9649 21.6107H20.4518" stroke="black" stroke-width="1.2" stroke-linecap="round" stroke-linejoin="round"/>
<path fill-rule="evenodd" clip-rule="evenodd" d="M12.2259 22.2777C11.607 22.2777 11.1054 21.776 11.1054 21.1572C11.1054 20.5383 11.607 20.0367 12.2259 20.0367C12.8447 20.0367 13.3464 20.5383 13.3464 21.1572C13.3464 21.776 12.8447 22.2777 12.2259 22.2777Z" fill="black"/>
<path d="M15.0006 18.4557C16.3353 17.9804 17.5102 17.1641 18.4242 16.1149C19.687 14.6832 20.4518 12.7801 20.4518 10.717C20.4518 8.65385 19.687 6.75078 18.4242 5.31903C17.1614 3.8695 15.4006 2.86461 13.4086 2.58893C13.0173 2.52668 12.635 2.5 12.2259 2.5C11.8168 2.5 11.4255 2.52668 11.0431 2.58893C9.05113 2.86461 7.29035 3.8695 6.02757 5.31903C4.76478 6.75078 4 8.65385 4 10.717C4 12.7801 4.76478 14.6832 6.02757 16.1149C7.0188 17.2528 8.31687 18.1166 9.79276 18.5689" stroke="black" stroke-width="1.2" stroke-linecap="round" stroke-linejoin="round"/>
<path d="M8.66875 10.2723C8.66875 5.67474 11.3633 3.17585 11.9324 2.58003" stroke="black" stroke-width="1.2" stroke-linecap="round" stroke-linejoin="round"/>
<path d="M15.783 10.2723C15.783 5.67474 13.0885 3.17585 12.5193 2.58003" stroke="black" stroke-width="1.2" stroke-linecap="round" stroke-linejoin="round"/>
<path d="M16.6723 10.717H20.2294" stroke="black" stroke-width="1.2" stroke-linecap="round" stroke-linejoin="round"/>
<path d="M4.22232 10.717H7.77946" stroke="black" stroke-width="1.2" stroke-linecap="round" stroke-linejoin="round"/>
<path d="M9.96846 10.3474C10.9933 9.93943 11.7889 9.34096 12.1935 8.93841C12.598 9.34096 13.4609 9.96619 14.4185 10.3474C15.2276 10.6694 16.4412 10.7499 17.2503 10.7499C17.2503 12.5614 16.9614 14.7755 16.4412 15.9832C15.8619 17.3283 14.4185 19.2036 12.3958 19.8074C10.373 19.2036 9.15936 17.5934 8.35026 15.9832C7.54117 14.3729 7.33889 12.5614 7.54116 10.7499C8.35026 10.7499 8.95709 10.7499 9.96846 10.3474Z" stroke="black" stroke-width="1.2" stroke-linecap="round" stroke-linejoin="round"/>
<path d="M12.2259 12.2793C11.4896 12.2793 10.892 12.877 10.892 13.6132C10.892 14.1329 11.1951 14.5834 11.6282 14.7999L11.3164 16.2638H13.1354L12.8235 14.7999C13.261 14.5834 13.5598 14.1373 13.5598 13.6132C13.5598 12.877 12.9621 12.2793 12.2259 12.2793Z" stroke="black" stroke-linecap="round" stroke-linejoin="round"/>
</svg>
