<svg xmlns="http://www.w3.org/2000/svg" viewBox="0 0 16 16"><defs><style>.cls-1{fill:#717071;}.cls-2{fill:#eeeeef;}</style></defs><title>deny-01</title><g id="图层_1" data-name="图层 1"><path class="cls-1" d="M8,15a6.84,6.84,0,0,1-1.86-.25A7.1,7.1,0,0,1,4.47,14,7,7,0,0,1,2,11.53a7.1,7.1,0,0,1-.71-1.67,7,7,0,0,1,0-3.72A7.1,7.1,0,0,1,2,4.47,7,7,0,0,1,4.47,2a7.1,7.1,0,0,1,1.67-.71,7,7,0,0,1,4.58.3,7,7,0,0,1,3.72,3.72,7,7,0,0,1,.3,4.58A7.1,7.1,0,0,1,14,11.53,7,7,0,0,1,11.53,14a7.1,7.1,0,0,1-1.67.71A6.84,6.84,0,0,1,8,15Z"/><path class="cls-2" d="M12.17,9a.24.24,0,0,1-.25.22H4.08A.24.24,0,0,1,3.83,9V7a.24.24,0,0,1,.25-.22h7.83a.24.24,0,0,1,.25.22Z"/></g></svg>