<svg id="圖層_1" data-name="圖層 1" xmlns="http://www.w3.org/2000/svg" viewBox="0 0 15 14.7"><defs><style>.cls-1{fill:#fff;}</style></defs><path class="cls-1" d="M4.71,14A7.59,7.59,0,0,1,2.4,12.45,7.42,7.42,0,0,1,.84,10.14a7,7,0,0,1-.57-2.8A6.88,6.88,0,0,1,.84,4.56,7.14,7.14,0,0,1,2.4,2.25,7.29,7.29,0,0,1,4.7.68a7.26,7.26,0,0,1,5.59,0A7.45,7.45,0,0,1,12.6,2.25a7.3,7.3,0,0,1,1.56,2.31,6.88,6.88,0,0,1,.57,2.78,7,7,0,0,1-.57,2.8,7.42,7.42,0,0,1-1.56,2.31A7.59,7.59,0,0,1,10.29,14a6.89,6.89,0,0,1-2.79.57A6.89,6.89,0,0,1,4.71,14Zm5-1.33a5.84,5.84,0,0,0,1.85-1.24,6,6,0,0,0,1.24-1.85,5.75,5.75,0,0,0,.44-2.25,5.65,5.65,0,0,0-.45-2.25A5.87,5.87,0,0,0,9.74,2,5.56,5.56,0,0,0,7.5,1.57,5.68,5.68,0,0,0,3.41,3.25,5.91,5.91,0,0,0,2.17,5.09a5.65,5.65,0,0,0-.45,2.25,5.58,5.58,0,0,0,.45,2.25,5.78,5.78,0,0,0,3.08,3.09,6,6,0,0,0,4.5,0ZM6.91,10.6a.71.71,0,0,1-.24-.55.72.72,0,0,1,.24-.55.89.89,0,0,1,1.17,0,.75.75,0,0,1,0,1.1.89.89,0,0,1-1.17,0Zm0-2.72-.1-3.37A.61.61,0,0,1,7,4a.72.72,0,0,1,.53-.19A.76.76,0,0,1,8,4a.64.64,0,0,1,.19.51L8.11,7.88c0,.42-.21.62-.61.62a.56.56,0,0,1-.63-.62Z"/></svg>