<svg xmlns="http://www.w3.org/2000/svg" width="24" height="24" viewBox="0 0 24 24">
  <defs>
    <linearGradient id="icon_mobile-game-mode-a" x1="91.786%" x2="1.752%" y1="0%" y2="120.883%">
      <stop offset="0%" stop-color="#71000A"/>
      <stop offset="46.866%" stop-color="#FF3449"/>
      <stop offset="100%" stop-color="#360008"/>
    </linearGradient>
  </defs>
  <path fill="url(#icon_mobile-game-mode-a)" fill-rule="evenodd" d="M14.0709312,2.26663133e-12 C15.5160926,0.00167149789 16.7029772,1.13999652 16.7947273,2.5904423 L16.7987996,2.67446229 L16.8002746,2.7620564 L16.8002746,4.71950195 L4.28879968,4.71935997 L4.28879968,18.8979138 L15.5111432,18.8979138 L15.5112379,15.889263 L16.8002746,15.889263 L16.8002746,21.2383224 C16.7986263,22.6996565 15.6745679,23.9014063 14.2402507,23.9943778 L14.1571632,23.9985054 L14.0705499,24 L5.72934337,24 C4.28418199,23.9983285 3.09729741,22.8600035 3.00554732,21.4095577 L3.00147501,21.3255377 L3,21.2379436 L3,2.7616776 C3.00164832,1.30034349 4.12570665,0.0985937089 5.56002383,0.00562217428 L5.64311134,0.00149462472 L5.72972464,2.26663133e-12 L14.0709312,2.26663133e-12 Z M15.5798595,20.0968018 L4.28879968,20.0968018 L4.28879968,21.2379436 C4.2898368,22.1765798 5.00152436,22.7897932 5.90836616,22.8526845 L6.06122506,22.8580322 L13.8074341,22.8580322 C14.7343687,22.856982 15.4947877,22.2931152 15.5731949,21.3913312 L15.5798595,21.2379436 L15.5798595,20.0968018 Z M18.1593297,4.71950195 C18.1593297,4.71950195 19.8108829,3.41640834 22,3.64590083 C21.9665236,5.86027636 20.4844388,7.35556565 20.4844388,7.35556565 C19.287583,8.81966036 15.0752756,11.4655853 15.0752756,11.4655853 L15.0752756,11.4655853 L11.3613306,13.8458925 C10.9363738,15.5479252 8.92492446,15.8726612 8.92492446,15.8726612 L8.92492446,15.8726612 L5.10739656,18.7315782 L8.38187827,15.2570199 C8.38187827,15.2570199 8.94127455,13.2860011 10.6712791,13.0635384 L10.6712791,13.0635384 L13.4611771,9.63564993 C13.4611771,9.63564993 16.572449,5.74140501 18.1593297,4.71950195 Z M16.686235,11.9900056 C16.2601529,12.9413159 15.6463372,13.8565032 14.8447878,14.7355676 C14.0432384,15.6146321 12.8461724,16.6854506 11.2535898,17.9480231 L12.2623884,16.0457227 C12.4489823,15.6938609 12.4089901,15.264819 12.1605797,14.9535053 L11.9321428,14.6672227 L16.686235,11.9900056 Z M13.3871117,8.377498 L9.97586173,12.6059984 L9.72608773,12.3495418 C9.44548488,12.0614316 9.019588,11.9694559 8.64509794,12.1160937 L6.65776361,12.8942675 C8.53000741,11.1093372 9.72886853,10.0405202 10.254347,9.68781663 C10.7798254,9.33511309 11.8240803,8.89834021 13.3871117,8.377498 Z M14.0705499,1.16094971 L6.06122506,1.16094971 C5.13429048,1.16199992 4.37387148,1.70883031 4.29546424,2.60882098 L4.28879968,2.7620564 L4.28879968,3.50109189 L15.8429753,3.50109189 L15.8429753,2.7620564 C15.8418806,1.77127375 15.0489809,1.16205826 14.0705499,1.16094971 Z"/>
</svg>
