<svg xmlns="http://www.w3.org/2000/svg" width="24" height="24" viewBox="0 0 24 24">
  <defs>
    <linearGradient id="icon_open-nat-a" x1="116.672%" x2="-26.983%" y1="3.866%" y2="115.403%">
      <stop offset="0%" stop-color="#71000A"/>
      <stop offset="46.866%" stop-color="#FF3449"/>
      <stop offset="100%" stop-color="#360008"/>
    </linearGradient>
  </defs>
  <path fill="url(#icon_open-nat-a)" fill-rule="evenodd" d="M6.82932657,5.02773872 C6.94631422,5.37006248 7.17474475,5.79259025 7.46949246,6.23916629 C5.72509975,6.5884763 4.20808185,7.55429222 3.10584976,8.89657859 L2.91568209,9.1373118 L5.71879712,9.1373118 C6.22788654,8.01206668 6.82270911,7.10937181 7.35922259,6.43942817 L7.49330624,6.27508276 C7.65229122,6.51378633 7.8297751,6.75889541 8.01892382,7.00190545 C7.63854351,7.47843392 7.21555341,8.08443908 6.8241736,8.81607371 L6.65859111,9.1373118 L8.53796218,9.1373118 L8.53674084,7.62824812 C8.81609794,7.94662931 9.10610224,8.2471981 9.38928458,8.50821536 L9.38969792,9.1373118 L10.1807502,9.13797465 C10.2351531,9.17306618 10.2884573,9.20535814 10.3404898,9.23463527 C10.6232654,9.39374456 10.9107196,9.50390068 11.1991724,9.56599966 C11.1403355,9.68952046 11.1079181,9.8295184 11.1079181,9.9771199 C11.1079181,10.5110788 11.5321593,10.9464197 12.0544357,10.9464197 C12.5767122,10.9464197 13.0009534,10.5110788 13.0009534,9.9771199 C13.0009534,9.76513289 12.9340858,9.56882978 12.8207631,9.40916998 C13.0207951,9.32399037 13.2112319,9.21409596 13.3965272,9.08412712 L13.536,8.98 L13.6056898,9.11476008 C13.7494707,9.38087291 13.8312739,9.6220681 13.8517972,9.87821585 L13.855,10.0087422 L13.8459654,10.0093262 C13.8352293,10.6018119 13.5401836,11.1054586 13.1040006,11.4314741 L12.98165,11.5159166 C13.0852377,12.012916 13.1652275,12.5313803 13.2095152,13.0777918 L13.2358476,13.4929417 L13.242,13.4927422 C13.2426477,13.6561772 13.247204,13.8840127 13.2563166,14.1827681 L13.262,14.3647422 L13.2516808,14.3651783 C13.2365851,14.8779921 13.189424,15.3680615 13.1184152,15.8390257 L13.1028736,15.9370437 C13.0415705,16.1854338 12.9951148,16.3929446 12.9714264,16.5190978 C12.9310542,16.7339457 12.903084,16.9205075 12.8875156,17.089769 C12.7245481,16.9453246 12.5122389,16.8599481 12.2806543,16.8599481 C11.7583778,16.8599481 11.3341367,17.2941784 11.3341367,17.8292479 C11.3341367,18.3632068 11.7583778,18.7976592 12.2806543,18.7976592 C12.6042575,18.7976592 12.8902244,18.6308704 13.0609608,18.3769659 C13.1600061,18.6649447 13.2936781,18.9566843 13.441729,19.2330181 C13.1288382,19.5054731 12.7231525,19.6698958 12.2806543,19.6698958 C12.1355534,19.6698958 12.0065025,19.6181435 11.8713787,19.5850487 C11.4597173,20.3819891 11.0137869,21.0612097 10.5980045,21.5825082 C11.8236875,21.3042805 12.9346441,20.7233854 13.8596705,19.9217507 C14.091283,20.2641448 14.3197003,20.5388047 14.4884773,20.6904951 C14.5676024,20.7616097 14.6472249,20.8271189 14.7274756,20.8868772 C13.27384,22.1439717 11.4201252,22.9357536 9.38969792,23.0402338 C9.38969792,23.0402338 9.22334159,23.0535606 8.94268306,23.0535606 L8.83182521,23.0530684 C8.62895068,23.0512034 8.53796218,23.0446761 8.53796218,23.0446761 C3.7906253,22.8232297 0,18.844525 0,13.9287268 C0,9.68384785 2.81999459,6.11345194 6.64649442,5.07546601 L6.82932657,5.02773872 Z M10.6214288,18.5302355 L9.38969792,18.5302355 L9.38969792,21.6524737 C9.87163243,21.1273993 10.5140672,20.2820384 11.0929525,19.1876891 C10.8925441,19.004224 10.7253202,18.7878863 10.6214288,18.5302355 Z M8.53796218,18.5302355 L6.499826,18.5302355 C7.09944957,19.8514302 7.83767881,20.8588387 8.40096636,21.4998772 L8.53796218,21.6524737 L8.53796218,18.5302355 Z M5.56220094,18.5302355 L2.76255619,18.5302355 C3.85612675,20.0659227 5.4659008,21.1895908 7.34201849,21.6000551 C6.74968584,20.8595314 6.08946592,19.8091604 5.56220094,18.5302355 Z M19.3271312,13.1108605 C19.6111374,12.951103 20.5432845,12.2924343 21.5838351,13.1161343 C22.6243856,13.9398343 24.0615417,16.6980451 23.9979614,17.2120096 C23.934381,17.725974 23.7753748,18.0455782 23.1782225,18.2168089 C22.5810703,18.3880396 20.9076165,17.3806956 20.4742956,17.3875786 C20.0968759,17.3934342 19.2916503,17.6011639 19.0908707,17.6545447 C18.8923124,17.7156722 18.0993624,17.966212 17.7759833,18.1613072 C17.4050649,18.3850361 16.5195006,20.1261667 15.9223483,20.2973974 C15.325196,20.468628 15.0211928,20.2817896 14.6949139,19.8796155 C14.368635,19.4774414 14.1255774,16.3768283 14.5717259,15.1268242 C15.0176683,13.8768792 16.1572151,13.9414992 16.4827246,13.926481 C16.8009082,13.9115778 17.2963161,14.0706681 18.0261644,13.9414725 C18.713368,13.664335 19.0491927,13.2668926 19.3271312,13.1108605 Z M12.3995112,14.3651783 L9.38969792,14.3651783 L9.38969792,17.657999 L10.516453,17.657999 C10.602993,16.7475591 11.3178697,16.0321341 12.2216596,16.0001498 C12.3142726,15.4804061 12.3808585,14.9388954 12.3995112,14.3651783 Z M3.3613956,14.3651783 L1.32087361,14.3651783 C1.37962971,15.4368498 1.64885369,16.4432136 2.08775201,17.356905 L2.24027972,17.657999 L5.22363219,17.657999 C5.07024601,17.1819671 4.95683741,16.664711 4.86897003,16.1241989 L4.812,15.7477422 L4.76628868,15.7422414 C4.12093648,15.6244814 3.61049822,15.1409917 3.4036611,14.5126508 L3.3613956,14.3651783 Z M8.53796218,14.3651783 L6.78352102,14.3651783 C6.64887162,14.9146018 6.28817563,15.3724802 5.80278239,15.6049995 L5.669,15.6607422 L5.73615718,16.0725053 C5.80981377,16.4938975 5.90017975,16.9005769 6.01381392,17.2834281 L6.13544708,17.657999 L8.53796218,17.657999 L8.53796218,14.3651783 Z M17.3277413,15.9813778 C17.1663299,15.4184696 16.5742659,15.0943336 16.0051809,15.2575161 C15.4360959,15.4206986 15.105763,16.0093277 15.2671744,16.5722359 C15.428638,17.1353265 16.0206497,17.4592801 16.5897347,17.2960976 C17.1588197,17.1329151 17.4892049,16.5444685 17.3277413,15.9813778 Z M19.6827624,16.2770943 L19.6296377,16.2848811 L18.3668414,16.6469821 C18.2606614,16.6774287 18.1987537,16.7885565 18.2290714,16.8942869 L18.2290714,16.8942869 L18.235865,16.917979 C18.2661827,17.0237094 18.3775721,17.085145 18.4837521,17.0546984 L18.4837521,17.0546984 L19.7465485,16.6925974 C19.8527285,16.6621507 19.9146362,16.551023 19.8843185,16.4452926 L19.8843185,16.4452926 L19.8775249,16.4216005 C19.8472072,16.31587 19.7358177,16.2544344 19.6296377,16.2848811 Z M20.7225046,14.0629356 L20.3846545,14.1598126 C20.2815242,14.1893847 20.2192592,14.2912816 20.246426,14.3860236 L20.3673407,14.8077033 L19.9083266,14.9393234 C19.8049146,14.9689764 19.7426495,15.0708732 19.7698906,15.1658741 L19.8588137,15.475986 C19.8860548,15.5709869 19.9928557,15.6244048 20.0962677,15.5947519 L20.5552818,15.4631317 L20.6761965,15.8848114 C20.7033633,15.9795534 20.8101642,16.0329714 20.9132945,16.0033993 L21.2511446,15.9065223 C21.3542748,15.8769502 21.4165399,15.7750533 21.3893731,15.6803113 L21.2684584,15.2586316 L21.7274725,15.1270115 C21.8306027,15.0974393 21.8928678,14.9955425 21.8656267,14.9005416 L21.7767036,14.5904297 C21.7494625,14.4954288 21.6426616,14.4420109 21.5395314,14.471583 L21.0805173,14.6032032 L20.9596026,14.1815235 C20.9324358,14.0867815 20.8256349,14.0333635 20.7225046,14.0629356 Z M5.07310899,12.9598713 C4.55083253,12.9598713 4.12659135,13.3952122 4.12659135,13.9291711 C4.12659135,14.46313 4.55083253,14.8975824 5.07310899,14.8975824 C5.59365031,14.8975824 6.01789149,14.46313 6.01789149,13.9291711 C6.01789149,13.3952122 5.59365031,12.9598713 5.07310899,12.9598713 Z M5.35918983,10.0093262 L2.34091771,10.0093262 C1.80479958,10.9524975 1.45743146,12.0127827 1.34655896,13.1496309 L1.32043983,13.4929417 L3.326,13.4927422 C3.49825519,12.7790304 4.07063673,12.2309448 4.78184421,12.1117853 L4.857,12.1017422 L4.91484193,11.7572863 C5.00255475,11.2603009 5.1107679,10.7823843 5.2493781,10.3370278 L5.35918983,10.0093262 Z M8.53796218,10.0093262 L6.29442907,10.0093262 C6.03025435,10.6707778 5.84849867,11.4250726 5.71510996,12.2209023 C6.20587789,12.41515 6.5693785,12.8260034 6.73863753,13.3368159 L6.78352102,13.4929417 L8.53796218,13.4929417 L8.53796218,10.0093262 Z M10.262906,10.0093262 L9.38969792,10.0093262 L9.38969792,13.4929417 L12.3832443,13.4929417 C12.3528794,12.8927932 12.267207,12.3332914 12.156592,11.7971113 C12.1208047,11.7993324 12.0906567,11.8186562 12.0544357,11.8186562 C11.0742998,11.8186562 10.280908,11.0088334 10.262906,10.0093262 Z M15.4892549,7.64335277 C16.8902315,8.66121307 17.7357705,10.1727217 18.0204266,12.1415633 C18.0641897,12.4442537 17.8596241,12.7258986 17.5635165,12.7706347 C17.2674089,12.8153707 16.9918893,12.6062573 16.9481261,12.3035668 C16.7050393,10.6222411 16.0112462,9.38199769 14.8613014,8.54652108 C14.6173223,8.36926147 14.5601104,8.02338305 14.733515,7.77398001 C14.9069196,7.52457696 15.2452759,7.46609316 15.4892549,7.64335277 Z M15.6822101,0.137087648 C16.2452241,-0.125450081 16.5747125,0.0115314963 16.9598883,0.35771288 C17.345064,0.703894263 18.0701719,3.72831107 17.82506,5.03271854 C17.5801423,6.33703542 16.4445164,6.45147539 16.1253638,6.51722966 C15.813429,6.58172421 15.2992332,6.50209145 14.5985812,6.74386984 C13.9631921,7.12509765 13.6936756,7.57018147 13.4435678,7.76777169 C13.1880498,7.96999071 12.3704174,8.76637003 11.2138227,8.1155891 C10.057228,7.46480817 8.2062864,4.96537623 8.18868226,4.4477934 C8.17107812,3.93021058 8.2781295,3.58966714 8.84114348,3.32712941 C9.40415746,3.06459168 11.2145915,3.79774774 11.6415008,3.7231632 C12.0133578,3.65833816 12.7761737,3.32720096 12.9661307,3.24306848 C13.152682,3.15163225 13.8966764,2.78013224 14.1855546,2.53685141 C14.5169074,2.25785254 15.1191961,0.399625376 15.6822101,0.137087648 Z M11.4244401,5.15897548 L11.1059043,5.30751114 C11.0086699,5.3528523 10.9631116,5.46323503 11.0047649,5.5525608 L11.1901562,5.95013368 L10.7573832,6.15193901 C10.6601488,6.19728017 10.6145905,6.3076629 10.6563576,6.39723272 L10.7926981,6.68961597 C10.8344652,6.7791858 10.9483076,6.81523875 11.045542,6.76989759 L11.478315,6.56809226 L11.6637063,6.96566514 C11.7053595,7.0549909 11.8192019,7.09104386 11.9164364,7.0457027 L12.2349721,6.89716704 C12.3322066,6.85182587 12.3777649,6.74144315 12.3361116,6.65211738 L12.1507203,6.2545445 L12.5834932,6.05273917 C12.6809933,6.00727412 12.7265517,5.89689139 12.6847846,5.80732157 L12.548444,5.51493832 C12.5066769,5.4253685 12.3928345,5.38931554 12.2953344,5.43478058 L11.8625615,5.63658592 L11.6771702,5.23901304 C11.6355169,5.14968727 11.5216745,5.11363432 11.4244401,5.15897548 Z M16.9120614,3.71389442 C16.6644989,3.18299485 16.0290983,2.95564072 15.4925471,3.20583869 C14.9559958,3.45603666 14.7217316,4.08892214 14.9692941,4.61982171 C15.2167764,5.1505493 15.8522572,5.3780754 16.3888085,5.12787743 C16.9253597,4.87767947 17.1595438,4.24462201 16.9120614,3.71389442 Z M13.9258342,3.83681351 C13.8793499,3.73712754 13.7597212,3.69387347 13.6596113,3.74055546 L13.6596113,3.74055546 L12.4690071,4.2957433 C12.3688973,4.34242529 12.325136,4.46186937 12.3716203,4.56155534 L12.3716203,4.56155534 L12.3820365,4.583893 C12.4285209,4.68357896 12.5481496,4.72683304 12.6482594,4.68015105 L12.6482594,4.68015105 L13.8388636,4.12496321 C13.9389734,4.07828121 13.9827347,3.95883713 13.9362504,3.85915116 L13.9362504,3.85915116 Z"/>
</svg>
