<svg width="24" height="24" viewBox="0 0 24 24" fill="none" xmlns="http://www.w3.org/2000/svg">
<path d="M13.6831 10.0808L14.3138 10.4866L14.3138 10.4866L13.6831 10.0808ZM9.25 9C9.25 9.41421 9.58579 9.75 10 9.75C10.4142 9.75 10.75 9.41421 10.75 9H9.25ZM11.25 13.5C11.25 13.9142 11.5858 14.25 12 14.25C12.4142 14.25 12.75 13.9142 12.75 13.5H11.25ZM12.75 16C12.75 15.5858 12.4142 15.25 12 15.25C11.5858 15.25 11.25 15.5858 11.25 16H12.75ZM11.25 17C11.25 17.4142 11.5858 17.75 12 17.75C12.4142 17.75 12.75 17.4142 12.75 17H11.25ZM21.25 12C21.25 17.1086 17.1086 21.25 12 21.25V22.75C17.9371 22.75 22.75 17.9371 22.75 12H21.25ZM12 21.25C6.89137 21.25 2.75 17.1086 2.75 12H1.25C1.25 17.9371 6.06294 22.75 12 22.75V21.25ZM2.75 12C2.75 6.89137 6.89137 2.75 12 2.75V1.25C6.06294 1.25 1.25 6.06294 1.25 12H2.75ZM12 2.75C17.1086 2.75 21.25 6.89137 21.25 12H22.75C22.75 6.06294 17.9371 1.25 12 1.25V2.75ZM13.25 9C13.25 9.24996 13.1774 9.48068 13.0524 9.67495L14.3138 10.4866C14.5899 10.0576 14.75 9.54634 14.75 9H13.25ZM10.75 9C10.75 8.30964 11.3096 7.75 12 7.75V6.25C10.4812 6.25 9.25 7.48122 9.25 9H10.75ZM12 7.75C12.6904 7.75 13.25 8.30964 13.25 9H14.75C14.75 7.48122 13.5188 6.25 12 6.25V7.75ZM11.25 13V13.5H12.75V13H11.25ZM13.0524 9.67495C12.9265 9.87065 12.7688 10.0731 12.5836 10.3033C12.4063 10.5237 12.1979 10.7764 12.011 11.0333C11.6424 11.5398 11.25 12.2007 11.25 13H12.75C12.75 12.6947 12.9003 12.3605 13.2239 11.9158C13.383 11.697 13.558 11.4851 13.7523 11.2436C13.9387 11.0119 14.1409 10.7554 14.3138 10.4866L13.0524 9.67495ZM11.25 16V17H12.75V16H11.25Z" fill="#7F8FA4"/>
</svg>
