<?xml version="1.0" encoding="utf-8"?>
<!-- Generator: Adobe Illustrator 18.1.1, SVG Export Plug-In . SVG Version: 6.00 Build 0)  -->
<!DOCTYPE svg PUBLIC "-//W3C//DTD SVG 1.1//EN" "http://www.w3.org/Graphics/SVG/1.1/DTD/svg11.dtd">
<svg version="1.1" id="圖層_3" xmlns="http://www.w3.org/2000/svg" xmlns:xlink="http://www.w3.org/1999/xlink" x="0px" y="0px"
	 viewBox="0 0 47.3 32.1" enable-background="new 0 0 47.3 32.1" xml:space="preserve" fill="#b8c6cb">
<g>
	<path d="M0,24.7C0,22.9,1.7,22,3.3,22c1.2,0,2.5,0.6,3.1,1.8l-0.9,0.4C5.1,23.4,4.2,23,3.3,23C2.2,23,1,23.5,1,24.7v3.5
		c0,1.2,1.1,1.7,2.3,1.7s2.3-0.6,2.3-1.7v-0.9H3v-1h3.6v1.9c0,1.8-1.7,2.8-3.3,2.8C1.6,30.9,0,30,0,28.2V24.7z"/>
	<path d="M12.2,30.5c-1.2,0.4-1.9,0.5-2.5,0.5c-1.2,0-2.4-0.7-2.4-2.1v-4.4h1v4.4C8.2,29.6,9,30,9.7,30c0.6,0,1.1-0.1,1.5-0.2v-5.4
		h1V30.5z"/>
	<path d="M13.9,28.9c0,0.8,0.7,1.1,1.5,1.1c0.6,0,1.2-0.3,1.5-0.9l0.9,0.4c-0.4,0.9-1.4,1.4-2.3,1.4c-1.2,0-2.5-0.7-2.5-2.1v-2.4
		c0-1.4,1.2-2.1,2.5-2.1c1.2,0,2.4,0.7,2.4,2.1v1.7h-3.9V28.9z M16.9,26.4c0-0.8-0.8-1.2-1.5-1.2c-0.8,0-1.5,0.4-1.5,1.2v0.9h3V26.4
		z"/>
	<path d="M18.8,29.1c0.4,0.6,1.2,0.9,1.8,0.9c0.6,0,1.2-0.4,1.2-1c0-0.7-0.7-0.8-1.3-1c-1-0.2-2.2-0.5-2.2-1.9
		c0-1.3,1.3-1.9,2.3-1.9c0.7,0,1.4,0.2,1.9,0.8l-0.6,0.7c-0.4-0.4-0.9-0.6-1.3-0.6c-0.6,0-1.3,0.2-1.3,0.9c0,0.7,0.9,0.9,1.4,1
		c1,0.2,2,0.6,2.1,1.9c0,1.3-1.1,1.9-2.2,1.9c-1,0-1.9-0.3-2.6-1.3L18.8,29.1z"/>
	<path d="M25.9,30.9c-0.1,0-0.3,0-0.4,0c-1.3,0-2.2-0.8-2.2-2.1v-6h1v1.6h1.3v0.9h-1.3v3.5c0,0.7,0.6,1.4,1.6,1.2V30.9z"/>
</g>
<polygon points="37.7,16.2 36,16.2 36,20.8 31.4,20.8 31.4,22.5 36,22.5 36,27.1 37.7,27.1 37.7,22.5 42.4,22.5 42.4,20.8 
	37.7,20.8 "/>
<path d="M44.2,14.3c-2-2-4.6-3.1-7.4-3.1c-2.8,0-5.4,1.1-7.4,3.1c-4.1,4.1-4.1,10.7,0,14.8c2,2,4.6,3.1,7.4,3.1
	c2.8,0,5.4-1.1,7.4-3.1C48.3,25,48.3,18.4,44.2,14.3z M43.1,28c-1.7,1.7-3.9,2.6-6.3,2.6c-2.4,0-4.6-0.9-6.3-2.6
	c-3.5-3.5-3.5-9.1,0-12.6c1.7-1.7,3.9-2.6,6.3-2.6c2.4,0,4.6,0.9,6.3,2.6C46.6,18.9,46.6,24.5,43.1,28z"/>
<g>
	<path d="M28.9,12.2c-2.3-3.1-5.9-5.1-10-5.1v3.6c3.3,0,6.1,1.7,7.6,4.2c0.5-0.7,1-1.4,1.6-2C28.3,12.6,28.6,12.4,28.9,12.2z"/>
	<path d="M18.8,14.5v5.7h5.6C24.4,16.9,22,14.5,18.8,14.5z"/>
	<path d="M18.8,0v3.5c5.4,0,10.2,2.7,13.1,6.7c1.1-0.5,2.4-0.8,3.6-1C32.1,3.7,25.9,0,18.8,0z"/>
	<path d="M8.1,10.7c2.8,0,5.1-2.3,5.1-5.1c0-2.8-2.3-5.1-5.1-5.1C5.3,0.5,3,2.8,3,5.6C3,8.4,5.3,10.7,8.1,10.7z"/>
	<path d="M10.6,11.2H6c-3.2,0-5.4,2.8-5.4,6v2.3h15.5v-2.3C16.1,14.1,13.8,11.2,10.6,11.2z"/>
</g>
</svg>
