<?xml version="1.0" encoding="utf-8"?>
<!-- Generator: Adobe Illustrator 18.1.1, SVG Export Plug-In . SVG Version: 6.00 Build 0)  -->
<svg version="1.1" id="分離模式" xmlns="http://www.w3.org/2000/svg" xmlns:xlink="http://www.w3.org/1999/xlink" x="0px"
	 y="0px" viewBox="0 0 64 64" enable-background="new 0 0 64 64" xml:space="preserve" fill="#B1B1B1">
<g>
	<path fill="#B1B1B1" d="M13.2,46.6V13.3H20v1c0,0.8,0.7,1.5,1.5,1.5h11.9c0.8,0,1.5-0.7,1.5-1.5v-1h6.1V24h2.7V13.3
		c0-1.5-1.2-2.7-2.7-2.7h-6.1v-1c0-0.8-0.7-1.5-1.5-1.5H21.5c-0.8,0-1.5,0.7-1.5,1.5v1h-6.8c-1.5,0-2.7,1.2-2.7,2.7v33.3
		c0,1.5,1.2,2.7,2.7,2.7h3.9v-2.7H13.2z M21.5,13.3v-2.7v-1h11.9v1l0,2.7v1H21.5V13.3z"/>
	<path d="M32.9,31h-8.8c-0.2,0-0.3,0.1-0.3,0.3v8.8c0,0.2,0.1,0.3,0.3,0.3c0.2,0,0.3-0.1,0.3-0.3v-8.5h8.5c0.2,0,0.3-0.1,0.3-0.3
		C33.2,31.1,33.1,31,32.9,31z"/>
	<path d="M47.7,51.3c1.8-0.6,2.7-2.6,2.1-4.3c-0.6-1.7-2.4-2.6-4.1-2.1c-0.1,0-0.1,0-0.2,0.1c-1.8,0.6-2.7,2.6-2.1,4.3
		c0.2,0.6,0.6,1.1,1.1,1.5C45.4,51.5,46.6,51.7,47.7,51.3z"/>
	<path d="M59.4,46.9c-0.4-0.5-0.9-0.9-1.6-1l-1-0.2c-0.1-0.4-0.2-0.8-0.3-1.1c-0.1-0.4-0.3-0.7-0.4-1.1l0.7-0.8
		c0.4-0.5,0.6-1.1,0.6-1.8c-0.1-0.7-0.4-1.3-0.9-1.7L53.7,37c-0.4-0.4-1-0.6-1.6-0.6c-0.7,0-1.4,0.3-1.9,0.9l-0.7,0.8
		c-0.7-0.2-1.5-0.4-2.2-0.4l-0.3-1c-0.2-0.7-0.7-1.2-1.4-1.4c-0.3-0.1-0.6-0.2-1-0.2c-0.3,0-0.6,0-0.8,0.1l-0.9,0.3l-2.4,0.9
		c-0.6,0.2-1.1,0.7-1.4,1.3c-0.3,0.6-0.3,1.3-0.1,1.9l0.3,1c-0.6,0.5-1.1,1.1-1.5,1.7l-1-0.2c-1.4-0.2-2.6,0.7-2.9,2l-0.6,3.5
		c-0.1,0.4,0,0.7,0.1,1.1c0.2,0.9,1,1.6,1.9,1.8l1,0.2c0.1,0.3,0.1,0.5,0.2,0.7c0,0.1,0.1,0.2,0.1,0.4c0.1,0.4,0.3,0.7,0.4,1.1
		l-0.7,0.8c-0.9,1-0.8,2.6,0.3,3.5l2.7,2.3c0.4,0.4,1,0.6,1.6,0.6c0.7,0,1.4-0.3,1.9-0.9l0.7-0.8c0.7,0.2,1.5,0.4,2.2,0.4l0.3,1
		c0.3,1,1.3,1.6,2.3,1.6c0.3,0,0.6,0,0.8-0.1l3.3-1.2c1.3-0.5,2-1.9,1.5-3.1l-0.3-1c0.6-0.5,1.1-1.1,1.5-1.7l1,0.2
		c0.6,0.1,1.3,0,1.8-0.4c0.5-0.4,0.9-0.9,1-1.6l0.6-3.5C59.9,48.1,59.8,47.5,59.4,46.9z M57.4,52c0,0.1-0.1,0.2-0.1,0.2
		c-0.1,0-0.1,0.1-0.3,0.1l-2.5-0.5l-0.4,0.7c-0.5,0.9-1.2,1.7-2,2.4l-0.6,0.5l0.9,2.4c0.1,0.2,0,0.4-0.2,0.4l-3.4,1.2
		c-0.2,0.1-0.4,0-0.4-0.2l-0.9-2.4l-0.8,0c-1.1,0-2.1-0.2-3.1-0.6l-0.7-0.3l-1.7,2C41,58,40.9,58,40.9,58c-0.1,0-0.1,0-0.2-0.1
		l-2.8-2.4c-0.1-0.1-0.2-0.3,0-0.5l1.7-2l-0.4-0.7c-0.2-0.4-0.4-0.8-0.6-1.2c0-0.1-0.1-0.2-0.1-0.3c-0.2-0.5-0.3-1-0.4-1.5l-0.1-0.8
		L37,48.6l-1.6-0.3c-0.2,0-0.3-0.2-0.3-0.4l0.7-3.6c0-0.2,0.2-0.3,0.4-0.3l2.5,0.5l0.4-0.7c0.5-0.9,1.2-1.7,2-2.4l0.6-0.5l-0.9-2.4
		c0-0.1,0-0.2,0-0.3c0-0.1,0.1-0.1,0.2-0.2l1.9-0.7l1.6-0.6c0.2-0.1,0.4,0,0.4,0.2l0.7,2l0.2,0.5l0.8,0c1.1,0,2.1,0.2,3.1,0.6
		l0.7,0.3l1.7-2c0.1-0.1,0.2-0.1,0.3-0.1c0.1,0,0.1,0,0.2,0.1l2.8,2.4c0.1,0.1,0.1,0.2,0.1,0.2c0,0.1,0,0.2-0.1,0.2l-1.7,2l0.4,0.7
		c0.3,0.5,0.5,1,0.7,1.4c0.2,0.5,0.3,1,0.4,1.5l0.1,0.8l2.5,0.5c0.1,0,0.2,0.1,0.2,0.1c0,0.1,0.1,0.1,0.1,0.3L57.4,52z"/>
	<path d="M42.9,43.1c-1.7,1.3-2.7,3.3-2.5,5.5c0,0.5,0.1,1.1,0.3,1.6c0.1,0.4,0.3,0.7,0.5,1.1c1.1,1.9,3.1,3,5.3,3
		c0.7,0,1.4-0.1,2.1-0.4c3.2-1.1,4.9-4.7,3.8-7.9c-0.9-2.5-3.2-4.1-5.9-4.1c-0.3,0-0.6,0-0.9,0.1c-0.4,0.1-0.8,0.1-1.1,0.3
		C43.9,42.5,43.4,42.8,42.9,43.1z M45.7,43.1C46,43,46.3,43,46.6,43c2.2,0,4.1,1.4,4.8,3.4c0.9,2.7-0.5,5.6-3.1,6.5
		c-0.6,0.2-1.1,0.3-1.7,0.3c-1.6,0-3.1-0.8-4-2c-0.3-0.4-0.6-0.9-0.8-1.4c-0.1-0.4-0.2-0.8-0.3-1.3c-0.1-1.5,0.4-3,1.4-4
		c0.5-0.5,1.2-1,1.9-1.3C45.1,43.2,45.4,43.2,45.7,43.1z"/>
	<path fill="#B1B1B1" d="M21.6,28.5h3.9h1.4h16h2.7h1.1v4.4c0.4,0.4,0.7,0.8,0.9,1.3c0.5-0.5,1-0.8,1.6-1v-4.7
		c0-1.4-1.1-2.5-2.5-2.5h-1.1h-2.7h-16h-1.4h-3.9c-1.4,0-2.5,1.1-2.5,2.5v20.1v2.7v2.4c0,1.4,1.1,2.5,2.5,2.5h11.3
		c-0.4-0.8-0.6-1.6-0.5-2.5H21.6v-2.4v-2.7L21.6,28.5z"/>
</g>
</svg>
