<svg xmlns="http://www.w3.org/2000/svg" xmlns:xlink="http://www.w3.org/1999/xlink" width="24" height="24" viewBox="0 0 24 24">
  <defs>
    <linearGradient id="logo_tencent-active-b" x1="-7.021%" x2="-76.747%" y1="124.022%" y2="13.965%">
      <stop offset="0%" stop-color="#006E98"/>
      <stop offset="38.539%" stop-color="#FFF"/>
      <stop offset="100%" stop-color="#006E98"/>
    </linearGradient>
    <path id="logo_tencent-active-a" d="M21,5 C15.5737793,5 12.1325684,5 10.6763672,5 C8.49206543,5 5.43435059,6.88201904 4.73803711,10.3243408 C4.27382813,12.619222 3.69448242,15.5111084 3,19 C8.33261719,19 11.7741211,19 13.3245117,19 C15.6500977,19 18.5649902,17.2991333 19.4291748,14.0507813 C20.0052979,11.8852132 20.2933594,10.6430664 20.2933594,10.3243408 C16.805127,10.3243408 14.3666016,10.3243408 12.9777832,10.3243408 C10.8945557,10.3243408 9.70341797,11.5101624 9.70341797,13.6903992 C11.8863281,13.6903992 13.9012207,13.6903992 15.7480957,13.6903992 C14.891748,14.9073385 13.8269531,15.5158081 12.5537109,15.5158081 C11.2804687,15.5158081 9.63061523,15.5158081 7.60415039,15.5158081 C7.60166016,14.7630005 7.70112305,13.8469137 7.90253906,12.7675476 C8.20466309,11.1484985 8.65620117,8.45620728 11.53396,8.45620728 C14.4117187,8.45620728 14.990918,8.45620728 17.6421387,8.45620728 C19.4096191,8.45620728 20.5289063,7.30413818 21,5 Z"/>
  </defs>
  <g fill="none" fill-rule="evenodd">
    <use fill="#2597FF" xlink:href="#logo_tencent-active-a"/>
    <use fill="#00DCFF" fill-opacity=".5" xlink:href="#logo_tencent-active-a"/>
    <use fill="url(#logo_tencent-active-b)" fill-opacity=".8" xlink:href="#logo_tencent-active-a" style="mix-blend-mode:hard-light"/>
  </g>
</svg>
