<svg xmlns="http://www.w3.org/2000/svg" xmlns:xlink="http://www.w3.org/1999/xlink" width="24" height="24" viewBox="0 0 24 24">
  <defs>
    <linearGradient id="open-nat-b" x1="-7.021%" x2="-76.747%" y1="162.742%" y2="-4.885%">
      <stop offset="0%" stop-color="#006E98"/>
      <stop offset="49.496%" stop-color="#FFF"/>
      <stop offset="100%" stop-color="#006E98"/>
    </linearGradient>
    <path id="open-nat-a" d="M6.56274398,7.45120305 C6.66814618,7.73774988 6.86046086,8.08707894 7.10418799,8.45457281 C5.68639557,8.74050723 4.45150512,9.53637604 3.55120323,10.644974 L3.37564898,10.8708049 L5.65958019,10.8708049 C6.06925677,9.94599109 6.54707315,9.20182823 6.97995946,8.64649453 L7.117,8.47398159 L7.25307396,8.67229815 C7.34691155,8.80559672 7.4464301,8.94009958 7.55000805,9.0737687 C7.24240664,9.46459364 6.90015072,9.96165842 6.58206497,10.5620261 L6.4253086,10.8708049 L7.9565887,10.8708049 L7.95574882,9.56882732 C8.18358216,9.83181608 8.41991594,10.0805761 8.65080743,10.2975836 L8.65056873,10.8708049 L9.369,10.8702031 L9.44689928,10.9186037 C9.67558216,11.0502903 9.90765665,11.1426889 10.1402585,11.1964844 C10.0828185,11.3058453 10.0505458,11.4338833 10.0505458,11.5696521 C10.0505458,12.0139866 10.3962104,12.376256 10.8217525,12.376256 C11.2472946,12.376256 11.5929592,12.0139866 11.5929592,11.5696521 C11.5929592,11.3914017 11.5373309,11.226477 11.4432333,11.0928727 C11.6736062,11.0002966 11.887237,10.8663421 12.0947615,10.7022213 L12.033,10.7482031 L12.0856884,10.8520385 C12.1981526,11.0646267 12.2640776,11.2581053 12.2839662,11.4618282 L12.289,11.5962031 C12.2728723,12.0805259 12.0409802,12.4933356 11.6961908,12.7649506 L11.5772311,12.8501635 C11.6616327,13.2637421 11.7268071,13.6951828 11.7628919,14.1498797 L11.7843471,14.4953472 L11.789,14.4952031 C11.7898877,14.6259606 11.7933091,14.8057043 11.8001518,15.0398371 L11.805,15.2202031 C11.7866006,15.5905825 11.756376,15.9458027 11.7109173,16.2888048 C11.6367095,16.5831674 11.5810261,16.8370603 11.5566395,16.9744575 C11.5225859,17.166175 11.5001003,17.3307384 11.4892743,17.4795564 C11.3582904,17.3644245 11.1896106,17.2972052 11.0060716,17.2972052 C10.5805295,17.2972052 10.2348649,17.6585505 10.2348649,18.1038091 C10.2348649,18.5481436 10.5805295,18.9096737 11.0060716,18.9096737 C11.2768332,18.9096737 11.5152568,18.76331 11.6528775,18.5423802 C11.7366898,18.78173 11.8492583,19.023882 11.9729193,19.2528241 C11.7151276,19.4911329 11.3764241,19.6355063 11.0060716,19.6355063 C10.8878458,19.6355063 10.7826973,19.5924406 10.6726007,19.5649007 C10.3371858,20.2280755 9.97384921,20.7932897 9.63507669,21.2270889 C10.6454443,20.9928485 11.5601314,20.5008063 12.3190588,19.821563 C12.5062992,20.0974442 12.6893782,20.3189405 12.8251623,20.4428425 C12.8947151,20.506309 12.9646887,20.5644889 13.0352116,20.6172369 C11.8455601,21.6810482 10.3215058,22.3523223 8.65056873,22.4401368 C8.65056873,22.4401368 8.51502438,22.4512267 8.2863485,22.4512267 C8.05749591,22.4512267 7.9565887,22.4438335 7.9565887,22.4438335 C4.08853806,22.2595566 1,18.9486731 1,14.8579862 C1,11.3093951 3.31882125,8.32723913 6.45842706,7.47897713 L6.56274398,7.45120305 Z M9.65416246,18.6871368 L8.65056873,18.6871368 L8.65056873,21.2853107 C9.0432409,20.8483695 9.56668599,20.1449014 10.0383521,19.2342375 C9.87506265,19.0815668 9.73881141,18.9015411 9.65416246,18.6871368 Z M7.9565887,18.6871368 L6.29594945,18.6871368 C6.7811199,19.7789354 7.37766085,20.6132307 7.83538465,21.1471699 L7.9565887,21.2853107 L7.9565887,18.6871368 Z M5.53198824,18.6871368 L3.25088455,18.6871368 C4.14190755,19.9650606 5.4535245,20.9001222 6.98215379,21.2416905 C6.49953107,20.6254629 5.96159493,19.7513956 5.53198824,18.6871368 Z M18.6647472,13.2673285 C18.9567113,13.1065004 19.9164196,12.4459818 20.970997,13.2483056 C22.0255745,14.0506294 23.4647031,16.7592425 23.3942065,17.2675231 C23.3237099,17.7758036 23.1577771,18.0931562 22.5456607,18.2686778 C21.9335444,18.4441993 20.2341244,17.4673022 19.7912051,17.4787526 C19.4054269,17.4885883 18.5802718,17.7023909 18.3745012,17.7572677 C18.1709269,17.8197687 17.3578576,18.0757194 17.0252758,18.2718701 C16.6438023,18.4968105 15.7200778,20.2258822 15.1079615,20.4014037 C14.4958452,20.5769253 14.1871661,20.3956654 13.8580339,20.0019766 C13.5289018,19.6082877 13.3137946,16.5486921 13.7831713,15.3093815 C14.2523369,14.0701314 15.4162372,14.121715 15.7490627,14.1033876 C16.0743999,14.0852526 16.5789888,14.2370528 17.3262617,14.1016221 C18.0315505,13.8205374 18.3790243,13.4244122 18.6647472,13.2673285 Z M11.1029143,15.2211798 L8.65056873,15.2211798 L8.65056873,17.9613042 L9.56862991,17.9613042 C9.63914125,17.2036806 10.2216109,16.6083389 10.9580037,16.5817232 C11.0334632,16.1492179 11.0877163,15.6985991 11.1029143,15.2211798 Z M3.73880888,15.2211798 L2.07622571,15.2211798 C2.12350817,16.1019627 2.33806825,16.9297332 2.68788397,17.6825529 L2.82534243,17.9613042 L5.25612809,17.9613042 C5.1311516,17.5651737 5.03874817,17.1347385 4.9671553,16.6849507 L4.921,16.3712031 L4.86734795,16.3639933 C4.35184977,16.2613789 3.94428755,15.8655422 3.77585833,15.3519339 L3.73880888,15.2211798 Z M7.9565887,15.2211798 L6.52709941,15.2211798 C6.41007533,15.7088634 6.08349649,16.1098718 5.64758171,16.2890632 L5.62,16.2982031 L5.67372487,16.6419338 C5.73373904,16.9925958 5.80736772,17.3310146 5.89995494,17.6496046 L5.9990596,17.9613042 L7.9565887,17.9613042 L7.9565887,15.2211798 Z M16.5905884,16.1237569 C16.4316734,15.5695546 15.8300762,15.255791 15.2467305,15.4230627 C14.6633848,15.5903344 14.3194708,16.175219 14.4783857,16.7294212 C14.6373521,17.2838031 15.2388978,17.597387 15.8222436,17.4301153 C16.4055893,17.2628436 16.7495548,16.6781387 16.5905884,16.1237569 Z M18.9941978,16.3905232 L18.9398218,16.3987839 L17.6453811,16.7699589 C17.5365403,16.8011684 17.4720786,16.9115844 17.5019274,17.0156796 L17.5019274,17.0156796 L17.508616,17.0390052 C17.5384648,17.1431004 17.6516429,17.202579 17.7604837,17.1713694 L17.7604837,17.1713694 L19.0549245,16.8001945 C19.1637652,16.7689849 19.2282269,16.6585689 19.1983781,16.5544737 L19.1983781,16.5544737 L19.1916896,16.5311481 C19.1618407,16.4270529 19.0486626,16.3675743 18.9398218,16.3987839 Z M20.0805682,14.1926273 L19.7342519,14.291932 C19.6285373,14.3222451 19.5638095,14.4235483 19.5905562,14.5168251 L19.7096008,14.931983 L19.2390843,15.0669015 C19.1330808,15.0972975 19.0683531,15.1986007 19.0951728,15.2921323 L19.1827207,15.5974479 C19.2095404,15.6909795 19.3181152,15.742589 19.4241186,15.712193 L19.8946352,15.5772746 L20.0136798,15.9924326 C20.0404265,16.0857093 20.1490013,16.1373188 20.2547158,16.1070056 L20.6010322,16.007701 C20.7067468,15.9773878 20.7714746,15.8760846 20.7447279,15.7828079 L20.6256833,15.3676499 L21.0961998,15.2327315 C21.2019144,15.2024183 21.2666421,15.1011151 21.2398224,15.0075835 L21.1522745,14.7022678 C21.1254548,14.6087362 21.01688,14.5571268 20.9111654,14.5874399 L20.4406489,14.7223584 L20.3216042,14.3072004 C20.2948576,14.2139237 20.1862828,14.1623142 20.0805682,14.1926273 Z M5.13348431,14.051752 C4.70794219,14.051752 4.36227757,14.4140214 4.36227757,14.8583559 C4.36227757,15.3026904 4.70794219,15.6642205 5.13348431,15.6642205 C5.55761267,15.6642205 5.90327728,15.3026904 5.90327728,14.8583559 C5.90327728,14.4140214 5.55761267,14.051752 5.13348431,14.051752 Z M5.36657818,11.5964527 L2.90734058,11.5964527 C2.48022761,12.3638723 2.20014581,13.2244652 2.10346122,14.1466868 L2.07587227,14.4953472 L3.711,14.4952031 L3.7269291,14.4286842 C3.87956481,13.8831534 4.31518124,13.4626237 4.85545283,13.3536056 L4.957,13.3372031 L5.01537728,12.989105 C5.08121897,12.6183481 5.16091693,12.2608991 5.26034958,11.9249423 L5.36657818,11.5964527 Z M7.9565887,11.5964527 L6.12859547,11.5964527 C5.91335033,12.1468804 5.76525884,12.7745675 5.65657595,13.4368182 C6.04755946,13.5948695 6.33940516,13.9252475 6.48110126,14.3372129 L6.52709941,14.4953472 L7.9565887,14.4953472 L7.9565887,11.5964527 Z M9.36204405,11.5964527 L8.65056873,11.5964527 L8.65056873,14.4953472 L11.0896602,14.4953472 C11.0649194,13.9959329 10.995115,13.5303428 10.9049877,13.08416 C10.8758289,13.0860083 10.8512648,13.1020886 10.8217525,13.1020886 C10.0231541,13.1020886 9.37671183,12.4281936 9.36204405,11.5964527 Z M14.7568333,8.05084938 C15.9955167,9.02287064 16.7431061,10.4663089 16.9947867,12.3464843 C17.0334802,12.6355432 16.8526121,12.9045043 16.5908065,12.9472256 C16.3290008,12.989947 16.0853982,12.790251 16.0467047,12.5011921 C15.8317777,10.8955844 15.2183556,9.71119494 14.2016238,8.91334377 C13.985908,8.74406699 13.9353237,8.41376511 14.0886405,8.17559386 C14.2419574,7.93742261 14.5411175,7.8815726 14.7568333,8.05084938 Z M15.2384889,1.09726845 C15.8156114,0.828151784 16.1488455,0.958891953 16.535512,1.29624625 C16.9221785,1.63360054 17.6132635,4.62187724 17.3435364,5.91935663 C17.0740085,7.21674317 15.9163683,7.34786871 15.5905075,7.41803584 C15.2720126,7.48684158 14.7498894,7.41584539 14.0330026,7.66650789 C13.3803684,8.05446351 13.0991403,8.5000686 12.8415083,8.69991521 C12.5782979,8.90443652 11.7337331,9.7069545 10.5666281,9.07948088 C9.39952318,8.45200726 7.55439219,6.00187103 7.54450824,5.48882014 C7.5346243,4.97576925 7.64886936,4.63636616 8.22599191,4.36724949 C8.80311445,4.09813283 10.6344322,4.79715491 11.0701071,4.71655756 C11.4495971,4.64649393 12.2311471,4.30624092 12.4257997,4.21985012 C12.6170903,4.12627263 13.3801099,3.74628105 13.6779124,3.50051798 C14.0195008,3.21867145 14.6613663,1.36638511 15.2384889,1.09726845 Z M10.8268915,6.14392515 L10.5003735,6.29618297 C10.4007025,6.34266033 10.3526189,6.45284199 10.393628,6.54078624 L10.576152,6.93221023 L10.1325342,7.13907261 C10.0328632,7.18554997 9.98477962,7.29573162 10.0259007,7.38391616 L10.1601326,7.67177739 C10.2012538,7.75996192 10.3165653,7.79395117 10.4162364,7.74747381 L10.8598542,7.54061143 L11.0423782,7.93203543 C11.0833872,8.01997968 11.1986988,8.05396892 11.2983698,8.00749156 L11.6248878,7.85523374 C11.7245588,7.80875637 11.7726424,7.69857472 11.7316333,7.61063047 L11.5491093,7.21920648 L11.9927271,7.0123441 C12.0926705,6.96573975 12.140754,6.8555581 12.0996329,6.76737356 L11.965401,6.47951233 C11.9242799,6.3913278 11.8089683,6.35733855 11.709025,6.4039429 L11.2654072,6.61080528 L11.0828832,6.21938128 C11.0418741,6.13143703 10.9265625,6.09744778 10.8268915,6.14392515 Z M16.4347382,4.6255554 C16.1910045,4.10286675 15.5478094,3.88724599 14.9978127,4.14371367 C14.447816,4.40018135 14.1995533,5.03149568 14.443287,5.55418433 C14.6869418,6.07670365 15.3302158,6.29249373 15.8802125,6.03602605 C16.4302092,5.77955837 16.6783929,5.14807473 16.4347382,4.6255554 Z M13.3933855,4.79381533 C13.3476201,4.69567111 13.2265309,4.6546298 13.1239124,4.7024816 L13.1239124,4.7024816 L11.9034728,5.2715819 C11.8008543,5.31943369 11.7544591,5.43857425 11.8002245,5.53671847 L11.8002245,5.53671847 L11.8104797,5.55871065 C11.8562451,5.65685487 11.9773343,5.69789617 12.0799528,5.65004437 L12.0799528,5.65004437 L13.3003923,5.08094408 C13.4030108,5.03309228 13.449406,4.91395172 13.4036406,4.81580751 L13.4036406,4.81580751 Z"/>
  </defs>
  <g fill="none" fill-rule="evenodd">
    <use fill="#2597FF" xlink:href="#open-nat-a"/>
    <use fill="#00DCFF" fill-opacity=".5" xlink:href="#open-nat-a"/>
    <use fill="url(#open-nat-b)" fill-opacity=".6" xlink:href="#open-nat-a" style="mix-blend-mode:hard-light"/>
  </g>
</svg>
