<svg xmlns="http://www.w3.org/2000/svg" xmlns:xlink="http://www.w3.org/1999/xlink" width="175" height="175" viewBox="0 0 175 175">
  <defs>
    <clipPath id="clip-img_site-manager">
      <rect width="175" height="175"/>
    </clipPath>
  </defs>
  <g id="img_site-manager" clip-path="url(#clip-img_site-manager)">
    <rect width="175" height="175" fill="transparent"/>
    <g id="Group_22750" data-name="Group 22750" transform="translate(-521.352 3.079)">
      <g id="Group_22404" data-name="Group 22404" transform="translate(521.352 11.324)">
        <path id="Path_14053" data-name="Path 14053" d="M696.352,102.828c0,50.535-39.713,54.691-88.039,54.691s-86.961-4.156-86.961-54.691,39.176-91.5,87.5-91.5S696.352,52.292,696.352,102.828Z" transform="translate(-521.352 -11.324)" fill="#ebf5ff"/>
      </g>
      <g id="Group_22409" data-name="Group 22409" transform="translate(687.03 41.584)">
        <g id="Group_22405" data-name="Group 22405" transform="translate(1.892)">
          <path id="Path_14054" data-name="Path 14054" d="M681.352,42.082a.361.361,0,0,1-.36-.36v-1.21a.36.36,0,0,1,.72,0v1.21A.36.36,0,0,1,681.352,42.082Z" transform="translate(-680.992 -40.152)" fill="#cce4ff"/>
        </g>
        <g id="Group_22406" data-name="Group 22406" transform="translate(1.892 2.575)">
          <path id="Path_14055" data-name="Path 14055" d="M681.352,44.535a.361.361,0,0,1-.36-.36v-1.21a.36.36,0,0,1,.72,0v1.21A.36.36,0,0,1,681.352,44.535Z" transform="translate(-680.992 -42.605)" fill="#cce4ff"/>
        </g>
        <g id="Group_22407" data-name="Group 22407" transform="translate(0 1.893)">
          <path id="Path_14056" data-name="Path 14056" d="M680.76,42.675h-1.21a.36.36,0,1,1,0-.72h1.21a.36.36,0,0,1,0,.72Z" transform="translate(-679.19 -41.955)" fill="#cce4ff"/>
        </g>
        <g id="Group_22408" data-name="Group 22408" transform="translate(2.575 1.893)">
          <path id="Path_14057" data-name="Path 14057" d="M683.212,42.675H682a.36.36,0,0,1,0-.72h1.21a.36.36,0,1,1,0,.72Z" transform="translate(-681.643 -41.955)" fill="#cce4ff"/>
        </g>
      </g>
      <g id="Group_22414" data-name="Group 22414" transform="translate(580.984 27.38)">
        <g id="Group_22410" data-name="Group 22410" transform="translate(1.892)">
          <path id="Path_14058" data-name="Path 14058" d="M580.324,28.55a.361.361,0,0,1-.36-.36V26.98a.36.36,0,0,1,.72,0v1.21A.36.36,0,0,1,580.324,28.55Z" transform="translate(-579.964 -26.62)" fill="#cce4ff"/>
        </g>
        <g id="Group_22411" data-name="Group 22411" transform="translate(1.892 2.575)">
          <path id="Path_14059" data-name="Path 14059" d="M580.324,31a.36.36,0,0,1-.36-.359v-1.21a.36.36,0,0,1,.72,0v1.21A.359.359,0,0,1,580.324,31Z" transform="translate(-579.964 -29.073)" fill="#cce4ff"/>
        </g>
        <g id="Group_22412" data-name="Group 22412" transform="translate(0 1.893)">
          <path id="Path_14060" data-name="Path 14060" d="M579.731,29.143h-1.21a.36.36,0,0,1,0-.72h1.21a.36.36,0,1,1,0,.72Z" transform="translate(-578.162 -28.423)" fill="#cce4ff"/>
        </g>
        <g id="Group_22413" data-name="Group 22413" transform="translate(2.574 1.893)">
          <path id="Path_14061" data-name="Path 14061" d="M582.184,29.143h-1.21a.36.36,0,0,1,0-.72h1.21a.36.36,0,1,1,0,.72Z" transform="translate(-580.614 -28.423)" fill="#cce4ff"/>
        </g>
      </g>
      <g id="Group_22429" data-name="Group 22429" transform="translate(529.275 25.178)">
        <g id="Group_22419" data-name="Group 22419" transform="translate(0 68.263)">
          <g id="Group_22415" data-name="Group 22415" transform="translate(10.458 4.485)">
            <path id="Path_14062" data-name="Path 14062" d="M538.863,95.326a1.5,1.5,0,1,1,1.5,1.5A1.5,1.5,0,0,1,538.863,95.326Zm.752,0a.747.747,0,1,0,.747-.747A.748.748,0,0,0,539.615,95.326Z" transform="translate(-538.863 -93.828)" fill="#cce4ff"/>
          </g>
          <g id="Group_22416" data-name="Group 22416" transform="translate(6.865 4.485)">
            <path id="Path_14063" data-name="Path 14063" d="M535.44,95.326a1.5,1.5,0,1,1,1.5,1.5A1.5,1.5,0,0,1,535.44,95.326Zm.75,0a.748.748,0,1,0,.747-.747A.748.748,0,0,0,536.19,95.326Z" transform="translate(-535.44 -93.828)" fill="#cce4ff"/>
          </g>
          <g id="Group_22417" data-name="Group 22417" transform="translate(3.272 4.485)">
            <path id="Path_14064" data-name="Path 14064" d="M532.017,95.326a1.5,1.5,0,1,1,1.5,1.5A1.5,1.5,0,0,1,532.017,95.326Zm.75,0a.747.747,0,1,0,.747-.747A.748.748,0,0,0,532.768,95.326Z" transform="translate(-532.017 -93.828)" fill="#cce4ff"/>
          </g>
          <g id="Group_22418" data-name="Group 22418">
            <path id="Path_14065" data-name="Path 14065" d="M542.432,101.672l-1.87-.633a11.254,11.254,0,0,1-3.3.483c-4.611,0-8.363-2.684-8.363-5.984s3.752-5.983,8.363-5.983,8.364,2.684,8.364,5.983a5.49,5.49,0,0,1-3.072,4.638l.354,1.017a.376.376,0,0,1-.355.5A.369.369,0,0,1,542.432,101.672Zm-1.746-1.383,1.26.426-.2-.589a.376.376,0,0,1,.178-.454c1.878-1,2.955-2.511,2.955-4.134,0-2.886-3.415-5.233-7.612-5.233s-7.612,2.347-7.612,5.233,3.416,5.234,7.612,5.234a10.482,10.482,0,0,0,3.19-.485.384.384,0,0,1,.115-.018A.358.358,0,0,1,540.687,100.289Z" transform="translate(-528.9 -89.555)" fill="#cce4ff"/>
          </g>
        </g>
        <g id="Group_22424" data-name="Group 22424" transform="translate(143.784 84.904)">
          <g id="Group_22420" data-name="Group 22420" transform="translate(2.521 3.57)">
            <path id="Path_14066" data-name="Path 14066" d="M673.974,110.659a.378.378,0,0,1-.266-.109,3.388,3.388,0,0,0-4.787,0,.376.376,0,1,1-.531-.531,4.141,4.141,0,0,1,5.849,0,.375.375,0,0,1-.266.64Z" transform="translate(-668.282 -108.809)" fill="#cce4ff"/>
          </g>
          <g id="Group_22421" data-name="Group 22421" transform="translate(1.186 1.785)">
            <path id="Path_14067" data-name="Path 14067" d="M675.373,109.514a.379.379,0,0,1-.266-.109,5.271,5.271,0,0,0-7.457,0,.375.375,0,0,1-.53-.531,6.022,6.022,0,0,1,8.518,0,.375.375,0,0,1-.266.64Z" transform="translate(-667.01 -107.109)" fill="#cce4ff"/>
          </g>
          <g id="Group_22422" data-name="Group 22422">
            <path id="Path_14068" data-name="Path 14068" d="M676.614,108.3a.371.371,0,0,1-.265-.11,6.959,6.959,0,0,0-9.828,0,.375.375,0,0,1-.531-.53,7.709,7.709,0,0,1,10.889,0,.375.375,0,0,1-.266.64Z" transform="translate(-665.88 -105.408)" fill="#cce4ff"/>
          </g>
          <g id="Group_22423" data-name="Group 22423" transform="translate(4.431 5.976)">
            <path id="Path_14069" data-name="Path 14069" d="M671.225,113.35a1.125,1.125,0,1,1,1.125-1.124A1.125,1.125,0,0,1,671.225,113.35Z" transform="translate(-670.101 -111.101)" fill="#cce4ff"/>
          </g>
        </g>
        <g id="Group_22427" data-name="Group 22427" transform="translate(147.78 43.235)">
          <g id="Group_22425" data-name="Group 22425">
            <path id="Path_14070" data-name="Path 14070" d="M674.5,77.5a.377.377,0,0,1-.234-.082c-.187-.149-4.578-3.693-4.578-6.9a4.812,4.812,0,1,1,9.624,0c0,3.2-4.391,6.748-4.578,6.9A.379.379,0,0,1,674.5,77.5Zm0-11.04a4.066,4.066,0,0,0-4.061,4.061c0,2.456,3.164,5.345,4.061,6.114.9-.769,4.062-3.661,4.062-6.114A4.066,4.066,0,0,0,674.5,66.463Z" transform="translate(-669.687 -65.711)" fill="#cce4ff"/>
          </g>
          <g id="Group_22426" data-name="Group 22426" transform="translate(2.511 2.58)">
            <path id="Path_14071" data-name="Path 14071" d="M674.38,72.772a2.3,2.3,0,1,1,2.3-2.3A2.3,2.3,0,0,1,674.38,72.772Zm0-3.852a1.551,1.551,0,1,0,1.551,1.551A1.553,1.553,0,0,0,674.38,68.92Z" transform="translate(-672.079 -68.169)" fill="#cce4ff"/>
          </g>
        </g>
        <g id="Group_22428" data-name="Group 22428" transform="translate(127.325)">
          <path id="Path_14072" data-name="Path 14072" d="M668.614,33.323H651.49a1.239,1.239,0,0,1-1.231-1.028,4.175,4.175,0,0,1,.137-1.956,4.2,4.2,0,0,1,5.186-2.773,5.641,5.641,0,0,1,10.463,1.158,3.009,3.009,0,0,1,3.756,3.74h0A1.238,1.238,0,0,1,668.614,33.323Zm-14.2-5.177a3.53,3.53,0,0,0-1.016.153,3.458,3.458,0,0,0-2.4,3.87.5.5,0,0,0,.491.4h17.124a.481.481,0,0,0,.468-.324h0a2.256,2.256,0,0,0-3.145-2.677.377.377,0,0,1-.533-.272,4.89,4.89,0,0,0-9.284-1.119.376.376,0,0,1-.478.2A3.432,3.432,0,0,0,654.411,28.147Z" transform="translate(-650.2 -24.522)" fill="#cce4ff"/>
        </g>
        <g id="Background_Complete" data-name="Background Complete" transform="translate(3.51 1.611)">
          <g id="Group_1990" data-name="Group 1990">
            <g id="aiZGp2">
              <g id="Group_1989" data-name="Group 1989">
                <g id="Path_10351" data-name="Path 10351" transform="translate(0.004 4.3)">
                  <path id="Path_14073" data-name="Path 14073" d="M535.871,30.157a10.581,10.581,0,0,0-.718,3.282h-2.869a.217.217,0,0,1-.037,0v-.081c.008-.075.017-.149.023-.224a8.127,8.127,0,0,1,.192-1.145,8.891,8.891,0,0,1,.646-1.792.066.066,0,0,1,.07-.042h2.644Z" transform="translate(-532.248 -30.153)" fill="#cce4ff"/>
                </g>
                <g id="Path_10352" data-name="Path 10352" transform="translate(0 8.434)">
                  <path id="Path_14074" data-name="Path 14074" d="M535.784,37.295h-2.672a.062.062,0,0,1-.065-.041,8.37,8.37,0,0,1-.795-3.042.2.2,0,0,0-.007-.036V34.1c.015,0,.029,0,.044,0H535.1c.052,0,.049,0,.053.052.018.233.034.467.057.7a9.089,9.089,0,0,0,.178,1.1,9.922,9.922,0,0,0,.38,1.307C535.775,37.264,535.778,37.277,535.784,37.295Z" transform="translate(-532.244 -34.092)" fill="#cce4ff"/>
                </g>
                <g id="Path_10353" data-name="Path 10353" transform="translate(8.938 12.482)">
                  <path id="Path_14075" data-name="Path 14075" d="M546.6,37.949l-.023.04a7.989,7.989,0,0,1-.757.981,7.471,7.471,0,0,1-1.109,1.022,7.958,7.958,0,0,1-2.6,1.3,8.161,8.161,0,0,1-1.113.237l-.109.019h-.065l-.061-.041.07-.05a8.562,8.562,0,0,0,2.107-2.043,9.566,9.566,0,0,0,.86-1.429.062.062,0,0,1,.067-.04H546.6Z" transform="translate(-540.759 -37.948)" fill="#cce4ff"/>
                </g>
                <g id="Path_10354" data-name="Path 10354" transform="translate(8.35 4.304)">
                  <path id="Path_14076" data-name="Path 14076" d="M543.952,33.437H540.2V30.158h2.93a.054.054,0,0,1,.059.041,9.428,9.428,0,0,1,.741,2.961C543.935,33.248,543.943,33.34,543.952,33.437Z" transform="translate(-540.199 -30.158)" fill="#cce4ff"/>
                </g>
                <g id="Path_10355" data-name="Path 10355" transform="translate(8.329 8.458)">
                  <path id="Path_14077" data-name="Path 14077" d="M543.93,34.115c0,.078,0,.155-.011.232-.017.183-.029.363-.056.547-.035.251-.073.5-.123.752a9.085,9.085,0,0,1-.485,1.6.065.065,0,0,1-.069.048q-1.477,0-2.954,0h-.053V34.117Z" transform="translate(-540.179 -34.115)" fill="#cce4ff"/>
                </g>
                <g id="Path_10356" data-name="Path 10356" transform="translate(3.839 4.322)">
                  <path id="Path_14078" data-name="Path 14078" d="M539.565,30.177V33.46H535.9c.005-.083.008-.165.017-.246.019-.184.034-.368.062-.55.045-.279.093-.556.153-.832a8.488,8.488,0,0,1,.529-1.616.058.058,0,0,1,.062-.041h2.794Z" transform="translate(-535.901 -30.175)" fill="#cce4ff"/>
                </g>
                <g id="Path_10357" data-name="Path 10357" transform="translate(3.84 8.454)">
                  <path id="Path_14079" data-name="Path 14079" d="M539.57,34.159v3.133h-2.927a.061.061,0,0,1-.065-.043,8.368,8.368,0,0,1-.5-1.656c-.055-.292-.1-.587-.133-.881-.025-.192-.03-.387-.043-.58a.071.071,0,0,1,0-.021h3.62C539.562,34.11,539.57,34.123,539.57,34.159Z" transform="translate(-535.902 -34.111)" fill="#cce4ff"/>
                </g>
                <g id="Path_10358" data-name="Path 10358" transform="translate(12.29 4.303)">
                  <path id="Path_14080" data-name="Path 14080" d="M547.743,33.461h-3.074a10.7,10.7,0,0,0-.717-3.3h2.867a.063.063,0,0,1,.066.041,8.056,8.056,0,0,1,.71,2.055,8.9,8.9,0,0,1,.149,1.154C547.744,33.42,547.743,33.439,547.743,33.461Z" transform="translate(-543.952 -30.157)" fill="#cce4ff"/>
                </g>
                <g id="Path_10359" data-name="Path 10359" transform="translate(12.376 8.433)">
                  <path id="Path_14081" data-name="Path 14081" d="M547.743,34.092c0,.075-.005.145-.011.215a8.168,8.168,0,0,1-.1.828,8.063,8.063,0,0,1-.565,1.846c-.041.1-.088.189-.13.282a.044.044,0,0,1-.046.029h-2.825a.166.166,0,0,1-.031,0c.035-.1.068-.194.1-.29a9.816,9.816,0,0,0,.38-1.5,9.671,9.671,0,0,0,.132-1.115c.005-.088.01-.176.015-.266,0-.023.007-.035.032-.033a.128.128,0,0,0,.028,0Z" transform="translate(-544.034 -34.091)" fill="#cce4ff"/>
                </g>
                <g id="Path_10360" data-name="Path 10360" transform="translate(8.941)">
                  <path id="Path_14082" data-name="Path 14082" d="M546.511,29.523l-.006.013h-2.729a.062.062,0,0,1-.064-.038,9.2,9.2,0,0,0-1.334-1.98,7.456,7.456,0,0,0-1.023-.945c-.184-.142-.374-.274-.562-.409l-.03-.023.037-.025-.018-.059a8.042,8.042,0,0,1,5.731,3.464Z" transform="translate(-540.762 -26.057)" fill="#cce4ff"/>
                </g>
                <g id="Path_10361" data-name="Path 10361" transform="translate(1.311 12.458)">
                  <path id="Path_14083" data-name="Path 14083" d="M539.165,41.515a.324.324,0,0,1-.079.013,7.34,7.34,0,0,1-.877-.17,7.9,7.9,0,0,1-3.151-1.623,7.549,7.549,0,0,1-.956-.956,8.073,8.073,0,0,1-.6-.826l-.013-.026h2.55a.062.062,0,0,1,.063.041,9.588,9.588,0,0,0,.921,1.5,9.445,9.445,0,0,0,1.078,1.195,8.341,8.341,0,0,0,1.038.834Z" transform="translate(-533.493 -37.926)" fill="#cce4ff"/>
                </g>
                <g id="Path_10362" data-name="Path 10362" transform="translate(1.393 0.021)">
                  <path id="Path_14084" data-name="Path 14084" d="M539.126,26.139c-.113.083-.249.178-.379.278a9.358,9.358,0,0,0-1.212,1.129,8.522,8.522,0,0,0-1.273,1.818c-.022.041-.041.085-.065.125a.058.058,0,0,1-.041.024c-.045,0-.09,0-.137,0h-2.448a7.991,7.991,0,0,1,5.526-3.437l-.016.031Z" transform="translate(-533.571 -26.077)" fill="#cce4ff"/>
                </g>
                <g id="Path_10363" data-name="Path 10363" transform="translate(8.329 12.485)">
                  <path id="Path_14085" data-name="Path 14085" d="M542.833,37.951a8.768,8.768,0,0,1-1.24,1.676,7.77,7.77,0,0,1-1.414,1.2V37.951Z" transform="translate(-540.179 -37.951)" fill="#cce4ff"/>
                </g>
                <g id="Path_10364" data-name="Path 10364" transform="translate(4.958 12.486)">
                  <path id="Path_14086" data-name="Path 14086" d="M539.513,37.952v2.822a8.167,8.167,0,0,1-2.546-2.822Z" transform="translate(-536.967 -37.952)" fill="#cce4ff"/>
                </g>
                <g id="Path_10365" data-name="Path 10365" transform="translate(8.35 0.765)">
                  <path id="Path_14087" data-name="Path 14087" d="M542.748,29.474H540.2V26.786a7.812,7.812,0,0,1,1.431,1.2A9.006,9.006,0,0,1,542.748,29.474Z" transform="translate(-540.199 -26.786)" fill="#cce4ff"/>
                </g>
                <g id="Path_10366" data-name="Path 10366" transform="translate(5.057 0.849)">
                  <path id="Path_14088" data-name="Path 14088" d="M539.508,26.866v2.626h-2.446A7.741,7.741,0,0,1,539.508,26.866Z" transform="translate(-537.062 -26.866)" fill="#cce4ff"/>
                </g>
              </g>
            </g>
          </g>
        </g>
      </g>
      <g id="World" transform="translate(570.542 39.401)">
        <g id="Group_22438" data-name="Group 22438">
          <g id="Group_22430" data-name="Group 22430">
            <path id="Path_14089" data-name="Path 14089" d="M661.166,68.369a48.186,48.186,0,1,1-33.913-29.056A48.191,48.191,0,0,1,661.166,68.369Z" transform="translate(-568.214 -38.072)" fill="#99caff"/>
          </g>
          <g id="Group_22435" data-name="Group 22435" transform="translate(1.213 7.035)">
            <g id="Group_22431" data-name="Group 22431" transform="translate(37.535 0.043)">
              <path id="Path_14090" data-name="Path 14090" d="M608.822,44.816c-2.2.039-5.032.819-2.985,2.072s3.357,1.369,3.373,2.994-1.045,3.332-.525,4.485,1.385,2.5,2.221,2.106,3.135-2.95,4.445-2.833,5.769.317,6.417-1.141,1.3-1.357,2.373-2.979,1.011-3.784-.29-3.794-1.476.547-3.656.388-3.189-1.6-5.312-1.22S610.44,44.789,608.822,44.816Z" transform="translate(-605.129 -44.815)" fill="#c6e5ff"/>
            </g>
            <g id="Group_22432" data-name="Group 22432">
              <path id="Path_14091" data-name="Path 14091" d="M602.4,45.4c-2.5,1.336-7.763,3.353-10.2,2.674-1.21-.343-2.653-.824-4.189-1.11a48.307,48.307,0,0,0-18.64,28.151,15.913,15.913,0,0,0,2.177,3.373c1.907,2.24,3.881,2.525,6.3,2.991s1.662,1.824,2.85,3.249,1.7,2.258,3.055,3.019-.482,2.2-1.013,3.765-.685,2.433.428,5.6,4.342,5.743,5.3,6.97-.662,2.653-.251,5.222.283,9.39,2.749,13.228,3.94,3.386,3.743.8-1.036-5.033.461-6.975,4.535-1.428,5.564-4.98,1.692-3.381,3.336-4.587.909-2.241,2.435-4.986,1.98-5.329-.279-6.457-3.759-1.014-5.7-3.681a24.866,24.866,0,0,0-7.764-6.776c-2.8-1.522-7.252.335-9.028-.181s-2.9-3.9-2.786-5.2-1.205-1.645-2.481-1.326-1.989-.5-2.342-2.207,2.306-3.865,4.466-4.03,3.315.832,3.743,3.616a5.411,5.411,0,0,0,4.26,4.663c1.989.5.744-1.572-.665-2.987s-1.507-2.7-.445-5.819,3.681-2.883,5.635-5.751,2.326-.712,4.3-.427,1.677-.779,2.406-2.571,3.233-.248,5.293-1.706-2.237-3.732-1.959-5.7,2.242-1.9,1.15-4.856.416-3.069,1.2-4.169S604.9,44.06,602.4,45.4ZM599.486,52.6c-.65,1.461-1.211,1.179-2.279,2.776A6.012,6.012,0,0,1,593.395,58c-1.077.128-2.849-1.785-2.94-2.968s1.62-1.536,3.551-1.788a10.786,10.786,0,0,0,5.34-2.47C600.732,49.686,600.135,51.15,599.486,52.6Z" transform="translate(-569.37 -44.774)" fill="#c6e5ff"/>
            </g>
            <g id="Group_22433" data-name="Group 22433" transform="translate(50.724 7.54)">
              <path id="Path_14092" data-name="Path 14092" d="M662.011,81.927l.01.135a3.415,3.415,0,0,0-1.91,1.9c-1.095,2.686-1.3,1.512-3.868,3.334s-1.591,3.263-1.451,5.093-2.844,3.906-4.315,4.559-2.122,4.825-1.642,6.85-1.947,2.855-3.432,4.706-2.333,4.946-3.305,6.431a4.571,4.571,0,0,1-4.5,2.08c-1.76-.3-3.395-3.213-4.343-5.742a14.715,14.715,0,0,1-.728-8.075c.551-2.748.356-2.408-.3-6.7a6.837,6.837,0,0,0-5.336-5.985c-1.659-.42-4.4.551-5.877-.311s-2.113-2.115-3.073-6.159,1.032-4.957,2.6-7.139a15.1,15.1,0,0,1,7.4-5.229,8.178,8.178,0,0,1,6.345.815c1.691.846,2.486,2.738,3.693,2.866s2.238-.5,3.446-.263,2.014.822,3.189.621.428-1.548.26-2.3-1.232-.556-2.645-.566a2.047,2.047,0,0,1-2.267-1.335c-.508-.936-1.31-.114-1.989-.5s-.548,1.343-.608,2.01-.578-.508-.578-.508-.582.909-.834.493.326-1.431.248-2.465-1.577-.79-2.509-1.59a3.562,3.562,0,0,0-3.5-.487c-1.269.423-1.507.115-2.071,1.239s-3.33,1.881-4.206,1.733-.258-1.931.492-3.5,2.3-1.048,3.266-2.638-.354-1.813-1.245-2.07-1.164-1.107-.239-3.13,2.164-1.466,2.671-.529a3.128,3.128,0,0,0,2.82,1.41c1.191.02.912-.824.884-2.558a3.228,3.228,0,0,1,2.347-3.322c1.576-.667,4.206-1.733,5.22-2.676s2.792-.324,3.735.69,3.034,1.394,5.234,1.766a1.81,1.81,0,0,0,1.554-.515A47.963,47.963,0,0,1,662.011,81.927Z" transform="translate(-617.694 -51.957)" fill="#c6e5ff"/>
            </g>
            <g id="Group_22434" data-name="Group 22434" transform="translate(82.729 61.174)">
              <path id="Path_14093" data-name="Path 14093" d="M651.474,103.1c-1.172-.2-1.07.19-1.758,1.111s-1.692,1.972-1.509,2.934.272,2.147,1.085,1.435.531-1.559,1.684-2.08S653.231,103.4,651.474,103.1Z" transform="translate(-648.184 -103.053)" fill="#c6e5ff"/>
            </g>
          </g>
          <g id="Group_22436" data-name="Group 22436" transform="translate(31.725 3.373)" opacity="0.22">
            <path id="Path_14094" data-name="Path 14094" d="M627.472,43.407c-30.692-8.859-36.423,12.061-20.157,25.247s44.146,17.529,47.9,8.836S650.286,49.993,627.472,43.407Z" transform="translate(-598.438 -41.286)" fill="#fff"/>
          </g>
          <g id="Group_22437" data-name="Group 22437" transform="translate(0 2.504)" opacity="0.05">
            <path id="Path_14095" data-name="Path 14095" d="M603.351,110.3c-23.85-19.571-23.11-57.567-2.2-69.846h0c-.883.3-1.764.61-2.64.96a48.19,48.19,0,1,0,62.357,63.348C654.128,114.118,627.188,129.864,603.351,110.3Z" transform="translate(-568.214 -40.457)" fill="#003b7e"/>
          </g>
        </g>
      </g>
      <g id="Group_22450" data-name="Group 22450" transform="translate(566.231 34.441)">
        <g id="Group_22449" data-name="Group 22449">
          <g id="Group_22439" data-name="Group 22439" transform="translate(0 0)">
            <path id="Path_14096" data-name="Path 14096" d="M631.882,137.872H601.929a.179.179,0,0,1-.1-.028l-25.2-16.194a.187.187,0,0,1-.066-.077L564.124,94.326a.184.184,0,0,1-.015-.1l4.263-29.648a.18.18,0,0,1,.043-.092L588.03,41.848a.176.176,0,0,1,.085-.055l28.74-8.439a.183.183,0,0,1,.1,0l28.74,8.439a.178.178,0,0,1,.086.055L665.4,64.485a.186.186,0,0,1,.042.092L669.7,94.226a.184.184,0,0,1-.015.1l-12.443,27.246a.186.186,0,0,1-.066.077l-25.2,16.194A.179.179,0,0,1,631.882,137.872Zm-29.9-.36h29.848l25.109-16.137,12.4-27.151L665.09,64.682,645.544,42.124l-28.639-8.409-28.638,8.409L568.721,64.682l-4.248,29.543,12.4,27.151Z" transform="translate(-564.107 -33.347)" fill="#818181"/>
          </g>
          <g id="Group_22440" data-name="Group 22440" transform="translate(0 31.076)">
            <path id="Path_14097" data-name="Path 14097" d="M601.929,136.4a.18.18,0,0,1-.172-.127l-11.051-35.644-26.469-7.677a.18.18,0,0,1-.035-.331l22.481-12.1L568.426,63.264a.181.181,0,0,1-.039-.207.177.177,0,0,1,.184-.1l32.542,3.792a.226.226,0,0,1,.046.012l12.807,5.087a.179.179,0,1,1-.132.334L601.048,67.1l-31.98-3.727,18.045,17.058a.18.18,0,0,1-.039.29L564.761,92.731l26.138,7.582a.18.18,0,0,1,.122.119l11.08,35.737a.18.18,0,0,1-.119.225A.158.158,0,0,1,601.929,136.4Z" transform="translate(-564.108 -62.953)" fill="#818181"/>
          </g>
          <g id="Group_22441" data-name="Group 22441" transform="translate(49.613 0)">
            <path id="Path_14098" data-name="Path 14098" d="M634.621,98.458a.177.177,0,0,1-.131-.058L611.421,73.6a.181.181,0,0,1,0-.251l14.368-14.263.008-.009,16.962-16.839-18.592,3.276a.18.18,0,0,1-.171-.064l-9.583-11.814a.18.18,0,0,1,.279-.227l9.516,11.732,19.053-3.357a.177.177,0,0,1,.191.094.179.179,0,0,1-.033.21L626.307,59.088l36.633,5.338a.18.18,0,0,1,.153.171.182.182,0,0,1-.14.183l-24.831,5.629L634.8,98.3a.179.179,0,0,1-.123.15A.2.2,0,0,1,634.621,98.458ZM611.8,73.487l22.685,24.384,3.291-27.63a.177.177,0,0,1,.138-.154l24.011-5.445-35.942-5.237Z" transform="translate(-611.373 -33.347)" fill="#818181"/>
          </g>
          <g id="Group_22442" data-name="Group 22442" transform="translate(22.701 8.439)">
            <path id="Path_14099" data-name="Path 14099" d="M589.774,101.737a.182.182,0,0,1-.169-.241l4.677-12.932a.171.171,0,0,1,.052-.077L612.622,73.02l-5.677-20.361L587.5,42l12.678,25.921a.182.182,0,0,1-.037.209l-14.1,13.637a.18.18,0,1,1-.25-.258L599.8,67.958,586.93,41.646a.18.18,0,0,1,.249-.237l20.007,10.97a.186.186,0,0,1,.087.11L613,73.035a.18.18,0,0,1-.057.186L594.6,88.73l-4.661,12.887A.18.18,0,0,1,589.774,101.737Z" transform="translate(-585.735 -41.387)" fill="#818181"/>
          </g>
          <g id="Group_22443" data-name="Group 22443" transform="translate(63.985 25.687)">
            <path id="Path_14100" data-name="Path 14100" d="M637.278,69.226a.18.18,0,0,1-.122-.047L625.123,58.131a.18.18,0,0,1,.244-.265L637.4,68.914a.18.18,0,0,1-.122.312Z" transform="translate(-625.065 -57.819)" fill="#818181"/>
          </g>
          <g id="Group_22444" data-name="Group 22444" transform="translate(12.443 36.735)">
            <path id="Path_14101" data-name="Path 14101" d="M601.34,136.134a.179.179,0,0,1-.1-.028.181.181,0,0,1-.078-.2L610.22,100.4l-33.988,19.521a.181.181,0,0,1-.265-.2L586.226,80.25a.18.18,0,0,1,.288-.094l23.84,19.52,2.779-27.95a.179.179,0,0,1,.156-.161l26.405-3.22a.183.183,0,0,1,.136.039l29.218,23.99a.18.18,0,1,1-.229.278L639.662,68.711l-26.186,3.194-2.8,28.138,0,.025h0v0h0l-9.023,35.393,29.391-24.213a.18.18,0,1,1,.229.278l-29.816,24.562A.178.178,0,0,1,601.34,136.134ZM586.5,80.613,576.424,119.39,610.183,100Z" transform="translate(-575.962 -68.344)" fill="#818181"/>
          </g>
          <g id="Group_22445" data-name="Group 22445" transform="translate(46.8 31.076)">
            <path id="Path_14102" data-name="Path 14102" d="M629.667,136.4a.179.179,0,0,1-.179-.178l-.136-24.46-20.565-11.309a.18.18,0,0,1,.064-.337l37.709-4.848,16.326-32.216a.18.18,0,1,1,.321.163l-16.215,32L667.286,92.6a.177.177,0,0,1,.2.126.18.18,0,0,1-.091.213l-25.612,12.8L655,119.9a.179.179,0,0,1,.02.219.181.181,0,0,1-.208.075l-25.1-8.29.136,24.312a.181.181,0,0,1-.179.181Zm.33-24.774,24.257,8.009-12.812-13.728ZM609.443,100.4l20.091,11.053,11.813-5.9,5.015-9.9Zm37.35-4.8-4.906,9.682L666.278,93.1Z" transform="translate(-608.693 -62.953)" fill="#818181"/>
          </g>
          <g id="Group_22446" data-name="Group 22446" transform="translate(67.457 64.751)">
            <path id="Path_14103" data-name="Path 14103" d="M628.552,110.246a.175.175,0,0,1-.06-.01.179.179,0,0,1-.109-.229l5.224-14.852a.18.18,0,1,1,.339.12l-5.224,14.851A.18.18,0,0,1,628.552,110.246Z" transform="translate(-628.373 -95.034)" fill="#818181"/>
          </g>
          <g id="Group_22447" data-name="Group 22447" transform="translate(36.805)">
            <path id="Path_14104" data-name="Path 14104" d="M599.352,68.576a.18.18,0,0,1-.121-.314l15.753-14.18V34.366L606.6,53.01a.18.18,0,1,1-.328-.148L615,33.454a.179.179,0,0,1,.343.073V54.162a.181.181,0,0,1-.059.134L599.471,68.53A.18.18,0,0,1,599.352,68.576Z" transform="translate(-599.171 -33.347)" fill="#818181"/>
          </g>
          <g id="Group_22448" data-name="Group 22448" transform="translate(62.201 11.815)">
            <path id="Path_14105" data-name="Path 14105" d="M625.066,58.434a.18.18,0,0,1-.178-.16L623.366,44.8a.179.179,0,0,1,.159-.2.184.184,0,0,1,.2.159l1.522,13.471a.181.181,0,0,1-.16.2Z" transform="translate(-623.365 -44.603)" fill="#818181"/>
          </g>
        </g>
      </g>
      <g id="Group_22451" data-name="Group 22451" transform="translate(618.237 55.444)">
        <path id="Path_14106" data-name="Path 14106" d="M625.549,58.4a.173.173,0,0,1-.125-.051c-.537-.273-7.214-2.908-11.657-4.645a.18.18,0,1,1,.13-.335s2.935,1.147,5.868,2.307c6,2.372,6,2.372,5.965,2.576A.187.187,0,0,1,625.549,58.4Z" transform="translate(-613.652 -53.356)" fill="#818181"/>
      </g>
      <g id="Group_22482" data-name="Group 22482" transform="translate(564.843 33.053)">
        <g id="Group_22452" data-name="Group 22452" transform="translate(67.457 79.602)">
          <path id="Path_14107" data-name="Path 14107" d="M630.188,109.429a1.569,1.569,0,1,1-1.569-1.569A1.569,1.569,0,0,1,630.188,109.429Z" transform="translate(-627.05 -107.86)" fill="#666"/>
        </g>
        <g id="Group_22453" data-name="Group 22453" transform="translate(79.368 73.745)">
          <path id="Path_14108" data-name="Path 14108" d="M641.534,103.849a1.569,1.569,0,1,1-1.569-1.569A1.569,1.569,0,0,1,641.534,103.849Z" transform="translate(-638.397 -102.28)" fill="#666"/>
        </g>
        <g id="Group_22454" data-name="Group 22454" transform="translate(67.457 104.165)">
          <path id="Path_14109" data-name="Path 14109" d="M630.188,132.829a1.569,1.569,0,1,1-1.569-1.569A1.569,1.569,0,0,1,630.188,132.829Z" transform="translate(-627.05 -131.26)" fill="#666"/>
        </g>
        <g id="Group_22455" data-name="Group 22455" transform="translate(72.681 64.751)">
          <path id="Path_14110" data-name="Path 14110" d="M635.164,95.28a1.569,1.569,0,1,1-1.569-1.569A1.569,1.569,0,0,1,635.164,95.28Z" transform="translate(-632.027 -93.711)" fill="#666"/>
        </g>
        <g id="Group_22456" data-name="Group 22456" transform="translate(46.8 68.429)">
          <path id="Path_14111" data-name="Path 14111" d="M610.507,98.783a1.569,1.569,0,1,1-1.568-1.568A1.569,1.569,0,0,1,610.507,98.783Z" transform="translate(-607.37 -97.215)" fill="#666"/>
        </g>
        <g id="Group_22457" data-name="Group 22457" transform="translate(29.725 78.034)">
          <circle id="Ellipse_3698" data-name="Ellipse 3698" cx="1.569" cy="1.569" r="1.569" transform="translate(0 0)" fill="#666"/>
        </g>
        <g id="Group_22458" data-name="Group 22458" transform="translate(12.443 87.565)">
          <path id="Path_14112" data-name="Path 14112" d="M577.776,117.014a1.569,1.569,0,1,1-1.569-1.568A1.569,1.569,0,0,1,577.776,117.014Z" transform="translate(-574.639 -115.446)" fill="#666"/>
        </g>
        <g id="Group_22459" data-name="Group 22459" transform="translate(0 60.745)">
          <path id="Path_14113" data-name="Path 14113" d="M565.921,91.463a1.568,1.568,0,1,1-1.568-1.568A1.569,1.569,0,0,1,565.921,91.463Z" transform="translate(-562.785 -89.895)" fill="#666"/>
        </g>
        <g id="Group_22460" data-name="Group 22460" transform="translate(4.247 31.076)">
          <path id="Path_14114" data-name="Path 14114" d="M567.251,62.131a1.569,1.569,0,1,1,.082,2.217A1.568,1.568,0,0,1,567.251,62.131Z" transform="translate(-566.831 -61.63)" fill="#666"/>
        </g>
        <g id="Group_22461" data-name="Group 22461" transform="translate(24.269 8.439)">
          <path id="Path_14115" data-name="Path 14115" d="M586.325,40.565a1.569,1.569,0,1,1,.082,2.217A1.569,1.569,0,0,1,586.325,40.565Z" transform="translate(-585.906 -40.064)" fill="#666"/>
        </g>
        <g id="Group_22462" data-name="Group 22462" transform="translate(43.112 18.785)">
          <circle id="Ellipse_3699" data-name="Ellipse 3699" cx="1.569" cy="1.569" r="1.569" transform="matrix(0.679, -0.734, 0.734, 0.679, 0, 2.302)" fill="#666"/>
        </g>
        <g id="Group_22463" data-name="Group 22463" transform="translate(52.617)">
          <path id="Path_14116" data-name="Path 14116" d="M615.133,35.02a1.568,1.568,0,1,1,.775-2.078A1.568,1.568,0,0,1,615.133,35.02Z" transform="translate(-612.912 -32.024)" fill="#666"/>
        </g>
        <g id="Group_22464" data-name="Group 22464" transform="translate(62.246 11.912)">
          <path id="Path_14117" data-name="Path 14117" d="M624.306,46.369a1.569,1.569,0,1,1,.776-2.078A1.568,1.568,0,0,1,624.306,46.369Z" transform="translate(-622.086 -43.373)" fill="#666"/>
        </g>
        <g id="Group_22465" data-name="Group 22465" transform="translate(52.367 21.002)">
          <path id="Path_14118" data-name="Path 14118" d="M614.894,55.029a1.569,1.569,0,1,1,.776-2.078A1.569,1.569,0,0,1,614.894,55.029Z" transform="translate(-612.674 -52.033)" fill="#666"/>
        </g>
        <g id="Group_22466" data-name="Group 22466" transform="translate(45.953 26.75)">
          <path id="Path_14119" data-name="Path 14119" d="M608.784,60.5a1.568,1.568,0,1,1,.776-2.078A1.568,1.568,0,0,1,608.784,60.5Z" transform="translate(-606.563 -57.508)" fill="#666"/>
        </g>
        <g id="Group_22467" data-name="Group 22467" transform="translate(81.036 8.438)">
          <path id="Path_14120" data-name="Path 14120" d="M642.207,43.06a1.569,1.569,0,1,1,.776-2.078A1.568,1.568,0,0,1,642.207,43.06Z" transform="translate(-639.987 -40.064)" fill="#666"/>
        </g>
        <g id="Group_22468" data-name="Group 22468" transform="translate(26.893 68.429)">
          <path id="Path_14121" data-name="Path 14121" d="M591.542,98.783a1.569,1.569,0,1,1-1.568-1.568A1.569,1.569,0,0,1,591.542,98.783Z" transform="translate(-588.405 -97.215)" fill="#666"/>
        </g>
        <g id="Group_22469" data-name="Group 22469" transform="translate(31.294 55.227)">
          <path id="Path_14122" data-name="Path 14122" d="M595.735,86.207a1.569,1.569,0,1,1-1.569-1.569A1.569,1.569,0,0,1,595.735,86.207Z" transform="translate(-592.598 -84.638)" fill="#666"/>
        </g>
        <g id="Group_22470" data-name="Group 22470" transform="translate(22.7 48.868)">
          <path id="Path_14123" data-name="Path 14123" d="M587.548,80.149a1.569,1.569,0,1,1-1.568-1.569A1.568,1.568,0,0,1,587.548,80.149Z" transform="translate(-584.411 -78.58)" fill="#666"/>
        </g>
        <g id="Group_22471" data-name="Group 22471" transform="translate(17.953 65.291)">
          <path id="Path_14124" data-name="Path 14124" d="M583.025,95.794a1.569,1.569,0,1,1-1.568-1.568A1.569,1.569,0,0,1,583.025,95.794Z" transform="translate(-579.888 -94.226)" fill="#666"/>
        </g>
        <g id="Group_22472" data-name="Group 22472" transform="translate(36.805 34.556)">
          <circle id="Ellipse_3700" data-name="Ellipse 3700" cx="1.569" cy="1.569" r="1.569" fill="#666"/>
        </g>
        <g id="Group_22473" data-name="Group 22473" transform="translate(49.299 39.955)">
          <path id="Path_14125" data-name="Path 14125" d="M612.888,71.657a1.569,1.569,0,1,1-1.569-1.568A1.57,1.57,0,0,1,612.888,71.657Z" transform="translate(-609.751 -70.089)" fill="#666"/>
        </g>
        <g id="Group_22474" data-name="Group 22474" transform="translate(75.819 36.437)">
          <path id="Path_14126" data-name="Path 14126" d="M638.153,68.306a1.569,1.569,0,1,1-1.569-1.569A1.569,1.569,0,0,1,638.153,68.306Z" transform="translate(-635.016 -66.737)" fill="#666"/>
        </g>
        <g id="Group_22475" data-name="Group 22475" transform="translate(100.973 31.21)">
          <path id="Path_14127" data-name="Path 14127" d="M662.117,63.326a1.569,1.569,0,1,1-1.569-1.568A1.569,1.569,0,0,1,662.117,63.326Z" transform="translate(-658.98 -61.758)" fill="#666"/>
        </g>
        <g id="Group_22476" data-name="Group 22476" transform="translate(91.623 49.348)">
          <path id="Path_14128" data-name="Path 14128" d="M653.209,80.605a1.569,1.569,0,1,1-1.568-1.568A1.569,1.569,0,0,1,653.209,80.605Z" transform="translate(-650.072 -79.037)" fill="#666"/>
        </g>
        <g id="Group_22477" data-name="Group 22477" transform="translate(104.11 60.745)">
          <path id="Path_14129" data-name="Path 14129" d="M665.105,91.463a1.568,1.568,0,1,1-1.568-1.568A1.569,1.569,0,0,1,665.105,91.463Z" transform="translate(-661.969 -89.895)" fill="#666"/>
        </g>
        <g id="Group_22478" data-name="Group 22478" transform="translate(92.671 87.565)">
          <path id="Path_14130" data-name="Path 14130" d="M654.208,117.014a1.569,1.569,0,1,1-1.569-1.568A1.569,1.569,0,0,1,654.208,117.014Z" transform="translate(-651.071 -115.446)" fill="#666"/>
        </g>
        <g id="Group_22479" data-name="Group 22479" transform="translate(84.457 63.182)">
          <path id="Path_14131" data-name="Path 14131" d="M646.383,93.785a1.569,1.569,0,1,1-1.569-1.568A1.569,1.569,0,0,1,646.383,93.785Z" transform="translate(-643.246 -92.217)" fill="#666"/>
        </g>
        <g id="Group_22480" data-name="Group 22480" transform="translate(37.314 103.746)">
          <path id="Path_14132" data-name="Path 14132" d="M601.471,132.43a1.569,1.569,0,1,1-1.569-1.569A1.569,1.569,0,0,1,601.471,132.43Z" transform="translate(-598.333 -130.861)" fill="#666"/>
        </g>
        <g id="Group_22481" data-name="Group 22481" transform="translate(63.722 25.686)">
          <path id="Path_14133" data-name="Path 14133" d="M625.712,59.491a1.568,1.568,0,1,1,.776-2.078A1.568,1.568,0,0,1,625.712,59.491Z" transform="translate(-623.492 -56.495)" fill="#666"/>
        </g>
      </g>
      <g id="Group_22741" data-name="Group 22741" transform="translate(538.976 30.681)">
        <g id="Group_22500" data-name="Group 22500">
          <g id="Layer-27" transform="translate(0 14.29)">
            <g id="Group_22483" data-name="Group 22483">
              <path id="Path_14134" data-name="Path 14134" d="M582.259,50.044a23.586,23.586,0,0,0-16.331-6.663c-13.426.186-20.009,6.33-23.641,11.65-3.3,4.832-8.184,19.794,1.8,23.133,5.516,1.845,11.452-3.439,11.452-3.439a31.978,31.978,0,0,0,10.191,1.759c6.256,0,9.683-2.909,9.683-2.909s8.9,3.21,12.341-1.474C594.185,63.35,582.259,50.044,582.259,50.044Z" transform="translate(-538.142 -43.379)" fill="#0090ff"/>
            </g>
          </g>
          <g id="Layer-26" transform="translate(1.837 14.323)">
            <g id="Group_22484" data-name="Group 22484" opacity="0.297" style="isolation: isolate">
              <path id="Path_14135" data-name="Path 14135" d="M565.967,43.41V76.482c.23,0,.441-.019.662-.03v-33C566.4,43.446,566.2,43.408,565.967,43.41Zm-1.946.124c-.225.014-.443.025-.662.042V76.348c.219.018.438.028.662.042Zm4.555.063V76.254c.225-.036.448-.062.662-.1V43.638C569.027,43.606,568.79,43.621,568.575,43.6Zm-7.163.124c-.225.027-.443.061-.662.093V76.058c.233.039.419.088.662.124Zm9.761.341v31.6c.234-.075.448-.149.662-.228V44.217C571.621,44.158,571.394,44.115,571.173,44.062ZM558.8,44.2c-.219.045-.448.086-.662.135V75.54c.266.067.363.087.662.155Zm-2.608.621c-.231.069-.438.154-.662.228V74.774c.017.006.538.153.662.2Zm17.586.031V74.525c.217-.12.5-.248.663-.352V45.1C574.23,45.01,574,44.932,573.782,44.849Zm-20.184.859c-.23.094-.441.192-.663.29V76.451c.23-.141.462-.271.663-.4Zm22.793.279V73.925c.246.07.335.086.663.166V46.329C576.842,46.212,576.614,46.1,576.39,45.987Zm-25.4.984c-.21.117-.459.212-.662.332V77.776c.229-.087.444-.184.662-.279ZM579,47.519V74.463c.217.033.435.057.662.083V47.965C579.466,47.822,579.217,47.667,579,47.519Zm-30.62,1.107c-.212.155-.459.3-.662.456V78.46c.225-.031.443-.059.662-.1Zm33.228.943V74.64c.224,0,.438.014.662,0V50.211l-.115-.145S581.78,49.735,581.608,49.569ZM545.771,50.8c-.231.224-.445.446-.662.673V78.4c.221.037.442.106.662.124Zm38.445,1.915V74.34c.233-.062.438-.187.662-.269V53.688C584.654,53.357,584.426,53.009,584.216,52.715ZM543.163,53.74c-.228.3-.453.6-.662.891v22.9c.206.111.44.2.662.3Zm43.652,3.189V73.015a5.471,5.471,0,0,0,.662-.694v-14.1C587.261,57.768,587.044,57.359,586.814,56.929Zm-46.26,1.2c-.226.5-.45,1.017-.662,1.573V75.3a7.92,7.92,0,0,0,.662.735Z" transform="translate(-539.892 -43.41)" fill="#fff"/>
            </g>
          </g>
          <g id="Layer-28" transform="translate(14.175 15.022)">
            <g id="Group_22485" data-name="Group 22485" transform="translate(0 9.987)">
              <path id="Path_14136" data-name="Path 14136" d="M551.827,63.191h-.008a.181.181,0,0,1-.171-.188c0-.022.1-2.15.358-4.031a32.169,32.169,0,0,1,1.528-5.265.18.18,0,1,1,.336.127,32.572,32.572,0,0,0-1.508,5.186c-.251,1.865-.353,3.978-.354,4A.18.18,0,0,1,551.827,63.191Z" transform="translate(-551.647 -53.591)" fill="#fff"/>
            </g>
            <g id="Group_22486" data-name="Group 22486" transform="translate(9.66)">
              <path id="Path_14137" data-name="Path 14137" d="M565.848,46.525a4.436,4.436,0,0,1-.526-.034,8.354,8.354,0,0,1-4.417-2.017.18.18,0,1,1,.249-.26,8.145,8.145,0,0,0,4.211,1.921,2.182,2.182,0,0,0,1.854-.434,1.935,1.935,0,0,0,.483-1.426.18.18,0,1,1,.359-.036,2.287,2.287,0,0,1-.59,1.719A2.228,2.228,0,0,1,565.848,46.525Z" transform="translate(-560.85 -44.076)" fill="#fff"/>
            </g>
          </g>
          <g id="Group_22487" data-name="Group 22487" transform="translate(13.716 22.209)">
            <path id="Path_14138" data-name="Path 14138" d="M580.546,50.923a2.029,2.029,0,0,1,1.966,2.089l-2.126,12.765a2.04,2.04,0,0,1-1.966,2.1h-.013l-26.2.148a1.128,1.128,0,0,1-1-1v-.611a1.137,1.137,0,0,1,1-1.012l2.755-.147,2.076-12.241a2.029,2.029,0,0,1,1.967-2.089Z" transform="translate(-551.209 -50.923)" fill="#fff"/>
          </g>
          <g id="Group_22488" data-name="Group 22488" transform="translate(22.027 36.581)">
            <rect id="Rectangle_9483" data-name="Rectangle 9483" width="19.433" height="0.36" fill="#ccc"/>
          </g>
          <g id="Group_22489" data-name="Group 22489" transform="translate(38.938 28.765)">
            <path id="Path_14139" data-name="Path 14139" d="M579.132,65.919a16.787,16.787,0,0,1,.338-2.043s-3.443-.1-3.819-1.186c-.33-.956.584-1.2,1.818-1.341a10.225,10.225,0,0,1,2.314.012,7.929,7.929,0,0,0-1.834-.086,12.224,12.224,0,0,0-2.449.467s-1.209-1.777,1.563-2.5a7.49,7.49,0,0,1,3.266.094,8.2,8.2,0,0,0-2.009-.255c-1.537-.059-2.642,1.049-2.869.218-.488-1.781,4.75-3.4,7.05-.685,1.4,1.658.795,4.207-.207,5.93C581.547,65.829,579.132,67.737,579.132,65.919Z" transform="translate(-575.238 -57.168)" fill="#f3c7a5"/>
          </g>
          <g id="Group_22490" data-name="Group 22490" transform="translate(40.158 32.749)">
            <path id="Path_14140" data-name="Path 14140" d="M576.468,61.456l-.068-.26a7.149,7.149,0,0,1,1-.17,10.3,10.3,0,0,1,2.348.012l-.038.268a10.147,10.147,0,0,0-2.279-.012A7.211,7.211,0,0,0,576.468,61.456Z" transform="translate(-576.4 -60.964)" fill="#e2ab9f"/>
          </g>
          <g id="Group_22491" data-name="Group 22491" transform="translate(40.045 30.69)">
            <path id="Path_14141" data-name="Path 14141" d="M576.378,59.57l-.086-.255a6.177,6.177,0,0,1,1.229-.254,8.469,8.469,0,0,1,2.863.154l-.067.261a8.339,8.339,0,0,0-2.763-.148A6.124,6.124,0,0,0,576.378,59.57Z" transform="translate(-576.292 -59.002)" fill="#e2ab9f"/>
          </g>
          <g id="Layer-6" transform="translate(11.791 31.552)">
            <g id="Group_22492" data-name="Group 22492">
              <path id="Path_14142" data-name="Path 14142" d="M549.375,69.7a13.423,13.423,0,0,1,1.33-5.039c.85-1.754,4-4.948,4.7-4.833,1.032.171.944,1.771-.035,3.53a5.378,5.378,0,0,1-1.436,1.631s.642-.367,1.878-1c1.673-.88,5.24-4.121,5.128-1.867.089.9-1.644,2.591-2.993,3.378a16.091,16.091,0,0,1-2.155,1.082s1.3-.53,2.219-1.032,2.82-1.838,3.295-1.278c.652.769-1.937,2.751-3.026,3.374a7.7,7.7,0,0,1-1.266.662,8.233,8.233,0,0,0,1.549-.8c1.119-.7,2.245-1.3,2.628-.648.456.777-2.053,3.13-3.208,3.866a12.342,12.342,0,0,1-4.872,1.985" transform="translate(-549.375 -59.824)" fill="#f3c7a5"/>
            </g>
          </g>
          <g id="Group_22493" data-name="Group 22493" transform="translate(54.034 9.276)">
            <path id="Path_14143" data-name="Path 14143" d="M589.67,38.73l.014-.128c-.02.067-.042.134-.065.2Z" transform="translate(-589.619 -38.602)" fill="none"/>
          </g>
          <g id="Group_22495" data-name="Group 22495" transform="translate(26.362 29.887)">
            <g id="Group_22494" data-name="Group 22494">
              <path id="Path_14144" data-name="Path 14144" d="M564.22,58.824l-.963,1.489h.658l.925-1.424Zm3.957-.034v-.552h-1.869a.6.6,0,0,0-.449.223.779.779,0,0,0-.14.284v-.5h-.993a.243.243,0,0,0-.2.1c-.056.073-.283.444-.283.444Zm5.085,0v-.552h-2a.611.611,0,0,0-.449.223.789.789,0,0,0-.139.284v.045Zm-4.427-.55h-.56v.55h.56Zm1.835,0h-.558v.55h.558Zm0,.748-.549-.033v.637a.181.181,0,0,1-.182.184h-.944a.175.175,0,0,1-.16-.182v-.726l-.555-.04v.978a.6.6,0,0,0,.517.5l.051,0h1.274a.579.579,0,0,0,.546-.562Zm-5.518,1.325h2.616a.61.61,0,0,0,.5-.5.814.814,0,0,0,.008-.219.649.649,0,0,0-.512-.475c-.2-.019-2.018-.162-2.018-.162a.573.573,0,0,0,.171.322.718.718,0,0,0,.326.154l1.4.114c.043,0,.125.014.124.119a.11.11,0,0,1-.115.106h-1.957v-.82l-.544-.04Zm5.522.005h2a.607.607,0,0,0,.573-.5.87.87,0,0,0,0-.225.624.624,0,0,0-.517-.48c-.2-.019-2.027-.125-2.027-.125a.539.539,0,0,0,.182.293.653.653,0,0,0,.315.149l1.413.117c.044,0,.131.007.131.112a.119.119,0,0,1-.036.083.231.231,0,0,1-.093.026h-1.943Z" transform="translate(-563.257 -58.238)" fill="#666"/>
            </g>
          </g>
          <g id="Group_22496" data-name="Group 22496" transform="translate(33.009 9.268)">
            <path id="Path_14145" data-name="Path 14145" d="M569.639,38.732l.017-.138c-.02.07-.044.141-.067.211Z" transform="translate(-569.589 -38.594)" fill="none"/>
          </g>
          <g id="Group_22497" data-name="Group 22497" transform="translate(33.275 7.516)">
            <path id="Path_14146" data-name="Path 14146" d="M569.854,36.929l-.011,0c0,.02,0,.039.005.059Z" transform="translate(-569.843 -36.925)" fill="none"/>
          </g>
          <g id="Group_22498" data-name="Group 22498" transform="translate(16.924)">
            <path id="Path_14147" data-name="Path 14147" d="M574.23,34.019c-.752-2.926-4.045-2.066-5.646-2.594-1.2-.4-2.5-1.474-4.024-1.64a3.479,3.479,0,0,0-1.6.2,4.331,4.331,0,0,0-2.735,2.619,5.951,5.951,0,0,0-3.994.352,4.025,4.025,0,0,0-1.956,3.75,2.817,2.817,0,0,0,1.776,2.468,1.765,1.765,0,0,0,1.094,2.738c1.99.649,3.671-1.435,3.671-1.435l-.043-.079-.3-.552-.132-.562a7.083,7.083,0,0,0,1.929-1.1,6.139,6.139,0,0,0,1.063-1.044,12.273,12.273,0,0,0,2.048-3.841,10.892,10.892,0,0,0,2.274,2.473,11.071,11.071,0,0,0,2.968,1.508l.012,0-.006.055a5.34,5.34,0,0,1-.2,1.693l-.067.211a5.533,5.533,0,0,1-.284.7c-.03.061-.067.117-.1.176a2.2,2.2,0,0,0,2.76-.632,2.278,2.278,0,0,0-.192-2.932C573.539,36,574.523,35.159,574.23,34.019Z" transform="translate(-554.266 -29.765)" fill="#261409"/>
          </g>
          <g id="Group_22499" data-name="Group 22499" transform="translate(22.993 3.534)">
            <path id="Path_14148" data-name="Path 14148" d="M570.335,37.172c0-.02,0-.039-.005-.059a11.072,11.072,0,0,1-2.968-1.508,10.891,10.891,0,0,1-2.274-2.473,12.276,12.276,0,0,1-2.048,3.841,6.141,6.141,0,0,1-1.063,1.044,7.085,7.085,0,0,1-1.929,1.1l.132.562.3.552a5.326,5.326,0,0,0,9.2-.277c.033-.06.069-.115.1-.176a5.542,5.542,0,0,0,.283-.7c.023-.07.047-.141.067-.211A5.339,5.339,0,0,0,570.335,37.172Z" transform="translate(-560.047 -33.132)" fill="#f3c7a5"/>
          </g>
        </g>
        <g id="Group_22508" data-name="Group 22508" transform="translate(43.058 107.374)">
          <g id="Group_22507" data-name="Group 22507">
            <g id="Group_22506" data-name="Group 22506">
              <g id="Group_22505" data-name="Group 22505">
                <g id="Group_22504" data-name="Group 22504">
                  <g id="Group_22503" data-name="Group 22503">
                    <g id="Group_22502" data-name="Group 22502">
                      <g id="Group_22501" data-name="Group 22501">
                        <path id="Path_14149" data-name="Path 14149" d="M581.216,139.79l-2.053-7.046,8.47-.687.7,8.219-2.532,1.6Z" transform="translate(-579.163 -132.057)" fill="#f3c7a5"/>
                      </g>
                    </g>
                  </g>
                </g>
              </g>
            </g>
          </g>
        </g>
        <g id="Group_22599" data-name="Group 22599" transform="translate(44.76 114.596)">
          <g id="Group_22598" data-name="Group 22598">
            <g id="Group_22597" data-name="Group 22597">
              <g id="Group_22522" data-name="Group 22522" transform="translate(0.001)">
                <g id="Group_22521" data-name="Group 22521">
                  <g id="Group_22520" data-name="Group 22520">
                    <g id="Group_22519" data-name="Group 22519">
                      <g id="Group_22518" data-name="Group 22518">
                        <g id="Group_22517" data-name="Group 22517">
                          <g id="Group_22516" data-name="Group 22516">
                            <g id="Group_22515" data-name="Group 22515">
                              <g id="Group_22514" data-name="Group 22514">
                                <g id="Group_22513" data-name="Group 22513">
                                  <g id="Group_22512" data-name="Group 22512">
                                    <g id="Group_22511" data-name="Group 22511">
                                      <g id="Group_22510" data-name="Group 22510">
                                        <g id="Group_22509" data-name="Group 22509">
                                          <path id="Path_14150" data-name="Path 14150" d="M588.391,139.009l.007.464s7.9,3.065,8,4.556l-15.618.108.176-5.2A8.931,8.931,0,0,0,588.391,139.009Z" transform="translate(-580.785 -138.938)" fill="#4d4d4d"/>
                                        </g>
                                      </g>
                                    </g>
                                  </g>
                                </g>
                              </g>
                            </g>
                          </g>
                        </g>
                      </g>
                    </g>
                  </g>
                </g>
              </g>
              <g id="Group_22537" data-name="Group 22537" transform="translate(1.32 1.624)" opacity="0.6">
                <g id="Group_22536" data-name="Group 22536">
                  <g id="Group_22535" data-name="Group 22535">
                    <g id="Group_22534" data-name="Group 22534">
                      <g id="Group_22533" data-name="Group 22533">
                        <g id="Group_22532" data-name="Group 22532">
                          <g id="Group_22531" data-name="Group 22531">
                            <g id="Group_22530" data-name="Group 22530">
                              <g id="Group_22529" data-name="Group 22529">
                                <g id="Group_22528" data-name="Group 22528">
                                  <g id="Group_22527" data-name="Group 22527">
                                    <g id="Group_22526" data-name="Group 22526">
                                      <g id="Group_22525" data-name="Group 22525">
                                        <g id="Group_22524" data-name="Group 22524">
                                          <g id="Group_22523" data-name="Group 22523">
                                            <path id="Path_14151" data-name="Path 14151" d="M582.491,140.512a.638.638,0,0,0-.436.731.613.613,0,0,0,.721.439.674.674,0,0,0,.458-.776.637.637,0,0,0-.8-.374" transform="translate(-582.041 -140.485)" fill="#fff"/>
                                          </g>
                                        </g>
                                      </g>
                                    </g>
                                  </g>
                                </g>
                              </g>
                            </g>
                          </g>
                        </g>
                      </g>
                    </g>
                  </g>
                </g>
              </g>
              <g id="Group_22551" data-name="Group 22551" transform="translate(0 3.949)" opacity="0.6">
                <g id="Group_22550" data-name="Group 22550">
                  <g id="Group_22549" data-name="Group 22549">
                    <g id="Group_22548" data-name="Group 22548">
                      <g id="Group_22547" data-name="Group 22547">
                        <g id="Group_22546" data-name="Group 22546">
                          <g id="Group_22545" data-name="Group 22545">
                            <g id="Group_22544" data-name="Group 22544">
                              <g id="Group_22543" data-name="Group 22543">
                                <g id="Group_22542" data-name="Group 22542">
                                  <g id="Group_22541" data-name="Group 22541">
                                    <g id="Group_22540" data-name="Group 22540">
                                      <g id="Group_22539" data-name="Group 22539">
                                        <g id="Group_22538" data-name="Group 22538">
                                          <path id="Path_14152" data-name="Path 14152" d="M580.784,143.95l.043-1.25,14.955.355s.7.3.621.787Z" transform="translate(-580.784 -142.7)" fill="#818181"/>
                                        </g>
                                      </g>
                                    </g>
                                  </g>
                                </g>
                              </g>
                            </g>
                          </g>
                        </g>
                      </g>
                    </g>
                  </g>
                </g>
              </g>
              <g id="Group_22566" data-name="Group 22566" transform="translate(6.251 0.51)">
                <g id="Group_22565" data-name="Group 22565">
                  <g id="Group_22564" data-name="Group 22564">
                    <g id="Group_22563" data-name="Group 22563">
                      <g id="Group_22562" data-name="Group 22562">
                        <g id="Group_22561" data-name="Group 22561">
                          <g id="Group_22560" data-name="Group 22560">
                            <g id="Group_22559" data-name="Group 22559">
                              <g id="Group_22558" data-name="Group 22558">
                                <g id="Group_22557" data-name="Group 22557">
                                  <g id="Group_22556" data-name="Group 22556">
                                    <g id="Group_22555" data-name="Group 22555">
                                      <g id="Group_22554" data-name="Group 22554">
                                        <g id="Group_22553" data-name="Group 22553">
                                          <g id="Group_22552" data-name="Group 22552">
                                            <path id="Path_14153" data-name="Path 14153" d="M588.157,139.493c0,.076-.383.113-.756.361s-.572.57-.642.54c-.07-.014.041-.47.5-.763S588.174,139.423,588.157,139.493Z" transform="translate(-586.74 -139.424)" fill="#263238"/>
                                          </g>
                                        </g>
                                      </g>
                                    </g>
                                  </g>
                                </g>
                              </g>
                            </g>
                          </g>
                        </g>
                      </g>
                    </g>
                  </g>
                </g>
              </g>
              <g id="Group_22581" data-name="Group 22581" transform="translate(8.284 1.215)">
                <g id="Group_22580" data-name="Group 22580">
                  <g id="Group_22579" data-name="Group 22579">
                    <g id="Group_22578" data-name="Group 22578">
                      <g id="Group_22577" data-name="Group 22577">
                        <g id="Group_22576" data-name="Group 22576">
                          <g id="Group_22575" data-name="Group 22575">
                            <g id="Group_22574" data-name="Group 22574">
                              <g id="Group_22573" data-name="Group 22573">
                                <g id="Group_22572" data-name="Group 22572">
                                  <g id="Group_22571" data-name="Group 22571">
                                    <g id="Group_22570" data-name="Group 22570">
                                      <g id="Group_22569" data-name="Group 22569">
                                        <g id="Group_22568" data-name="Group 22568">
                                          <g id="Group_22567" data-name="Group 22567">
                                            <path id="Path_14154" data-name="Path 14154" d="M589.7,140.125c.018.075-.312.206-.569.53s-.328.667-.405.663c-.071.013-.127-.433.2-.831S589.7,140.053,589.7,140.125Z" transform="translate(-588.676 -140.095)" fill="#263238"/>
                                          </g>
                                        </g>
                                      </g>
                                    </g>
                                  </g>
                                </g>
                              </g>
                            </g>
                          </g>
                        </g>
                      </g>
                    </g>
                  </g>
                </g>
              </g>
              <g id="Group_22596" data-name="Group 22596" transform="translate(10.162 1.88)">
                <g id="Group_22595" data-name="Group 22595">
                  <g id="Group_22594" data-name="Group 22594">
                    <g id="Group_22593" data-name="Group 22593">
                      <g id="Group_22592" data-name="Group 22592">
                        <g id="Group_22591" data-name="Group 22591">
                          <g id="Group_22590" data-name="Group 22590">
                            <g id="Group_22589" data-name="Group 22589">
                              <g id="Group_22588" data-name="Group 22588">
                                <g id="Group_22587" data-name="Group 22587">
                                  <g id="Group_22586" data-name="Group 22586">
                                    <g id="Group_22585" data-name="Group 22585">
                                      <g id="Group_22584" data-name="Group 22584">
                                        <g id="Group_22583" data-name="Group 22583">
                                          <g id="Group_22582" data-name="Group 22582">
                                            <path id="Path_14155" data-name="Path 14155" d="M590.559,142.048c-.069.017-.178-.363.015-.782s.549-.588.582-.525-.187.288-.34.634S590.635,142.04,590.559,142.048Z" transform="translate(-590.465 -140.729)" fill="#263238"/>
                                          </g>
                                        </g>
                                      </g>
                                    </g>
                                  </g>
                                </g>
                              </g>
                            </g>
                          </g>
                        </g>
                      </g>
                    </g>
                  </g>
                </g>
              </g>
            </g>
          </g>
        </g>
        <g id="Group_22607" data-name="Group 22607" transform="translate(21.465 107.511)">
          <g id="Group_22606" data-name="Group 22606">
            <g id="Group_22605" data-name="Group 22605">
              <g id="Group_22604" data-name="Group 22604">
                <g id="Group_22603" data-name="Group 22603">
                  <g id="Group_22602" data-name="Group 22602">
                    <g id="Group_22601" data-name="Group 22601">
                      <g id="Group_22600" data-name="Group 22600">
                        <path id="Path_14156" data-name="Path 14156" d="M566.568,139.514l.433-7.326-8.41,1.215,1.142,8.17,2.825,1Z" transform="translate(-558.591 -132.189)" fill="#f3c7a5"/>
                      </g>
                    </g>
                  </g>
                </g>
              </g>
            </g>
          </g>
        </g>
        <g id="Group_22698" data-name="Group 22698" transform="translate(15.542 114.301)">
          <g id="Group_22697" data-name="Group 22697">
            <g id="Group_22696" data-name="Group 22696">
              <g id="Group_22621" data-name="Group 22621" transform="translate(0.028)">
                <g id="Group_22620" data-name="Group 22620">
                  <g id="Group_22619" data-name="Group 22619">
                    <g id="Group_22618" data-name="Group 22618">
                      <g id="Group_22617" data-name="Group 22617">
                        <g id="Group_22616" data-name="Group 22616">
                          <g id="Group_22615" data-name="Group 22615">
                            <g id="Group_22614" data-name="Group 22614">
                              <g id="Group_22613" data-name="Group 22613">
                                <g id="Group_22612" data-name="Group 22612">
                                  <g id="Group_22611" data-name="Group 22611">
                                    <g id="Group_22610" data-name="Group 22610">
                                      <g id="Group_22609" data-name="Group 22609">
                                        <g id="Group_22608" data-name="Group 22608">
                                          <path id="Path_14157" data-name="Path 14157" d="M559.676,140.381l.1.453s-7.023,4.747-6.79,6.222l15.252-3.369-1.329-5.03A8.935,8.935,0,0,1,559.676,140.381Z" transform="translate(-552.976 -138.657)" fill="#4d4d4d"/>
                                        </g>
                                      </g>
                                    </g>
                                  </g>
                                </g>
                              </g>
                            </g>
                          </g>
                        </g>
                      </g>
                    </g>
                  </g>
                </g>
              </g>
              <g id="Group_22636" data-name="Group 22636" transform="translate(12.132 1.957)" opacity="0.6">
                <g id="Group_22635" data-name="Group 22635">
                  <g id="Group_22634" data-name="Group 22634">
                    <g id="Group_22633" data-name="Group 22633">
                      <g id="Group_22632" data-name="Group 22632">
                        <g id="Group_22631" data-name="Group 22631">
                          <g id="Group_22630" data-name="Group 22630">
                            <g id="Group_22629" data-name="Group 22629">
                              <g id="Group_22628" data-name="Group 22628">
                                <g id="Group_22627" data-name="Group 22627">
                                  <g id="Group_22626" data-name="Group 22626">
                                    <g id="Group_22625" data-name="Group 22625">
                                      <g id="Group_22624" data-name="Group 22624">
                                        <g id="Group_22623" data-name="Group 22623">
                                          <g id="Group_22622" data-name="Group 22622">
                                            <path id="Path_14158" data-name="Path 14158" d="M565.145,140.528a.639.639,0,0,1,.588.616.614.614,0,0,1-.606.588.673.673,0,0,1-.618-.655.635.635,0,0,1,.7-.542" transform="translate(-564.506 -140.522)" fill="#fff"/>
                                          </g>
                                        </g>
                                      </g>
                                    </g>
                                  </g>
                                </g>
                              </g>
                            </g>
                          </g>
                        </g>
                      </g>
                    </g>
                  </g>
                </g>
              </g>
              <g id="Group_22650" data-name="Group 22650" transform="translate(0 3.82)" opacity="0.6">
                <g id="Group_22649" data-name="Group 22649">
                  <g id="Group_22648" data-name="Group 22648">
                    <g id="Group_22647" data-name="Group 22647">
                      <g id="Group_22646" data-name="Group 22646">
                        <g id="Group_22645" data-name="Group 22645">
                          <g id="Group_22644" data-name="Group 22644">
                            <g id="Group_22643" data-name="Group 22643">
                              <g id="Group_22642" data-name="Group 22642">
                                <g id="Group_22641" data-name="Group 22641">
                                  <g id="Group_22640" data-name="Group 22640">
                                    <g id="Group_22639" data-name="Group 22639">
                                      <g id="Group_22638" data-name="Group 22638">
                                        <g id="Group_22637" data-name="Group 22637">
                                          <path id="Path_14159" data-name="Path 14159" d="M568.234,143.506l-.32-1.21-14.5,3.673s-.614.446-.431.907Z" transform="translate(-552.949 -142.296)" fill="#818181"/>
                                        </g>
                                      </g>
                                    </g>
                                  </g>
                                </g>
                              </g>
                            </g>
                          </g>
                        </g>
                      </g>
                    </g>
                  </g>
                </g>
              </g>
              <g id="Group_22665" data-name="Group 22665" transform="translate(6.779 2.085)">
                <g id="Group_22664" data-name="Group 22664">
                  <g id="Group_22663" data-name="Group 22663">
                    <g id="Group_22662" data-name="Group 22662">
                      <g id="Group_22661" data-name="Group 22661">
                        <g id="Group_22660" data-name="Group 22660">
                          <g id="Group_22659" data-name="Group 22659">
                            <g id="Group_22658" data-name="Group 22658">
                              <g id="Group_22657" data-name="Group 22657">
                                <g id="Group_22656" data-name="Group 22656">
                                  <g id="Group_22655" data-name="Group 22655">
                                    <g id="Group_22654" data-name="Group 22654">
                                      <g id="Group_22653" data-name="Group 22653">
                                        <g id="Group_22652" data-name="Group 22652">
                                          <g id="Group_22651" data-name="Group 22651">
                                            <path id="Path_14160" data-name="Path 14160" d="M559.408,140.79c.019.073.4.025.819.184s.683.428.745.384-.144-.45-.655-.634S559.378,140.725,559.408,140.79Z" transform="translate(-559.406 -140.643)" fill="#263238"/>
                                          </g>
                                        </g>
                                      </g>
                                    </g>
                                  </g>
                                </g>
                              </g>
                            </g>
                          </g>
                        </g>
                      </g>
                    </g>
                  </g>
                </g>
              </g>
              <g id="Group_22680" data-name="Group 22680" transform="translate(5.327 3.188)">
                <g id="Group_22679" data-name="Group 22679">
                  <g id="Group_22678" data-name="Group 22678">
                    <g id="Group_22677" data-name="Group 22677">
                      <g id="Group_22676" data-name="Group 22676">
                        <g id="Group_22675" data-name="Group 22675">
                          <g id="Group_22674" data-name="Group 22674">
                            <g id="Group_22673" data-name="Group 22673">
                              <g id="Group_22672" data-name="Group 22672">
                                <g id="Group_22671" data-name="Group 22671">
                                  <g id="Group_22670" data-name="Group 22670">
                                    <g id="Group_22669" data-name="Group 22669">
                                      <g id="Group_22668" data-name="Group 22668">
                                        <g id="Group_22667" data-name="Group 22667">
                                          <g id="Group_22666" data-name="Group 22666">
                                            <path id="Path_14161" data-name="Path 14161" d="M558.024,141.753c0,.076.35.131.672.39s.469.576.543.556c.072,0,.027-.451-.38-.765S558.009,141.681,558.024,141.753Z" transform="translate(-558.024 -141.694)" fill="#263238"/>
                                          </g>
                                        </g>
                                      </g>
                                    </g>
                                  </g>
                                </g>
                              </g>
                            </g>
                          </g>
                        </g>
                      </g>
                    </g>
                  </g>
                </g>
              </g>
              <g id="Group_22695" data-name="Group 22695" transform="translate(3.967 4.198)">
                <g id="Group_22694" data-name="Group 22694">
                  <g id="Group_22693" data-name="Group 22693">
                    <g id="Group_22692" data-name="Group 22692">
                      <g id="Group_22691" data-name="Group 22691">
                        <g id="Group_22690" data-name="Group 22690">
                          <g id="Group_22689" data-name="Group 22689">
                            <g id="Group_22688" data-name="Group 22688">
                              <g id="Group_22687" data-name="Group 22687">
                                <g id="Group_22686" data-name="Group 22686">
                                  <g id="Group_22685" data-name="Group 22685">
                                    <g id="Group_22684" data-name="Group 22684">
                                      <g id="Group_22683" data-name="Group 22683">
                                        <g id="Group_22682" data-name="Group 22682">
                                          <g id="Group_22681" data-name="Group 22681">
                                            <path id="Path_14162" data-name="Path 14162" d="M557.6,143.82c.071,0,.092-.394-.189-.759s-.665-.451-.683-.382.247.239.472.543S557.527,143.829,557.6,143.82Z" transform="translate(-556.728 -142.657)" fill="#263238"/>
                                          </g>
                                        </g>
                                      </g>
                                    </g>
                                  </g>
                                </g>
                              </g>
                            </g>
                          </g>
                        </g>
                      </g>
                    </g>
                  </g>
                </g>
              </g>
            </g>
          </g>
        </g>
        <g id="Group_22740" data-name="Group 22740" transform="translate(13.357 44.408)">
          <g id="Group_22703" data-name="Group 22703">
            <g id="Group_22702" data-name="Group 22702">
              <g id="Group_22701" data-name="Group 22701">
                <g id="Group_22700" data-name="Group 22700">
                  <g id="Group_22699" data-name="Group 22699">
                    <path id="Path_14163" data-name="Path 14163" d="M580.7,92.986c-.351-1.444-2.9-10.768-3.389-12.171l-2.294-6.571-.155-2.173-19.461.6a22.55,22.55,0,0,0-3.8,7.279c-.882,3.317-1.327,8.348.761,21.434,1.374,7.261,5.109,38.217,5.109,38.217h11.658l-3.7-49.96,4.326,14.968,9.312,34.351,12.471-.066Z" transform="translate(-550.868 -72.071)" fill="#818181"/>
                  </g>
                </g>
              </g>
            </g>
          </g>
          <g id="Group_22709" data-name="Group 22709" transform="translate(13.987 0.367)">
            <g id="Group_22708" data-name="Group 22708">
              <g id="Group_22707" data-name="Group 22707">
                <g id="Group_22706" data-name="Group 22706">
                  <g id="Group_22705" data-name="Group 22705">
                    <g id="Group_22704" data-name="Group 22704">
                      <path id="Path_14164" data-name="Path 14164" d="M566.729,72.421a.636.636,0,0,1,.019.16l.025.459c.018.4.038.975.044,1.689.019,1.426-.017,3.4-.169,5.572-.174,2.514-.481,4.738-.708,6.136l-.006.037H565.9l-1.256.027-.334,0a.387.387,0,0,1-.114-.008.431.431,0,0,1,.113-.017l.333-.024,1.254-.068-.042.037c.2-1.4.48-3.625.653-6.133.152-2.168.2-4.137.211-5.561l0-1.688v-.459A.673.673,0,0,1,566.729,72.421Z" transform="translate(-564.193 -72.421)" fill="#263238"/>
                    </g>
                  </g>
                </g>
              </g>
            </g>
          </g>
          <g id="Group_22715" data-name="Group 22715" transform="translate(13.905 1.043)">
            <g id="Group_22714" data-name="Group 22714">
              <g id="Group_22713" data-name="Group 22713">
                <g id="Group_22712" data-name="Group 22712">
                  <g id="Group_22711" data-name="Group 22711">
                    <g id="Group_22710" data-name="Group 22710">
                      <path id="Path_14165" data-name="Path 14165" d="M564.431,73.237c.008.01-.04.048-.1.135a.766.766,0,0,0-.119.41.737.737,0,0,0,.237.555.688.688,0,0,0,1.081-.545.738.738,0,0,0-.305-.522.773.773,0,0,0-.4-.149c-.1-.006-.163.009-.166,0s.051-.041.165-.052a.741.741,0,0,1,.458.122.821.821,0,0,1,.381.6.809.809,0,0,1-1.3.654.818.818,0,0,1-.252-.659.747.747,0,0,1,.174-.441C564.367,73.254,564.428,73.232,564.431,73.237Z" transform="translate(-564.114 -73.064)" fill="#263238"/>
                    </g>
                  </g>
                </g>
              </g>
            </g>
          </g>
          <g id="Group_22721" data-name="Group 22721" transform="translate(4.604 1.098)">
            <g id="Group_22720" data-name="Group 22720">
              <g id="Group_22719" data-name="Group 22719">
                <g id="Group_22718" data-name="Group 22718">
                  <g id="Group_22717" data-name="Group 22717">
                    <g id="Group_22716" data-name="Group 22716">
                      <path id="Path_14166" data-name="Path 14166" d="M560.978,73.117a1.2,1.2,0,0,1-.035.319,4.99,4.99,0,0,1-.235.843,5.576,5.576,0,0,1-4.263,3.554,4.987,4.987,0,0,1-.872.08,1.241,1.241,0,0,1-.319-.023c0-.028.458-.006,1.171-.156a5.768,5.768,0,0,0,4.188-3.491C560.89,73.566,560.951,73.111,560.978,73.117Z" transform="translate(-555.254 -73.117)" fill="#263238"/>
                    </g>
                  </g>
                </g>
              </g>
            </g>
          </g>
          <g id="Group_22727" data-name="Group 22727" transform="translate(20.328 0.479)">
            <g id="Group_22726" data-name="Group 22726">
              <g id="Group_22725" data-name="Group 22725">
                <g id="Group_22724" data-name="Group 22724">
                  <g id="Group_22723" data-name="Group 22723">
                    <g id="Group_22722" data-name="Group 22722">
                      <path id="Path_14167" data-name="Path 14167" d="M575.445,78.341a1.294,1.294,0,0,1-.29-.118,5.392,5.392,0,0,1-.726-.446,11.381,11.381,0,0,1-1.986-1.978,19.816,19.816,0,0,1-1.692-2.232,6.542,6.542,0,0,1-.405-.748,1.134,1.134,0,0,1-.11-.292c.022-.01.2.394.6.986a26.08,26.08,0,0,0,1.717,2.195,13.18,13.18,0,0,0,1.937,1.988C575.05,78.134,575.457,78.317,575.445,78.341Z" transform="translate(-570.234 -72.528)" fill="#263238"/>
                    </g>
                  </g>
                </g>
              </g>
            </g>
          </g>
          <g id="Group_22733" data-name="Group 22733" transform="translate(7.473 34.431)">
            <g id="Group_22732" data-name="Group 22732">
              <g id="Group_22731" data-name="Group 22731">
                <g id="Group_22730" data-name="Group 22730">
                  <g id="Group_22729" data-name="Group 22729">
                    <g id="Group_22728" data-name="Group 22728">
                      <path id="Path_14168" data-name="Path 14168" d="M564.428,107.222a1.038,1.038,0,0,1-.276.017,7.036,7.036,0,0,1-.749-.04,9.994,9.994,0,0,1-4.616-1.683,7.234,7.234,0,0,1-.6-.452,1.044,1.044,0,0,1-.2-.19c.015-.019.323.221.854.557a11.415,11.415,0,0,0,4.573,1.667C564.037,107.184,564.428,107.2,564.428,107.222Z" transform="translate(-557.987 -104.873)" fill="#263238"/>
                    </g>
                  </g>
                </g>
              </g>
            </g>
          </g>
          <g id="Group_22739" data-name="Group 22739" transform="translate(26.168 34.924)">
            <g id="Group_22738" data-name="Group 22738">
              <g id="Group_22737" data-name="Group 22737">
                <g id="Group_22736" data-name="Group 22736">
                  <g id="Group_22735" data-name="Group 22735">
                    <g id="Group_22734" data-name="Group 22734">
                      <path id="Path_14169" data-name="Path 14169" d="M579.3,105.343a4.688,4.688,0,0,1-.41.773c-.276.464-.679,1.093-1.164,1.76s-.958,1.246-1.315,1.651a4.62,4.62,0,0,1-.608.629,6.221,6.221,0,0,1,.53-.694c.336-.421.795-1.007,1.277-1.67s.9-1.281,1.194-1.73A6.226,6.226,0,0,1,579.3,105.343Z" transform="translate(-575.797 -105.343)" fill="#263238"/>
                    </g>
                  </g>
                </g>
              </g>
            </g>
          </g>
        </g>
      </g>
      <g id="Group_22743" data-name="Group 22743" transform="translate(653.924 74.243)">
        <g id="Path_10524" data-name="Path 10524">
          <path id="Path_14170" data-name="Path 14170" d="M655.841,75.346a4.081,4.081,0,0,0-8.161,0c-.308,3.151,1.813,6,4.079,8.607C654.029,81.35,656.154,78.5,655.841,75.346Zm-4.082,2.266A2.234,2.234,0,1,1,654,75.378a2.234,2.234,0,0,1-2.239,2.235h0Z" transform="translate(-647.651 -71.266)" fill="#f27dfb"/>
        </g>
        <g id="Group_22742" data-name="Group 22742" transform="translate(1.878 1.878)">
          <path id="Path_14171" data-name="Path 14171" d="M651.67,77.523a2.234,2.234,0,1,1,2.239-2.235,2.234,2.234,0,0,1-2.239,2.235h0Z" transform="translate(-649.44 -73.055)" fill="#fff"/>
        </g>
      </g>
      <g id="Group_22745" data-name="Group 22745" transform="translate(629.548 104.139)">
        <g id="Path_10524-2" data-name="Path 10524">
          <path id="Path_14172" data-name="Path 14172" d="M632.619,103.828a4.08,4.08,0,1,0-8.16,0c-.309,3.15,1.813,6,4.079,8.607C630.806,109.831,632.931,106.978,632.619,103.828Zm-4.081,2.266a2.235,2.235,0,1,1,2.238-2.235,2.234,2.234,0,0,1-2.238,2.235Z" transform="translate(-624.428 -99.747)" fill="#6fc371"/>
        </g>
        <g id="Group_22744" data-name="Group 22744" transform="translate(1.879 1.878)">
          <path id="Path_14173" data-name="Path 14173" d="M628.449,106.005a2.235,2.235,0,1,1,2.238-2.235,2.234,2.234,0,0,1-2.238,2.235Z" transform="translate(-626.218 -101.536)" fill="#fff"/>
        </g>
      </g>
      <g id="Group_22747" data-name="Group 22747" transform="translate(624.59 36.322)">
        <g id="Path_10524-3" data-name="Path 10524">
          <path id="Path_14174" data-name="Path 14174" d="M627.895,39.219a4.08,4.08,0,0,0-8.16,0c-.308,3.151,1.813,6,4.078,8.607C626.082,45.223,628.207,42.37,627.895,39.219Zm-4.082,2.266a2.234,2.234,0,1,1,2.239-2.234,2.234,2.234,0,0,1-2.239,2.234h0Z" transform="translate(-619.704 -35.139)" fill="#6fadc3"/>
        </g>
        <g id="Group_22746" data-name="Group 22746" transform="translate(1.879 1.878)">
          <path id="Path_14175" data-name="Path 14175" d="M623.723,41.4a2.234,2.234,0,1,1,2.239-2.234,2.234,2.234,0,0,1-2.239,2.234h0Z" transform="translate(-621.494 -36.928)" fill="#fff"/>
        </g>
      </g>
      <g id="Path_10524-4" data-name="Path 10524" transform="translate(611.366 65.011)">
        <path id="Path_14176" data-name="Path 14176" d="M615.3,66.551a4.081,4.081,0,0,0-8.161,0c-.308,3.151,1.813,6,4.079,8.607C613.485,72.555,615.61,69.7,615.3,66.551Zm-4.082,2.266a2.234,2.234,0,1,1,2.238-2.234,2.234,2.234,0,0,1-2.238,2.234h0Z" transform="translate(-607.107 -62.471)" fill="#0090ff"/>
      </g>
      <g id="Group_22748" data-name="Group 22748" transform="translate(613.244 66.889)">
        <path id="Path_14177" data-name="Path 14177" d="M611.127,68.728a2.234,2.234,0,1,1,2.238-2.234,2.234,2.234,0,0,1-2.238,2.234h0Z" transform="translate(-608.896 -64.26)" fill="#fff"/>
      </g>
      <g id="Path_10524-5" data-name="Path 10524" transform="translate(592.026 102.878)">
        <path id="Path_14178" data-name="Path 14178" d="M596.873,102.627a4.081,4.081,0,1,0-8.161,0c-.308,3.15,1.813,6,4.079,8.607C595.06,108.63,597.185,105.777,596.873,102.627Zm-4.082,2.266a2.235,2.235,0,1,1,2.238-2.235,2.235,2.235,0,0,1-2.238,2.235h0Z" transform="translate(-588.682 -98.546)" fill="#fbe57c"/>
      </g>
      <g id="Group_22749" data-name="Group 22749" transform="translate(593.904 104.756)">
        <path id="Path_14179" data-name="Path 14179" d="M592.7,104.8a2.235,2.235,0,1,1,2.238-2.235A2.234,2.234,0,0,1,592.7,104.8h0Z" transform="translate(-590.471 -100.335)" fill="#fff"/>
      </g>
    </g>
  </g>
</svg>
