<svg xmlns="http://www.w3.org/2000/svg" width="48" height="22" viewBox="0 0 48 22">
  <g fill="none" fill-rule="evenodd">
    <path fill="#FFF" d="M32.243275,16.228638 C33.126025,16.228638 33.484025,16.8323666 33.516275,17.2661642 L32.900025,17.2661642 C32.851775,17.0895057 32.756525,16.7583644 32.247525,16.7583644 C31.951525,16.7583644 31.517025,16.9552053 31.517025,17.7869206 C31.517025,18.3154011 31.726025,18.7900618 32.247525,18.7900618 C32.588525,18.7900618 32.826525,18.5979551 32.900025,18.2371631 L33.516275,18.2371631 C33.393775,18.8762732 32.974275,19.3200374 32.235525,19.3200374 C31.451275,19.3200374 30.889025,18.794796 30.889025,17.7786981 C30.889025,16.7501419 31.483775,16.228638 32.243275,16.228638 Z M44.3031,16.2452574 C44.7696,16.2452574 45.1311,16.392016 45.38635,16.6877758 C45.62385,16.9623564 45.7431,17.3266367 45.7431,17.7786234 C45.7431,18.2109259 45.6341,18.5620004 45.41885,18.8323453 C45.1676,19.1460449 44.79835,19.304016 44.3106,19.304016 C43.80235,19.304016 43.4216,19.137075 43.1716,18.8036912 C42.9686,18.5355889 42.8676,18.1987168 42.8676,17.7905833 C42.8676,17.3119359 42.9926,16.9339515 43.24135,16.6583742 C43.48985,16.3827969 43.84435,16.2452574 44.3031,16.2452574 Z M20.59825,16.2945424 L21.13275,18.3112899 L21.66825,16.2945424 L22.56725,16.2945424 L22.56725,19.2543822 L22.01225,19.2543822 L22.01225,16.9231875 L21.42725,19.2543822 L20.851,19.2543822 L20.2665,16.9231875 L20.258,19.2543822 L19.70225,19.2543822 L19.70225,16.2945424 L20.59825,16.2945424 Z M27.091,16.2944427 L27.091,19.2542825 L26.493,19.2542825 L26.493,16.2944427 L27.091,16.2944427 Z M38.37995,16.2946919 C38.58095,16.2946919 38.73945,16.302416 38.8532,16.3186118 C38.9167,16.3270834 38.98595,16.3437775 39.0607,16.3689433 C39.2182,16.4269989 39.3407,16.5331435 39.4297,16.6873771 C39.50645,16.8221758 39.5642,16.9921068 39.5642,17.1490812 C39.5642,17.3140289 39.54445,17.5427631 39.4627,17.6753192 C39.38595,17.8046363 39.27345,17.9105317 39.12945,17.9683382 C39.07995,17.9902647 38.94445,18.0231546 38.94445,18.0231546 L38.94445,18.0231546 L39.63845,19.2542825 L38.9207,19.2542825 L38.28795,18.0814594 L37.7172,18.0879377 L37.7172,19.2542825 L37.11895,19.2542825 L37.11895,16.2946919 Z M44.3061,16.7577913 C44.00285,16.7577913 43.78185,16.8724076 43.6426,17.0998959 C43.5386,17.2743119 43.48585,17.4988102 43.48585,17.7746367 C43.48585,17.9291195 43.5016,18.0626723 43.53185,18.1750461 C43.55435,18.2577691 43.58785,18.3394954 43.63435,18.4192285 C43.69535,18.5238781 43.7751,18.6078469 43.87185,18.6708859 C43.99335,18.7503697 44.1386,18.7909838 44.3061,18.7909838 C44.5166,18.7909838 44.6926,18.7274465 44.8326,18.6006211 C45.02735,18.4252085 45.12435,18.146392 45.12435,17.7659159 C45.12435,17.5122652 45.07935,17.302966 44.9911,17.1377691 C44.85535,16.8843675 44.62735,16.7577913 44.3061,16.7577913 Z M38.305608,16.7957662 L37.7172,16.795515 L37.7172,17.5467497 L38.3505056,17.5458546 C38.4236722,17.5446733 38.4836167,17.5423478 38.52945,17.5390256 C38.5957,17.5357864 38.65245,17.5265673 38.69995,17.5093749 C38.79045,17.479475 38.85445,17.4244093 38.89145,17.344178 C38.91545,17.291604 38.92745,17.2313059 38.92745,17.1620378 C38.92745,17.0965072 38.91545,17.0372058 38.89145,16.984881 C38.8687,16.9350478 38.83045,16.8941846 38.77345,16.8605473 C38.72095,16.8276574 38.66295,16.8079733 38.6002,16.80299 C38.5392,16.7975083 38.40095,16.795515 38.1857,16.795515 Z M46.832875,15.0947097 L46.832875,15.2093259 L46.512875,15.2093259 L46.512875,16.0569878 L46.385375,16.0569878 L46.385375,15.2093259 L46.067625,15.2093259 L46.067625,15.0947097 L46.832875,15.0947097 Z M47.15595,15.0947844 L47.3832,15.7762527 C47.38495,15.7779969 47.3922,15.8039101 47.4087,15.8549891 C47.41945,15.8858857 47.4257,15.9065664 47.42745,15.9185264 L47.4817,15.7635453 L47.7127,15.0947844 L47.8827,15.0947844 L47.8827,16.0570625 L47.7607,16.0570625 L47.7607,15.2517588 L47.4807,16.0570625 L47.36645,16.0570625 L47.08995,15.2380547 L47.08645,16.0570625 L46.9637,16.0570625 L46.9637,15.0947844 L47.15595,15.0947844 Z M26.691,9.53941001 C27.70675,9.50552347 28.91725,9.80078487 28.91725,10.8829117 C28.91725,11.5733499 28.71925,12.4825557 27.9545,12.6793967 L27.9545,12.6793967 L29.03975,14.871806 L27.62725,14.871806 C27.53075,14.3976436 26.77975,12.755143 26.77975,12.755143 L26.77975,12.755143 L25.56725,12.755143 L25.56725,14.871806 L24.419,14.871806 L24.419,9.53941001 Z M34.300025,9.53933526 L34.300025,10.4253686 L31.610525,10.4253686 L31.610525,11.6791706 L34.084525,11.6791706 L34.084525,12.5654532 L31.610525,12.5654532 L31.610525,13.9859471 L34.380525,13.9859471 L34.380525,14.8717313 L30.462525,14.8717313 L30.462525,9.53933526 L34.300025,9.53933526 Z M37.363775,9.53943493 L39.316775,13.0237686 L39.331775,13.009317 L39.331775,9.53943493 L40.405025,9.53943493 L40.405025,14.8718309 L38.994275,14.8718309 L37.029525,11.3264516 L37.013775,11.3411524 L37.013775,14.8718309 L35.940525,14.8718309 L35.940525,9.53943493 L37.363775,9.53943493 Z M43.89365,9.53943493 C45.56115,9.52473415 46.59815,10.3514661 46.59815,12.2055083 C46.59815,14.0597998 45.56115,14.8867809 43.89365,14.8718309 L43.89365,14.8718309 L42.0719,14.8718309 L42.0719,9.53943493 Z M23.2258065,9.6 L23.2258065,10.4747544 L21.6312751,10.4747544 L21.6312751,14.8645161 L20.4838531,14.8645161 L20.4838531,10.4747544 L18.8903226,10.4747544 L18.8903226,9.6 L23.2258065,9.6 Z M43.8134,10.467079 L43.2199,10.467079 L43.2199,13.9857976 L43.8134,13.9857976 C45.1759,14.001495 45.3764,13.0554127 45.3764,12.2055083 C45.3764,11.3561023 45.1759,10.4523782 43.8134,10.467079 L43.8134,10.467079 Z M26.98375,10.4251942 L25.56725,10.4251942 L25.56725,11.827499 L26.98375,11.827499 C27.4855,11.8207715 27.78175,11.57036 27.78175,11.1001842 C27.78175,10.6315034 27.4855,10.4329184 26.98375,10.4251942 L26.98375,10.4251942 Z"/>
    <path fill="#EC1C24" d="M2.1195,15.2635942 C2.122,15.2546242 2.1255,15.2469001 2.12975,15.2366843 C2.1395,15.2085286 2.151,15.1796254 2.1615,15.151968 C2.17125,15.1260547 2.1815,15.1006398 2.192,15.0749758 C2.19625,15.0630158 2.2015,15.0510558 2.206,15.0400925 C2.354,14.6750647 2.541,14.2998211 2.767,13.9195942 C2.79675,13.8565553 2.82725,13.7947622 2.85775,13.7322216 L1.90525,13.7347132 L2.1365,13.2264151 C2.92375,13.0121326 4.23525,12.5750959 5.4875,11.3651471 L5.5245,11.3626554 L6.18375,11.3626554 L5.3315,13.182562 L6.7,13.1788245 L6.4485,13.72076 L5.0825,13.7252449 C5.0825,13.7252449 4.44125,15.0029669 4.2235,15.9164085 C4.05475,16.9362438 4.2205,17.6976943 5.1375,17.9822416 C5.7035,18.1574051 6.41,18.1170403 7.17125,17.9025086 C8.9425,17.3518523 10.836,16.1386643 12.2215,14.5317944 C14.5025,11.8911359 14.5475,9.18918265 12.32275,8.49949188 C10.8955,8.05697353 8.883,8.54857753 7.0205,9.65512258 C9.34275,8.16162314 11.89625,7.46096908 13.658,8.00763871 C13.98875,8.11029499 14.27425,8.2513228 14.518,8.42573882 C13.06225,6.8265931 10.96075,5.8229535 8.62375,5.8229535 C4.2315,5.8229535 0.67025,9.37182113 0.67025,13.7499123 C0.67025,15.3662505 1.1565,16.8687199 1.98925,18.1225219 C1.67425,17.3476165 1.7185,16.3544418 2.1195,15.2635942"/>
    <path fill="#EC1C24" d="M15.36755,9.54469232 C15.8993,10.9841228 15.2343,13.1346723 13.39705,15.2622986 C10.63905,18.4585967 6.2823,20.3916245 3.6678,19.5800917 C3.34305,19.4801762 3.06105,19.3408925 2.82055,19.1699648 C4.27155,20.7130483 6.3343,21.6773197 8.62355,21.6773197 C13.0173,21.6773197 16.57855,18.1282029 16.57855,13.7498625 C16.57855,12.2047858 16.1333,10.7636111 15.36755,9.54469232"/>
    <path fill="#BCBCBC" d="M.426275 1.68368765L1.259025 1.68368765C1.534525 1.68368765 1.730025 1.63260868 1.845775 1.53045072 1.961525 1.42829277 2.019275 1.28427497 2.019275 1.09889566 2.019275.964595328 1.985275.849729922 1.917025.754050278 1.849025.658370634 1.759275.595331702 1.648025.564684316 1.576275.54574772 1.443525.536279422 1.250275.536279422L.426275.536279422.426275 1.68368765zM.000025 3.36779889L.000025.157298331 1.215025.157298331C1.429025.157298331 1.592275.167514127 1.705025.187945717 1.863275.214357286 1.995775.264190434 2.102775.337943493 2.209775.411696552 2.295775.515100334 2.361025.647905673 2.426275.780711012 2.458775.926722136 2.458775 1.08593904 2.458775 1.35877553 2.371525 1.59000133 2.197275 1.77886897 2.023025 1.96798576 1.708025 2.06266874 1.252525 2.06266874L.426275 2.06266874.426275 3.36779889.000025 3.36779889zM3.2102 2.20489255C3.2102 2.50264561 3.27545 2.72564894 3.4057 2.87390256 3.5362 3.02215617 3.7002 3.0961584 3.89795 3.0961584 4.0942 3.0961584 4.25745 3.02165784 4.38795 2.8729059 4.5182 2.72390478 4.58345 2.49691479 4.58345 2.19168676 4.58345 1.9041495 4.51795 1.68612948 4.38695 1.53812503 4.2557 1.38987141 4.0927 1.31586919 3.89795 1.31586919 3.7002 1.31586919 3.5362 1.38962225 3.4057 1.5368792 3.27545 1.68438532 3.2102 1.90713949 3.2102 2.20489255M2.8037 2.20489255C2.8037 1.77408498 2.9237 1.45515284 3.16395 1.24784694 3.3647 1.07567341 3.60945.989462069 3.89795.989462069 4.2187.989462069 4.48095 1.09411168 4.68445 1.30366007 4.8882 1.51320845 4.98995 1.80273904 4.98995 2.17200267 4.98995 2.47125072 4.94495 2.70671235 4.85495 2.87838754 4.7647 3.04981357 4.6337 3.18311724 4.46145 3.27804939 4.28945 3.37273237 4.10145 3.42032303 3.89795 3.42032303 3.5712 3.42032303 3.3072 3.31592258 3.10595 3.10712169 2.90445 2.8983208 2.8037 2.59757775 2.8037 2.20489255M5.884275 3.36774905L5.170275 1.04203604 5.578775 1.04203604 5.950275 2.38454105 6.088525 2.88386919C6.094525 2.85895261 6.134775 2.69898821 6.209525 2.40422514L6.580775 1.04203604 6.987275 1.04203604 7.336775 2.39101935 7.453025 2.83553103 7.587275 2.38653437 7.987025 1.04203604 8.371525 1.04203604 7.642025 3.36774905 7.231275 3.36774905 6.859775 1.97491257 6.769775 1.57848988 6.297275 3.36774905 5.884275 3.36774905zM9.0022 1.98151546L10.3052 1.98151546C10.2877 1.78592036 10.2377 1.63916174 10.1557 1.5412396 10.0297 1.38949766 9.86645 1.31350211 9.6657 1.31350211 9.4842 1.31350211 9.33145 1.37404939 9.2077 1.4953931 9.08395 1.61648765 9.01545 1.77869455 9.0022 1.98151546M10.3007 2.61888142L10.70945 2.6692129C10.64495 2.90716618 10.5257 3.091798 10.3512 3.22310834 10.17695 3.35466785 9.95445 3.42019844 9.68345 3.42019844 9.34195 3.42019844 9.07145 3.31554883 8.87145 3.10600044 8.67145 2.89645206 8.57145 2.60268565 8.57145 2.22470122 8.57145 1.83326185 8.6727 1.52977798 8.8747 1.31350211 9.07695 1.09747542 9.3392.989586652 9.66145.989586652 9.97345.989586652 10.2282 1.09523293 10.42595 1.3070238 10.6237 1.51881468 10.7227 1.81656774 10.7227 2.20053215 10.7227 2.22395373 10.72195 2.25883693 10.72045 2.30568009L8.9802 2.30568009C8.99495 2.56107497 9.06745 2.75667008 9.1977 2.89246541 9.3282 3.02826073 9.4907 3.09628298 9.68545 3.09628298 9.83045 3.09628298 9.95445 3.05816062 10.05695 2.98241424 10.15945 2.90641869 10.2407 2.78532414 10.3007 2.61888142M11.20165 3.36774905L11.20165 1.04203604 11.55765 1.04203604 11.55765 1.39460556C11.6484 1.22965784 11.7324 1.12077241 11.80915 1.06819844 11.88615 1.01587364 11.97065.989462069 12.0629.989462069 12.1964.989462069 12.3319 1.03182024 12.4694 1.1165366L12.33315 1.4823119C12.23665 1.42525295 12.1399 1.39684805 12.04315 1.39684805 11.9569 1.39684805 11.87915 1.42276129 11.8104 1.47458776 11.7414 1.52641424 11.6924 1.59817397 11.66315 1.69036529 11.61915 1.83039644 11.59715 1.98363337 11.59715 2.15007608L11.59715 3.36774905 11.20165 3.36774905zM13.003425 1.98151546L14.306425 1.98151546C14.288925 1.78592036 14.238925 1.63916174 14.156925 1.5412396 14.030925 1.38949766 13.867675 1.31350211 13.666925 1.31350211 13.485425 1.31350211 13.332675 1.37404939 13.208925 1.4953931 13.085175 1.61648765 13.016675 1.77869455 13.003425 1.98151546M14.301925 2.61888142L14.710675 2.6692129C14.646175 2.90716618 14.526925 3.091798 14.352425 3.22310834 14.178175 3.35466785 13.955675 3.42019844 13.684675 3.42019844 13.343175 3.42019844 13.072675 3.31554883 12.872675 3.10600044 12.672675 2.89645206 12.572675 2.60268565 12.572675 2.22470122 12.572675 1.83326185 12.673925 1.52977798 12.875925 1.31350211 13.078175 1.09747542 13.340425.989586652 13.662675.989586652 13.974675.989586652 14.229425 1.09523293 14.427175 1.3070238 14.624925 1.51881468 14.723925 1.81656774 14.723925 2.20053215 14.723925 2.22395373 14.723175 2.25883693 14.721675 2.30568009L12.981425 2.30568009C12.996175 2.56107497 13.068675 2.75667008 13.198925 2.89246541 13.329425 3.02826073 13.491925 3.09628298 13.686675 3.09628298 13.831675 3.09628298 13.955675 3.05816062 14.058175 2.98241424 14.160675 2.90641869 14.241925 2.78532414 14.301925 2.61888142M15.47095 2.20708521C15.47095 2.50483826 15.53395 2.72759244 15.65995 2.87509855 15.78595 3.02235551 15.93445 3.09610857 16.10595 3.09610857 16.2787 3.09610857 16.4257 3.02584383 16.54645 2.88481602 16.66745 2.74403737 16.7277 2.52900734 16.7277 2.23997508 16.7277 1.92154127 16.6662 1.68807297 16.5432 1.53907186 16.4202 1.39031991 16.26845 1.31581935 16.08845 1.31581935 15.9127 1.31581935 15.7657 1.38732992 15.64795 1.53035106 15.52995 1.67337219 15.47095 1.89911635 15.47095 2.20708521L15.47095 2.20708521zM16.7212 3.36769922L16.7212 3.07418198C16.5732 3.30490945 16.3557 3.42027319 16.0687 3.42027319 15.88245 3.42027319 15.71145 3.36919422 15.55545 3.26703626 15.39945 3.16487831 15.2787 3.02210634 15.19295 2.83896952 15.1072 2.65558354 15.06445 2.44503849 15.06445 2.20708521 15.06445 1.97486274 15.1032 1.76431769 15.18095 1.57520089 15.25845 1.38633326 15.37495 1.2413188 15.5302 1.14065584 15.68545 1.03974372 15.8592.989412236 16.05095.989412236 16.1917.989412236 16.31695 1.01906296 16.4267 1.07811524 16.5367 1.13741669 16.62595 1.2144089 16.69495 1.30909188L16.69495.157198665 17.0882.157198665 17.0882 3.36769922 16.7212 3.36769922zM19.32055 2.1873762C19.32055 2.46619266 19.35855 2.66776774 19.4348 2.79185228 19.5593 2.99467319 19.7278 3.09608365 19.9403 3.09608365 20.11305 3.09608365 20.26255 3.02133393 20.3883 2.87183448 20.5143 2.72208587 20.5773 2.49908254 20.5773 2.20282447 20.5773 1.89909143 20.51705 1.67484227 20.39605 1.53032614 20.2753 1.38581001 20.12905 1.31355195 19.9578 1.31355195 19.7848 1.31355195 19.63555 1.38830167 19.50955 1.53805028 19.38355 1.68779889 19.32055 1.90407475 19.32055 2.1873762L19.32055 2.1873762zM19.32505 3.3676743L18.95805 3.3676743 18.95805.157422914 19.35355.157422914 19.35355 1.30258865C19.52055 1.09378776 19.73355.989387319 19.9928.989387319 20.13655.989387319 20.2723 1.01829055 20.40055 1.076097 20.5288 1.13365428 20.63405 1.21463315 20.7168 1.31903359 20.7998 1.42343404 20.86455 1.54926274 20.9113 1.69676885 20.9583 1.84427497 20.9818 2.00199689 20.9818 2.16993459 20.9818 2.56835061 20.8828 2.87656863 20.68505 3.09409032 20.4873 3.31161201 20.25005 3.42024828 19.97305 3.42024828 19.6978 3.42024828 19.4818 3.30563204 19.32505 3.07639956L19.32505 3.3676743zM21.445325 4.26342514L21.401325 3.89341402C21.487825 3.91658643 21.563325 3.92829722 21.627575 3.92829722 21.715575 3.92829722 21.785825 3.91384561 21.838575 3.88444405 21.891325 3.85529166 21.934575 3.81442848 21.968325 3.76185451 21.993075 3.72248632 22.033575 3.62481335 22.089075 3.46858643 22.096325 3.44665984 22.108075 3.41451746 22.124325 3.37215929L21.238825 1.04196129 21.665075 1.04196129 22.150575 2.38895128C22.213575 2.55962981 22.270075 2.73927831 22.319825 2.92764761 22.365325 2.74650412 22.419325 2.56984561 22.482325 2.39767208L22.981325 1.04196129 23.376825 1.04196129 22.489075 3.40704249C22.393825 3.66268654 22.319825 3.83859755 22.267075 3.93502469 22.196825 4.06484004 22.116325 4.16002136 22.025325 4.2208178 21.934575 4.28136507 21.826075 4.31151413 21.700325 4.31151413 21.624075 4.31151413 21.539075 4.29556752 21.445325 4.26342514"/>
  </g>
</svg>
