<svg width="24" height="24" viewBox="0 0 24 24" fill="none" xmlns="http://www.w3.org/2000/svg">
<path d="M5.92078 5.5899H4.86078C3.72078 5.5899 2.80078 6.5099 2.80078 7.6499V20.8399C2.80078 21.9799 3.72078 22.8999 4.86078 22.8999H19.2508C20.3908 22.8999 21.3108 21.9799 21.3108 20.8399V7.6499C21.3108 6.5099 20.3908 5.5899 19.2508 5.5899M19.2508 5.5899H19.1908M19.2508 5.5899H18.001" stroke="#006CE1" stroke-width="1.2" stroke-linecap="round" stroke-linejoin="round"/>
<path d="M8.60156 3.5C12.7891 3.5 16.1641 6.875 16.1641 11.0625" stroke="#248DFF" stroke-width="1.2" stroke-linecap="round" stroke-linejoin="round"/>
<path d="M8.91406 6.9375C10.9766 6.9375 12.6641 8.625 12.6641 10.6875" stroke="#248DFF" stroke-width="1.2" stroke-linecap="round" stroke-linejoin="round"/>
<path d="M14.2288 12.55V13.876H10.9788L10.7318 15.566C10.9268 15.54 11.0958 15.527 11.3428 15.527C12.0838 15.527 12.8248 15.696 13.3968 16.073C14.0338 16.476 14.5018 17.191 14.5018 18.218C14.5018 19.83 13.1628 21.143 11.0828 21.143C10.1078 21.143 9.28878 20.896 8.84678 20.649L9.17178 19.44C9.53578 19.635 10.2638 19.882 11.0308 19.882C11.9668 19.882 12.8638 19.349 12.8638 18.335C12.8638 17.373 12.1488 16.736 10.4588 16.736C9.99078 16.736 9.63978 16.762 9.30178 16.814L9.86078 12.55H14.2288Z" fill="white"/>
</svg>
