<svg width="24" height="24" viewBox="0 0 24 24" fill="none" xmlns="http://www.w3.org/2000/svg">
<path d="M5.9198 5.5899H4.8598C3.7198 5.5899 2.7998 6.5099 2.7998 7.6499V20.8399C2.7998 21.9799 3.7198 22.8999 4.8598 22.8999H19.2498C20.3898 22.8999 21.3098 21.9799 21.3098 20.8399V7.6499C21.3098 6.5099 20.3898 5.5899 19.2498 5.5899M19.2498 5.5899H19.1898M19.2498 5.5899H18" stroke="#248DFF" stroke-width="1.2" stroke-linecap="round" stroke-linejoin="round"/>
<path d="M8.60059 3.5C12.7881 3.5 16.1631 6.875 16.1631 11.0625" stroke="#248DFF" stroke-width="1.2" stroke-linecap="round" stroke-linejoin="round"/>
<path d="M8.91309 6.9375C10.9756 6.9375 12.6631 8.625 12.6631 10.6875" stroke="#248DFF" stroke-width="1.2" stroke-linecap="round" stroke-linejoin="round"/>
<path d="M9.37439 19.5L9.27039 17.3C9.23839 16.604 9.19839 15.764 9.20639 15.036H9.18239C9.00639 15.692 8.78239 16.42 8.54239 17.1L7.75839 19.436H6.99839L6.27839 17.132C6.07039 16.444 5.87839 15.708 5.73439 15.036H5.71839C5.69439 15.74 5.66239 16.596 5.62239 17.332L5.50239 19.5H4.58239L4.94239 14.108H6.23839L6.94239 16.276C7.13439 16.908 7.30239 17.548 7.43839 18.148H7.46239C7.60639 17.564 7.79039 16.9 7.99839 16.268L8.74239 14.108H10.0224L10.3344 19.5H9.37439ZM11.3356 19.5V14.108H12.3196V18.676H14.5356V19.5H11.3356ZM17.2484 14.02C18.8244 14.02 19.7524 15.212 19.7524 16.748C19.7524 18.556 18.6564 19.588 17.1684 19.588C15.6484 19.588 14.6884 18.428 14.6884 16.844C14.6884 15.188 15.7284 14.02 17.2484 14.02ZM17.2244 14.812C16.2484 14.812 15.7284 15.716 15.7284 16.828C15.7284 17.924 16.2804 18.796 17.2244 18.796C18.1764 18.796 18.7124 17.916 18.7124 16.788C18.7124 15.772 18.2084 14.812 17.2244 14.812Z" fill="white"/>
<circle cx="19" cy="5" r="4.75" fill="white" stroke="#006CE1" stroke-width="0.5"/>
<path fill-rule="evenodd" clip-rule="evenodd" d="M17.9166 3.25008C17.9166 2.65177 18.4017 2.16675 19 2.16675C19.5983 2.16675 20.0833 2.65177 20.0833 3.25008V3.66675H17.9166V3.25008ZM17.4166 3.69015V3.25008C17.4166 2.37563 18.1255 1.66675 19 1.66675C19.8744 1.66675 20.5833 2.37563 20.5833 3.25008V3.69015C21.2002 3.80717 21.6666 4.34915 21.6666 5.00008V7.00008C21.6666 7.73646 21.0697 8.33341 20.3333 8.33341H17.6666C16.9303 8.33341 16.3333 7.73646 16.3333 7.00008V5.00008C16.3333 4.34915 16.7998 3.80717 17.4166 3.69015ZM19.6666 6.00008C19.6666 6.36827 19.3682 6.66675 19 6.66675C18.6318 6.66675 18.3333 6.36827 18.3333 6.00008C18.3333 5.63189 18.6318 5.33341 19 5.33341C19.3682 5.33341 19.6666 5.63189 19.6666 6.00008Z" fill="black"/>
</svg>
