<svg width="24" height="24" viewBox="0 0 24 24" fill="none" xmlns="http://www.w3.org/2000/svg">
<path d="M5.92078 5.5899H4.86078C3.72078 5.5899 2.80078 6.5099 2.80078 7.6499V20.8399C2.80078 21.9799 3.72078 22.8999 4.86078 22.8999H19.2508C20.3908 22.8999 21.3108 21.9799 21.3108 20.8399V7.6499C21.3108 6.5099 20.3908 5.5899 19.2508 5.5899M19.2508 5.5899H19.1908M19.2508 5.5899H18.001" stroke="#248DFF" stroke-width="1.2" stroke-linecap="round" stroke-linejoin="round"/>
<path d="M8.60156 3.5C12.7891 3.5 16.1641 6.875 16.1641 11.0625" stroke="#248DFF" stroke-width="1.2" stroke-linecap="round" stroke-linejoin="round"/>
<path d="M8.91406 6.9375C10.9766 6.9375 12.6641 8.625 12.6641 10.6875" stroke="#248DFF" stroke-width="1.2" stroke-linecap="round" stroke-linejoin="round"/>
<path d="M9.64583 13.2V14.424H6.64583L6.41783 15.984C6.59783 15.96 6.75383 15.948 6.98183 15.948C7.66583 15.948 8.34983 16.104 8.87783 16.452C9.46583 16.824 9.89783 17.484 9.89783 18.432C9.89783 19.92 8.66183 21.132 6.74183 21.132C5.84183 21.132 5.08583 20.904 4.67783 20.676L4.97783 19.56C5.31383 19.74 5.98583 19.968 6.69383 19.968C7.55783 19.968 8.38583 19.476 8.38583 18.54C8.38583 17.652 7.72583 17.064 6.16583 17.064C5.73383 17.064 5.40983 17.088 5.09783 17.136L5.61383 13.2H9.64583ZM10.9674 17.292H14.0274V18.312H10.9674V17.292ZM17.2246 21V14.532H17.2006L15.7726 15.252L15.5206 14.136L17.4166 13.2H18.6526V21H17.2246Z" fill="white"/>
<circle cx="19" cy="5" r="4.75" fill="white" stroke="#248DFF" stroke-width="0.5"/>
<path fill-rule="evenodd" clip-rule="evenodd" d="M17.9173 3.24996C17.9173 2.65165 18.4023 2.16663 19.0007 2.16663C19.599 2.16663 20.084 2.65165 20.084 3.24996V3.66663H17.9173V3.24996ZM17.4173 3.69003V3.24996C17.4173 2.37551 18.1262 1.66663 19.0007 1.66663C19.8751 1.66663 20.584 2.37551 20.584 3.24996V3.69003C21.2009 3.80704 21.6673 4.34903 21.6673 4.99996V6.99996C21.6673 7.73634 21.0704 8.33329 20.334 8.33329H17.6673C16.9309 8.33329 16.334 7.73634 16.334 6.99996V4.99996C16.334 4.34903 16.8004 3.80704 17.4173 3.69003ZM19.6673 5.99996C19.6673 6.36815 19.3688 6.66663 19.0007 6.66663C18.6325 6.66663 18.334 6.36815 18.334 5.99996C18.334 5.63177 18.6325 5.33329 19.0007 5.33329C19.3688 5.33329 19.6673 5.63177 19.6673 5.99996Z" fill="#181818"/>
</svg>
