<svg width="24" height="24" viewBox="0 0 24 24" fill="none" xmlns="http://www.w3.org/2000/svg">
<path d="M5.92078 5.5899H4.86078C3.72078 5.5899 2.80078 6.5099 2.80078 7.6499V20.8399C2.80078 21.9799 3.72078 22.8999 4.86078 22.8999H19.2508C20.3908 22.8999 21.3108 21.9799 21.3108 20.8399V7.6499C21.3108 6.5099 20.3908 5.5899 19.2508 5.5899M19.2508 5.5899H19.1908M19.2508 5.5899H18.001" stroke="#006CE1" stroke-width="1.2" stroke-linecap="round" stroke-linejoin="round"/>
<path d="M8.60156 3.5C12.7891 3.5 16.1641 6.875 16.1641 11.0625" stroke="#248DFF" stroke-width="1.2" stroke-linecap="round" stroke-linejoin="round"/>
<path d="M8.91406 6.9375C10.9766 6.9375 12.6641 8.625 12.6641 10.6875" stroke="#248DFF" stroke-width="1.2" stroke-linecap="round" stroke-linejoin="round"/>
<path d="M13.9948 12.433L14.0078 13.681C13.7738 13.681 13.5138 13.681 13.1888 13.72C11.4208 13.928 10.5628 15.02 10.3548 16.19H10.3938C10.8098 15.709 11.4468 15.371 12.2918 15.371C13.7478 15.371 14.8788 16.411 14.8788 18.127C14.8788 19.739 13.6958 21.143 11.9018 21.143C9.84778 21.143 8.71678 19.583 8.71678 17.503C8.71678 15.878 9.30178 14.552 10.1858 13.707C10.9658 12.979 11.9798 12.563 13.1888 12.459C13.5398 12.42 13.7998 12.42 13.9948 12.433ZM11.8888 19.947C12.7208 19.947 13.2538 19.232 13.2538 18.218C13.2538 17.243 12.7208 16.541 11.7848 16.541C11.1868 16.541 10.6538 16.905 10.4068 17.412C10.3418 17.542 10.3028 17.698 10.3028 17.919C10.3288 19.037 10.8618 19.947 11.8888 19.947Z" fill="white"/>
</svg>
