<svg width="24" height="24" viewBox="0 0 24 24" fill="none" xmlns="http://www.w3.org/2000/svg">
<path d="M5.91998 5.5899H4.85999C3.71999 5.5899 2.79999 6.5099 2.79999 7.6499V20.8399C2.79999 21.9799 3.71999 22.8999 4.85999 22.8999H19.25C20.39 22.8999 21.31 21.9799 21.31 20.8399V7.6499C21.31 6.5099 20.39 5.5899 19.25 5.5899M19.25 5.5899H19.19M19.25 5.5899H18.0002" stroke="#248DFF" stroke-width="1.2" stroke-linecap="round" stroke-linejoin="round"/>
<path d="M8.60077 3.5C12.7883 3.5 16.1633 6.875 16.1633 11.0625" stroke="#248DFF" stroke-width="1.2" stroke-linecap="round" stroke-linejoin="round"/>
<path d="M8.91327 6.9375C10.9758 6.9375 12.6633 8.625 12.6633 10.6875" stroke="#248DFF" stroke-width="1.2" stroke-linecap="round" stroke-linejoin="round"/>
<path d="M9.37457 19.5L9.27057 17.3C9.23857 16.604 9.19857 15.764 9.20657 15.036H9.18257C9.00657 15.692 8.78257 16.42 8.54257 17.1L7.75857 19.436H6.99857L6.27857 17.132C6.07057 16.444 5.87857 15.708 5.73457 15.036H5.71857C5.69457 15.74 5.66257 16.596 5.62257 17.332L5.50257 19.5H4.58257L4.94257 14.108H6.23857L6.94257 16.276C7.13457 16.908 7.30257 17.548 7.43857 18.148H7.46257C7.60657 17.564 7.79057 16.9 7.99857 16.268L8.74257 14.108H10.0226L10.3346 19.5H9.37457ZM11.3358 19.5V14.108H12.3198V18.676H14.5358V19.5H11.3358ZM17.2486 14.02C18.8246 14.02 19.7526 15.212 19.7526 16.748C19.7526 18.556 18.6566 19.588 17.1686 19.588C15.6486 19.588 14.6886 18.428 14.6886 16.844C14.6886 15.188 15.7286 14.02 17.2486 14.02ZM17.2246 14.812C16.2486 14.812 15.7286 15.716 15.7286 16.828C15.7286 17.924 16.2806 18.796 17.2246 18.796C18.1766 18.796 18.7126 17.916 18.7126 16.788C18.7126 15.772 18.2086 14.812 17.2246 14.812Z" fill="white"/>
</svg>
