<svg width="24" height="24" viewBox="0 0 24 24" fill="none" xmlns="http://www.w3.org/2000/svg">
<path d="M5.92078 5.5899H4.86078C3.72078 5.5899 2.80078 6.5099 2.80078 7.6499V20.8399C2.80078 21.9799 3.72078 22.8999 4.86078 22.8999H19.2508C20.3908 22.8999 21.3108 21.9799 21.3108 20.8399V7.6499C21.3108 6.5099 20.3908 5.5899 19.2508 5.5899M19.2508 5.5899H19.1908M19.2508 5.5899H18.001" stroke="#248DFF" stroke-width="1.2" stroke-linecap="round" stroke-linejoin="round"/>
<path d="M8.60156 3.5C12.7891 3.5 16.1641 6.875 16.1641 11.0625" stroke="#248DFF" stroke-width="1.2" stroke-linecap="round" stroke-linejoin="round"/>
<path d="M8.91406 6.9375C10.9766 6.9375 12.6641 8.625 12.6641 10.6875" stroke="#248DFF" stroke-width="1.2" stroke-linecap="round" stroke-linejoin="round"/>
<path d="M9.64583 13.2V14.424H6.64583L6.41783 15.984C6.59783 15.96 6.75383 15.948 6.98183 15.948C7.66583 15.948 8.34983 16.104 8.87783 16.452C9.46583 16.824 9.89783 17.484 9.89783 18.432C9.89783 19.92 8.66183 21.132 6.74183 21.132C5.84183 21.132 5.08583 20.904 4.67783 20.676L4.97783 19.56C5.31383 19.74 5.98583 19.968 6.69383 19.968C7.55783 19.968 8.38583 19.476 8.38583 18.54C8.38583 17.652 7.72583 17.064 6.16583 17.064C5.73383 17.064 5.40983 17.088 5.09783 17.136L5.61383 13.2H9.64583ZM10.9674 17.292H14.0274V18.312H10.9674V17.292ZM17.2246 21V14.532H17.2006L15.7726 15.252L15.5206 14.136L17.4166 13.2H18.6526V21H17.2246Z" fill="white"/>
</svg>
