<svg width="24" height="24" viewBox="0 0 24 24" fill="none" xmlns="http://www.w3.org/2000/svg">
<path d="M5.92078 5.5899H4.86078C3.72078 5.5899 2.80078 6.5099 2.80078 7.6499V20.8399C2.80078 21.9799 3.72078 22.8999 4.86078 22.8999H19.2508C20.3908 22.8999 21.3108 21.9799 21.3108 20.8399V7.6499C21.3108 6.5099 20.3908 5.5899 19.2508 5.5899M19.2508 5.5899H19.1908M19.2508 5.5899H18.001" stroke="#006CE1" stroke-width="1.2" stroke-linecap="round" stroke-linejoin="round"/>
<path d="M8.60156 3.5C12.7891 3.5 16.1641 6.875 16.1641 11.0625" stroke="#248DFF" stroke-width="1.2" stroke-linecap="round" stroke-linejoin="round"/>
<path d="M8.91406 6.9375C10.9766 6.9375 12.6641 8.625 12.6641 10.6875" stroke="#248DFF" stroke-width="1.2" stroke-linecap="round" stroke-linejoin="round"/>
<path d="M9.95644 20H4.66444V19.1L5.58844 18.248C7.42444 16.544 8.28844 15.608 8.30044 14.576C8.30044 13.88 7.92844 13.268 6.90844 13.268C6.22444 13.268 5.63644 13.616 5.24044 13.916L4.80844 12.872C5.37244 12.416 6.22444 12.068 7.20844 12.068C8.93644 12.068 9.77644 13.16 9.77644 14.432C9.77644 15.8 8.79244 16.904 7.43644 18.164L6.75244 18.752V18.776H9.95644V20ZM12.106 20.132C11.566 20.132 11.194 19.724 11.194 19.184C11.194 18.632 11.578 18.236 12.106 18.236C12.646 18.236 13.018 18.62 13.018 19.184C13.018 19.724 12.658 20.132 12.106 20.132ZM18.578 20H17.186V18.02H13.658V17.06L16.838 12.2H18.578V16.904H19.586V18.02H18.578V20ZM15.062 16.904H17.186V14.78C17.186 14.336 17.198 13.88 17.234 13.424H17.186C16.946 13.916 16.742 14.312 16.502 14.744L15.074 16.88L15.062 16.904Z" fill="white"/>
<circle cx="19" cy="5" r="4.75" fill="white" stroke="#006CE1" stroke-width="0.5"/>
<path fill-rule="evenodd" clip-rule="evenodd" d="M17.9173 3.24996C17.9173 2.65165 18.4023 2.16663 19.0007 2.16663C19.599 2.16663 20.084 2.65165 20.084 3.24996V3.66663H17.9173V3.24996ZM17.4173 3.69003V3.24996C17.4173 2.37551 18.1262 1.66663 19.0007 1.66663C19.8751 1.66663 20.584 2.37551 20.584 3.24996V3.69003C21.2009 3.80704 21.6673 4.34903 21.6673 4.99996V6.99996C21.6673 7.73634 21.0704 8.33329 20.334 8.33329H17.6673C16.9309 8.33329 16.334 7.73634 16.334 6.99996V4.99996C16.334 4.34903 16.8004 3.80704 17.4173 3.69003ZM19.6673 5.99996C19.6673 6.36815 19.3688 6.66663 19.0007 6.66663C18.6325 6.66663 18.334 6.36815 18.334 5.99996C18.334 5.63177 18.6325 5.33329 19.0007 5.33329C19.3688 5.33329 19.6673 5.63177 19.6673 5.99996Z" fill="#181818"/>
</svg>
