<svg width="24" height="24" viewBox="0 0 24 24" fill="none" xmlns="http://www.w3.org/2000/svg">
<path d="M5.92078 5.5899H4.86078C3.72078 5.5899 2.80078 6.5099 2.80078 7.6499V20.8399C2.80078 21.9799 3.72078 22.8999 4.86078 22.8999H19.2508C20.3908 22.8999 21.3108 21.9799 21.3108 20.8399V7.6499C21.3108 6.5099 20.3908 5.5899 19.2508 5.5899M19.2508 5.5899H19.1908M19.2508 5.5899H18.001" stroke="#006CE1" stroke-width="1.2" stroke-linecap="round" stroke-linejoin="round"/>
<path d="M8.60156 3.5C12.7891 3.5 16.1641 6.875 16.1641 11.0625" stroke="#248DFF" stroke-width="1.2" stroke-linecap="round" stroke-linejoin="round"/>
<path d="M8.91406 6.9375C10.9766 6.9375 12.6641 8.625 12.6641 10.6875" stroke="#248DFF" stroke-width="1.2" stroke-linecap="round" stroke-linejoin="round"/>
<path d="M9.95644 21H4.66444V20.1L5.58844 19.248C7.42444 17.544 8.28844 16.608 8.30044 15.576C8.30044 14.88 7.92844 14.268 6.90844 14.268C6.22444 14.268 5.63644 14.616 5.24044 14.916L4.80844 13.872C5.37244 13.416 6.22444 13.068 7.20844 13.068C8.93644 13.068 9.77644 14.16 9.77644 15.432C9.77644 16.8 8.79244 17.904 7.43644 19.164L6.75244 19.752V19.776H9.95644V21ZM12.106 21.132C11.566 21.132 11.194 20.724 11.194 20.184C11.194 19.632 11.578 19.236 12.106 19.236C12.646 19.236 13.018 19.62 13.018 20.184C13.018 20.724 12.658 21.132 12.106 21.132ZM18.578 21H17.186V19.02H13.658V18.06L16.838 13.2H18.578V17.904H19.586V19.02H18.578V21ZM15.062 17.904H17.186V15.78C17.186 15.336 17.198 14.88 17.234 14.424H17.186C16.946 14.916 16.742 15.312 16.502 15.744L15.074 17.88L15.062 17.904Z" fill="white"/>
</svg>
