<svg width="24" height="24" viewBox="0 0 24 24" fill="none" xmlns="http://www.w3.org/2000/svg">
<path d="M5.92078 5.5899H4.86078C3.72078 5.5899 2.80078 6.5099 2.80078 7.6499V20.8399C2.80078 21.9799 3.72078 22.8999 4.86078 22.8999H19.2508C20.3908 22.8999 21.3108 21.9799 21.3108 20.8399V7.6499C21.3108 6.5099 20.3908 5.5899 19.2508 5.5899M19.2508 5.5899H19.1908M19.2508 5.5899H18.001" stroke="#248DFF" stroke-width="1.2" stroke-linecap="round" stroke-linejoin="round"/>
<path d="M8.60156 3.5C12.7891 3.5 16.1641 6.875 16.1641 11.0625" stroke="#248DFF" stroke-width="1.2" stroke-linecap="round" stroke-linejoin="round"/>
<path d="M8.91406 6.9375C10.9766 6.9375 12.6641 8.625 12.6641 10.6875" stroke="#248DFF" stroke-width="1.2" stroke-linecap="round" stroke-linejoin="round"/>
<path d="M9.14583 13.2V14.424H6.14583L5.91783 15.984C6.09783 15.96 6.25383 15.948 6.48183 15.948C7.16583 15.948 7.84983 16.104 8.37783 16.452C8.96583 16.824 9.39783 17.484 9.39783 18.432C9.39783 19.92 8.16183 21.132 6.24183 21.132C5.34183 21.132 4.58583 20.904 4.17783 20.676L4.47783 19.56C4.81383 19.74 5.48583 19.968 6.19383 19.968C7.05783 19.968 7.88583 19.476 7.88583 18.54C7.88583 17.652 7.22583 17.064 5.66583 17.064C5.23383 17.064 4.90983 17.088 4.59783 17.136L5.11383 13.2H9.14583ZM10.4674 17.292H13.5274V18.312H10.4674V17.292ZM19.7006 21H14.4086V20.1L15.3326 19.248C17.1686 17.544 18.0326 16.608 18.0446 15.576C18.0446 14.88 17.6726 14.268 16.6526 14.268C15.9686 14.268 15.3806 14.616 14.9846 14.916L14.5526 13.872C15.1166 13.416 15.9686 13.068 16.9526 13.068C18.6806 13.068 19.5206 14.16 19.5206 15.432C19.5206 16.8 18.5366 17.904 17.1806 19.164L16.4966 19.752V19.776H19.7006V21Z" fill="white"/>
</svg>
