<svg width="56" height="24" viewBox="0 0 56 24" fill="none" xmlns="http://www.w3.org/2000/svg">
<path d="M46.7839 6.50422H38.7151C37.2716 6.50422 36.0872 7.6851 36.0872 9.16589V17.3383C36.0872 18.8004 37.2531 20 38.7151 20H46.7839C48.2274 20 49.4118 18.8191 49.4118 17.3383V9.14714C49.4118 7.6851 48.2274 6.50422 46.7839 6.50422ZM46.3027 10.1781L42.1388 18.0319H39.6404L43.8044 10.6279V10.5904H39.1778V8.80975H46.3212V10.1781H46.3027ZM52.3358 9.29709H50.9293C50.7627 9.29709 50.6517 9.16589 50.6517 8.99719C50.6147 8.07873 50.2075 7.12277 49.5598 6.46673C48.9121 5.81068 48.1903 5.41706 47.1355 5.32334C46.9504 5.30459 46.8209 5.17338 46.8209 5.02343V3.6926C46.8209 3.54264 46.9319 3.41143 47.08 3.41143C48.5605 3.41143 49.9484 3.9925 50.9848 5.04217C52.0211 6.09185 52.5948 7.49766 52.5948 8.97844C52.6319 9.16589 52.5023 9.29709 52.3358 9.29709ZM55.7409 9.29709H54.1309C53.9828 9.29709 53.8533 9.18463 53.8533 9.03468C53.8533 7.19775 53.15 5.47329 51.8731 4.17994C50.5962 2.8866 48.8936 2.17432 47.08 2.17432C46.9319 2.17432 46.8209 2.04311 46.8209 1.9119V0.262418C46.8209 0.187441 46.8394 0.131209 46.8949 0.0749766C46.9504 0.0187441 47.0059 0 47.08 0C49.4673 0 51.7065 0.937207 53.3906 2.64292C55.0747 4.34864 56 6.61668 56 9.03468C56 9.10965 55.963 9.18463 55.926 9.22212C55.889 9.27835 55.8149 9.29709 55.7409 9.29709ZM13.195 19.4002H10.9927L8.34633 10.7966L5.69993 19.3814H3.47918L0 7.32896H2.55387L4.73761 15.6888L7.21745 7.32896H9.54924L11.9736 15.6888L14.1943 7.32896H16.6742L13.195 19.4002ZM20.0978 19.4002H17.8586V11.1153H20.0978V19.4002ZM18.9504 9.87816C18.1917 9.87816 17.5625 9.27835 17.5625 8.54733C17.5625 7.81631 18.1917 7.21649 18.9504 7.21649C19.7647 7.21649 20.3754 7.79756 20.3754 8.54733C20.3754 9.29709 19.7647 9.87816 18.9504 9.87816ZM24.8354 19.4002H22.5036V7.32896H30.2948V9.4283H24.8539V12.3899H29.9987V14.433H24.8539V19.4002H24.8354ZM33.959 19.4002H31.7198V11.1153H33.959V19.4002ZM32.8301 9.87816C32.0714 9.87816 31.4422 9.27835 31.4422 8.54733C31.4422 7.81631 32.0529 7.21649 32.8301 7.21649C33.6444 7.21649 34.2366 7.79756 34.2366 8.54733C34.2366 9.29709 33.6259 9.87816 32.8301 9.87816Z" fill="white"/>
</svg>
