<svg width="24" height="24" viewBox="0 0 24 24" fill="none" xmlns="http://www.w3.org/2000/svg">
<path d="M5.92078 5.5899H4.86078C3.72078 5.5899 2.80078 6.5099 2.80078 7.6499V20.8399C2.80078 21.9799 3.72078 22.8999 4.86078 22.8999H19.2508C20.3908 22.8999 21.3108 21.9799 21.3108 20.8399V7.6499C21.3108 6.5099 20.3908 5.5899 19.2508 5.5899M19.2508 5.5899H19.1908M19.2508 5.5899H18.001" stroke="#248DFF" stroke-width="1.2" stroke-linecap="round" stroke-linejoin="round"/>
<path d="M8.60156 3.5C12.7891 3.5 16.1641 6.875 16.1641 11.0625" stroke="#248DFF" stroke-width="1.2" stroke-linecap="round" stroke-linejoin="round"/>
<path d="M8.91406 6.9375C10.9766 6.9375 12.6641 8.625 12.6641 10.6875" stroke="#248DFF" stroke-width="1.2" stroke-linecap="round" stroke-linejoin="round"/>
<path d="M8.73061 13.092V14.256C8.51461 14.244 8.27461 14.256 7.98661 14.292C6.34261 14.484 5.56261 15.48 5.37061 16.56H5.40661C5.79061 16.116 6.37861 15.804 7.15861 15.804C8.50261 15.804 9.54661 16.764 9.54661 18.348C9.54661 19.836 8.45461 21.132 6.79861 21.132C4.90261 21.132 3.85861 19.692 3.85861 17.76C3.85861 16.26 4.39861 15.048 5.21461 14.28C5.92261 13.596 6.87061 13.212 7.98661 13.128C8.31061 13.08 8.55061 13.08 8.73061 13.092ZM6.79861 20.028C7.55461 20.028 8.04661 19.368 8.04661 18.432C8.04661 17.52 7.55461 16.884 6.69061 16.884C6.13861 16.884 5.64661 17.22 5.41861 17.688C5.35861 17.808 5.32261 17.952 5.32261 18.156C5.34661 19.188 5.82661 20.028 6.79861 20.028ZM10.2682 17.292H13.3282V18.312H10.2682V17.292ZM19.4894 21H14.2094V20.1L15.1334 19.248C16.9694 17.544 17.8334 16.608 17.8454 15.576C17.8454 14.88 17.4734 14.268 16.4534 14.268C15.7574 14.268 15.1814 14.616 14.7854 14.916L14.3534 13.872C14.9174 13.416 15.7694 13.068 16.7534 13.068C18.4814 13.068 19.3214 14.16 19.3214 15.432C19.3214 16.8 18.3374 17.904 16.9694 19.164L16.2974 19.752V19.776H19.4894V21Z" fill="white"/>
</svg>
