<svg width="24" height="24" viewBox="0 0 24 24" fill="none" xmlns="http://www.w3.org/2000/svg">
<path fill-rule="evenodd" clip-rule="evenodd" d="M2.91907 12.1416C2.62617 11.8487 2.62617 11.3738 2.91907 11.0809C3.93814 10.0619 5.06093 9.38871 5.5786 9.07835L5.61431 9.05694C5.96949 8.84383 6.43019 8.959 6.6433 9.31418C6.85641 9.66937 6.74124 10.1301 6.38605 10.3432L6.36522 10.3557C5.85867 10.6595 4.86681 11.2545 3.97973 12.1416C3.68683 12.4345 3.21196 12.4345 2.91907 12.1416ZM7.87292 8.78335C7.77169 8.3817 8.01523 7.97403 8.41688 7.8728C12.6136 6.81507 17.743 7.73226 21.0917 11.0809C21.3846 11.3738 21.3846 11.8487 21.0917 12.1416C20.7988 12.4345 20.3239 12.4345 20.0311 12.1416C17.1204 9.23093 12.5637 8.37455 8.78348 9.32731C8.38182 9.42855 7.97415 9.18501 7.87292 8.78335ZM7.16223 15.6771C6.86934 15.3842 6.86934 14.9093 7.16223 14.6165C8.27777 13.5009 9.2184 13.1549 9.89324 13.0577C10.3032 12.9987 10.6835 13.2831 10.7425 13.6931C10.8016 14.1031 10.5171 14.4833 10.1071 14.5424C9.78196 14.5892 9.13102 14.769 8.22289 15.6771C7.93 15.97 7.45512 15.97 7.16223 15.6771ZM12.4629 13.3626C12.5388 12.9554 12.9304 12.6868 13.3376 12.7628C14.6603 13.0094 15.7366 13.6449 16.7082 14.6165C17.0011 14.9093 17.0011 15.3842 16.7082 15.6771C16.4153 15.97 15.9404 15.97 15.6475 15.6771C14.851 14.8806 14.0377 14.4191 13.0627 14.2374C12.6555 14.1614 12.387 13.7698 12.4629 13.3626ZM10.7329 20.7329C11.4359 21.4359 12.5756 21.4359 13.2785 20.7329C13.9815 20.03 13.9815 18.8903 13.2785 18.1873C12.5756 17.4844 11.4359 17.4844 10.7329 18.1873C10.03 18.8903 10.03 20.03 10.7329 20.7329Z" fill="#248DFF"/>
<path d="M3.25 3.75L7.09 7.59L10.32 10.82L14.68 15.18L17.91 18.41L21.75 22.25" stroke="#248DFF" stroke-width="1.2" stroke-linecap="round" stroke-linejoin="round"/>
</svg>
