<svg width="24" height="24" viewBox="0 0 24 24" fill="none" xmlns="http://www.w3.org/2000/svg">
<path d="M5.92078 5.5899H4.86078C3.72078 5.5899 2.80078 6.5099 2.80078 7.6499V20.8399C2.80078 21.9799 3.72078 22.8999 4.86078 22.8999H19.2508C20.3908 22.8999 21.3108 21.9799 21.3108 20.8399V7.6499C21.3108 6.5099 20.3908 5.5899 19.2508 5.5899M19.2508 5.5899H19.1908M19.2508 5.5899H18.001" stroke="#006CE1" stroke-width="1.2" stroke-linecap="round" stroke-linejoin="round"/>
<path d="M8.60156 3.5C12.7891 3.5 16.1641 6.875 16.1641 11.0625" stroke="#248DFF" stroke-width="1.2" stroke-linecap="round" stroke-linejoin="round"/>
<path d="M8.91406 6.9375C10.9766 6.9375 12.6641 8.625 12.6641 10.6875" stroke="#248DFF" stroke-width="1.2" stroke-linecap="round" stroke-linejoin="round"/>
<path d="M14.2288 12.55V13.876H10.9788L10.7318 15.566C10.9268 15.54 11.0958 15.527 11.3428 15.527C12.0838 15.527 12.8248 15.696 13.3968 16.073C14.0338 16.476 14.5018 17.191 14.5018 18.218C14.5018 19.83 13.1628 21.143 11.0828 21.143C10.1078 21.143 9.28878 20.896 8.84678 20.649L9.17178 19.44C9.53578 19.635 10.2638 19.882 11.0308 19.882C11.9668 19.882 12.8638 19.349 12.8638 18.335C12.8638 17.373 12.1488 16.736 10.4588 16.736C9.99078 16.736 9.63978 16.762 9.30178 16.814L9.86078 12.55H14.2288Z" fill="white"/>
<circle cx="19" cy="5" r="4.75" fill="white" stroke="#006CE1" stroke-width="0.5"/>
<path fill-rule="evenodd" clip-rule="evenodd" d="M17.9173 3.24996C17.9173 2.65165 18.4023 2.16663 19.0007 2.16663C19.599 2.16663 20.084 2.65165 20.084 3.24996V3.66663H17.9173V3.24996ZM17.4173 3.69003V3.24996C17.4173 2.37551 18.1262 1.66663 19.0007 1.66663C19.8751 1.66663 20.584 2.37551 20.584 3.24996V3.69003C21.2009 3.80704 21.6673 4.34903 21.6673 4.99996V6.99996C21.6673 7.73634 21.0704 8.33329 20.334 8.33329H17.6673C16.9309 8.33329 16.334 7.73634 16.334 6.99996V4.99996C16.334 4.34903 16.8004 3.80704 17.4173 3.69003ZM19.6673 5.99996C19.6673 6.36815 19.3688 6.66663 19.0007 6.66663C18.6325 6.66663 18.334 6.36815 18.334 5.99996C18.334 5.63177 18.6325 5.33329 19.0007 5.33329C19.3688 5.33329 19.6673 5.63177 19.6673 5.99996Z" fill="#181818"/>
</svg>
