<svg width="60" height="60" viewBox="0 0 60 60" fill="none" xmlns="http://www.w3.org/2000/svg">
<rect x="2" y="8" width="46" height="41.4514" rx="3" fill="white"/>
<rect x="2" y="8" width="46" height="41.4514" rx="3" stroke="#61ADFF" stroke-width="2"/>
<rect x="32.5" y="10.5" width="13" height="36" rx="1.5" fill="#EBEDEE" stroke="#EBEDEE"/>
<circle cx="34" cy="31.5" r="1" fill="#99CAFF"/>
<rect x="36" y="31" width="7" height="1" rx="0.5" fill="#99CAFF"/>
<circle cx="34" cy="34.5" r="1" fill="#61ADFF"/>
<rect x="36" y="34" width="9" height="1" rx="0.5" fill="#61ADFF"/>
<circle cx="34" cy="37.7856" r="1" fill="#EC4899"/>
<rect x="36" y="37.2856" width="4" height="1" rx="0.5" fill="#EC4899"/>
<rect x="33" y="43" width="3" height="3" rx="1" fill="white"/>
<rect x="37" y="41" width="4" height="5" rx="1" fill="white"/>
<rect x="42" y="44" width="3" height="2" rx="1" fill="white"/>
<path d="M37.6784 13.7081C38.7415 13.5573 39.8257 13.702 40.8121 14.1264C41.7985 14.5508 42.649 15.2385 43.2705 16.1142C43.892 16.9898 44.2605 18.0196 44.3357 19.0908C44.4108 20.162 44.1896 21.2332 43.6964 22.187C43.2032 23.1409 42.457 23.9406 41.5395 24.4985C40.622 25.0564 39.5687 25.351 38.4949 25.3501C37.4211 25.3492 36.3682 25.0527 35.4517 24.4931C34.5352 23.9336 33.7904 23.1326 33.2989 22.1779L34.0013 21.8163C34.4264 22.6421 35.0706 23.3349 35.8634 23.8189C36.6561 24.3028 37.5668 24.5593 38.4956 24.5601C39.4244 24.5609 40.3355 24.306 41.129 23.8235C41.9226 23.3409 42.5681 22.6492 42.9947 21.8242C43.4213 20.9991 43.6126 20.0726 43.5476 19.1461C43.4826 18.2196 43.1639 17.3288 42.6263 16.5714C42.0887 15.814 41.353 15.2192 40.4999 14.8521C39.6467 14.485 38.7089 14.3598 37.7893 14.4903L37.6784 13.7081Z" fill="#61ADFF"/>
<path d="M44.9912 19.1622C45.0377 20.0546 44.8996 20.9471 44.5856 21.7838C44.2716 22.6205 43.7885 23.3834 43.1663 24.025C42.5442 24.6665 41.7965 25.1729 40.9698 25.5125C40.1432 25.852 39.2554 26.0175 38.362 25.9985L38.3806 25.1209C39.1534 25.1374 39.9213 24.9942 40.6363 24.7005C41.3513 24.4068 41.9981 23.9688 42.5362 23.4139C43.0743 22.859 43.4922 22.1991 43.7638 21.4754C44.0353 20.7517 44.1548 19.9797 44.1146 19.2078L44.9912 19.1622Z" fill="#EC4899"/>
<path d="M39.568 24.589C38.7148 24.768 37.8303 24.7297 36.9958 24.4775C36.1613 24.2253 35.4036 23.7674 34.7924 23.1459C34.1811 22.5243 33.736 21.759 33.4978 20.9204C33.2597 20.0818 33.2362 19.1968 33.4295 18.3468C33.6228 17.4967 34.0267 16.7089 34.6041 16.0557C35.1815 15.4026 35.9138 14.9051 36.7337 14.609C37.5536 14.3129 38.4349 14.2277 39.2963 14.3612C40.1578 14.4947 40.9719 14.8426 41.6637 15.373L41.2365 15.9303C40.6381 15.4715 39.9339 15.1706 39.1888 15.0551C38.4437 14.9396 37.6814 15.0134 36.9722 15.2695C36.263 15.5256 35.6296 15.9559 35.1302 16.5209C34.6308 17.0858 34.2814 17.7672 34.1142 18.5025C33.947 19.2377 33.9673 20.0032 34.1733 20.7286C34.3793 21.4539 34.7644 22.1158 35.2931 22.6535C35.8218 23.1911 36.4771 23.5872 37.1989 23.8053C37.9207 24.0234 38.6858 24.0566 39.4237 23.9017L39.568 24.589Z" fill="#99CAFF"/>
<g clip-path="url(#clip0_641_18160)">
<path fill-rule="evenodd" clip-rule="evenodd" d="M16.4775 28.7002C16.201 29.0533 15.8457 29.35 15.4 29.35C14.7008 29.35 14.0559 28.9259 13.4906 28.396C12.9161 27.8574 12.3599 27.1474 11.8409 26.4612C11.7516 26.3432 11.6636 26.2261 11.5767 26.1105C11.1497 25.5424 10.7502 25.0108 10.3713 24.5952C10.1445 24.3463 9.93766 24.1535 9.75047 24.0248C9.56083 23.8944 9.42052 23.85 9.32 23.85C9.0183 23.85 8.7308 23.966 8.43147 24.193C8.12786 24.4232 7.83001 24.7541 7.51495 25.1541C7.34541 25.3693 7.17027 25.6064 6.98799 25.853C6.51542 26.4926 5.99484 27.1971 5.39938 27.7554C4.67554 28.434 3.75351 28.6571 2.92754 28.6749C2.10268 28.6927 1.33691 28.5074 0.872654 28.326L1.12735 27.674C1.51643 27.826 2.19065 27.9907 2.91246 27.9751C3.63316 27.9596 4.36446 27.7661 4.92062 27.2447C5.46679 26.7327 5.92542 26.1118 6.38351 25.4916C6.57532 25.2319 6.76704 24.9723 6.96505 24.721C7.28999 24.3084 7.63214 23.9206 8.00853 23.6352C8.3892 23.3465 8.8217 23.15 9.32 23.15C9.61949 23.15 9.89917 23.2775 10.147 23.4479C10.3973 23.62 10.6455 23.8569 10.8887 24.1236C11.2921 24.5662 11.7163 25.1309 12.143 25.6988C12.2284 25.8123 12.3138 25.926 12.3991 26.0389C12.9201 26.7276 13.4439 27.3926 13.9694 27.8853C14.5041 28.3866 14.9792 28.65 15.4 28.65C15.5143 28.65 15.689 28.5718 15.9263 28.2686C16.1558 27.9754 16.3906 27.5387 16.6346 26.9841C16.9912 26.1737 17.344 25.1687 17.7209 24.0952C17.8604 23.6979 18.0032 23.2912 18.1507 22.8815C18.6905 21.3821 19.2909 19.8506 20.0072 18.6911C20.7113 17.5515 21.6021 16.65 22.76 16.65C23.663 16.65 24.6377 17.2267 25.5853 18.0481C26.5482 18.8828 27.5488 20.0288 28.5102 21.2876C30.4343 23.807 32.2362 26.8242 33.3088 28.8353L32.6912 29.1647C31.6304 27.1758 29.8484 24.1931 27.9538 21.7125C27.0059 20.4713 26.0384 19.3673 25.1268 18.577C24.1996 17.7733 23.393 17.35 22.76 17.35C21.9979 17.35 21.2888 17.9486 20.6028 19.059C19.9291 20.1495 19.3495 21.6179 18.8093 23.1186C18.6674 23.5126 18.5281 23.9096 18.3905 24.3014C18.0102 25.3847 17.6436 26.429 17.2754 27.266C17.0244 27.8363 16.7617 28.3371 16.4775 28.7002Z" fill="#EC4899"/>
<path fill-rule="evenodd" clip-rule="evenodd" d="M9.70867 25.9856C9.39885 26.2033 9.05452 26.35 8.68 26.35C8.27048 26.35 7.88701 26.1908 7.5401 25.9907C7.23298 25.8135 6.92327 25.5849 6.62565 25.3653C6.58778 25.3373 6.55011 25.3095 6.51266 25.282C5.81575 24.7696 5.18689 24.35 4.52 24.35C3.95932 24.35 3.29662 24.5728 2.67357 24.877C2.05723 25.178 1.51783 25.5396 1.21547 25.7758L0.784523 25.2242C1.12217 24.9604 1.70277 24.5721 2.36643 24.248C3.02337 23.9272 3.80068 23.65 4.52 23.65C5.45311 23.65 6.26425 24.2305 6.92734 24.718C6.9655 24.7461 7.0032 24.7739 7.0405 24.8014C7.34355 25.0249 7.61938 25.2283 7.8899 25.3844C8.19299 25.5592 8.44952 25.65 8.68 25.65C8.86547 25.65 9.07115 25.578 9.30632 25.4128C9.54255 25.2469 9.78959 25 10.0497 24.6839C10.5073 24.1278 10.9668 23.4068 11.4543 22.6418C11.524 22.5324 11.5943 22.4222 11.6652 22.3114C12.2234 21.4391 12.8197 20.537 13.4656 19.8534C14.1061 19.1754 14.853 18.65 15.72 18.65C16.186 18.65 16.6108 18.8529 16.992 19.1556C17.3724 19.4577 17.733 19.8774 18.079 20.358C18.6701 21.179 19.2562 22.2321 19.8478 23.2954C19.9468 23.4733 20.046 23.6516 20.1454 23.829C20.8469 25.0817 21.5619 26.3031 22.3319 27.2112C23.1088 28.1273 23.8794 28.65 24.68 28.65C26.4426 28.65 27.5492 27.6307 28.7163 26.4988C28.7512 26.465 28.7861 26.431 28.8212 26.397C29.9305 25.3193 31.1341 24.15 33 24.15V24.85C31.4215 24.85 30.4063 25.8347 29.2408 26.9653L29.2037 27.0013C28.0508 28.1193 26.7574 29.35 24.68 29.35C23.5606 29.35 22.6112 28.6228 21.7981 27.6639C20.9781 26.697 20.2331 25.4183 19.5346 24.171C19.433 23.9895 19.3324 23.8088 19.2327 23.6297C18.6389 22.5629 18.0761 21.5519 17.511 20.767C17.182 20.3102 16.8651 19.9486 16.5567 19.7038C16.2492 19.4596 15.974 19.35 15.72 19.35C15.147 19.35 14.5739 19.6996 13.9744 20.3341C13.3803 20.963 12.8166 21.8109 12.2548 22.6887C12.1852 22.7974 12.1156 22.9067 12.046 23.016C11.5622 23.7755 11.0771 24.537 10.5903 25.1287C10.3104 25.4688 10.0174 25.7688 9.70867 25.9856Z" fill="#61ADFF"/>
<path fill-rule="evenodd" clip-rule="evenodd" d="M29.1464 21.3862C28.0929 21.2581 26.9879 21.4732 26.1726 21.9724C25.6847 22.2711 25.2444 22.7846 24.8126 23.4291C24.5037 23.8902 24.215 24.3929 23.9205 24.9055C23.8029 25.1104 23.6843 25.3168 23.5632 25.5228C23.1474 26.2297 22.7038 26.9269 22.1913 27.4477C21.6745 27.9728 21.0564 28.35 20.2959 28.35C19.7802 28.35 19.2662 28.0619 18.7982 27.7169C18.3645 27.3971 17.9121 26.9827 17.468 26.5758C17.4224 26.534 17.3768 26.4924 17.3314 26.4508C16.8351 25.9971 16.3486 25.5621 15.8734 25.2395C15.3932 24.9135 14.9708 24.7351 14.602 24.7351C14.2332 24.7351 13.8107 24.9135 13.3244 25.2404C12.8427 25.5642 12.3464 25.9997 11.828 26.4554L11.8175 26.4646C11.3111 26.9098 10.783 27.3741 10.26 27.7256C9.73796 28.0766 9.17198 28.35 8.59184 28.35C7.93526 28.35 7.44848 27.8808 7.07935 27.3535C6.70589 26.82 6.37902 26.1196 6.0693 25.4559L6.06039 25.4368C5.7401 24.7505 5.437 24.1037 5.10231 23.6256C4.75971 23.1362 4.45567 22.9276 4.16327 22.9276C3.62673 22.9276 3.0884 23.1523 2.57713 23.4908C2.06797 23.8278 1.61404 24.2586 1.24997 24.63L0.750034 24.1401C1.12406 23.7584 1.61911 23.2855 2.19073 22.9071C2.76024 22.5301 3.4345 22.2276 4.16327 22.2276C4.81984 22.2276 5.30662 22.6968 5.67576 23.2241C6.04921 23.7576 6.37609 24.458 6.68581 25.1217L6.69471 25.1408C7.015 25.8271 7.3181 26.4739 7.6528 26.952C7.9954 27.4414 8.29943 27.65 8.59184 27.65C8.96068 27.65 9.38321 27.4716 9.86947 27.1447C10.3512 26.8209 10.8475 26.3854 11.3659 25.9297L11.3763 25.9204C11.8828 25.4752 12.4109 25.011 12.9339 24.6594C13.4559 24.3085 14.0219 24.0351 14.602 24.0351C15.1823 24.0351 15.7484 24.3085 16.2666 24.6603C16.7898 25.0155 17.3116 25.4842 17.8038 25.9342C17.8483 25.9749 17.8925 26.0154 17.9365 26.0557C18.3876 26.4688 18.8117 26.8572 19.2136 27.1535C19.6649 27.4862 20.0209 27.65 20.2959 27.65C20.8008 27.65 21.2502 27.4059 21.6923 26.9567C22.1387 26.5032 22.5452 25.873 22.9598 25.1679C23.0726 24.9762 23.1862 24.7783 23.3011 24.5782C23.6002 24.0576 23.9078 23.522 24.2311 23.0395C24.6791 22.3707 25.1878 21.7545 25.807 21.3754C26.7737 20.7835 28.0411 20.5467 29.2309 20.6913C30.4211 20.8361 31.5818 21.3699 32.2867 22.3769L31.7133 22.7783C31.1529 21.9778 30.1994 21.5143 29.1464 21.3862Z" fill="#99CAFF"/>
</g>
<rect x="4.5" y="10.5" width="26" height="21" rx="1.5" stroke="#EBEDEE"/>
<rect x="4" y="39" width="2.42857" height="8" rx="1" fill="#E9EDF0"/>
<rect x="7.92857" y="42" width="2.42857" height="5" rx="1" fill="#E9EDF0"/>
<rect x="11.8571" y="35" width="2.42857" height="12" rx="1" fill="#61ADFF"/>
<rect x="15.7857" y="42" width="2.42857" height="5" rx="1" fill="#EC4899"/>
<rect x="19.7143" y="37" width="2.42857" height="10" rx="1" fill="#E9EDF0"/>
<rect x="23.6429" y="40" width="2.42857" height="7" rx="1" fill="#E9EDF0"/>
<rect x="27.5714" y="41" width="2.42857" height="6" rx="1" fill="#61ADFF"/>
<ellipse cx="47" cy="46" rx="9" ry="6" fill="white"/>
<path fill-rule="evenodd" clip-rule="evenodd" d="M46.9656 38.0001H47.0344C47.361 37.9989 47.6875 38.0129 48.0128 38.0421C52.9888 38.4453 56.608 41.6525 58.486 44.1301C58.8194 44.5666 59 45.1007 59 45.6501C59 46.1994 58.8194 46.7335 58.486 47.1701C56.608 49.648 52.9888 52.8548 48.0128 53.258C47.7156 53.2856 47.3904 53.3 47.0344 53.3H46.9656C46.61 53.3 46.2844 53.286 45.9872 53.258C41.0112 52.8548 37.392 49.648 35.514 47.1701C35.1806 46.7335 35 46.1994 35 45.6501C35 45.1007 35.1806 44.5666 35.514 44.1301C37.392 41.6525 41.0112 38.4453 45.9872 38.0425C46.2844 38.0145 46.6096 38.0001 46.9656 38.0001ZM47.1736 50.7964C50.016 50.7964 52.32 48.4925 52.32 45.6501C52.32 42.8081 50.016 40.5037 47.1736 40.5037C44.3312 40.5037 42.0272 42.8077 42.0272 45.6501C42.0272 48.4925 44.3312 50.7964 47.1736 50.7964ZM50.882 46.2464C50.924 45.9828 50.678 45.7796 50.4112 45.7796C50.0472 45.7797 49.6873 45.7026 49.3549 45.5542C49.0225 45.4057 48.7252 45.1889 48.4822 44.9179C48.2393 44.6468 48.0562 44.3276 47.9449 43.981C47.8336 43.6344 47.7967 43.2683 47.8364 42.9064C47.8884 42.428 47.6552 41.8944 47.1736 41.8944C46.4563 41.8945 45.7541 42.1 45.1499 42.4866C44.5457 42.8732 44.0649 43.4247 43.7642 44.076C43.4636 44.7272 43.3558 45.4509 43.4535 46.1615C43.5512 46.8721 43.8503 47.5399 44.3155 48.0858C44.7807 48.6318 45.3926 49.0331 46.0786 49.2423C46.7647 49.4515 47.4964 49.4599 48.1871 49.2664C48.8778 49.0729 49.4986 48.6857 49.9762 48.1505C50.4538 47.6153 50.7681 46.9546 50.882 46.2464Z" fill="#14B981"/>
<defs>
<clipPath id="clip0_641_18160">
<rect x="4" y="10" width="27" height="22" rx="2" fill="white"/>
</clipPath>
</defs>
</svg>
