<svg width="60" height="60" viewBox="0 0 60 60" fill="none" xmlns="http://www.w3.org/2000/svg">
<rect x="2" y="8" width="46.8136" height="42.1878" fill="white" fill-opacity="0.1"/>
<rect x="2" y="8" width="46.8136" height="42.1878" stroke="#006CE1" stroke-width="2"/>
<rect x="33" y="10" width="14" height="37" fill="#262626"/>
<circle cx="35" cy="31.5" r="1" fill="#99CAFF"/>
<rect x="37" y="31" width="7" height="1" fill="#99CAFF"/>
<circle cx="35" cy="34.5" r="1" fill="#61ADFF"/>
<rect x="37" y="34" width="9" height="1" fill="#61ADFF"/>
<circle cx="35" cy="38" r="1" fill="#EC4899"/>
<rect x="37" y="37.5" width="5" height="1" fill="#EC4899"/>
<rect x="34" y="43" width="3" height="3" fill="#666666"/>
<rect x="38" y="41" width="4" height="5" fill="#666666"/>
<rect x="43" y="44" width="3" height="2" rx="1" fill="white"/>
<path d="M38.6784 13.7081C39.7416 13.5573 40.8257 13.702 41.8121 14.1264C42.7985 14.5508 43.649 15.2385 44.2705 16.1142C44.8921 16.9898 45.2606 18.0196 45.3357 19.0908C45.4108 20.162 45.1897 21.2332 44.6965 22.187C44.2033 23.1409 43.457 23.9406 42.5395 24.4985C41.6221 25.0564 40.5687 25.351 39.4949 25.3501C38.4211 25.3492 37.3683 25.0527 36.4518 24.4931C35.5352 23.9336 34.7904 23.1326 34.2989 22.1779L35.0013 21.8163C35.4264 22.6421 36.0707 23.3349 36.8634 23.8189C37.6561 24.3028 38.5668 24.5593 39.4956 24.5601C40.4244 24.5609 41.3355 24.306 42.1291 23.8235C42.9227 23.3409 43.5681 22.6492 43.9947 21.8242C44.4213 20.9991 44.6126 20.0726 44.5476 19.1461C44.4826 18.2196 44.1639 17.3288 43.6263 16.5714C43.0887 15.814 42.3531 15.2192 41.4999 14.8521C40.6467 14.485 39.709 14.3598 38.7894 14.4903L38.6784 13.7081Z" fill="#61ADFF"/>
<path d="M45.9912 19.1622C46.0377 20.0546 45.8996 20.9471 45.5856 21.7838C45.2716 22.6205 44.7885 23.3834 44.1663 24.025C43.5442 24.6665 42.7965 25.1729 41.9698 25.5125C41.1432 25.852 40.2554 26.0175 39.362 25.9985L39.3806 25.1209C40.1534 25.1374 40.9213 24.9942 41.6363 24.7005C42.3513 24.4068 42.9981 23.9688 43.5362 23.4139C44.0743 22.859 44.4922 22.1991 44.7638 21.4754C45.0353 20.7517 45.1548 19.9797 45.1146 19.2078L45.9912 19.1622Z" fill="#EC4899"/>
<path d="M40.568 24.589C39.7148 24.768 38.8303 24.7297 37.9958 24.4775C37.1614 24.2253 36.4037 23.7674 35.7924 23.1459C35.1812 22.5243 34.736 21.759 34.4979 20.9204C34.2597 20.0818 34.2362 19.1968 34.4295 18.3468C34.6228 17.4967 35.0267 16.7089 35.6041 16.0557C36.1815 15.4026 36.9138 14.9051 37.7338 14.609C38.5537 14.3129 39.4349 14.2277 40.2964 14.3612C41.1579 14.4947 41.9719 14.8426 42.6638 15.373L42.2365 15.9303C41.6381 15.4715 40.934 15.1706 40.1888 15.0551C39.4437 14.9396 38.6815 15.0134 37.9723 15.2695C37.2631 15.5256 36.6297 15.9559 36.1302 16.5209C35.6308 17.0858 35.2815 17.7672 35.1143 18.5025C34.9471 19.2377 34.9674 20.0032 35.1734 20.7286C35.3794 21.4539 35.7644 22.1158 36.2931 22.6535C36.8218 23.1911 37.4772 23.5872 38.199 23.8053C38.9208 24.0234 39.6858 24.0566 40.4238 23.9017L40.568 24.589Z" fill="#99CAFF"/>
<g clip-path="url(#clip0_1252_24450)">
<rect width="28" height="22" transform="translate(4 10)" fill="#262626"/>
<path d="M1 28C1.85333 28.3333 3.88 28.7 5.16 27.5C6.76 26 7.72 23.5 9.32 23.5C10.92 23.5 13.16 29 15.4 29C17.64 29 18.92 17 22.76 17C25.832 17 30.8667 25 33 29" stroke="#EC4899" stroke-width="0.7"/>
<path d="M1 25.5C1.64 25 3.24 24 4.52 24C6.12 24 7.4 26 8.68 26C10.92 26 12.84 19 15.72 19C18.6 19 20.84 29 24.68 29C28.52 29 29.48 24.5 33 24.5" stroke="#0051A8" stroke-width="0.7"/>
<path d="M1 24.3851C1.7381 23.632 2.89796 22.5776 4.16327 22.5776C6.06122 22.5776 6.69388 28 8.59184 28C10.4898 28 12.7041 24.3851 14.602 24.3851C16.5 24.3851 18.7143 28 20.2959 28C22.8265 28 23.7755 23.0296 25.9898 21.6739C27.7718 20.5828 30.7347 20.7701 32 22.5776" stroke="#61ADFF" stroke-width="0.7"/>
</g>
<rect x="4" y="39" width="2.71429" height="8" fill="#54565A"/>
<rect x="8.21423" y="42" width="2.71429" height="5" fill="#54565A"/>
<rect x="12.4286" y="35" width="2.71429" height="12" fill="#61ADFF"/>
<rect x="16.6428" y="42" width="2.71429" height="5" fill="#EC4899"/>
<rect x="20.8572" y="37" width="2.71429" height="10" fill="#54565A"/>
<rect x="25.0714" y="40" width="2.71429" height="7" fill="#54565A"/>
<rect x="29.2858" y="41" width="2.71429" height="6" fill="#61ADFF"/>
<ellipse cx="47" cy="46" rx="9" ry="6" fill="white"/>
<path fill-rule="evenodd" clip-rule="evenodd" d="M46.9656 38.0001H47.0344C47.361 37.9989 47.6875 38.0129 48.0128 38.0421C52.9888 38.4453 56.608 41.6525 58.486 44.1301C58.8194 44.5666 59 45.1007 59 45.6501C59 46.1994 58.8194 46.7335 58.486 47.1701C56.608 49.648 52.9888 52.8548 48.0128 53.258C47.7156 53.2856 47.3904 53.3 47.0344 53.3H46.9656C46.61 53.3 46.2844 53.286 45.9872 53.258C41.0112 52.8548 37.392 49.648 35.514 47.1701C35.1806 46.7335 35 46.1994 35 45.6501C35 45.1007 35.1806 44.5666 35.514 44.1301C37.392 41.6525 41.0112 38.4453 45.9872 38.0425C46.2844 38.0145 46.6096 38.0001 46.9656 38.0001ZM47.1736 50.7964C50.016 50.7964 52.32 48.4925 52.32 45.6501C52.32 42.8081 50.016 40.5037 47.1736 40.5037C44.3312 40.5037 42.0272 42.8077 42.0272 45.6501C42.0272 48.4925 44.3312 50.7964 47.1736 50.7964ZM50.882 46.2464C50.924 45.9828 50.678 45.7796 50.4112 45.7796C50.0472 45.7797 49.6873 45.7026 49.3549 45.5542C49.0225 45.4057 48.7252 45.1889 48.4822 44.9179C48.2393 44.6468 48.0562 44.3276 47.9449 43.981C47.8336 43.6344 47.7967 43.2683 47.8364 42.9064C47.8884 42.428 47.6552 41.8944 47.1736 41.8944C46.4563 41.8945 45.7541 42.1 45.1499 42.4866C44.5457 42.8732 44.0649 43.4247 43.7642 44.076C43.4636 44.7272 43.3558 45.4509 43.4535 46.1615C43.5512 46.8721 43.8503 47.5399 44.3155 48.0858C44.7807 48.6318 45.3926 49.0331 46.0786 49.2423C46.7647 49.4515 47.4964 49.4599 48.1871 49.2664C48.8778 49.0729 49.4986 48.6857 49.9762 48.1505C50.4538 47.6153 50.7681 46.9546 50.882 46.2464Z" fill="#14B981"/>
<defs>
<clipPath id="clip0_1252_24450">
<rect width="28" height="22" fill="white" transform="translate(4 10)"/>
</clipPath>
</defs>
</svg>
