<svg width="160" height="29" viewBox="0 0 160 29" fill="none" xmlns="http://www.w3.org/2000/svg">
<g clip-path="url(#clip0_418_66774)">
<path d="M17.359 23.9074C22.694 23.9074 27.019 19.5825 27.019 14.2474C27.019 8.91233 22.694 4.5874 17.359 4.5874C12.0239 4.5874 7.69897 8.91233 7.69897 14.2474C7.69897 19.5825 12.0239 23.9074 17.359 23.9074Z" fill="white"/>
<path fill-rule="evenodd" clip-rule="evenodd" d="M8.121 8.22056C8.707 3.72356 12.621 0.247559 17.361 0.247559C22.101 0.247559 26.015 3.72356 26.601 8.22056C31.181 8.79656 34.72 12.6376 34.72 17.2896C34.72 22.3396 30.55 26.4326 25.404 26.4326C24.558 26.4326 23.738 26.3226 22.959 26.1146C21.2743 27.4986 19.1603 28.2528 16.98 28.2476C14.8743 28.2528 12.8279 27.5498 11.17 26.2516C10.5594 26.3723 9.93843 26.4329 9.316 26.4326C4.171 26.4326 0 22.3396 0 17.2896C0 12.6366 3.54 8.79656 8.121 8.22056Z" fill="#006CE1"/>
<path fill-rule="evenodd" clip-rule="evenodd" d="M11.235 13.3097C11.539 13.0013 11.9528 12.8261 12.3859 12.8223C12.8189 12.8186 13.2357 12.9866 13.545 13.2897L17.36 17.0347L21.174 13.2907C21.817 12.6587 22.851 12.6677 23.484 13.3097C24.117 13.9517 24.109 14.9827 23.465 15.6137L18.505 20.4827C18.1991 20.7826 17.7879 20.9507 17.3595 20.9507C16.9311 20.9507 16.5198 20.7826 16.214 20.4827L11.254 15.6137C11.101 15.4639 10.979 15.2853 10.8952 15.0882C10.8114 14.8912 10.7672 14.6795 10.7654 14.4654C10.7635 14.2512 10.804 14.0388 10.8844 13.8403C10.9648 13.6418 11.0836 13.4612 11.234 13.3087L11.235 13.3097Z" fill="#F8F9FA"/>
<path d="M127.053 19.7274V8.70439H130.867C132.584 8.70439 133.986 9.22939 135.074 10.2794C136.163 11.3194 136.707 12.6314 136.707 14.2164C136.707 15.7914 136.157 17.1044 135.059 18.1544C133.97 19.2044 132.573 19.7294 130.867 19.7294L127.053 19.7274ZM128.293 18.5784H130.867C132.238 18.5784 133.337 18.1684 134.164 17.3504C135.001 16.5204 135.42 15.4754 135.42 14.2154C135.42 12.9654 135.001 11.9264 134.164 11.0974C133.327 10.2684 132.228 9.85339 130.867 9.85339H128.293V18.5784ZM139.332 19.7274V8.70439H140.493L147.416 17.5404V8.70339H148.625V19.7274H147.636L140.541 10.6874V19.7274H139.332ZM155.501 19.8854C153.816 19.8854 152.32 19.2974 151.011 18.1214L151.781 17.2084C152.367 17.7434 152.953 18.1384 153.539 18.3894C154.135 18.6414 154.805 18.7674 155.548 18.7674C156.281 18.7674 156.872 18.5944 157.322 18.2474C157.772 17.8904 157.997 17.4284 157.997 16.8614C157.997 16.3264 157.798 15.9014 157.4 15.5864C157.003 15.2714 156.249 14.9984 155.14 14.7664C153.832 14.4834 152.89 14.1004 152.314 13.6164C151.739 13.1344 151.451 12.4464 151.451 11.5544C151.451 10.6824 151.791 9.96339 152.471 9.39639C153.152 8.82939 154.015 8.54639 155.061 8.54639C156.516 8.54639 157.803 8.99639 158.923 9.90039L158.201 10.8604C157.228 10.0634 156.171 9.66439 155.03 9.66439C154.329 9.66439 153.764 9.83739 153.335 10.1844C152.906 10.5194 152.691 10.9504 152.691 11.4744C152.691 12.0214 152.895 12.4514 153.303 12.7664C153.722 13.0814 154.512 13.3654 155.674 13.6164C156.919 13.8904 157.824 14.2734 158.389 14.7664C158.965 15.2504 159.253 15.9164 159.253 16.7664C159.253 17.7014 158.902 18.4574 158.201 19.0354C157.5 19.6024 156.6 19.8854 155.501 19.8854Z" fill="#131313"/>
<path fill-rule="evenodd" clip-rule="evenodd" d="M42.7 19.7604L47.333 8.65641H49.526L54.16 19.7604H51.673L50.684 17.2874H46.113L45.124 19.7604H42.7ZM46.962 15.1454H49.835L48.399 11.5704L46.962 15.1454ZM55.402 19.7604V8.73441H59.618C61.306 8.73441 62.686 9.25741 63.758 10.3014C64.828 11.3464 65.363 12.6614 65.363 14.2474C65.363 15.8224 64.825 17.1354 63.749 18.1854C62.673 19.2354 61.296 19.7604 59.618 19.7604H55.402ZM57.78 17.5704H59.618C60.596 17.5704 61.384 17.2634 61.981 16.6504C62.578 16.0374 62.877 15.2344 62.877 14.2474C62.877 13.2704 62.575 12.4724 61.973 11.8534C61.371 11.2334 60.586 10.9234 59.618 10.9234H57.78V17.5704ZM72.258 19.9494C70.579 19.9494 69.213 19.4134 68.157 18.3424C67.102 17.2724 66.574 15.9064 66.574 14.2474C66.574 12.6614 67.114 11.3154 68.196 10.2074C69.276 9.09941 70.626 8.54541 72.242 8.54541C73.179 8.54541 73.972 8.66941 74.621 8.91541C75.27 9.16141 75.893 9.54341 76.49 10.0574L74.992 11.9004C74.539 11.5124 74.101 11.2284 73.679 11.0504C73.257 10.8724 72.752 10.7824 72.165 10.7824C71.3 10.7824 70.567 11.1214 69.965 11.7984C69.362 12.4754 69.061 13.2914 69.061 14.2484C69.061 15.2554 69.367 16.0904 69.98 16.7514C70.592 17.4134 71.377 17.7444 72.335 17.7444C73.221 17.7444 73.967 17.5244 74.575 17.0824V15.5074H72.18V13.4124H76.875V18.2004C75.526 19.3664 73.988 19.9494 72.258 19.9494ZM83.672 19.9334C82.2 19.9334 81.052 19.5164 80.228 18.6814C79.404 17.8464 78.992 16.6314 78.992 15.0354V8.73541H81.371V14.9724C81.371 15.8544 81.574 16.5284 81.981 16.9964C82.388 17.4634 82.961 17.6964 83.703 17.6964C84.444 17.6964 85.018 17.4714 85.425 17.0194C85.832 16.5674 86.035 15.9114 86.035 15.0504V8.73441H88.414V14.9564C88.414 16.5944 87.994 17.8334 87.155 18.6734C86.315 19.5134 85.155 19.9334 83.672 19.9334ZM89.058 19.7604L93.692 8.65641H95.885L100.519 19.7604H98.032L97.044 17.2874H92.472L91.483 19.7604H89.058ZM93.321 15.1454H96.194L94.758 11.5704L93.321 15.1454ZM101.76 19.7604V8.73441H106.703C108.072 8.73441 109.123 9.10741 109.854 9.85341C110.472 10.4834 110.78 11.3334 110.78 12.4044C110.78 14.0944 110.008 15.2344 108.464 15.8224L111.105 19.7604H108.325L105.977 16.2324H104.139V19.7604H101.76ZM104.139 14.0904H106.548C107.125 14.0904 107.573 13.9454 107.892 13.6564C108.211 13.3684 108.371 12.9824 108.371 12.4994C108.371 11.9844 108.206 11.5934 107.877 11.3254C107.547 11.0584 107.089 10.9244 106.502 10.9244H104.139V14.0904ZM112.501 19.7604V8.73441H116.717C118.406 8.73441 119.786 9.25741 120.857 10.3014C121.928 11.3464 122.463 12.6614 122.463 14.2474C122.463 15.8224 121.925 17.1354 120.849 18.1854C119.773 19.2354 118.396 19.7604 116.717 19.7604H112.501ZM114.879 17.5704H116.717C117.695 17.5704 118.483 17.2634 119.08 16.6504C119.678 16.0354 119.976 15.2344 119.976 14.2474C119.976 13.2704 119.675 12.4724 119.073 11.8534C118.47 11.2334 117.685 10.9234 116.717 10.9234H114.879V17.5704Z" fill="#131313"/>
</g>
<defs>
<clipPath id="clip0_418_66774">
<rect width="160" height="28" fill="white" transform="translate(0 0.247559)"/>
</clipPath>
</defs>
</svg>
