<svg xmlns="http://www.w3.org/2000/svg" width="18" height="18" viewBox="0 0 18 18">
  <path fill="#2ED9C3" fill-rule="evenodd" d="M15.5,18.5 L6.5,18.5 C5.67157287,18.5 5,17.8284271 5,17 C5,16.1715729 5.67157287,15.5 6.5,15.5 L15.5,15.5 L15.5,6.5 C15.5,5.67157287 16.1715729,5 17,5 C17.8284271,5 18.5,5.67157287 18.5,6.5 L18.5,15.5 L27.5,15.5 C28.3284271,15.5 29,16.1715729 29,17 C29,17.8284271 28.3284271,18.5 27.5,18.5 L18.5,18.5 L18.5,27.5 C18.5,28.3284271 17.8284271,29 17,29 C16.1715729,29 15.5,28.3284271 15.5,27.5 L15.5,18.5 L15.5,18.5 Z" transform="rotate(-45 3.343 22.657)"/>
</svg>
