<svg xmlns="http://www.w3.org/2000/svg" width="20" height="19" viewBox="0 0 20 19">
  <path fill="#2ED9C3" fill-rule="evenodd" d="M12.6243902,13.0001714 C12.6905366,13.0001714 12.7508293,13.0178852 12.8105366,13.0367418 C12.8427317,13.0487415 12.8749268,13.0595983 12.9047805,13.074455 C12.9445854,13.0955973 12.9814634,13.120168 13.0154146,13.1475958 C13.0435122,13.1704523 13.0680976,13.1967372 13.0915122,13.224165 C13.124878,13.2635925 13.1564878,13.3030199 13.1787317,13.3498757 C13.1863415,13.3653038 13.1910244,13.3830176 13.1974634,13.3995886 C13.220878,13.4624439 13.2390244,13.5287278 13.2390244,13.5995829 C13.2390244,13.663581 13.220878,13.7218651 13.201561,13.7795777 C13.1851707,13.8304334 13.1588293,13.8767178 13.129561,13.9207166 C13.1201951,13.9350019 13.1114146,13.9498586 13.1002927,13.9635725 C13.0733659,13.9978572 13.0423415,14.0281421 13.0089756,14.0561413 L12.9669024,14.0867118 L12.9669024,14.0867118 L12.8813659,14.1370675 L12.8392195,14.1572812 C12.7943415,14.1740426 12.7476423,14.1872486 12.6989485,14.1941902 L12.6243902,14.1995657 L11.0731707,14.1995657 C10.0593171,14.1995657 9.2292683,15.0098283 9.2292683,16.0000857 C9.2292683,16.9402874 9.9783873,17.7185595 10.922552,17.7940362 L11.0731707,17.8000343 L12.6243902,17.8000343 C12.9627317,17.8000343 13.2390244,18.0697409 13.2390244,18.4000171 C13.2390244,18.6967515 13.0152273,18.9453501 12.723817,18.9921025 L12.6243902,19 L11.0731707,19 C9.3767805,19 8,17.655467 8,16.0000857 C8,15.809234 8.0228293,15.623525 8.0579512,15.4429588 C8.0620488,15.4201023 8.0643902,15.3966744 8.0696585,15.3738179 C8.1036098,15.2178223 8.155122,15.0692552 8.2130732,14.9229736 C8.2329756,14.8738322 8.2505366,14.8241193 8.2727805,14.7761207 C8.3272195,14.6589812 8.3921951,14.5486986 8.4600976,14.4395589 C8.5174634,14.3492757 8.5800976,14.2629925 8.6468293,14.1789949 C8.6971707,14.1155681 8.7480976,14.0527128 8.8037073,13.9932859 C8.8733659,13.9190023 8.947122,13.8470044 9.0243902,13.7790063 C9.1900488,13.6332962 9.3738537,13.5081569 9.5681951,13.3995886 C9.6138537,13.3744464 9.6600976,13.3493043 9.7075122,13.3258764 C9.7970732,13.2818777 9.8889756,13.2395932 9.9838049,13.2035942 C10.1079024,13.1573098 10.2349268,13.1178823 10.3666341,13.0875975 C10.4362927,13.071598 10.5077073,13.0607411 10.5785366,13.0487415 C10.6866341,13.0315991 10.795252,13.0157265 10.9057778,13.0070495 L11.0731707,13.0001714 L12.6243902,13.0001714 Z M16.9268293,13 C17.1159024,13 17.299122,13.0222851 17.4788293,13.0542842 C17.6140488,13.0782835 17.7434146,13.1188537 17.8721951,13.159424 C17.923122,13.175995 17.9763902,13.1874232 18.0261463,13.2062798 C18.1385366,13.2485643 18.2450732,13.3022771 18.3510244,13.3571327 C18.4113171,13.3879889 18.4727805,13.4171309 18.5307317,13.4519871 C18.6238049,13.5079855 18.7116098,13.5708408 18.7976585,13.6359818 C18.860878,13.683409 18.9229268,13.7319791 18.9820488,13.7839776 C19.0558049,13.8491186 19.1260488,13.9176881 19.1933659,13.989686 C19.2548293,14.0559698 19.3116098,14.1245393 19.3672195,14.194823 C19.4222439,14.2656781 19.4760976,14.3371047 19.5246829,14.4119597 C19.5797073,14.4976715 19.6265366,14.5873832 19.6727805,14.6782378 C19.7090732,14.7496643 19.7477073,14.8205194 19.7781463,14.8942316 C19.8232195,15.005657 19.856,15.1216537 19.8876098,15.2387932 C19.9045854,15.3016485 19.928,15.3627896 19.940878,15.4273592 C19.9777561,15.6124968 20,15.8033485 20,15.9999143 C20,17.5961748 18.7198049,18.903394 17.1073142,18.9947308 L16.9268293,18.9998286 L15.3756098,18.9998286 C15.0378537,18.9998286 14.7609756,18.7295506 14.7609756,18.3998457 C14.7609756,18.1025971 14.9852468,17.8544099 15.2763253,17.8077449 L15.3756098,17.7998629 L16.9268293,17.7998629 C17.9406829,17.7998629 18.7707317,16.9896003 18.7707317,15.9999143 C18.7707317,15.8959173 18.7578537,15.7964915 18.739122,15.6982086 C18.7320976,15.6553527 18.7227317,15.6147824 18.7121951,15.5736408 C18.7010732,15.5319277 18.6870244,15.4902146 18.6729756,15.4496443 C18.6476098,15.3730751 18.6173008,15.2990454 18.5822222,15.2275554 L18.5260488,15.1222251 C18.4154146,14.9319448 18.2714146,14.764521 18.1004878,14.6250964 C18.0794146,14.6068112 18.0577561,14.5890975 18.0355122,14.5725265 C17.9886829,14.5370989 17.9406829,14.503957 17.8903415,14.4736722 C17.8318049,14.4376732 17.7709268,14.4062455 17.708878,14.3771035 C17.6667317,14.3576755 17.6245854,14.3393903 17.5812683,14.3228193 C17.5051707,14.2942487 17.4267317,14.2702494 17.3459512,14.2513928 C17.3149268,14.2445359 17.2844878,14.2376789 17.252878,14.2319648 C17.1822439,14.2193937 17.1105691,14.2093623 17.0375068,14.2040714 L16.9268293,14.1999657 L15.3756098,14.1999657 C15.2995122,14.1999657 15.2280976,14.1822519 15.1607805,14.1571098 L15.1186341,14.1373246 L15.1186341,14.1373246 L15.0333171,14.0868261 L14.9910244,14.0565412 C14.9576585,14.028542 14.9266341,13.9976858 14.9002927,13.963401 C14.8891707,13.9496872 14.8798049,13.9354018 14.870439,13.9205451 C14.8417561,13.8765464 14.8154146,13.830262 14.798439,13.7794063 C14.7797073,13.7222651 14.7609756,13.6634096 14.7609756,13.5999829 C14.7609756,13.5291277 14.7797073,13.4628439 14.803122,13.3994172 C14.8089756,13.3828462 14.8136585,13.3662752 14.8212683,13.3497043 C14.8435122,13.3028485 14.8757073,13.263421 14.9084878,13.224565 C14.9319024,13.1971372 14.9564878,13.1708523 14.9845854,13.1479958 C14.9939512,13.139996 15.0050732,13.1348533 15.0150244,13.1279963 C15.0407805,13.1085683 15.0665366,13.0897117 15.0952195,13.074855 C15.1256585,13.0588555 15.1560976,13.0474272 15.1894634,13.0365704 C15.2292683,13.0239993 15.2693333,13.0119362 15.3112195,13.0052909 L15.3756098,13 L16.9268293,13 Z M9.4323976,0 C14.6335855,0 18.8647952,4.23120961 18.8647952,9.4323976 C18.8647952,10.3225799 18.7407744,11.1841217 18.5091107,12.0007554 L17.1073482,12.0012992 C17.3380733,11.311882 17.477729,10.5815024 17.5140893,9.8237704 L14.5859946,9.8237704 C14.5680156,10.5797886 14.499384,11.3087061 14.3835734,12.0003334 L13.5853712,12.0006786 C13.7093712,11.3113151 13.7841272,10.5813752 13.8038752,9.8237704 L9.8237704,9.8237704 L9.8238311,12.0450309 C9.5531593,12.0859 9.2913803,12.1538928 9.0413513,12.246152 L9.0410248,9.8237704 L5.06091995,9.8237704 C5.0845365,10.7297872 5.18682378,11.5962387 5.3579233,12.4010417 L5.44916177,12.7982037 L8.0288533,12.7975849 C7.73145981,13.0205564 7.46614527,13.2839858 7.24107631,13.5797065 L5.67208772,13.5809493 C5.8901005,14.2574652 6.15942167,14.8708567 6.47009544,15.4021556 C6.44118972,15.5969733 6.42602539,15.7967158 6.42602539,16 C6.42602539,16.2738278 6.45354048,16.5412292 6.50595669,16.79959 C5.80727835,15.9854763 5.23651225,14.8842707 4.84613456,13.5809493 L2.48662622,13.5809493 C3.41526583,15.129486 4.84329655,16.341224 6.54983891,16.9941656 C6.70849589,17.6126929 7.01165234,18.1747299 7.42147608,18.6406612 C3.18437961,17.7184232 0,13.9431005 0,9.4323976 C0,4.32088527 4.08656363,0.14619212 9.1642524,0.00375666 L9.4323976,0 Z M15.8441366,15.3998743 C16.1818927,15.3998743 16.4587707,15.6695809 16.4587707,15.9998571 C16.4587707,16.2965915 16.2344995,16.5451901 15.9434211,16.5919425 L15.8441366,16.59984 L12.1563317,16.59984 C11.8179902,16.59984 11.5416976,16.329562 11.5416976,15.9998571 C11.5416976,15.7026085 11.7654946,15.4544213 12.056905,15.4077563 L12.1563317,15.3998743 L15.8441366,15.3998743 Z M4.27880055,9.8237704 L1.35070581,9.8237704 C1.39579195,10.7633434 1.59970008,11.6608608 1.93912091,12.4903744 L2.07271035,12.7982037 L4.63948972,12.7982037 C4.42720911,11.8776948 4.30384841,10.8770329 4.27880055,9.8237704 Z M9.0410248,6.0665915 L5.44916177,6.0665915 C5.25539869,6.85023166 5.12880476,7.69920074 5.07923848,8.5914157 L5.06091995,9.0410248 L9.0410248,9.0410248 L9.0410248,6.0665915 Z M4.63948972,6.0665915 L2.07271035,6.0665915 C1.69977556,6.87869875 1.4594398,7.76205326 1.37501237,8.6907069 L1.35070581,9.0410248 L4.27880055,9.0410248 C4.28192456,8.9096602 4.28657787,8.7791138 4.29274226,8.6494392 L4.28944589,8.6490258 C4.32376656,7.93613638 4.40492161,7.25011916 4.52780126,6.5993902 C4.562029,6.41929799 4.59915418,6.24149782 4.63948972,6.0665915 Z M13.4156334,6.0665915 L9.8237704,6.0665915 L9.8237704,9.0410248 L13.8038752,9.0410248 C13.7763226,7.98400512 13.6416903,6.98083836 13.4156334,6.0665915 Z M16.7920848,6.0665915 L14.2253054,6.0665915 C14.4112858,6.87188017 14.5315155,7.7385361 14.5753493,8.6490258 L14.5713305,8.6492364 C14.5782173,8.7791138 14.5828706,8.9096602 14.5859946,9.0410248 L17.5140893,9.0410248 C17.4633674,7.98400512 17.2116364,6.98021216 16.7920848,6.0665915 Z M9.8237704,1.351332 L9.8237704,5.2838459 L13.1927074,5.2838459 C12.5007603,3.13661817 11.2934535,1.62310128 9.88639,1.35383679 L9.8548454,1.3525844 L9.8237704,1.351332 Z M12.1175281,1.79843629 C12.324028,2.01149431 12.5207629,2.24845423 12.7064803,2.50738529 C12.8778272,2.74657066 13.0398725,3.00439311 13.1915423,3.27940148 C13.3937031,3.64535352 13.5774568,4.04240104 13.7404466,4.46641899 C13.8411263,4.72884787 13.9341231,5.00160775 14.0186606,5.2838459 L16.3781689,5.2838459 C15.8109086,4.33792086 15.057306,3.51766848 14.1677068,2.87368919 L13.8969672,2.68600384 C13.5598273,2.46223613 13.204971,2.26304426 12.8349137,2.09095632 C12.7644466,2.05795302 12.6931446,2.02602496 12.6213039,1.99510367 C12.4560481,1.9242835 12.2881023,1.8585899 12.1175281,1.79843629 Z M6.745,1.799 C6.58129177,1.85696808 6.41780503,1.92074516 6.2570034,1.98956998 C6.18023781,2.02218417 6.10460773,2.05597128 6.02960295,2.09087025 C5.91703638,2.1434327 5.80560486,2.19842943 5.69565817,2.25587482 C5.60516328,2.30302278 5.51579867,2.35190854 5.4274778,2.40240667 C5.21850838,2.52195244 5.01501677,2.6506753 4.81791027,2.78793815 C4.59675842,2.94193926 4.38402761,3.10640286 4.18005116,3.28082473 L3.93448374,3.49954179 C3.37209838,4.02113045 2.88370846,4.62169837 2.48662622,5.2838459 L4.84613456,5.2838459 C5.22266059,4.02495584 5.76842832,2.95463591 6.43435313,2.14855822 L6.58915112,1.96842649 L6.745,1.799 Z M9.0410248,1.351332 L9.0099498,1.3525844 L8.9784051,1.35383679 C7.62996928,1.61188192 6.46499053,3.01265192 5.76124244,5.01878717 L5.67208772,5.2838459 L9.0410248,5.2838459 L9.0410248,1.351332 Z"/>
</svg>
