<svg xmlns="http://www.w3.org/2000/svg" width="25" height="22" viewBox="0 0 25 22">
  <g fill="none" fill-rule="evenodd" transform="translate(0 -1)">
    <polygon points="1 0 25 0 25 24 1 24"/>
    <path fill="#2ED9C3" fill-rule="nonzero" d="M14.3636364,1 C20.2372727,1 25,5.76272727 25,11.6363636 C25,17.51 20.2372727,22.2727273 14.3636364,22.2727273 C11.4209091,22.2727273 8.77363636,21.0790909 6.84727273,19.1527273 L6.84727273,19.1527273 L6.85855642,19.1419548 C6.61251742,18.925378 6.45727273,18.6080914 6.45727273,18.2545455 C6.45727273,17.6018453 6.98639075,17.0727273 7.63909091,17.0727273 C7.96544099,17.0727273 8.26089553,17.2050068 8.47476256,17.4188738 L8.52545455,17.4745455 C10.0145454,18.9754545 12.0827273,19.9090909 14.3636364,19.9090909 C18.9372727,19.9090909 22.6363636,16.21 22.6363636,11.6363636 C22.6363636,7.06272727 18.9372727,3.36363636 14.3636364,3.36363636 C9.79,3.36363636 6.09090909,7.06272727 6.09090909,11.6363636 L6.09090909,11.6363636 L8.42713831,11.6363636 C8.55996127,11.6363636 8.68732598,11.6892123 8.78112954,11.7832486 C8.97614958,11.9787526 8.97575728,12.2953348 8.78025332,12.4903549 L8.78025332,12.4903549 L5.21848204,16.0433099 C5.21759452,16.0441952 5.21670367,16.0450772 5.21580951,16.0459558 C5.01884424,16.2394999 4.7022739,16.2367264 4.50872986,16.0397611 L4.50872986,16.0397611 L1.01748871,12.4868061 C0.925608989,12.3933023 0.874125874,12.2674546 0.874125874,12.1363636 C0.874125874,11.8602213 1.0979835,11.6363636 1.37412587,11.6363636 L1.37412587,11.6363636 L3.72727273,11.6363636 C3.72727273,5.76272727 8.49,1 14.3636364,1 Z M13.1818182,6.90909091 L13.1818182,12.8181818 L18.24,15.82 L19.0909091,14.39 L14.9545455,11.9318182 L14.9545455,6.90909091 L13.1818182,6.90909091 Z"/>
  </g>
</svg>
