<svg width="24" height="24" viewBox="0 0 24 24" fill="none" xmlns="http://www.w3.org/2000/svg">
<path d="M16 4L18.9951 4C20.6634 4 22 5.33817 22 6.98665L22 17.0036C22 18.6618 20.6537 19.9903 18.9951 19.9903L12.0976 19.9903" stroke="white" stroke-width="1.2" stroke-linecap="round" stroke-linejoin="round"/>
<path d="M11.9219 20.0001L5.0048 20.0001C3.33651 20.0001 1.99992 18.6619 1.99992 17.0134L1.99992 6.99642C1.99992 5.33824 3.34627 4.00977 5.0048 4.00977L7.99992 4.00977" stroke="white" stroke-width="1.2" stroke-linecap="round" stroke-linejoin="round"/>
<path fill-rule="evenodd" clip-rule="evenodd" d="M11.8824 12.6691C10.5515 12.6691 9.47266 11.5967 9.47266 10.2739C9.47266 8.95113 10.5515 7.87878 11.8824 7.87878C13.2133 7.87878 14.2922 8.95113 14.2922 10.2739C14.2922 11.5967 13.2133 12.6691 11.8824 12.6691Z" stroke="white" stroke-width="1.2" stroke-linecap="round" stroke-linejoin="round"/>
<path d="M7.02344 19.2921V17.9249C7.02344 16.3346 8.32099 15.0546 9.91123 15.0546H14.2332C15.8332 15.0546 17.121 16.3443 17.121 17.9249V19.2921" stroke="white" stroke-width="1.2" stroke-linecap="round" stroke-linejoin="round"/>
<line x1="10.3652" y1="4.01819" x2="13.6335" y2="4.01819" stroke="white" stroke-width="2" stroke-linecap="round"/>
</svg>
