<svg xmlns="http://www.w3.org/2000/svg" width="24" height="24" fill="none" viewBox="0 0 24 24">
  <path fill="#F2F2F2" d="m18.83 18-2-2H7.17l-2 2h-.34l-.5-.5L5.695 6.635l.555-.555L8.17 8h7.66l1.92-1.92.555.555L19.67 17.5l-.5.5h-.34Z" opacity=".1"/>
  <path fill="#F2F2F2" fill-rule="evenodd" d="m18.5 4 1.705 1.705 1.57 12.52L20 20h-2l-2-2H8l-2 2H4l-1.775-1.775 1.57-12.52L5.5 4H7l2 2h6l2-2h1.5ZM7.295 17.295l.29-.295H9.5V7h-.915l-.29-.295L6.585 5h-.67l-1.17 1.17-1.47 11.69L4.415 19h1.17l1.71-1.705ZM10 17h4V7h-4v10Zm8.415 2h1.17l1.14-1.14-1.47-11.69L18.085 5h-.67l-1.71 1.705-.29.295H14.5v10h1.915l.29.295L18.415 19ZM6.5 9h1v1h1v1h-1v1h-1v-1h-1v-1h1V9Zm.5 4.5v1h1v-1H7ZM16.5 9h1v1h-1V9Zm0 2h-1v-1h1v1Zm1 0v1h-1v-1h1Zm0 0h1v-1h-1v1ZM16 14.5v-1h1v1h-1Z" clip-rule="evenodd"/>
</svg>
