<svg width="24" height="24" viewBox="0 0 24 24" fill="none" xmlns="http://www.w3.org/2000/svg">
<path d="M17 21.6376C17.2761 21.6376 17.5 21.4137 17.5 21.1376L17.5 20.7496L17.5 20.7474C17.4906 18.589 15.9209 16.7385 13.8634 16.7385H10.1282C8.06999 16.7385 6.5 18.5996 6.5 20.7496V21.1376C6.5 21.4137 6.72386 21.6376 7 21.6376H17Z" stroke="white" stroke-linecap="round" stroke-linejoin="round"/>
<path d="M18.9156 8.44693C18.9301 8.61408 19.0276 8.76279 19.175 8.84289C20.3162 9.46288 21.0891 10.6317 21.4221 12.4706C20.532 12.4496 19.7363 12.0975 19.1308 11.5308C19.0141 11.4216 18.8523 11.3748 18.6953 11.4048C18.5383 11.4347 18.4052 11.5379 18.337 11.6824C17.2761 13.9297 14.9194 15.5 12.1932 15.5C9.36597 15.5 6.93657 13.8112 5.93612 11.4305C5.86957 11.2721 5.72636 11.159 5.55687 11.1309C5.38738 11.1029 5.21535 11.1638 5.10129 11.2922C4.47444 11.9982 3.58597 12.4467 2.57792 12.4706C2.94308 10.4525 3.83826 9.23616 5.18645 8.66813C5.35256 8.59814 5.46814 8.44416 5.48897 8.26512C5.86491 5.03299 8.70739 2.5 12.1932 2.5C15.7439 2.5 18.6264 5.12753 18.9156 8.44693Z" stroke="white" stroke-linejoin="round"/>
<path d="M5.26833 8.46334C4.97194 8.31515 4.61154 8.43528 4.46334 8.73167C4.31515 9.02806 4.43528 9.38846 4.73167 9.53666L5.26833 8.46334ZM10 6.5H10.6L9.46334 6.23167L10 6.5ZM9.5 9.5L9.07574 9.07574L8.05147 10.1H9.5V9.5ZM14 7L14.5692 7.18974L13.5008 6.66718L14 7ZM14.5 9.5L14.0757 9.92426L14.2683 10.1168L14.5399 10.0987L14.5 9.5ZM4.73167 9.53666C5.1651 9.75337 5.7188 9.72653 6.20243 9.6348C6.71668 9.53727 7.28475 9.33995 7.8327 9.07934C8.89862 8.57238 10.0466 7.74852 10.5367 6.76833L9.46334 6.23167C9.15344 6.85148 8.30138 7.52762 7.3173 7.99566C6.84025 8.22255 6.37082 8.38148 5.97882 8.45582C5.5562 8.53597 5.3349 8.49663 5.26833 8.46334L4.73167 9.53666ZM9.4 6.5C9.4 7.07649 9.35971 7.71292 9.28157 8.23643C9.24237 8.49912 9.19571 8.71903 9.14528 8.88292C9.08712 9.07195 9.04846 9.10301 9.07574 9.07574L9.92426 9.92426C10.1182 9.73032 10.2254 9.45305 10.2922 9.23583C10.3668 8.99347 10.4243 8.70922 10.4684 8.41357C10.557 7.82042 10.6 7.12351 10.6 6.5H9.4ZM9.5 10.1C11.7327 10.1 13.407 8.97111 14.4992 7.33282L13.5008 6.66718C12.593 8.02889 11.2673 8.9 9.5 8.9V10.1ZM13.4308 6.81026C13.1252 7.72692 13.278 8.50525 13.511 9.04885C13.6262 9.31755 13.7605 9.52892 13.8677 9.67513C13.9216 9.74856 13.9693 9.80655 14.0056 9.84817C14.0237 9.86901 14.0391 9.88584 14.051 9.89854C14.0569 9.90489 14.062 9.91022 14.0661 9.91451C14.0682 9.91665 14.0701 9.91854 14.0717 9.92017C14.0725 9.92098 14.0732 9.92173 14.0739 9.92241C14.0742 9.92275 14.0746 9.92308 14.0749 9.92339C14.075 9.92354 14.0752 9.92376 14.0753 9.92384C14.0755 9.92405 14.0757 9.92426 14.5 9.5C14.9243 9.07574 14.9245 9.07594 14.9247 9.07614C14.9247 9.0762 14.9249 9.0764 14.925 9.07652C14.9253 9.07677 14.9255 9.077 14.9257 9.07722C14.9262 9.07766 14.9266 9.07805 14.9269 9.07837C14.9275 9.07903 14.9279 9.07946 14.9281 9.07966C14.9285 9.08008 14.9281 9.07961 14.9268 9.07827C14.9243 9.07559 14.9187 9.06947 14.9105 9.06003C14.894 9.0411 14.8675 9.00925 14.8354 8.96549C14.7708 8.87733 14.6863 8.74495 14.614 8.57615C14.472 8.24475 14.3748 7.77308 14.5692 7.18974L13.4308 6.81026ZM14.5 9.5C14.5399 10.0987 14.54 10.0987 14.54 10.0987C14.5401 10.0987 14.5401 10.0987 14.5402 10.0987C14.5403 10.0986 14.5405 10.0986 14.5408 10.0986C14.5412 10.0986 14.5419 10.0985 14.5427 10.0985C14.5444 10.0984 14.5468 10.0982 14.5498 10.098C14.556 10.0976 14.5649 10.0969 14.5766 10.0961C14.5998 10.0945 14.6337 10.092 14.6772 10.0887C14.7642 10.0821 14.8895 10.0722 15.0443 10.0587C15.3537 10.0317 15.7822 9.99044 16.259 9.93323C17.1967 9.8207 18.3761 9.64042 19.1897 9.36921L18.8103 8.23079C18.1239 8.45958 17.0533 8.6293 16.116 8.74177C15.6553 8.79706 15.2401 8.83705 14.9401 8.8632C14.7902 8.87627 14.6694 8.88585 14.5864 8.89215C14.545 8.8953 14.513 8.89762 14.4915 8.89914C14.4808 8.8999 14.4728 8.90046 14.4675 8.90083C14.4648 8.90101 14.4629 8.90114 14.4616 8.90122C14.461 8.90127 14.4606 8.9013 14.4603 8.90131C14.4602 8.90132 14.4601 8.90133 14.4601 8.90133C14.4601 8.90133 14.4601 8.90133 14.46 8.90133C14.4601 8.90133 14.4601 8.90133 14.5 9.5Z" fill="white"/>
</svg>
