<svg width="24" height="24" viewBox="0 0 24 24" fill="none" xmlns="http://www.w3.org/2000/svg">
<path d="M8.19922 10.9201C9.34922 10.2101 10.6992 9.80005 12.1292 9.80005C13.4792 9.80005 14.7392 10.1501 15.8292 10.7701" stroke="white" stroke-width="1.2" stroke-linecap="round" stroke-linejoin="round"/>
<path d="M10.1992 14.1101C10.7692 13.7501 11.4492 13.55 12.1692 13.55C12.8392 13.55 13.4792 13.7201 14.0192 14.0401" stroke="white" stroke-width="1.2" stroke-linecap="round" stroke-linejoin="round"/>
<path d="M11.1992 17.43C11.1992 16.8749 11.6481 16.42 12.2042 16.42H12.2176C12.7736 16.42 13.2292 16.8749 13.2292 17.43C13.2292 17.9919 12.7736 18.44 12.2176 18.44C11.6615 18.44 11.1992 17.9852 11.1992 17.43Z" fill="white"/>
<path fill-rule="evenodd" clip-rule="evenodd" d="M10.4775 3.9298C11.3606 3.15009 12.6401 3.15009 13.5233 3.9298L13.5244 3.93081L19.7744 9.42081L19.7767 9.42278C20.3301 9.904 20.6504 10.6162 20.6504 11.39V15H21.3168L21.8504 15.8838V11.39C21.8504 10.2843 21.3911 9.23695 20.5652 8.51819L20.5641 8.51726L14.3169 3.02971C12.9803 1.85012 11.0205 1.85012 9.68388 3.02971L3.43668 8.51726L3.43553 8.51826C2.60965 9.23702 2.15039 10.2844 2.15039 11.39V18.1C2.15039 20.1431 3.73141 21.85 5.75039 21.85H15.4523L14.7278 20.65H5.75039C4.44937 20.65 3.35039 19.537 3.35039 18.1V11.39C3.35039 10.6162 3.67071 9.904 4.2241 9.42279L10.4764 3.93081L10.4775 3.9298Z" fill="white"/>
<path d="M15.5585 23.0667L12.6983 18.3291L15.4762 13.6H20.4415L23.3017 18.3375L20.5238 23.0667H15.5585Z" stroke="white" stroke-width="1.2"/>
<circle cx="18.0605" cy="18.28" r="2.4" stroke="white" stroke-width="1.2"/>
</svg>
