<svg width="24" height="80" viewBox="0 0 24 80" fill="none" xmlns="http://www.w3.org/2000/svg">
<path d="M21 12L21 10.2426C21 9.44699 20.6839 8.68393 20.1213 8.12132L14.8787 2.87868C14.3161 2.31607 13.553 2 12.7574 2L6 2C4.34314 2 3 3.34315 3 5L3 19C3 20.6569 4.34315 22 6 22L10.5 22" stroke="black" stroke-width="1.5" stroke-linecap="round" stroke-linejoin="round"/>
<path d="M14 2L14 6C14 7.65685 15.3431 9 17 9L21 9" stroke="black" stroke-width="1.5" stroke-linejoin="round"/>
<path d="M18.4602 14.4358C19.0412 13.8547 19.9832 13.8547 20.5642 14.4358C21.1453 15.0168 21.1453 15.9588 20.5642 16.5398L16.1066 20.9974C15.9994 21.1047 15.8665 21.1828 15.7207 21.2244L13 22L13.7756 19.2793C13.8172 19.1335 13.8953 19.0006 14.0026 18.8934L18.4602 14.4358Z" stroke="black" stroke-width="1.5" stroke-linecap="round" stroke-linejoin="round"/>
<path d="M21 40L21 38.2426C21 37.447 20.6839 36.6839 20.1213 36.1213L14.8787 30.8787C14.3161 30.3161 13.553 30 12.7574 30L6 30C4.34314 30 3 31.3431 3 33L3 47C3 48.6569 4.34315 50 6 50L10.5 50" stroke="#006CE1" stroke-width="1.5" stroke-linecap="round" stroke-linejoin="round"/>
<path d="M14 30L14 34C14 35.6569 15.3431 37 17 37L21 37" stroke="#006CE1" stroke-width="1.5" stroke-linejoin="round"/>
<path d="M18.4602 42.4358C19.0412 41.8547 19.9832 41.8547 20.5642 42.4358C21.1453 43.0168 21.1453 43.9588 20.5642 44.5398L16.1066 48.9974C15.9994 49.1047 15.8665 49.1828 15.7207 49.2244L13 50L13.7756 47.2793C13.8172 47.1335 13.8953 47.0006 14.0026 46.8934L18.4602 42.4358Z" stroke="#006CE1" stroke-width="1.5" stroke-linecap="round" stroke-linejoin="round"/>
<path d="M21 68L21 66.2426C21 65.447 20.6839 64.6839 20.1213 64.1213L14.8787 58.8787C14.3161 58.3161 13.553 58 12.7574 58L6 58C4.34314 58 3 59.3431 3 61L3 75C3 76.6569 4.34315 78 6 78L10.5 78" stroke="#818181" stroke-width="1.5" stroke-linecap="round" stroke-linejoin="round"/>
<path d="M14 58L14 62C14 63.6569 15.3431 65 17 65L21 65" stroke="#818181" stroke-width="1.5" stroke-linejoin="round"/>
<path d="M18.4602 70.4358C19.0412 69.8547 19.9832 69.8547 20.5642 70.4358C21.1453 71.0168 21.1453 71.9588 20.5642 72.5398L16.1066 76.9974C15.9994 77.1047 15.8665 77.1828 15.7207 77.2244L13 78L13.7756 75.2793C13.8172 75.1335 13.8953 75.0006 14.0026 74.8934L18.4602 70.4358Z" stroke="#818181" stroke-width="1.5" stroke-linecap="round" stroke-linejoin="round"/>
</svg>
