<svg width="28" height="15" viewBox="0 0 28 15" fill="none" xmlns="http://www.w3.org/2000/svg">
<path d="M27.0667 14H25.2C25.2 7.93335 20.0667 2.80002 14 2.80002V0.93335C21.4667 0.93335 27.0667 7.00002 27.0667 14Z" fill="#CCCCCC"/>
<path d="M23.8 14H21.9333C21.9333 9.79995 18.6667 6.06662 14 6.06662V4.19995C19.1333 4.19995 23.8 8.86662 23.8 14Z" fill="#CCCCCC"/>
<path d="M20.0667 14H18.2C18.2 11.6667 16.3333 9.80002 14 9.80002V7.93335C17.2667 7.93335 20.0667 10.7333 20.0667 14Z" fill="#006CE1"/>
<path d="M16.3333 14C16.3333 12.6 15.4 11.6666 14 11.6666V13.0666V14H14.9333H16.3333Z" fill="#006CE1"/>
<path d="M6.06745 7.46668C7.87158 7.46668 9.33411 6.00415 9.33411 4.20002C9.33411 2.39589 7.87158 0.93335 6.06745 0.93335C4.26332 0.93335 2.80078 2.39589 2.80078 4.20002C2.80078 6.00415 4.26332 7.46668 6.06745 7.46668Z" fill="#006CE1"/>
<path d="M7.4668 7.93335H6.53346H5.13346C2.80013 7.93335 0.466797 9.80002 0.466797 12.6V14H5.60013H12.1335V12.6C12.1335 10.2667 10.2668 7.93335 7.4668 7.93335Z" fill="#006CE1"/>
</svg>
