<svg width="24" height="24" viewBox="0 0 24 24" fill="none" xmlns="http://www.w3.org/2000/svg">
<g clip-path="url(#clip0_3158_62930)">
<path fill-rule="evenodd" clip-rule="evenodd" d="M4.73816 3.60002C3.55842 3.60002 2.60039 4.55806 2.60039 5.7378V16.7067C2.60039 17.8864 3.55842 18.8445 4.73816 18.8445H12.6982C13.0295 18.8445 13.2982 19.1131 13.2982 19.4445C13.2982 19.7758 13.0295 20.0445 12.6982 20.0445H4.73816C2.89568 20.0445 1.40039 18.5492 1.40039 16.7067V5.7378C1.40039 3.89532 2.89568 2.40002 4.73816 2.40002H15.6982C17.5406 2.40002 19.0359 3.89532 19.0359 5.7378V11.2178C19.0359 11.5492 18.7673 11.8178 18.4359 11.8178C18.1046 11.8178 17.8359 11.5492 17.8359 11.2178V5.7378C17.8359 4.55806 16.8779 3.60002 15.6982 3.60002H4.73816Z" fill="black"/>
<path fill-rule="evenodd" clip-rule="evenodd" d="M2.06738 7.95557H18.3785V9.15557H2.06738V7.95557Z" fill="black"/>
<path fill-rule="evenodd" clip-rule="evenodd" d="M7.26738 13.2888V17.5999H6.06738V13.2888H7.26738Z" fill="black"/>
<path fill-rule="evenodd" clip-rule="evenodd" d="M10.823 11.5111V17.6H9.62305V11.5111H10.823Z" fill="black"/>
<path fill-rule="evenodd" clip-rule="evenodd" d="M12.2891 5.88894C12.2891 5.55757 12.5577 5.28894 12.8891 5.28894H15.5557C15.8871 5.28894 16.1557 5.55757 16.1557 5.88894C16.1557 6.22031 15.8871 6.48894 15.5557 6.48894H12.8891C12.5577 6.48894 12.2891 6.22031 12.2891 5.88894Z" fill="black"/>
<path fill-rule="evenodd" clip-rule="evenodd" d="M12.1758 17.2215C12.1758 20.4385 14.7837 23.0465 18.0008 23.0465C21.2178 23.0465 23.8258 20.4385 23.8258 17.2215C23.8258 14.0044 21.2178 11.3965 18.0008 11.3965C14.7837 11.3965 12.1758 14.0044 12.1758 17.2215ZM18.0008 21.8465C15.4465 21.8465 13.3758 19.7758 13.3758 17.2215C13.3758 15.0817 14.8289 13.2814 16.8021 12.7533C14.829 13.2814 13.376 15.0818 13.376 17.2214C13.376 19.7758 15.4467 21.8464 18.001 21.8464C18.2792 21.8464 18.5517 21.8219 18.8165 21.7748C18.5517 21.8219 18.2791 21.8465 18.0008 21.8465ZM18.0023 14.0499C18.3337 14.0499 18.6023 14.3186 18.6023 14.6499V16.6213H20.572C20.9033 16.6213 21.172 16.89 21.172 17.2213C21.172 17.5527 20.9033 17.8213 20.572 17.8213H18.6023V19.7928C18.6023 20.1242 18.3337 20.3928 18.0023 20.3928C17.671 20.3928 17.4023 20.1242 17.4023 19.7928V17.8213H15.4291C15.0977 17.8213 14.8291 17.5527 14.8291 17.2213C14.8291 16.89 15.0977 16.6213 15.4291 16.6213H17.4023V14.6499C17.4023 14.3186 17.671 14.0499 18.0023 14.0499Z" fill="#006CE1"/>
</g>
<defs>
<clipPath id="clip0_3158_62930">
<rect width="24" height="24" fill="white"/>
</clipPath>
</defs>
</svg>
