<svg width="24" height="24" viewBox="0 0 24 24" fill="none" xmlns="http://www.w3.org/2000/svg">
<path d="M3.93555 8.68965V5.3C3.93555 5.13431 4.06986 5 4.23555 5H19.624C19.7897 5 19.924 5.13431 19.924 5.3V16.9988C19.924 17.1645 19.7897 17.2988 19.624 17.2988H14.3896" stroke="black" stroke-width="1.5"/>
<path d="M7.14942 15.0082V17.4372C7.14942 17.9394 6.7497 18.3494 6.26287 18.3494H1.88655C1.39459 18.3494 1 17.9394 1 17.4372V9.78118C1 9.27898 1.39972 8.86902 1.88655 8.86902H6.26287C6.75482 8.86902 7.14942 9.27898 7.14942 9.78118V15.1875" stroke="black" stroke-width="1.5"/>
<path fill-rule="evenodd" clip-rule="evenodd" d="M3.82129 10.447H4.33374Z" fill="black"/>
<path d="M3.82129 10.447H4.33374" stroke="black" stroke-width="1.2" stroke-linecap="round" stroke-linejoin="round"/>
<path fill-rule="evenodd" clip-rule="evenodd" d="M4.0769 17.2014C3.79389 17.2014 3.56445 16.972 3.56445 16.689C3.56445 16.4059 3.79389 16.1765 4.0769 16.1765C4.35992 16.1765 4.58936 16.4059 4.58936 16.689C4.58936 16.972 4.35992 17.2014 4.0769 17.2014Z" fill="black"/>
<path d="M6.53613 16.6607C6.53613 16.6054 6.5809 16.5607 6.63613 16.5607H22.8796C22.9421 16.5607 22.9893 16.6174 22.9779 16.6789L22.878 17.2186C22.7902 17.6926 22.3768 18.0365 21.8947 18.0365H7.53613C6.98385 18.0365 6.53613 17.5888 6.53613 17.0365V16.6607Z" fill="black"/>
</svg>
