<svg xmlns="http://www.w3.org/2000/svg" xmlns:xlink="http://www.w3.org/1999/xlink" width="24" height="24" viewBox="0 0 24 24">
  <defs>
    <path id="rt_focus-b" d="M18,4 C18.0691216,4 18.1374241,4.00350649 18.2047396,4.0103513 C17.7032636,3.97345691 17.203524,4.13281019 16.814545,4.4590957 L16.6891372,4.574 L16.4151372,4.848 L19.1631372,7.594 L19.4361372,7.321 C19.7785172,6.97862005 19.9753048,6.52694059 20.0019788,6.05747569 L20,18 C20,19.1045695 19.1045695,20 18,20 L6,20 C4.8954305,20 4,19.1045695 4,18 L4,6 C4,4.8954305 4.8954305,4 6,4 L18,4 Z M8.25,13.875 C7.55964406,13.875 7,14.4346441 7,15.125 C7,15.8153559 7.55964406,16.375 8.25,16.375 C8.94035594,16.375 9.5,15.8153559 9.5,15.125 C9.5,14.4346441 8.94035594,13.875 8.25,13.875 Z M16.375,14.5 L10.75,14.5 L10.6576421,14.5067766 C10.3562579,14.5514169 10.125,14.8112018 10.125,15.125 C10.125,15.4387982 10.3562579,15.6985831 10.6576421,15.7432234 L10.75,15.75 L16.375,15.75 L16.4673579,15.7432234 C16.7687421,15.6985831 17,15.4387982 17,15.125 C17,14.779822 16.720178,14.5 16.375,14.5 Z M15.511,5.732 L13.687,7.555 L11.227,10.014 C10.9409995,10.3246661 10.7302394,10.6969177 10.611,11.102 L10.611,11.102 L10.011,13.502 C9.95192117,13.637232 9.98161681,13.7948419 10.0858567,13.8993026 C10.1900966,14.0037633 10.3476433,14.0337925 10.483,13.975 L10.483,13.975 L12.883,13.375 C13.2875971,13.2546177 13.6596036,13.0439964 13.971,12.759 L13.971,12.759 L16.431,10.3 L18.258,8.478 L15.511,5.732 Z M8.25,10.75 C7.55964406,10.75 7,11.3096441 7,12 C7,12.6903559 7.55964406,13.25 8.25,13.25 C8.94035594,13.25 9.5,12.6903559 9.5,12 C9.5,11.3096441 8.94035594,10.75 8.25,10.75 Z M8.25,7.625 C7.55964406,7.625 7,8.18464406 7,8.875 C7,9.56535594 7.55964406,10.125 8.25,10.125 C8.94035594,10.125 9.5,9.56535594 9.5,8.875 C9.5,8.18464406 8.94035594,7.625 8.25,7.625 Z"/>
    <filter id="rt_focus-a" width="181.3%" height="181.2%" x="-40.6%" y="-34.4%" filterUnits="objectBoundingBox">
      <feOffset dy="1" in="SourceAlpha" result="shadowOffsetOuter1"/>
      <feGaussianBlur in="shadowOffsetOuter1" result="shadowBlurOuter1" stdDeviation="2"/>
      <feColorMatrix in="shadowBlurOuter1" result="shadowMatrixOuter1" values="0 0 0 0 0   0 0 0 0 0   0 0 0 0 0  0 0 0 0.1 0"/>
      <feOffset dx="1" dy="1" in="SourceAlpha" result="shadowOffsetOuter2"/>
      <feGaussianBlur in="shadowOffsetOuter2" result="shadowBlurOuter2" stdDeviation="1"/>
      <feColorMatrix in="shadowBlurOuter2" result="shadowMatrixOuter2" values="0 0 0 0 0   0 0 0 0 0   0 0 0 0 0  0 0 0 0.08 0"/>
      <feMerge>
        <feMergeNode in="shadowMatrixOuter1"/>
        <feMergeNode in="shadowMatrixOuter2"/>
      </feMerge>
    </filter>
  </defs>
  <g fill="none" fill-rule="evenodd">
    <polygon points="0 0 24 0 24 24 0 24"/>
    <use fill="#000" filter="url(#rt_focus-a)" xlink:href="#rt_focus-b"/>
    <use fill="#53ADFF" xlink:href="#rt_focus-b"/>
  </g>
</svg>
