<svg xmlns="http://www.w3.org/2000/svg" width="24" height="24" viewBox="0 0 24 24">
  <g fill="none" fill-rule="evenodd">
    <polygon points="0 0 24 0 24 24 0 24"/>
    <path fill="#A4B7C3" fill-rule="nonzero" d="M14.411,4 L13.575,4.836 L12.414,6 L6,6 L6,18 L18,18 L18,11.547 L19.146,10.402 L20,9.548 L20,18 C20,19.1045695 19.1045695,20 18,20 L6,20 C4.8954305,20 4,19.1045695 4,18 L4,6 C4,4.8954305 4.8954305,4 6,4 L14.411,4 Z M8.25,14.25 C8.94035594,14.25 9.5,14.8096441 9.5,15.5 C9.5,16.1903559 8.94035594,16.75 8.25,16.75 C7.55964406,16.75 7,16.1903559 7,15.5 C7,14.8096441 7.55964406,14.25 8.25,14.25 Z M10.75,14.875 L16.375,14.875 C16.720178,14.875 17,15.154822 17,15.5 C17,15.8137982 16.7687421,16.0735831 16.4673579,16.1182234 L16.375,16.125 L10.75,16.125 C10.404822,16.125 10.125,15.845178 10.125,15.5 C10.125,15.1862018 10.3562579,14.9264169 10.6576421,14.8817766 L10.75,14.875 L16.375,14.875 Z M15.511,5.732 L18.258,8.478 L16.431,10.3 L13.971,12.759 C13.6596036,13.0439964 13.2875971,13.2546177 12.883,13.375 L10.483,13.975 C10.3476433,14.0337925 10.1900966,14.0037633 10.0858567,13.8993026 C9.98161681,13.7948419 9.95192117,13.637232 10.011,13.502 L10.611,11.102 C10.7302394,10.6969177 10.9409995,10.3246661 11.227,10.014 L13.687,7.555 L15.511,5.732 Z M8.25,11.125 C8.94035594,11.125 9.5,11.6846441 9.5,12.375 C9.5,13.0653559 8.94035594,13.625 8.25,13.625 C7.55964406,13.625 7,13.0653559 7,12.375 C7,11.6846441 7.55964406,11.125 8.25,11.125 Z M8.25,8 C8.94035594,8 9.5,8.55964406 9.5,9.25 C9.5,9.94035594 8.94035594,10.5 8.25,10.5 C7.55964406,10.5 7,9.94035594 7,9.25 C7,8.55964406 7.55964406,8 8.25,8 Z M18.541236,4.07126387 C19.2115506,4.25087409 19.7351259,4.77444939 19.9147361,5.44476399 C20.0943463,6.11507859 19.9027044,6.83029574 19.412,7.321 L19.139,7.594 L16.391,4.848 L16.665,4.574 C17.1557043,4.08329559 17.8709214,3.89165365 18.541236,4.07126387 Z"/>
  </g>
</svg>
