<svg width="24" height="24" viewBox="0 0 24 24" fill="none" xmlns="http://www.w3.org/2000/svg">
<path d="M18.97 18.0866C17.55 19.7183 15.57 20.8496 13.33 21.1599C12.9 21.23 12.46 21.26 12 21.26C11.54 21.26 11.11 21.23 10.67 21.1599C8.43 20.8496 6.45 19.7183 5.03 18.0866C3.61 16.4748 2.75 14.3325 2.75 12.01C2.75 9.6875 3.61 7.54518 5.03 5.93344C6.45 4.30168 8.43 3.17045 10.67 2.86012C11.1 2.79004 11.54 2.76001 12 2.76001C12.46 2.76001 12.89 2.79004 13.33 2.86012C15.57 3.17045 17.55 4.30168 18.97 5.93344C20.39 7.54518 21.25 9.6875 21.25 12.01C21.25 14.3325 20.39 16.4748 18.97 18.0866Z" stroke="black" stroke-width="1.2" stroke-linecap="round" stroke-linejoin="round"/>
<path d="M11.67 21.1698C11.03 20.4991 8 17.1855 8 12.0099C8 6.83434 11.03 3.52076 11.67 2.85004" stroke="black" stroke-width="1.2" stroke-linecap="round" stroke-linejoin="round"/>
<path d="M12.3301 21.1698C12.9701 20.4991 16.0001 17.1855 16.0001 12.0099C16.0001 6.83434 12.9701 3.52076 12.3301 2.85004" stroke="black" stroke-width="1.2" stroke-linecap="round" stroke-linejoin="round"/>
<path d="M2.75 12.01H21.25" stroke="black" stroke-width="1.2" stroke-linecap="round" stroke-linejoin="round"/>
</svg>
