<svg xmlns="http://www.w3.org/2000/svg" width="110" height="20" viewBox="0 0 110 20">
  <path fill-rule="evenodd" d="M76.7843241,20 L97.500828,20 C102.697113,19.7249933 103.43152,15.1969411 103.43152,15.1969411 C103.615254,14.0057354 103.464782,13.0375745 103.464782,13.0375745 C103.314838,11.9654894 101.654371,8.74482218 98.1111618,8.43304983 C96.0119513,8.25216304 77.1216972,7.22811834 77.1216972,7.22811834 C77.6808179,9.01345621 78.4326478,9.55268511 79.000216,10.0468149 C80.3069428,11.2032158 82.2657131,11.4801833 82.2657131,11.4801833 C82.7583095,11.5179294 96.8910221,12.600799 96.8910221,12.600799 C97.3461326,12.6228584 98.2547697,12.6659967 98.2547697,13.6782764 C98.2547697,13.9836761 98.0852912,14.3003505 97.875687,14.473394 C97.875687,14.473394 97.3762269,14.7253609 96.9126689,14.7253609 L76.7975233,14.7253609 L76.7843241,20 Z M19.6056541,19.9549009 L46.6831457,19.9549009 C51.3995056,19.0862521 51.89263,15.1523322 51.89263,15.1523322 C52.1149056,13.9836761 51.9844969,13.0375745 51.9844969,13.0375745 C51.8430008,12.2503003 50.2126281,8.76982279 46.6731143,8.4678546 C44.5622885,8.28647761 25.7781564,6.91634599 25.7781564,6.91634599 C26.1414001,8.64530993 26.9882647,9.51886076 27.5510811,10.0174024 C28.8551681,11.168411 30.9295639,11.4939092 30.9295639,11.4939092 C31.4306079,11.5370475 45.4070412,12.600799 45.4070412,12.600799 C45.8521203,12.6228584 46.696345,12.7262923 46.6857856,13.7405329 C46.6857856,13.8625947 46.5632965,14.7567342 45.4915165,14.7567342 L25.2354028,14.7567342 L25.2354028,6.87222726 L19.6056541,6.49427682 L19.6056541,19.9549009 Z M76.7420864,7.21439251 L71.054261,6.90212995 L71.054261,13.0302213 C71.054261,13.0302213 71.0384218,14.7979117 69.1810219,14.7979117 L59.4061773,14.7979117 C59.4061773,14.7979117 57.7509899,14.671438 57.7509899,13.0473786 L57.7509899,6.07171744 L52.0066716,5.68788451 L52.0066716,15.0881149 C52.9358996,19.5965587 57.3650436,19.9431359 57.3650436,19.9431359 C57.3650436,19.9431359 57.8169862,19.9710777 57.8903741,19.9774504 L71.0922748,19.9774504 C71.0922748,19.9774504 76.7420864,19.5588127 76.7420864,14.5763377 L76.7420864,7.21439251 Z M70.9581703,5.30748303 L76.7420864,5.30748303 L76.7420864,0.0250006128 L70.9581703,0.0250006128 L70.9581703,5.30748303 Z M51.9501788,5.30748303 L57.7393746,5.30748303 L57.7393746,0.0250006128 L51.9501788,0.0250006128 L51.9501788,5.30748303 Z M103.591495,5.3118949 L103.591495,0 L82.8728791,0 C80.2478101,0.152454717 79.088915,1.30493394 78.2235715,2.1377975 C77.3017351,3.02017206 76.7843241,4.88002157 76.7843241,4.88002157 L76.7843241,5.30748303 L103.591495,5.3118949 Z M50.9396434,5.30748303 L50.9396434,0 L31.5747438,0 C28.9412273,0.152454717 27.7897238,1.30493394 26.9259641,2.1377975 C26.0057117,3.02017206 25.482493,4.88002157 25.482493,4.88002157 L25.482493,0.0352949827 L15.2018527,0.0352949827 C14.4262641,0.0352949827 13.6871055,0.33677296 13.1295687,1.04610407 C12.5466894,1.74906248 10.1945811,5.30748303 10.1945811,5.30748303 L50.9396434,5.30748303 Z M9.96333005,5.62905954 L0,19.9514694 L6.81029062,19.9514694 L16.3871463,6.25946714 L9.96333005,5.62905954 Z M107.016439,2.53045418 L107.016439,1.69562979 L107.835321,1.69562979 C107.954643,1.69562979 108.051261,1.7142577 108.121481,1.74661144 C108.237635,1.80886786 108.312079,1.92700801 108.312079,2.10005147 C108.312079,2.26623202 108.263505,2.37848967 108.168471,2.44270693 C108.078188,2.50251232 107.954643,2.53045418 107.799419,2.53045418 L107.016439,2.53045418 Z M106.67801,3.85597686 L107.016439,3.85597686 L107.016439,2.810363 L107.785164,2.810363 C107.917157,2.810363 108.013775,2.81869654 108.085579,2.85105027 C108.197509,2.91232628 108.258226,3.01379936 108.263505,3.17654844 L108.294655,3.58636241 C108.294655,3.67803132 108.297295,3.74273879 108.297295,3.77607294 C108.315246,3.80842668 108.326862,3.83587833 108.33003,3.85597686 L108.758742,3.85597686 L108.758742,3.79813231 C108.703305,3.77999461 108.67849,3.72999338 108.646284,3.65057967 C108.628861,3.60744136 108.628861,3.53783181 108.626749,3.44518248 L108.611438,3.11772347 C108.611438,2.97556313 108.576064,2.86722714 108.534882,2.810363 C108.481557,2.74663595 108.395498,2.69173264 108.297295,2.65545724 C108.412393,2.60398539 108.498452,2.52065002 108.570784,2.43094193 C108.628861,2.33290032 108.663179,2.21966225 108.663179,2.07456065 C108.663179,1.79612245 108.546497,1.60249026 108.309439,1.4961151 C108.185894,1.441702 108.021167,1.41572097 107.835321,1.41572097 L106.67801,1.41572097 L106.67801,3.85597686 Z M105.156927,2.53045418 C105.156927,3.77068065 106.246658,4.78001912 107.586119,4.78001912 C108.232355,4.78001912 108.830018,4.54717027 109.293048,4.12265006 C109.753438,3.69420819 110,3.13341013 110,2.53045418 C110,1.92700801 109.753438,1.36571975 109.293048,0.936787666 C108.830018,0.51422829 108.232355,0.279418613 107.586119,0.279418613 C106.246658,0.279418613 105.156927,1.28875708 105.156927,2.53045418 L105.156927,2.53045418 Z M105.345413,2.53045418 C105.345413,1.39072036 106.349084,0.457854359 107.586119,0.457854359 C108.177974,0.457854359 108.732871,0.678938209 109.154191,1.06424177 C109.574456,1.46327116 109.800427,1.98240153 109.800427,2.53045418 C109.800427,3.07997745 109.574456,3.60744136 109.154191,3.98980367 C108.732871,4.38393098 108.177974,4.603054 107.586119,4.603054 C106.349084,4.603054 105.345413,3.67361945 105.345413,2.53045418 L105.345413,2.53045418 Z"/>
</svg>
