<svg width="24" height="24" viewBox="0 0 24 24" fill="none" xmlns="http://www.w3.org/2000/svg">
<path d="M18 14L19.2929 12.7071C19.6834 12.3166 19.6834 11.6834 19.2929 11.2929L18 10" stroke="black" stroke-width="1.2" stroke-linecap="round" stroke-linejoin="round"/>
<path d="M19 12L13 12M4 17.2663V7.26633M16 17.2663C16 18.3709 15.1046 19.2663 14 19.2663H10M16 7.26633C16 6.16176 15.1046 5.26633 14 5.26633H10M4.8906 19.8601L6.8906 21.1934C8.21971 22.0795 10 21.1267 10 19.5293V5.00336C10 3.40597 8.21971 2.45319 6.8906 3.33926L4.8906 4.6726C4.3342 5.04353 4 5.66799 4 6.3367V18.196C4 18.8647 4.3342 19.4891 4.8906 19.8601Z" stroke="black" stroke-width="1.2" stroke-linecap="round"/>
</svg>
