<svg xmlns="http://www.w3.org/2000/svg" xmlns:xlink="http://www.w3.org/1999/xlink" width="128" height="148" viewBox="0 0 128 148">
  <defs>
    <rect id="prod-backhaul-io-a" width="253" height="198.786" x="0" y="0"/>
  </defs>
  <g fill="none" fill-rule="evenodd" transform="translate(-63 -5)">
    <mask id="prod-backhaul-io-b" fill="#fff">
      <use xlink:href="#prod-backhaul-io-a"/>
    </mask>
    <g mask="url(#prod-backhaul-io-b)">
      <g transform="translate(64.254 7.028)">
        <path stroke="#4D4D4D" stroke-linecap="round" stroke-linejoin="round" d="M16.6551605,135.081424 L16.6551605,141.799142 M65.9863112,0.00047345364 C129.331975,0.031616535 125.448957,1.5887706 125.448957,1.5887706 L125.448957,1.5887706 L125.494191,136.789798 C125.502435,136.80482 125.834369,137.543865 111.715192,138.124918 C110.260128,138.184646 109.045872,137.018239 109.045872,135.558311 L109.045872,135.558311 L109.045872,120.767897 C109.045872,118.718366 107.38829,117.057068 105.344393,117.057068 L105.344393,117.057068 L20.3567249,117.057068 C18.3128276,117.057068 16.6560965,118.718366 16.6560965,120.767897 L16.6560965,120.767897 L16.6560965,135.513088 C16.6560965,136.978989 15.4341828,138.078841 13.9723112,138.078841 C1.83911709,138.078841 0.0462396156,136.384267 0.0462396156,136.384267 L0.0462396156,136.384267 L0.00199204617,1.32425992 C0.00199204617,1.32425992 -1.31862772,0 64.0460943,0 Z M122.106734,137.469528 L121.877838,140.515667 C121.877838,140.515667 119.97349,142.563492 62.7664886,142.563492 L62.732452,142.563492 C5.52545018,142.563492 3.62025195,140.515667 3.62025195,140.515667 L3.40922508,137.4098"/>
        <path stroke="#4D4D4D" stroke-linecap="round" stroke-linejoin="round" stroke-width=".5" d="M27.1557773,134.362937 L24.5561554,134.362937 C23.880628,134.362937 23.333433,133.828054 23.333433,133.167725 L23.333433,124.834346 C23.333433,124.174018 23.880628,123.639135 24.5561554,123.639135 L27.1557773,123.639135 C27.8313046,123.639135 28.3784996,124.174018 28.3784996,124.834346 L28.3784996,133.167725 C28.3784996,133.828054 27.8313046,134.362937 27.1557773,134.362937 Z"/>
        <polygon fill="#006CE1" points="44.144 125.532 34.054 125.532 34.054 131.461 36.467 131.461 36.467 132.734 37.31 132.734 37.31 133.732 40.888 133.732 40.888 132.734 41.731 132.734 41.731 131.461 44.144 131.461"/>
        <polygon stroke="#4D4D4D" stroke-linecap="round" stroke-linejoin="round" stroke-width=".5" points="44.144 125.532 34.054 125.532 34.054 131.461 36.467 131.461 36.467 132.734 37.31 132.734 37.31 133.732 40.888 133.732 40.888 132.734 41.731 132.734 41.731 131.461 44.144 131.461"/>
        <polygon fill="#FFD71B" points="56.126 125.532 46.036 125.532 46.036 131.461 48.45 131.461 48.45 132.734 49.292 132.734 49.292 133.732 52.87 133.732 52.87 132.734 53.713 132.734 53.713 131.461 56.126 131.461"/>
        <polygon stroke="#4D4D4D" stroke-linecap="round" stroke-linejoin="round" stroke-width=".5" points="56.126 125.532 46.036 125.532 46.036 131.461 48.45 131.461 48.45 132.734 49.292 132.734 49.292 133.732 52.87 133.732 52.87 132.734 53.713 132.734 53.713 131.461 56.126 131.461"/>
        <polygon fill="#FFD71B" points="68.108 125.532 58.018 125.532 58.018 131.461 60.432 131.461 60.432 132.734 61.274 132.734 61.274 133.732 64.852 133.732 64.852 132.734 65.695 132.734 65.695 131.461 68.108 131.461"/>
        <polygon stroke="#4D4D4D" stroke-linecap="round" stroke-linejoin="round" stroke-width=".5" points="68.108 125.532 58.018 125.532 58.018 131.461 60.432 131.461 60.432 132.734 61.274 132.734 61.274 133.732 64.852 133.732 64.852 132.734 65.695 132.734 65.695 131.461 68.108 131.461"/>
        <polygon fill="#FFD71B" points="80.09 125.532 70 125.532 70 131.461 72.414 131.461 72.414 132.734 73.256 132.734 73.256 133.732 76.834 133.732 76.834 132.734 77.677 132.734 77.677 131.461 80.09 131.461"/>
        <polygon stroke="#4D4D4D" stroke-linecap="round" stroke-linejoin="round" stroke-width=".5" points="80.09 125.532 70 125.532 70 131.461 72.414 131.461 72.414 132.734 73.256 132.734 73.256 133.732 76.834 133.732 76.834 132.734 77.677 132.734 77.677 131.461 80.09 131.461"/>
        <polygon stroke="#4D4D4D" stroke-linecap="round" stroke-linejoin="round" stroke-width=".5" points="86.397 134.363 90.811 134.363 90.811 123.639 86.397 123.639"/>
        <line x1="86.397" x2="90.811" y1="127.109" y2="127.109" stroke="#4D4D4D" stroke-linecap="round" stroke-linejoin="round" stroke-width=".5"/>
        <polygon stroke="#4D4D4D" stroke-linecap="round" stroke-linejoin="round" stroke-width=".5" points="93.334 133.732 100.901 133.732 100.901 124.901 93.334 124.901"/>
        <path stroke="#4D4D4D" stroke-linecap="round" stroke-linejoin="round" stroke-width=".5" d="M99.6400654,128.68563 C99.6400654,127.291674 98.5110932,126.162382 97.1175321,126.162382 C95.723971,126.162382 94.5949988,127.291674 94.5949988,128.68563 C94.5949988,130.079586 95.723971,131.208878 97.1175321,131.208878 C98.5110932,131.208878 99.6400654,130.079586 99.6400654,128.68563 Z"/>
        <path stroke="#4D4D4D" stroke-linecap="round" stroke-linejoin="round" stroke-width=".5" d="M97.7481654,128.68563 C97.7481654,128.33724 97.4659768,128.054818 97.1178754,128.054818 C96.7690875,128.054818 96.4868988,128.33724 96.4868988,128.68563 C96.4868988,129.03402 96.7690875,129.316442 97.1178754,129.316442 C97.4659768,129.316442 97.7481654,129.03402 97.7481654,128.68563 Z"/>
        <line x1="88.604" x2="88.604" y1="129.316" y2="130.578" stroke="#4D4D4D" stroke-linecap="round" stroke-linejoin="round" stroke-width=".5"/>
        <path stroke="#4D4D4D" stroke-linecap="round" stroke-linejoin="round" stroke-width=".5" d="M89.5499322,132.155096 C89.5499322,131.632638 89.1262914,131.208878 88.6039822,131.208878 C88.0807678,131.208878 87.6580322,131.632638 87.6580322,132.155096 C87.6580322,132.677553 88.0807678,133.101313 88.6039822,133.101313 C89.1262914,133.101313 89.5499322,132.677553 89.5499322,132.155096 Z"/>
        <path fill="#4D4D4D" d="M27.2294857,133.732125 L25.8559663,133.732125 L25.8559663,124.900759 L27.2294857,124.900759 C27.5161086,124.900759 27.7478663,125.1148 27.7478663,125.378435 L27.7478663,133.255319 C27.7478663,133.518084 27.5161086,133.732125 27.2294857,133.732125"/>
      </g>
    </g>
  </g>
</svg>
