<svg width="24" height="24" viewBox="0 0 24 24" fill="none" xmlns="http://www.w3.org/2000/svg">
<path fill-rule="evenodd" clip-rule="evenodd" d="M12.0007 14.5701C10.5813 14.5701 9.43066 13.4194 9.43066 12.0001C9.43066 10.5807 10.5813 9.43005 12.0007 9.43005C13.42 9.43005 14.5707 10.5807 14.5707 12.0001C14.5707 13.4194 13.42 14.5701 12.0007 14.5701Z" stroke="black" stroke-width="1.2" stroke-linecap="round" stroke-linejoin="round"/>
<path fill-rule="evenodd" clip-rule="evenodd" d="M19.4904 6.49C19.0604 5.75 18.1204 5.5 17.3804 5.93L16.8704 6.22C15.8404 6.81 14.5604 6.07 14.5604 4.88V4.29C14.5604 3.44 13.8704 2.75 13.0204 2.75H10.9604C10.1104 2.75 9.4204 3.44 9.4204 4.29V4.88C9.4204 6.07 8.14037 6.81 7.11037 6.22L6.60039 5.93C5.86039 5.5 4.92038 5.76 4.49038 6.49L3.46038 8.27C3.03038 9.01 3.29037 9.95 4.02037 10.38L4.53038 10.67C5.56038 11.26 5.56038 12.75 4.53038 13.34L4.02037 13.63C3.28037 14.06 3.03038 15 3.46038 15.74L4.49038 17.52C4.92038 18.26 5.86039 18.51 6.60039 18.08L7.11037 17.79C8.14037 17.2 9.4204 17.94 9.4204 19.13V19.72C9.4204 20.57 10.1104 21.26 10.9604 21.26H13.0204C13.8704 21.26 14.5604 20.57 14.5604 19.72V19.13C14.5604 17.94 15.8404 17.2 16.8704 17.79L17.3804 18.08C18.1204 18.51 19.0604 18.25 19.4904 17.52L20.5204 15.74C20.9504 15 20.6904 14.06 19.9604 13.63L19.4504 13.34C18.4204 12.75 18.4204 11.26 19.4504 10.67L19.9604 10.38C20.7004 9.95 20.9504 9 20.5204 8.27L19.4904 6.49Z" stroke="black" stroke-width="1.2" stroke-linecap="round" stroke-linejoin="round"/>
</svg>
