<svg width="24" height="25" viewBox="0 0 24 25" fill="none" xmlns="http://www.w3.org/2000/svg">
<rect x="0.6" y="-0.6" width="16.8" height="16.8" rx="1.4" transform="matrix(1 0 0 -1 3 19.9219)" stroke="black" stroke-width="1.2"/>
<mask id="path-2-outside-1_1335_152487" maskUnits="userSpaceOnUse" x="5.375" y="6.18445" width="14" height="12" fill="black">
<rect fill="white" x="5.375" y="6.18445" width="14" height="12"/>
<path fill-rule="evenodd" clip-rule="evenodd" d="M17.625 17.1844H6.375V10.4344H8.625V7.73436H15.375V10.4344H17.625V17.1844Z"/>
</mask>
<path d="M6.375 17.1844V18.1844C5.82272 18.1844 5.375 17.7367 5.375 17.1844H6.375ZM17.625 17.1844H18.625C18.625 17.7367 18.1773 18.1844 17.625 18.1844V17.1844ZM6.375 10.4344H5.375C5.375 9.88216 5.82272 9.43445 6.375 9.43445V10.4344ZM8.625 10.4344H9.625C9.625 10.9867 9.17728 11.4344 8.625 11.4344V10.4344ZM8.625 7.73436H7.625C7.625 7.18207 8.07272 6.73436 8.625 6.73436V7.73436ZM15.375 7.73436V6.73436C15.9273 6.73436 16.375 7.18207 16.375 7.73436H15.375ZM15.375 10.4344V11.4344C14.8227 11.4344 14.375 10.9867 14.375 10.4344H15.375ZM17.625 10.4344V9.43445C18.1773 9.43445 18.625 9.88216 18.625 10.4344H17.625ZM6.375 16.1844H17.625V18.1844H6.375V16.1844ZM7.375 10.4344V17.1844H5.375V10.4344H7.375ZM8.625 11.4344H6.375V9.43445H8.625V11.4344ZM9.625 7.73436V10.4344H7.625V7.73436H9.625ZM15.375 8.73436H8.625V6.73436H15.375V8.73436ZM14.375 10.4344V7.73436H16.375V10.4344H14.375ZM17.625 11.4344H15.375V9.43445H17.625V11.4344ZM16.625 17.1844V10.4344H18.625V17.1844H16.625Z" fill="black" mask="url(#path-2-outside-1_1335_152487)"/>
<path fill-rule="evenodd" clip-rule="evenodd" d="M10.981 12.1842C10.395 12.6117 9.84424 13.0873 9.37137 13.5846C9.33985 13.4274 9.32501 13.2691 9.32501 13.108C9.32501 11.8206 10.3088 10.7721 11.5243 10.7721C11.7348 10.7721 11.9416 10.8065 12.1455 10.8674C12.3412 10.9303 12.5238 11.0296 12.7 11.1445C12.1214 11.4305 11.5364 11.7872 10.981 12.1842ZM15.9159 11.1411C15.5096 10.534 14.5656 10.5639 13.4736 10.9617C13.4544 10.9418 13.4482 10.9237 13.429 10.9037C13.1225 10.6364 12.7757 10.4389 12.3957 10.3238C12.1339 10.2477 11.872 10.2096 11.6102 10.2096C10.0751 10.2096 8.8238 11.5045 8.8238 13.0921C8.8238 13.4663 8.89823 13.8134 9.02345 14.1423C8.31153 15.0313 7.97264 15.9021 8.3667 16.4975C8.5068 16.7086 8.80629 16.9596 9.43327 16.9596C9.61453 16.9596 9.75814 16.8074 9.75464 16.6243C9.75464 16.4331 9.61015 16.2881 9.42977 16.2881C9.16356 16.2881 8.97529 16.2265 8.90173 16.116C8.76163 15.9021 8.9245 15.4055 9.36584 14.7875C9.87548 15.5052 10.6872 15.9746 11.6102 15.9746C13.0489 15.9746 14.2407 14.8645 14.3808 13.3821C14.4062 13.18 14.2591 13.0006 14.0673 12.9852C13.8721 12.9661 13.6987 13.1075 13.6759 13.3105C13.5726 14.4124 12.6838 15.2424 11.6102 15.2424C10.8641 15.2424 10.2117 14.8292 9.84571 14.2148C10.2634 13.7608 10.7906 13.276 11.4622 12.7976C13.4404 11.4003 15.0998 11.1067 15.3774 11.5226C15.4921 11.6984 15.3914 12.0917 15.1155 12.5502C15.0227 12.707 15.0674 12.9127 15.218 13.0124C15.3738 13.1111 15.5726 13.0613 15.6689 12.9081C16.225 11.9848 16.1077 11.4384 15.9159 11.1411Z" fill="black"/>
</svg>
