<svg width="311" height="133" viewBox="0 0 311 133" fill="none" xmlns="http://www.w3.org/2000/svg">
<path d="M96.4687 3.70924C94.2815 4.04175 24.8504 12.984 23.1268 13.2782C21.4032 13.5725 20.3334 13.5754 20.3334 15.8339V113.485C20.3334 115.981 21.5815 116.383 24.8504 116.635C27.1683 116.813 89.0576 123.097 95.6961 123.588C98.3112 123.782 98.4895 122.994 98.4895 121.389V5.37332C98.4895 3.60698 98.0735 3.46528 96.4687 3.70924Z" stroke="#999999"/>
<path d="M98.0735 3.70898C98.0735 3.70898 103 3.85052 104 3.95052C104.66 4.01647 105.337 4.20113 105.337 5.96747C105.337 9.8307 105.337 118.226 105.337 120.722C105.337 122.327 105 122.951 103.667 123.284C102.333 123.617 97.0001 123.617 97.0001 123.617" stroke="#999999"/>
<path d="M101.782 3.88379C101.782 3.88379 107.166 4.04385 109.474 4.28384C110.114 4.35041 111.667 5.11383 111.667 6.89688C111.667 10.7967 111.667 117.097 111.667 119.617C111.667 121.237 111.333 122.284 109.333 122.617C107.333 122.95 103 123.284 103 123.284" stroke="#999999"/>
<path d="M106.333 21.9089L106.333 34.7559C106.333 36.1623 107.419 37.1896 108.756 37.049C110.094 36.9085 111.179 35.653 111.179 34.2466L111.179 21.3995C111.179 19.9931 110.094 18.9658 108.756 19.1064C107.419 19.247 106.333 20.5025 106.333 21.9089Z" fill="#B3B3B3" stroke="#CCCCCC" stroke-width="0.5"/>
<path d="M111 33.6175C111 34.9895 110.42 36.2326 109.483 36.3311L109.483 19.0648C110.42 18.9664 111 20.2455 111 21.6175L111 33.6175Z" fill="black" fill-opacity="0.1"/>
<g filter="url(#filter0_d_992_9947)">
<path d="M106.576 21.6753L106.576 30.1016C106.576 31.508 107.661 32.5353 108.999 32.3947C110.336 32.2542 111.422 30.9987 111.422 29.5923L111.422 21.166C111.422 19.7596 110.336 18.7322 108.999 18.8728C107.661 19.0134 106.576 20.2689 106.576 21.6753Z" fill="white"/>
<path d="M106.824 30.0755L106.824 21.6492C106.824 20.3702 107.809 19.2479 108.999 19.1228C110.188 18.9978 111.173 19.9131 111.173 21.1921L111.173 29.6184C111.173 30.8974 110.189 32.0197 108.999 32.1447C107.809 32.2698 106.824 31.3544 106.824 30.0755Z" stroke="#CCCCCC" stroke-width="0.5"/>
</g>
<path d="M109.726 20.8546C109.726 21.259 109.401 21.6196 108.999 21.6619C108.596 21.7042 108.272 21.4118 108.272 21.0074C108.272 20.6029 108.596 20.2423 108.999 20.2C109.401 20.1578 109.726 20.4501 109.726 20.8546Z" fill="#006CE1"/>
<path fill-rule="evenodd" clip-rule="evenodd" d="M159.722 4C154.199 4 149.722 8.47715 149.722 14V47.9632L119.022 26.9564C117.213 25.7187 115.018 27.8722 116.221 29.7044L149.722 80.7425V114C149.722 119.523 154.199 124 159.722 124H259.722C265.245 124 269.722 119.523 269.722 114V14C269.722 8.47715 265.245 4 259.722 4H159.722Z" fill="#F5F5F5"/>
<path d="M195.066 24V15.2727H196.383V19.0653H200.734V15.2727H202.055V24H200.734V20.1946H196.383V24H195.066ZM206.627 24.1321C206.014 24.1321 205.478 23.9915 205.021 23.7102C204.563 23.429 204.208 23.0355 203.955 22.5298C203.703 22.0241 203.576 21.4332 203.576 20.7571C203.576 20.0781 203.703 19.4844 203.955 18.9759C204.208 18.4673 204.563 18.0724 205.021 17.7912C205.478 17.5099 206.014 17.3693 206.627 17.3693C207.241 17.3693 207.776 17.5099 208.234 17.7912C208.691 18.0724 209.046 18.4673 209.299 18.9759C209.552 19.4844 209.678 20.0781 209.678 20.7571C209.678 21.4332 209.552 22.0241 209.299 22.5298C209.046 23.0355 208.691 23.429 208.234 23.7102C207.776 23.9915 207.241 24.1321 206.627 24.1321ZM206.632 23.0625C207.029 23.0625 207.359 22.9574 207.62 22.7472C207.882 22.5369 208.075 22.2571 208.2 21.9077C208.328 21.5582 208.392 21.1733 208.392 20.7528C208.392 20.3352 208.328 19.9517 208.2 19.6023C208.075 19.25 207.882 18.9673 207.62 18.7543C207.359 18.5412 207.029 18.4347 206.632 18.4347C206.231 18.4347 205.899 18.5412 205.634 18.7543C205.373 18.9673 205.178 19.25 205.051 19.6023C204.926 19.9517 204.863 20.3352 204.863 20.7528C204.863 21.1733 204.926 21.5582 205.051 21.9077C205.178 22.2571 205.373 22.5369 205.634 22.7472C205.899 22.9574 206.231 23.0625 206.632 23.0625ZM211.101 24V17.4545H212.324V18.5199H212.405C212.541 18.1591 212.764 17.8778 213.074 17.6761C213.383 17.4716 213.754 17.3693 214.186 17.3693C214.623 17.3693 214.99 17.4716 215.285 17.6761C215.584 17.8807 215.804 18.1619 215.946 18.5199H216.014C216.17 18.1705 216.419 17.892 216.76 17.6847C217.101 17.4744 217.507 17.3693 217.979 17.3693C218.572 17.3693 219.057 17.5554 219.432 17.9276C219.809 18.2997 219.998 18.8608 219.998 19.6108V24H218.724V19.7301C218.724 19.2869 218.604 18.9659 218.362 18.767C218.121 18.5682 217.832 18.4688 217.497 18.4688C217.082 18.4688 216.76 18.5966 216.53 18.8523C216.3 19.1051 216.184 19.4304 216.184 19.8281V24H214.915V19.6491C214.915 19.294 214.804 19.0085 214.582 18.7926C214.361 18.5767 214.072 18.4688 213.717 18.4688C213.476 18.4688 213.253 18.5327 213.048 18.6605C212.846 18.7855 212.683 18.9602 212.558 19.1847C212.436 19.4091 212.375 19.669 212.375 19.9645V24H211.101ZM224.527 24.1321C223.882 24.1321 223.327 23.9943 222.861 23.7188C222.398 23.4403 222.04 23.0497 221.787 22.5469C221.537 22.0412 221.412 21.4489 221.412 20.7699C221.412 20.0994 221.537 19.5085 221.787 18.9972C222.04 18.4858 222.392 18.0866 222.844 17.7997C223.298 17.5128 223.83 17.3693 224.438 17.3693C224.807 17.3693 225.165 17.4304 225.512 17.5526C225.858 17.6747 226.169 17.8665 226.445 18.1278C226.72 18.3892 226.938 18.7287 227.097 19.1463C227.256 19.5611 227.335 20.0653 227.335 20.6591V21.1108H222.132V20.1562H226.087C226.087 19.821 226.019 19.5241 225.882 19.2656C225.746 19.0043 225.554 18.7983 225.307 18.6477C225.063 18.4972 224.776 18.4219 224.446 18.4219C224.088 18.4219 223.776 18.5099 223.509 18.6861C223.244 18.8594 223.04 19.0866 222.895 19.3679C222.753 19.6463 222.682 19.9489 222.682 20.2756V21.0213C222.682 21.4588 222.759 21.831 222.912 22.1378C223.068 22.4446 223.286 22.679 223.564 22.8409C223.843 23 224.168 23.0795 224.54 23.0795C224.781 23.0795 225.002 23.0455 225.2 22.9773C225.399 22.9062 225.571 22.8011 225.716 22.6619C225.861 22.5227 225.972 22.3509 226.048 22.1463L227.254 22.3636C227.158 22.7187 226.985 23.0298 226.735 23.2969C226.487 23.5611 226.176 23.767 225.801 23.9148C225.429 24.0597 225.004 24.1321 224.527 24.1321Z" fill="black"/>
<path d="M201 41.3127L201 86.7761C201 92.5485 205.48 97.2334 211 97.2334C216.52 97.2334 221 92.5485 221 86.7761L221 41.3127C221 35.5402 216.52 30.8553 211 30.8553C205.48 30.8553 201 35.5402 201 41.3127Z" fill="#DCDCDC" stroke="#CCCCCC" stroke-width="2"/>
<g filter="url(#filter1_d_992_9947)">
<path d="M201 40.4573L201 66.4294C201 72.2018 205.48 76.8867 211 76.8867C216.52 76.8867 221 72.2018 221 66.4294L221 40.4573C221 34.6849 216.52 30 211 30C205.48 30 201 34.6849 201 40.4573Z" fill="white"/>
<path d="M201.5 66.4294L201.5 40.4573C201.5 34.9397 205.777 30.5 211 30.5C216.223 30.5 220.5 34.9397 220.5 40.4573L220.5 66.4294C220.5 71.947 216.223 76.3867 211 76.3867C205.777 76.3867 201.5 71.947 201.5 66.4294Z" stroke="#CCCCCC"/>
</g>
<path d="M214.744 40.4502C214.744 42.6635 213.035 44.4502 210.919 44.4502C208.802 44.4502 207.094 42.6635 207.094 40.4502C207.094 38.2369 208.802 36.4502 210.919 36.4502C213.035 36.4502 214.744 38.2369 214.744 40.4502Z" fill="#006CE1"/>
<path d="M194.585 104.64V103.506H201.339V104.64H198.616V112.233H197.304V104.64H194.585ZM202.05 112.233V105.688H203.281V106.728H203.35C203.469 106.375 203.679 106.098 203.98 105.897C204.284 105.692 204.628 105.59 205.012 105.59C205.091 105.59 205.185 105.593 205.293 105.598C205.404 105.604 205.49 105.611 205.553 105.62V106.839C205.502 106.824 205.411 106.809 205.28 106.792C205.149 106.772 205.019 106.762 204.888 106.762C204.587 106.762 204.318 106.826 204.083 106.954C203.85 107.079 203.665 107.253 203.529 107.478C203.392 107.699 203.324 107.952 203.324 108.236V112.233H202.05ZM208.502 112.378C208.087 112.378 207.712 112.302 207.377 112.148C207.041 111.992 206.776 111.766 206.58 111.471C206.387 111.175 206.29 110.813 206.29 110.384C206.29 110.015 206.361 109.711 206.503 109.472C206.645 109.233 206.837 109.044 207.078 108.905C207.32 108.766 207.59 108.661 207.888 108.59C208.186 108.519 208.49 108.465 208.8 108.428C209.192 108.383 209.51 108.346 209.754 108.317C209.999 108.286 210.176 108.236 210.287 108.168C210.398 108.1 210.453 107.989 210.453 107.836V107.806C210.453 107.434 210.348 107.145 210.138 106.941C209.931 106.736 209.621 106.634 209.209 106.634C208.78 106.634 208.442 106.729 208.195 106.919C207.95 107.107 207.781 107.316 207.688 107.546L206.49 107.273C206.632 106.875 206.84 106.554 207.112 106.31C207.388 106.063 207.705 105.884 208.063 105.773C208.421 105.66 208.797 105.603 209.192 105.603C209.453 105.603 209.73 105.634 210.023 105.696C210.318 105.756 210.594 105.867 210.85 106.029C211.108 106.191 211.32 106.422 211.485 106.723C211.649 107.022 211.732 107.41 211.732 107.887V112.233H210.487V111.339H210.436C210.354 111.503 210.23 111.665 210.066 111.824C209.901 111.983 209.689 112.116 209.431 112.221C209.172 112.326 208.862 112.378 208.502 112.378ZM208.779 111.356C209.131 111.356 209.432 111.286 209.682 111.147C209.935 111.008 210.127 110.826 210.257 110.601C210.391 110.374 210.458 110.131 210.458 109.873V109.029C210.412 109.074 210.324 109.117 210.193 109.157C210.066 109.194 209.919 109.226 209.754 109.255C209.59 109.28 209.429 109.304 209.273 109.327C209.117 109.347 208.986 109.364 208.881 109.378C208.634 109.41 208.408 109.462 208.203 109.536C208.002 109.61 207.84 109.716 207.718 109.856C207.598 109.992 207.539 110.174 207.539 110.401C207.539 110.716 207.655 110.955 207.888 111.117C208.121 111.276 208.418 111.356 208.779 111.356ZM218.794 105.688L216.42 112.233H215.057L212.679 105.688H214.047L215.704 110.725H215.773L217.426 105.688H218.794ZM222.59 112.366C221.945 112.366 221.389 112.228 220.923 111.952C220.46 111.674 220.102 111.283 219.85 110.78C219.6 110.275 219.475 109.682 219.475 109.003C219.475 108.333 219.6 107.742 219.85 107.231C220.102 106.719 220.455 106.32 220.906 106.033C221.361 105.746 221.892 105.603 222.5 105.603C222.869 105.603 223.227 105.664 223.574 105.786C223.921 105.908 224.232 106.1 224.507 106.361C224.783 106.623 225 106.962 225.159 107.38C225.318 107.794 225.398 108.299 225.398 108.892V109.344H220.195V108.39H224.149C224.149 108.054 224.081 107.758 223.945 107.499C223.808 107.238 223.617 107.032 223.369 106.881C223.125 106.731 222.838 106.655 222.509 106.655C222.151 106.655 221.838 106.743 221.571 106.919C221.307 107.093 221.102 107.32 220.958 107.601C220.816 107.88 220.744 108.182 220.744 108.509V109.255C220.744 109.692 220.821 110.064 220.975 110.371C221.131 110.678 221.348 110.912 221.627 111.074C221.905 111.233 222.23 111.313 222.602 111.313C222.844 111.313 223.064 111.279 223.263 111.211C223.462 111.14 223.634 111.035 223.779 110.895C223.923 110.756 224.034 110.584 224.111 110.38L225.317 110.597C225.22 110.952 225.047 111.263 224.797 111.53C224.55 111.794 224.239 112 223.864 112.148C223.492 112.293 223.067 112.366 222.59 112.366ZM228.086 103.506V112.233H226.812V103.506H228.086Z" fill="black"/>
<defs>
<filter id="filter0_d_992_9947" x="105.576" y="17.8604" width="6.84607" height="15.5469" filterUnits="userSpaceOnUse" color-interpolation-filters="sRGB">
<feFlood flood-opacity="0" result="BackgroundImageFix"/>
<feColorMatrix in="SourceAlpha" type="matrix" values="0 0 0 0 0 0 0 0 0 0 0 0 0 0 0 0 0 0 127 0" result="hardAlpha"/>
<feOffset/>
<feGaussianBlur stdDeviation="0.5"/>
<feComposite in2="hardAlpha" operator="out"/>
<feColorMatrix type="matrix" values="0 0 0 0 0 0 0 0 0 0 0 0 0 0 0 0 0 0 0.4 0"/>
<feBlend mode="normal" in2="BackgroundImageFix" result="effect1_dropShadow_992_9947"/>
<feBlend mode="normal" in="SourceGraphic" in2="effect1_dropShadow_992_9947" result="shape"/>
</filter>
<filter id="filter1_d_992_9947" x="200" y="29" width="22" height="48.8867" filterUnits="userSpaceOnUse" color-interpolation-filters="sRGB">
<feFlood flood-opacity="0" result="BackgroundImageFix"/>
<feColorMatrix in="SourceAlpha" type="matrix" values="0 0 0 0 0 0 0 0 0 0 0 0 0 0 0 0 0 0 127 0" result="hardAlpha"/>
<feOffset/>
<feGaussianBlur stdDeviation="0.5"/>
<feComposite in2="hardAlpha" operator="out"/>
<feColorMatrix type="matrix" values="0 0 0 0 0 0 0 0 0 0 0 0 0 0 0 0 0 0 0.4 0"/>
<feBlend mode="normal" in2="BackgroundImageFix" result="effect1_dropShadow_992_9947"/>
<feBlend mode="normal" in="SourceGraphic" in2="effect1_dropShadow_992_9947" result="shape"/>
</filter>
</defs>
</svg>
