<svg width="239" height="34" viewBox="0 0 239 34" fill="none" xmlns="http://www.w3.org/2000/svg">
<g clip-path="url(#clip0_1609_208070)">
<path d="M105.305 8.93501C106.898 8.69402 108.508 8.58032 110.119 8.59501C112.39 8.59501 113.784 8.81261 114.981 9.52661C115.579 9.82526 116.082 10.2856 116.432 10.8553C116.781 11.425 116.964 12.0813 116.96 12.7498C116.96 14.2186 116.103 15.5854 114.24 16.2722V16.3198C115.174 16.5151 116.012 17.0286 116.61 17.7727C117.208 18.5168 117.528 19.4454 117.518 20.3998C117.521 21.0751 117.368 21.7419 117.071 22.3483C116.773 22.9546 116.34 23.484 115.804 23.895C114.607 24.847 112.601 25.3842 109.33 25.3842C107.982 25.3974 106.635 25.3156 105.298 25.1394L105.305 8.93501ZM108.997 15.2454H110.214C112.173 15.2454 113.22 14.4362 113.22 13.2054C113.22 11.9746 112.268 11.3014 110.582 11.3014C110.052 11.2926 109.522 11.3244 108.997 11.3966V15.2454ZM108.997 22.5486C109.476 22.5933 109.958 22.6092 110.439 22.5962C112.125 22.5962 113.614 21.9638 113.614 20.2298C113.614 18.4958 112.125 17.9042 110.262 17.9042H108.997V22.5486Z" fill="white"/>
<path d="M123.291 8.71777V18.197C123.291 21.0326 124.365 22.4742 126.269 22.4742C128.173 22.4742 129.302 21.1142 129.302 18.197V8.71777H133.015V17.9522C133.015 23.0386 130.444 25.4322 126.147 25.4322C121.992 25.4322 119.551 23.1338 119.551 17.8774V8.71777H123.291Z" fill="white"/>
<path d="M135.871 21.3518C137.151 22.0034 138.562 22.3546 139.998 22.3786C141.712 22.3786 142.616 21.6986 142.616 20.597C142.616 19.4954 141.834 18.9786 139.856 18.2714C137.136 17.3194 135.334 15.803 135.334 13.4094C135.334 10.601 137.68 8.4522 141.562 8.4522C143.006 8.42333 144.44 8.7063 145.765 9.2818L144.935 12.2874C143.861 11.7661 142.681 11.4985 141.488 11.5054C139.876 11.5054 139.094 12.2398 139.094 13.0898C139.094 14.1438 140.026 14.6062 142.147 15.4154C145.058 16.4898 146.424 18.0062 146.424 20.325C146.424 23.0858 144.303 25.4318 139.781 25.4318C138.169 25.4488 136.573 25.1074 135.109 24.4322L135.871 21.3518Z" fill="white"/>
<path d="M152.191 8.71777V25.1602H148.451V8.71777H152.191Z" fill="white"/>
<path d="M154.924 25.1602V8.71777H159.276L162.676 14.7562C163.709 16.5744 164.617 18.46 165.396 20.4002H165.471C165.238 18.1185 165.134 15.8256 165.158 13.5322V8.71777H168.558V25.1602H164.648L161.16 18.8362C160.104 16.9511 159.15 15.0103 158.304 13.0222H158.229C158.324 15.1982 158.372 17.517 158.372 20.2098V25.1602H154.924Z" fill="white"/>
<path d="M181.098 18.2242H175.039V22.1342H181.805V25.1602H171.299V8.71777H181.499V11.771H175.073V15.171H181.132L181.098 18.2242Z" fill="white"/>
<path d="M183.974 21.3522C185.256 22.0037 186.67 22.3549 188.108 22.379C189.815 22.379 190.72 21.699 190.72 20.5974C190.72 19.4958 189.938 18.979 187.959 18.2718C185.239 17.3198 183.437 15.8034 183.437 13.4098C183.437 10.6014 185.783 8.45261 189.672 8.45261C191.117 8.42437 192.55 8.70731 193.875 9.28221L193.045 12.2878C191.971 11.7674 190.791 11.4999 189.598 11.5058C187.986 11.5058 187.204 12.2402 187.204 13.0902C187.204 14.1442 188.129 14.6066 190.257 15.4158C193.168 16.4902 194.534 18.0066 194.534 20.3254C194.534 23.0862 192.406 25.4322 187.891 25.4322C186.279 25.4492 184.683 25.1078 183.219 24.4326L183.974 21.3522Z" fill="white"/>
<path d="M196.683 21.3518C197.963 22.0034 199.375 22.3546 200.811 22.3786C202.524 22.3786 203.429 21.6986 203.429 20.597C203.429 19.4954 202.647 18.9786 200.668 18.2714C197.948 17.3194 196.146 15.803 196.146 13.4094C196.146 10.601 198.492 8.4522 202.375 8.4522C203.819 8.42333 205.252 8.7063 206.577 9.2818L205.748 12.2874C204.676 11.7666 203.499 11.4991 202.307 11.5054C200.688 11.5054 199.906 12.2398 199.906 13.0898C199.906 14.1438 200.838 14.6062 202.966 15.4154C205.87 16.4898 207.237 18.0062 207.237 20.325C207.237 23.0858 205.115 25.4318 200.593 25.4318C198.983 25.4505 197.389 25.109 195.928 24.4322L196.683 21.3518Z" fill="white"/>
<path d="M92.7113 8.5H91.7661V25.5H92.7113V8.5Z" fill="white"/>
<path d="M38.6987 8.83996H24.7179C21.4743 8.83996 20.0395 10.88 19.7063 12.8044V8.83996H11.9475C11.5267 8.79917 11.1029 8.87922 10.7259 9.07072C10.3489 9.26222 10.0344 9.55723 9.81911 9.92116L7.69751 13.0356H38.6987V8.83996Z" fill="white"/>
<path d="M0 25.1874H5.5692L12.5392 13.9266L7.5616 13.4302L0 25.1874Z" fill="white"/>
<path d="M44.0981 8.81299H39.5149V13.0018H44.0981V8.81299Z" fill="white"/>
<path d="M73.1952 15.3612L58.854 14.5112C58.854 16.7076 60.2956 18.1764 62.7504 18.3736L72.9504 19.1624C73.7392 19.2236 74.2288 19.4208 74.2288 20.0804C74.2288 20.74 73.6712 20.9304 72.5288 20.9304H58.6296V25.16H72.8348C77.3228 25.16 79.288 23.5892 79.288 20.0192C79.288 16.8368 77.52 15.64 73.1952 15.3612Z" fill="white"/>
<path d="M58.6704 14.5111L54.1484 14.2799V19.0399C54.1484 20.5495 53.4004 21.0051 50.7824 21.0051H47.1784C45.016 21.0051 44.098 20.3863 44.098 19.0399V13.7903L39.5148 13.4639V19.4547H39.44C39.1748 17.7207 38.522 15.6875 34.17 15.3747L19.8288 14.4227C19.8288 16.6191 21.3996 17.9315 23.8544 18.1899L33.8436 19.2031C34.6256 19.2711 35.2036 19.5023 35.2036 20.1551C35.2036 20.8079 34.612 20.9439 33.694 20.9439H19.6452V14.4159L15.062 14.1167V25.1599H33.7212C37.8828 25.1599 39.2224 22.9975 39.4196 21.1955H39.5148C40.0384 24.0719 42.5272 25.1599 46.75 25.1599H51.4012C56.3448 25.1599 58.6704 23.6503 58.6704 20.1143V14.5111Z" fill="white"/>
<path d="M78.9684 13.0082V8.83984H63.58C60.3772 8.83984 58.9356 10.8254 58.6772 12.7362C58.6772 12.7362 58.6772 12.7838 58.6772 12.8042V8.83984H54.1484V13.0354H78.9684V13.0082Z" fill="white"/>
<path d="M225.325 17.6802L231.819 27.955L238.306 17.6802H225.325Z" fill="white"/>
<path d="M225.325 16.3202H238.306L231.819 6.03857L225.325 16.3202Z" fill="white"/>
<path d="M214.2 0L224.121 15.7216L231.01 4.76L228.004 0H214.2Z" fill="white"/>
<path d="M214.2 33.9999H228.004L231.01 29.2399L224.087 18.2783L214.2 33.9999Z" fill="white"/>
</g>
<defs>
<clipPath id="clip0_1609_208070">
<rect width="238.306" height="34" fill="white"/>
</clipPath>
</defs>
</svg>
