<svg width="311" height="133" viewBox="0 0 311 133" fill="none" xmlns="http://www.w3.org/2000/svg">
<path fill-rule="evenodd" clip-rule="evenodd" d="M179.722 131C174.199 131 169.722 126.523 169.722 121V87.0368L139.022 108.044C137.213 109.281 135.018 107.128 136.221 105.296L169.722 54.2575V21C169.722 15.477 174.199 11 179.722 11H279.722C285.245 11 289.722 15.477 289.722 21V121C289.722 126.523 285.245 131 279.722 131H179.722Z" fill="#F5F5F5"/>
<path d="M231.843 26.6363C231.843 27.5681 231.672 28.3692 231.331 29.0397C230.99 29.7073 230.523 30.2215 229.929 30.5823C229.338 30.9402 228.666 31.1192 227.914 31.1192C227.158 31.1192 226.483 30.9402 225.889 30.5823C225.298 30.2215 224.833 29.7059 224.492 29.0354C224.151 28.365 223.98 27.5652 223.98 26.6363C223.98 25.7044 224.151 24.9047 224.492 24.2371C224.833 23.5667 225.298 23.0525 225.889 22.6945C226.483 22.3337 227.158 22.1533 227.914 22.1533C228.666 22.1533 229.338 22.3337 229.929 22.6945C230.523 23.0525 230.99 23.5667 231.331 24.2371C231.672 24.9047 231.843 25.7044 231.843 26.6363ZM230.539 26.6363C230.539 25.926 230.423 25.328 230.193 24.8422C229.966 24.3536 229.654 23.9843 229.256 23.7343C228.861 23.4814 228.414 23.355 227.914 23.355C227.411 23.355 226.962 23.4814 226.567 23.7343C226.172 23.9843 225.86 24.3536 225.629 24.8422C225.402 25.328 225.289 25.926 225.289 26.6363C225.289 27.3465 225.402 27.9459 225.629 28.4346C225.86 28.9204 226.172 29.2897 226.567 29.5425C226.962 29.7925 227.411 29.9175 227.914 29.9175C228.414 29.9175 228.861 29.7925 229.256 29.5425C229.654 29.2897 229.966 28.9204 230.193 28.4346C230.423 27.9459 230.539 27.3465 230.539 26.6363ZM234.656 27.1135V30.9999H233.382V24.4544H234.605V25.5198H234.686C234.836 25.1732 235.072 24.8948 235.393 24.6846C235.717 24.4743 236.125 24.3692 236.616 24.3692C237.062 24.3692 237.453 24.463 237.788 24.6505C238.123 24.8351 238.383 25.1107 238.568 25.4772C238.753 25.8436 238.845 26.2968 238.845 26.8365V30.9999H237.571V26.99C237.571 26.5155 237.447 26.1448 237.2 25.8777C236.953 25.6079 236.613 25.4729 236.182 25.4729C235.886 25.4729 235.623 25.5368 235.393 25.6647C235.166 25.7925 234.986 25.98 234.852 26.2272C234.721 26.4715 234.656 26.7669 234.656 27.1135Z" fill="black"/>
<path d="M221 48.3129V93.7763C221 99.5487 225.48 104.234 231 104.234C236.52 104.234 241 99.5487 241 93.7763V48.3129C241 42.5404 236.52 37.8555 231 37.8555C225.48 37.8555 221 42.5404 221 48.3129Z" fill="#DCDCDC" stroke="#CCCCCC" stroke-width="2"/>
<g filter="url(#filter0_d_2902_8699)">
<path d="M221 47.4573V73.4294C221 79.2018 225.48 83.8867 231 83.8867C236.52 83.8867 241 79.2018 241 73.4294V47.4573C241 41.6849 236.52 37 231 37C225.48 37 221 41.6849 221 47.4573Z" fill="white"/>
<path d="M221.5 73.4294V47.4573C221.5 41.9397 225.777 37.5 231 37.5C236.223 37.5 240.5 41.9397 240.5 47.4573V73.4294C240.5 78.947 236.223 83.3867 231 83.3867C225.777 83.3867 221.5 78.947 221.5 73.4294Z" stroke="#CCCCCC"/>
</g>
<path d="M234.744 47.4502C234.744 49.6635 233.035 51.4502 230.919 51.4502C228.802 51.4502 227.094 49.6635 227.094 47.4502C227.094 45.2369 228.802 43.4502 230.919 43.4502C233.035 43.4502 234.744 45.2369 234.744 47.4502Z" fill="#006CE1"/>
<path d="M230.999 114.87C230.999 115.802 230.828 116.603 230.487 117.273C230.146 117.941 229.679 118.455 229.085 118.816C228.494 119.174 227.823 119.353 227.07 119.353C226.314 119.353 225.639 119.174 225.046 118.816C224.455 118.455 223.989 117.939 223.648 117.269C223.307 116.598 223.137 115.799 223.137 114.87C223.137 113.938 223.307 113.138 223.648 112.471C223.989 111.8 224.455 111.286 225.046 110.928C225.639 110.567 226.314 110.387 227.07 110.387C227.823 110.387 228.494 110.567 229.085 110.928C229.679 111.286 230.146 111.8 230.487 112.471C230.828 113.138 230.999 113.938 230.999 114.87ZM229.695 114.87C229.695 114.16 229.58 113.562 229.35 113.076C229.122 112.587 228.81 112.218 228.412 111.968C228.017 111.715 227.57 111.589 227.07 111.589C226.567 111.589 226.118 111.715 225.723 111.968C225.328 112.218 225.016 112.587 224.786 113.076C224.558 113.562 224.445 114.16 224.445 114.87C224.445 115.58 224.558 116.179 224.786 116.668C225.016 117.154 225.328 117.523 225.723 117.776C226.118 118.026 226.567 118.151 227.07 118.151C227.57 118.151 228.017 118.026 228.412 117.776C228.81 117.523 229.122 117.154 229.35 116.668C229.58 116.179 229.695 115.58 229.695 114.87ZM235.653 112.688V113.711H231.954V112.688H235.653ZM232.969 119.233V111.929C232.969 111.52 233.058 111.181 233.237 110.911C233.416 110.638 233.653 110.435 233.949 110.302C234.244 110.165 234.565 110.097 234.912 110.097C235.167 110.097 235.386 110.118 235.568 110.161C235.75 110.201 235.885 110.238 235.973 110.272L235.675 111.303C235.615 111.286 235.538 111.266 235.444 111.243C235.351 111.218 235.237 111.205 235.104 111.205C234.794 111.205 234.572 111.282 234.439 111.435C234.308 111.589 234.243 111.81 234.243 112.1V119.233H232.969ZM240.083 112.688V113.711H236.384V112.688H240.083ZM237.398 119.233V111.929C237.398 111.52 237.488 111.181 237.667 110.911C237.846 110.638 238.083 110.435 238.378 110.302C238.674 110.165 238.995 110.097 239.341 110.097C239.597 110.097 239.816 110.118 239.998 110.161C240.18 110.201 240.314 110.238 240.403 110.272L240.104 111.303C240.045 111.286 239.968 111.266 239.874 111.243C239.78 111.218 239.667 111.205 239.533 111.205C239.224 111.205 239.002 111.282 238.868 111.435C238.738 111.589 238.672 111.81 238.672 112.1V119.233H237.398Z" fill="black"/>
<g clip-path="url(#clip0_2902_8699)">
<path d="M98.927 75.2959C100.341 75.6503 102.156 76.0212 103.574 76.3566C111.076 78.1332 118.579 79.9027 126.081 81.6745C127.888 82.1021 129.717 82.4612 131.491 83.0046C132.486 83.307 133.438 83.8385 134.312 84.4149C135.064 84.9111 135.085 86.0238 134.308 86.4821C133.209 87.1294 131.989 87.5901 130.789 88.0437C126.045 89.8368 121.289 91.5991 116.534 93.3663C110.173 95.7311 103.841 98.1857 97.4328 100.416C93.9544 101.625 90.311 101.779 86.6016 101.566C81.3085 101.264 76.3713 99.4756 71.2927 98.2991C65.1771 96.8816 59.111 95.2539 53.0214 93.7206C49.88 92.9292 46.3355 92.1449 43.1941 91.3582" stroke="#999999" stroke-width="0.5" stroke-linecap="round" stroke-linejoin="round"/>
<path d="M43.1046 53.6801C43.0598 49.7041 41.9522 46.0636 38.8768 43.2924C37.788 42.312 36.4282 41.9222 34.9953 41.745C33.6025 41.5725 32.2592 41.5135 30.8617 41.9553C28.2387 42.7845 26.7776 44.7831 26.4877 47.1952C26.0777 50.616 26.2945 54.1124 26.2827 57.5781C26.2756 59.4279 26.3793 61.2801 26.3864 63.1299C26.4029 67.2642 26.3628 71.3985 26.3982 75.5327C26.45 81.7153 26.5372 87.8954 26.6315 94.078C26.6833 97.4657 26.648 100.861 26.9002 104.234C27.1712 107.865 29.2804 114.553 34.7644 114.603C37.3897 114.627 40.6301 113.226 42.1879 112.051C43.2719 111.234 43.5571 108.182 43.5053 106.705C42.9161 90.0712 43.206 62.9338 43.1023 53.6825L43.1046 53.6801Z" stroke="#999999" stroke-width="0.5" stroke-linecap="round" stroke-linejoin="round"/>
<path d="M34.1682 41.6621C37.2625 43.5072 40.2885 47.5989 40.8612 51.0859C41.1015 52.5554 41.1015 54.0744 41.1157 55.5698C41.2123 65.9646 41.2712 76.3594 41.3631 86.7541C41.422 93.4871 41.6153 100.22 41.6153 106.953C41.6153 112.309 40.1 112.871 40.0222 113.263" stroke="#999999" stroke-width="0.5" stroke-linecap="round" stroke-linejoin="round"/>
<path d="M36.3787 42.0049C39.2184 44.3319 41.7872 48.6646 42.063 52.2626C42.1407 53.2714 42.2067 93.3456 42.4447 107.761C42.4942 110.724 41.4125 112.767 40.9082 112.848" stroke="#999999" stroke-width="0.5" stroke-linecap="round" stroke-linejoin="round"/>
<path d="M97.7936 106.239C98.8141 105.141 100.103 104.512 101.456 104.009C106.398 102.176 111.363 100.411 116.296 98.5588C122.279 96.3121 128.216 93.9307 134.221 91.7478C136.952 90.7533 138.371 91.7148 139.502 94.3206C140.977 97.7225 140.461 101.15 139.25 104.465C137.97 107.959 135.465 110.09 131.878 111.392C124.455 114.087 117.168 117.161 109.817 120.064C106.568 121.347 103.278 122.535 100.047 123.865C97.7818 124.798 95.4864 123.613 94.638 121.004C92.7315 115.141 95.3733 108.845 97.7936 106.239Z" stroke="#999999" stroke-width="0.5" stroke-linecap="round" stroke-linejoin="round"/>
<path d="M35.8792 114.536C38.0779 115.167 41.3914 116.154 43.5972 116.752C47.441 117.796 51.2941 118.8 55.1426 119.83C59.5425 121.007 63.9377 122.2 68.3399 123.369C71.9503 124.328 75.556 125.302 79.183 126.197C82.7392 127.076 85.15 125.895 86.8374 123.135C87.7235 121.687 88.2773 118.921 88.3716 117.229" stroke="#999999" stroke-width="0.5" stroke-linecap="round" stroke-linejoin="round"/>
<path d="M141.1 93.0903C140.628 92.6958 138.495 88.982 134.906 89.9128C130.577 91.035 126.507 92.9982 122.312 94.5551C115.982 96.9033 109.655 99.2516 103.343 101.649C100.72 102.646 98.0079 103.525 96.2616 106.003C94.5718 108.404 93.3275 110.979 92.9764 113.922C92.8515 114.981 92.8114 116.049 92.7336 117.112" stroke="#999999" stroke-width="0.5" stroke-linecap="round" stroke-linejoin="round"/>
<path d="M97.8007 74.9419C97.8408 74.4293 97.9138 73.919 97.9138 73.4063C97.9209 65.8866 97.8902 58.3646 97.9279 50.8449C97.9539 45.9618 98.1094 41.0809 98.1377 36.1978C98.1518 33.8755 97.6616 31.6335 96.5022 29.5829C95.1117 27.126 92.2272 24.9171 89.4463 24.4375" stroke="#999999" stroke-width="0.5" stroke-linecap="round" stroke-linejoin="round"/>
<path d="M88.374 117.23C88.3009 115.068 87.9568 112.958 87.0731 110.972C85.2372 106.847 82.3032 104.069 77.7737 103.031C72.0163 101.713 66.292 100.244 60.5653 98.7956C55.7247 97.5719 50.9006 96.2843 46.0694 95.0228C45.2021 94.796 44.3419 94.5527 43.4771 94.3164" stroke="#999999" stroke-width="0.5" stroke-linecap="round" stroke-linejoin="round"/>
<path d="M84.2498 72.1068C84.2898 69.3121 84.2498 37.7167 84.3676 31.4727C84.4241 28.4393 86.5994 25.1697 89.4462 24.4374C90.6623 24.1255 92.055 24.2177 93.3135 24.435C94.4541 24.6334 95.682 25.0421 96.5799 25.7391C97.6592 26.5754 98.5689 27.7235 99.2994 28.8953C100.379 30.627 100.815 32.6303 100.848 34.662C100.907 38.442 100.885 42.2219 100.862 46.0018C100.796 55.8461 100.709 65.6881 100.631 75.5324" stroke="#999999" stroke-width="0.5" stroke-linecap="round" stroke-linejoin="round"/>
<path d="M38.8296 113.863C40.4015 114.335 58.9532 119.082 66.2212 121.009C70.5409 122.155 74.856 123.32 79.1852 124.428C82.8027 125.354 84.9638 123.823 86.3353 120.641C88.6873 115.191 85.1405 107.416 80.3541 105.675C78.5112 105.004 76.6047 104.501 74.7028 104.011C69.6831 102.722 64.6469 101.5 59.6248 100.215C55.1024 99.0598 50.5894 97.8597 46.074 96.6761C45.2067 96.4493 44.3466 96.206 43.4817 95.9697" stroke="#999999" stroke-width="0.5" stroke-linecap="round" stroke-linejoin="round"/>
<path d="M92.5663 24.3262C93.4618 24.5246 95.7431 26.3319 96.1579 26.7406C98.5098 29.0511 99.5373 31.9073 99.5562 35.1367C99.5939 41.7114 99.5821 48.2885 99.5633 54.8632C99.5444 61.2819 99.4902 67.6984 99.4502 74.1171C99.4431 75.3763 99.3394 75.4495 98.154 75.1826C94.1099 74.2707 90.0918 73.2099 86.0101 72.5012C80.0123 71.457 74.2597 72.5957 68.5613 74.6628C60.4567 77.5994 51.6357 80.5123 43.4792 83.307C43.1257 83.4275 43.1517 84.0607 43.1446 84.4198C43.1092 86.7019 43.1493 89.0809 43.1964 91.3654" stroke="#999999" stroke-width="0.5" stroke-linecap="round" stroke-linejoin="round"/>
<path d="M32.8792 114.296C33.8572 115.961 47.5117 119.179 51.4874 120.202C58.2605 121.943 65.0006 123.821 71.7618 125.61C75.3275 126.552 78.9002 127.467 82.4894 128.303C83.2789 128.487 84.0778 128.622 84.4077 129.352C85.2915 131.317 92.9695 131.039 94.0017 129.675C94.2162 129.392 94.5037 128.844 94.7394 128.567" stroke="#999999" stroke-width="0.5" stroke-linecap="round" stroke-linejoin="round"/>
<path d="M137.928 109.845C137.291 110.532 133.035 112.571 131.979 112.994C123.955 116.195 115.956 119.458 107.932 122.654C105.37 123.674 102.757 124.57 100.157 125.496C97.3669 126.491 95.7503 125.905 94.1477 123.374C93.2098 121.893 92.7809 118.855 92.7361 117.114" stroke="#999999" stroke-width="0.5" stroke-linecap="round" stroke-linejoin="round"/>
<path d="M134.312 84.418C135.201 84.5786 140.371 88.8594 141.406 94.3166C142.158 98.2832 141.748 103.724 139.966 106.616C139.108 108.007 137.411 111.86 133.155 113.665C125.64 116.852 103.518 125.305 97.1548 127.88C93.608 129.316 84.2921 128.551 83.3093 128.513" stroke="#999999" stroke-width="0.5" stroke-linecap="round" stroke-linejoin="round"/>
<path d="M87.3135 116.993C88.5319 117.151 89.7456 117.369 90.9687 117.44C91.5484 117.473 92.1446 117.229 92.7338 117.111" stroke="#999999" stroke-width="0.5" stroke-linecap="round" stroke-linejoin="round"/>
<path d="M120.425 99.7527C113.743 102.262 107.058 104.763 100.398 107.327C98.5688 108.031 97.4941 109.528 96.7212 111.317C95.597 113.923 95.0786 116.526 96.271 119.236C97.0369 120.975 98.3331 121.556 100.15 120.88C104.404 119.3 108.646 117.681 112.878 116.044C119.562 113.462 126.238 110.859 132.91 108.248C136.231 106.949 137.869 104.433 138.382 100.936C138.602 99.4408 138.488 98.0683 138.085 96.6791C137.692 95.3231 136.7 93.8655 135.149 94.3143C131.079 95.4885 125.286 97.9242 120.42 99.7503L120.425 99.7527Z" stroke="#999999" stroke-width="0.5" stroke-linecap="round" stroke-linejoin="round"/>
<path d="M32.1674 45.2929C29.8107 45.5126 28.4273 47.2703 28.4132 49.6634C28.3684 56.909 28.3684 64.1523 28.4061 71.3979C28.4368 77.1859 28.5499 82.9739 28.6324 88.7619C28.7054 93.8814 28.7172 99.0008 28.8987 104.118C28.9882 106.648 29.9945 108.907 31.9435 110.6C33.0535 111.567 34.3496 111.869 35.8249 111.34C37.4204 110.766 38.0802 109.466 38.2476 108.011C38.4455 106.301 38.2947 104.553 38.2947 102.819V101.992C38.2947 95.2988 38.323 88.6037 38.2876 81.9108C38.2358 72.4209 38.2051 62.9309 38.019 53.4433C37.9601 50.4454 36.3787 44.7755 32.2852 45.2929C32.2852 45.2929 32.1956 45.2905 32.1674 45.2929Z" stroke="#999999" stroke-width="0.5" stroke-linecap="round" stroke-linejoin="round"/>
</g>
<path d="M75.9171 112.486L63.4146 109.531C62.046 109.207 60.7964 110.028 60.6253 111.362C60.4546 112.696 61.4266 114.041 62.7953 114.365L75.2979 117.32C76.6665 117.644 77.9161 116.823 78.0868 115.49C78.2578 114.155 77.2858 112.81 75.9171 112.486Z" fill="#B3B3B3" stroke="#CCCCCC" stroke-width="0.5"/>
<path d="M63.4492 114.334C62.114 114.019 61.0376 113.168 61.1574 112.234L77.9606 116.206C77.8408 117.14 76.4626 117.411 75.1274 117.095L63.4492 114.334Z" fill="black" fill-opacity="0.1"/>
<g filter="url(#filter1_d_2902_8699)">
<path d="M76.0896 112.776L67.8893 110.838C66.5206 110.514 65.2711 111.334 65.1002 112.668C64.9294 114.002 65.9014 115.348 67.2701 115.671L75.4705 117.609C76.8391 117.933 78.0887 117.112 78.2594 115.779C78.4305 114.444 77.4583 113.1 76.0896 112.776Z" fill="white"/>
<path d="M67.8576 111.085L76.0579 113.024C77.3026 113.318 78.1682 114.535 78.0161 115.721C77.8641 116.908 76.747 117.655 75.5023 117.361L67.302 115.423C66.0573 115.129 65.1915 113.913 65.3435 112.726C65.4956 111.539 66.6129 110.791 67.8576 111.085Z" stroke="#CCCCCC" stroke-width="0.5"/>
</g>
<path d="M76.1626 116.03C75.769 115.937 75.4928 115.538 75.5441 115.137C75.5955 114.736 75.9548 114.487 76.3483 114.58C76.742 114.673 77.0181 115.072 76.9667 115.473C76.9154 115.874 76.5562 116.123 76.1626 116.03Z" fill="#006CE1"/>
<defs>
<filter id="filter0_d_2902_8699" x="220" y="36" width="22" height="48.8867" filterUnits="userSpaceOnUse" color-interpolation-filters="sRGB">
<feFlood flood-opacity="0" result="BackgroundImageFix"/>
<feColorMatrix in="SourceAlpha" type="matrix" values="0 0 0 0 0 0 0 0 0 0 0 0 0 0 0 0 0 0 127 0" result="hardAlpha"/>
<feOffset/>
<feGaussianBlur stdDeviation="0.5"/>
<feComposite in2="hardAlpha" operator="out"/>
<feColorMatrix type="matrix" values="0 0 0 0 0 0 0 0 0 0 0 0 0 0 0 0 0 0 0.4 0"/>
<feBlend mode="normal" in2="BackgroundImageFix" result="effect1_dropShadow_2902_8699"/>
<feBlend mode="normal" in="SourceGraphic" in2="effect1_dropShadow_2902_8699" result="shape"/>
</filter>
<filter id="filter1_d_2902_8699" x="64.0762" y="109.768" width="15.2073" height="8.91211" filterUnits="userSpaceOnUse" color-interpolation-filters="sRGB">
<feFlood flood-opacity="0" result="BackgroundImageFix"/>
<feColorMatrix in="SourceAlpha" type="matrix" values="0 0 0 0 0 0 0 0 0 0 0 0 0 0 0 0 0 0 127 0" result="hardAlpha"/>
<feOffset/>
<feGaussianBlur stdDeviation="0.5"/>
<feComposite in2="hardAlpha" operator="out"/>
<feColorMatrix type="matrix" values="0 0 0 0 0 0 0 0 0 0 0 0 0 0 0 0 0 0 0.4 0"/>
<feBlend mode="normal" in2="BackgroundImageFix" result="effect1_dropShadow_2902_8699"/>
<feBlend mode="normal" in="SourceGraphic" in2="effect1_dropShadow_2902_8699" result="shape"/>
</filter>
<clipPath id="clip0_2902_8699">
<rect width="116" height="107" fill="white" transform="translate(26 24)"/>
</clipPath>
</defs>
</svg>
