<?xml version="1.0" encoding="UTF-8"?>
<svg width="16px" height="16px" viewBox="0 0 16 16" version="1.1" xmlns="http://www.w3.org/2000/svg" xmlns:xlink="http://www.w3.org/1999/xlink">
    <g stroke="none" stroke-width="1" fill="none" fill-rule="evenodd">
        <g transform="translate(-128.000000, -128.000000)" fill="#E64100" fill-rule="nonzero">
            <path d="M130,142.004602 C130,142.002565 141.999128,142 141.999128,142 C141.995836,142 142,137 142,137 C142,136.447715 142.447715,136 143,136 C143.552285,136 144,136.447715 144,137 L144,142.004602 C144,143.099756 143.101049,144 141.999128,144 L130.000872,144 C128.894235,144 128,143.108518 128,142.004602 L128,137 C128,136.447715 128.447715,136 129,136 C129.552285,136 130,136.447715 130,137 L130,142.004602 Z M132.706994,133.729584 C132.316053,134.1249 131.684147,134.1249 131.293206,133.729584 C130.902265,133.333267 130.902265,132.691753 131.293206,132.296437 L134.939659,128.444355 C135.223616,128.158127 135.59856,128 136.0005,128 C136.40144,128 136.778383,128.158127 137.060341,128.444355 L140.706794,132.296437 C141.097735,132.691753 141.097735,133.333267 140.706794,133.729584 C140.316852,134.1249 139.683947,134.1249 139.293006,133.729584 L137.00135,131.2496 L137.00135,136.999199 C137.00135,137.551641 136.553417,138 136.0015,138 C135.449583,138 135.00165,137.551641 135.00165,136.999199 L135.00165,131.247598 L132.706994,133.729584 Z" id="ic-go" transform="translate(136.000000, 136.000000) rotate(90.000000) translate(-136.000000, -136.000000) "></path>
        </g>
    </g>
</svg>