<svg width="199" height="48" viewBox="0 0 199 48" fill="none" xmlns="http://www.w3.org/2000/svg">
<path d="M33.096 17H21.14C18.368 17 17.136 18.736 16.856 20.388V17H10.22C9.29608 17 8.84808 17.28 8.40008 17.924L6.58008 20.584H33.096V17Z" fill="#2D2926"/>
<path d="M0 31.0002H4.76L10.724 21.3682L6.468 20.9482L0 31.0002Z" fill="#2D2926"/>
<path d="M37.7169 17H33.7969V20.584H37.7169V17Z" fill="#2D2926"/>
<path d="M62.6084 22.6001L50.3444 21.8721C50.3444 23.7481 51.5764 25.0081 53.6764 25.1761L62.4124 25.8481C63.0844 25.9041 63.5044 26.0721 63.5044 26.6321C63.5044 27.1641 63.0284 27.3601 62.0484 27.3601H50.1484V31.0001H62.3004C66.1364 31.0001 67.8164 29.6561 67.8164 26.6041C67.8164 23.8601 66.3044 22.8241 62.6084 22.6001Z" fill="#2D2926"/>
<path d="M50.1749 21.8716L46.3109 21.6476V25.7636C46.3109 27.0516 45.6669 27.4436 43.4269 27.4436H40.3469C38.4989 27.4436 37.7149 26.9116 37.7149 25.7636V21.2556L33.7949 20.9756V26.0996H33.7109C33.4869 24.6156 32.9269 22.8796 29.2029 22.6276L16.9389 21.8156C16.9389 23.6916 18.2829 24.8116 20.3829 25.0356L28.9229 25.9036C29.5949 25.9596 30.0989 26.1556 30.0989 26.7156C30.0989 27.3316 29.5949 27.3876 28.8109 27.3876H16.7989V21.7876L12.8789 21.5356V30.9996H28.8389C32.3949 30.9996 33.5429 29.1516 33.7109 27.6116H33.7949C34.2429 30.0476 36.3709 30.9996 39.9829 30.9996H43.9589C48.1869 30.9996 50.1749 29.7116 50.1749 26.6876V21.8716Z" fill="#2D2926"/>
<path d="M67.5365 20.584V17H54.3765C51.6325 17 50.4005 18.708 50.1765 20.332C50.1765 20.36 50.1765 20.36 50.1765 20.388V17H46.3125V20.584H50.1765H67.5365Z" fill="#2D2926"/>
<path d="M77.1884 16.9989L75.8164 17.0015L75.8427 31.0015L77.2147 30.9989L77.1884 16.9989Z" fill="#2D2926"/>
<path d="M85.2427 17.4055C86.0547 17.2375 87.6787 17.1255 89.2187 17.1255C91.0947 17.1255 92.2427 17.2935 93.2227 17.8815C94.1747 18.3855 94.8468 19.3095 94.8468 20.5415C94.8468 21.7455 94.1468 22.8935 92.6068 23.4535V23.4815C94.1468 23.9015 95.2948 25.0775 95.2948 26.8415C95.2948 28.0735 94.7348 29.0255 93.8948 29.7255C92.9148 30.5095 91.2628 30.9575 88.5468 30.9575C87.0348 30.9575 85.9148 30.8455 85.2148 30.7615V17.4055H85.2427ZM88.2948 22.5855H89.3027C90.9267 22.5855 91.7948 21.9135 91.7948 20.9055C91.7948 19.8695 91.0107 19.3375 89.6107 19.3375C88.9387 19.3375 88.5748 19.3655 88.2948 19.4215V22.5855ZM88.2948 28.6335C88.6028 28.6615 88.9667 28.6615 89.4707 28.6615C90.8707 28.6615 92.1027 28.1295 92.1027 26.7015C92.1027 25.3295 90.8707 24.7975 89.3307 24.7975H88.2948V28.6335Z" fill="#2D2926"/>
<path d="M100.111 17.2104V25.0224C100.111 27.3744 101.007 28.5504 102.575 28.5504C104.199 28.5504 105.067 27.4304 105.067 25.0224V17.2104H108.119V24.8264C108.119 29.0264 105.991 31.0144 102.463 31.0144C99.0473 31.0144 97.0312 29.1104 97.0312 24.7704V17.2104H100.111Z" fill="#2D2926"/>
<path d="M110.415 27.6258C111.255 28.0458 112.515 28.4658 113.831 28.4658C115.231 28.4658 115.987 27.8778 115.987 26.9818C115.987 26.1418 115.343 25.6378 113.719 25.0778C111.451 24.2938 109.995 23.0338 109.995 21.0738C109.995 18.7498 111.927 16.9858 115.147 16.9858C116.687 16.9858 117.807 17.3218 118.619 17.6578L117.947 20.1498C117.415 19.8978 116.435 19.5058 115.091 19.5058C113.747 19.5058 113.103 20.1218 113.103 20.8218C113.103 21.6898 113.859 22.0818 115.623 22.7258C118.031 23.6218 119.151 24.8538 119.151 26.7858C119.151 29.0538 117.387 30.9858 113.663 30.9858C112.123 30.9858 110.583 30.5938 109.799 30.1458L110.415 27.6258Z" fill="#2D2926"/>
<path d="M124.021 17.2104V30.7905H120.941V17.2104H124.021Z" fill="#2D2926"/>
<path d="M126.486 30.7904V17.2104H130.07L132.898 22.1944C133.71 23.6224 134.522 25.3304 135.11 26.8424H135.166C134.97 25.0504 134.914 23.2024 134.914 21.1864V17.2104H137.742V30.7904H134.522L131.61 25.5544C130.798 24.0984 129.93 22.3624 129.258 20.7664L129.202 20.7944C129.286 22.5864 129.314 24.4904 129.314 26.7304V30.8184H126.486V30.7904Z" fill="#2D2926"/>
<path d="M148.3 25.0505H143.288V28.2705H148.86V30.7905H140.18V17.2104H148.58V19.7305H143.288V22.5585H148.3V25.0505Z" fill="#2D2926"/>
<path d="M150.792 27.6258C151.632 28.0458 152.892 28.4658 154.208 28.4658C155.608 28.4658 156.364 27.8778 156.364 26.9818C156.364 26.1418 155.72 25.6378 154.096 25.0778C151.828 24.2938 150.372 23.0338 150.372 21.0738C150.372 18.7498 152.304 16.9858 155.524 16.9858C157.064 16.9858 158.184 17.3218 158.996 17.6578L158.324 20.1498C157.792 19.8978 156.812 19.5058 155.468 19.5058C154.124 19.5058 153.48 20.1218 153.48 20.8218C153.48 21.6898 154.236 22.0818 156 22.7258C158.408 23.6218 159.528 24.8538 159.528 26.7858C159.528 29.0538 157.764 30.9858 154.04 30.9858C152.5 30.9858 150.96 30.5938 150.176 30.1458L150.792 27.6258Z" fill="#2D2926"/>
<path d="M161.124 27.6258C161.964 28.0458 163.224 28.4658 164.54 28.4658C165.94 28.4658 166.696 27.8778 166.696 26.9818C166.696 26.1418 166.052 25.6378 164.428 25.0778C162.16 24.2938 160.704 23.0338 160.704 21.0738C160.704 18.7498 162.636 16.9858 165.856 16.9858C167.396 16.9858 168.516 17.3218 169.328 17.6578L168.656 20.1498C168.124 19.8978 167.144 19.5058 165.8 19.5058C164.456 19.5058 163.812 20.1218 163.812 20.8218C163.812 21.6898 164.568 22.0818 166.332 22.7258C168.74 23.6218 169.86 24.8538 169.86 26.7858C169.86 29.0538 168.096 30.9858 164.372 30.9858C162.832 30.9858 161.292 30.5938 160.508 30.1458L161.124 27.6258Z" fill="#2D2926"/>
<path d="M190.123 38H183.991H177.859L186.679 24L177.859 10H183.991H190.123L198.943 24L190.123 38Z" fill="#1984D6"/>
<path d="M186.68 24.0002H198.944L192.812 14.2842L186.68 24.0002Z" fill="#1672BD"/>
<path d="M192.812 33.716L198.944 24H186.68L192.812 33.716Z" fill="#12568C"/>
</svg>
