<svg width="24" height="24" viewBox="0 0 24 24" fill="none" xmlns="http://www.w3.org/2000/svg">
<path d="M21 12L21 10.2426C21 9.44699 20.6839 8.68393 20.1213 8.12132L14.8787 2.87868C14.3161 2.31607 13.553 2 12.7574 2L6 2C4.34314 2 3 3.34315 3 5L3 19C3 20.6569 4.34315 22 6 22L10.5 22" stroke="black" stroke-width="1.5" stroke-linecap="round" stroke-linejoin="round"/>
<path d="M14 2L14 6C14 7.65685 15.3431 9 17 9L21 9" stroke="black" stroke-width="1.5" stroke-linejoin="round"/>
<path d="M18.4602 14.4358C19.0412 13.8547 19.9832 13.8547 20.5642 14.4358C21.1453 15.0168 21.1453 15.9588 20.5642 16.5398L16.1066 20.9974C15.9994 21.1047 15.8665 21.1828 15.7207 21.2244L13 22L13.7756 19.2793C13.8172 19.1335 13.8953 19.0006 14.0026 18.8934L18.4602 14.4358Z" stroke="black" stroke-width="1.5" stroke-linecap="round" stroke-linejoin="round"/>
</svg>
