<svg xmlns="http://www.w3.org/2000/svg" width="24" height="24" viewBox="0 0 24 24">
  <g fill="none" fill-rule="evenodd">
    <polygon points="0 0 24 0 24 24 0 24"/>
    <path fill="#A4B7C3" fill-rule="nonzero" d="M6,4 L6,16 C6,17.1045695 6.8954305,18 8,18 L16,18 C17.1045695,18 18,17.1045695 18,16 L18,8.34645052 L16,6.213 L16.0005594,4.01005335 C16.4792555,4.05823068 16.9271604,4.27785996 17.2592771,4.63211774 L19.4590744,6.97856826 C19.8065984,7.34926053 20,7.83833075 20,8.34645052 L20,18 C20,19.1045695 19.1045695,20 18,20 L6,20 C4.8954305,20 4,19.1045695 4,18 L4,6 C4,4.8954305 4.8954305,4 6,4 Z M12,11 C13.6568542,11 15,12.3431458 15,14 C15,15.6568542 13.6568542,17 12,17 C10.3431458,17 9,15.6568542 9,14 C9,12.3431458 10.3431458,11 12,11 Z M15,4 L15,9 L7,9 L7,4 L15,4 Z"/>
  </g>
</svg>
