<svg width="40" height="41" viewBox="0 0 40 41" fill="none" xmlns="http://www.w3.org/2000/svg">
<path d="M31.6167 30.2386C29.25 32.9553 25.95 34.8386 22.2167 35.3553C21.5 35.4719 20.7667 35.5219 20 35.5219C19.2334 35.5219 18.5167 35.4719 17.7834 35.3553C14.05 34.8386 10.75 32.9553 8.38337 30.2386C6.01671 27.5553 4.58337 23.9886 4.58337 20.1219C4.58337 16.2553 6.01671 12.6886 8.38337 10.0053C10.75 7.28859 14.05 5.40526 17.7834 4.88859C18.5 4.77192 19.2334 4.72192 20 4.72192C20.7667 4.72192 21.4834 4.77192 22.2167 4.88859C25.95 5.40526 29.25 7.28859 31.6167 10.0053C33.9834 12.6886 35.4167 16.2553 35.4167 20.1219C35.4167 23.9886 33.9834 27.5553 31.6167 30.2386Z" stroke="black" stroke-width="1.5" stroke-linecap="round" stroke-linejoin="round"/>
<path d="M19.45 35.3719C18.3834 34.2553 13.3334 28.7386 13.3334 20.1219C13.3334 11.5053 18.3834 5.98861 19.45 4.87195" stroke="black" stroke-width="1.5" stroke-linecap="round" stroke-linejoin="round"/>
<path d="M20.55 35.3719C21.6167 34.2553 26.6667 28.7386 26.6667 20.1219C26.6667 11.5053 21.6167 5.98861 20.55 4.87195" stroke="black" stroke-width="1.5" stroke-linecap="round" stroke-linejoin="round"/>
<path d="M4.58337 20.1219H35.4167" stroke="black" stroke-width="1.5" stroke-linecap="round" stroke-linejoin="round"/>
</svg>
