<svg width="311" height="133" viewBox="0 0 311 133" fill="none" xmlns="http://www.w3.org/2000/svg">
<g clip-path="url(#clip0_2902_8698)">
<path d="M93.927 72.2959C95.341 72.6503 97.1556 73.0212 98.5743 73.3566C106.076 75.1332 113.579 76.9027 121.081 78.6745C122.888 79.1021 124.717 79.4612 126.491 80.0046C127.486 80.307 128.438 80.8385 129.312 81.4149C130.064 81.9111 130.085 83.0238 129.308 83.4821C128.209 84.1294 126.989 84.5901 125.789 85.0437C121.045 86.8368 116.289 88.5991 111.534 90.3663C105.173 92.7311 98.8406 95.1857 92.4328 97.4158C88.9544 98.6254 85.311 98.7789 81.6016 98.5663C76.3085 98.2639 71.3713 96.4756 66.2927 95.2991C60.1771 93.8816 54.111 92.2539 48.0214 90.7206C44.88 89.9292 41.3355 89.1449 38.1941 88.3582" stroke="#7F8FA4" stroke-width="0.5" stroke-linecap="round" stroke-linejoin="round"/>
<path d="M38.1046 50.6801C38.0598 46.7041 36.9522 43.0636 33.8768 40.2924C32.788 39.312 31.4282 38.9222 29.9953 38.745C28.6025 38.5725 27.2592 38.5135 25.8617 38.9553C23.2387 39.7845 21.7776 41.7831 21.4877 44.1952C21.0777 47.616 21.2945 51.1124 21.2827 54.5781C21.2756 56.4279 21.3793 58.2801 21.3864 60.1299C21.4029 64.2642 21.3628 68.3985 21.3982 72.5327C21.45 78.7153 21.5372 84.8954 21.6315 91.078C21.6833 94.4657 21.648 97.8605 21.9002 101.234C22.1712 104.865 24.2804 111.553 29.7644 111.603C32.3897 111.627 35.6301 110.226 37.1879 109.051C38.2719 108.234 38.5571 105.182 38.5053 103.705C37.9161 87.0712 38.206 59.9338 38.1023 50.6825L38.1046 50.6801Z" stroke="#7F8FA4" stroke-width="0.5" stroke-linecap="round" stroke-linejoin="round"/>
<path d="M29.1682 38.6621C32.2625 40.5072 35.2885 44.5989 35.8612 48.0859C36.1015 49.5554 36.1015 51.0744 36.1157 52.5698C36.2123 62.9646 36.2712 73.3594 36.3631 83.7541C36.422 90.4871 36.6153 97.2201 36.6153 103.953C36.6153 109.309 35.1 109.871 35.0222 110.263" stroke="#7F8FA4" stroke-width="0.5" stroke-linecap="round" stroke-linejoin="round"/>
<path d="M31.3787 39.0049C34.2184 41.3319 36.7872 45.6646 37.063 49.2626C37.1407 50.2714 37.2067 90.3456 37.4447 104.761C37.4942 107.724 36.4125 109.767 35.9082 109.848" stroke="#7F8FA4" stroke-width="0.5" stroke-linecap="round" stroke-linejoin="round"/>
<path d="M92.7936 103.239C93.8141 102.141 95.1032 101.512 96.4559 101.009C101.398 99.1757 106.363 97.4109 111.296 95.5588C117.279 93.3121 123.216 90.9307 129.221 88.7478C131.952 87.7533 133.371 88.7148 134.502 91.3206C135.977 94.7225 135.461 98.1504 134.25 101.465C132.97 104.959 130.465 107.09 126.878 108.392C119.455 111.087 112.168 114.161 104.817 117.064C101.568 118.347 98.2776 119.535 95.0466 120.865C92.7818 121.798 90.4864 120.613 89.638 118.004C87.7315 112.141 90.3733 105.845 92.7936 103.239Z" stroke="#7F8FA4" stroke-width="0.5" stroke-linecap="round" stroke-linejoin="round"/>
<path d="M30.8792 111.536C33.0779 112.167 36.3914 113.154 38.5972 113.752C42.441 114.796 46.2941 115.8 50.1426 116.83C54.5425 118.007 58.9377 119.2 63.3399 120.369C66.9503 121.328 70.556 122.302 74.183 123.197C77.7392 124.076 80.15 122.895 81.8374 120.135C82.7235 118.687 83.2773 115.921 83.3716 114.229" stroke="#7F8FA4" stroke-width="0.5" stroke-linecap="round" stroke-linejoin="round"/>
<path d="M136.1 90.0903C135.628 89.6958 133.495 85.982 129.906 86.9128C125.577 88.035 121.507 89.9982 117.312 91.5551C110.982 93.9033 104.655 96.2516 98.3434 98.6495C95.7204 99.6464 93.0079 100.525 91.2616 103.003C89.5718 105.404 88.3275 107.979 87.9764 110.922C87.8515 111.981 87.8114 113.049 87.7336 114.112" stroke="#7F8FA4" stroke-width="0.5" stroke-linecap="round" stroke-linejoin="round"/>
<path d="M92.8007 71.9419C92.8408 71.4293 92.9138 70.919 92.9138 70.4063C92.9209 62.8866 92.8902 55.3646 92.9279 47.8449C92.9539 42.9618 93.1094 38.0809 93.1377 33.1978C93.1518 30.8755 92.6616 28.6335 91.5022 26.5829C90.1117 24.126 87.2272 21.9171 84.4463 21.4375" stroke="#7F8FA4" stroke-width="0.5" stroke-linecap="round" stroke-linejoin="round"/>
<path d="M83.374 114.23C83.3009 112.068 82.9568 109.958 82.0731 107.972C80.2372 103.847 77.3032 101.069 72.7737 100.031C67.0163 98.7132 61.292 97.2438 55.5653 95.7956C50.7247 94.5719 45.9006 93.2843 41.0694 92.0228C40.2021 91.796 39.3419 91.5527 38.4771 91.3164" stroke="#7F8FA4" stroke-width="0.5" stroke-linecap="round" stroke-linejoin="round"/>
<path d="M79.2498 69.1068C79.2898 66.3121 79.2498 34.7167 79.3676 28.4727C79.4241 25.4393 81.5994 22.1697 84.4462 21.4374C85.6623 21.1255 87.055 21.2177 88.3135 21.435C89.4541 21.6334 90.682 22.0421 91.5799 22.7391C92.6592 23.5754 93.5689 24.7235 94.2994 25.8953C95.3788 27.627 95.8148 29.6303 95.8478 31.662C95.9067 35.442 95.8855 39.2219 95.8619 43.0018C95.7959 52.8461 95.7087 62.6881 95.631 72.5324" stroke="#7F8FA4" stroke-width="0.5" stroke-linecap="round" stroke-linejoin="round"/>
<path d="M33.8296 110.863C35.4015 111.335 53.9532 116.082 61.2212 118.009C65.5409 119.155 69.856 120.32 74.1852 121.428C77.8027 122.354 79.9638 120.823 81.3353 117.641C83.6873 112.191 80.1405 104.416 75.3541 102.675C73.5112 102.004 71.6047 101.501 69.7028 101.011C64.6831 99.7216 59.6469 98.5002 54.6248 97.215C50.1024 96.0598 45.5894 94.8597 41.074 93.6761C40.2067 93.4493 39.3466 93.206 38.4817 92.9697" stroke="#7F8FA4" stroke-width="0.5" stroke-linecap="round" stroke-linejoin="round"/>
<path d="M87.5663 21.3262C88.4618 21.5246 90.7431 23.3319 91.1579 23.7406C93.5098 26.0511 94.5373 28.9073 94.5562 32.1367C94.5939 38.7114 94.5821 45.2885 94.5633 51.8632C94.5444 58.2819 94.4902 64.6984 94.4502 71.1171C94.4431 72.3763 94.3394 72.4495 93.154 72.1826C89.1099 71.2707 85.0918 70.2099 81.0101 69.5012C75.0123 68.457 69.2597 69.5957 63.5613 71.6628C55.4567 74.5994 46.6357 77.5123 38.4792 80.307C38.1257 80.4275 38.1517 81.0607 38.1446 81.4198C38.1092 83.7019 38.1493 86.0809 38.1964 88.3654" stroke="#7F8FA4" stroke-width="0.5" stroke-linecap="round" stroke-linejoin="round"/>
<path d="M27.8792 111.296C28.8572 112.961 42.5117 116.179 46.4874 117.202C53.2605 118.943 60.0006 120.821 66.7618 122.61C70.3275 123.552 73.9002 124.467 77.4894 125.303C78.2789 125.487 79.0778 125.622 79.4077 126.352C80.2915 128.317 87.9695 128.039 89.0017 126.675C89.2162 126.392 89.5037 125.844 89.7394 125.567" stroke="#7F8FA4" stroke-width="0.5" stroke-linecap="round" stroke-linejoin="round"/>
<path d="M132.928 106.845C132.291 107.532 128.035 109.571 126.979 109.994C118.955 113.195 110.956 116.458 102.932 119.654C100.37 120.674 97.7566 121.57 95.1572 122.496C92.3669 123.491 90.7503 122.905 89.1477 120.374C88.2098 118.893 87.7809 115.855 87.7361 114.114" stroke="#7F8FA4" stroke-width="0.5" stroke-linecap="round" stroke-linejoin="round"/>
<path d="M129.312 81.418C130.201 81.5786 135.371 85.8594 136.406 91.3166C137.158 95.2832 136.748 100.724 134.966 103.616C134.108 105.007 132.411 108.86 128.155 110.665C120.64 113.852 98.5178 122.305 92.1548 124.88C88.608 126.316 79.2921 125.551 78.3093 125.513" stroke="#7F8FA4" stroke-width="0.5" stroke-linecap="round" stroke-linejoin="round"/>
<path d="M82.3135 113.993C83.5319 114.151 84.7456 114.369 85.9687 114.44C86.5484 114.473 87.1446 114.229 87.7338 114.111" stroke="#7F8FA4" stroke-width="0.5" stroke-linecap="round" stroke-linejoin="round"/>
<path d="M115.425 96.7527C108.743 99.2616 102.058 101.763 95.3976 104.327C93.5688 105.031 92.4941 106.528 91.7212 108.317C90.597 110.923 90.0786 113.526 91.271 116.236C92.0369 117.975 93.3331 118.556 95.1501 117.88C99.4039 116.3 103.646 114.681 107.878 113.044C114.562 110.462 121.238 107.859 127.91 105.248C131.231 103.949 132.869 101.433 133.382 97.9363C133.602 96.4408 133.488 95.0683 133.085 93.6791C132.692 92.3231 131.7 90.8655 130.149 91.3143C126.079 92.4885 120.286 94.9242 115.42 96.7503L115.425 96.7527Z" stroke="#7F8FA4" stroke-width="0.5" stroke-linecap="round" stroke-linejoin="round"/>
<path d="M27.1674 42.2929C24.8107 42.5126 23.4273 44.2703 23.4132 46.6634C23.3684 53.909 23.3684 61.1523 23.4061 68.3979C23.4368 74.1859 23.5499 79.9739 23.6324 85.7619C23.7054 90.8814 23.7172 96.0008 23.8987 101.118C23.9882 103.648 24.9945 105.907 26.9435 107.6C28.0535 108.567 29.3496 108.869 30.8249 108.34C32.4204 107.766 33.0802 106.466 33.2476 105.011C33.4455 103.301 33.2947 101.553 33.2947 99.8185V98.9916C33.2947 92.2988 33.323 85.6037 33.2876 78.9108C33.2358 69.4209 33.2051 59.9309 33.019 50.4433C32.9601 47.4454 31.3787 41.7755 27.2852 42.2929C27.2852 42.2929 27.1956 42.2905 27.1674 42.2929Z" stroke="#7F8FA4" stroke-width="0.5" stroke-linecap="round" stroke-linejoin="round"/>
</g>
<path d="M72.936 109.685L60.4752 106.559C59.1111 106.216 57.8504 107.02 57.6613 108.351C57.4721 109.683 58.4258 111.041 59.7899 111.383L72.2508 114.509C73.6149 114.852 74.8754 114.049 75.0646 112.717C75.2536 111.386 74.3001 110.027 72.936 109.685Z" fill="#293238" stroke="#A7C3D4" stroke-width="0.5"/>
<path d="M60.4438 111.362C59.1131 111.028 58.0484 110.163 58.181 109.23L74.9282 113.432C74.7956 114.365 73.4138 114.616 72.083 114.282L60.4438 111.362Z" fill="#131313" fill-opacity="0.6"/>
<g filter="url(#filter0_d_2902_8698)">
<path d="M73.1043 109.978L64.9314 107.927C63.5672 107.585 62.3067 108.387 62.1174 109.719C61.9284 111.05 62.8819 112.409 64.246 112.752L72.419 114.802C73.7831 115.144 75.0438 114.341 75.2328 113.01C75.4222 111.678 74.4684 110.32 73.1043 109.978Z" fill="#455765"/>
<path d="M64.8963 108.175L73.0693 110.225C74.3099 110.536 75.1587 111.765 74.9904 112.95C74.8221 114.134 73.6949 114.866 72.4543 114.555L64.2813 112.504C63.0408 112.193 62.1917 110.965 62.36 109.781C62.5283 108.596 63.6558 107.863 64.8963 108.175Z" stroke="#A7C3D4" stroke-width="0.5"/>
</g>
<path d="M73.1329 113.232C72.7406 113.134 72.47 112.731 72.5268 112.331C72.5838 111.93 72.9463 111.687 73.3385 111.785C73.7309 111.883 74.0018 112.285 73.9446 112.687C73.8878 113.087 73.5252 113.331 73.1329 113.232Z" fill="#DADADA"/>
<path fill-rule="evenodd" clip-rule="evenodd" d="M179.722 124C174.199 124 169.722 119.523 169.722 114V80.0368L139.022 101.044C137.213 102.281 135.018 100.128 136.221 98.2956L169.722 47.2575V14C169.722 8.477 174.199 4 179.722 4H279.722C285.245 4 289.722 8.477 289.722 14V114C289.722 119.523 285.245 124 279.722 124H179.722Z" fill="#131313" fill-opacity="0.2"/>
<path d="M231.843 19.6363C231.843 20.5681 231.672 21.3692 231.331 22.0397C230.99 22.7073 230.523 23.2215 229.929 23.5823C229.338 23.9402 228.666 24.1192 227.914 24.1192C227.158 24.1192 226.483 23.9402 225.889 23.5823C225.298 23.2215 224.833 22.7059 224.492 22.0354C224.151 21.365 223.98 20.5652 223.98 19.6363C223.98 18.7044 224.151 17.9047 224.492 17.2371C224.833 16.5667 225.298 16.0525 225.889 15.6945C226.483 15.3337 227.158 15.1533 227.914 15.1533C228.666 15.1533 229.338 15.3337 229.929 15.6945C230.523 16.0525 230.99 16.5667 231.331 17.2371C231.672 17.9047 231.843 18.7044 231.843 19.6363ZM230.539 19.6363C230.539 18.926 230.423 18.328 230.193 17.8422C229.966 17.3536 229.654 16.9843 229.256 16.7343C228.861 16.4814 228.414 16.355 227.914 16.355C227.411 16.355 226.962 16.4814 226.567 16.7343C226.172 16.9843 225.86 17.3536 225.629 17.8422C225.402 18.328 225.289 18.926 225.289 19.6363C225.289 20.3465 225.402 20.9459 225.629 21.4346C225.86 21.9204 226.172 22.2897 226.567 22.5425C226.962 22.7925 227.411 22.9175 227.914 22.9175C228.414 22.9175 228.861 22.7925 229.256 22.5425C229.654 22.2897 229.966 21.9204 230.193 21.4346C230.423 20.9459 230.539 20.3465 230.539 19.6363ZM234.656 20.1135V23.9999H233.382V17.4544H234.605V18.5198H234.686C234.836 18.1732 235.072 17.8948 235.393 17.6846C235.717 17.4743 236.125 17.3692 236.616 17.3692C237.062 17.3692 237.453 17.463 237.788 17.6505C238.123 17.8351 238.383 18.1107 238.568 18.4772C238.753 18.8436 238.845 19.2968 238.845 19.8365V23.9999H237.571V19.99C237.571 19.5155 237.447 19.1448 237.2 18.8777C236.953 18.6079 236.613 18.4729 236.182 18.4729C235.886 18.4729 235.623 18.5368 235.393 18.6647C235.166 18.7925 234.986 18.98 234.852 19.2272C234.721 19.4715 234.656 19.7669 234.656 20.1135Z" fill="white"/>
<path d="M221 41.3129V86.7763C221 92.5487 225.48 97.2336 231 97.2336C236.52 97.2336 241 92.5487 241 86.7763V41.3129C241 35.5404 236.52 30.8555 231 30.8555C225.48 30.8555 221 35.5404 221 41.3129Z" fill="#293238" stroke="#A7C3D4" stroke-width="2"/>
<g filter="url(#filter1_d_2902_8698)">
<path d="M221 40.4573V66.4294C221 72.2018 225.48 76.8867 231 76.8867C236.52 76.8867 241 72.2018 241 66.4294V40.4573C241 34.6849 236.52 30 231 30C225.48 30 221 34.6849 221 40.4573Z" fill="#455765"/>
<path d="M221.5 66.4294V40.4573C221.5 34.9397 225.777 30.5 231 30.5C236.223 30.5 240.5 34.9397 240.5 40.4573V66.4294C240.5 71.947 236.223 76.3867 231 76.3867C225.777 76.3867 221.5 71.947 221.5 66.4294Z" stroke="#A7C3D4"/>
</g>
<path d="M235.094 40.4492C235.094 42.6625 233.307 44.4492 231.094 44.4492C228.88 44.4492 227.094 42.6625 227.094 40.4492C227.094 38.2359 228.88 36.4492 231.094 36.4492C233.307 36.4492 235.094 38.2359 235.094 40.4492Z" fill="#DADADA"/>
<path d="M230.999 107.87C230.999 108.802 230.828 109.603 230.487 110.273C230.146 110.941 229.679 111.455 229.085 111.816C228.494 112.174 227.823 112.353 227.07 112.353C226.314 112.353 225.639 112.174 225.046 111.816C224.455 111.455 223.989 110.939 223.648 110.269C223.307 109.598 223.137 108.799 223.137 107.87C223.137 106.938 223.307 106.138 223.648 105.471C223.989 104.8 224.455 104.286 225.046 103.928C225.639 103.567 226.314 103.387 227.07 103.387C227.823 103.387 228.494 103.567 229.085 103.928C229.679 104.286 230.146 104.8 230.487 105.471C230.828 106.138 230.999 106.938 230.999 107.87ZM229.695 107.87C229.695 107.16 229.58 106.562 229.35 106.076C229.122 105.587 228.81 105.218 228.412 104.968C228.017 104.715 227.57 104.589 227.07 104.589C226.567 104.589 226.118 104.715 225.723 104.968C225.328 105.218 225.016 105.587 224.786 106.076C224.558 106.562 224.445 107.16 224.445 107.87C224.445 108.58 224.558 109.179 224.786 109.668C225.016 110.154 225.328 110.523 225.723 110.776C226.118 111.026 226.567 111.151 227.07 111.151C227.57 111.151 228.017 111.026 228.412 110.776C228.81 110.523 229.122 110.154 229.35 109.668C229.58 109.179 229.695 108.58 229.695 107.87ZM235.653 105.688V106.711H231.954V105.688H235.653ZM232.969 112.233V104.929C232.969 104.52 233.058 104.181 233.237 103.911C233.416 103.638 233.653 103.435 233.949 103.302C234.244 103.165 234.565 103.097 234.912 103.097C235.167 103.097 235.386 103.118 235.568 103.161C235.75 103.201 235.885 103.238 235.973 103.272L235.675 104.303C235.615 104.286 235.538 104.266 235.444 104.243C235.351 104.218 235.237 104.205 235.104 104.205C234.794 104.205 234.572 104.282 234.439 104.435C234.308 104.589 234.243 104.81 234.243 105.1V112.233H232.969ZM240.083 105.688V106.711H236.384V105.688H240.083ZM237.398 112.233V104.929C237.398 104.52 237.488 104.181 237.667 103.911C237.846 103.638 238.083 103.435 238.378 103.302C238.674 103.165 238.995 103.097 239.341 103.097C239.597 103.097 239.816 103.118 239.998 103.161C240.18 103.201 240.314 103.238 240.403 103.272L240.104 104.303C240.045 104.286 239.968 104.266 239.874 104.243C239.78 104.218 239.667 104.205 239.533 104.205C239.224 104.205 239.002 104.282 238.868 104.435C238.738 104.589 238.672 104.81 238.672 105.1V112.233H237.398Z" fill="white"/>
<defs>
<filter id="filter0_d_2902_8698" x="61.0886" y="106.849" width="15.1731" height="9.03223" filterUnits="userSpaceOnUse" color-interpolation-filters="sRGB">
<feFlood flood-opacity="0" result="BackgroundImageFix"/>
<feColorMatrix in="SourceAlpha" type="matrix" values="0 0 0 0 0 0 0 0 0 0 0 0 0 0 0 0 0 0 127 0" result="hardAlpha"/>
<feOffset/>
<feGaussianBlur stdDeviation="0.5"/>
<feComposite in2="hardAlpha" operator="out"/>
<feColorMatrix type="matrix" values="0 0 0 0 0 0 0 0 0 0 0 0 0 0 0 0 0 0 1 0"/>
<feBlend mode="normal" in2="BackgroundImageFix" result="effect1_dropShadow_2902_8698"/>
<feBlend mode="normal" in="SourceGraphic" in2="effect1_dropShadow_2902_8698" result="shape"/>
</filter>
<filter id="filter1_d_2902_8698" x="220" y="29" width="22" height="48.8867" filterUnits="userSpaceOnUse" color-interpolation-filters="sRGB">
<feFlood flood-opacity="0" result="BackgroundImageFix"/>
<feColorMatrix in="SourceAlpha" type="matrix" values="0 0 0 0 0 0 0 0 0 0 0 0 0 0 0 0 0 0 127 0" result="hardAlpha"/>
<feOffset/>
<feGaussianBlur stdDeviation="0.5"/>
<feComposite in2="hardAlpha" operator="out"/>
<feColorMatrix type="matrix" values="0 0 0 0 0 0 0 0 0 0 0 0 0 0 0 0 0 0 1 0"/>
<feBlend mode="normal" in2="BackgroundImageFix" result="effect1_dropShadow_2902_8698"/>
<feBlend mode="normal" in="SourceGraphic" in2="effect1_dropShadow_2902_8698" result="shape"/>
</filter>
<clipPath id="clip0_2902_8698">
<rect width="116" height="107" fill="white" transform="translate(21 21)"/>
</clipPath>
</defs>
</svg>
