<svg id="图层_1" data-name="图层 1" xmlns="http://www.w3.org/2000/svg" viewBox="0 0 16 16"><defs><style>.cls-1,.cls-2{fill:none;}.cls-2{stroke:#888d8e;stroke-miterlimit:10;stroke-width:0.25px;}.cls-3{fill:#888d8e;}</style></defs><title>disable</title><polygon class="cls-1" points="2.42 3.1 2.42 5.83 1.97 5.83 1.97 7.63 2.42 7.63 2.42 10.43 5.08 10.43 5.08 12.03 6.14 12.03 6.14 12.89 9.77 12.89 9.77 12.03 11.08 12.03 11.08 10.43 13.53 10.43 13.53 7.63 14.03 7.63 14 5.83 13.53 5.83 13.53 3.1 2.42 3.1"/><polygon class="cls-2" points="9.97 13.1 5.93 13.1 5.93 12.23 4.88 12.23 4.88 10.6 2.18 10.6 2.18 7.83 1.77 7.83 1.77 5.64 2.18 5.64 2.18 2.89 13.73 2.89 13.73 5.64 14.21 5.64 14.21 7.84 13.7 7.84 13.7 10.63 11.25 10.63 11.25 12.26 9.95 12.26 9.97 13.1"/><rect class="cls-3" x="3.59" y="4.08" width="0.38" height="3.34"/><rect class="cls-3" x="4.52" y="4.08" width="0.37" height="3.34"/><rect class="cls-3" x="5.47" y="4.08" width="0.38" height="3.34"/><rect class="cls-3" x="6.39" y="4.08" width="0.38" height="3.34"/><rect class="cls-3" x="7.34" y="4.08" width="0.37" height="3.34"/><rect class="cls-3" x="8.26" y="4.08" width="0.38" height="3.34"/><rect class="cls-3" x="9.21" y="4.08" width="0.38" height="3.34"/><rect class="cls-3" x="10.14" y="4.08" width="0.38" height="3.34"/><rect class="cls-3" x="11.1" y="4.08" width="0.38" height="3.34"/><rect class="cls-3" x="12.03" y="4.08" width="0.38" height="3.34"/></svg>