<?xml version="1.0" encoding="utf-8"?>
<svg version="1.1" xmlns="http://www.w3.org/2000/svg" xmlns:xlink="http://www.w3.org/1999/xlink" x="0px" y="0px"
	 viewBox="0 0 16 16" style="enable-background:new 0 0 16 16;" xml:space="preserve">
<style type="text/css">
	.st0{fill:#FC0;}
</style>
<path class="st0" d="M3.7,7.1H1.4C1,7.1,0.8,6.8,0.8,6.5V6c0-0.4,0.3-0.6,0.6-0.6h2.3c0.4,0,0.6,0.3,0.6,0.6v0.5
	C4.4,6.8,4.1,7.1,3.7,7.1z"/>
<path class="st0" d="M3.7,9.8H1.4C1,9.8,0.8,9.5,0.8,9.1V8.6C0.8,8.3,1,8,1.4,8h2.3c0.4,0,0.6,0.3,0.6,0.6v0.5
	C4.4,9.5,4.1,9.8,3.7,9.8z"/>
<path class="st0" d="M3.7,12.4H1.4c-0.4,0-0.6-0.3-0.6-0.6v-0.5c0-0.4,0.3-0.6,0.6-0.6h2.3c0.4,0,0.6,0.3,0.6,0.6v0.5
	C4.4,12.2,4.1,12.4,3.7,12.4z"/>
<path class="st0" d="M14.6,7.1h-2.3c-0.4,0-0.6-0.3-0.6-0.6V6c0-0.4,0.3-0.6,0.6-0.6h2.3c0.4,0,0.6,0.3,0.6,0.6v0.5
	C15.2,6.8,14.9,7.1,14.6,7.1z"/>
<path class="st0" d="M14.6,9.8h-2.3c-0.4,0-0.6-0.3-0.6-0.6V8.6c0-0.4,0.3-0.6,0.6-0.6h2.3c0.4,0,0.6,0.3,0.6,0.6v0.5
	C15.2,9.5,14.9,9.8,14.6,9.8z"/>
<path class="st0" d="M14.6,12.4h-2.3c-0.4,0-0.6-0.3-0.6-0.6v-0.5c0-0.4,0.3-0.6,0.6-0.6h2.3c0.4,0,0.6,0.3,0.6,0.6v0.5
	C15.2,12.2,14.9,12.4,14.6,12.4z"/>
<g>
	<ellipse transform="matrix(0.9435 -0.3315 0.3315 0.9435 -0.5546 1.9148)" class="st0" cx="5.3" cy="2.6" rx="1" ry="1.8"/>
	<ellipse transform="matrix(0.3315 -0.9435 0.9435 0.3315 4.6329 11.8378)" class="st0" cx="10.7" cy="2.6" rx="1.8" ry="1"/>
</g>
<path class="st0" d="M8.3,1.8H7.7c-2.3,0-4.2,2-4.2,4.5v4.2c0,2.6,1.9,4.6,4.2,4.6h0.5c2.3,0,4.2-2,4.2-4.5V6.3
	C12.4,3.8,10.6,1.8,8.3,1.8z M9.2,9.8H6.8c-0.3,0-0.4-0.2-0.4-0.4c0.1-0.3,0.3-0.4,0.4-0.4h2.4c0.3,0,0.4,0.2,0.4,0.4
	S9.4,9.8,9.2,9.8z M9.2,8H6.8C6.6,8,6.4,7.8,6.4,7.6s0.2-0.4,0.4-0.4h2.4c0.3,0,0.4,0.2,0.4,0.4S9.4,8,9.2,8z"/>
</svg>
