<svg data-name="" xmlns="http://www.w3.org/2000/svg" viewBox="0 0 16 16"><defs><style>.cls-1{fill:none;}.cls-2{fill:#797979;}</style></defs><title>02RECOUNT</title><path class="cls-1" d="M0,0H16V16H0Z"/><path class="cls-2" d="M8.77,1.23A6.73,6.73,0,0,0,2.15,6.61l-.77-1.1a.51.51,0,0,0-.83.58l1.54,2.2h0a.52.52,0,0,0,.13.11h0a.47.47,0,0,0,.43,0L5.14,7a.5.5,0,1,0-.51-.87L3.09,7a5.75,5.75,0,1,1,.71,3.85.5.5,0,1,0-.87.51h0A6.77,6.77,0,1,0,8.77,1.23Z"/><path class="cls-2" d="M6.69,8c0-2.14.8-3.17,2-3.17s2,1,2,3.17-.8,3.21-2,3.21S6.69,10.13,6.69,8ZM10,8c0-1.8-.5-2.55-1.24-2.55S7.49,6.19,7.49,8s.5,2.6,1.25,2.6S10,9.8,10,8Z"/></svg>