<svg width="377" height="362" viewBox="0 0 377 362" fill="none" xmlns="http://www.w3.org/2000/svg">
<rect width="377" height="362" fill="#1B272C"/>
<path d="M15.6925 131.299C17.0952 131.299 17.9602 130.594 17.9602 129.479V129.475C17.9602 128.599 17.442 128.123 16.2536 127.878L15.6574 127.757C14.995 127.621 14.7222 127.402 14.7222 127.036V127.032C14.7222 126.611 15.108 126.347 15.6886 126.343C16.2808 126.343 16.6705 126.623 16.7367 127.025L16.7445 127.071H17.8511L17.8472 127.021C17.7732 126.082 17.0017 125.388 15.6886 125.388C14.4417 125.388 13.5455 126.078 13.5455 127.122V127.126C13.5455 127.979 14.0482 128.525 15.2171 128.762L15.8094 128.883C16.5068 129.027 16.7835 129.234 16.7835 129.604V129.608C16.7835 130.04 16.351 130.34 15.7236 130.34C15.0651 130.34 14.6092 130.056 14.5664 129.635L14.5625 129.596H13.4286L13.4325 129.659C13.4988 130.656 14.3482 131.299 15.6925 131.299ZM20.1875 131.244C20.7992 131.244 21.2356 130.96 21.4305 130.492H21.5006V131.155H22.6384V126.865H21.5006V129.343C21.5006 129.923 21.1967 130.301 20.6356 130.301C20.0979 130.301 19.868 129.986 19.868 129.378V126.865H18.7302V129.639C18.7302 130.66 19.2251 131.244 20.1875 131.244ZM23.5876 131.155H24.7254V128.673C24.7254 128.092 25.0449 127.714 25.5709 127.714C26.1086 127.714 26.358 128.034 26.358 128.638V131.155H27.4958V128.38C27.4958 127.356 26.9814 126.771 26.0268 126.771C25.415 126.771 24.9903 127.063 24.7955 127.527H24.7254V126.865H23.5876V131.155Z" fill="white"/>
<path d="M13.6819 164.413H14.73V160.586H14.808L16.2497 164.413H16.9861L18.4278 160.586H18.5057V164.413H19.5539V158.79H18.2057L16.6549 162.905H16.5848L15.0301 158.79H13.6819V164.413ZM22.5215 164.502C23.8424 164.502 24.6373 163.668 24.6373 162.27V162.262C24.6373 160.875 23.8307 160.029 22.5215 160.029C21.2123 160.029 20.4057 160.878 20.4057 162.262V162.27C20.4057 163.664 21.2006 164.502 22.5215 164.502ZM22.5215 163.61C21.9136 163.61 21.5707 163.115 21.5707 162.27V162.262C21.5707 161.424 21.9175 160.921 22.5215 160.921C23.1215 160.921 23.4722 161.424 23.4722 162.262V162.27C23.4722 163.115 23.1254 163.61 22.5215 163.61ZM25.3722 164.413H26.5099V161.931C26.5099 161.35 26.8295 160.972 27.3555 160.972C27.8932 160.972 28.1426 161.292 28.1426 161.895V164.413H29.2803V161.638C29.2803 160.614 28.766 160.029 27.8114 160.029C27.1996 160.029 26.7749 160.321 26.5801 160.785H26.5099V160.123H25.3722V164.413Z" fill="white"/>
<path d="M16.0442 197.67H17.2209V193.018H18.9081V192.048H14.357V193.018H16.0442V197.67ZM20.6483 197.76C21.2601 197.76 21.6965 197.476 21.8913 197.008H21.9614V197.67H23.0992V193.38H21.9614V195.859C21.9614 196.439 21.6575 196.817 21.0964 196.817C20.5587 196.817 20.3288 196.501 20.3288 195.894V193.38H19.191V196.155C19.191 197.176 19.6859 197.76 20.6483 197.76ZM25.9343 197.76C27.189 197.76 27.7423 197.035 27.8748 196.498L27.8825 196.459H26.8227L26.811 196.482C26.7331 196.646 26.4564 196.911 25.9577 196.911C25.3537 196.911 24.9758 196.501 24.9641 195.796H27.9176V195.442C27.9176 194.144 27.1383 193.287 25.8875 193.287C24.6368 193.287 23.838 194.164 23.838 195.527V195.531C23.838 196.907 24.629 197.76 25.9343 197.76ZM25.907 194.14C26.4019 194.14 26.7565 194.46 26.8266 195.083H24.9758C25.0459 194.475 25.4122 194.14 25.907 194.14Z" fill="white"/>
<path d="M14.3249 235.506H28.7128" stroke="#2BA5FF" stroke-width="1.33" stroke-linecap="square"/>
<path d="M13.8313 230.928H14.9418L15.9939 227.14H16.0562L17.12 230.928H18.2227L19.715 225.305H18.4993L17.6304 229.322H17.5681L16.5238 225.305H15.5302L14.5054 229.322H14.4431L13.5664 225.305H12.3429L13.8313 230.928ZM21.8527 231.017C23.1073 231.017 23.6606 230.293 23.7931 229.755L23.8009 229.716H22.7411L22.7294 229.739C22.6515 229.903 22.3748 230.168 21.8761 230.168C21.2721 230.168 20.8941 229.759 20.8825 229.054H23.836V228.699C23.836 227.401 23.0567 226.544 21.8059 226.544C20.5551 226.544 19.7564 227.421 19.7564 228.785V228.789C19.7564 230.164 20.5474 231.017 21.8527 231.017ZM21.8254 227.398C22.3203 227.398 22.6748 227.717 22.745 228.34H20.8941C20.9643 227.733 21.3305 227.398 21.8254 227.398ZM26.1061 230.994C26.7101 230.994 27.166 230.725 27.3881 230.261H27.4582V230.928H28.596V224.997H27.4582V227.323H27.3881C27.1737 226.856 26.6945 226.568 26.1061 226.568C25.019 226.568 24.3644 227.398 24.3644 228.777V228.785C24.3644 230.156 25.0346 230.994 26.1061 230.994ZM26.4919 230.051C25.8918 230.051 25.5216 229.576 25.5216 228.785V228.777C25.5216 227.994 25.8918 227.511 26.4919 227.511C27.0919 227.511 27.4699 227.994 27.4699 228.781V228.789C27.4699 229.576 27.0958 230.051 26.4919 230.051Z" fill="white"/>
<path d="M16.0442 265.136H17.2209V260.484H18.9081V259.514H14.357V260.484H16.0442V265.136ZM19.682 265.136H20.8197V262.654C20.8197 262.074 21.1393 261.696 21.6653 261.696C22.203 261.696 22.4524 262.015 22.4524 262.619V265.136H23.5901V262.362C23.5901 261.337 23.0758 260.753 22.1212 260.753C21.5094 260.753 21.0847 261.045 20.8899 261.509H20.8197V259.206H19.682V265.136ZM25.9187 265.226C26.5305 265.226 26.9669 264.941 27.1617 264.474H27.2318V265.136H28.3696V260.846H27.2318V263.324C27.2318 263.905 26.9279 264.283 26.3668 264.283C25.8291 264.283 25.5992 263.967 25.5992 263.359V260.846H24.4614V263.62C24.4614 264.641 24.9563 265.226 25.9187 265.226Z" fill="white"/>
<path d="M16.679 298.394H17.8557V296.181H20.1429V295.25H17.8557V293.742H20.3611V292.771H16.679V298.394ZM21.1428 298.394H22.2806V295.994C22.2806 295.386 22.6897 295.016 23.3365 295.016C23.5119 295.016 23.6872 295.043 23.8586 295.082V294.088C23.7456 294.057 23.5859 294.034 23.4339 294.034C22.8767 294.034 22.4871 294.307 22.3507 294.77H22.2806V294.104H21.1428V298.394ZM25.0066 293.446C25.3573 293.446 25.6456 293.165 25.6456 292.814C25.6456 292.46 25.3573 292.179 25.0066 292.179C24.6559 292.179 24.3637 292.46 24.3637 292.814C24.3637 293.165 24.6559 293.446 25.0066 293.446ZM24.4338 298.394H25.5716V294.104H24.4338V298.394Z" fill="white"/>
<path d="M17.6903 331.796C19.093 331.796 19.958 331.091 19.958 329.976V329.972C19.958 329.096 19.4398 328.62 18.2514 328.375L17.6552 328.254C16.9928 328.118 16.72 327.9 16.72 327.533V327.529C16.72 327.109 17.1058 326.844 17.6864 326.84C18.2786 326.84 18.6683 327.12 18.7345 327.522L18.7423 327.568H19.8489L19.845 327.518C19.771 326.579 18.9995 325.885 17.6864 325.885C16.4395 325.885 15.5433 326.575 15.5433 327.619V327.623C15.5433 328.476 16.046 329.022 17.2149 329.259L17.8072 329.38C18.5046 329.524 18.7813 329.731 18.7813 330.101V330.105C18.7813 330.537 18.3488 330.837 17.7214 330.837C17.0629 330.837 16.6071 330.553 16.5642 330.132L16.5603 330.093H15.4264L15.4303 330.156C15.4966 331.153 16.346 331.796 17.6903 331.796ZM21.8736 331.718C22.4347 331.718 22.8867 331.48 23.1049 331.083H23.175V331.652H24.2972V328.722C24.2972 327.806 23.6543 327.268 22.5165 327.268C21.4372 327.268 20.728 327.767 20.6384 328.519L20.6345 328.554H21.6865L21.6943 328.539C21.7839 328.285 22.045 328.141 22.4541 328.141C22.9217 328.141 23.175 328.352 23.175 328.722V329.076L22.1385 329.139C21.0709 329.201 20.4747 329.653 20.4747 330.424V330.432C20.4747 331.212 21.0553 331.718 21.8736 331.718ZM21.5852 330.362V330.354C21.5852 330.043 21.8229 329.859 22.31 329.828L23.175 329.774V330.089C23.175 330.541 22.7814 330.888 22.2554 330.888C21.8619 330.888 21.5852 330.689 21.5852 330.362ZM26.9998 331.667C27.218 331.667 27.4284 331.644 27.5687 331.617V330.771C27.4596 330.783 27.3817 330.791 27.2336 330.791C26.8478 330.791 26.6842 330.619 26.6842 330.234V328.219H27.5687V327.362H26.6842V326.337H25.5347V327.362H24.8723V328.219H25.5347V330.495C25.5347 331.328 25.9556 331.667 26.9998 331.667Z" fill="white"/>
<rect x="37.9314" y="116.503" width="316.974" height="21.9501" fill="#5C6B70"/>
<path d="M91.1871 117.168V138.453" stroke="#797B7C" stroke-width="0.665" stroke-linecap="square"/>
<path d="M143.906 117.168V138.453" stroke="#797B7C" stroke-width="0.665" stroke-linecap="square"/>
<path d="M196.624 117.168V138.453" stroke="#797B7C" stroke-width="0.665" stroke-linecap="square"/>
<path d="M249.342 117.168V138.453" stroke="#797B7C" stroke-width="0.665" stroke-linecap="square"/>
<path d="M302.06 117.168V138.453" stroke="#797B7C" stroke-width="0.665" stroke-linecap="square"/>
<rect x="37.9314" y="149.761" width="316.974" height="21.9501" fill="#5C6B70"/>
<path d="M91.1871 150.426V171.711" stroke="#797B7C" stroke-width="0.665" stroke-linecap="square"/>
<path d="M143.906 150.426V171.711" stroke="#797B7C" stroke-width="0.665" stroke-linecap="square"/>
<path d="M196.624 150.426V171.711" stroke="#797B7C" stroke-width="0.665" stroke-linecap="square"/>
<path d="M249.342 150.426V171.711" stroke="#797B7C" stroke-width="0.665" stroke-linecap="square"/>
<path d="M302.06 150.426V171.711" stroke="#797B7C" stroke-width="0.665" stroke-linecap="square"/>
<rect x="37.9314" y="183.019" width="316.974" height="21.9501" fill="#5C6B70"/>
<path d="M91.1871 183.684V204.969" stroke="#797B7C" stroke-width="0.665" stroke-linecap="square"/>
<path d="M143.906 183.684V204.969" stroke="#797B7C" stroke-width="0.665" stroke-linecap="square"/>
<path d="M196.624 183.684V204.969" stroke="#797B7C" stroke-width="0.665" stroke-linecap="square"/>
<path d="M249.342 183.684V204.969" stroke="#797B7C" stroke-width="0.665" stroke-linecap="square"/>
<path d="M302.06 183.684V204.969" stroke="#797B7C" stroke-width="0.665" stroke-linecap="square"/>
<rect x="37.9314" y="216.276" width="316.974" height="21.9501" fill="#5C6B70"/>
<path d="M91.1871 216.941V238.226" stroke="#797B7C" stroke-width="0.665" stroke-linecap="square"/>
<path d="M143.906 216.941V238.226" stroke="#797B7C" stroke-width="0.665" stroke-linecap="square"/>
<path d="M196.624 216.941V238.226" stroke="#797B7C" stroke-width="0.665" stroke-linecap="square"/>
<path d="M249.342 216.941V238.226" stroke="#797B7C" stroke-width="0.665" stroke-linecap="square"/>
<path d="M302.06 216.941V238.226" stroke="#797B7C" stroke-width="0.665" stroke-linecap="square"/>
<rect x="37.9314" y="249.534" width="316.974" height="21.9501" fill="#5C6B70"/>
<path d="M91.1871 250.199V271.484" stroke="#797B7C" stroke-width="0.665" stroke-linecap="square"/>
<path d="M143.906 250.199V271.484" stroke="#797B7C" stroke-width="0.665" stroke-linecap="square"/>
<path d="M196.624 250.199V271.484" stroke="#797B7C" stroke-width="0.665" stroke-linecap="square"/>
<path d="M249.342 250.199V271.484" stroke="#797B7C" stroke-width="0.665" stroke-linecap="square"/>
<path d="M302.06 250.199V271.484" stroke="#797B7C" stroke-width="0.665" stroke-linecap="square"/>
<rect x="37.9314" y="282.792" width="316.974" height="21.9501" fill="#5C6B70"/>
<path d="M91.1871 283.457V304.742" stroke="#797B7C" stroke-width="0.665" stroke-linecap="square"/>
<path d="M143.906 283.457V304.742" stroke="#797B7C" stroke-width="0.665" stroke-linecap="square"/>
<path d="M196.624 283.457V304.742" stroke="#797B7C" stroke-width="0.665" stroke-linecap="square"/>
<path d="M249.342 283.457V304.742" stroke="#797B7C" stroke-width="0.665" stroke-linecap="square"/>
<path d="M302.06 283.457V304.742" stroke="#797B7C" stroke-width="0.665" stroke-linecap="square"/>
<rect x="37.9812" y="316.05" width="316.974" height="21.9501" fill="#5C6B70"/>
<path d="M91.2369 316.715V338" stroke="#797B7C" stroke-width="0.665" stroke-linecap="square"/>
<path d="M143.955 316.715V338" stroke="#797B7C" stroke-width="0.665" stroke-linecap="square"/>
<path d="M196.673 316.715V338" stroke="#797B7C" stroke-width="0.665" stroke-linecap="square"/>
<path d="M249.392 316.715V338" stroke="#797B7C" stroke-width="0.665" stroke-linecap="square"/>
<path d="M302.11 316.715V338" stroke="#797B7C" stroke-width="0.665" stroke-linecap="square"/>
<path d="M40.0907 110.114C41.1687 110.114 41.8214 109.169 41.8214 107.659V107.652C41.8214 106.142 41.1687 105.201 40.0907 105.201C39.0094 105.201 38.36 106.142 38.36 107.652V107.659C38.36 109.169 39.0094 110.114 40.0907 110.114ZM40.0907 109.51C39.4608 109.51 39.0938 108.805 39.0938 107.659V107.652C39.0938 106.506 39.4608 105.808 40.0907 105.808C40.7174 105.808 41.0875 106.506 41.0875 107.652V107.659C41.0875 108.805 40.7174 109.51 40.0907 109.51ZM44.0846 105.159C43.526 105.159 43.0938 105.392 42.7879 105.864C42.5086 106.296 42.3689 106.881 42.3689 107.626C42.3689 108.364 42.5086 108.949 42.7879 109.388C43.0938 109.854 43.526 110.093 44.0846 110.093C44.6432 110.093 45.0755 109.854 45.3814 109.388C45.6607 108.949 45.8003 108.357 45.8003 107.626C45.8003 106.888 45.6607 106.303 45.3814 105.864C45.0755 105.392 44.6432 105.159 44.0846 105.159ZM44.0846 105.771C44.4703 105.771 44.7496 105.983 44.9092 106.416C45.0223 106.708 45.0821 107.114 45.0821 107.626C45.0821 108.131 45.0223 108.537 44.9092 108.836C44.7496 109.262 44.4703 109.481 44.0846 109.481C43.6923 109.481 43.4196 109.262 43.26 108.836C43.1403 108.537 43.0871 108.131 43.0871 107.626C43.0871 107.114 43.1403 106.708 43.26 106.416C43.4196 105.983 43.6923 105.771 44.0846 105.771ZM46.821 106.589C46.6747 106.589 46.5617 106.635 46.4752 106.735C46.3755 106.828 46.3289 106.948 46.3289 107.087C46.3289 107.22 46.3755 107.34 46.4752 107.44C46.5617 107.533 46.6747 107.579 46.821 107.579C46.954 107.579 47.0737 107.533 47.1735 107.44C47.2666 107.34 47.3198 107.22 47.3198 107.087C47.3198 106.948 47.2666 106.828 47.1735 106.735C47.0737 106.635 46.954 106.589 46.821 106.589ZM46.821 109.022C46.6747 109.022 46.5617 109.069 46.4752 109.169C46.3755 109.262 46.3289 109.382 46.3289 109.521C46.3289 109.654 46.3755 109.774 46.4752 109.874C46.5617 109.967 46.6747 110.013 46.821 110.013C46.954 110.013 47.0737 109.967 47.1735 109.874C47.2666 109.774 47.3198 109.654 47.3198 109.521C47.3198 109.382 47.2666 109.262 47.1735 109.169C47.0737 109.069 46.954 109.022 46.821 109.022ZM49.5631 105.159C49.0045 105.159 48.5723 105.392 48.2664 105.864C47.9871 106.296 47.8474 106.881 47.8474 107.626C47.8474 108.364 47.9871 108.949 48.2664 109.388C48.5723 109.854 49.0045 110.093 49.5631 110.093C50.1217 110.093 50.554 109.854 50.8599 109.388C51.1392 108.949 51.2788 108.357 51.2788 107.626C51.2788 106.888 51.1392 106.303 50.8599 105.864C50.554 105.392 50.1217 105.159 49.5631 105.159ZM49.5631 105.771C49.9488 105.771 50.2281 105.983 50.3877 106.416C50.5008 106.708 50.5606 107.114 50.5606 107.626C50.5606 108.131 50.5008 108.537 50.3877 108.836C50.2281 109.262 49.9488 109.481 49.5631 109.481C49.1708 109.481 48.8981 109.262 48.7385 108.836C48.6188 108.537 48.5656 108.131 48.5656 107.626C48.5656 107.114 48.6188 106.708 48.7385 106.416C48.8981 105.983 49.1708 105.771 49.5631 105.771ZM53.3901 105.159C52.8315 105.159 52.3993 105.392 52.0934 105.864C51.8141 106.296 51.6744 106.881 51.6744 107.626C51.6744 108.364 51.8141 108.949 52.0934 109.388C52.3993 109.854 52.8315 110.093 53.3901 110.093C53.9487 110.093 54.381 109.854 54.6869 109.388C54.9662 108.949 55.1058 108.357 55.1058 107.626C55.1058 106.888 54.9662 106.303 54.6869 105.864C54.381 105.392 53.9487 105.159 53.3901 105.159ZM53.3901 105.771C53.7758 105.771 54.0551 105.983 54.2147 106.416C54.3278 106.708 54.3876 107.114 54.3876 107.626C54.3876 108.131 54.3278 108.537 54.2147 108.836C54.0551 109.262 53.7758 109.481 53.3901 109.481C52.9978 109.481 52.7251 109.262 52.5655 108.836C52.4458 108.537 52.3926 108.131 52.3926 107.626C52.3926 107.114 52.4458 106.708 52.5655 106.416C52.7251 105.983 52.9978 105.771 53.3901 105.771Z" fill="white"/>
<path d="M84.7079 110.114C85.7859 110.114 86.4386 109.169 86.4386 107.659V107.652C86.4386 106.142 85.7859 105.201 84.7079 105.201C83.6266 105.201 82.9772 106.142 82.9772 107.652V107.659C82.9772 109.169 83.6266 110.114 84.7079 110.114ZM84.7079 109.51C84.078 109.51 83.711 108.805 83.711 107.659V107.652C83.711 106.506 84.078 105.808 84.7079 105.808C85.3346 105.808 85.7047 106.506 85.7047 107.652V107.659C85.7047 108.805 85.3346 109.51 84.7079 109.51ZM89.3629 110H90.0643V109.068H90.7104V108.451H90.0643V105.314H89.0285C88.3823 106.285 87.6939 107.393 87.077 108.451V109.068H89.3629V110ZM87.7751 108.464V108.419C88.2557 107.597 88.8271 106.685 89.3304 105.928H89.3726V108.464H87.7751ZM91.9788 106.902C92.2483 106.902 92.4528 106.691 92.4528 106.428C92.4528 106.162 92.2483 105.954 91.9788 105.954C91.7093 105.954 91.5015 106.162 91.5015 106.428C91.5015 106.691 91.7093 106.902 91.9788 106.902ZM91.9788 109.357C92.2483 109.357 92.4528 109.146 92.4528 108.883C92.4528 108.617 92.2483 108.409 91.9788 108.409C91.7093 108.409 91.5015 108.617 91.5015 108.883C91.5015 109.146 91.7093 109.357 91.9788 109.357ZM95.007 110.114C96.085 110.114 96.7377 109.169 96.7377 107.659V107.652C96.7377 106.142 96.085 105.201 95.007 105.201C93.9257 105.201 93.2763 106.142 93.2763 107.652V107.659C93.2763 109.169 93.9257 110.114 95.007 110.114ZM95.007 109.51C94.3771 109.51 94.0102 108.805 94.0102 107.659V107.652C94.0102 106.506 94.3771 105.808 95.007 105.808C95.6337 105.808 96.0039 106.506 96.0039 107.652V107.659C96.0039 108.805 95.6337 109.51 95.007 109.51ZM99.1652 110.114C100.243 110.114 100.896 109.169 100.896 107.659V107.652C100.896 106.142 100.243 105.201 99.1652 105.201C98.084 105.201 97.4345 106.142 97.4345 107.652V107.659C97.4345 109.169 98.084 110.114 99.1652 110.114ZM99.1652 109.51C98.5353 109.51 98.1684 108.805 98.1684 107.659V107.652C98.1684 106.506 98.5353 105.808 99.1652 105.808C99.7919 105.808 100.162 106.506 100.162 107.652V107.659C100.162 108.805 99.7919 109.51 99.1652 109.51Z" fill="white"/>
<path d="M137.869 110.114C138.947 110.114 139.6 109.169 139.6 107.659V107.652C139.6 106.142 138.947 105.201 137.869 105.201C136.788 105.201 136.139 106.142 136.139 107.652V107.659C136.139 109.169 136.788 110.114 137.869 110.114ZM137.869 109.51C137.239 109.51 136.872 108.805 136.872 107.659V107.652C136.872 106.506 137.239 105.808 137.869 105.808C138.496 105.808 138.866 106.506 138.866 107.652V107.659C138.866 108.805 138.496 109.51 137.869 109.51ZM142.057 110.088C143.099 110.088 143.833 109.529 143.833 108.734V108.727C143.833 108.136 143.407 107.665 142.794 107.532V107.516C143.32 107.367 143.661 106.974 143.661 106.477V106.47C143.661 105.753 142.992 105.227 142.057 105.227C141.125 105.227 140.453 105.753 140.453 106.47V106.477C140.453 106.974 140.797 107.367 141.323 107.516V107.532C140.709 107.665 140.284 108.136 140.284 108.727V108.734C140.284 109.529 141.018 110.088 142.057 110.088ZM142.057 107.272C141.534 107.272 141.174 106.967 141.174 106.539V106.532C141.174 106.104 141.534 105.805 142.057 105.805C142.579 105.805 142.94 106.104 142.94 106.532V106.539C142.94 106.967 142.583 107.272 142.057 107.272ZM142.057 109.503C141.459 109.503 141.034 109.162 141.034 108.688V108.682C141.034 108.201 141.456 107.854 142.057 107.854C142.661 107.854 143.083 108.201 143.083 108.682V108.688C143.083 109.162 142.657 109.503 142.057 109.503ZM145.14 106.902C145.41 106.902 145.614 106.691 145.614 106.428C145.614 106.162 145.41 105.954 145.14 105.954C144.871 105.954 144.663 106.162 144.663 106.428C144.663 106.691 144.871 106.902 145.14 106.902ZM145.14 109.357C145.41 109.357 145.614 109.146 145.614 108.883C145.614 108.617 145.41 108.409 145.14 108.409C144.871 108.409 144.663 108.617 144.663 108.883C144.663 109.146 144.871 109.357 145.14 109.357ZM148.168 110.114C149.246 110.114 149.899 109.169 149.899 107.659V107.652C149.899 106.142 149.246 105.201 148.168 105.201C147.087 105.201 146.438 106.142 146.438 107.652V107.659C146.438 109.169 147.087 110.114 148.168 110.114ZM148.168 109.51C147.538 109.51 147.172 108.805 147.172 107.659V107.652C147.172 106.506 147.538 105.808 148.168 105.808C148.795 105.808 149.165 106.506 149.165 107.652V107.659C149.165 108.805 148.795 109.51 148.168 109.51ZM152.327 110.114C153.405 110.114 154.057 109.169 154.057 107.659V107.652C154.057 106.142 153.405 105.201 152.327 105.201C151.245 105.201 150.596 106.142 150.596 107.652V107.659C150.596 109.169 151.245 110.114 152.327 110.114ZM152.327 109.51C151.697 109.51 151.33 108.805 151.33 107.659V107.652C151.33 106.506 151.697 105.808 152.327 105.808C152.953 105.808 153.323 106.506 153.323 107.652V107.659C153.323 108.805 152.953 109.51 152.327 109.51Z" fill="white"/>
<path d="M190.524 110H191.251V105.314H190.524L189.29 106.191V106.906L190.469 106.065H190.524V110ZM192.419 110H195.575V109.38H193.409V109.315L194.403 108.325C195.254 107.48 195.5 107.071 195.5 106.539V106.529C195.5 105.756 194.857 105.201 193.984 105.201C193.042 105.201 192.38 105.805 192.377 106.662L192.383 106.669H193.065L193.068 106.659C193.068 106.146 193.419 105.802 193.945 105.802C194.458 105.802 194.773 106.139 194.773 106.597V106.607C194.773 106.987 194.594 107.227 193.974 107.873L192.419 109.506V110ZM196.912 106.902C197.181 106.902 197.386 106.691 197.386 106.428C197.386 106.162 197.181 105.954 196.912 105.954C196.642 105.954 196.434 106.162 196.434 106.428C196.434 106.691 196.642 106.902 196.912 106.902ZM196.912 109.357C197.181 109.357 197.386 109.146 197.386 108.883C197.386 108.617 197.181 108.409 196.912 108.409C196.642 108.409 196.434 108.617 196.434 108.883C196.434 109.146 196.642 109.357 196.912 109.357ZM199.94 110.114C201.018 110.114 201.67 109.169 201.67 107.659V107.652C201.67 106.142 201.018 105.201 199.94 105.201C198.859 105.201 198.209 106.142 198.209 107.652V107.659C198.209 109.169 198.859 110.114 199.94 110.114ZM199.94 109.51C199.31 109.51 198.943 108.805 198.943 107.659V107.652C198.943 106.506 199.31 105.808 199.94 105.808C200.566 105.808 200.937 106.506 200.937 107.652V107.659C200.937 108.805 200.566 109.51 199.94 109.51ZM204.098 110.114C205.176 110.114 205.829 109.169 205.829 107.659V107.652C205.829 106.142 205.176 105.201 204.098 105.201C203.017 105.201 202.367 106.142 202.367 107.652V107.659C202.367 109.169 203.017 110.114 204.098 110.114ZM204.098 109.51C203.468 109.51 203.101 108.805 203.101 107.659V107.652C203.101 106.506 203.468 105.808 204.098 105.808C204.725 105.808 205.095 106.506 205.095 107.652V107.659C205.095 108.805 204.725 109.51 204.098 109.51Z" fill="white"/>
<path d="M241.787 110H242.514V105.314H241.787L240.553 106.191V106.906L241.731 106.065H241.787V110ZM245.412 110.114C246.396 110.114 247.107 109.425 247.107 108.484V108.477C247.107 107.581 246.468 106.919 245.575 106.919C244.935 106.919 244.513 107.253 244.341 107.63H244.279C244.279 107.594 244.279 107.558 244.282 107.522C244.318 106.587 244.646 105.818 245.435 105.818C245.877 105.818 246.182 106.045 246.312 106.402L246.325 106.435H247.046L247.039 106.396C246.883 105.688 246.266 105.201 245.438 105.201C244.279 105.201 243.587 106.136 243.587 107.721V107.727C243.587 109.451 244.471 110.114 245.412 110.114ZM244.422 108.484V108.48C244.422 107.915 244.851 107.506 245.412 107.506C245.98 107.506 246.39 107.922 246.39 108.497V108.503C246.39 109.065 245.955 109.503 245.406 109.503C244.854 109.503 244.422 109.055 244.422 108.484ZM248.415 106.902C248.684 106.902 248.889 106.691 248.889 106.428C248.889 106.162 248.684 105.954 248.415 105.954C248.145 105.954 247.937 106.162 247.937 106.428C247.937 106.691 248.145 106.902 248.415 106.902ZM248.415 109.357C248.684 109.357 248.889 109.146 248.889 108.883C248.889 108.617 248.684 108.409 248.415 108.409C248.145 108.409 247.937 108.617 247.937 108.883C247.937 109.146 248.145 109.357 248.415 109.357ZM251.443 110.114C252.521 110.114 253.173 109.169 253.173 107.659V107.652C253.173 106.142 252.521 105.201 251.443 105.201C250.361 105.201 249.712 106.142 249.712 107.652V107.659C249.712 109.169 250.361 110.114 251.443 110.114ZM251.443 109.51C250.813 109.51 250.446 108.805 250.446 107.659V107.652C250.446 106.506 250.813 105.808 251.443 105.808C252.069 105.808 252.44 106.506 252.44 107.652V107.659C252.44 108.805 252.069 109.51 251.443 109.51ZM255.601 110.114C256.679 110.114 257.332 109.169 257.332 107.659V107.652C257.332 106.142 256.679 105.201 255.601 105.201C254.52 105.201 253.87 106.142 253.87 107.652V107.659C253.87 109.169 254.52 110.114 255.601 110.114ZM255.601 109.51C254.971 109.51 254.604 108.805 254.604 107.659V107.652C254.604 106.506 254.971 105.808 255.601 105.808C256.228 105.808 256.598 106.506 256.598 107.652V107.659C256.598 108.805 256.228 109.51 255.601 109.51Z" fill="white"/>
<path d="M292.852 110H296.008V109.38H293.843V109.315L294.836 108.325C295.687 107.48 295.934 107.071 295.934 106.539V106.529C295.934 105.756 295.291 105.201 294.417 105.201C293.476 105.201 292.813 105.805 292.81 106.662L292.817 106.669H293.498L293.502 106.659C293.502 106.146 293.852 105.802 294.378 105.802C294.891 105.802 295.206 106.139 295.206 106.597V106.607C295.206 106.987 295.028 107.227 294.408 107.873L292.852 109.506V110ZM298.455 110.114C299.533 110.114 300.186 109.169 300.186 107.659V107.652C300.186 106.142 299.533 105.201 298.455 105.201C297.374 105.201 296.725 106.142 296.725 107.652V107.659C296.725 109.169 297.374 110.114 298.455 110.114ZM298.455 109.51C297.825 109.51 297.459 108.805 297.459 107.659V107.652C297.459 106.506 297.825 105.808 298.455 105.808C299.082 105.808 299.452 106.506 299.452 107.652V107.659C299.452 108.805 299.082 109.51 298.455 109.51ZM301.484 106.902C301.753 106.902 301.958 106.691 301.958 106.428C301.958 106.162 301.753 105.954 301.484 105.954C301.214 105.954 301.006 106.162 301.006 106.428C301.006 106.691 301.214 106.902 301.484 106.902ZM301.484 109.357C301.753 109.357 301.958 109.146 301.958 108.883C301.958 108.617 301.753 108.409 301.484 108.409C301.214 108.409 301.006 108.617 301.006 108.883C301.006 109.146 301.214 109.357 301.484 109.357ZM304.512 110.114C305.59 110.114 306.243 109.169 306.243 107.659V107.652C306.243 106.142 305.59 105.201 304.512 105.201C303.431 105.201 302.781 106.142 302.781 107.652V107.659C302.781 109.169 303.431 110.114 304.512 110.114ZM304.512 109.51C303.882 109.51 303.515 108.805 303.515 107.659V107.652C303.515 106.506 303.882 105.808 304.512 105.808C305.139 105.808 305.509 106.506 305.509 107.652V107.659C305.509 108.805 305.139 109.51 304.512 109.51ZM308.67 110.114C309.748 110.114 310.401 109.169 310.401 107.659V107.652C310.401 106.142 309.748 105.201 308.67 105.201C307.589 105.201 306.939 106.142 306.939 107.652V107.659C306.939 109.169 307.589 110.114 308.67 110.114ZM308.67 109.51C308.04 109.51 307.673 108.805 307.673 107.659V107.652C307.673 106.506 308.04 105.808 308.67 105.808C309.297 105.808 309.667 106.506 309.667 107.652V107.659C309.667 108.805 309.297 109.51 308.67 109.51Z" fill="white"/>
<path d="M336.52 110H339.677V109.38H337.511V109.315L338.504 108.325C339.355 107.48 339.602 107.071 339.602 106.539V106.529C339.602 105.756 338.959 105.201 338.086 105.201C337.144 105.201 336.481 105.805 336.478 106.662L336.485 106.669H337.167L337.17 106.659C337.17 106.146 337.521 105.802 338.047 105.802C338.56 105.802 338.875 106.139 338.875 106.597V106.607C338.875 106.987 338.696 107.227 338.076 107.873L336.52 109.506V110ZM342.536 110H343.237V109.068H343.884V108.451H343.237V105.314H342.202C341.555 106.285 340.867 107.393 340.25 108.451V109.068H342.536V110ZM340.948 108.464V108.419C341.429 107.597 342 106.685 342.504 105.928H342.546V108.464H340.948ZM345.152 106.902C345.421 106.902 345.626 106.691 345.626 106.428C345.626 106.162 345.421 105.954 345.152 105.954C344.882 105.954 344.675 106.162 344.675 106.428C344.675 106.691 344.882 106.902 345.152 106.902ZM345.152 109.357C345.421 109.357 345.626 109.146 345.626 108.883C345.626 108.617 345.421 108.409 345.152 108.409C344.882 108.409 344.675 108.617 344.675 108.883C344.675 109.146 344.882 109.357 345.152 109.357ZM348.18 110.114C349.258 110.114 349.911 109.169 349.911 107.659V107.652C349.911 106.142 349.258 105.201 348.18 105.201C347.099 105.201 346.449 106.142 346.449 107.652V107.659C346.449 109.169 347.099 110.114 348.18 110.114ZM348.18 109.51C347.55 109.51 347.183 108.805 347.183 107.659V107.652C347.183 106.506 347.55 105.808 348.18 105.808C348.807 105.808 349.177 106.506 349.177 107.652V107.659C349.177 108.805 348.807 109.51 348.18 109.51ZM352.338 110.114C353.416 110.114 354.069 109.169 354.069 107.659V107.652C354.069 106.142 353.416 105.201 352.338 105.201C351.257 105.201 350.608 106.142 350.608 107.652V107.659C350.608 109.169 351.257 110.114 352.338 110.114ZM352.338 109.51C351.708 109.51 351.341 108.805 351.341 107.659V107.652C351.341 106.506 351.708 105.808 352.338 105.808C352.965 105.808 353.335 106.506 353.335 107.652V107.659C353.335 108.805 352.965 109.51 352.338 109.51Z" fill="white"/>
<circle cx="225.5" cy="223.5" r="12.5" fill="#0091FF" fill-opacity="0.5"/>
<circle cx="225.5" cy="223.5" r="6.5" fill="#0091FF"/>
<circle cx="343" cy="79" r="10" stroke="#C4C4C4"/>
<path d="M339.21 78.4888H346.822C347.547 78.4888 347.912 78.1328 347.912 77.4077V75.6982C347.912 74.9775 347.547 74.6216 346.822 74.6216H339.21C338.485 74.6216 338.121 74.9775 338.121 75.6982V77.4077C338.121 78.1328 338.485 78.4888 339.21 78.4888ZM339.316 77.667C339.074 77.667 338.947 77.5396 338.947 77.2891V75.8213C338.947 75.5664 339.074 75.4434 339.316 75.4434H346.712C346.958 75.4434 347.085 75.5664 347.085 75.8213V77.2891C347.085 77.5396 346.958 77.667 346.712 77.667H339.316ZM339.21 83.0459H346.822C347.547 83.0459 347.912 82.6899 347.912 81.9648V80.2554C347.912 79.5347 347.547 79.1787 346.822 79.1787H339.21C338.485 79.1787 338.121 79.5347 338.121 80.2554V81.9648C338.121 82.6899 338.485 83.0459 339.21 83.0459ZM339.316 82.2197C339.074 82.2197 338.947 82.0967 338.947 81.8462V80.3784C338.947 80.1235 339.074 80.0005 339.316 80.0005H346.712C346.958 80.0005 347.085 80.1235 347.085 80.3784V81.8462C347.085 82.0967 346.958 82.2197 346.712 82.2197H339.316Z" fill="#C4C4C4"/>
<circle cx="315" cy="79" r="10" stroke="#C4C4C4"/>
<path d="M310.37 79.1221C310.37 79.4551 310.644 79.7236 310.971 79.7236H314.264V83.0161C314.264 83.3438 314.538 83.6177 314.865 83.6177C315.193 83.6177 315.467 83.3438 315.467 83.0161V79.7236H318.759C319.087 79.7236 319.361 79.4551 319.361 79.1221C319.361 78.7944 319.087 78.5205 318.759 78.5205H315.467V75.228C315.467 74.9004 315.193 74.6265 314.865 74.6265C314.538 74.6265 314.264 74.9004 314.264 75.228V78.5205H310.971C310.644 78.5205 310.37 78.7944 310.37 79.1221Z" fill="#C4C4C4"/>
</svg>
