<svg width="377" height="362" viewBox="0 0 377 362" fill="none" xmlns="http://www.w3.org/2000/svg">
<rect width="377" height="362" fill="#1B272C"/>
<circle cx="343" cy="79" r="10" stroke="#C4C4C4"/>
<path d="M338.127 77.5869C338.541 77.5869 338.879 77.2485 338.879 76.8296C338.879 76.416 338.541 76.0776 338.127 76.0776C337.708 76.0776 337.37 76.416 337.37 76.8296C337.37 77.2485 337.708 77.5869 338.127 77.5869ZM340.635 77.3398H347.935C348.219 77.3398 348.445 77.1143 348.445 76.8296C348.445 76.5449 348.219 76.3193 347.935 76.3193H340.635C340.351 76.3193 340.125 76.5449 340.125 76.8296C340.125 77.1143 340.351 77.3398 340.635 77.3398ZM338.127 80.8848C338.541 80.8848 338.879 80.5464 338.879 80.1274C338.879 79.7139 338.541 79.3755 338.127 79.3755C337.708 79.3755 337.37 79.7139 337.37 80.1274C337.37 80.5464 337.708 80.8848 338.127 80.8848ZM340.635 80.6377H347.935C348.219 80.6377 348.445 80.4121 348.445 80.1274C348.445 79.8428 348.219 79.6172 347.935 79.6172H340.635C340.351 79.6172 340.125 79.8428 340.125 80.1274C340.125 80.4121 340.351 80.6377 340.635 80.6377ZM338.127 84.1826C338.541 84.1826 338.879 83.8442 338.879 83.4253C338.879 83.0117 338.541 82.6733 338.127 82.6733C337.708 82.6733 337.37 83.0117 337.37 83.4253C337.37 83.8442 337.708 84.1826 338.127 84.1826ZM340.635 83.9355H347.935C348.219 83.9355 348.445 83.71 348.445 83.4253C348.445 83.1406 348.219 82.915 347.935 82.915H340.635C340.351 82.915 340.125 83.1406 340.125 83.4253C340.125 83.71 340.351 83.9355 340.635 83.9355Z" fill="#C4C4C4"/>
<circle cx="342.5" cy="69.5" r="12.5" fill="#0091FF" fill-opacity="0.5"/>
<circle cx="342.5" cy="69.5" r="6.5" fill="#0091FF"/>
<circle cx="315" cy="79" r="10" stroke="#C4C4C4"/>
<path d="M310.37 79.1221C310.37 79.4551 310.644 79.7236 310.971 79.7236H314.264V83.0161C314.264 83.3438 314.538 83.6177 314.865 83.6177C315.193 83.6177 315.467 83.3438 315.467 83.0161V79.7236H318.759C319.087 79.7236 319.361 79.4551 319.361 79.1221C319.361 78.7944 319.087 78.5205 318.759 78.5205H315.467V75.228C315.467 74.9004 315.193 74.6265 314.865 74.6265C314.538 74.6265 314.264 74.9004 314.264 75.228V78.5205H310.971C310.644 78.5205 310.37 78.7944 310.37 79.1221Z" fill="#C4C4C4"/>
<path d="M35.5371 144H36.7969L38.6191 137.625H38.6484L40.4648 144H41.7246L44.0098 135.545H42.6445L41.0684 142.172H41.0391L39.252 135.545H38.0098L36.2227 142.172H36.1992L34.623 135.545H33.2578L35.5371 144ZM46.8633 144.123C48.3574 144.123 49.3066 143.232 49.5059 142.254L49.5176 142.189H48.3164L48.2988 142.236C48.1406 142.699 47.6426 143.086 46.8926 143.086C45.8848 143.086 45.2461 142.406 45.2227 141.24H49.5879V140.812C49.5879 138.961 48.5273 137.719 46.7988 137.719C45.0703 137.719 43.957 139.008 43.957 140.936V140.941C43.957 142.887 45.0527 144.123 46.8633 144.123ZM46.8047 138.756C47.6309 138.756 48.2285 139.277 48.334 140.344H45.2402C45.3516 139.312 45.9844 138.756 46.8047 138.756ZM52.875 144.123C53.7598 144.123 54.4395 143.678 54.8086 142.957H54.832V144H56.1035V135.545H54.832V138.885H54.8086C54.4395 138.158 53.7363 137.719 52.8633 137.719C51.3164 137.719 50.2969 138.949 50.2969 140.912V140.918C50.2969 142.881 51.3047 144.123 52.875 144.123ZM53.209 143.033C52.207 143.033 51.5918 142.23 51.5918 140.918V140.912C51.5918 139.611 52.2129 138.803 53.209 138.803C54.1582 138.803 54.8379 139.635 54.8379 140.912V140.918C54.8379 142.201 54.1641 143.033 53.209 143.033ZM60.2344 135.545H59.0684L56.7773 146.051H57.9492L60.2344 135.545ZM63.1816 144H64.4941V136.676H67.0781V135.545H60.5918V136.676H63.1816V144ZM68.0449 144H69.3105V140.432C69.3105 139.471 69.8906 138.803 70.7637 138.803C71.6543 138.803 72.1699 139.412 72.1699 140.432V144H73.4355V140.191C73.4355 138.703 72.5684 137.719 71.25 137.719C70.3301 137.719 69.668 138.135 69.3398 138.85H69.3105V135.545H68.0449V144ZM76.7637 144.123C77.7012 144.123 78.3281 143.695 78.6504 143.074H78.6797V144H79.9512V137.836H78.6797V141.434C78.6797 142.395 78.1055 143.033 77.2148 143.033C76.3359 143.033 75.9023 142.518 75.9023 141.586V137.836H74.6367V141.832C74.6367 143.25 75.4102 144.123 76.7637 144.123Z" fill="white"/>
<rect x="33" y="149.572" width="301.604" height="33.4278" rx="5" fill="#40494C"/>
<path d="M53.184 160.666C54.0539 160.666 54.5829 160.241 54.5829 159.572V159.569C54.5829 159.002 54.2574 158.694 53.4994 158.534L53.0975 158.45C52.6396 158.351 52.4311 158.183 52.4311 157.908V157.906C52.4311 157.585 52.721 157.369 53.1763 157.367C53.6113 157.367 53.9063 157.573 53.9572 157.913L53.9598 157.949H54.5143L54.5117 157.906C54.4736 157.29 53.9496 156.873 53.184 156.873C52.4082 156.873 51.8562 157.303 51.8537 157.929V157.931C51.8537 158.476 52.2022 158.806 52.922 158.959L53.3213 159.043C53.8071 159.15 54.0081 159.31 54.0081 159.605V159.607C54.0081 159.951 53.6978 160.172 53.2069 160.172C52.716 160.172 52.3777 159.961 52.3268 159.623L52.3217 159.59H51.7672L51.7697 159.628C51.8155 160.274 52.3599 160.666 53.184 160.666ZM55.9692 160.658C56.0811 160.658 56.1854 160.645 56.249 160.635V160.21C56.2083 160.215 56.16 160.22 56.1015 160.22C55.87 160.22 55.7479 160.139 55.7479 159.867V158.366H56.249V157.929H55.7479V157.232H55.1858V157.929H54.8017V158.366H55.1858V159.9C55.1858 160.434 55.4401 160.658 55.9692 160.658ZM57.4496 160.653C57.8031 160.653 58.1134 160.47 58.2686 160.182H58.2788V160.604H58.8307V158.76C58.8307 158.224 58.4161 157.878 57.7624 157.878C57.1036 157.878 56.7043 158.231 56.6661 158.692L56.6636 158.72H57.1825L57.1876 158.697C57.2333 158.483 57.4292 158.333 57.7471 158.333C58.088 158.333 58.2788 158.511 58.2788 158.806V159.007L57.5513 159.05C56.9179 159.089 56.5568 159.373 56.5568 159.839V159.844C56.5568 160.325 56.9154 160.653 57.4496 160.653ZM57.1113 159.831V159.826C57.1113 159.6 57.2944 159.455 57.6251 159.434L58.2788 159.394V159.602C58.2788 159.951 57.9862 160.213 57.5996 160.213C57.3046 160.213 57.1113 160.065 57.1113 159.831ZM59.3649 160.604H59.9143V159.01C59.9143 158.61 60.133 158.379 60.4866 158.379C60.5934 158.379 60.6901 158.392 60.7333 158.409V157.898C60.6901 157.89 60.6214 157.878 60.5425 157.878C60.2373 157.878 60.0135 158.074 59.927 158.386H59.9143V157.929H59.3649V160.604ZM63.109 160.604H63.6788V157.425H64.8005V156.934H61.9847V157.425H63.109V160.604ZM65.3753 157.517C65.5559 157.517 65.6958 157.374 65.6958 157.201C65.6958 157.026 65.5559 156.883 65.3753 156.883C65.1973 156.883 65.0548 157.026 65.0548 157.201C65.0548 157.374 65.1973 157.517 65.3753 157.517ZM65.1006 160.604H65.65V157.929H65.1006V160.604ZM66.2173 160.604H66.7667V158.951C66.7667 158.605 66.9981 158.348 67.3237 158.348C67.634 158.348 67.8299 158.547 67.8299 158.857V160.604H68.3691V158.931C68.3691 158.593 68.5955 158.348 68.9211 158.348C69.2467 158.348 69.4323 158.549 69.4323 158.898V160.604H69.9843V158.765C69.9843 158.229 69.6384 157.878 69.1093 157.878C68.7278 157.878 68.4124 158.079 68.275 158.404H68.2623C68.1555 158.069 67.8858 157.878 67.517 157.878C67.166 157.878 66.8938 158.063 66.7794 158.343H66.7667V157.929H66.2173V160.604ZM71.658 160.658C72.3066 160.658 72.7186 160.271 72.8051 159.847L72.8102 159.819H72.2888L72.2811 159.839C72.2125 160.04 71.9963 160.208 71.6707 160.208C71.2332 160.208 70.9559 159.913 70.9458 159.406H72.8407V159.221C72.8407 158.417 72.3803 157.878 71.63 157.878C70.8796 157.878 70.3964 158.437 70.3964 159.274V159.277C70.3964 160.121 70.872 160.658 71.658 160.658ZM71.6325 158.328C71.9912 158.328 72.2506 158.554 72.2964 159.017H70.9534C71.0017 158.57 71.2764 158.328 71.6325 158.328Z" fill="white"/>
<path d="M100.883 160.604H103.213V160.113H101.453V158.974H103.119V158.495H101.453V157.425H103.213V156.934H100.883V160.604ZM103.732 160.604H104.281V159.045C104.281 158.628 104.531 158.348 104.917 158.348C105.299 158.348 105.487 158.574 105.487 158.976V160.604H106.039V158.872C106.039 158.256 105.701 157.877 105.113 157.877C104.709 157.877 104.434 158.06 104.294 158.333H104.281V157.928H103.732V160.604ZM107.57 160.657C107.954 160.657 108.249 160.464 108.41 160.151H108.42V160.604H108.972V156.934H108.42V158.383H108.41C108.249 158.068 107.944 157.877 107.565 157.877C106.894 157.877 106.451 158.411 106.451 159.264V159.266C106.451 160.118 106.889 160.657 107.57 160.657ZM107.715 160.184C107.28 160.184 107.013 159.836 107.013 159.266V159.264C107.013 158.699 107.283 158.348 107.715 158.348C108.127 158.348 108.422 158.709 108.422 159.264V159.266C108.422 159.823 108.13 160.184 107.715 160.184ZM111.571 160.604H112.141V157.425H113.263V156.934H110.447V157.425H111.571V160.604ZM113.838 157.516C114.018 157.516 114.158 157.374 114.158 157.201C114.158 157.025 114.018 156.883 113.838 156.883C113.66 156.883 113.517 157.025 113.517 157.201C113.517 157.374 113.66 157.516 113.838 157.516ZM113.563 160.604H114.112V157.928H113.563V160.604ZM114.68 160.604H115.229V158.951C115.229 158.605 115.46 158.348 115.786 158.348C116.096 158.348 116.292 158.546 116.292 158.857V160.604H116.831V158.93C116.831 158.592 117.058 158.348 117.383 158.348C117.709 158.348 117.895 158.549 117.895 158.897V160.604H118.447V158.765C118.447 158.228 118.101 157.877 117.572 157.877C117.19 157.877 116.875 158.078 116.737 158.404H116.725C116.618 158.068 116.348 157.877 115.979 157.877C115.628 157.877 115.356 158.063 115.242 158.343H115.229V157.928H114.68V160.604ZM120.12 160.657C120.769 160.657 121.181 160.271 121.267 159.846L121.273 159.818H120.751L120.743 159.838C120.675 160.039 120.459 160.207 120.133 160.207C119.696 160.207 119.418 159.912 119.408 159.406H121.303V159.22C121.303 158.417 120.843 157.877 120.092 157.877C119.342 157.877 118.859 158.437 118.859 159.274V159.276C118.859 160.121 119.334 160.657 120.12 160.657ZM120.095 158.328C120.453 158.328 120.713 158.554 120.759 159.017H119.416C119.464 158.569 119.739 158.328 120.095 158.328Z" fill="white"/>
<path d="M53.8292 173.62H55.3146V163.832H53.8156L51.2381 165.664V167.102L53.7953 165.338H53.8292V173.62ZM57.7022 173.62H64.3969V172.338H59.7371V172.277L61.9618 170.093C63.7186 168.357 64.2409 167.563 64.2409 166.444V166.43C64.2409 164.85 62.8979 163.67 61.019 163.67C59.1063 163.67 57.6208 164.938 57.6208 166.688V166.729H59.0588V166.688C59.0723 165.698 59.8931 164.924 61.0394 164.924C62.0297 164.924 62.7351 165.589 62.7419 166.518V166.532C62.7419 167.292 62.4502 167.807 61.1479 169.11L57.7022 172.576V173.62ZM69.3077 173.783C71.641 173.783 73.045 171.836 73.045 168.73V168.716C73.045 165.61 71.641 163.67 69.3077 163.67C66.9676 163.67 65.5703 165.61 65.5703 168.716V168.73C65.5703 171.836 66.9676 173.783 69.3077 173.783ZM69.3077 172.515C67.9104 172.515 67.1033 171.077 67.1033 168.73V168.716C67.1033 166.369 67.9104 164.945 69.3077 164.945C70.6982 164.945 71.5121 166.369 71.5121 168.716V168.73C71.5121 171.077 70.6982 172.515 69.3077 172.515ZM77.9762 173.783C80.3095 173.783 81.7136 171.836 81.7136 168.73V168.716C81.7136 165.61 80.3095 163.67 77.9762 163.67C75.6361 163.67 74.2388 165.61 74.2388 168.716V168.73C74.2388 171.836 75.6361 173.783 77.9762 173.783ZM77.9762 172.515C76.5789 172.515 75.7718 171.077 75.7718 168.73V168.716C75.7718 166.369 76.5789 164.945 77.9762 164.945C79.3667 164.945 80.1806 166.369 80.1806 168.716V168.73C80.1806 171.077 79.3667 172.515 77.9762 172.515ZM88.7813 170.31H93.1427V168.987H88.7813V170.31ZM102.856 173.62H104.341V163.832H102.842L100.265 165.664V167.102L102.822 165.338H102.856V173.62ZM107.271 173.62H108.865L113.118 165.148V163.832H106.457V165.114H111.619V165.148L107.271 173.62ZM115.085 167.068C115.58 167.068 115.974 166.674 115.974 166.173C115.974 165.677 115.58 165.284 115.085 165.284C114.583 165.284 114.19 165.677 114.19 166.173C114.19 166.674 114.583 167.068 115.085 167.068ZM115.085 172.162C115.58 172.162 115.974 171.768 115.974 171.273C115.974 170.771 115.58 170.385 115.085 170.385C114.583 170.385 114.19 170.771 114.19 171.273C114.19 171.768 114.583 172.162 115.085 172.162ZM120.98 173.783C123.313 173.783 124.717 171.836 124.717 168.73V168.716C124.717 165.61 123.313 163.67 120.98 163.67C118.64 163.67 117.242 165.61 117.242 168.716V168.73C117.242 171.836 118.64 173.783 120.98 173.783ZM120.98 172.515C119.582 172.515 118.775 171.077 118.775 168.73V168.716C118.775 166.369 119.582 164.945 120.98 164.945C122.37 164.945 123.184 166.369 123.184 168.716V168.73C123.184 171.077 122.37 172.515 120.98 172.515ZM129.648 173.783C131.981 173.783 133.385 171.836 133.385 168.73V168.716C133.385 165.61 131.981 163.67 129.648 163.67C127.308 163.67 125.911 165.61 125.911 168.716V168.73C125.911 171.836 127.308 173.783 129.648 173.783ZM129.648 172.515C128.251 172.515 127.444 171.077 127.444 168.73V168.716C127.444 166.369 128.251 164.945 129.648 164.945C131.039 164.945 131.853 166.369 131.853 168.716V168.73C131.853 171.077 131.039 172.515 129.648 172.515Z" fill="white"/>
<line x1="250.029" y1="155.604" x2="250.029" y2="177.219" stroke="white" stroke-width="0.251337"/>
<rect x="276.294" y="160.128" width="26.139" height="12.5668" rx="6.28342" fill="#2D353B"/>
<circle cx="295.647" cy="166.412" r="5.02674" fill="#4AA2F8"/>
<rect x="261" y="261" width="72" height="20" rx="2" fill="#13191B"/>
<path d="M288.306 273.179H285.276L284.643 275H283.23L286.184 267.18H287.403L290.363 275H288.945L288.306 273.179ZM285.658 272.083H287.924L286.791 268.839L285.658 272.083ZM296.233 272.153C296.233 273.052 296.029 273.77 295.621 274.307C295.212 274.841 294.665 275.107 293.977 275.107C293.34 275.107 292.829 274.898 292.446 274.479V277.234H291.141V269.188H292.344L292.398 269.779C292.781 269.314 293.302 269.081 293.961 269.081C294.67 269.081 295.225 269.346 295.626 269.876C296.031 270.402 296.233 271.135 296.233 272.073V272.153ZM294.933 272.041C294.933 271.46 294.817 271 294.584 270.66C294.355 270.32 294.025 270.15 293.596 270.15C293.062 270.15 292.679 270.37 292.446 270.811V273.389C292.683 273.84 293.069 274.065 293.606 274.065C294.022 274.065 294.346 273.899 294.579 273.566C294.815 273.229 294.933 272.721 294.933 272.041ZM302.705 272.153C302.705 273.052 302.5 273.77 302.092 274.307C301.684 274.841 301.136 275.107 300.449 275.107C299.811 275.107 299.301 274.898 298.918 274.479V277.234H297.613V269.188H298.816L298.87 269.779C299.253 269.314 299.774 269.081 300.433 269.081C301.142 269.081 301.697 269.346 302.098 269.876C302.502 270.402 302.705 271.135 302.705 272.073V272.153ZM301.405 272.041C301.405 271.46 301.288 271 301.056 270.66C300.826 270.32 300.497 270.15 300.067 270.15C299.534 270.15 299.151 270.37 298.918 270.811V273.389C299.154 273.84 299.541 274.065 300.078 274.065C300.493 274.065 300.818 273.899 301.05 273.566C301.287 273.229 301.405 272.721 301.405 272.041ZM305.476 275H304.17V266.75H305.476V275ZM309.208 273.131L310.39 269.188H311.781L309.471 275.881C309.117 276.858 308.515 277.347 307.667 277.347C307.477 277.347 307.267 277.315 307.038 277.25V276.241L307.285 276.257C307.615 276.257 307.862 276.196 308.026 276.074C308.195 275.956 308.327 275.756 308.424 275.473L308.612 274.973L306.571 269.188H307.978L309.208 273.131Z" fill="white"/>
<rect x="181" y="261" width="72" height="20" rx="2" fill="#13191B"/>
<path d="M206.208 272.454C206.129 273.288 205.821 273.94 205.284 274.409C204.747 274.875 204.033 275.107 203.141 275.107C202.518 275.107 201.968 274.961 201.492 274.667C201.019 274.37 200.654 273.949 200.396 273.405C200.139 272.861 200.004 272.229 199.994 271.509V270.778C199.994 270.041 200.124 269.391 200.386 268.829C200.647 268.266 201.021 267.833 201.508 267.529C201.999 267.224 202.565 267.072 203.206 267.072C204.068 267.072 204.763 267.307 205.289 267.776C205.816 268.245 206.122 268.907 206.208 269.763H204.854C204.79 269.201 204.625 268.796 204.36 268.549C204.099 268.299 203.714 268.173 203.206 268.173C202.615 268.173 202.16 268.39 201.841 268.823C201.526 269.253 201.365 269.885 201.358 270.719V271.412C201.358 272.257 201.508 272.902 201.809 273.346C202.113 273.79 202.557 274.012 203.141 274.012C203.675 274.012 204.076 273.892 204.344 273.652C204.613 273.412 204.783 273.013 204.854 272.454H206.208ZM211.047 275C210.99 274.889 210.939 274.708 210.896 274.458C210.481 274.891 209.973 275.107 209.371 275.107C208.787 275.107 208.311 274.941 207.942 274.608C207.574 274.275 207.389 273.863 207.389 273.373C207.389 272.753 207.618 272.279 208.077 271.949C208.539 271.616 209.197 271.45 210.053 271.45H210.853V271.068C210.853 270.768 210.769 270.528 210.601 270.349C210.433 270.166 210.177 270.075 209.833 270.075C209.536 270.075 209.292 270.15 209.103 270.3C208.913 270.447 208.818 270.635 208.818 270.864H207.513C207.513 270.546 207.618 270.248 207.83 269.973C208.041 269.693 208.327 269.475 208.689 269.317C209.054 269.16 209.461 269.081 209.908 269.081C210.589 269.081 211.131 269.253 211.536 269.597C211.94 269.937 212.148 270.417 212.159 271.036V273.657C212.159 274.18 212.232 274.597 212.379 274.909V275H211.047ZM209.613 274.06C209.871 274.06 210.112 273.997 210.338 273.872C210.567 273.747 210.739 273.578 210.853 273.367V272.271H210.15C209.666 272.271 209.303 272.356 209.06 272.524C208.816 272.692 208.694 272.93 208.694 273.238C208.694 273.489 208.777 273.689 208.941 273.84C209.11 273.987 209.333 274.06 209.613 274.06ZM215.01 269.188L215.048 269.86C215.478 269.341 216.041 269.081 216.74 269.081C217.95 269.081 218.566 269.774 218.587 271.16V275H217.282V271.235C217.282 270.866 217.202 270.594 217.041 270.418C216.883 270.239 216.623 270.15 216.262 270.15C215.735 270.15 215.343 270.388 215.085 270.864V275H213.78V269.188H215.01ZM222.583 274.065C222.909 274.065 223.179 273.971 223.394 273.781C223.609 273.591 223.723 273.356 223.738 273.077H224.968C224.953 273.439 224.841 273.777 224.629 274.092C224.418 274.404 224.132 274.651 223.77 274.833C223.408 275.016 223.018 275.107 222.599 275.107C221.786 275.107 221.142 274.844 220.666 274.318C220.189 273.792 219.951 273.065 219.951 272.137V272.003C219.951 271.118 220.188 270.411 220.66 269.881C221.133 269.348 221.777 269.081 222.594 269.081C223.285 269.081 223.847 269.283 224.28 269.688C224.717 270.089 224.946 270.617 224.968 271.272H223.738C223.723 270.939 223.609 270.666 223.394 270.451C223.183 270.236 222.912 270.128 222.583 270.128C222.16 270.128 221.835 270.282 221.605 270.59C221.376 270.895 221.26 271.358 221.256 271.981V272.191C221.256 272.821 221.369 273.292 221.595 273.604C221.824 273.911 222.153 274.065 222.583 274.065ZM228.786 275.107C227.959 275.107 227.288 274.848 226.772 274.329C226.26 273.806 226.004 273.111 226.004 272.245V272.083C226.004 271.503 226.115 270.986 226.337 270.531C226.563 270.073 226.878 269.717 227.282 269.462C227.687 269.208 228.138 269.081 228.636 269.081C229.427 269.081 230.038 269.333 230.467 269.838C230.901 270.343 231.117 271.058 231.117 271.981V272.508H227.32C227.359 272.988 227.519 273.367 227.798 273.646C228.081 273.926 228.435 274.065 228.861 274.065C229.459 274.065 229.946 273.824 230.322 273.34L231.026 274.012C230.793 274.359 230.482 274.629 230.091 274.823C229.705 275.013 229.27 275.107 228.786 275.107ZM228.63 270.128C228.272 270.128 227.982 270.254 227.76 270.504C227.542 270.755 227.402 271.104 227.341 271.552H229.828V271.455C229.8 271.018 229.683 270.689 229.479 270.467C229.275 270.241 228.992 270.128 228.63 270.128ZM233.797 275H232.492V266.75H233.797V275Z" fill="white"/>
<rect x="37" y="261" width="72" height="20" rx="2" fill="#13191B"/>
<path d="M59.1449 272.454C59.0662 273.288 58.7582 273.94 58.2211 274.409C57.684 274.875 56.9696 275.107 56.078 275.107C55.455 275.107 54.9054 274.961 54.4291 274.667C53.9565 274.37 53.5912 273.949 53.3334 273.405C53.0756 272.861 52.9413 272.229 52.9306 271.509V270.778C52.9306 270.041 53.0613 269.391 53.3227 268.829C53.5841 268.266 53.9583 267.833 54.4452 267.529C54.9358 267.224 55.5015 267.072 56.1425 267.072C57.0055 267.072 57.7001 267.307 58.2265 267.776C58.7528 268.245 59.059 268.907 59.1449 269.763H57.7914C57.727 269.201 57.5623 268.796 57.2973 268.549C57.0359 268.299 56.651 268.173 56.1425 268.173C55.5517 268.173 55.0969 268.39 54.7782 268.823C54.4631 269.253 54.302 269.885 54.2948 270.719V271.412C54.2948 272.257 54.4452 272.902 54.746 273.346C55.0504 273.79 55.4944 274.012 56.078 274.012C56.6116 274.012 57.0126 273.892 57.2812 273.652C57.5497 273.412 57.7198 273.013 57.7914 272.454H59.1449ZM61.8998 275H60.5947V266.75H61.8998V275ZM66.1587 275.107C65.3315 275.107 64.6601 274.848 64.1445 274.329C63.6324 273.806 63.3764 273.111 63.3764 272.245V272.083C63.3764 271.503 63.4874 270.986 63.7094 270.531C63.935 270.073 64.2501 269.717 64.6547 269.462C65.0594 269.208 65.5105 269.081 66.0083 269.081C66.7996 269.081 67.4101 269.333 67.8398 269.838C68.2731 270.343 68.4897 271.058 68.4897 271.981V272.508H64.6923C64.7317 272.988 64.8911 273.367 65.1704 273.646C65.4532 273.926 65.8077 274.065 66.2338 274.065C66.8318 274.065 67.3188 273.824 67.6948 273.34L68.3984 274.012C68.1656 274.359 67.8541 274.629 67.4638 274.823C67.0771 275.013 66.642 275.107 66.1587 275.107ZM66.0029 270.128C65.6448 270.128 65.3548 270.254 65.1328 270.504C64.9143 270.755 64.7747 271.104 64.7138 271.552H67.2006V271.455C67.172 271.018 67.0556 270.689 66.8515 270.467C66.6474 270.241 66.3645 270.128 66.0029 270.128ZM73.2534 275C73.1961 274.889 73.146 274.708 73.103 274.458C72.6876 274.891 72.1792 275.107 71.5776 275.107C70.994 275.107 70.5177 274.941 70.1489 274.608C69.7801 274.275 69.5957 273.863 69.5957 273.373C69.5957 272.753 69.8248 272.279 70.2832 271.949C70.7451 271.616 71.404 271.45 72.2597 271.45H73.06V271.068C73.06 270.768 72.9759 270.528 72.8076 270.349C72.6393 270.166 72.3833 270.075 72.0395 270.075C71.7423 270.075 71.4988 270.15 71.3091 270.3C71.1193 270.447 71.0244 270.635 71.0244 270.864H69.7192C69.7192 270.546 69.8248 270.248 70.0361 269.973C70.2474 269.693 70.5338 269.475 70.8955 269.317C71.2607 269.16 71.6671 269.081 72.1147 269.081C72.7951 269.081 73.3375 269.253 73.7422 269.597C74.1468 269.937 74.3545 270.417 74.3652 271.036V273.657C74.3652 274.18 74.4386 274.597 74.5854 274.909V275H73.2534ZM71.8193 274.06C72.0771 274.06 72.3188 273.997 72.5444 273.872C72.7736 273.747 72.9455 273.578 73.06 273.367V272.271H72.3564C71.873 272.271 71.5096 272.356 71.2661 272.524C71.0226 272.692 70.9009 272.93 70.9009 273.238C70.9009 273.489 70.9832 273.689 71.1479 273.84C71.3162 273.987 71.54 274.06 71.8193 274.06ZM79.0483 270.381C78.8765 270.352 78.6992 270.338 78.5166 270.338C77.9186 270.338 77.5158 270.567 77.3081 271.025V275H76.0029V269.188H77.249L77.2812 269.838C77.5964 269.333 78.0332 269.081 78.5918 269.081C78.778 269.081 78.932 269.106 79.0537 269.156L79.0483 270.381ZM86.6314 275C86.5741 274.889 86.524 274.708 86.481 274.458C86.0656 274.891 85.5572 275.107 84.9556 275.107C84.3719 275.107 83.8957 274.941 83.5269 274.608C83.1581 274.275 82.9737 273.863 82.9737 273.373C82.9737 272.753 83.2028 272.279 83.6612 271.949C84.1231 271.616 84.7819 271.45 85.6377 271.45H86.438V271.068C86.438 270.768 86.3539 270.528 86.1856 270.349C86.0173 270.166 85.7613 270.075 85.4175 270.075C85.1203 270.075 84.8768 270.15 84.6871 270.3C84.4973 270.447 84.4024 270.635 84.4024 270.864H83.0972C83.0972 270.546 83.2028 270.248 83.4141 269.973C83.6254 269.693 83.9118 269.475 84.2735 269.317C84.6387 269.16 85.0451 269.081 85.4927 269.081C86.1731 269.081 86.7155 269.253 87.1202 269.597C87.5248 269.937 87.7325 270.417 87.7432 271.036V273.657C87.7432 274.18 87.8166 274.597 87.9634 274.909V275H86.6314ZM85.1973 274.06C85.4551 274.06 85.6968 273.997 85.9224 273.872C86.1516 273.747 86.3234 273.578 86.438 273.367V272.271H85.7344C85.251 272.271 84.8876 272.356 84.6441 272.524C84.4006 272.692 84.2789 272.93 84.2789 273.238C84.2789 273.489 84.3612 273.689 84.5259 273.84C84.6942 273.987 84.918 274.06 85.1973 274.06ZM90.772 275H89.4669V266.75H90.772V275ZM93.8599 275H92.5548V266.75H93.8599V275Z" fill="white"/>
</svg>
