<svg width="377" height="362" viewBox="0 0 377 362" fill="none" xmlns="http://www.w3.org/2000/svg">
<rect width="377" height="362" fill="#1B272C"/>
<circle cx="343" cy="79" r="10" stroke="#C4C4C4"/>
<path d="M338.127 77.5869C338.541 77.5869 338.879 77.2485 338.879 76.8296C338.879 76.416 338.541 76.0776 338.127 76.0776C337.708 76.0776 337.37 76.416 337.37 76.8296C337.37 77.2485 337.708 77.5869 338.127 77.5869ZM340.635 77.3398H347.935C348.219 77.3398 348.445 77.1143 348.445 76.8296C348.445 76.5449 348.219 76.3193 347.935 76.3193H340.635C340.351 76.3193 340.125 76.5449 340.125 76.8296C340.125 77.1143 340.351 77.3398 340.635 77.3398ZM338.127 80.8848C338.541 80.8848 338.879 80.5464 338.879 80.1274C338.879 79.7139 338.541 79.3755 338.127 79.3755C337.708 79.3755 337.37 79.7139 337.37 80.1274C337.37 80.5464 337.708 80.8848 338.127 80.8848ZM340.635 80.6377H347.935C348.219 80.6377 348.445 80.4121 348.445 80.1274C348.445 79.8428 348.219 79.6172 347.935 79.6172H340.635C340.351 79.6172 340.125 79.8428 340.125 80.1274C340.125 80.4121 340.351 80.6377 340.635 80.6377ZM338.127 84.1826C338.541 84.1826 338.879 83.8442 338.879 83.4253C338.879 83.0117 338.541 82.6733 338.127 82.6733C337.708 82.6733 337.37 83.0117 337.37 83.4253C337.37 83.8442 337.708 84.1826 338.127 84.1826ZM340.635 83.9355H347.935C348.219 83.9355 348.445 83.71 348.445 83.4253C348.445 83.1406 348.219 82.915 347.935 82.915H340.635C340.351 82.915 340.125 83.1406 340.125 83.4253C340.125 83.71 340.351 83.9355 340.635 83.9355Z" fill="#C4C4C4"/>
<circle cx="315" cy="79" r="10" stroke="#C4C4C4"/>
<path d="M310.37 79.1221C310.37 79.4551 310.644 79.7236 310.971 79.7236H314.264V83.0161C314.264 83.3438 314.538 83.6177 314.865 83.6177C315.193 83.6177 315.467 83.3438 315.467 83.0161V79.7236H318.759C319.087 79.7236 319.361 79.4551 319.361 79.1221C319.361 78.7944 319.087 78.5205 318.759 78.5205H315.467V75.228C315.467 74.9004 315.193 74.6265 314.865 74.6265C314.538 74.6265 314.264 74.9004 314.264 75.228V78.5205H310.971C310.644 78.5205 310.37 78.7944 310.37 79.1221Z" fill="#C4C4C4"/>
<rect x="261" y="261" width="72" height="20" rx="2" fill="#13191B"/>
<path d="M288.306 273.179H285.276L284.643 275H283.23L286.184 267.18H287.403L290.363 275H288.945L288.306 273.179ZM285.658 272.083H287.924L286.791 268.839L285.658 272.083ZM296.233 272.153C296.233 273.052 296.029 273.77 295.621 274.307C295.212 274.841 294.665 275.107 293.977 275.107C293.34 275.107 292.829 274.898 292.446 274.479V277.234H291.141V269.188H292.344L292.398 269.779C292.781 269.314 293.302 269.081 293.961 269.081C294.67 269.081 295.225 269.346 295.626 269.876C296.031 270.402 296.233 271.135 296.233 272.073V272.153ZM294.933 272.041C294.933 271.46 294.817 271 294.584 270.66C294.355 270.32 294.025 270.15 293.596 270.15C293.062 270.15 292.679 270.37 292.446 270.811V273.389C292.683 273.84 293.069 274.065 293.606 274.065C294.022 274.065 294.346 273.899 294.579 273.566C294.815 273.229 294.933 272.721 294.933 272.041ZM302.705 272.153C302.705 273.052 302.5 273.77 302.092 274.307C301.684 274.841 301.136 275.107 300.449 275.107C299.811 275.107 299.301 274.898 298.918 274.479V277.234H297.613V269.188H298.816L298.87 269.779C299.253 269.314 299.774 269.081 300.433 269.081C301.142 269.081 301.697 269.346 302.098 269.876C302.502 270.402 302.705 271.135 302.705 272.073V272.153ZM301.405 272.041C301.405 271.46 301.288 271 301.056 270.66C300.826 270.32 300.497 270.15 300.067 270.15C299.534 270.15 299.151 270.37 298.918 270.811V273.389C299.154 273.84 299.541 274.065 300.078 274.065C300.493 274.065 300.818 273.899 301.05 273.566C301.287 273.229 301.405 272.721 301.405 272.041ZM305.476 275H304.17V266.75H305.476V275ZM309.208 273.131L310.39 269.188H311.781L309.471 275.881C309.117 276.858 308.515 277.347 307.667 277.347C307.477 277.347 307.267 277.315 307.038 277.25V276.241L307.285 276.257C307.615 276.257 307.862 276.196 308.026 276.074C308.195 275.956 308.327 275.756 308.424 275.473L308.612 274.973L306.571 269.188H307.978L309.208 273.131Z" fill="white"/>
<rect x="181" y="261" width="72" height="20" rx="2" fill="#13191B"/>
<path d="M206.208 272.454C206.129 273.288 205.821 273.94 205.284 274.409C204.747 274.875 204.033 275.107 203.141 275.107C202.518 275.107 201.968 274.961 201.492 274.667C201.019 274.37 200.654 273.949 200.396 273.405C200.139 272.861 200.004 272.229 199.994 271.509V270.778C199.994 270.041 200.124 269.391 200.386 268.829C200.647 268.266 201.021 267.833 201.508 267.529C201.999 267.224 202.565 267.072 203.206 267.072C204.068 267.072 204.763 267.307 205.289 267.776C205.816 268.245 206.122 268.907 206.208 269.763H204.854C204.79 269.201 204.625 268.796 204.36 268.549C204.099 268.299 203.714 268.173 203.206 268.173C202.615 268.173 202.16 268.39 201.841 268.823C201.526 269.253 201.365 269.885 201.358 270.719V271.412C201.358 272.257 201.508 272.902 201.809 273.346C202.113 273.79 202.557 274.012 203.141 274.012C203.675 274.012 204.076 273.892 204.344 273.652C204.613 273.412 204.783 273.013 204.854 272.454H206.208ZM211.047 275C210.99 274.889 210.939 274.708 210.896 274.458C210.481 274.891 209.973 275.107 209.371 275.107C208.787 275.107 208.311 274.941 207.942 274.608C207.574 274.275 207.389 273.863 207.389 273.373C207.389 272.753 207.618 272.279 208.077 271.949C208.539 271.616 209.197 271.45 210.053 271.45H210.853V271.068C210.853 270.768 210.769 270.528 210.601 270.349C210.433 270.166 210.177 270.075 209.833 270.075C209.536 270.075 209.292 270.15 209.103 270.3C208.913 270.447 208.818 270.635 208.818 270.864H207.513C207.513 270.546 207.618 270.248 207.83 269.973C208.041 269.693 208.327 269.475 208.689 269.317C209.054 269.16 209.461 269.081 209.908 269.081C210.589 269.081 211.131 269.253 211.536 269.597C211.94 269.937 212.148 270.417 212.159 271.036V273.657C212.159 274.18 212.232 274.597 212.379 274.909V275H211.047ZM209.613 274.06C209.871 274.06 210.112 273.997 210.338 273.872C210.567 273.747 210.739 273.578 210.853 273.367V272.271H210.15C209.666 272.271 209.303 272.356 209.06 272.524C208.816 272.692 208.694 272.93 208.694 273.238C208.694 273.489 208.777 273.689 208.941 273.84C209.11 273.987 209.333 274.06 209.613 274.06ZM215.01 269.188L215.048 269.86C215.478 269.341 216.041 269.081 216.74 269.081C217.95 269.081 218.566 269.774 218.587 271.16V275H217.282V271.235C217.282 270.866 217.202 270.594 217.041 270.418C216.883 270.239 216.623 270.15 216.262 270.15C215.735 270.15 215.343 270.388 215.085 270.864V275H213.78V269.188H215.01ZM222.583 274.065C222.909 274.065 223.179 273.971 223.394 273.781C223.609 273.591 223.723 273.356 223.738 273.077H224.968C224.953 273.439 224.841 273.777 224.629 274.092C224.418 274.404 224.132 274.651 223.77 274.833C223.408 275.016 223.018 275.107 222.599 275.107C221.786 275.107 221.142 274.844 220.666 274.318C220.189 273.792 219.951 273.065 219.951 272.137V272.003C219.951 271.118 220.188 270.411 220.66 269.881C221.133 269.348 221.777 269.081 222.594 269.081C223.285 269.081 223.847 269.283 224.28 269.688C224.717 270.089 224.946 270.617 224.968 271.272H223.738C223.723 270.939 223.609 270.666 223.394 270.451C223.183 270.236 222.912 270.128 222.583 270.128C222.16 270.128 221.835 270.282 221.605 270.59C221.376 270.895 221.26 271.358 221.256 271.981V272.191C221.256 272.821 221.369 273.292 221.595 273.604C221.824 273.911 222.153 274.065 222.583 274.065ZM228.786 275.107C227.959 275.107 227.288 274.848 226.772 274.329C226.26 273.806 226.004 273.111 226.004 272.245V272.083C226.004 271.503 226.115 270.986 226.337 270.531C226.563 270.073 226.878 269.717 227.282 269.462C227.687 269.208 228.138 269.081 228.636 269.081C229.427 269.081 230.038 269.333 230.467 269.838C230.901 270.343 231.117 271.058 231.117 271.981V272.508H227.32C227.359 272.988 227.519 273.367 227.798 273.646C228.081 273.926 228.435 274.065 228.861 274.065C229.459 274.065 229.946 273.824 230.322 273.34L231.026 274.012C230.793 274.359 230.482 274.629 230.091 274.823C229.705 275.013 229.27 275.107 228.786 275.107ZM228.63 270.128C228.272 270.128 227.982 270.254 227.76 270.504C227.542 270.755 227.402 271.104 227.341 271.552H229.828V271.455C229.8 271.018 229.683 270.689 229.479 270.467C229.275 270.241 228.992 270.128 228.63 270.128ZM233.797 275H232.492V266.75H233.797V275Z" fill="white"/>
<rect x="37" y="261" width="72" height="20" rx="2" fill="#13191B"/>
<path d="M59.1449 272.454C59.0662 273.288 58.7582 273.94 58.2211 274.409C57.684 274.875 56.9696 275.107 56.078 275.107C55.455 275.107 54.9054 274.961 54.4291 274.667C53.9565 274.37 53.5912 273.949 53.3334 273.405C53.0756 272.861 52.9413 272.229 52.9306 271.509V270.778C52.9306 270.041 53.0613 269.391 53.3227 268.829C53.5841 268.266 53.9583 267.833 54.4452 267.529C54.9358 267.224 55.5015 267.072 56.1425 267.072C57.0055 267.072 57.7001 267.307 58.2265 267.776C58.7528 268.245 59.059 268.907 59.1449 269.763H57.7914C57.727 269.201 57.5623 268.796 57.2973 268.549C57.0359 268.299 56.651 268.173 56.1425 268.173C55.5517 268.173 55.0969 268.39 54.7782 268.823C54.4631 269.253 54.302 269.885 54.2948 270.719V271.412C54.2948 272.257 54.4452 272.902 54.746 273.346C55.0504 273.79 55.4944 274.012 56.078 274.012C56.6116 274.012 57.0126 273.892 57.2812 273.652C57.5497 273.412 57.7198 273.013 57.7914 272.454H59.1449ZM61.8998 275H60.5947V266.75H61.8998V275ZM66.1587 275.107C65.3315 275.107 64.6601 274.848 64.1445 274.329C63.6324 273.806 63.3764 273.111 63.3764 272.245V272.083C63.3764 271.503 63.4874 270.986 63.7094 270.531C63.935 270.073 64.2501 269.717 64.6547 269.462C65.0594 269.208 65.5105 269.081 66.0083 269.081C66.7996 269.081 67.4101 269.333 67.8398 269.838C68.2731 270.343 68.4897 271.058 68.4897 271.981V272.508H64.6923C64.7317 272.988 64.8911 273.367 65.1704 273.646C65.4532 273.926 65.8077 274.065 66.2338 274.065C66.8318 274.065 67.3188 273.824 67.6948 273.34L68.3984 274.012C68.1656 274.359 67.8541 274.629 67.4638 274.823C67.0771 275.013 66.642 275.107 66.1587 275.107ZM66.0029 270.128C65.6448 270.128 65.3548 270.254 65.1328 270.504C64.9143 270.755 64.7747 271.104 64.7138 271.552H67.2006V271.455C67.172 271.018 67.0556 270.689 66.8515 270.467C66.6474 270.241 66.3645 270.128 66.0029 270.128ZM73.2534 275C73.1961 274.889 73.146 274.708 73.103 274.458C72.6876 274.891 72.1792 275.107 71.5776 275.107C70.994 275.107 70.5177 274.941 70.1489 274.608C69.7801 274.275 69.5957 273.863 69.5957 273.373C69.5957 272.753 69.8248 272.279 70.2832 271.949C70.7451 271.616 71.404 271.45 72.2597 271.45H73.06V271.068C73.06 270.768 72.9759 270.528 72.8076 270.349C72.6393 270.166 72.3833 270.075 72.0395 270.075C71.7423 270.075 71.4988 270.15 71.3091 270.3C71.1193 270.447 71.0244 270.635 71.0244 270.864H69.7192C69.7192 270.546 69.8248 270.248 70.0361 269.973C70.2474 269.693 70.5338 269.475 70.8955 269.317C71.2607 269.16 71.6671 269.081 72.1147 269.081C72.7951 269.081 73.3375 269.253 73.7422 269.597C74.1468 269.937 74.3545 270.417 74.3652 271.036V273.657C74.3652 274.18 74.4386 274.597 74.5854 274.909V275H73.2534ZM71.8193 274.06C72.0771 274.06 72.3188 273.997 72.5444 273.872C72.7736 273.747 72.9455 273.578 73.06 273.367V272.271H72.3564C71.873 272.271 71.5096 272.356 71.2661 272.524C71.0226 272.692 70.9009 272.93 70.9009 273.238C70.9009 273.489 70.9832 273.689 71.1479 273.84C71.3162 273.987 71.54 274.06 71.8193 274.06ZM79.0483 270.381C78.8765 270.352 78.6992 270.338 78.5166 270.338C77.9186 270.338 77.5158 270.567 77.3081 271.025V275H76.0029V269.188H77.249L77.2812 269.838C77.5964 269.333 78.0332 269.081 78.5918 269.081C78.778 269.081 78.932 269.106 79.0537 269.156L79.0483 270.381ZM86.6314 275C86.5741 274.889 86.524 274.708 86.481 274.458C86.0656 274.891 85.5572 275.107 84.9556 275.107C84.3719 275.107 83.8957 274.941 83.5269 274.608C83.1581 274.275 82.9737 273.863 82.9737 273.373C82.9737 272.753 83.2028 272.279 83.6612 271.949C84.1231 271.616 84.7819 271.45 85.6377 271.45H86.438V271.068C86.438 270.768 86.3539 270.528 86.1856 270.349C86.0173 270.166 85.7613 270.075 85.4175 270.075C85.1203 270.075 84.8768 270.15 84.6871 270.3C84.4973 270.447 84.4024 270.635 84.4024 270.864H83.0972C83.0972 270.546 83.2028 270.248 83.4141 269.973C83.6254 269.693 83.9118 269.475 84.2735 269.317C84.6387 269.16 85.0451 269.081 85.4927 269.081C86.1731 269.081 86.7155 269.253 87.1202 269.597C87.5248 269.937 87.7325 270.417 87.7432 271.036V273.657C87.7432 274.18 87.8166 274.597 87.9634 274.909V275H86.6314ZM85.1973 274.06C85.4551 274.06 85.6968 273.997 85.9224 273.872C86.1516 273.747 86.3234 273.578 86.438 273.367V272.271H85.7344C85.251 272.271 84.8876 272.356 84.6441 272.524C84.4006 272.692 84.2789 272.93 84.2789 273.238C84.2789 273.489 84.3612 273.689 84.5259 273.84C84.6942 273.987 84.918 274.06 85.1973 274.06ZM90.772 275H89.4669V266.75H90.772V275ZM93.8599 275H92.5548V266.75H93.8599V275Z" fill="white"/>
<path d="M35.5371 144H36.7969L38.6191 137.625H38.6484L40.4648 144H41.7246L44.0098 135.545H42.6445L41.0684 142.172H41.0391L39.252 135.545H38.0098L36.2227 142.172H36.1992L34.623 135.545H33.2578L35.5371 144ZM46.8633 144.123C48.3574 144.123 49.3066 143.232 49.5059 142.254L49.5176 142.189H48.3164L48.2988 142.236C48.1406 142.699 47.6426 143.086 46.8926 143.086C45.8848 143.086 45.2461 142.406 45.2227 141.24H49.5879V140.812C49.5879 138.961 48.5273 137.719 46.7988 137.719C45.0703 137.719 43.957 139.008 43.957 140.936V140.941C43.957 142.887 45.0527 144.123 46.8633 144.123ZM46.8047 138.756C47.6309 138.756 48.2285 139.277 48.334 140.344H45.2402C45.3516 139.312 45.9844 138.756 46.8047 138.756ZM52.875 144.123C53.7598 144.123 54.4395 143.678 54.8086 142.957H54.832V144H56.1035V135.545H54.832V138.885H54.8086C54.4395 138.158 53.7363 137.719 52.8633 137.719C51.3164 137.719 50.2969 138.949 50.2969 140.912V140.918C50.2969 142.881 51.3047 144.123 52.875 144.123ZM53.209 143.033C52.207 143.033 51.5918 142.23 51.5918 140.918V140.912C51.5918 139.611 52.2129 138.803 53.209 138.803C54.1582 138.803 54.8379 139.635 54.8379 140.912V140.918C54.8379 142.201 54.1641 143.033 53.209 143.033ZM60.2344 135.545H59.0684L56.7773 146.051H57.9492L60.2344 135.545ZM63.1816 144H64.4941V136.676H67.0781V135.545H60.5918V136.676H63.1816V144ZM68.0449 144H69.3105V140.432C69.3105 139.471 69.8906 138.803 70.7637 138.803C71.6543 138.803 72.1699 139.412 72.1699 140.432V144H73.4355V140.191C73.4355 138.703 72.5684 137.719 71.25 137.719C70.3301 137.719 69.668 138.135 69.3398 138.85H69.3105V135.545H68.0449V144ZM76.7637 144.123C77.7012 144.123 78.3281 143.695 78.6504 143.074H78.6797V144H79.9512V137.836H78.6797V141.434C78.6797 142.395 78.1055 143.033 77.2148 143.033C76.3359 143.033 75.9023 142.518 75.9023 141.586V137.836H74.6367V141.832C74.6367 143.25 75.4102 144.123 76.7637 144.123Z" fill="white"/>
<rect x="33.5" y="150.072" width="300.604" height="32.4278" rx="4.5" fill="#40494C" stroke="#979797"/>
<path d="M53.1835 160.061C54.0534 160.061 54.5825 159.636 54.5825 158.967V158.965C54.5825 158.398 54.2569 158.09 53.4989 157.93L53.097 157.846C52.6392 157.746 52.4306 157.579 52.4306 157.304V157.301C52.4306 156.981 52.7206 156.765 53.1759 156.762C53.6108 156.762 53.9059 156.968 53.9567 157.309L53.9593 157.345H54.5138L54.5112 157.301C54.4731 156.686 53.9491 156.269 53.1835 156.269C52.4077 156.269 51.8557 156.698 51.8532 157.324V157.327C51.8532 157.871 52.2017 158.202 52.9215 158.354L53.3208 158.438C53.8067 158.545 54.0076 158.705 54.0076 159V159.003C54.0076 159.346 53.6973 159.568 53.2064 159.568C52.7155 159.568 52.3772 159.356 52.3263 159.018L52.3212 158.985H51.7667L51.7693 159.023C51.815 159.669 52.3594 160.061 53.1835 160.061ZM55.9687 160.053C56.0806 160.053 56.1849 160.041 56.2485 160.031V159.606C56.2078 159.611 56.1595 159.616 56.101 159.616C55.8695 159.616 55.7474 159.535 55.7474 159.262V157.762H56.2485V157.324H55.7474V156.627H55.1853V157.324H54.8012V157.762H55.1853V159.295C55.1853 159.83 55.4396 160.053 55.9687 160.053ZM57.4491 160.048C57.8026 160.048 58.1129 159.865 58.2681 159.578H58.2783V160H58.8302V158.156C58.8302 157.619 58.4156 157.273 57.7619 157.273C57.1031 157.273 56.7038 157.627 56.6656 158.087L56.6631 158.115H57.182L57.1871 158.092C57.2329 157.879 57.4287 157.729 57.7467 157.729C58.0875 157.729 58.2783 157.907 58.2783 158.202V158.403L57.5508 158.446C56.9175 158.484 56.5563 158.769 56.5563 159.234V159.239C56.5563 159.72 56.9149 160.048 57.4491 160.048ZM57.1108 159.227V159.222C57.1108 158.995 57.2939 158.85 57.6246 158.83L58.2783 158.789V158.998C58.2783 159.346 57.9858 159.608 57.5991 159.608C57.3041 159.608 57.1108 159.461 57.1108 159.227ZM59.3644 160H59.9138V158.405C59.9138 158.006 60.1325 157.774 60.4861 157.774C60.5929 157.774 60.6896 157.787 60.7328 157.805V157.294C60.6896 157.286 60.6209 157.273 60.5421 157.273C60.2368 157.273 60.013 157.469 59.9265 157.782H59.9138V157.324H59.3644V160ZM63.1085 160H63.6783V156.821H64.8V156.33H61.9843V156.821H63.1085V160ZM65.3748 156.912C65.5554 156.912 65.6953 156.77 65.6953 156.597C65.6953 156.421 65.5554 156.279 65.3748 156.279C65.1968 156.279 65.0544 156.421 65.0544 156.597C65.0544 156.77 65.1968 156.912 65.3748 156.912ZM65.1001 160H65.6496V157.324H65.1001V160ZM66.2168 160H66.7662V158.347C66.7662 158.001 66.9976 157.744 67.3232 157.744C67.6335 157.744 67.8294 157.942 67.8294 158.253V160H68.3686V158.326C68.3686 157.988 68.595 157.744 68.9206 157.744C69.2462 157.744 69.4318 157.945 69.4318 158.293V160H69.9838V158.161C69.9838 157.624 69.6379 157.273 69.1088 157.273C68.7273 157.273 68.4119 157.474 68.2745 157.8H68.2618C68.155 157.464 67.8854 157.273 67.5165 157.273C67.1655 157.273 66.8934 157.459 66.7789 157.739H66.7662V157.324H66.2168V160ZM71.6575 160.053C72.3061 160.053 72.7182 159.667 72.8046 159.242L72.8097 159.214H72.2883L72.2807 159.234C72.212 159.435 71.9958 159.603 71.6702 159.603C71.2327 159.603 70.9555 159.308 70.9453 158.802H72.8402V158.616C72.8402 157.813 72.3799 157.273 71.6295 157.273C70.8791 157.273 70.3959 157.833 70.3959 158.67V158.672C70.3959 159.517 70.8715 160.053 71.6575 160.053ZM71.632 157.723C71.9907 157.723 72.2501 157.95 72.2959 158.413H70.9529C71.0012 157.965 71.2759 157.723 71.632 157.723Z" fill="#737373"/>
<path d="M99.8832 160H102.213V159.509H100.453V158.37H102.119V157.891H100.453V156.821H102.213V156.33H99.8832V160ZM102.732 160H103.281V158.441C103.281 158.024 103.531 157.744 103.917 157.744C104.299 157.744 104.487 157.97 104.487 158.372V160H105.039V158.268C105.039 157.652 104.701 157.273 104.113 157.273C103.709 157.273 103.434 157.456 103.294 157.729H103.281V157.324H102.732V160ZM106.57 160.053C106.954 160.053 107.249 159.86 107.41 159.547H107.42V160H107.972V156.33H107.42V157.779H107.41C107.249 157.464 106.944 157.273 106.565 157.273C105.894 157.273 105.451 157.807 105.451 158.66V158.662C105.451 159.514 105.889 160.053 106.57 160.053ZM106.715 159.58C106.28 159.58 106.013 159.232 106.013 158.662V158.66C106.013 158.095 106.283 157.744 106.715 157.744C107.127 157.744 107.422 158.105 107.422 158.66V158.662C107.422 159.219 107.13 159.58 106.715 159.58ZM110.571 160H111.141V156.821H112.263V156.33H109.447V156.821H110.571V160ZM112.838 156.912C113.018 156.912 113.158 156.77 113.158 156.597C113.158 156.421 113.018 156.279 112.838 156.279C112.66 156.279 112.517 156.421 112.517 156.597C112.517 156.77 112.66 156.912 112.838 156.912ZM112.563 160H113.112V157.324H112.563V160ZM113.68 160H114.229V158.347C114.229 158.001 114.46 157.744 114.786 157.744C115.096 157.744 115.292 157.942 115.292 158.253V160H115.831V158.326C115.831 157.988 116.058 157.744 116.383 157.744C116.709 157.744 116.895 157.945 116.895 158.293V160H117.447V158.161C117.447 157.624 117.101 157.273 116.572 157.273C116.19 157.273 115.875 157.474 115.737 157.8H115.725C115.618 157.464 115.348 157.273 114.979 157.273C114.628 157.273 114.356 157.459 114.242 157.739H114.229V157.324H113.68V160ZM119.12 160.053C119.769 160.053 120.181 159.667 120.267 159.242L120.273 159.214H119.751L119.743 159.234C119.675 159.435 119.459 159.603 119.133 159.603C118.696 159.603 118.418 159.308 118.408 158.802H120.303V158.616C120.303 157.813 119.843 157.273 119.092 157.273C118.342 157.273 117.859 157.833 117.859 158.67V158.672C117.859 159.517 118.334 160.053 119.12 160.053ZM119.095 157.723C119.453 157.723 119.713 157.95 119.759 158.413H118.416C118.464 157.965 118.739 157.723 119.095 157.723Z" fill="#737373"/>
<path d="M53.8292 173.62H55.3146V163.832H53.8156L51.2381 165.664V167.102L53.7953 165.338H53.8292V173.62ZM57.7022 173.62H64.3969V172.338H59.7371V172.277L61.9618 170.093C63.7186 168.357 64.2409 167.563 64.2409 166.444V166.43C64.2409 164.85 62.8979 163.67 61.019 163.67C59.1063 163.67 57.6208 164.938 57.6208 166.688V166.729H59.0588V166.688C59.0723 165.698 59.8931 164.924 61.0394 164.924C62.0297 164.924 62.7351 165.589 62.7419 166.518V166.532C62.7419 167.292 62.4502 167.807 61.1479 169.11L57.7022 172.576V173.62ZM69.3077 173.783C71.641 173.783 73.045 171.836 73.045 168.73V168.716C73.045 165.61 71.641 163.67 69.3077 163.67C66.9676 163.67 65.5703 165.61 65.5703 168.716V168.73C65.5703 171.836 66.9676 173.783 69.3077 173.783ZM69.3077 172.515C67.9104 172.515 67.1033 171.077 67.1033 168.73V168.716C67.1033 166.369 67.9104 164.945 69.3077 164.945C70.6982 164.945 71.5121 166.369 71.5121 168.716V168.73C71.5121 171.077 70.6982 172.515 69.3077 172.515ZM77.9762 173.783C80.3095 173.783 81.7136 171.836 81.7136 168.73V168.716C81.7136 165.61 80.3095 163.67 77.9762 163.67C75.6361 163.67 74.2388 165.61 74.2388 168.716V168.73C74.2388 171.836 75.6361 173.783 77.9762 173.783ZM77.9762 172.515C76.5789 172.515 75.7718 171.077 75.7718 168.73V168.716C75.7718 166.369 76.5789 164.945 77.9762 164.945C79.3667 164.945 80.1806 166.369 80.1806 168.716V168.73C80.1806 171.077 79.3667 172.515 77.9762 172.515ZM88.7813 170.31H93.1427V168.987H88.7813V170.31ZM102.856 173.62H104.341V163.832H102.842L100.265 165.664V167.102L102.822 165.338H102.856V173.62ZM107.271 173.62H108.865L113.118 165.148V163.832H106.457V165.114H111.619V165.148L107.271 173.62ZM115.085 167.068C115.58 167.068 115.974 166.674 115.974 166.173C115.974 165.677 115.58 165.284 115.085 165.284C114.583 165.284 114.19 165.677 114.19 166.173C114.19 166.674 114.583 167.068 115.085 167.068ZM115.085 172.162C115.58 172.162 115.974 171.768 115.974 171.273C115.974 170.771 115.58 170.385 115.085 170.385C114.583 170.385 114.19 170.771 114.19 171.273C114.19 171.768 114.583 172.162 115.085 172.162ZM120.98 173.783C123.313 173.783 124.717 171.836 124.717 168.73V168.716C124.717 165.61 123.313 163.67 120.98 163.67C118.64 163.67 117.242 165.61 117.242 168.716V168.73C117.242 171.836 118.64 173.783 120.98 173.783ZM120.98 172.515C119.582 172.515 118.775 171.077 118.775 168.73V168.716C118.775 166.369 119.582 164.945 120.98 164.945C122.37 164.945 123.184 166.369 123.184 168.716V168.73C123.184 171.077 122.37 172.515 120.98 172.515ZM129.648 173.783C131.981 173.783 133.385 171.836 133.385 168.73V168.716C133.385 165.61 131.981 163.67 129.648 163.67C127.308 163.67 125.911 165.61 125.911 168.716V168.73C125.911 171.836 127.308 173.783 129.648 173.783ZM129.648 172.515C128.251 172.515 127.444 171.077 127.444 168.73V168.716C127.444 166.369 128.251 164.945 129.648 164.945C131.039 164.945 131.853 166.369 131.853 168.716V168.73C131.853 171.077 131.039 172.515 129.648 172.515Z" fill="#737373"/>
<line x1="250.029" y1="155.604" x2="250.029" y2="177.219" stroke="white" stroke-width="0.251337"/>
<rect x="276.294" y="160.128" width="26.139" height="12.5668" rx="6.28342" fill="#2D353B"/>
<circle cx="283.647" cy="166.411" r="5.02674" fill="#A8B6C2"/>
<circle cx="321" cy="166" r="7" fill="#2D353B"/>
<path d="M318.914 170.332H322.943C323.572 170.332 323.994 169.923 324.024 169.294L324.328 162.905H324.855C325.035 162.905 325.18 162.751 325.18 162.571C325.18 162.391 325.035 162.241 324.855 162.241H322.847V161.569C322.847 160.932 322.434 160.545 321.757 160.545H320.087C319.41 160.545 318.997 160.932 318.997 161.569V162.241H317.002C316.826 162.241 316.672 162.391 316.672 162.571C316.672 162.755 316.826 162.905 317.002 162.905H317.529L317.833 169.299C317.863 169.927 318.276 170.332 318.914 170.332ZM319.696 161.613C319.696 161.362 319.872 161.2 320.135 161.2H321.708C321.972 161.2 322.148 161.362 322.148 161.613V162.241H319.696V161.613ZM318.975 169.668C318.725 169.668 318.536 169.479 318.522 169.22L318.215 162.905H323.62L323.33 169.22C323.321 169.483 323.132 169.668 322.873 169.668H318.975ZM319.625 168.917C319.792 168.917 319.902 168.811 319.898 168.657L319.762 163.955C319.757 163.801 319.647 163.7 319.489 163.7C319.322 163.7 319.212 163.806 319.217 163.959L319.349 168.657C319.353 168.815 319.463 168.917 319.625 168.917ZM320.926 168.917C321.093 168.917 321.212 168.811 321.212 168.657V163.959C321.212 163.806 321.093 163.7 320.926 163.7C320.759 163.7 320.645 163.806 320.645 163.959V168.657C320.645 168.811 320.759 168.917 320.926 168.917ZM322.231 168.917C322.39 168.917 322.5 168.815 322.504 168.657L322.636 163.959C322.64 163.806 322.53 163.7 322.363 163.7C322.205 163.7 322.095 163.801 322.091 163.959L321.959 168.657C321.955 168.811 322.064 168.917 322.231 168.917Z" fill="white"/>
<circle cx="324.5" cy="264.5" r="12.5" fill="#0091FF" fill-opacity="0.5"/>
<circle cx="324.5" cy="264.5" r="6.5" fill="#0091FF"/>
</svg>
