<svg width="311" height="133" viewBox="0 0 311 133" fill="none" xmlns="http://www.w3.org/2000/svg">
<path d="M96.4687 3.70875C94.2815 4.04127 24.8504 12.9835 23.1268 13.2778C21.4032 13.572 20.3334 13.5749 20.3334 15.8334V113.484C20.3334 115.98 21.5815 116.383 24.8504 116.634C27.1683 116.812 89.0576 123.096 95.6961 123.588C98.3112 123.782 98.4895 122.994 98.4895 121.389V5.37283C98.4895 3.60649 98.0735 3.4648 96.4687 3.70875Z" stroke="#7F8FA4"/>
<path d="M98.0734 3.7085C98.0734 3.7085 103 3.85003 104 3.95003C104.66 4.01598 105.337 4.20064 105.337 5.96698C105.337 9.83021 105.337 118.226 105.337 120.722C105.337 122.327 105 122.95 103.667 123.283C102.333 123.617 97 123.617 97 123.617" stroke="#7F8FA4"/>
<path d="M101.782 3.88379C101.782 3.88379 107.166 4.04385 109.474 4.28384C110.114 4.35041 111.667 5.11383 111.667 6.89688C111.667 10.7967 111.667 117.097 111.667 119.617C111.667 121.237 111.333 122.284 109.333 122.617C107.333 122.95 103 123.284 103 123.284" stroke="#7F8FA4"/>
<path d="M106.333 21.9079L106.333 34.7549C106.333 36.1613 107.419 37.1886 108.756 37.0481C110.094 36.9075 111.179 35.652 111.179 34.2456L111.179 21.3985C111.179 19.9921 110.094 18.9648 108.756 19.1054C107.419 19.246 106.333 20.5015 106.333 21.9079Z" fill="#293238" stroke="#A7C3D4" stroke-width="0.5"/>
<path d="M111 33.6165C111 34.9885 110.42 36.2317 109.483 36.3301L109.483 19.0638C110.42 18.9654 111 20.2445 111 21.6165L111 33.6165Z" fill="#131313" fill-opacity="0.6"/>
<g filter="url(#filter0_d_682_22712)">
<path d="M106.576 21.6738L106.576 30.1001C106.576 31.5065 107.661 32.5339 108.999 32.3933C110.336 32.2527 111.422 30.9972 111.422 29.5908L111.422 21.1645C111.422 19.7581 110.336 18.7308 108.999 18.8714C107.661 19.0119 106.576 20.2674 106.576 21.6738Z" fill="#455765"/>
<path d="M106.824 30.074L106.824 21.6477C106.824 20.3687 107.809 19.2464 108.999 19.1214C110.189 18.9963 111.173 19.9116 111.173 21.1906L111.173 29.6169C111.173 30.8959 110.189 32.0182 108.999 32.1433C107.809 32.2683 106.824 31.353 106.824 30.074Z" stroke="#A7C3D4" stroke-width="0.5"/>
</g>
<path d="M109.726 20.8536C109.726 21.258 109.401 21.6186 108.999 21.6609C108.596 21.7032 108.272 21.4108 108.272 21.0064C108.272 20.6019 108.596 20.2413 108.999 20.1991C109.401 20.1568 109.726 20.4491 109.726 20.8536Z" fill="#DADADA"/>
<path fill-rule="evenodd" clip-rule="evenodd" d="M159.722 4C154.199 4 149.722 8.47715 149.722 14V47.9632L119.022 26.9564C117.213 25.7187 115.018 27.8722 116.221 29.7044L149.722 80.7425V114C149.722 119.523 154.199 124 159.722 124H259.722C265.245 124 269.722 119.523 269.722 114V14C269.722 8.47715 265.245 4 259.722 4H159.722Z" fill="#131313" fill-opacity="0.2"/>
<path d="M211.843 19.6364C211.843 20.5682 211.672 21.3693 211.331 22.0398C210.99 22.7074 210.523 23.2216 209.929 23.5824C209.338 23.9403 208.666 24.1193 207.914 24.1193C207.158 24.1193 206.483 23.9403 205.889 23.5824C205.298 23.2216 204.833 22.706 204.492 22.0355C204.151 21.3651 203.98 20.5653 203.98 19.6364C203.98 18.7045 204.151 17.9048 204.492 17.2372C204.833 16.5668 205.298 16.0526 205.889 15.6946C206.483 15.3338 207.158 15.1534 207.914 15.1534C208.666 15.1534 209.338 15.3338 209.929 15.6946C210.523 16.0526 210.99 16.5668 211.331 17.2372C211.672 17.9048 211.843 18.7045 211.843 19.6364ZM210.539 19.6364C210.539 18.9261 210.423 18.3281 210.193 17.8423C209.966 17.3537 209.654 16.9844 209.256 16.7344C208.861 16.4815 208.414 16.3551 207.914 16.3551C207.411 16.3551 206.962 16.4815 206.567 16.7344C206.172 16.9844 205.86 17.3537 205.629 17.8423C205.402 18.3281 205.289 18.9261 205.289 19.6364C205.289 20.3466 205.402 20.946 205.629 21.4347C205.86 21.9205 206.172 22.2898 206.567 22.5426C206.962 22.7926 207.411 22.9176 207.914 22.9176C208.414 22.9176 208.861 22.7926 209.256 22.5426C209.654 22.2898 209.966 21.9205 210.193 21.4347C210.423 20.946 210.539 20.3466 210.539 19.6364ZM214.656 20.1136V24H213.382V17.4545H214.605V18.5199H214.686C214.836 18.1733 215.072 17.8949 215.393 17.6847C215.717 17.4744 216.125 17.3693 216.616 17.3693C217.062 17.3693 217.453 17.4631 217.788 17.6506C218.123 17.8352 218.383 18.1108 218.568 18.4773C218.753 18.8437 218.845 19.2969 218.845 19.8366V24H217.571V19.9901C217.571 19.5156 217.447 19.1449 217.2 18.8778C216.953 18.608 216.613 18.473 216.182 18.473C215.886 18.473 215.623 18.5369 215.393 18.6648C215.166 18.7926 214.986 18.9801 214.852 19.2273C214.721 19.4716 214.656 19.767 214.656 20.1136Z" fill="white"/>
<path d="M201 41.3127L201 86.7761C201 92.5485 205.48 97.2334 211 97.2334C216.52 97.2334 221 92.5485 221 86.7761L221 41.3127C221 35.5402 216.52 30.8553 211 30.8553C205.48 30.8553 201 35.5402 201 41.3127Z" fill="#293238" stroke="#A7C3D4" stroke-width="2"/>
<g filter="url(#filter1_d_682_22712)">
<path d="M201 40.4573L201 66.4294C201 72.2018 205.48 76.8867 211 76.8867C216.52 76.8867 221 72.2018 221 66.4294L221 40.4573C221 34.6849 216.52 30 211 30C205.48 30 201 34.6849 201 40.4573Z" fill="#455765"/>
<path d="M201.5 66.4294L201.5 40.4573C201.5 34.9397 205.777 30.5 211 30.5C216.223 30.5 220.5 34.9397 220.5 40.4573L220.5 66.4294C220.5 71.947 216.223 76.3867 211 76.3867C205.777 76.3867 201.5 71.947 201.5 66.4294Z" stroke="#A7C3D4"/>
</g>
<path d="M215.094 40.4497C215.094 42.663 213.307 44.4497 211.094 44.4497C208.88 44.4497 207.094 42.663 207.094 40.4497C207.094 38.2364 208.88 36.4497 211.094 36.4497C213.307 36.4497 215.094 38.2364 215.094 40.4497Z" fill="#DADADA"/>
<path d="M210.999 107.87C210.999 108.802 210.828 109.603 210.487 110.273C210.146 110.941 209.679 111.455 209.085 111.816C208.494 112.174 207.823 112.353 207.07 112.353C206.314 112.353 205.639 112.174 205.046 111.816C204.455 111.455 203.989 110.939 203.648 110.269C203.307 109.598 203.137 108.799 203.137 107.87C203.137 106.938 203.307 106.138 203.648 105.471C203.989 104.8 204.455 104.286 205.046 103.928C205.639 103.567 206.314 103.387 207.07 103.387C207.823 103.387 208.494 103.567 209.085 103.928C209.679 104.286 210.146 104.8 210.487 105.471C210.828 106.138 210.999 106.938 210.999 107.87ZM209.695 107.87C209.695 107.16 209.58 106.562 209.35 106.076C209.122 105.587 208.81 105.218 208.412 104.968C208.017 104.715 207.57 104.589 207.07 104.589C206.567 104.589 206.118 104.715 205.723 104.968C205.328 105.218 205.016 105.587 204.786 106.076C204.558 106.562 204.445 107.16 204.445 107.87C204.445 108.58 204.558 109.179 204.786 109.668C205.016 110.154 205.328 110.523 205.723 110.776C206.118 111.026 206.567 111.151 207.07 111.151C207.57 111.151 208.017 111.026 208.412 110.776C208.81 110.523 209.122 110.154 209.35 109.668C209.58 109.179 209.695 108.58 209.695 107.87ZM215.653 105.688V106.711H211.954V105.688H215.653ZM212.969 112.233V104.929C212.969 104.52 213.058 104.181 213.237 103.911C213.416 103.638 213.653 103.435 213.949 103.302C214.244 103.165 214.565 103.097 214.912 103.097C215.167 103.097 215.386 103.118 215.568 103.161C215.75 103.201 215.885 103.238 215.973 103.272L215.675 104.303C215.615 104.286 215.538 104.266 215.444 104.243C215.351 104.218 215.237 104.205 215.104 104.205C214.794 104.205 214.572 104.282 214.439 104.435C214.308 104.589 214.243 104.81 214.243 105.1V112.233H212.969ZM220.083 105.688V106.711H216.384V105.688H220.083ZM217.398 112.233V104.929C217.398 104.52 217.488 104.181 217.667 103.911C217.846 103.638 218.083 103.435 218.378 103.302C218.674 103.165 218.995 103.097 219.341 103.097C219.597 103.097 219.816 103.118 219.998 103.161C220.18 103.201 220.314 103.238 220.403 103.272L220.104 104.303C220.045 104.286 219.968 104.266 219.874 104.243C219.78 104.218 219.667 104.205 219.533 104.205C219.224 104.205 219.002 104.282 218.868 104.435C218.738 104.589 218.672 104.81 218.672 105.1V112.233H217.398Z" fill="white"/>
<defs>
<filter id="filter0_d_682_22712" x="105.576" y="17.8584" width="6.84607" height="15.5479" filterUnits="userSpaceOnUse" color-interpolation-filters="sRGB">
<feFlood flood-opacity="0" result="BackgroundImageFix"/>
<feColorMatrix in="SourceAlpha" type="matrix" values="0 0 0 0 0 0 0 0 0 0 0 0 0 0 0 0 0 0 127 0" result="hardAlpha"/>
<feOffset/>
<feGaussianBlur stdDeviation="0.5"/>
<feComposite in2="hardAlpha" operator="out"/>
<feColorMatrix type="matrix" values="0 0 0 0 0 0 0 0 0 0 0 0 0 0 0 0 0 0 1 0"/>
<feBlend mode="normal" in2="BackgroundImageFix" result="effect1_dropShadow_682_22712"/>
<feBlend mode="normal" in="SourceGraphic" in2="effect1_dropShadow_682_22712" result="shape"/>
</filter>
<filter id="filter1_d_682_22712" x="200" y="29" width="22" height="48.8867" filterUnits="userSpaceOnUse" color-interpolation-filters="sRGB">
<feFlood flood-opacity="0" result="BackgroundImageFix"/>
<feColorMatrix in="SourceAlpha" type="matrix" values="0 0 0 0 0 0 0 0 0 0 0 0 0 0 0 0 0 0 127 0" result="hardAlpha"/>
<feOffset/>
<feGaussianBlur stdDeviation="0.5"/>
<feComposite in2="hardAlpha" operator="out"/>
<feColorMatrix type="matrix" values="0 0 0 0 0 0 0 0 0 0 0 0 0 0 0 0 0 0 1 0"/>
<feBlend mode="normal" in2="BackgroundImageFix" result="effect1_dropShadow_682_22712"/>
<feBlend mode="normal" in="SourceGraphic" in2="effect1_dropShadow_682_22712" result="shape"/>
</filter>
</defs>
</svg>
