<svg width="306" height="246" viewBox="0 0 306 246" fill="none" xmlns="http://www.w3.org/2000/svg">
<g clip-path="url(#clip0_1028_143012)">
<path d="M211.869 26.9999C211.869 36.2047 204.407 43.6666 195.202 43.6666M211.869 26.9999C211.869 17.7952 204.407 10.3333 195.202 10.3333M211.869 26.9999C211.869 24.2385 204.407 21.9999 195.202 21.9999C185.998 21.9999 178.536 24.2385 178.536 26.9999M211.869 26.9999C211.869 29.7613 204.407 31.9999 195.202 31.9999C185.998 31.9999 178.536 29.7613 178.536 26.9999M195.202 43.6666C185.998 43.6666 178.536 36.2047 178.536 26.9999M195.202 43.6666C198.884 43.6666 201.869 36.2047 201.869 26.9999C201.869 17.7952 198.884 10.3333 195.202 10.3333M195.202 43.6666C191.52 43.6666 188.536 36.2047 188.536 26.9999C188.536 17.7952 191.52 10.3333 195.202 10.3333M178.536 26.9999C178.536 17.7952 185.998 10.3333 195.202 10.3333" stroke="#262626" stroke-width="1.5"/>
<path d="M257.5 42.5H292.5C296.918 42.5 300.5 38.9183 300.5 34.5V12.5" stroke="#999999" stroke-width="3" stroke-linecap="round"/>
<path d="M51 236.25C51 231.14 55.14 227 60.25 227C65.36 227 69.5 231.14 69.5 236.25C69.5 241.36 65.36 245.5 60.25 245.5C55.14 245.5 51 241.36 51 236.25Z" fill="#059669"/>
<path d="M59.4268 238.854L57 236.427" stroke="white" stroke-width="1.5" stroke-linecap="round"/>
<path d="M64.2803 234L59.4268 238.854" stroke="white" stroke-width="1.5" stroke-linecap="round"/>
<path d="M13.5002 30.8167C12.4502 30.8167 11.5835 31.6666 11.5835 32.7333V37.4666C11.5835 38.5166 12.4335 39.3833 13.5002 39.3833H40.5002C41.5502 39.3833 42.4168 38.5333 42.4168 37.4666V32.7333C42.4168 31.6666 41.5668 30.8167 40.5002 30.8167H13.5002Z" stroke="#262626" stroke-width="1.5" stroke-linecap="round" stroke-linejoin="round"/>
<path d="M16.7168 39.3667V41.0834" stroke="#262626" stroke-width="1.5" stroke-linecap="round" stroke-linejoin="round"/>
<path d="M37.2837 39.3667V41.0834" stroke="#262626" stroke-width="1.5" stroke-linecap="round" stroke-linejoin="round"/>
<path d="M35.6001 35.0834C35.6001 34.1334 36.3501 33.3667 37.3001 33.3667H37.3168C38.2668 33.3667 39.0334 34.1334 39.0334 35.0834C39.0334 36.0334 38.2501 36.8 37.3168 36.8C36.3668 36.8 35.6001 36.0334 35.6001 35.0834Z" fill="#262626"/>
<path d="M30.4507 35.0836C30.4507 34.1336 31.2007 33.3669 32.1507 33.3669H32.1673C33.1173 33.3669 33.884 34.1336 33.884 35.0836C33.884 36.0336 33.1173 36.8003 32.1673 36.8003C31.2173 36.8003 30.4507 36.0336 30.4507 35.0836Z" fill="#262626"/>
<path d="M16.7175 30.8168L13.3008 17.1001" stroke="#262626" stroke-width="1.5" stroke-linecap="round" stroke-linejoin="round"/>
<path d="M37.2837 30.8168L40.7004 17.1001" stroke="#262626" stroke-width="1.5" stroke-linecap="round" stroke-linejoin="round"/>
<path d="M21.7676 15.2168C23.3509 14.2335 25.2009 13.6667 27.1676 13.6667C29.0176 13.6667 30.7509 14.1501 32.2342 15.0001" stroke="#262626" stroke-width="1.5" stroke-linecap="round" stroke-linejoin="round"/>
<path d="M24.4517 19.5834C25.235 19.0834 26.1683 18.8167 27.1517 18.8167C28.085 18.8167 28.9517 19.05 29.685 19.4834" stroke="#262626" stroke-width="1.5" stroke-linecap="round" stroke-linejoin="round"/>
<path d="M25.4849 23.9501C25.4849 23.0001 26.2349 22.2334 27.1849 22.2334H27.2015C28.1515 22.2334 28.9182 23.0001 28.9182 23.9501C28.9182 24.9001 28.1515 25.6667 27.2015 25.6667C26.2515 25.6667 25.4849 24.9001 25.4849 23.9501Z" fill="#262626"/>
<path d="M127.869 26.9999C127.869 36.2047 120.407 43.6666 111.202 43.6666M127.869 26.9999C127.869 17.7952 120.407 10.3333 111.202 10.3333M127.869 26.9999C127.869 24.2385 120.407 21.9999 111.202 21.9999C101.998 21.9999 94.5356 24.2385 94.5356 26.9999M127.869 26.9999C127.869 29.7613 120.407 31.9999 111.202 31.9999C101.998 31.9999 94.5356 29.7613 94.5356 26.9999M111.202 43.6666C101.998 43.6666 94.5356 36.2047 94.5356 26.9999M111.202 43.6666C114.884 43.6666 117.869 36.2047 117.869 26.9999C117.869 17.7952 114.884 10.3333 111.202 10.3333M111.202 43.6666C107.52 43.6666 104.536 36.2047 104.536 26.9999C104.536 17.7952 107.52 10.3333 111.202 10.3333M94.5356 26.9999C94.5356 17.7952 101.998 10.3333 111.202 10.3333" stroke="#818181" stroke-width="1.5"/>
<path d="M1.5 236C1.5 231.304 5.30421 227.5 10 227.5C14.6958 227.5 18.5 231.304 18.5 236C18.5 240.696 14.6958 244.5 10 244.5C5.30421 244.5 1.5 240.696 1.5 236Z" fill="#DC2626" stroke="#DC2626" stroke-width="1.5" stroke-linecap="round" stroke-linejoin="round"/>
<path d="M12.8801 233.05L7.1001 238.922" stroke="white" stroke-width="1.5" stroke-linecap="round" stroke-linejoin="round"/>
<path d="M7.1001 233.05L12.8801 238.922" stroke="white" stroke-width="1.5" stroke-linecap="round" stroke-linejoin="round"/>
<path d="M63.97 99.07C62.55 100.7 60.57 101.83 58.33 102.14C57.9 102.21 57.46 102.24 57 102.24C56.54 102.24 56.11 102.21 55.67 102.14C53.43 101.83 51.45 100.7 50.03 99.07C48.61 97.46 47.75 95.32 47.75 93C47.75 90.68 48.61 88.54 50.03 86.93C51.45 85.3 53.43 84.17 55.67 83.86C56.1 83.79 56.54 83.76 57 83.76C57.46 83.76 57.89 83.79 58.33 83.86C60.57 84.17 62.55 85.3 63.97 86.93C65.39 88.54 66.25 90.68 66.25 93C66.25 95.32 65.39 97.46 63.97 99.07Z" stroke="#4D4D4D" stroke-width="1.5" stroke-linecap="round" stroke-linejoin="round"/>
<path d="M56.67 102.15C56.03 101.48 53 98.1701 53 93.0001C53 87.8301 56.03 84.5201 56.67 83.8501" stroke="#4D4D4D" stroke-width="1.5" stroke-linecap="round" stroke-linejoin="round"/>
<path d="M57.3301 102.15C57.9701 101.48 61.0001 98.1701 61.0001 93.0001C61.0001 87.8301 57.9701 84.5201 57.3301 83.8501" stroke="#4D4D4D" stroke-width="1.5" stroke-linecap="round" stroke-linejoin="round"/>
<path d="M47.75 93H66.25" stroke="#4D4D4D" stroke-width="1.5" stroke-linecap="round" stroke-linejoin="round"/>
<path d="M63.97 147.07C62.55 148.7 60.57 149.83 58.33 150.14C57.9 150.21 57.46 150.24 57 150.24C56.54 150.24 56.11 150.21 55.67 150.14C53.43 149.83 51.45 148.7 50.03 147.07C48.61 145.46 47.75 143.32 47.75 141C47.75 138.68 48.61 136.54 50.03 134.93C51.45 133.3 53.43 132.17 55.67 131.86C56.1 131.79 56.54 131.76 57 131.76C57.46 131.76 57.89 131.79 58.33 131.86C60.57 132.17 62.55 133.3 63.97 134.93C65.39 136.54 66.25 138.68 66.25 141C66.25 143.32 65.39 145.46 63.97 147.07Z" stroke="#006CE1" stroke-width="1.5" stroke-linecap="round" stroke-linejoin="round"/>
<path d="M56.67 150.15C56.03 149.48 53 146.17 53 141C53 135.83 56.03 132.52 56.67 131.85" stroke="#006CE1" stroke-width="1.5" stroke-linecap="round" stroke-linejoin="round"/>
<path d="M57.3301 150.15C57.9701 149.48 61.0001 146.17 61.0001 141C61.0001 135.83 57.9701 132.52 57.3301 131.85" stroke="#006CE1" stroke-width="1.5" stroke-linecap="round" stroke-linejoin="round"/>
<path d="M47.75 141H66.25" stroke="#006CE1" stroke-width="1.5" stroke-linecap="round" stroke-linejoin="round"/>
<rect x="11" y="88" width="8" height="13" rx="2" stroke="#4D4D4D" stroke-width="1.5"/>
<path d="M17 85H3C1.89543 85 1 85.8954 1 87V98H8" stroke="#4D4D4D" stroke-width="1.5" stroke-linecap="round"/>
<path d="M8 98H0.5C-0.328427 98 -1 98.6716 -1 99.5V99.5C-1 100.328 -0.328427 101 0.5 101H8" stroke="#4D4D4D" stroke-width="1.5" stroke-linecap="round"/>
<rect x="11" y="136" width="8" height="13" rx="2" stroke="#006CE1" stroke-width="1.5"/>
<path d="M17 133H3C1.89543 133 1 133.895 1 135V146H8" stroke="#006CE1" stroke-width="1.5" stroke-linecap="round"/>
<path d="M8 146H0.5C-0.328427 146 -1 146.672 -1 147.5V147.5C-1 148.328 -0.328427 149 0.5 149H8" stroke="#006CE1" stroke-width="1.5" stroke-linecap="round"/>
<path d="M96 88H99M99 88C99 89.6569 100.343 91 102 91C103.657 91 105 89.6569 105 88C105 86.3431 103.657 85 102 85C100.343 85 99 86.3431 99 88ZM96 98H102M111 98H114M111 98C111 99.6569 109.657 101 108 101C106.343 101 105 99.6569 105 98C105 96.3431 106.343 95 108 95C109.657 95 111 96.3431 111 98ZM108 88H114" stroke="#4D4D4D" stroke-width="1.5" stroke-linecap="round"/>
<path d="M96 136H99M99 136C99 137.657 100.343 139 102 139C103.657 139 105 137.657 105 136C105 134.343 103.657 133 102 133C100.343 133 99 134.343 99 136ZM96 146H102M111 146H114M111 146C111 147.657 109.657 149 108 149C106.343 149 105 147.657 105 146C105 144.343 106.343 143 108 143C109.657 143 111 144.343 111 146ZM108 136H114" stroke="#006CE1" stroke-width="1.5" stroke-linecap="round"/>
<g clip-path="url(#clip1_1028_143012)">
<path d="M152.698 97.9473C152.698 94.9889 155.095 92.592 158.053 92.592C161.011 92.592 163.408 94.9889 163.408 97.9473C163.408 100.906 161.011 103.303 158.053 103.303C155.095 103.303 152.698 100.906 152.698 97.9473Z" stroke="#4D4D4D" stroke-width="1.5" stroke-linecap="round" stroke-linejoin="round"/>
<path d="M157.763 96.5522C157.341 96.3379 156.837 96.6448 156.837 97.1195V98.7753C156.837 99.25 157.341 99.5569 157.763 99.3427L159.379 98.5148C159.842 98.2774 159.842 97.6174 159.379 97.38L157.763 96.5522Z" fill="#4D4D4D"/>
<path d="M150.563 93.5342C149.582 92.9645 149.36 91.6417 150.101 90.7839L152.81 87.6464C153.128 87.2775 153.664 87.1879 154.085 87.4329C154.507 87.6779 154.696 88.1883 154.535 88.649L153.17 92.5678C152.797 93.6391 151.543 94.104 150.563 93.5342Z" fill="#4D4D4D"/>
<path d="M146.656 99.2C144.438 97.5651 143 94.9383 143 91.9764C143 87.0189 147.029 83 152 83C156.971 83 161 87.0189 161 91.9764C161 92.4958 160.956 93.0048 160.871 93.5" stroke="#4D4D4D" stroke-width="1.5" stroke-linecap="round"/>
</g>
<g clip-path="url(#clip2_1028_143012)">
<path d="M152.698 145.947C152.698 142.989 155.095 140.592 158.053 140.592C161.011 140.592 163.408 142.989 163.408 145.947C163.408 148.906 161.011 151.303 158.053 151.303C155.095 151.303 152.698 148.906 152.698 145.947Z" stroke="#006CE1" stroke-width="1.5" stroke-linecap="round" stroke-linejoin="round"/>
<path d="M157.763 144.552C157.341 144.338 156.837 144.645 156.837 145.12V146.775C156.837 147.25 157.341 147.557 157.763 147.343L159.379 146.515C159.842 146.277 159.842 145.617 159.379 145.38L157.763 144.552Z" fill="#006CE1"/>
<path d="M150.563 141.534C149.582 140.964 149.36 139.642 150.101 138.784L152.81 135.646C153.128 135.278 153.664 135.188 154.085 135.433C154.507 135.678 154.696 136.188 154.535 136.649L153.17 140.568C152.797 141.639 151.543 142.104 150.563 141.534Z" fill="#006CE1"/>
<path d="M146.656 147.2C144.438 145.565 143 142.938 143 139.976C143 135.019 147.029 131 152 131C156.971 131 161 135.019 161 139.976C161 140.496 160.956 141.005 160.871 141.5" stroke="#006CE1" stroke-width="1.5" stroke-linecap="round"/>
</g>
<path fill-rule="evenodd" clip-rule="evenodd" d="M92.2935 195.701C92.0363 195.444 91.9387 195.068 92.0385 194.718C92.1383 194.368 92.9051 191.692 92.9041 191.683C91.0861 188.181 92.0938 183.876 95.2773 181.545C98.4608 179.214 102.869 179.553 105.658 182.343C108.448 185.134 108.786 189.542 106.454 192.725C104.122 195.907 99.8167 196.914 96.3153 195.095L93.2767 195.956C92.927 196.056 92.5506 195.959 92.2935 195.701Z" fill="#006CE1"/>
<path d="M100 188.5C99.7239 188.5 99.5 188.276 99.5 188C99.5 187.724 99.7239 187.5 100 187.5C100.276 187.5 100.5 187.724 100.5 188C100.5 188.276 100.276 188.5 100 188.5ZM104 188.5C103.724 188.5 103.5 188.276 103.5 188C103.5 187.724 103.724 187.5 104 187.5C104.276 187.5 104.5 187.724 104.5 188C104.5 188.276 104.276 188.5 104 188.5ZM96 188.5C95.7239 188.5 95.5 188.276 95.5 188C95.5 187.724 95.7239 187.5 96 187.5C96.2761 187.5 96.5 187.724 96.5 188C96.5 188.276 96.2761 188.5 96 188.5Z" stroke="white"/>
<path d="M143.534 190.7C142.994 190.607 142.48 190.353 142.067 189.94C141.654 189.527 141.4 189.007 141.307 188.473C141.154 187.627 141.414 186.72 142.067 186.067C142.72 185.413 143.627 185.153 144.474 185.307C145.014 185.4 145.527 185.653 145.94 186.067C146.354 186.48 146.607 187 146.7 187.533C146.847 188.38 146.594 189.287 145.94 189.94C145.287 190.593 144.38 190.853 143.534 190.7Z" stroke="#006CE1" stroke-width="1.2" stroke-linecap="round" stroke-linejoin="round"/>
<path d="M144.466 190.7C145.006 190.607 145.52 190.353 145.933 189.94C146.346 189.527 146.6 189.007 146.693 188.473C147.626 189.247 148.56 190.027 149.486 190.807C149.2 191.373 148.82 191.9 148.353 192.367C147.893 192.833 147.366 193.207 146.8 193.493C146.026 192.56 145.246 191.627 144.466 190.7Z" stroke="#006CE1" stroke-width="1.2" stroke-linecap="round" stroke-linejoin="round"/>
<path d="M139.64 183.64C140.106 183.173 140.633 182.793 141.2 182.507C141.973 183.44 142.753 184.373 143.533 185.3C142.993 185.393 142.48 185.647 142.066 186.06C141.653 186.473 141.4 186.993 141.306 187.527C140.373 186.753 139.433 185.973 138.506 185.2C138.793 184.633 139.173 184.107 139.64 183.64Z" stroke="#006CE1" stroke-width="1.2" stroke-linecap="round" stroke-linejoin="round"/>
<path d="M146.7 187.533C146.606 186.993 146.353 186.48 145.94 186.067C145.526 185.653 145.006 185.4 144.473 185.307C145.246 184.373 146.026 183.44 146.806 182.513C147.373 182.8 147.9 183.18 148.366 183.647C148.833 184.107 149.206 184.633 149.493 185.2C148.56 185.973 147.626 186.753 146.7 187.533Z" stroke="#006CE1" stroke-width="1.2" stroke-linecap="round" stroke-linejoin="round"/>
<path d="M139.64 192.36C139.173 191.893 138.793 191.367 138.506 190.8C139.44 190.027 140.373 189.247 141.3 188.467C141.393 189.007 141.646 189.52 142.06 189.933C142.473 190.347 142.993 190.6 143.526 190.693C142.753 191.627 141.973 192.567 141.2 193.493C140.633 193.207 140.106 192.827 139.64 192.36Z" stroke="#006CE1" stroke-width="1.2" stroke-linecap="round" stroke-linejoin="round"/>
<path fill-rule="evenodd" clip-rule="evenodd" d="M144 194.167C140.594 194.167 137.833 191.406 137.833 188C137.833 184.594 140.594 181.833 144 181.833C147.406 181.833 150.167 184.594 150.167 188C150.167 191.406 147.406 194.167 144 194.167Z" stroke="#006CE1" stroke-width="1.2" stroke-linecap="round" stroke-linejoin="round"/>
<g clip-path="url(#clip3_1028_143012)">
<path d="M148.706 231.5C149.157 230.433 149.807 229.472 150.61 228.662C152.241 227.018 154.502 226 157 226C161.971 226 166 230.029 166 235L166 236.5" stroke="#262626" stroke-width="1.2" stroke-linecap="round"/>
<path d="M148 235C148 237.472 148.997 239.712 150.61 241.338C152.241 242.982 154.502 244 157 244C160.12 244 162.87 242.412 164.484 240" stroke="#262626" stroke-width="1.2" stroke-linecap="round"/>
<path d="M146.125 236.875L148 235L149.875 236.875" stroke="#262626" stroke-width="1.2" stroke-linecap="round"/>
<path d="M167.875 235.125L166 237L164.125 235.125" stroke="#262626" stroke-width="1.2" stroke-linecap="round"/>
</g>
<path d="M102.69 228.83V242.19C102.69 243.32 103.61 244.24 104.74 244.24H112.9C114.03 244.24 114.95 243.32 114.95 242.19V228.83H114.96H102.69Z" stroke="#262626" stroke-width="1.2" stroke-linecap="round" stroke-linejoin="round"/>
<path d="M100.79 228.83H117.21" stroke="#262626" stroke-width="1.2" stroke-linecap="round" stroke-linejoin="round"/>
<path fill-rule="evenodd" clip-rule="evenodd" d="M112.08 225.74V228.82H105.92V225.74H112.08Z" stroke="#262626" stroke-width="1.2" stroke-linecap="round" stroke-linejoin="round"/>
<path d="M106.94 232.75V240.14" stroke="#262626" stroke-width="1.2" stroke-linecap="round" stroke-linejoin="round"/>
<path d="M111.05 232.75V240.14" stroke="#262626" stroke-width="1.2" stroke-linecap="round" stroke-linejoin="round"/>
<path d="M285 223.25V231.405" stroke="#006CE1" stroke-width="2" stroke-linecap="round" stroke-linejoin="round"/>
<path fill-rule="evenodd" clip-rule="evenodd" d="M285 219.89C284.275 219.89 283.688 219.302 283.688 218.577C283.688 217.853 284.275 217.265 285 217.265C285.725 217.265 286.312 217.853 286.312 218.577C286.312 219.302 285.725 219.89 285 219.89Z" fill="#006CE1"/>
<path fill-rule="evenodd" clip-rule="evenodd" d="M285 241.188C276.06 241.188 268.812 233.94 268.812 225C268.812 216.06 276.06 208.812 285 208.812C293.94 208.812 301.188 216.06 301.188 225C301.188 233.94 293.94 241.188 285 241.188Z" stroke="#006CE1" stroke-width="2" stroke-linecap="round" stroke-linejoin="round"/>
<path d="M7.99984 195.108C4.07401 195.108 0.891504 191.926 0.891504 188C0.891504 184.074 4.07401 180.892 7.99984 180.892C11.9257 180.892 15.1082 184.074 15.1082 188C15.1082 191.926 11.9257 195.108 7.99984 195.108Z" fill="#DC2626" stroke="#DC2626" stroke-width="1.2" stroke-linecap="round" stroke-linejoin="round"/>
<path fill-rule="evenodd" clip-rule="evenodd" d="M8 184.6V188.483V184.6Z" fill="white"/>
<path d="M8 184.6V188.483" stroke="white" stroke-width="1.5" stroke-linecap="round" stroke-linejoin="round"/>
<path fill-rule="evenodd" clip-rule="evenodd" d="M7.99984 191.816C7.5396 191.816 7.1665 191.443 7.1665 190.983C7.1665 190.523 7.5396 190.15 7.99984 190.15C8.46007 190.15 8.83317 190.523 8.83317 190.983C8.83317 191.443 8.46007 191.816 7.99984 191.816Z" fill="white"/>
<path d="M53.9998 195.108C50.074 195.108 46.8915 191.926 46.8915 188C46.8915 184.074 50.074 180.892 53.9998 180.892C57.9257 180.892 61.1082 184.074 61.1082 188C61.1082 191.926 57.9257 195.108 53.9998 195.108Z" fill="#818181" stroke="#818181" stroke-width="1.2" stroke-linecap="round" stroke-linejoin="round"/>
<path fill-rule="evenodd" clip-rule="evenodd" d="M54 184.6V188.483V184.6Z" fill="white"/>
<path d="M54 184.6V188.483" stroke="white" stroke-width="1.5" stroke-linecap="round" stroke-linejoin="round"/>
<path fill-rule="evenodd" clip-rule="evenodd" d="M53.9998 191.816C53.5396 191.816 53.1665 191.443 53.1665 190.983C53.1665 190.523 53.5396 190.15 53.9998 190.15C54.4601 190.15 54.8332 190.523 54.8332 190.983C54.8332 191.443 54.4601 191.816 53.9998 191.816Z" fill="white"/>
</g>
<defs>
<clipPath id="clip0_1028_143012">
<rect width="306" height="246" fill="white"/>
</clipPath>
<clipPath id="clip1_1028_143012">
<rect width="24" height="24" fill="white" transform="translate(141 81)"/>
</clipPath>
<clipPath id="clip2_1028_143012">
<rect width="24" height="24" fill="white" transform="translate(141 129)"/>
</clipPath>
<clipPath id="clip3_1028_143012">
<rect width="24" height="24" fill="white" transform="translate(145 223)"/>
</clipPath>
</defs>
</svg>
