<svg width="389" height="22" viewBox="0 0 389 22" fill="none" xmlns="http://www.w3.org/2000/svg">
<g clip-path="url(#clip0_1019_142602)">
<path d="M304.474 10.3154L301.649 13.1406C300.479 14.3106 300.479 16.2106 301.649 17.3806C302.819 18.5506 304.719 18.5506 305.889 17.3806L308.714 14.5554" stroke="#262626" stroke-width="1.2" stroke-linecap="round" stroke-linejoin="round"/>
<path d="M307.303 7.48705L310.171 4.61896C311.341 3.44896 313.241 3.44896 314.411 4.61896C315.581 5.78895 315.581 7.68896 314.411 8.85896L311.543 11.727" stroke="#262626" stroke-width="1.2" stroke-linecap="round" stroke-linejoin="round"/>
<path d="M310.13 8.8999L305.887 13.1421" stroke="#262626" stroke-width="1.2" stroke-linecap="round" stroke-linejoin="round"/>
<path d="M339.471 8.66667C339.771 7.95553 340.205 7.31439 340.74 6.77451C341.827 5.67865 343.334 5 345 5C348.314 5 351 7.68629 351 11L351 12" stroke="#262626" stroke-width="1.2" stroke-linecap="round"/>
<path d="M338.999 11C338.999 12.6481 339.663 14.1411 340.739 15.2255C341.826 16.3213 343.333 17 344.999 17C347.079 17 348.912 15.9413 349.988 14.3333" stroke="#262626" stroke-width="1.2" stroke-linecap="round"/>
<path d="M337.75 12.25L339 11L340.25 12.25" stroke="#262626" stroke-width="1.2" stroke-linecap="round"/>
<path d="M352.25 11.0833L351 12.3333L349.75 11.0833" stroke="#262626" stroke-width="1.2" stroke-linecap="round"/>
<path d="M377.703 10.5318L374.878 13.3576C373.708 14.5276 373.708 16.4276 374.878 17.5976C376.048 18.7676 377.948 18.7676 379.118 17.5976L382.5 14.2147" stroke="#262626" stroke-width="1.2" stroke-linecap="round" stroke-linejoin="round"/>
<path d="M384.771 11.9438L387.597 9.11789C388.767 7.94789 388.767 6.0479 387.597 4.8779C386.427 3.7079 384.527 3.7079 383.357 4.8779L380.28 7.955" stroke="#262626" stroke-width="1.2" stroke-linecap="round" stroke-linejoin="round"/>
<path d="M388.067 13.0679L374.407 9.40762" stroke="#262626" stroke-width="1.2" stroke-linecap="round" stroke-linejoin="round"/>
<path d="M381.237 11.2375L384.066 8.40961" stroke="#262626" stroke-width="1.2" stroke-linecap="round" stroke-linejoin="round"/>
<path d="M10.7731 8.15479H8.97813H7.18213" stroke="#262626" stroke-width="1.2" stroke-linecap="round" stroke-linejoin="round"/>
<path fill-rule="evenodd" clip-rule="evenodd" d="M14.9626 11.0952H11.0726H7.18262H11.0726H14.9626Z" fill="#262626" stroke="#262626" stroke-width="1.2" stroke-linecap="round" stroke-linejoin="round"/>
<path fill-rule="evenodd" clip-rule="evenodd" d="M13.1671 14.0359H10.1741H7.18213H10.1741H13.1671Z" fill="#262626" stroke="#262626" stroke-width="1.2" stroke-linecap="round" stroke-linejoin="round"/>
<path d="M19.387 11.1532C19.3878 8.67665 18.4412 6.385 16.7255 4.69183L16.7255 4.69174C15.099 3.08594 12.9087 2.17178 10.727 2.17178C9.01533 2.17178 7.33492 2.72967 5.86727 3.79875L5.86661 3.79923C5.80796 3.84183 5.79464 3.87424 5.79105 3.88554C5.78769 3.89615 5.78041 3.92682 5.80264 3.98965L5.80349 3.99204L5.80348 3.99204C5.82338 4.04905 5.85775 4.0945 5.89016 4.12141C5.89464 4.12513 5.89864 4.12816 5.90214 4.13063C5.91139 4.12578 5.92395 4.11826 5.93984 4.10672C7.37236 3.06372 9.03294 2.50678 10.743 2.50678C12.8441 2.50678 14.9377 3.36525 16.499 4.85348L16.4993 4.85376C18.2253 6.50136 19.176 8.74284 19.172 11.1538C19.172 11.1541 19.172 11.1545 19.172 11.1548M19.387 11.1532L19.172 11.1548M19.387 11.1532C19.387 11.1533 19.387 11.1534 19.387 11.1536L19.386 11.5854L19.3846 12.1931L19.9923 12.1867L19.9924 12.1867L19.9925 12.1867L19.993 12.1867L19.995 12.1867L20.003 12.1866L20.0335 12.1863L20.1444 12.1852L20.465 12.1821C20.1771 12.6373 19.7938 13.2358 19.2842 14.0219C18.9995 13.5891 18.6136 12.9964 18.0915 12.1848M19.387 11.1532L18.0915 12.1848M19.172 11.1548L19.172 11.5848V12.1848H18.572H18.0915M19.172 11.1548L18.0915 12.1848M2.171 10.6988V10.0677L1.54072 10.0995L1.08084 10.1228C1.45542 9.53364 1.89777 8.85528 2.2754 8.28783C2.55967 8.72018 2.94527 9.31295 3.46679 10.1249L2.98939 10.1198L2.383 10.1134V10.7198V11.1538C2.381 13.4997 3.28845 15.6966 4.9374 17.3327L4.93748 17.3328C6.5147 18.8971 8.65597 19.7988 10.82 19.7988C12.5265 19.7988 14.1852 19.2422 15.616 18.2024C15.6311 18.1917 15.643 18.1846 15.6517 18.1801C15.6562 18.183 15.6617 18.1869 15.668 18.1921C15.7013 18.2195 15.7363 18.2654 15.7566 18.3227L15.7568 18.323C15.7775 18.3814 15.7708 18.41 15.7674 18.4206C15.7636 18.4324 15.7494 18.4662 15.689 18.5103C14.2398 19.5692 12.5669 20.1238 10.848 20.1238C6.68209 20.1238 2.171 16.6973 2.171 11.1538V10.6988ZM5.88256 4.13893C5.88256 4.13892 5.8828 4.13885 5.88329 4.13876L5.88256 4.13893ZM5.91853 4.14019C5.91911 4.14036 5.91939 4.14048 5.91939 4.14049L5.91853 4.14019Z" fill="#262626" stroke="#262626" stroke-width="1.2"/>
<rect x="0.6" y="-0.6" width="18.8" height="18.8" rx="1.4" transform="matrix(1 0 0 -1 38 19.8)" stroke="#248DFF" stroke-width="1.2"/>
<path d="M41.75 16.625V17.225C41.4186 17.225 41.15 16.9564 41.15 16.625H41.75ZM54.25 16.625H54.85C54.85 16.9564 54.5814 17.225 54.25 17.225V16.625ZM41.75 9.125H41.15C41.15 8.79363 41.4186 8.525 41.75 8.525V9.125ZM44.25 9.125H44.85C44.85 9.45637 44.5814 9.725 44.25 9.725V9.125ZM44.25 6.1249H43.65C43.65 5.79353 43.9186 5.5249 44.25 5.5249V6.1249ZM51.75 6.1249V5.5249C52.0814 5.5249 52.35 5.79353 52.35 6.1249H51.75ZM51.75 9.125V9.725C51.4186 9.725 51.15 9.45637 51.15 9.125H51.75ZM54.25 9.125V8.525C54.5814 8.525 54.85 8.79363 54.85 9.125H54.25ZM41.75 16.025H54.25V17.225H41.75V16.025ZM42.35 9.125V16.625H41.15V9.125H42.35ZM44.25 9.725H41.75V8.525H44.25V9.725ZM44.85 6.1249V9.125H43.65V6.1249H44.85ZM51.75 6.7249H44.25V5.5249H51.75V6.7249ZM51.15 9.125V6.1249H52.35V9.125H51.15ZM54.25 9.725H51.75V8.525H54.25V9.725ZM53.65 16.625V9.125H54.85V16.625H53.65Z" fill="#262626"/>
<path d="M44.25 16.625V13.825" stroke="#262626" stroke-width="1.2" stroke-linecap="round" stroke-linejoin="round"/>
<path d="M46.75 16.625V13.825" stroke="#262626" stroke-width="1.2" stroke-linecap="round" stroke-linejoin="round"/>
<path d="M49.25 16.625V13.825" stroke="#262626" stroke-width="1.2" stroke-linecap="round" stroke-linejoin="round"/>
<path d="M51.75 16.625V13.825" stroke="#262626" stroke-width="1.2" stroke-linecap="round" stroke-linejoin="round"/>
<path d="M79.9198 4.19H77.8598C76.7198 4.19 75.7998 5.11 75.7998 6.25V19.44C75.7998 20.58 76.7198 21.5 77.8598 21.5H92.2498C93.3898 21.5 94.3098 20.58 94.3098 19.44V6.25C94.3098 5.11 93.3898 4.19 92.2498 4.19H92.1898" stroke="#248DFF" stroke-width="1.2" stroke-linecap="round" stroke-linejoin="round"/>
<path d="M82.5996 0.599854C86.7871 0.599854 90.1621 3.97485 90.1621 8.16235" stroke="#248DFF" stroke-width="1.2" stroke-linecap="round" stroke-linejoin="round"/>
<path d="M82.9121 4.03735C84.9746 4.03735 86.6621 5.72485 86.6621 7.78735" stroke="#248DFF" stroke-width="1.2" stroke-linecap="round" stroke-linejoin="round"/>
<path d="M82.9564 18.5999V17.3759H79.7524V17.3519L80.4364 16.7639C81.7924 15.5039 82.7764 14.3999 82.7764 13.0319C82.7764 11.7599 81.9364 10.6679 80.2084 10.6679C79.2244 10.6679 78.3724 11.0159 77.8084 11.4719L78.2404 12.5159C78.6364 12.2159 79.2244 11.8679 79.9084 11.8679C80.9284 11.8679 81.3004 12.4799 81.3004 13.1759C81.2884 14.2079 80.4244 15.1439 78.5884 16.8479L77.6644 17.6999V18.5999H82.9564ZM85.106 18.7319C85.658 18.7319 86.018 18.3239 86.018 17.7839C86.018 17.2199 85.646 16.8359 85.106 16.8359C84.578 16.8359 84.194 17.2319 84.194 17.7839C84.194 18.3239 84.566 18.7319 85.106 18.7319ZM91.578 18.5999V16.6199H92.586V15.5039H91.578V10.7999H89.838L86.658 15.6599V16.6199H90.186V18.5999H91.578ZM88.062 15.5039L88.074 15.4799L89.502 13.3439C89.742 12.9119 89.946 12.5159 90.186 12.0239H90.234C90.198 12.4799 90.186 12.9359 90.186 13.3799V15.5039H88.062Z" fill="#262626"/>
<path d="M116.92 4.19H114.86C113.72 4.19 112.8 5.11 112.8 6.25V19.44C112.8 20.58 113.72 21.5 114.86 21.5H129.25C130.39 21.5 131.31 20.58 131.31 19.44V6.25C131.31 5.11 130.39 4.19 129.25 4.19H129.19" stroke="#248DFF" stroke-width="1.2" stroke-linecap="round" stroke-linejoin="round"/>
<path d="M119.6 0.600098C123.787 0.600098 127.162 3.9751 127.162 8.1626" stroke="#248DFF" stroke-width="1.2" stroke-linecap="round" stroke-linejoin="round"/>
<path d="M119.912 4.0376C121.975 4.0376 123.662 5.7251 123.662 7.7876" stroke="#248DFF" stroke-width="1.2" stroke-linecap="round" stroke-linejoin="round"/>
<path d="M124.228 10.1501H119.86L119.301 14.4141C119.639 14.3621 119.99 14.3361 120.458 14.3361C122.148 14.3361 122.863 14.9731 122.863 15.9351C122.863 16.9491 121.966 17.4821 121.03 17.4821C120.263 17.4821 119.535 17.2351 119.171 17.0401L118.846 18.2491C119.288 18.4961 120.107 18.7431 121.082 18.7431C123.162 18.7431 124.501 17.4301 124.501 15.8181C124.501 14.7911 124.033 14.0761 123.396 13.6731C122.824 13.2961 122.083 13.1271 121.342 13.1271C121.095 13.1271 120.926 13.1401 120.731 13.1661L120.978 11.4761H124.228V10.1501Z" fill="#262626"/>
<path d="M153.92 4.19025H151.86C150.72 4.19025 149.8 5.11024 149.8 6.25024V19.4402C149.8 20.5802 150.72 21.5002 151.86 21.5002H166.25C167.39 21.5002 168.31 20.5802 168.31 19.4402V6.25024C168.31 5.11024 167.39 4.19025 166.25 4.19025H166.19" stroke="#248DFF" stroke-width="1.2" stroke-linecap="round" stroke-linejoin="round"/>
<path d="M156.6 0.600098C160.787 0.600098 164.162 3.9751 164.162 8.1626" stroke="#248DFF" stroke-width="1.2" stroke-linecap="round" stroke-linejoin="round"/>
<path d="M156.912 4.0376C158.975 4.0376 160.662 5.7251 160.662 7.7876" stroke="#248DFF" stroke-width="1.2" stroke-linecap="round" stroke-linejoin="round"/>
<path d="M156.646 10.8001H152.614L152.098 14.7361C152.41 14.6881 152.734 14.6641 153.166 14.6641C154.726 14.6641 155.386 15.2521 155.386 16.1401C155.386 17.0761 154.558 17.5681 153.694 17.5681C152.986 17.5681 152.314 17.3401 151.978 17.1601L151.678 18.2761C152.086 18.5041 152.842 18.7321 153.742 18.7321C155.662 18.7321 156.898 17.5201 156.898 16.0321C156.898 15.0841 156.466 14.4241 155.878 14.0521C155.35 13.7041 154.666 13.5481 153.982 13.5481C153.754 13.5481 153.598 13.5601 153.418 13.5841L153.646 12.0241H156.646V10.8001ZM157.967 14.8921V15.9121H161.027V14.8921H157.967ZM164.225 18.6001H165.653V10.8001H164.417L162.521 11.7361L162.773 12.8521L164.201 12.1321H164.225V18.6001Z" fill="#262626"/>
<path d="M190.92 4.19025H188.86C187.72 4.19025 186.8 5.11024 186.8 6.25024V19.4402C186.8 20.5802 187.72 21.5002 188.86 21.5002H203.25C204.39 21.5002 205.31 20.5802 205.31 19.4402V6.25024C205.31 5.11024 204.39 4.19025 203.25 4.19025H203.19" stroke="#248DFF" stroke-width="1.2" stroke-linecap="round" stroke-linejoin="round"/>
<path d="M193.6 0.600098C197.787 0.600098 201.162 3.9751 201.162 8.1626" stroke="#248DFF" stroke-width="1.2" stroke-linecap="round" stroke-linejoin="round"/>
<path d="M193.912 4.0376C195.975 4.0376 197.662 5.7251 197.662 7.7876" stroke="#248DFF" stroke-width="1.2" stroke-linecap="round" stroke-linejoin="round"/>
<path d="M193.146 10.8001H189.114L188.598 14.7361C188.91 14.6881 189.234 14.6641 189.666 14.6641C191.226 14.6641 191.886 15.2521 191.886 16.1401C191.886 17.0761 191.058 17.5681 190.194 17.5681C189.486 17.5681 188.814 17.3401 188.478 17.1601L188.178 18.2761C188.586 18.5041 189.342 18.7321 190.242 18.7321C192.162 18.7321 193.398 17.5201 193.398 16.0321C193.398 15.0841 192.966 14.4241 192.378 14.0521C191.85 13.7041 191.166 13.5481 190.482 13.5481C190.254 13.5481 190.098 13.5601 189.918 13.5841L190.146 12.0241H193.146V10.8001ZM194.467 14.8921V15.9121H197.527V14.8921H194.467ZM203.701 18.6001V17.3761H200.497V17.3521L201.181 16.7641C202.537 15.5041 203.521 14.4001 203.521 13.0321C203.521 11.7601 202.681 10.6681 200.953 10.6681C199.969 10.6681 199.117 11.0161 198.553 11.4721L198.985 12.5161C199.381 12.2161 199.969 11.8681 200.653 11.8681C201.673 11.8681 202.045 12.4801 202.045 13.1761C202.033 14.2081 201.169 15.1441 199.333 16.8481L198.409 17.7001V18.6001H203.701Z" fill="#262626"/>
<path d="M227.92 4.19025H225.86C224.72 4.19025 223.8 5.11024 223.8 6.25024V19.4402C223.8 20.5802 224.72 21.5002 225.86 21.5002H240.25C241.39 21.5002 242.31 20.5802 242.31 19.4402V6.25024C242.31 5.11024 241.39 4.19025 240.25 4.19025H240.19" stroke="#248DFF" stroke-width="1.2" stroke-linecap="round" stroke-linejoin="round"/>
<path d="M230.6 0.600098C234.787 0.600098 238.162 3.9751 238.162 8.1626" stroke="#248DFF" stroke-width="1.2" stroke-linecap="round" stroke-linejoin="round"/>
<path d="M230.912 4.0376C232.975 4.0376 234.662 5.7251 234.662 7.7876" stroke="#248DFF" stroke-width="1.2" stroke-linecap="round" stroke-linejoin="round"/>
<path d="M234.994 10.0331C234.799 10.0201 234.539 10.0201 234.188 10.0591C232.979 10.1631 231.965 10.5791 231.185 11.3071C230.301 12.1521 229.716 13.4781 229.716 15.1031C229.716 17.1831 230.847 18.7431 232.901 18.7431C234.695 18.7431 235.878 17.3391 235.878 15.7271C235.878 14.0111 234.747 12.9711 233.291 12.9711C232.446 12.9711 231.809 13.3091 231.393 13.7901H231.354C231.562 12.6201 232.42 11.5281 234.188 11.3201C234.513 11.2811 234.773 11.2811 235.007 11.2811L234.994 10.0331ZM232.888 17.5471C231.861 17.5471 231.328 16.6371 231.302 15.5191C231.302 15.2981 231.341 15.1421 231.406 15.0121C231.653 14.5051 232.186 14.1411 232.784 14.1411C233.72 14.1411 234.253 14.8431 234.253 15.8181C234.253 16.8321 233.72 17.5471 232.888 17.5471Z" fill="#262626"/>
<path d="M273.968 9.95577C273.875 9.78175 273.713 9.67735 273.515 9.66574L270.65 9.46853L271.508 4.93257C271.555 4.67735 271.416 4.42213 271.184 4.32932C270.94 4.22491 270.661 4.30612 270.511 4.52653L266.068 11.0579C265.952 11.2203 265.94 11.4291 266.021 11.6031C266.102 11.7771 266.276 11.8931 266.474 11.9163L269.768 12.2063L268.794 17.0555C268.736 17.3224 268.887 17.5776 269.13 17.6704C269.2 17.6936 269.258 17.7052 269.327 17.7052C269.513 17.7052 269.699 17.6124 269.791 17.4384L273.945 10.4894C274.049 10.327 274.049 10.1298 273.968 9.95577Z" fill="black"/>
<path d="M270 1C264.49 1 260 5.48956 260 11C260 16.5104 264.49 21 270 21C275.51 21 280 16.5104 280 11C280 5.48956 275.51 1 270 1ZM270 19.8979C265.093 19.8979 261.09 15.9072 261.09 10.9884C261.09 6.06961 265.093 2.09049 270 2.09049C274.907 2.09049 278.91 6.08121 278.91 11C278.91 15.9188 274.907 19.8979 270 19.8979Z" fill="#248DFF"/>
</g>
<defs>
<clipPath id="clip0_1019_142602">
<rect width="389" height="22" fill="white"/>
</clipPath>
</defs>
</svg>
