<svg width="24" height="24" viewBox="0 0 24 24" fill="none" xmlns="http://www.w3.org/2000/svg">
<g clip-path="url(#clip0_1109_142404)">
<g clip-path="url(#clip1_1109_142404)">
<path d="M11.6978 16.9473C11.6978 13.9889 14.0946 11.592 17.053 11.592C20.0114 11.592 22.4083 13.9889 22.4083 16.9473C22.4083 19.9057 20.0114 22.3026 17.053 22.3026C14.0946 22.3026 11.6978 19.9057 11.6978 16.9473Z" stroke="#006CE1" stroke-width="1.5" stroke-linecap="round" stroke-linejoin="round"/>
<path d="M16.7632 15.5522C16.3406 15.3379 15.8369 15.6448 15.8369 16.1195V17.7753C15.8369 18.25 16.3406 18.5569 16.7632 18.3427L18.3785 17.5148C18.8417 17.2774 18.8417 16.6174 18.3785 16.38L16.7632 15.5522Z" fill="#006CE1"/>
<path d="M9.56262 12.5342C8.58227 11.9645 8.36015 10.6417 9.1008 9.78389L11.8099 6.64635C12.1284 6.27752 12.6637 6.18793 13.0852 6.43291V6.43291C13.5068 6.6779 13.6956 7.18834 13.5352 7.64901L12.1703 11.5678C11.7972 12.6391 10.543 13.104 9.56262 12.5342V12.5342Z" fill="#006CE1"/>
<path d="M5.65625 18.2C3.43828 16.5651 2 13.9383 2 10.9764C2 6.01888 6.02944 2 11 2C15.9706 2 20 6.01888 20 10.9764C20 11.4958 19.9558 12.0048 19.8709 12.5" stroke="#006CE1" stroke-width="1.5" stroke-linecap="round"/>
</g>
</g>
<defs>
<clipPath id="clip0_1109_142404">
<rect width="24" height="24" fill="white"/>
</clipPath>
<clipPath id="clip1_1109_142404">
<rect width="24" height="24" fill="white"/>
</clipPath>
</defs>
</svg>
