<svg width="44" height="379" viewBox="0 0 44 379" fill="none" xmlns="http://www.w3.org/2000/svg">
<path d="M42 89C42 100.046 33.0457 109 22 109C10.9543 109 2 100.046 2 89C2 77.9543 10.9543 69 22 69C33.0457 69 42 77.9543 42 89Z" stroke="#262626" stroke-width="2"/>
<path d="M16.7672 91.9382V86.8748C16.7672 84.0827 19.0386 81.8113 21.8307 81.8113C24.6228 81.8113 26.8941 84.0827 26.8941 86.8748V91.9382H16.7672ZM18.4551 93.6485H25.2063H18.4551ZM26.8942 93.6261H29.4259C29.8924 93.6261 30.2698 93.2486 30.2698 92.7821C30.2698 92.3156 29.8923 91.9382 29.4258 91.9382H28.5819V86.8748C28.5819 83.1522 25.5532 80.1235 21.8307 80.1235C18.1081 80.1235 15.0794 83.1522 15.0794 86.8748V91.9382H14.2355C13.769 91.9382 13.3916 92.3157 13.3916 92.7821C13.3916 93.2487 13.769 93.6261 14.2355 93.6261H16.7672H26.8942Z" fill="#262626"/>
<mask id="mask0_1019_142871" style="mask-type:alpha" maskUnits="userSpaceOnUse" x="8" y="73" width="29" height="32">
<path d="M8.3291 104.101H36.0452V73.3721H8.3291V104.101Z" fill="white"/>
</mask>
<g mask="url(#mask0_1019_142871)">
<path d="M32.6689 88.0999H36.0446V86.4121H32.6689V88.0999Z" fill="#262626"/>
</g>
<mask id="mask1_1019_142871" style="mask-type:alpha" maskUnits="userSpaceOnUse" x="8" y="73" width="29" height="32">
<path d="M8.3291 104.101H36.0452V73.3721H8.3291V104.101Z" fill="white"/>
</mask>
<g mask="url(#mask1_1019_142871)">
<path d="M8.32861 88.0999H11.7042V86.4121H8.32861V88.0999Z" fill="#262626"/>
</g>
<mask id="mask2_1019_142871" style="mask-type:alpha" maskUnits="userSpaceOnUse" x="8" y="73" width="29" height="32">
<path d="M8.3291 104.101H36.0452V73.3721H8.3291V104.101Z" fill="white"/>
</mask>
<g mask="url(#mask2_1019_142871)">
<path d="M20.9873 76.7477H22.6751V73.3721H20.9873V76.7477Z" fill="#262626"/>
</g>
<mask id="mask3_1019_142871" style="mask-type:alpha" maskUnits="userSpaceOnUse" x="8" y="73" width="29" height="32">
<path d="M8.3291 104.101H36.0452V73.3721H8.3291V104.101Z" fill="white"/>
</mask>
<g mask="url(#mask3_1019_142871)">
<path d="M11.6875 77.9226L12.8801 76.73L15.2673 79.1162L14.0737 80.3088L11.6875 77.9226Z" fill="#262626"/>
</g>
<mask id="mask4_1019_142871" style="mask-type:alpha" maskUnits="userSpaceOnUse" x="8" y="73" width="29" height="32">
<path d="M8.3291 104.101H36.0452V73.3721H8.3291V104.101Z" fill="white"/>
</mask>
<g mask="url(#mask4_1019_142871)">
<path d="M28.3911 79.1162L30.7773 76.73L31.9709 77.9226L29.5847 80.3097L28.3911 79.1162Z" fill="#262626"/>
</g>
<mask id="mask5_1019_142871" style="mask-type:alpha" maskUnits="userSpaceOnUse" x="8" y="73" width="29" height="32">
<path d="M8.3291 104.101H36.0452V73.3721H8.3291V104.101Z" fill="white"/>
</mask>
<g mask="url(#mask5_1019_142871)">
<path d="M14.2877 96.4888H17.8569V98.0711H14.2877C13.851 98.0711 13.4966 97.7167 13.4966 97.2799C13.4966 96.8432 13.851 96.4888 14.2877 96.4888Z" fill="#262626"/>
</g>
<mask id="mask6_1019_142871" style="mask-type:alpha" maskUnits="userSpaceOnUse" x="8" y="73" width="29" height="32">
<path d="M8.3291 104.101H36.0452V73.3721H8.3291V104.101Z" fill="white"/>
</mask>
<g mask="url(#mask6_1019_142871)">
<path d="M29.3736 98.0711H20.9873V96.4888H29.3736C29.8104 96.4888 30.1648 96.8432 30.1648 97.2799C30.1648 97.7167 29.8104 98.0711 29.3736 98.0711Z" fill="#262626"/>
</g>
<mask id="mask7_1019_142871" style="mask-type:alpha" maskUnits="userSpaceOnUse" x="8" y="73" width="29" height="32">
<path d="M8.3291 104.101H36.0452V73.3721H8.3291V104.101Z" fill="white"/>
</mask>
<g mask="url(#mask7_1019_142871)">
<path d="M18.144 95.6274V98.9327" stroke="#262626" stroke-width="1.62" stroke-linecap="round"/>
</g>
<mask id="mask8_1019_142871" style="mask-type:alpha" maskUnits="userSpaceOnUse" x="8" y="73" width="29" height="32">
<path d="M8.3291 104.101H36.0452V73.3721H8.3291V104.101Z" fill="white"/>
</mask>
<g mask="url(#mask8_1019_142871)">
<path d="M29.3722 100.866H26.2251V102.449H29.3722C29.8091 102.449 30.1633 102.095 30.1633 101.658C30.1633 101.221 29.8091 100.866 29.3722 100.866Z" fill="#262626"/>
</g>
<mask id="mask9_1019_142871" style="mask-type:alpha" maskUnits="userSpaceOnUse" x="8" y="73" width="29" height="32">
<path d="M8.3291 104.101H36.0452V73.3721H8.3291V104.101Z" fill="white"/>
</mask>
<g mask="url(#mask9_1019_142871)">
<path d="M23.6664 100.866H14.2877C13.8508 100.866 13.4966 101.221 13.4966 101.658C13.4966 102.095 13.8508 102.449 14.2877 102.449H23.6664V100.866Z" fill="#262626"/>
</g>
<mask id="mask10_1019_142871" style="mask-type:alpha" maskUnits="userSpaceOnUse" x="8" y="73" width="29" height="32">
<path d="M8.3291 104.101H36.0452V73.3721H8.3291V104.101Z" fill="white"/>
</mask>
<g mask="url(#mask10_1019_142871)">
<path d="M23.4282 100.005V103.31" stroke="#262626" stroke-width="1.62" stroke-linecap="round"/>
</g>
<path d="M42 155C42 166.046 33.0457 175 22 175C10.9543 175 2 166.046 2 155C2 143.954 10.9543 135 22 135C33.0457 135 42 143.954 42 155Z" stroke="#262626" stroke-width="2"/>
<path d="M18.542 165.59C18.3397 165.59 18.1667 165.443 18.1396 165.248L17.6742 162.091L17.3144 161.933C16.7954 161.704 16.298 161.424 15.8359 161.1L15.5137 160.874L12.4648 162.07C12.4167 162.087 12.3666 162.096 12.3159 162.096C12.1628 162.096 12.0208 162.016 11.9453 161.886L9.56465 157.877C9.46264 157.704 9.50461 157.484 9.6657 157.355L12.2567 155.385L12.2109 154.996C12.1467 154.449 12.1467 153.895 12.2109 153.349L12.2567 152.959L9.66311 150.987C9.50364 150.865 9.45975 150.641 9.56343 150.467L11.9539 146.45C12.0253 146.326 12.1605 146.249 12.3068 146.249C12.3564 146.249 12.4054 146.258 12.4524 146.276L15.5101 147.472L15.8317 147.247C16.295 146.923 16.7928 146.642 17.3114 146.41L17.668 146.251L18.1334 143.093C18.1616 142.9 18.3335 142.755 18.5332 142.755H23.3158C23.5181 142.755 23.6911 142.902 23.7181 143.097L24.1797 146.257L24.5397 146.416C25.0585 146.644 25.5554 146.925 26.0169 147.249L26.3393 147.476L29.3878 146.28C29.4358 146.263 29.4856 146.254 29.5361 146.254C29.6898 146.254 29.8322 146.335 29.9078 146.465L32.2866 150.47C32.3894 150.644 32.3475 150.863 32.1864 150.991L29.5918 152.956L29.6356 153.345C29.6635 153.592 29.6793 153.843 29.6827 154.092C29.2827 154.029 28.8763 153.997 28.4717 153.997C27.8139 153.997 27.1608 154.08 26.5265 154.245C26.5267 154.225 26.5268 154.204 26.5268 154.184C26.5198 151.183 24.0036 148.742 20.918 148.742H20.905C17.8121 148.749 15.3017 151.201 15.3087 154.208C15.3157 157.208 17.8318 159.649 20.9175 159.649L20.9723 159.649L20.9793 159.648C20.8135 160.268 20.7289 160.906 20.728 161.547C20.7264 162.99 21.1437 164.381 21.938 165.59H18.542Z" fill="#262626"/>
<path d="M33.3465 166.216C32.7663 166.796 32.0706 167.248 31.3046 167.542C30.5385 167.836 29.7192 167.966 28.8998 167.923C28.0804 167.88 27.2791 167.665 26.548 167.293C25.817 166.92 25.1723 166.398 24.6559 165.761C24.1396 165.123 23.763 164.384 23.5506 163.591C23.3382 162.799 23.2948 161.97 23.4232 161.16C23.5515 160.349 23.8488 159.575 24.2957 158.887C24.7426 158.199 25.3291 157.612 26.0173 157.165C26.7055 156.718 27.4799 156.421 28.2903 156.293C29.1008 156.164 29.9291 156.208 30.7217 156.42C31.5143 156.633 32.2534 157.009 32.8911 157.526C33.5287 158.042 34.0507 158.687 34.4233 159.418C34.7958 160.149 35.0105 160.95 35.0534 161.769C35.0637 161.965 35.0641 162.16 35.0548 162.354" stroke="#262626" stroke-width="1.534"/>
<path d="M37.9899 161.099L35.0626 164.028L32.1353 161.099H37.9899Z" fill="#262626"/>
<path d="M42 223C42 234.046 33.0457 243 22 243C10.9543 243 2 234.046 2 223C2 211.954 10.9543 203 22 203C33.0457 203 42 211.954 42 223Z" stroke="#262626" stroke-width="2"/>
<path fill-rule="evenodd" clip-rule="evenodd" d="M14.1906 212.532L14.9973 218.797L12.8125 217.511C12.7876 217.601 12.7512 217.688 12.7026 217.772C11.7462 219.429 11.2427 221.308 11.2427 223.221C11.2427 225.134 11.7462 227.013 12.7026 228.67C13.6591 230.327 15.0347 231.702 16.6914 232.659C18.3481 233.615 20.2273 234.119 22.1402 234.119C22.7606 234.119 23.2635 234.622 23.2635 235.242C23.2635 235.862 22.7606 236.365 22.1402 236.365C19.833 236.365 17.5663 235.758 15.5681 234.604C13.57 233.451 11.9107 231.791 10.7571 229.793C9.60348 227.795 8.99615 225.528 8.99615 223.221C8.99615 220.914 9.60348 218.647 10.7571 216.649C10.8085 216.56 10.8704 216.481 10.9402 216.412L8.32373 214.874L14.1906 212.532ZM22.0629 210.326C24.3701 210.326 26.6368 210.933 28.635 212.087C30.6331 213.24 32.2924 214.9 33.446 216.898C34.5996 218.896 35.207 221.163 35.207 223.47C35.207 225.777 34.5996 228.044 33.446 230.042C33.3944 230.131 33.3324 230.211 33.2624 230.28L35.8794 231.817L30.0125 234.159L29.2057 227.894L31.3908 229.179C31.4157 229.09 31.452 229.002 31.5005 228.919C32.4569 227.262 32.9604 225.383 32.9604 223.47C32.9604 221.557 32.4569 219.678 31.5005 218.021C30.544 216.364 29.1684 214.989 27.5117 214.032C25.855 213.076 23.9758 212.572 22.0629 212.572C21.4425 212.572 20.9396 212.069 20.9396 211.449C20.9396 210.829 21.4425 210.326 22.0629 210.326ZM27.032 220.786C27.5352 221.658 27.8002 222.646 27.8002 223.653C27.8002 224.659 27.5352 225.648 27.032 226.52C26.5287 227.391 25.8049 228.115 24.9333 228.618C24.0617 229.122 23.0729 229.386 22.0664 229.386C21.0599 229.386 20.0711 229.122 19.1995 228.618C18.3278 228.115 17.604 227.391 17.1008 226.52C16.5976 225.648 16.3327 224.659 16.3327 223.653C16.3327 222.646 16.5976 221.657 17.1008 220.786C17.363 220.332 17.9436 220.176 18.3977 220.438C18.8518 220.701 19.0074 221.281 18.7452 221.735C18.4087 222.318 18.2315 222.98 18.2315 223.653C18.2315 224.326 18.4086 224.987 18.7452 225.57C19.0818 226.153 19.5659 226.637 20.1489 226.974C20.7318 227.31 21.3932 227.488 22.0664 227.488C22.7396 227.488 23.4009 227.31 23.9839 226.974C24.5669 226.637 25.051 226.153 25.3876 225.57C25.7242 224.987 25.9014 224.326 25.9014 223.653C25.9014 222.98 25.7242 222.318 25.3876 221.735C25.1254 221.281 25.281 220.701 25.7351 220.438C26.1891 220.176 26.7698 220.332 27.032 220.786ZM21.9981 216.297C22.5376 216.297 22.9749 216.735 22.9749 217.274V223.135C22.9749 223.674 22.5376 224.111 21.9981 224.111C21.4587 224.111 21.0214 223.674 21.0214 223.135V217.274C21.0214 216.735 21.4587 216.297 21.9981 216.297Z" fill="#262626"/>
<path d="M42 21C42 32.0457 33.0457 41 22 41C10.9543 41 2 32.0457 2 21C2 9.95431 10.9543 1 22 1C33.0457 1 42 9.95431 42 21Z" stroke="#262626" stroke-width="2"/>
<path d="M32.5527 10.2559H12.4264C11.2431 10.2559 10.2803 11.176 10.2803 12.307V28.7163C10.2803 29.8473 11.2431 30.7675 12.4264 30.7675H32.5527C33.7361 30.7675 34.6989 29.8473 34.6989 28.7163V12.307C34.6989 11.176 33.7361 10.2559 32.5527 10.2559ZM33.2681 28.7163C33.2681 29.0933 32.9471 29.4 32.5527 29.4H12.4264C12.032 29.4 11.7111 29.0933 11.7111 28.7163V12.307C11.7111 11.9301 12.032 11.6233 12.4264 11.6233H32.5527C32.9471 11.6233 33.2681 11.9301 33.2681 12.307V28.7163Z" fill="#262626"/>
<path d="M30.364 12.834H14.4957C14.1305 12.834 13.8345 13.1313 13.8345 13.4982V21.4684C13.8345 21.8353 14.1305 22.1326 14.4957 22.1326H15.1568V24.1251C15.1568 24.492 15.4528 24.7893 15.818 24.7893H17.8016V26.7819C17.8016 27.1487 18.0975 27.4461 18.4627 27.4461H26.3969C26.7621 27.4461 27.0581 27.1487 27.0581 26.7819V24.7893H29.0416C29.4068 24.7893 29.7028 24.492 29.7028 24.1251V22.1326H30.364C30.7292 22.1326 31.0252 21.8353 31.0252 21.4684V13.4982C31.0252 13.1313 30.7292 12.834 30.364 12.834ZM29.7028 20.8042H29.0416C28.6764 20.8042 28.3804 21.1015 28.3804 21.4684V23.461H26.3969C26.0317 23.461 25.7357 23.7583 25.7357 24.1251V26.1177H19.1239V24.1251C19.1239 23.7583 18.8279 23.461 18.4627 23.461H16.4792V21.4684C16.4792 21.1015 16.1832 20.8042 15.818 20.8042H15.1568V14.1624H29.7028V20.8042Z" fill="#262626"/>
<path d="M17.2721 19.7108C17.7469 19.7108 18.1317 19.3901 18.1317 18.9945V16.1294C18.1317 15.7337 17.7469 15.4131 17.2721 15.4131C16.7974 15.4131 16.4126 15.7337 16.4126 16.1294V18.9945C16.4126 19.3901 16.7974 19.7108 17.2721 19.7108ZM19.8507 19.7108C20.3255 19.7108 20.7103 19.3901 20.7103 18.9945V16.1294C20.7103 15.7337 20.3255 15.4131 19.8507 15.4131C19.376 15.4131 18.9912 15.7337 18.9912 16.1294V18.9945C18.9912 19.3901 19.376 19.7108 19.8507 19.7108ZM22.4293 19.7108C22.9041 19.7108 23.2889 19.3901 23.2889 18.9945V16.1294C23.2889 15.7337 22.9041 15.4131 22.4293 15.4131C21.9546 15.4131 21.5698 15.7337 21.5698 16.1294V18.9945C21.5698 19.3901 21.9546 19.7108 22.4293 19.7108ZM25.0079 19.7108C25.4827 19.7108 25.8675 19.3901 25.8675 18.9945V16.1294C25.8675 15.7337 25.4827 15.4131 25.0079 15.4131C24.5332 15.4131 24.1484 15.7337 24.1484 16.1294V18.9945C24.1484 19.3901 24.5332 19.7108 25.0079 19.7108ZM27.5865 19.7108C28.0613 19.7108 28.4461 19.3901 28.4461 18.9945V16.1294C28.4461 15.7337 28.0613 15.4131 27.5865 15.4131C27.1118 15.4131 26.727 15.7337 26.727 16.1294V18.9945C26.727 19.3901 27.1118 19.7108 27.5865 19.7108Z" fill="#262626"/>
<path d="M42 290C42 301.046 33.0457 310 22 310C10.9543 310 2 301.046 2 290C2 278.954 10.9543 270 22 270C33.0457 270 42 278.954 42 290Z" stroke="#262626" stroke-width="2"/>
<path d="M31.8489 279.256C32.3435 279.256 32.7442 279.656 32.7442 280.151V299.849C32.7442 300.343 32.3434 300.744 31.8489 300.744H12.1512C11.6568 300.744 11.2559 300.343 11.2559 299.849V280.151C11.2559 279.656 11.6568 279.256 12.1512 279.256H31.8489ZM30.7907 281.209H13.2093V298.79H30.7907V281.209ZM17.4776 293.812C17.8031 293.487 18.3309 293.487 18.6564 293.812C18.9819 294.138 18.9819 294.666 18.6564 294.991L18.4123 295.235L18.6564 295.479C18.9819 295.805 18.9819 296.333 18.6564 296.658C18.3309 296.983 17.8031 296.983 17.4776 296.658L17.2335 296.414L16.9895 296.658C16.664 296.983 16.1362 296.983 15.8107 296.658C15.4852 296.333 15.4852 295.805 15.8107 295.479L16.0548 295.235L15.8107 294.991C15.4852 294.666 15.4852 294.138 15.8107 293.812C16.1362 293.487 16.6639 293.487 16.9894 293.812L17.2335 294.056L17.4776 293.812ZM28.0689 294.402C28.5293 294.402 28.9024 294.775 28.9024 295.235C28.9024 295.695 28.5292 296.069 28.0689 296.069H21.401C20.9407 296.069 20.5675 295.695 20.5675 295.235C20.5675 294.775 20.9407 294.402 21.401 294.402H28.0689ZM17.4776 288.811C17.8031 288.486 18.3309 288.486 18.6564 288.811C18.9819 289.137 18.9819 289.665 18.6564 289.99L18.4123 290.234L18.6564 290.478C18.9819 290.804 18.9819 291.332 18.6564 291.657C18.3309 291.983 17.8031 291.983 17.4776 291.657L17.2335 291.413L16.9895 291.657C16.664 291.983 16.1362 291.983 15.8107 291.657C15.4852 291.332 15.4852 290.804 15.8107 290.478L16.0548 290.234L15.8107 289.99C15.4852 289.665 15.4852 289.137 15.8107 288.811C16.1362 288.486 16.6639 288.486 16.9894 288.811L17.2335 289.055L17.4776 288.811ZM28.0689 289.401C28.5293 289.401 28.9024 289.774 28.9024 290.234C28.9024 290.695 28.5292 291.068 28.0689 291.068H21.401C20.9407 291.068 20.5675 290.695 20.5675 290.234C20.5675 289.774 20.9407 289.401 21.401 289.401H28.0689ZM17.4776 283.81C17.8031 283.485 18.3309 283.485 18.6564 283.81C18.9819 284.136 18.9819 284.664 18.6564 284.989L18.4123 285.233L18.6564 285.477C18.9819 285.803 18.9819 286.331 18.6564 286.656C18.3309 286.982 17.8031 286.982 17.4776 286.656L17.2335 286.412L16.9895 286.656C16.664 286.982 16.1362 286.982 15.8107 286.656C15.4852 286.331 15.4852 285.803 15.8107 285.477L16.0548 285.233L15.8107 284.989C15.4852 284.664 15.4852 284.136 15.8107 283.81C16.1362 283.485 16.6639 283.485 16.9894 283.81L17.2335 284.055L17.4776 283.81ZM28.0689 284.4C28.5293 284.4 28.9024 284.773 28.9024 285.233C28.9024 285.694 28.5292 286.067 28.0689 286.067H21.401C20.9407 286.067 20.5675 285.694 20.5675 285.233C20.5675 284.773 20.9407 284.4 21.401 284.4H28.0689Z" fill="#262626"/>
<path d="M42 357C42 368.046 33.0457 377 22 377C10.9543 377 2 368.046 2 357C2 345.954 10.9543 337 22 337C33.0457 337 42 345.954 42 357Z" stroke="#262626" stroke-width="2"/>
<path fill-rule="evenodd" clip-rule="evenodd" d="M29.1683 354.784H24.0219L25.9382 344.11C26.0185 343.661 25.6707 343.347 25.3027 343.329C25.0861 343.307 24.8573 343.386 24.7003 343.606L14.2921 358.164C14.2675 358.198 14.2706 358.237 14.2534 358.272C14.051 358.699 14.3344 359.216 14.8343 359.216H19.9808L18.0651 369.89C17.9848 370.34 18.332 370.654 18.7006 370.671C18.9165 370.693 19.1453 370.614 19.3024 370.394L29.7106 355.836C29.7351 355.802 29.7327 355.763 29.7492 355.728C29.9523 355.302 29.6683 354.784 29.1683 354.784Z" fill="#262626"/>
</svg>
