<?xml version="1.0" encoding="UTF-8"?>
<svg width="259px" height="120px" viewBox="0 0 259 120" version="1.1" xmlns="http://www.w3.org/2000/svg" xmlns:xlink="http://www.w3.org/1999/xlink">
    <title>2023_singal-quality_white_0301</title>
    <defs>
        <polygon id="path-1" points="0 0 43.768 0 43.768 116.8443 0 116.8443"></polygon>
        <polygon id="path-3" points="0 0 43.768 0 43.768 116.8443 0 116.8443"></polygon>
    </defs>
    <g id="Page-1" stroke="none" stroke-width="1" fill="none" fill-rule="evenodd">
        <g id="2023_singal-quality_white_0301" transform="translate(-335.000000, -126.000000)">
            <g id="white" transform="translate(335.000000, 111.000000)">
                <polygon id="Fill-1" fill="#F5F5F5" points="166.766 134.7968 182.766 134.7968 182.766 14.7968 166.766 14.7968"></polygon>
                <polygon id="Fill-2" fill="#00E967" points="173.066 134.7968 176.466 134.7968 176.466 14.7968 173.066 14.7968"></polygon>
                <polygon id="Fill-3" fill="#F5F5F5" points="242.766 134.7968 258.765 134.7968 258.765 14.7968 242.766 14.7968"></polygon>
                <polygon id="Fill-4" fill="#FEC937" points="249.066 134.7968 252.465 134.7968 252.465 14.7968 249.066 14.7968"></polygon>
                <g id="Group-7" transform="translate(0.000000, 14.795800)">
                    <mask id="mask-2" fill="white">
                        <use xlink:href="#path-1"></use>
                    </mask>
                    <g id="Clip-6"></g>
                    <path d="M52.81,108.8443 C52.81,113.2643 49.23,116.8443 44.81,116.8443 L22.11,116.8443 C13.65,116.8443 6.77,109.9743 6.77,101.5043 L6.77,84.6643 C6.75,84.5843 6.74,84.4943 6.74,84.4143 L2.5,81.9743 C0.96,81.0843 0,79.4343 0,77.6443 L0,66.2443 C0,64.4543 0.96,62.8043 2.5,61.9143 L6.77,59.4543 L6.77,0.0043 C6.77,-4.4157 10.35,-7.9957 14.77,-7.9957 C19.19,-7.9957 22.77,-4.4157 22.77,0.0043 L22.77,59.3243 L27.25,61.9143 C28.8,62.8043 29.75,64.4543 29.75,66.2443 L29.75,77.6443 C29.75,79.4343 28.8,81.0843 27.25,81.9743 L22.77,84.5643 L22.77,100.8443 L44.81,100.8443 C49.23,100.8443 52.81,104.4343 52.81,108.8443" id="Fill-5" fill="#F5F5F5" mask="url(#mask-2)"></path>
                </g>
                <path d="M22.114,125.344 C17.127,125.344 13.07,121.287 13.07,116.3 L13.07,106.499 C13.07,105.56 13.831,104.799 14.77,104.799 C15.709,104.799 16.47,105.56 16.47,106.499 L16.47,107.254 L16.47,111.548 L16.47,116.3 C16.47,119.411 19.002,121.944 22.114,121.944 L44.812,121.944 C45.75,121.944 46.512,122.705 46.512,123.644 C46.512,124.583 45.75,125.344 44.812,125.344 L22.114,125.344 Z" id="Fill-8" fill="#00E967"></path>
                <polygon id="Fill-10" fill="#00E967" points="24.75 81.04 24.75 92.44 14.88 98.14 5 92.44 5 81.04 14.88 75.34"></polygon>
                <polygon id="Fill-11" fill="#00E967" points="24.75 92.44 14.88 98.14 5 92.44 5 81.04 14.88 75.34 24.75 81.04"></polygon>
                <g id="Group-20" transform="translate(8.611400, 0.000000)">
                    <path d="M6.179,92.9202 C2.772,92.9202 0,90.1482 0,86.7412 C0,83.3342 2.772,80.5632 6.179,80.5632 C9.586,80.5632 12.358,83.3342 12.358,86.7412 C12.358,90.1482 9.586,92.9202 6.179,92.9202 Z" id="Stroke-12" stroke="#F5F5F5" stroke-width="2"></path>
                    <path d="M6.037,89.2056 C4.676,89.1676 3.603,88.0336 3.641,86.6726 C3.679,85.3106 4.814,84.2386 6.175,84.2766 C7.538,84.3156 8.608,85.4486 8.57,86.8116 C8.531,88.1716 7.4,89.2436 6.037,89.2056" id="Fill-14" fill="#F5F5F5"></path>
                    <path d="M4.4586,66.863 L4.4586,1.7 C4.4586,0.761 5.2196,0 6.1586,0 C7.0976,0 7.8586,0.761 7.8586,1.7 L7.8586,66.863 C7.8586,67.802 7.0966,68.563 6.1586,68.563 C5.2196,68.563 4.4586,67.802 4.4586,66.863" id="Fill-16" fill="#00E967"></path>
                    <polygon id="Fill-18" fill="#00E967" points="98.1386 81.04 98.1386 92.44 88.2686 98.14 78.3886 92.44 78.3886 81.04 88.2686 75.34"></polygon>
                </g>
                <g id="Group-23" transform="translate(82.000000, 14.795800)">
                    <mask id="mask-4" fill="white">
                        <use xlink:href="#path-3"></use>
                    </mask>
                    <g id="Clip-22"></g>
                    <path d="M52.81,108.8443 C52.81,113.2643 49.23,116.8443 44.81,116.8443 L22.11,116.8443 C13.65,116.8443 6.77,109.9743 6.77,101.5043 L6.77,84.6643 C6.75,84.5843 6.74,84.4943 6.74,84.4143 L2.5,81.9743 C0.96,81.0843 0,79.4343 0,77.6443 L0,66.2443 C0,64.4543 0.96,62.8043 2.5,61.9143 L6.77,59.4543 L6.77,0.0043 C6.77,-4.4157 10.35,-7.9957 14.77,-7.9957 C19.19,-7.9957 22.77,-4.4157 22.77,0.0043 L22.77,59.3243 L27.25,61.9143 C28.8,62.8043 29.75,64.4543 29.75,66.2443 L29.75,77.6443 C29.75,79.4343 28.8,81.0843 27.25,81.9743 L22.77,84.5643 L22.77,100.8443 L44.81,100.8443 C49.23,100.8443 52.81,104.4343 52.81,108.8443" id="Fill-21" fill="#F5F5F5" mask="url(#mask-4)"></path>
                </g>
                <g id="Group-34" transform="translate(87.000000, 0.000000)">
                    <polygon id="Fill-24" fill="#FEC937" points="19.75 92.44 9.88 98.14 0 92.44 0 81.04 9.88 75.34 19.75 81.04"></polygon>
                    <path d="M9.7904,92.9202 C6.3834,92.9202 3.6114,90.1482 3.6114,86.7412 C3.6114,83.3342 6.3834,80.5632 9.7904,80.5632 C13.1974,80.5632 15.9694,83.3342 15.9694,86.7412 C15.9694,90.1482 13.1974,92.9202 9.7904,92.9202 Z" id="Stroke-26" stroke="#F5F5F5" stroke-width="2"></path>
                    <path d="M9.6484,89.2056 C8.2874,89.1676 7.2144,88.0336 7.2524,86.6726 C7.2904,85.3106 8.4254,84.2386 9.7864,84.2766 C11.1494,84.3156 12.2194,85.4486 12.1814,86.8116 C12.1424,88.1716 11.0114,89.2436 9.6484,89.2056" id="Fill-28" fill="#F5F5F5"></path>
                    <path d="M8.07,66.863 L8.07,1.7 C8.07,0.761 8.831,0 9.77,0 C10.709,0 11.47,0.761 11.47,1.7 L11.47,66.863 C11.47,67.802 10.708,68.563 9.77,68.563 C8.831,68.563 8.07,67.802 8.07,66.863" id="Fill-30" fill="#FEC937"></path>
                    <path d="M17.114,125.344 C12.127,125.344 8.07,121.287 8.07,116.3 L8.07,106.471 C8.07,105.532 8.831,104.771 9.77,104.771 C10.474,104.771 11.079,105.199 11.336,105.81 C11.422,106.013 11.47,106.237 11.47,106.471 L11.47,107.054 L11.47,111.548 L11.47,116.3 C11.47,119.411 14.002,121.944 17.114,121.944 L39.812,121.944 C40.75,121.944 41.512,122.705 41.512,123.644 C41.512,124.583 40.75,125.344 39.812,125.344 L17.114,125.344 Z" id="Fill-32" fill="#FEC937"></path>
                </g>
            </g>
        </g>
    </g>
</svg>