<svg width="122" height="118" viewBox="0 0 122 118" fill="none" xmlns="http://www.w3.org/2000/svg">
<mask id="mask0_211_10237" style="mask-type:luminance" maskUnits="userSpaceOnUse" x="6" y="0" width="47" height="117">
<path d="M53 0H6V117H53V0Z" fill="white"/>
</mask>
<g mask="url(#mask0_211_10237)">
<path fill-rule="evenodd" clip-rule="evenodd" d="M23.0346 100.995L45 101C49.4225 101 53.0116 104.582 53.0116 109.006C53.0116 113.429 49.4225 117.011 44.9988 117.011L21.0464 117.006C13.2974 117.006 7.01159 110.732 7.01159 102.989C7.00386 28.771 7 -8.88747 7 -9.9944C7 -14.418 10.5891 -18 15.0116 -18C19.434 -18 23.0232 -14.418 23.0232 -9.99491L23.0346 100.995Z" fill="#4D595D"/>
</g>
<mask id="mask1_211_10237" style="mask-type:luminance" maskUnits="userSpaceOnUse" x="7" y="0" width="46" height="117">
<path d="M53 0H7V117H53V0Z" fill="white"/>
</mask>
<g mask="url(#mask1_211_10237)">
<path d="M12 -9.9944C12 -11.6543 13.3483 -13 15.0116 -13C16.6748 -13 18 -11.6543 18 -9.9944V102.989C18 104.649 19.3831 105.994 21.0464 105.994L45 106C46.6633 106 48.0116 107.346 48.0116 109.006C48.0116 110.666 46.6633 112.011 45 112.011L21.0464 112.006C16.0566 112.006 12.0116 107.969 12.0116 102.989C12.0039 28.7733 12 -8.88777 12 -9.9944Z" fill="#00FF6B"/>
</g>
<mask id="mask2_211_10237" style="mask-type:luminance" maskUnits="userSpaceOnUse" x="7" y="0" width="46" height="117">
<path d="M53 0H7V117H53V0Z" fill="white"/>
</mask>
<g mask="url(#mask2_211_10237)">
<path d="M14 -8V103.05C14 106.916 17.134 110.05 21 110.05H47.8V109.925V108.175V108.05H21C18.2386 108.05 16 105.811 16 103.05V-8L15.875 -8.125H14.125L14 -8Z" fill="#009A41"/>
</g>
<mask id="mask3_211_10237" style="mask-type:alpha" maskUnits="userSpaceOnUse" x="7" y="0" width="46" height="120">
<path d="M53 0H7V120H53V0Z" fill="#4D595D"/>
</mask>
<g mask="url(#mask3_211_10237)">
<path fill-rule="evenodd" clip-rule="evenodd" d="M23.0346 100.995L45 101C49.4225 101 53.0116 104.582 53.0116 109.006C53.0116 113.429 49.4225 117.011 44.9988 117.011L21.0464 117.006C13.2974 117.006 7.01159 110.732 7.01159 102.989C7.00386 28.771 7 -8.88747 7 -9.9944C7 -14.418 10.5891 -18 15.0116 -18C19.434 -18 23.0232 -14.418 23.0232 -9.99491L23.0346 100.995Z" fill="#F5F5F5"/>
</g>
<mask id="mask4_211_10237" style="mask-type:alpha" maskUnits="userSpaceOnUse" x="7" y="0" width="46" height="120">
<path d="M53 0H7V120H53V0Z" fill="#C9FFD5"/>
</mask>
<g mask="url(#mask4_211_10237)">
<path d="M12 -9.9944C12 -11.6543 13.3483 -13 15.0116 -13C16.6748 -13 18 -11.6543 18 -9.9944V102.989C18 104.649 19.3831 105.994 21.0464 105.994L45 106C46.6633 106 48.0116 107.346 48.0116 109.006C48.0116 110.666 46.6633 112.011 45 112.011L21.0464 112.006C16.0566 112.006 12.0116 107.969 12.0116 102.989C12.0039 28.7733 12 -8.88777 12 -9.9944Z" fill="#009157"/>
</g>
<mask id="mask5_211_10237" style="mask-type:alpha" maskUnits="userSpaceOnUse" x="7" y="0" width="46" height="120">
<path d="M53 0H7V120H53V0Z" fill="#009A41"/>
</mask>
<g mask="url(#mask5_211_10237)">
<path d="M14 -8V103.05C14 106.916 17.134 110.05 21 110.05H48.125V108.05H21C18.2386 108.05 16 105.811 16 103.05V-8L15.875 -8.125H14.125L14 -8Z" fill="#77FF77"/>
</g>
<circle cx="15" cy="73" r="14" fill="#F5F5F5" stroke="#009157" stroke-width="2"/>
<path d="M5.14629 76.5V69.4541H6.85039L8.85234 74.5176H8.88164L10.8836 69.4541H12.5877V76.5H11.2742V71.7344H11.2303L9.33086 76.5H8.40312L6.49883 71.7344H6.45977V76.5H5.14629ZM13.5596 76.5V69.4541H15.0342V75.2842H18.1152V76.5H13.5596ZM21.675 76.6221C19.5803 76.6221 18.2766 75.2207 18.2766 72.9795V72.9697C18.2766 70.7285 19.59 69.332 21.675 69.332C23.7648 69.332 25.0734 70.7334 25.0734 72.9697V72.9795C25.0734 75.2207 23.7697 76.6221 21.675 76.6221ZM21.675 75.3721C22.8469 75.3721 23.5695 74.4395 23.5695 72.9795V72.9697C23.5695 71.5 22.8322 70.582 21.675 70.582C20.5227 70.582 19.7805 71.4951 19.7805 72.9697V72.9795C19.7805 74.4541 20.5178 75.3721 21.675 75.3721Z" fill="black"/>
<line x1="15" y1="56" x2="15" y2="60" stroke="#77FF77" stroke-width="2"/>
<line x1="15" y1="86" x2="15" y2="90" stroke="#77FF77" stroke-width="2"/>
<mask id="mask6_211_10237" style="mask-type:alpha" maskUnits="userSpaceOnUse" x="76" y="0" width="46" height="120">
<path d="M122 0H76V120H122V0Z" fill="#4D595D"/>
</mask>
<g mask="url(#mask6_211_10237)">
<path fill-rule="evenodd" clip-rule="evenodd" d="M92.0346 100.995L114 101C118.423 101 122.012 104.582 122.012 109.006C122.012 113.429 118.422 117.011 113.999 117.011L90.0464 117.006C82.2974 117.006 76.0116 110.732 76.0116 102.989C76.0039 28.771 76 -8.88747 76 -9.9944C76 -14.418 79.5891 -18 84.0116 -18C88.434 -18 92.0232 -14.418 92.0232 -9.99491L92.0346 100.995Z" fill="#F5F5F5"/>
</g>
<mask id="mask7_211_10237" style="mask-type:alpha" maskUnits="userSpaceOnUse" x="76" y="0" width="46" height="120">
<path d="M122 0H76V120H122V0Z" fill="#FFC035"/>
</mask>
<g mask="url(#mask7_211_10237)">
<path d="M81 -9.9944C81.8989 -11.9981 82.9028 -13 84.0116 -13C85.6748 -13 87 -11.6543 87 -9.9944V102.989C87 104.649 88.3831 105.994 90.0464 105.994L114 106C115.663 106 117.012 107.346 117.012 109.006C117.012 110.666 115.663 112.011 114 112.011L90.0464 112.006C85.0566 112.006 81.0116 107.969 81.0116 102.989L81 -9.9944Z" fill="#F05E16"/>
</g>
<mask id="mask8_211_10237" style="mask-type:alpha" maskUnits="userSpaceOnUse" x="76" y="0" width="46" height="120">
<path d="M122 0H76V120H122V0Z" fill="#FAFF00"/>
</mask>
<g mask="url(#mask8_211_10237)">
<path d="M83 -8V103.05C83 106.916 86.134 110.05 90 110.05H111L111.125 109.925V108.175L111 108.05H90C87.2386 108.05 85 105.811 85 103.05V-8L84.875 -8.125H83.125L83 -8Z" fill="#FAFF00"/>
<path d="M83 -8V103.05C83 106.916 86.134 110.05 90 110.05H117V108.05H90C87.2386 108.05 85 105.811 85 103.05V-8L84.875 -8.125H83.125L83 -8Z" fill="#FAFF00"/>
</g>
<circle cx="84" cy="73" r="14" fill="#F5F5F5" stroke="#F05E16" stroke-width="2"/>
<path d="M74.1463 76.5V69.4541H75.8504L77.8523 74.5176H77.8816L79.8836 69.4541H81.5877V76.5H80.2742V71.7344H80.2303L78.3309 76.5H77.4031L75.4988 71.7344H75.4598V76.5H74.1463ZM82.5596 76.5V69.4541H84.0342V75.2842H87.1152V76.5H82.5596ZM90.675 76.6221C88.5803 76.6221 87.2766 75.2207 87.2766 72.9795V72.9697C87.2766 70.7285 88.59 69.332 90.675 69.332C92.7648 69.332 94.0734 70.7334 94.0734 72.9697V72.9795C94.0734 75.2207 92.7697 76.6221 90.675 76.6221ZM90.675 75.3721C91.8469 75.3721 92.5695 74.4395 92.5695 72.9795V72.9697C92.5695 71.5 91.8322 70.582 90.675 70.582C89.5227 70.582 88.7805 71.4951 88.7805 72.9697V72.9795C88.7805 74.4541 89.5178 75.3721 90.675 75.3721Z" fill="black"/>
<line x1="84" y1="56" x2="84" y2="60" stroke="#FAFF00" stroke-width="2"/>
<line x1="84" y1="86" x2="84" y2="90" stroke="#FAFF00" stroke-width="2"/>
</svg>
