<svg width="259" height="120" viewBox="0 0 259 120" fill="none" xmlns="http://www.w3.org/2000/svg">
<g clip-path="url(#clip0_201_47148)">
<path fill-rule="evenodd" clip-rule="evenodd" d="M166.766 119.797H182.766V-0.203247H166.766V119.797Z" fill="#F5F5F5"/>
<path fill-rule="evenodd" clip-rule="evenodd" d="M173.066 119.797H176.466V-0.203247H173.066V119.797Z" fill="#009157"/>
<path fill-rule="evenodd" clip-rule="evenodd" d="M242.766 119.797H258.765V-0.203247H242.766V119.797Z" fill="#F5F5F5"/>
<path fill-rule="evenodd" clip-rule="evenodd" d="M249.066 119.797H252.465V-0.203247H249.066V119.797Z" fill="#F05E16"/>
<mask id="mask0_201_47148" style="mask-type:luminance" maskUnits="userSpaceOnUse" x="0" y="-1" width="44" height="118">
<path d="M0 -0.204224H43.768V116.64H0V-0.204224Z" fill="white"/>
</mask>
<g mask="url(#mask0_201_47148)">
<path fill-rule="evenodd" clip-rule="evenodd" d="M52.81 108.64C52.81 113.06 49.23 116.64 44.81 116.64H22.11C13.65 116.64 6.77 109.77 6.77 101.3V84.46C6.75 84.38 6.74 84.29 6.74 84.21L2.5 81.77C0.96 80.88 0 79.23 0 77.44V66.04C0 64.25 0.96 62.6 2.5 61.71L6.77 59.25V-0.199951C6.77 -4.61995 10.35 -8.19995 14.77 -8.19995C19.19 -8.19995 22.77 -4.61995 22.77 -0.199951V59.12L27.25 61.71C28.8 62.6 29.75 64.25 29.75 66.04V77.44C29.75 79.23 28.8 80.88 27.25 81.77L22.77 84.36V100.64H44.81C49.23 100.64 52.81 104.23 52.81 108.64Z" fill="#F5F5F5"/>
</g>
<path fill-rule="evenodd" clip-rule="evenodd" d="M13.07 -13.3V51.863C13.07 52.802 13.831 53.563 14.77 53.563C15.708 53.563 16.47 52.802 16.47 51.863V-13.3C16.47 -14.239 15.709 -15 14.77 -15C13.831 -15 13.07 -14.239 13.07 -13.3ZM24.75 77.44V66.04L14.88 60.34L5 66.04V77.44L14.88 83.14L24.75 77.44ZM14.7904 66.5632C11.9355 66.5632 9.61139 68.8867 9.61139 71.7412C9.61139 74.5959 11.9357 76.9202 14.7904 76.9202C17.6451 76.9202 19.9694 74.5959 19.9694 71.7412C19.9694 68.8867 17.6453 66.5632 14.7904 66.5632ZM7.61139 71.7412C7.61139 67.7817 10.8313 64.5632 14.7904 64.5632C18.7495 64.5632 21.9694 67.7817 21.9694 71.7412C21.9694 75.7005 18.7497 78.9202 14.7904 78.9202C10.8311 78.9202 7.61139 75.7005 7.61139 71.7412ZM14.6484 74.2056C13.2874 74.1676 12.2144 73.0336 12.2524 71.6726C12.2904 70.3106 13.4254 69.2386 14.7864 69.2766C16.1494 69.3156 17.2194 70.4486 17.1814 71.8116C17.1424 73.1716 16.0114 74.2436 14.6484 74.2056ZM22.114 110.344C17.127 110.344 13.07 106.287 13.07 101.3V91.4989C13.07 90.5599 13.831 89.799 14.77 89.799C15.709 89.799 16.47 90.5599 16.47 91.4989V92.2539V96.5479V101.3C16.47 104.411 19.002 106.944 22.114 106.944H44.812C45.75 106.944 46.512 107.705 46.512 108.644C46.512 109.583 45.75 110.344 44.812 110.344H22.114Z" fill="#009157"/>
<path fill-rule="evenodd" clip-rule="evenodd" d="M106.75 66.04V77.44L96.88 83.14L87 77.44V66.04L96.88 60.34L106.75 66.04Z" fill="#00E967"/>
<mask id="mask1_201_47148" style="mask-type:luminance" maskUnits="userSpaceOnUse" x="82" y="-1" width="44" height="118">
<path d="M82 -0.204224H125.768V116.64H82V-0.204224Z" fill="white"/>
</mask>
<g mask="url(#mask1_201_47148)">
<path fill-rule="evenodd" clip-rule="evenodd" d="M134.81 108.64C134.81 113.06 131.23 116.64 126.81 116.64H104.11C95.65 116.64 88.77 109.77 88.77 101.3V84.46C88.75 84.38 88.74 84.29 88.74 84.21L84.5 81.77C82.96 80.88 82 79.23 82 77.44V66.04C82 64.25 82.96 62.6 84.5 61.71L88.77 59.25V-0.199951C88.77 -4.61995 92.35 -8.19995 96.77 -8.19995C101.19 -8.19995 104.77 -4.61995 104.77 -0.199951V59.12L109.25 61.71C110.8 62.6 111.75 64.25 111.75 66.04V77.44C111.75 79.23 110.8 80.88 109.25 81.77L104.77 84.36V100.64H126.81C131.23 100.64 134.81 104.23 134.81 108.64Z" fill="#F5F5F5"/>
</g>
<path fill-rule="evenodd" clip-rule="evenodd" d="M95.0701 51.863V-13.3C95.0701 -14.239 95.8311 -15 96.7701 -15C97.7091 -15 98.4701 -14.239 98.4701 -13.3V51.863C98.4701 52.802 97.7081 53.563 96.7701 53.563C95.8311 53.563 95.0701 52.802 95.0701 51.863ZM96.88 83.14L106.75 77.44V66.04L96.88 60.34L87 66.04V77.44L96.88 83.14ZM96.7903 66.5632C93.9354 66.5632 91.6113 68.8867 91.6113 71.7412C91.6113 74.5959 93.9356 76.9202 96.7903 76.9202C99.645 76.9202 101.969 74.5959 101.969 71.7412C101.969 68.8867 99.6453 66.5632 96.7903 66.5632ZM89.6113 71.7412C89.6113 67.7817 92.8313 64.5632 96.7903 64.5632C100.749 64.5632 103.969 67.7817 103.969 71.7412C103.969 75.7005 100.75 78.9202 96.7903 78.9202C92.831 78.9202 89.6113 75.7005 89.6113 71.7412ZM96.6484 74.2056C95.2874 74.1676 94.2144 73.0336 94.2524 71.6726C94.2904 70.3106 95.4254 69.2386 96.7864 69.2766C98.1494 69.3156 99.2194 70.4486 99.1814 71.8116C99.1424 73.1716 98.0114 74.2436 96.6484 74.2056ZM95.0701 101.3C95.0701 106.287 99.1271 110.344 104.114 110.344H126.812C127.75 110.344 128.512 109.583 128.512 108.644C128.512 107.705 127.75 106.944 126.812 106.944H104.114C101.002 106.944 98.4701 104.411 98.4701 101.3V96.548V92.054V91.471C98.4701 91.237 98.4221 91.013 98.3361 90.81C98.0791 90.199 97.4741 89.771 96.7701 89.771C95.8311 89.771 95.0701 90.532 95.0701 91.471V101.3Z" fill="#F05E16"/>
</g>
<defs>
<clipPath id="clip0_201_47148">
<rect width="259" height="120" fill="white"/>
</clipPath>
</defs>
</svg>
