<svg width="986" height="120" viewBox="0 0 986 120" fill="none" xmlns="http://www.w3.org/2000/svg">
<g clip-path="url(#clip0_1_1678)">
<mask id="mask0_1_1678" style="mask-type:luminance" maskUnits="userSpaceOnUse" x="0" y="0" width="986" height="120">
<path d="M986 0H0V120H986V0Z" fill="white"/>
</mask>
<g mask="url(#mask0_1_1678)">
<path d="M894 0H910V120H894V0Z" fill="#F5F5F5"/>
<path d="M903.7 0V120H900.3V0H903.7Z" fill="#009157"/>
<path d="M970 0H986V120H970V0Z" fill="#F5F5F5"/>
<path d="M979.7 0V120H976.3V0H979.7Z" fill="#F05E16"/>
<mask id="mask1_1_1678" style="mask-type:alpha" maskUnits="userSpaceOnUse" x="799" y="0" width="54" height="120">
<path d="M853 0H799V120H853V0Z" fill="#4D595D"/>
</mask>
<g mask="url(#mask1_1_1678)">
<path d="M832 66.0213C834.608 66.9582 836.02 69.9382 834.999 72.6101C834.789 73.1515 834.789 73.1515 834.399 73.7692L832 77.1298V100.844H854.042C858.46 100.844 862.042 104.426 862.042 108.844C862.042 113.262 858.46 116.844 854.042 116.844H831.344C822.878 116.844 816 109.967 816 101.5V84.6617C815.894 84.0816 815.887 83.4645 816 82.8269V78.4108C813.262 77.5388 811.76 74.4477 812.849 71.7141C813.04 71.2219 813.052 71.203 813.43 70.605L816 67.0036V0C816 -4.41799 819.582 -8 824 -8C828.42 -8 832 -4.41726 832 0V66.0213Z" fill="#F5F5F5"/>
</g>
<mask id="mask2_1_1678" style="mask-type:alpha" maskUnits="userSpaceOnUse" x="799" y="0" width="54" height="120">
<path d="M853 0H799V120H853V0Z" fill="#FEC937"/>
</mask>
<g mask="url(#mask2_1_1678)">
<path fill-rule="evenodd" clip-rule="evenodd" d="M822.3 52.063V-13.1C822.3 -14.0394 823.061 -14.8 824 -14.8C824.939 -14.8 825.7 -14.0394 825.7 -13.1V52.063C825.7 53.0015 824.938 53.763 824 53.763C823.061 53.763 822.3 53.0015 822.3 52.063ZM831.344 110.544C826.357 110.544 822.3 106.487 822.3 101.5V91.6711C822.3 90.7325 823.061 89.9711 824 89.9711C824.704 89.9711 825.309 90.3994 825.566 91.0097C825.652 91.213 825.7 91.4365 825.7 91.6711V92.2545V96.7478V101.5C825.7 104.611 828.232 107.144 831.344 107.144H854.042C854.98 107.144 855.742 107.905 855.742 108.844C855.742 109.783 854.98 110.544 854.042 110.544H831.344ZM829.239 70.015C829.533 70.0322 829.775 70.1877 829.913 70.4469C830.034 70.7061 830.034 70.9998 829.879 71.2417L823.693 81.591C823.555 81.8502 823.279 81.9884 823.002 81.9884C822.898 81.9884 822.812 81.9711 822.708 81.9366C822.346 81.7984 822.121 81.4183 822.207 81.0209L823.659 73.7988L818.752 73.3668C818.458 73.3323 818.199 73.1595 818.078 72.9003C817.957 72.6412 817.974 72.3302 818.147 72.0883L824.764 62.3609C824.989 62.0327 825.404 61.9117 825.767 62.0672C826.112 62.2054 826.319 62.5856 826.25 62.9657L824.972 69.7212L829.239 70.015Z" fill="#F05E16"/>
</g>
<mask id="mask3_1_1678" style="mask-type:alpha" maskUnits="userSpaceOnUse" x="717" y="0" width="54" height="120">
<path d="M771 0H717V120H771V0Z" fill="#4D595D"/>
</mask>
<g mask="url(#mask3_1_1678)">
<path d="M750 66.0213C752.608 66.9582 754.02 69.9382 752.999 72.6101C752.789 73.1515 752.789 73.1515 752.399 73.7692L750 77.1298V100.844H772.042C776.46 100.844 780.042 104.426 780.042 108.844C780.042 113.262 776.46 116.844 772.042 116.844H749.344C740.878 116.844 734 109.967 734 101.5V84.6617C733.894 84.0816 733.887 83.4645 734 82.8269V78.4108C731.262 77.5388 729.76 74.4477 730.849 71.7141C731.04 71.2219 731.052 71.203 731.43 70.605L734 67.0036V0C734 -4.41799 737.582 -8 742 -8C746.42 -8 750 -4.41726 750 0V66.0213Z" fill="#F5F5F5"/>
</g>
<mask id="mask4_1_1678" style="mask-type:alpha" maskUnits="userSpaceOnUse" x="717" y="0" width="54" height="120">
<path d="M771 0H717V120H771V0Z" fill="#00FF6B"/>
</mask>
<g mask="url(#mask4_1_1678)">
<path fill-rule="evenodd" clip-rule="evenodd" d="M740.3 52.063V-13.1C740.3 -14.0394 741.061 -14.8 742 -14.8C742.939 -14.8 743.7 -14.0394 743.7 -13.1V52.063C743.7 53.0015 742.938 53.763 742 53.763C741.061 53.763 740.3 53.0015 740.3 52.063ZM749.344 110.544C744.357 110.544 740.3 106.487 740.3 101.5V91.6989C740.3 90.7603 741.061 89.9989 742 89.9989C742.939 89.9989 743.7 90.7601 743.7 91.6989V92.4542V96.7478V101.5C743.7 104.611 746.232 107.144 749.344 107.144H772.042C772.98 107.144 773.742 107.905 773.742 108.844C773.742 109.783 772.98 110.544 772.042 110.544H749.344ZM747.239 70.015C747.533 70.0322 747.775 70.1877 747.913 70.4469C748.034 70.7061 748.034 70.9998 747.879 71.2417L741.693 81.591C741.555 81.8502 741.279 81.9884 741.002 81.9884C740.898 81.9884 740.812 81.9711 740.708 81.9366C740.346 81.7984 740.121 81.4183 740.207 81.0209L741.659 73.7988L736.752 73.3668C736.458 73.3323 736.199 73.1595 736.078 72.9003C735.957 72.6412 735.974 72.3302 736.147 72.0883L742.764 62.3609C742.989 62.0327 743.404 61.9117 743.767 62.0672C744.112 62.2054 744.319 62.5856 744.25 62.9657L742.972 69.7212L747.239 70.015Z" fill="#009157"/>
</g>
<path d="M670 0H672V120H670V0ZM672 0V120H670V0H672Z" fill="#818181"/>
<path fill-rule="evenodd" clip-rule="evenodd" d="M599 -12.3215C599 -14.3531 600.348 -16 602.011 -16C603.673 -16 605.021 -14.3531 605.021 -12.3215L605.033 125.958C605.033 127.989 606.381 129.636 608.043 129.636L631.989 129.643C633.652 129.643 635 131.29 635 133.321C635 135.353 633.652 137 631.989 137L608.043 136.993C603.055 136.993 599.012 132.052 599.012 125.958C599.004 35.1259 599 -10.9671 599 -12.3215Z" stroke="#F5F5F5" stroke-width="10" stroke-linecap="square"/>
<g filter="url(#filter0_f_1_1678)">
<path d="M601 -10V126.402C601 131.151 604.134 135 608 135H629V132.543H608C605.239 132.543 603 129.794 603 126.402V-10H601Z" stroke="#F05E16" stroke-width="2"/>
</g>
<g filter="url(#filter1_f_1_1678)">
<path d="M601 -10V126.402C601 131.151 604.134 135 608 135H629V132.543H608C605.239 132.543 603 129.794 603 126.402V-10H601Z" stroke="#F05E16" stroke-width="2"/>
</g>
<path d="M601.4 126.402V-9.6H602.6V126.402C602.6 129.934 604.945 132.943 608 132.943H628.6V134.6H608C604.428 134.6 601.4 131.011 601.4 126.402Z" stroke="#F05E16" stroke-width="0.8"/>
<path d="M601 -10V126.402C601 131.151 604.134 135 608 135H629V132.543H608C605.239 132.543 603 129.794 603 126.402V-10H601Z" fill="white"/>
<path fill-rule="evenodd" clip-rule="evenodd" d="M523 -12.3215C523 -14.3531 524.348 -16 526.011 -16C527.673 -16 529.021 -14.3531 529.021 -12.3215L529.033 125.958C529.033 127.989 530.381 129.636 532.043 129.636L555.989 129.643C557.652 129.643 559 131.29 559 133.321C559 135.353 557.652 137 555.989 137L532.043 136.993C527.055 136.993 523.012 132.052 523.012 125.958C523.004 35.1259 523 -10.9671 523 -12.3215Z" stroke="#F5F5F5" stroke-width="10" stroke-linecap="square"/>
<g filter="url(#filter2_f_1_1678)">
<mask id="path-21-inside-1_1_1678" fill="white">
<path d="M525 -10V126.402C525 131.151 528.134 135 532 135H553V132.543H532C529.239 132.543 527 129.794 527 126.402V-10H525Z"/>
</mask>
<path d="M525 -10V-13H522V-10H525ZM553 135V138H556V135H553ZM553 132.543H556V129.543H553V132.543ZM527 -10H530V-13H527V-10ZM522 -10V126.402H528V-10H522ZM522 126.402C522 132.202 525.93 138 532 138V132C530.338 132 528 130.1 528 126.402H522ZM532 138H553V132H532V138ZM556 135V132.543H550V135H556ZM553 129.543H532V135.543H553V129.543ZM532 129.543C531.442 129.543 530 128.743 530 126.402H524C524 130.845 527.036 135.543 532 135.543V129.543ZM530 126.402V-10H524V126.402H530ZM527 -13H525V-7H527V-13Z" fill="#009157" mask="url(#path-21-inside-1_1_1678)"/>
<path d="M525 -10V126.402C525 131.151 528.134 135 532 135H553V132.543H532C529.239 132.543 527 129.794 527 126.402V-10H525Z" stroke="#009157" stroke-width="1.75"/>
</g>
<g filter="url(#filter3_f_1_1678)">
<mask id="path-24-inside-2_1_1678" fill="white">
<path d="M525 -10V126.402C525 131.151 528.134 135 532 135H553V132.543H532C529.239 132.543 527 129.794 527 126.402V-10H525Z"/>
</mask>
<path d="M525 -10V-13H522V-10H525ZM553 135V138H556V135H553ZM553 132.543H556V129.543H553V132.543ZM527 -10H530V-13H527V-10ZM522 -10V126.402H528V-10H522ZM522 126.402C522 132.202 525.93 138 532 138V132C530.338 132 528 130.1 528 126.402H522ZM532 138H553V132H532V138ZM556 135V132.543H550V135H556ZM553 129.543H532V135.543H553V129.543ZM532 129.543C531.442 129.543 530 128.743 530 126.402H524C524 130.845 527.036 135.543 532 135.543V129.543ZM530 126.402V-10H524V126.402H530ZM527 -13H525V-7H527V-13Z" fill="#009157" mask="url(#path-24-inside-2_1_1678)"/>
<path d="M525 -10V126.402C525 131.151 528.134 135 532 135H553V132.543H532C529.239 132.543 527 129.794 527 126.402V-10H525Z" stroke="#009157" stroke-width="1.75"/>
</g>
<path d="M525.4 126.402V-9.6H526.6V126.402C526.6 129.934 528.945 132.943 532 132.943H552.6V134.6H532C528.428 134.6 525.4 131.011 525.4 126.402Z" stroke="#009157" stroke-width="0.8"/>
<path d="M525 -10V126.402C525 131.151 528.134 135 532 135H553V132.543H532C529.239 132.543 527 129.794 527 126.402V-10H525Z" fill="white"/>
<path d="M442 0H458V120H442V0Z" fill="#F5F5F5"/>
<path d="M453 0V120H447V0H453Z" fill="#F05E16"/>
<path d="M451 0V120H449V0H451Z" fill="#FAFF00"/>
<path d="M366 0H382V120H366V0Z" fill="#F5F5F5"/>
<path d="M377 0V120H371V0H377Z" fill="#009157"/>
<path d="M375 0V120H373V0H375Z" fill="#77FF77"/>
<path d="M305 73.9283V103C305 106.314 307.686 109 311 109H314.322H333.485" stroke="#818181" stroke-width="2" stroke-linecap="round"/>
<path d="M305 62.6814V-12.4982" stroke="#818181" stroke-width="2" stroke-linecap="round"/>
<path d="M309.477 59.5061L300.73 66.72" stroke="#818181" stroke-width="2" stroke-linecap="round"/>
<path d="M309.477 69.9823L300.73 77.1962" stroke="#818181" stroke-width="2" stroke-linecap="round"/>
<mask id="mask5_1_1678" style="mask-type:alpha" maskUnits="userSpaceOnUse" x="228" y="0" width="35" height="120">
<path d="M263 0H228V120H263V0Z" fill="#00FF6B"/>
</mask>
<g mask="url(#mask5_1_1678)">
<path d="M244.035 100.995L266 101C270.422 101 274.012 104.582 274.012 109.006C274.012 113.429 270.422 117.011 265.999 117.011L242.046 117.006C234.297 117.006 228.012 110.732 228.012 102.989C228.004 28.771 228 -8.88747 228 -9.9944C228 -14.418 231.589 -18 236.012 -18C240.434 -18 244.023 -14.418 244.023 -9.99491L244.035 100.995Z" fill="#F5F5F5"/>
<g filter="url(#filter4_f_1_1678)">
<path d="M235 -8V103.05C235 106.916 238.134 110.05 242 110.05H263V108.05H242C239.239 108.05 237 105.811 237 103.05V-8H235Z" stroke="#F05E16" stroke-width="2"/>
</g>
<g filter="url(#filter5_f_1_1678)">
<path d="M235 -8V103.05C235 106.916 238.134 110.05 242 110.05H263V108.05H242C239.239 108.05 237 105.811 237 103.05V-8H235Z" stroke="#F05E16" stroke-width="2"/>
</g>
<path d="M235.4 103.05V-7.6H236.6V103.05C236.6 106.032 239.018 108.45 242 108.45H262.6V109.65H242C238.355 109.65 235.4 106.695 235.4 103.05Z" stroke="#F05E16" stroke-width="0.8"/>
<path d="M235 -8V103.05C235 106.916 238.134 110.05 242 110.05H263V108.05H242C239.239 108.05 237 105.811 237 103.05V-8H235Z" fill="white"/>
</g>
<mask id="mask6_1_1678" style="mask-type:alpha" maskUnits="userSpaceOnUse" x="152" y="0" width="35" height="120">
<path d="M187 0H152V120H187V0Z" fill="#00FF6B"/>
</mask>
<g mask="url(#mask6_1_1678)">
<path d="M168.035 100.995L190 101C194.422 101 198.012 104.582 198.012 109.006C198.012 113.429 194.422 117.011 189.999 117.011L166.046 117.006C158.297 117.006 152.012 110.732 152.012 102.989C152.004 28.771 152 -8.88747 152 -9.9944C152 -14.418 155.589 -18 160.012 -18C164.434 -18 168.023 -14.418 168.023 -9.99491L168.035 100.995Z" fill="#F5F5F5"/>
<g filter="url(#filter6_f_1_1678)">
<mask id="path-47-inside-3_1_1678" fill="white">
<path d="M159 -8V103.05C159 106.916 162.134 110.05 166 110.05H187V108.05H166C163.239 108.05 161 105.811 161 103.05V-8H159Z"/>
</mask>
<path d="M159 -8V-11H156V-8H159ZM187 110.05V113.05H190V110.05H187ZM187 108.05H190V105.05H187V108.05ZM161 -8H164V-11H161V-8ZM156 -8V103.05H162V-8H156ZM156 103.05C156 108.573 160.477 113.05 166 113.05V107.05C163.791 107.05 162 105.259 162 103.05H156ZM166 113.05H187V107.05H166V113.05ZM190 110.05V108.05H184V110.05H190ZM187 105.05H166V111.05H187V105.05ZM166 105.05C164.896 105.05 164 104.154 164 103.05H158C158 107.468 161.582 111.05 166 111.05V105.05ZM164 103.05V-8H158V103.05H164ZM161 -11H159V-5H161V-11Z" fill="#009157" mask="url(#path-47-inside-3_1_1678)"/>
<path d="M159 -8V103.05C159 106.916 162.134 110.05 166 110.05H187V108.05H166C163.239 108.05 161 105.811 161 103.05V-8H159Z" stroke="#009157" stroke-width="1.75"/>
</g>
<g filter="url(#filter7_f_1_1678)">
<mask id="path-50-inside-4_1_1678" fill="white">
<path d="M159 -8V103.05C159 106.916 162.134 110.05 166 110.05H187V108.05H166C163.239 108.05 161 105.811 161 103.05V-8H159Z"/>
</mask>
<path d="M159 -8V-11H156V-8H159ZM187 110.05V113.05H190V110.05H187ZM187 108.05H190V105.05H187V108.05ZM161 -8H164V-11H161V-8ZM156 -8V103.05H162V-8H156ZM156 103.05C156 108.573 160.477 113.05 166 113.05V107.05C163.791 107.05 162 105.259 162 103.05H156ZM166 113.05H187V107.05H166V113.05ZM190 110.05V108.05H184V110.05H190ZM187 105.05H166V111.05H187V105.05ZM166 105.05C164.896 105.05 164 104.154 164 103.05H158C158 107.468 161.582 111.05 166 111.05V105.05ZM164 103.05V-8H158V103.05H164ZM161 -11H159V-5H161V-11Z" fill="#009157" mask="url(#path-50-inside-4_1_1678)"/>
<path d="M159 -8V103.05C159 106.916 162.134 110.05 166 110.05H187V108.05H166C163.239 108.05 161 105.811 161 103.05V-8H159Z" stroke="#009157" stroke-width="1.75"/>
</g>
<path d="M159.4 103.05V-7.6H160.6V103.05C160.6 106.032 163.018 108.45 166 108.45H186.6V109.65H166C162.355 109.65 159.4 106.695 159.4 103.05Z" stroke="#009157" stroke-width="0.8"/>
<path d="M159 -8V103.05C159 106.916 162.134 110.05 166 110.05H187V108.05H166C163.239 108.05 161 105.811 161 103.05V-8H159Z" fill="white"/>
</g>
<mask id="mask7_1_1678" style="mask-type:alpha" maskUnits="userSpaceOnUse" x="76" y="0" width="35" height="120">
<path d="M111 0H76V120H111V0Z" fill="#FFC035"/>
</mask>
<g mask="url(#mask7_1_1678)">
<path d="M81 -9.9944C81.8989 -11.9981 82.9028 -13 84.0116 -13C85.6748 -13 87 -11.6543 87 -9.9944V102.989C87 104.649 88.3831 105.994 90.0464 105.994L114 106C115.663 106 117.012 107.346 117.012 109.006C117.012 110.666 115.663 112.011 114 112.011L90.0464 112.006C85.0566 112.006 81.0116 107.969 81.0116 102.989L81 -9.9944Z" fill="#F05E16"/>
</g>
<mask id="mask8_1_1678" style="mask-type:alpha" maskUnits="userSpaceOnUse" x="76" y="0" width="35" height="120">
<path d="M111 0H76V120H111V0Z" fill="#FAFF00"/>
</mask>
<g mask="url(#mask8_1_1678)">
<g filter="url(#filter8_d_1_1678)">
<path d="M83 -8V103.05C83 106.916 86.134 110.05 90 110.05H111L111.125 109.925V108.175L111 108.05H90C87.2386 108.05 85 105.811 85 103.05V-8L84.875 -8.125H83.125L83 -8Z" fill="#FAFF00"/>
</g>
<path d="M83 -8V103.05C83 106.916 86.134 110.05 90 110.05H111L111.125 109.925V108.175L111 108.05H90C87.2386 108.05 85 105.811 85 103.05V-8L84.875 -8.125H83.125L83 -8Z" fill="#FAFF00"/>
</g>
<mask id="mask9_1_1678" style="mask-type:alpha" maskUnits="userSpaceOnUse" x="0" y="0" width="35" height="120">
<path d="M35 0H0V120H35V0Z" fill="#4D595D"/>
</mask>
<g mask="url(#mask9_1_1678)">
<path fill-rule="evenodd" clip-rule="evenodd" d="M16.0346 100.995L38 101C42.4225 101 46.0116 104.582 46.0116 109.006C46.0116 113.429 42.4225 117.011 37.9988 117.011L14.0464 117.006C6.2974 117.006 0.0115925 110.732 0.0115925 102.989C0.00386389 28.771 0 -8.88747 0 -9.9944C0 -14.418 3.58914 -18 8.01159 -18C12.434 -18 16.0232 -14.418 16.0232 -9.99491L16.0346 100.995Z" fill="#F5F5F5"/>
</g>
<mask id="mask10_1_1678" style="mask-type:alpha" maskUnits="userSpaceOnUse" x="0" y="0" width="35" height="120">
<path d="M35 0H0V120H35V0Z" fill="#C9FFD5"/>
</mask>
<g mask="url(#mask10_1_1678)">
<path d="M5 -9.9944C5 -11.6543 6.34834 -13 8.01159 -13C9.67485 -13 11 -11.6543 11 -9.9944V102.989C11 104.649 12.3831 105.994 14.0464 105.994L38 106C39.6633 106 41.0116 107.346 41.0116 109.006C41.0116 110.666 39.6633 112.011 38 112.011L14.0464 112.006C9.0566 112.006 5.01159 107.969 5.01159 102.989C5.00386 28.7733 5 -8.88777 5 -9.9944Z" fill="#009157"/>
</g>
<mask id="mask11_1_1678" style="mask-type:alpha" maskUnits="userSpaceOnUse" x="0" y="0" width="35" height="120">
<path d="M35 0H0V120H35V0Z" fill="#009A41"/>
</mask>
<g mask="url(#mask11_1_1678)">
<path d="M7 -8V103.05C7 106.916 10.134 110.05 14 110.05H35L35.125 109.925V108.175L35 108.05H14C11.2386 108.05 9 105.811 9 103.05V-8L8.875 -8.125H7.125L7 -8Z" fill="#77FF77"/>
</g>
</g>
</g>
<defs>
<filter id="filter0_f_1_1678" x="597.25" y="-13.75" width="35.5" height="152.5" filterUnits="userSpaceOnUse" color-interpolation-filters="sRGB">
<feFlood flood-opacity="0" result="BackgroundImageFix"/>
<feBlend mode="normal" in="SourceGraphic" in2="BackgroundImageFix" result="shape"/>
<feGaussianBlur stdDeviation="1.375" result="effect1_foregroundBlur_1_1678"/>
</filter>
<filter id="filter1_f_1_1678" x="597.25" y="-13.75" width="35.5" height="152.5" filterUnits="userSpaceOnUse" color-interpolation-filters="sRGB">
<feFlood flood-opacity="0" result="BackgroundImageFix"/>
<feBlend mode="normal" in="SourceGraphic" in2="BackgroundImageFix" result="shape"/>
<feGaussianBlur stdDeviation="1.375" result="effect1_foregroundBlur_1_1678"/>
</filter>
<filter id="filter2_f_1_1678" x="521.375" y="-13.625" width="35.25" height="152.25" filterUnits="userSpaceOnUse" color-interpolation-filters="sRGB">
<feFlood flood-opacity="0" result="BackgroundImageFix"/>
<feBlend mode="normal" in="SourceGraphic" in2="BackgroundImageFix" result="shape"/>
<feGaussianBlur stdDeviation="1.375" result="effect1_foregroundBlur_1_1678"/>
</filter>
<filter id="filter3_f_1_1678" x="521.375" y="-13.625" width="35.25" height="152.25" filterUnits="userSpaceOnUse" color-interpolation-filters="sRGB">
<feFlood flood-opacity="0" result="BackgroundImageFix"/>
<feBlend mode="normal" in="SourceGraphic" in2="BackgroundImageFix" result="shape"/>
<feGaussianBlur stdDeviation="1.375" result="effect1_foregroundBlur_1_1678"/>
</filter>
<filter id="filter4_f_1_1678" x="231.25" y="-11.75" width="35.5" height="125.55" filterUnits="userSpaceOnUse" color-interpolation-filters="sRGB">
<feFlood flood-opacity="0" result="BackgroundImageFix"/>
<feBlend mode="normal" in="SourceGraphic" in2="BackgroundImageFix" result="shape"/>
<feGaussianBlur stdDeviation="1.375" result="effect1_foregroundBlur_1_1678"/>
</filter>
<filter id="filter5_f_1_1678" x="231.25" y="-11.75" width="35.5" height="125.55" filterUnits="userSpaceOnUse" color-interpolation-filters="sRGB">
<feFlood flood-opacity="0" result="BackgroundImageFix"/>
<feBlend mode="normal" in="SourceGraphic" in2="BackgroundImageFix" result="shape"/>
<feGaussianBlur stdDeviation="1.375" result="effect1_foregroundBlur_1_1678"/>
</filter>
<filter id="filter6_f_1_1678" x="155.375" y="-11.625" width="35.25" height="125.3" filterUnits="userSpaceOnUse" color-interpolation-filters="sRGB">
<feFlood flood-opacity="0" result="BackgroundImageFix"/>
<feBlend mode="normal" in="SourceGraphic" in2="BackgroundImageFix" result="shape"/>
<feGaussianBlur stdDeviation="1.375" result="effect1_foregroundBlur_1_1678"/>
</filter>
<filter id="filter7_f_1_1678" x="155.375" y="-11.625" width="35.25" height="125.3" filterUnits="userSpaceOnUse" color-interpolation-filters="sRGB">
<feFlood flood-opacity="0" result="BackgroundImageFix"/>
<feBlend mode="normal" in="SourceGraphic" in2="BackgroundImageFix" result="shape"/>
<feGaussianBlur stdDeviation="1.375" result="effect1_foregroundBlur_1_1678"/>
</filter>
<filter id="filter8_d_1_1678" x="82.3" y="-8.825" width="29.525" height="119.575" filterUnits="userSpaceOnUse" color-interpolation-filters="sRGB">
<feFlood flood-opacity="0" result="BackgroundImageFix"/>
<feColorMatrix in="SourceAlpha" type="matrix" values="0 0 0 0 0 0 0 0 0 0 0 0 0 0 0 0 0 0 127 0" result="hardAlpha"/>
<feOffset/>
<feGaussianBlur stdDeviation="0.35"/>
<feColorMatrix type="matrix" values="0 0 0 0 1 0 0 0 0 0.960784 0 0 0 0 0.258824 0 0 0 0.41 0"/>
<feBlend mode="normal" in2="BackgroundImageFix" result="effect1_dropShadow_1_1678"/>
<feBlend mode="normal" in="SourceGraphic" in2="effect1_dropShadow_1_1678" result="shape"/>
</filter>
<clipPath id="clip0_1_1678">
<rect width="986" height="120" fill="white"/>
</clipPath>
</defs>
</svg>
