<svg width="106" height="32" viewBox="0 0 106 32" fill="none" xmlns="http://www.w3.org/2000/svg">
<path d="M57.0957 0L47.8936 10.0967V4.60156L45.5117 1.19727H29.2871L26.877 4.60156V20.4629L29.2891 23.9326H35.2871L27.9375 32H26.748L32.1445 26.0762H29.4199L26.4863 21.8555V21.8154L25.7812 20.8037V4.25586L28.7178 0.105469H46.083L49.6943 5.30957V6.81738L55.9072 0H57.0957ZM18.2363 28.3242C18.3497 28.3242 18.4487 28.3442 18.5391 28.3818C18.6273 28.4195 18.703 28.474 18.7686 28.542C18.8317 28.612 18.8842 28.6925 18.9219 28.7881C18.9624 28.8832 18.9874 28.9862 19 29.0967L18.4785 29.1543L18.4736 29.1572C18.4684 29.0896 18.4558 29.0341 18.4355 28.9863C18.4157 28.9415 18.3931 28.904 18.3652 28.8789C18.3377 28.8538 18.3068 28.8329 18.2744 28.8203C18.2418 28.8079 18.2115 28.8037 18.1816 28.8037C18.0934 28.8037 18.0253 28.8307 17.9775 28.8857C17.9297 28.9412 17.9072 29.0196 17.9072 29.1172C17.9073 29.2074 17.9348 29.2929 17.9902 29.3682C18.0456 29.4433 18.1135 29.5209 18.1963 29.5957C18.2793 29.671 18.3702 29.7494 18.4658 29.8271C18.5642 29.9049 18.6524 29.9899 18.7354 30.085C18.8184 30.1805 18.8869 30.2835 18.9424 30.3965C18.9979 30.5091 19.0225 30.6374 19.0225 30.7832C19.0225 30.9161 19.0024 31.0319 18.957 31.1348C18.9145 31.235 18.8569 31.3202 18.7812 31.3906C18.706 31.4606 18.6149 31.5107 18.5068 31.5459C18.3983 31.5807 18.2793 31.5986 18.1533 31.5986C18.0275 31.5986 17.9114 31.5761 17.8135 31.5283C17.7128 31.481 17.6275 31.418 17.5596 31.3379C17.4891 31.2573 17.4361 31.1619 17.3984 31.0566C17.3608 30.9514 17.3379 30.8384 17.333 30.7178L17.8564 30.6426C17.869 30.8054 17.905 30.9261 17.9629 31.0039C18.0208 31.084 18.0963 31.1221 18.1846 31.1221C18.2797 31.122 18.3553 31.0968 18.4131 31.0469C18.4709 30.9967 18.5009 30.9236 18.501 30.8311C18.501 30.7257 18.4735 30.6299 18.418 30.5469C18.3625 30.4643 18.2949 30.3863 18.2119 30.3086C18.1289 30.2333 18.038 30.1554 17.9424 30.0801C17.8469 30.0048 17.7558 29.9203 17.6729 29.8301C17.59 29.7399 17.5222 29.6367 17.4668 29.5215C17.4113 29.406 17.3857 29.2718 17.3857 29.1191C17.3858 28.8635 17.459 28.6679 17.6074 28.5303C17.756 28.3947 17.9647 28.3243 18.2363 28.3242ZM3.02148 31.5586H2.49023L2.39258 30.8506H1.79004L1.69238 31.5586H1.16113L1.75 28.3721H2.43262L3.02148 31.5586ZM4.84961 30.1934H4.86035V28.3721H5.35645V31.5586H4.87793L4.17773 29.5684H4.16797V31.5586H3.67188V28.3721H4.17969L4.84961 30.1934ZM7.39844 30.1934H7.40625V28.3721H7.90234V31.5586H7.42383L6.72363 29.5684H6.71582V31.5586H6.21973V28.3721H6.72852L7.39844 30.1934ZM9.39062 31.5586H8.8418V28.3721H9.39062V31.5586ZM11.042 30.582H11.0527L11.4502 28.3721H11.9893L11.3223 31.5586H10.7725L10.1035 28.3721H10.6445L11.042 30.582ZM14.0996 28.8486H13.1777V29.6689H13.8848V30.1465H13.1777V31.082H14.1602V31.5586H12.6289V28.3721H14.0996V28.8486ZM15.6982 28.3721C16.0057 28.3721 16.2376 28.4449 16.3936 28.5879C16.5497 28.7333 16.6279 28.9742 16.6279 29.3125C16.6279 29.4429 16.6174 29.5542 16.5947 29.6445C16.5721 29.7346 16.5444 29.8123 16.5068 29.875C16.4692 29.9374 16.4282 29.9872 16.3828 30.0273C16.3376 30.0649 16.2903 30.0954 16.2451 30.1152L16.7109 31.5586H16.1514L15.7617 30.2393C15.7265 30.2441 15.6834 30.249 15.6309 30.249H15.4766V31.5586H14.9277V28.3721H15.6982ZM21.4199 31.5586H20.8887L20.79 30.8506H20.1885L20.0908 31.5586H19.5586L20.1484 28.3721H20.8311L21.4199 31.5586ZM22.8428 28.3721C23.1497 28.3721 23.3812 28.445 23.5371 28.5879C23.6934 28.7333 23.7724 28.974 23.7725 29.3125C23.7725 29.4429 23.7619 29.5542 23.7393 29.6445C23.7166 29.7346 23.6889 29.8123 23.6514 29.875C23.6137 29.9374 23.5723 29.9872 23.5273 30.0273C23.4822 30.0649 23.4348 30.0954 23.3896 30.1152L23.8555 31.5586H23.2959L22.9053 30.2393C22.8701 30.2441 22.8269 30.249 22.7744 30.249H22.6211V31.5586H22.0723V28.3721H22.8428ZM25.2607 29.5859H25.2676L25.6357 28.3721H26.1943L25.5293 30.2334V31.5586H24.9805V30.2334L24.3164 28.3721H24.875L25.2607 29.5859ZM102.683 0.0732422C99.9351 1.13212 96.2831 2.03023 89.8467 5.39258C83.0074 8.96814 76.1478 13.8409 68.377 19.8252C63.673 23.4485 62.6859 24.7133 63.4717 26.1611C64.3305 27.7469 67.6689 31.3633 67.6689 31.3633C67.6689 31.3633 63.1591 29.5237 60.5273 25.9658C58.8228 23.6623 53.9453 16.041 53.9453 16.041C53.9453 16.041 58.4149 18.5452 61.2734 19.4736C63.0809 20.1008 63.3932 19.8278 64.6494 18.6162C65.468 17.8258 78.0054 5.09472 82.2744 3.24219C87.4167 1.0115 94.3246 0.0732422 98.9707 0.0732422H102.683ZM105.316 5.40234C105.316 6.21782 104.46 7.98711 103.442 8.44629C102.384 8.92199 83.374 16.5492 71.0107 24.9541C71.0107 24.9541 78.1627 27.832 84.3047 27.832C89.5999 27.832 94.1714 17.4749 94.1982 17.4141L79.6055 21.8633C79.6055 21.8633 88.7893 16.9722 102.685 11.2988C102.685 11.2988 95.0292 31.3633 86.9834 31.3633C79.7587 31.3656 69.4363 27.6862 65.3545 25.1045C65.3545 25.1045 78.7072 15.709 89.3154 10.2627L90.3359 9.75293C97.4796 6.20026 104.772 5.40242 105.316 5.40234ZM1.86816 30.377H2.31152L2.09473 29.0088H2.08496L1.86816 30.377ZM20.2686 30.377H20.7119L20.4961 29.0088H20.4854L20.2686 30.377ZM15.4766 29.8018H15.6709C15.7437 29.8017 15.8068 29.7943 15.8594 29.7793C15.91 29.7643 15.9525 29.7393 15.9854 29.6992C16.0182 29.6615 16.0407 29.6111 16.0557 29.5459C16.0706 29.4832 16.0781 29.4032 16.0781 29.3105C16.0781 29.1222 16.0485 28.9939 15.9854 28.9238C15.9226 28.8534 15.8194 28.8213 15.6709 28.8213H15.4766V29.8018ZM22.6211 29.8018H22.8145C22.8874 29.8018 22.9512 29.7943 23.0039 29.7793C23.0544 29.7643 23.0971 29.7392 23.1299 29.6992C23.1626 29.6616 23.1852 29.611 23.2002 29.5459C23.2155 29.4832 23.2226 29.4031 23.2227 29.3105C23.2227 29.1223 23.193 28.9939 23.1299 28.9238C23.0671 28.8533 22.9631 28.8213 22.8145 28.8213H22.6211V29.8018ZM23.4062 5.30957V15.8984H8.9502V20.4277H24.6055L20.6465 26.0752L1.17578 26.0605L1.18359 10.2471H15.7266V6.15723L15.4316 5.75586H3.94824L0.702148 1.15918H0.743164L0 0.105469H19.7656L23.4062 5.30957ZM57.9014 25.1045C57.9014 25.1045 51.3434 23.343 49.5 21.5088C47.6609 19.6785 45.6616 14.1827 45.6523 14.1572H45.6553L57.9014 25.1045ZM3.81543 3.61035H15.291L16.8242 5.71582V11.3418H2.2793V23.9326H20.1025L21.8457 21.5186H7.14648V13.7549H21.6094V4.60156L19.1992 1.19629H2.11035L3.81543 3.61035ZM43.2227 5.88965V15.2256L37.4883 21.5195H33.248L31.5508 19.1025V5.88672L33.2529 3.54297H41.5508L43.2227 5.88965ZM33.3457 7.29395V19.7598L33.8145 20.4277H37.292L42.127 15.123V6.30371H42.125L41.6865 5.68848H34.5127L33.3457 7.29395Z" fill="url(#paint0_linear_503_1650)"/>
<defs>
<linearGradient id="paint0_linear_503_1650" x1="25.7814" y1="16" x2="57.0952" y2="16" gradientUnits="userSpaceOnUse">
<stop stop-color="#E0BE62"/>
<stop offset="1" stop-color="#F5F5DC"/>
</linearGradient>
</defs>
</svg>
