<?xml version="1.0" encoding="UTF-8"?>
<svg width="66px" height="594px" viewBox="0 0 66 594" version="1.1" xmlns="http://www.w3.org/2000/svg" xmlns:xlink="http://www.w3.org/1999/xlink">
    <!-- Generator: Sketch 49.3 (51167) - http://www.bohemiancoding.com/sketch -->
    <title>ic_usb-application_active</title>
    <desc>Created with Sketch.</desc>
    <defs></defs>
    <g id="Proxima-Nova---Dark-Screens" stroke="none" stroke-width="1" fill="none" fill-rule="evenodd">
        <g id="icon-active" fill="#33ECFF">
            <path d="M35.2370453,356.397378 L41.3093298,356.34384 L42.2961136,357.792396 C43.7235874,359.821789 45.1560803,361.848151 46.5895771,363.872493 C46.7130506,364.046239 46.8405395,364.18766 46.663862,364.433127 C45.7252629,365.737231 44.8077446,367.056488 43.8801878,368.368674 C43.8550916,368.404029 43.8129299,368.427263 43.7205758,368.506054 C41.2229987,364.936182 38.723414,361.363279 36.178656,357.724716 L35.2370453,356.397378 Z M60,356.407277 L59.9518152,356.474957 C59.9698845,356.478998 59.9789192,356.481018 60,356.485059 C59.4077289,357.321464 58.867658,358.079077 58.3316025,358.83871 C54.7619143,363.898555 51.1952377,368.96143 47.6285612,374.022285 C47.5251647,374.170778 47.4217682,374.317249 47.3183717,374.464731 C46.4861806,375.648628 45.6529857,376.832525 44.8217985,378.017432 L41.3976685,382.945957 L35.2009067,382.945957 L35.2490915,382.878277 C35.2310222,382.874236 35.2209837,382.872216 35.2009067,382.868175 C35.7931778,382.032781 36.3332488,381.274157 36.8693043,380.514524 C40.4389924,375.454679 44.005669,370.392814 47.5723456,365.330949 C47.6757421,365.183467 47.7791386,365.035985 47.882535,364.888503 C48.7147261,363.705616 49.547921,362.52172 50.3791083,361.336813 L53.8022344,356.407277 L60,356.407277 Z M26.4676186,382.946361 L26.4676186,344 L31.9074779,344 L31.9074779,382.946361 L26.4676186,382.946361 Z M20.4341831,347.984742 C17.4296621,347.733214 15.0866778,349.908069 15.0816586,352.93246 C15.0816586,353.510266 15.0816586,354.086052 15.0816586,354.668909 C15.0816586,355.260857 15.0816586,355.859877 15.0816586,356.470008 C15.0896894,356.471018 15.0746316,356.471018 15.0816586,356.471018 L15.0816586,356.48415 L15.1017356,356.48415 L15.3195709,356.48415 L17.73684,356.48415 L20.6068452,356.48415 L20.9351039,356.48415 L20.9351039,356.979124 C20.9351039,356.982154 20.9361077,356.984174 20.9361077,356.987205 C20.9351039,357.003367 20.9361077,357.01953 20.9351039,357.035692 L20.9351039,360.402524 L15.1037433,360.402524 L15.1037433,382.877368 L15.1017356,382.877368 L15.1017356,382.946058 L9.66187618,382.946058 L9.66187618,382.4925 L9.66187618,373.118302 L9.66187618,360.592433 L9.66187618,360.402524 L9.46211016,360.402524 L6.76376323,360.402524 L5.23891613,360.402524 L5,360.402524 L5,356.48415 L5.37744734,356.48415 L8.05672114,356.48415 L9.18304006,356.48415 L9.66187618,356.48415 L9.66187618,356.067968 L9.66187618,355.015391 C9.65685693,354.238585 9.66087233,353.463799 9.66187618,352.686993 C9.66890312,348.190812 12.5479429,344.866406 16.9729107,344.192636 C19.0147402,343.882519 21.0264542,344.003738 23.0351566,344.415879 L23.0492105,344.412849 L23.13253,344.432041 C23.1516031,344.436082 23.1716801,344.438102 23.1907533,344.442143 C23.2078187,344.446184 23.2158495,344.452244 23.2309072,344.455275 L23.6485086,344.55326 L22.899637,348.295868 C22.0313073,348.183741 21.2352548,348.051411 20.4341831,347.984742 Z M60,382.946462 L53.9267117,383 L52.9409317,381.551444 C51.513458,379.522051 50.080965,377.495689 48.6474682,375.471347 C48.5239947,375.297601 48.3965059,375.15618 48.5731834,374.910713 C49.5117825,373.606608 50.4293007,372.287352 51.3568575,370.975166 C51.3819537,370.9388 51.4241154,370.916577 51.5164695,370.837785 C54.0140466,374.407658 56.5136314,377.980561 59.0583894,381.618114 L60,382.946462 Z" id="flx"></path>
            <path d="M7.67133835,308.722411 C6.18756783,305.537208 5.32438575,302.010632 5.22941691,298.295031 L15.9618356,298.295031 C16.0144916,301.999347 16.4874552,305.521221 17.3026827,308.722411 L7.67133835,308.722411 Z M7.67133835,286.505923 L17.3026827,286.505923 C16.4874552,289.707114 16.0144916,293.229928 15.9618356,296.933303 L5.22941691,296.933303 C5.32438575,293.217702 6.18756783,289.691126 7.67133835,286.505923 Z M26.5306445,271.70841 C22.6848769,274.023725 19.5132939,278.886638 17.675976,285.144194 L8.35022447,285.144194 C12.0380242,278.291352 18.6642161,273.247878 26.5306445,271.70841 Z M54.8699091,285.144194 L45.5432173,285.144194 C43.7068397,278.886638 40.5352567,274.023725 36.6885488,271.70841 C44.5559175,273.247878 51.1821094,278.291352 54.8699091,285.144194 Z M32.2927141,285.144194 L32.2927141,271.614368 C37.4078672,272.054485 41.8281493,277.412059 44.1553559,285.144194 L32.2927141,285.144194 Z M19.0647777,285.144194 C21.3929246,277.410178 25.814147,272.051664 30.9311807,271.613428 L30.9311807,285.144194 L19.0647777,285.144194 Z M17.323369,298.295031 L30.0322677,298.295031 C30.1902357,297.795668 30.4234265,297.339564 30.7243179,296.933303 L17.323369,296.933303 C17.376025,293.213 17.8574511,289.683603 18.6839621,286.505923 L30.9311807,286.505923 L30.9311807,296.669045 C31.3138769,296.223285 31.7717959,295.850879 32.2927141,295.577217 L32.2927141,286.505923 L44.5352312,286.505923 C44.7242286,287.230047 44.8953606,287.971098 45.0476868,288.729076 L45.9964349,288.729076 C46.1402986,288.729076 46.2813414,288.73754 46.4214439,288.750706 C46.2719385,287.986144 46.1036274,287.23757 45.9165106,286.505923 L55.547855,286.505923 C56.8529712,289.307435 57.6776016,292.371324 57.9220758,295.597906 C59.0231501,296.194132 59.8609445,297.227654 60.1966264,298.503805 C60.2060293,298.207572 60.2191933,297.91228 60.2191933,297.614167 C60.2191933,281.835796 47.3852366,269 31.6091265,269 C15.834897,269 3,281.835796 3,297.614167 C3,311.366873 12.7526412,322.881378 25.7031933,325.611418 C25.5320613,325.126162 25.4342717,324.60799 25.4342717,324.064427 L25.4370925,323.279176 C18.0520902,321.501782 11.8650117,316.616299 8.35022447,310.083199 L17.675976,310.083199 C19.3355799,315.738887 22.0849747,320.260427 25.4380328,322.786396 L25.4427342,321.096461 C22.7375329,318.731304 20.5024742,314.859594 19.0647777,310.083199 L26.9124005,310.083199 L27.2706492,308.722411 L18.6839621,308.722411 C17.8574511,305.544731 17.376025,302.015334 17.323369,298.295031 Z M60.5284532,324.073079 C60.5284532,324.324171 60.3244112,324.528242 60.0724147,324.528242 L41.3193608,324.528242 L34.5116938,324.528242 L30.08577,324.528242 C29.8328332,324.528242 29.6287912,324.324171 29.6287912,324.073079 L29.6287912,323.933897 L29.6287912,323.390334 L29.6287912,316.891089 L30.9310866,316.891089 L32.29262,316.891089 L41.2074668,316.891089 L42.7222668,316.891089 L49.6192609,316.891089 L52.7325461,316.891089 L60.5284532,316.891089 L60.5284532,324.073079 Z M32.29262,306.115754 L34.0048799,299.599582 C34.0584762,299.383286 34.2512347,299.231878 34.4740824,299.231878 L42.1966472,299.231878 L42.1966472,302.59294 L40.5661921,302.59294 C39.80174,302.59294 39.1219136,303.021772 38.7928137,303.71204 C38.4637137,304.402308 38.5586826,305.199785 39.0391685,305.79413 L41.4096282,308.722599 L42.5125831,310.083387 L43.0842767,310.789643 C43.2713935,311.020046 43.5008231,311.199666 43.7452974,311.350133 C44.1279936,311.584298 44.5614652,311.72348 45.0212648,311.734765 C45.0410108,311.734765 45.0588762,311.740408 45.0786222,311.740408 L45.0795625,311.740408 C45.8571786,311.740408 46.5840193,311.394333 47.0729677,310.789643 L47.6446613,310.083387 L48.7476162,308.722599 L51.118076,305.79413 C51.5985618,305.200725 51.694471,304.403249 51.365371,303.71298 C51.0353308,303.021772 50.3564447,302.59294 49.5919926,302.59294 L47.9605973,302.59294 L47.9605973,299.231878 L55.7047886,299.231878 C55.9154126,299.231878 56.0978279,299.374822 56.1504839,299.592999 L57.2628417,303.82395 L58.3197226,307.848008 L60.310307,315.420272 L53.9812453,315.420272 L51.0814048,315.420272 L43.4942411,315.420272 L42.0245749,315.420272 L32.29262,315.420272 L30.9310866,315.420272 L29.8469375,315.420272 L30.9310866,311.296529 L31.2498434,310.083387 L31.6080922,308.722599 L32.29262,306.115754 Z M43.668194,296.933491 L43.668194,293.416319 C43.668194,293.144538 43.8901013,292.924479 44.1618439,292.924479 L45.6691215,292.924479 L45.9963409,292.924479 C46.2680834,292.924479 46.4890505,293.144538 46.4890505,293.416319 L46.4890505,296.933491 L46.4890505,298.295219 L46.4890505,302.653127 C46.4890505,303.031176 46.6404364,303.372548 46.8830301,303.626462 C47.139728,303.895422 47.4998574,304.064698 47.900419,304.064698 L49.5919926,304.064698 C49.8721977,304.064698 49.9963154,304.261245 50.0367476,304.344943 C50.0771799,304.429581 50.1514625,304.650579 49.9746888,304.867817 L46.8548215,308.722599 L45.9305209,309.863329 C45.8581189,309.951728 45.7706723,310.0232 45.6785244,310.083387 C45.6268087,310.118183 45.5741527,310.149217 45.5177355,310.174608 C45.3804539,310.233854 45.232829,310.26865 45.0795625,310.26865 L45.0786222,310.26865 C44.8614163,310.26865 44.656434,310.199999 44.4796603,310.083387 C44.3865721,310.0232 44.2991255,309.951728 44.2276638,309.863329 L44.2220221,309.856746 L43.3033632,308.722599 L40.1825556,304.867817 C40.005782,304.650579 40.0810048,304.429581 40.1204968,304.344943 C40.1609291,304.261245 40.2850468,304.064698 40.5661921,304.064698 L42.2568254,304.064698 C43.0353818,304.064698 43.668194,303.431795 43.668194,302.653127 L43.668194,298.295219 L43.668194,296.933491 Z M61.914434,315.827474 L59.1622184,305.299469 L57.866505,300.339693 L57.576897,299.229997 C57.4866296,298.860412 57.2901099,298.54349 57.0296509,298.295219 C56.6817452,297.963251 56.2153636,297.761061 55.7047886,297.761061 L47.9605973,297.761061 L47.9605973,296.933491 L47.9605973,293.416319 C47.9605973,292.65834 47.5233645,292.005689 46.8933732,291.679363 C46.622571,291.53924 46.3216796,291.452722 45.9963409,291.452722 L45.4979895,291.452722 L44.1618439,291.452722 C43.0776947,291.452722 42.1966472,292.333895 42.1966472,293.416319 L42.1966472,296.933491 L42.1966472,297.761061 L34.4740824,297.761061 C33.9588059,297.761061 33.4886632,297.964191 33.1360561,298.295219 C32.8699553,298.545371 32.6696745,298.865114 32.5784668,299.23658 L32.29262,300.326527 L30.9310866,305.507302 L30.08577,308.722599 L29.7284615,310.083387 L28.1816918,315.968537 L28.1807516,316.038128 C28.1741696,316.077626 28.1572444,316.114302 28.1572444,316.155681 C28.1572444,316.196119 28.1741696,316.229974 28.1807516,316.268531 L28.1610056,322.875924 L28.1581847,323.781549 L28.1572444,324.073079 C28.1572444,324.1643 28.172289,324.250818 28.1845127,324.339218 C28.3161527,325.274936 29.1135148,326 30.08577,326 L35.1576699,326 L60.0724147,326 C61.1358776,326 62,325.135754 62,324.073079 L62,316.155681 C62,316.036247 61.9642692,315.927159 61.914434,315.827474 Z M38.7934719,320.106574 C38.7022642,320.060494 38.6025939,320.02946 38.4944611,320.02946 L32.7643613,320.02946 C32.6063933,320.02946 32.4672311,320.091528 32.3515759,320.182748 C32.3327702,320.197795 32.3092631,320.205318 32.2923379,320.222246 C32.1644591,320.346382 32.0835946,320.517538 32.0835946,320.711265 C32.0835946,320.90311 32.1644591,321.074267 32.2923379,321.198402 C32.3092631,321.21533 32.3327702,321.223794 32.3515759,321.23884 C32.4672311,321.329121 32.6063933,321.391188 32.7643613,321.391188 L37.4187745,321.391188 L38.4944611,321.391188 C38.8705753,321.391188 39.1752278,321.086492 39.1752278,320.711265 C39.1752278,320.443245 39.0172598,320.217544 38.7934719,320.106574" id="download"></path>
            <path d="M34.9604087,229.975907 C36.3899694,229.975907 37.5527424,231.149886 37.5527424,232.592037 C37.5527424,234.034189 36.3899694,235.207203 34.9604087,235.207203 C33.5308481,235.207203 32.368075,234.034189 32.368075,232.592037 C32.368075,231.149886 33.5308481,229.975907 34.9604087,229.975907 M25.7567157,242.039817 C25.4755848,241.755245 25.4755848,241.295107 25.7567157,241.010536 L31.7149714,234.999803 C31.2215579,234.324548 30.9260835,233.49302 30.9260835,232.592037 C30.9260835,230.596177 32.3575565,228.93505 34.2394129,228.589705 L34.2394129,215.12223 C34.2394129,214.720936 34.5616617,214.394884 34.9604087,214.394884 C35.3591557,214.394884 35.6814045,214.720936 35.6814045,215.12223 L35.6814045,228.589705 C37.5623047,228.93505 38.994734,230.596177 38.994734,232.592037 C38.994734,234.835813 37.1855509,236.661895 34.9604087,236.661895 C34.1495275,236.661895 33.3950638,236.417838 32.7629971,236.000145 L26.7760546,242.039817 C26.6354891,242.181621 26.4509372,242.253005 26.2663852,242.253005 C26.0818332,242.253005 25.8972812,242.181621 25.7567157,242.039817 Z M61.82257,228.383946 C63.526568,243.446952 52.7642237,257.102534 37.8317697,258.82154 C36.7894813,258.941156 35.7452805,259 34.7087296,259 C30.3435495,259 26.0596487,257.946602 22.1611078,255.896722 C21.5873711,255.595751 21.36457,254.88191 21.6629131,254.30312 C21.9631687,253.72433 22.6726897,253.501496 23.244514,253.801502 C26.4650893,255.494463 29.9782704,256.435961 33.5698622,256.601881 L33.5698622,252.516589 C33.5698622,251.863521 34.0938751,251.333928 34.7412413,251.333928 C35.3876513,251.333928 35.9126204,251.863521 35.9126204,252.516589 L35.9126204,256.600916 C36.4634076,256.57487 37.0141949,256.536284 37.5659384,256.471653 C40.7033219,256.110874 43.6360727,255.168411 46.2781302,253.769669 L44.8246639,251.226852 C44.6257685,250.877649 44.7443408,250.432945 45.089539,250.232298 C45.4347373,250.031651 45.8755583,250.151268 46.0734975,250.499506 L47.5355698,253.057757 C51.0229328,250.94421 53.9289092,248.005887 56.0220919,244.538935 L53.5511992,243.09389 C53.2060009,242.893243 53.0883849,242.447575 53.2882365,242.100301 C53.4880881,241.753027 53.9298654,241.63341 54.2731512,241.835022 L56.7383066,243.276209 C58.4011868,240.126627 59.4109634,236.598903 59.6127275,232.894648 L55.5707524,232.885966 C54.9233861,232.884037 54.4003295,232.353479 54.402242,231.700411 C54.4031982,231.049273 54.9281673,230.521609 55.5736211,230.521609 L55.5764898,230.521609 L59.6299396,230.531256 C59.6060339,229.907127 59.5658723,229.282034 59.4951114,228.651153 C59.124095,225.37038 58.1372679,222.259384 56.6149532,219.446465 L54.5399388,220.64649 C54.4271039,220.712086 54.3037505,220.742955 54.1823096,220.742955 C53.9327341,220.742955 53.6898522,220.611762 53.5559803,220.377352 C53.3570849,220.029114 53.4775696,219.58441 53.8227679,219.384728 L55.8872638,218.190491 C54.402242,215.791407 52.5060422,213.641203 50.247432,211.828626 C49.4355946,211.177488 48.5893329,210.589051 47.7182093,210.050777 L46.5430053,212.087152 C46.4081772,212.319633 46.1672078,212.447931 45.9185886,212.447931 C45.7952352,212.447931 45.6709255,212.417062 45.5571344,212.350502 C45.2128924,212.147925 45.0962326,211.702257 45.2960842,211.355948 L46.4674633,209.32536 C43.2727061,207.597672 39.7614375,206.606977 36.1382902,206.409224 L36.1210781,210.490657 C36.1182094,211.141795 35.5941965,211.66753 34.9487427,211.66753 L34.9439616,211.66753 C34.2965954,211.664636 33.774495,211.133114 33.7773636,210.480046 L33.795532,206.39186 C33.1711152,206.416941 32.544786,206.457456 31.9175005,206.529805 C28.637639,206.906983 25.582491,207.919865 22.8476794,209.423754 L23.9310856,211.337619 C24.1290247,211.685858 24.00854,212.130561 23.6633418,212.330244 C23.5495506,212.394876 23.4271535,212.425744 23.3057125,212.425744 C23.0551809,212.425744 22.812299,212.293587 22.6793833,212.059177 L21.6007583,210.153994 C18.2979473,212.22992 15.5363613,215.058274 13.5177644,218.369916 L15.3757151,219.466723 C15.7190008,219.669299 15.8347044,220.114968 15.6338966,220.461277 C15.5000247,220.692793 15.2590553,220.821091 15.010436,220.821091 C14.8870826,220.821091 14.7618168,220.789258 14.6480257,220.722697 L12.7967686,219.629749 C10.5878822,223.77099 9.50925724,228.569158 9.91852276,233.565079 L16.231539,233.656721 L9.01297499,240.729533 L2,233.451251 L7.56428981,233.531317 C6.48375235,218.903368 17.0787568,205.858409 31.6507129,204.180883 C38.8855328,203.34839 46.0075177,205.407917 51.7047232,209.978428 C57.4047974,214.549903 60.9973454,221.08637 61.82257,228.383946 Z" id="time-machine"></path>
            <path d="M60.4260633,176.413471 C60.4260633,177.749298 59.3343936,178.83536 57.9926083,178.83536 L50.1882511,178.83536 L50.1882511,168.023386 L15.8481393,168.023386 L15.8481393,178.83536 L8.20833178,178.83536 C6.86560623,178.83536 5.77299622,177.749298 5.77299622,176.413471 L5.77299622,157.468662 C5.77299622,156.13377 6.86560623,155.047708 8.20833178,155.047708 L11.983572,155.047708 L11.983572,159.218896 L9.887679,159.218896 C9.54447534,159.218896 9.26709156,159.494855 9.26709156,159.836296 C9.26709156,160.177736 9.54447534,160.453695 9.887679,160.453695 L11.983572,160.453695 L15.853781,160.453695 L17.0949558,160.453695 L48.9498971,160.453695 L50.1920123,160.453695 L54.0603406,160.453695 L55.6898528,160.453695 C56.0339967,160.453695 56.3113805,160.177736 56.3113805,159.836296 C56.3113805,159.494855 56.0339967,159.218896 55.6898528,159.218896 L54.0603406,159.218896 L54.0603406,155.047708 L57.9926083,155.047708 C59.3343936,155.047708 60.4260633,156.13377 60.4260633,157.468662 L60.4260633,176.413471 Z M17.0911947,186.76333 L48.946136,186.76333 L48.946136,169.258185 L17.0911947,169.258185 L17.0911947,186.76333 Z M13.2256872,159.217961 L15.8528407,159.217961 L15.8528407,147.942002 L13.2256872,147.942002 L13.2256872,159.217961 Z M17.0949558,144.235734 L48.9498971,144.235734 L48.9498971,146.707203 L48.9498971,159.218896 L17.0949558,159.218896 L17.0949558,146.707203 L17.0949558,144.235734 Z M50.1920123,159.218896 L52.8182255,159.218896 L52.8182255,147.942937 L50.1920123,147.942937 L50.1920123,159.218896 Z M57.9926083,152.885875 L54.0603406,152.885875 L54.0603406,146.707203 L50.1920123,146.707203 L50.1920123,143 L15.853781,143 L15.853781,146.707203 L11.983572,146.707203 L11.983572,152.885875 L8.20833178,152.885875 C5.66674413,152.885875 3.5999999,154.942002 3.5999999,157.468662 L3.5999999,176.413471 C3.5999999,178.942002 5.66674413,180.998129 8.20833178,180.998129 L15.8481393,180.998129 L15.8481393,188 L50.1882511,188 L50.1882511,180.998129 L57.9926083,180.998129 C60.5323154,180.998129 62.5999999,178.942002 62.5999999,176.413471 L62.5999999,157.468662 C62.5999999,154.942002 60.5323154,152.885875 57.9926083,152.885875 Z M9.90140714,163.388868 L9.88824317,163.388868 C9.54503951,163.388868 9.27329743,163.664827 9.27329743,164.007203 C9.27329743,164.348644 9.55820348,164.624602 9.90140714,164.624602 C10.2446108,164.624602 10.5219946,164.348644 10.5219946,164.007203 C10.5219946,163.664827 10.2446108,163.388868 9.90140714,163.388868 M52.7440371,163.388868 L46.9274403,163.388868 C46.5842366,163.388868 46.3068528,163.664827 46.3068528,164.007203 C46.3068528,164.348644 46.5842366,164.624602 46.9274403,164.624602 L52.7440371,164.624602 C53.0872407,164.624602 53.3655648,164.348644 53.3655648,164.007203 C53.3655648,163.664827 53.0872407,163.388868 52.7440371,163.388868 M21.0548679,173.480168 L30.5818253,173.480168 C30.925029,173.480168 31.2024128,173.20421 31.2024128,172.861833 C31.2024128,172.520393 30.925029,172.244434 30.5818253,172.244434 L21.0548679,172.244434 C20.7116642,172.244434 20.4333401,172.520393 20.4333401,172.861833 C20.4333401,173.20421 20.7116642,173.480168 21.0548679,173.480168 M35.4552233,173.480168 L44.9821807,173.480168 C45.3253844,173.480168 45.6027682,173.20421 45.6027682,172.861833 C45.6027682,172.520393 45.3253844,172.244434 44.9821807,172.244434 L35.4552233,172.244434 C35.1120196,172.244434 34.8336955,172.520393 34.8336955,172.861833 C34.8336955,173.20421 35.1120196,173.480168 35.4552233,173.480168 M21.0548679,183.778391 L36.7914609,183.778391 C37.1356048,183.778391 37.4129886,183.502432 37.4129886,183.160056 C37.4129886,182.819551 37.1356048,182.542657 36.7914609,182.542657 L21.0548679,182.542657 C20.7116642,182.542657 20.4333401,182.819551 20.4333401,183.160056 C20.4333401,183.502432 20.7116642,183.778391 21.0548679,183.778391 M44.9820867,182.542844 L41.665705,182.542844 C41.3225014,182.542844 41.0451176,182.818803 41.0451176,183.160243 C41.0451176,183.501684 41.3225014,183.778578 41.665705,183.778578 L44.9820867,183.778578 C45.3252904,183.778578 45.6036144,183.501684 45.6036144,183.160243 C45.6036144,182.818803 45.3252904,182.542844 44.9820867,182.542844 M21.0548679,178.62928 L44.9822748,178.62928 C45.3254784,178.62928 45.6028622,178.353321 45.6028622,178.010945 C45.6028622,177.669504 45.3254784,177.393545 44.9822748,177.393545 L21.0548679,177.393545 C20.7116642,177.393545 20.4333401,177.669504 20.4333401,178.010945 C20.4333401,178.353321 20.7116642,178.62928 21.0548679,178.62928 M54.7719476,163.388868 L54.7587836,163.388868 C54.4155799,163.388868 54.1438379,163.664827 54.1438379,164.007203 C54.1438379,164.348644 54.4287439,164.624602 54.7719476,164.624602 C55.1151512,164.624602 55.3934753,164.348644 55.3934753,164.007203 C55.3934753,163.664827 55.1151512,163.388868 54.7719476,163.388868" id="printer"></path>
            <path d="M15.4661744,99.8302613 C15.5167561,103.348274 15.9711041,106.694463 16.7555644,109.735576 L7.49201129,109.735576 C6.06596187,106.711119 5.23535686,103.360547 5.14395482,99.8302613 L15.4661744,99.8302613 Z M7.49201129,88.6310051 L16.7555644,88.6310051 C15.9711041,91.6721182 15.5167561,95.0183069 15.4661744,98.5363199 L5.14395482,98.5363199 C5.23535686,95.0069104 6.06596187,91.6563384 7.49201129,88.6310051 Z M25.630437,74.5729798 C21.93176,76.7716283 18.8808839,81.3924721 17.1140734,87.3370636 L8.1451366,87.3370636 C11.6920685,80.8270302 18.0644772,76.0361155 25.630437,74.5729798 Z M42.5824108,87.3370636 L31.1731281,87.3370636 L31.1731281,74.4826844 C36.0928655,74.9008484 40.3435044,79.9915789 42.5824108,87.3370636 Z M29.8633279,87.3370636 L18.4496082,87.3370636 C20.6885146,79.9898255 24.9418157,74.8990951 29.8633279,74.4826844 L29.8633279,87.3370636 Z M29.8633279,98.5363199 L16.7759746,98.5363199 C16.8265563,95.0016505 17.2888909,91.6493252 18.084,88.6310051 L29.8633279,88.6310051 L29.8633279,98.5363199 Z M23.470509,123.390341 C23.466072,124.0978 23.6133801,124.782467 23.9088838,125.428561 C23.933731,125.482914 23.9656774,125.534636 23.9922993,125.588112 C11.9591754,122.686387 3,111.951758 3,99.1832906 C3,84.1942587 15.3437134,72 30.5155658,72 C40.7188739,72 49.6354542,77.517661 54.3865859,85.6880773 C53.8887553,85.6302181 53.3864878,85.5907686 52.8780084,85.5907686 C52.5425718,85.5907686 52.2044729,85.6144383 51.8681489,85.6407379 C48.1898821,80.001222 42.2922315,75.9054941 35.401582,74.5729798 C39.1002591,76.7716283 42.1511352,81.3924721 43.9179456,87.3370636 L49.0187123,87.3370636 C48.7924257,87.7376946 48.6513293,88.175145 48.6087342,88.6310051 L44.2764546,88.6310051 C44.73169,90.3965865 45.0768881,92.2638597 45.2960755,94.2100318 L44.540012,93.6980658 L44.4619209,93.6454666 L44.2871034,93.5271183 L44.0945379,93.4376996 L44.0084602,93.3973735 C43.9640903,93.3772104 43.918833,93.3640606 43.8753505,93.3438976 C43.6535008,91.7036777 43.342024,90.1257004 42.948019,88.6310051 L31.1731281,88.6310051 L31.1731281,98.4232315 L31.0116216,98.5363199 L29.8633279,99.344595 L29.1729318,99.8302613 L16.7759746,99.8302613 C16.8265563,103.364931 17.2888909,106.717256 18.084,109.735576 L21.0949432,109.735576 C21.1739216,109.855678 21.2573371,109.971396 21.3505139,110.081854 C21.6895002,110.484239 22.1092397,110.802464 22.5751239,111.029518 L18.4496082,111.029518 C19.6333978,114.913095 21.3797981,118.164605 23.4900317,120.42988 L23.4784956,122.180558 C20.7532947,119.68034 18.525037,115.775723 17.1140734,111.029518 L8.1451366,111.029518 C11.3486452,116.910113 16.85939,121.384556 23.4713964,123.274622 L23.470509,123.390341 Z M58.7276507,106.415862 C59.048889,106.633273 59.2103955,106.974291 59.1917601,107.313556 C59.1811113,107.513433 59.1083447,107.71331 58.9681357,107.886888 C58.7409617,108.166541 58.3904393,108.313818 58.0354799,108.312065 C57.7994319,108.310312 57.5624965,108.242809 57.3583948,108.104298 L56.6635618,107.635288 L54.8301964,106.393946 L45.5613189,100.119733 L45.1335928,99.8304367 L44.2648297,99.2422018 L43.2221364,98.5364952 L41.7765642,97.5581492 C41.5831114,97.477497 41.3994199,97.4380476 41.219278,97.4362943 C41.0426857,97.4354176 40.8643186,97.4713605 40.6744153,97.5458761 L39.2670012,98.5364952 L39.0921837,98.6592268 L37.4291989,99.8304367 L31.1730394,104.232994 L29.8632392,105.155234 L24.9763355,108.594348 C24.7651347,108.742502 24.5148883,108.813511 24.2673041,108.812635 C24.1688029,108.811758 24.0703016,108.795978 23.97535,108.772309 C23.7401894,108.715326 23.5218894,108.592594 23.3612702,108.402361 C23.2166243,108.231413 23.1394206,108.031536 23.1243348,107.830782 C23.1003751,107.49327 23.253895,107.150498 23.5698089,106.927828 L29.8632392,102.498972 L31.1730394,101.577608 L33.655093,99.8304367 L35.4937827,98.5364952 L39.4604541,95.7443519 L39.5633923,95.6978892 C40.6566673,95.2069629 41.8085106,95.2139761 42.8955738,95.7180522 L42.9816514,95.7583783 L43.0597425,95.8109776 L44.1885134,96.5745433 L45.5400213,97.4888935 L47.086757,98.5364952 L48.879302,99.7497845 L48.8864012,98.5364952 L48.8890634,98.0955382 C48.8917255,97.7098104 49.2386984,97.3968449 49.6611001,97.3994748 L50.7029059,97.4056114 L52.7306115,97.4170079 C53.1530132,97.4196379 53.4955491,97.7369867 53.4937743,98.1227145 L53.4937743,98.1437542 L53.4911121,98.5364952 L53.4831255,99.8304367 L53.4831255,99.9181021 L53.4653775,102.854017 L55.3999063,104.163738 L57.2874029,105.4419 L58.7276507,106.415862 Z M53.9384497,118.154787 L51.7625485,118.141637 L51.7598863,118.627303 L53.9357875,118.640453 L53.9340127,118.977965 L51.7572241,118.964815 L51.7545619,119.450482 L53.9304631,119.463631 L53.9286883,119.801143 L51.7527871,119.78887 L51.7501249,120.27366 L53.9251387,120.28681 L53.9171521,121.725399 C53.9127151,122.411819 53.3412304,122.970248 52.64551,122.966741 L43.914396,122.915019 L41.0649594,122.897486 L38.8056427,122.884336 L36.7388916,122.872063 L34.4857868,122.858913 L31.1731281,122.83875 L29.8633279,122.83086 L29.4835213,122.829107 C28.7886883,122.824723 28.2234154,122.260158 28.226965,121.573738 L28.2562492,116.858215 C28.2597988,116.171795 28.8321708,115.614243 29.5270039,115.61775 L29.8633279,115.619503 L31.1731281,115.627393 L40.7463833,115.684376 L41.1084419,115.686129 L42.1475856,115.692265 L46.9430871,115.721195 L46.9714839,111.029342 L46.9794705,109.735401 L46.9874571,108.39938 C46.7238997,108.216159 46.5517444,107.912837 46.5535192,107.570942 C46.5570688,107.015143 47.0158538,106.568049 47.5775771,106.571556 C48.1393003,106.575063 48.592761,107.027416 48.5892114,107.583215 C48.5874366,107.925987 48.4108443,108.225802 48.1455121,108.405516 L48.1375255,109.735401 L48.129539,111.029342 L48.1011422,115.727332 L49.5662372,115.736098 L52.3082986,115.752755 L52.6898799,115.755385 C53.384713,115.758891 53.9499858,116.324333 53.9455488,117.010753 L53.9384497,118.154787 Z M53.8639082,109.027941 L45.3981263,103.172768 L45.0715637,102.946591 L44.1513314,102.31014 L42.3818588,101.086331 C42.2913441,101.021459 42.1884059,100.967983 42.0792559,100.92152 C41.8201355,100.810185 41.5166452,100.750573 41.1900826,100.754956 C40.9522598,100.758463 40.7224235,100.796159 40.5112227,100.859278 C40.3213194,100.917137 40.1447271,100.996036 39.9938694,101.096851 L39.992982,101.097728 L31.1731281,107.036183 L29.8633279,107.91722 L27.1620868,109.735401 L26.3305944,110.295583 L26.1752997,110.399905 L26.1717501,110.915377 L26.1717501,111.029342 L26.0945464,122.594163 L26.089222,123.385782 L26.089222,123.386659 C26.0883346,123.555853 26.10697,123.72154 26.1433533,123.884598 C26.1619887,123.966127 26.1957098,124.044149 26.2232192,124.124801 C26.2480663,124.196687 26.2631521,124.270326 26.2959859,124.340458 C26.4290956,124.632384 26.6216611,124.896257 26.8674705,125.12331 C27.1132799,125.349487 27.3990222,125.528325 27.7175983,125.654563 C28.0477105,125.785184 28.3991203,125.85181 28.7602915,125.85444 L29.075318,125.856193 L35.5959223,125.894766 L36.0582569,125.897396 L45.2667913,125.952625 L53.3323565,125.999964 C53.6935277,126.001718 54.0449375,125.938599 54.3777119,125.81236 C54.6971754,125.690506 54.9855799,125.515175 55.2340515,125.290751 C55.4825231,125.067204 55.6777507,124.805962 55.8152975,124.514912 C55.9572813,124.213343 56.0309354,123.892488 56.0327101,123.562866 L56.103702,110.599782 L56.103702,110.576989 L55.6378178,110.25438 L53.8639082,109.027941 Z M50.4547006,119.711637 L48.536145,119.70024 L48.3134079,119.698487 L48.3187323,118.875309 L49.4475032,118.882322 L50.4591375,118.888459 L50.4547006,119.711637 Z M47.6292237,119.69498 L45.4888185,119.681831 L45.4905933,119.419711 L45.4941428,118.858652 L46.227134,118.863036 L47.6345481,118.871802 L47.6292237,119.69498 Z M42.6633416,119.665174 L42.668666,118.841996 L44.8090712,118.854269 L44.8046342,119.678324 L42.6633416,119.665174 Z M32.5141647,120.732062 C31.9338061,120.728556 31.4359755,120.4077 31.1724182,119.94132 C31.0464076,119.716897 30.9692039,119.462667 30.9700913,119.189151 C30.9718661,118.920895 31.0490698,118.673678 31.1724182,118.455392 C31.4395251,117.982875 31.9462297,117.660266 32.5328001,117.663773 C33.3909145,117.669033 34.0813105,118.359836 34.0759861,119.207561 C34.0715491,120.054409 33.3722791,120.737322 32.5141647,120.732062 Z M50.7803758,118.127523 C51.0119868,118.1284 51.2001153,118.31688 51.1983405,118.545687 L51.1903539,120.011453 C51.1885791,120.241136 50.9977884,120.42611 50.7661774,120.425233 L47.6806928,120.406824 L44.0538951,120.385784 L41.0802226,120.368251 L39.2548439,120.356854 L37.6220306,120.347211 L34.2747634,120.327925 C33.8940694,120.888107 33.2462685,121.256301 32.5115025,121.251918 C31.9985862,121.249288 31.5362516,121.059054 31.1724182,120.755732 C30.7100836,120.370881 30.4101429,119.800179 30.4145799,119.155838 C30.4181294,118.520264 30.715408,117.959205 31.1724182,117.579614 C31.5424634,117.271908 32.0145594,117.081675 32.5363497,117.084305 C33.2711157,117.088688 33.9144796,117.464772 34.2889618,118.030214 L39.3852915,118.060021 L40.8601478,118.068787 L41.094421,118.069664 L47.1518033,118.105607 L50.2266391,118.124016 L50.7803758,118.127523 Z M62.8951404,96.7371626 C63.0007408,97.4568957 63.0273627,98.1932851 62.9714566,98.9349345 C62.9643574,99.0313664 62.9368481,99.1207852 62.8960278,99.202314 C62.8818294,99.2294903 62.8578696,99.2487767 62.841009,99.2741996 C62.8072879,99.3232923 62.7753416,99.3741382 62.7300842,99.4135876 C62.7034623,99.4372573 62.6706285,99.4504071 62.640457,99.4696935 C62.6262586,99.47846 62.6111728,99.4863499 62.5969745,99.4942398 C62.5632533,99.5126496 62.5339692,99.5363192 62.4984732,99.549469 C62.4629773,99.5626188 62.4230443,99.5643721 62.3848862,99.5713854 C62.3227683,99.5836585 62.2624252,99.5994383 62.1958703,99.5941784 C62.019278,99.5819052 61.8622085,99.5073896 61.7450719,99.3934246 C61.7078011,99.3583584 61.6749674,99.318909 61.6456832,99.2759529 C61.560493,99.1479614 61.5152357,98.9927937 61.5276592,98.8279827 C61.5755788,98.1924085 61.5525064,97.5612175 61.4619918,96.944053 C61.1913352,95.0934362 60.3163603,93.3690576 58.9391178,92.0418032 C58.7217051,91.8322829 58.4927563,91.6376657 58.2567083,91.4535683 C58.1795046,91.3922025 58.0969766,91.3396033 58.0171107,91.2817441 C57.8547168,91.1642725 57.6923229,91.0476775 57.5228297,90.9416023 C57.4252159,90.8802365 57.3240525,90.825884 57.2237764,90.7680248 C57.0658195,90.6777294 56.9060878,90.590064 56.7428064,90.5094119 C56.6798011,90.478729 56.6185707,90.4462928 56.5555654,90.4173632 C56.5085332,90.3954468 56.4597263,90.379667 56.4126942,90.3586273 C56.2511877,90.2876184 56.0879063,90.220116 55.9219628,90.1596269 C55.806601,90.1166708 55.6912392,90.0763447 55.5741026,90.0386486 C55.4054969,89.984296 55.2351164,89.9369567 55.0629611,89.893124 C54.9458244,89.8633178 54.8286878,89.8326349 54.7106638,89.8072119 C54.5296345,89.7695158 54.3477178,89.7405862 54.1649138,89.7134099 C54.1125572,89.70552 54.0610881,89.6932469 54.0087316,89.6862336 C53.9475011,89.6783438 53.887158,89.6713305 53.8259275,89.6643173 C53.6191637,89.6424009 53.4115124,89.6327577 53.2029738,89.6248679 C53.1106843,89.6213612 53.0192823,89.6125947 52.9261054,89.611718 C52.6208403,89.6099647 52.3146878,89.6213612 52.007648,89.6511675 C51.9748142,89.6546741 51.9437553,89.6511675 51.9118089,89.6502908 C51.8275061,89.6476609 51.7458654,89.6327577 51.6704365,89.6029515 C51.6606751,89.5985682 51.6509138,89.5933083 51.6411524,89.588925 C51.5630613,89.5547355 51.4902946,89.5100262 51.4308389,89.4512903 L51.4299515,89.4512903 C51.3713832,89.3951845 51.3216889,89.3276821 51.2853056,89.2531665 C51.2489222,89.1795276 51.2249625,89.0979987 51.2160885,89.0103333 C51.2018901,88.8726986 51.2400482,88.7464604 51.2977291,88.6307421 C51.3012787,88.6246055 51.3039409,88.6193456 51.3074905,88.613209 C51.4166405,88.408072 51.613643,88.2529042 51.8647768,88.2274812 C52.2232858,88.1932917 52.5791326,88.1792652 52.9349794,88.1810185 C53.0450168,88.1818952 53.1532794,88.192415 53.2633169,88.1967983 C53.2872766,88.197675 53.3112364,88.2003049 53.3360835,88.2020582 C53.5526088,88.2108248 53.769134,88.2195913 53.9838845,88.243261 C54.1178816,88.2572874 54.250104,88.2809571 54.3823264,88.3002435 C54.4879268,88.3160233 54.5926398,88.3361863 54.6973529,88.3545961 C54.8029533,88.3738824 54.9112159,88.3879089 55.0168163,88.4098253 C55.1543631,88.4396315 55.2919099,88.4746977 55.4285692,88.5097638 C55.579427,88.5483366 55.7276225,88.5921693 55.8767055,88.6377553 C55.9255124,88.6526585 55.9760941,88.6649316 56.0240136,88.6807114 C56.160673,88.7245441 56.2955576,88.7710068 56.4304422,88.820976 C56.6230076,88.891985 56.8129109,88.9700072 57.0019268,89.0532894 C57.131487,89.1102719 57.2610472,89.1672544 57.3879452,89.2303735 C57.5787358,89.3232988 57.7642021,89.4258674 57.948781,89.5310659 C58.0659176,89.5985682 58.1839416,89.662564 58.298416,89.7344496 C58.4963059,89.8580579 58.6870966,89.9939392 58.8761125,90.1315739 C58.9684019,90.1990763 59.064241,90.2604421 59.1547556,90.3305744 C59.4298492,90.5453547 59.6969561,90.7732847 59.9507521,91.0178712 C60.217859,91.2764842 60.4698802,91.5473703 60.7050408,91.8296529 C61.1744746,92.3942182 61.5764662,93.0043694 61.9074658,93.6487102 C62.0725219,93.9704423 62.2198301,94.3018175 62.3485029,94.6384527 C62.6058484,95.3134764 62.7895399,96.0174296 62.8951404,96.7371626 Z M57.3589272,92.5747213 C57.5550423,92.7281357 57.745833,92.8903167 57.9277497,93.0656476 C59.4585121,94.5410564 60.2447472,96.6020702 60.0859029,98.7200666 C60.0788037,98.8164985 60.0512943,98.9067939 60.010474,98.9874461 C59.9962756,99.0146224 59.9723159,99.0347854 59.9554553,99.0593317 C59.9217341,99.109301 59.8897878,99.1601469 59.8445305,99.1987197 C59.8179085,99.2223894 59.7841874,99.2364158 59.7540158,99.2557022 C59.7398175,99.2644688 59.7256191,99.2723587 59.7105333,99.2802485 C59.6776996,99.2977816 59.6484154,99.3223279 59.6129195,99.3354778 C59.5774235,99.3486276 59.5374906,99.3495042 59.4993325,99.3565175 C59.4372146,99.3687906 59.3759841,99.385447 59.3103166,99.3801871 C59.1638958,99.3696673 59.0378852,99.3100548 58.9296226,99.2276493 C58.9065502,99.2101162 58.8790409,99.1995964 58.8577433,99.1794333 C58.7104352,99.0374154 58.6252449,98.8340316 58.6421055,98.6139914 C58.7379445,97.3393363 58.4051701,96.0909809 57.714774,95.0486392 C57.4867126,94.7041141 57.2196057,94.382382 56.9161154,94.0895796 C56.770582,93.9493149 56.6188369,93.8195701 56.4608799,93.6968385 C56.4102982,93.6565124 56.3552795,93.6214463 56.302923,93.5837501 C56.1946604,93.5048513 56.0855104,93.4268291 55.9728107,93.3566967 C55.9071433,93.315494 55.839701,93.2786745 55.7722587,93.2401017 C55.6666583,93.1804893 55.5610578,93.1217534 55.4519078,93.0682775 C55.3800285,93.0323347 55.3063745,92.9998985 55.231833,92.9674623 C55.1892379,92.9481759 55.1448679,92.9323961 55.1013854,92.9148631 C55.0357179,92.8876868 54.9718252,92.8596339 54.9052703,92.8350875 C54.8280667,92.806158 54.750863,92.7789817 54.6727719,92.7544354 C54.5600723,92.7184925 54.4473727,92.6860563 54.3320109,92.6571268 C54.2539198,92.6369637 54.1767162,92.6168007 54.0968503,92.6001442 C53.9770515,92.5747213 53.8563653,92.5554349 53.7339043,92.5379018 C53.6584754,92.5265053 53.5839339,92.5133555 53.5076177,92.5045889 C53.3700709,92.4896858 53.2325241,92.4835492 53.09409,92.4782893 C53.0319721,92.4756594 52.9698542,92.4695228 52.9077363,92.4695228 C52.704522,92.4686461 52.5004204,92.476536 52.2954313,92.4966991 C52.2625976,92.5002057 52.2306512,92.4966991 52.1987049,92.4949457 C52.114402,92.4923158 52.0336487,92.4774127 51.9582199,92.4476064 C51.9475711,92.4440998 51.9386971,92.4379632 51.9289357,92.43358 C51.8508446,92.3993904 51.7789654,92.3546811 51.7186223,92.2968219 C51.6946625,92.2731523 51.6804641,92.2424694 51.660054,92.2161697 C51.5793007,92.1136012 51.5180702,91.9934996 51.5038718,91.8549882 C51.4896734,91.7103403 51.5313812,91.5779655 51.5943865,91.4578639 C51.7044239,91.2527269 51.9014264,91.0966824 52.1525601,91.0730128 C52.4081309,91.0475898 52.6628143,91.0379466 52.9166103,91.0396999 C52.9955887,91.0396999 53.071905,91.0475898 53.1508835,91.0502198 C53.3230388,91.057233 53.4951941,91.0651229 53.6655746,91.0835326 C53.7614136,91.0940525 53.8554779,91.1107089 53.9504295,91.1247354 C54.1021747,91.1466517 54.2530324,91.1703214 54.4030028,91.2027576 C54.4668955,91.2159074 54.5299008,91.2290572 54.5929061,91.2439603 C54.628402,91.2527269 54.6630105,91.265 54.6976191,91.2746432 C54.8413776,91.310586 54.982474,91.3509121 55.122683,91.3956215 C55.2202968,91.427181 55.3170232,91.4604939 55.4137497,91.4964367 C55.5504091,91.5472827 55.6870684,91.6033885 55.8210656,91.6621243 C55.9142424,91.7024504 56.0065319,91.7436532 56.0979339,91.7883625 C56.2328185,91.8549882 56.3659283,91.9286272 56.4972633,92.0040194 C56.5806787,92.0513588 56.665869,92.0969448 56.7475097,92.1486674 C56.888606,92.2372094 57.024378,92.334518 57.16015,92.4318266 C57.164587,92.4362099 57.1699113,92.4388399 57.1752357,92.4432232 C57.2355788,92.4870559 57.2994715,92.5282586 57.3589272,92.5747213 Z M55.5641637,94.8190435 C55.6813003,94.9110921 55.7957747,95.0084007 55.9049248,95.1135992 C56.8233822,95.9990199 57.2963656,97.2359788 57.2005266,98.5062506 C57.19254,98.6026826 57.1659181,98.6921013 57.1242103,98.7736301 C57.1100119,98.8008064 57.0869396,98.8209695 57.0691916,98.8463924 C57.0390201,98.8911018 57.0079611,98.9358111 56.9689156,98.9726306 C56.9644786,98.9761372 56.9627038,98.9813972 56.9582668,98.9849038 C56.9325322,99.0085734 56.8979237,99.0217232 56.8686396,99.0410096 C56.8224948,99.0708159 56.7790123,99.1023754 56.7266558,99.1207852 C56.6911598,99.133935 56.6512269,99.1356883 56.6130688,99.1427015 C56.5509509,99.154098 56.4897204,99.1707544 56.4240529,99.1654945 C56.3060289,99.1576046 56.2022033,99.1137719 56.1072516,99.0567894 C56.0850667,99.0427629 56.0637691,99.0287365 56.0433589,99.0129567 C56.0202866,98.9954236 55.9927772,98.9849038 55.9723671,98.9647407 C55.9439703,98.9375645 55.9200105,98.9060049 55.8969382,98.8744454 C55.8232841,98.7771368 55.7753646,98.6614184 55.7611662,98.5369335 C55.7558418,98.4913475 55.7522922,98.4466382 55.7558418,98.3992988 C55.8197345,97.552451 55.5055954,96.7275194 54.8932905,96.1375312 C54.7486445,95.9972666 54.5889128,95.8780416 54.420307,95.7719665 C54.3652883,95.737777 54.30672,95.7141073 54.2490391,95.6834244 C54.1319025,95.621182 54.0138785,95.5606928 53.8887553,95.5142302 C53.8168761,95.4879305 53.743222,95.4712741 53.6695679,95.4502344 C53.5524313,95.4169216 53.4352947,95.3871153 53.3146085,95.3687056 C53.2338552,95.3564324 53.153102,95.3511725 53.0714613,95.3459126 C52.9099548,95.3345161 52.7475608,95.3248729 52.5833921,95.3415293 C52.5505584,95.3441593 52.5177246,95.3415293 52.4857783,95.339776 C52.4023628,95.337146 52.3207222,95.3222429 52.2461807,95.2933133 C52.2355319,95.2889301 52.2257705,95.2827935 52.2160091,95.2784102 C52.1388055,95.243344 52.0660388,95.1995113 52.0056957,95.1407755 C51.9817359,95.1179825 51.9675375,95.0872996 51.9471274,95.061 C51.8965457,94.9970042 51.8592749,94.9259953 51.8335404,94.8462197 C51.8175672,94.7988804 51.7962696,94.7524177 51.7918326,94.6998185 C51.7518997,94.3070775 52.042079,93.9564158 52.4396336,93.917843 C52.5931535,93.9029399 52.745786,93.8968033 52.8984186,93.89768 C52.9454507,93.89768 52.9924828,93.9020633 53.0386276,93.9038166 C53.1424532,93.9073232 53.2462788,93.9125831 53.3483296,93.9239796 C53.4051231,93.9301162 53.4619166,93.9397594 53.5178228,93.9485259 C53.6092248,93.9616757 53.6997394,93.9765789 53.7893667,93.9949886 C53.8497098,94.0081384 53.9082781,94.0230415 53.9677338,94.0379446 C54.0529241,94.059861 54.1381143,94.0844073 54.2215298,94.1107069 C54.2800981,94.1299933 54.3386664,94.1501564 54.3954599,94.1711961 C54.4788753,94.201879 54.560516,94.2351918 54.6412693,94.2711346 C54.696288,94.2956809 54.7521941,94.3202273 54.8063254,94.3465269 C54.8879661,94.386853 54.9678319,94.4306857 55.0468104,94.475395 C55.0965047,94.5052013 55.1479738,94.5323776 55.1967807,94.5630605 C55.2810836,94.6156597 55.3618369,94.6735189 55.4434775,94.7322547 C55.4630003,94.7471578 55.4842979,94.759431 55.5038206,94.7743341 C55.5233434,94.7892372 55.544641,94.8032637 55.5641637,94.8190435 Z" id="media"></path>
            <path d="M19.5404163,48.0407789 C20.2891345,48.8889228 21.2218646,49.5495218 22.2663881,49.9653997 L24.6710891,50.9228336 L14.0856479,50.9228336 C8.35610719,50.9228336 3.69587153,46.2523219 3.69587153,40.5121387 C3.69587153,37.2009103 5.28101482,34.1169238 7.91061243,32.1596115 L8.04275213,32.0612547 L15.114075,32.0612547 L13.7827822,32.9677396 C13.5840898,33.1030304 13.3605718,33.1923065 13.1258124,33.2230983 C9.48806649,33.6997421 6.74203398,36.8346254 6.74203398,40.5121387 C6.74203398,44.5711573 10.0366948,47.8726961 14.0856479,47.8726961 L19.1676859,47.8726961 L19.4131463,47.8726961 L19.5404163,48.0407789 Z M56.8455858,34.6656615 C56.8455858,35.0258059 56.8257615,35.3953474 56.787696,35.7873053 L56.686402,36.8303245 L55.9426196,36.0912751 C55.4431642,35.594998 54.8378843,35.2051678 54.1650218,34.9482195 L53.8521024,34.828724 L53.8456399,34.4941654 C53.7619281,30.1605043 50.5393747,26.5393852 46.1194626,25.8370231 C45.3429293,25.7134234 44.7923277,25.0180852 44.8705325,24.2447837 C44.9001731,23.951122 44.9154225,23.6752826 44.9154225,23.4074829 C44.9154225,18.7387667 41.0004339,14.9344646 36.182326,14.9344646 C32.7700942,14.9344646 29.6506737,16.8890693 28.2357896,19.9101257 C28.056405,20.2924587 27.7209364,20.5802767 27.312711,20.7010728 C27.1706856,20.7431827 27.0233774,20.7644793 26.8754819,20.7644793 C26.6047544,20.7644793 26.3384214,20.6923949 26.1061602,20.554845 C24.9436054,19.8684542 23.6196186,19.5057171 22.2772193,19.5057171 L22.2772193,19.0093598 L22.2772193,19.5057171 C19.3983035,19.5057171 16.8187486,21.1314402 15.6038364,23.6209949 L15.4677446,23.8998694 L12.2812773,23.8998694 L12.5318197,23.2298426 C14.0138802,19.2663615 17.8881495,16.5712525 22.2772193,16.5712525 C23.6418497,16.5712525 24.9933873,16.8371499 26.2566862,17.3513395 C28.3922895,14.0421729 32.1471976,12 36.182326,12 C42.5801784,12 47.8012568,17.011991 47.9049016,23.2192748 C53.1782958,24.6338413 56.8455858,29.276888 56.8455858,34.6656615 Z M60.7775454,51.3115843 L58.0046605,51.3115843 L55.8297514,51.3115843 C55.8960091,51.0400858 55.9357637,50.7577939 55.9357637,50.4663689 L55.9357637,45.4980305 L55.9357637,43.3019652 L55.9357637,41.7842308 C55.9357637,41.6779561 55.9291379,41.5733421 55.9200275,41.4695583 L56.8227887,41.4695583 L58.0584949,41.4695583 L58.1371759,41.4695583 L60.7775454,41.4695583 L60.7775454,51.3115843 Z M53.7964681,44.2625881 L53.7964681,46.064275 L53.7964681,47.7198343 L53.7964681,50.4663689 C53.7964681,51.231048 53.1728175,51.8562417 52.4108539,51.8562417 L36.5263978,51.8562417 C35.9764589,51.8562417 35.5018881,51.5274546 35.2782683,51.0583518 C35.1929615,50.8781831 35.1407836,50.6789182 35.1407836,50.4663689 L35.1407836,49.8337028 L35.1407836,49.1454086 L35.1407836,48.6082236 L35.1407836,47.9207597 L35.1407836,46.6952805 L35.1407836,46.5782124 L35.1407836,45.5370532 L35.1407836,45.3527332 L35.1407836,44.311574 L35.1407836,44.1280843 L35.1407836,43.0869251 L35.1407836,41.7842308 C35.1407836,41.0195517 35.7644342,40.3951883 36.5263978,40.3951883 L51.0467734,40.3951883 L52.4108539,40.3951883 C52.414995,40.3951883 52.4183079,40.3960186 52.4216208,40.3960186 C52.8663756,40.3993396 53.2589525,40.6177008 53.5107318,40.9498089 C53.6871429,41.1831149 53.7964681,41.4695583 53.7964681,41.7842308 L53.7964681,44.2625881 Z M58.5107037,40.2440791 L57.8572371,40.2440791 L57.2327583,40.2440791 L55.970549,40.2440791 L55.5788003,40.2440791 C55.2847818,39.6396422 54.8259472,39.1331772 54.2594438,38.7811425 C53.9099344,38.5636117 53.5214987,38.4041997 53.1049034,38.3203424 C52.8804554,38.2746775 52.6485534,38.2505997 52.4108539,38.2505997 L51.8741665,38.2505997 L36.5263978,38.2505997 C34.5833907,38.2505997 33.001488,39.835586 33.001488,41.7842308 L33.001488,43.0869251 L33.001488,44.1280843 L33.001488,44.311574 L33.001488,45.3527332 L33.001488,45.5370532 L30.8630206,45.5370532 L30.8017322,45.5370532 L24.9652568,45.5370532 C24.5511462,45.5370532 24.1511153,45.4722921 23.775931,45.3527332 C23.0553785,45.1244088 22.4242739,44.6934984 21.9472184,44.1280843 C21.3649789,43.4372992 21.0121566,42.546419 21.0121566,41.5741723 C21.0121566,39.7135362 22.327372,38.0828851 24.1279251,37.7001304 L25.4439687,37.4485584 C27.6959024,36.864048 29.2686946,34.8249038 29.2686946,32.4901833 C29.2686946,29.6664334 26.9761781,27.3690751 24.1602257,27.3690751 L16.522369,27.3690751 L15.2874911,27.3690751 L14.0517849,27.3690751 L12.0127041,27.3690751 L10.7902494,27.3690751 L9.56448194,27.3690751 L3.57809846,27.3690751 C3.25840504,27.3690751 3,27.6289497 3,27.9486039 C3,28.268258 3.25840504,28.5273024 3.57809846,28.5273024 L7.72500246,28.5273024 L10.4614456,28.5273024 L11.9729495,28.5273024 L13.9979505,28.5273024 L15.2204051,28.5273024 L16.4428597,28.5273024 L24.1602257,28.5273024 C26.3401042,28.5273024 28.1133259,30.3049114 28.1133259,32.4901833 C28.1133259,34.2968518 26.8966689,35.8751959 25.1913612,36.3185603 L23.9001642,36.5643204 C21.5579544,37.0624827 19.8567879,39.1697091 19.8567879,41.5741723 C19.8567879,42.5049055 20.1093954,43.375029 20.5433834,44.1280843 C20.8084142,44.5863936 21.1421873,44.9982077 21.5297949,45.3527332 C22.1840897,45.9513582 22.9907773,46.3839291 23.8877409,46.5782124 C24.2355939,46.653767 24.5950419,46.6952805 24.9652568,46.6952805 L30.8630206,46.6952805 L30.8630206,46.6795054 L33.001488,46.6795054 L33.001488,46.6952805 L33.001488,47.9207597 L33.001488,48.6082236 L33.001488,49.1454086 L33.001488,49.8337028 L33.001488,50.4663689 C33.001488,50.6689549 33.0230217,50.865729 33.0553224,51.0583518 C33.3377458,52.7255348 34.7846484,54 36.5263978,54 L52.4108539,54 C53.582787,54 54.6197201,53.4221318 55.2615916,52.5370635 L57.6791695,52.5370635 L62,52.5370635 L62,40.2440791 L58.5107037,40.2440791 Z M57.8615439,43.2789306 L57.8615439,45.6614458 L57.972512,45.6614458 L59.0541825,45.6614458 L59.0541825,43.2789306 L57.972512,43.2789306 L57.8615439,43.2789306 Z M57.8615439,46.8527034 L57.8615439,49.2352186 L57.972512,49.2352186 L59.0541825,49.2352186 L59.0541825,46.8527034 L57.972512,46.8527034 L57.8615439,46.8527034 Z" id="aidisk"></path>
            <path d="M42.9304544,444.028136 C42.9304544,444.350346 42.6700153,444.610785 42.3478053,444.610785 L25.6897182,444.610785 C25.1738484,445.246858 24.3942005,445.662559 23.5110447,445.662559 C21.9534184,445.662559 20.6912904,444.400431 20.6912904,442.842804 C20.6912904,441.286848 21.9534184,440.02472 23.5110447,440.02472 C24.3942005,440.02472 25.1738484,440.438751 25.6897182,441.074823 L42.3478053,441.074823 C42.6700153,441.074823 42.9304544,441.336932 42.9304544,441.659142 L42.9304544,444.028136 Z M46.4881196,439.981313 C46.4881196,439.126538 45.6500399,438.473771 44.7969348,438.473771 L40.2309027,438.473771 L40.2309027,433.009558 C40.9103817,432.754127 41.3945313,432.104699 41.3945313,431.338407 C41.3945313,430.350074 40.5931802,429.548723 39.6048471,429.548723 C38.616514,429.548723 37.8151629,430.350074 37.8151629,431.338407 C37.8151629,432.057953 38.2425501,432.673992 38.8552499,432.957804 L38.8552499,438.473771 L30.5646044,438.473771 L19.6745761,438.473771 C18.8198015,438.473771 18.1720427,439.126538 18.1720427,439.981313 L18.1720427,445.846202 C18.1720427,446.699307 18.8198015,447.191804 19.6745761,447.191804 L30.5646044,447.191804 L44.7969348,447.191804 C45.6500399,447.191804 46.4881196,446.699307 46.4881196,445.846202 L46.4881196,444.809454 L46.4881196,440.094838 L46.4881196,439.981313 Z M23.5108778,441.127412 C24.4724992,441.127412 25.2538165,441.90706 25.2538165,442.870351 C25.2538165,443.831972 24.4724992,444.61162 23.5108778,444.61162 C22.5492564,444.61162 21.767939,443.831972 21.767939,442.870351 C21.767939,441.90706 22.5492564,441.127412 23.5108778,441.127412 Z M53.922488,427.235823 C58.3015382,428.586433 61.2431647,432.498029 61.2431647,436.97057 C61.2431647,437.246034 61.2314783,437.519829 61.2081056,437.790285 C60.7757099,443.044144 56.2096778,447.191136 50.6619905,447.191136 L48.9958479,447.191136 L48.9958479,443.720284 L50.6669989,443.720284 C54.5017981,443.720284 57.6237287,440.730242 57.6237287,437.055713 C57.6237287,433.381185 54.5017981,430.392813 50.6669989,430.392813 L50.5634911,430.392813 L50.5584826,430.341059 C50.1427817,426.324286 47.0125038,423.624734 42.7686816,423.624734 C40.8955233,423.624734 39.2093469,424.150621 37.8937954,425.145632 L37.8303551,425.192377 L37.8069824,425.117251 C36.9154792,422.304174 34.945491,419.93351 32.2609646,418.442663 C30.4095095,417.414263 28.2809205,416.871681 26.1039166,416.871681 C19.3658889,416.871681 13.8833115,422.09215 13.8833115,428.509637 C13.8833115,429.14404 13.9350654,429.79013 14.0335648,430.377787 L14.0435817,430.431211 L13.9918278,430.442897 C10.8782446,431.134062 8.61943605,433.875351 8.61943605,436.958884 C8.61943605,440.214373 10.5326619,443.720284 14.7347471,443.720284 L15.4092176,443.720284 L15.4092176,447.191136 L14.741425,447.191136 C9.18705979,447.191136 5,442.797061 5,436.97057 C5,433.526429 6.8481161,430.230873 9.82313226,428.37274 L9.99508887,428.265893 L10.2571975,428.100614 L10.2772313,427.79176 L10.2889176,427.589753 C10.7764062,419.636343 17.7231191,413.405838 26.1039166,413.405838 C28.2575478,413.405838 30.3460692,413.809852 32.3093796,414.606195 C35.0957443,415.734764 37.4697471,417.586219 39.1792962,419.963561 L39.3295496,420.172246 L39.559938,420.492787 L39.9455883,420.409313 L40.19768,420.35422 C41.0357598,420.170577 41.9005512,420.077086 42.7686816,420.077086 C47.3630949,420.077086 51.5000703,422.674799 53.3081188,426.693241 L53.381576,426.855181 L53.4934313,427.103934 L53.7522009,427.184069 L53.922488,427.235823 Z M52.7139503,415.744614 C54.9076491,417.136962 56.4185299,419.305618 56.9694588,421.849908 C57.091331,422.412524 56.7340619,422.966792 56.1697772,423.090333 C55.8909737,423.150435 55.6138398,423.092003 55.3901293,422.951766 C55.1630798,422.806521 54.9927927,422.574463 54.9293524,422.288982 C54.4969566,420.297291 53.3149637,418.597758 51.5953977,417.505917 C49.8775011,416.415746 47.8373946,416.068494 45.8490421,416.525932 C45.2847573,416.654482 44.7238115,416.30556 44.5969309,415.744614 C44.4683808,415.181999 44.8173025,414.622723 45.3782483,414.492503 C47.9158603,413.908185 50.521921,414.352267 52.7139503,415.744614 Z M55.5637554,411.254544 C58.8659899,413.349743 61.1431628,416.630274 61.9762341,420.491785 C62.0981062,421.0544 61.7391677,421.610338 61.1765524,421.73221 C60.897749,421.792311 60.620615,421.733879 60.3969045,421.591973 C60.169855,421.448398 59.9978984,421.214671 59.9361276,420.930859 C59.2215895,417.621946 57.271635,414.810539 54.4452027,413.015847 C51.6204399,411.222823 48.2464176,410.6552 44.9458525,411.416483 C44.3832373,411.548372 43.8222914,411.197781 43.6937414,410.635166 C43.5651913,410.072551 43.9141129,409.513274 44.4750587,409.384724 C48.3265527,408.494891 52.2648598,409.161014 55.5637554,411.254544 Z M39.6065166,443.520614 L39.6065166,442.144961 L41.9003843,442.144961 L41.9003843,443.520614 L39.6065166,443.520614 Z M36.1339949,443.520614 L36.1339949,442.144961 L38.4278626,442.144961 L38.4278626,443.520614 L36.1339949,443.520614 Z" id="aicloud"></path>
            <path d="M13.2568326,483.143286 L13.2568326,482.218653 C13.2568326,480.598918 14.6430625,478.904301 16.2821054,478.520122 L30.181732,475.261118 C30.3955202,475.210654 30.6059149,475.184608 30.807826,475.184608 C31.2489762,475.184608 31.6460115,475.308326 31.9565134,475.54274 C32.4129342,475.886221 32.6657473,476.451094 32.6657473,477.131545 L32.6657473,478.590121 L13.2568326,483.143286 Z M32.6657473,485.7137 L32.6657473,487.2146 L32.6657473,488.155511 L32.6657473,491.162195 L32.6657473,491.772648 L32.6657473,492.383101 L32.6657473,493.250758 C32.0192925,492.908905 31.3015749,492.729838 30.5634966,492.729838 C29.2112014,492.729838 28.0150055,493.332152 27.2124514,494.26004 C26.5795704,494.9877 26.1842319,495.910705 26.1842319,496.931382 C26.1842319,497.950432 26.5795704,498.873437 27.2124514,499.602724 C28.0150055,500.528985 29.2112014,501.132926 30.5634966,501.132926 C32.8710518,501.132926 34.7374567,499.456216 34.919007,497.273236 L34.9308842,497.273236 L34.9410646,497.029055 L34.9410646,492.383101 L34.9410646,491.162195 L34.9410646,488.155511 L34.9410646,485.7137 L34.9410646,477.131545 C34.9410646,475.765759 34.3811431,474.590433 33.3614073,473.823704 C32.6453865,473.284878 31.7664794,473 30.8180064,473 C30.4328483,473 30.0375098,473.04558 29.6404745,473.138369 L15.7408479,476.399002 C13.1160039,477.014338 10.9798186,479.625449 10.9798186,482.218653 L10.9798186,499.531098 C10.3350605,499.189244 9.617343,499.010178 8.87756795,499.010178 C6.46311865,499.010178 4.5,500.893629 4.5,503.211722 C4.5,505.528187 6.46311865,507.411638 8.87756795,507.411638 C11.1851231,507.411638 13.0939464,505.674696 13.2449555,503.490089 L13.2534392,503.490089 L13.2568326,503.245907 L13.2568326,485.393008 L32.6657473,480.838216 L32.6657473,485.7137 Z M59.5366175,513.372627 C59.5366175,514.555527 58.5737534,515.518391 57.3908533,515.518391 L55.3956401,515.518391 L55.3956401,512.464359 L59.5366175,512.464359 L59.5366175,513.372627 Z M49.6250731,515.518391 L54.1548358,515.518391 L54.1548358,512.464359 L49.6250731,512.464359 L49.6250731,515.518391 Z M43.8528516,515.518391 L48.3842688,515.518391 L48.3842688,512.464359 L43.8528516,512.464359 L43.8528516,515.518391 Z M38.0806302,515.518391 L42.610393,515.518391 L42.610393,512.464359 L38.0806302,512.464359 L38.0806302,515.518391 Z M32.3084088,515.518391 L36.839826,515.518391 L36.839826,512.464359 L32.3084088,512.464359 L32.3084088,515.518391 Z M26.9762593,513.372627 L26.9762593,512.464359 L31.0676045,512.464359 L31.0676045,515.518391 L29.1220234,515.518391 C27.9391234,515.518391 26.9762593,514.555527 26.9762593,513.372627 Z M55.3956401,491.589068 L55.3956401,488.53338 L57.3908533,488.53338 C58.5737534,488.53338 59.5366175,489.496244 59.5366175,490.679145 L59.5366175,491.589068 L55.3956401,491.589068 Z M49.6250731,491.589068 L54.1548358,491.589068 L54.1548358,488.53338 L49.6250731,488.53338 L49.6250731,491.589068 Z M43.8528516,491.589068 L48.3842688,491.589068 L48.3842688,488.53338 L43.8528516,488.53338 L43.8528516,491.589068 Z M38.0806302,491.589068 L42.610393,491.589068 L42.610393,488.53338 L38.0806302,488.53338 L38.0806302,491.589068 Z M57.3908533,486.051772 C59.9419469,486.051772 62.018226,488.128051 62.018226,490.679145 L62.018226,513.372627 C62.018226,515.923721 59.9419469,518 57.3908533,518 L29.1220234,518 C26.5709299,518 24.4946508,515.923721 24.4946508,513.372627 L24.4946508,500.943077 C25.1018176,501.93903 25.9571454,502.752997 26.9762593,503.323767 L26.9762593,511.223554 L59.5366175,511.223554 L59.5366175,492.829872 L36.9953401,492.829872 L36.9953401,492.20947 L36.9953401,491.589068 L36.9953401,488.53338 L36.9953401,487.577134 L36.9953401,486.051772 L57.3908533,486.051772 Z M42.0436746,507.137131 C40.9613999,507.780245 40.0763398,507.25421 40.0763398,505.967982 L40.0763398,498.267098 C40.0763398,496.98087 40.9613999,496.454835 42.0436746,497.097949 L48.5293056,500.948391 C49.6115803,501.591505 49.6115803,502.643575 48.5293056,503.286689 L42.0436746,507.137131 Z" id="media-center"></path>
            <g id="4G" transform="translate(5.000000, 534.000000)">
                <path d="M31.2370937,52.9148244 L5.95600731,52.9148244 C2.67190722,52.9148244 0,50.2429171 0,46.9569099 L0,23.2320521 C0,19.947952 2.67190722,17.2760448 5.95600731,17.2760448 L31.2370937,17.2760448 C34.523101,17.2760448 37.1950082,19.947952 37.1950082,23.2320521 L37.1950082,46.9569099 C37.1950082,50.2429171 34.523101,52.9148244 31.2370937,52.9148244 Z M5.95600731,20.1367591 C4.24911441,20.1367591 2.86071437,21.5270663 2.86071437,23.2320521 L2.86071437,46.9569099 C2.86071437,48.66571 4.24911441,50.0560171 5.95600731,50.0560171 L31.2370937,50.0560171 C32.9439867,50.0560171 34.3342938,48.66571 34.3342938,46.9569099 L34.3342938,23.2320521 C34.3342938,21.5270663 32.9439867,20.1367591 31.2370937,20.1367591 L5.95600731,20.1367591 Z" id="Path"></path>
                <path d="M43.5204291,41.7116948 C43.5204291,42.9494305 44.5216791,43.9525877 45.761322,43.9525877 C46.9990578,43.9525877 48.0022149,42.9494305 48.0022149,41.7116948 L48.0022149,20.0255727 C48.0022149,18.7859298 46.9990578,17.7846798 45.761322,17.7846798 C44.5216791,17.7846798 43.5204291,18.7859298 43.5204291,20.0255727 L43.5204291,37.3519661 L36.3705503,37.3519661 L36.3705503,39.7358947 L43.5204291,39.7358947 L43.5204291,41.7116948 Z M35.8296846,27.9106551 L2.04655506,27.9106551 C1.52018361,27.9106551 1.0929836,27.4834551 1.0929836,26.9570836 C1.0929836,26.4307122 1.52018361,26.0035122 2.04655506,26.0035122 L35.8296846,26.0035122 C36.356056,26.0035122 36.7832561,26.4307122 36.7832561,26.9570836 C36.7832561,27.4834551 36.356056,27.9106551 35.8296846,27.9106551 M45.7847799,10.2581403 C42.9812798,10.2581403 40.355144,11.7819475 38.9305083,14.2364404 C38.6883011,14.6521976 38.7321654,15.1499619 38.993444,15.5199476 C39.0888011,15.6553547 39.2089511,15.7755047 39.3634297,15.8632333 C39.8955226,16.1740976 40.5592083,16.0081762 40.9139369,15.5199476 C40.9368226,15.4875262 40.9711512,15.4665476 40.9902226,15.432219 C42.0067298,13.6852761 43.7994441,12.6420689 45.7847799,12.6420689 C47.7701157,12.6420689 49.5609228,13.6852761 50.5793372,15.4341262 C50.6003157,15.4703619 50.6403657,15.485619 50.6651586,15.5199476 C50.8940157,15.832719 51.2392086,16.0253405 51.6111015,16.0253405 C51.8132586,16.0253405 52.0211372,15.9738476 52.2080372,15.8632333 C52.3606086,15.7755047 52.4807586,15.6553547 52.5761158,15.5199476 C52.8373944,15.1499619 52.8812587,14.6521976 52.6390515,14.2345333 C51.2125086,11.7819475 48.5863728,10.2581403 45.7847799,10.2581403 M14.4193354,40.7512576 L10.2293424,40.7512576 L14.4193354,35.0889503 L14.4193354,40.7512576 Z M18.4777355,40.9553219 C18.1764069,40.8199147 17.7739998,40.7512576 17.2743284,40.7512576 L16.8547569,40.7512576 L16.8547569,33.2085074 C16.8547569,32.0775716 16.362714,31.5130573 15.374814,31.5130573 C15.0696711,31.5130573 14.8064854,31.616043 14.5890711,31.8182002 C14.3716568,32.0241716 14.093214,32.3541074 13.7556497,32.8099145 L8.59110667,39.7175861 C8.44807096,39.9083004 8.32792095,40.0665933 8.23065666,40.196279 C8.13339238,40.3259647 8.03803523,40.4613719 7.94649237,40.6005933 C7.85685665,40.7398147 7.78819951,40.8733147 7.74242808,41.0010933 C7.69856379,41.1269647 7.67567808,41.2528362 7.67567808,41.3748933 C7.67567808,41.8554933 7.83015665,42.2350148 8.13720666,42.5153648 C8.44616381,42.7938077 8.90959954,42.9349362 9.52751384,42.9349362 L14.4193354,42.9349362 L14.4193354,44.746722 C14.4193354,45.2349506 14.5318568,45.6030292 14.7549926,45.8528649 C14.9800354,46.1046077 15.2718283,46.228572 15.6379997,46.228572 C16.0079855,46.228572 16.3016855,46.1065149 16.5248212,45.8643077 C16.7460498,45.6201934 16.8547569,45.2463934 16.8547569,44.746722 L16.8547569,42.9349362 L17.4497855,42.9349362 C17.9437355,42.9349362 18.3137212,42.8491148 18.5616498,42.6774719 C18.8076713,42.5039219 18.9297284,42.2292933 18.9297284,41.8516791 C18.9297284,41.3920576 18.7790641,41.0926362 18.4777355,40.9553219 Z M28.8625101,40.8071369 C28.6660744,40.7575512 28.4276815,40.7327583 28.1454244,40.7327583 L25.8473172,40.7327583 C25.5688743,40.7327583 25.3495529,40.8052297 25.1874457,40.9501726 C25.0272457,41.0951155 24.9452386,41.2801083 24.9452386,41.503244 C24.9452386,41.7759655 25.0425029,41.9685869 25.2370314,42.0830155 C25.4296529,42.1974441 25.7157243,42.2527512 26.0933386,42.2527512 L27.6610101,42.2527512 L27.6610101,43.8757298 C27.2376243,44.104587 26.8218672,44.278137 26.4099243,44.4021013 C25.9979815,44.5241584 25.5593386,44.585187 25.0882743,44.585187 C24.1270743,44.585187 23.3737528,44.2686013 22.8359385,43.637337 C22.2962171,43.0060727 22.0273099,42.1039941 22.0273099,40.929194 C22.0273099,40.3875654 22.0959671,39.8936154 22.2332813,39.4492511 C22.3744099,39.0048868 22.5727528,38.6272725 22.8359385,38.3202225 C23.0972171,38.0131725 23.4118957,37.7785939 23.7799743,37.6183939 C24.1480528,37.4562868 24.5676243,37.3761868 25.0348743,37.3761868 C25.4887743,37.3761868 25.8644815,37.4429368 26.1581815,37.5802511 C26.4499743,37.7175654 26.6826458,37.8853939 26.8561958,38.0837368 C27.0297458,38.285894 27.2395315,38.5815011 27.4912744,38.9724654 C27.5828172,39.0964297 27.6953386,39.1898797 27.8288387,39.2585368 C27.9623387,39.327194 28.1034672,39.3596154 28.2484101,39.3596154 C28.5115958,39.3596154 28.7385458,39.2699797 28.927353,39.0926154 C29.1161601,38.9114368 29.2115173,38.6959297 29.2115173,38.4403725 C29.2115173,38.2038868 29.1295101,37.9330725 28.9654958,37.6279296 C28.8014815,37.3246939 28.5573672,37.0329011 28.2350601,36.7620868 C27.9127529,36.4874582 27.4912744,36.2624153 26.9725315,36.0812367 C26.4537886,35.9038725 25.85876,35.8142367 25.1855386,35.8142367 C24.3673743,35.8142367 23.6350314,35.9324796 22.9885099,36.1708725 C22.3419885,36.4092653 21.7946385,36.7544582 21.3464599,37.2045439 C20.894467,37.6565368 20.5549956,38.2038868 20.320417,38.8504083 C20.0896527,39.4950226 19.973317,40.208294 19.973317,40.9845012 C19.973317,41.7759655 20.0915599,42.4930512 20.3318599,43.1338512 C20.5702527,43.7746513 20.9116313,44.3200941 21.3579028,44.7701799 C21.8041742,45.2202656 22.3419885,45.5635513 22.9751599,45.800037 C23.6064242,46.0365227 24.3063457,46.1566727 25.0768314,46.1566727 C25.7347957,46.1566727 26.3450815,46.080387 26.9057815,45.9316299 C27.4645744,45.7790585 28.0462529,45.5406656 28.6508172,45.2145441 C28.860603,45.1001156 29.0322458,44.9818727 29.1657458,44.8598156 C29.2992458,44.7377584 29.3907887,44.598537 29.4422816,44.4459656 C29.4918673,44.2933941 29.5185673,44.091237 29.5185673,43.8356798 L29.5185673,41.9190012 C29.5185673,41.5719012 29.4575387,41.3144369 29.3354816,41.1408869 C29.2172387,40.969244 29.0589458,40.8567226 28.8625101,40.8071369 M26.7020986,8.27890738 L26.7020986,8.63172882 L20.8204699,8.63172882 L20.8204699,8.27890738 L20.8204699,4.81172157 L26.7020986,4.81172157 L26.7020986,8.27890738 Z M16.3730126,8.27890738 L16.3730126,8.63172882 L10.4913839,8.63172882 L10.4913839,8.27890738 L10.4913839,4.81172157 L16.3730126,4.81172157 L16.3730126,8.27890738 Z M30.857763,9.99152171 C30.857763,9.99152171 30.857763,9.98961457 30.857763,9.98961457 L30.857763,2.59180722 C30.857763,1.16717146 29.6905916,0 28.2659558,0 L8.92752668,0 C7.50098379,0 6.33571947,1.16717146 6.33571947,2.59180722 L6.33571947,9.64251456 L6.33571947,9.98961457 L6.33571947,14.9367433 L30.857763,14.9367433 L30.857763,9.99152171 Z M57.0489381,10.3308024 C54.7184094,6.32008089 50.4044522,3.8312594 45.785352,3.8312594 C41.1662519,3.8312594 36.8484803,6.32198804 34.5198588,10.3327096 C34.1899231,10.9010382 34.3825446,11.6314739 34.9527803,11.9595025 C35.1415874,12.0701168 35.3456517,12.1216096 35.549716,12.1216096 C35.9597517,12.1216096 36.3602518,11.9099168 36.5814803,11.5284882 C38.4867161,8.25010952 42.0111162,6.21518803 45.785352,6.21518803 C49.5557736,6.21518803 53.0839879,8.25010952 54.9892237,11.5303953 C55.3172523,12.0987239 56.0438737,12.2932525 56.6179238,11.9595025 C57.1862523,11.6314739 57.3807809,10.9010382 57.0489381,10.3308024" id="Fill-1"></path>
            </g>
        </g>
    </g>
</svg>