<svg width="133" height="24" viewBox="0 0 133 24" fill="none" xmlns="http://www.w3.org/2000/svg">
<g clip-path="url(#clip0_4201_144293)">
<path d="M14.7284 19.0131C14.7284 19.0131 15.5959 19.5906 16.3497 19.92C22.0764 22.4319 30.4495 23.9628 32.0778 23.4363C36.4847 22.0075 41.4158 12.6625 42.9675 8.35297C42.9675 8.35297 38.3379 10.1969 33.6411 12.3981C29.7166 14.2374 27.3345 15.418 26.2142 15.9839C26.0913 16.0326 26.0171 16.0628 25.9846 16.0767L26.1841 16.0001C25.6784 16.2553 25.4395 16.3805 25.4395 16.3805L38.825 12.3238L36.3664 13.08C36.3664 13.08 33.4346 19.9687 29.6215 20.7364C25.806 21.5042 19.0356 18.8229 19.0263 18.8206C19.5853 18.3915 26.6364 13.0985 43.3363 6.28403C43.3572 6.27708 43.3804 6.27012 43.4035 6.26316C43.9533 6.03817 44.7047 4.73929 44.7279 4.00171C44.7279 4.00171 38.8273 4.5375 33.6063 7.21413C26.583 10.568 14.7284 19.0131 14.7284 19.0131ZM31.15 21.5529C31.0386 21.5946 30.9273 21.6317 30.816 21.6619C30.9273 21.6317 31.0386 21.5946 31.15 21.5529ZM40.1192 7.30922C41.1467 6.94043 42.1696 6.61339 43.1902 6.32578C42.1696 6.62035 41.1444 6.94739 40.1192 7.30922Z" fill="#EA0029"/>
<path d="M25.9826 16.0745L25.9702 16.0791C25.9687 16.0791 25.9748 16.0776 25.9826 16.0745Z" fill="#EA0029"/>
<path d="M0 10.5891C0 10.5891 0.00463887 10.5984 0.00927774 10.6123C0.0069583 10.61 0 10.603 0 10.603C0 10.603 0.0069583 10.6123 0.0115972 10.6193C0.139166 10.9602 1.32672 14.0868 2.54442 15.6524C3.73893 17.1925 8.56335 18.394 9.24295 18.5564C9.29398 18.5796 9.32645 18.5912 9.32645 18.5912C9.31485 18.5842 9.30325 18.5749 9.29166 18.568C9.31253 18.5726 9.32645 18.5749 9.32645 18.5749C6.26015 16.4295 0 10.5891 0 10.5891Z" fill="#EA0029"/>
<path d="M13.3019 19.4887C12.8658 18.656 13.4063 17.5543 16.9689 14.9171C20.1883 12.5327 31.7831 2.78644 42.8747 0.167793C42.8747 0.167793 37.0598 -0.780857 28.7493 1.83315C25.7851 2.76324 21.4245 6.91039 13.4434 14.7269C12.3579 15.3323 8.46122 13.094 6.22296 12.0178C6.22296 12.0178 9.94565 17.9045 11.2469 19.6673C13.2694 22.4112 16.9063 23.9977 16.9063 23.9977C16.9063 23.9977 16.8947 23.9861 16.8738 23.9652C16.5723 23.6405 14.0882 20.9847 13.3019 19.4887Z" fill="#EA0029"/>
<path d="M84.822 4.24304H82.7925V10.1228H79.1138V4.24072H77.075V11.1364L84.822 11.1387V4.24304Z" fill="#EA0029"/>
<path d="M101.392 10.0973H96.4165V4.25464H94.3707V11.1132H100.464L101.392 10.0973Z" fill="#EA0029"/>
<path d="M104.258 4.25464H102.208V11.1364H104.258V4.25464Z" fill="#EA0029"/>
<path d="M127.11 5.26359L131.665 5.26127L132.602 4.25464H125.064V11.1109H127.11V7.74771H131.505L132.358 6.7318L127.11 6.72948V5.26359Z" fill="#EA0029"/>
<path d="M70.6845 8.90511H76.2V4.77651C76.1722 4.50514 76.0099 4.24304 75.7037 4.24304L68.6225 4.24072V11.09H70.6845V8.90511ZM70.6705 5.25432H73.9827C74.0314 5.25432 74.1636 5.25432 74.1636 5.55584V7.88687H70.6705V5.25432V5.25432Z" fill="#EA0029"/>
<path d="M93.2672 6.87328H92.6664V4.87393C92.6664 4.4889 92.4716 4.24072 92.1677 4.24072H85.7452V11.0923L93.2648 11.09L93.2672 6.87328ZM91.2168 10.0718H87.7933V7.87992H91.2168V10.0718ZM91.2168 6.86401H87.7933V5.25664H91.0359C91.2121 5.25664 91.2168 5.52337 91.2168 5.55352V6.86401Z" fill="#EA0029"/>
<path d="M62.071 10.0764V8.19536H67.2526V7.10986H62.071V5.25432H66.6681L67.698 4.24072H60.0299V11.09H67.698L66.6681 10.0764H62.071Z" fill="#EA0029"/>
<path d="M107.437 5.26579H112.032L113.064 4.24756H105.375L105.377 11.0899L112.046 11.0922L113.071 10.0763H107.437V5.26579Z" fill="#EA0029"/>
<path d="M102.071 15.9771L102.987 14.9519H95.1455V18.6978H100.803L100.8 20.7551H94.8926L96.1637 21.8198H102.862V17.6703H97.1982V15.9771H102.071Z" fill="#EA0029"/>
<path d="M66.7002 14.9567L59.4078 14.9543V21.8176H61.4837V18.8951H65.1461V21.8176H67.1965L67.1988 15.5876C67.1988 15.286 67.0086 14.9567 66.7002 14.9567ZM65.0951 17.8745H61.5139V15.9772H64.9095C65.0812 15.9772 65.0951 16.2068 65.0951 16.2764V17.8745Z" fill="#EA0029"/>
<path d="M79.7194 20.8178V18.9274H84.9289V17.8373H79.7194V15.9701H84.3398L85.3742 14.9519H77.6667V21.8406H85.3765L84.3398 20.8178H79.7194Z" fill="#EA0029"/>
<path d="M57.2946 16.0236L58.3778 14.952L50.276 14.9497L50.2737 21.8199H58.0878V18.074H56.0375V20.7924H52.3496V16.0236H57.2946Z" fill="#EA0029"/>
<path d="M68.3192 14.9519V21.8499H70.3812V17.9092L72.4246 19.2939L74.4657 17.9092V21.8499H76.5277V14.9519L72.4246 17.712L68.3192 14.9519Z" fill="#EA0029"/>
<path d="M93.9882 18.8765V15.5829C93.9882 15.2814 93.8003 14.9497 93.4942 14.9497H86.0998V21.8129H88.1803V15.9679L91.7894 15.9703C91.9587 15.9703 91.9726 16.1976 91.9726 16.2695V17.6124L88.5886 17.6101L92.2904 21.8176H94.7188L92.1396 18.8858L93.9882 18.8765Z" fill="#EA0029"/>
<path d="M58.8026 9.0859V4.87845C58.8026 4.57924 58.8165 4.23828 58.3944 4.23828H50.2764V9.03951L52.4195 11.3798V5.26347H56.3324C56.5876 5.26347 56.6479 5.36553 56.6479 5.61603V7.80789H53.1849L58.8165 13.7201V11.403L56.6803 9.08822H58.8026V9.0859Z" fill="#EA0029"/>
<path d="M123.371 4.24756H116.445V9.21116L118.115 11.1131H123.86V4.78567C123.86 4.51661 123.67 4.24756 123.371 4.24756ZM121.808 10.0856H119.632L118.495 8.77278V5.27275H121.808V10.0856Z" fill="#EA0029"/>
</g>
<defs>
<clipPath id="clip0_4201_144293">
<rect width="133" height="24" fill="white"/>
</clipPath>
</defs>
</svg>
