<?xml version="1.0" encoding="UTF-8"?>
<svg width="30px" height="30px" viewBox="0 0 30 30" version="1.1" xmlns="http://www.w3.org/2000/svg" xmlns:xlink="http://www.w3.org/1999/xlink">
    <g stroke="none" stroke-width="1" fill="none" fill-rule="evenodd">
        <g transform="translate(-77.000000, -489.000000)" fill="#00FFF6">
            <g transform="translate(35.000000, 489.000000)">
                <path d="M57,0.951 C49.251,0.951 42.949,7.254 42.949,14.999 C42.949,22.746 49.251,29.05 57,29.05 C64.747,29.05 71.049,22.746 71.049,14.999 C71.049,7.254 64.747,0.951 57,0.951 Z M57,30 C48.729,30 42,23.272 42,14.999 C42,6.729 48.729,0 57,0 C65.27,0 72,6.729 72,14.999 C72,23.272 65.27,30 57,30 Z M60.8,23 C61.018,23 61.207,22.852 61.263,22.639 L63.086,15.668 L65.519,15.668 C65.784,15.668 66,15.453 66,15.185 C66,14.921 65.784,14.704 65.519,14.704 L62.715,14.704 C62.495,14.704 62.304,14.851 62.25,15.064 L60.947,20.046 L59.085,6.419 C59.054,6.187 58.86,6.013 58.629,6.002 C58.364,5.98 58.188,6.149 58.14,6.378 L55.933,16.198 L54.276,10.862 C54.219,10.674 54.053,10.54 53.854,10.525 C53.66,10.508 53.471,10.618 53.384,10.797 L51.462,14.772 L48.483,14.772 C48.214,14.772 48,14.988 48,15.255 C48,15.52 48.214,15.737 48.483,15.737 L51.767,15.737 C51.949,15.737 52.118,15.631 52.198,15.464 L53.72,12.316 L55.548,18.207 C55.613,18.415 55.828,18.549 56.028,18.546 C56.246,18.536 56.429,18.383 56.479,18.169 L58.492,9.197 L60.319,22.583 C60.354,22.811 60.539,22.985 60.767,23 L60.8,23 Z" id="ic-breathing-active"></path>
            </g>
        </g>
    </g>
</svg>