<?xml version="1.0" encoding="UTF-8"?>
<svg width="30px" height="30px" viewBox="0 0 30 30" version="1.1" xmlns="http://www.w3.org/2000/svg" xmlns:xlink="http://www.w3.org/1999/xlink">
    <g stroke="none" stroke-width="1" fill="none" fill-rule="evenodd">
        <g transform="translate(-76.000000, -489.000000)" fill="#00FFF6">
            <g transform="translate(35.000000, 489.000000)">
                <path d="M56.0009837,0 C64.2697226,0 71,6.72929372 71,14.9990163 C71,23.2716899 64.2697226,29.9990163 56.0009837,29.9990163 C47.7302774,29.9990163 41,23.2716899 41,14.9990163 C41,6.72929372 47.7302774,0 56.0009837,0 Z M56.0009837,29.0487901 C63.7473933,29.0487901 70.0468227,22.7454259 70.0468227,14.9990163 C70.0468227,7.2535904 63.7473933,0.951209915 56.0009837,0.951209915 C48.2526067,0.951209915 41.9531773,7.2535904 41.9531773,14.9990163 C41.9531773,22.7454259 48.2526067,29.0487901 56.0009837,29.0487901 Z M56.3717293,8.92199488 C52.9652764,8.92199488 50.1932914,11.6939799 50.1932914,15.1004328 C50.1932914,15.3650403 49.9798347,15.5765296 49.7162109,15.5765296 C49.4555381,15.5765296 49.2420814,15.3650403 49.2420814,15.1004328 C49.2420814,11.1696833 52.4390124,7.97176864 56.3717293,7.97176864 C58.4413732,7.97176864 60.3969113,8.89641944 61.7396223,10.4309463 L61.7396223,8.85313791 C61.7396223,8.5885304 61.9530789,8.37704112 62.2137517,8.37704112 C62.4773756,8.37704112 62.6908322,8.5885304 62.6908322,8.85313791 L62.6908322,11.8238245 C62.6908322,12.0874484 62.4773756,12.2999213 62.2137517,12.2999213 L59.3788117,12.2999213 C59.1151879,12.2999213 58.9036986,12.0874484 58.9036986,11.8238245 C58.9036986,11.5611843 59.1151879,11.3487114 59.3788117,11.3487114 L61.2763132,11.3487114 C60.1145977,9.83877631 58.2967736,8.92199488 56.3717293,8.92199488 Z M63.2286052,14.4561283 C63.4941963,14.4561283 63.7027346,14.6705686 63.7027346,14.9312414 C63.7027346,18.8629746 60.5058037,22.0608892 56.5730868,22.0608892 C54.5024592,22.0608892 52.5479048,21.1352548 51.2051938,19.5997442 L51.2051938,21.1814873 C51.2051938,21.4421601 50.9937045,21.6556168 50.7310643,21.6556168 C50.4694078,21.6556168 50.2559512,21.4421601 50.2559512,21.1814873 L50.2559512,18.206866 C50.2559512,17.9461932 50.4694078,17.7317529 50.7310643,17.7317529 L53.5689553,17.7317529 C53.8296282,17.7317529 54.0450521,17.9461932 54.0450521,18.206866 C54.0450521,18.4704899 53.8296282,18.6829628 53.5689553,18.6829628 L51.6714539,18.6829628 C52.8321857,20.1938816 54.6470588,21.110663 56.5730868,21.110663 C59.981507,21.110663 62.7525084,18.3386779 62.7525084,14.9312414 C62.7525084,14.6705686 62.9669487,14.4561283 63.2286052,14.4561283 Z" id="ic-cycle-active"></path>
            </g>
        </g>
    </g>
</svg>