<?xml version="1.0" encoding="UTF-8"?>
<svg width="30px" height="30px" viewBox="0 0 30 30" version="1.1" xmlns="http://www.w3.org/2000/svg" xmlns:xlink="http://www.w3.org/1999/xlink">
    <g stroke="none" stroke-width="1" fill="none" fill-rule="evenodd">
        <g transform="translate(-158.000000, -442.000000)" fill="#6A6969">
            <g transform="translate(35.000000, 442.000000)">
                <path d="M138.000492,0.951241106 C130.253828,0.951241106 123.951241,7.25284454 123.951241,14.9995081 C123.951241,22.7461718 130.253828,29.0497426 138.000492,29.0497426 C145.747155,29.0497426 152.048759,22.7461718 152.048759,14.9995081 C152.048759,7.25284454 145.747155,0.951241106 138.000492,0.951241106 M138.000492,30 C129.729514,30 123,23.272453 123,14.9995081 C123,6.72951438 129.729514,0 138.000492,0 C146.269502,0 153,6.72951438 153,14.9995081 C153,23.272453 146.269502,30 138.000492,30 M141.283995,13.7662393 C141.170869,13.9777355 141.230875,14.2403843 141.426632,14.3781028 C141.624356,14.5177886 141.889956,14.4902449 142.052267,14.3131783 C142.384759,13.9531429 143.047775,13.6186838 143.709808,13.3530839 C142.544119,15.0529232 141.368594,17.5662852 141.198413,17.9381251 C140.657376,19.108732 139.740565,20.5793685 139.13362,21.5109355 C139.259534,20.7564351 139.287077,20.1475227 139.289045,20.1071909 C139.402171,18.8628062 140.721317,16.4645375 141.220054,15.6451126 C141.33318,15.4621438 141.30662,15.2250713 141.157097,15.0686625 C141.008558,14.9142211 140.774437,14.8797915 140.584582,14.9811129 L140.080926,15.2595009 C140.329803,14.5128701 140.696724,13.5586779 140.958389,12.9104174 C141.051841,12.683182 140.954455,12.4234843 140.735089,12.3093747 C140.520641,12.1972325 140.250123,12.2680592 140.116339,12.4766043 C139.490704,13.4563728 138.792275,14.1095518 138.308293,14.4882775 C138.321081,14.2669443 138.349608,14.0180674 138.393875,13.7819786 C138.438141,13.5399875 138.29157,13.3038987 138.054497,13.2370069 C137.814474,13.1691314 137.567564,13.2970128 137.480998,13.5281831 C137.474112,13.5449061 136.826835,15.2172017 135.3139,15.3667246 C135.232252,15.3706594 134.169853,15.431649 133.022855,15.9431747 C135.038463,13.4248943 138.172542,11.0699085 139.92255,9.85208381 L139.264452,11.4378136 C139.170017,11.6640653 139.262485,11.9247467 139.480867,12.03984 C139.693347,12.155917 139.962882,12.0880414 140.098633,11.8844149 C140.549169,11.2066433 142.482146,9.83831197 144.168213,8.72869463 C142.989737,10.600682 141.652884,13.0746959 141.283995,13.7662393 M132.66577,23.3199659 C130.708201,21.7735843 131.066269,19.7274814 131.331869,18.8677247 C132.294914,16.4950323 135.323737,16.3199331 135.381775,16.3150146 C136.28088,16.2254976 136.946847,15.7926681 137.418041,15.3145883 C137.44165,15.3942683 137.467226,15.4690297 137.499688,15.5359216 C137.557727,15.6510149 137.658065,15.736597 137.781028,15.7769289 C137.902023,15.816277 138.032856,15.8054563 138.148933,15.7454504 C138.180411,15.7277437 138.59455,15.5064105 139.158212,15.0234121 C139.003771,15.494606 138.883759,15.9175985 138.86015,16.1654917 C138.843427,16.3405909 138.923107,16.512739 139.071646,16.6101256 C139.217234,16.7075122 139.408073,16.7153818 139.561531,16.6288159 L139.594977,16.6101256 C139.054923,17.6607207 138.429288,19.0575794 138.340755,20.0452176 C138.314195,20.6875758 138.119422,22.4887366 137.545923,23.3239007 C135.246024,24.9096305 132.751353,23.3721022 132.66577,23.3199659 M146.471063,6.69636358 C146.332361,6.47994885 146.047087,6.41502443 145.827721,6.54979178 C145.423419,6.7927665 142.800866,8.40013772 140.970194,9.80880087 L141.403023,8.76705905 C141.479752,8.57720432 141.4286,8.35587107 141.270223,8.22110372 C141.110863,8.08830377 140.884612,8.07256451 140.71148,8.18175558 C140.376037,8.39030069 132.483785,13.356035 130.606879,18.0866643 C130.603928,18.0935502 130.534085,18.2529101 130.452438,18.5126078 C130.434731,18.5568744 130.412106,18.5962226 130.395383,18.6424566 C130.372758,18.7014788 130.364888,18.7614847 130.366856,18.8205069 C130.072728,19.9871791 129.860249,22.3156048 132.11588,24.0931567 C132.138505,24.1098797 133.519625,24.9706201 135.275535,24.9706201 C136.146113,24.9706201 137.107191,24.7483031 138.040725,24.118733 C138.118438,24.0911893 138.187297,24.0488901 138.243368,23.9829819 C138.595534,23.7203331 138.942781,23.3996459 139.279208,23.001246 C139.355937,22.8910713 141.164967,20.2773715 142.062104,18.3384923 C142.665115,17.0301669 144.452504,13.4770305 145.462767,12.7471227 C145.648687,12.613339 145.711644,12.3654458 145.615241,12.1598518 C145.518838,11.9532741 145.289635,11.8421156 145.065351,11.9011378 C144.898121,11.9444208 143.941962,12.1982162 142.993672,12.6192412 C144.306915,10.2652392 145.860183,7.6820343 146.343181,7.34560776 C146.554678,7.19903597 146.612716,6.9108109 146.471063,6.69636358" id="ic-comet"></path>
            </g>
        </g>
    </g>
</svg>