<?xml version="1.0" encoding="UTF-8"?>
<svg width="30px" height="30px" viewBox="0 0 30 30" version="1.1" xmlns="http://www.w3.org/2000/svg" xmlns:xlink="http://www.w3.org/1999/xlink">
    <g stroke="none" stroke-width="1" fill="none" fill-rule="evenodd">
        <g transform="translate(-158.000000, -489.000000)" fill="#00FFF6">
            <g transform="translate(35.000000, 489.000000)">
                <path d="M138,0 C129.729735,0 123,6.72875131 123,15 C123,23.2722324 129.729735,30 138,30 C146.270265,30 153,23.2722324 153,15 C153,6.72875131 146.270265,0 138,0 M138,29.0487277 C130.253082,29.0487277 123.950289,22.7469176 123.950289,15 C123.950289,7.25308237 130.253082,0.951272298 138,0.951272298 C145.746918,0.951272298 152.048728,7.25308237 152.048728,15 C152.048728,22.7469176 145.746918,29.0487277 138,29.0487277 Z M140.433368,17.991048 L140.433368,12.6355916 C140.433368,12.3729342 140.221865,12.1594635 139.958224,12.1594635 C139.695567,12.1594635 139.482096,12.3729342 139.482096,12.6355916 L139.482096,18.0854866 C139.482096,18.162218 139.504722,18.233047 139.538169,18.2969898 C139.54899,18.4366802 139.613917,18.5704683 139.738851,18.6540858 C140.508132,19.1744819 140.969504,20.0382017 140.969504,20.9678318 C140.969504,22.5063943 139.718193,23.7577059 138.17963,23.7577059 C136.642051,23.7577059 135.39074,22.5063943 135.39074,20.9678318 C135.39074,20.1601849 135.741933,19.4164808 136.344963,18.8862474 C136.518101,18.8193534 136.641068,18.6560533 136.647954,18.4602899 C136.649921,18.4475013 136.649921,18.433729 136.650905,18.4199567 L136.650905,16.421006 L137.864835,16.421006 C138.125525,16.421006 138.339979,16.2095029 138.339979,15.9458618 C138.339979,15.6832044 138.125525,15.4717012 137.864835,15.4717012 L136.650905,15.4717012 L136.650905,14.192845 L137.864835,14.192845 C138.125525,14.192845 138.339979,13.9793743 138.339979,13.7157332 C138.339979,13.4540595 138.125525,13.2405889 137.864835,13.2405889 L136.650905,13.2405889 L136.650905,11.9400905 L137.864835,11.9400905 C138.125525,11.9400905 138.339979,11.7276036 138.339979,11.4639625 C138.339979,11.2013051 138.125525,10.9888182 137.864835,10.9888182 L136.650905,10.9888182 L136.650905,9.25842733 C136.650905,8.46553646 137.287382,7.81922219 138.067484,7.81922219 C138.847587,7.81922219 139.482096,8.46553646 139.482096,9.25842733 L139.482096,10.2470816 C139.482096,10.5107227 139.695567,10.7232096 139.958224,10.7232096 C140.221865,10.7232096 140.433368,10.5107227 140.433368,10.2470816 L140.433368,9.25842733 C140.433368,7.93923793 139.371918,6.86893363 138.067484,6.86893363 C136.761083,6.86893363 135.699633,7.93923793 135.699633,9.25842733 L135.699633,18.1927138 C134.905758,18.9039546 134.439467,19.8916251 134.439467,20.9678318 C134.439467,23.0307253 136.116737,24.7089782 138.17963,24.7089782 C140.242524,24.7089782 141.920776,23.0307253 141.920776,20.9678318 C141.920776,19.7912841 141.36595,18.6973701 140.433368,17.991048 Z M136.635756,21.0691566 C136.635756,21.897462 137.306663,22.5673859 138.133001,22.5673859 C138.961306,22.5673859 139.632214,21.897462 139.632214,21.0691566 C139.632214,20.241835 138.961306,19.5719111 138.133001,19.5719111 C137.306663,19.5719111 136.635756,20.241835 136.635756,21.0691566 Z" id="ic-smart-active"></path>
            </g>
        </g>
    </g>
</svg>