<?xml version="1.0" encoding="UTF-8"?>
<svg width="30px" height="30px" viewBox="0 0 30 30" version="1.1" xmlns="http://www.w3.org/2000/svg" xmlns:xlink="http://www.w3.org/1999/xlink">
    <g stroke="none" stroke-width="1" fill="none" fill-rule="evenodd">
        <g transform="translate(-517.000000, -489.000000)" fill="#00FFF6">
            <g transform="translate(35.000000, 489.000000)">
                <g transform="translate(1.000000, 1.000000)">
                    <path d="M495.272809,21.4563817 C494.310991,21.713591 493.327437,21.3504187 492.74781,20.6141117 L497.037953,19.463915 C496.903914,20.3922234 496.234627,21.1991724 495.272809,21.4563817 Z M493.02585,7.37507632 C493.477777,7.25462265 493.935139,7.43485032 494.197782,7.78987165 C494.278387,7.89855165 494.343595,8.01991098 494.380727,8.15757232 C494.417859,8.29704499 494.423293,8.43742332 494.406991,8.57327332 C494.354463,9.00889899 494.047442,9.39109032 493.599137,9.51154399 C493.149926,9.63199766 492.69347,9.45448699 492.429921,9.10308832 C492.348411,8.99350265 492.282297,8.86942632 492.244259,8.72995365 C492.207127,8.59229232 492.203504,8.45372532 492.218901,8.32059232 C492.268712,7.88224965 492.574828,7.49643565 493.02585,7.37507632 Z M501.127038,15.5124913 L500.517524,13.2401737 C500.468618,13.2401737 500.425146,13.2401737 500.374429,13.2401737 C500.196013,13.4204013 500.014879,13.597912 499.834652,13.7754227 L500.35541,15.7189833 C500.415184,15.942683 500.416995,15.950834 501.962063,17.317485 L497.776977,18.439606 L497.004443,18.646098 L492.36743,19.8886727 L491.595802,20.0951647 L490.259038,20.4538087 C490.913835,18.4975687 490.911118,18.4894177 490.851344,18.265718 L489.912168,14.758071 C489.37239,12.747491 490.170283,10.6916277 491.753388,9.52512899 C492.19807,10.166341 493.007736,10.4969093 493.805629,10.283172 C494.603521,10.0694347 495.13877,9.37841099 495.203978,8.60044332 C495.642321,8.64934932 496.066173,8.76527465 496.471006,8.92557765 C496.471911,8.64391532 496.469194,8.36315865 496.471006,8.08149632 C496.026323,7.93296698 495.566245,7.82338132 495.09077,7.78715465 C494.753862,6.87424265 493.778459,6.34714465 492.819358,6.60344831 C491.861162,6.86065765 491.279724,7.80526798 491.444556,8.76436899 C489.492844,10.095699 488.493894,12.554584 489.139634,14.9654687 L490.079716,18.47221 L489.423108,20.4347897 C489.254654,20.9383404 489.713827,21.4264947 490.226434,21.289739 L491.940861,20.8296604 C492.67264,21.9889137 494.08548,22.6011444 495.479301,22.2280097 C496.873122,21.854875 497.790562,20.6177344 497.844902,19.2483663 L502.408556,18.0257163 C502.921164,17.888055 503.074221,17.2350693 502.676634,16.8836707 L501.127038,15.5124913 Z M503.383054,11.826428 C502.738219,11.826428 502.192102,11.8273337 501.642362,11.8273337 C501.163265,11.8273337 500.67511,11.826428 500.122654,11.8246167 C500.085521,11.8246167 500.052917,11.8246167 500.013974,11.8246167 L500.010351,11.8246167 C499.846425,11.8246167 499.722349,11.8680887 499.607329,11.9876367 C499.542121,12.0555617 499.473291,12.119864 499.406271,12.1868833 C499.240534,12.3517147 499.073892,12.5156403 498.906343,12.679566 C498.866494,12.7185097 498.823022,12.7538307 498.738795,12.829001 C498.738795,12.5917163 498.737889,12.402432 498.739701,12.2131477 C498.742418,11.9034097 498.669964,11.829145 498.361132,11.8282393 C497.961733,11.826428 497.890185,11.7548803 497.890185,11.356387 L497.890185,9.78233832 C497.890185,9.45086432 497.890185,9.11939032 497.890185,8.78791632 L497.890185,8.02081665 C497.890185,7.69387098 497.978035,7.60873832 498.308603,7.60873832 L498.309509,7.60873832 C500.116314,7.60873832 501.553607,7.60964398 503.361318,7.60964398 C503.709999,7.60964398 503.790604,7.68934265 503.790604,8.02896765 C503.790604,9.15833399 503.790604,10.2877003 503.791509,11.416161 C503.791509,11.7304273 503.696414,11.826428 503.383054,11.826428 M503.411129,7.07167798 C503.0389,7.07167798 502.727351,7.07167798 502.427575,7.07167798 C501.990138,7.07167798 501.577154,7.07167798 501.03466,7.07167798 C500.482203,7.07167798 499.929747,7.07167798 499.37729,7.07167798 C498.984231,7.07167798 498.591171,7.07167798 498.198112,7.07348932 C497.715392,7.07530065 497.362182,7.40677465 497.358559,7.88134398 C497.357653,8.07425098 497.359465,8.26806365 497.358559,8.46097065 C497.356748,8.76889732 497.358559,9.07682399 497.358559,9.38475066 C497.357653,10.1002273 497.354031,10.815704 497.357653,11.5311807 C497.36037,11.9631837 497.620297,12.258431 498.046866,12.3354127 C498.17547,12.35896 498.20898,12.410583 498.206263,12.5310367 C498.198112,12.8108877 498.205357,13.089833 498.203546,13.369684 C498.20264,13.5127793 498.197206,13.6594973 498.358415,13.7274223 C498.400076,13.74463 498.437208,13.7518753 498.472529,13.7518753 C498.585737,13.7518753 498.674493,13.6757993 498.761437,13.5888553 C499.029514,13.3198723 499.300308,13.0536063 499.569291,12.7864347 C499.665292,12.6895283 499.76401,12.595339 499.859105,12.497527 C499.962351,12.3924697 500.068314,12.3517147 500.21322,12.3517147 L500.215937,12.3517147 C500.238579,12.3517147 500.256692,12.3517147 500.279334,12.3517147 C500.877074,12.353526 501.386059,12.3544317 501.895949,12.3544317 C502.363273,12.3544317 502.836031,12.3544317 503.390299,12.353526 C504.000718,12.3526203 504.324041,12.043788 504.326758,11.443331 C504.331287,10.2849833 504.331287,9.12663565 504.327664,7.96828798 C504.325853,7.39318965 503.992567,7.07167798 503.411129,7.07167798 M499.298769,9.29128585 L500.725194,9.29128585 C500.89727,9.29128585 501.035837,9.15271885 501.035837,8.98064219 C501.035837,8.80947119 500.89727,8.67090419 500.725194,8.67090419 L499.298769,8.67090419 C499.126692,8.67090419 498.988125,8.80947119 498.988125,8.98064219 C498.988125,9.15271885 499.126692,9.29128585 499.298769,9.29128585 M501.702499,10.0567553 L499.298859,10.0567553 C499.274406,10.0567553 499.25267,10.0649063 499.230029,10.0703403 C499.093273,10.1020387 498.988216,10.2197753 498.988216,10.367399 C498.988216,10.53857 499.126783,10.677137 499.298859,10.677137 L499.626711,10.677137 L501.702499,10.677137 C501.874575,10.677137 502.013142,10.53857 502.013142,10.367399 C502.013142,10.1953223 501.874575,10.0567553 501.702499,10.0567553 M509.617029,15.7555723 L504.340615,24.893749 C503.710271,25.985983 502.535621,26.6643273 501.274028,26.6643273 L490.722105,26.6643273 C489.461417,26.6643273 488.285862,25.985983 487.655518,24.893749 L482.38001,15.7555723 C481.74876,14.6633383 481.74876,13.3066496 482.38001,12.2144156 L487.655518,3.0762389 C488.285862,1.9840049 489.461417,1.30566057 490.722105,1.30566057 L501.274028,1.30566057 C502.535621,1.30566057 503.710271,1.9840049 504.340615,3.0762389 L509.617029,12.2144156 C510.247373,13.3066496 510.247373,14.6633383 509.617029,15.7555723 M510.401336,11.7615823 L505.124922,2.62340557 C504.330653,1.2476979 502.863473,0.399993896 501.274028,0.399993896 L490.722105,0.399993896 C489.133566,0.399993896 487.66548,1.2476979 486.871211,2.62340557 L481.595702,11.7615823 C480.801433,13.1372899 480.801433,14.8326979 481.595702,16.2084056 L486.871211,25.3465823 C487.66548,26.72229 489.133566,27.569994 490.722105,27.569994 L501.274028,27.569994 C502.863473,27.569994 504.330653,26.72229 505.124922,25.3465823 L510.401336,16.2084056 C511.195606,14.8326979 511.195606,13.1372899 510.401336,11.7615823" id="ic-event-trigger-active"></path>
                </g>
            </g>
        </g>
    </g>
</svg>