<?xml version="1.0" encoding="UTF-8"?>
<svg width="30px" height="30px" viewBox="0 0 30 30" version="1.1" xmlns="http://www.w3.org/2000/svg" xmlns:xlink="http://www.w3.org/1999/xlink">
    <g stroke="none" stroke-width="1" fill="none" fill-rule="evenodd">
        <g transform="translate(-517.000000, -442.000000)">
            <g transform="translate(35.000000, 442.000000)">
                <g transform="translate(1.000000, 1.000000)" fill="#6A6969">
                    <path d="M495.274218,21.4584605 C494.312305,21.7156952 493.328654,21.352487 492.74897,20.6161073 L497.039536,19.4657971 C496.905484,20.3941971 496.236131,21.2012257 495.274218,21.4584605 Z M493.027037,7.37576492 C493.479009,7.25529936 493.936416,7.43554482 494.199085,7.79060121 C494.279697,7.89929194 494.344912,8.02066325 494.382048,8.15833817 C494.419184,8.29782461 494.424618,8.4382168 494.408315,8.57408022 C494.355781,9.00974889 494.04873,9.39197796 493.60038,9.51244351 C493.151125,9.63290907 492.694624,9.45538088 492.431049,9.10394752 C492.349531,8.99435104 492.283411,8.87026245 492.245369,8.73077602 C492.208233,8.59310109 492.20461,8.45452041 492.220008,8.32137427 C492.269825,7.88298833 492.57597,7.49713624 493.027037,7.37576492 Z M501.129025,15.5139833 L500.519451,13.2414413 C500.47054,13.2414413 500.427064,13.2414413 500.376342,13.2414413 C500.197908,13.4216868 500.016756,13.5992149 499.836511,13.7767431 L500.357321,15.7204957 C500.417101,15.9442174 500.418912,15.9523692 501.964132,17.3191552 L497.778633,18.4413869 L497.006023,18.6478993 L492.368552,19.8905967 L491.596848,20.0971091 L490.259952,20.4557885 C490.914814,18.4993553 490.912096,18.4912035 490.852316,18.2674818 L489.913047,14.7594885 C489.373217,12.74871 490.171188,10.6926437 491.75445,9.52602986 C492.199176,10.1673052 493.008922,10.4979061 493.806893,10.2841477 C494.604864,10.0703893 495.140166,9.37929737 495.20538,8.6012529 C495.643766,8.65016373 496.06766,8.7661005 496.472533,8.92641933 C496.473439,8.64472919 496.470721,8.3639448 496.472533,8.08225466 C496.027807,7.93371067 495.567683,7.82411418 495.092161,7.78788394 C494.755219,6.87488181 493.77972,6.34773177 492.820524,6.60406074 C491.862235,6.86129547 491.280739,7.80599906 491.445587,8.76519475 C489.493682,10.0966562 488.494633,12.5557839 489.140437,14.9669066 L490.080612,18.4739942 L489.423939,20.4367676 C489.255469,20.940368 489.714687,21.4285705 490.227345,21.2918013 L491.941941,20.8316772 C492.673792,21.991045 494.086771,22.6033361 495.48073,22.2301646 C496.874689,21.8569931 497.79222,20.6197303 497.846565,19.2502271 L502.41067,18.0274564 C502.923328,17.8897815 503.076401,17.2367314 502.678774,16.885298 L501.129025,15.5139833 Z M503.385263,11.8275561 C502.740365,11.8275561 502.194194,11.8284618 501.6444,11.8284618 C501.165255,11.8284618 500.677053,11.8275561 500.124541,11.8257445 C500.087405,11.8257445 500.054798,11.8257445 500.015851,11.8257445 L500.012228,11.8257445 C499.848286,11.8257445 499.724197,11.8692208 499.609166,11.9887806 C499.543952,12.0567123 499.475114,12.121021 499.408088,12.188047 C499.242335,12.3528946 499.075676,12.5168364 498.908111,12.6807783 C498.868258,12.7197258 498.824781,12.7550503 498.740546,12.830228 C498.740546,12.5929199 498.73964,12.4036169 498.741452,12.2143139 C498.744169,11.9045453 498.671709,11.8302733 498.362846,11.8293676 C497.963407,11.8275561 497.891853,11.7560013 497.891853,11.3574686 L497.891853,9.78326458 C497.891853,9.45175786 497.891853,9.12025113 497.891853,8.78874441 L497.891853,8.02156901 C497.891853,7.69459106 497.979711,7.60944999 498.310312,7.60944999 L498.311218,7.60944999 C500.118201,7.60944999 501.555636,7.61035575 503.363525,7.61035575 C503.712241,7.61035575 503.792854,7.69006228 503.792854,8.02972081 C503.792854,9.15919864 503.792854,10.2886765 503.793759,11.4172485 C503.793759,11.7315459 503.698655,11.8275561 503.385263,11.8275561 M503.413342,7.07233663 C503.041076,7.07233663 502.729496,7.07233663 502.429691,7.07233663 C501.99221,7.07233663 501.579186,7.07233663 501.036638,7.07233663 C500.484127,7.07233663 499.931615,7.07233663 499.379104,7.07233663 C498.986006,7.07233663 498.592908,7.07233663 498.19981,7.07414815 C497.717042,7.07595966 497.363797,7.40746638 497.360174,7.88208257 C497.359268,8.07500862 497.36108,8.26884042 497.360174,8.46176646 C497.358362,8.76972353 497.360174,9.0776806 497.360174,9.38563766 C497.359268,10.101185 497.355645,10.8167323 497.359268,11.5322796 C497.361985,11.9643252 497.621937,12.2596017 498.048549,12.336591 C498.177166,12.3601406 498.210679,12.4117687 498.207962,12.5322343 C498.19981,12.8121129 498.207056,13.0910858 498.205244,13.3709644 C498.204339,13.5140739 498.198904,13.6608064 498.360129,13.7287381 C498.401793,13.7459474 498.438929,13.7531935 498.474254,13.7531935 C498.587473,13.7531935 498.676237,13.67711 498.76319,13.5901574 C499.031294,13.3211478 499.302115,13.0548555 499.571124,12.7876575 C499.667135,12.6907416 499.765862,12.596543 499.860966,12.4987213 C499.964223,12.3936536 500.070196,12.3528946 500.215117,12.3528946 L500.217834,12.3528946 C500.240478,12.3528946 500.258593,12.3528946 500.281237,12.3528946 C500.879036,12.3547061 501.388071,12.3556118 501.898012,12.3556118 C502.365382,12.3556118 502.838187,12.3556118 503.392509,12.3547061 C504.002989,12.3538003 504.326344,12.0449375 504.329061,11.4444212 C504.33359,10.2859592 504.33359,9.12749718 504.329967,7.96903515 C504.328155,7.39388004 503.994837,7.07233663 503.413342,7.07233663 M499.300575,9.29216364 L500.727141,9.29216364 C500.899235,9.29216364 501.037815,9.15358295 501.037815,8.9814893 C501.037815,8.8103014 500.899235,8.67172072 500.727141,8.67172072 L499.300575,8.67172072 C499.128481,8.67172072 498.989901,8.8103014 498.989901,8.9814893 C498.989901,9.15358295 499.128481,9.29216364 499.300575,9.29216364 M501.704542,10.0577087 L499.300666,10.0577087 C499.27621,10.0577087 499.254472,10.0658605 499.231828,10.071295 C499.095059,10.1029965 498.989991,10.2207448 498.989991,10.368383 C498.989991,10.5395709 499.128572,10.6781516 499.300666,10.6781516 L499.628549,10.6781516 L501.704542,10.6781516 C501.876636,10.6781516 502.015217,10.5395709 502.015217,10.368383 C502.015217,10.1962894 501.876636,10.0577087 501.704542,10.0577087 M509.619854,15.7570882 L504.342919,24.8961671 C503.712513,25.9885089 502.537747,26.6669202 501.276029,26.6669202 L490.723065,26.6669202 C489.462253,26.6669202 488.286581,25.9885089 487.656175,24.8961671 L482.380146,15.7570882 C481.748834,14.6647464 481.748834,13.3079238 482.380146,12.215582 L487.656175,3.07650311 C488.286581,1.98416128 489.462253,1.30574998 490.723065,1.30574998 L501.276029,1.30574998 C502.537747,1.30574998 503.712513,1.98416128 504.342919,3.07650311 L509.619854,12.215582 C510.25026,13.3079238 510.25026,14.6647464 509.619854,15.7570882 M510.404239,11.7627039 L505.127304,2.62362507 C504.332956,1.24778159 502.865631,0.399993896 501.276029,0.399993896 L490.723065,0.399993896 C489.134369,0.399993896 487.666138,1.24778159 486.87179,2.62362507 L481.595761,11.7627039 C480.801413,13.1385474 480.801413,14.8341228 481.595761,16.2099663 L486.87179,25.3490451 C487.666138,26.7248886 489.134369,27.5726763 490.723065,27.5726763 L501.276029,27.5726763 C502.865631,27.5726763 504.332956,26.7248886 505.127304,25.3490451 L510.404239,16.2099663 C511.198587,14.8341228 511.198587,13.1385474 510.404239,11.7627039" id="ic-event-trigger"></path>
                </g>
                <g></g>
            </g>
        </g>
    </g>
</svg>