<?xml version="1.0" encoding="UTF-8"?>
<svg width="30px" height="30px" viewBox="0 0 30 30" version="1.1" xmlns="http://www.w3.org/2000/svg" xmlns:xlink="http://www.w3.org/1999/xlink">
    <g stroke="none" stroke-width="1" fill="none" fill-rule="evenodd">
        <g transform="translate(-198.000000, -489.000000)" fill="#00FFF6">
            <g transform="translate(35.000000, 489.000000)">
                <path d="M178,0.950322581 C170.252258,0.950322581 163.950323,7.25322581 163.950323,15.0009677 C163.950323,22.7458065 170.252258,29.0496774 178,29.0496774 C185.746774,29.0496774 192.049677,22.7458065 192.049677,15.0009677 C192.049677,7.25322581 185.746774,0.950322581 178,0.950322581 M178,30 C169.729677,30 163,23.2722581 163,15.0009677 C163,6.72870968 169.729677,0 178,0 C186.27129,0 193,6.72870968 193,15.0009677 C193,23.2722581 186.27129,30 178,30 M177.754194,17.0041935 C177.673871,17.0041935 177.592581,17.0245161 177.518065,17.066129 L174.677742,18.7374194 L175.753871,7.73612903 L180.206452,7.73612903 L178.182903,14.5345161 C178.135484,14.7048387 178.178065,14.8877419 178.301935,15.0135484 C178.425806,15.1403226 178.604839,15.1858065 178.770323,15.1345161 L182.859032,13.8948387 L178.145161,22.7332258 L178.225484,17.4929032 C178.227419,17.3196774 178.139355,17.1590323 177.994194,17.0680645 C177.920645,17.0254839 177.838387,17.0041935 177.754194,17.0041935 M177.644839,25.1612903 C177.814194,25.1612903 177.974839,25.0674194 178.058065,24.9087097 L184.234194,13.3316129 C184.323226,13.1583871 184.305806,12.9474194 184.186774,12.7974194 C184.063871,12.6454839 183.865484,12.5845161 183.683548,12.6396774 L179.34129,13.9577419 L181.294194,7.39451613 C181.334839,7.24741935 181.310645,7.08967742 181.220645,6.96774194 C181.131613,6.84677419 180.99129,6.77419355 180.843226,6.77419355 L175.329032,6.77419355 C175.085161,6.77419355 174.881935,6.96 174.857742,7.20677419 L173.648065,19.5725806 C173.62871,19.7535484 173.711935,19.9277419 173.859032,20.0245161 C174.01,20.1232258 174.196774,20.126129 174.350645,20.04 L177.269355,18.326129 L177.173548,24.6716129 C177.16871,24.8932258 177.314839,25.0877419 177.524839,25.1429032 C177.564516,25.1564516 177.605161,25.1612903 177.644839,25.1612903" id="ic-flashes-active"></path>
            </g>
        </g>
    </g>
</svg>