<?xml version="1.0" encoding="UTF-8"?>
<svg width="30px" height="30px" viewBox="0 0 30 30" version="1.1" xmlns="http://www.w3.org/2000/svg" xmlns:xlink="http://www.w3.org/1999/xlink">
    <g stroke="none" stroke-width="1" fill="none" fill-rule="evenodd">
        <g transform="translate(-237.000000, -442.000000)" fill="#6A6969">
            <g transform="translate(35.000000, 442.000000)">
                <path d="M210.390989,15.444318 C210.390989,19.8454067 212.881726,23.5883978 216.340427,24.9714846 C211.646195,24.3340449 208.013378,20.3106983 208.013378,15.444318 C208.013378,10.5779377 211.646195,6.55459118 216.340427,5.91715143 C212.881726,7.30023829 210.390989,11.0432294 210.390989,15.444318 M220.667738,24.5740685 C220.212283,24.6665366 219.745024,24.7157218 219.277765,24.7157218 C214.838312,24.7157218 211.227137,20.5556405 211.227137,15.444318 C211.227137,10.3329956 214.838312,6.17291429 219.277765,6.17291429 C219.61911,6.17291429 219.963406,6.19849058 220.300816,6.24767575 C220.350985,6.25554537 220.401154,6.25062686 220.448372,6.23980612 C224.389087,7.44484268 227.264452,11.114056 227.264452,15.444318 C227.264452,19.6929327 224.494344,23.3011564 220.667738,24.5740685 M217.000492,29.0568045 C209.253828,29.0568045 202.951241,22.75225 202.951241,15.0065701 C202.951241,7.35139087 209.109224,1.11667925 216.730957,0.971091164 L213.293898,5.82665073 C213.262419,5.87091738 213.241761,5.92010254 213.229957,5.97027141 C209.662065,7.63863223 207.177231,11.2517745 207.177231,15.444318 C207.177231,21.2127543 211.870479,25.9060028 217.638915,25.9060028 C218.76919,25.9060028 219.855199,25.7200829 220.875299,25.3875911 C220.88612,25.38464 220.896941,25.38464 220.907761,25.3826726 C220.945142,25.3738193 220.976621,25.3551289 221.009083,25.338406 C225.126865,23.9307265 228.099616,20.0323103 228.099616,15.444318 C228.099616,9.6758818 223.407352,4.98263328 217.638915,4.98263328 C216.578483,4.98263328 215.556415,5.14396063 214.592386,5.43808792 L217.737286,0.994700044 C225.140637,1.38227915 231.048759,7.5087834 231.048759,15.0065701 C231.048759,22.75225 224.747155,29.0568045 217.000492,29.0568045 M217.831721,0.0483774547 C217.719579,-0.0106447442 217.594649,-0.0145795574 217.48349,0.0306707951 C217.322163,0.0257522785 217.163787,0.00607821219 217.000492,0.00607821219 C208.729514,0.00607821219 202,6.73559259 202,15.0065701 C202,23.2785312 208.729514,30.0060782 217.000492,30.0060782 C225.270486,30.0060782 232,23.2785312 232,15.0065701 C232,7.01594804 225.714136,0.484158023 217.831721,0.0483774547 M221.476342,15.5298019 C221.376988,15.6262048 221.331738,15.7639232 221.354363,15.8996743 L221.718333,18.102186 L219.748959,17.0515909 C219.687969,17.0191287 219.61911,17.0024057 219.552218,17.0024057 C219.48631,17.0024057 219.420402,17.018145 219.360396,17.0496235 L217.37725,18.075626 L217.76778,15.8780328 C217.792373,15.7432655 217.748106,15.6045633 217.649736,15.5081604 L216.062039,13.9401373 L218.27242,13.6322382 C218.408171,13.6135478 218.526216,13.5289493 218.588189,13.4059864 L219.587632,11.4100524 L220.564449,13.4177908 C220.624455,13.5417375 220.741516,13.6273196 220.87825,13.6479774 L223.084697,13.9824365 L221.476342,15.5298019 Z M224.046759,13.2830235 L221.219595,12.8541288 L219.969308,10.2827284 C219.899466,10.1400914 219.754861,10.048607 219.596485,10.0476233 L219.593534,10.0476233 C219.435158,10.0476233 219.290553,10.1371403 219.219727,10.2778099 L217.938945,12.8344548 L215.106863,13.2279361 C214.94947,13.2505613 214.817654,13.3597523 214.768469,13.510259 C214.7183,13.6617493 214.757648,13.8279951 214.871758,13.9401373 L216.906056,15.9488595 L216.406335,18.7632347 C216.377808,18.9196435 216.441748,19.0780197 216.56963,19.1734389 C216.699479,19.2688582 216.868676,19.2806626 217.009345,19.2068848 L219.549267,17.8926572 L222.071482,19.2393471 C222.133456,19.2718093 222.201331,19.2875485 222.269207,19.2875485 C222.276093,19.2875485 222.282979,19.2885322 222.287897,19.2875485 C222.520051,19.2875485 222.706955,19.1006449 222.706955,18.8704583 C222.706955,18.8015991 222.690232,18.7376584 222.660721,18.6806036 L222.215103,15.980338 L224.274978,13.9971921 C224.389087,13.8870173 224.431387,13.7207715 224.383185,13.5692812 C224.334,13.4177908 224.204151,13.3066324 224.046759,13.2830235 Z" id="ic-yoyo"></path>
            </g>
        </g>
    </g>
</svg>