<?xml version="1.0" encoding="UTF-8"?>
<svg width="30px" height="30px" viewBox="0 0 30 30" version="1.1" xmlns="http://www.w3.org/2000/svg" xmlns:xlink="http://www.w3.org/1999/xlink">
    <g stroke="none" stroke-width="1" fill="none" fill-rule="evenodd">
        <g transform="translate(-117.000000, -489.000000)" fill="#00FFF6">
            <g transform="translate(35.000000, 489.000000)">
                <path d="M97,29.0487277 C89.2530824,29.0487277 82.9512723,22.7469176 82.9512723,15 C82.9512723,7.25308237 89.2530824,0.951272298 97,0.951272298 C104.746918,0.951272298 111.048728,7.25308237 111.048728,15 C111.048728,22.7469176 104.746918,29.0487277 97,29.0487277 M100.058827,20.4341553 C99.4400577,20.4784234 98.8616212,20.3043022 98.4868179,19.9550761 C98.3126967,19.7888248 98.1031611,19.5055089 98.1090635,19.0972587 C98.1179171,18.2502623 99.063287,17.4681925 100.16999,17.38851 C100.2359,17.384575 100.298859,17.3816238 100.364769,17.3816238 C100.913694,17.3816238 101.407529,17.5537775 101.743966,17.8695567 C101.919071,18.035808 102.12664,18.3191238 102.122705,18.7263903 C102.112867,19.5704355 101.167497,20.3544727 100.058827,20.4341553 Z M94.4584208,12.0025577 L94.4584208,10.4708814 L102.088274,9.21071616 L102.088274,10.502361 L94.4584208,12.0025577 Z M91.4127754,21.6953043 C90.7900708,21.7395724 90.2136018,21.5654512 89.8387985,21.2152413 C89.6646773,21.04899 89.4571091,20.7656742 89.4610441,20.3574239 C89.4679302,19.5114113 90.4152676,18.7303253 91.5239376,18.649659 C91.5898478,18.6447403 91.6528069,18.6427728 91.7197009,18.6427728 C92.2656742,18.6427728 92.7595094,18.8149265 93.095947,19.1277545 C93.2710519,19.2940058 93.4805876,19.5783054 93.4746852,19.9855719 C93.4648478,20.8315845 92.519478,21.614638 91.4127754,21.6953043 Z M103.038562,8.64998688 C103.038562,8.5093127 102.977571,8.37749213 102.86936,8.28797219 C102.7641,8.19746852 102.619491,8.1581191 102.485703,8.18074502 L93.9045776,9.59830797 C93.676351,9.6376574 93.505181,9.83440451 93.505181,10.0675498 L93.505181,18.2581322 C92.9542891,17.8538169 92.2302597,17.64133 91.4570435,17.7013379 C89.8447009,17.8174187 88.5225603,19.0047875 88.5078043,20.3466028 C88.5019019,20.933893 88.7439008,21.4887198 89.1895331,21.9077912 C89.6991081,22.3878541 90.4290399,22.6534627 91.220947,22.6534627 C91.306532,22.6534627 91.3931007,22.6495278 91.4796695,22.6446091 C93.0005247,22.533447 94.2459339,21.4680614 94.3964454,20.2206847 C94.4318599,20.1537907 94.4584208,20.0809942 94.4584208,19.9993442 L94.4584208,12.9715373 L102.088274,11.4703568 L102.088274,16.9487802 C101.545252,16.5779119 100.849751,16.3900184 100.103095,16.4392051 C98.4907529,16.5572534 97.1705797,17.7436385 97.1577912,19.0864376 C97.1479538,19.6747114 97.3919203,20.2275708 97.835585,20.6466422 C98.3471275,21.1267051 99.0770593,21.3923137 99.866999,21.3923137 C99.9545514,21.3923137 100.039153,21.3883788 100.125721,21.3824764 C101.738064,21.2663956 103.060205,20.0800105 103.074961,18.7372114 C103.076928,18.6073583 103.061188,18.4804565 103.038562,18.355522 L103.038562,8.64998688 Z M97,0 C88.7287513,0 82,6.72875131 82,15 C82,23.2722324 88.7287513,30 97,30 C105.269281,30 112,23.2722324 112,15 C112,6.72875131 105.269281,0 97,0" id="ic-music-active"></path>
            </g>
        </g>
    </g>
</svg>