<?xml version="1.0" encoding="UTF-8"?>
<svg width="30px" height="30px" viewBox="0 0 30 30" version="1.1" xmlns="http://www.w3.org/2000/svg" xmlns:xlink="http://www.w3.org/1999/xlink">
    <g stroke="none" stroke-width="1" fill="none" fill-rule="evenodd">
        <g transform="translate(-117.000000, -442.000000)" fill="#6A6969">
            <g transform="translate(35.000000, 442.000000)">
                <path d="M97,0.951272298 C89.2530824,0.951272298 82.9512723,7.25406611 82.9512723,15 C82.9512723,22.7469176 89.2530824,29.0487277 97,29.0487277 C104.747901,29.0487277 111.048728,22.7469176 111.048728,15 C111.048728,7.25406611 104.747901,0.951272298 97,0.951272298 M101.449395,18.385526 C101.21252,16.3019936 99.440257,14.6778266 97.2934483,14.6778266 C95.1466396,14.6778266 93.3743767,16.3019936 93.1375021,18.385526 L91.89645,18.385526 C92.1383782,15.6192189 94.4678258,13.4432385 97.2941369,13.4432385 C100.120448,13.4432385 102.449015,15.6192189 102.690848,18.385526 L101.449395,18.385526 Z M100.52427,18.7549894 C100.516459,18.7892394 100.512329,18.8249353 100.512329,18.861654 C100.512329,19.1223439 100.726784,19.3358145 100.988458,19.3358145 L107.145658,19.3358145 C107.410283,19.3358145 107.620803,19.1223439 107.620803,18.861654 C107.620803,13.1668088 102.988392,8.53341422 97.2935467,8.53341422 C91.5977177,8.53341422 86.9643232,13.1668088 86.9643232,18.861654 C86.9643232,19.1223439 87.1787775,19.3358145 87.4394675,19.3358145 L93.5986359,19.3358145 C93.8612933,19.3358145 94.0747639,19.1223439 94.0747639,18.861654 C94.0747639,18.8245955 94.0705774,18.7885788 94.0626556,18.7540389 C94.1195521,17.0192641 95.5468911,15.6281152 97.2934483,15.6281152 C99.0383964,15.6281152 100.467789,17.0197722 100.52427,18.7549894 Z M103.645224,18.385526 C103.400861,15.0951258 100.644993,12.4929499 97.2941369,12.4929499 C93.9414033,12.4929499 91.1863457,15.0951258 90.9420605,18.385526 L89.8375611,18.385526 C90.0838436,14.4867016 93.3331272,11.3911661 97.2940386,11.3911661 C101.251168,11.3911661 104.50394,14.4867016 104.750499,18.385526 L103.645224,18.385526 Z M105.702492,18.385526 C105.454673,13.9628591 101.776548,10.4398938 97.2940386,10.4398938 C92.8086796,10.4398938 89.1341256,13.9628591 88.8865549,18.385526 L87.9293678,18.385526 C88.1762854,13.4353686 92.2833814,9.48271905 97.2935467,9.48271905 C102.304696,9.48271905 106.408841,13.4353686 106.659693,18.385526 L105.702492,18.385526 Z M97,30 C88.7287513,30 82,23.2722324 82,15 C82,6.72973505 88.7287513,0 97,0 C105.270265,0 112,6.72973505 112,15 C112,23.2722324 105.270265,30 97,30 Z" id="ic-rainbow"></path>
            </g>
        </g>
    </g>
</svg>