<?xml version="1.0" encoding="UTF-8"?>
<svg width="30px" height="30px" viewBox="0 0 30 30" version="1.1" xmlns="http://www.w3.org/2000/svg" xmlns:xlink="http://www.w3.org/1999/xlink">
    <g stroke="none" stroke-width="1" fill="none" fill-rule="evenodd">
        <g transform="translate(-276.000000, -442.000000)" fill="#6A6969">
            <g transform="translate(35.000000, 442.000000)">
                <path d="M256,29.0506952 C248.253082,29.0506952 241.951272,22.7469176 241.951272,15.0009837 C241.951272,7.25406611 248.253082,0.951272298 256,0.951272298 C263.746918,0.951272298 270.048728,7.25406611 270.048728,15.0009837 C270.048728,22.7469176 263.746918,29.0506952 256,29.0506952 M256,0 C264.270265,0 271,6.72973505 271,15.0009837 C271,23.2732162 264.270265,30.0009837 256,30.0009837 C247.729735,30.0009837 241,23.2732162 241,15.0009837 C241,6.72973505 247.729735,0 256,0 Z M256.45124,23.4752754 C251.764723,23.4752754 247.951764,19.6623164 247.951764,14.9758001 C247.951764,11.7835782 249.785447,8.84909496 252.59598,7.41087356 C252.382509,8.20081322 252.275282,9.00649265 252.275282,9.81709077 C252.275282,14.964979 256.463044,19.1517576 261.609949,19.1517576 C262.420547,19.1517576 263.22721,19.0445304 264.015182,18.8310598 C262.577945,21.6425761 259.643461,23.4752754 256.45124,23.4752754 Z M264.629033,17.7538694 C263.650216,18.1267051 262.634018,18.3165661 261.609949,18.3165661 C256.923433,18.3165661 253.110474,14.503607 253.110474,9.81709077 C253.110474,8.79302204 253.300334,7.77682319 253.674154,6.7980063 C253.732194,6.64454355 253.694812,6.47042235 253.578732,6.35335782 C253.462651,6.23727702 253.289513,6.19891133 253.134083,6.25793547 C249.534595,7.62926285 247.116573,11.1323452 247.116573,14.9758001 C247.116573,20.1236884 251.304335,24.3114507 256.45124,24.3114507 C260.293711,24.3114507 263.797777,21.8934286 265.169104,18.2929565 C265.228128,18.1394937 265.190746,17.9653725 265.074666,17.848308 C264.957601,17.7322272 264.781512,17.695829 264.629033,17.7538694 Z M264.874475,10.7261608 L263.796301,10.7261608 L263.796301,9.64700289 C263.796301,9.41680876 263.609391,9.229899 263.378214,9.229899 C263.148019,9.229899 262.96111,9.41680876 262.96111,9.64700289 L262.96111,10.7261608 L261.881952,10.7261608 C261.651758,10.7261608 261.463864,10.9130706 261.463864,11.1442484 C261.463864,11.3744425 261.651758,11.562336 261.881952,11.562336 L262.96111,11.562336 L262.96111,12.6395265 C262.96111,12.8707044 263.148019,13.0576141 263.378214,13.0576141 C263.609391,13.0576141 263.796301,12.8707044 263.796301,12.6395265 L263.796301,11.562336 L264.874475,11.562336 C265.104669,11.562336 265.292563,11.3744425 265.292563,11.1442484 C265.292563,10.9130706 265.104669,10.7261608 264.874475,10.7261608 Z M258.682844,8.32348505 L259.312434,8.32348505 L259.312434,8.95307581 C259.312434,9.18326994 259.499344,9.3701797 259.729538,9.3701797 C259.960716,9.3701797 260.147626,9.18326994 260.147626,8.95307581 L260.147626,8.32348505 L260.7782,8.32348505 C261.008395,8.32348505 261.196288,8.13657529 261.196288,7.90539743 C261.196288,7.67520331 261.008395,7.48730981 260.7782,7.48730981 L260.147626,7.48730981 L260.147626,6.85870278 C260.147626,6.62752492 259.960716,6.44061516 259.729538,6.44061516 C259.499344,6.44061516 259.312434,6.62752492 259.312434,6.85870278 L259.312434,7.48730981 L258.682844,7.48730981 C258.45265,7.48730981 258.264756,7.67520331 258.264756,7.90539743 C258.264756,8.13657529 258.45265,8.32348505 258.682844,8.32348505 Z M258.190976,13.9386477 L258.820567,13.9386477 L258.820567,14.5692222 C258.820567,14.7994163 259.007476,14.9863261 259.237671,14.9863261 C259.468848,14.9863261 259.655758,14.7994163 259.655758,14.5692222 L259.655758,13.9386477 L260.286333,13.9386477 C260.516527,13.9386477 260.70442,13.7517379 260.70442,13.5205601 C260.70442,13.2903659 260.516527,13.1024725 260.286333,13.1024725 L259.655758,13.1024725 L259.655758,12.4738654 C259.655758,12.2426876 259.468848,12.0557778 259.237671,12.0557778 C259.007476,12.0557778 258.820567,12.2426876 258.820567,12.4738654 L258.820567,13.1024725 L258.190976,13.1024725 C257.960782,13.1024725 257.772888,13.2903659 257.772888,13.5205601 C257.772888,13.7517379 257.960782,13.9386477 258.190976,13.9386477 Z" id="ic-star"></path>
            </g>
        </g>
    </g>
</svg>