<?xml version="1.0" encoding="UTF-8"?>
<svg width="30px" height="30px" viewBox="0 0 30 30" version="1.1" xmlns="http://www.w3.org/2000/svg" xmlns:xlink="http://www.w3.org/1999/xlink">
    <g stroke="none" stroke-width="1" fill="none" fill-rule="evenodd">
        <g transform="translate(-35.000000, -489.000000)" fill="#00FFF6">
            <g transform="translate(35.000000, 489.000000)">
                <path d="M15,0.951 C7.251,0.951 0.949,7.254 0.949,14.999 C0.949,22.746 7.251,29.05 15,29.05 C22.747,29.05 29.049,22.746 29.049,14.999 C29.049,7.254 22.747,0.951 15,0.951 Z M15,30 C6.729,30 0,23.272 0,14.999 C0,6.729 6.729,0 15,0 C23.27,0 30,6.729 30,14.999 C30,23.272 23.27,30 15,30 Z M16.994,14.999 C16.994,16.1 16.101,16.994 14.999,16.994 C13.899,16.994 13.005,16.1 13.005,14.999 C13.005,13.9 13.899,13.005 14.999,13.005 C16.101,13.005 16.994,13.9 16.994,14.999 Z M18,14.999 C18,13.347 16.654,12 14.999,12 C13.346,12 12,13.347 12,14.999 C12,16.654 13.346,18 14.999,18 C16.654,18 18,16.654 18,14.999 Z M15.966,10.529 L15.966,7.473 C15.966,7.212 15.749,7 15.483,7 C15.214,7 15,7.212 15,7.473 L15,10.529 C15,10.788 15.214,11 15.483,11 C15.749,11 15.966,10.788 15.966,10.529 Z M15.966,22.528 L15.966,19.475 C15.966,19.211 15.749,19 15.483,19 C15.214,19 15,19.211 15,19.475 L15,22.528 C15,22.789 15.214,23 15.483,23 C15.749,23 15.966,22.789 15.966,22.528 Z M11.866,11.865 C12.044,11.688 12.044,11.399 11.866,11.22 L9.779,9.133 C9.6,8.956 9.312,8.956 9.132,9.133 C8.956,9.312 8.956,9.602 9.132,9.779 L11.221,11.865 C11.31,11.955 11.426,12 11.543,12 C11.66,12 11.778,11.955 11.866,11.865 Z M20.866,20.865 C21.044,20.688 21.044,20.399 20.866,20.221 L18.778,18.134 C18.602,17.955 18.311,17.955 18.133,18.134 C17.956,18.313 17.956,18.603 18.133,18.779 L20.22,20.865 C20.309,20.955 20.428,21 20.543,21 C20.661,21 20.775,20.955 20.866,20.865 Z M10.528,15.966 C10.788,15.966 11,15.751 11,15.485 C11,15.216 10.788,15 10.528,15 L7.472,15 C7.211,15 7,15.216 7,15.485 C7,15.751 7.211,15.966 7.472,15.966 L10.528,15.966 Z M22.528,15.966 C22.788,15.966 23,15.751 23,15.485 C23,15.216 22.788,15 22.528,15 L19.472,15 C19.212,15 19,15.216 19,15.485 C19,15.751 19.212,15.966 19.472,15.966 L22.528,15.966 Z M9.779,20.865 L11.866,18.779 C12.044,18.603 12.044,18.313 11.866,18.134 C11.687,17.955 11.399,17.955 11.221,18.134 L9.132,20.221 C8.956,20.399 8.956,20.688 9.132,20.865 C9.223,20.955 9.338,21 9.456,21 C9.572,21 9.69,20.955 9.779,20.865 Z M18.778,11.865 L20.866,9.779 C21.044,9.602 21.044,9.312 20.866,9.133 C20.687,8.956 20.399,8.956 20.22,9.133 L18.133,11.22 C17.956,11.399 17.956,11.688 18.133,11.865 C18.223,11.955 18.34,12 18.456,12 C18.574,12 18.689,11.955 18.778,11.865 Z" id="ic-static-active"></path>
            </g>
        </g>
    </g>
</svg>