<?xml version="1.0" encoding="UTF-8"?>
<svg width="30px" height="30px" viewBox="0 0 30 30" version="1.1" xmlns="http://www.w3.org/2000/svg" xmlns:xlink="http://www.w3.org/1999/xlink">
    <g stroke="none" stroke-width="1" fill="none" fill-rule="evenodd">
        <g transform="translate(-35.000000, -442.000000)" fill="#6A6969">
            <g transform="translate(35.000000, 442.000000)">
                <path d="M15,29.0506952 C7.25308237,29.0506952 0.951272298,22.7469176 0.951272298,15.0009837 C0.951272298,7.25406611 7.25308237,0.951272298 15,0.951272298 C22.7469176,0.951272298 29.0487277,7.25406611 29.0487277,15.0009837 C29.0487277,22.7469176 22.7469176,29.0506952 15,29.0506952 M15,0 C6.72973505,0 0,6.72973505 0,15.0009837 C0,23.2732162 6.72973505,30.0009837 15,30.0009837 C23.270265,30.0009837 30,23.2732162 30,15.0009837 C30,6.72973505 23.270265,0 15,0 M20.4668,17.7187 C19.1058,17.7187 17.9968,16.6107 17.9968,15.2487 C17.9968,13.8867 19.1058,12.7797 20.4668,12.7797 C21.8278,12.7797 22.9368,13.8867 22.9368,15.2487 C22.9368,16.6107 21.8278,17.7187 20.4668,17.7187 M20.4668,11.8137 C22.3628,11.8137 23.9038,13.3547 23.9038,15.2487 C23.9038,17.1437 22.3628,18.6867 20.4668,18.6867 C18.5728,18.6867 17.0298,17.1437 17.0298,15.2487 C17.0298,13.3547 18.5728,11.8137 20.4668,11.8137 Z M10.9229,11.8135 C12.8159,11.8135 14.3579,13.3545 14.3579,15.2485 C14.3579,17.1435 12.8159,18.6865 10.9229,18.6865 C9.0259,18.6865 7.4849,17.1435 7.4849,15.2485 C7.4849,13.3545 9.0259,11.8135 10.9229,11.8135 Z" id="ic-strobing"></path>
            </g>
        </g>
    </g>
</svg>