<?xml version="1.0" encoding="UTF-8"?>
<svg width="30px" height="30px" viewBox="0 0 30 30" version="1.1" xmlns="http://www.w3.org/2000/svg" xmlns:xlink="http://www.w3.org/1999/xlink">
    <g stroke="none" stroke-width="1" fill="none" fill-rule="evenodd">
        <g transform="translate(-198.000000, -442.000000)" fill="#6A6969">
            <g transform="translate(35.000000, 442.000000)">
                <path d="M178,0.951272298 C170.253082,0.951272298 163.951272,7.25406611 163.951272,15.0009837 C163.951272,22.7469176 170.253082,29.0506952 178,29.0506952 C185.746918,29.0506952 192.048728,22.7469176 192.048728,15.0009837 C192.048728,7.25406611 185.746918,0.951272298 178,0.951272298 M178,30.0009837 C169.729735,30.0009837 163,23.2732162 163,15.0009837 C163,6.72973505 169.729735,0 178,0 C186.270265,0 193,6.72973505 193,15.0009837 C193,23.2732162 186.270265,30.0009837 178,30.0009837 Z M184.81837,14.3271249 C185.542399,14.3271249 186.224128,14.0447928 186.706158,13.5598111 L187.608244,12.820042 C187.787284,12.6734654 187.812861,12.410808 187.666284,12.2317681 C187.520691,12.0527282 187.25705,12.0261674 187.07801,12.1747114 L186.146413,12.9410414 C185.399757,13.6857293 184.09434,13.6572009 183.361457,12.801351 L182.262625,11.726128 C181.238556,10.56532 179.237638,10.5604014 178.211602,11.7064533 L177.070468,12.9410414 C176.32578,13.6857293 175.020363,13.6581847 174.286497,12.801351 L173.187664,11.726128 C172.672187,11.1427728 171.93045,10.8083027 171.152315,10.8083027 C170.339749,10.8083027 169.576371,11.1683499 169.062861,11.7900708 L168.339815,12.6360834 C168.189304,12.8121721 168.209962,13.076797 168.385067,13.2263248 C168.559188,13.3758526 168.823813,13.3561779 168.974325,13.1800892 L169.703273,12.3281742 C170.40566,11.4782267 171.810434,11.4310073 172.581683,12.3016133 L173.675597,13.3709339 C174.662284,14.5307581 176.572698,14.6222455 177.672514,13.5204617 L178.829387,12.2691501 C179.545547,11.4683893 180.906053,11.4536333 181.656643,12.3016133 L182.750557,13.3709339 C183.268002,13.9788825 184.021544,14.3271249 184.81837,14.3271249 Z M184.81837,19.6493311 C185.543383,19.6493311 186.224128,19.3679827 186.707142,18.883001 L187.608244,18.1422482 C187.787284,17.9956716 187.812861,17.7320304 187.666284,17.5539743 C187.518724,17.3739507 187.255083,17.3493573 187.077026,17.4969176 L186.146413,18.2642314 C185.401725,19.0089192 184.092373,18.9794071 183.361457,18.1235572 L182.262625,17.0493179 C181.238556,15.8875262 179.23567,15.884575 178.211602,17.0286595 L177.070468,18.2642314 C176.32578,19.0079355 175.017412,18.9794071 174.286497,18.1235572 L173.187664,17.0493179 C172.672187,16.4659627 171.93045,16.1314927 171.152315,16.1314927 C170.339749,16.1314927 169.576371,16.4905561 169.062861,17.112277 L168.338831,17.9592733 C168.189304,18.135362 168.209962,18.3990031 168.385067,18.5495147 C168.560172,18.6990425 168.824797,18.6783841 168.975308,18.5032791 L169.703273,17.6503804 C170.403692,16.7994491 171.808467,16.7532135 172.581683,17.6248033 L173.674613,18.6931401 C174.660316,19.8519806 176.573682,19.9444517 177.672514,18.8436516 L178.829387,17.5913562 C179.544563,16.7935467 180.906053,16.7768232 181.656643,17.6248033 L182.750557,18.6931401 C183.267019,19.3010887 184.02056,19.6493311 184.81837,19.6493311 Z" id="ic-wave"></path>
            </g>
        </g>
    </g>
</svg>