<svg width="24" height="24" viewBox="0 0 24 24" fill="none" xmlns="http://www.w3.org/2000/svg">
<path d="M5.9198 5.5899H4.8598C3.7198 5.5899 2.7998 6.5099 2.7998 7.6499V20.8399C2.7998 21.9799 3.7198 22.8999 4.8598 22.8999H19.2498C20.3898 22.8999 21.3098 21.9799 21.3098 20.8399V7.6499C21.3098 6.5099 20.3898 5.5899 19.2498 5.5899M19.2498 5.5899H19.1898M19.2498 5.5899H18" stroke="#006CE1" stroke-width="1.2" stroke-linecap="round" stroke-linejoin="round"/>
<path d="M8.60059 3.5C12.7881 3.5 16.1631 6.875 16.1631 11.0625" stroke="#006CE1" stroke-width="1.2" stroke-linecap="round" stroke-linejoin="round"/>
<path d="M8.91309 6.9375C10.9756 6.9375 12.6631 8.625 12.6631 10.6875" stroke="#006CE1" stroke-width="1.2" stroke-linecap="round" stroke-linejoin="round"/>
<path d="M9.64583 13.2H5.61383L5.09783 17.136C5.40983 17.088 5.73383 17.064 6.16583 17.064C7.72583 17.064 8.38583 17.652 8.38583 18.54C8.38583 19.476 7.55783 19.968 6.69383 19.968C5.98583 19.968 5.31383 19.74 4.97783 19.56L4.67783 20.676C5.08583 20.904 5.84183 21.132 6.74183 21.132C8.66183 21.132 9.89783 19.92 9.89783 18.432C9.89783 17.484 9.46583 16.824 8.87783 16.452C8.34983 16.104 7.66583 15.948 6.98183 15.948C6.75383 15.948 6.59783 15.96 6.41783 15.984L6.64583 14.424H9.64583V13.2ZM10.9674 17.292V18.312H14.0274V17.292H10.9674ZM17.2246 21H18.6526V13.2H17.4166L15.5206 14.136L15.7726 15.252L17.2006 14.532H17.2246V21Z" fill="black"/>
</svg>
