<svg width="24" height="24" viewBox="0 0 24 24" fill="none" xmlns="http://www.w3.org/2000/svg">
<path d="M5.9198 5.5899H4.8598C3.7198 5.5899 2.7998 6.5099 2.7998 7.6499V20.8399C2.7998 21.9799 3.7198 22.8999 4.8598 22.8999H19.2498C20.3898 22.8999 21.3098 21.9799 21.3098 20.8399V7.6499C21.3098 6.5099 20.3898 5.5899 19.2498 5.5899M19.2498 5.5899H19.1898M19.2498 5.5899H18" stroke="#006CE1" stroke-width="1.2" stroke-linecap="round" stroke-linejoin="round"/>
<path d="M8.60059 3.5C12.7881 3.5 16.1631 6.875 16.1631 11.0625" stroke="#006CE1" stroke-width="1.2" stroke-linecap="round" stroke-linejoin="round"/>
<path d="M8.91309 6.9375C10.9756 6.9375 12.6631 8.625 12.6631 10.6875" stroke="#006CE1" stroke-width="1.2" stroke-linecap="round" stroke-linejoin="round"/>
<path d="M8.72963 13.092V14.256C8.51363 14.244 8.27363 14.256 7.98563 14.292C6.34163 14.484 5.56163 15.48 5.36963 16.56H5.40563C5.78963 16.116 6.37763 15.804 7.15763 15.804C8.50163 15.804 9.54563 16.764 9.54563 18.348C9.54563 19.836 8.45363 21.132 6.79763 21.132C4.90163 21.132 3.85763 19.692 3.85763 17.76C3.85763 16.26 4.39763 15.048 5.21363 14.28C5.92163 13.596 6.86963 13.212 7.98563 13.128C8.30963 13.08 8.54963 13.08 8.72963 13.092ZM6.79763 20.028C7.55363 20.028 8.04563 19.368 8.04563 18.432C8.04563 17.52 7.55363 16.884 6.68963 16.884C6.13763 16.884 5.64563 17.22 5.41763 17.688C5.35763 17.808 5.32163 17.952 5.32163 18.156C5.34563 19.188 5.82563 20.028 6.79763 20.028ZM10.2672 17.292H13.3272V18.312H10.2672V17.292ZM16.5244 21V14.532H16.5004L15.0724 15.252L14.8204 14.136L16.7284 13.2H17.9524V21H16.5244Z" fill="black"/>
<circle cx="19" cy="5" r="4.75" fill="white" stroke="#006CE1" stroke-width="0.5"/>
<path fill-rule="evenodd" clip-rule="evenodd" d="M17.9163 3.24996C17.9163 2.65165 18.4014 2.16663 18.9997 2.16663C19.598 2.16663 20.083 2.65165 20.083 3.24996V3.66663H17.9163V3.24996ZM17.4163 3.69003V3.24996C17.4163 2.37551 18.1252 1.66663 18.9997 1.66663C19.8741 1.66663 20.583 2.37551 20.583 3.24996V3.69003C21.1999 3.80704 21.6663 4.34903 21.6663 4.99996V6.99996C21.6663 7.73634 21.0694 8.33329 20.333 8.33329H17.6663C16.93 8.33329 16.333 7.73634 16.333 6.99996V4.99996C16.333 4.34903 16.7995 3.80704 17.4163 3.69003ZM19.6663 5.99996C19.6663 6.36815 19.3679 6.66663 18.9997 6.66663C18.6315 6.66663 18.333 6.36815 18.333 5.99996C18.333 5.63177 18.6315 5.33329 18.9997 5.33329C19.3679 5.33329 19.6663 5.63177 19.6663 5.99996Z" fill="#181818"/>
</svg>
