<svg width="24" height="24" viewBox="0 0 24 24" fill="none" xmlns="http://www.w3.org/2000/svg">
<path d="M5.9198 5.5899H4.8598C3.7198 5.5899 2.7998 6.5099 2.7998 7.6499V20.8399C2.7998 21.9799 3.7198 22.8999 4.8598 22.8999H19.2498C20.3898 22.8999 21.3098 21.9799 21.3098 20.8399V7.6499C21.3098 6.5099 20.3898 5.5899 19.2498 5.5899M19.2498 5.5899H19.1898M19.2498 5.5899H18" stroke="#006CE1" stroke-width="1.2" stroke-linecap="round" stroke-linejoin="round"/>
<path d="M8.60059 3.5C12.7881 3.5 16.1631 6.875 16.1631 11.0625" stroke="#006CE1" stroke-width="1.2" stroke-linecap="round" stroke-linejoin="round"/>
<path d="M8.91309 6.9375C10.9756 6.9375 12.6631 8.625 12.6631 10.6875" stroke="#006CE1" stroke-width="1.2" stroke-linecap="round" stroke-linejoin="round"/>
<path d="M9.14583 13.2H5.11383L4.59783 17.136C4.90983 17.088 5.23383 17.064 5.66583 17.064C7.22583 17.064 7.88583 17.652 7.88583 18.54C7.88583 19.476 7.05783 19.968 6.19383 19.968C5.48583 19.968 4.81383 19.74 4.47783 19.56L4.17783 20.676C4.58583 20.904 5.34183 21.132 6.24183 21.132C8.16183 21.132 9.39783 19.92 9.39783 18.432C9.39783 17.484 8.96583 16.824 8.37783 16.452C7.84983 16.104 7.16583 15.948 6.48183 15.948C6.25383 15.948 6.09783 15.96 5.91783 15.984L6.14583 14.424H9.14583V13.2ZM10.4674 17.292V18.312H13.5274V17.292H10.4674ZM19.7006 21V19.776H16.4966V19.752L17.1806 19.164C18.5366 17.904 19.5206 16.8 19.5206 15.432C19.5206 14.16 18.6806 13.068 16.9526 13.068C15.9686 13.068 15.1166 13.416 14.5526 13.872L14.9846 14.916C15.3806 14.616 15.9686 14.268 16.6526 14.268C17.6726 14.268 18.0446 14.88 18.0446 15.576C18.0326 16.608 17.1686 17.544 15.3326 19.248L14.4086 20.1V21H19.7006Z" fill="black"/>
</svg>
