<svg width="24" height="24" viewBox="0 0 24 24" fill="none" xmlns="http://www.w3.org/2000/svg">
<path d="M5.91998 5.5899H4.85999C3.71999 5.5899 2.79999 6.5099 2.79999 7.6499V20.8399C2.79999 21.9799 3.71999 22.8999 4.85999 22.8999H19.25C20.39 22.8999 21.31 21.9799 21.31 20.8399V7.6499C21.31 6.5099 20.39 5.5899 19.25 5.5899M19.25 5.5899H19.19M19.25 5.5899H18.0002" stroke="#006CE1" stroke-width="1.2" stroke-linecap="round" stroke-linejoin="round"/>
<path d="M8.60077 3.5C12.7883 3.5 16.1633 6.875 16.1633 11.0625" stroke="#006CE1" stroke-width="1.2" stroke-linecap="round" stroke-linejoin="round"/>
<path d="M8.91327 6.9375C10.9758 6.9375 12.6633 8.625 12.6633 10.6875" stroke="#006CE1" stroke-width="1.2" stroke-linecap="round" stroke-linejoin="round"/>
<path d="M9.31857 19.5L9.23857 17.436C9.21457 16.788 9.19057 16.004 9.19057 15.22H9.16657C8.99857 15.908 8.77457 16.676 8.56657 17.308L7.91057 19.412H6.95857L6.38257 17.324C6.20657 16.692 6.02257 15.924 5.89457 15.22H5.87857C5.84657 15.948 5.82257 16.78 5.78257 17.452L5.68657 19.5H4.55857L4.90257 14.108H6.52657L7.05457 15.908C7.22257 16.532 7.39057 17.204 7.51057 17.836H7.53457C7.68657 17.212 7.87057 16.5 8.04657 15.9L8.62257 14.108H10.2146L10.5106 19.5H9.31857ZM11.4442 19.5V14.108H12.6682V18.476H14.8122V19.5H11.4442ZM17.6014 14.02C19.2574 14.02 20.1614 15.26 20.1614 16.748C20.1614 18.516 19.0894 19.588 17.5134 19.588C15.9134 19.588 14.9774 18.38 14.9774 16.844C14.9774 15.228 16.0094 14.02 17.6014 14.02ZM17.5694 14.988C16.7454 14.988 16.2654 15.772 16.2654 16.82C16.2654 17.876 16.7614 18.62 17.5774 18.62C18.4014 18.62 18.8734 17.836 18.8734 16.788C18.8734 15.82 18.4094 14.988 17.5694 14.988Z" fill="black"/>
</svg>
