<svg width="24" height="24" viewBox="0 0 24 24" fill="none" xmlns="http://www.w3.org/2000/svg">
<path d="M5.9198 5.5899H4.8598C3.7198 5.5899 2.7998 6.5099 2.7998 7.6499V20.8399C2.7998 21.9799 3.7198 22.8999 4.8598 22.8999H19.2498C20.3898 22.8999 21.3098 21.9799 21.3098 20.8399V7.6499C21.3098 6.5099 20.3898 5.5899 19.2498 5.5899M19.2498 5.5899H19.1898M19.2498 5.5899H18" stroke="#006CE1" stroke-width="1.2" stroke-linecap="round" stroke-linejoin="round"/>
<path d="M8.60059 3.5C12.7881 3.5 16.1631 6.875 16.1631 11.0625" stroke="#006CE1" stroke-width="1.2" stroke-linecap="round" stroke-linejoin="round"/>
<path d="M8.91309 6.9375C10.9756 6.9375 12.6631 8.625 12.6631 10.6875" stroke="#006CE1" stroke-width="1.2" stroke-linecap="round" stroke-linejoin="round"/>
<path d="M9.31839 19.5L9.23839 17.436C9.21439 16.788 9.19039 16.004 9.19039 15.22H9.16639C8.99839 15.908 8.77439 16.676 8.56639 17.308L7.91039 19.412H6.95839L6.38239 17.324C6.20639 16.692 6.02239 15.924 5.89439 15.22H5.87839C5.84639 15.948 5.82239 16.78 5.78239 17.452L5.68639 19.5H4.55839L4.90239 14.108H6.52639L7.05439 15.908C7.22239 16.532 7.39039 17.204 7.51039 17.836H7.53439C7.68639 17.212 7.87039 16.5 8.04639 15.9L8.62239 14.108H10.2144L10.5104 19.5H9.31839ZM11.444 19.5V14.108H12.668V18.476H14.812V19.5H11.444ZM17.6013 14.02C19.2573 14.02 20.1613 15.26 20.1613 16.748C20.1613 18.516 19.0893 19.588 17.5133 19.588C15.9133 19.588 14.9773 18.38 14.9773 16.844C14.9773 15.228 16.0093 14.02 17.6013 14.02ZM17.5693 14.988C16.7453 14.988 16.2653 15.772 16.2653 16.82C16.2653 17.876 16.7613 18.62 17.5773 18.62C18.4013 18.62 18.8733 17.836 18.8733 16.788C18.8733 15.82 18.4093 14.988 17.5693 14.988Z" fill="black"/>
<circle cx="19" cy="5" r="4.75" fill="white" stroke="#006CE1" stroke-width="0.5"/>
<path fill-rule="evenodd" clip-rule="evenodd" d="M17.9166 3.25008C17.9166 2.65177 18.4017 2.16675 19 2.16675C19.5983 2.16675 20.0833 2.65177 20.0833 3.25008V3.66675H17.9166V3.25008ZM17.4166 3.69015V3.25008C17.4166 2.37563 18.1255 1.66675 19 1.66675C19.8744 1.66675 20.5833 2.37563 20.5833 3.25008V3.69015C21.2002 3.80717 21.6666 4.34915 21.6666 5.00008V7.00008C21.6666 7.73646 21.0697 8.33341 20.3333 8.33341H17.6666C16.9303 8.33341 16.3333 7.73646 16.3333 7.00008V5.00008C16.3333 4.34915 16.7998 3.80717 17.4166 3.69015ZM19.6666 6.00008C19.6666 6.36827 19.3682 6.66675 19 6.66675C18.6318 6.66675 18.3333 6.36827 18.3333 6.00008C18.3333 5.63189 18.6318 5.33341 19 5.33341C19.3682 5.33341 19.6666 5.63189 19.6666 6.00008Z" fill="#181818"/>
</svg>
