<svg width="24" height="24" viewBox="0 0 24 24" fill="none" xmlns="http://www.w3.org/2000/svg">
<path d="M5.9198 5.5899H4.8598C3.7198 5.5899 2.7998 6.5099 2.7998 7.6499V20.8399C2.7998 21.9799 3.7198 22.8999 4.8598 22.8999H19.2498C20.3898 22.8999 21.3098 21.9799 21.3098 20.8399V7.6499C21.3098 6.5099 20.3898 5.5899 19.2498 5.5899M19.2498 5.5899H19.1898M19.2498 5.5899H18" stroke="#006CE1" stroke-width="1.2" stroke-linecap="round" stroke-linejoin="round"/>
<path d="M8.60059 3.5C12.7881 3.5 16.1631 6.875 16.1631 11.0625" stroke="#006CE1" stroke-width="1.2" stroke-linecap="round" stroke-linejoin="round"/>
<path d="M8.91309 6.9375C10.9756 6.9375 12.6631 8.625 12.6631 10.6875" stroke="#006CE1" stroke-width="1.2" stroke-linecap="round" stroke-linejoin="round"/>
<path d="M9.15783 13.2V14.424H6.15783L5.92983 15.984C6.09783 15.96 6.25383 15.948 6.48183 15.948C7.16583 15.948 7.86183 16.104 8.37783 16.452C8.96583 16.824 9.39783 17.484 9.39783 18.432C9.39783 19.92 8.16183 21.132 6.25383 21.132C5.34183 21.132 4.58583 20.904 4.17783 20.676L4.47783 19.56C4.81383 19.74 5.48583 19.968 6.19383 19.968C7.05783 19.968 7.88583 19.476 7.88583 18.552C7.88583 17.652 7.22583 17.064 5.67783 17.064C5.23383 17.064 4.90983 17.1 4.60983 17.136L5.11383 13.2H9.15783ZM10.4674 17.292H13.5274V18.312H10.4674V17.292ZM19.6886 21H14.4086V20.1L15.3326 19.248C17.1686 17.544 18.0326 16.608 18.0446 15.576C18.0446 14.88 17.6726 14.268 16.6526 14.268C15.9566 14.268 15.3806 14.616 14.9846 14.916L14.5526 13.872C15.1166 13.416 15.9686 13.068 16.9526 13.068C18.6806 13.068 19.5206 14.16 19.5206 15.432C19.5206 16.8 18.5366 17.904 17.1686 19.164L16.4966 19.752V19.776H19.6886V21Z" fill="black"/>
<circle cx="19" cy="5" r="4.75" fill="white" stroke="#006CE1" stroke-width="0.5"/>
<path fill-rule="evenodd" clip-rule="evenodd" d="M17.9163 3.24996C17.9163 2.65165 18.4014 2.16663 18.9997 2.16663C19.598 2.16663 20.083 2.65165 20.083 3.24996V3.66663H17.9163V3.24996ZM17.4163 3.69003V3.24996C17.4163 2.37551 18.1252 1.66663 18.9997 1.66663C19.8741 1.66663 20.583 2.37551 20.583 3.24996V3.69003C21.1999 3.80704 21.6663 4.34903 21.6663 4.99996V6.99996C21.6663 7.73634 21.0694 8.33329 20.333 8.33329H17.6663C16.93 8.33329 16.333 7.73634 16.333 6.99996V4.99996C16.333 4.34903 16.7995 3.80704 17.4163 3.69003ZM19.6663 5.99996C19.6663 6.36815 19.3679 6.66663 18.9997 6.66663C18.6315 6.66663 18.333 6.36815 18.333 5.99996C18.333 5.63177 18.6315 5.33329 18.9997 5.33329C19.3679 5.33329 19.6663 5.63177 19.6663 5.99996Z" fill="#181818"/>
</svg>
