<svg width="24" height="24" viewBox="0 0 24 24" fill="none" xmlns="http://www.w3.org/2000/svg">
<path d="M5.9198 5.5899H4.8598C3.7198 5.5899 2.7998 6.5099 2.7998 7.6499V20.8399C2.7998 21.9799 3.7198 22.8999 4.8598 22.8999H19.2498C20.3898 22.8999 21.3098 21.9799 21.3098 20.8399V7.6499C21.3098 6.5099 20.3898 5.5899 19.2498 5.5899M19.2498 5.5899H19.1898M19.2498 5.5899H18" stroke="#006CE1" stroke-width="1.2" stroke-linecap="round" stroke-linejoin="round"/>
<path d="M8.60059 3.5C12.7881 3.5 16.1631 6.875 16.1631 11.0625" stroke="#006CE1" stroke-width="1.2" stroke-linecap="round" stroke-linejoin="round"/>
<path d="M8.91309 6.9375C10.9756 6.9375 12.6631 8.625 12.6631 10.6875" stroke="#006CE1" stroke-width="1.2" stroke-linecap="round" stroke-linejoin="round"/>
<path d="M9.95644 20V18.776H6.75244V18.752L7.43644 18.164C8.79244 16.904 9.77644 15.8 9.77644 14.432C9.77644 13.16 8.93644 12.068 7.20844 12.068C6.22444 12.068 5.37244 12.416 4.80844 12.872L5.24044 13.916C5.63644 13.616 6.22444 13.268 6.90844 13.268C7.92844 13.268 8.30044 13.88 8.30044 14.576C8.28844 15.608 7.42444 16.544 5.58844 18.248L4.66444 19.1V20H9.95644ZM12.106 20.132C12.658 20.132 13.018 19.724 13.018 19.184C13.018 18.62 12.646 18.236 12.106 18.236C11.578 18.236 11.194 18.632 11.194 19.184C11.194 19.724 11.566 20.132 12.106 20.132ZM18.578 20V18.02H19.586V16.904H18.578V12.2H16.838L13.658 17.06V18.02H17.186V20H18.578ZM15.062 16.904L15.074 16.88L16.502 14.744C16.742 14.312 16.946 13.916 17.186 13.424H17.234C17.198 13.88 17.186 14.336 17.186 14.78V16.904H15.062Z" fill="black"/>
<circle cx="19" cy="5" r="4.75" fill="white" stroke="#006CE1" stroke-width="0.5"/>
<path fill-rule="evenodd" clip-rule="evenodd" d="M17.9163 3.24996C17.9163 2.65165 18.4014 2.16663 18.9997 2.16663C19.598 2.16663 20.083 2.65165 20.083 3.24996V3.66663H17.9163V3.24996ZM17.4163 3.69003V3.24996C17.4163 2.37551 18.1252 1.66663 18.9997 1.66663C19.8741 1.66663 20.583 2.37551 20.583 3.24996V3.69003C21.1999 3.80704 21.6663 4.34903 21.6663 4.99996V6.99996C21.6663 7.73634 21.0694 8.33329 20.333 8.33329H17.6663C16.93 8.33329 16.333 7.73634 16.333 6.99996V4.99996C16.333 4.34903 16.7995 3.80704 17.4163 3.69003ZM19.6663 5.99996C19.6663 6.36815 19.3679 6.66663 18.9997 6.66663C18.6315 6.66663 18.333 6.36815 18.333 5.99996C18.333 5.63177 18.6315 5.33329 18.9997 5.33329C19.3679 5.33329 19.6663 5.63177 19.6663 5.99996Z" fill="#181818"/>
</svg>
