<svg width="24" height="24" viewBox="0 0 24 24" fill="none" xmlns="http://www.w3.org/2000/svg">
<path d="M5.9198 5.5899H4.8598C3.7198 5.5899 2.7998 6.5099 2.7998 7.6499V20.8399C2.7998 21.9799 3.7198 22.8999 4.8598 22.8999H19.2498C20.3898 22.8999 21.3098 21.9799 21.3098 20.8399V7.6499C21.3098 6.5099 20.3898 5.5899 19.2498 5.5899M19.2498 5.5899H19.1898M19.2498 5.5899H18" stroke="#006CE1" stroke-width="1.2" stroke-linecap="round" stroke-linejoin="round"/>
<path d="M8.60059 3.5C12.7881 3.5 16.1631 6.875 16.1631 11.0625" stroke="#006CE1" stroke-width="1.2" stroke-linecap="round" stroke-linejoin="round"/>
<path d="M8.91309 6.9375C10.9756 6.9375 12.6631 8.625 12.6631 10.6875" stroke="#006CE1" stroke-width="1.2" stroke-linecap="round" stroke-linejoin="round"/>
<path d="M9.95644 21V19.776H6.75244V19.752L7.43644 19.164C8.79244 17.904 9.77644 16.8 9.77644 15.432C9.77644 14.16 8.93644 13.068 7.20844 13.068C6.22444 13.068 5.37244 13.416 4.80844 13.872L5.24044 14.916C5.63644 14.616 6.22444 14.268 6.90844 14.268C7.92844 14.268 8.30044 14.88 8.30044 15.576C8.28844 16.608 7.42444 17.544 5.58844 19.248L4.66444 20.1V21H9.95644ZM12.106 21.132C12.658 21.132 13.018 20.724 13.018 20.184C13.018 19.62 12.646 19.236 12.106 19.236C11.578 19.236 11.194 19.632 11.194 20.184C11.194 20.724 11.566 21.132 12.106 21.132ZM18.578 21V19.02H19.586V17.904H18.578V13.2H16.838L13.658 18.06V19.02H17.186V21H18.578ZM15.062 17.904L15.074 17.88L16.502 15.744C16.742 15.312 16.946 14.916 17.186 14.424H17.234C17.198 14.88 17.186 15.336 17.186 15.78V17.904H15.062Z" fill="black"/>
</svg>
