<svg width="24" height="24" viewBox="0 0 24 24" fill="none" xmlns="http://www.w3.org/2000/svg">
<path d="M5.9198 5.5899H4.8598C3.7198 5.5899 2.7998 6.5099 2.7998 7.6499V20.8399C2.7998 21.9799 3.7198 22.8999 4.8598 22.8999H19.2498C20.3898 22.8999 21.3098 21.9799 21.3098 20.8399V7.6499C21.3098 6.5099 20.3898 5.5899 19.2498 5.5899M19.2498 5.5899H19.1898M19.2498 5.5899H18" stroke="#006CE1" stroke-width="1.2" stroke-linecap="round" stroke-linejoin="round"/>
<path d="M8.60059 3.5C12.7881 3.5 16.1631 6.875 16.1631 11.0625" stroke="#006CE1" stroke-width="1.2" stroke-linecap="round" stroke-linejoin="round"/>
<path d="M8.91309 6.9375C10.9756 6.9375 12.6631 8.625 12.6631 10.6875" stroke="#006CE1" stroke-width="1.2" stroke-linecap="round" stroke-linejoin="round"/>
<path d="M9.64583 13.2V14.424H6.64583L6.41783 15.984C6.59783 15.96 6.75383 15.948 6.98183 15.948C7.66583 15.948 8.34983 16.104 8.87783 16.452C9.46583 16.824 9.89783 17.484 9.89783 18.432C9.89783 19.92 8.66183 21.132 6.74183 21.132C5.84183 21.132 5.08583 20.904 4.67783 20.676L4.97783 19.56C5.31383 19.74 5.98583 19.968 6.69383 19.968C7.55783 19.968 8.38583 19.476 8.38583 18.54C8.38583 17.652 7.72583 17.064 6.16583 17.064C5.73383 17.064 5.40983 17.088 5.09783 17.136L5.61383 13.2H9.64583ZM10.9674 17.292H14.0274V18.312H10.9674V17.292ZM17.2246 21V14.532H17.2006L15.7726 15.252L15.5206 14.136L17.4166 13.2H18.6526V21H17.2246Z" fill="black"/>
<circle cx="19" cy="5" r="4.75" fill="white" stroke="#006CE1" stroke-width="0.5"/>
<path fill-rule="evenodd" clip-rule="evenodd" d="M17.9163 3.24996C17.9163 2.65165 18.4014 2.16663 18.9997 2.16663C19.598 2.16663 20.083 2.65165 20.083 3.24996V3.66663H17.9163V3.24996ZM17.4163 3.69003V3.24996C17.4163 2.37551 18.1252 1.66663 18.9997 1.66663C19.8741 1.66663 20.583 2.37551 20.583 3.24996V3.69003C21.1999 3.80704 21.6663 4.34903 21.6663 4.99996V6.99996C21.6663 7.73634 21.0694 8.33329 20.333 8.33329H17.6663C16.93 8.33329 16.333 7.73634 16.333 6.99996V4.99996C16.333 4.34903 16.7995 3.80704 17.4163 3.69003ZM19.6663 5.99996C19.6663 6.36815 19.3679 6.66663 18.9997 6.66663C18.6315 6.66663 18.333 6.36815 18.333 5.99996C18.333 5.63177 18.6315 5.33329 18.9997 5.33329C19.3679 5.33329 19.6663 5.63177 19.6663 5.99996Z" fill="#181818"/>
</svg>
