<svg width="24" height="24" viewBox="0 0 24 24" fill="none" xmlns="http://www.w3.org/2000/svg">
<path d="M5.9198 5.5899H4.8598C3.7198 5.5899 2.7998 6.5099 2.7998 7.6499V20.8399C2.7998 21.9799 3.7198 22.8999 4.8598 22.8999H19.2498C20.3898 22.8999 21.3098 21.9799 21.3098 20.8399V7.6499C21.3098 6.5099 20.3898 5.5899 19.2498 5.5899M19.2498 5.5899H19.1898M19.2498 5.5899H18" stroke="#006CE1" stroke-width="1.2" stroke-linecap="round" stroke-linejoin="round"/>
<path d="M8.60059 3.5C12.7881 3.5 16.1631 6.875 16.1631 11.0625" stroke="#006CE1" stroke-width="1.2" stroke-linecap="round" stroke-linejoin="round"/>
<path d="M8.91309 6.9375C10.9756 6.9375 12.6631 8.625 12.6631 10.6875" stroke="#006CE1" stroke-width="1.2" stroke-linecap="round" stroke-linejoin="round"/>
<path d="M8.72963 13.092V14.256C8.51363 14.244 8.27363 14.256 7.98563 14.292C6.34163 14.484 5.56163 15.48 5.36963 16.56H5.40563C5.78963 16.116 6.37763 15.804 7.15763 15.804C8.50163 15.804 9.54563 16.764 9.54563 18.348C9.54563 19.836 8.45363 21.132 6.79763 21.132C4.90163 21.132 3.85763 19.692 3.85763 17.76C3.85763 16.26 4.39763 15.048 5.21363 14.28C5.92163 13.596 6.86963 13.212 7.98563 13.128C8.30963 13.08 8.54963 13.08 8.72963 13.092ZM6.79763 20.028C7.55363 20.028 8.04563 19.368 8.04563 18.432C8.04563 17.52 7.55363 16.884 6.68963 16.884C6.13763 16.884 5.64563 17.22 5.41763 17.688C5.35763 17.808 5.32163 17.952 5.32163 18.156C5.34563 19.188 5.82563 20.028 6.79763 20.028ZM10.2672 17.292H13.3272V18.312H10.2672V17.292ZM19.4884 21H14.2084V20.1L15.1324 19.248C16.9684 17.544 17.8324 16.608 17.8444 15.576C17.8444 14.88 17.4724 14.268 16.4524 14.268C15.7564 14.268 15.1804 14.616 14.7844 14.916L14.3524 13.872C14.9164 13.416 15.7684 13.068 16.7524 13.068C18.4804 13.068 19.3204 14.16 19.3204 15.432C19.3204 16.8 18.3364 17.904 16.9684 19.164L16.2964 19.752V19.776H19.4884V21Z" fill="black"/>
</svg>
