<svg width="24" height="24" viewBox="0 0 24 24" fill="none" xmlns="http://www.w3.org/2000/svg">
<path d="M5.9198 5.5899H4.8598C3.7198 5.5899 2.7998 6.5099 2.7998 7.6499V20.8399C2.7998 21.9799 3.7198 22.8999 4.8598 22.8999H19.2498C20.3898 22.8999 21.3098 21.9799 21.3098 20.8399V7.6499C21.3098 6.5099 20.3898 5.5899 19.2498 5.5899M19.2498 5.5899H19.1898M19.2498 5.5899H18" stroke="#006CE1" stroke-width="1.2" stroke-linecap="round" stroke-linejoin="round"/>
<path d="M8.60059 3.5C12.7881 3.5 16.1631 6.875 16.1631 11.0625" stroke="#006CE1" stroke-width="1.2" stroke-linecap="round" stroke-linejoin="round"/>
<path d="M8.91309 6.9375C10.9756 6.9375 12.6631 8.625 12.6631 10.6875" stroke="#006CE1" stroke-width="1.2" stroke-linecap="round" stroke-linejoin="round"/>
<path d="M14.2278 12.55H9.8598L9.3008 16.814C9.6388 16.762 9.9898 16.736 10.4578 16.736C12.1478 16.736 12.8628 17.373 12.8628 18.335C12.8628 19.349 11.9658 19.882 11.0298 19.882C10.2628 19.882 9.5348 19.635 9.1708 19.44L8.8458 20.649C9.2878 20.896 10.1068 21.143 11.0818 21.143C13.1618 21.143 14.5008 19.83 14.5008 18.218C14.5008 17.191 14.0328 16.476 13.3958 16.073C12.8238 15.696 12.0828 15.527 11.3418 15.527C11.0948 15.527 10.9258 15.54 10.7308 15.566L10.9778 13.876H14.2278V12.55Z" fill="black"/>
<circle cx="19" cy="5" r="4.75" fill="white" stroke="#006CE1" stroke-width="0.5"/>
<path fill-rule="evenodd" clip-rule="evenodd" d="M17.9163 3.24996C17.9163 2.65165 18.4014 2.16663 18.9997 2.16663C19.598 2.16663 20.083 2.65165 20.083 3.24996V3.66663H17.9163V3.24996ZM17.4163 3.69003V3.24996C17.4163 2.37551 18.1252 1.66663 18.9997 1.66663C19.8741 1.66663 20.583 2.37551 20.583 3.24996V3.69003C21.1999 3.80704 21.6663 4.34903 21.6663 4.99996V6.99996C21.6663 7.73634 21.0694 8.33329 20.333 8.33329H17.6663C16.93 8.33329 16.333 7.73634 16.333 6.99996V4.99996C16.333 4.34903 16.7995 3.80704 17.4163 3.69003ZM19.6663 5.99996C19.6663 6.36815 19.3679 6.66663 18.9997 6.66663C18.6315 6.66663 18.333 6.36815 18.333 5.99996C18.333 5.63177 18.6315 5.33329 18.9997 5.33329C19.3679 5.33329 19.6663 5.63177 19.6663 5.99996Z" fill="#181818"/>
</svg>
