<svg xmlns="http://www.w3.org/2000/svg" xmlns:xlink="http://www.w3.org/1999/xlink" width="24" height="24" viewBox="0 0 24 24">
  <defs>
    <path id="ic-antenna-led-scheme-interaction_resting-a" d="M16.2192221,1 C17.4907781,1 18.6645221,1.6781632 19.2999379,2.77872934 L19.2999379,2.77872934 L23.5210691,10.0892707 C24.1564848,11.1898368 24.1564848,12.5461632 23.5210691,13.6467294 L23.5210691,13.6467294 L19.2999379,20.8186632 C18.6645221,21.9192293 17.4907781,22.5973925 16.2192221,22.5973925 L16.2192221,22.5973925 L7.77768422,22.5973925 C6.50685275,22.5973925 5.33238421,21.9192293 4.69696848,20.8186632 L4.69696848,20.8186632 L0.476561801,13.6467294 C-0.158853934,12.5461632 -0.158853934,11.1898368 0.476561801,10.0892707 L0.476561801,10.0892707 L4.69696848,2.77872934 C5.33238421,1.6781632 6.50685275,1 7.77768422,1 L7.77768422,1 Z M16.2192221,1.72453334 L7.77768422,1.72453334 C6.76913382,1.72453334 5.82868955,2.2672088 5.32441435,3.14099601 L5.32441435,3.14099601 L1.10400767,10.4515374 C0.599007935,11.3253246 0.599007935,12.4106755 1.10400767,13.2844627 L1.10400767,13.2844627 L5.32441435,20.4563965 C5.82868955,21.3301837 6.76913382,21.8728592 7.77768422,21.8728592 L7.77768422,21.8728592 L11.5,21.872 L11.5,14 C11.5,13.7238576 11.7238576,13.5 12,13.5 C12.2761424,13.5 12.5,13.7238576 12.5,14 L12.5,21.872 L16.2192221,21.8728592 C17.1654174,21.8728592 18.0504801,21.3958983 18.5729268,20.6162997 L18.672492,20.4563965 L22.8936232,13.2844627 C23.3978984,12.4106755 23.3978984,11.3253246 22.8936232,10.4515374 L22.8936232,10.4515374 L18.672492,3.14099601 C18.1682168,2.2672088 17.228497,1.72453334 16.2192221,1.72453334 L16.2192221,1.72453334 Z M18.039697,16.6941125 C18.4302213,17.0846368 18.4302213,17.7178018 18.039697,18.1083261 C17.6491727,18.4988504 17.0160077,18.4988504 16.6254834,18.1083261 C16.2349591,17.7178018 16.2349591,17.0846368 16.6254834,16.6941125 C17.0160077,16.3035883 17.6491727,16.3035883 18.039697,16.6941125 Z M7.4245166,16.6941125 C7.81504089,17.0846368 7.81504089,17.7178018 7.4245166,18.1083261 C7.03399231,18.4988504 6.40082733,18.4988504 6.01030304,18.1083261 C5.61977875,17.7178018 5.61977875,17.0846368 6.01030304,16.6941125 C6.40082733,16.3035883 7.03399231,16.3035883 7.4245166,16.6941125 Z M16.3002143,15.3223254 C16.6126337,15.6347448 16.6126337,16.1412768 16.3002143,16.4536962 C15.9877948,16.7661157 15.4812629,16.7661157 15.1688434,16.4536962 C14.856424,16.1412768 14.856424,15.6347448 15.1688434,15.3223254 C15.4812629,15.009906 15.9877948,15.009906 16.3002143,15.3223254 Z M8.88115657,15.3223254 C9.193576,15.6347448 9.193576,16.1412768 8.88115657,16.4536962 C8.56873714,16.7661157 8.06220515,16.7661157 7.74978572,16.4536962 C7.43736629,16.1412768 7.43736629,15.6347448 7.74978572,15.3223254 C8.06220515,15.009906 8.56873714,15.009906 8.88115657,15.3223254 Z M14.7516504,13.9717514 C15.0054912,14.2255922 15.0054912,14.6371495 14.7516504,14.8909903 C14.4978096,15.144831 14.0862524,15.144831 13.8324116,14.8909903 C13.5785708,14.6371495 13.5785708,14.2255922 13.8324116,13.9717514 C14.0862524,13.7179107 14.4978096,13.7179107 14.7516504,13.9717514 Z M10.2175884,13.9717514 C10.4714292,14.2255922 10.4714292,14.6371495 10.2175884,14.8909903 C9.9637476,15.144831 9.55219036,15.144831 9.29834957,14.8909903 C9.04450878,14.6371495 9.04450878,14.2255922 9.29834957,13.9717514 C9.55219036,13.7179107 9.9637476,13.7179107 10.2175884,13.9717514 Z M4.55,11.3 C5.10228475,11.3 5.55,11.7477153 5.55,12.3 C5.55,12.8522847 5.10228475,13.3 4.55,13.3 C3.99771525,13.3 3.55,12.8522847 3.55,12.3 C3.55,11.7477153 3.99771525,11.3 4.55,11.3 Z M19.5,11.3 C20.0522847,11.3 20.5,11.7477153 20.5,12.3 C20.5,12.8522847 20.0522847,13.3 19.5,13.3 C18.9477153,13.3 18.5,12.8522847 18.5,12.3 C18.5,11.7477153 18.9477153,11.3 19.5,11.3 Z M6.75,11.44 C7.1918278,11.44 7.55,11.7981722 7.55,12.24 C7.55,12.6818278 7.1918278,13.04 6.75,13.04 C6.3081722,13.04 5.95,12.6818278 5.95,12.24 C5.95,11.7981722 6.3081722,11.44 6.75,11.44 Z M17.3,11.44 C17.7418278,11.44 18.1,11.7981722 18.1,12.24 C18.1,12.6818278 17.7418278,13.04 17.3,13.04 C16.8581722,13.04 16.5,12.6818278 16.5,12.24 C16.5,11.7981722 16.8581722,11.44 17.3,11.44 Z M8.8,11.6 C9.15898509,11.6 9.45,11.8910149 9.45,12.25 C9.45,12.6089851 9.15898509,12.9 8.8,12.9 C8.44101491,12.9 8.15,12.6089851 8.15,12.25 C8.15,11.8910149 8.44101491,11.6 8.8,11.6 Z M15.25,11.6 C15.6089851,11.6 15.9,11.8910149 15.9,12.25 C15.9,12.6089851 15.6089851,12.9 15.25,12.9 C14.8910149,12.9 14.6,12.6089851 14.6,12.25 C14.6,11.8910149 14.8910149,11.6 15.25,11.6 Z M12,11.7 C12.2761424,11.7 12.5,11.9238576 12.5,12.2 C12.5,12.4761424 12.2761424,12.7 12,12.7 C11.7238576,12.7 11.5,12.4761424 11.5,12.2 C11.5,11.9238576 11.7238576,11.7 12,11.7 Z M14.7516504,9.5572564 C15.0054912,9.81109719 15.0054912,10.2226544 14.7516504,10.4764952 C14.4978096,10.730336 14.0862524,10.730336 13.8324116,10.4764952 C13.5785708,10.2226544 13.5785708,9.81109719 13.8324116,9.5572564 C14.0862524,9.30341561 14.4978096,9.30341561 14.7516504,9.5572564 Z M10.2175884,9.5572564 C10.4714292,9.81109719 10.4714292,10.2226544 10.2175884,10.4764952 C9.9637476,10.730336 9.55219036,10.730336 9.29834957,10.4764952 C9.04450878,10.2226544 9.04450878,9.81109719 9.29834957,9.5572564 C9.55219036,9.30341561 9.9637476,9.30341561 10.2175884,9.5572564 Z M12.05,8.4 C12.4089851,8.4 12.7,8.69101491 12.7,9.05 C12.7,9.40898509 12.4089851,9.7 12.05,9.7 C11.6910149,9.7 11.4,9.40898509 11.4,9.05 C11.4,8.69101491 11.6910149,8.4 12.05,8.4 Z M16.3002143,7.99455041 C16.6126337,8.30696984 16.6126337,8.81350183 16.3002143,9.12592126 C15.9877948,9.43834069 15.4812629,9.43834069 15.1688434,9.12592126 C14.856424,8.81350183 14.856424,8.30696984 15.1688434,7.99455041 C15.4812629,7.68213098 15.9877948,7.68213098 16.3002143,7.99455041 Z M8.88115657,7.99455041 C9.193576,8.30696984 9.193576,8.81350183 8.88115657,9.12592126 C8.56873714,9.43834069 8.06220515,9.43834069 7.74978572,9.12592126 C7.43736629,8.81350183 7.43736629,8.30696984 7.74978572,7.99455041 C8.06220515,7.68213098 8.56873714,7.68213098 8.88115657,7.99455041 Z M18.039697,6.33992054 C18.4302213,6.73044483 18.4302213,7.36360981 18.039697,7.7541341 C17.6491727,8.1446584 17.0160077,8.1446584 16.6254834,7.7541341 C16.2349591,7.36360981 16.2349591,6.73044483 16.6254834,6.33992054 C17.0160077,5.94939625 17.6491727,5.94939625 18.039697,6.33992054 Z M7.4245166,6.33992054 C7.81504089,6.73044483 7.81504089,7.36360981 7.4245166,7.7541341 C7.03399231,8.1446584 6.40082733,8.1446584 6.01030304,7.7541341 C5.61977875,7.36360981 5.61977875,6.73044483 6.01030304,6.33992054 C6.40082733,5.94939625 7.03399231,5.94939625 7.4245166,6.33992054 Z M12.04,6.2 C12.4818278,6.2 12.84,6.5581722 12.84,7 C12.84,7.4418278 12.4818278,7.8 12.04,7.8 C11.5981722,7.8 11.24,7.4418278 11.24,7 C11.24,6.5581722 11.5981722,6.2 12.04,6.2 Z M12.1,3.8 C12.6522847,3.8 13.1,4.24771525 13.1,4.8 C13.1,5.35228475 12.6522847,5.8 12.1,5.8 C11.5477153,5.8 11.1,5.35228475 11.1,4.8 C11.1,4.24771525 11.5477153,3.8 12.1,3.8 Z"/>
  </defs>
  <g fill="none" fill-rule="evenodd">
    <use fill="#33515D" xlink:href="#ic-antenna-led-scheme-interaction_resting-a"/>
    <use fill="#000" fill-opacity=".1" xlink:href="#ic-antenna-led-scheme-interaction_resting-a" style="mix-blend-mode:overlay"/>
    <use fill="#FFF" fill-opacity=".3" xlink:href="#ic-antenna-led-scheme-interaction_resting-a" style="mix-blend-mode:lighten"/>
  </g>
</svg>
