<svg xmlns="http://www.w3.org/2000/svg" width="24" height="24" viewBox="0 0 24 24">
  <path fill="#00FCFF" fill-rule="evenodd" d="M16.2192221,1 C17.4907781,1 18.6645221,1.6781632 19.2999379,2.77872934 L19.2999379,2.77872934 L23.5210691,10.0892707 C24.1564848,11.1898368 24.1564848,12.5461632 23.5210691,13.6467294 L23.5210691,13.6467294 L19.2999379,20.8186632 C18.6645221,21.9192293 17.4907781,22.5973925 16.2192221,22.5973925 L16.2192221,22.5973925 L7.77768422,22.5973925 C6.50685275,22.5973925 5.33238421,21.9192293 4.69696848,20.8186632 L4.69696848,20.8186632 L0.476561801,13.6467294 C-0.158853934,12.5461632 -0.158853934,11.1898368 0.476561801,10.0892707 L0.476561801,10.0892707 L4.69696848,2.77872934 C5.33238421,1.6781632 6.50685275,1 7.77768422,1 L7.77768422,1 Z M16.2192221,1.72453334 L7.77768422,1.72453334 C6.76913382,1.72453334 5.82868955,2.2672088 5.32441435,3.14099601 L5.32441435,3.14099601 L1.10400767,10.4515374 C0.599007935,11.3253246 0.599007935,12.4106755 1.10400767,13.2844627 L1.10400767,13.2844627 L5.32441435,20.4563965 C5.82868955,21.3301837 6.76913382,21.8728592 7.77768422,21.8728592 L7.77768422,21.8728592 L11.5,21.872 L11.5,15 C11.5,14.7238576 11.7238576,14.5 12,14.5 C12.2761424,14.5 12.5,14.7238576 12.5,15 L12.5,21.872 L16.2192221,21.8728592 C17.1654174,21.8728592 18.0504801,21.3958983 18.5729268,20.6162997 L18.672492,20.4563965 L22.8936232,13.2844627 C23.3978984,12.4106755 23.3978984,11.3253246 22.8936232,10.4515374 L22.8936232,10.4515374 L18.672492,3.14099601 C18.1682168,2.2672088 17.228497,1.72453334 16.2192221,1.72453334 L16.2192221,1.72453334 Z M15.0130113,14.3867197 L16.629292,16.0024916 C16.7675169,16.1399419 16.7675169,16.3636641 16.629292,16.5011144 C16.5590825,16.5705707 16.4705893,16.6056643 16.3791707,16.6056643 C16.2899462,16.6056643 16.1977962,16.5705707 16.1290495,16.5011144 L14.5135002,14.8860737 C14.3760066,14.7493545 14.3760066,14.5249011 14.5135002,14.3867197 C14.6517251,14.2485384 14.8762491,14.2485384 15.0130113,14.3867197 Z M9.25222432,14.3867197 C9.39048187,14.5249011 9.39048187,14.7493545 9.25222432,14.8860737 L7.63629341,16.5011144 C7.56753039,16.5705707 7.4760902,16.6056643 7.38684459,16.6056643 C7.2954044,16.6056643 7.20615878,16.5705707 7.13593272,16.5011144 C6.99913821,16.3636641 6.99913821,16.1399419 7.13593272,16.0024916 L8.75259516,14.3867197 C8.89085271,14.2485384 9.11396676,14.2485384 9.25222432,14.3867197 Z M12,10 C13.1045695,10 14,10.8954305 14,12 C14,13.1045695 13.1045695,14 12,14 C10.8954305,14 10,13.1045695 10,12 C10,10.8954305 10.8954305,10 12,10 Z M12,10.8 C11.338125,10.8 10.8,11.338125 10.8,12 C10.8,12.661875 11.338125,13.2 12,13.2 C12.6625,13.2 13.2,12.661875 13.2,12 C13.2,11.338125 12.6625,10.8 12,10.8 Z M8.18668371,11.4794922 C8.38803838,11.4794922 8.55230139,11.646718 8.55230139,11.8542019 C8.55230139,12.0609115 8.38803838,12.2273632 8.18668371,12.2273632 L5.82114488,12.2273632 C5.61903324,12.2273632 5.4555272,12.0609115 5.4555272,11.8542019 C5.4555272,11.646718 5.61903324,11.4794922 5.82114488,11.4794922 L8.18668371,11.4794922 Z M18.0222168,11.4794922 C18.2236207,11.4794922 18.3879239,11.646718 18.3879239,11.8542019 C18.3879239,12.0609115 18.2236207,12.2273632 18.0222168,12.2273632 L15.6568568,12.2273632 C15.4554529,12.2273632 15.2911497,12.0609115 15.2911497,11.8542019 C15.2911497,11.646718 15.4554529,11.4794922 15.6568568,11.4794922 L18.0222168,11.4794922 Z M7.46194995,7.1492098 L9.07788086,8.76463191 C9.21613842,8.90284594 9.21613842,9.12662102 9.07788086,9.26410376 C9.00984936,9.33357642 8.91840918,9.36867839 8.82770052,9.36867839 C8.73699186,9.36867839 8.64701472,9.33357642 8.5782517,9.26410376 L6.96158927,7.64868164 C6.82479475,7.5119302 6.82479475,7.28742382 6.96158927,7.1492098 C7.10057834,7.01172706 7.32369239,7.01172706 7.46194995,7.1492098 Z M16.8689593,7.1492098 C17.0071842,7.28742382 17.0071842,7.5119302 16.8689593,7.64868164 L15.2526787,9.26410376 C15.1839319,9.33357642 15.0947074,9.36867839 15.0032888,9.36867839 C14.9133329,9.36867839 14.8226456,9.33357642 14.7531675,9.26410376 C14.615674,9.12662102 14.615674,8.90284594 14.7531675,8.76463191 L16.3687168,7.1492098 C16.5076731,7.01172706 16.7307344,7.01172706 16.8689593,7.1492098 Z M12.0524336,5.58589812 C12.2583691,5.58589812 12.4263691,5.750121 12.4263691,5.95218324 L12.4263691,8.31714398 C12.4263691,8.51844944 12.2583691,8.68267232 12.0524336,8.68267232 C11.8441755,8.68267232 11.6784981,8.51844944 11.6784981,8.31714398 L11.6784981,5.95218324 C11.6784981,5.750121 11.8441755,5.58589812 12.0524336,5.58589812 Z"/>
</svg>
