<svg xmlns="http://www.w3.org/2000/svg" width="24" height="24" viewBox="0 0 24 24">
  <path fill="#B9CFDE" fill-rule="evenodd" d="M12,9.88453493 C13.4019536,9.88453493 14.5384615,11.0210326 14.5384615,12.4229735 C14.5384615,13.5279664 13.8324171,14.4680552 12.8468474,14.8167248 L12.8461538,22.9998008 L11.1538462,22.9998008 L11.153448,14.8168293 C10.167724,14.4682431 9.46153846,13.5280768 9.46153846,12.4229735 C9.46153846,11.0210326 10.5980464,9.88453493 12,9.88453493 Z M12,1 C18.0778879,1 23,5.99362618 23,12.1475189 C23,17.2874197 19.5383116,21.7277253 14.6821603,22.9610982 C14.2292231,23.0761359 13.7687877,22.8022176 13.653749,22.3492845 C13.5387102,21.8963515 13.812631,21.4359202 14.2655682,21.3208825 C18.3721302,20.2778914 21.3076923,16.5124477 21.3076923,12.1475189 C21.3076923,6.92282955 17.1377409,2.69229237 12,2.69229237 C6.86225909,2.69229237 2.69230769,6.92282955 2.69230769,12.1475189 C2.69230769,16.5301331 5.65147889,20.3066632 9.7805636,21.3324711 C10.2340948,21.445144 10.5104143,21.9041398 10.3977404,22.3576669 C10.2850665,22.811194 9.8260665,23.087511 9.37253527,22.9748381 C4.48958477,21.7617438 1,17.3082935 1,12.1475189 C1,5.99362618 5.92211214,1 12,1 Z M12,4.38458474 C16.2137208,4.38458474 19.6153846,7.92719452 19.6153846,12.2804409 C19.6153846,15.4665321 17.7773648,18.3076468 14.9940617,19.5425096 C14.5668989,19.7320281 14.0669785,19.5393824 13.8774583,19.1122235 C13.687938,18.6850645 13.8805854,18.1851487 14.3077482,17.9956302 C16.4779174,17.0327954 17.9230769,14.7989435 17.9230769,12.2804409 C17.9230769,8.84679264 15.263365,6.07687711 12,6.07687711 C8.73663497,6.07687711 6.07692308,8.84679264 6.07692308,12.2804409 C6.07692308,14.7432242 7.45867433,16.9370026 9.55742936,17.933719 C9.97956135,18.134193 10.1592492,18.6389118 9.95877332,19.06104 C9.75829748,19.4831682 9.2535741,19.6628544 8.8314421,19.4623803 C6.14151384,18.1849108 4.38461538,15.3955188 4.38461538,12.2804409 C4.38461538,7.92719452 7.78627918,4.38458474 12,4.38458474 Z" opacity=".5"/>
</svg>
