<svg xmlns="http://www.w3.org/2000/svg" width="24" height="24" viewBox="0 0 24 24">
  <defs>
    <linearGradient id="ic-roglogo-active-a" x1="-7.66%" x2="100%" y1="37.832%" y2="61.869%">
      <stop offset="0%" stop-color="#00243F"/>
      <stop offset="54.666%" stop-color="#5CFDFF"/>
      <stop offset="100%" stop-color="#004259"/>
    </linearGradient>
  </defs>
  <path fill="url(#ic-roglogo-active-a)" fill-rule="evenodd" d="M21.6204196,6 L21.8099127,6.00115707 C22.6676201,6.0117052 23.1504425,6.09081623 23.1504425,6.09081623 L23.1504425,6.09081623 L22.7765368,6.18442122 C16.9145035,7.72745393 10.8879507,12.8162727 9.18845055,14.0807164 L9.18845055,14.0807164 L8.98892203,14.2305027 C7.24837201,15.5505562 6.98618103,16.1215571 7.21241955,16.5565295 L7.21241955,16.5565295 L7.28660185,16.6894148 C7.77362767,17.5147539 8.98257824,18.8148052 9.13943867,18.9820081 L9.15174492,18.9954217 L9.15174492,18.9954217 L9.15606009,19 C9.01203381,18.9353936 7.15521535,18.0843649 6.10560352,16.6537714 L6.10560352,16.6537714 L6.03122736,16.5510386 C5.27259886,15.489841 3.39823009,12.5096385 3.39823009,12.5096385 L3.39823009,12.5096385 L3.5534255,12.5857343 C4.7762977,13.1917836 6.72838288,14.2911127 7.28977308,13.977263 L7.28977308,13.977263 L7.61676982,13.6555272 C11.7105308,9.62973614 13.9824787,7.48404016 15.5382588,6.992767 C18.1326918,6.1726365 20.2764287,6 21.6204196,6 L21.6204196,6 Z M24,8.13114754 L23.9889562,8.23538694 C23.9207263,8.63685714 23.5590324,9.22975577 23.2877864,9.34017663 L23.2877864,9.34017663 L23.2693855,9.34538067 L23.2693855,9.34538067 L23.2509845,9.35074322 L22.8201099,9.5264217 C14.1411555,13.0853078 10.4652694,15.8270736 10.172463,16.0503832 L10.172463,16.0503832 L10.1820793,16.0541625 C10.3888694,16.1347511 13.8806948,17.4726211 15.872937,17.0742856 L15.872937,17.0742856 L16.0638825,17.0264566 C18.0218922,16.4375593 19.5012269,12.9820571 19.5012269,12.9820571 L19.5012269,12.9820571 L20.7882317,12.58898 L13.6231249,14.7462548 C13.657537,14.7284203 13.7858087,14.6621976 14.0236919,14.5427423 L14.0236919,14.5427423 L13.923,14.581 L13.9496891,14.5708758 C13.9606047,14.5665303 13.9735745,14.5613461 13.9886283,14.5552934 L14.0400719,14.5345003 L14.1356686,14.4867051 C14.7735472,14.1683738 16.0299409,13.5527374 18.0348923,12.6187778 L18.0348923,12.6187778 L18.27156,12.5090286 C20.7145085,11.3812565 23.0522965,10.4566424 23.0522965,10.4566424 L23.0522965,10.4566424 L22.9785687,10.6547002 C22.0703375,13.0345837 19.4979118,17.776183 17.1929146,18.5181043 L17.1929146,18.5181043 L17.1090214,18.5396399 C16.0601771,18.7534563 11.7228981,17.9438072 8.73101761,16.6395761 L8.73101761,16.6395761 L8.62862881,16.5930083 C8.31946734,16.4465554 8.00060348,16.2462525 7.8948732,16.1782565 L7.85840708,16.1545697 C8.08945304,15.9913677 14.3045123,11.6091844 18.0159595,9.84842955 C20.8246082,8.4168681 24,8.13114754 24,8.13114754 L24,8.13114754 Z M2.35367281e-14,11.7540984 C0.188798733,11.9253045 3.46917365,14.8948809 5.09734513,16.0073422 L5.09734513,16.0073422 L5.09050955,16.0059477 L5.07832438,16.0031323 L5.08783476,16.0098418 L5.08783476,16.0098418 L5.09734513,16.0163934 C5.08394415,16.0107335 5.06953449,16.0046058 5.05109012,15.996607 L5.05109012,15.996607 L4.98703184,15.9814509 C4.44581876,15.8518875 2.01440168,15.2345418 1.39110856,14.4505278 L1.39110856,14.4505278 L1.29108749,14.318861 C0.659304081,13.4490111 0.0680856429,11.9311134 0.00648434694,11.7709379 L0.00648434694,11.7709379 L0.00235057577,11.7652545 L2.35367281e-14,11.7620971 C0.00280988368,11.7614657 2.35367281e-14,11.7540984 2.35367281e-14,11.7540984 L2.35367281e-14,11.7540984 Z"/>
</svg>
