<svg xmlns="http://www.w3.org/2000/svg" width="24" height="24" viewBox="0 0 24 24">
  <g fill="none" fill-rule="evenodd">
    <path fill="#6C7F86" d="M12,0 C18.616212,0 24,5.3836115 24,12.0003935 C24,18.6179624 18.616212,24 12,24 C5.38378804,24 0,18.6179624 0,12.0003935 C0,5.3836115 5.38378804,0 12,0 Z M12,0.760992885 C5.8024659,0.760992885 0.761017838,5.8030626 0.761017838,12.0003935 C0.761017838,18.1969374 5.8024659,23.2397941 12,23.2397941 C18.1975341,23.2397941 23.2389822,18.1969374 23.2389822,12.0003935 C23.2389822,5.8030626 18.1975341,0.760992885 12,0.760992885 Z"/>
    <path fill="#6C7F86" d="M16.8334793,15.6596803 C17.4409925,15.6596803 17.9334793,16.1521671 17.9334793,16.7596803 C17.9334793,17.3671935 17.4409925,17.8596803 16.8334793,17.8596803 C16.225966,17.8596803 15.7334793,17.3671935 15.7334793,16.7596803 C15.7334793,16.1521671 16.225966,15.6596803 16.8334793,15.6596803 Z M13.5306237,15.9956522 C14.0000657,15.9956522 14.3806237,16.3762101 14.3806237,16.8456522 C14.3806237,17.3150942 14.0000657,17.6956522 13.5306237,17.6956522 C13.0611816,17.6956522 12.6806237,17.3150942 12.6806237,16.8456522 C12.6806237,16.3762101 13.0611816,15.9956522 13.5306237,15.9956522 Z M10.0126087,16.1102982 C10.3715938,16.1102982 10.6626087,16.4013131 10.6626087,16.7602982 C10.6626087,17.1192833 10.3715938,17.4102982 10.0126087,17.4102982 C9.65362361,17.4102982 9.3626087,17.1192833 9.3626087,16.7602982 C9.3626087,16.4013131 9.65362361,16.1102982 10.0126087,16.1102982 Z M6.48,16.1620373 C6.74509668,16.1620373 6.96,16.376162 6.96,16.6402982 C6.96,16.9044344 6.74509668,17.1185591 6.48,17.1185591 C6.21490332,17.1185591 6,16.9044344 6,16.6402982 C6,16.376162 6.21490332,16.1620373 6.48,16.1620373 Z M16.8334793,12.6596803 C17.4409925,12.6596803 17.9334793,13.1521671 17.9334793,13.7596803 C17.9334793,14.3671935 17.4409925,14.8596803 16.8334793,14.8596803 C16.225966,14.8596803 15.7334793,14.3671935 15.7334793,13.7596803 C15.7334793,13.1521671 16.225966,12.6596803 16.8334793,12.6596803 Z M13.5306237,12.9956522 C14.0000657,12.9956522 14.3806237,13.3762101 14.3806237,13.8456522 C14.3806237,14.3150942 14.0000657,14.6956522 13.5306237,14.6956522 C13.0611816,14.6956522 12.6806237,14.3150942 12.6806237,13.8456522 C12.6806237,13.3762101 13.0611816,12.9956522 13.5306237,12.9956522 Z M10.0126087,13.1702982 C10.3715938,13.1702982 10.6626087,13.4613131 10.6626087,13.8202982 C10.6626087,14.1792833 10.3715938,14.4702982 10.0126087,14.4702982 C9.65362361,14.4702982 9.3626087,14.1792833 9.3626087,13.8202982 C9.3626087,13.4613131 9.65362361,13.1702982 10.0126087,13.1702982 Z M6.48,13.2620373 C6.74509668,13.2620373 6.96,13.476162 6.96,13.7402982 C6.96,14.0044344 6.74509668,14.2185591 6.48,14.2185591 C6.21490332,14.2185591 6,14.0044344 6,13.7402982 C6,13.476162 6.21490332,13.2620373 6.48,13.2620373 Z M16.8334793,9.6596803 C17.4409925,9.6596803 17.9334793,10.1521671 17.9334793,10.7596803 C17.9334793,11.3671935 17.4409925,11.8596803 16.8334793,11.8596803 C16.225966,11.8596803 15.7334793,11.3671935 15.7334793,10.7596803 C15.7334793,10.1521671 16.225966,9.6596803 16.8334793,9.6596803 Z M13.5306237,9.99565217 C14.0000657,9.99565217 14.3806237,10.3762101 14.3806237,10.8456522 C14.3806237,11.3150942 14.0000657,11.6956522 13.5306237,11.6956522 C13.0611816,11.6956522 12.6806237,11.3150942 12.6806237,10.8456522 C12.6806237,10.3762101 13.0611816,9.99565217 13.5306237,9.99565217 Z M10.0126087,10.2302982 C10.3715938,10.2302982 10.6626087,10.5213131 10.6626087,10.8802982 C10.6626087,11.2392833 10.3715938,11.5302982 10.0126087,11.5302982 C9.65362361,11.5302982 9.3626087,11.2392833 9.3626087,10.8802982 C9.3626087,10.5213131 9.65362361,10.2302982 10.0126087,10.2302982 Z M6.48,10.3620373 C6.74509668,10.3620373 6.96,10.576162 6.96,10.8402982 C6.96,11.1044344 6.74509668,11.3185591 6.48,11.3185591 C6.21490332,11.3185591 6,11.1044344 6,10.8402982 C6,10.576162 6.21490332,10.3620373 6.48,10.3620373 Z M16.8334793,6.6596803 C17.4409925,6.6596803 17.9334793,7.15216708 17.9334793,7.7596803 C17.9334793,8.36719353 17.4409925,8.8596803 16.8334793,8.8596803 C16.225966,8.8596803 15.7334793,8.36719353 15.7334793,7.7596803 C15.7334793,7.15216708 16.225966,6.6596803 16.8334793,6.6596803 Z M13.5306237,6.99565217 C14.0000657,6.99565217 14.3806237,7.37621014 14.3806237,7.84565217 C14.3806237,8.31509421 14.0000657,8.69565217 13.5306237,8.69565217 C13.0611816,8.69565217 12.6806237,8.31509421 12.6806237,7.84565217 C12.6806237,7.37621014 13.0611816,6.99565217 13.5306237,6.99565217 Z M10.0538574,7.2902982 C10.4128425,7.2902982 10.7038574,7.58131311 10.7038574,7.9402982 C10.7038574,8.29928329 10.4128425,8.5902982 10.0538574,8.5902982 C9.69487233,8.5902982 9.40385742,8.29928329 9.40385742,7.9402982 C9.40385742,7.58131311 9.69487233,7.2902982 10.0538574,7.2902982 Z M6.50193359,7.46203733 C6.76703027,7.46203733 6.98193359,7.67616202 6.98193359,7.9402982 C6.98193359,8.20443439 6.76703027,8.41855907 6.50193359,8.41855907 C6.23683691,8.41855907 6.02193359,8.20443439 6.02193359,7.9402982 C6.02193359,7.67616202 6.23683691,7.46203733 6.50193359,7.46203733 Z"/>
  </g>
</svg>
