<svg xmlns="http://www.w3.org/2000/svg" width="24" height="24" viewBox="0 0 24 24">
  <path fill="#6C7F86" fill-rule="evenodd" d="M12.0003935,0 C18.6156015,0 24,5.3836115 24,11.9996065 C24,18.6179624 18.6156015,24 12.0003935,24 C5.3836115,24 0,18.6179624 0,11.9996065 C0,5.3836115 5.3836115,0 12.0003935,0 Z M12.0003935,0.760992885 C5.8030626,0.760992885 0.760992885,5.80227563 0.760992885,11.9996065 C0.760992885,18.1969374 5.8030626,23.2397941 12.0003935,23.2397941 C18.1977244,23.2397941 23.2390071,18.1969374 23.2390071,11.9996065 C23.2390071,5.80227563 18.1977244,0.760992885 12.0003935,0.760992885 Z M10.7240885,15.7792511 L10.7240885,17.3792511 L9.12408854,17.3792511 L9.12408854,15.7792511 L10.7240885,15.7792511 Z M7.54166667,15.7571808 L7.54166667,17.3571808 L7.37324561,17.3571808 C6.61423196,17.3571808 5.99318136,16.7664907 5.94471174,16.0197285 L5.94166667,15.9256018 L5.94166667,15.7571808 L7.54166667,15.7571808 Z M13.9416667,15.7571808 L13.9416667,17.3571808 L12.3416667,17.3571808 L12.3416667,15.7571808 L13.9416667,15.7571808 Z M13.6213177,16.0768672 L12.6613177,16.0768672 L12.6613177,17.0368672 L13.6213177,17.0368672 L13.6213177,16.0768672 Z M18.2798847,11.7571808 L18.2798847,14.5171808 L15.5198847,14.5171808 L15.5198847,11.7571808 L18.2798847,11.7571808 Z M7.54166667,12.5571808 L7.54166667,14.1571808 L5.94166667,14.1571808 L5.94166667,12.5571808 L7.54166667,12.5571808 Z M17.7998847,12.2372238 L15.9990847,12.2372238 L15.9990847,14.0372238 L17.7998847,14.0372238 L17.7998847,12.2372238 Z M17.1416667,9.35718079 L17.1416667,10.9571808 L15.5416667,10.9571808 L15.5416667,9.35718079 L17.1416667,9.35718079 Z M7.54166667,9.35718079 L7.54166667,10.9571808 L5.94166667,10.9571808 L5.94166667,9.35718079 L7.54166667,9.35718079 Z M7.54166667,6.15718079 L7.54166667,7.75718079 L5.94166667,7.75718079 L5.94166667,7.58875973 L5.94471174,7.49463302 C5.99015201,6.79454347 6.53883728,6.2316267 7.23265342,6.16399683 L7.37324561,6.15718079 L7.54166667,6.15718079 Z M15.7100877,6.15718079 C16.4691014,6.15718079 17.090152,6.74787084 17.1386216,7.49463302 L17.1416667,7.58875973 L17.1416667,7.75718079 L15.5416667,7.75718079 L15.5416667,6.15718079 L15.7100877,6.15718079 Z M10.7416667,6.15718079 L10.7416667,7.75718079 L9.14166667,7.75718079 L9.14166667,6.15718079 L10.7416667,6.15718079 Z M13.9416667,6.15718079 L13.9416667,7.75718079 L12.3416667,7.75718079 L12.3416667,6.15718079 L13.9416667,6.15718079 Z"/>
</svg>
