<svg xmlns="http://www.w3.org/2000/svg" width="24" height="24" viewBox="0 0 24 24">
  <path fill="#6C7F86" fill-rule="evenodd" d="M12,0 C18.615425,0 24,5.3836115 24,11.9996065 C24,18.6179624 18.615425,24 12,24 C5.38300105,24 0,18.6179624 0,11.9996065 C0,5.3836115 5.38300105,0 12,0 Z M12,0.760992885 C5.80089192,0.760992885 0.759443861,5.8030626 0.759443861,11.9996065 C0.759443861,18.1969374 5.80089192,23.2397941 12,23.2397941 C18.1975341,23.2397941 23.2389822,18.1969374 23.2389822,11.9996065 C23.2389822,5.8030626 18.1975341,0.760992885 12,0.760992885 Z M13.566359,4.84854614 C13.7709535,4.85741231 13.9436632,4.99846516 13.9711196,5.18546093 L15.6264752,16.194031 L16.7840728,12.1695918 C16.8327858,11.9979104 17.0019527,11.87862 17.1976903,11.87862 L19.6900235,11.87862 C19.9256172,11.87862 20.1178121,12.0535255 20.1178121,12.2679258 C20.1178121,12.4839382 19.9256172,12.6572317 19.6900235,12.6572317 L17.5280529,12.6572317 L15.9072391,18.2896733 C15.8567548,18.4613548 15.6893593,18.5806452 15.495393,18.5806452 L15.4661652,18.5806452 C15.2633421,18.5685549 15.0994893,18.4283081 15.0684902,18.2437304 L13.4441337,7.43021622 L11.6550387,14.6779144 C11.6098685,14.8504019 11.4477872,14.9745284 11.2538209,14.9825886 C11.0757971,14.9850066 10.8853736,14.8770004 10.8269181,14.708543 L9.20256158,9.94982305 L7.8492264,12.4928043 C7.77837115,12.6274091 7.62780376,12.7136528 7.46572239,12.7136528 L4.05639648,12.7136528 C3.81726003,12.7136528 3.62683656,12.5379413 3.62683656,12.3235409 C3.62683656,12.1083346 3.81726003,11.9342351 4.05639648,11.9342351 L7.19558676,11.9342351 L8.90319817,8.72226028 C8.98113894,8.57798337 9.14853445,8.48851557 9.32124411,8.50302386 C9.49838223,8.5151141 9.64540686,8.62312028 9.69677691,8.77545736 L11.1687946,13.0860323 L13.1305992,5.15241427 C13.1739981,4.96783654 13.3298796,4.83161979 13.566359,4.84854614 Z"/>
</svg>
