<svg xmlns="http://www.w3.org/2000/svg" width="24" height="24" viewBox="0 0 24 24">
  <path fill="#00FCFF" fill-rule="evenodd" d="M11.9996065,0 C18.6163885,0 24,5.38378804 24,12 C24,18.6177859 18.6163885,24 11.9996065,24 C5.38282454,24 0,18.6177859 0,12 C0,5.38378804 5.38282454,0 11.9996065,0 Z M11.9996065,0.761017838 C5.80227563,0.761017838 0.760992885,5.80325289 0.760992885,12 C0.760992885,18.1975341 5.80227563,23.2389822 11.9996065,23.2389822 C18.1977244,23.2389822 23.2390071,18.1975341 23.2390071,12 C23.2390071,5.80325289 18.1977244,0.761017838 11.9996065,0.761017838 Z M12.0036804,6.83796459 C16.6802082,6.83796459 20.4849369,10.6495412 20.4849369,15.3343007 C20.4849369,15.5487524 20.3128394,15.7243601 20.0954956,15.7243601 L15.2257153,15.7243601 C14.9957276,15.7243601 14.8119085,15.5392446 14.8119085,15.313182 C14.8119085,13.765719 13.5499689,12.5091518 12.0024684,12.5091518 C10.453258,12.5091518 9.19302838,13.765719 9.19302838,15.313182 C9.19302838,15.5392446 9.00749932,15.7243601 8.78093158,15.7243601 L3.90944133,15.7243601 C3.69613736,15.7243601 3.52,15.5487524 3.52,15.3343007 C3.52,10.6495412 7.32553664,6.83796459 12.0036804,6.83796459 Z M12.0020629,10.8547046 C9.67069939,10.8547046 7.75013056,12.6548379 7.55245797,14.9426437 L8.38599823,14.9419634 C8.57275003,13.115219 10.1223412,11.6850894 12.0024684,11.6850894 C13.8825957,11.6850894 15.4321869,13.115219 15.6189387,14.9419634 L16.4524723,14.9426437 C16.2547224,12.6548379 14.3334265,10.8547046 12.0020629,10.8547046 Z M12.0012652,9.23115318 C8.77403887,9.23115318 6.12570714,11.7583996 5.9223343,14.9424826 L6.76569099,14.9423605 C6.96548347,12.2215855 9.23756655,10.0693811 12.0020629,10.0693811 C14.7665593,10.0693811 17.0393817,12.2215855 17.2392411,14.9423605 L18.081786,14.9424826 C17.8781826,11.7583996 15.2269504,9.23115318 12.0012652,9.23115318 Z M12.0036804,7.6188927 C7.88788345,7.6188927 4.51461053,10.870467 4.31181017,14.9426227 L5.14685711,14.9421762 C5.35146124,11.3300883 8.34650462,8.45367286 12.0012652,8.45367286 C15.6544775,8.45367286 18.6532025,11.3300883 18.8580655,14.9421762 L19.6963586,14.9426227 C19.4903264,10.870467 16.1194773,7.6188927 12.0036804,7.6188927 Z"/>
</svg>
