<svg xmlns="http://www.w3.org/2000/svg" width="24" height="24" viewBox="0 0 24 24">
  <path fill="#00FFF6" fill-rule="evenodd" d="M12,0 C18.616212,0 24,5.3836115 24,12.0003935 C24,18.6179624 18.616212,24 12,24 C5.38378804,24 0,18.6179624 0,12.0003935 C0,5.3836115 5.38378804,0 12,0 Z M12,0.760992885 C5.8024659,0.760992885 0.761017838,5.8030626 0.761017838,12.0003935 C0.761017838,18.1969374 5.8024659,23.2397941 12,23.2397941 C18.1975341,23.2397941 23.2389822,18.1969374 23.2389822,12.0003935 C23.2389822,5.8030626 18.1975341,0.760992885 12,0.760992885 Z M11.9135727,18.9133848 C12.196813,18.9133848 12.4264246,19.1400316 12.4264246,19.4196146 C12.4264246,19.6991976 12.196813,19.9258444 11.9135727,19.9258444 C11.6303325,19.9258444 11.4007209,19.6991976 11.4007209,19.4196146 C11.4007209,19.1400316 11.6303325,18.9133848 11.9135727,18.9133848 Z M9.10675696,18.2882603 C9.3899972,18.2882603 9.61960879,18.5149071 9.61960879,18.79449 C9.61960879,19.074073 9.3899972,19.3007198 9.10675696,19.3007198 C8.82351672,19.3007198 8.59390514,19.074073 8.59390514,18.79449 C8.59390514,18.5149071 8.82351672,18.2882603 9.10675696,18.2882603 Z M14.8247543,18.2843054 C15.1079945,18.2843054 15.3376061,18.5109521 15.3376061,18.7905351 C15.3376061,19.0701181 15.1079945,19.2967649 14.8247543,19.2967649 C14.541514,19.2967649 14.3119025,19.0701181 14.3119025,18.7905351 C14.3119025,18.5109521 14.541514,18.2843054 14.8247543,18.2843054 Z M6.63852539,16.6578587 C6.92176563,16.6578587 7.15137721,16.8845055 7.15137721,17.1640885 C7.15137721,17.4436715 6.92176563,17.6703183 6.63852539,17.6703183 C6.35528515,17.6703183 6.12567357,17.4436715 6.12567357,17.1640885 C6.12567357,16.8845055 6.35528515,16.6578587 6.63852539,16.6578587 Z M17.18862,16.6578588 C17.4718603,16.6578588 17.7014719,16.8845055 17.7014719,17.1640885 C17.7014719,17.4436715 17.4718603,17.6703183 17.18862,17.6703183 C16.9053798,17.6703183 16.6757682,17.4436715 16.6757682,17.1640885 C16.6757682,16.8845055 16.9053798,16.6578588 17.18862,16.6578588 Z M10.8715274,16.0224734 C11.2906697,16.0224734 11.6304516,16.3806456 11.6304516,16.8224734 C11.6304516,17.2643012 11.2906697,17.6224734 10.8715274,17.6224734 C10.4523852,17.6224734 10.1126032,17.2643012 10.1126032,16.8224734 C10.1126032,16.3806456 10.4523852,16.0224734 10.8715274,16.0224734 Z M13.9330941,15.9419259 C14.3522364,15.9419259 14.6920183,16.3000981 14.6920183,16.7419259 C14.6920183,17.1837537 14.3522364,17.5419259 13.9330941,17.5419259 C13.5139518,17.5419259 13.1741699,17.1837537 13.1741699,16.7419259 C13.1741699,16.3000981 13.5139518,15.9419259 13.9330941,15.9419259 Z M8.3566781,14.5254384 C8.77582038,14.5254384 9.11560232,14.8836106 9.11560232,15.3254384 C9.11560232,15.7672662 8.77582038,16.1254384 8.3566781,16.1254384 C7.93753583,16.1254384 7.59775389,15.7672662 7.59775389,15.3254384 C7.59775389,14.8836106 7.93753583,14.5254384 8.3566781,14.5254384 Z M16.1071317,14.1067123 C16.5425698,14.1067123 16.8955622,14.4788099 16.8955622,14.9378156 C16.8955622,15.3968213 16.5425698,15.7689189 16.1071317,15.7689189 C15.6716935,15.7689189 15.3187012,15.3968213 15.3187012,14.9378156 C15.3187012,14.4788099 15.6716935,14.1067123 16.1071317,14.1067123 Z M5.02670519,14.3103057 C5.30994543,14.3103057 5.53955702,14.5369524 5.53955702,14.8165354 C5.53955702,15.0961184 5.30994543,15.3227652 5.02670519,15.3227652 C4.74346495,15.3227652 4.51385337,15.0961184 4.51385337,14.8165354 C4.51385337,14.5369524 4.74346495,14.3103057 5.02670519,14.3103057 Z M18.9632531,14.1786781 C19.2464934,14.1786781 19.476105,14.4053249 19.476105,14.6849079 C19.476105,14.9644909 19.2464934,15.1911376 18.9632531,15.1911376 C18.6800129,15.1911376 18.4504013,14.9644909 18.4504013,14.6849079 C18.4504013,14.4053249 18.6800129,14.1786781 18.9632531,14.1786781 Z M13.5793939,12.7981885 C14.1869072,12.7981885 14.6793939,13.2906753 14.6793939,13.8981885 C14.6793939,14.5057017 14.1869072,14.9981885 13.5793939,14.9981885 C12.9718807,14.9981885 12.4793939,14.5057017 12.4793939,13.8981885 C12.4793939,13.2906753 12.9718807,12.7981885 13.5793939,12.7981885 Z M10.8947262,12.7541698 C11.5022394,12.7541698 11.9947262,13.2466566 11.9947262,13.8541698 C11.9947262,14.461683 11.5022394,14.9541698 10.8947262,14.9541698 C10.2872129,14.9541698 9.79472616,14.461683 9.79472616,13.8541698 C9.79472616,13.2466566 10.2872129,12.7541698 10.8947262,12.7541698 Z M7.09774534,12.0258586 C7.51688762,12.0258586 7.85666956,12.3840308 7.85666956,12.8258586 C7.85666956,13.2676864 7.51688762,13.6258586 7.09774534,13.6258586 C6.67860307,13.6258586 6.33882113,13.2676864 6.33882113,12.8258586 C6.33882113,12.3840308 6.67860307,12.0258586 7.09774534,12.0258586 Z M17.0841544,11.7069916 C17.5032967,11.7069916 17.8430786,12.0651638 17.8430786,12.5069916 C17.8430786,12.9488194 17.5032967,13.3069916 17.0841544,13.3069916 C16.6650121,13.3069916 16.3252302,12.9488194 16.3252302,12.5069916 C16.3252302,12.0651638 16.6650121,11.7069916 17.0841544,11.7069916 Z M19.5619976,11.450924 C19.8452379,11.450924 20.0748494,11.6775708 20.0748494,11.9571537 C20.0748494,12.2367367 19.8452379,12.4633835 19.5619976,12.4633835 C19.2787574,12.4633835 19.0491458,12.2367367 19.0491458,11.9571537 C19.0491458,11.6775708 19.2787574,11.450924 19.5619976,11.450924 Z M4.43800239,11.450924 C4.72124263,11.450924 4.95085421,11.6775708 4.95085421,11.9571537 C4.95085421,12.2367367 4.72124263,12.4633835 4.43800239,12.4633835 C4.15476215,12.4633835 3.92515056,12.2367367 3.92515056,11.9571537 C3.92515056,11.6775708 4.15476215,11.450924 4.43800239,11.450924 Z M10.0818055,10.2456794 C10.6893187,10.2456794 11.1818055,10.7381662 11.1818055,11.3456794 C11.1818055,11.9531926 10.6893187,12.4456794 10.0818055,12.4456794 C9.47429224,12.4456794 8.98180546,11.9531926 8.98180546,11.3456794 C8.98180546,10.7381662 9.47429224,10.2456794 10.0818055,10.2456794 Z M14.2190424,10.2456794 C14.8265556,10.2456794 15.3190424,10.7381662 15.3190424,11.3456794 C15.3190424,11.9531926 14.8265556,12.4456794 14.2190424,12.4456794 C13.6115292,12.4456794 13.1190424,11.9531926 13.1190424,11.3456794 C13.1190424,10.7381662 13.6115292,10.2456794 14.2190424,10.2456794 Z M12.1346289,8.66083926 C12.7421421,8.66083926 13.2346289,9.15332604 13.2346289,9.76083926 C13.2346289,10.3683525 12.7421421,10.8608393 12.1346289,10.8608393 C11.5271157,10.8608393 11.0346289,10.3683525 11.0346289,9.76083926 C11.0346289,9.15332604 11.5271157,8.66083926 12.1346289,8.66083926 Z M16.6745492,8.98052713 C17.0936915,8.98052713 17.4334734,9.33869933 17.4334734,9.78052713 C17.4334734,10.2223549 17.0936915,10.5805271 16.6745492,10.5805271 C16.2554069,10.5805271 15.915625,10.2223549 15.915625,9.78052713 C15.915625,9.33869933 16.2554069,8.98052713 16.6745492,8.98052713 Z M7.4134408,8.98052713 C7.83258307,8.98052713 8.17236502,9.33869933 8.17236502,9.78052713 C8.17236502,10.2223549 7.83258307,10.5805271 7.4134408,10.5805271 C6.99429853,10.5805271 6.65451658,10.2223549 6.65451658,9.78052713 C6.65451658,9.33869933 6.99429853,8.98052713 7.4134408,8.98052713 Z M18.9632532,8.70281937 C19.2464934,8.70281937 19.476105,8.92946615 19.476105,9.20904914 C19.476105,9.48863212 19.2464934,9.71527891 18.9632532,9.71527891 C18.6800129,9.71527891 18.4504013,9.48863212 18.4504013,9.20904914 C18.4504013,8.92946615 18.6800129,8.70281937 18.9632532,8.70281937 Z M5.02670525,8.70281937 C5.3099455,8.70281937 5.53955708,8.92946616 5.53955708,9.20904915 C5.53955708,9.48863213 5.3099455,9.71527892 5.02670525,9.71527892 C4.74346501,9.71527892 4.51385343,9.48863213 4.51385343,9.20904915 C4.51385343,8.92946616 4.74346501,8.70281937 5.02670525,8.70281937 Z M14.8715274,7.04121905 C15.2906697,7.04121905 15.6304516,7.39939125 15.6304516,7.84121905 C15.6304516,8.28304685 15.2906697,8.64121905 14.8715274,8.64121905 C14.4523852,8.64121905 14.1126032,8.28304685 14.1126032,7.84121905 C14.1126032,7.39939125 14.4523852,7.04121905 14.8715274,7.04121905 Z M9.1132699,7.00693638 C9.53241217,7.00693638 9.87219412,7.36510858 9.87219412,7.80693638 C9.87219412,8.24876418 9.53241217,8.60693638 9.1132699,8.60693638 C8.69412763,8.60693638 8.35434568,8.24876418 8.35434568,7.80693638 C8.35434568,7.36510858 8.69412763,7.00693638 9.1132699,7.00693638 Z M11.9376637,6.18156174 C12.356806,6.18156174 12.6965879,6.53973394 12.6965879,6.98156174 C12.6965879,7.42338954 12.356806,7.78156174 11.9376637,7.78156174 C11.5185214,7.78156174 11.1787395,7.42338954 11.1787395,6.98156174 C11.1787395,6.53973394 11.5185214,6.18156174 11.9376637,6.18156174 Z M17.18862,6.24398917 C17.4718603,6.24398917 17.7014719,6.47063596 17.7014719,6.75021894 C17.7014719,7.02980193 17.4718603,7.25644871 17.18862,7.25644871 C16.9053798,7.25644871 16.6757682,7.02980193 16.6757682,6.75021894 C16.6757682,6.47063596 16.9053798,6.24398917 17.18862,6.24398917 Z M6.63852539,6.24398915 C6.92176563,6.24398915 7.15137721,6.47063594 7.15137721,6.75021892 C7.15137721,7.02980191 6.92176563,7.2564487 6.63852539,7.2564487 C6.35528515,7.2564487 6.12567357,7.02980191 6.12567357,6.75021892 C6.12567357,6.47063594 6.35528515,6.24398915 6.63852539,6.24398915 Z M14.7453725,4.65298126 C15.0286128,4.65298126 15.2582243,4.87962805 15.2582243,5.15921103 C15.2582243,5.43879401 15.0286128,5.6654408 14.7453725,5.6654408 C14.4621323,5.6654408 14.2325207,5.43879401 14.2325207,5.15921103 C14.2325207,4.87962805 14.4621323,4.65298126 14.7453725,4.65298126 Z M9.1295199,4.65298126 C9.41276014,4.65298126 9.64237172,4.87962805 9.64237172,5.15921103 C9.64237172,5.43879401 9.41276014,5.6654408 9.1295199,5.6654408 C8.84627966,5.6654408 8.61666808,5.43879401 8.61666808,5.15921103 C8.61666808,4.87962805 8.84627966,4.65298126 9.1295199,4.65298126 Z M11.9135727,4.07415562 C12.196813,4.07415562 12.4264246,4.30080241 12.4264246,4.58038539 C12.4264246,4.85996838 12.196813,5.08661517 11.9135727,5.08661517 C11.6303325,5.08661517 11.4007209,4.85996838 11.4007209,4.58038539 C11.4007209,4.30080241 11.6303325,4.07415562 11.9135727,4.07415562 Z"/>
</svg>
