<svg xmlns="http://www.w3.org/2000/svg" width="24" height="24" viewBox="0 0 24 24">
  <path fill="#6C7F86" fill-rule="evenodd" d="M12,1.24344979e-13 C18.616999,1.24344979e-13 24,5.38378804 24,12.000787 C24,18.6185729 18.616999,24.000787 12,24.000787 C5.38457503,24.000787 0,18.6185729 0,12.000787 C0,5.38378804 5.38457503,1.24344979e-13 12,1.24344979e-13 Z M12,0.761017838 C5.8024659,0.761017838 0.761017838,5.80325289 0.761017838,12.000787 C0.761017838,18.1975341 5.8024659,23.2405561 12,23.2405561 C18.1975341,23.2405561 23.2389822,18.1975341 23.2389822,12.000787 C23.2389822,5.80325289 18.1975341,0.761017838 12,0.761017838 Z M12.0524336,15.0572772 C12.2583691,15.0572772 12.4263691,15.2207833 12.4263691,15.4244089 L12.4263691,17.7884338 C12.4263691,17.9905454 12.2583691,18.1540514 12.0524336,18.1540514 C11.8441755,18.1540514 11.6784981,17.9905454 11.6784981,17.7884338 L11.6784981,15.4244089 C11.6784981,15.2207833 11.8441755,15.0572772 12.0524336,15.0572772 Z M15.0130113,14.3867197 L16.629292,16.0024916 C16.7675169,16.1399419 16.7675169,16.3636641 16.629292,16.5011144 C16.5590825,16.5705707 16.4705893,16.6056643 16.3791707,16.6056643 C16.2899462,16.6056643 16.1977962,16.5705707 16.1290495,16.5011144 L14.5135002,14.8860737 C14.3760066,14.7493545 14.3760066,14.5249011 14.5135002,14.3867197 C14.6517251,14.2485384 14.8762491,14.2485384 15.0130113,14.3867197 Z M9.25222432,14.3867197 C9.39048187,14.5249011 9.39048187,14.7493545 9.25222432,14.8860737 L7.63629341,16.5011144 C7.56753039,16.5705707 7.4760902,16.6056643 7.38684459,16.6056643 C7.2954044,16.6056643 7.20615878,16.5705707 7.13593272,16.5011144 C6.99913821,16.3636641 6.99913821,16.1399419 7.13593272,16.0024916 L8.75259516,14.3867197 C8.89085271,14.2485384 9.11396676,14.2485384 9.25222432,14.3867197 Z M11.9869537,9.47651778 C13.2682943,9.47651778 14.3099365,10.5189644 14.3099365,11.7986962 C14.3099365,13.0792325 13.2682943,14.1216791 11.9869537,14.1216791 C10.7064175,14.1216791 9.66477523,13.0792325 9.66477523,11.7986962 C9.66477523,10.5189644 10.7064175,9.47651778 11.9869537,9.47651778 Z M11.9869537,10.2543309 C11.1351397,10.2543309 10.4425884,10.9468823 10.4425884,11.7986962 C10.4425884,12.6505102 11.1351397,13.3430616 11.9869537,13.3430616 C12.839572,13.3430616 13.531319,12.6505102 13.531319,11.7986962 C13.531319,10.9468823 12.839572,10.2543309 11.9869537,10.2543309 Z M8.18668371,11.4794922 C8.38803838,11.4794922 8.55230139,11.646718 8.55230139,11.8542019 C8.55230139,12.0609115 8.38803838,12.2273632 8.18668371,12.2273632 L5.82114488,12.2273632 C5.61903324,12.2273632 5.4555272,12.0609115 5.4555272,11.8542019 C5.4555272,11.646718 5.61903324,11.4794922 5.82114488,11.4794922 L8.18668371,11.4794922 Z M18.0222168,11.4794922 C18.2236207,11.4794922 18.3879239,11.646718 18.3879239,11.8542019 C18.3879239,12.0609115 18.2236207,12.2273632 18.0222168,12.2273632 L15.6568568,12.2273632 C15.4554529,12.2273632 15.2911497,12.0609115 15.2911497,11.8542019 C15.2911497,11.646718 15.4554529,11.4794922 15.6568568,11.4794922 L18.0222168,11.4794922 Z M7.46194995,7.1492098 L9.07788086,8.76463191 C9.21613842,8.90284594 9.21613842,9.12662102 9.07788086,9.26410376 C9.00984936,9.33357642 8.91840918,9.36867839 8.82770052,9.36867839 C8.73699186,9.36867839 8.64701472,9.33357642 8.5782517,9.26410376 L6.96158927,7.64868164 C6.82479475,7.5119302 6.82479475,7.28742382 6.96158927,7.1492098 C7.10057834,7.01172706 7.32369239,7.01172706 7.46194995,7.1492098 Z M16.8689593,7.1492098 C17.0071842,7.28742382 17.0071842,7.5119302 16.8689593,7.64868164 L15.2526787,9.26410376 C15.1839319,9.33357642 15.0947074,9.36867839 15.0032888,9.36867839 C14.9133329,9.36867839 14.8226456,9.33357642 14.7531675,9.26410376 C14.615674,9.12662102 14.615674,8.90284594 14.7531675,8.76463191 L16.3687168,7.1492098 C16.5076731,7.01172706 16.7307344,7.01172706 16.8689593,7.1492098 Z M12.0524336,5.58589812 C12.2583691,5.58589812 12.4263691,5.750121 12.4263691,5.95218324 L12.4263691,8.31714398 C12.4263691,8.51844944 12.2583691,8.68267232 12.0524336,8.68267232 C11.8441755,8.68267232 11.6784981,8.51844944 11.6784981,8.31714398 L11.6784981,5.95218324 C11.6784981,5.750121 11.8441755,5.58589812 12.0524336,5.58589812 Z"/>
</svg>
