<svg xmlns="http://www.w3.org/2000/svg" width="24" height="24" viewBox="0 0 24 24">
  <path fill="#00FFF6" fill-rule="evenodd" d="M12,0.760992885 C5.8024659,0.760992885 0.761017838,5.8030626 0.761017838,12.0003935 C0.761017838,18.1969374 5.8024659,23.2397941 12,23.2397941 C18.1975341,23.2397941 23.2389822,18.1969374 23.2389822,12.0003935 C23.2389822,5.8030626 18.1975341,0.760992885 12,0.760992885 M12,0 C18.616212,0 24,5.3836115 24,12.0003935 C24,18.6179624 18.616212,24 12,24 C5.38378804,24 0,18.6179624 0,12.0003935 C0,5.3836115 5.38378804,0 12,0 Z M6.52185205,12.904771 C5.87179958,12.904771 5.26109654,13.1920123 4.85028856,13.6893727 L4.85028856,13.6893727 L4.27106506,14.3669476 C4.15144281,14.5078139 4.16796957,14.7187199 4.30805352,14.8391252 C4.44813746,14.9587435 4.65983736,14.9422173 4.78024659,14.8021379 L4.78024659,14.8021379 L5.36261805,14.1198413 C5.92295383,13.4391186 7.04677335,13.4021314 7.66534627,14.0993803 L7.66534627,14.0993803 L8.53969045,14.9540217 C9.32825289,15.8810637 10.8589454,15.9550382 11.7380115,15.074427 L11.7380115,15.074427 L12.66351,14.0726235 C13.2356506,13.4343968 14.3248426,13.4210185 14.9253148,14.0993803 L14.9253148,14.0993803 L15.800446,14.9540217 C16.2136149,15.4403646 16.8164481,15.7189494 17.4546957,15.7189494 C18.0347062,15.7189494 18.5793022,15.4938781 18.9657135,15.1059055 L18.9657135,15.1059055 L19.686595,14.5133226 C19.8298269,14.3960652 19.8502886,14.1851592 19.7330273,14.042719 C19.614979,13.8987048 19.4040661,13.8790307 19.2616212,13.9970751 L19.2616212,13.9970751 L18.5171301,14.610906 C17.9213799,15.2066367 16.8738982,15.1830278 16.2891658,14.4983703 L16.2891658,14.4983703 L15.4100997,13.6390071 C14.5908447,12.7096042 12.9885362,12.7072433 12.1692812,13.6224809 L12.1692812,13.6224809 L11.2563746,14.610906 C10.6606243,15.2058498 9.6139297,15.1830278 9.02919727,14.4983703 L9.02919727,14.4983703 L8.15013116,13.6390071 C7.73774921,13.1723383 7.14435992,12.904771 6.52185205,12.904771 Z M6.52185205,8.64635866 C5.87179958,8.64635866 5.26109654,8.93438699 4.85028856,9.43174738 L4.85028856,9.43174738 L4.27185205,10.1085353 C4.15144281,10.2494016 4.16796957,10.4610945 4.30805352,10.5807129 C4.44735047,10.7003312 4.65905037,10.6845919 4.7794596,10.5437256 L4.7794596,10.5437256 L5.36261805,9.86221596 C5.92452781,9.18228022 7.04834732,9.14450602 7.66534627,9.84096796 L7.66534627,9.84096796 L8.54047744,10.6963964 C9.32982686,11.6242253 10.8581584,11.6974129 11.7380115,10.8160147 L11.7380115,10.8160147 L12.66351,9.8149982 C13.2364376,9.1744106 14.3248426,9.16260616 14.9253148,9.84096796 L14.9253148,9.84096796 L15.800446,10.6963964 C16.2144019,11.1827393 16.817235,11.4613241 17.4546957,11.4613241 C18.0339192,11.4613241 18.5793022,11.2354658 18.9649265,10.8474932 L18.9649265,10.8474932 L19.686595,10.2556973 C19.8298269,10.1384398 19.8502886,9.92832082 19.7330273,9.78509362 C19.616553,9.64186641 19.4056401,9.62061842 19.2624082,9.73944978 L19.2624082,9.73944978 L18.5171301,10.3524937 C17.9198059,10.9482244 16.8754722,10.9254025 16.2891658,10.240745 L16.2891658,10.240745 L15.4100997,9.38059481 C14.5908447,8.45197888 12.9901102,8.44804407 12.1692812,9.36485556 L12.1692812,9.36485556 L11.2563746,10.3524937 C10.6606243,10.9482244 9.61629066,10.9261895 9.02919727,10.240745 L9.02919727,10.240745 L8.15013116,9.38059481 C7.73774921,8.91392596 7.14435992,8.64635866 6.52185205,8.64635866 Z"/>
</svg>
