<svg width="24" height="24" viewBox="0 0 24 24" fill="none" xmlns="http://www.w3.org/2000/svg">
<path d="M20.2 14.99C18.2 17.4 15.27 18.94 12 18.94C8.73001 18.94 5.81 17.41 3.8 14.99C2.4 13.3 2.4 10.7 3.8 9.00999C5.8 6.59999 8.73001 5.06 12 5.06C15.27 5.06 18.19 6.58999 20.2 9.00999C21.6 10.7 21.6 13.3 20.2 14.99Z" stroke="#B9C5D5" stroke-width="1.2" stroke-linecap="round" stroke-linejoin="round"/>
<path d="M20.2 14.99C18.2 17.4 15.27 18.94 12 18.94C8.73001 18.94 5.81 17.41 3.8 14.99C2.4 13.3 2.4 10.7 3.8 9.00999C5.8 6.59999 8.73001 5.06 12 5.06C15.27 5.06 18.19 6.58999 20.2 9.00999C21.6 10.7 21.6 13.3 20.2 14.99Z" stroke="#B9C5D5" stroke-width="1.2" stroke-linecap="round" stroke-linejoin="round"/>
<path fill-rule="evenodd" clip-rule="evenodd" d="M11.9999 15.08C10.2989 15.08 8.91992 13.701 8.91992 12C8.91992 10.2989 10.2989 8.91998 11.9999 8.91998C13.7009 8.91998 15.0799 10.2989 15.0799 12C15.0799 13.701 13.7009 15.08 11.9999 15.08Z" stroke="#B9C5D5" stroke-width="1.2" stroke-linecap="round" stroke-linejoin="round"/>
</svg>
