<svg width="24" height="24" viewBox="0 0 24 24" fill="none" xmlns="http://www.w3.org/2000/svg">
<path d="M14.52 18.63C13.71 18.84 12.87 18.94 12 18.94C8.73 18.94 5.8 17.41 3.8 14.99C2.4 13.3 2.4 10.69 3.8 9.00999C3.96 8.80999 4.14 8.61999 4.32 8.42999" stroke="#B9C5D5" stroke-width="1.2" stroke-linecap="round" stroke-linejoin="round"/>
<path d="M17.3998 17.41L6.58984 6.59C8.17984 5.61 10.0198 5.06 11.9998 5.06C15.2698 5.06 18.1998 6.59 20.1998 9.01C21.5998 10.69 21.5998 13.31 20.1998 14.99C19.3998 15.95 18.4498 16.77 17.3998 17.41Z" stroke="#B9C5D5" stroke-width="1.2" stroke-linecap="round" stroke-linejoin="round"/>
<path d="M14.1803 14.18L9.82031 9.82005C10.3703 9.26005 11.1503 8.92004 12.0003 8.92004C13.7103 8.92004 15.0803 10.29 15.0803 12C15.0803 12.85 14.7303 13.62 14.1803 14.18Z" stroke="#B9C5D5" stroke-width="1.2" stroke-linecap="round" stroke-linejoin="round"/>
<path d="M2.75 2.75L6.59 6.59L9.82 9.82L14.18 14.18L17.41 17.41L21.25 21.25" stroke="#B9C5D5" stroke-width="1.2" stroke-linecap="round" stroke-linejoin="round"/>
</svg>
