<svg width="24" height="24" viewBox="0 0 24 24" fill="none" xmlns="http://www.w3.org/2000/svg">
<path fill-rule="evenodd" clip-rule="evenodd" d="M12.25 21.5C7.14137 21.5 3 17.3586 3 12.25C3 7.14137 7.14137 3 12.25 3C17.3586 3 21.5 7.14137 21.5 12.25C21.5 17.3586 17.3586 21.5 12.25 21.5Z" stroke="#B9C5D5" stroke-width="1.2" stroke-linecap="round" stroke-linejoin="round"/>
<line x1="12.35" y1="16.85" x2="12.35" y2="16.65" stroke="#B9C5D5" stroke-width="1.2" stroke-linecap="round"/>
<path d="M9.15 10.1324C9.15 10.4637 9.41863 10.7324 9.75 10.7324C10.0814 10.7324 10.35 10.4637 10.35 10.1324H9.15ZM13.2084 12.0753L12.8672 11.5817L12.8672 11.5817L13.2084 12.0753ZM11.65 14.25C11.65 14.5814 11.9186 14.85 12.25 14.85C12.5814 14.85 12.85 14.5814 12.85 14.25H11.65ZM10.35 10.1324C10.35 9.2162 10.6073 8.66377 10.9265 8.34112C11.2476 8.01656 11.705 7.85 12.25 7.85V6.65C11.4617 6.65 10.669 6.8952 10.0735 7.49712C9.47606 8.10093 9.15 8.98968 9.15 10.1324H10.35ZM12.25 7.85C12.7974 7.85 13.2705 8.0188 13.599 8.31398C13.9177 8.60027 14.15 9.04904 14.15 9.72059H15.35C15.35 8.74508 14.999 7.95856 14.401 7.42131C13.8129 6.89296 13.036 6.65 12.25 6.65V7.85ZM14.15 9.72059C14.15 10.3374 13.6677 11.0284 12.8672 11.5817L13.5496 12.5688C14.469 11.9333 15.35 10.9282 15.35 9.72059H14.15ZM12.85 14.25V13.689H11.65V14.25H12.85ZM12.8672 11.5817C12.2193 12.0296 11.65 12.7695 11.65 13.689H12.85C12.85 13.2908 13.1048 12.8762 13.5496 12.5688L12.8672 11.5817Z" fill="#B9C5D5"/>
</svg>
