<?xml version="1.0" encoding="utf-8"?>
<!-- Generator: Adobe Illustrator 19.0.0, SVG Export Plug-In . SVG Version: 6.00 Build 0)  -->
<!DOCTYPE svg PUBLIC "-//W3C//DTD SVG 1.1//EN" "http://www.w3.org/Graphics/SVG/1.1/DTD/svg11.dtd">
<svg version="1.1" id="圖層_3" xmlns="http://www.w3.org/2000/svg" xmlns:xlink="http://www.w3.org/1999/xlink" x="0px" y="0px"
	 viewBox="0 0 42.4 34.9" enable-background="new 0 0 42.4 34.9" xml:space="preserve" fill="#F8F9F9">
<g>
	<g>
		<path d="M19.8,7.1v3.6c5,0,8.9,3.9,8.9,8.9h3.6C32.2,12.6,26.7,7.1,19.8,7.1L19.8,7.1z"/>
		<path d="M19.8,14.5v5.7h5.6C25.4,16.9,23,14.5,19.8,14.5L19.8,14.5z"/>
		<path d="M19.8,0v3.5c8.9,0,16,7.1,16,16h3.6C39.4,8.7,30.6,0,19.8,0L19.8,0z"/>
		<path d="M9,0.5c2.8,0,5.1,2.3,5.1,5.1c0,2.8-2.3,5.1-5.1,5.1C6.3,10.7,4,8.4,4,5.6C4,2.8,6.3,0.5,9,0.5z"/>
		<path d="M17,19.6H1.5v-2.3c0-3.2,2.2-6,5.4-6h4.6c3.2,0,5.4,2.8,5.4,6V19.6z"/>
	</g>
	<g>
		<path d="M0,27.1c0-2.2,2-3.4,4.1-3.4c1.5,0,3.1,0.7,3.8,2.2l-1.2,0.5c-0.5-1-1.6-1.5-2.7-1.5c-1.4,0-2.8,0.7-2.8,2.1v4.3
			c0,1.4,1.4,2.1,2.8,2.1c1.4,0,2.8-0.7,2.8-2.1v-1.1H3.7v-1.3h4.5v2.3c0,2.3-2,3.4-4.1,3.4C2,34.9,0,33.7,0,31.4V27.1z"/>
		<path d="M15.1,34.3c-1.5,0.5-2.4,0.6-3.1,0.6c-1.5,0-3-0.9-3-2.6v-5.4h1.2v5.4c0,0.9,0.9,1.4,1.8,1.5c0.7,0,1.3-0.1,1.9-0.3v-6.6
			h1.2V34.3z"/>
		<path d="M17.2,32.3c0,1,0.9,1.4,1.8,1.4c0.7,0,1.5-0.3,1.8-1.1l1.1,0.5c-0.5,1.2-1.7,1.7-2.9,1.7c-1.5,0-3.1-0.9-3.1-2.6v-3
			c0-1.8,1.5-2.6,3.1-2.6c1.5,0,3,0.9,3,2.6v2.1h-4.9V32.3z M20.9,29.2c0-0.9-1-1.4-1.9-1.4c-1,0-1.8,0.5-1.8,1.5v1.1h3.7V29.2z"/>
		<path d="M23.3,32.6c0.5,0.8,1.4,1.1,2.3,1.1c0.7,0,1.5-0.4,1.5-1.3c0-0.9-0.9-1.1-1.6-1.2c-1.3-0.2-2.8-0.6-2.8-2.3
			c0-1.7,1.6-2.3,2.9-2.3c0.8,0,1.7,0.3,2.4,0.9l-0.7,0.9c-0.5-0.5-1.1-0.7-1.6-0.7c-0.7,0-1.7,0.3-1.7,1.2c0,0.9,1.1,1.1,1.8,1.2
			c1.2,0.2,2.5,0.7,2.5,2.3c0,1.6-1.3,2.4-2.7,2.4c-1.2,0-2.4-0.4-3.2-1.6L23.3,32.6z"/>
		<path d="M32.1,34.8c-0.2,0-0.3,0-0.5,0c-1.6,0-2.8-1-2.8-2.6v-7.5H30v2h1.6v1.1H30v4.3c0,0.9,0.8,1.8,2,1.5V34.8z"/>
		<path d="M34.7,25.9c0.8-1.4,2.3-2.1,3.7-2.1c3.8,0,4.7,3.8,2.3,6.2L38,32.7l0,0.1l1.5-0.1l2.6,0v2.2h-7l-0.5-1.3l4.6-5
			c1.1-1.1,0.8-2.6-0.8-2.6c-0.8,0-1.6,0.4-2,1.2L34.7,25.9z"/>
	</g>
</g>
</svg>
