<?xml version="1.0" encoding="utf-8"?>
<!-- Generator: Adobe Illustrator 19.0.0, SVG Export Plug-In . SVG Version: 6.00 Build 0)  -->
<!DOCTYPE svg PUBLIC "-//W3C//DTD SVG 1.1//EN" "http://www.w3.org/Graphics/SVG/1.1/DTD/svg11.dtd">
<svg version="1.1" id="圖層_3" xmlns="http://www.w3.org/2000/svg" xmlns:xlink="http://www.w3.org/1999/xlink" x="0px" y="0px"
	 viewBox="0 0 39.3 34.9" enable-background="new 0 0 39.3 34.9" xml:space="preserve" fill="#F8F9F9">
<g>
	<g>
		<path d="M19.8,7.1v3.6c5,0,8.9,3.9,8.9,8.9h3.6C32.2,12.6,26.7,7.1,19.8,7.1L19.8,7.1z"/>
		<path d="M19.8,14.5v5.7h5.6C25.4,16.9,23,14.5,19.8,14.5L19.8,14.5z"/>
		<path d="M19.8,0v3.5c8.9,0,16,7.1,16,16h3.6C39.4,8.7,30.6,0,19.8,0L19.8,0z"/>
		<path d="M9,0.5c2.8,0,5.1,2.3,5.1,5.1c0,2.8-2.3,5.1-5.1,5.1C6.3,10.7,4,8.4,4,5.6C4,2.8,6.3,0.5,9,0.5z"/>
		<path d="M17,19.6H1.5v-2.3c0-3.2,2.2-6,5.4-6h4.6c3.2,0,5.4,2.8,5.4,6V19.6z"/>
	</g>
</g>
</svg>
