<?xml version="1.0" encoding="utf-8"?>
<!-- Generator: Adobe Illustrator 21.0.0, SVG Export Plug-In . SVG Version: 6.00 Build 0)  -->
<svg version="1.1" id="圖層_1" xmlns:sketch="http://www.bohemiancoding.com/sketch/ns"
	 xmlns="http://www.w3.org/2000/svg" xmlns:xlink="http://www.w3.org/1999/xlink" x="0px" y="0px" viewBox="0 0 72 72"
	 style="enable-background:new 0 0 72 72;" xml:space="preserve">
<style type="text/css">
	.st0{fill:#CFC7C7;}
</style>
<g id="_x31_111" sketch:type="MSPage">
	<g id="Artboard-5" transform="translate(-3777.000000, -310.000000)" sketch:type="MSArtboardGroup">
		<g id="Imported-Layers-Copy-90" transform="translate(3784.000000, 326.000000)" sketch:type="MSLayerGroup">
			<path id="Fill-1" sketch:type="MSShapeGroup" class="st0" d="M50.7,0.3H7c-1.7,0-3.1,1.5-3.1,3.3v26.5c0,1.8,1.4,3.3,3.1,3.3
				h43.7c1.7,0,3.1-1.5,3.1-3.3V3.6C53.8,1.8,52.4,0.3,50.7,0.3L50.7,0.3z M48.7,27.5c0,1.5-1.1,2.6-2.5,2.6H11.5
				c-1.4,0-2.5-1.2-2.5-2.6V6.3c0-1.5,1.1-2.6,2.5-2.6h34.8c1.4,0,2.5,1.2,2.5,2.6L48.7,27.5L48.7,27.5z"/>
			<path id="Fill-2" sketch:type="MSShapeGroup" class="st0" d="M57.5,35.2H0.2c0,0.2-0.1,0.4-0.1,0.6v0.8c0,1.8,1.4,3.3,3.1,3.3
				h51.1c1.7,0,3.1-1.5,3.1-3.3v-0.8C57.5,35.5,57.5,35.3,57.5,35.2L57.5,35.2z M47.8,38.4h-2.7c-0.3,0-0.6-0.3-0.6-0.6
				s0.3-0.6,0.6-0.6h2.7c0.3,0,0.6,0.3,0.6,0.6C48.4,38.1,48.1,38.4,47.8,38.4L47.8,38.4z M52.3,38.3h-2.7c-0.3,0-0.6-0.3-0.6-0.6
				s0.3-0.6,0.6-0.6h2.7c0.3,0,0.6,0.3,0.6,0.6C52.9,38,52.7,38.3,52.3,38.3L52.3,38.3z"/>
		</g>
	</g>
</g>
</svg>
