<svg xmlns="http://www.w3.org/2000/svg" width="24" height="24" viewBox="0 0 24 24">
  <path fill="#FFF" fill-rule="evenodd" d="M10.75,13.25 L3.25,13.25 C2.55964406,13.25 2,12.6903559 2,12 C2,11.3096441 2.55964406,10.75 3.25,10.75 L10.75,10.75 L10.75,3.25 C10.75,2.55964406 11.3096441,2 12,2 C12.6903559,2 13.25,2.55964406 13.25,3.25 L13.25,10.75 L20.75,10.75 C21.4403559,10.75 22,11.3096441 22,12 C22,12.6903559 21.4403559,13.25 20.75,13.25 L13.25,13.25 L13.25,20.75 C13.25,21.4403559 12.6903559,22 12,22 C11.3096441,22 10.75,21.4403559 10.75,20.75 L10.75,13.25 L10.75,13.25 Z" transform="rotate(-45 12 12)"/>
</svg>
