<?xml version="1.0" encoding="utf-8"?>
<!-- Generator: Adobe Illustrator 27.7.0, SVG Export Plug-In . SVG Version: 6.00 Build 0)  -->
<svg version="1.1" id="圖層_1" xmlns="http://www.w3.org/2000/svg" xmlns:xlink="http://www.w3.org/1999/xlink" x="0px" y="0px"
	 viewBox="0 0 45.4 45.4" style="enable-background:new 0 0 45.4 45.4;" xml:space="preserve">
<style type="text/css">
	.st0{fill:#F9A11D;}
	.st1{fill:#2C3C69;}
</style>
<g>
	<path class="st0" d="M32.9,24.3H27v-2.9c0-2.3-1.9-4.1-4.4-4.1c-2.4,0-4.4,1.9-4.4,4.1v2.9h-5.9v-2.9c0-5.4,4.6-9.8,10.2-9.8
		c5.7,0,10.2,4.4,10.2,9.8L32.9,24.3L32.9,24.3z"/>
	<path class="st1" d="M9.9,24.3h25.6c1.1,0,1.9,0.8,2,1.8v17.5c0,1-0.9,1.8-2,1.8H9.9c-1.1,0-1.9-0.8-2-1.8V26.2
		C7.9,25.2,8.8,24.4,9.9,24.3z M24,38.2v-2.3c1.1-0.5,1.5-1.7,1.3-2.7c-0.3-1.1-1.4-1.8-2.6-1.8c-1.2,0-2.2,0.7-2.6,1.8
		s0.2,2.2,1.3,2.7v2.3c0,0.6,0.6,1.1,1.3,1.1C23.3,39.3,24,38.8,24,38.2z"/>
	<path class="st0" d="M20.9,7.6c0,0.9,0.7,1.7,1.7,1.7c1,0,1.7-0.7,1.7-1.7V1.7c0-0.9-0.7-1.7-1.7-1.7c-1,0-1.7,0.7-1.7,1.7V7.6z
		 M12,13.2c-0.4,0-0.9-0.1-1.1-0.4L6.1,9.1C5.4,8.5,5.2,7.4,5.9,6.7C6.4,6,7.6,5.9,8.4,6.5l4.7,3.7c0.5,0.4,0.7,1.2,0.5,1.9
		C13.4,12.7,12.7,13.2,12,13.2z M7.7,22.3h-6c-1,0-1.7-0.7-1.7-1.7c0-0.9,0.7-1.7,1.7-1.7h6c1,0,1.7,0.7,1.7,1.7
		C9.5,21.5,8.7,22.3,7.7,22.3z M33.4,13.2c-0.7,0-1.4-0.4-1.6-1.1c-0.2-0.7,0-1.4,0.5-1.9L37,6.5c0.7-0.6,1.8-0.5,2.5,0.3
		c0.6,0.7,0.5,1.7-0.2,2.3l-4.7,3.7C34.2,13,33.8,13.2,33.4,13.2z M37.6,22.3h6.1c1,0,1.7-0.7,1.7-1.7c0-0.9-0.7-1.7-1.7-1.7h-6.1
		c-1,0-1.7,0.7-1.7,1.7C35.8,21.5,36.6,22.3,37.6,22.3z"/>
</g>
</svg>
