<svg width="24" height="24" viewBox="0 0 24 24" fill="none" xmlns="http://www.w3.org/2000/svg">
<path fill-rule="evenodd" clip-rule="evenodd" d="M14.4606 8.28996L12.0006 5.82996L9.53062 8.28996C9.14062 8.67996 8.51063 8.67996 8.12062 8.28996C7.73063 7.89996 7.73063 7.26996 8.12062 6.87996L11.2906 3.69996C11.4775 3.5127 11.7311 3.40747 11.9956 3.40747C12.2601 3.40747 12.5138 3.5127 12.7006 3.69996L15.8706 6.87996C16.2606 7.26996 16.2606 7.89996 15.8706 8.28996C15.4806 8.67996 14.8506 8.67996 14.4606 8.28996ZM9.54062 15.71L12.0006 18.17L14.4706 15.72C14.6575 15.5327 14.9111 15.4275 15.1756 15.4275C15.4401 15.4275 15.6938 15.5327 15.8806 15.72C16.2706 16.11 16.2706 16.74 15.8806 17.13L12.7106 20.3C12.3206 20.69 11.6906 20.69 11.3006 20.3L8.13062 17.12C7.74063 16.73 7.74063 16.1 8.13062 15.71C8.31746 15.5227 8.57111 15.4175 8.83563 15.4175C9.10014 15.4175 9.35379 15.5227 9.54062 15.71Z" fill="#666666"/>
</svg>
