<svg width="24" height="24" viewBox="0 0 24 24" fill="none" xmlns="http://www.w3.org/2000/svg">
<path fill-rule="evenodd" clip-rule="evenodd" d="M15.1756 4.40747C15.4401 4.40747 15.6938 4.5127 15.8806 4.69996C16.2706 5.08996 16.2706 5.72996 15.8706 6.11996L12.7006 9.28996C12.3106 9.67996 11.6806 9.67996 11.2906 9.28996L8.12062 6.11996C7.73063 5.72996 7.73063 5.08996 8.12062 4.69996C8.30746 4.5127 8.56111 4.40747 8.82563 4.40747C9.09014 4.40747 9.34379 4.5127 9.53062 4.69996L12.0006 7.16996L14.4706 4.69996C14.6575 4.5127 14.9111 4.40747 15.1756 4.40747ZM12.0006 16.83L9.53062 19.3C9.14062 19.69 8.51063 19.69 8.12063 19.3C7.73063 18.91 7.73062 18.27 8.13063 17.89L11.3006 14.72C11.4875 14.5327 11.7411 14.4275 12.0056 14.4275C12.2701 14.4275 12.5238 14.5327 12.7106 14.72L15.8806 17.89C16.2706 18.28 16.2706 18.91 15.8806 19.3C15.4906 19.69 14.8606 19.69 14.4706 19.3L12.0006 16.83Z" fill="#666666"/>
</svg>
