<svg width="430" height="180" viewBox="0 0 430 180" fill="none" xmlns="http://www.w3.org/2000/svg">
<path d="M88.75 40.2598C110.82 42.6298 128 61.3 128 84C128 103.23 115.68 119.57 98.5 125.56C91.26 128.16 85.9504 132.96 84.4404 138.66C84.3203 139.12 83.6797 139.12 83.5596 138.66C82.0396 132.96 76.74 128.15 69.5 125.56C52.3301 119.56 40.0001 103.22 40 84C40 61.31 57.18 42.6298 79.25 40.2598V48.8301C61.91 51.1601 48.5 66.04 48.5 84C48.5001 103.57 64.4301 119.5 84 119.5C103.57 119.5 119.5 103.57 119.5 84C119.5 66.04 106.09 51.1601 88.75 48.8301V40.2598Z" fill="#00D2C4"/>
<path d="M88.75 57.4297C101.4 59.6697 111 70.71 111 84C111 98.9099 98.9099 111 84 111C69.0901 111 57.0002 98.9099 57 84C57 70.71 66.6 59.6797 79.25 57.4297V66.1396C71.34 68.2396 65.5 75.43 65.5 84C65.5002 94.2199 73.7801 102.5 84 102.5C94.2199 102.5 102.5 94.2199 102.5 84C102.5 75.43 96.66 68.2396 88.75 66.1396V57.4297Z" fill="#00D2C4"/>
<path d="M153.95 60.9902C154.39 60.9903 154.75 61.3502 154.75 61.79V94.9902C154.8 98.5202 155.81 101.26 157.74 103.12C159.63 105.08 162.11 106.08 165.08 106.08C168.05 106.08 170.54 105.09 172.48 103.13C174.38 101.27 175.36 98.53 175.41 94.9902V61.7998C175.41 61.36 175.77 61.0001 176.21 61H181.28L181.29 60.9902C181.73 60.9902 182.09 61.3501 182.09 61.79V95.8105C182 101 180.36 105.17 177.2 108.21C174.02 111.34 169.95 112.95 165.09 112.99C160.31 112.95 156.27 111.34 153.061 108.2C149.801 105.16 148.12 100.99 148.08 95.8105V61.79C148.08 61.3502 148.44 60.9903 148.88 60.9902H153.95Z" fill="#00D2C4"/>
<path d="M195.95 60.9902C196.39 60.9903 196.75 61.3502 196.75 61.79V94.9902C196.8 98.5202 197.81 101.26 199.74 103.12C201.63 105.08 204.11 106.08 207.08 106.08C210.05 106.08 212.54 105.09 214.48 103.13C216.38 101.27 217.36 98.53 217.41 94.9902V61.7998C217.41 61.36 217.77 61.0001 218.21 61H223.28L223.29 60.9902C223.73 60.9902 224.09 61.3501 224.09 61.79V95.8105C224 101 222.36 105.17 219.2 108.21C216.02 111.34 211.95 112.95 207.09 112.99C202.31 112.95 198.27 111.34 195.061 108.2C191.801 105.16 190.12 100.99 190.08 95.8105V61.79C190.08 61.3502 190.44 60.9903 190.88 60.9902H195.95Z" fill="#00D2C4"/>
<path d="M241.68 60C241.9 60 242.08 60.1804 242.08 60.4004V64H254.49C255.37 64.0001 256.09 64.7198 256.09 65.5996V111.6C256.09 111.819 255.91 112 255.69 112H243.74C243.44 112 243.25 111.69 243.38 111.42L245.48 107.22C245.551 107.09 245.69 107 245.84 107H251.09V69H242.07L237.63 111.64C237.61 111.85 237.43 112 237.23 112H232.53C232.29 112 232.11 111.8 232.13 111.56L236.561 69H231.48C231.26 69 231.08 68.8196 231.08 68.5996V64.4004C231.08 64.1804 231.26 64 231.48 64H237.08V60.4004C237.08 60.1804 237.26 60 237.48 60H241.68Z" fill="#00D2C4"/>
<path fill-rule="evenodd" clip-rule="evenodd" d="M278.48 62C279.36 62.0002 280.08 62.7199 280.08 63.5996V111.6C280.08 111.82 279.9 112 279.68 112H260.48C260.26 112 260.08 111.82 260.08 111.6V63.5996C260.08 62.7199 260.8 62.0002 261.68 62H278.48ZM265.08 107H275.08V67H265.08V107Z" fill="#00D2C4"/>
<path d="M291.68 74C291.9 74 292.08 74.1804 292.08 74.4004V107H335.68C335.9 107 336.08 107.18 336.08 107.4V111.6C336.08 111.82 335.9 112 335.68 112H287.48C287.26 112 287.08 111.82 287.08 111.6V74.4004C287.08 74.1804 287.26 74 287.48 74H291.68Z" fill="#00D2C4"/>
<path fill-rule="evenodd" clip-rule="evenodd" d="M362.48 97C363.36 97.0002 364.08 97.7199 364.08 98.5996V111.6C364.08 111.82 363.9 112 363.68 112H342.48C342.26 112 342.08 111.82 342.08 111.6V98.5996C342.08 97.7199 342.8 97.0002 343.68 97H362.48ZM347.08 108H359.08V101H347.08V108Z" fill="#00D2C4"/>
<path fill-rule="evenodd" clip-rule="evenodd" d="M388.48 97C389.36 97.0002 390.08 97.7199 390.08 98.5996V111.6C390.08 111.82 389.9 112 389.68 112H368.48C368.26 112 368.08 111.82 368.08 111.6V98.5996C368.08 97.7199 368.8 97.0002 369.68 97H388.48ZM373.08 108H385.08V101H373.08V108Z" fill="#00D2C4"/>
<path fill-rule="evenodd" clip-rule="evenodd" d="M317.689 60C317.909 60 318.09 60.1804 318.09 60.4004V63H334.689C334.909 63 335.09 63.1804 335.09 63.4004V67.5996C335.09 67.8196 334.909 68 334.689 68H318.09V72H332.03C332.89 72.0002 333.59 72.7199 333.59 73.5996V87.5996C333.59 87.8195 333.41 87.9998 333.2 88H318.09V103.6C318.09 103.82 317.909 104 317.689 104H313.49C313.27 104 313.09 103.82 313.09 103.6V88H312.72L302.21 103.82C302.13 103.93 302.01 104 301.87 104H296.82C296.5 104 296.31 103.66 296.479 103.4L306.71 88H297.97C297.75 87.9999 297.58 87.8196 297.58 87.5996V73.5996C297.58 72.7199 298.28 72.0001 299.14 72H313.08V68H296.49C296.27 68 296.09 67.8196 296.09 67.5996V63.4004C296.09 63.1804 296.27 63 296.49 63H313.09V60.4004C313.09 60.1804 313.27 60 313.49 60H317.689ZM302.58 83.5H313.08V76.5H302.58V83.5ZM318.08 83.5H328.58V76.5H318.08V83.5Z" fill="#00D2C4"/>
<path d="M325.76 90.2998C325.9 90.2998 326.03 90.3697 326.1 90.4795L334.68 103.39C334.85 103.65 334.66 103.99 334.34 103.99H329.29C329.15 103.99 329.02 103.92 328.95 103.81L320.37 90.8994C320.2 90.6394 320.39 90.2998 320.71 90.2998H325.76Z" fill="#00D2C4"/>
<path d="M368.18 78C368.4 78 368.58 78.1804 368.58 78.4004V81H386.08V78.4004C386.08 78.1804 386.26 78 386.48 78H389.68V78.0098C389.9 78.0098 390.08 78.1902 390.08 78.4102V84.6504C390.08 84.8502 389.9 85.0098 389.68 85.0098H372.94L389.79 89.9297C389.96 89.9796 390.08 90.1298 390.08 90.3096V94.46C390.08 94.73 389.81 94.9298 389.55 94.8398L366.08 87.0195L342.61 94.8398C342.35 94.9298 342.08 94.73 342.08 94.46V90.3096C342.08 90.1397 342.2 89.9796 342.37 89.9297L359.22 85.0098H342.48C342.261 85.0098 342.08 84.8502 342.08 84.6504V81.3604C342.08 81.1604 342.26 81 342.48 81H363.58V78.4004C363.58 78.1804 363.76 78 363.98 78H368.18Z" fill="#00D2C4"/>
<path fill-rule="evenodd" clip-rule="evenodd" d="M362.48 61C363.36 61.0002 364.08 61.7199 364.08 62.5996V75.5996C364.08 75.8196 363.9 76 363.68 76H342.48C342.26 76 342.08 75.8196 342.08 75.5996V62.5996C342.08 61.7199 342.8 61.0002 343.68 61H362.48ZM347.08 72H359.08V65H347.08V72Z" fill="#00D2C4"/>
<path fill-rule="evenodd" clip-rule="evenodd" d="M388.48 61C389.36 61.0002 390.08 61.7199 390.08 62.5996V75.5996C390.08 75.8196 389.9 76 389.68 76H368.48C368.26 76 368.08 75.8196 368.08 75.5996V62.5996C368.08 61.7199 368.8 61.0002 369.68 61H388.48ZM373.08 72H385.08V65H373.08V72Z" fill="#00D2C4"/>
<path d="M291.68 60C291.901 60 292.08 60.1795 292.08 60.4004V68.5996C292.08 68.8205 291.901 69 291.68 69H287.48C287.26 69 287.08 68.8205 287.08 68.5996V60.4004C287.08 60.1795 287.26 60 287.48 60H291.68Z" fill="#00D2C4"/>
</svg>
