<svg width="24" height="24" viewBox="0 0 24 24" fill="none" xmlns="http://www.w3.org/2000/svg">
<path fill-rule="evenodd" clip-rule="evenodd" d="M21 10.1503V17.9668C21 20.1943 19.2091 22 17 22H7C4.79086 22 3 20.1943 3 17.9668V10.1503C3 8.93937 3.53964 7.7925 4.46986 7.02652L9.46986 2.90935C10.9423 1.69689 13.0577 1.69688 14.5301 2.90935L19.5301 7.02652C20.4604 7.7925 21 8.93937 21 10.1503ZM15.5 12.6C15.5 15.0853 12 18 12 18C12 18 8.5 15.0853 8.5 12.6C8.5 10.1147 10.3431 9 12 9C13.6569 9 15.5 10.1147 15.5 12.6ZM13.5 12.5C13.5 13.3284 12.8284 14 12 14C11.1716 14 10.5 13.3284 10.5 12.5C10.5 11.6716 11.1716 11 12 11C12.8284 11 13.5 11.6716 13.5 12.5Z" fill="#D1DAE8"/>
</svg>
