<svg width="24" height="24" viewBox="0 0 24 24" fill="none" xmlns="http://www.w3.org/2000/svg">
<path fill-rule="evenodd" clip-rule="evenodd" d="M8.20412 5.2234C7.25918 4.89303 6.22454 4.93019 5.30573 5.32751C4.73971 5.57228 4.67954 6.35116 5.20126 6.67996L10.0871 9.7591C9.34288 10.1405 8.59021 10.5466 8.0043 10.9093C7.93897 10.9497 7.87296 10.9925 7.80677 11.0374C7.75906 11.0089 7.70892 10.9827 7.65637 10.9591L5.56657 10.0203C5.02841 9.77859 4.41097 9.78678 3.87941 10.0427L3.42742 10.2603C3.09317 10.4213 3.04442 10.8774 3.33711 11.1053L6.21764 13.3487C6.29779 13.4111 6.38307 13.4637 6.47188 13.5065C6.50986 13.5368 6.55249 13.5656 6.60003 13.5927C7.93693 14.3567 10.3197 13.9716 12.4857 13.15C14.5866 12.3531 18.9091 10.3865 20.1041 9.34079C21.026 8.53408 21.2992 7.54828 20.627 6.65191C19.9807 5.79012 18.3116 5.97973 17.7887 6.20376C17.0472 6.52147 15.8473 7.04797 14.7838 7.5238L8.20412 5.2234ZM15.6973 18.5273H3V20.9174H15.6973V18.5273Z" fill="#D1DAE8"/>
</svg>
