<svg xmlns="http://www.w3.org/2000/svg" xmlns:xlink="http://www.w3.org/1999/xlink" width="432" height="294" viewBox="0 0 432 294">
  <defs>
    <rect id="illustration02_100%-a" width="22.203" height="75.494" x=".023" y="0"/>
    <rect id="illustration02_100%-c" width="65.363" height="50.003" x="0" y="0"/>
    <rect id="illustration02_100%-e" width="88.894" height="50.003" x="0" y="0"/>
    <path id="illustration02_100%-g" d="M22.4638345,18.3400879 C23.5006268,15.5717727 26.2654065,13.8415758 28.6845886,12.1113788 C31.1037708,10.3811818 29.721381,4.49851212 26.2654065,2.42227576 C22.8094319,0.346039394 18.6622625,-1.38415758 9.67672869,2.42227576 C0.691194907,6.22870909 -0.691194907,15.9178121 0.345597453,20.0702848 C1.38238981,24.2227576 6.91194907,29.4133485 12.7871058,29.4133485 C18.6622625,29.4133485 23.1550294,26.6450333 23.1550294,24.2227576 C23.1550294,21.8004818 21.4270421,21.108403 22.4638345,18.3400879 Z"/>
  </defs>
  <g fill="none" fill-rule="evenodd" opacity=".301">
    <path fill="#BED5FD" d="M357.879209,193.145683 L431.395778,294.80667 L427.533021,294.80667 L354.016453,193.145683 L357.879209,193.145683 Z M337.867669,193.145683 L411.384237,294.80667 L407.521481,294.80667 L334.004913,193.145683 L337.867669,193.145683 Z M338.557014,180.094611 L420.001051,294.80667 L416.138295,294.80667 L334.694258,180.094611 L338.557014,180.094611 Z"/>
    <path fill="#E6EFFE" d="M412.440509,234.999528 L401.033182,243.248528 L401.438367,243.248789 L401.438367,294.80667 L357.085985,294.80667 L357.085182,246.685528 L352.960182,246.685981 L352.960182,234.999528 L412.440509,234.999528 Z"/>
    <path fill="#B1CEFF" d="M131.813282,201.337585 L131.813054,224.704585 L141.837703,224.704856 L141.837703,294.80667 L105.888054,294.80667 L105.888054,224.704856 L128.356054,224.704585 L128.356585,201.337585 L131.813282,201.337585 Z"/>
    <g transform="translate(60.788 233.365)">
      <rect width="22.78" height="61.441" fill="#FFF"/>
      <polygon fill="#428DFC" points="3.797 0 48.158 0 67.4 14.843 23.039 14.843"/>
      <rect width="43.49" height="46.599" x="22.78" y="14.843" fill="#BDD5FD"/>
      <path fill="#FFF" d="M55.425434,41.0732913 L61.605434,47.1102913 L35.038434,47.1112691 L35.038434,41.073838 L55.425434,41.0732913 Z M45.440434,31.3202913 L51.622434,37.3582913 L35.038434,37.3584957 L35.038434,31.3210646 L45.440434,31.3202913 Z M35.457434,21.5682913 L41.637434,27.6052913 L35.038434,27.6057224 L35.038434,21.5682913 L35.457434,21.5682913 Z" transform="rotate(90 48.322 34.34)"/>
    </g>
    <g transform="translate(18.628 197.416)">
      <rect width="43.793" height="97.391" fill="#D5E4FE"/>
      <path fill="#FFF" d="M23.152,80.2442139 L24.028,84.7022139 L8.5755362e-14,84.7026184 L8.5755362e-14,80.2445859 L23.152,80.2442139 Z M21.739,73.0422139 L22.614,77.5002139 L8.5755362e-14,77.5011813 L8.5755362e-14,73.0431487 L21.739,73.0422139 Z M20.325,65.8412139 L21.2,70.2992139 L8.5755362e-14,70.2997441 L8.5755362e-14,65.8417115 L20.325,65.8412139 Z M18.911,58.6402139 L19.786,63.0982139 L8.5755362e-14,63.0983069 L8.5755362e-14,58.6402743 L18.911,58.6402139 Z M17.498,51.4382139 L18.373,55.8962139 L8.5755362e-14,55.8968697 L8.5755362e-14,51.4388371 L17.498,51.4382139 Z M16.084,44.2372139 L16.959,48.6952139 L8.5755362e-14,48.6954325 L8.5755362e-14,44.2373999 L16.084,44.2372139 Z M14.67,37.0352139 L15.545,41.4932139 L8.5755362e-14,41.4939953 L8.5755362e-14,37.0359627 L14.67,37.0352139 Z M13.257,29.8342139 L14.132,34.2922139 L8.5755362e-14,34.2925581 L8.5755362e-14,29.8345255 L13.257,29.8342139 Z M11.843,22.6322139 L12.718,27.0902139 L8.5755362e-14,27.0911209 L8.5755362e-14,22.6330883 L11.843,22.6322139 Z M10.429,15.4312139 L11.304,19.8892139 L8.5755362e-14,19.8896837 L8.5755362e-14,15.4316511 L10.429,15.4312139 Z M9.015,8.23021394 L9.891,12.6882139 L8.5755362e-14,12.6882465 L8.5755362e-14,8.23021394 L9.015,8.23021394 Z"/>
    </g>
    <g transform="matrix(-1 0 0 1 358.516 215.717)">
      <rect width="35.623" height="78.86" fill="#D5E4FE"/>
      <path fill="#FFF" d="M18.833,64.9762317 L19.545,68.5852317 L6.97562273e-14,68.5860516 L6.97562273e-14,64.9762594 L18.833,64.9762317 Z M17.683,59.1442317 L18.395,62.7542317 L6.97562273e-14,62.7548488 L6.97562273e-14,59.1450566 L17.683,59.1442317 Z M16.533,53.3132317 L17.245,56.9232317 L6.97562273e-14,56.9236461 L6.97562273e-14,53.3138539 L16.533,53.3132317 Z M15.383,47.4822317 L16.095,51.0922317 L6.97562273e-14,51.0924433 L6.97562273e-14,47.4826511 L15.383,47.4822317 Z M14.233,41.6512317 L14.945,45.2612317 L6.97562273e-14,45.2612405 L6.97562273e-14,41.6514483 L14.233,41.6512317 Z M13.083,35.8202317 L13.795,39.4292317 L6.97562273e-14,39.4300378 L6.97562273e-14,35.8202456 L13.083,35.8202317 Z M11.933,29.9882317 L12.645,33.5982317 L6.97562273e-14,33.598835 L6.97562273e-14,29.9890428 L11.933,29.9882317 Z M10.783,24.1572317 L11.495,27.7672317 L6.97562273e-14,27.7676322 L6.97562273e-14,24.15784 L10.783,24.1572317 Z M9.633,18.3262317 L10.345,21.9362317 L6.97562273e-14,21.9364295 L6.97562273e-14,18.3266373 L9.633,18.3262317 Z M8.483,12.4952317 L9.195,16.1042317 L6.97562273e-14,16.1052267 L6.97562273e-14,12.4954345 L8.483,12.4952317 Z M7.333,6.66423173 L8.045,10.2732317 L6.97562273e-14,10.2740239 L6.97562273e-14,6.66423173 L7.333,6.66423173 Z"/>
    </g>
    <g transform="translate(277.14 255.262)">
      <rect width="14.637" height="39.348" fill="#FFF"/>
      <polygon fill="#428DFC" points="2.439 0 30.942 0 43.305 9.505 14.803 9.505"/>
      <polygon fill="#BDD5FD" points="14.637 9.505 43.269 9.505 43.269 39.348 14.637 39.348"/>
      <path fill="#FFF" d="M35.6114234,26.3040201 L39.5824234,30.1710201 L22.5124234,30.1712264 L22.5124234,26.3047413 L35.6114234,26.3040201 Z M29.1954234,20.0580201 L33.1674234,23.9250201 L22.5124234,23.9253658 L22.5124234,20.0588807 L29.1954234,20.0580201 Z M22.7814234,13.8130201 L26.7524234,17.6790201 L22.5124234,17.6795052 L22.5124234,13.8130201 L22.7814234,13.8130201 Z" transform="rotate(90 31.047 21.992)"/>
    </g>
    <g transform="translate(241.524 224.541)">
      <g transform="matrix(-1 0 0 1 36.595 0)">
        <rect width="35.623" height="69.921" y=".114" fill="#BDD5FD"/>
        <path fill="#FFF" d="M27.5400161,35.0483354 L27.5400161,38.6798442 L7.62488894,38.6798442 L7.62488894,35.0483354 L27.5400161,35.0483354 Z M24.6018889,29.1811918 L27.5398889,32.3901918 L27.5400161,32.8135607 L7.62488894,32.8135607 L7.62488894,29.1820519 L24.6018889,29.1811918 Z M19.2308889,23.3151918 L22.5558889,26.9471918 L7.62488894,26.9472772 L7.62488894,23.3157683 L19.2308889,23.3151918 Z M13.8598889,17.4491918 L17.1848889,21.0801918 L7.62488894,21.0809936 L7.62488894,17.4494848 L13.8598889,17.4491918 Z M8.48888894,11.5831918 L11.8138889,15.2141918 L7.62488894,15.2147101 L7.62488894,11.5832013 L8.48888894,11.5831918 Z" transform="matrix(0 1 1 0 -7.55 7.55)"/>
        <path fill="#FFF" d="M12.6924209,65.486526 L9.36842087,69.117526 L7.78942087,69.118169 L7.78942087,65.4866601 L12.6924209,65.486526 Z M18.0644209,59.619526 L14.7394209,63.251526 L7.78942087,63.2518855 L7.78942087,59.6203766 L18.0644209,59.619526 Z M23.4354209,53.753526 L20.1094209,57.385526 L7.78942087,57.3856019 L7.78942087,53.7540931 L23.4354209,53.753526 Z M27.7045481,47.8878095 L27.7044209,49.090526 L25.4814209,51.518526 L7.78942087,51.5193184 L7.78942087,47.8878095 L27.7045481,47.8878095 Z M27.7045481,42.021526 L27.7045481,45.6530349 L7.78942087,45.6530349 L7.78942087,42.021526 L27.7045481,42.021526 Z" transform="matrix(0 1 1 0 -37.823 37.823)"/>
      </g>
      <ellipse cx="18.957" cy="7.922" fill="#FFF" rx="4.842" ry="4.822"/>
      <ellipse cx="30.37" cy="7.922" fill="#FFF" rx="4.842" ry="4.822"/>
      <ellipse cx="7.544" cy="7.922" fill="#FFF" rx="4.842" ry="4.822"/>
    </g>
    <g transform="translate(213.41 219.312)">
      <mask id="illustration02_100%-b" fill="#fff">
        <use xlink:href="#illustration02_100%-a"/>
      </mask>
      <path fill="#C7DCFD" fill-rule="nonzero" d="M-0.229752349,-10.294672 L15.4101467,2.45232804 L22.1561039,1.00639702 L22.5968812,3.01864125 L17.4561467,4.12032804 L21.4101467,7.34232804 L22.1561039,7.1832002 L22.3601467,8.11632804 L22.6202049,8.32856809 L22.5131467,8.81632804 L22.5968812,9.19544443 L22.4221467,9.23232804 L22.1794276,10.3408123 L21.1531467,9.50432804 L17.1221467,10.368328 L21.0761467,13.590328 L22.1561039,13.3600034 L22.4511467,14.712328 L22.6202049,14.8500571 L22.5511467,15.165328 L22.5968812,15.3722476 L22.5011467,15.391328 L22.1794276,16.8623013 L20.8181467,15.752328 L16.7861467,16.616328 L20.7411467,19.839328 L22.1561039,19.5368066 L22.5441467,21.309328 L22.6202049,21.3715461 L22.5891467,21.514328 L22.5968812,21.5490508 L22.5801467,21.551328 L22.1794276,23.3837903 L20.4831467,22.001328 L16.4521467,22.865328 L20.4061467,26.088328 L22.1561039,25.7136097 L22.5968812,27.725854 L22.4531467,27.756328 L22.6202049,27.8930351 L22.1794276,29.9052794 L20.1491467,28.249328 L16.1171467,29.114328 L21.0711467,33.151328 L22.1561039,32.9198801 L22.4531467,34.278328 L22.6202049,34.4145242 L22.5511467,34.727328 L22.5968812,34.9321243 L22.5021467,34.951328 L22.1794276,36.4267684 L20.8131467,35.313328 L16.7821467,36.177328 L20.7371467,39.400328 L22.1561039,39.0966833 L22.5451467,40.874328 L22.6202049,40.9360132 L22.5891467,41.076328 L22.5968812,41.1089275 L22.5811467,41.111328 L22.1794276,42.9482574 L20.4791467,41.562328 L16.4471467,42.426328 L20.4021467,45.649328 L22.1561039,45.2734865 L22.5968812,47.2857307 L22.4481467,47.317328 L22.6202049,47.4575022 L22.1794276,49.4697464 L20.1441467,47.810328 L16.1131467,48.674328 L20.0661467,51.897328 L22.1561039,51.4502896 L22.5968812,53.4625339 L22.1141467,53.565328 L22.6202049,53.9789912 L22.1794276,55.9912354 L19.8101467,54.059328 L15.7781467,54.923328 L19.7311467,58.145328 L22.1561039,57.6270928 L22.5968812,59.6393371 L21.7791467,59.814328 L22.6202049,60.5004802 L22.1794276,62.5127244 L19.4751467,60.308328 L15.4431467,61.172328 L19.7301467,64.666328 L22.1561039,64.1470517 L22.5968812,66.159296 L21.7771467,66.334328 L22.6202049,67.0219692 L22.1794276,69.0342135 L19.4731467,66.827328 L15.4411467,67.691328 L22.6202049,73.5434582 L22.1794276,75.5557025 L13.1371467,68.185328 L-0.253076042,71.0563067 L-0.693853349,69.0440625 L11.0901467,66.517328 L6.80314665,63.024328 L-0.253076042,64.5363478 L-0.693853349,62.5241036 L4.75614665,61.355328 L0.802146651,58.133328 L-0.253076042,58.3595446 L-0.542853349,57.036328 L-0.670529655,56.9324624 L-0.617853349,56.692328 L-0.693853349,56.3473004 L-0.534853349,56.312328 L-0.229752349,54.9202182 L1.06014665,55.970328 L5.09114665,55.106328 L1.13714665,51.884328 L-0.253076042,52.1827415 L-0.634853349,50.439328 L-0.670529655,50.4109734 L-0.655853349,50.343328 L-0.693853349,50.1704972 L-0.614853349,50.153328 L-0.229752349,48.3987292 L1.39514665,49.722328 L5.42614665,48.858328 L1.47214665,45.635328 L-0.253076042,46.0059383 L-0.693853349,43.9936941 L-0.574853349,43.967328 L-0.670529655,43.8894844 L-0.229752349,41.8772402 L1.73014665,43.473328 L5.76114665,42.609328 L1.80714665,39.386328 L-0.253076042,39.8291351 L-0.693853349,37.8168909 L-0.239853349,37.719328 L-0.670529655,37.3679954 L-0.229752349,35.3557511 L2.06414665,37.225328 L6.09614665,36.361328 L1.14114665,32.323328 L-0.253076042,32.6228647 L-0.635853349,30.874328 L-0.670529655,30.8465064 L-0.656853349,30.781328 L-0.693853349,30.6106205 L-0.615853349,30.593328 L-0.229752349,28.8342621 L1.40014665,30.161328 L5.43114665,29.297328 L1.47614665,26.074328 L-0.253076042,26.4460616 L-0.693853349,24.4338173 L-0.569853349,24.406328 L-0.670529655,24.3250173 L-0.229752349,22.3127731 L1.73414665,23.913328 L5.76514665,23.049328 L1.81114665,19.826328 L-0.253076042,20.2692584 L-0.693853349,18.2570141 L-0.235853349,18.158328 L-0.670529655,17.8035283 L-0.229752349,15.7912841 L2.06914665,17.664328 L6.10014665,16.800328 L2.14714665,13.577328 L-0.253076042,14.0924552 L-0.693853349,12.080211 L0.0991466515,11.909328 L-0.670529655,11.2820393 L-0.229752349,9.26979508 L2.40314665,11.415328 L6.43514665,10.551328 L2.48114665,7.32932804 L-0.253076042,7.91565201 L-0.693853349,5.90340779 L0.435146651,5.66132804 L-0.670529655,4.76055029 L-0.229752349,2.74830607 L2.73914665,5.16732804 L6.77114665,4.30332804 L-0.670529655,-1.76093872 L-0.229752349,-3.77318295 L9.07514665,3.80932804 L13.1061467,2.94532804 L-0.670529655,-8.28242774 L-0.229752349,-10.294672 Z M13.1391467,61.666328 L9.10814665,62.530328 L13.3941467,66.024328 L17.4261467,65.159328 L13.1391467,61.666328 Z M7.13814665,56.775328 L3.10714665,57.639328 L7.06014665,60.861328 L11.0921467,59.997328 L7.13814665,56.775328 Z M13.4741467,55.417328 L9.44214665,56.281328 L13.3961467,59.503328 L17.4271467,58.639328 L13.4741467,55.417328 Z M7.47314665,50.526328 L3.44114665,51.390328 L7.39514665,54.612328 L11.4261467,53.748328 L7.47314665,50.526328 Z M13.8091467,49.168328 L9.77714665,50.032328 L13.7301467,53.255328 L17.7621467,52.390328 L13.8091467,49.168328 Z M7.80814665,44.277328 L3.77614665,45.141328 L7.73114665,48.364328 L11.7621467,47.500328 L7.80814665,44.277328 Z M14.1431467,42.920328 L10.1121467,43.784328 L14.0661467,47.007328 L18.0981467,46.143328 L14.1431467,42.920328 Z M8.14214665,38.029328 L4.11114665,38.893328 L8.06514665,42.116328 L12.0971467,41.252328 L8.14214665,38.029328 Z M14.4781467,36.671328 L10.4461467,37.535328 L14.4011467,40.758328 L18.4331467,39.894328 L14.4781467,36.671328 Z M7.47714665,30.965328 L3.44614665,31.829328 L8.40014665,35.867328 L12.4321467,35.003328 L7.47714665,30.965328 Z M13.8131467,29.607328 L9.78114665,30.471328 L14.7361467,34.509328 L18.7671467,33.645328 L13.8131467,29.607328 Z M7.81214665,24.716328 L3.78014665,25.580328 L7.73514665,28.804328 L11.7661467,27.940328 L7.81214665,24.716328 Z M14.1481467,23.359328 L10.1161467,24.223328 L14.0701467,27.446328 L18.1021467,26.582328 L14.1481467,23.359328 Z M8.14714665,18.468328 L4.11514665,19.332328 L8.07014665,22.555328 L12.1011467,21.691328 L8.14714665,18.468328 Z M14.4821467,17.110328 L10.4511467,17.974328 L14.4051467,21.197328 L18.4371467,20.333328 L14.4821467,17.110328 Z M8.48214665,12.220328 L4.45114665,13.084328 L8.40414665,16.306328 L12.4361467,15.442328 L8.48214665,12.220328 Z M14.8181467,10.862328 L10.7861467,11.726328 L14.7401467,14.948328 L18.7721467,14.084328 L14.8181467,10.862328 Z M8.81714665,5.97132804 L4.78614665,6.83532804 L8.73914665,10.057328 L12.7711467,9.19332804 L8.81714665,5.97132804 Z M15.1521467,4.61332804 L11.1211467,5.47732804 L15.0751467,8.69932804 L19.1061467,7.83532804 L15.1521467,4.61332804 Z" mask="url(#illustration02_100%-b)"/>
    </g>
    <g transform="translate(169.29 268.335)">
      <polygon fill="#FFF" points=".345 0 14.99 0 14.843 26.472 .197 26.472"/>
      <polygon fill="#428DFC" points="2.786 0 49.071 .123 61.441 9.626 15.156 9.503"/>
      <polygon fill="#BDD5FD" points="14.99 9.503 61.244 9.503 61.096 26.472 14.843 26.472"/>
    </g>
    <path fill="#FFF" d="M374.529971,255.588872 C380.847293,255.588872 385.968495,260.710074 385.968495,267.027396 L385.968495,294.80667 L385.968495,294.80667 L363.091446,294.80667 L363.091446,267.027396 C363.091446,260.710074 368.212648,255.588872 374.529971,255.588872 Z"/>
    <g transform="translate(142.818 185.324)">
      <g transform="translate(0 36.724)">
        <g transform="translate(9.26)">
          <rect width="12.878" height="13.538" x="1.793" y="2.12" fill="#D5E4FE"/>
          <polygon fill="#A1C3FC" points="3.387 0 13.076 0 16.464 2.61 0 2.61"/>
          <path fill="#FFF" d="M8.0688476,4.89333414 C9.46601751,4.89333414 10.6143664,5.95866369 10.7459023,7.32133091 L5.37923173,12.5733341 L5.37923173,7.58295 C5.37923173,6.09751618 6.58341377,4.89333414 8.0688476,4.89333414 Z"/>
        </g>
        <g transform="translate(3.43 15.101)">
          <rect width="21.731" height="22.846" x="3.026" y="3.578" fill="#D5E4FE"/>
          <polygon fill="#A1C3FC" points="5.716 0 22.066 0 27.783 4.404 0 4.404"/>
          <path fill="#FFF" d="M13.6161803,8.25750135 C15.9737582,8.25750135 17.9115026,10.0550217 18.1336688,12.3543176 L9.07745355,21.2175014 L9.07745355,12.7962281 C9.07745355,10.2895585 11.1095107,8.25750135 13.6161803,8.25750135 Z"/>
        </g>
        <g transform="translate(0 39.813)">
          <rect width="27.097" height="28.487" x="3.773" y="4.462" fill="#D5E4FE"/>
          <polygon fill="#A1C3FC" points="6.772 0 27.87 0 34.642 5.491 0 5.491"/>
          <path fill="#FFF" d="M16.9782002,10.2963906 C19.9178138,10.2963906 22.3339608,12.5376179 22.6110946,15.404526 L11.3188001,26.4573906 L11.3188001,15.9557906 C11.3188001,12.8301903 13.8525998,10.2963906 16.9782002,10.2963906 Z"/>
        </g>
      </g>
      <ellipse cx="17.493" cy="27.8" fill="#BDD5FD" rx="6.517" ry="6.521"/>
      <rect width="1.715" height="20.593" x="16.464" fill="#BDD5FD"/>
    </g>
    <g transform="translate(54.578 25.184)">
      <mask id="illustration02_100%-d" fill="#fff">
        <use xlink:href="#illustration02_100%-c"/>
      </mask>
      <ellipse cx="26.145" cy="2.069" fill="#F4F4F4" mask="url(#illustration02_100%-d)" rx="26.145" ry="26.208"/>
      <ellipse cx="45.754" cy="2.069" fill="#E7EFFE" mask="url(#illustration02_100%-d)" rx="19.609" ry="19.656"/>
    </g>
    <g transform="translate(343)">
      <mask id="illustration02_100%-f" fill="#fff">
        <use xlink:href="#illustration02_100%-e"/>
      </mask>
      <ellipse cx="31.354" cy="2.069" fill="#D3E3FE" mask="url(#illustration02_100%-f)" rx="26.186" ry="26.208"/>
      <ellipse cx="53.577" cy="-1.897" fill="#F6F9FF" mask="url(#illustration02_100%-f)" rx="22.223" ry="22.243"/>
      <ellipse cx="71.838" cy="-.517" fill="#D3E3FE" mask="url(#illustration02_100%-f)" rx="17.055" ry="17.07"/>
    </g>
    <g transform="translate(91.508 170.29)">
      <mask id="illustration02_100%-h" fill="#fff">
        <use xlink:href="#illustration02_100%-g"/>
      </mask>
      <path stroke="#BDD5FD" stroke-linecap="square" stroke-width=".503" d="M-1.55518854,16.4368712 L31.2765695,16.4368712 M-1.55518854,21.6274621 L31.2765695,21.6274621 M-1.55518854,17.4749894 L31.2765695,17.4749894 M-1.55518854,5.01757121 L31.2765695,5.01757121 M-1.55518854,1.90321667 L31.2765695,1.90321667 M-1.55518854,32.0086439 L31.2765695,32.0086439 M-1.55518854,23.7036985 L31.2765695,23.7036985 M-1.55518854,30.9705257 L31.2765695,30.9705257 M-1.55518854,28.8942894 L31.2765695,28.8942894 M-1.55518854,2.94133485 L31.2765695,2.94133485 M-1.55518854,14.3606348 L31.2765695,14.3606348 M-1.55518854,24.7418167 L31.2765695,24.7418167 M-1.55518854,7.09380757 L31.2765695,7.09380757 M-1.55518854,-2.24925606 L31.2765695,-2.24925606 M-1.55518854,20.5893439 L31.2765695,20.5893439 M-1.55518854,26.818053 L31.2765695,26.818053 M-1.55518854,11.2462803 L31.2765695,11.2462803 M-1.55518854,27.8561712 L31.2765695,27.8561712 M-1.55518854,13.3225167 L31.2765695,13.3225167 M-1.55518854,18.5131076 L31.2765695,18.5131076 M-1.55518854,22.6655803 L31.2765695,22.6655803 M-1.55518854,25.7799348 L31.2765695,25.7799348 M-1.55518854,6.05568939 L31.2765695,6.05568939 M-1.55518854,9.17004393 L31.2765695,9.17004393 M-1.55518854,29.9324076 L31.2765695,29.9324076 M-1.55518854,-1.21113788 L31.2765695,-1.21113788 M-1.55518854,-0.173019697 L31.2765695,-0.173019697 M-1.55518854,10.2081621 L31.2765695,10.2081621 M-1.55518854,0.865098484 L31.2765695,0.865098484 M-1.55518854,19.5512257 L31.2765695,19.5512257 M-1.55518854,12.2843985 L31.2765695,12.2843985 M-1.55518854,15.398753 L31.2765695,15.398753 M-1.55518854,3.97945303 L31.2765695,3.97945303 M-1.55518854,8.13192575 L31.2765695,8.13192575" mask="url(#illustration02_100%-h)"/>
    </g>
    <path fill="#E0EBFE" d="M383.612051,130.091995 L386.140302,136.611963 L386.161797,136.661661 C386.316568,136.984639 386.696372,137.138875 387.035772,137.007209 C387.392142,136.86896 387.569017,136.467856 387.430833,136.111319 L387.430833,136.111319 L385.151737,130.231082 C386.094206,130.388364 387.125956,130.678964 388.246986,131.102882 L389.946722,135.486813 L389.968217,135.53651 C390.122988,135.859488 390.502793,136.013724 390.842193,135.882058 C391.198563,135.743809 391.375437,135.342705 391.237253,134.986168 L391.237253,134.986168 L390.021198,131.850598 C392.109068,132.814119 394.46207,134.17355 397.080204,135.928891 C396.32888,138.898814 395.49099,141.400729 394.566534,143.434636 L393.573011,140.871573 L393.551516,140.821875 C393.396745,140.498897 393.016941,140.344662 392.677541,140.476327 C392.321171,140.614576 392.144296,141.01568 392.28248,141.372217 L392.28248,141.372217 L393.729157,145.106389 C393.169752,146.11519 392.58187,146.970033 391.965511,147.670918 L389.766591,141.996723 L389.745096,141.947026 C389.590325,141.624048 389.210521,141.469812 388.87112,141.601478 C388.51475,141.739727 388.337876,142.140831 388.47606,142.497368 L388.47606,142.497368 L390.88672,148.716987 C390.397708,149.113358 389.892515,149.422251 389.371142,149.643664 C389.08627,149.764642 388.7981,149.868849 388.50757,149.956724 L385.96017,143.381524 L385.938676,143.331827 C385.783904,143.008849 385.4041,142.854613 385.0647,142.986279 C384.70833,143.124528 384.531455,143.525632 384.66964,143.882169 L384.66964,143.882169 L387.136708,150.250072 C386.118302,150.38122 385.089196,150.3266 384.087701,150.104095 L382.15375,145.112526 L382.132255,145.062828 C381.977484,144.73985 381.59768,144.585615 381.25828,144.71728 C380.901909,144.855529 380.725035,145.256633 380.863219,145.61317 L380.863219,145.61317 L382.391723,149.555839 C380.217736,148.624433 378.300141,146.879773 377.088091,144.531523 C373.836933,146.602039 372.032889,148.735618 371.638023,150.908397 C371.586742,151.190573 371.31653,151.37773 371.034486,151.326426 C370.752443,151.275121 370.565373,151.004782 370.616653,150.722606 C371.077191,148.188462 373.100964,145.814915 376.650432,143.577683 C375.460222,140.65762 375.567424,137.557512 376.709795,135.039399 L378.527461,139.727766 L378.548956,139.777463 C378.703727,140.100441 379.083531,140.254677 379.422932,140.123011 C379.779302,139.984762 379.956176,139.583659 379.817992,139.227121 L379.817992,139.227121 L377.594849,133.493194 C378.183845,132.660914 378.909082,131.932654 379.756932,131.348015 L382.333882,137.996764 L382.355376,138.046462 C382.510147,138.36944 382.889952,138.523676 383.229352,138.39201 C383.585722,138.253761 383.762597,137.852657 383.624412,137.49612 L383.624412,137.49612 L380.970241,130.651735 C381.065235,130.607189 381.161382,130.564238 381.258668,130.522924 C381.944326,130.231743 382.728787,130.0881 383.612051,130.091995 Z"/>
    <path fill="#E0EBFE" d="M13.0038604,257.549839 L15.5321114,264.069807 L15.5536061,264.119504 C15.7083772,264.442482 16.0881814,264.596718 16.4275816,264.465052 C16.7839517,264.326803 16.9608263,263.9257 16.8226419,263.569163 L16.8226419,263.569163 L14.543546,257.688926 C15.4860154,257.846207 16.5177651,258.136807 17.6387952,258.560725 L19.3385318,262.944656 L19.3600265,262.994354 C19.5147975,263.317331 19.8946018,263.471567 20.234002,263.339901 C20.5903721,263.201652 20.7672467,262.800549 20.6290623,262.444012 L20.6290623,262.444012 L19.4130077,259.308441 C21.5008773,260.271962 23.8538793,261.631393 26.4720136,263.386734 C25.7206894,266.356658 24.8827994,268.858573 23.9583435,270.892479 L22.9648203,268.329416 L22.9433256,268.279718 C22.7885545,267.956741 22.4087503,267.802505 22.0693501,267.934171 C21.7129799,268.07242 21.5361054,268.473523 21.6742897,268.83006 L21.6742897,268.83006 L23.1209667,272.564233 C22.5615618,273.573034 21.9736798,274.427876 21.3573207,275.128761 L19.1583999,269.454567 L19.1369052,269.404869 C18.9821341,269.081891 18.6023299,268.927656 18.2629297,269.059321 C17.9065595,269.197571 17.729685,269.598674 17.8678693,269.955211 L17.8678693,269.955211 L20.2785295,276.17483 C19.7895175,276.571202 19.2843248,276.880094 18.7629514,277.101508 C18.4780793,277.222485 18.1899097,277.326693 17.8993796,277.414567 L15.3519795,270.839368 L15.3304848,270.78967 C15.1757137,270.466692 14.7959095,270.312457 14.4565093,270.444122 C14.1001391,270.582372 13.9232646,270.983475 14.0614489,271.340012 L14.0614489,271.340012 L16.5285175,277.707915 C15.5101113,277.839064 14.4810052,277.784444 13.47951,277.561939 L11.5455591,272.570369 L11.5240644,272.520672 C11.3692933,272.197694 10.9894891,272.043458 10.6500889,272.175124 C10.2937188,272.313373 10.1168442,272.714476 10.2550286,273.071013 L10.2550286,273.071013 L11.7835321,277.013682 C9.60954578,276.082276 7.69195048,274.337616 6.47990037,271.989366 C3.22874235,274.059883 1.424698,276.193462 1.0298322,278.36624 C0.978551572,278.648416 0.708338996,278.835574 0.426295522,278.784269 C0.144252048,278.732965 -0.0428181971,278.462625 0.00846243449,278.18045 C0.46900038,275.646305 2.49277322,273.272758 6.04224174,271.035527 C4.85203086,268.115463 4.95923385,265.015355 6.10160403,262.497242 L7.91927058,267.185609 L7.94076531,267.235307 C8.09553637,267.558284 8.47534061,267.71252 8.81474078,267.580854 C9.17111096,267.442605 9.34798552,267.041502 9.20980116,266.684965 L9.20980116,266.684965 L6.98665842,260.951038 C7.57565415,260.118757 8.30089096,259.390498 9.14874154,258.805859 L11.725691,265.454608 L11.7471857,265.504305 C11.9019568,265.827283 12.281761,265.981519 12.6211612,265.849853 C12.9775314,265.711604 13.1544059,265.310501 13.0162216,264.953964 L13.0162216,264.953964 L10.3620505,258.109578 C10.4570447,258.065032 10.5531914,258.022082 10.6504772,257.980767 C11.3361353,257.689586 12.1205963,257.545943 13.0038604,257.549839 Z" transform="matrix(-1 0 0 1 26.472 0)"/>
    <circle cx="42.649" cy="73.39" r="3.432" fill="#A1C3FC"/>
    <circle cx="327.632" cy="16.197" r="3.432" fill="#A1C3FC"/>
  </g>
</svg>
