<svg xmlns="http://www.w3.org/2000/svg" width="300" height="325" viewBox="0 0 300 325">
  <defs>
    <linearGradient id="illustration_100%-a" x1="51.574%" x2="50%" y1="0%" y2="68.1%">
      <stop offset="0%" stop-color="#63A2FF"/>
      <stop offset="100%" stop-color="#296FD5"/>
    </linearGradient>
    <linearGradient id="illustration_100%-b" x1="40.18%" x2="100%" y1="48.109%" y2="57.615%">
      <stop offset="0%" stop-color="#3468D2"/>
      <stop offset="100%" stop-color="#5287F3"/>
    </linearGradient>
    <linearGradient id="illustration_100%-c" x1="86.475%" x2="17.814%" y1="6.345%" y2="75.026%">
      <stop offset="0%" stop-color="#FAD5D2"/>
      <stop offset="100%" stop-color="#F4ABA6"/>
    </linearGradient>
    <linearGradient id="illustration_100%-d" x1="89.739%" x2="50%" y1="11.379%" y2="77.32%">
      <stop offset="0%" stop-color="#3E63B6" stop-opacity="0"/>
      <stop offset="31.85%" stop-color="#393F80" stop-opacity=".661"/>
      <stop offset="100%" stop-color="#1B215C"/>
    </linearGradient>
    <linearGradient id="illustration_100%-e" x1="80.902%" x2="5.108%" y1="11.577%" y2="78.324%">
      <stop offset="0%" stop-color="#FACDC8"/>
      <stop offset="100%" stop-color="#FFBEB6"/>
    </linearGradient>
    <linearGradient id="illustration_100%-f" x1="50%" x2="50%" y1="11.598%" y2="78.112%">
      <stop offset="0%" stop-color="#EB5751"/>
      <stop offset="100%" stop-color="#DF4744"/>
    </linearGradient>
    <linearGradient id="illustration_100%-g" x1="33.252%" x2="85.116%" y1="0%" y2="102.884%">
      <stop offset="0%" stop-color="#7CA9FF"/>
      <stop offset="52.983%" stop-color="#3E7EE2"/>
      <stop offset="84.451%" stop-color="#3E79D4"/>
      <stop offset="100%" stop-color="#598EE0"/>
    </linearGradient>
    <linearGradient id="illustration_100%-h" x1="70.365%" x2="20.415%" y1="7.207%" y2="81.545%">
      <stop offset="0%" stop-color="#FACDC8"/>
      <stop offset="100%" stop-color="#FFBEB6"/>
    </linearGradient>
    <linearGradient id="illustration_100%-i" x1="43.389%" x2="45.682%" y1="0%" y2="83.872%">
      <stop offset="0%" stop-color="#428DFC" stop-opacity="0"/>
      <stop offset="100%" stop-color="#558DE4"/>
    </linearGradient>
    <linearGradient id="illustration_100%-j" x1="80.902%" x2="5.108%" y1="10.562%" y2="79.072%">
      <stop offset="0%" stop-color="#FACDC8"/>
      <stop offset="100%" stop-color="#FFBEB6"/>
    </linearGradient>
    <linearGradient id="illustration_100%-k" x1="40.18%" x2="100%" y1="47.56%" y2="59.826%">
      <stop offset="0%" stop-color="#3468D2"/>
      <stop offset="100%" stop-color="#5287F3"/>
    </linearGradient>
    <linearGradient id="illustration_100%-l" x1="89.739%" x2="50%" y1="13.678%" y2="75.694%">
      <stop offset="0%" stop-color="#428DFC" stop-opacity=".314"/>
      <stop offset="31.85%" stop-color="#428DFC"/>
      <stop offset="100%" stop-color="#428DFC"/>
    </linearGradient>
  </defs>
  <g fill="none" fill-rule="evenodd">
    <g transform="translate(-40.16 -3.982)">
      <g fill-rule="nonzero" opacity=".6" transform="rotate(-156 171.272 163.214)">
        <path fill="#9EC1FF" fill-opacity=".6" d="M239.378094,242.266756 C249.37256,235.783773 257.677797,227.018215 263.606984,216.694969 C299.8236,153.796725 291.643815,60.9613964 221.897051,21.1675968 C189.659448,2.77640837 143.254533,-8.86438515 108.419167,10.0265983 C80.1605761,25.3494254 62.8379332,54.1920219 48.5122216,80.440746 C39.4960837,96.9466321 32.0766196,114.711495 20.9822715,130.154526 C6.58052782,150.184283 -9.26582547,176.932802 6.73259199,200.201736 C28.5347918,231.897592 69.7125007,246.385319 107.056925,255.875096 C147.569354,266.212627 193.118907,267.680379 230.539364,247.517766 C233.567975,245.902395 236.514219,244.152058 239.378094,242.266756 Z"/>
        <path fill="#FFF" fill-opacity=".3" d="M239.378094,242.266756 C249.37256,235.783773 257.677797,227.018215 263.606984,216.694969 C299.8236,153.796725 291.643815,60.9613964 221.897051,21.1675968 C189.659448,2.77640837 143.254533,-8.86438515 108.419167,10.0265983 C80.1605761,25.3494254 62.8379332,54.1920219 48.5122216,80.440746 C39.4960837,96.9466321 32.0766196,114.711495 20.9822715,130.154526 C6.58052782,150.184283 -9.26582547,176.932802 6.73259199,200.201736 C28.5347918,231.897592 69.7125007,246.385319 107.056925,255.875096 C147.569354,266.212627 193.118907,267.680379 230.539364,247.517766 C233.567975,245.902395 236.514219,244.152058 239.378094,242.266756 Z"/>
      </g>
      <g opacity=".649">
        <path fill="#8CB8FF" fill-rule="nonzero" d="M45.0204123,39.2636833 C45.8107707,39.9165227 46.5385815,40.6404805 47.1945474,41.4263083 C47.5762226,41.886322 47.7402016,42.5230482 48.0031334,43.0812354 L47.858945,43.1569694 C47.8619718,44.28546 47.1639399,45.2991711 46.103239,45.7066791 C45.0232262,46.1288881 43.7921234,45.8221262 43.0413557,44.9437297 C41.8964421,43.6132238 40.4618007,42.558184 38.8457557,41.8582724 C34.3221977,39.9621186 29.36042,41.1402023 26.0045054,44.8988503 C25.2100555,45.7908279 24.2177,46.1133985 23.0698472,45.7683882 C22.1805175,45.4999019 21.4885524,44.8031393 21.2311392,43.916932 C20.973726,43.0307247 21.1858381,42.0754776 21.7947693,41.378624 C27.5396879,34.5064691 38.1078503,33.5247327 45.0204123,39.2636833 Z M35.6267714,24.4367358 C43.1800422,24.6300006 50.2841534,27.7978621 55.8702193,34.1727982 C56.9732186,35.4276187 56.8452934,37.0465611 55.6200545,38.0941121 C54.4573569,39.0800425 52.7772729,38.9483984 51.6941731,37.7215873 C48.7774792,34.3940723 45.2439016,31.9544549 40.9342447,30.808871 C32.1528923,28.4728883 24.5598226,30.6016016 18.1919917,37.007348 C17.9560409,37.2454278 17.7371467,37.5003132 17.5125669,37.7495967 C16.5140311,38.8850328 14.7703544,39.007927 13.6179561,38.0240887 C12.4655578,37.0402503 12.3408276,35.322239 13.3393635,34.1868029 C15.7962392,31.3144819 18.8282797,28.9726105 22.2457983,27.3076978 C26.1659942,25.3834531 30.307927,24.4563424 35.6267714,24.4367358 Z M34.5561057,13.1726474 C46.4377474,13.358348 56.3730629,17.9151542 64.1894857,27.0287665 C64.6964621,27.586052 64.9559875,28.3283144 64.9079136,29.0835247 C64.8598397,29.838735 64.5083399,30.5413289 63.9348791,31.028471 C63.3780432,31.5074678 62.6531273,31.7388174 61.9248529,31.6699507 C61.1965786,31.6010841 60.526792,31.2378493 60.0676877,30.6627837 C57.2778905,27.3343325 53.8858769,24.5729495 50.0729639,22.5262421 C38.0795213,16.091528 23.411501,17.7042015 13.0701372,26.5945129 C11.6330243,27.8201366 10.3543334,29.2457456 9.05866864,30.6313575 C7.92708373,31.8341258 6.28345664,32.0255402 5.09812144,30.9941878 C3.91278624,29.9628354 3.83923322,28.2401056 4.90858097,26.9944833 C11.4547997,19.3283831 19.6946239,14.8001462 29.6280534,13.4097728 C30.4060181,13.3012094 31.1896406,13.2183584 31.9760921,13.1812182 C32.8332677,13.1412212 33.6961012,13.1726474 34.5561057,13.1726474 Z" opacity=".697" transform="rotate(30 152.629 470.267)"/>
      </g>
      <g transform="translate(65.661 51.632)">
        <path fill="url(#illustration_100%-a)" fill-rule="nonzero" d="M192.410169,0.0167787026 L192.410169,0.0167787026 C191.014864,-0.141574015 189.750289,0.838481157 189.573901,2.21490793 L176.701097,100.468004 L185.083697,101.399748 L194.68184,2.78576538 C194.813968,1.40577129 193.804211,0.174957685 192.410169,0.0167787026 Z"/>
        <path fill="#428DFC" fill-rule="nonzero" stroke="#BDD5FC" stroke-linecap="round" stroke-linejoin="round" stroke-width="3.79" d="M184.113659,96.5542106 L28.57216,96.5542106 C20.974671,96.5542106 14.0964357,99.6337015 9.11757253,104.612565 C4.13870941,109.591428 1.05921854,116.469663 1.05921854,124.067152 C1.05921854,131.664641 4.13870941,138.542877 9.11757253,143.52174 C14.0964357,148.500603 20.974671,151.580094 28.57216,151.580094 L184.113659,151.580094 C191.711148,151.580094 198.589383,148.500603 203.568246,143.52174 C208.547109,138.542877 211.6266,131.664641 211.6266,124.067152 C211.6266,116.469663 208.547109,109.591428 203.568246,104.612565 C198.589383,99.6337015 191.711148,96.5542106 184.113659,96.5542106 Z"/>
        <rect width="145.043" height="42.418" x="69.538" y="102.724" fill="#FFF" fill-rule="nonzero" stroke="#BDD5FC" stroke-linecap="round" stroke-linejoin="round" stroke-width="3.79" rx="21.209"/>
        <rect width="145.043" height="42.418" x="-1.895" y="102.724" fill="#FFF" fill-rule="nonzero" stroke="#BDD5FC" stroke-linecap="round" stroke-linejoin="round" stroke-width="3.79" rx="20.842"/>
        <rect width="122.217" height="24.445" x="10.458" y="111.576" fill="#428DFC" fill-rule="nonzero" stroke="#D5E4FE" stroke-linecap="round" stroke-linejoin="round" stroke-width="3.79" rx="2.373"/>
        <path stroke="#FFF" stroke-linecap="round" stroke-width=".947" d="M21.1838741,119.104466 C18.7431899,120.0917 17.333728,122.685644 17.8188937,125.297305 C18.3040594,127.908965 20.5484304,129.80936 23.1771545,129.834349 C25.8058786,129.859338 28.0852107,128.001947 28.6188822,125.399972 C29.1525538,122.797997 27.7916031,120.177717 25.3697187,119.144258"/>
        <line x1="23.497" x2="23.497" y1="117.227" y2="121.787" stroke="#FFF" stroke-linecap="round" stroke-width=".947"/>
      </g>
      <g transform="translate(97.707 4.605)">
        <path fill="url(#illustration_100%-b)" d="M39.5489128,130.767237 C34.7243149,134.276036 31.4348164,136.469035 29.6804171,137.346234 C27.0488183,138.662034 23.7593197,139.977833 23.10142,141.293632 C25.2944191,141.293632 34.2857151,141.293632 50.0753082,141.293632 L46.7858097,131.425137 L39.5489128,130.767237 Z"/>
        <path fill="#5287F3" d="M18.496122,130.767237 C15.4259234,134.276036 13.0136244,136.469035 11.2592252,137.346234 C8.62762637,138.662034 5.33812781,139.977833 4.68022809,141.293632 C6.87322713,141.293632 15.8645232,141.293632 31.6541163,141.293632 L28.3646177,131.425137 L18.496122,130.767237 Z"/>
        <path fill="#85ABE6" d="M36.917314,57.0824693 C29.0225174,73.3106622 24.6365194,83.8370576 23.7593197,88.6616555 C22.4435203,95.8985523 32.9699157,130.109337 33.6278154,131.425137 C35.3822146,131.425137 39.7682127,131.425137 46.7858097,131.425137 C48.5402089,128.793538 48.7595088,125.942639 47.4437094,122.87244 C45.4700102,118.267143 44.8121105,117.609243 45.4700102,111.030246 C46.1279099,104.451249 42.8384114,93.9248532 40.8647122,91.2932543 C39.5489128,89.5388551 41.0840122,76.8194607 45.4700102,53.135071 L36.917314,57.0824693 Z"/>
        <path fill="#9EC2FC" d="M36.917314,54.4508705 L25.0751192,95.8985523 L17.1803226,131.425137 L28.3646177,131.425137 C30.5576168,129.670738 32.5313159,127.039139 34.2857151,123.53034 C36.917314,118.267143 36.917314,111.030246 39.5489128,107.082847 C42.1805117,103.135449 44.8121105,93.9248532 45.4700102,91.2932543 C46.1279099,88.6616555 57.9701048,70.2404635 57.9701048,59.7140682 C57.9701048,52.6964712 55.9964056,49.8455725 52.0490073,51.1613719 L36.917314,54.4508705 Z"/>
        <path fill="url(#illustration_100%-c)" d="M38.2331134,16.9505869 C38.2331134,16.9505869 39.5489128,19.5821857 39.5489128,22.2137846 C39.5489128,24.8453834 46.7858097,20.2400854 45.4700102,18.924286 C44.5928106,18.0470864 43.715611,16.731287 42.8384114,14.9768877 C39.7682127,16.2926872 38.2331134,16.9505869 38.2331134,16.9505869 Z"/>
        <g transform="translate(0 18.266)">
          <path fill="#F2A09C" d="M15.2066235,24.3422893 C15.2066235,22.1492903 14.3294239,20.3948911 12.5750246,19.0790916 C9.94342579,17.1053925 7.96972665,17.1053925 6.65392723,16.7764427 C5.33812781,16.4474928 4.02232838,15.7895931 4.02232838,14.4737937 C4.02232838,13.1579942 1.82193467,12.7339298 1.39072953,12.3027246 C0.732829822,11.6448249 3.36442867,10.5263954 4.68022809,11.8421948 C5.99602752,13.1579942 7.31182694,13.1579942 7.96972665,13.1579942 C8.62762637,13.1579942 12.2460748,13.8158939 11.5881751,15.1316934 C12.4653747,15.1316934 12.3557247,13.596594 11.2592252,10.5263954 C12.3557247,10.9649952 13.1232744,11.6228949 13.5618742,12.5000945 C14.2197739,13.8158939 13.8908241,13.8158939 14.5487238,14.4737937 C14.9873236,14.9123935 16.0838231,15.7895931 17.8382223,17.1053925 L15.2066235,24.3422893 Z"/>
          <path fill="#FCB8B0" d="M15.2066235,24.3422893 C15.2066235,22.1492903 14.3294239,20.3948911 12.5750246,19.0790916 C9.94342579,17.1053925 7.96972665,17.1053925 6.65392723,16.7764427 C5.33812781,16.4474928 4.02232838,15.7895931 4.02232838,14.4737937 C4.02232838,13.1579942 1.82193467,12.7339298 1.39072953,12.3027246 C0.732829822,11.6448249 3.36442867,10.5263954 4.68022809,11.8421948 C5.99602752,13.1579942 7.31182694,13.1579942 7.96972665,13.1579942 C8.62762637,13.1579942 12.2460748,13.8158939 11.5881751,15.1316934 C11.9408613,15.1316934 12.5611864,14.1192918 13.2329243,14.4737937 C13.8989281,14.8252694 15.2147276,16.1410689 17.1803226,18.4211919 L15.2066235,24.3422893 Z"/>
          <path fill="#1B215C" d="M0.371595337,5.76091103 L5.63479303,4.47942005 C5.99814101,4.39095156 6.47036224,4.54752386 6.68952866,4.82913406 L13.8325752,14.007341 C14.0517416,14.2889512 13.9348594,14.5889593 13.5715114,14.6774278 L8.30831371,15.9589187 C7.94496573,16.0473872 7.47274451,15.8908149 7.25357808,15.6092047 L0.110531544,6.43099779 C-0.108634882,6.14938759 0.00824735923,5.84937953 0.371595337,5.76091103 Z"/>
          <path fill="#FCB8B0" d="M12.6788797,19.0790916 C10.0472808,17.1053925 8.07358169,17.1053925 6.75778227,16.7764427 C5.44198284,16.4474928 4.12618342,15.7895931 4.12618342,14.4737937 C4.12618342,13.1579942 1.92578971,12.7339298 1.49458457,12.3027246 C0.83668486,11.6448249 3.46828371,10.5263954 4.78408313,11.8421948 C6.09988256,13.1579942 7.41568198,13.1579942 8.07358169,13.1579942 C8.7314814,13.1579942 12.3499298,13.8158939 11.6920301,15.1316934 C13.0078295,15.1316934 15.3104785,21.0527908 12.6788797,19.0790916 Z"/>
          <path fill="#1B215C" d="M39.5489128,3.94739827 C41.7419119,2.19299904 43.4963111,0.877199616 44.8121105,-4.67465861e-15 C45.4700102,0.657899712 54.6806062,7.89479654 57.312205,19.0790916 C59.0666043,26.5352884 59.724504,33.7721852 59.2859042,40.7897821 C55.3385059,42.1055816 51.8297074,42.3248815 48.7595088,41.4476818 C45.6893101,40.5704822 42.3998116,39.4739827 38.8910131,38.1581833 L15.8645232,19.0790916 L17.1803226,15.1316934 C23.3207199,18.201892 27.9260179,19.5176915 30.9962166,19.0790916 C34.0664152,18.6404918 36.917314,13.596594 39.5489128,3.94739827 Z"/>
          <path fill="url(#illustration_100%-d)" d="M11.9171249,30.9212865 L15.8645232,16.4474928 C21.5663207,19.5176915 25.7330189,21.0527908 28.3646177,21.0527908 C32.312016,21.0527908 35.6015146,16.4474928 36.917314,13.1579942 C38.2331134,9.86849568 39.5489128,4.60529798 40.2068125,3.94739827 C40.8647122,3.28949856 44.1542108,1.31579942 46.1279099,5.2631977 C48.1016091,9.21059597 51.3911076,13.1579942 50.7332079,21.0527908 C50.0753082,28.9475873 48.7595088,37.5002836 44.1542108,38.816083 C39.5489128,40.1318824 37.6429213,40.1310728 35.7472474,39.5217172 C35.6990277,39.5062172 35.6504736,39.4903024 35.6015146,39.4739827 C33.6278154,38.816083 30.3383169,36.8423839 27.0488183,37.5002836 C23.7593197,38.1581833 22.4435203,38.816083 18.496122,36.8423839 C15.8645232,35.5265844 13.6715242,33.5528853 11.9171249,30.9212865 Z"/>
        </g>
        <path fill="url(#illustration_100%-e)" d="M30.3943256,8.39789063 C31.0522253,9.71369005 30.3943256,13.6610883 30.3943256,14.318988 C30.3943256,14.9768877 30.3943256,15.6347875 31.0522253,15.6347875 C31.710125,15.6347875 32.3680248,14.9768877 33.0259245,15.6347875 C33.6838242,16.2926872 34.3417239,18.2663863 37.5752137,18.2663863 C40.8087035,18.2663863 44.1542108,14.9768877 44.8121105,14.318988 C45.4700102,13.6610883 46.7858097,11.0294895 46.1279099,9.05579034 C45.4700102,7.08209121 44.2102196,3.13469293 39.6049216,3.13469293 C34.9996236,3.13469293 29.7364259,7.08209121 30.3943256,8.39789063 Z"/>
        <path stroke="#23286B" stroke-linecap="round" stroke-width=".5" d="M31.6541163,12.6742388 C31.6541163,12.3108908 31.2122887,12.016339 30.6672667,12.016339 C30.1222447,12.016339 29.6804171,12.3108908 29.6804171,12.6742388" transform="rotate(-171 30.667 12.345)"/>
        <path fill="#23286B" d="M29.3149173,11.2501067 C26.6833185,10.6574482 25.0751192,7.00637918 27.0488183,6.41372068 C29.0225174,5.82106218 29.6804171,8.19169618 30.9962166,8.19169618 C31.8734162,8.19169618 37.2340805,8.81606069 47.0782095,10.0647897 C46.4446765,12.9009219 45.4700102,14.318988 44.1542108,14.318988 C42.1805117,14.318988 42.4729115,13.0280822 43.1308113,12.4354237 C43.788711,11.8427652 44.4466107,10.0647897 43.1308113,10.0647897 C41.8150118,10.0647897 41.1571121,11.2501067 38.5255133,11.2501067 C35.8939144,11.2501067 37.2097138,10.0647897 34.578115,10.0647897 C31.9465162,10.0647897 31.9465162,11.8427652 29.3149173,11.2501067 Z"/>
        <path fill="url(#illustration_100%-f)" d="M36.1822835,0.0614094914 C36.1838898,0.0616639084 36.185496,0.0619191204 36.1871021,0.0621751273 L43.2554626,1.18886629 C45.9502171,1.61840805 47.8095419,4.1202235 47.4437094,6.82436373 L46.995678,10.1374651 C36.9605082,8.82884143 31.5055211,8.17452962 30.6307167,8.17452962 C30.3621359,8.17452962 30.1483778,8.06488428 29.9614664,7.89595038 C29.9628619,7.84206762 29.9678966,7.78759534 29.9764369,7.73286082 C29.9765921,7.73186616 29.9767485,7.73087168 29.976906,7.72987738 L30.542483,4.1589644 C30.9683624,1.47006795 33.4933871,-0.364469867 36.1822835,0.0614094914 Z"/>
        <path fill="#F84F4C" d="M30.932504,8.52051043 L54.4088851,8.64619287 C54.9183606,8.64892038 55.3299315,9.06270051 55.3299315,9.57218335 L55.3299315,9.57218335 L55.3299315,9.57218335 L30.932504,9.44157003 L30.932504,8.52051043 Z" transform="rotate(8 43.131 9.046)"/>
      </g>
      <g transform="translate(91.786 164.475)">
        <path fill="#F2A09C" d="M52.631977,64.8586871 C54.824976,65.2972869 55.9214755,65.7358867 55.9214755,66.1744865 C55.9214755,66.8323862 51.3161775,68.1481856 50.6582778,68.1481856 C50.0003781,68.1481856 46.0529798,67.4902859 46.0529798,67.4902859 C46.0529798,67.4902859 47.3687793,60.2533891 49.3424784,59.5954894 C51.3161775,58.9375897 54.6056761,58.9375897 55.2635758,59.5954894 C55.9214755,60.2533891 58.5530744,62.8849879 56.5793752,64.2007874 C55.2635758,65.077987 53.9477764,65.2972869 52.631977,64.8586871 Z"/>
        <path fill="#FFBDB6" d="M42.7634813,75.3850825 C42.3473332,73.5124163 45.3950801,67.4902859 45.3950801,65.5165868 C45.3950801,63.5428876 46.0529798,60.2533891 48.6845787,58.27969 C51.3161775,56.3059908 54.6056761,55.6480911 57.8951746,56.3059908 C61.1846732,56.9638905 59.2109741,62.2270882 56.5793752,63.5428876 C53.9477764,64.8586871 51.9740772,67.4902859 51.3161775,68.1481856 C50.6582778,68.8060853 49.3424784,70.1218848 48.6845787,69.4639851 C48.026679,68.8060853 48.6845787,65.5165868 50.0003781,64.2007874 C51.3161775,62.8849879 52.631977,60.2533891 51.9740772,60.9112888 C51.3161775,61.5691885 49.3424784,62.2270882 48.6845787,63.5428876 C48.026679,64.8586871 47.3687793,69.4639851 46.7108795,71.4376842 C46.0529798,73.4113833 44.7371804,76.0429822 42.7634813,75.3850825 Z"/>
        <path fill="#151A4F" d="M80.2637649,80.6482802 C79.1100429,91.4068754 76.9980826,98.1019725 73.9278839,100.733571 C69.3225859,104.68097 65.1320715,105.648469 50.901394,105.338869 C36.6707165,105.029269 23.6843896,105.648469 18.4211919,103.01687 C13.1579942,100.385272 5.2631977,95.1220738 11.1842951,85.9114778 C15.1316934,79.7710805 29.247926,77.4748815 53.5329928,79.0228809 L80.2637649,80.6482802 Z"/>
        <path fill="#2C316F" d="M103.948154,79.3324807 C103.948154,91.1746755 102.413055,98.4115724 99.3428565,101.043171 C94.7375585,104.990569 90.1322605,107.622168 76.3163666,105.648469 C62.5004726,103.67477 48.026679,106.964269 42.7634813,104.33267 C37.5002836,101.701071 30.2633867,95.7799735 36.1844842,86.5693776 C40.1318824,80.4289803 54.3863762,78.0166813 78.9479654,79.3324807 L103.948154,79.3324807 Z"/>
        <path fill="url(#illustration_100%-g)" d="M61.8425729,24.7268046 C64.4741718,23.4110052 67.7636703,22.9724054 71.7110686,23.4110052 C77.632166,24.0689049 89.4743608,28.0163032 99.3428565,41.8321972 C105.921854,51.0427931 107.676253,63.5428876 104.606054,79.3324807 L57.2372749,79.3324807 L57.8951746,29.9900023 L61.8425729,24.7268046 Z"/>
        <rect width="16.447" height="3.289" x="41.448" y="76.701" fill="#89B3F4"/>
        <path fill="#FFC2BC" d="M60.5267735,72.0955839 C60.0881737,72.0955839 59.2109741,72.0955839 57.8951746,72.0955839 C56.9977424,72.0955839 54.5306193,72.6943121 52.631977,73.4113833 C50.3549852,74.2713479 49.3424784,74.6675712 49.3424784,75.3850825 C49.3424784,76.7008819 50.6582778,76.0429822 52.631977,76.0429822 C53.9477764,76.0429822 55.0442759,76.2622821 55.9214755,76.7008819 C53.7284765,80.2096803 52.631977,82.1833795 52.631977,82.6219793 C52.631977,83.279879 51.9740772,85.2535781 53.9477764,84.5956784 C55.9214755,83.9377787 55.9214755,83.9377787 56.5793752,83.9377787 C57.2372749,83.9377787 57.2372749,85.2535781 59.2109741,84.5956784 C61.1846732,83.9377787 63.1583723,84.5956784 63.1583723,84.5956784 C63.1583723,84.5956784 64.4741718,85.2535781 65.1320715,83.9377787 C65.7899712,82.6219793 65.7899712,79.9903804 65.7899712,79.3324807 C65.7899712,78.8938809 67.5443704,78.2359812 71.0531689,77.3587816 L66.4478709,69.4639851 L60.5267735,72.0955839 Z"/>
        <path fill="#F2A19C" d="M59.2109741,18.8057072 C63.5969721,21.8759059 66.228571,23.6303051 67.1057706,24.0689049 C68.42157,24.7268046 69.7373695,26.7005038 69.0794697,28.0163032 C68.42157,29.3321026 65.7899712,34.5953003 65.1320715,34.5953003 C64.4741718,34.5953003 63.1583723,35.2532 60.5267735,33.9374006 C58.7723743,33.060201 55.7021756,31.0865019 51.3161775,28.0163032 L59.2109741,18.8057072 Z"/>
        <path stroke="#A1C3FC" stroke-width="1.645" d="M38.1581833,9.59511127 C39.4739827,5.20911319 41.8862817,2.35821444 45.3950801,1.04241502 C50.6582778,-0.931284119 52.631977,0.384515305 55.2635758,1.04241502 C57.8951746,1.70031473 60.5267735,4.98981329 60.5267735,8.93721156 C60.5267735,11.5688104 59.2109741,16.1741084 56.5793752,22.7531055"/>
        <g transform="translate(30.825 2.965)">
          <path fill="url(#illustration_100%-h)" d="M8.21350477,8.1410041 C6.13391074,10.7732886 5.84324117,12.8558996 5.70002773,15.5450542 C5.58274726,17.7472588 7.21229151,23.8334504 9.19838437,25.5599345 C11.1844772,27.2864187 13.0530143,29.5966339 19.2359589,29.0551109 C25.4189035,28.513588 26.3090208,17.9857751 25.4471838,15.3716041 C24.5853468,12.757433 21.3547519,3.86305675 17.0519793,4.4917391 C12.7492067,5.12042145 10.2930988,5.50871964 8.21350477,8.1410041 Z" transform="rotate(-41 15.71 16.798)"/>
          <path stroke="#23286B" stroke-width=".658" d="M9.50993296,24.6934869 C10.9633249,24.4670154 11.359776,22.7649292 10.3954313,20.891771 C9.43108659,19.0186128 7.47112381,17.6837095 6.0177319,17.9101811 C4.56433999,18.1366526 4.16788889,19.8387388 5.13223358,21.711897 C6.09657828,23.5850551 8.05654105,24.9199584 9.50993296,24.6934869 Z"/>
          <path fill="#23286B" d="M17.202027,16.4983309 C13.6932285,15.1825314 9.52653037,13.6474321 4.70193248,11.8930329 C4.31957234,7.11353116 6.0177319,0.708737772 15.8862276,0.05083806 C25.7547233,-0.607061652 29.7021215,5.31403576 30.3600212,6.62983518 C31.017921,7.9456346 31.6758207,17.1562306 29.7021215,19.7878294 C22.4652247,17.8141303 24.4389238,13.866732 21.807325,13.866732 C20.0529258,13.866732 18.5178264,14.7439316 17.202027,16.4983309 Z"/>
        </g>
        <path stroke="#23286B" stroke-width=".658" d="M60.5267735,9.59511127 C61.8425729,11.7881103 62.5004726,13.7618094 62.5004726,15.5162087 C62.5004726,17.2706079 62.2811727,19.9022068 61.8425729,23.4110052"/>
        <path stroke="#A1C3FC" stroke-width="1.645" d="M45.3950801,1.04241502 C50.6582778,-0.931284119 52.631977,0.384515305 55.2635758,1.04241502 C57.8951746,1.70031473 60.5267735,4.98981329 60.5267735,8.93721156 C60.5267735,11.5688104 59.2109741,16.1741084 56.5793752,22.7531055"/>
        <circle cx="55.099" cy="22.589" r="4.276" fill="#B9D3FD" stroke="#A1C3FC" stroke-width="1.645"/>
        <path fill="url(#illustration_100%-i)" d="M73.026868,28.6742029 C69.7373695,30.6479021 75.0005672,45.1216957 78.9479654,51.0427931 C81.5795643,54.9901914 83.9918632,57.8410901 86.1848623,59.5954894 L66.4478709,69.4639851 L75.0005672,83.9377787 C93.4217591,72.9727835 102.851655,67.0516861 103.290255,66.1744865 C103.948154,64.8586871 103.290255,58.9375897 101.316556,54.9901914 C99.3428565,51.0427931 89.4743608,36.5689995 84.8690628,33.2795009 C80.2637649,29.9900023 76.3163666,26.7005038 73.026868,28.6742029 Z"/>
        <polygon fill="#A1C3FC" points="0 51.043 35.276 51.043 43.205 79.944 7.929 79.944"/>
        <circle cx="21.382" cy="65.846" r="2.961" fill="#89B3F4"/>
      </g>
      <g transform="translate(215.138 64.474)">
        <path fill="url(#illustration_100%-j)" d="M27.4270845,9.3064489 C27.4270845,10.3843564 27.5355795,13.1714678 27.4270845,15.1883337 C27.3382357,16.8399872 27.0023922,17.786621 26.7741777,18.1292762 C26.1212709,19.1095903 28.2105727,19.4363617 28.8634795,19.4363617 C29.5163864,19.7631331 29.3069669,19.7631331 29.9598737,20.4166758 C30.6127806,21.0702186 33.303246,23.6843896 35.9148733,23.6843896 C38.5265006,23.6843896 40.432895,19.7365952 41.0592898,19.1095903 C41.7121966,18.4560475 43.6153334,15.8418765 42.9624266,13.8812482 C42.3095198,11.9206199 41.0592898,7.99936338 36.488942,7.99936338 C31.9185942,7.99936338 27.4270845,7.34582062 27.4270845,9.3064489 Z" transform="matrix(-1 0 0 1 69.746 0)"/>
        <path fill="url(#illustration_100%-k)" d="M94.0432855,134.104995 C87.3359177,138.929593 82.7627124,141.944967 80.3236696,143.151116 C76.6651053,144.96034 73.7907689,147.054047 72.8761278,148.863272 C76.0572958,149.138533 87.711663,149.330603 107.839229,149.439481 L104.826433,133.939987 L94.0432855,134.104995 Z" transform="scale(-1 1) rotate(11 0 -796.71)"/>
        <path fill="#5287F3" d="M83.8866305,157.895931 C79.1797057,162.007804 75.6709073,164.639403 73.3602351,165.790727 C69.8942269,167.517714 64.3582415,171.958537 63.4917394,173.685524 C66.3800796,173.685524 79.0994741,173.685524 101.649923,173.685524 L96.386725,157.895931 L83.8866305,157.895931 Z" transform="matrix(-1 0 0 1 165.142 0)"/>
        <path fill="#1B205C" d="M36.9584357,70.3952692 C38.2801889,70.3952692 66.6978842,76.3163666 70.0022674,77.632166 C73.3066505,78.9479654 76.6110337,83.5532634 77.932787,90.7901602 C78.8139558,95.6147581 81.2371701,110.307852 85.2024299,134.869441 L70.663144,138.158939 L38.2801889,79.6058651 C36.5178513,73.4654678 36.0772668,70.3952692 36.9584357,70.3952692 Z"/>
        <path fill="#23286B" d="M9.08792938,72.7090064 C8.21317663,75.7907039 10.1813703,80.4132502 14.9925105,86.5766452 C22.2092207,95.8217378 43.2032868,103.746103 45.1714805,108.368649 C47.1396742,112.991195 51.0760616,130.821017 52.3881908,132.141744 C53.7003199,133.462472 56.9806427,138.085018 56.9806427,142.047201 C56.9806427,146.009383 63.5412884,153.933748 68.7898049,157.895931 C73.1635687,157.895931 77.3186443,157.895931 81.2550317,157.895931 C72.0701277,123.116773 66.1655466,103.525982 63.5412884,99.1235566 C59.604901,92.519919 39.2668994,71.3882788 39.2668994,70.0675513 C39.2668994,69.1870663 29.2072427,70.0675513 9.08792938,72.7090064 Z"/>
        <path stroke="#E44B3E" stroke-width=".5" d="M18.0966593,12.5000945 C16.7808599,16.4474928 15.6843604,18.8597917 14.8071608,19.7369914 C13.4913613,21.0527908 12.1755619,22.3685902 10.2018628,22.3685902"/>
        <g transform="matrix(-1 0 0 1 81.913 21.053)">
          <path fill="#F2A09C" d="M20.2324757,30.9212865 C20.2324757,28.1017163 19.0818377,25.8460601 16.7805618,24.154318 C13.3286479,21.6167048 10.7397124,21.6167048 9.01375544,21.1937693 C7.28779848,20.7708338 5.56184152,19.9249627 5.56184152,18.2332206 C5.56184152,16.5414785 2.67554686,16.6541524 2.10992759,16.0997458 C1.24694911,15.2538747 4.69886304,13.8158939 6.42482,15.5076361 C8.15077696,17.1993782 9.87673393,16.5414785 10.7397124,16.5414785 C11.6026909,16.5414785 16.3490725,17.3873495 15.4860941,19.0790916 C16.636732,19.0790916 16.2736024,17.1053925 14.3967051,13.1579942 C16.2736024,13.7219083 17.4997105,14.5677793 18.0750295,15.6956074 C18.938008,17.3873495 18.5065187,17.3873495 19.3694972,18.2332206 C19.9448162,18.7971346 21.3831137,19.9249627 23.6843896,21.6167048 L20.2324757,30.9212865 Z"/>
          <path fill="#FCB8B0" d="M19.8358875,31.5791862 C19.8358875,28.7182449 18.7102419,26.429492 16.4589506,24.7129272 C13.0820137,22.1380801 10.549311,22.1380801 8.8608425,21.7089389 C7.17237404,21.2797978 5.48390558,20.4215154 5.48390558,18.7049507 C5.48390558,16.9883859 2.66030244,16.4351602 2.10696865,15.8726188 C1.26273442,15.0143365 4.63967135,13.5552564 6.32813981,15.2718212 C8.01660827,16.9883859 9.70507674,16.9883859 10.549311,16.9883859 C11.3935452,16.9883859 16.0368335,17.8466683 15.1925992,19.563233 C15.6451755,19.563233 16.441193,18.2424748 17.3031848,18.7049507 C18.1578184,19.1634787 19.8462869,20.8800434 22.3685902,23.8546449 L19.8358875,31.5791862 Z"/>
          <path fill="#1B215C" d="M0.490940014,6.97758767 L7.44451046,5.29563288 C7.92455432,5.17951814 8.54843808,5.38501902 8.83799383,5.75463195 L18.2751612,17.8010133 C18.5647169,18.1706263 18.4102958,18.5643863 17.9302519,18.6805011 L10.9766815,20.3624559 C10.4966376,20.4785706 9.87275385,20.2730697 9.5831981,19.9034568 L0.146030782,7.85707543 C-0.143524973,7.4874625 0.0108961503,7.09370242 0.490940014,6.97758767 Z"/>
          <path fill="#FCB8B0" d="M16.8334171,25.1121228 C13.369181,22.4368895 10.771004,22.4368895 9.03888597,21.9910173 C7.30676795,21.5451451 5.57464993,20.6534006 5.57464993,18.8699118 C5.57464993,17.0864229 2.67805221,16.5116284 2.11041388,15.9271552 C1.24435487,15.0354107 4.70859092,13.5194452 6.44070894,15.3029341 C8.17282696,17.0864229 9.90494499,17.0864229 10.771004,17.0864229 C11.637063,17.0864229 16.4003876,17.9781674 15.5343286,19.7616562 C17.2664466,19.7616562 20.2976531,27.7873561 16.8334171,25.1121228 Z"/>
          <path fill="#4885E9" d="M51.5209016,5.19720149 C54.4029396,2.88733416 56.70857,1.15493366 58.4377928,0 C59.3024042,0.866200248 71.4069639,10.394403 74.8654095,25.1198072 C75.7289873,28.7967573 78.0961443,35.7573794 79.6058651,40.7897821 C80.9216646,45.1757802 80.0444649,50.4389779 76.9742663,56.5793752 C72.1496684,56.5793752 67.3250705,56.1407754 62.5004726,55.2635758 C57.6758747,54.3863762 52.1933771,52.8512769 46.0529798,50.6582778 L20.3948911,25.1198072 L22.1241139,19.9226057 C30.1938203,23.9648735 36.2461001,25.697274 40.2809534,25.1198072 C44.3158066,24.5423403 48.062456,17.9014718 51.5209016,5.19720149 Z"/>
          <path fill="url(#illustration_100%-l)" d="M16.4474928,40.1318824 L20.9967084,21.7908287 C28.5180972,25.8256007 34.0144966,27.8429867 37.4859068,27.8429867 C42.6930221,27.8429867 45.3950801,24.3422893 47.4521906,17.4678586 C49.509301,10.5934279 50.9236008,6.22813653 51.7914533,5.36354252 C52.6593059,4.49894852 60.0464459,-0.576393157 63.8162721,3.94739827 C66.0092711,6.57899712 68.2022701,10.0877956 70.3952692,14.4737937 C69.5180696,20.1755912 68.3839443,24.6319889 66.9928935,27.8429867 C58.871005,46.5909481 56.5793752,51.9740772 48.6845787,51.9740772 C40.7897821,51.9740772 37.5002836,51.3161775 31.5791862,48.026679 C25.6580888,44.7371804 26.2599061,47.3309624 21.0527908,44.7371804 C17.5813806,43.0079924 16.0462813,41.4728931 16.4474928,40.1318824 Z"/>
        </g>
        <path fill="#E44B3E" d="M42.4151734,13.1579942 C42.9553926,10.867494 43.1745239,9.33239468 43.0725673,8.55269625 C42.9976171,7.97952535 42.5951772,6.93928167 42.4151734,6.57899712 C41.7577796,5.2631977 39.1282042,0.657899712 29.9246902,0 C23.3507516,0 19.4063885,5.92109741 18.0916008,10.5263954 C16.7768131,15.1316934 18.0916008,15.7895931 16.7768131,18.4211919 C15.9002879,20.1755912 14.1472376,21.9299904 11.5176622,23.6843896 C15.9002879,25.8773887 19.1872572,27.412488 21.3785701,28.2896876 C24.6655393,29.605487 32.5542656,30.2633867 32.5542656,30.2633867 C32.5542656,30.2633867 35.183841,25.0001891 33.2116595,21.0527908 C31.2394779,17.1053925 31.2394779,15.7895931 31.8968717,15.1316934 C32.5542656,14.4737937 34.5264472,13.8158939 37.1560226,13.1579942 C39.785598,12.5000945 41.7577796,10.6640199 41.7577796,9.21059597 C41.7577796,8.77199616 41.9769109,10.0877956 42.4151734,13.1579942 Z"/>
        <path stroke="#E44B3E" stroke-linecap="square" stroke-width=".526" d="M31.2546536,15.1316934 C31.2546536,17.3246924 31.6710996,18.8597917 32.5039916,19.7369914 C33.7533297,21.0527908 35.0026677,24.3422893 34.3779987,26.9738882 C33.7533297,29.605487 33.1286606,30.2633867 33.1286606,30.2633867"/>
        <path stroke="#23286B" stroke-linecap="round" stroke-width=".5" d="M43.0968484,14.4737937 C43.0968484,14.1104457 42.5077449,13.8158939 41.781049,13.8158939 C41.054353,13.8158939 40.4652495,14.1104457 40.4652495,14.4737937" transform="rotate(180 41.781 14.145)"/>
      </g>
    </g>
    <g transform="scale(-1 1) rotate(7 -2061.768 -666.636)">
      <path fill="#FFF" d="M34.2100822,1.89291295 C37.7928354,3.78408108 40.8098908,5.86436603 41.9412866,9.07935185 C43.0726823,12.2943377 45.1469079,15.3202067 45.1469079,17.9678421 C45.1469079,20.6154775 44.0155121,25.9107482 40.8098908,27.9910332 C37.6042695,30.0713181 32.1358566,35.1774721 27.7988395,35.1774721 C23.4618224,35.1774721 19.3133713,36.3121729 15.5420521,33.0971871 C11.7707329,29.8822013 16.8620138,28.7475004 17.6162777,28.7475004 C18.3705415,28.7475004 35.341478,25.9107482 37.7928354,24.2086969 C40.2441929,22.5066456 43.0726823,20.6154775 41.9412866,18.7243093 C40.8098908,16.8331412 39.4899291,16.8331412 36.8500056,17.4004916 C34.2100822,17.9678421 24.2160863,23.8304633 21.7647288,24.7760473 C21.1027562,25.031396 20.1932679,25.2039984 19.1550906,25.260337 C17.1837957,27.0423218 14.1856572,28.18015 10.8279031,28.18015 C4.89180314,28.18015 0.0796433324,24.6239898 0.0796433324,20.2372438 C0.0796433324,17.7568778 1.61810481,15.5420524 4.02831824,14.0854625 C4.99450368,11.1529966 6.00348898,9.10643937 7.05658387,7.94465097 C8.94224348,5.86436603 14.2220904,2.6493802 18.3705415,1.32556251 C22.5189926,0.00174481993 30.6273289,0.00174481993 34.2100822,1.89291295 Z"/>
      <path fill="#EAEAEA" d="M0.930693271,18.2029488 C2.27746472,16.6851841 3.82625189,15.5468605 5.57705477,14.7879781 C4.97100762,14.0290957 4.16294475,12.511331 2.74883473,10.8038457 C1.26738613,11.9421692 0.661338982,14.4085369 0.930693271,18.2029488 Z"/>
      <path fill="#EAEAEA" d="M16.6141275,18.988054 C17.9608989,17.4702892 19.5096861,16.3319657 21.260489,15.5730833 C20.6544418,14.8142009 19.846379,13.2964362 18.4322689,11.5889508 C16.9508203,12.7272744 16.3447732,15.1936421 16.6141275,18.988054 Z" transform="matrix(-1 0 0 1 37.812 0)"/>
      <path stroke="#373C78" stroke-linecap="round" stroke-width="1.345" d="M4.56625543,21.8892386 C5.05545234,22.7860996 5.72809808,23.2345301 6.58419265,23.2345301 C7.44028723,23.2345301 8.11293297,23.0551579 8.60212987,22.6964135"/>
      <path stroke="#373C78" stroke-linecap="round" stroke-width="1.345" d="M13.2134023,21.844192 C13.7157266,22.4736044 14.4067593,22.7880413 15.2865006,22.7875027 C16.1662419,22.7869632 16.8575442,22.6605953 17.3604075,22.4083991" transform="rotate(-15 15.287 22.316)"/>
      <rect width="1.345" height="1.345" x="10.327" y="24.736" fill="#CAD2FF"/>
    </g>
  </g>
</svg>
