<svg xmlns="http://www.w3.org/2000/svg" width="108" height="22" viewBox="0 0 108 22">
  <path fill-rule="evenodd" d="M75.3882455,21.1490173 L95.7280856,21.1490173 C100.829893,20.8582111 101.550947,16.0700185 101.550947,16.0700185 C101.73134,14.810377 101.583604,13.7865944 101.583604,13.7865944 C101.436387,12.652917 99.8061101,9.24721976 96.3273225,8.91753582 C94.2662795,8.72625693 75.7194845,7.64337997 75.7194845,7.64337997 C76.2684394,9.53128705 77.0065996,10.1014951 77.5638484,10.6240131 C78.8468166,11.8468502 80.7699729,12.1397298 80.7699729,12.1397298 C81.253613,12.1796443 95.1293672,13.3247258 95.1293672,13.3247258 C95.5762029,13.3480525 96.4683194,13.3936692 96.4683194,14.4641052 C96.4683194,14.7870503 96.3019223,15.121918 96.096129,15.3049029 C96.096129,15.3049029 95.6057501,15.5713456 95.1506204,15.5713456 L75.4012047,15.5713456 L75.3882455,21.1490173 Z M19.2491876,21.1013271 L45.8343613,21.1013271 C50.4649692,20.1827738 50.9491276,16.0228467 50.9491276,16.0228467 C51.1673618,14.7870503 51.0393242,13.7865944 51.0393242,13.7865944 C50.9004008,12.9540906 49.2996712,9.27365668 45.8245122,8.95434016 C43.7520651,8.7625429 25.3094627,7.31369603 25.3094627,7.31369603 C25.6661019,9.14199045 26.4975689,10.0657275 27.0501524,10.5929108 C28.3305287,11.8100458 30.3672082,12.1542442 30.3672082,12.1542442 C30.8591423,12.1998608 44.5814586,13.3247258 44.5814586,13.3247258 C45.0184454,13.3480525 45.8473206,13.4574288 45.8369531,14.5299383 C45.8369531,14.6590127 45.7166911,15.6045213 44.664398,15.6045213 L24.7765773,15.6045213 L24.7765773,7.26704265 L19.2491876,6.86737863 L19.2491876,21.1013271 Z M75.3467758,7.62886558 L69.7623653,7.29866327 L69.7623653,13.7788188 C69.7623653,13.7788188 69.7468142,15.6480645 67.9231851,15.6480645 L58.3260649,15.6480645 C58.3260649,15.6480645 56.7009719,15.5143248 56.7009719,13.7969618 L56.7009719,6.42054285 L51.0610958,6.01465838 L51.0610958,15.9549401 C51.9734287,20.7223979 56.3220428,21.0888862 56.3220428,21.0888862 C56.3220428,21.0888862 56.7657683,21.1184334 56.8378219,21.1251722 L69.799688,21.1251722 C69.799688,21.1251722 75.3467758,20.6824834 75.3467758,15.4137608 L75.3467758,7.62886558 Z M69.6680218,5.61240251 L75.3467758,5.61240251 L75.3467758,0.0264369195 L69.6680218,0.0264369195 L69.6680218,5.61240251 Z M51.0056301,5.61240251 L56.6895678,5.61240251 L56.6895678,0.0264369195 L51.0056301,0.0264369195 L51.0056301,5.61240251 Z M101.708013,5.61706784 L101.708013,0 L81.3660995,0 C78.788759,0.161213372 77.6509347,1.37990353 76.8013247,2.26061581 C75.896249,3.19368355 75.3882455,5.16038302 75.3882455,5.16038302 L75.3882455,5.61240251 L101.708013,5.61706784 Z M50.013468,5.61240251 L50.013468,0 L31.0006576,0 C28.4150232,0.161213372 27.2844561,1.37990353 26.4364012,2.26061581 C25.5328806,3.19368355 25.0191749,5.16038302 25.0191749,5.16038302 L25.0191749,0.0373227099 L14.9254554,0.0373227099 C14.1639684,0.0373227099 13.4382491,0.356120857 12.8908493,1.10620365 C12.3185678,1.84954763 10.0092251,5.61240251 10.0092251,5.61240251 L50.013468,5.61240251 Z M9.7821786,5.95245386 L0,21.0976985 L6.68646716,21.0976985 L16.0891982,6.61907893 L9.7821786,5.95245386 Z M105.070686,2.67583095 L105.070686,1.79304519 L105.874679,1.79304519 C105.991831,1.79304519 106.086693,1.81274329 106.155636,1.84695577 C106.269678,1.91278888 106.342768,2.03771629 106.342768,2.22070124 C106.342768,2.396429 106.295078,2.51513595 106.201771,2.58304255 C106.11313,2.64628381 105.991831,2.67583095 105.83943,2.67583095 L105.070686,2.67583095 Z M104.73841,4.07750606 L105.070686,4.07750606 L105.070686,2.97182078 L105.825434,2.97182078 C105.955027,2.97182078 106.049888,2.98063308 106.120387,3.01484557 C106.230282,3.07964194 106.289894,3.18694473 106.295078,3.35904389 L106.325662,3.79240203 C106.325662,3.8893374 106.328254,3.95776237 106.328254,3.99301159 C106.345878,4.02722408 106.357282,4.05625285 106.360393,4.07750606 L106.78131,4.07750606 L106.78131,4.01633829 C106.726881,3.99715856 106.702517,3.94428472 106.670897,3.86030862 C106.653791,3.81469198 106.653791,3.7410833 106.651717,3.64311119 L106.636684,3.29683938 C106.636684,3.1465118 106.601953,3.03195181 106.561521,2.97182078 C106.509165,2.90443255 106.424671,2.846375 106.328254,2.80801555 C106.441258,2.7535866 106.525753,2.66546353 106.59677,2.57060165 C106.653791,2.46692745 106.687485,2.34718376 106.687485,2.19374595 C106.687485,1.89931124 106.572925,1.6945547 106.340176,1.5820682 C106.218877,1.52452903 106.057146,1.49705536 105.874679,1.49705536 L104.73841,1.49705536 L104.73841,4.07750606 Z M103.244983,2.67583095 C103.244983,3.98730951 104.314901,5.05463534 105.630008,5.05463534 C106.264494,5.05463534 106.85129,4.80840913 107.305901,4.35949987 C107.757921,3.90644364 108,3.31342725 108,2.67583095 C108,2.03771629 107.757921,1.44418153 107.305901,0.990606926 C106.85129,0.543771149 106.264494,0.295471454 105.630008,0.295471454 C104.314901,0.295471454 103.244983,1.36279728 103.244983,2.67583095 L103.244983,2.67583095 Z M103.430042,2.67583095 C103.430042,1.47061845 104.415465,0.484158487 105.630008,0.484158487 C106.211102,0.484158487 106.75591,0.717943795 107.16957,1.12538338 C107.582193,1.54733735 107.804056,2.09629221 107.804056,2.67583095 C107.804056,3.25692481 107.582193,3.81469198 107.16957,4.21902133 C106.75591,4.6357916 106.211102,4.86750342 105.630008,4.86750342 C104.415465,4.86750342 103.430042,3.88467206 103.430042,2.67583095 L103.430042,2.67583095 Z"/>
</svg>
