<svg id="ejxDdSUB7MA1" xmlns="http://www.w3.org/2000/svg" xmlns:xlink="http://www.w3.org/1999/xlink" viewBox="0 0 309 235" shape-rendering="geometricPrecision" text-rendering="geometricPrecision"><style><![CDATA[#ejxDdSUB7MA18 {animation: ejxDdSUB7MA18_c_o 3000ms linear infinite normal forwards}@keyframes ejxDdSUB7MA18_c_o { 0% {opacity: 1} 89.333333% {opacity: 1} 100% {opacity: 0}} #ejxDdSUB7MA19_to {animation: ejxDdSUB7MA19_to__to 3000ms linear infinite normal forwards}@keyframes ejxDdSUB7MA19_to__to { 0% {transform: translate(154.059998px,107.434998px)} 8.333333% {transform: translate(154.059998px,117.434998px)} 100% {transform: translate(154.059998px,117.434998px)}} #ejxDdSUB7MA19 {animation: ejxDdSUB7MA19_c_o 3000ms linear infinite normal forwards}@keyframes ejxDdSUB7MA19_c_o { 0% {opacity: 0} 8.333333% {opacity: 1} 100% {opacity: 1}} #ejxDdSUB7MA25_to {animation: ejxDdSUB7MA25_to__to 3000ms linear infinite normal forwards}@keyframes ejxDdSUB7MA25_to__to { 0% {transform: translate(77.5px,12.5px)} 4% {transform: translate(77.5px,12.5px)} 8.333333% {transform: translate(88.5px,12.5px)} 100% {transform: translate(88.5px,12.5px)}} #ejxDdSUB7MA25 {animation: ejxDdSUB7MA25_c_o 3000ms linear infinite normal forwards}@keyframes ejxDdSUB7MA25_c_o { 0% {opacity: 0} 4% {opacity: 0} 8.333333% {opacity: 1} 100% {opacity: 1}} #ejxDdSUB7MA28_to {animation: ejxDdSUB7MA28_to__to 3000ms linear infinite normal forwards}@keyframes ejxDdSUB7MA28_to__to { 0% {transform: translate(121.417px,7px)} 6.666667% {transform: translate(121.417px,7px)} 10.666667% {transform: translate(131.417px,7px)} 100% {transform: translate(131.417px,7px)}} #ejxDdSUB7MA28 {animation: ejxDdSUB7MA28_c_o 3000ms linear infinite normal forwards}@keyframes ejxDdSUB7MA28_c_o { 0% {opacity: 0} 6.666667% {opacity: 0} 10.666667% {opacity: 1} 100% {opacity: 1}} #ejxDdSUB7MA34 {animation: ejxDdSUB7MA34_c_o 3000ms linear infinite normal forwards}@keyframes ejxDdSUB7MA34_c_o { 0% {opacity: 0} 3.666667% {opacity: 0;animation-timing-function: cubic-bezier(0,0,0.58,1)} 10.666667% {opacity: 0;animation-timing-function: cubic-bezier(0,0,0.58,1)} 14.333333% {opacity: 1} 100% {opacity: 1}} #ejxDdSUB7MA49 {animation: ejxDdSUB7MA49_c_o 3000ms linear infinite normal forwards}@keyframes ejxDdSUB7MA49_c_o { 0% {opacity: 0} 3.666667% {opacity: 0;animation-timing-function: cubic-bezier(0,0,0.58,1)} 10.666667% {opacity: 0;animation-timing-function: cubic-bezier(0,0,0.58,1)} 14.333333% {opacity: 1} 100% {opacity: 1}} #ejxDdSUB7MA55 {animation: ejxDdSUB7MA55_c_o 3000ms linear infinite normal forwards}@keyframes ejxDdSUB7MA55_c_o { 0% {opacity: 0} 3.666667% {opacity: 0;animation-timing-function: cubic-bezier(0,0,0.58,1)} 10.666667% {opacity: 0;animation-timing-function: cubic-bezier(0,0,0.58,1)} 14.333333% {opacity: 1} 100% {opacity: 1}} #ejxDdSUB7MA61 {animation: ejxDdSUB7MA61_c_o 3000ms linear infinite normal forwards}@keyframes ejxDdSUB7MA61_c_o { 0% {opacity: 0} 3.666667% {opacity: 0;animation-timing-function: cubic-bezier(0,0,0.58,1)} 10.666667% {opacity: 0;animation-timing-function: cubic-bezier(0,0,0.58,1)} 14.333333% {opacity: 1} 100% {opacity: 1}} #ejxDdSUB7MA67_to {animation: ejxDdSUB7MA67_to__to 3000ms linear infinite normal forwards}@keyframes ejxDdSUB7MA67_to__to { 0% {transform: translate(17.177734px,145.018082px)} 23.333333% {transform: translate(17.177734px,145.018082px);animation-timing-function: cubic-bezier(0,0,0.58,1)} 36% {transform: translate(17.177734px,150.018082px)} 91.666667% {transform: translate(17.177734px,150.018082px)} 99.333333% {transform: translate(17.177734px,145.018082px)} 100% {transform: translate(17.177734px,145.018082px)}} #ejxDdSUB7MA67 {animation: ejxDdSUB7MA67_c_o 3000ms linear infinite normal forwards}@keyframes ejxDdSUB7MA67_c_o { 0% {opacity: 0} 23.333333% {opacity: 0;animation-timing-function: cubic-bezier(0,0,0.58,1)} 36% {opacity: 1} 91.666667% {opacity: 1} 99.333333% {opacity: 0} 100% {opacity: 0}} #ejxDdSUB7MA70_to {animation: ejxDdSUB7MA70_to__to 3000ms linear infinite normal forwards}@keyframes ejxDdSUB7MA70_to__to { 0% {transform: translate(17.177734px,105.196778px)} 19% {transform: translate(17.177734px,105.196778px);animation-timing-function: cubic-bezier(0,0,0.58,1)} 31% {transform: translate(17.177734px,110.196778px)} 91.666667% {transform: translate(17.177734px,110.196778px)} 99.333333% {transform: translate(17.177734px,105.196778px)} 100% {transform: translate(17.177734px,105.196778px)}} #ejxDdSUB7MA70 {animation: ejxDdSUB7MA70_c_o 3000ms linear infinite normal forwards}@keyframes ejxDdSUB7MA70_c_o { 0% {opacity: 0} 19% {opacity: 0;animation-timing-function: cubic-bezier(0,0,0.58,1)} 31% {opacity: 1} 91.666667% {opacity: 1} 99.333333% {opacity: 0} 100% {opacity: 0}} #ejxDdSUB7MA71_ts {animation: ejxDdSUB7MA71_ts__ts 3000ms linear infinite normal forwards}@keyframes ejxDdSUB7MA71_ts__ts { 0% {transform: translate(13.9995px,60.252732px) scale(0,0)} 11.333333% {transform: translate(13.9995px,60.252732px) scale(0,0);animation-timing-function: cubic-bezier(0.47,0,0.745,0.715)} 22% {transform: translate(13.9995px,60.252732px) scale(1,1)} 91.666667% {transform: translate(13.9995px,60.252732px) scale(1,1)} 99.333333% {transform: translate(13.9995px,60.252732px) scale(0,0)} 100% {transform: translate(13.9995px,60.252732px) scale(0,0)}} #ejxDdSUB7MA71 {animation: ejxDdSUB7MA71_c_o 3000ms linear infinite normal forwards}@keyframes ejxDdSUB7MA71_c_o { 0% {opacity: 0;animation-timing-function: cubic-bezier(0.47,0,0.745,0.715)} 11.333333% {opacity: 0;animation-timing-function: cubic-bezier(0.47,0,0.745,0.715)} 22% {opacity: 1} 91.666667% {opacity: 1} 99.333333% {opacity: 0} 100% {opacity: 0}} #ejxDdSUB7MA80_to {animation: ejxDdSUB7MA80_to__to 3000ms linear infinite normal forwards}@keyframes ejxDdSUB7MA80_to__to { 0% {transform: translate(45px,11px)} 33.666667% {transform: translate(45px,11px);animation-timing-function: cubic-bezier(0.42,0,0.58,1)} 43.666667% {transform: translate(45px,21px)} 91.666667% {transform: translate(45px,21px)} 99.333333% {transform: translate(45px,11px)} 100% {transform: translate(45px,11px)}} #ejxDdSUB7MA80_ts {animation: ejxDdSUB7MA80_ts__ts 3000ms linear infinite normal forwards}@keyframes ejxDdSUB7MA80_ts__ts { 0% {transform: scale(1,1)} 51% {transform: scale(1,1);animation-timing-function: cubic-bezier(0.42,0,0.58,1)} 58% {transform: scale(1.1,1.1);animation-timing-function: cubic-bezier(0.42,0,0.58,1)} 62% {transform: scale(1,1)} 100% {transform: scale(1,1)}} #ejxDdSUB7MA80 {animation: ejxDdSUB7MA80_c_o 3000ms linear infinite normal forwards}@keyframes ejxDdSUB7MA80_c_o { 0% {opacity: 0} 33.666667% {opacity: 0;animation-timing-function: cubic-bezier(0.42,0,0.58,1)} 43.666667% {opacity: 1} 91.666667% {opacity: 1} 99.333333% {opacity: 0} 100% {opacity: 0}} #ejxDdSUB7MA81-fill-g1-0 {animation: ejxDdSUB7MA81-fill-g1-0__c 3000ms linear infinite normal forwards}@keyframes ejxDdSUB7MA81-fill-g1-0__c { 0% {stop-color: rgb(255,255,255)} 58% {stop-color: rgb(255,255,255);animation-timing-function: cubic-bezier(0.42,0,0.58,1)} 62% {stop-color: rgb(255,255,255)} 100% {stop-color: rgb(255,255,255)}} #ejxDdSUB7MA81-fill-g1-1 {animation: ejxDdSUB7MA81-fill-g1-1__c 3000ms linear infinite normal forwards}@keyframes ejxDdSUB7MA81-fill-g1-1__c { 0% {stop-color: rgb(0,235,255)} 58% {stop-color: rgb(0,235,255);animation-timing-function: cubic-bezier(0.42,0,0.58,1)} 62% {stop-color: rgb(255,255,255)} 100% {stop-color: rgb(255,255,255)}} #ejxDdSUB7MA81 {animation: ejxDdSUB7MA81_f_p 3000ms linear infinite normal forwards}@keyframes ejxDdSUB7MA81_f_p { 0% {fill: none} 51% {fill: none;animation-timing-function: cubic-bezier(0.42,0,0.58,1)} 58% {fill: url(#ejxDdSUB7MA81-fill-g1);animation-timing-function: cubic-bezier(0.42,0,0.58,1)} 62% {fill: url(#ejxDdSUB7MA81-fill-g1)} 100% {fill: url(#ejxDdSUB7MA81-fill-g1)}} #ejxDdSUB7MA86_to {animation: ejxDdSUB7MA86_to__to 3000ms linear infinite normal forwards}@keyframes ejxDdSUB7MA86_to__to { 0% {transform: translate(174px,-10px)} 33.666667% {transform: translate(174px,-10px);animation-timing-function: cubic-bezier(0.42,0,0.58,1)} 43.666667% {transform: translate(174px,0px)} 91.666667% {transform: translate(174px,0px)} 99.333333% {transform: translate(174px,-10px)} 100% {transform: translate(174px,-10px)}} #ejxDdSUB7MA86 {animation: ejxDdSUB7MA86_c_o 3000ms linear infinite normal forwards}@keyframes ejxDdSUB7MA86_c_o { 0% {opacity: 0} 33.666667% {opacity: 0;animation-timing-function: cubic-bezier(0.42,0,0.58,1)} 43.666667% {opacity: 1} 91.666667% {opacity: 1} 99.333333% {opacity: 0} 100% {opacity: 0}} #ejxDdSUB7MA92_to {animation: ejxDdSUB7MA92_to__to 3000ms linear infinite normal forwards}@keyframes ejxDdSUB7MA92_to__to { 0% {transform: translate(134px,311.5px)} 43.666667% {transform: translate(134px,311.5px);animation-timing-function: cubic-bezier(0.42,0,0.58,1)} 51% {transform: translate(104px,211.5px)} 91.666667% {transform: translate(104px,211.5px)} 99.333333% {transform: translate(134px,311.5px)} 100% {transform: translate(134px,311.5px)}} #ejxDdSUB7MA92 {animation: ejxDdSUB7MA92_f_p 3000ms linear infinite normal forwards}@keyframes ejxDdSUB7MA92_f_p { 0% {fill: rgb(38,50,56)} 51% {fill: rgb(38,50,56);animation-timing-function: cubic-bezier(0.42,0,0.58,1)} 58% {fill: rgb(3,229,255);animation-timing-function: cubic-bezier(0.42,0,0.58,1)} 62% {fill: rgb(38,50,56)} 100% {fill: rgb(38,50,56)}}]]></style><defs><rect id="ejxDdSUB7MA2" width="90" height="24" rx="4" ry="4" stroke-miterlimit="1"/><rect id="ejxDdSUB7MA3" width="100" height="24" rx="4" ry="4" stroke-miterlimit="1"/><polygon id="ejxDdSUB7MA4" points="4,0.667 3.413,1.254 5.737,3.583 0.667,3.583 0.667,4.417 5.737,4.417 3.413,6.746 4,7.333 7.333,4" stroke-miterlimit="1"/><rect id="ejxDdSUB7MA5" width="20.833" height="20.833" rx="0" ry="0" stroke-miterlimit="1"/><path id="ejxDdSUB7MA6" d="M6.354167,1.645833C5.75,1.041667,4.920833,0.666667,4,0.666667C2.158333,0.666667,0.670833,2.158333,0.670833,4C0.670833,5.841667,2.158333,7.333333,4,7.333333C5.554167,7.333333,6.85,6.270833,7.220833,4.833333L6.354167,4.833333C6.0125,5.804167,5.0875,6.5,4,6.5C2.620833,6.5,1.5,5.379167,1.5,4C1.5,2.620833,2.620833,1.5,4,1.5C4.691667,1.5,5.308333,1.7875,5.758333,2.241667L4.416667,3.583333L7.333333,3.583333L7.333333,0.666667L6.354167,1.645833L6.354167,1.645833Z" stroke-miterlimit="1"/><rect id="ejxDdSUB7MA7" width="20.833" height="20.833" rx="0" ry="0" stroke-miterlimit="1"/><polygon id="ejxDdSUB7MA8" points="5.917,3.417 3.417,3.417 3.417,5.917 2.583,5.917 2.583,3.417 0.083,3.417 0.083,2.583 2.583,2.583 2.583,0.083 3.417,0.083 3.417,2.583 5.917,2.583" stroke-miterlimit="1"/><rect id="ejxDdSUB7MA9" width="20.833" height="20.833" rx="0" ry="0" stroke-miterlimit="1"/><path id="ejxDdSUB7MA10" d="M9.166667,3.85L6.170833,3.591667L5,0.833333L3.829167,3.595833L0.833333,3.85L3.108333,5.820833L2.425,8.75L5,7.195833L7.575,8.75L6.895833,5.820833L9.166667,3.85ZM5,6.416667L3.433333,7.3625L3.85,5.579167L2.466667,4.379167L4.291667,4.220833L5,2.541667L5.7125,4.225L7.5375,4.383333L6.154167,5.583333L6.570833,7.366667L5,6.416667Z" stroke-miterlimit="1"/><path id="ejxDdSUB7MA11" d="M0.416667,8.75L9.583333,8.75L5,0.833333L0.416667,8.75L0.416667,8.75ZM5.416667,7.5L4.583333,7.5L4.583333,6.666667L5.416667,6.666667L5.416667,7.5L5.416667,7.5ZM5.416667,5.833333L4.583333,5.833333L4.583333,4.166667L5.416667,4.166667L5.416667,5.833333L5.416667,5.833333Z" stroke-miterlimit="1"/><rect id="ejxDdSUB7MA12" width="20.833" height="20.833" rx="0" ry="0" stroke-miterlimit="1"/><path id="ejxDdSUB7MA13" d="M22.486559,12.137097L20.887097,12.137097L20.887097,8.938172C20.887097,4.523656,17.304301,0.94086,12.889785,0.94086C8.475269,0.94086,4.892473,4.523656,4.892473,8.938172L4.892473,12.137097L3.293011,12.137097C1.533602,12.137097,0.094086,13.576613,0.094086,15.336022L0.094086,31.330645C0.094086,33.090054,1.533602,34.52957,3.293011,34.52957L22.486559,34.52957C24.245968,34.52957,25.685484,33.090054,25.685484,31.330645L25.685484,15.336022C25.685484,13.576613,24.245968,12.137097,22.486559,12.137097L22.486559,12.137097ZM17.848118,12.137097L7.931452,12.137097L7.931452,8.938172C7.931452,6.203091,10.154704,3.979839,12.889785,3.979839C15.624866,3.979839,17.848118,6.203091,17.848118,8.938172L17.848118,12.137097L17.848118,12.137097Z" stroke-miterlimit="1"/><rect id="ejxDdSUB7MA14" width="79.973" height="79.973" rx="0" ry="0" stroke-miterlimit="1"/><polygon id="ejxDdSUB7MA15" points="7.333,3.583 2.263,3.583 4.592,1.254 4,0.667 0.667,4 4,7.333 4.588,6.746 2.263,4.417 7.333,4.417" stroke-miterlimit="1"/><rect id="ejxDdSUB7MA16" width="20.833" height="20.833" rx="0" ry="0" stroke-miterlimit="1"/><filter id="ejxDdSUB7MA80-filter" x="-400%" width="600%" y="-400%" height="600%"><feGaussianBlur id="ejxDdSUB7MA80-filter-drop-shadow-0-blur" in="SourceAlpha" stdDeviation="0,0"/><feOffset id="ejxDdSUB7MA80-filter-drop-shadow-0-offset" dx="0" dy="0" result="tmp"/><feFlood id="ejxDdSUB7MA80-filter-drop-shadow-0-flood" flood-color="rgb(0,0,0)"/><feComposite id="ejxDdSUB7MA80-filter-drop-shadow-0-composite" operator="in" in2="tmp"/><feMerge id="ejxDdSUB7MA80-filter-drop-shadow-0-merge"><feMergeNode id="ejxDdSUB7MA80-filter-drop-shadow-0-merge-node-1"/><feMergeNode id="ejxDdSUB7MA80-filter-drop-shadow-0-merge-node-2" in="SourceGraphic"/></feMerge></filter><radialGradient id="ejxDdSUB7MA81-fill-g1" cx="0" cy="0" r="0.947939" spreadMethod="pad" gradientUnits="objectBoundingBox" gradientTransform="matrix(0.999999 0.001539 -0.004071 2.644805 0.5 0.5)"><stop id="ejxDdSUB7MA81-fill-g1-0" offset="0%" stop-color="rgb(255,255,255)"/><stop id="ejxDdSUB7MA81-fill-g1-1" offset="100%" stop-color="rgb(0,235,255)"/></radialGradient></defs><g id="ejxDdSUB7MA17"><g id="ejxDdSUB7MA18"><g id="ejxDdSUB7MA19_to" transform="translate(154.059998,107.434998)"><g id="ejxDdSUB7MA19" transform="translate(-154.059998,-117.434998)" opacity="0"><rect id="ejxDdSUB7MA20" width="306.12" height="232.87" rx="6.09" ry="6.09" transform="matrix(1 0 0 1 1 1)" fill="rgb(223,225,231)" stroke="none" stroke-width="1" stroke-miterlimit="1"/><path id="ejxDdSUB7MA21" d="M301.03,234.87L7.09,234.87C3.176585,234.864492,0.005508,231.693415,0,227.78L0,7.09C0.005508,3.176585,3.176585,0.005508,7.09,0L301.03,0C304.943415,0.005508,308.114492,3.176585,308.12,7.09L308.12,227.78C308.114492,231.693415,304.943415,234.864492,301.03,234.87ZM7.09,2C4.281153,2.005502,2.005502,4.281153,2,7.09L2,227.78C2.005502,230.588847,4.281153,232.864498,7.09,232.87L301.03,232.87C303.838847,232.864498,306.114498,230.588847,306.12,227.78L306.12,7.09C306.12,4.278871,303.841129,2,301.03,2L7.09,2Z" fill="rgb(224,224,224)" stroke="none" stroke-width="1" stroke-miterlimit="1"/><path id="ejxDdSUB7MA22" d="M1,16.75L1,227.75C1.010977,231.108857,3.731143,233.829023,7.09,233.84L301.03,233.84C304.388857,233.829023,307.109023,231.108857,307.12,227.75L307.12,16.75L1,16.75ZM14.630006,12.280002C12.621001,12.274469,10.996336,10.642349,11.000006,8.633339C11.003689,6.62433,12.634318,4.998168,14.643331,5.000002C16.652343,5.001838,18.280006,6.630975,18.280006,8.639988C18.280006,9.607111,17.895139,10.534478,17.210342,11.217399C16.525545,11.900319,15.597126,12.282645,14.630006,12.280002L14.630006,12.280002ZM25.630006,12.280002C23.621001,12.274469,21.996336,10.642349,22.000006,8.633339C22.003689,6.62433,23.634318,4.998168,25.643331,5.000002C27.652343,5.001838,29.280006,6.630975,29.280006,8.639988C29.280006,9.607111,28.895139,10.534478,28.210342,11.217399C27.525545,11.900319,26.597126,12.282645,25.630006,12.280002ZM37.630006,12.280002C35.621001,12.274469,33.996336,10.642349,34.000006,8.633339C34.003689,6.62433,35.634318,4.998168,37.643331,5.000002C39.652343,5.001838,41.280006,6.630975,41.280006,8.639988C41.280006,9.607111,40.895139,10.534478,40.210342,11.217399C39.525545,11.900319,38.597126,12.282645,37.630006,12.280002L37.630006,12.280002Z" fill="rgb(255,255,255)" stroke="none" stroke-width="1" stroke-miterlimit="1"/><rect id="ejxDdSUB7MA23" width="306.12" height="1" rx="0" ry="0" transform="matrix(1 0 0 1 1 16.34)" fill="rgb(224,224,224)" stroke="none" stroke-width="1" stroke-miterlimit="1"/><rect id="ejxDdSUB7MA24" width="306.12" height="1" rx="0" ry="0" transform="matrix(1 0 0 1 1 35)" opacity="0.601" fill="rgb(223,225,231)" stroke="none" stroke-width="1" stroke-miterlimit="1"/></g></g><g id="ejxDdSUB7MA25_to" transform="translate(77.5,12.5)"><g id="ejxDdSUB7MA25" transform="translate(-88.5,-12.5)" opacity="0"><path id="ejxDdSUB7MA26" d="M55,3L122,3C124.209139,3,126,4.790861,126,7L126,22L126,22L51,22L51,7C51,4.790861,52.790861,3,55,3Z" fill="rgb(255,255,255)" fill-rule="evenodd" stroke="none" stroke-width="1" stroke-miterlimit="1"/><path id="ejxDdSUB7MA27" d="M56.25,12L56.25,9.988281L57.554688,9.988281C58.613281,9.988281,59.363281,9.242188,59.363281,8.171875L59.363281,8.164063C59.363281,7.09375,58.613281,6.363281,57.554688,6.363281L55.546875,6.363281L55.546875,12L56.25,12ZM57.375,9.363281L56.25,9.363281L56.25,6.988281L57.375,6.988281C58.179688,6.988281,58.644531,7.429688,58.644531,8.171875L58.644531,8.179688C58.644531,8.921875,58.179688,9.363281,57.375,9.363281ZM60.742188,12L60.742188,9.460938C60.742188,8.886719,61.085938,8.507813,61.613281,8.507813C61.777344,8.507813,61.921875,8.527344,61.976563,8.546875L61.976563,7.886719C61.921875,7.878906,61.820313,7.859375,61.703125,7.859375C61.226563,7.859375,60.851563,8.144531,60.71875,8.59375L60.703125,8.59375L60.703125,7.9375L60.0625,7.9375L60.0625,12L60.742188,12ZM62.910156,7.25C63.148438,7.25,63.335938,7.058594,63.335938,6.824219C63.335938,6.585938,63.148438,6.398438,62.910156,6.398438C62.675781,6.398438,62.484375,6.585938,62.484375,6.824219C62.484375,7.058594,62.675781,7.25,62.910156,7.25ZM63.25,12L63.25,7.9375L62.570313,7.9375L62.570313,12L63.25,12ZM66.015625,12L67.507813,7.9375L66.800781,7.9375L65.675781,11.277344L65.660156,11.277344L64.539063,7.9375L63.824219,7.9375L65.320313,12L66.015625,12ZM69.226563,12.078125C69.769531,12.078125,70.257813,11.785156,70.496094,11.339844L70.511719,11.339844L70.511719,12L71.191406,12L71.191406,9.191406C71.191406,8.378906,70.589844,7.859375,69.628906,7.859375C68.671875,7.859375,68.089844,8.398438,68.03125,9.066406L68.027344,9.109375L68.683594,9.109375L68.691406,9.074219C68.769531,8.710938,69.097656,8.460938,69.621094,8.460938C70.1875,8.460938,70.511719,8.761719,70.511719,9.257813L70.511719,9.597656L69.347656,9.664063C68.414063,9.71875,67.875,10.152344,67.875,10.84375L67.875,10.851563C67.875,11.589844,68.417969,12.078125,69.226563,12.078125ZM69.378906,11.488281C68.890625,11.488281,68.570313,11.242188,68.570313,10.851563L68.570313,10.84375C68.570313,10.464844,68.882813,10.222656,69.425781,10.191406L70.511719,10.125L70.511719,10.457031C70.511719,11.046875,70.019531,11.488281,69.378906,11.488281ZM73.738281,12.078125C74.65625,12.078125,75.324219,11.480469,75.433594,10.707031L75.4375,10.679688L74.769531,10.679688L74.761719,10.710938C74.648438,11.164063,74.292969,11.476563,73.738281,11.476563C73.035156,11.476563,72.550781,10.917969,72.550781,9.972656L72.550781,9.96875C72.550781,9.046875,73.023438,8.460938,73.730469,8.460938C74.328125,8.460938,74.65625,8.820313,74.757813,9.226563L74.765625,9.257813L75.429688,9.257813L75.425781,9.226563C75.339844,8.53125,74.742188,7.859375,73.730469,7.859375C72.601563,7.859375,71.855469,8.679688,71.855469,9.960938L71.855469,9.964844C71.855469,11.257813,72.585938,12.078125,73.738281,12.078125ZM76.453125,13.367188C77.1875,13.367188,77.542969,13.03125,77.832031,12.253906L79.417969,7.9375L78.703125,7.9375L77.578125,11.320313L77.5625,11.320313L76.441406,7.9375L75.714844,7.9375L77.222656,12.003906L77.140625,12.234375C76.976563,12.695313,76.738281,12.804688,76.308594,12.804688C76.226563,12.804688,76.148438,12.792969,76.089844,12.78125L76.089844,13.335938C76.175781,13.351563,76.320313,13.367188,76.453125,13.367188ZM83.265625,12.078125C84.152344,12.078125,84.816406,11.546875,84.949219,10.875L84.957031,10.835938L84.289063,10.835938L84.277344,10.871094C84.160156,11.21875,83.796875,11.476563,83.28125,11.476563C82.558594,11.476563,82.097656,10.988281,82.082031,10.152344L85.007813,10.152344L85.007813,9.902344C85.007813,8.683594,84.332031,7.859375,83.222656,7.859375C82.113281,7.859375,81.394531,8.722656,81.394531,9.980469L81.394531,9.984375C81.394531,11.261719,82.097656,12.078125,83.265625,12.078125ZM84.316406,9.621094L82.09375,9.621094C82.167969,8.863281,82.628906,8.460938,83.21875,8.460938C83.8125,8.460938,84.25,8.832031,84.316406,9.621094ZM86.371094,12L86.371094,9.460938C86.371094,8.886719,86.714844,8.507813,87.242188,8.507813C87.40625,8.507813,87.550781,8.527344,87.605469,8.546875L87.605469,7.886719C87.550781,7.878906,87.449219,7.859375,87.332031,7.859375C86.855469,7.859375,86.480469,8.144531,86.347656,8.59375L86.332031,8.59375L86.332031,7.9375L85.691406,7.9375L85.691406,12L86.371094,12ZM88.835938,12L88.835938,9.460938C88.835938,8.886719,89.179688,8.507813,89.707031,8.507813C89.871094,8.507813,90.015625,8.527344,90.070313,8.546875L90.070313,7.886719C90.015625,7.878906,89.914063,7.859375,89.796875,7.859375C89.320313,7.859375,88.945313,8.144531,88.8125,8.59375L88.796875,8.59375L88.796875,7.9375L88.15625,7.9375L88.15625,12L88.835938,12ZM92.304688,12.078125C93.425781,12.078125,94.183594,11.265625,94.183594,9.96875L94.183594,9.960938C94.183594,8.664063,93.421875,7.859375,92.300781,7.859375C91.179688,7.859375,90.421875,8.667969,90.421875,9.960938L90.421875,9.96875C90.421875,11.261719,91.175781,12.078125,92.304688,12.078125ZM92.308594,11.476563C91.589844,11.476563,91.117188,10.925781,91.117188,9.96875L91.117188,9.960938C91.117188,9.011719,91.59375,8.460938,92.300781,8.460938C93.019531,8.460938,93.488281,9.007813,93.488281,9.960938L93.488281,9.96875C93.488281,10.921875,93.023438,11.476563,92.308594,11.476563ZM95.546875,12L95.546875,9.460938C95.546875,8.886719,95.890625,8.507813,96.417969,8.507813C96.582031,8.507813,96.726563,8.527344,96.78125,8.546875L96.78125,7.886719C96.726563,7.878906,96.625,7.859375,96.507813,7.859375C96.03125,7.859375,95.65625,8.144531,95.523438,8.59375L95.507813,8.59375L95.507813,7.9375L94.867188,7.9375L94.867188,12L95.546875,12Z" fill="rgb(0,0,0)" stroke="none" stroke-width="1" stroke-miterlimit="1"/></g></g><g id="ejxDdSUB7MA28_to" transform="translate(121.417,7)"><g id="ejxDdSUB7MA28" transform="translate(0,0)" opacity="0"><g id="ejxDdSUB7MA29" mask="url(#ejxDdSUB7MA32)"><g id="ejxDdSUB7MA30"><use id="ejxDdSUB7MA31" width="20.833" height="20.833" xlink:href="#ejxDdSUB7MA9" transform="matrix(1 0 0 1 -7.417 -7.417)" fill="rgb(93,98,106)" fill-rule="evenodd" stroke="none" stroke-width="1" stroke-miterlimit="1"/></g><mask id="ejxDdSUB7MA32" mask-type="luminance"><use id="ejxDdSUB7MA33" width="5.834" height="5.834" xlink:href="#ejxDdSUB7MA8" fill="rgb(255,255,255)" fill-rule="evenodd" stroke="none" stroke-width="1" stroke-miterlimit="1"/></mask></g></g></g><g id="ejxDdSUB7MA34" opacity="0"><rect id="ejxDdSUB7MA35" width="122" height="14" rx="7" ry="7" transform="matrix(1 0 0 1 59 19)" fill="rgb(241,243,244)" fill-rule="evenodd" stroke="none" stroke-width="1" stroke-miterlimit="1"/><g id="ejxDdSUB7MA36"><use id="ejxDdSUB7MA37" width="8.333334" height="7.916667" xlink:href="#ejxDdSUB7MA10" transform="matrix(1 0 0 1 167 21)" fill="rgb(135,135,135)" fill-rule="evenodd" stroke="none" stroke-width="1" stroke-miterlimit="1"/><g id="ejxDdSUB7MA38" transform="matrix(1 0 0 1 64 21)"><g id="ejxDdSUB7MA39" mask="url(#ejxDdSUB7MA42)"><g id="ejxDdSUB7MA40"><use id="ejxDdSUB7MA41" width="20.833" height="20.833" xlink:href="#ejxDdSUB7MA12" transform="matrix(1 0 0 1 -5.417 -5.417)" fill="rgb(249,61,61)" stroke="none" stroke-width="1" stroke-miterlimit="1"/></g><mask id="ejxDdSUB7MA42" mask-type="luminance"><use id="ejxDdSUB7MA43" width="9.166666" height="7.916667" xlink:href="#ejxDdSUB7MA11" fill="rgb(255,255,255)" fill-rule="evenodd" stroke="none" stroke-width="1" stroke-miterlimit="1"/></mask></g></g><path id="ejxDdSUB7MA44" d="M80.386719,29L80.386719,24.824219L80.410156,24.824219L83.3125,29L84.117188,29L84.117188,23.363281L83.25,23.363281L83.25,27.53125L83.226563,27.53125L80.328125,23.363281L79.519531,23.363281L79.519531,29L80.386719,29ZM87.086979,29.082031C88.26276,29.082031,89.036198,28.269531,89.036198,26.945313L89.036198,26.9375C89.036198,25.621094,88.254948,24.8125,87.083073,24.8125C85.915104,24.8125,85.13776,25.625,85.13776,26.9375L85.13776,26.945313C85.13776,28.265625,85.907292,29.082031,87.086979,29.082031ZM87.090885,28.375C86.430729,28.375,86.001042,27.855469,86.001042,26.945313L86.001042,26.9375C86.001042,26.039063,86.434635,25.519531,87.083073,25.519531C87.743229,25.519531,88.172917,26.039063,88.172917,26.9375L88.172917,26.945313C88.172917,27.851563,87.751042,28.375,87.090885,28.375ZM91.396615,29.082031C91.56849,29.082031,91.728646,29.0625,91.826302,29.046875L91.826302,28.394531C91.763802,28.402344,91.689583,28.410156,91.59974,28.410156C91.244271,28.410156,91.056771,28.285156,91.056771,27.867188L91.056771,25.5625L91.826302,25.5625L91.826302,24.890625L91.056771,24.890625L91.056771,23.820313L90.19349,23.820313L90.19349,24.890625L89.603646,24.890625L89.603646,25.5625L90.19349,25.5625L90.19349,27.917969C90.19349,28.738281,90.584115,29.082031,91.396615,29.082031ZM96.699479,29.09375C98.035417,29.09375,98.847917,28.441406,98.847917,27.414063L98.847917,27.410156C98.847917,26.539063,98.347917,26.066406,97.183854,25.820313L96.566667,25.691406C95.863542,25.539063,95.543229,25.28125,95.543229,24.859375L95.543229,24.855469C95.543229,24.363281,95.988542,24.03125,96.68776,24.027344C97.355729,24.027344,97.808854,24.34375,97.886979,24.867188L97.890885,24.921875L98.742448,24.921875L98.738542,24.855469C98.679948,23.910156,97.87526,23.269531,96.699479,23.269531C95.508073,23.269531,94.660417,23.929688,94.65651,24.890625L94.65651,24.894531C94.65651,25.730469,95.191667,26.238281,96.297135,26.472656L96.910417,26.601563C97.65651,26.765625,97.965104,27.011719,97.965104,27.464844L97.965104,27.46875C97.965104,27.996094,97.488542,28.335938,96.734635,28.335938C95.980729,28.335938,95.461198,28.011719,95.383073,27.492188L95.37526,27.441406L94.523698,27.441406L94.527604,27.5C94.597917,28.492188,95.433854,29.09375,96.699479,29.09375ZM101.552083,29.082031C102.548177,29.082031,103.18099,28.488281,103.313802,27.835938L103.321615,27.792969L102.520833,27.792969L102.509115,27.824219C102.403646,28.132813,102.071615,28.390625,101.571615,28.390625C100.89974,28.390625,100.473958,27.9375,100.458333,27.160156L103.36849,27.160156L103.36849,26.875C103.36849,25.640625,102.661458,24.8125,101.509115,24.8125C100.356771,24.8125,99.614583,25.671875,99.614583,26.957031L99.614583,26.960938C99.614583,28.257813,100.345052,29.082031,101.552083,29.082031ZM102.532552,26.5625L100.470052,26.5625C100.544271,25.875,100.966146,25.503906,101.513021,25.503906C102.063802,25.503906,102.46224,25.851563,102.532552,26.5625ZM106.053125,29.082031C107.041406,29.082031,107.728906,28.449219,107.81875,27.625L107.822656,27.597656L107.010156,27.597656L107.00625,27.628906C106.904688,28.074219,106.572656,28.375,106.053125,28.375C105.400781,28.375,104.967188,27.847656,104.967188,26.949219L104.967188,26.945313C104.967188,26.066406,105.392969,25.519531,106.049219,25.519531C106.6,25.519531,106.9125,25.859375,107.002344,26.261719L107.010156,26.292969L107.814844,26.292969L107.810938,26.265625C107.740625,25.492188,107.1,24.8125,106.041406,24.8125C104.869531,24.8125,104.103906,25.636719,104.103906,26.9375L104.103906,26.941406C104.103906,28.257813,104.853906,29.082031,106.053125,29.082031ZM110.085417,29.082031C110.710417,29.082031,111.128385,28.796875,111.343229,28.382813L111.36276,28.382813L111.36276,29L112.210417,29L112.210417,24.890625L111.36276,24.890625L111.36276,27.289063C111.36276,27.929688,110.979948,28.355469,110.386198,28.355469C109.80026,28.355469,109.511198,28.011719,109.511198,27.390625L109.511198,24.890625L108.667448,24.890625L108.667448,27.554688C108.667448,28.5,109.183073,29.082031,110.085417,29.082031ZM114.152865,29L114.152865,26.527344C114.152865,25.945313,114.488802,25.582031,115.031771,25.582031C115.195833,25.582031,115.344271,25.601563,115.410677,25.628906L115.410677,24.84375C115.344271,24.832031,115.238802,24.8125,115.117708,24.8125C114.633333,24.8125,114.266146,25.101563,114.141146,25.570313L114.121615,25.570313L114.121615,24.890625L113.309115,24.890625L113.309115,29L114.152865,29ZM117.778906,29.082031C118.775,29.082031,119.407813,28.488281,119.540625,27.835938L119.548438,27.792969L118.747656,27.792969L118.735938,27.824219C118.630469,28.132813,118.298438,28.390625,117.798438,28.390625C117.126563,28.390625,116.700781,27.9375,116.685156,27.160156L119.595313,27.160156L119.595313,26.875C119.595313,25.640625,118.888281,24.8125,117.735938,24.8125C116.583594,24.8125,115.841406,25.671875,115.841406,26.957031L115.841406,26.960938C115.841406,28.257813,116.571875,29.082031,117.778906,29.082031ZM118.759375,26.5625L116.696875,26.5625C116.771094,25.875,117.192969,25.503906,117.739844,25.503906C118.290625,25.503906,118.689063,25.851563,118.759375,26.5625Z" fill="rgb(249,61,61)" stroke="none" stroke-width="1" stroke-miterlimit="1"/><g id="ejxDdSUB7MA45" transform="matrix(1 0 0 1 132.45 23.363)"><path id="ejxDdSUB7MA46" d="M0.84375,5.636719L0.84375,3.257813C0.84375,2.617188,1.230469,2.171875,1.8125,2.171875C2.40625,2.171875,2.75,2.578125,2.75,3.257813L2.75,5.636719L3.59375,5.636719L3.59375,3.097656C3.59375,2.105469,3.015625,1.449219,2.136719,1.449219C1.523438,1.449219,1.082031,1.726563,0.863281,2.203125L0.84375,2.203125L0.84375,0L0,0L0,5.636719L0.84375,5.636719ZM6.118229,5.71875C6.290104,5.71875,6.45026,5.699219,6.547917,5.683594L6.547917,5.03125C6.485417,5.039063,6.411198,5.046875,6.321354,5.046875C5.965885,5.046875,5.778385,4.921875,5.778385,4.503906L5.778385,2.199219L6.547917,2.199219L6.547917,1.527344L5.778385,1.527344L5.778385,0.457031L4.915104,0.457031L4.915104,1.527344L4.32526,1.527344L4.32526,2.199219L4.915104,2.199219L4.915104,4.554688C4.915104,5.375,5.305729,5.71875,6.118229,5.71875ZM8.951302,5.71875C9.123177,5.71875,9.283333,5.699219,9.38099,5.683594L9.38099,5.03125C9.31849,5.039063,9.244271,5.046875,9.154427,5.046875C8.798958,5.046875,8.611458,4.921875,8.611458,4.503906L8.611458,2.199219L9.38099,2.199219L9.38099,1.527344L8.611458,1.527344L8.611458,0.457031L7.748177,0.457031L7.748177,1.527344L7.158333,1.527344L7.158333,2.199219L7.748177,2.199219L7.748177,4.554688C7.748177,5.375,8.138802,5.71875,8.951302,5.71875ZM11.186719,7.003906L11.186719,4.945313L11.20625,4.945313C11.448438,5.421875,11.921094,5.71875,12.503125,5.71875C13.534375,5.71875,14.210156,4.894531,14.210156,3.585938L14.210156,3.582031C14.210156,2.269531,13.538281,1.449219,12.491406,1.449219C11.905469,1.449219,11.452344,1.746094,11.20625,2.234375L11.186719,2.234375L11.186719,1.527344L10.342969,1.527344L10.342969,7.003906L11.186719,7.003906ZM12.272656,4.992188C11.635938,4.992188,11.182813,4.4375,11.182813,3.585938L11.182813,3.582031C11.182813,2.726563,11.632031,2.171875,12.272656,2.171875C12.932813,2.171875,13.350781,2.707031,13.350781,3.582031L13.350781,3.585938C13.350781,4.453125,12.936719,4.992188,12.272656,4.992188ZM16.668229,5.71875C17.636979,5.71875,18.340104,5.203125,18.340104,4.453125L18.340104,4.449219C18.340104,3.859375,18.019792,3.527344,17.179948,3.332031L16.511979,3.179688C16.070573,3.074219,15.902604,2.902344,15.902604,2.648438L15.902604,2.644531C15.902604,2.316406,16.18776,2.101563,16.640885,2.101563C17.117448,2.101563,17.398698,2.351563,17.449479,2.710938L17.453385,2.738281L18.246354,2.738281L18.242448,2.691406C18.199479,1.992188,17.613542,1.449219,16.640885,1.449219C15.695573,1.449219,15.054948,1.953125,15.054948,2.6875L15.054948,2.691406C15.054948,3.289063,15.441667,3.664063,16.222917,3.84375L16.894792,3.996094C17.336198,4.101563,17.484635,4.253906,17.484635,4.519531L17.484635,4.523438C17.484635,4.855469,17.179948,5.066406,16.672135,5.066406C16.152604,5.066406,15.871354,4.84375,15.793229,4.464844L15.785417,4.425781L14.949479,4.425781L14.953385,4.460938C15.039323,5.210938,15.640885,5.71875,16.668229,5.71875Z" fill="rgb(249,61,61)" stroke="none" stroke-width="1" stroke-miterlimit="1"/><path id="ejxDdSUB7MA47" d="M19.739583,2.761719C20.02474,2.761719,20.251302,2.535156,20.251302,2.246094C20.251302,1.960938,20.02474,1.734375,19.739583,1.734375C19.450521,1.734375,19.223958,1.960938,19.223958,2.246094C19.223958,2.535156,19.450521,2.761719,19.739583,2.761719ZM19.739583,5.695313C20.02474,5.695313,20.251302,5.46875,20.251302,5.183594C20.251302,4.894531,20.02474,4.671875,19.739583,4.671875C19.450521,4.671875,19.223958,4.894531,19.223958,5.183594C19.223958,5.46875,19.450521,5.695313,19.739583,5.695313ZM21.682031,7.003906L23.205469,0L22.428125,0L20.900781,7.003906L21.682031,7.003906ZM24.249479,7.003906L25.772917,0L24.995573,0L23.468229,7.003906L24.249479,7.003906ZM26.934115,5.695313C27.219271,5.695313,27.445833,5.46875,27.445833,5.183594C27.445833,4.894531,27.219271,4.671875,26.934115,4.671875C26.645052,4.671875,26.41849,4.894531,26.41849,5.183594C26.41849,5.46875,26.645052,5.695313,26.934115,5.695313ZM28.531771,5.695313C28.816927,5.695313,29.04349,5.46875,29.04349,5.183594C29.04349,4.894531,28.816927,4.671875,28.531771,4.671875C28.242708,4.671875,28.016146,4.894531,28.016146,5.183594C28.016146,5.46875,28.242708,5.695313,28.531771,5.695313ZM30.129427,5.695313C30.414583,5.695313,30.641146,5.46875,30.641146,5.183594C30.641146,4.894531,30.414583,4.671875,30.129427,4.671875C29.840365,4.671875,29.617708,4.894531,29.617708,5.183594C29.617708,5.46875,29.840365,5.695313,30.129427,5.695313Z" fill="rgb(93,98,106)" stroke="none" stroke-width="1" stroke-miterlimit="1"/></g><line id="ejxDdSUB7MA48" x1="126.5" y1="23.5" x2="126.5" y2="29.5" opacity="0.661" fill="none" fill-rule="evenodd" stroke="rgb(151,151,151)" stroke-width="1" stroke-linecap="round" stroke-miterlimit="1"/></g></g><g id="ejxDdSUB7MA49" transform="matrix(1 0 0 1 42 22)" opacity="0"><g id="ejxDdSUB7MA50" mask="url(#ejxDdSUB7MA53)"><g id="ejxDdSUB7MA51"><use id="ejxDdSUB7MA52" width="20.833" height="20.833" xlink:href="#ejxDdSUB7MA7" transform="matrix(1 0 0 1 -6.417 -6.417)" fill="rgb(131,137,146)" fill-rule="evenodd" stroke="none" stroke-width="1" stroke-miterlimit="1"/></g><mask id="ejxDdSUB7MA53" mask-type="luminance"><use id="ejxDdSUB7MA54" width="6.6625" height="6.666667" xlink:href="#ejxDdSUB7MA6" fill="rgb(255,255,255)" fill-rule="evenodd" stroke="none" stroke-width="1" stroke-miterlimit="1"/></mask></g></g><g id="ejxDdSUB7MA55" transform="matrix(1 0 0 1 26 22)" opacity="0"><g id="ejxDdSUB7MA56" mask="url(#ejxDdSUB7MA59)"><g id="ejxDdSUB7MA57"><use id="ejxDdSUB7MA58" width="20.833" height="20.833" xlink:href="#ejxDdSUB7MA5" transform="matrix(1 0 0 1 -6.417 -6.417)" fill="rgb(131,137,146)" fill-rule="evenodd" stroke="none" stroke-width="1" stroke-miterlimit="1"/></g><mask id="ejxDdSUB7MA59" mask-type="luminance"><use id="ejxDdSUB7MA60" width="6.666" height="6.666" xlink:href="#ejxDdSUB7MA4" fill="rgb(255,255,255)" fill-rule="evenodd" stroke="none" stroke-width="1" stroke-miterlimit="1"/></mask></g></g><g id="ejxDdSUB7MA61" transform="matrix(1 0 0 1 10 22)" opacity="0"><g id="ejxDdSUB7MA62" mask="url(#ejxDdSUB7MA65)"><g id="ejxDdSUB7MA63"><use id="ejxDdSUB7MA64" width="20.833" height="20.833" xlink:href="#ejxDdSUB7MA16" transform="matrix(1 0 0 1 -6.417 -6.417)" fill="rgb(131,137,146)" fill-rule="evenodd" stroke="none" stroke-width="1" stroke-miterlimit="1"/></g><mask id="ejxDdSUB7MA65" mask-type="luminance"><use id="ejxDdSUB7MA66" width="6.666" height="6.666" xlink:href="#ejxDdSUB7MA15" fill="rgb(255,255,255)" fill-rule="evenodd" stroke="none" stroke-width="1" stroke-miterlimit="1"/></mask></g></g></g><g id="ejxDdSUB7MA67_to" transform="translate(17.177734,145.018082)"><g id="ejxDdSUB7MA67" transform="translate(-17.177734,-150.018082)" opacity="0"><path id="ejxDdSUB7MA68" d="M20,145L198,145C199.656854,145,201,146.343146,201,148C201,149.656854,199.656854,151,198,151L20,151C18.343146,151,17,149.656854,17,148C17,146.343146,18.343146,145,20,145ZM20,163L131,163C132.656854,163,134,164.343146,134,166C134,167.656854,132.656854,169,131,169L20,169C18.343146,169,17,167.656854,17,166C17,164.343146,18.343146,163,20,163Z" fill="rgb(95,99,106)" fill-opacity="0.2" fill-rule="evenodd" stroke="none" stroke-width="1" stroke-miterlimit="1"/><rect id="ejxDdSUB7MA69" width="271" height="6" rx="3" ry="3" transform="matrix(1 0 0 1 17 131)" fill="rgb(95,99,106)" fill-opacity="0.2" fill-rule="evenodd" stroke="none" stroke-width="1" stroke-miterlimit="1"/></g></g><g id="ejxDdSUB7MA70_to" transform="translate(17.177734,105.196778)"><path id="ejxDdSUB7MA70" d="M22.181641,114L22.181641,109.959961L25.661133,104.135742L23.958984,104.135742L21.443359,108.490234L21.395508,108.490234L18.879883,104.135742L17.177734,104.135742L20.650391,109.959961L20.650391,114L22.181641,114ZM28.636133,114.143555C30.69375,114.143555,32.047266,112.72168,32.047266,110.404297L32.047266,110.390625C32.047266,108.086914,30.680078,106.671875,28.629297,106.671875C26.585352,106.671875,25.225,108.09375,25.225,110.390625L25.225,110.404297C25.225,112.714844,26.57168,114.143555,28.636133,114.143555ZM28.642969,112.90625C27.487695,112.90625,26.735742,111.99707,26.735742,110.404297L26.735742,110.390625C26.735742,108.818359,27.494531,107.90918,28.629297,107.90918C29.78457,107.90918,30.536523,108.818359,30.536523,110.390625L30.536523,110.404297C30.536523,111.990234,29.798242,112.90625,28.642969,112.90625ZM35.986133,114.143555C37.079883,114.143555,37.811328,113.644531,38.187305,112.919922L38.221484,112.919922L38.221484,114L39.704883,114L39.704883,106.808594L38.221484,106.808594L38.221484,111.005859C38.221484,112.126953,37.551563,112.87207,36.5125,112.87207C35.487109,112.87207,34.98125,112.270508,34.98125,111.183594L34.98125,106.808594L33.504688,106.808594L33.504688,111.470703C33.504688,113.125,34.407031,114.143555,35.986133,114.143555ZM42.9875,114L42.9875,109.672852C42.9875,108.654297,43.575391,108.018555,44.525586,108.018555C44.812695,108.018555,45.072461,108.052734,45.188672,108.100586L45.188672,106.726562C45.072461,106.706055,44.887891,106.671875,44.675977,106.671875C43.82832,106.671875,43.185742,107.177734,42.966992,107.998047L42.932813,107.998047L42.932813,106.808594L41.510938,106.808594L41.510938,114L42.9875,114ZM52.731445,114.143555C54.460938,114.143555,55.664063,113.036133,55.821289,111.59375L55.828125,111.545898L54.40625,111.545898L54.399414,111.600586C54.22168,112.379883,53.640625,112.90625,52.731445,112.90625C51.589844,112.90625,50.831055,111.983398,50.831055,110.411133L50.831055,110.404297C50.831055,108.866211,51.576172,107.90918,52.724609,107.90918C53.688477,107.90918,54.235352,108.503906,54.392578,109.208008L54.40625,109.262695L55.814453,109.262695L55.807617,109.214844C55.68457,107.861328,54.563477,106.671875,52.710938,106.671875C50.660156,106.671875,49.320313,108.114258,49.320313,110.390625L49.320313,110.397461C49.320313,112.701172,50.632813,114.143555,52.731445,114.143555ZM60.313867,114.143555C62.371484,114.143555,63.725,112.72168,63.725,110.404297L63.725,110.390625C63.725,108.086914,62.357813,106.671875,60.307031,106.671875C58.263086,106.671875,56.902734,108.09375,56.902734,110.390625L56.902734,110.404297C56.902734,112.714844,58.249414,114.143555,60.313867,114.143555ZM60.320703,112.90625C59.16543,112.90625,58.413477,111.99707,58.413477,110.404297L58.413477,110.390625C58.413477,108.818359,59.172266,107.90918,60.307031,107.90918C61.462305,107.90918,62.214258,108.818359,62.214258,110.390625L62.214258,110.404297C62.214258,111.990234,61.475977,112.90625,60.320703,112.90625ZM66.693164,114L66.693164,109.80957C66.693164,108.688477,67.363086,107.936523,68.402148,107.936523C69.427539,107.936523,69.933398,108.544922,69.933398,109.625L69.933398,114L71.416797,114L71.416797,109.344727C71.416797,107.69043,70.507617,106.671875,68.928516,106.671875C67.841602,106.671875,67.10332,107.164062,66.727344,107.895508L66.693164,107.895508L66.693164,106.808594L65.216602,106.808594L65.216602,114L66.693164,114ZM74.665234,114L74.665234,109.80957C74.665234,108.688477,75.335156,107.936523,76.374219,107.936523C77.399609,107.936523,77.905469,108.544922,77.905469,109.625L77.905469,114L79.388867,114L79.388867,109.344727C79.388867,107.69043,78.479688,106.671875,76.900586,106.671875C75.813672,106.671875,75.075391,107.164062,74.699414,107.895508L74.665234,107.895508L74.665234,106.808594L73.188672,106.808594L73.188672,114L74.665234,114ZM84.230078,114.143555C85.973242,114.143555,87.080664,113.104492,87.313086,111.962891L87.326758,111.887695L85.925391,111.887695L85.904883,111.942383C85.720313,112.482422,85.139258,112.933594,84.264258,112.933594C83.088477,112.933594,82.343359,112.140625,82.316016,110.780273L87.408789,110.780273L87.408789,110.28125C87.408789,108.121094,86.171484,106.671875,84.154883,106.671875C82.138281,106.671875,80.839453,108.175781,80.839453,110.424805L80.839453,110.431641C80.839453,112.701172,82.117773,114.143555,84.230078,114.143555ZM85.945898,109.734375L82.336523,109.734375C82.466406,108.53125,83.204688,107.881836,84.161719,107.881836C85.125586,107.881836,85.822852,108.490234,85.945898,109.734375ZM91.990234,114.143555C93.719727,114.143555,94.922852,113.036133,95.080078,111.59375L95.086914,111.545898L93.665039,111.545898L93.658203,111.600586C93.480469,112.379883,92.899414,112.90625,91.990234,112.90625C90.848633,112.90625,90.089844,111.983398,90.089844,110.411133L90.089844,110.404297C90.089844,108.866211,90.834961,107.90918,91.983398,107.90918C92.947266,107.90918,93.494141,108.503906,93.651367,109.208008L93.665039,109.262695L95.073242,109.262695L95.066406,109.214844C94.943359,107.861328,93.822266,106.671875,91.969727,106.671875C89.918945,106.671875,88.579102,108.114258,88.579102,110.390625L88.579102,110.397461C88.579102,112.701172,89.891602,114.143555,91.990234,114.143555ZM99.005273,114.143555C99.306055,114.143555,99.586328,114.109375,99.757227,114.082031L99.757227,112.94043C99.647852,112.954102,99.517969,112.967773,99.360742,112.967773C98.738672,112.967773,98.410547,112.749023,98.410547,112.017578L98.410547,107.984375L99.757227,107.984375L99.757227,106.808594L98.410547,106.808594L98.410547,104.935547L96.899805,104.935547L96.899805,106.808594L95.867578,106.808594L95.867578,107.984375L96.899805,107.984375L96.899805,112.106445C96.899805,113.541992,97.583398,114.143555,99.005273,114.143555ZM102.123828,105.701172C102.60918,105.701172,102.985156,105.318359,102.985156,104.853516C102.985156,104.381836,102.60918,103.999023,102.123828,103.999023C101.645312,103.999023,101.2625,104.381836,101.2625,104.853516C101.2625,105.318359,101.645312,105.701172,102.123828,105.701172ZM102.862109,114L102.862109,106.808594L101.385547,106.808594L101.385547,114L102.862109,114ZM107.826367,114.143555C109.883984,114.143555,111.2375,112.72168,111.2375,110.404297L111.2375,110.390625C111.2375,108.086914,109.870312,106.671875,107.819531,106.671875C105.775586,106.671875,104.415234,108.09375,104.415234,110.390625L104.415234,110.404297C104.415234,112.714844,105.761914,114.143555,107.826367,114.143555ZM107.833203,112.90625C106.67793,112.90625,105.925977,111.99707,105.925977,110.404297L105.925977,110.390625C105.925977,108.818359,106.684766,107.90918,107.819531,107.90918C108.974805,107.90918,109.726758,108.818359,109.726758,110.390625L109.726758,110.404297C109.726758,111.990234,108.988477,112.90625,107.833203,112.90625ZM114.205664,114L114.205664,109.80957C114.205664,108.688477,114.875586,107.936523,115.914648,107.936523C116.940039,107.936523,117.445898,108.544922,117.445898,109.625L117.445898,114L118.929297,114L118.929297,109.344727C118.929297,107.69043,118.020117,106.671875,116.441016,106.671875C115.354102,106.671875,114.61582,107.164062,114.239844,107.895508L114.205664,107.895508L114.205664,106.808594L112.729102,106.808594L112.729102,114L114.205664,114ZM124.687891,105.701172C125.173242,105.701172,125.549219,105.318359,125.549219,104.853516C125.549219,104.381836,125.173242,103.999023,124.687891,103.999023C124.209375,103.999023,123.826562,104.381836,123.826562,104.853516C123.826562,105.318359,124.209375,105.701172,124.687891,105.701172ZM125.426172,114L125.426172,106.808594L123.949609,106.808594L123.949609,114L125.426172,114ZM129.993945,114.143555C131.689258,114.143555,132.919727,113.241211,132.919727,111.928711L132.919727,111.921875C132.919727,110.889648,132.35918,110.308594,130.889453,109.966797L129.720508,109.700195C128.948047,109.515625,128.654102,109.214844,128.654102,108.770508L128.654102,108.763672C128.654102,108.189453,129.153125,107.813477,129.946094,107.813477C130.780078,107.813477,131.272266,108.250977,131.361133,108.879883L131.367969,108.927734L132.755664,108.927734L132.748828,108.845703C132.673633,107.62207,131.648242,106.671875,129.946094,106.671875C128.291797,106.671875,127.170703,107.553711,127.170703,108.838867L127.170703,108.845703C127.170703,109.891602,127.847461,110.547852,129.214648,110.862305L130.39043,111.128906C131.162891,111.313477,131.422656,111.580078,131.422656,112.044922L131.422656,112.051758C131.422656,112.632812,130.889453,113.001953,130.000781,113.001953C129.091602,113.001953,128.599414,112.612305,128.462695,111.949219L128.449023,111.880859L126.986133,111.880859L126.992969,111.942383C127.143359,113.254883,128.196094,114.143555,129.993945,114.143555ZM139.074805,114L139.074805,109.80957C139.074805,108.688477,139.744727,107.936523,140.783789,107.936523C141.80918,107.936523,142.315039,108.544922,142.315039,109.625L142.315039,114L143.798437,114L143.798437,109.344727C143.798437,107.69043,142.889258,106.671875,141.310156,106.671875C140.223242,106.671875,139.484961,107.164062,139.108984,107.895508L139.074805,107.895508L139.074805,106.808594L137.598242,106.808594L137.598242,114L139.074805,114ZM148.660156,114.143555C150.717773,114.143555,152.071289,112.72168,152.071289,110.404297L152.071289,110.390625C152.071289,108.086914,150.704102,106.671875,148.65332,106.671875C146.609375,106.671875,145.249023,108.09375,145.249023,110.390625L145.249023,110.404297C145.249023,112.714844,146.595703,114.143555,148.660156,114.143555ZM148.666992,112.90625C147.511719,112.90625,146.759766,111.99707,146.759766,110.404297L146.759766,110.390625C146.759766,108.818359,147.518555,107.90918,148.65332,107.90918C149.808594,107.90918,150.560547,108.818359,150.560547,110.390625L150.560547,110.404297C150.560547,111.990234,149.822266,112.90625,148.666992,112.90625ZM156.085352,114.143555C156.386133,114.143555,156.666406,114.109375,156.837305,114.082031L156.837305,112.94043C156.72793,112.954102,156.598047,112.967773,156.44082,112.967773C155.81875,112.967773,155.490625,112.749023,155.490625,112.017578L155.490625,107.984375L156.837305,107.984375L156.837305,106.808594L155.490625,106.808594L155.490625,104.935547L153.979883,104.935547L153.979883,106.808594L152.947656,106.808594L152.947656,107.984375L153.979883,107.984375L153.979883,112.106445C153.979883,113.541992,154.663477,114.143555,156.085352,114.143555ZM163.067578,116.392578L163.067578,112.790039L163.101758,112.790039C163.525586,113.624023,164.352734,114.143555,165.371289,114.143555C167.175977,114.143555,168.358594,112.701172,168.358594,110.411133L168.358594,110.404297C168.358594,108.107422,167.182812,106.671875,165.350781,106.671875C164.325391,106.671875,163.532422,107.191406,163.101758,108.045898L163.067578,108.045898L163.067578,106.808594L161.591016,106.808594L161.591016,116.392578L163.067578,116.392578ZM164.967969,112.87207C163.853711,112.87207,163.060742,111.901367,163.060742,110.411133L163.060742,110.404297C163.060742,108.907227,163.846875,107.936523,164.967969,107.936523C166.123242,107.936523,166.854687,108.873047,166.854687,110.404297L166.854687,110.411133C166.854687,111.928711,166.130078,112.87207,164.967969,112.87207ZM171.326758,114L171.326758,109.672852C171.326758,108.654297,171.914648,108.018555,172.864844,108.018555C173.151953,108.018555,173.411719,108.052734,173.52793,108.100586L173.52793,106.726562C173.411719,106.706055,173.227148,106.671875,173.015234,106.671875C172.167578,106.671875,171.525,107.177734,171.30625,107.998047L171.27207,107.998047L171.27207,106.808594L169.850195,106.808594L169.850195,114L171.326758,114ZM175.59375,105.701172C176.079102,105.701172,176.455078,105.318359,176.455078,104.853516C176.455078,104.381836,176.079102,103.999023,175.59375,103.999023C175.115234,103.999023,174.732422,104.381836,174.732422,104.853516C174.732422,105.318359,175.115234,105.701172,175.59375,105.701172ZM176.332031,114L176.332031,106.808594L174.855469,106.808594L174.855469,114L176.332031,114ZM181.767969,114L184.345117,106.808594L182.807031,106.808594L181.002344,112.557617L180.968164,112.557617L179.163477,106.808594L177.591211,106.808594L180.182031,114L181.767969,114ZM187.504687,114.129883C188.454883,114.129883,189.288867,113.637695,189.705859,112.865234L189.733203,112.865234L189.733203,114L191.216602,114L191.216602,109.043945C191.216602,107.601562,190.102344,106.671875,188.345508,106.671875C186.575,106.671875,185.501758,107.62207,185.399219,108.859375L185.392383,108.93457L186.786914,108.93457L186.800586,108.873047C186.923633,108.298828,187.45,107.895508,188.304492,107.895508C189.220508,107.895508,189.733203,108.374023,189.733203,109.166992L189.733203,109.707031L187.778125,109.823242C186.075977,109.925781,185.105273,110.691406,185.105273,111.942383L185.105273,111.956055C185.105273,113.248047,186.069141,114.129883,187.504687,114.129883ZM187.908008,112.947266C187.115039,112.947266,186.595508,112.550781,186.595508,111.921875L186.595508,111.908203C186.595508,111.299805,187.087695,110.910156,187.976367,110.855469L189.733203,110.746094L189.733203,111.306641C189.733203,112.243164,188.94707,112.947266,187.908008,112.947266ZM195.517773,114.143555C195.818555,114.143555,196.098828,114.109375,196.269727,114.082031L196.269727,112.94043C196.160352,112.954102,196.030469,112.967773,195.873242,112.967773C195.251172,112.967773,194.923047,112.749023,194.923047,112.017578L194.923047,107.984375L196.269727,107.984375L196.269727,106.808594L194.923047,106.808594L194.923047,104.935547L193.412305,104.935547L193.412305,106.808594L192.380078,106.808594L192.380078,107.984375L193.412305,107.984375L193.412305,112.106445C193.412305,113.541992,194.095898,114.143555,195.517773,114.143555ZM200.734961,114.143555C202.478125,114.143555,203.585547,113.104492,203.817969,111.962891L203.831641,111.887695L202.430273,111.887695L202.409766,111.942383C202.225195,112.482422,201.644141,112.933594,200.769141,112.933594C199.593359,112.933594,198.848242,112.140625,198.820898,110.780273L203.913672,110.780273L203.913672,110.28125C203.913672,108.121094,202.676367,106.671875,200.659766,106.671875C198.643164,106.671875,197.344336,108.175781,197.344336,110.424805L197.344336,110.431641C197.344336,112.701172,198.622656,114.143555,200.734961,114.143555ZM202.450781,109.734375L198.841406,109.734375C198.971289,108.53125,199.70957,107.881836,200.666602,107.881836C201.630469,107.881836,202.327734,108.490234,202.450781,109.734375Z" transform="translate(-17.177734,-110.1958)" opacity="0" fill="rgb(87,92,100)" stroke="none" stroke-width="1" stroke-miterlimit="1"/></g><g id="ejxDdSUB7MA71_ts" transform="translate(13.9995,60.252732) scale(0,0)"><g id="ejxDdSUB7MA71" transform="translate(3.0005,-3.252732)" opacity="0"><g id="ejxDdSUB7MA72" mask="url(#ejxDdSUB7MA76)"><g id="ejxDdSUB7MA73"><use id="ejxDdSUB7MA74" width="79.973" height="79.973" xlink:href="#ejxDdSUB7MA14" transform="matrix(1 0 0 1 -27.097 -21.452)" fill="rgb(249,61,61)" stroke="none" stroke-width="1" stroke-miterlimit="1"/></g><polygon id="ejxDdSUB7MA75" points="29.668,29.959 17.273,17.563 7.401,27.434 19.797,39.83" fill="rgb(0,0,0)" fill-opacity="0.189" fill-rule="evenodd" stroke="none" stroke-width="1" stroke-miterlimit="1"/><mask id="ejxDdSUB7MA76" mask-type="luminance"><use id="ejxDdSUB7MA77" width="25.591398" height="33.588711" xlink:href="#ejxDdSUB7MA13" fill="rgb(255,255,255)" fill-rule="evenodd" stroke="none" stroke-width="1" stroke-miterlimit="1"/></mask></g><polygon id="ejxDdSUB7MA78" points="11.134,1.262 10.028,0.157 5.645,4.54 1.262,0.157 0.157,1.262 4.54,5.645 0.157,10.028 1.262,11.134 5.645,6.751 10.028,11.134 11.134,10.028 6.751,5.645" transform="matrix(1 0 0 1 7.245 17.406)" fill="rgb(255,255,255)" stroke="none" stroke-width="1" stroke-miterlimit="1"/></g></g><g id="ejxDdSUB7MA79" transform="matrix(1 0 0 1 17 177)"><g id="ejxDdSUB7MA80_to" transform="translate(45,11)"><g id="ejxDdSUB7MA80_ts" transform="scale(1,1)"><g id="ejxDdSUB7MA80" transform="translate(-45,-21)" opacity="0" filter="url(#ejxDdSUB7MA80-filter)"><rect id="ejxDdSUB7MA81" width="89" height="23" rx="4" ry="4" transform="matrix(1 0 0 1 0.5 9.5)" fill="none" fill-rule="evenodd" stroke="rgb(105,106,95)" stroke-width="1" stroke-opacity="0.5" stroke-miterlimit="1"/><g id="ejxDdSUB7MA82" mask="url(#ejxDdSUB7MA84)"><path id="ejxDdSUB7MA83" d="M18.159089,25L18.960225,22.690343L22.369313,22.690343L23.166187,25L24.563913,25L21.423291,16.272736L19.901985,16.272736L16.761363,25L18.159089,25ZM21.98579,21.58239L19.343747,21.58239L20.630678,17.857961L20.69886,17.857961L21.98579,21.58239ZM28.169031,25.127841C29.362212,25.127841,29.830961,24.399148,30.061075,23.981535L30.167609,23.981535L30.167609,25L31.411926,25L31.411926,16.272736L30.137779,16.272736L30.137779,19.51563L30.061075,19.51563C29.830961,19.110801,29.396303,18.369325,28.177554,18.369325C26.596589,18.369325,25.433238,19.617903,25.433238,21.74006C25.433238,23.857956,26.579544,25.127841,28.169031,25.127841ZM28.450281,24.041194C27.312498,24.041194,26.720169,23.039775,26.720169,21.727276C26.720169,20.427561,27.299714,19.45171,28.450281,19.45171C29.562496,19.45171,30.159086,20.359379,30.159086,21.727276C30.159086,23.103695,29.549711,24.041194,28.450281,24.041194ZM36.453121,25L38.826698,18.454552L37.458802,18.454552L35.805395,23.491479L35.737213,23.491479L34.079544,18.454552L32.711647,18.454552L35.089486,25L36.453121,25ZM41.928975,25.144886C43.01136,25.144886,43.620734,24.595171,43.863632,24.105115L43.914768,24.105115L43.914768,25L45.159085,25L45.159085,20.653413C45.159085,18.748586,43.659087,18.369325,42.619315,18.369325C41.434657,18.369325,40.343749,18.846597,39.917613,20.039778L41.115055,20.312505C41.302555,19.848016,41.779827,19.400574,42.63636,19.400574C43.458803,19.400574,43.880677,19.830971,43.880677,20.572447L43.880677,20.602277C43.880677,21.066765,43.403405,21.058242,42.22727,21.194606C40.987214,21.339492,39.717329,21.663356,39.717329,23.15057C39.717329,24.437501,40.684658,25.144886,41.928975,25.144886ZM42.205963,24.12216C41.485793,24.12216,40.965907,23.798297,40.965907,23.167615C40.965907,22.485798,41.57102,22.2429,42.308236,22.144889C42.721588,22.089491,43.7017,21.978696,43.884939,21.795458L43.884939,22.639207C43.884939,23.414774,43.267042,24.12216,42.205963,24.12216ZM48.129259,25L48.129259,21.11364C48.129259,20.069607,48.768463,19.473017,49.654826,19.473017C50.519882,19.473017,51.044029,20.039778,51.044029,20.990061L51.044029,25L52.318176,25L52.318176,20.836652C52.318176,19.217335,51.427552,18.369325,50.089485,18.369325C49.105111,18.369325,48.461645,18.82529,48.159089,19.519892L48.078123,19.519892L48.078123,18.454552L46.855113,18.454552L46.855113,25L48.129259,25ZM56.779826,25.132102C58.3267,25.132102,59.328119,24.203126,59.468744,22.928979L58.228693,22.928979C58.066757,23.636365,57.517041,24.053978,56.788349,24.053978C55.710225,24.053978,55.015623,23.154831,55.015623,21.727276C55.015623,20.325289,55.723009,19.443187,56.788349,19.443187C57.598007,19.443187,58.092325,19.95455,58.228693,20.568186L59.468744,20.568186C59.332381,19.247165,58.254257,18.369325,56.767042,18.369325C54.921873,18.369325,53.728693,19.758528,53.728693,21.757105C53.728693,23.730115,54.87926,25.132102,56.779826,25.132102ZM63.657667,25.132102C65.085222,25.132102,66.095165,24.428978,66.384937,23.363638L65.178972,23.146309C64.948859,23.764206,64.394882,24.079546,63.670451,24.079546C62.579543,24.079546,61.846589,23.372161,61.812498,22.110798L66.465903,22.110798L66.465903,21.659094C66.465903,19.29404,65.051132,18.369325,63.568178,18.369325C61.744317,18.369325,60.542613,19.758528,60.542613,21.769889C60.542613,23.802558,61.727271,25.132102,63.657667,25.132102ZM65.217325,21.156254L61.81676,21.156254C61.867896,20.227277,62.541191,19.42188,63.576701,19.42188C64.565337,19.42188,65.213063,20.154834,65.217325,21.156254ZM70.335224,25.127841C71.528405,25.127841,71.997154,24.399148,72.227268,23.981535L72.333802,23.981535L72.333802,25L73.578119,25L73.578119,16.272736L72.303972,16.272736L72.303972,19.51563L72.227268,19.51563C71.997154,19.110801,71.562496,18.369325,70.343747,18.369325C68.762782,18.369325,67.599431,19.617903,67.599431,21.74006C67.599431,23.857956,68.745737,25.127841,70.335224,25.127841ZM70.616474,24.041194C69.478691,24.041194,68.886362,23.039775,68.886362,21.727276C68.886362,20.427561,69.465907,19.45171,70.616474,19.45171C71.728689,19.45171,72.325279,20.359379,72.325279,21.727276C72.325279,23.103695,71.715905,24.041194,70.616474,24.041194Z" fill="rgb(95,99,106)" stroke="none" stroke-width="1" stroke-miterlimit="1"/><mask id="ejxDdSUB7MA84" mask-type="luminance"><use id="ejxDdSUB7MA85" width="90" height="24" xlink:href="#ejxDdSUB7MA2" transform="matrix(1 0 0 1 0 9)" fill="rgb(255,255,255)" fill-rule="evenodd" stroke="none" stroke-width="1" stroke-miterlimit="1"/></mask></g></g></g></g><g id="ejxDdSUB7MA86_to" transform="translate(174,-10)"><g id="ejxDdSUB7MA86" transform="translate(0,0)" opacity="0"><rect id="ejxDdSUB7MA87" width="100" height="24" rx="4" ry="4" transform="matrix(1 0 0 1 0 9)" fill="rgb(24,115,232)" fill-rule="evenodd" stroke="none" stroke-width="1" stroke-miterlimit="1"/><g id="ejxDdSUB7MA88" mask="url(#ejxDdSUB7MA90)"><path id="ejxDdSUB7MA89" d="M12.921871,25C14.920448,25,15.900561,23.981535,15.900561,22.622161C15.900561,21.30114,14.963062,20.525572,14.034086,20.478698L14.034086,20.39347C14.886358,20.193186,15.559652,19.596596,15.559652,18.535518C15.559652,17.235803,14.622153,16.272736,12.73011,16.272736L9.389204,16.272736L9.389204,25L12.921871,25ZM12.534087,19.98438L10.970168,19.98438L10.970168,17.576712L12.568178,17.576712C13.497154,17.576712,13.978688,18.066768,13.978688,18.740063C13.978688,19.507108,13.35653,19.98438,12.534087,19.98438ZM12.670451,23.678979L10.970168,23.678979L10.970168,21.122163L12.713064,21.122163C13.688916,21.122163,14.294029,21.718753,14.294029,22.498582C14.294029,23.193184,13.816756,23.678979,12.670451,23.678979ZM19.092327,25.132102C20.119315,25.132102,20.73295,24.650569,21.0142,24.100853L21.065337,24.100853L21.065337,25L22.54829,25L22.54829,20.619322C22.54829,18.88921,21.13778,18.369325,19.889201,18.369325C18.512782,18.369325,17.455965,18.98296,17.115056,20.176141L18.555396,20.380686C18.708805,19.933244,19.143463,19.549721,19.897724,19.549721C20.613632,19.549721,21.005677,19.916198,21.005677,20.559663L21.005677,20.585232C21.005677,21.028413,20.541189,21.04972,19.386361,21.173299C18.116476,21.309663,16.901988,21.688924,16.901988,23.163354C16.901988,24.450285,17.843749,25.132102,19.092327,25.132102ZM19.492895,23.998581C18.84943,23.998581,18.389203,23.704547,18.389203,23.137786C18.389203,22.545457,18.904827,22.298298,19.595167,22.200287C19.999997,22.144889,20.809655,22.042617,21.009939,21.880685L21.009939,22.651991C21.009939,23.380685,20.421871,23.998581,19.492895,23.998581ZM26.958803,25.127841C28.603688,25.127841,29.651983,24.151989,29.762778,22.762786L28.288348,22.762786C28.156245,23.465911,27.649144,23.87074,26.971587,23.87074C26.00852,23.87074,25.386362,23.065343,25.386362,21.727276C25.386362,20.406254,26.021304,19.613642,26.971587,19.613642C27.713064,19.613642,28.16903,20.090914,28.288348,20.721595L29.762778,20.721595C29.656244,19.302562,28.548291,18.369325,26.950281,18.369325C25.032669,18.369325,23.822443,19.754266,23.822443,21.752844C23.822443,23.734376,25.002839,25.127841,26.958803,25.127841ZM32.575282,25L32.575282,22.801139L33.137781,22.200287L35.14062,25L36.985789,25L34.301133,21.279833L36.836641,18.454552L35.034086,18.454552L32.681816,21.083811L32.575282,21.083811L32.575282,16.272736L31.03267,16.272736L31.03267,25L32.575282,25ZM43.318179,25.089489C43.757099,25.076705,44.059655,24.991477,44.225848,24.93608L43.965905,23.730115C43.880678,23.751422,43.705962,23.789774,43.514201,23.789774C43.126418,23.789774,42.815338,23.65341,42.815338,23.031252L42.815338,19.647732L44.10653,19.647732L44.10653,18.454552L42.815338,18.454552L42.815338,16.886371L41.272726,16.886371L41.272726,18.454552L40.34375,18.454552L40.34375,19.647732L41.272726,19.647732L41.272726,23.286934C41.264203,24.518466,42.159089,25.123579,43.318179,25.089489ZM48.252837,25.127841C50.170449,25.127841,51.389198,23.77699,51.389198,21.752844C51.389198,19.724437,50.170449,18.369325,48.252837,18.369325C46.335226,18.369325,45.116477,19.724437,45.116477,21.752844C45.116477,23.77699,46.335226,25.127841,48.252837,25.127841ZM48.26136,23.892047C47.200282,23.892047,46.680396,22.946025,46.680396,21.748583C46.680396,20.551141,47.200282,19.592335,48.26136,19.592335C49.305393,19.592335,49.825279,20.551141,49.825279,21.748583C49.825279,22.946025,49.305393,23.892047,48.26136,23.892047ZM58.190338,25.127841C59.8267,25.127841,60.981528,24.27983,60.98579,23.039775C60.981528,22.106537,60.380677,21.535515,59.144882,21.267049L58.028406,21.028413C57.363634,20.879265,57.09943,20.649152,57.103691,20.269891C57.09943,19.82671,57.589486,19.519892,58.232951,19.519892C58.944598,19.519892,59.319598,19.907675,59.438916,20.338073L60.845165,20.184664C60.632097,19.07671,59.745734,18.369325,58.211645,18.369325C56.634942,18.369325,55.561079,19.144892,55.56534,20.355118C55.561079,21.309663,56.149147,21.940344,57.406248,22.200287L58.522724,22.434662C59.123576,22.566764,59.404825,22.809661,59.404825,23.1804C59.404825,23.627842,58.91903,23.96449,58.186076,23.96449C57.478691,23.96449,57.018464,23.657672,56.886362,23.069604L55.382102,23.21449C55.573863,24.416194,56.583805,25.127841,58.190338,25.127841ZM64.143463,25.132102C65.170451,25.132102,65.784087,24.650569,66.065337,24.100853L66.116473,24.100853L66.116473,25L67.599426,25L67.599426,20.619322C67.599426,18.88921,66.188916,18.369325,64.940338,18.369325C63.563919,18.369325,62.507101,18.98296,62.166193,20.176141L63.606532,20.380686C63.759941,19.933244,64.1946,19.549721,64.94886,19.549721C65.664769,19.549721,66.056814,19.916198,66.056814,20.559663L66.056814,20.585232C66.056814,21.028413,65.592326,21.04972,64.437497,21.173299C63.167612,21.309663,61.953125,21.688924,61.953125,23.163354C61.953125,24.450285,62.894885,25.132102,64.143463,25.132102ZM64.544031,23.998581C63.900566,23.998581,63.440339,23.704547,63.440339,23.137786C63.440339,22.545457,63.955964,22.298298,64.646304,22.200287C65.051133,22.144889,65.860791,22.042617,66.061075,21.880685L66.061075,22.651991C66.061075,23.380685,65.473007,23.998581,64.544031,23.998581ZM71.110793,25L71.110793,19.647732L72.470167,19.647732L72.470167,18.454552L71.110793,18.454552L71.110793,17.938927C71.110793,17.427564,71.323861,17.142053,71.899144,17.142053C72.142042,17.142053,72.346587,17.197451,72.474428,17.235803L72.785507,16.042622C72.585223,15.97444,72.146303,15.863645,71.613633,15.863645C70.47585,15.863645,69.568181,16.515633,69.568181,17.836655L69.568181,18.454552L68.600852,18.454552L68.600852,19.647732L69.568181,19.647732L69.568181,25L71.110793,25ZM76.578122,25.127841C78.103688,25.127841,79.151983,24.382103,79.42471,23.24432L77.98437,23.082388C77.775564,23.636365,77.2642,23.926137,76.599428,23.926137C75.60227,23.926137,74.941759,23.269888,74.928975,22.14915L79.48863,22.14915L79.48863,21.67614C79.48863,19.379267,78.10795,18.369325,76.497156,18.369325C74.622157,18.369325,73.399147,19.745744,73.399147,21.765628C73.399147,23.819603,74.605112,25.127841,76.578122,25.127841ZM78.009938,21.109379L74.933237,21.109379C74.980112,20.274152,75.598009,19.571028,76.518462,19.571028C77.404825,19.571028,78.001416,20.218755,78.009938,21.109379ZM83.272724,25.089489C83.711644,25.076705,84.014201,24.991477,84.180394,24.93608L83.920451,23.730115C83.835224,23.751422,83.660508,23.789774,83.468747,23.789774C83.080963,23.789774,82.769884,23.65341,82.769884,23.031252L82.769884,19.647732L84.061076,19.647732L84.061076,18.454552L82.769884,18.454552L82.769884,16.886371L81.227272,16.886371L81.227272,18.454552L80.298295,18.454552L80.298295,19.647732L81.227272,19.647732L81.227272,23.286934C81.218749,24.518466,82.113634,25.123579,83.272724,25.089489ZM86.311078,27.454552C87.512781,27.454552,88.207383,26.836646,88.578121,25.792613L91.198857,18.454552L89.558234,18.454552L88.045451,23.397729L87.97727,23.397729L86.468748,18.454552L84.832386,18.454552L87.205963,25.136364L87.073861,25.490056C86.78835,26.235794,86.336646,26.286931,85.663351,26.090908L85.305397,27.292611C85.514204,27.377839,85.889203,27.454552,86.311078,27.454552Z" fill="rgb(255,255,255)" stroke="none" stroke-width="1" stroke-miterlimit="1"/><mask id="ejxDdSUB7MA90" mask-type="luminance"><use id="ejxDdSUB7MA91" width="100" height="24" xlink:href="#ejxDdSUB7MA3" transform="matrix(1 0 0 1 0 9)" fill="rgb(255,255,255)" fill-rule="evenodd" stroke="none" stroke-width="1" stroke-miterlimit="1"/></mask></g></g></g></g><g id="ejxDdSUB7MA92_to" transform="translate(134,311.5)"><path id="ejxDdSUB7MA92" d="M98.955535,200.482886L116,217.732669L108.454115,218.854853L112.034059,227.513865L108.461684,229L104.866604,220.280329L98.955535,224.875217L98.955535,200.482886ZM96.382214,203.963172C96.216385,204.499716,95.916834,204.985087,95.511826,205.373484C95.11978,205.779244,94.63353,206.081422,94.0965,206.253033C94.266003,205.716394,94.567984,205.231305,94.974456,204.842721C95.359538,204.432082,95.844703,204.128957,96.382214,203.963172ZM95.231788,201.180459C94.21356,201.685739,93.018228,201.685739,92,201.180459C93.018228,200.675179,94.21356,200.675179,95.231788,201.180459ZM106.327342,201.180459C105.309114,201.685739,104.113781,201.685739,103.095553,201.180459C104.113781,200.675179,105.309114,200.675179,106.327342,201.180459ZM94.0965,196.100303C94.63353,196.271915,95.11978,196.574092,95.511826,196.979853C95.916834,197.368249,96.216385,197.85362,96.382214,198.390165C95.846641,198.224035,95.362149,197.923941,94.974456,197.518198C94.569431,197.12544,94.2678,196.638308,94.0965,196.100303ZM104.230842,196.100303C104.059542,196.638308,103.757911,197.12544,103.352886,197.518198C102.965192,197.923941,102.480701,198.224035,101.945128,198.390165C102.110612,197.851679,102.413189,197.365633,102.823084,196.979853C103.210964,196.572643,103.695175,196.270114,104.230842,196.100303ZM99.167455,194C99.67182,195.020075,99.67182,196.217576,99.167455,197.237652C98.66309,196.217576,98.66309,195.020075,99.167455,194Z" transform="translate(-104,-211.5)" fill="rgb(38,50,56)" stroke="none" stroke-width="1" stroke-miterlimit="1"/></g></g></svg>