<svg width="24" height="24" viewBox="0 0 24 24" fill="none" xmlns="http://www.w3.org/2000/svg">
<path d="M7.5 5.5H3V23H21V5.5H17.5" stroke="#EBEBEB" stroke-width="1.2"/>
<path d="M9 4C13.1875 4 16.5625 7.375 16.5625 11.5625" stroke="#EBEBEB" stroke-width="1.2" stroke-linecap="square" stroke-linejoin="round"/>
<path d="M9.3125 7.4375C11.375 7.4375 13.0625 9.125 13.0625 11.1875" stroke="#EBEBEB" stroke-width="1.2" stroke-linecap="square" stroke-linejoin="round"/>
<path d="M4.51082 20V19.405H8.29082C8.50082 19.405 8.71082 19.405 8.71082 19.16V17.97C8.71082 17.725 8.50082 17.725 8.29082 17.725H4.51082V15.38H9.41082V15.975H5.56082V17.13H8.08082C8.92082 17.13 9.76082 17.13 9.76082 18.075V19.055C9.76082 20 8.92082 20 8.08082 20H4.51082ZM10.6016 18.67V17.97H13.4016V18.67H10.6016ZM14.2384 20V18.075C14.2384 17.13 15.0784 17.13 15.9184 17.13H18.0184C18.2284 17.13 18.4384 17.13 18.4384 16.885V16.22C18.4384 15.975 18.2284 15.975 18.0184 15.975H14.5884V15.38H17.8084C18.6484 15.38 19.4884 15.38 19.4884 16.325V16.78C19.4884 17.725 18.6484 17.725 17.8084 17.725H15.7084C15.4984 17.725 15.2884 17.725 15.2884 17.97V19.405H19.4884V20H14.2384Z" fill="#EBEBEB"/>
</svg>
