<svg width="24" height="24" viewBox="0 0 24 24" fill="none" xmlns="http://www.w3.org/2000/svg">
<path d="M21 5.5V23H3V5.5H7.5" stroke="#EBEBEB" stroke-width="1.2"/>
<path d="M9 4C13.1875 4 16.5625 7.375 16.5625 11.5625" stroke="#EBEBEB" stroke-width="1.2" stroke-linecap="square" stroke-linejoin="round"/>
<path d="M9.3125 7.4375C11.375 7.4375 13.0625 9.125 13.0625 11.1875" stroke="#EBEBEB" stroke-width="1.2" stroke-linecap="square" stroke-linejoin="round"/>
<path d="M4.51082 19.055V16.5C4.51082 15.38 5.49082 15.38 6.47082 15.38H9.41082V15.975H6.54082C6.05082 15.975 5.56082 15.975 5.56082 16.535V17.13H8.08082C8.92082 17.13 9.76082 17.13 9.76082 18.075V19.055C9.76082 20 8.92082 20 8.08082 20H6.19082C5.35082 20 4.51082 20 4.51082 19.055ZM5.56082 19.16C5.56082 19.405 5.77082 19.405 5.98082 19.405H8.29082C8.50082 19.405 8.71082 19.405 8.71082 19.16V17.97C8.71082 17.725 8.50082 17.725 8.29082 17.725H5.98082C5.77082 17.725 5.56082 17.725 5.56082 17.97V19.16ZM10.6016 18.67V17.97H13.4016V18.67H10.6016ZM14.2384 20V18.075C14.2384 17.13 15.0784 17.13 15.9184 17.13H18.0184C18.2284 17.13 18.4384 17.13 18.4384 16.885V16.22C18.4384 15.975 18.2284 15.975 18.0184 15.975H14.5884V15.38H17.8084C18.6484 15.38 19.4884 15.38 19.4884 16.325V16.78C19.4884 17.725 18.6484 17.725 17.8084 17.725H15.7084C15.4984 17.725 15.2884 17.725 15.2884 17.97V19.405H19.4884V20H14.2384Z" fill="#EBEBEB"/>
<circle cx="19" cy="5" r="4.75" fill="black" stroke="white" stroke-width="0.5"/>
<path fill-rule="evenodd" clip-rule="evenodd" d="M17.9163 3.25008C17.9163 2.65177 18.4014 2.16675 18.9997 2.16675C19.598 2.16675 20.083 2.65177 20.083 3.25008V3.66675H17.9163V3.25008ZM17.4163 3.69015V3.25008C17.4163 2.37563 18.1252 1.66675 18.9997 1.66675C19.8741 1.66675 20.583 2.37563 20.583 3.25008V3.69015C21.1999 3.80717 21.6663 4.34915 21.6663 5.00008V7.00008C21.6663 7.73646 21.0694 8.33341 20.333 8.33341H17.6663C16.93 8.33341 16.333 7.73646 16.333 7.00008V5.00008C16.333 4.34915 16.7995 3.80717 17.4163 3.69015ZM19.6663 6.00008C19.6663 6.36827 19.3679 6.66675 18.9997 6.66675C18.6315 6.66675 18.333 6.36827 18.333 6.00008C18.333 5.63189 18.6315 5.33341 18.9997 5.33341C19.3679 5.33341 19.6663 5.63189 19.6663 6.00008Z" fill="#FF9E1B"/>
</svg>
