<svg width="24" height="24" viewBox="0 0 24 24" fill="none" xmlns="http://www.w3.org/2000/svg">
<path d="M7.5 5.5H3V23H21V5.5H17.5" stroke="#EBEBEB" stroke-width="1.2"/>
<path d="M9 4C13.1875 4 16.5625 7.375 16.5625 11.5625" stroke="#EBEBEB" stroke-width="1.2" stroke-linecap="square" stroke-linejoin="round"/>
<path d="M9.3125 7.4375C11.375 7.4375 13.0625 9.125 13.0625 11.1875" stroke="#EBEBEB" stroke-width="1.2" stroke-linecap="square" stroke-linejoin="round"/>
<path d="M4.51082 20V19.405H8.29082C8.50082 19.405 8.71082 19.405 8.71082 19.16V17.97C8.71082 17.725 8.50082 17.725 8.29082 17.725H4.51082V15.38H9.41082V15.975H5.56082V17.13H8.08082C8.92082 17.13 9.76082 17.13 9.76082 18.075V19.055C9.76082 20 8.92082 20 8.08082 20H4.51082ZM10.6016 18.67V17.97H13.4016V18.67H10.6016ZM18.3684 15.38V20H17.3184V15.975H15.7784V15.38H18.3684Z" fill="#EBEBEB"/>
</svg>
