<svg width="24" height="24" viewBox="0 0 24 24" fill="none" xmlns="http://www.w3.org/2000/svg">
<path d="M21 5.5V23H3V5.5H7.5" stroke="#EBEBEB" stroke-width="1.2"/>
<path d="M9 4C13.1875 4 16.5625 7.375 16.5625 11.5625" stroke="#EBEBEB" stroke-width="1.2" stroke-linecap="square" stroke-linejoin="round"/>
<path d="M9.3125 7.4375C11.375 7.4375 13.0625 9.125 13.0625 11.1875" stroke="#EBEBEB" stroke-width="1.2" stroke-linecap="square" stroke-linejoin="round"/>
<path d="M4.80123 20V17.525C4.80123 16.805 5.25123 16.445 6.15123 16.445H8.49123C8.73123 16.445 8.85123 16.349 8.85123 16.157V15.113C8.85123 14.921 8.73123 14.825 8.49123 14.825H5.25123V14.06H8.76123C9.66123 14.06 10.1112 14.42 10.1112 15.14V16.13C10.1112 16.85 9.66123 17.21 8.76123 17.21H6.42123C6.18123 17.21 6.06123 17.306 6.06123 17.498V19.235H10.1112V20H4.80123ZM11.3709 20V18.92H12.6309V20H11.3709ZM13.8891 18.785V18.02L17.6241 14.06H19.1991V20H17.9391V18.785H13.8891ZM15.3471 18.02H17.9391V15.275L15.3471 18.02Z" fill="#EBEBEB"/>
<circle cx="19" cy="5" r="4.75" fill="black" stroke="white" stroke-width="0.5"/>
<path fill-rule="evenodd" clip-rule="evenodd" d="M17.9163 3.25008C17.9163 2.65177 18.4014 2.16675 18.9997 2.16675C19.598 2.16675 20.083 2.65177 20.083 3.25008V3.66675H17.9163V3.25008ZM17.4163 3.69015V3.25008C17.4163 2.37563 18.1252 1.66675 18.9997 1.66675C19.8741 1.66675 20.583 2.37563 20.583 3.25008V3.69015C21.1999 3.80717 21.6663 4.34915 21.6663 5.00008V7.00008C21.6663 7.73646 21.0694 8.33341 20.333 8.33341H17.6663C16.93 8.33341 16.333 7.73646 16.333 7.00008V5.00008C16.333 4.34915 16.7995 3.80717 17.4163 3.69015ZM19.6663 6.00008C19.6663 6.36827 19.3679 6.66675 18.9997 6.66675C18.6315 6.66675 18.333 6.36827 18.333 6.00008C18.333 5.63189 18.6315 5.33341 18.9997 5.33341C19.3679 5.33341 19.6663 5.63189 19.6663 6.00008Z" fill="#FF9E1B"/>
</svg>
