<svg width="24" height="24" viewBox="0 0 24 24" fill="none" xmlns="http://www.w3.org/2000/svg">
<path d="M21 5.5V23H3V5.5H7.5" stroke="#EBEBEB" stroke-width="1.2"/>
<path d="M9 4C13.1875 4 16.5625 7.375 16.5625 11.5625" stroke="#EBEBEB" stroke-width="1.2" stroke-linecap="square" stroke-linejoin="round"/>
<path d="M9.3125 7.4375C11.375 7.4375 13.0625 9.125 13.0625 11.1875" stroke="#EBEBEB" stroke-width="1.2" stroke-linecap="square" stroke-linejoin="round"/>
<path d="M4.70223 19V15.04H5.90223L7.43223 18.1L8.96223 15.04H10.1622V19H9.26223V16.06L7.79223 19H7.07223L5.60223 16.06V19H4.70223ZM11.0011 19V15.04H11.9011V18.49H15.2011V19H11.0011ZM15.7999 18.19V15.85C15.7999 15.04 16.5199 15.04 17.2399 15.04H18.8599C19.5799 15.04 20.2999 15.04 20.2999 15.85V18.19C20.2999 19 19.5799 19 18.8599 19H17.2399C16.5199 19 15.7999 19 15.7999 18.19ZM16.6999 18.28C16.6999 18.49 16.8799 18.49 17.0599 18.49H19.0399C19.2199 18.49 19.3999 18.49 19.3999 18.28V15.76C19.3999 15.55 19.2199 15.55 19.0399 15.55H17.0599C16.8799 15.55 16.6999 15.55 16.6999 15.76V18.28Z" fill="#EBEBEB"/>
<circle cx="19" cy="5" r="4.75" fill="black" stroke="white" stroke-width="0.5"/>
<path fill-rule="evenodd" clip-rule="evenodd" d="M17.9163 3.25008C17.9163 2.65177 18.4014 2.16675 18.9997 2.16675C19.598 2.16675 20.083 2.65177 20.083 3.25008V3.66675H17.9163V3.25008ZM17.4163 3.69015V3.25008C17.4163 2.37563 18.1252 1.66675 18.9997 1.66675C19.8741 1.66675 20.583 2.37563 20.583 3.25008V3.69015C21.1999 3.80717 21.6663 4.34915 21.6663 5.00008V7.00008C21.6663 7.73646 21.0694 8.33341 20.333 8.33341H17.6663C16.93 8.33341 16.333 7.73646 16.333 7.00008V5.00008C16.333 4.34915 16.7995 3.80717 17.4163 3.69015ZM19.6663 6.00008C19.6663 6.36827 19.3679 6.66675 18.9997 6.66675C18.6315 6.66675 18.333 6.36827 18.333 6.00008C18.333 5.63189 18.6315 5.33341 18.9997 5.33341C19.3679 5.33341 19.6663 5.63189 19.6663 6.00008Z" fill="#FF9E1B"/>
</svg>
