<svg width="24" height="24" viewBox="0 0 24 24" fill="none" xmlns="http://www.w3.org/2000/svg">
<g clip-path="url(#clip0_2578_57493)">
<path d="M18.6384 19.783C17.7291 19.7739 17.1836 20.7286 17.1836 21.8906C17.1836 23.0526 17.6946 23.9837 18.8729 23.9527C19.4858 23.94 19.6585 23.8218 19.8294 23.7073L19.6203 22.8835C19.4348 23.0436 19.1939 23.1245 18.9493 23.109C18.4038 23.0963 18.1692 22.7235 18.1274 22.127H19.9458C19.9458 22.0488 19.9458 21.9706 19.9458 21.8906C19.9549 20.7304 19.6767 19.7739 18.6384 19.783ZM18.1892 21.3742C18.2619 20.925 18.4456 20.6086 18.6384 20.6086C18.8311 20.6086 18.9711 20.9159 19.0275 21.3742H18.1892Z" fill="white"/>
<path d="M11.9098 19.783C10.9497 19.783 10.4551 20.7286 10.4551 21.8906C10.4551 23.0525 10.9497 24.0036 11.9098 24.0036C12.87 24.0036 13.3646 23.0562 13.3646 21.8942C13.3646 20.7322 12.8682 19.783 11.9098 19.783ZM11.9098 23.1744C11.6498 23.1744 11.437 22.5979 11.437 21.8906C11.437 21.1832 11.6498 20.6176 11.9098 20.6176C12.1699 20.6176 12.3808 21.1941 12.3808 21.8906C12.3808 22.587 12.1681 23.1744 11.9098 23.1744Z" fill="white"/>
<path d="M15.3973 19.8485C15.2065 19.8572 15.02 19.9088 14.8518 19.9994V18.2246H13.8262V23.9364H14.7354V23.7054C14.93 23.8853 15.1817 23.9909 15.4464 24.0037C16.2829 24.0037 16.7193 22.7726 16.703 21.9415C16.6866 21.1105 16.3302 19.8321 15.3973 19.8485ZM15.2555 23.1835C15.0736 23.1835 14.9409 23.0017 14.8463 22.7489V21.0305C14.9445 20.8214 15.0827 20.6577 15.2682 20.6777C15.6101 20.7159 15.7265 21.4978 15.7246 21.9506C15.7228 22.4034 15.5483 23.1817 15.2555 23.1835Z" fill="white"/>
<path d="M8.85092 20.0031C8.68257 19.9128 8.49619 19.8612 8.30538 19.8521C7.37251 19.8358 7.03246 21.125 6.99973 21.9415C6.967 22.758 7.41252 24.0037 8.25083 24.0037C8.51632 23.9928 8.76942 23.8884 8.96548 23.7091V23.94H9.87471V18.2246H8.85092V20.0031ZM8.85092 22.7526C8.75272 23.0053 8.62725 23.1945 8.44177 23.1872C8.15263 23.1872 7.97261 22.3962 7.97261 21.9543C7.97261 21.5124 8.08717 20.7195 8.42722 20.6813C8.60907 20.6613 8.75272 20.825 8.85092 21.0341V22.7526Z" fill="white"/>
<path d="M4.59552 18.4028L3.35352 23.9364H4.34276L4.61734 22.4816H5.56112L5.82298 23.9364H6.80677L5.64477 18.4028H4.59552ZM4.77737 21.6561L5.10105 19.9412L5.41201 21.6561H4.77737Z" fill="white"/>
<path d="M20.2168 0.107314H20.3932V0.589205H20.5187V0.107314H20.6951V0.00366211H20.2168V0.107314Z" fill="white"/>
<path d="M21.1545 0.00366211L21.049 0.46555H21.0454L20.9417 0.00366211H20.7617V0.589205H20.8763V0.101859H20.8799L20.9836 0.589205H21.1054L21.2127 0.101859H21.2163V0.589205H21.3309V0.00366211H21.1545Z" fill="white"/>
<path d="M11.6259 12.2546L12.9806 15.3059H15.4428L11.4204 5.95361L8.73633 12.2546H11.6259Z" fill="white"/>
<path d="M19.8979 0H13.4297L19.8979 15.2332V0Z" fill="white"/>
<path d="M3 0V15.1314L9.42461 0H3Z" fill="white"/>
</g>
<defs>
<clipPath id="clip0_2578_57493">
<rect width="24" height="24" fill="white"/>
</clipPath>
</defs>
</svg>
