<svg width="24" height="24" viewBox="0 0 24 24" fill="none" xmlns="http://www.w3.org/2000/svg">
<path d="M0.0436364 17.9309C0.116356 17.8146 0.232713 17.8073 0.392727 17.9091C4.02908 20.0182 7.98545 21.0727 12.2618 21.0727C15.1127 21.0727 17.9273 20.5418 20.7055 19.48C20.7782 19.4509 20.8836 19.4073 21.0218 19.3491C21.16 19.2909 21.2582 19.2473 21.3164 19.2182C21.5345 19.1309 21.7054 19.1745 21.8291 19.3491C21.9527 19.5236 21.9127 19.6836 21.7091 19.8291C21.4473 20.0182 21.1127 20.2364 20.7055 20.4836C19.4545 21.2255 18.0582 21.8 16.5164 22.2073C14.9745 22.6146 13.4691 22.8182 12 22.8182C9.73091 22.8182 7.58544 22.4218 5.56364 21.6291C3.54181 20.8364 1.7309 19.72 0.130909 18.28C0.0436364 18.2073 0 18.1345 0 18.0618C0 18.0182 0.0145309 17.9745 0.0436364 17.9309ZM6.61091 11.7127C6.61091 10.7091 6.85817 9.85092 7.35273 9.13818C7.84726 8.42545 8.52362 7.88728 9.38182 7.52364C10.1673 7.1891 11.1345 6.9491 12.2836 6.80364C12.6764 6.76 13.3164 6.70181 14.2036 6.62909V6.25818C14.2036 5.32727 14.1018 4.70183 13.8982 4.38182C13.5927 3.94545 13.1127 3.72727 12.4582 3.72727H12.2836C11.8036 3.77091 11.3891 3.92364 11.04 4.18545C10.6909 4.44727 10.4654 4.81092 10.3636 5.27636C10.3054 5.56727 10.16 5.73455 9.92727 5.77818L7.41818 5.47273C7.17089 5.41454 7.04727 5.28363 7.04727 5.08C7.04727 5.03636 7.05454 4.98546 7.06909 4.92727C7.31636 3.63273 7.92362 2.67273 8.89091 2.04727C9.85817 1.42181 10.9891 1.07272 12.2836 1H12.8291C14.4873 1 15.7818 1.4291 16.7127 2.28727C16.8587 2.43339 16.9937 2.59019 17.1164 2.75636C17.24 2.92364 17.3382 3.07273 17.4109 3.20364C17.4836 3.33455 17.5491 3.52364 17.6073 3.77091C17.6654 4.01817 17.7091 4.1891 17.7382 4.28364C17.7673 4.37817 17.7891 4.58183 17.8036 4.89455C17.8182 5.20727 17.8255 5.39272 17.8255 5.45091V10.7309C17.8255 11.1091 17.88 11.4546 17.9891 11.7673C18.0982 12.08 18.2036 12.3055 18.3055 12.4436C18.4073 12.5818 18.5745 12.8036 18.8073 13.1091C18.8945 13.24 18.9382 13.3564 18.9382 13.4582C18.9382 13.5745 18.88 13.6764 18.7636 13.7636C17.5563 14.8109 16.9018 15.3782 16.8 15.4655C16.6255 15.5964 16.4145 15.6109 16.1673 15.5091C15.9636 15.3345 15.7855 15.1673 15.6327 15.0073C15.48 14.8473 15.3709 14.7309 15.3055 14.6582C15.24 14.5855 15.1345 14.4436 14.9891 14.2327C14.8436 14.0218 14.7418 13.88 14.6836 13.8073C13.8691 14.6946 13.0691 15.2473 12.2836 15.4655C11.7891 15.6109 11.1782 15.6836 10.4509 15.6836C9.33089 15.6836 8.41091 15.3382 7.69091 14.6473C6.97091 13.9564 6.61091 12.9782 6.61091 11.7127ZM10.3636 11.2764C10.3636 11.8436 10.5055 12.2982 10.7891 12.64C11.0727 12.9818 11.4545 13.1527 11.9345 13.1527C11.9782 13.1527 12.04 13.1455 12.12 13.1309C12.2 13.1164 12.2545 13.1091 12.2836 13.1091C12.8945 12.9491 13.3673 12.5564 13.7018 11.9309C13.8618 11.6545 13.9818 11.3527 14.0618 11.0255C14.1418 10.6982 14.1854 10.4327 14.1927 10.2291C14.2 10.0255 14.2036 9.6909 14.2036 9.22545V8.68C13.36 8.68 12.72 8.73819 12.2836 8.85455C11.0036 9.21819 10.3636 10.0255 10.3636 11.2764ZM19.5273 18.3018C19.5564 18.2436 19.6 18.1855 19.6582 18.1273C20.0218 17.88 20.3709 17.7127 20.7055 17.6255C21.2582 17.48 21.7964 17.4 22.32 17.3855C22.4654 17.3709 22.6036 17.3782 22.7345 17.4073C23.3891 17.4655 23.7818 17.5746 23.9127 17.7345C23.9709 17.8218 24 17.9527 24 18.1273V18.28C24 18.7891 23.8618 19.3891 23.5855 20.08C23.3091 20.7709 22.9236 21.3273 22.4291 21.7491C22.3563 21.8073 22.2909 21.8364 22.2327 21.8364C22.2036 21.8364 22.1745 21.8291 22.1455 21.8145C22.0582 21.7709 22.0364 21.6909 22.08 21.5745C22.6182 20.3091 22.8873 19.4291 22.8873 18.9345C22.8873 18.7746 22.8582 18.6582 22.8 18.5855C22.6545 18.4109 22.2473 18.3236 21.5782 18.3236C21.3309 18.3236 21.04 18.3382 20.7055 18.3673C20.3418 18.4109 20.0073 18.4545 19.7018 18.4982C19.6145 18.4982 19.5564 18.4836 19.5273 18.4545C19.4982 18.4255 19.4909 18.3964 19.5055 18.3673C19.5055 18.3527 19.5127 18.3309 19.5273 18.3018Z" fill="white"/>
</svg>
