<svg width="24" height="24" viewBox="0 0 24 24" fill="none" xmlns="http://www.w3.org/2000/svg">
<path fill-rule="evenodd" clip-rule="evenodd" d="M13.2632 3.39823C14.6255 2.03598 16.1111 2 16.1111 2C16.1111 2 16.3577 3.96385 14.9185 5.40304C13.4792 6.84223 12.1307 6.59565 12.1307 6.59565C12.1307 6.59565 11.901 4.76047 13.2632 3.39823ZM11.0828 7.40623C11.4913 7.59098 11.8528 7.75445 12.2866 7.75742C12.6613 7.75998 13.0225 7.59807 13.4486 7.40702C14.0472 7.13862 14.7742 6.81271 15.8472 6.80469C18.5066 6.80469 19.7575 8.79922 19.7575 8.79922C19.7575 8.79922 17.6156 10.0398 17.5882 12.5621C17.5551 15.6051 20.2887 16.6608 20.2887 16.6608C19.7428 18.3387 18.6711 20.0879 17.8075 21.0063C17.1344 21.7221 16.4413 21.999 15.8335 21.999C15.1824 21.999 14.7427 21.7991 14.2918 21.5942C13.8172 21.3785 13.3302 21.1571 12.571 21.1571C11.8004 21.1571 11.2359 21.3948 10.7065 21.6177C10.2188 21.8231 9.76081 22.016 9.19882 21.999C8.54716 21.9792 7.97595 21.6603 7.54443 21.2359C5.0247 18.7582 4 15.0981 4 12.9699C4 10.8417 4.56546 9.79307 5.21831 8.83693C5.8742 7.87631 7.41674 6.88352 8.95549 6.88352C9.92689 6.88352 10.5455 7.16328 11.0828 7.40623Z" fill="white"/>
</svg>
