<svg width="24" height="24" viewBox="0 0 24 24" fill="none" xmlns="http://www.w3.org/2000/svg">
<g clip-path="url(#clip0_2597_44694)">
<path d="M11.6382 9.59998H7.43354C6.45877 9.59998 6.02523 10.1804 5.92738 10.7332V9.59998H3.59385C3.26831 9.59998 3.11108 9.69393 2.95385 9.90934L2.31385 10.7991H11.6385V9.59998H11.6382ZM0 14.2829H1.67385L3.77108 11.0608L2.27446 10.9203L0 14.2829ZM13.2631 9.59998H11.8846V10.7991H13.2631V9.59998V9.59998ZM22.0123 11.4731L17.6991 11.2296C17.6991 11.8574 18.1329 12.2792 18.8714 12.3348L21.9431 12.559C22.1788 12.5783 22.3265 12.6339 22.3265 12.8221C22.3265 13.0001 22.1585 13.0656 21.8142 13.0656H17.6298V14.2829H21.9037C23.2523 14.2829 23.8434 13.833 23.8434 12.8119C23.8434 11.8949 23.312 11.5481 22.012 11.4734L22.0123 11.4731Z" fill="white"/>
<path d="M17.6444 11.2296L16.2859 11.155V12.5318C16.2859 12.9626 16.0598 13.094 15.2721 13.094H14.189C13.5398 13.094 13.2635 12.9161 13.2635 12.5321V11.0248L11.885 10.9305V12.6442H11.8551C11.7764 12.1478 11.5798 11.5674 10.2693 11.4822L5.95699 11.2106C5.95699 11.8387 6.42991 12.2125 7.16868 12.2874L10.1711 12.5774C10.4071 12.5956 10.5847 12.6614 10.5847 12.8496C10.5847 13.0557 10.4071 13.0738 10.1318 13.0738H5.90776V11.2012L4.5293 11.1175V14.2829H10.1407C11.3905 14.2829 11.7945 13.6653 11.8542 13.1496H11.8838C12.041 13.9645 12.789 14.2829 14.0591 14.2829H15.4567C16.9438 14.2829 17.6431 13.8524 17.6431 12.84V11.2299H17.6444V11.2296ZM23.7481 10.7991V9.59998H19.1204C18.1567 9.59998 17.7228 10.1678 17.6465 10.7151C17.6451 10.7215 17.6444 10.7279 17.6444 10.7344V9.59998H16.2859V10.7991H23.7481Z" fill="white"/>
</g>
<defs>
<clipPath id="clip0_2597_44694">
<rect width="24" height="4.68293" fill="white" transform="translate(0 9.59998)"/>
</clipPath>
</defs>
</svg>
