<svg width="24" height="24" viewBox="0 0 24 24" fill="none" xmlns="http://www.w3.org/2000/svg">
<path d="M14.1112 1.65036C14.1112 2.55855 13.3788 3.30072 12.4608 3.30072C11.5526 3.30072 10.8104 2.56831 10.8104 1.65036C10.8104 0.742174 11.5526 0 12.4608 0C13.3788 0 14.1112 0.742174 14.1112 1.65036Z" fill="white"/>
<path d="M9.89249 6.05458C9.89249 5.44912 10.3905 4.95108 10.996 4.95108C11.6014 4.95108 12.0995 5.44912 12.0995 6.05458C12.0995 6.6698 11.6014 7.15807 10.996 7.15807C10.3808 7.15807 9.89249 6.66004 9.89249 6.05458Z" fill="white"/>
<path d="M5 5.56631C5 4.96085 5.48827 4.46281 6.1035 4.46281C6.70895 4.46281 7.19723 4.96085 7.20699 5.56631C7.20699 6.17176 6.71872 6.6698 6.1035 6.6698C5.48827 6.6698 5 6.17176 5 5.56631Z" fill="white"/>
<path d="M13.9354 7.15807C13.3202 7.15807 12.8319 6.66004 12.8319 6.05458C12.8319 5.44912 13.3202 4.95108 13.9354 4.95108C14.5506 4.95108 15.0389 5.44912 15.0389 6.05458C15.0389 6.6698 14.5408 7.15807 13.9354 7.15807Z" fill="white"/>
<path d="M17.7244 5.56631C17.7244 4.95108 18.2224 4.46281 18.8279 4.46281C19.4333 4.46281 19.9314 4.96085 19.9314 5.56631C19.9314 6.17176 19.4333 6.6698 18.8279 6.6698C18.2127 6.6698 17.7244 6.17176 17.7244 5.56631Z" fill="white"/>
<path d="M9.89249 8.99398C9.89249 8.38852 10.3905 7.89048 10.996 7.89048C11.6014 7.89048 12.0995 8.38852 12.0995 8.99398C12.0995 9.59944 11.6014 10.0975 10.996 10.0975C10.3808 10.0975 9.89249 9.59944 9.89249 8.99398Z" fill="white"/>
<path d="M13.9256 7.89048C14.5408 7.89048 15.0291 8.38852 15.0291 8.99398C15.0291 9.59944 14.5408 10.0975 13.9256 10.0975C13.3104 10.0975 12.8221 9.59944 12.8221 8.99398C12.8221 8.38852 13.3202 7.89048 13.9256 7.89048Z" fill="white"/>
<path d="M8.42767 14.8728C8.42767 14.2673 8.92571 13.7693 9.53117 13.7693C10.1366 13.7693 10.6249 14.2576 10.6347 14.8728C10.6347 15.488 10.1366 15.9763 9.53117 15.9763C8.92571 15.9763 8.42767 15.4782 8.42767 14.8728Z" fill="white"/>
<path d="M14.2967 14.8728C14.2967 14.2673 14.7947 13.7693 15.4002 13.7693C16.0057 13.7693 16.5037 14.2576 16.5037 14.8728C16.5037 15.488 16.0057 15.9763 15.4002 15.9763C14.7947 15.9763 14.2967 15.4782 14.2967 14.8728Z" fill="white"/>
<path fill-rule="evenodd" clip-rule="evenodd" d="M17.1077 17.5787C17.1076 17.5787 17.1075 17.5787 17.1075 17.5787C16.7435 17.5787 16.4451 17.8771 16.4451 18.2411C16.4451 18.5985 16.7327 18.8926 17.0877 18.9031C17.0916 18.9033 17.0955 18.9033 17.0994 18.9034C17.1021 18.9034 17.1048 18.9034 17.1075 18.9034C17.1076 18.9034 17.1078 18.9034 17.1079 18.9034C17.4719 18.9034 17.7703 18.6051 17.7703 18.2411C17.7703 17.8771 17.4719 17.5787 17.1079 17.5787C17.1078 17.5787 17.1078 17.5787 17.1077 17.5787ZM23.2004 23.3192H23.3675V23.2416H22.9498V23.3192H23.1169V23.7607H23.2004V23.3192ZM23.8986 23.2416H24V23.7607H23.9165V23.3848H23.9105L23.7374 23.7607H23.6897L23.5226 23.3848H23.5167V23.7607H23.4391V23.2416H23.5405L23.7136 23.6295H23.7195L23.8986 23.2416ZM1.19344 19.888C1.43212 19.5837 1.9095 19.2973 2.54202 19.2973C3.77722 19.2973 4.6007 20.2222 4.6007 21.5887C4.6007 22.9373 3.64595 23.8801 2.29736 23.8801C0.948782 23.8801 0 22.9313 0 21.5708V17.7398H1.19344V19.888ZM1.15763 21.5887C1.15763 22.2868 1.65291 22.8179 2.30333 22.8179C2.95375 22.8179 3.44903 22.2928 3.44306 21.5887C3.44306 20.8905 2.95375 20.3594 2.30333 20.3594C1.65291 20.3594 1.15763 20.8905 1.15763 21.5887ZM7.30383 19.2913C8.66435 19.2913 9.47588 20.1685 9.47588 21.6543C9.47588 21.7498 9.46991 21.9169 9.45798 21.9765H6.19393C6.25361 22.5136 6.74888 22.9015 7.3635 22.9015C7.81701 22.9015 8.19294 22.7881 8.5092 22.5136L9.09398 23.3072C8.75982 23.5758 8.19294 23.8801 7.36947 23.8801C5.97315 23.8801 5.04227 22.9731 5.04227 21.6245C5.04227 20.2938 6.01492 19.2913 7.30383 19.2913ZM7.26803 20.2461C6.64744 20.2461 6.28344 20.6638 6.20587 21.2008H8.31825C8.24068 20.6638 7.89458 20.2461 7.26803 20.2461ZM22.3944 23.7548V21.3798C22.3944 20.0372 21.7201 19.2913 20.3775 19.2913C19.0229 19.2913 18.3486 20.0491 18.3486 21.3798V23.7548H19.4943V21.3798C19.4943 20.7413 19.745 20.3535 20.3715 20.3535C20.9981 20.3535 21.2487 20.7354 21.2487 21.3798V23.7548H22.3944ZM11.2238 17.7936H10.0781V23.7607H11.2238V17.7936ZM14.7027 19.4465H16.0214L14.3148 21.4395L16.099 23.7607H14.7027L13.1572 21.6961V23.7607H12.0115V17.7995H13.1572V21.356L14.7027 19.4465ZM17.6803 19.4465H16.5346V23.7667H17.6803V19.4465Z" fill="white"/>
</svg>
