<svg width="24" height="24" viewBox="0 0 24 24" fill="none" xmlns="http://www.w3.org/2000/svg">
<path fill-rule="evenodd" clip-rule="evenodd" d="M5.72713 10.0018H6.96052L5.12777 13.6842C5.12777 13.6842 5.00719 13.916 5.2392 13.916C5.56817 13.916 5.72125 13.9392 5.79076 13.8093C5.87311 13.6559 7.73303 10.0014 7.73303 10.0014L9.04031 10.0018C9.04031 10.0018 7.01023 13.9994 6.9638 14.1105C6.91737 14.222 6.60206 14.6534 6.33317 14.6624C6.06429 14.6717 4.03353 14.6632 4.03353 14.6632C4.03353 14.6632 3.56991 14.5093 3.80165 13.9532L5.72713 10.0018ZM9.28994 10L6.87108 14.665H8.12755L9.0317 12.9863L10.5154 12.9868L10.8863 12.2912H9.37487L10.2464 10.6497H11.9433L10.0059 14.6652L11.2348 14.6669L12.1106 12.9828L13.302 12.982L13.8631 12.2824L12.4717 12.282L13.316 10.6592H15.1056L15.7164 10H9.28994V10ZM5.1742 10.5663C5.10005 10.7147 4.50657 11.9111 4.43241 12.0407C4.35826 12.1705 4.29326 12.4393 3.96866 12.4113C3.96866 12.4113 4.1451 12.5508 3.95951 13.0144C3.85341 13.2795 3.39375 14.2756 3.2546 14.4237C3.11558 14.572 2.92085 14.6648 2.60581 14.6648H0L2.36451 10.0005H4.98889C5.2392 10.0005 5.35978 10.1949 5.1742 10.5663V10.5663ZM2.83386 12.608C2.83386 12.608 2.45273 12.5926 2.35973 12.6203C2.3118 12.6349 1.75232 13.7562 1.75232 13.7562C1.65959 13.9879 1.82183 13.9927 1.82183 13.9927L2.15107 13.9972C2.33187 13.9972 2.37366 13.8763 2.37366 13.8763C2.37366 13.8763 2.71683 13.1997 2.87442 12.8474C2.87019 12.8568 3.02286 12.6251 2.83386 12.608ZM3.84808 10.8815C3.84398 10.8909 3.99638 10.659 3.80739 10.6424C3.80739 10.6424 3.42612 10.6267 3.33353 10.6544C3.28532 10.6687 2.72598 11.7906 2.72598 11.7906C2.63339 12.0223 2.79576 12.0304 2.79576 12.0304L3.12473 12.0314C3.30581 12.0314 3.34732 11.9111 3.34732 11.9111C3.34732 11.9111 3.69036 11.2341 3.84808 10.8815V10.8815ZM23.9544 10.5659C23.7594 11.0297 22.0605 14.3094 22.0605 14.3094C22.0605 14.3094 21.9167 14.6665 21.3788 14.6665C20.841 14.6665 19.2552 14.6654 19.2552 14.6654C19.0884 14.6561 18.8706 14.5414 18.9538 14.3467C18.9538 14.3467 18.8429 14.481 18.7313 14.6662H14.781L15.2629 13.0955L14.4376 13.0977L13.1211 14.6659H12.203L15.9717 10L17.3071 10.0004L16.0882 14.2201L18.283 10.0007H19.5909L17.6464 13.9603L19.0559 13.9628L20.9957 10.223C21.1069 10.056 21.1907 10.0004 21.5151 10.0004H23.6571C23.6571 10.0004 24.1491 10.1023 23.9544 10.5659V10.5659ZM15.7358 11.6327L15.1056 12.3377H15.5323L15.7358 11.6327ZM22.5057 10.9836C22.6262 10.7332 22.4245 10.6679 22.4245 10.6679C22.4245 10.6679 22.3117 10.6355 22.1274 10.6589C22.0532 10.6679 21.9698 10.7886 21.9698 10.7886L20.3913 13.7839C20.3079 14.0253 20.4652 14.0623 20.4652 14.0623C20.4652 14.0623 20.5209 14.0901 20.7714 14.0714C20.8825 14.063 20.9569 13.9695 20.9569 13.9695C20.9569 13.9695 22.3933 11.2163 22.5057 10.9836V10.9836Z" fill="white"/>
</svg>
