<svg width="24" height="24" viewBox="0 0 24 24" fill="none" xmlns="http://www.w3.org/2000/svg">
<path fill-rule="evenodd" clip-rule="evenodd" d="M22.6718 9.11523C22.5402 9.11523 22.4414 9.15804 22.3427 9.24691C22.2768 9.33907 22.2109 9.45757 22.2109 9.58267C22.2109 9.70446 22.2768 9.81965 22.3427 9.90855C22.4414 10.0007 22.5402 10.0501 22.6718 10.0501C22.8035 10.0501 22.9351 10.0007 23.001 9.90852C23.0998 9.82297 23.1327 9.71104 23.1327 9.58267C23.1327 9.45757 23.0998 9.33907 23.001 9.25348C22.9351 9.16133 22.8035 9.11523 22.6718 9.11523ZM23.0998 9.58596C23.0998 9.69458 23.0339 9.79333 22.9681 9.86574C22.8693 9.94476 22.7706 9.98753 22.6718 9.98753C22.5731 9.98753 22.4743 9.94476 22.3756 9.86574C22.3098 9.78673 22.2768 9.688 22.2768 9.58267C22.2768 9.47403 22.3098 9.37202 22.4085 9.28972C22.4743 9.21399 22.5731 9.17447 22.6718 9.17447C22.8035 9.17447 22.9022 9.21728 22.9681 9.29629C23.0339 9.37199 23.0998 9.47071 23.0998 9.58596ZM22.7047 9.30615H22.5073V9.83611H22.606V9.61228H22.7047L22.8035 9.83614H22.9022L22.8035 9.59582C22.8693 9.57936 22.9022 9.52672 22.9022 9.45428C22.9022 9.35553 22.8364 9.30615 22.7047 9.30615ZM22.6718 9.37199C22.7706 9.37199 22.8035 9.39833 22.8035 9.46414C22.8035 9.52669 22.7706 9.54644 22.6718 9.54644H22.606V9.37202L22.6718 9.37199Z" fill="white"/>
<path d="M7.63101 9.01978H10.034C10.0999 9.01978 10.3303 9.03298 10.3632 9.03952C10.429 9.07244 10.2644 9.41809 10.1328 9.51353C10.0999 9.54645 10.034 9.54645 10.001 9.55305C9.83648 9.5728 9.67191 9.63204 9.63899 9.78017C9.57315 10.0073 9.60607 10.3332 9.60607 10.5932V12.6967C9.60607 12.9007 9.54023 13.4406 9.63899 13.5887C9.70483 13.7566 9.90231 13.7566 10.0999 13.7566C10.1328 13.75 10.1986 13.7434 10.2315 13.7368C10.2973 13.7138 10.3303 13.6875 10.3961 13.6611C10.5277 13.5854 10.6594 13.4636 10.7582 13.3188C10.8569 13.1805 10.9227 13.0225 10.9886 12.8612C11.0215 12.7723 11.0215 12.6473 11.0873 12.5715C11.1532 12.4761 11.5153 12.4037 11.5811 12.407C11.6141 12.4037 11.6799 12.4103 11.7128 12.4103V14.1055C11.7128 14.1417 11.6799 14.303 11.6799 14.3096H7.30191C7.26899 14.3096 7.20312 14.3227 7.20312 14.2898C7.20312 14.145 7.26899 13.8751 7.40064 13.7961C7.46648 13.7566 7.53232 13.7566 7.63104 13.7566C7.66396 13.7303 7.7298 13.7006 7.79564 13.671C7.92729 13.5986 7.99319 13.4735 8.02607 13.3517C8.12483 13.0982 8.09191 12.7493 8.09191 12.4498V10.613C8.09191 10.4188 8.12483 9.92174 8.05899 9.77689C7.96027 9.53659 7.46648 9.58597 7.43356 9.48061C7.40064 9.35225 7.56524 9.11856 7.63104 9.01978M20.3042 9.03952C20.4029 9.03952 20.5675 9.01978 20.6333 9.09879C20.6662 9.21069 20.6333 9.59583 20.6333 9.75714V11.9593C20.6662 11.9593 20.6662 11.9626 20.6992 11.9461C20.9626 11.7289 21.193 11.459 21.4234 11.222C21.5551 11.11 21.6538 10.9586 21.8184 10.8994C21.9171 10.8566 22.0817 10.8796 22.1804 10.8796H23.1351C23.1351 11.0014 23.0363 11.1693 22.9705 11.2516C22.8717 11.3339 22.7071 11.2976 22.6084 11.3503C22.4767 11.403 21.8184 12.1041 21.8513 12.1601C21.8842 12.3148 22.1475 12.509 22.2792 12.6407C22.5096 12.8777 22.7071 13.1147 22.9375 13.355C23.0363 13.4373 23.1022 13.5492 23.2009 13.6019C23.3326 13.671 23.4971 13.6809 23.6617 13.7072C23.7276 13.7204 23.8593 13.7072 23.9251 13.7631C23.958 13.7928 23.9251 13.885 23.8922 13.9146C23.8593 14.0002 23.7276 14.2503 23.6288 14.2865C23.4971 14.3392 23.2997 14.3063 23.1351 14.3063H22.5755C22.4767 14.3063 22.3121 14.3195 22.2134 14.2931C21.983 14.2339 21.7855 14.0232 21.6209 13.8454C21.4563 13.6644 21.2588 13.4834 21.0613 13.3023C21.0284 13.2496 20.6992 12.9303 20.6992 12.9007C20.6662 12.9007 20.6662 12.9172 20.6333 12.9172C20.6333 13.4406 20.5017 13.7994 21.1271 13.7994C21.1271 13.9113 21.0284 14.2174 20.9296 14.2734C20.8309 14.3392 20.6333 14.3063 20.4688 14.3063C19.9421 14.3063 19.3825 14.3096 18.8229 14.3096V14.2668C18.8887 14.1285 18.8887 13.987 18.9875 13.8718C19.0862 13.7698 19.2508 13.7763 19.2837 13.6282C19.3167 13.5229 19.3167 13.3846 19.3167 13.2661V12.6538V10.8566C19.3167 10.5801 19.3495 10.2641 19.3167 10.004C19.2508 9.76043 18.8558 9.87893 18.8558 9.79663C18.8229 9.71762 18.8558 9.62218 18.8558 9.55305C18.8887 9.48061 18.8887 9.4082 18.9546 9.34897C19.0204 9.2535 20.2713 9.05601 20.3042 9.03952ZM12.8319 9.08233C13.0624 9.00992 13.227 9.08233 13.3915 9.17448C13.7536 9.3786 13.7866 9.9382 13.4903 10.2048C13.1611 10.4846 12.6674 10.4945 12.2065 10.4813C12.1077 10.478 12.009 10.4879 11.9432 10.4286C11.8773 10.1126 12.3382 9.47404 12.6015 9.24032C12.6674 9.18766 12.7661 9.11196 12.8319 9.08233ZM13.4245 10.6755C13.4903 10.6821 13.5232 10.6887 13.5561 10.6953C13.6549 10.7413 13.6219 11.3602 13.6219 11.5116V13.0225C13.6219 13.1871 13.589 13.4438 13.6549 13.5821C13.6878 13.7039 13.8195 13.7368 13.9512 13.7928C14.017 13.8356 13.9841 13.9211 13.9512 13.9837V14.0462C13.8853 14.1318 13.8524 14.2207 13.8195 14.3096H12.0419C12.009 14.3096 11.8445 14.2866 11.8115 14.2866C11.8115 14.2833 11.8773 13.9738 11.9761 13.8784C12.0749 13.7599 12.1736 13.7533 12.2395 13.5887C12.2724 13.4537 12.2724 13.2826 12.2724 13.1246C12.2724 12.8152 12.2724 12.4959 12.2395 12.2062C12.2395 12.0449 12.3053 11.8013 12.2395 11.6663C12.1736 11.5775 11.9103 11.5116 11.8115 11.5116C11.7786 11.5116 11.7786 11.4886 11.7786 11.4721C11.8445 11.2944 11.8115 11.0409 12.0749 11.0409C12.1407 11.0343 12.1736 11.0278 12.2395 11.0212C12.3382 10.9948 12.4699 10.9652 12.5686 10.9389C12.8649 10.8763 13.1941 10.8006 13.4245 10.6755M15.6958 10.6953C15.8933 10.7578 15.7945 11.1232 15.8275 11.3042C15.8275 11.3273 15.8275 11.347 15.8604 11.347C15.992 11.3306 16.1566 11.222 16.2883 11.1528C16.6175 10.9882 17.1441 10.7578 17.4075 10.7479C17.5062 10.7414 17.6379 10.7545 17.7366 10.7611C18 10.7776 18.1975 11.0146 18.2962 11.2516C18.3291 11.4228 18.3291 11.6565 18.3291 11.8572V13.3484C18.3291 13.513 18.395 13.6611 18.5266 13.7533C18.5925 13.7829 18.6254 13.8092 18.6912 13.8356C18.7242 13.8586 18.6912 13.908 18.6912 13.9376C18.6583 14.0364 18.6254 14.1812 18.5267 14.2503C18.395 14.3524 18 14.3063 17.8025 14.3063C17.5391 14.3063 17.3087 14.2997 17.177 14.1351C16.7491 13.694 17.4404 11.5939 16.5516 11.6532C16.4199 11.6598 16.3212 11.7124 16.2224 11.7717C15.7286 12.0482 15.8275 12.4695 15.8275 13.0225C15.8275 13.2431 15.7945 13.536 15.9262 13.6907C16.0249 13.8158 16.2224 13.727 16.3212 13.8191C16.3541 13.8619 16.2224 14.0923 16.1895 14.1384C16.1895 14.1878 16.1566 14.2569 16.0908 14.2833C15.9591 14.3458 15.7286 14.3063 15.5641 14.3063C15.1033 14.3063 14.6095 14.3096 14.1157 14.3096C14.1486 14.1483 14.1816 13.9442 14.2803 13.8356C14.3791 13.7467 14.4778 13.7171 14.5108 13.5953C14.5437 13.4241 14.5108 13.1707 14.5108 12.983V11.8178C14.5108 11.7618 14.4778 11.7091 14.4778 11.6664C14.3791 11.5445 14.2145 11.5511 14.0828 11.5511C14.1157 11.4095 14.1486 11.268 14.1816 11.1232C14.3132 11.0936 14.4449 11.0606 14.5766 11.031C14.9386 10.9224 15.3337 10.8664 15.6958 10.6953Z" fill="white"/>
<path d="M7.89349 11.4721C8.05812 11.4721 7.63017 12.2555 7.49852 12.3049C7.36688 12.3641 7.03437 12.3279 6.85995 12.3279H6.00405C5.97441 12.3279 5.92835 12.3378 5.92178 12.3082C5.91521 12.3082 6.26743 11.5248 6.3563 11.4886C6.46492 11.4392 7.49852 11.4721 7.89349 11.4721ZM4.93095 9.86901C4.71703 9.58594 4.49649 9.21726 4.16073 9.07244C4.02576 9.00989 3.86114 9.02635 3.69657 9.01646C3.26205 8.99014 0.394947 9.01646 0.204034 9C0.131655 9.09219 -0.0197982 9.35222 0.0065801 9.4839C0.0394686 9.65835 0.480561 9.5201 0.569462 9.70773C0.622065 9.82295 0.592462 10.0237 0.592462 10.1653V12.7756C0.589176 12.9962 0.625351 13.2562 0.56289 13.4471C0.503623 13.615 0.342282 13.592 0.220524 13.6775C0.128369 13.7401 -0.0428293 14.1417 0.00986595 14.2503C0.0526118 14.3359 0.898592 14.3096 1.06316 14.3096H2.79796C3.34109 14.3096 3.96324 14.3886 4.3615 14.1121C4.47671 14.033 4.54584 13.9179 4.62485 13.8059C4.77295 13.5854 4.92438 13.3681 5.07251 13.1509C5.26014 12.8711 5.49715 12.5913 5.642 12.2884C5.73415 12.0909 5.77693 11.8605 5.77693 11.6136C5.77693 10.8335 5.34904 10.4253 4.93095 9.86901ZM3.07114 10.1357C3.26205 10.3957 3.45296 10.6525 3.64388 10.9125C3.76898 11.087 3.89405 11.2581 4.01584 11.4326C4.05868 11.5149 4.06854 11.6301 4.05533 11.7354C4.01913 12.0086 3.78215 12.2226 3.62419 12.4366C3.46945 12.6374 3.31474 12.8382 3.16329 13.039C3.0185 13.2299 2.87034 13.4175 2.72552 13.6051C2.67288 13.6512 2.60698 13.6578 2.55435 13.6973C2.43256 13.6973 2.26799 13.7203 2.21201 13.6117C2.14946 13.4932 2.18567 12.9336 2.18567 12.7559C2.18567 11.7914 2.18895 10.8236 2.18895 9.85915C2.19224 9.77686 2.19881 9.7143 2.26799 9.67481V9.65507C2.42599 9.65507 2.6037 9.63529 2.72552 9.71102" fill="white"/>
</svg>
