<svg width="24" height="24" viewBox="0 0 24 24" fill="none" xmlns="http://www.w3.org/2000/svg">
<g clip-path="url(#clip0_2578_57474)">
<path d="M16.3104 8.42538H13.9933L13.9969 10.6358L10.7175 12.6804L10.043 12.286L13.3223 10.2208L11.859 9.28677L8.55871 11.352L7.99843 10.9783L11.2675 8.92338L9.79383 8L6.06723 10.3341C5.5403 8.98921 4.18386 8.42568 2.52514 8.42568H0V14.8017H3.10048C4.56821 14.8017 5.70178 14.0418 6.12302 12.8061L9.84578 15.1506L13.9957 12.5434L13.9936 14.8014H18.3593V12.7548H16.3106V8.42538H16.3104ZM2.62668 12.8903H2.31702V10.4212H2.62668C3.47243 10.4212 3.98814 10.8017 3.98814 11.6983C3.98844 12.5351 3.39627 12.8903 2.62668 12.8903ZM21.1882 8.42538H18.8712V14.8017H23.2369V12.7551H21.1882V8.42538ZM22.9205 8.38612H23.1026V8.85962H23.1752V8.38612H23.3574V8.32177H22.9205V8.38612ZM23.8967 8.32177L23.7438 8.77637H23.7423L23.5888 8.32177H23.4846V8.85962H23.5551V8.54199C23.5551 8.52634 23.5537 8.45815 23.5537 8.40856H23.5551L23.7066 8.85962H23.7786L23.93 8.40767H23.9315C23.9315 8.45785 23.93 8.52605 23.93 8.54199V8.85962H24.0006V8.32177H23.8967Z" fill="white"/>
</g>
<defs>
<clipPath id="clip0_2578_57474">
<rect width="24" height="24" fill="white"/>
</clipPath>
</defs>
</svg>
