<svg width="24" height="24" viewBox="0 0 24 24" fill="none" xmlns="http://www.w3.org/2000/svg">
<path d="M6.76055 14.1611C6.76204 14.2949 6.73678 14.4277 6.68625 14.5516C6.63573 14.6755 6.56096 14.7881 6.46633 14.8827C6.37171 14.9774 6.25913 15.0521 6.13521 15.1027C6.0113 15.1532 5.87853 15.1784 5.74472 15.177C5.6106 15.1796 5.47733 15.1551 5.3529 15.105C5.22847 15.0548 5.11544 14.9801 5.02058 14.8853C4.92573 14.7904 4.851 14.6774 4.80088 14.5529C4.75075 14.4285 4.72627 14.2952 4.72889 14.1611V10.6582C4.71137 10.3115 4.88535 10.1252 4.93906 10.0633H3.57294C3.64474 10.1252 3.81814 10.3237 3.81814 10.6588V13.9521C3.81989 15.0205 4.68043 15.7812 5.74472 15.7736C6.80259 15.7812 7.66255 15.0205 7.6713 13.9521V10.6582C7.6643 10.3109 7.83769 10.1252 7.9165 10.0628H6.55038C6.59709 10.1246 6.77048 10.3231 6.76055 10.6582V14.1611ZM1.36612 15.703C1.31241 15.6335 1.13844 15.4473 1.15595 15.1069V12.8651H2.34693C2.56527 12.8668 2.75151 12.9661 2.87236 13.0752L2.83733 12.3052H1.15595V10.6238H2.76727C2.98679 10.6092 3.17302 10.7085 3.29271 10.834L3.25768 10.0633H0C0.071809 10.1252 0.245201 10.3237 0.245201 10.6588V15.1075C0.245201 15.4478 0.071809 15.6335 0 15.7036H1.36612V15.703ZM8.02159 17.664C8.08581 17.6185 8.78055 16.8367 8.79222 16.2979V10.6582C8.78721 10.4362 8.69981 10.2239 8.54702 10.0628H9.91315C9.84776 10.1246 9.67378 10.3109 9.66794 10.6582V15.5272C9.67378 16.713 9.12792 17.6307 8.02159 17.664ZM11.6296 15.1075C11.6342 15.4478 11.8076 15.6335 11.8748 15.7036H10.5086C10.567 15.6341 10.7404 15.4356 10.7538 15.073V10.6582C10.7474 10.4367 10.6602 10.2251 10.5086 10.0633H11.8748C11.8076 10.1252 11.6342 10.3115 11.6296 10.6588V15.1075ZM13.4511 10.0633H14.8172H13.4511ZM10.1583 6.59549C10.4929 6.15588 10.8805 6.01635 11.3143 6C12.1474 6.01635 12.8153 6.68423 12.8205 7.50624C12.8153 8.33117 12.1474 8.99905 11.3143 9.01247C11.003 8.99654 10.7013 8.89997 10.4386 8.73224C10.1449 8.54659 9.87228 8.16536 9.738 7.99664C9.66625 7.9081 9.57543 7.83691 9.47232 7.78839C9.36921 7.73986 9.25647 7.71526 9.14251 7.71641C8.92884 7.71641 8.72391 7.80129 8.57282 7.95238C8.42173 8.10347 8.33685 8.3084 8.33685 8.52207C8.3421 8.95351 8.6994 9.3108 9.14251 9.32773C9.52316 9.3108 9.94642 8.95876 10.0533 8.76727V9.32773C9.93748 9.4529 9.7964 9.552 9.63937 9.61844C9.48234 9.68487 9.31297 9.71712 9.14251 9.71305C8.47638 9.71422 7.93869 9.17653 7.95153 8.52207C7.93869 7.84894 8.47638 7.31066 9.14251 7.29606C9.49455 7.31066 9.81215 7.46362 10.0182 7.71641C10.2196 7.96687 10.4707 8.2973 10.7188 8.41699C10.8904 8.52733 11.0989 8.59563 11.3143 8.59213C11.4575 8.5945 11.5997 8.56804 11.7325 8.51435C11.8653 8.46065 11.9859 8.38081 12.0872 8.27956C12.1885 8.17831 12.2684 8.05773 12.3222 7.92498C12.3759 7.79223 12.4025 7.65003 12.4002 7.50682C12.4119 6.90783 11.9244 6.42093 11.3143 6.42093C10.7982 6.42093 10.3936 6.71459 10.0883 7.33226L10.1583 6.59549ZM22.8738 14.1611C22.8703 14.7239 22.4108 15.1834 21.858 15.177C21.584 15.1812 21.3196 15.0766 21.1226 14.8862C20.9256 14.6958 20.8122 14.435 20.8071 14.1611V10.6582C20.8141 10.3109 20.9881 10.1252 21.0523 10.0628H19.6862C19.7469 10.1246 19.9209 10.3231 19.9314 10.6582V13.9515C19.9226 15.0199 20.7826 15.7806 21.858 15.773C22.9047 15.7806 23.7653 15.0199 23.7495 13.9515V10.6582C23.767 10.3109 23.9404 10.1252 23.9947 10.0628H22.6286C22.6998 10.1246 22.8732 10.3231 22.8738 10.6582V14.1611ZM12.155 10.869C12.4276 10.5596 12.7009 10.6092 12.9256 10.6238H13.6963V15.0725C13.6933 15.435 13.5199 15.6335 13.4511 15.703H14.8172C14.7605 15.6335 14.5866 15.4473 14.572 15.1069V10.6238H15.3076C15.5417 10.6092 15.7402 10.5847 15.868 10.869L16.1132 10.0633H12.4002L12.155 10.869ZM18.9856 10.869V10.0633C18.5314 9.93899 16.4968 9.60446 16.1132 11.1843C16.0134 11.7506 16.2609 12.4827 16.989 12.8656C17.4648 13.0904 18.0848 13.4378 18.285 13.5662C18.6061 13.76 18.6645 14.0601 18.5653 14.4419C18.4695 14.8646 17.4397 15.7824 16.1132 14.6171L16.3935 15.5979C17.2166 15.9196 18.5442 15.7952 19.1607 15.1075C19.7597 14.4303 19.6605 13.4255 19.0206 13.0058C18.6085 12.7244 17.564 12.1476 17.3743 12.06C17.2161 11.9742 16.6334 11.3039 17.2692 10.6939C17.8956 10.0925 18.7918 10.4481 18.9856 10.869Z" fill="white"/>
</svg>
