<svg width="24" height="24" viewBox="0 0 24 24" fill="none" xmlns="http://www.w3.org/2000/svg">
<path d="M21.3416 10.1818H12.0234V14.0454H17.3871C16.8871 16.5 14.7962 17.9091 12.0234 17.9091C10.4563 17.9091 8.95325 17.2865 7.84508 16.1783C6.73691 15.0702 6.11435 13.5672 6.11435 12C6.11435 10.4328 6.73691 8.92978 7.84508 7.82161C8.95325 6.71344 10.4563 6.09088 12.0234 6.09088C13.3666 6.08929 14.6683 6.55536 15.7053 7.40906L18.6143 4.49997C17.4001 3.42911 15.944 2.66908 14.3712 2.28519C12.7983 1.9013 11.1558 1.90503 9.58476 2.29605C8.01369 2.68708 6.56105 3.45371 5.35168 4.53008C4.1423 5.60644 3.21234 6.96035 2.64171 8.47545C2.07109 9.99056 1.87686 11.6216 2.07572 13.2283C2.27458 14.835 2.86058 16.3695 3.78337 17.6997C4.70616 19.03 5.93813 20.1163 7.37344 20.8654C8.80874 21.6144 10.4044 22.0038 12.0234 22C17.0234 22 21.5689 18.3636 21.5689 12C21.5605 11.3874 21.4843 10.7776 21.3416 10.1818Z" fill="white"/>
</svg>
