<svg width="24" height="24" viewBox="0 0 24 24" fill="none" xmlns="http://www.w3.org/2000/svg">
<path d="M2.6206 12.1672V12.6233H1.09774C0.989412 12.6233 0.888976 12.7006 0.888976 12.8321V13.6515L0 13.6592V11.9044C0 11.4097 0.371106 11.0078 0.827094 11.0078H2.75193V11.5875H0.973976C0.9354 11.5875 0.888976 11.6339 0.888976 11.6802V12.0745C0.888976 12.1209 0.935424 12.1672 0.973976 12.1672H2.6206ZM23.9713 13.6436V11.889C23.9713 11.4097 23.5384 11 23.0823 11H20.7169V13.6436H21.6059V11.6725C21.6059 11.6185 21.6522 11.5798 21.6909 11.5798H22.9973C23.0437 11.5798 23.0823 11.6185 23.0823 11.6725V13.6436H23.9713V13.6436ZM14.9811 13.6515V13.0718H15.6071C15.669 13.0718 15.7078 13.033 15.7078 12.9789L15.7155 11.6725C15.7155 11.6339 15.669 11.5875 15.615 11.5875H14.9811V11.0077H15.7309C16.2721 11.0077 16.6276 11.4097 16.6276 11.9044V12.7548C16.6276 13.2495 16.2566 13.6515 15.7155 13.6515H14.9811ZM20.2994 13.6515V11.8967C20.2994 11.4174 19.8665 11.0077 19.4027 11.0077H17.0373V13.6515H17.934V11.6725C17.934 11.6261 17.9727 11.5875 18.019 11.5875H19.3255C19.3641 11.5875 19.4026 11.6261 19.4026 11.6725V13.6515H20.2994ZM14.9811 11.0077H14.3318C13.7983 11.0077 13.3578 11.4097 13.3578 11.9044V12.7548C13.3578 13.2495 13.7983 13.6436 14.3318 13.6436L14.9811 13.6515V13.0718H14.3472C14.2931 13.0718 14.2466 13.033 14.2466 12.9789V11.6725C14.2466 11.6339 14.2854 11.5875 14.3472 11.5875H14.9811V11.0077ZM4.7772 13.6515V13.0718H5.40338C5.45753 13.0718 5.50383 13.033 5.50383 12.9789L5.51154 11.6725C5.51154 11.6261 5.47296 11.5875 5.41879 11.5875H4.77718V11.0077H5.52709C6.06811 11.0077 6.41593 11.4174 6.41593 11.9044V12.7548C6.41593 13.2495 6.05269 13.6515 5.51152 13.6515H4.7772ZM12.9713 13.6515H11.1004C10.6136 13.6515 10.2193 13.2495 10.2193 12.7548V11.9121C10.2193 11.4174 10.6136 11.0155 11.1004 11.0155L12.9713 11.0077V11.5875H11.201C11.1469 11.5875 11.1083 11.6339 11.1083 11.6802V12.9788C11.1083 13.033 11.1469 13.0717 11.201 13.0717H12.9713V13.6515ZM8.51871 13.1645L8.94382 13.6515H9.99512L9.02112 12.5229C8.90508 12.4146 8.90508 12.2368 9.02112 12.1209L9.98741 11H8.93612L8.51871 11.487C8.40267 11.6029 8.22489 11.6029 8.11659 11.487L7.69932 11H6.64802L7.62186 12.1209C7.73019 12.2368 7.73019 12.4146 7.61415 12.5229L6.65559 13.6515H7.69932L8.11656 13.1645C8.22489 13.0562 8.41038 13.0562 8.51871 13.1645ZM4.7772 11.0077H4.12786C3.58685 11.0077 3.14615 11.4174 3.14615 11.9121V12.7548C3.14615 13.2495 3.58685 13.6515 4.12786 13.6515H4.7772V13.0718H4.13556C4.08928 13.0718 4.04281 13.033 4.04281 12.9789V11.6802C4.04281 11.6339 4.08155 11.5875 4.13556 11.5875H4.7772V11.0077Z" fill="white"/>
</svg>
