<svg width="24" height="24" viewBox="0 0 24 24" fill="none" xmlns="http://www.w3.org/2000/svg">
<path d="M22.0041 14.7336C20.7337 14.7424 19.5313 14.7524 19.1962 14.7223C18.5178 14.6636 18.0644 14.2197 18.0121 13.5666C17.9761 13.1382 17.9761 12.7831 18.0098 12.4452C18.0716 11.8095 18.6036 11.2035 19.1964 11.175C19.4086 11.1634 19.977 11.1648 21.0055 11.1688L24 11.175V9.93293C24 9.93293 21.6149 9.93019 20.8979 9.92694C19.9352 9.92257 19.4508 9.92196 19.1442 9.93293C18.4694 9.95851 17.9037 10.1988 17.4639 10.6455C17.0477 11.067 16.7993 11.7378 16.7625 12.417C16.7416 12.7831 16.7345 13.262 16.7625 13.5466C16.8317 14.2766 17.0679 14.8498 17.4639 15.2512C17.8875 15.6824 18.5321 15.9553 19.1448 15.964C19.6475 15.9703 24 15.964 24 15.964V14.7222C24 14.7222 22.6777 14.7276 22.0041 14.7336ZM8.48673 9.99893V11.2398H11.4409V15.942H12.6881V11.2398H15.6428V9.99893H8.48673ZM7.19154 12.3457C7.1824 11.6776 6.94705 11.104 6.48973 10.6406C6.01323 10.1558 5.28552 9.95415 4.80963 9.92876C4.39577 9.90551 2.7646 9.91282 2.38151 9.92876C1.84205 9.95171 1.44871 10.1125 1.25183 10.2596C1.2498 10.2609 1.24777 10.2603 1.24777 10.2572V8H0V15.9642H1.24564C1.24564 15.9642 1.22137 12.7042 1.24909 12.3494C1.29864 11.7181 1.77748 11.2225 2.3875 11.169C2.87721 11.1271 4.34622 11.1386 4.80678 11.17C5.43975 11.2136 5.90682 11.7083 5.94367 12.3742C5.95576 12.6195 5.94296 15.9641 5.94296 15.9641H7.19144C7.19154 15.964 7.19479 12.6324 7.19154 12.3457Z" fill="white"/>
</svg>
