<svg width="24" height="24" viewBox="0 0 24 24" fill="none" xmlns="http://www.w3.org/2000/svg">
<path d="M7.76375 19.6963V21.7906C7.76375 22.3855 7.46857 22.7029 6.93219 22.7029C6.39279 22.7029 6.09583 22.3764 6.09583 21.7652V19.6986H5.35375V21.7906C5.35375 22.82 5.92551 23.4099 6.9224 23.4099C7.92873 23.4099 8.50584 22.8087 8.50584 21.7605V19.6963H7.76375ZM10.494 19.6963L8.88229 23.3528H9.63978L9.95089 22.6447L9.97316 22.5916H11.6475L11.9759 23.3528H12.754L11.1573 19.7179L11.1429 19.6963L10.494 19.6963ZM14.9064 19.6963L14.0759 22.2122L13.2674 19.6982H12.4776L13.7525 23.3551H14.367L15.1992 20.9528L16.0307 23.3551H16.6505L17.9222 19.6982H17.1526L16.3425 22.2122L15.5117 19.6963H14.9064ZM22.1685 19.6963V23.3497H22.9008V19.6963H22.1685ZM1.16406 19.6965V23.3549H1.90636V21.8691H3.5824V23.3549H4.3249V19.6965H3.5824V21.1724H1.90636V19.6965H1.16406ZM18.5207 19.699V23.3524H21.2834V22.6863H19.253V21.7804H20.6031V21.1141H19.253V20.3651H21.2126V19.699H18.5207ZM10.8085 20.6221L11.3377 21.847H11.3358L11.3718 21.9315H10.2491L10.2847 21.847H10.2841L10.8085 20.6221Z" fill="white"/>
<path d="M10.4096 1.00005C10.1152 1.02609 9.31954 1.20719 9.31954 1.20719H9.31921C7.52587 1.67072 7.102 3.29815 7.102 3.29815C7.01442 3.57181 6.97464 3.85226 6.96294 4.11649V4.47612C6.98674 5.03174 7.11031 5.44663 7.11031 5.44663C7.70935 8.10287 10.6547 12.4674 11.2877 13.3843C11.3326 13.4288 11.3686 13.4128 11.3686 13.4128C11.4369 13.3939 11.4316 13.3284 11.4316 13.3284L11.4329 13.3287C12.4079 3.58325 10.4096 1.00006 10.4096 1.00006L10.4096 1.00005ZM13.6312 1.00005C13.6312 1.00005 11.6242 3.58461 12.6 13.3357H12.6013C12.6088 13.3976 12.6527 13.4105 12.6527 13.4105C12.718 13.4358 12.7515 13.3731 12.7515 13.3731L12.7518 13.3737C13.4011 12.4334 16.3297 8.09262 16.9261 5.44658C16.9261 5.44658 17.2494 4.16589 16.9373 3.29809C16.9373 3.29809 16.4939 1.64547 14.6983 1.20874C14.6983 1.20874 14.1809 1.07738 13.6313 1L13.6312 1.00005ZM4.37396 3.92565C4.37396 3.92565 2.66523 5.54745 2.5803 7.26682H2.58098V7.52735C2.58228 7.54696 2.58327 7.56681 2.58451 7.58679C2.65811 8.97323 3.70111 9.79379 3.70111 9.79379C5.38159 11.4316 9.45068 13.4995 10.3962 13.9686C10.4095 13.9736 10.4583 13.9896 10.487 13.9533C10.487 13.9533 10.5019 13.942 10.5088 13.9216V13.8785C10.5081 13.876 10.5068 13.8735 10.5055 13.8708H10.5059C7.91645 8.21405 4.374 3.92559 4.374 3.92559L4.37396 3.92565ZM19.6627 3.92565C19.6627 3.92565 16.131 8.20064 13.5427 13.8459L13.5437 13.8456C13.5437 13.8456 13.5131 13.911 13.5625 13.9533C13.5625 13.9533 13.5773 13.9644 13.5977 13.969H13.6335C13.6399 13.9671 13.6468 13.9646 13.6536 13.96V13.9606C14.6249 13.4786 18.6625 11.4243 20.335 9.79405C20.335 9.79405 21.3942 8.94348 21.4497 7.5778C21.572 5.68102 19.6627 3.92559 19.6627 3.92559L19.6627 3.92565ZM22.8415 9.54158C22.8415 9.54158 17.0836 12.6315 14.1066 14.6396L14.1069 14.64L14.1076 14.6406C14.1076 14.6406 14.0535 14.676 14.0724 14.7394C14.0724 14.7394 14.1007 14.7905 14.1418 14.7905V14.7909C15.2081 14.7927 19.2432 14.7972 19.3444 14.7784C19.3444 14.7784 19.8661 14.7575 20.5108 14.5098C20.5108 14.5098 21.9461 14.0535 22.6916 12.424C22.6916 12.424 23.0323 11.7426 23.0372 10.7854V10.7448C23.0347 10.3756 22.9827 9.96698 22.8415 9.54158H22.8415ZM1.19358 9.55599C0.669702 11.1778 1.37497 12.4846 1.37611 12.4867C2.11109 14.0397 3.51405 14.5102 3.51405 14.5102C4.16178 14.7763 4.80966 14.7947 4.80966 14.7947C4.91083 14.8132 8.83842 14.7966 9.89079 14.7916C9.93533 14.7913 9.95984 14.7465 9.95984 14.7465C9.96293 14.7416 9.96565 14.7366 9.96688 14.7321V14.6915C9.95815 14.6644 9.93491 14.6452 9.93491 14.6452L9.93559 14.6449C6.96 12.6374 1.19363 9.55607 1.19363 9.55607L1.19358 9.55599ZM9.77059 15.2902L2.99715 15.5277C3.7317 16.8371 4.96877 17.8548 6.25744 17.5423C7.14675 17.3199 9.16144 15.9146 9.82653 15.4398L9.82431 15.4379C9.87602 15.3915 9.85755 15.3542 9.85755 15.3542C9.84054 15.2934 9.7706 15.2934 9.7706 15.2934L9.77059 15.2902ZM14.2568 15.2951L14.2561 15.2976C14.2561 15.2976 14.1967 15.3052 14.18 15.3497C14.18 15.3497 14.1656 15.4106 14.2056 15.4408L14.2049 15.4414C14.8534 15.9065 16.8193 17.2808 17.7664 17.5477C17.7664 17.5477 17.9098 17.5965 18.1503 17.6052H18.2948C18.9293 17.583 20.0347 17.257 21.0391 15.5312L14.2568 15.2951Z" fill="white"/>
</svg>
