<svg width="24" height="24" viewBox="0 0 24 24" fill="none" xmlns="http://www.w3.org/2000/svg">
<path d="M0 7V7.65681H4.67155V7H0ZM5.33342 7V7.65681H11.9906C11.9906 7.65681 11.3106 7 10.41 7H5.33342ZM13.2966 7V7.65681H17.324L17.085 7H13.2966ZM20.2116 7L19.9725 7.65681H23.9634V7H20.2116ZM0 8.27733V8.93414H4.67155V8.27733H0ZM5.33342 8.27826V8.93416H12.7631C12.7631 8.93416 12.6763 8.42865 12.525 8.27826H5.33342ZM13.2966 8.27826V8.93416H17.7656L17.5444 8.27826H13.2966ZM19.7334 8.27826L19.5122 8.93416H23.9634V8.27826H19.7334ZM1.34249 9.55466V10.2124H3.36562V9.55466H1.34249ZM6.67594 9.55466V10.2124H8.69906V9.55466H6.67594ZM10.6669 9.55466V10.2124H12.69C12.69 10.2124 12.8184 9.86505 12.8184 9.55466H10.6669ZM14.6391 9.55466V10.2124H18.2259L17.9869 9.55466H14.6391ZM19.2928 9.55466L19.0528 10.2124H22.6575V9.55466H19.2928ZM1.34249 10.8329V11.4898H3.36562V10.8329H1.34249ZM6.67594 10.8329V11.4898H11.8434C11.8434 11.4898 12.2757 11.1527 12.4134 10.8329H6.67594ZM14.6391 10.8329V11.4898H16.6622V11.1241L16.7906 11.4898H20.4966L20.6344 11.1241V11.4898H22.6575V10.8329H18.8597L18.6581 11.3893L18.4556 10.8329H14.6391ZM1.34249 12.1103V12.7671H3.36562V12.1103H1.34249ZM6.67594 12.1103V12.7671H12.4134C12.2757 12.4483 11.8434 12.1103 11.8434 12.1103H6.67594ZM14.6391 12.1103V12.7671H16.6622V12.1103H14.6391ZM17.0297 12.1103L17.2744 12.7671H20.0531L20.2856 12.1103H17.0297ZM20.6344 12.1103V12.7671H22.6575V12.1103H20.6344ZM1.34249 13.3876V14.0444H3.36562V13.3876H1.34249ZM6.67594 13.3876V14.0444H8.69906V13.3876H6.67594ZM10.6669 13.3876V14.0444H12.8184C12.8184 13.7344 12.69 13.3876 12.69 13.3876H10.6669ZM14.6391 13.3876V14.0444H16.6622V13.3876H14.6391ZM17.4891 13.3876L17.7263 14.0444H19.5891L19.8281 13.3876H17.4891ZM20.6344 13.3876V14.0444H22.6575V13.3876H20.6344ZM0.036552 14.6649V15.3227H4.7081V14.6649H0.036552ZM5.33342 14.6649V15.3227H12.525C12.6763 15.1721 12.7631 14.6649 12.7631 14.6649H5.33342ZM13.3331 14.6649V15.3227H16.6622V14.6649H13.3331ZM17.9494 14.6649L18.1931 15.3227H19.1409L19.3697 14.6649H17.9494ZM20.6344 14.6649V15.3227H24V14.6649H20.6344ZM0.036552 15.9432V16.6H4.7081V15.9432H0.036552ZM5.33342 15.9432V16.5991H10.41C11.3106 16.5991 11.9906 15.9432 11.9906 15.9432H5.33342ZM13.3331 15.9432V16.6H16.6622V15.9432H13.3331ZM18.4116 15.9432L18.6459 16.5982L18.6863 16.5991L18.9244 15.9432H18.4116ZM20.6344 15.9432V16.6H24V15.9432H20.6344Z" fill="white"/>
</svg>
