<svg width="24" height="24" viewBox="0 0 24 24" fill="none" xmlns="http://www.w3.org/2000/svg">
<path d="M0 8H23.9903V15.9968H0V8Z" fill="white"/>
<path d="M10.4421 10.6958C10.0796 10.6958 9.6945 10.8543 9.44531 11.1942V10.7638H8.60712V13.8447H9.44531V12.0777C9.44531 11.7605 9.6945 11.4207 10.1476 11.4207C10.4874 11.4207 10.8499 11.6699 10.8499 12.0777V13.822H11.6881V11.9191C11.7107 11.2168 11.1896 10.6958 10.4421 10.6958ZM17.7139 10.7411L16.9437 12.8479L16.1735 10.7411H15.222L16.4906 13.822H17.4194L18.6654 10.7411H17.7139ZM7.70098 12.8705C7.33851 13.1424 7.13461 13.1877 6.81746 13.1877C6.52298 13.1877 6.29642 13.0971 6.13784 12.9385L8.28994 12.0324C8.24465 11.6926 8.1087 11.3981 7.92751 11.1715C7.63299 10.8317 7.22522 10.6732 6.70422 10.6732C5.77541 10.6732 5.07313 11.3528 5.07313 12.2589C5.07313 13.1877 5.77541 13.8447 6.7948 13.8447C7.36113 13.8447 7.95013 13.5729 8.22199 13.2557L7.70098 12.8705ZM6.06989 11.6699C6.20584 11.466 6.43232 11.3528 6.72684 11.3528C7.02132 11.3528 7.27051 11.534 7.3838 11.7832L5.91132 12.3949C5.86603 12.1003 5.95665 11.8511 6.06989 11.6699ZM5.00517 13.0518H3.0796V9.83496H2.21875V13.822H5.00517V13.0518ZM20.1832 13.8673C19.2544 13.8673 18.5295 13.1877 18.5295 12.2815C18.5295 11.398 19.2544 10.6958 20.1832 10.6958C21.112 10.6958 21.8369 11.3754 21.8369 12.2815C21.8596 13.1877 21.1346 13.8673 20.1832 13.8673ZM20.1832 11.4207C19.7075 11.4207 19.3676 11.7832 19.3676 12.2816C19.3676 12.7573 19.7301 13.1424 20.1832 13.1424C20.6589 13.1424 20.9988 12.78 20.9988 12.2816C21.0214 11.8058 20.6589 11.4207 20.1832 11.4207ZM13.6816 13.8673C12.7528 13.8673 12.0278 13.1877 12.0278 12.2815C12.0278 11.398 12.7528 10.6958 13.6816 10.6958C14.6104 10.6958 15.3353 11.3754 15.3353 12.2815C15.3353 13.1877 14.6104 13.8673 13.6816 13.8673ZM13.6816 11.4207C13.2058 11.4207 12.866 11.7832 12.866 12.2816C12.866 12.7573 13.2285 13.1424 13.6816 13.1424C14.1573 13.1424 14.4971 12.78 14.4971 12.2816C14.5197 11.8058 14.1573 11.4207 13.6816 11.4207ZM21.9728 13.4595H21.8369V13.3916H22.1994V13.4595H22.0635V13.822H21.9728V13.4595ZM22.29 13.3916H22.3806L22.5165 13.5955L22.6525 13.3916H22.7431V13.8447H22.6525V13.5275L22.5165 13.7314L22.3806 13.5275V13.8447H22.29V13.3916Z" fill="black"/>
</svg>
