<svg width="24" height="24" viewBox="0 0 24 24" fill="none" xmlns="http://www.w3.org/2000/svg">
<g clip-path="url(#clip0_2578_57475)">
<path fill-rule="evenodd" clip-rule="evenodd" d="M0 13.7636L0.836014 10H2.32847L2.39661 12.1025L3.40127 10H4.89728L4.05785 13.7636H2.97425L3.42271 11.74L2.41464 13.7636H1.63598L1.59651 11.74L1.09425 13.7636H0V13.7636ZM5.0266 10.6134H6.03468L6.17096 10H5.1592L5.0266 10.6134ZM5.33509 13.7673L4.31977 13.7636L4.94043 10.9758H5.95575L5.33509 13.7673ZM9.18127 10.9758H10.089L10.01 11.3203C10.1357 11.1659 10.2863 11.0691 10.4765 11.0045C10.6292 10.9537 10.7892 10.9282 10.9501 10.9291L10.7169 11.8369C10.6595 11.8369 9.95638 11.7004 9.73747 12.7732L9.51147 13.767H8.55337L9.18127 10.9758Z" fill="white"/>
<path fill-rule="evenodd" clip-rule="evenodd" d="M8.65122 12.7339C8.65122 12.7553 8.33194 13.8747 6.92907 13.8461C5.04893 13.8067 5.53699 10.793 7.67168 10.9006C8.88432 10.9615 8.82342 11.9697 8.81263 12.0128H7.76495C7.77929 11.9734 7.8152 11.5571 7.48145 11.5644C6.86079 11.5824 6.41943 13.1214 7.10469 13.1359C7.42041 13.1467 7.56762 12.7807 7.5963 12.7341H8.65122V12.7339V12.7339ZM17.653 13.8569C15.6116 13.7708 16.2251 10.7641 18.3204 10.8646C20.2901 10.9615 19.7302 13.9394 17.653 13.8569V13.8569ZM18.2521 11.5211C17.5741 11.3848 17.0682 13.0137 17.7142 13.1464C18.4316 13.2972 18.9125 11.654 18.2521 11.5211Z" fill="white"/>
<path fill-rule="evenodd" clip-rule="evenodd" d="M21.4774 10.5633C21.1973 10.5633 21.1438 10.6709 21.0971 10.8825L21.0789 10.9758H21.671L21.8182 10.3013H22.7437L22.6002 10.9758H23.0773L22.9376 11.618H22.4602L22.1983 12.8415C22.1876 12.9096 22.1625 12.9705 22.1876 13.0459C22.2271 13.1571 22.6253 13.1106 22.6253 13.1106L22.4711 13.7493C22.4711 13.7493 21.6602 13.8426 21.3874 13.6524C21.2654 13.5699 21.1327 13.3977 21.2153 13.0281L21.5274 11.6217L20.9713 11.6182L20.5014 13.7636H19.5038L19.9703 11.6182H19.4571L19.6006 10.9759H20.0994C20.1889 10.6172 20.2679 10.3732 20.4903 10.1866C20.7954 9.93904 21.5884 10.0359 21.5884 10.0359L21.4774 10.5633V10.5633ZM12.5221 12.8092L14.4163 12.8057C14.4163 12.8057 14.2549 13.2255 14.8506 13.2292C15.2631 13.2292 15.4245 12.7591 14.8685 12.6623C14.6138 12.6156 13.6271 12.4505 13.7384 11.6899C13.8318 11.0657 14.481 10.8467 15.1916 10.8575C16.6447 10.8754 16.3721 11.7295 16.3899 11.7868H15.4211C15.4211 11.7868 15.5252 11.4281 15.0875 11.4281C14.6893 11.4281 14.5922 11.7868 15.0515 11.8836C15.6113 12.0057 16.2536 12.0344 16.2892 12.7556C16.2999 12.9566 16.1818 13.8964 14.7177 13.8678C13.3759 13.8392 13.2827 13.2077 13.3185 12.9136C13.0745 13.4266 12.4645 13.8823 11.6502 13.8536C9.60876 13.789 10.2294 10.7644 12.3211 10.8686C13.272 10.9152 13.6344 11.6363 13.5194 12.3467C13.5015 12.4723 13.4909 12.4902 13.4548 12.501L12.5221 12.8092V12.8092ZM12.2457 11.5175C11.5747 11.3848 11.0725 13.0064 11.7146 13.1429C12.4253 13.2901 12.9024 11.6504 12.2457 11.5175ZM23.6372 10.9722C24.1216 10.9722 24.1216 11.6934 23.6372 11.6934C23.1528 11.6934 23.1528 10.9722 23.6372 10.9722ZM23.6372 11.0368C23.2317 11.0368 23.2317 11.6253 23.6372 11.6253C24.046 11.6253 24.046 11.0368 23.6372 11.0368ZM23.7018 11.374L23.7735 11.5175H23.6873L23.63 11.374H23.5796L23.5583 11.5283H23.4827L23.5438 11.1444H23.7195C23.7195 11.1444 23.8164 11.1696 23.8091 11.2628C23.7986 11.374 23.709 11.374 23.7018 11.374V11.374ZM23.6836 11.1947H23.6122L23.594 11.3203H23.6657C23.6657 11.3203 23.7374 11.3311 23.7447 11.2593C23.7447 11.1947 23.6836 11.1947 23.6836 11.1947Z" fill="white"/>
</g>
<defs>
<clipPath id="clip0_2578_57475">
<rect width="24" height="24" fill="white"/>
</clipPath>
</defs>
</svg>
