<svg width="24" height="24" viewBox="0 0 24 24" fill="none" xmlns="http://www.w3.org/2000/svg">
<path fill-rule="evenodd" clip-rule="evenodd" d="M6.79615 9.3154H7.96094V14.8413H5.86793C5.54034 14.8413 5.06708 14.6595 4.66678 14.2596L1.5183 11.006V14.8414H0.353516V9.3154H2.28267C2.62843 9.3154 3.08339 9.49718 3.37462 9.82427L6.79602 13.3506V9.3154H6.79615ZM8.75792 9.3078V13.1355C8.75792 13.6095 8.61138 14.849 11.1024 14.849H15.9015V13.9741H12.0551C11.7437 13.9741 11.3591 13.7189 11.3591 13.1721V12.37H15.462V11.4952H11.3591V10.1827H15.9017V9.3078H8.75792ZM16.205 12.0544C16.2806 15.1011 19.5351 14.9462 20.2168 14.9594C21.1427 14.9776 23.1214 14.9412 23.6479 14.8323V13.9062C22.4658 14.0317 18.9674 14.6696 18.8735 12.0542C18.8735 9.31254 22.4498 9.96621 23.6479 10.0933V9.16723C23.1214 9.05829 21.1427 9.02193 20.2168 9.04011C19.527 9.05393 16.205 8.89506 16.205 12.0544Z" fill="white"/>
</svg>
