<svg width="24" height="24" viewBox="0 0 24 24" fill="none" xmlns="http://www.w3.org/2000/svg">
<path fill-rule="evenodd" clip-rule="evenodd" d="M5.94886 12.1851C5.94886 11.6136 5.88025 11.1606 4.74622 11.1606C3.7997 11.1606 3.48344 11.5008 3.49016 12.0613H4.33758C4.36036 11.8555 4.55423 11.7644 4.6867 11.7644C4.78731 11.7644 4.99748 11.7873 4.9976 11.961C4.9981 12.4817 3.36005 12.0012 3.36005 13.1088C3.36005 13.6072 3.87714 13.8094 4.1472 13.8027C4.50367 13.794 4.77809 13.7296 5.04791 13.4781L5.1515 13.7342H5.99219C5.95234 13.6427 5.94886 12.1851 5.94886 12.1851ZM4.55784 13.2557C4.37045 13.2557 4.28964 13.1279 4.29089 13.009C4.29313 12.8056 4.71397 12.813 5.02487 12.6621C5.04791 12.991 4.89165 13.2557 4.55784 13.2557ZM22.7378 12.7289C22.7102 12.9163 22.6142 13.149 22.3673 13.149C22.068 13.149 21.9043 12.8577 21.9043 12.4965C21.9043 12.2131 22.0106 11.8327 22.3673 11.8327C22.4727 11.8327 22.5548 11.8647 22.6141 11.9287C22.6738 11.9882 22.7101 12.0704 22.7148 12.1756H23.6292C23.5606 11.4669 23.0074 11.1925 22.3673 11.1925C21.5762 11.1925 20.9901 11.6633 20.9901 12.4817C20.9901 13.291 21.5945 13.789 22.3673 13.789C23.0302 13.789 23.5652 13.4558 23.6477 12.7288H22.7378V12.7289ZM19.9725 13.7362H20.8908V11.2742H19.9725V13.7362ZM19.9725 10.8975H20.8908V10.2686H19.9725V10.8975ZM15.6541 11.1672C14.8448 11.1672 14.2879 11.6528 14.2879 12.485C14.2879 13.3036 14.8905 13.789 15.6588 13.789C16.427 13.789 17.0303 13.3163 17.0303 12.4383C17.0302 11.6931 16.4999 11.1672 15.6541 11.1672ZM15.6588 13.1489C15.4163 13.1489 15.2288 12.8888 15.2288 12.4361C15.2288 12.1664 15.3434 11.8326 15.6677 11.8326C15.9147 11.8189 16.0892 12.103 16.0892 12.4551C16.0892 12.908 15.9147 13.1489 15.6588 13.1489ZM12.6231 11.8713C12.6253 11.7524 12.7544 11.6973 12.919 11.6973C12.9922 11.6973 13.0951 11.7154 13.1454 11.7568C13.1697 11.7766 13.2271 11.8474 13.2368 11.9306H14.101C14.0775 11.291 13.4502 11.1575 12.8897 11.1575C12.3914 11.1575 11.7448 11.3545 11.7437 11.9672C11.742 12.9724 13.2796 12.6054 13.2796 12.9894C13.2796 13.1587 13.1529 13.2224 12.926 13.2224C12.8344 13.2224 12.7359 13.1606 12.6765 13.1149C12.6122 13.0646 12.586 13.0059 12.5758 12.8953H11.7219C11.7386 13.5663 12.3508 13.8164 12.8995 13.8164C13.917 13.8164 14.2105 13.374 14.2142 12.8756C14.221 11.9145 12.6167 12.2165 12.6231 11.8713ZM11.5821 12.1851C11.5821 11.6136 11.5134 11.1606 10.3794 11.1606C9.43289 11.1606 9.11664 11.5008 9.12336 12.0613H9.97077C9.99368 11.8555 10.1874 11.7644 10.3201 11.7644C10.4207 11.7644 10.6308 11.7873 10.631 11.961C10.6314 12.4817 8.99337 12.0012 8.99337 13.1088C8.99337 13.6072 9.51046 13.8094 9.78052 13.8027C10.137 13.794 10.4117 13.7296 10.6813 13.4781L10.7849 13.7342H11.6256C11.5854 13.6427 11.5821 12.1851 11.5821 12.1851ZM10.1909 13.2557C10.0035 13.2557 9.92271 13.1279 9.92396 13.009C9.9262 12.8056 10.3472 12.813 10.6581 12.6621C10.6809 12.991 10.5247 13.2557 10.1909 13.2557ZM1.98509 10.1838H0.353516V13.7336H1.40724V12.6326H2.02157C2.9681 12.6326 3.42953 12.1238 3.42953 11.4151C3.42965 10.7384 2.93161 10.1838 1.98509 10.1838ZM1.93653 11.8519H1.40737V11.0512H1.79484C2.02332 11.0512 2.37082 11.1133 2.37082 11.4196C2.37095 11.7031 2.18804 11.8519 1.93653 11.8519ZM18.8792 11.1671C18.5181 11.1671 18.3656 11.2271 18.0295 11.534L18.032 11.2616L17.1607 11.2608V13.7359H18.032V12.4361C18.032 12.1297 18.1897 11.9423 18.4824 11.9423C18.7521 11.9423 18.8163 12.0837 18.8163 12.3215V13.736H19.7672V12.2212C19.7671 11.5628 19.5102 11.1671 18.8792 11.1671ZM7.94848 11.1671C7.58728 11.1671 7.43476 11.2271 7.09883 11.534L7.10107 11.2616L6.23 11.2608V13.7359H7.14776V12.4361C7.14776 12.1297 7.26879 11.9078 7.56151 11.9078C7.8312 11.9078 7.88536 12.0837 7.88536 12.3215V13.736H8.83649V12.2212C8.83624 11.5628 8.57938 11.1671 7.94848 11.1671Z" fill="white"/>
</svg>
