<svg width="24" height="24" viewBox="0 0 24 24" fill="none" xmlns="http://www.w3.org/2000/svg">
<path d="M4.00904 11.2687C3.9206 11.5183 3.36342 11.7789 1.99477 11.4694L2.1729 12.2777C3.54147 12.5264 4.35267 12.3219 4.81605 11.8354C5.1592 11.4749 5.22646 11.0086 4.94446 10.6517C4.64619 10.2739 3.98546 10 3.15112 10C1.95768 10 1.10719 10.3458 0.634908 11.6434L0 13.3879H1.11075L1.74254 11.6235C2.00176 10.8979 2.54651 10.7777 3.15112 10.7777C3.78519 10.7777 4.09121 11.0388 4.00904 11.2687ZM15.0071 12.0344L14.9641 12.0159C15.2127 11.9168 15.4825 11.8632 15.7506 11.8632C15.9131 11.8632 16.275 11.8908 16.4275 11.978C16.4646 11.9988 16.4987 12.0317 16.4804 12.0725C16.4129 12.2241 15.4222 12.2156 15.0071 12.0344ZM17.0361 11.6264C16.7737 11.4861 16.3407 11.3742 15.9175 11.3569C15.0394 11.3209 14.0382 11.6203 13.8388 12.3283C13.7235 12.7355 14.1182 13.2855 15.1459 13.4416C15.66 13.5205 16.477 13.5005 17.065 13.3062L17.2845 12.7018C16.0922 13.1115 14.5338 12.9925 14.5859 12.3788C15.1628 12.749 16.0045 12.7138 16.6277 12.6118C17.7074 12.4356 17.6917 11.9767 17.0361 11.6264ZM18.8563 12.0344L18.8138 12.0159C19.062 11.9168 19.332 11.8632 19.5997 11.8632C19.7629 11.8632 20.1241 11.8908 20.2767 11.978C20.3137 11.9988 20.3476 12.0317 20.3294 12.0725C20.2622 12.2241 19.2717 12.2156 18.8563 12.0344ZM20.8852 11.6264C20.623 11.4861 20.1899 11.3742 19.7666 11.3569C18.8889 11.3209 17.8877 11.6203 17.688 12.3283C17.573 12.7355 17.9679 13.2855 18.995 13.4416C19.5091 13.5205 20.3265 13.5005 20.9142 13.3062L21.1341 12.7018C19.9417 13.1115 18.3834 12.9925 18.4355 12.3788C19.0125 12.749 19.854 12.7138 20.4771 12.6118C21.5564 12.4356 21.5412 11.9767 20.8852 11.6264ZM21.6959 12.1461L21.2554 13.3884H22.2723L22.6113 12.4324C22.6946 12.1899 22.7652 12.0085 23.0618 12.0085H23.7762L23.9766 11.4362H22.6605C22.2203 11.4362 21.8654 11.6545 21.6959 12.1461ZM4.66185 13.3884H5.71473L6.42626 11.4362H5.3735L4.66185 13.3884ZM11.4932 12.3379C11.5912 12.0693 11.8871 11.945 12.1463 11.945C12.4032 11.945 12.6491 12.0964 12.5539 12.3579L12.178 13.3883H13.195L13.5764 12.3416C13.7743 11.798 13.3457 11.3478 12.3854 11.3478C11.3165 11.3478 10.7107 11.6971 10.4771 12.3368L10.0941 13.3884H11.1104L11.4932 12.3379ZM8.35672 11.9648C8.76757 11.9822 9.0987 12.1888 9.03971 12.4575C8.98311 12.7164 8.58261 12.8927 8.16708 12.8749C7.7561 12.8578 7.42534 12.6503 7.48381 12.3818C7.54092 12.1234 7.94111 11.9467 8.35672 11.9648ZM8.49996 11.3579C7.44093 11.313 6.49736 11.7657 6.37046 12.3446C6.24533 12.9142 6.96069 13.4367 8.02384 13.4816C9.08243 13.5267 10.0264 13.0741 10.1535 12.495C10.2783 11.9255 9.56287 11.4025 8.49996 11.3579Z" fill="white"/>
</svg>
