<svg width="24" height="24" viewBox="0 0 24 24" fill="none" xmlns="http://www.w3.org/2000/svg">
<path d="M1 13.9394L2.53966 13.747C2.53966 13.747 2.98838 12.7359 7.4055 10.8078C10.4962 9.45844 16.1998 8.90654 19.4397 9.11691C19.4397 9.11691 7.9599 7.80944 1 13.9394Z" fill="white"/>
<path d="M8.28032 10.7338C7.78638 10.2329 7.25542 10.0581 6.71246 9.84851C6.42095 9.73429 6.12254 9.6381 5.8218 9.5538C5.20219 9.38281 4.57535 9.24892 3.91033 9.21988C3.76258 9.21284 3.58125 9.21147 3.37744 9.23673C3.18872 9.28319 2.90316 9.26665 2.67313 9.64087C2.53497 10.0727 2.77433 10.2394 2.86141 10.3442C2.97994 10.4505 3.08955 10.4942 3.17319 10.4933C3.04445 10.3554 2.88534 10.2141 2.83795 10.0048C2.87936 10.0765 2.93902 10.1346 2.9942 10.1926C2.95231 10.1298 2.92006 10.0529 2.88926 9.98399C2.9172 10.0411 2.95671 10.0872 2.98782 10.0946C2.95161 10.0196 2.88305 9.9076 2.89366 9.82053C2.86691 9.76306 3.0122 9.55454 3.08528 9.55644C2.92846 9.64382 2.87232 9.88864 2.9799 9.9604C2.97163 9.91962 2.96692 9.87958 2.97889 9.84464C2.98377 9.89075 3.01708 9.97572 3.05254 9.98795C3.01805 9.89986 3.00322 9.83584 3.06508 9.77908C3.12039 9.73468 3.19774 9.71251 3.2791 9.681C3.17693 9.7173 3.06834 9.80108 3.0932 9.84666C3.11186 9.83997 3.1258 9.81811 3.15876 9.79729L3.15841 9.81291C3.16901 9.80398 3.19418 9.80174 3.21055 9.79417C3.21178 9.79694 3.21389 9.79932 3.21513 9.80156L3.21425 9.79879L3.22956 9.80068C3.31892 9.77917 3.43042 9.76077 3.53664 9.74216C3.76918 9.70775 3.96379 9.81943 4.19796 9.81322C4.49681 9.80737 4.77155 9.93572 5.0781 9.97184C5.64109 10.041 6.23483 10.1308 6.76244 10.3678C7.22964 10.5843 7.78316 10.8418 7.9644 11.1536C8.0788 11.285 7.42078 11.6135 6.9791 11.7442C6.40287 11.9334 5.72993 12.1858 5.15132 12.4781C4.72535 12.6878 3.83694 13.0801 3.5263 13.3769C3.99279 13.0758 4.52665 12.8478 5.0283 12.6527C4.00467 13.2129 2.82216 13.6934 2.02997 14.6462C3.64998 13.0133 5.8361 12.4793 7.73855 11.861C6.65829 12.3383 5.39174 12.7233 4.19295 13.3161C3.59538 13.6081 3.00326 13.9166 2.49699 14.3386C2.0371 14.8069 2.07345 14.8132 1.73433 15.282C1.63146 15.4219 1.54034 15.5931 1.47852 15.7235C2.05897 14.7858 2.50175 14.1563 3.71765 13.6102C4.89365 13.0107 6.14797 12.5856 7.27012 12.1701C7.52862 12.0681 7.78629 11.9649 8.04857 11.8047C8.17547 11.7147 8.32626 11.6263 8.43094 11.3963C8.539 11.1309 8.39191 10.85 8.28032 10.7338M6.2123 14.3476C6.02507 14.2139 5.81881 14.1093 5.60043 14.037L5.42373 13.9714C5.30202 13.93 5.17728 13.8954 5.05153 13.8706C4.9692 13.8536 4.83923 13.8278 4.75215 13.8466C4.6935 13.8392 4.63533 13.8331 4.60088 13.8337C4.6458 13.8381 4.69178 13.844 4.73741 13.8512C4.73354 13.8521 4.72949 13.8543 4.72579 13.8558C4.62398 13.8433 4.52141 13.8339 4.42034 13.8315C4.51921 13.8342 4.61779 13.8435 4.71541 13.8594C4.7147 13.8598 4.71369 13.8599 4.71272 13.8604C4.67537 13.8566 4.63876 13.8568 4.6069 13.864C4.44758 13.8449 4.29063 13.8403 4.14635 13.8556C4.29041 13.8414 4.4452 13.8471 4.60035 13.8661C4.57214 13.8735 4.54746 13.8866 4.53061 13.9077C4.56528 13.9218 4.60743 13.9207 4.63876 13.9379L4.633 13.9399C4.55723 13.9243 4.47833 13.9133 4.40323 13.9036C4.3128 13.8868 4.12769 13.8673 4.04805 13.8847C4.15484 13.8786 4.26195 13.8875 4.36622 13.9113C4.14213 13.8787 3.90259 13.8919 3.68219 13.9067C3.99486 13.8809 4.31712 13.898 4.60897 13.9704C4.60563 13.9721 4.60193 13.9736 4.59969 13.9761C4.6095 13.9808 4.62376 13.98 4.63704 13.9781C4.64598 13.9807 4.65482 13.9831 4.66362 13.9855C4.65654 13.9878 4.65064 13.991 4.64356 13.9938C4.62948 13.9905 4.61606 13.9878 4.60193 13.985C4.26137 13.911 3.87051 13.8801 3.54777 13.9436C3.7914 13.9026 4.06469 13.9109 4.32609 13.9475C4.32328 13.9477 4.32006 13.9477 4.31729 13.9486C4.33331 13.9493 4.34972 13.951 4.36521 13.9534C4.37027 13.9542 4.37467 13.9544 4.37929 13.9552C4.43227 13.9638 4.48476 13.979 4.53448 13.9926C4.37946 13.9678 4.21662 13.9457 4.06161 13.9448C4.27193 13.9503 4.48181 13.9898 4.67295 14.0586C4.66476 14.0604 4.65618 14.0607 4.6498 14.0652C4.65887 14.0716 4.67009 14.0726 4.6814 14.0738L4.67717 14.0786L4.69266 14.085L4.69213 14.0861C4.43279 14.0069 4.1324 13.9441 3.88679 13.9759L3.81886 13.9915C4.12343 13.9244 4.51125 14.0393 4.80768 14.1429C4.87711 14.1639 4.94513 14.1892 5.0136 14.2138C5.03019 14.2223 5.04717 14.2294 5.06649 14.2327C5.06719 14.2327 5.0679 14.233 5.06803 14.233C5.11863 14.2508 5.16954 14.2678 5.22115 14.2819L5.33141 14.3278C5.4052 14.3605 5.4859 14.3827 5.55727 14.4185C5.56585 14.4225 5.57562 14.4269 5.58574 14.4321C5.7114 14.5067 5.82796 14.5834 5.92771 14.689C6.00779 14.779 6.10472 14.8703 6.16602 14.942C6.23334 15.0102 6.2325 15.0778 6.25608 15.1162C6.26172 15.0685 6.2578 15.0207 6.22295 14.9341C6.35222 15.0682 6.289 15.2192 6.12294 15.3515C6.49461 15.1361 6.23994 14.8194 5.95569 14.4842C5.96256 14.4866 5.96876 14.4888 5.97549 14.4913C6.13891 14.6299 6.33713 14.8089 6.37273 15.0179C6.36036 15.0598 6.33696 15.1037 6.33357 15.1798C6.35222 15.129 6.36283 15.1213 6.37321 15.1134C6.35698 15.2027 6.30184 15.2777 6.22854 15.3408C6.22682 15.3413 6.22511 15.3429 6.22313 15.3434C6.19052 15.3591 6.15405 15.3798 6.12659 15.3987C6.15309 15.3838 6.18025 15.3702 6.20799 15.3578C6.12061 15.4277 6.01232 15.4831 5.91398 15.5276C5.87957 15.5436 5.84037 15.5648 5.80913 15.5823C5.96595 15.5118 6.13099 15.4449 6.25041 15.3382C6.43899 15.2543 6.6373 15.1756 6.65565 14.949C6.6689 14.6905 6.39803 14.4895 6.2123 14.3476" fill="white"/>
<path d="M10.5583 13.7699H11.4122C11.7594 13.7699 11.9478 13.6248 11.9478 13.2776C11.9478 12.9447 11.7594 12.7999 11.4122 12.7999H10.5583V13.7699ZM9.77934 12.2117H11.69C12.3252 12.2117 12.7275 12.6409 12.7275 13.1622C12.7275 13.5674 12.5585 13.8711 12.1664 14.0257V14.0352C12.5483 14.1315 12.6578 14.4935 12.6827 14.8409C12.6971 15.0574 12.6927 15.4635 12.8313 15.656H12.052C11.9577 15.4387 11.9678 15.1063 11.9282 14.8311C11.8736 14.4692 11.7297 14.3099 11.3377 14.3099H10.5583V15.656H9.7793V12.2117H9.77934ZM14.6377 14.4355C14.5187 14.5367 14.2702 14.5416 14.0523 14.5803C13.8338 14.6237 13.6355 14.6958 13.6355 14.9471C13.6355 15.2028 13.8386 15.2651 14.0672 15.2651C14.6179 15.2651 14.6377 14.8408 14.6377 14.6914V14.4355H14.6377ZM13.0101 13.9294C13.0495 13.2873 13.6401 13.0941 14.2159 13.0941C14.7272 13.0941 15.3428 13.2056 15.3428 13.8036V15.1015C15.3428 15.328 15.3674 15.555 15.4317 15.656H14.7172C14.6923 15.5787 14.6725 15.4967 14.6677 15.4149C14.444 15.6416 14.1165 15.7236 13.8038 15.7236C13.3177 15.7236 12.9304 15.487 12.9304 14.976C12.9304 14.4118 13.3674 14.2766 13.8038 14.2186C14.2358 14.156 14.6377 14.1702 14.6377 13.8907C14.6377 13.5963 14.4292 13.5529 14.1811 13.5529C13.9134 13.5529 13.7397 13.6589 13.7147 13.9294H13.0101V13.9294ZM15.6602 12.2117H16.3645V15.6559H15.6602V12.2117ZM16.6926 13.1622H17.3973V15.6559H16.6926V13.1622ZM17.3973 12.7762H16.6923V12.2117H17.3973V12.7762ZM17.7045 13.1622H18.3748V13.5094H18.3896C18.5683 13.2295 18.8758 13.0941 19.1737 13.0941C19.9232 13.0941 20.1121 13.5046 20.1121 14.122V15.6559H19.407V14.2476C19.407 13.8373 19.2828 13.635 18.9558 13.635C18.5735 13.635 18.4092 13.8423 18.4092 14.3484V15.6559H17.7045V13.1622ZM21.1692 14.0596L22.0572 13.1622H22.8911L21.9232 14.0787L23 15.6559H22.1463L21.442 14.5416L21.1692 14.7973V15.6559H20.4641V12.2117H21.1692V14.0596Z" fill="white"/>
</svg>
