<svg width="24" height="24" viewBox="0 0 24 24" fill="none" xmlns="http://www.w3.org/2000/svg">
<path d="M23.9848 9.89703C23.6584 8.02321 18.0283 7.43846 11.409 8.59088C8.6291 9.07511 6.11901 9.78933 4.16427 10.5928C4.46454 10.5994 4.68723 10.6683 4.82254 10.8032C4.92833 10.9091 4.98176 11.0545 4.98176 11.2356V11.4214H4.3327V11.2573C4.3327 11.1206 4.25069 11.0358 4.10546 11.0358C3.98342 11.0358 3.90823 11.0909 3.88397 11.1995C3.87583 11.2424 3.87673 11.2865 3.88659 11.329C3.95604 11.6129 4.91984 11.7892 5.02468 12.3132C5.03842 12.3806 5.05707 12.5249 5.02766 12.7313C4.96754 13.1538 4.59627 13.3169 4.12363 13.3169C3.46392 13.3169 3.19593 13.0044 3.19593 12.5736L3.19641 12.3698H3.89221L3.89257 12.6237C3.89257 12.7664 3.99633 12.8452 4.13762 12.8452C4.27149 12.8452 4.34967 12.7913 4.37668 12.6811C4.38923 12.6304 4.39473 12.5557 4.3719 12.4986C4.24316 12.1756 3.34319 12.0247 3.23239 11.5025C3.20764 11.3851 3.20561 11.2852 3.22617 11.1588C3.23672 11.0962 3.25612 11.0354 3.28379 10.9782C1.11556 11.9922 -0.152809 13.1079 0.0147772 14.0713C0.341463 15.9453 5.9715 16.5295 12.5907 15.3771C15.5004 14.8706 18.1163 14.1124 20.1071 13.2627C20.0783 13.2642 20.0503 13.2673 20.0204 13.2673C19.5674 13.2673 19.1629 13.0975 19.1209 12.6345C19.1135 12.5502 19.1122 12.5149 19.112 12.4669L19.1122 11.4023C19.1122 11.3564 19.1176 11.2758 19.1227 11.2342C19.1764 10.7867 19.5302 10.6022 20.0207 10.6022C20.4002 10.6022 20.8655 10.7111 20.9167 11.2346C20.9235 11.3004 20.9228 11.3705 20.9227 11.3936V11.4941H20.2671V11.3441C20.2671 11.3409 20.2662 11.2848 20.259 11.2498C20.2483 11.1964 20.2027 11.0725 20.016 11.0725C19.8316 11.0725 19.7837 11.1966 19.7718 11.2499C19.765 11.2792 19.7618 11.3213 19.7618 11.3679V12.5249C19.7612 12.565 19.7632 12.5965 19.7673 12.6195C19.7705 12.6377 19.8036 12.7972 20.0183 12.7972C20.2314 12.7972 20.2644 12.6377 20.2674 12.6195C20.273 12.5882 20.2737 12.5509 20.2735 12.5249V12.1664H20.0155V11.7803H20.9277V12.4671C20.9274 12.5139 20.9267 12.5484 20.9188 12.6345C20.9078 12.7559 20.8696 12.8587 20.8096 12.9466C22.9209 11.944 24.1502 10.8464 23.9848 9.89703ZM6.82115 13.218L6.48908 10.9617H6.47713L6.13658 13.218H5.43671L5.90743 10.6699H7.04934L7.51719 13.218H6.82115ZM10.1875 13.218L10.172 11.0053H10.1608L9.74901 13.218H9.09217L8.68241 11.0053H8.6707L8.65575 13.218H8.00489L8.06131 10.6699H9.10819L9.413 12.5627H9.42794L9.73359 10.6699H10.78L10.8362 13.218H10.1875ZM13.2524 12.7242C13.1824 13.2178 12.6989 13.3041 12.3571 13.3041C11.7897 13.3041 11.4387 13.0616 11.4387 12.568L11.4391 12.3667H12.1265L12.127 12.6175C12.127 12.7536 12.223 12.837 12.3712 12.837C12.5034 12.837 12.5809 12.7839 12.6078 12.6749C12.6202 12.6241 12.6253 12.55 12.6034 12.494C12.4767 12.1771 11.5837 12.0219 11.4752 11.5077C11.4503 11.3912 11.4485 11.2922 11.469 11.1672C11.5445 10.7011 11.9918 10.6043 12.3519 10.6043C12.6739 10.6043 12.9083 10.6746 13.0489 10.8152C13.1537 10.9201 13.2068 11.0642 13.2068 11.2433V11.4272H12.5639V11.265C12.5639 11.1261 12.4777 11.0457 12.3392 11.0457C12.2163 11.0457 12.142 11.1004 12.1176 11.2078C12.1097 11.2503 12.1107 11.2939 12.1207 11.336C12.1895 11.6186 13.1448 11.7913 13.2494 12.3103C13.2629 12.3765 13.2815 12.5186 13.2524 12.7242ZM15.6333 12.4927C15.6343 12.5405 15.6296 12.636 15.627 12.6605C15.5878 13.0803 15.2875 13.2937 14.7368 13.2937C14.184 13.2937 13.8834 13.0803 13.8445 12.6605C13.8401 12.6049 13.8379 12.549 13.8381 12.4932V10.6693H14.4958V12.5507C14.4951 12.5928 14.4972 12.6238 14.5014 12.6455C14.5096 12.6873 14.5512 12.8231 14.7368 12.8231C14.9218 12.8231 14.9634 12.6872 14.9722 12.6459C14.9759 12.6237 14.9781 12.5911 14.9781 12.5506V10.6693H15.6333V12.4927ZM18.4668 13.1921H17.5517L16.9374 11.1738H16.9271L16.9612 13.1921H16.3234V10.6699H17.2769L17.8447 12.6088H17.8579L17.8244 10.6699H18.4668V13.1921Z" fill="white"/>
</svg>
