<svg width="24" height="24" viewBox="0 0 24 24" fill="none" xmlns="http://www.w3.org/2000/svg">
<path d="M8.5501 14.2254C7.68071 14.2254 6.87368 13.9646 6.33499 13.4811C5.928 13.1158 5.73244 12.6196 5.73244 12.1089C5.73244 11.6045 5.93643 11.1049 6.33494 10.7415C6.83522 10.2855 7.71849 10 8.5501 10C9.47038 10 10.207 10.2318 10.77 10.7427C11.1707 11.1063 11.3643 11.6037 11.3643 12.109C11.3643 12.5988 11.1588 13.1204 10.77 13.4811C10.2457 13.9678 9.42171 14.2254 8.5501 14.2254V13.6681C9.01154 13.6681 9.43959 13.5087 9.73852 13.2113C10.0354 12.9159 10.1737 12.5528 10.1737 12.1089C10.1737 11.6838 10.0245 11.2863 9.73852 11.0044C9.44359 10.7139 9.00533 10.5504 8.5501 10.5504C8.09348 10.5504 7.65493 10.7122 7.35975 11.0044C7.07532 11.2862 6.92573 11.6849 6.92573 12.1089C6.92573 12.5317 7.07705 12.9301 7.35975 13.2113C7.65517 13.5052 8.09218 13.6681 8.5501 13.6681V14.2254V14.2254ZM2.19574 10.002C1.73069 10.002 1.20235 10.089 0.75344 10.2895C0.33913 10.4744 9.81907e-08 10.7733 9.81907e-08 11.269C-0.000192671 11.7154 0.283516 11.9769 0.275805 11.9696C0.396479 12.0807 0.590742 12.2699 1.09864 12.3809C1.32563 12.4306 1.81093 12.5068 2.2942 12.5573C2.77391 12.6079 3.246 12.656 3.43829 12.7047C3.59106 12.7436 3.84768 12.7966 3.84768 13.0845C3.84768 13.3712 3.57732 13.4587 3.53033 13.4777C3.48339 13.4963 3.15906 13.6451 2.57603 13.6451C2.14557 13.6451 1.62808 13.5156 1.43946 13.4482C1.22201 13.3708 0.99392 13.2684 0.78115 13.0085C0.728235 12.9441 0.644766 12.7669 0.644766 12.5914H0.117108V14.0699H0.703609V13.8702C0.703609 13.8474 0.732042 13.7539 0.830499 13.7984C0.953005 13.854 1.31262 13.9972 1.68861 14.0757C1.9969 14.1402 2.19569 14.1864 2.57897 14.1864C3.20431 14.1864 3.54026 14.0845 3.7725 14.0182C3.99129 13.9556 4.26165 13.8431 4.48127 13.668C4.6002 13.5733 4.86102 13.3305 4.86102 12.8899C4.86102 12.467 4.63404 12.2045 4.55418 12.1246C4.44541 12.0158 4.31254 11.9315 4.17409 11.8664C4.05346 11.8097 3.8631 11.7415 3.70734 11.7034C3.40503 11.6291 2.72147 11.5376 2.39458 11.5034C2.05179 11.4676 1.45715 11.4183 1.21965 11.3448C1.14765 11.3225 1.00086 11.2526 1.00086 11.0822C1.00086 10.961 1.06799 10.8582 1.20067 10.7752C1.41127 10.6432 1.83666 10.5612 2.28008 10.5612C2.80432 10.5593 3.24826 10.6791 3.53067 10.8054C3.62672 10.8483 3.7391 10.9099 3.82836 10.9827C3.92908 11.0649 4.07047 11.2355 4.12161 11.4735H4.59534V10.1865H4.06638V10.3361C4.06638 10.3844 4.0165 10.4471 3.92219 10.3953C3.68546 10.2711 3.01617 10.0031 2.19565 10.002M13.7876 10.2359L16.368 12.5646L16.3415 10.9967C16.3389 10.7911 16.301 10.7053 16.0786 10.7053H15.5935V10.2363H17.7997V10.7053H17.3265C17.0997 10.7053 17.0854 10.7778 17.0826 10.9967L17.1226 13.9925H16.3671L13.395 11.34L13.3957 13.2225C13.3983 13.4271 13.4078 13.5235 13.6187 13.5235H14.1486V13.9923H11.9818V13.5235H12.4883C12.6775 13.5235 12.67 13.3432 12.67 13.2118V11.0145C12.67 10.8727 12.6501 10.7056 12.3531 10.7056H11.9421V10.2359H13.7876ZM20.3208 13.5226C20.3415 13.5226 20.4336 13.52 20.4514 13.5145C20.4738 13.5077 20.4945 13.4962 20.5121 13.4806C20.5296 13.4651 20.5435 13.4459 20.5529 13.4244C20.5596 13.4085 20.563 13.3381 20.563 13.3229L20.5634 12.5817C20.5634 12.5638 20.5621 12.5561 20.5318 12.5164C20.4986 12.473 19.1803 10.9791 19.1199 10.9133C19.045 10.8316 18.9134 10.7053 18.7135 10.7053H18.2551V10.2361H20.8424V10.7048H20.5305C20.4583 10.7048 20.4104 10.7732 20.472 10.8492C20.472 10.8492 21.3425 11.8905 21.3508 11.9014C21.3589 11.9125 21.3658 11.9152 21.3769 11.905C21.3878 11.8947 22.2692 10.8588 22.2762 10.8506C22.3181 10.8004 22.2897 10.7053 22.1993 10.7053H21.8793V10.2361H23.9998V10.7053H23.5261C23.3542 10.7053 23.2843 10.7371 23.155 10.8833C23.0959 10.9502 21.7635 12.471 21.7272 12.5122C21.7083 12.5337 21.7099 12.5637 21.7099 12.5816V13.3227C21.7099 13.3377 21.7133 13.4082 21.72 13.424C21.7294 13.4455 21.7434 13.4647 21.7609 13.4803C21.7785 13.4958 21.7992 13.5074 21.8217 13.5141C21.8395 13.5196 21.9303 13.5223 21.951 13.5223H22.4356V13.9914H19.8616V13.5222L20.3209 13.5226H20.3208Z" fill="white"/>
</svg>
