<svg width="24" height="24" viewBox="0 0 24 24" fill="none" xmlns="http://www.w3.org/2000/svg">
<path d="M0 12.3071L0.83621 12.2289C0.887731 12.5097 0.99034 12.7164 1.14404 12.8489C1.29773 12.9815 1.50642 13.047 1.77011 13.0456C2.04754 13.0456 2.25681 12.9861 2.39878 12.8698C2.54076 12.7534 2.60892 12.6145 2.60892 12.459C2.61186 12.3646 2.58108 12.2723 2.52209 12.1985C2.46261 12.1291 2.35971 12.0661 2.21253 12.0162C2.11093 11.9775 1.88125 11.9159 1.5235 11.8247C1.06024 11.7114 0.738087 11.5694 0.551829 11.4023C0.427232 11.2953 0.327483 11.1624 0.259544 11.0128C0.191605 10.8633 0.157112 10.7008 0.158472 10.5365C0.157375 10.3185 0.221978 10.1052 0.343862 9.92436C0.473678 9.728 0.660052 9.5757 0.878324 9.48758C1.11017 9.39076 1.38934 9.33997 1.71974 9.33997C2.25493 9.33997 2.65827 9.4582 2.92977 9.69468C3.20069 9.93478 3.34223 10.2496 3.35569 10.6446L2.48996 10.6737C2.45175 10.4566 2.37491 10.299 2.25247 10.2018C2.13003 10.1045 1.94855 10.0568 1.70932 10.0568C1.45924 10.0568 1.263 10.108 1.12233 10.2131C1.07928 10.242 1.04417 10.2812 1.0202 10.3272C0.996235 10.3731 0.984176 10.4244 0.98513 10.4762C0.984943 10.5265 0.996407 10.5763 1.01863 10.6215C1.04085 10.6666 1.07322 10.7061 1.11321 10.7367C1.22088 10.8305 1.48573 10.9256 1.9047 11.0232C2.32367 11.1209 2.63367 11.2264 2.83382 11.3332C3.02814 11.4337 3.19132 11.5853 3.30576 11.7717C3.41821 11.9528 3.47683 12.1846 3.47683 12.4569C3.47679 12.7021 3.4056 12.9421 3.2719 13.1476C3.13379 13.3635 2.932 13.5312 2.69445 13.6274C2.44524 13.7294 2.13524 13.7841 1.76403 13.7841C1.22349 13.7841 0.808857 13.6578 0.517964 13.4051C0.22707 13.1524 0.056442 12.7868 0 12.3071Z" fill="white"/>
<path d="M3.36719 10.5943H4.23553L4.97709 12.802L5.69954 10.5943H6.54574L5.46032 13.5839L5.26103 14.1293C5.20754 14.2744 5.13885 14.4136 5.05611 14.5443C4.99702 14.636 4.92098 14.7156 4.83207 14.7788C4.73665 14.8414 4.63165 14.888 4.52121 14.9168C4.38449 14.9528 4.2436 14.9705 4.10224 14.9694C3.94608 14.9688 3.79045 14.9512 3.63811 14.9168L3.57038 14.2712C3.68444 14.2967 3.80085 14.3102 3.91771 14.3116C4.10658 14.3116 4.24725 14.256 4.33799 14.1445C4.43614 14.016 4.50732 13.8691 4.54726 13.7125L3.36719 10.5943ZM9.39172 13.7042H8.57461V12.1212C8.57461 11.7878 8.55768 11.5729 8.52164 11.4734C8.49006 11.3803 8.42913 11.2998 8.34798 11.2442C8.26288 11.1884 8.16274 11.1599 8.06099 11.1626C7.92324 11.1612 7.78843 11.2025 7.67501 11.2807C7.56434 11.3533 7.48166 11.4614 7.44056 11.5872C7.39715 11.7174 7.37717 11.9528 7.37717 12.301V13.7046H6.56354V10.5943H7.31899V11.0497C7.59078 10.7054 7.93204 10.5352 8.34407 10.5352C8.51522 10.5337 8.68496 10.5663 8.84336 10.6312C8.97688 10.6839 9.09445 10.7704 9.18462 10.8821C9.2616 10.9843 9.31645 11.1014 9.3457 11.226C9.38123 11.408 9.39667 11.5933 9.39172 11.7787V13.7042ZM9.39649 12.1164C9.39754 11.839 9.46704 11.5661 9.59882 11.3219C9.72661 11.074 9.92579 10.8702 10.1706 10.7367C10.4241 10.6008 10.708 10.5318 10.9955 10.5361C11.4668 10.5361 11.8519 10.6886 12.1509 10.9937C12.4499 11.2988 12.6004 11.6845 12.6024 12.1507C12.6024 12.621 12.45 13.0091 12.147 13.3195C11.8439 13.63 11.461 13.7845 11.0007 13.7845C10.7177 13.7843 10.4386 13.7179 10.1858 13.5905C9.9343 13.4684 9.72801 13.2697 9.59665 13.023C9.46379 12.7752 9.39707 12.473 9.39649 12.1164ZM10.2331 12.1599C10.2331 12.4703 10.3056 12.7074 10.4537 12.8684C10.521 12.9464 10.6044 13.0089 10.698 13.0517C10.7916 13.0946 10.8934 13.1167 10.9964 13.1167C11.0994 13.1167 11.2012 13.0946 11.2948 13.0517C11.3885 13.0089 11.4718 12.9464 11.5391 12.8684C11.6837 12.7074 11.7562 12.4673 11.7562 12.156C11.7562 11.8447 11.6837 11.6137 11.5391 11.4513C11.4715 11.3739 11.388 11.3118 11.2944 11.2693C11.2008 11.2268 11.0992 11.2048 10.9964 11.2048C10.8936 11.2048 10.792 11.2268 10.6984 11.2693C10.6048 11.3118 10.5213 11.3739 10.4537 11.4513C10.3061 11.6119 10.2331 11.8494 10.2331 12.1577V12.1599Z" fill="white"/>
<path d="M13.608 9V13.0148C13.608 13.2062 13.6223 13.333 13.6488 13.3938C13.674 13.4541 13.7189 13.5041 13.776 13.5358C13.8337 13.5679 13.941 13.5844 14.0955 13.5844V13.7047H12.612V13.5844C12.7509 13.5844 12.8456 13.5701 12.899 13.541C12.9524 13.5073 12.9937 13.4574 13.0166 13.3986C13.0457 13.333 13.0601 13.2054 13.0601 13.0165V10.2752C13.0601 9.93042 13.0531 9.71942 13.0383 9.63997C13.0329 9.57911 13.0071 9.52187 12.965 9.47759C12.9297 9.44788 12.8847 9.43239 12.8386 9.43417C12.7654 9.43956 12.6937 9.45778 12.6268 9.48801L12.5703 9.37035L13.4595 9H13.608ZM15.5683 10.5843C16.0285 10.5843 16.3966 10.758 16.6754 11.1053C16.909 11.3948 17.0343 11.7567 17.0297 12.1286C17.0269 12.4138 16.9603 12.6948 16.8347 12.9509C16.7253 13.2042 16.543 13.4192 16.3111 13.5686C16.0792 13.7181 15.8081 13.7952 15.5322 13.7902C15.0737 13.7902 14.7102 13.6087 14.4416 13.2457C14.2172 12.9489 14.0972 12.5862 14.1003 12.2142C14.1029 11.9267 14.1735 11.644 14.3066 11.3892C14.426 11.1374 14.6161 10.9258 14.8536 10.7801C15.0702 10.6526 15.3169 10.585 15.5683 10.5843ZM15.4667 10.807C15.342 10.808 15.22 10.8438 15.1145 10.9103C14.9964 10.9807 14.9005 11.1001 14.8276 11.272C14.7546 11.4439 14.7186 11.668 14.7186 11.9406C14.7186 12.3809 14.8076 12.7564 14.9817 13.0777C15.1558 13.399 15.3881 13.5553 15.6742 13.5553C15.777 13.5565 15.8786 13.5332 15.9705 13.4873C16.0625 13.4414 16.1422 13.3742 16.203 13.2913C16.3422 13.1153 16.4118 12.8129 16.4118 12.3839C16.4118 11.8468 16.2959 11.4287 16.0645 11.1187C15.9082 10.9103 15.7089 10.807 15.4671 10.807H15.4667Z" fill="white"/>
<path d="M17.6928 12.594C17.5432 12.5191 17.4141 12.4089 17.3165 12.273C17.219 12.1371 17.156 11.9795 17.1329 11.8139C17.1097 11.6482 17.1272 11.4794 17.1839 11.322C17.2405 11.1646 17.3345 11.0233 17.4579 10.9103C17.6833 10.6947 17.9728 10.5866 18.3262 10.586C18.5909 10.5785 18.8515 10.6514 19.0738 10.7952H19.7108C19.7663 10.7927 19.822 10.7956 19.8771 10.8039C19.89 10.8105 19.901 10.8202 19.9092 10.8321C19.9247 10.865 19.9316 10.9014 19.9292 10.9376C19.932 10.9785 19.9263 11.0195 19.9122 11.0579C19.9044 11.0708 19.8917 11.08 19.8771 11.0835C19.8219 11.093 19.7658 11.0962 19.7099 11.0931H19.3152C19.4403 11.2524 19.5019 11.456 19.5019 11.7035C19.5028 11.8403 19.4743 11.9757 19.4184 12.1005C19.3626 12.2254 19.2806 12.3368 19.178 12.4273C18.961 12.6279 18.6735 12.7312 18.3123 12.7312C18.1565 12.7311 18.0015 12.7071 17.853 12.66C17.7806 12.7222 17.7188 12.7958 17.6702 12.878C17.6407 12.9265 17.6231 12.9812 17.6185 13.0377C17.6194 13.0592 17.6249 13.0803 17.6344 13.0996C17.644 13.1189 17.6575 13.136 17.6741 13.1497C17.7093 13.184 17.7813 13.2101 17.8868 13.224C18.0399 13.2413 18.1938 13.2503 18.3479 13.2509C18.8003 13.2652 19.0942 13.2822 19.2267 13.3052C19.4109 13.3243 19.5836 13.404 19.7177 13.5318C19.7773 13.5905 19.8242 13.6608 19.8557 13.7383C19.8871 13.8158 19.9024 13.8989 19.9005 13.9825C19.9005 14.2278 19.7833 14.4601 19.5506 14.6771C19.2099 14.9955 18.7637 15.1547 18.212 15.1547C17.7887 15.1547 17.4305 15.0614 17.1388 14.8699C16.9738 14.7596 16.8926 14.6468 16.8926 14.5269C16.8933 14.4726 16.905 14.419 16.9269 14.3693C16.9896 14.249 17.0654 14.136 17.1531 14.0324C17.1678 14.0116 17.279 13.8935 17.483 13.6773C17.3942 13.627 17.3131 13.5639 17.2425 13.4901C17.1968 13.4397 17.1714 13.3741 17.1713 13.306C17.1772 13.209 17.209 13.1153 17.2634 13.0347C17.3259 12.9296 17.4692 12.7816 17.6928 12.594ZM17.6654 13.7042C17.5764 13.7982 17.4998 13.9033 17.4375 14.0168C17.3901 14.0956 17.3638 14.1853 17.361 14.2773C17.361 14.3854 17.4236 14.4761 17.5508 14.5547C17.7709 14.6893 18.0891 14.7592 18.506 14.7592C18.901 14.7592 19.1915 14.6893 19.3808 14.5504C19.5701 14.4114 19.663 14.2651 19.663 14.108C19.6642 14.055 19.6484 14.003 19.6181 13.9596C19.5877 13.9162 19.5443 13.8836 19.4941 13.8666C19.3791 13.8179 19.1529 13.7897 18.812 13.7828C18.314 13.7689 17.9307 13.7398 17.6654 13.7042ZM18.2689 10.7518C18.1905 10.7516 18.1131 10.7693 18.0425 10.8034C17.972 10.8376 17.9101 10.8873 17.8616 10.9489C17.7527 11.0792 17.6984 11.2715 17.6984 11.5394C17.6984 11.8847 17.7726 12.1527 17.9211 12.3435C17.971 12.4117 18.0364 12.4669 18.1119 12.5047C18.1874 12.5425 18.2709 12.5616 18.3553 12.5606C18.4334 12.5622 18.5109 12.5461 18.5819 12.5135C18.6529 12.4809 18.7155 12.4325 18.7651 12.3721C18.8724 12.2475 18.9254 12.053 18.9254 11.7878C18.9254 11.4404 18.8511 11.1673 18.7005 10.9711C18.6512 10.9027 18.5864 10.8471 18.5113 10.8089C18.4363 10.7707 18.3531 10.751 18.2689 10.7514V10.7518ZM20.0238 10.6728H21.4405V10.7939H21.3719C21.2921 10.7889 21.2129 10.8116 21.1479 10.8582C21.1246 10.8778 21.106 10.9023 21.0933 10.9299C21.0807 10.9575 21.0742 10.9876 21.0745 11.018C21.0745 11.1048 21.1097 11.2238 21.1835 11.3753L21.9216 12.9075L22.598 11.2333C22.6346 11.1473 22.6538 11.055 22.6544 10.9615C22.6558 10.9309 22.6476 10.9005 22.631 10.8747C22.6096 10.8478 22.5808 10.8279 22.5481 10.8174C22.484 10.7985 22.4172 10.7905 22.3505 10.7939V10.6728H23.33V10.7939C23.2639 10.7981 23.1994 10.8161 23.1407 10.8469C23.0834 10.8863 23.0341 10.936 22.9953 10.9937C22.9509 11.0752 22.913 11.1602 22.8819 11.2476L21.6545 14.2669C21.5347 14.5612 21.3784 14.7813 21.1843 14.9316C20.9903 15.0818 20.804 15.1547 20.6243 15.1547C20.5063 15.1603 20.3908 15.1202 20.3017 15.0427C20.2629 15.0118 20.2315 14.9727 20.2098 14.9281C20.188 14.8836 20.1764 14.8348 20.1758 14.7853C20.1742 14.7441 20.1816 14.7031 20.1973 14.665C20.213 14.627 20.2368 14.5927 20.2669 14.5647C20.3364 14.5044 20.427 14.4741 20.5188 14.4805C20.622 14.4872 20.7234 14.5111 20.8188 14.5512C20.8727 14.5732 20.9287 14.5898 20.9859 14.6007C21.0524 14.6007 21.1236 14.5647 21.203 14.497C21.2825 14.4292 21.3597 14.2977 21.4392 14.1036L21.6532 13.5761L20.5635 11.298C20.5174 11.2091 20.4646 11.1239 20.4054 11.0432C20.3667 10.9854 20.3211 10.9326 20.2695 10.886C20.1932 10.8425 20.1104 10.8114 20.0242 10.7939L20.0238 10.6728ZM23.3244 10.4718V9.86395H23.5905C23.6325 9.8621 23.6744 9.86875 23.7138 9.88349C23.7415 9.89367 23.7649 9.91296 23.7802 9.93819C23.7966 9.96595 23.8051 9.9976 23.805 10.0298C23.8058 10.0499 23.8023 10.07 23.7948 10.0887C23.7873 10.1074 23.776 10.1243 23.7616 10.1383C23.7275 10.1723 23.6823 10.1928 23.6344 10.1961C23.6516 10.2036 23.6677 10.2136 23.6821 10.2256C23.7077 10.2494 23.73 10.2764 23.7485 10.3059L23.854 10.4718H23.7546L23.6752 10.3459C23.6517 10.3116 23.6318 10.2821 23.6174 10.2629C23.6056 10.247 23.5921 10.2325 23.577 10.2195C23.5657 10.2132 23.5536 10.2086 23.541 10.2056C23.5267 10.2026 23.5122 10.2013 23.4976 10.2017H23.4064V10.4718H23.3244ZM23.4042 10.1344H23.5749C23.6044 10.1369 23.6341 10.1326 23.6617 10.1218C23.6803 10.1156 23.6958 10.1026 23.7051 10.0854C23.7162 10.069 23.722 10.0496 23.7216 10.0298C23.722 10.0166 23.7194 10.0035 23.714 9.99146C23.7086 9.97942 23.7005 9.96878 23.6904 9.96033C23.6625 9.93981 23.6281 9.9301 23.5935 9.93298H23.4021L23.4042 10.1344Z" fill="white"/>
</svg>
