<svg width="24" height="24" viewBox="0 0 24 24" fill="none" xmlns="http://www.w3.org/2000/svg">
<g clip-path="url(#clip0_2578_57485)">
<path d="M22.9634 13.5938H24L22.93 10.0638H21.4566L20.3866 13.5938H21.4232L21.6127 12.94H22.7739L22.9634 13.5938ZM21.8384 12.1547L22.1908 10.9355H22.1967L22.5491 12.1547H21.8384ZM5.1742 13.6566C6.23829 13.6566 6.75267 13.4691 6.82629 12.5091C6.84396 12.2803 6.84691 12.0457 6.84691 11.8288C6.84691 11.6118 6.84396 11.3772 6.82629 11.1485C6.75365 10.1875 6.23927 10 5.1742 10C4.10913 10 3.59573 10.1875 3.52309 11.1475C3.50542 11.3763 3.50149 11.6109 3.50149 11.8278C3.50149 12.0457 3.50542 12.2803 3.52309 12.5081C3.59573 13.4691 4.11011 13.6566 5.1742 13.6566ZM4.50472 11.8278C4.50472 11.6344 4.50963 11.5196 4.51356 11.4342C4.54104 10.8894 4.75602 10.8256 5.1742 10.8256C5.59238 10.8256 5.80735 10.8894 5.83484 11.4342C5.83877 11.5196 5.84368 11.6334 5.84368 11.8278C5.84368 12.0222 5.83877 12.137 5.83484 12.2214C5.80834 12.7662 5.59336 12.8301 5.1742 12.8301C4.75602 12.8301 4.54104 12.7662 4.51356 12.2214C4.50963 12.137 4.50472 12.0222 4.50472 11.8278ZM0 10.0648V10.9443H1.05526V13.5938H2.11052V10.9453H3.16577V10.0648H0ZM16.195 13.5938V10.0638H15.1938V13.5938H16.195ZM12.1654 11.3527V10.0638H11.169V13.5938H12.1654V12.2322H13.3228V13.5938H14.3181V10.0638H13.3228V11.3527H12.1654ZM19.4904 11.7483C19.9341 11.6344 20.0646 11.3694 20.0646 10.9865C20.0646 10.2111 19.5768 10.0628 18.8827 10.0628H17.0844V13.5928H18.9721C19.8408 13.5928 20.1333 13.2188 20.1333 12.6426C20.1324 12.2421 20.0401 11.8877 19.4904 11.7483ZM18.0788 12.1439H18.7698C19.0486 12.1439 19.1075 12.2666 19.1075 12.4649C19.1075 12.6642 18.9986 12.7869 18.7698 12.7869H18.0788V12.1439ZM18.0788 10.8707H18.7698C18.9505 10.8707 19.0614 10.9561 19.0614 11.1623C19.0614 11.339 18.9515 11.4469 18.7698 11.4469H18.0788V10.8707ZM7.42705 12.4354H8.37629C8.37728 12.6062 8.39887 12.7211 8.48231 12.7839C8.57655 12.8556 8.66097 12.8791 8.94172 12.8791C9.21167 12.8791 9.50714 12.8791 9.50714 12.5464C9.50714 12.2843 9.34222 12.2244 9.03693 12.2077C8.28009 12.1675 8.0072 12.1459 7.72547 11.9368C7.53307 11.7944 7.43392 11.5166 7.43392 11.1407C7.43392 10.5016 7.65676 10.2778 7.97873 10.1217C8.31052 9.96073 9.61315 9.96073 9.9636 10.1217C10.4044 10.3249 10.4171 10.7647 10.4171 11.1721H9.46984C9.46787 10.964 9.42075 10.9051 9.38345 10.8668C9.28529 10.7794 9.14491 10.7608 8.9427 10.7608C8.69827 10.7608 8.41458 10.7716 8.41458 11.069C8.41458 11.2958 8.51274 11.391 8.76993 11.4077C9.12332 11.4302 9.82028 11.4528 10.0686 11.5991C10.4171 11.8052 10.5074 12.084 10.5074 12.5385C10.5074 13.1962 10.2718 13.3886 9.94495 13.5329C9.56702 13.6998 8.30562 13.6998 7.89529 13.5201C7.43687 13.3199 7.42705 12.9213 7.42705 12.4354Z" fill="white"/>
</g>
<defs>
<clipPath id="clip0_2578_57485">
<rect width="24" height="24" fill="white"/>
</clipPath>
</defs>
</svg>
