<svg width="24" height="24" viewBox="0 0 24 24" fill="none" xmlns="http://www.w3.org/2000/svg">
<g clip-path="url(#clip0_2578_57487)">
<path fill-rule="evenodd" clip-rule="evenodd" d="M0.0152957 11H0V11V11.0153V11.4293H1.2151L1.21514 13.9631H2.43793V11.4293H3.63774V11H0.0152957V11ZM19.3119 13.963V11H20.5155V12.3148C20.5532 12.2798 20.6021 12.243 20.6571 12.2016L20.6571 12.2016L20.6571 12.2016C20.6805 12.184 20.705 12.1656 20.7302 12.1462L22.1945 11.0076H23.0455L21.378 12.3493L23.2793 13.9631H21.9606L20.5845 12.8246L20.5731 12.8165C20.5511 12.8009 20.5319 12.7873 20.5155 12.7709V13.963H19.3119ZM5.25918 13.9631H4.0594V11H6.919C7.58599 11 7.78532 11.4561 7.78532 11.8088V12.4643C7.78532 12.8054 7.48632 13.1505 6.9075 13.1505H5.25919L5.25918 13.9631ZM5.25918 12.7211H6.24433C6.24433 12.7211 6.57399 12.7135 6.57399 12.4375V11.7283C6.57399 11.7283 6.57399 11.437 6.24433 11.437L5.25918 11.4293V12.7211ZM8.18396 12.6866V12.2573H9.4221V12.6866H8.18396ZM10.5491 13.9631C10.0048 13.9631 9.74792 13.6066 9.74792 13.1581V11H10.9516V13.254C10.9516 13.4456 11.1164 13.5376 11.2889 13.5376H13.1365V13.9631H10.5491V13.9631ZM14.597 13.9631H13.3934V11H14.597V13.9631ZM15.5361 13.9631H15.0378V11C15.0378 11.0077 15.8275 11 15.8275 11C16.0268 11 16.2606 11.0997 16.3871 11.2223L18.3421 13.1927V11H18.8481V13.9631H17.9128C17.6943 13.9631 17.5563 13.8673 17.4106 13.7293L15.5361 11.8778V13.9631ZM23.8198 11.575H23.7584L23.7239 11.4638C23.7183 11.4497 23.7085 11.4376 23.6991 11.4261C23.6957 11.422 23.6925 11.418 23.6894 11.414C23.6664 11.4025 23.6473 11.3948 23.6243 11.3948H23.5208V11.575H23.4671V11.1533H23.6549C23.6894 11.1533 23.7162 11.1533 23.7354 11.161C23.7584 11.1687 23.7699 11.1802 23.7853 11.2032C23.8006 11.2223 23.8044 11.2415 23.8044 11.2722C23.8044 11.299 23.8006 11.3258 23.7776 11.345C23.7661 11.3604 23.7431 11.3757 23.7086 11.3795C23.7431 11.3948 23.7661 11.414 23.7776 11.4562L23.8198 11.575ZM23.5208 11.345H23.6473C23.6818 11.345 23.7087 11.3412 23.724 11.3258C23.7431 11.3182 23.7508 11.299 23.7508 11.2722C23.7508 11.2223 23.7163 11.1955 23.6588 11.1955H23.5208L23.5208 11.345ZM23.2451 11.3795C23.2451 11.1725 23.4138 11 23.6208 11C23.8354 11 24.0002 11.1725 24.0003 11.3795C24.0003 11.5904 23.8354 11.7628 23.6208 11.7628C23.4138 11.7628 23.2451 11.5903 23.2451 11.3795ZM23.3064 11.3795C23.3064 11.552 23.4483 11.6977 23.6208 11.6977C23.7933 11.6977 23.9389 11.552 23.9389 11.3795C23.9389 11.207 23.7933 11.069 23.6208 11.069C23.4483 11.069 23.3064 11.207 23.3064 11.3795Z" fill="white"/>
</g>
<defs>
<clipPath id="clip0_2578_57487">
<rect width="24" height="24" fill="white"/>
</clipPath>
</defs>
</svg>
