<svg width="24" height="24" viewBox="0 0 24 24" fill="none" xmlns="http://www.w3.org/2000/svg">
<path d="M10.3111 13.3842L9.25981 10.4568C9.24565 10.4179 9.22795 10.3612 9.22795 10.3152C9.22795 10.1878 9.33414 10.0674 9.4899 10.0674C9.62441 10.0674 9.7129 10.1559 9.75184 10.2798L10.6226 12.8002L11.5005 10.2727C11.5395 10.1524 11.6209 10.0674 11.7554 10.0674H11.7837C11.9253 10.0674 12.0103 10.1559 12.0527 10.2727L12.9235 12.7966L13.8085 10.2621C13.8439 10.1559 13.9147 10.0603 14.0563 10.0603C14.2049 10.0603 14.3111 10.1736 14.3111 10.301C14.3111 10.3471 14.2899 10.4002 14.2793 10.4426L13.2209 13.3736C13.1678 13.5258 13.0616 13.6072 12.9377 13.6072H12.9164C12.7819 13.6072 12.6828 13.5258 12.6333 13.3736L11.7695 10.8887L10.8987 13.3736C10.8527 13.5258 10.7501 13.6072 10.6191 13.6072H10.6049C10.4704 13.6179 10.3642 13.5364 10.3111 13.3842ZM17.9713 10.3187C17.9713 10.1772 18.0846 10.0568 18.2262 10.0568C18.3749 10.0568 18.4881 10.1701 18.4881 10.3187V10.9134C18.743 10.3364 19.3058 10.0639 19.681 10.0639C19.8368 10.0639 19.9359 10.1772 19.9359 10.3258C19.9359 10.4674 19.8403 10.5665 19.7058 10.5878C19.0368 10.6692 18.4846 11.1718 18.4846 12.1701V13.3453C18.4846 13.4869 18.3784 13.6072 18.2297 13.6072C18.081 13.6072 17.9678 13.494 17.9678 13.3453L17.9713 10.3187ZM21.5926 13.6391C20.658 13.6391 19.897 12.917 19.897 11.855V11.8409C19.897 10.8533 20.5872 10.0568 21.5253 10.0568C22.5306 10.0568 23.1041 10.8851 23.1041 11.7949C23.1041 11.9329 22.9908 12.0356 22.8669 12.0356H20.4102C20.481 12.7789 21.0014 13.1966 21.6067 13.1966C22.028 13.1966 22.3359 13.0303 22.5872 12.7966C22.6262 12.7648 22.6722 12.7364 22.7324 12.7364C22.8563 12.7364 22.9554 12.8356 22.9554 12.9559C22.9554 13.0161 22.9306 13.0763 22.8775 13.1223C22.5518 13.4303 22.1695 13.6391 21.5926 13.6391ZM22.5979 11.6533C22.5448 11.0303 22.1908 10.4851 21.5147 10.4851C20.9235 10.4851 20.4775 10.9807 20.4102 11.6533H22.5979ZM14.3076 12.5665V12.5524C14.3076 11.8232 14.9094 11.4373 15.7837 11.4373C16.2262 11.4373 16.5377 11.4975 16.8492 11.586V11.4657C16.8492 10.8426 16.4669 10.5241 15.8191 10.5241C15.4722 10.5241 15.2704 10.5701 15.0156 10.6833C14.9837 10.6975 14.9483 10.7046 14.9235 10.7046C14.8032 10.7046 14.697 10.6055 14.697 10.4851C14.697 10.3789 14.743 10.3117 14.8386 10.2692C15.1784 10.1205 15.4368 10.071 15.8757 10.071C16.3642 10.071 16.7395 10.1984 16.9908 10.4533C17.2244 10.6869 17.3448 11.0232 17.3448 11.4621V13.3701C17.3448 13.5152 17.2386 13.6249 17.097 13.6249C16.9518 13.6249 16.8527 13.5187 16.8527 13.3842V13.055C16.612 13.3701 16.2085 13.6497 15.6032 13.6497C14.9589 13.6426 14.3076 13.2745 14.3076 12.5665ZM16.8563 12.2975V11.9648C16.6014 11.8904 16.2616 11.8161 15.8403 11.8161C15.1926 11.8161 14.8315 12.0957 14.8315 12.5311V12.5453C14.8315 12.9807 15.2315 13.2356 15.7023 13.2356C16.3359 13.2356 16.8563 12.8462 16.8563 12.2975ZM0.944764 10.2904C0.831489 10.0426 0.551843 9.92937 0.289896 10.0462C0.0279494 10.163 -0.0676258 10.4533 0.0491884 10.701L1.14653 13.0869C1.31998 13.4621 1.50052 13.6568 1.84388 13.6568C2.20848 13.6568 2.36777 13.4444 2.54122 13.0869C2.54122 13.0869 3.49698 11.0019 3.5076 10.9807C3.51821 10.9595 3.54653 10.8922 3.64565 10.8922C3.72706 10.8922 3.79786 10.9595 3.79786 11.048V13.0869C3.79786 13.4019 3.97131 13.6603 4.3076 13.6603C4.64388 13.6603 4.82441 13.4019 4.82441 13.0869V11.4196C4.82441 11.0975 5.0545 10.8887 5.36954 10.8887C5.68459 10.8887 5.89344 11.1046 5.89344 11.4196V13.0869C5.89344 13.4019 6.06689 13.6603 6.40317 13.6603C6.73945 13.6603 6.91998 13.4019 6.91998 13.0869V11.4196C6.91998 11.0975 7.15007 10.8887 7.46512 10.8887C7.78016 10.8887 7.98901 11.1046 7.98901 11.4196V13.0869C7.98901 13.4019 8.16246 13.6603 8.49875 13.6603C8.83503 13.6603 9.01556 13.4019 9.01556 13.0869V11.1895C9.01556 10.4922 8.45627 10.0037 7.78016 10.0037C7.1076 10.0037 6.68282 10.471 6.68282 10.471C6.45981 10.1772 6.1483 10.0002 5.62441 10.0002C5.0722 10.0002 4.58724 10.4674 4.58724 10.4674C4.36423 10.1772 3.98193 10.0002 3.66335 10.0002C3.17485 10.0037 2.78547 10.2196 2.5483 10.7612L1.84742 12.4143L0.944764 10.2904ZM23.143 10.4851C23.143 10.248 23.3306 10.0533 23.5713 10.0533C23.812 10.0533 23.9996 10.2444 23.9996 10.478V10.4816C23.9996 10.7152 23.812 10.9134 23.5713 10.9134C23.3306 10.9134 23.143 10.7187 23.143 10.4851ZM23.9182 10.4816C23.9182 10.2869 23.7695 10.1311 23.5713 10.1311C23.3766 10.1311 23.2244 10.2904 23.2244 10.4816V10.4851C23.2244 10.6763 23.3731 10.8356 23.5713 10.8356C23.766 10.8356 23.9182 10.6727 23.9182 10.4816Z" fill="white"/>
<path d="M23.4078 10.3152C23.4078 10.2904 23.4291 10.2692 23.4539 10.2692H23.5954C23.6485 10.2692 23.691 10.2833 23.7158 10.3116C23.7406 10.3329 23.7512 10.3683 23.7512 10.4072C23.7512 10.4709 23.7193 10.5134 23.6698 10.5347L23.7335 10.6125C23.7406 10.6231 23.7477 10.6338 23.7477 10.6479C23.7477 10.6727 23.7264 10.6904 23.7052 10.6904C23.6839 10.6904 23.6698 10.6798 23.6592 10.6656L23.5707 10.5524H23.4963V10.6408C23.4963 10.6656 23.4751 10.6869 23.4503 10.6869C23.4255 10.6869 23.4043 10.6656 23.4043 10.6408L23.4078 10.3152ZM23.5919 10.4709C23.6379 10.4709 23.6592 10.4462 23.6592 10.4108C23.6592 10.3718 23.6344 10.3506 23.5884 10.3506H23.4963V10.4709H23.5919Z" fill="white"/>
</svg>
