<svg xmlns="http://www.w3.org/2000/svg" width="24" height="24" viewBox="0 0 24 24">
  <path fill="#7E00F1" fill-rule="evenodd" d="M16.2784747,4 C19.1307912,4 20.5569494,5.42615824 21.9831077,8.27847472 C23.4092659,11.1307912 24.8354242,15.4092659 23.4092659,18.2615824 C21.9831077,21.1138989 17.704633,21.1138989 16.2784747,19.6877406 C14.8523165,18.2615824 13.4261582,16.8354242 12,16.8354242 L11.8055239,16.84413 C10.444191,16.9650749 9.08285815,18.3264078 7.72152528,19.6877406 C6.29536704,21.1138989 2.01689232,21.1138989 0.590734085,18.2615824 C-0.835424155,15.4092659 0.590734085,11.1307912 2.01689232,8.27847472 C3.44305056,5.42615824 4.8692088,4 7.72152528,4 C10.475486,4 10.5704502,5.32949829 11.8573783,5.42118782 L12,5.42615824 C13.4261582,5.42615824 13.4261582,4 16.2784747,4 Z M6.29536704,8.3153956 C5.88115348,8.3153956 5.54536704,8.63465199 5.54536704,9.02847472 L5.54536704,9.02847472 L5.545,11.13 L3.44305056,11.1307912 C3.0820464,11.1307912 2.78369867,11.4129451 2.73648102,11.7790206 L2.72997144,11.8807912 C2.72997144,12.2950048 3.04922784,12.6307912 3.44305056,12.6307912 L3.44305056,12.6307912 L5.545,12.63 L5.54536704,14.7331077 C5.54536704,15.0941118 5.82752092,15.3924596 6.19359649,15.4396772 L6.29536704,15.4461868 C6.7095806,15.4461868 7.04536704,15.1269304 7.04536704,14.7331077 L7.04536704,14.7331077 L7.045,12.63 L9.14768352,12.6307912 C9.50868768,12.6307912 9.80703542,12.3486373 9.85425307,11.9825618 L9.86076264,11.8807912 C9.86076264,11.4665776 9.54150624,11.1307912 9.14768352,11.1307912 L9.14768352,11.1307912 L7.045,11.13 L7.04536704,9.02847472 C7.04536704,8.66747056 6.76321316,8.36912282 6.3971376,8.32190517 Z M16.9915538,12.5569494 L14.8523165,12.5569494 C14.4584938,12.5569494 14.1392374,12.8927359 14.1392374,13.3069494 C14.1392374,13.721163 14.4584938,14.0569494 14.8523165,14.0569494 L14.8523165,14.0569494 L16.9915538,14.0569494 C17.3853766,14.0569494 17.704633,13.721163 17.704633,13.3069494 C17.704633,12.8927359 17.3853766,12.5569494 16.9915538,12.5569494 L16.9915538,12.5569494 Z M17.704633,8.27847472 C16.9169875,8.27847472 16.2784747,8.91698751 16.2784747,9.70463296 C16.2784747,10.4922784 16.9169875,11.1307912 17.704633,11.1307912 C18.4922784,11.1307912 19.1307912,10.4922784 19.1307912,9.70463296 C19.1307912,8.91698751 18.4922784,8.27847472 17.704633,8.27847472 Z"/>
</svg>
