<svg width="440" height="240" viewBox="0 0 440 240" fill="none" xmlns="http://www.w3.org/2000/svg">
<path d="M208.5 237.027C323.652 237.027 417 205.397 417 166.38C417 127.362 323.652 95.7322 208.5 95.7322C93.3487 95.7322 0 127.362 0 166.38C0 205.397 93.3487 237.027 208.5 237.027Z" fill="#FEFEFE" fill-opacity="0.1"/>
<path d="M104.971 164.512L224.388 225.535L365.472 164.347" stroke="#99CAFF" stroke-width="7"/>
<path d="M120.008 144.093L232.491 199.428L325.155 157.821" stroke="#99CAFF" stroke-width="7"/>
<path d="M124 119L236.483 174.335L329.147 132.727" stroke="#99CAFF" stroke-width="7"/>
<path d="M100.739 88.4111L7.85007 142.076C6.15089 143.05 6.15089 144.654 7.85007 145.634L65.4071 178.881C72.9968 183.267 85.4122 183.267 93.0019 178.881L183.891 126.362C185.591 125.381 185.591 123.777 183.891 122.797L124.363 88.4111C117.884 84.6483 107.241 84.6483 100.739 88.4111Z" fill="black" fill-opacity="0.2"/>
<path d="M35.8939 85.6465C35.879 85.4925 35.8225 85.3455 35.7303 85.2212C35.6381 85.0969 35.5138 85 35.3707 84.941C34.9927 84.7503 34.5752 84.651 34.1518 84.651C33.7283 84.651 33.3108 84.7503 32.9328 84.941C32.7897 85 32.6654 85.0969 32.5732 85.2212C32.4811 85.3455 32.4245 85.4925 32.4097 85.6465V119.481C32.4245 119.635 32.4811 119.782 32.5732 119.906C32.6654 120.031 32.7897 120.128 32.9328 120.187C33.3108 120.377 33.7283 120.477 34.1518 120.477C34.5752 120.477 34.9927 120.377 35.3707 120.187C35.5138 120.128 35.6381 120.031 35.7303 119.906C35.8225 119.782 35.879 119.635 35.8939 119.481V85.6465Z" fill="#B3B3B3"/>
<path opacity="0.3" d="M32.9481 86.352C33.3261 86.5427 33.7436 86.642 34.167 86.642C34.5905 86.642 35.008 86.5427 35.386 86.352C35.535 86.3035 35.6648 86.2091 35.7568 86.0824C35.8489 85.9556 35.8985 85.8031 35.8985 85.6465C35.8985 85.4899 35.8489 85.3374 35.7568 85.2106C35.6648 85.0839 35.535 84.9895 35.386 84.941C35.008 84.7503 34.5905 84.651 34.167 84.651C33.7436 84.651 33.3261 84.7503 32.9481 84.941C32.7991 84.9895 32.6692 85.0839 32.5772 85.2106C32.4851 85.3374 32.4355 85.4899 32.4355 85.6465C32.4355 85.8031 32.4851 85.9556 32.5772 86.0824C32.6692 86.2091 32.7991 86.3035 32.9481 86.352Z" fill="#E1EEF7"/>
<path d="M34.9304 70.4747C34.9233 70.4081 34.8988 70.3446 34.8593 70.2904C34.8198 70.2363 34.7668 70.1935 34.7055 70.1664C34.5386 70.0815 34.3539 70.0372 34.1666 70.0372C33.9793 70.0372 33.7947 70.0815 33.6278 70.1664C33.5665 70.1935 33.5134 70.2363 33.474 70.2904C33.4345 70.3446 33.4099 70.4081 33.4028 70.4747V85.4165C33.4099 85.4831 33.4345 85.5467 33.474 85.6008C33.5134 85.6549 33.5665 85.6977 33.6278 85.7249C33.7947 85.8098 33.9793 85.854 34.1666 85.854C34.3539 85.854 34.5386 85.8098 34.7055 85.7249C34.7668 85.6977 34.8198 85.6549 34.8593 85.6008C34.8988 85.5467 34.9233 85.4831 34.9304 85.4165V70.4747Z" fill="#CCCCCC"/>
<path opacity="0.3" d="M33.6278 70.7883C33.7947 70.8732 33.9793 70.9175 34.1666 70.9175C34.3539 70.9175 34.5386 70.8732 34.7055 70.7883C34.7669 70.7599 34.8198 70.716 34.8593 70.6611C34.8987 70.6061 34.9232 70.5419 34.9304 70.4747C34.9233 70.4081 34.8988 70.3446 34.8593 70.2904C34.8198 70.2363 34.7668 70.1935 34.7055 70.1664C34.5386 70.0815 34.3539 70.0372 34.1666 70.0372C33.9793 70.0372 33.7947 70.0815 33.6278 70.1664C33.5665 70.1935 33.5134 70.2363 33.474 70.2904C33.4345 70.3446 33.4099 70.4081 33.4028 70.4747C33.4101 70.5419 33.4346 70.6061 33.474 70.6611C33.5134 70.716 33.5664 70.7599 33.6278 70.7883Z" fill="#E1EEF7"/>
<path d="M93.55 52.392C93.5346 52.2383 93.4778 52.0915 93.3857 51.9673C93.2936 51.8431 93.1696 51.7461 93.0268 51.6865C92.6479 51.4958 92.2296 51.3965 91.8053 51.3965C91.381 51.3965 90.9626 51.4958 90.5837 51.6865C90.4409 51.7461 90.3169 51.8431 90.2248 51.9673C90.1327 52.0915 90.076 52.2383 90.0605 52.392V86.2267C90.0758 86.3799 90.1325 86.5261 90.2247 86.6495C90.3169 86.7729 90.441 86.8688 90.5837 86.927C90.9619 87.1201 91.3805 87.2208 91.8053 87.2208C92.23 87.2208 92.6487 87.1201 93.0268 86.927C93.1695 86.8688 93.2937 86.7729 93.3858 86.6495C93.478 86.5261 93.5348 86.3799 93.55 86.2267V52.392Z" fill="#B3B3B3"/>
<path opacity="0.3" d="M90.6047 53.108C90.9829 53.3011 91.4016 53.4018 91.8263 53.4018C92.251 53.4018 92.6697 53.3011 93.0479 53.108C93.195 53.0582 93.3228 52.9637 93.4133 52.8376C93.5038 52.7115 93.5525 52.5602 93.5525 52.4051C93.5525 52.2499 93.5038 52.0986 93.4133 51.9725C93.3228 51.8465 93.195 51.7519 93.0479 51.7021C92.669 51.5114 92.2506 51.4121 91.8263 51.4121C91.402 51.4121 90.9837 51.5114 90.6047 51.7021C90.4576 51.7519 90.3298 51.8465 90.2393 51.9725C90.1488 52.0986 90.1001 52.2499 90.1001 52.4051C90.1001 52.5602 90.1488 52.7115 90.2393 52.8376C90.3298 52.9637 90.4576 53.0582 90.6047 53.108Z" fill="#E1EEF7"/>
<path d="M92.5873 37.2202C92.5813 37.1533 92.5572 37.0893 92.5176 37.035C92.4779 36.9806 92.4243 36.9381 92.3624 36.9119C92.1955 36.827 92.0108 36.7827 91.8235 36.7827C91.6362 36.7827 91.4516 36.827 91.2847 36.9119C91.224 36.9393 91.1718 36.9823 91.1332 37.0364C91.0946 37.0906 91.071 37.154 91.0649 37.2202V52.162C91.071 52.2282 91.0946 52.2916 91.1332 52.3458C91.1718 52.4 91.224 52.4429 91.2847 52.4704C91.4516 52.5553 91.6362 52.5995 91.8235 52.5995C92.0108 52.5995 92.1955 52.5553 92.3624 52.4704C92.4243 52.4441 92.4779 52.4016 92.5176 52.3473C92.5572 52.293 92.5813 52.229 92.5873 52.162V37.2202Z" fill="#CCCCCC"/>
<path opacity="0.3" d="M91.2847 37.5338C91.4523 37.6163 91.6366 37.6592 91.8235 37.6592C92.0104 37.6592 92.1947 37.6163 92.3624 37.5338C92.4244 37.5062 92.4779 37.4626 92.5174 37.4075C92.557 37.3524 92.5811 37.2877 92.5873 37.2202C92.5813 37.1533 92.5572 37.0893 92.5176 37.035C92.4779 36.9806 92.4243 36.9381 92.3624 36.9119C92.1955 36.827 92.0108 36.7827 91.8235 36.7827C91.6362 36.7827 91.4516 36.827 91.2847 36.9119C91.224 36.9393 91.1718 36.9823 91.1332 37.0364C91.0946 37.0906 91.071 37.154 91.0649 37.2202C91.0707 37.2872 91.094 37.3515 91.1326 37.4065C91.1712 37.4616 91.2236 37.5055 91.2847 37.5338Z" fill="#E1EEF7"/>
<path d="M67.738 176.766L18.7392 148.508C17.2537 147.538 16.1874 146.045 15.752 144.327L15.7206 144.154C15.596 143.327 15.714 142.482 16.0603 141.72C16.4066 140.959 16.9664 140.314 17.672 139.863L98.3739 93.35C104.008 90.0993 113.232 90.0993 118.871 93.35L170.664 123.218C171.367 123.672 171.931 124.312 172.293 125.066C172.655 125.821 172.801 126.661 172.714 127.493C172.345 129.223 171.307 130.737 169.827 131.705L91.6619 176.766C85.0806 180.56 74.314 180.56 67.738 176.766Z" fill="#666666"/>
<path opacity="0.15" d="M67.738 176.766L18.7392 148.508C17.2537 147.538 16.1874 146.045 15.752 144.327L15.7206 144.154C15.596 143.327 15.714 142.482 16.0603 141.72C16.4066 140.959 16.9664 140.314 17.672 139.863L98.3739 93.35C104.008 90.0993 113.232 90.0993 118.871 93.35L170.664 123.218C171.367 123.672 171.931 124.312 172.293 125.066C172.655 125.821 172.801 126.661 172.714 127.493C172.345 129.223 171.307 130.737 169.827 131.705L91.6619 176.766C85.0806 180.56 74.314 180.56 67.738 176.766Z" fill="black"/>
<path d="M98.457 81.7844L19.131 127.535C16.6564 128.962 14.6318 132.468 14.6318 135.322V138.196C14.6318 141.055 16.6564 144.562 19.131 145.989L67.6223 173.954C74.2088 177.754 84.9858 177.754 91.5775 173.954L169.172 129.192C171.652 127.765 173.676 124.258 173.676 121.404V118.525C173.676 115.671 171.652 112.164 169.172 110.738L118.975 81.7844C113.341 78.5284 104.102 78.5284 98.457 81.7844Z" fill="#4D4D4D"/>
<path opacity="0.4" d="M98.457 81.7844L19.131 127.535C16.6564 128.962 14.6318 132.468 14.6318 135.322V138.196C14.6318 141.055 16.6564 144.562 19.131 145.989L67.6223 173.954C74.2088 177.754 84.9858 177.754 91.5775 173.954L169.172 129.192C171.652 127.765 173.676 124.258 173.676 121.404V118.525C173.676 115.671 171.652 112.164 169.172 110.738L118.975 81.7844C113.341 78.5284 104.102 78.5284 98.457 81.7844Z" fill="#EDEDED"/>
<path d="M14.6844 131.559C15.1594 130.031 16.1772 128.73 17.546 127.901L98.3736 81.2825C104.008 78.0318 113.231 78.0318 118.871 81.2825L170.773 111.218C172.144 112.042 173.199 113.301 173.771 114.793C174.111 116.011 173.331 117.61 172.018 118.368L91.6615 164.714C85.0802 168.508 74.3136 168.508 67.7376 164.714L16.5625 135.212C15.2546 134.454 14.4123 132.824 14.6844 131.559Z" fill="#4D4D4D"/>
<path opacity="0.75" d="M14.6844 131.559C15.1594 130.031 16.1772 128.73 17.546 127.901L98.3736 81.2825C104.008 78.0318 113.231 78.0318 118.871 81.2825L170.773 111.218C172.144 112.042 173.199 113.301 173.771 114.793C174.111 116.011 173.331 117.61 172.018 118.368L91.6615 164.714C85.0802 168.508 74.3136 168.508 67.7376 164.714L16.5625 135.212C15.2546 134.454 14.4123 132.824 14.6844 131.559Z" fill="white"/>
<path d="M98.3736 81.2931L17.8442 127.739C16.3742 128.585 16.3742 129.97 17.8442 130.817L67.7376 159.593C74.3136 163.387 85.0802 163.387 91.6615 159.593L170.475 114.124C171.945 113.278 171.945 111.893 170.475 111.041L118.871 81.2827C113.231 78.0424 104.008 78.0424 98.3736 81.2931Z" fill="#666666"/>
<path opacity="0.6" d="M98.3736 81.2931L17.8442 127.739C16.3742 128.585 16.3742 129.97 17.8442 130.817L67.7376 159.593C74.3136 163.387 85.0802 163.387 91.6615 159.593L170.475 114.124C171.945 113.278 171.945 111.893 170.475 111.041L118.871 81.2827C113.231 78.0424 104.008 78.0424 98.3736 81.2931Z" fill="#DADADA"/>
<path d="M114.764 153.237C114.6 153.35 114.465 153.499 114.368 153.674C114.272 153.848 114.218 154.042 114.21 154.241V158.422C114.21 158.798 114.461 158.944 114.764 158.782C114.931 158.67 115.068 158.52 115.165 158.345C115.263 158.17 115.317 157.974 115.324 157.774V153.593C115.287 153.222 115.047 153.06 114.764 153.237ZM118.102 151.298C117.938 151.411 117.802 151.56 117.706 151.735C117.61 151.909 117.555 152.103 117.547 152.302V156.483C117.547 156.859 117.799 157.005 118.102 156.843C118.268 156.732 118.405 156.583 118.502 156.409C118.599 156.234 118.654 156.039 118.662 155.84V151.659C118.636 151.283 118.384 151.121 118.076 151.298H118.102ZM98.0808 162.927C97.9151 163.038 97.7781 163.187 97.6808 163.362C97.5836 163.536 97.5288 163.731 97.521 163.93V168.111C97.521 168.487 97.7669 168.634 98.0755 168.472C98.2405 168.36 98.3768 168.211 98.4731 168.036C98.5695 167.862 98.6233 167.667 98.6301 167.468V163.287C98.6092 162.911 98.3633 162.749 98.0546 162.927H98.0808ZM124.762 147.42C124.597 147.532 124.46 147.681 124.364 147.856C124.268 148.03 124.214 148.225 124.207 148.424V152.605C124.207 152.981 124.453 153.128 124.762 152.966C124.927 152.854 125.063 152.705 125.159 152.53C125.256 152.356 125.309 152.161 125.316 151.962V147.781C125.306 147.405 125.06 147.243 124.751 147.42H124.762ZM121.424 149.359C121.259 149.471 121.123 149.62 121.026 149.795C120.93 149.969 120.876 150.164 120.869 150.363V154.544C120.869 154.92 121.121 155.066 121.424 154.904C121.59 154.793 121.727 154.644 121.824 154.47C121.921 154.295 121.976 154.1 121.984 153.901V149.72C121.973 149.344 121.722 149.182 121.414 149.359H121.424ZM104.741 159.049C104.574 159.161 104.437 159.311 104.339 159.486C104.242 159.661 104.188 159.857 104.181 160.058V164.239C104.181 164.62 104.432 164.761 104.741 164.599C104.905 164.486 105.04 164.337 105.136 164.163C105.233 163.989 105.287 163.794 105.295 163.596V159.415C105.285 159.033 105.034 158.871 104.73 159.049H104.741ZM101.403 160.988C101.237 161.099 101.1 161.248 101.003 161.423C100.906 161.597 100.851 161.792 100.843 161.991V166.172C100.843 166.548 101.094 166.695 101.403 166.533C101.567 166.42 101.703 166.271 101.799 166.097C101.895 165.922 101.949 165.728 101.957 165.529V161.348C101.947 160.972 101.685 160.81 101.392 160.988H101.403ZM108.068 157.11C107.901 157.222 107.764 157.372 107.667 157.547C107.569 157.722 107.515 157.918 107.508 158.119V162.3C107.508 162.681 107.759 162.822 108.068 162.665C108.232 162.552 108.368 162.401 108.464 162.226C108.56 162.051 108.614 161.856 108.622 161.657V157.476C108.622 157.11 108.371 156.932 108.068 157.11ZM128.089 145.482C127.923 145.594 127.787 145.744 127.69 145.919C127.594 146.095 127.54 146.29 127.534 146.49V150.671C127.534 151.053 127.78 151.194 128.089 151.032C128.254 150.92 128.39 150.771 128.487 150.596C128.583 150.422 128.637 150.227 128.644 150.028V145.847C128.644 145.466 128.398 145.304 128.089 145.482ZM111.4 155.171C111.236 155.285 111.101 155.435 111.004 155.61C110.908 155.785 110.854 155.98 110.846 156.18V160.361C110.846 160.737 111.097 160.883 111.4 160.721C111.567 160.609 111.704 160.459 111.801 160.284C111.899 160.109 111.953 159.913 111.96 159.713V155.532C111.96 155.155 111.709 155.019 111.4 155.171ZM154.786 129.975C154.621 130.089 154.485 130.239 154.389 130.414C154.292 130.589 154.238 130.784 154.231 130.984V135.165C154.231 135.546 154.482 135.688 154.786 135.531C154.951 135.418 155.088 135.268 155.186 135.093C155.283 134.918 155.338 134.722 155.345 134.522V130.341C155.345 129.96 155.094 129.798 154.786 129.975ZM131.427 143.564C131.261 143.676 131.124 143.826 131.028 144.001C130.932 144.177 130.878 144.372 130.872 144.572V148.753C130.872 149.135 131.118 149.276 131.427 149.119C131.592 149.006 131.728 148.856 131.824 148.681C131.921 148.506 131.974 148.31 131.981 148.11V143.929C131.981 143.522 131.735 143.365 131.427 143.522V143.564ZM151.448 131.935C151.283 132.048 151.147 132.199 151.051 132.374C150.954 132.549 150.901 132.744 150.893 132.944V137.125C150.893 137.506 151.144 137.647 151.448 137.485C151.614 137.374 151.751 137.225 151.848 137.051C151.945 136.876 152 136.681 152.008 136.482V132.301C152.008 131.899 151.757 131.737 151.448 131.914V131.935ZM158.123 128.057C157.959 128.171 157.824 128.321 157.727 128.496C157.631 128.671 157.577 128.866 157.569 129.066V133.247C157.569 133.623 157.82 133.77 158.123 133.608C158.29 133.495 158.427 133.346 158.524 133.17C158.622 132.995 158.676 132.799 158.683 132.599V128.418C158.709 128.021 158.432 127.843 158.123 128.036V128.057ZM148.115 133.853C147.95 133.965 147.813 134.114 147.715 134.288C147.618 134.462 147.563 134.657 147.556 134.857V139.038C147.556 139.414 147.807 139.56 148.115 139.398C148.279 139.285 148.415 139.136 148.511 138.962C148.608 138.788 148.662 138.594 148.67 138.395V134.214C148.67 133.838 148.419 133.675 148.115 133.853ZM134.764 141.604C134.599 141.717 134.463 141.867 134.367 142.042C134.27 142.217 134.217 142.413 134.21 142.612V146.793C134.21 147.17 134.456 147.316 134.764 147.154C134.93 147.042 135.067 146.892 135.163 146.716C135.26 146.541 135.313 146.345 135.319 146.145V141.964C135.319 141.588 135.073 141.431 134.764 141.604ZM138.102 139.67C137.936 139.782 137.799 139.931 137.702 140.105C137.605 140.279 137.55 140.474 137.542 140.673V144.854C137.542 145.231 137.788 145.377 138.097 145.215C138.263 145.103 138.399 144.953 138.496 144.777C138.592 144.602 138.646 144.406 138.651 144.206V140.025C138.657 139.654 138.406 139.492 138.102 139.67ZM144.778 135.792C144.612 135.904 144.475 136.053 144.378 136.227C144.28 136.401 144.226 136.596 144.218 136.796V140.977C144.218 141.353 144.469 141.499 144.778 141.337C144.942 141.224 145.077 141.075 145.174 140.901C145.27 140.727 145.324 140.533 145.332 140.334V136.153C145.332 135.776 145.107 135.614 144.778 135.792ZM141.445 137.731C141.279 137.843 141.142 137.992 141.045 138.166C140.948 138.34 140.893 138.535 140.885 138.734V142.915C140.885 143.292 141.136 143.438 141.445 143.276C141.609 143.163 141.745 143.014 141.841 142.84C141.937 142.666 141.992 142.471 142 142.273V138.092C141.994 137.715 141.743 137.553 141.445 137.731Z" fill="#4D4D4D"/>
<path opacity="0.15" d="M121.414 149.36C121.249 149.471 121.112 149.62 121.016 149.795C120.92 149.969 120.866 150.164 120.859 150.363V154.544C120.859 154.92 121.11 155.067 121.414 154.905C121.579 154.793 121.716 154.644 121.813 154.47C121.911 154.295 121.965 154.101 121.973 153.901V149.72C121.973 149.344 121.722 149.182 121.414 149.36ZM114.764 153.237C114.6 153.35 114.465 153.499 114.368 153.674C114.272 153.848 114.218 154.042 114.21 154.241V158.422C114.21 158.798 114.461 158.944 114.764 158.782C114.931 158.67 115.068 158.521 115.165 158.345C115.263 158.17 115.317 157.974 115.324 157.774V153.593C115.287 153.222 115.047 153.06 114.764 153.237ZM118.102 151.298C117.938 151.411 117.802 151.561 117.706 151.735C117.61 151.909 117.555 152.103 117.547 152.302V156.483C117.547 156.859 117.799 157.005 118.102 156.843C118.268 156.732 118.405 156.583 118.502 156.409C118.599 156.234 118.654 156.039 118.662 155.84V151.659C118.636 151.283 118.384 151.121 118.076 151.298H118.102ZM98.0808 162.927C97.9151 163.038 97.7781 163.187 97.6808 163.362C97.5836 163.536 97.5288 163.731 97.521 163.93V168.111C97.521 168.488 97.7669 168.634 98.0755 168.472C98.2405 168.36 98.3768 168.211 98.4731 168.036C98.5695 167.862 98.6233 167.667 98.6301 167.468V163.287C98.6092 162.911 98.3633 162.749 98.0546 162.927H98.0808ZM124.762 147.421C124.597 147.532 124.46 147.682 124.364 147.856C124.268 148.03 124.214 148.225 124.207 148.424V152.605C124.207 152.981 124.453 153.128 124.762 152.966C124.927 152.854 125.063 152.705 125.159 152.53C125.256 152.356 125.309 152.161 125.316 151.962V147.781C125.306 147.405 125.06 147.243 124.751 147.421H124.762ZM128.099 145.482C127.934 145.594 127.797 145.744 127.701 145.919C127.604 146.095 127.551 146.29 127.545 146.49V150.671C127.545 151.053 127.791 151.194 128.099 151.032C128.264 150.92 128.401 150.771 128.497 150.597C128.593 150.422 128.647 150.228 128.654 150.028V145.847C128.644 145.466 128.398 145.304 128.089 145.482H128.099ZM104.741 159.07C104.574 159.182 104.437 159.332 104.339 159.507C104.242 159.682 104.188 159.878 104.181 160.078V164.259C104.181 164.641 104.432 164.782 104.741 164.62C104.905 164.507 105.04 164.358 105.136 164.184C105.233 164.01 105.287 163.815 105.295 163.617V159.436C105.285 159.033 105.034 158.871 104.73 159.049L104.741 159.07ZM108.068 157.11C107.901 157.222 107.764 157.372 107.667 157.547C107.569 157.723 107.515 157.918 107.508 158.119V162.3C107.508 162.681 107.759 162.822 108.068 162.665C108.232 162.552 108.368 162.401 108.464 162.226C108.56 162.051 108.614 161.856 108.622 161.657V157.476C108.622 157.11 108.371 156.932 108.068 157.11ZM111.4 155.171C111.236 155.285 111.101 155.435 111.004 155.61C110.908 155.785 110.854 155.98 110.846 156.18V160.361C110.846 160.737 111.097 160.883 111.4 160.721C111.567 160.609 111.704 160.459 111.801 160.284C111.899 160.109 111.953 159.913 111.96 159.713V155.532C111.96 155.155 111.709 155.02 111.4 155.171ZM101.392 160.988C101.227 161.099 101.09 161.248 100.992 161.423C100.895 161.597 100.84 161.792 100.833 161.991V166.172C100.833 166.549 101.084 166.695 101.392 166.533C101.556 166.42 101.692 166.271 101.788 166.097C101.885 165.922 101.939 165.728 101.947 165.529V161.348C101.947 160.972 101.685 160.81 101.392 160.988ZM154.786 129.975C154.621 130.089 154.485 130.239 154.389 130.414C154.292 130.589 154.238 130.784 154.231 130.984V135.165C154.231 135.547 154.482 135.688 154.786 135.531C154.951 135.418 155.088 135.268 155.186 135.093C155.283 134.918 155.338 134.722 155.345 134.522V130.341C155.345 129.96 155.094 129.798 154.786 129.975ZM151.448 131.914C151.283 132.028 151.147 132.178 151.051 132.353C150.954 132.528 150.901 132.723 150.893 132.923V137.104C150.893 137.485 151.144 137.627 151.448 137.465C151.614 137.353 151.751 137.204 151.848 137.03C151.945 136.855 152 136.661 152.008 136.461V132.28C152.008 131.899 151.757 131.737 151.448 131.914ZM158.123 128.036C157.959 128.15 157.824 128.301 157.727 128.476C157.631 128.651 157.577 128.846 157.569 129.045V133.226C157.569 133.602 157.82 133.749 158.123 133.587C158.29 133.475 158.427 133.325 158.524 133.15C158.622 132.974 158.676 132.778 158.683 132.578V128.397C158.709 128.021 158.432 127.843 158.123 128.036ZM148.115 133.853C147.95 133.965 147.813 134.114 147.715 134.288C147.618 134.462 147.563 134.657 147.556 134.857V139.038C147.556 139.414 147.807 139.56 148.115 139.398C148.279 139.286 148.415 139.136 148.511 138.962C148.608 138.788 148.662 138.594 148.67 138.395V134.214C148.67 133.838 148.419 133.676 148.115 133.853ZM131.427 143.522C131.261 143.634 131.124 143.784 131.028 143.959C130.932 144.135 130.878 144.33 130.872 144.53V148.711C130.872 149.093 131.118 149.234 131.427 149.077C131.592 148.964 131.728 148.814 131.824 148.639C131.921 148.464 131.974 148.268 131.981 148.069V143.888C131.981 143.522 131.735 143.365 131.427 143.522ZM138.102 139.649C137.936 139.761 137.799 139.91 137.702 140.084C137.605 140.258 137.55 140.453 137.542 140.653V144.834C137.542 145.21 137.788 145.356 138.097 145.194C138.263 145.082 138.399 144.932 138.496 144.757C138.592 144.581 138.646 144.385 138.651 144.186V140.005C138.657 139.654 138.406 139.492 138.102 139.67V139.649ZM144.778 135.771C144.612 135.883 144.475 136.032 144.378 136.206C144.28 136.381 144.226 136.575 144.218 136.775V140.956C144.218 141.332 144.469 141.478 144.778 141.316C144.942 141.204 145.077 141.054 145.174 140.88C145.27 140.706 145.324 140.512 145.332 140.313V136.132C145.332 135.777 145.107 135.615 144.778 135.792V135.771ZM134.764 141.583C134.599 141.696 134.463 141.846 134.367 142.021C134.27 142.196 134.217 142.392 134.21 142.592V146.773C134.21 147.149 134.456 147.295 134.764 147.133C134.93 147.021 135.067 146.871 135.163 146.695C135.26 146.52 135.313 146.324 135.319 146.124V141.943C135.319 141.588 135.073 141.431 134.764 141.604V141.583ZM141.445 137.731C141.279 137.843 141.142 137.992 141.045 138.166C140.948 138.34 140.893 138.535 140.885 138.735V142.916C140.885 143.292 141.136 143.438 141.445 143.276C141.609 143.163 141.745 143.014 141.841 142.84C141.937 142.666 141.992 142.472 142 142.273V138.092C141.994 137.715 141.743 137.553 141.445 137.731Z" fill="black"/>
<path opacity="0.3" d="M111.4 155.171C111.236 155.285 111.1 155.435 111.004 155.61C110.908 155.785 110.853 155.98 110.845 156.18V160.361C110.843 160.404 110.843 160.448 110.845 160.491L110.934 160.455C111.098 160.341 111.234 160.191 111.33 160.016C111.426 159.841 111.481 159.646 111.489 159.446V155.265C111.492 155.22 111.492 155.175 111.489 155.129L111.4 155.171ZM114.738 153.237C114.573 153.35 114.438 153.499 114.342 153.674C114.245 153.848 114.191 154.042 114.183 154.241V158.422C114.18 158.465 114.18 158.509 114.183 158.552L114.272 158.516C114.437 158.403 114.573 158.252 114.669 158.077C114.765 157.902 114.819 157.707 114.826 157.507V153.326C114.829 153.281 114.829 153.236 114.826 153.19C114.804 153.204 114.783 153.219 114.764 153.237H114.738ZM118.075 151.298C117.911 151.411 117.776 151.561 117.679 151.735C117.583 151.909 117.529 152.103 117.521 152.302V156.483C117.518 156.526 117.518 156.57 117.521 156.614L117.61 156.577C117.774 156.464 117.91 156.313 118.007 156.138C118.103 155.963 118.157 155.768 118.164 155.568V151.387C118.167 151.342 118.167 151.297 118.164 151.251C118.132 151.263 118.102 151.278 118.075 151.298ZM121.413 149.36C121.248 149.471 121.112 149.62 121.015 149.795C120.919 149.969 120.865 150.164 120.858 150.363V154.544C120.855 154.587 120.855 154.631 120.858 154.675L120.942 154.638C121.108 154.526 121.245 154.377 121.342 154.203C121.439 154.029 121.494 153.834 121.502 153.635V149.454C121.507 149.408 121.507 149.363 121.502 149.318L121.413 149.36ZM124.751 147.421C124.586 147.532 124.45 147.682 124.353 147.856C124.257 148.03 124.203 148.225 124.196 148.424V152.605C124.193 152.65 124.193 152.696 124.196 152.741L124.28 152.699C124.446 152.588 124.583 152.439 124.68 152.264C124.777 152.09 124.832 151.895 124.84 151.696V147.515C124.845 147.471 124.845 147.427 124.84 147.384L124.751 147.421ZM101.392 161.009C101.226 161.12 101.089 161.269 100.992 161.444C100.895 161.618 100.84 161.813 100.832 162.012V166.193C100.827 166.238 100.827 166.284 100.832 166.329L100.916 166.287C101.081 166.175 101.217 166.026 101.313 165.852C101.41 165.678 101.464 165.483 101.47 165.284V161.103C101.473 161.059 101.473 161.016 101.47 160.972L101.392 161.009ZM108.067 157.11C107.901 157.222 107.763 157.372 107.666 157.547C107.569 157.723 107.515 157.918 107.508 158.119V162.3C107.502 162.345 107.502 162.39 107.508 162.436L107.591 162.394C107.755 162.281 107.891 162.132 107.987 161.957C108.083 161.783 108.138 161.589 108.146 161.39V157.209C108.149 157.166 108.149 157.122 108.146 157.079L108.067 157.11ZM98.0541 162.927C97.8884 163.038 97.7514 163.187 97.6542 163.362C97.5569 163.536 97.5022 163.731 97.4943 163.93V168.111C97.4889 168.155 97.4889 168.198 97.4943 168.242L97.578 168.205C97.743 168.093 97.8793 167.944 97.9756 167.77C98.072 167.596 98.1258 167.401 98.1326 167.202V163.021C98.138 162.976 98.138 162.93 98.1326 162.885L98.0541 162.927ZM104.73 159.049C104.563 159.161 104.426 159.311 104.328 159.486C104.231 159.661 104.177 159.857 104.17 160.058V164.239C104.164 164.284 104.164 164.329 104.17 164.374C104.199 164.364 104.227 164.35 104.254 164.333C104.419 164.221 104.555 164.072 104.651 163.897C104.747 163.723 104.801 163.528 104.808 163.329V159.148C104.811 159.105 104.811 159.061 104.808 159.018L104.73 159.049ZM141.445 137.731C141.279 137.843 141.142 137.992 141.045 138.166C140.947 138.34 140.893 138.535 140.885 138.735V142.916C140.879 142.959 140.879 143.003 140.885 143.046L140.969 143.01C141.134 142.897 141.271 142.747 141.367 142.572C141.464 142.397 141.517 142.201 141.523 142.001V137.82C141.526 137.775 141.526 137.729 141.523 137.684L141.445 137.731ZM151.453 131.914C151.288 132.028 151.152 132.178 151.056 132.353C150.959 132.528 150.905 132.723 150.898 132.923V137.104C150.895 137.149 150.895 137.195 150.898 137.24C150.93 137.23 150.96 137.216 150.987 137.198C151.151 137.085 151.287 136.936 151.383 136.762C151.479 136.588 151.533 136.393 151.542 136.195V132.014C151.544 131.97 151.544 131.926 151.542 131.883L151.453 131.914ZM148.12 133.853C147.954 133.965 147.817 134.114 147.72 134.288C147.623 134.462 147.568 134.657 147.56 134.857V139.038C147.555 139.083 147.555 139.128 147.56 139.174L147.644 139.132C147.808 139.019 147.944 138.87 148.04 138.695C148.136 138.521 148.191 138.327 148.199 138.128V133.947C148.202 133.904 148.202 133.86 148.199 133.817L148.12 133.853ZM154.79 129.975C154.626 130.089 154.49 130.239 154.393 130.414C154.297 130.589 154.243 130.784 154.236 130.984V135.165C154.233 135.21 154.233 135.256 154.236 135.301L154.325 135.264C154.489 135.15 154.624 135 154.72 134.825C154.816 134.65 154.871 134.455 154.879 134.256V130.075C154.882 130.031 154.882 129.988 154.879 129.944L154.79 129.975ZM158.217 128L158.128 128.036C157.964 128.15 157.828 128.301 157.732 128.476C157.636 128.651 157.582 128.846 157.574 129.045V133.226C157.571 133.27 157.571 133.313 157.574 133.357L157.662 133.32C157.827 133.206 157.962 133.056 158.058 132.881C158.155 132.706 158.209 132.511 158.217 132.312V128.131C158.218 128.087 158.216 128.043 158.212 128H158.217ZM138.107 139.67C137.941 139.782 137.804 139.931 137.707 140.105C137.61 140.279 137.555 140.474 137.547 140.673V144.854C137.542 144.898 137.542 144.942 137.547 144.985L137.631 144.949C137.797 144.836 137.933 144.686 138.03 144.511C138.126 144.336 138.179 144.14 138.185 143.94V139.759C138.188 139.714 138.188 139.668 138.185 139.623C138.155 139.634 138.127 139.65 138.102 139.67H138.107ZM144.782 135.792C144.617 135.904 144.48 136.053 144.382 136.227C144.285 136.401 144.23 136.596 144.223 136.796V140.977C144.217 141.02 144.217 141.064 144.223 141.107L144.306 141.071C144.471 140.959 144.608 140.81 144.704 140.635C144.8 140.461 144.854 140.266 144.861 140.067V135.886C144.864 135.841 144.864 135.796 144.861 135.75L144.782 135.792ZM131.426 143.522C131.261 143.634 131.124 143.784 131.027 143.959C130.931 144.135 130.878 144.33 130.872 144.53V148.711C130.869 148.757 130.869 148.802 130.872 148.847C130.901 148.838 130.93 148.824 130.955 148.806C131.12 148.694 131.257 148.545 131.353 148.37C131.449 148.196 131.503 148.001 131.51 147.802V143.621C131.515 143.578 131.515 143.534 131.51 143.49L131.426 143.522ZM134.764 141.583C134.599 141.696 134.463 141.846 134.366 142.021C134.27 142.196 134.216 142.392 134.209 142.592V146.773C134.204 146.816 134.204 146.86 134.209 146.903L134.293 146.867C134.458 146.754 134.594 146.604 134.691 146.428C134.787 146.253 134.841 146.058 134.848 145.858V141.677C134.853 141.632 134.853 141.586 134.848 141.541L134.764 141.583ZM128.088 145.461C127.923 145.573 127.786 145.723 127.69 145.898C127.593 146.074 127.54 146.269 127.534 146.469V150.65C127.531 150.696 127.531 150.741 127.534 150.786C127.564 150.777 127.592 150.762 127.618 150.744C127.783 150.633 127.92 150.484 128.018 150.31C128.115 150.135 128.17 149.94 128.177 149.741V145.56C128.183 145.517 128.183 145.473 128.177 145.429L128.088 145.461Z" fill="black"/>
<path d="M86.5131 149.893L92.8956 153.577C93.6299 153.95 94.4419 154.144 95.2655 154.144C96.0891 154.144 96.9011 153.95 97.6354 153.577L150.741 122.946C152.054 122.188 152.054 120.965 150.741 120.208L144.364 116.549C143.628 116.178 142.815 115.985 141.991 115.985C141.167 115.985 140.354 116.178 139.619 116.549L86.5131 147.18C85.2105 147.912 85.2105 149.14 86.5131 149.893Z" fill="#37474F"/>
<path d="M150.747 120.877L144.369 117.218C143.635 116.845 142.822 116.65 141.997 116.65C141.172 116.65 140.359 116.845 139.624 117.218L86.5137 147.828C86.2679 147.867 86.0441 147.993 85.8826 148.182C85.7211 148.371 85.6323 148.612 85.6323 148.86C85.6323 149.109 85.7211 149.35 85.8826 149.539C86.0441 149.728 86.2679 149.853 86.5137 149.893L92.8962 153.577C93.6305 153.95 94.4425 154.144 95.2661 154.144C96.0897 154.144 96.9017 153.95 97.636 153.577L150.742 122.946C151.019 122.946 151.285 122.836 151.481 122.64C151.678 122.444 151.788 122.178 151.788 121.901C151.788 121.624 151.678 121.358 151.481 121.162C151.285 120.966 151.019 120.856 150.742 120.856L150.747 120.877Z" fill="#4D4D4D"/>
<path d="M96.401 149.887C96.4429 149.861 96.4376 149.819 96.401 149.793L94.8315 148.9C94.8045 148.887 94.775 148.88 94.7452 148.88C94.7154 148.88 94.6859 148.887 94.6589 148.9C94.6171 148.926 94.6223 148.973 94.6589 148.999L96.2022 149.893C96.2329 149.909 96.2674 149.917 96.3023 149.917C96.3372 149.916 96.3712 149.906 96.401 149.887ZM95.564 148.805C95.5012 148.805 95.475 148.853 95.5012 148.889C95.5202 148.911 95.5449 148.928 95.5725 148.937C95.6001 148.946 95.6297 148.948 95.6581 148.941C96.1974 148.866 96.7468 148.963 97.2276 149.218C97.8606 149.589 97.9339 150.149 97.3793 150.467C97.0371 150.622 96.6636 150.694 96.2885 150.678C95.9134 150.663 95.547 150.56 95.2187 150.379C94.7792 150.122 94.5961 149.772 94.7374 149.459C94.7374 149.427 94.7374 149.386 94.6537 149.37C94.6284 149.361 94.6009 149.36 94.5749 149.366C94.5488 149.373 94.5253 149.387 94.5072 149.407C94.3398 149.767 94.5543 150.175 95.0617 150.452C95.442 150.661 95.8658 150.78 96.2998 150.798C96.7337 150.816 97.166 150.734 97.5624 150.556C98.2007 150.185 98.1222 149.542 97.3845 149.114C96.8254 148.822 96.1882 148.714 95.564 148.805Z" fill="white"/>
<path d="M105.044 145.91L104.395 145.534C104.364 145.518 104.33 145.51 104.295 145.51C104.261 145.51 104.227 145.518 104.196 145.534L103.636 145.853L103.338 145.68L103.814 145.408C103.856 145.382 103.851 145.341 103.814 145.309C103.788 145.296 103.759 145.29 103.73 145.29C103.701 145.29 103.673 145.296 103.647 145.309L102.109 146.198L101.81 146.025L102.365 145.701C102.417 145.67 102.412 145.623 102.365 145.586L101.711 145.21C101.68 145.194 101.646 145.186 101.612 145.186C101.577 145.186 101.543 145.194 101.512 145.21L100.241 145.942C100.189 145.973 100.199 146.025 100.241 146.057L100.89 146.433C100.92 146.448 100.955 146.457 100.989 146.457C101.024 146.457 101.058 146.448 101.088 146.433L101.648 146.114L101.946 146.287L100.942 146.867L100.419 147.175C100.377 147.175 100.382 147.243 100.419 147.269C100.445 147.283 100.475 147.291 100.505 147.291C100.535 147.291 100.565 147.283 100.592 147.269L101.041 147.008L101.345 147.18L100.785 147.499C100.733 147.53 100.743 147.583 100.785 147.614L101.434 147.99C101.465 148.006 101.499 148.014 101.533 148.014C101.568 148.014 101.602 148.006 101.633 147.99L102.904 147.259C102.956 147.227 102.951 147.18 102.904 147.144L102.255 146.767C102.224 146.752 102.19 146.744 102.156 146.744C102.121 146.744 102.087 146.752 102.056 146.767L101.502 147.086L101.204 146.914L103.192 145.769L103.49 145.936L102.935 146.26C102.883 146.292 102.888 146.339 102.935 146.375L103.584 146.752C103.615 146.767 103.649 146.775 103.683 146.775C103.718 146.775 103.752 146.767 103.783 146.752L105.054 146.02C105.112 145.994 105.101 145.942 105.044 145.91Z" fill="white"/>
<path d="M110.51 141.363L109.391 141.494C109.297 141.494 109.276 141.572 109.349 141.619L109.705 141.823L107.026 143.365L106.702 142.806C106.696 142.796 106.692 142.785 106.691 142.773C106.69 142.761 106.691 142.749 106.695 142.738C106.699 142.727 106.706 142.717 106.714 142.709C106.722 142.701 106.732 142.695 106.744 142.691L107.267 142.398C107.398 142.455 107.54 142.484 107.683 142.484C107.826 142.484 107.967 142.455 108.099 142.398C108.339 142.257 108.313 142.011 108.031 141.876C107.888 141.795 107.728 141.75 107.565 141.743C107.401 141.735 107.238 141.767 107.089 141.834C106.874 141.959 106.874 142.168 107.089 142.325L106.566 142.618C106.543 142.627 106.523 142.641 106.506 142.659C106.489 142.677 106.476 142.698 106.468 142.722C106.46 142.745 106.457 142.769 106.46 142.794C106.462 142.818 106.47 142.842 106.482 142.863L106.848 143.501L106.325 143.809C106.192 143.751 106.049 143.721 105.904 143.721C105.759 143.721 105.616 143.751 105.483 143.809C105.242 143.945 105.274 144.191 105.551 144.332C105.694 144.411 105.854 144.456 106.017 144.462C106.181 144.468 106.344 144.436 106.492 144.368C106.707 144.248 106.707 144.039 106.492 143.882L107.607 143.24L108.716 143.454C108.858 143.486 109.008 143.469 109.14 143.407L109.663 143.098L109.93 143.25C109.962 143.267 109.998 143.275 110.034 143.275C110.071 143.275 110.106 143.267 110.139 143.25L110.741 142.9C110.798 142.869 110.788 142.816 110.741 142.78L110.039 142.377C110.008 142.362 109.973 142.354 109.937 142.354C109.902 142.354 109.867 142.362 109.835 142.377L109.229 142.722C109.176 142.754 109.182 142.811 109.229 142.842L109.474 142.989L108.951 143.297C108.887 143.319 108.817 143.319 108.753 143.297L107.779 143.109L109.872 141.902L110.223 142.106C110.301 142.147 110.416 142.137 110.437 142.106L110.667 141.463C110.699 141.431 110.604 141.353 110.51 141.363Z" fill="white"/>
<path d="M112.703 139.221C112.635 139.221 112.588 139.252 112.598 139.288C112.633 139.395 112.688 139.494 112.762 139.578C112.836 139.663 112.926 139.731 113.027 139.78C113.29 139.923 113.581 140.009 113.88 140.031C113.909 140.037 113.939 140.037 113.969 140.031C113.969 140.031 113.995 140.005 113.995 139.984C113.995 139.963 113.943 139.91 113.875 139.905C113.632 139.892 113.396 139.824 113.184 139.707C113.102 139.668 113.029 139.613 112.969 139.545C112.91 139.476 112.865 139.396 112.839 139.309C112.828 139.252 112.766 139.221 112.703 139.221ZM113.351 139.012C113.111 139.153 113.142 139.393 113.419 139.534C113.55 139.604 113.693 139.647 113.84 139.661C113.988 139.674 114.137 139.658 114.277 139.613L115.031 140.052C115.058 140.064 115.087 140.071 115.117 140.071C115.147 140.071 115.177 140.064 115.203 140.052C115.245 140.025 115.24 139.984 115.203 139.952L114.45 139.518C114.612 139.372 114.56 139.168 114.309 139.022C114.162 138.944 113.998 138.903 113.831 138.901C113.665 138.899 113.5 138.937 113.351 139.012ZM112.766 139.931C112.632 139.869 112.513 139.779 112.416 139.669C112.319 139.558 112.245 139.429 112.201 139.288C112.188 139.264 112.168 139.244 112.144 139.231C112.12 139.218 112.092 139.212 112.064 139.215C112.002 139.215 111.955 139.247 111.96 139.283C112.013 139.444 112.098 139.592 112.209 139.72C112.321 139.847 112.456 139.951 112.609 140.025C113.004 140.239 113.441 140.366 113.89 140.396C113.92 140.402 113.95 140.402 113.979 140.396C113.987 140.391 113.994 140.384 113.998 140.376C114.003 140.368 114.005 140.359 114.005 140.349C114.005 140.313 113.953 140.276 113.885 140.276C113.491 140.247 113.108 140.129 112.766 139.931ZM113.812 138.578C113.744 138.578 113.692 138.578 113.692 138.635C113.692 138.693 113.749 138.708 113.817 138.714C114.059 138.728 114.295 138.796 114.508 138.912C114.589 138.952 114.662 139.007 114.721 139.075C114.78 139.144 114.825 139.223 114.853 139.309C114.865 139.334 114.885 139.354 114.91 139.367C114.934 139.38 114.962 139.386 114.989 139.383C115.013 139.389 115.038 139.389 115.062 139.383C115.062 139.383 115.099 139.351 115.094 139.33C115.059 139.224 115.003 139.125 114.93 139.041C114.856 138.956 114.766 138.888 114.665 138.839C114.411 138.693 114.129 138.604 113.838 138.578H113.812ZM113.812 138.207C113.744 138.207 113.692 138.233 113.697 138.269C113.702 138.306 113.749 138.343 113.817 138.348C114.21 138.369 114.593 138.48 114.937 138.672C115.07 138.734 115.189 138.824 115.286 138.934C115.383 139.045 115.457 139.174 115.502 139.315C115.502 139.356 115.57 139.388 115.638 139.388C115.662 139.393 115.687 139.393 115.711 139.388C115.711 139.388 115.742 139.356 115.711 139.336C115.66 139.175 115.576 139.026 115.466 138.898C115.355 138.771 115.219 138.667 115.067 138.593C114.686 138.38 114.263 138.248 113.828 138.207H113.812Z" fill="white"/>
<path d="M121.612 135.426L120.974 135.505C120.775 135.505 120.665 135.641 120.738 135.761C120.811 135.881 120.702 136.001 120.503 136.022L119.566 136.132C119.476 136.148 119.383 136.14 119.297 136.109C119.21 136.078 119.134 136.024 119.075 135.954C119.015 135.886 118.939 135.834 118.854 135.804C118.769 135.774 118.677 135.766 118.588 135.782L117.95 135.855C117.746 135.855 117.641 135.996 117.709 136.116L117.777 136.231C117.788 136.254 117.804 136.273 117.824 136.289C117.988 136.415 118.176 136.508 118.376 136.562C118.576 136.616 118.785 136.63 118.991 136.602L121.513 136.304C121.941 136.257 122.219 136.043 122.193 135.782C122.195 135.761 122.195 135.74 122.193 135.719L122.125 135.604C122.064 135.53 121.984 135.475 121.893 135.444C121.803 135.412 121.705 135.406 121.612 135.426Z" fill="white"/>
<path d="M126.321 131.653L125.981 131.852L125.636 131.648C125.58 131.62 125.518 131.605 125.455 131.605C125.393 131.605 125.331 131.62 125.275 131.648L124.443 132.123C124.349 132.181 124.359 132.275 124.469 132.333L124.814 132.536L124.474 132.73C124.38 132.782 124.391 132.876 124.5 132.939L125.798 133.691C125.855 133.718 125.918 133.732 125.981 133.732C126.044 133.732 126.107 133.718 126.164 133.691L128.011 132.62C128.105 132.568 128.089 132.474 127.985 132.411L126.682 131.664C126.627 131.634 126.565 131.617 126.503 131.616C126.44 131.614 126.378 131.627 126.321 131.653ZM126.216 133.388C126.243 133.388 126.243 133.425 126.216 133.435L126.096 133.503C126.084 133.51 126.071 133.513 126.057 133.513C126.043 133.513 126.03 133.51 126.018 133.503L125.275 133.075C125.275 133.075 125.249 133.043 125.275 133.028L125.39 132.96C125.402 132.953 125.415 132.95 125.429 132.95C125.443 132.95 125.456 132.953 125.468 132.96L126.216 133.388ZM126.583 133.179C126.583 133.179 126.609 133.216 126.583 133.226L126.468 133.294C126.441 133.305 126.411 133.305 126.384 133.294L125.646 132.866C125.62 132.866 125.62 132.829 125.646 132.819L125.761 132.751C125.774 132.744 125.789 132.741 125.803 132.741C125.818 132.741 125.832 132.744 125.845 132.751L126.583 133.179ZM126.949 132.97C126.949 132.97 126.949 133.007 126.949 133.017L126.834 133.085C126.821 133.092 126.806 133.095 126.792 133.095C126.777 133.095 126.763 133.092 126.75 133.085L126.012 132.662C125.986 132.662 125.986 132.625 126.012 132.615L126.128 132.547C126.154 132.536 126.184 132.536 126.211 132.547L126.949 132.97ZM127.315 132.761V132.808L127.195 132.876C127.183 132.882 127.169 132.886 127.156 132.886C127.142 132.886 127.128 132.882 127.116 132.876L126.379 132.447C126.379 132.447 126.379 132.416 126.379 132.406L126.494 132.338C126.506 132.331 126.519 132.328 126.533 132.328C126.547 132.328 126.56 132.331 126.572 132.338L127.315 132.761ZM127.676 132.552C127.702 132.552 127.702 132.583 127.676 132.599L127.561 132.662C127.548 132.668 127.534 132.672 127.519 132.672C127.505 132.672 127.49 132.668 127.477 132.662L126.74 132.233V132.186L126.86 132.123C126.872 132.116 126.885 132.112 126.899 132.112C126.913 132.112 126.927 132.116 126.938 132.123L127.676 132.552Z" fill="white"/>
<path d="M138.41 124.634L137.421 125.209L137.212 124.686C137.197 124.664 137.175 124.646 137.15 124.635C137.125 124.624 137.098 124.62 137.071 124.624C137.003 124.624 136.966 124.66 136.982 124.702L137.186 125.225L136.307 125.11C136.244 125.11 136.181 125.11 136.176 125.157C136.171 125.204 136.223 125.235 136.286 125.24L137.17 125.361L136.181 125.93C136.134 125.956 136.139 126.003 136.181 126.03L137.913 127.028C137.94 127.042 137.969 127.049 137.999 127.049C138.029 127.049 138.059 127.042 138.086 127.028L140.314 125.742C140.356 125.716 140.351 125.674 140.314 125.643L138.577 124.645C138.552 124.63 138.524 124.622 138.495 124.62C138.466 124.618 138.437 124.623 138.41 124.634ZM140.063 125.679L137.971 126.876L136.401 125.983L138.494 124.786L140.063 125.679Z" fill="white"/>
<path d="M145.4 121.781C145.353 121.807 145.358 121.849 145.4 121.88L145.876 122.157L143.783 123.349L143.307 123.072C143.28 123.059 143.251 123.052 143.221 123.052C143.191 123.052 143.162 123.059 143.135 123.072C143.093 123.098 143.098 123.139 143.135 123.171L143.7 123.5C143.727 123.513 143.756 123.52 143.786 123.52C143.816 123.52 143.845 123.513 143.872 123.5L146.101 122.214C146.143 122.188 146.138 122.147 146.101 122.115L145.531 121.786C145.489 121.769 145.443 121.767 145.4 121.781ZM144.406 122.559C144.434 122.565 144.462 122.565 144.49 122.559C144.499 122.556 144.506 122.549 144.511 122.541C144.516 122.532 144.518 122.522 144.516 122.512L144.458 122.016C144.458 121.974 144.395 121.943 144.327 121.943C144.259 121.943 144.212 121.969 144.218 122.005L144.259 122.335L142.889 121.545C142.863 121.533 142.834 121.526 142.805 121.526C142.776 121.526 142.747 121.533 142.721 121.545C142.68 121.545 142.685 121.613 142.721 121.64L144.087 122.429H143.517C143.454 122.429 143.401 122.455 143.407 122.491C143.412 122.528 143.469 122.565 143.537 122.565L144.406 122.559Z" fill="white"/>
<path d="M132.593 128.423C132.449 128.351 132.299 128.295 132.143 128.256C131.992 128.218 131.837 128.201 131.682 128.204C131.531 128.209 131.38 128.23 131.232 128.266C131.083 128.308 130.939 128.368 130.803 128.444C130.705 128.5 130.618 128.575 130.547 128.664C130.489 128.737 130.454 128.826 130.448 128.92C130.45 129.016 130.479 129.11 130.531 129.191C130.606 129.297 130.702 129.387 130.814 129.453L130.908 129.51L131.044 129.594L131.185 129.672L131.29 129.73C131.437 129.801 131.591 129.855 131.75 129.892C131.903 129.924 132.06 129.938 132.216 129.934C132.364 129.934 132.512 129.915 132.655 129.876C132.788 129.847 132.915 129.797 133.032 129.73C133.114 129.683 133.191 129.629 133.262 129.568C133.313 129.523 133.359 129.472 133.398 129.416C133.45 129.334 133.472 129.236 133.461 129.139C133.461 129.139 133.461 129.113 133.435 129.103C133.411 129.095 133.386 129.095 133.362 129.103C133.34 129.096 133.316 129.096 133.294 129.103L133.184 129.165L133.152 129.197C133.154 129.211 133.154 129.225 133.152 129.238C133.155 129.268 133.155 129.298 133.152 129.327C133.139 129.359 133.119 129.387 133.095 129.411C133.066 129.443 133.034 129.473 133.001 129.5L132.839 129.604C132.751 129.653 132.658 129.691 132.561 129.719C132.337 129.769 132.105 129.769 131.881 129.719C131.756 129.692 131.635 129.65 131.52 129.594L131.41 129.542L131.28 129.468L131.159 129.395L131.065 129.333C130.98 129.277 130.905 129.206 130.845 129.124C130.806 129.063 130.785 128.992 130.788 128.92C130.794 128.85 130.821 128.785 130.866 128.732C130.92 128.666 130.986 128.611 131.06 128.57C131.262 128.451 131.49 128.385 131.724 128.376C131.97 128.376 132.212 128.435 132.431 128.549C132.506 128.583 132.579 128.621 132.65 128.664L132.776 128.742L132.833 128.784C132.848 128.799 132.861 128.817 132.87 128.836C132.874 128.844 132.876 128.853 132.876 128.862C132.876 128.871 132.874 128.88 132.87 128.888C132.86 128.912 132.841 128.931 132.818 128.941C132.768 128.967 132.711 128.978 132.655 128.972C132.592 128.965 132.531 128.944 132.478 128.909L131.881 128.57C131.857 128.562 131.832 128.562 131.808 128.57C131.786 128.564 131.762 128.564 131.74 128.57L131.661 128.611C131.657 128.617 131.655 128.625 131.655 128.632C131.655 128.64 131.657 128.647 131.661 128.653C131.661 128.653 131.661 128.679 131.693 128.695H131.719H131.505C131.434 128.702 131.366 128.725 131.306 128.763C131.252 128.79 131.208 128.834 131.18 128.888C131.17 128.91 131.165 128.935 131.165 128.959C131.165 128.983 131.17 129.007 131.18 129.029C131.206 129.085 131.244 129.135 131.29 129.176C131.349 129.232 131.416 129.28 131.489 129.317C131.565 129.363 131.646 129.401 131.729 129.432C131.812 129.462 131.898 129.483 131.986 129.495C132.067 129.505 132.15 129.505 132.232 129.495C132.309 129.484 132.383 129.459 132.451 129.421C132.493 129.398 132.532 129.37 132.567 129.338C132.588 129.32 132.604 129.296 132.614 129.27C132.621 129.25 132.621 129.227 132.614 129.207V129.15C132.678 129.16 132.743 129.16 132.807 129.15C132.885 129.138 132.96 129.112 133.027 129.071C133.069 129.049 133.106 129.019 133.137 128.982C133.161 128.953 133.173 128.916 133.173 128.878C133.171 128.834 133.154 128.792 133.126 128.758C133.086 128.707 133.036 128.665 132.98 128.632L132.922 128.601L132.839 128.549L132.729 128.486L132.593 128.423ZM132.321 129.139C132.357 129.191 132.321 129.244 132.242 129.291C132.202 129.314 132.157 129.326 132.111 129.327C132.011 129.339 131.909 129.32 131.818 129.275C131.772 129.26 131.728 129.239 131.688 129.212C131.648 129.192 131.611 129.168 131.578 129.139C131.548 129.115 131.521 129.087 131.499 129.056C131.489 129.027 131.489 128.996 131.499 128.967C131.504 128.95 131.513 128.935 131.525 128.922C131.537 128.91 131.551 128.9 131.567 128.894C131.607 128.869 131.652 128.853 131.698 128.847H131.834C131.885 128.857 131.934 128.872 131.981 128.894C132.034 128.913 132.084 128.937 132.132 128.967C132.207 129.01 132.271 129.069 132.321 129.139Z" fill="white"/>
<path d="M92.9694 147.05C93.4403 147.327 93.4926 147.739 93.0845 147.975C92.8311 148.09 92.5541 148.143 92.276 148.132C91.9979 148.12 91.7265 148.043 91.4837 147.907C91.0076 147.635 90.9605 147.222 91.3686 146.987C91.6216 146.871 91.8984 146.816 92.1765 146.827C92.4546 146.838 92.7262 146.914 92.9694 147.05Z" fill="#00C680"/>
<path d="M98.9382 143.611C99.409 143.882 99.4613 144.295 99.0533 144.53C98.8002 144.646 98.5235 144.701 98.2454 144.69C97.9673 144.679 97.6956 144.603 97.4524 144.468C96.9764 144.191 96.9293 143.778 97.3373 143.543C97.5908 143.428 97.8678 143.374 98.1459 143.386C98.424 143.398 98.6954 143.475 98.9382 143.611Z" fill="#00C680"/>
<path d="M104.902 140.167C105.378 140.438 105.425 140.851 105.017 141.092C104.764 141.205 104.487 141.259 104.209 141.247C103.931 141.235 103.66 141.159 103.416 141.024C102.946 140.752 102.893 140.339 103.301 140.099C103.555 139.985 103.832 139.932 104.11 139.944C104.388 139.955 104.659 140.032 104.902 140.167Z" fill="#263238"/>
<path d="M110.872 136.728C111.348 137.005 111.395 137.418 110.987 137.653C110.734 137.768 110.457 137.822 110.179 137.81C109.9 137.798 109.629 137.721 109.386 137.585C108.915 137.313 108.863 136.9 109.271 136.665C109.524 136.549 109.801 136.495 110.079 136.506C110.357 136.516 110.629 136.593 110.872 136.728Z" fill="#00C680"/>
<path d="M116.857 133.284C117.333 133.555 117.38 133.968 116.972 134.203C116.719 134.319 116.442 134.374 116.164 134.363C115.886 134.352 115.614 134.276 115.371 134.141C114.9 133.864 114.848 133.451 115.256 133.216C115.509 133.101 115.786 133.047 116.065 133.059C116.343 133.071 116.614 133.148 116.857 133.284Z" fill="#263238"/>
<path d="M122.81 129.84C123.287 130.111 123.334 130.524 122.926 130.765C122.672 130.878 122.395 130.931 122.117 130.92C121.839 130.908 121.568 130.832 121.325 130.697C120.854 130.425 120.802 130.007 121.21 129.772C121.463 129.658 121.74 129.605 122.018 129.617C122.296 129.628 122.567 129.705 122.81 129.84Z" fill="#00C680"/>
<path d="M128.78 126.396C129.256 126.667 129.303 127.085 128.895 127.321C128.641 127.434 128.364 127.487 128.086 127.476C127.808 127.464 127.537 127.387 127.294 127.253C126.823 126.981 126.771 126.568 127.179 126.328C127.433 126.214 127.709 126.161 127.987 126.173C128.265 126.184 128.537 126.261 128.78 126.396Z" fill="#00C680"/>
<path d="M134.748 122.951C135.225 123.228 135.272 123.641 134.864 123.876C134.61 123.991 134.333 124.045 134.055 124.033C133.777 124.022 133.505 123.945 133.263 123.808C132.792 123.537 132.74 123.124 133.148 122.889C133.401 122.773 133.677 122.718 133.956 122.729C134.234 122.74 134.505 122.816 134.748 122.951Z" fill="#263238"/>
<path d="M140.718 119.513C141.194 119.784 141.241 120.197 140.833 120.432C140.58 120.548 140.303 120.603 140.025 120.592C139.747 120.581 139.475 120.505 139.232 120.37C138.756 120.093 138.709 119.68 139.117 119.445C139.371 119.33 139.648 119.276 139.926 119.288C140.204 119.3 140.475 119.377 140.718 119.513Z" fill="#263238"/>
<path d="M438.752 181.429L325.902 116.319C324.962 115.847 323.924 115.6 322.871 115.6C321.818 115.6 320.78 115.847 319.84 116.319L264.744 148.106C262.482 149.41 262.477 151.546 264.744 152.849L376.86 217.523C377.689 217.942 378.605 218.16 379.534 218.16C380.463 218.16 381.379 217.942 382.208 217.523L438.762 184.908C440.414 183.947 440.414 182.371 438.752 181.429Z" fill="black" fill-opacity="0.2"/>
<path d="M327.722 111.598L434.297 173.05C437.04 174.631 437.006 176.425 437.006 178.036C437.006 179.646 436.281 181.881 434.297 183.026L383.478 212.355C382.364 212.92 381.133 213.214 379.883 213.214C378.634 213.214 377.403 212.92 376.289 212.355L269.715 150.903C267.73 149.758 267.279 147.84 267.279 146.229C267.279 144.618 267.73 142.066 269.715 140.921L320.519 111.598C321.598 110.92 322.846 110.561 324.121 110.561C325.395 110.561 326.643 110.92 327.722 111.598Z" fill="#4D4D4D"/>
<path d="M325.093 113.813L272.84 143.955L379.886 205.675V213.218C378.633 213.242 377.395 212.945 376.289 212.355L269.715 150.903C267.73 149.758 267.279 147.84 267.279 146.229C267.279 144.619 267.73 142.067 269.715 140.922L320.519 111.598C321.88 110.757 323.493 110.418 325.078 110.642V113.813H325.093Z" fill="#666666"/>
<path d="M433.375 173.491L326.969 112.133C326.083 111.685 325.105 111.451 324.112 111.451C323.119 111.451 322.14 111.685 321.254 112.133L271.645 140.743C269.512 141.972 269.512 143.989 271.645 145.203L377.357 206.16C378.139 206.555 379.003 206.76 379.879 206.76C380.756 206.76 381.62 206.555 382.402 206.16L433.365 176.767C434.948 175.885 434.948 174.398 433.375 173.491Z" fill="#B3B3B3"/>
<path d="M301.877 164.214C302.282 164.466 302.621 164.81 302.868 165.219C303.114 165.627 303.261 166.087 303.296 166.563C303.312 166.723 303.284 166.884 303.215 167.029C303.146 167.174 303.038 167.297 302.904 167.386C302.735 167.48 302.09 167.881 301.912 167.965C301.745 168.035 301.564 168.06 301.385 168.039C301.206 168.018 301.035 167.952 300.89 167.846L292.208 162.836C291.804 162.584 291.465 162.241 291.218 161.834C290.972 161.426 290.825 160.967 290.789 160.492C290.774 160.338 290.8 160.182 290.864 160.04C290.927 159.899 291.026 159.776 291.151 159.684C291.325 159.575 291.995 159.189 292.173 159.09C292.339 159.018 292.52 158.99 292.699 159.01C292.879 159.03 293.05 159.097 293.195 159.203L301.877 164.214Z" fill="#B3B3B3"/>
<path d="M300.889 164.759L292.207 159.754C291.424 159.303 290.789 159.625 290.789 160.472C290.824 160.947 290.971 161.406 291.217 161.814C291.464 162.221 291.803 162.564 292.207 162.816L300.889 167.827C301.673 168.278 302.308 167.96 302.308 167.113C302.274 166.637 302.128 166.175 301.881 165.766C301.634 165.357 301.294 165.012 300.889 164.759Z" fill="#4D4D4D"/>
<path d="M286.681 155.422C287.085 155.676 287.423 156.02 287.669 156.428C287.914 156.836 288.06 157.296 288.095 157.771C288.112 157.931 288.084 158.092 288.015 158.237C287.945 158.383 287.838 158.506 287.703 158.594L286.711 159.174C286.545 159.245 286.364 159.271 286.184 159.25C286.005 159.229 285.834 159.162 285.689 159.055L277.003 154.049C276.599 153.796 276.261 153.452 276.015 153.044C275.769 152.635 275.623 152.175 275.589 151.7C275.574 151.546 275.598 151.391 275.661 151.25C275.724 151.108 275.822 150.985 275.946 150.893C276.12 150.784 276.789 150.397 276.968 150.298C277.133 150.226 277.315 150.199 277.494 150.219C277.673 150.239 277.844 150.305 277.99 150.412L286.681 155.422Z" fill="#B3B3B3"/>
<path d="M285.694 155.992L277.007 150.982C276.223 150.531 275.593 150.853 275.593 151.7C275.628 152.175 275.774 152.636 276.019 153.044C276.265 153.452 276.603 153.796 277.007 154.05L285.694 159.055C286.472 159.506 287.107 159.189 287.107 158.341C287.073 157.866 286.926 157.406 286.681 156.998C286.435 156.59 286.097 156.246 285.694 155.992Z" fill="#4D4D4D"/>
<path d="M329.32 115.731L428.488 172.931C429.976 173.799 429.976 175.211 428.488 176.078L382.386 202.671C381.541 203.102 380.606 203.326 379.658 203.326C378.709 203.326 377.774 203.102 376.929 202.671L277.042 145.055C275.822 144.351 275.583 143.29 276.352 142.453L276.536 142.26C276.691 142.13 276.857 142.013 277.032 141.913L290.01 134.429L290.853 133.934C291.115 133.799 291.405 133.729 291.699 133.729C291.993 133.729 292.283 133.799 292.545 133.934C292.818 134.065 293.119 134.13 293.422 134.124C293.725 134.118 294.023 134.041 294.291 133.899L309.407 125.182C309.903 124.894 309.933 124.443 309.471 124.191C309.01 123.938 308.975 123.536 309.382 123.264L309.466 123.209L322.151 115.894L322.419 115.736C323.489 115.197 324.671 114.916 325.869 114.916C327.067 114.915 328.249 115.194 329.32 115.731Z" fill="black"/>
<path d="M292.545 135.881C292.283 135.747 291.993 135.677 291.699 135.677C291.405 135.677 291.115 135.747 290.853 135.881L290.01 136.377L277.037 143.845C276.863 143.95 276.697 144.067 276.541 144.197L276.367 144.391L276.318 144.46C276.527 144.702 276.777 144.905 277.057 145.06L376.94 202.671C377.785 203.102 378.72 203.326 379.668 203.326C380.616 203.326 381.551 203.102 382.397 202.671L428.503 176.078C428.782 175.92 429.032 175.716 429.242 175.474C429.033 175.229 428.781 175.024 428.498 174.869L329.32 117.669C328.25 117.13 327.068 116.849 325.87 116.849C324.671 116.849 323.49 117.13 322.419 117.669L322.151 117.827L309.799 124.949V126.594C309.786 126.71 309.743 126.82 309.674 126.914C309.605 127.008 309.513 127.082 309.407 127.129L294.291 135.847C294.023 135.989 293.726 136.066 293.422 136.072C293.119 136.078 292.818 136.013 292.545 135.881Z" fill="#4D4D4D"/>
<path d="M293.73 130.945L300.675 126.951C300.898 126.832 301.146 126.767 301.399 126.762C301.651 126.757 301.901 126.811 302.129 126.921C302.516 127.144 302.496 127.521 302.079 127.759L295.134 131.753C294.911 131.871 294.663 131.935 294.411 131.94C294.158 131.946 293.908 131.892 293.681 131.783C293.308 131.56 293.328 131.183 293.73 130.945Z" fill="#4D4D4D"/>
<path d="M303.945 124.736C304.206 124.601 304.495 124.531 304.788 124.531C305.082 124.531 305.371 124.601 305.632 124.736C305.763 124.736 305.889 124.788 305.982 124.881C306.075 124.974 306.128 125.1 306.128 125.231C306.128 125.363 306.075 125.489 305.982 125.582C305.889 125.675 305.763 125.727 305.632 125.727C305.37 125.859 305.081 125.928 304.788 125.928C304.495 125.928 304.206 125.859 303.945 125.727C303.813 125.727 303.687 125.675 303.594 125.582C303.501 125.489 303.449 125.363 303.449 125.231C303.449 125.1 303.501 124.974 303.594 124.881C303.687 124.788 303.813 124.736 303.945 124.736Z" fill="#4D4D4D"/>
<g opacity="0.6">
<path d="M352.763 180.26C344.662 180.26 336.981 178.402 331.129 175.035C324.545 171.234 320.919 165.924 320.919 160.086C320.919 154.247 324.545 148.937 331.137 145.144C336.981 141.77 344.662 139.912 352.763 139.912C360.864 139.912 368.553 141.77 374.398 145.144C380.981 148.937 384.615 154.247 384.615 160.086C384.615 165.924 380.989 171.226 374.398 175.035C368.553 178.402 360.864 180.26 352.763 180.26ZM352.763 140.689C344.794 140.689 337.254 142.508 331.526 145.812C325.184 149.466 321.697 154.535 321.697 160.086C321.697 165.636 325.184 170.705 331.518 174.359C337.254 177.663 344.794 179.482 352.763 179.482C360.732 179.482 368.281 177.663 374.008 174.359C380.343 170.705 383.837 165.636 383.837 160.086C383.837 154.535 380.343 149.458 374.008 145.812C368.281 142.508 360.732 140.689 352.763 140.689Z" fill="#00DB90"/>
</g>
<g opacity="0.3">
<path d="M352.764 175.984C367.987 175.984 380.328 168.866 380.328 160.086C380.328 151.305 367.987 144.187 352.764 144.187C337.541 144.187 325.2 151.305 325.2 160.086C325.2 168.866 337.541 175.984 352.764 175.984Z" fill="black"/>
</g>
<g opacity="0.15">
<path d="M371.174 139.876L358.171 132.373L346.667 185.212L359.674 192.715L371.174 139.876Z" fill="white"/>
<path d="M334.836 178.388L346.316 125.558L329.3 115.741C328.23 115.203 327.048 114.923 325.85 114.923C324.651 114.923 323.47 115.203 322.399 115.741L322.132 115.899L314.487 120.305L305.522 161.503L334.836 178.388Z" fill="white"/>
</g>
<path d="M336.915 169.24C336.906 159.267 347.904 150.145 361.559 148.8" stroke="white" stroke-width="2" stroke-linecap="round" stroke-linejoin="round"/>
<path d="M348.125 167.391C348.12 162.479 353.619 157.918 360.344 157.255" stroke="white" stroke-width="2" stroke-linecap="round" stroke-linejoin="round"/>
<path fill-rule="evenodd" clip-rule="evenodd" d="M364.224 165.805C364.225 167.285 362.584 168.646 360.558 168.846C358.532 169.045 356.889 168.007 356.887 166.528C356.886 165.048 358.527 163.687 360.553 163.487C362.579 163.288 364.223 164.325 364.224 165.805Z" fill="white"/>
<g filter="url(#filter0_f_571_24271)">
<ellipse cx="194.925" cy="181.228" rx="9.00988" ry="3.46534" fill="black" fill-opacity="0.3"/>
</g>
<g filter="url(#filter1_f_571_24271)">
<ellipse cx="178.925" cy="147.228" rx="9.00988" ry="3.46534" fill="black" fill-opacity="0.3"/>
</g>
<circle cx="19.1178" cy="19.1178" r="17.8678" transform="matrix(0.859406 -0.511293 0 1 177.422 98.5496)" fill="black" fill-opacity="0.8" stroke="white" stroke-width="2.5" stroke-linecap="round" stroke-linejoin="round"/>
<path d="M161.205 131.551C166.046 123.046 172.149 116.189 178.437 111.617" stroke="white" stroke-width="2.5" stroke-linecap="round" stroke-linejoin="round"/>
<path d="M171.38 135.359C173.806 131.099 176.899 127.662 180.082 125.394" stroke="white" stroke-width="2.5" stroke-linecap="round" stroke-linejoin="round"/>
<path fill-rule="evenodd" clip-rule="evenodd" d="M184.778 142.969C183.092 145.931 180.358 147.556 178.673 146.599C176.987 145.642 176.988 142.464 178.674 139.502C180.361 136.54 183.094 134.914 184.78 135.872C186.465 136.829 186.465 140.007 184.778 142.969Z" fill="white"/>
<path d="M189.92 114.208C189.531 114.436 189.152 114.583 188.781 114.65C188.411 114.713 188.078 114.657 187.782 114.482C187.485 114.304 187.25 113.975 187.075 113.494C186.901 113.01 186.815 112.333 186.817 111.463C186.817 110.654 186.892 109.888 187.04 109.166C187.188 108.444 187.401 107.782 187.678 107.18C187.956 106.575 188.291 106.041 188.682 105.577C189.076 105.112 189.517 104.735 190.003 104.446C190.514 104.142 190.966 103.99 191.36 103.99C191.757 103.988 192.077 104.118 192.32 104.38C192.564 104.638 192.714 105.004 192.773 105.477L191.324 106.338C191.25 106.019 191.098 105.82 190.868 105.741C190.641 105.658 190.352 105.72 190.003 105.928C189.44 106.262 189.006 106.805 188.702 107.555C188.4 108.304 188.248 109.176 188.246 110.171L188.301 110.138C188.431 109.791 188.599 109.458 188.805 109.142C189.011 108.825 189.244 108.538 189.503 108.279C189.765 108.016 190.042 107.798 190.333 107.625C190.809 107.342 191.236 107.22 191.614 107.26C191.995 107.298 192.297 107.484 192.519 107.817C192.741 108.146 192.851 108.61 192.848 109.209C192.851 109.829 192.729 110.46 192.483 111.102C192.237 111.74 191.894 112.332 191.455 112.876C191.016 113.42 190.505 113.864 189.92 114.208ZM189.912 112.828C190.2 112.657 190.458 112.422 190.686 112.124C190.913 111.825 191.093 111.498 191.225 111.143C191.358 110.787 191.422 110.438 191.42 110.095C191.422 109.755 191.359 109.486 191.229 109.289C191.102 109.091 190.926 108.978 190.702 108.952C190.477 108.925 190.22 108.998 189.932 109.169C189.718 109.297 189.518 109.463 189.333 109.668C189.148 109.874 188.986 110.102 188.849 110.353C188.711 110.601 188.603 110.859 188.523 111.128C188.447 111.392 188.407 111.65 188.404 111.901C188.407 112.228 188.473 112.492 188.603 112.692C188.732 112.892 188.911 113.008 189.138 113.039C189.366 113.07 189.624 112.999 189.912 112.828ZM199.712 101.824C199.646 101.614 199.554 101.445 199.438 101.317C199.324 101.185 199.187 101.096 199.025 101.05C198.867 101.003 198.684 101.005 198.478 101.057C198.271 101.106 198.047 101.203 197.803 101.347C197.367 101.607 196.978 101.965 196.637 102.424C196.296 102.882 196.027 103.417 195.831 104.029C195.638 104.636 195.542 105.293 195.542 106.001C195.542 106.715 195.638 107.263 195.831 107.643C196.025 108.024 196.293 108.242 196.637 108.296C196.981 108.347 197.38 108.237 197.835 107.967C198.248 107.722 198.605 107.417 198.906 107.053C199.21 106.688 199.444 106.287 199.608 105.851C199.772 105.412 199.854 104.963 199.854 104.505L200.188 104.367L197.982 105.678V104.339L201.279 102.379V103.515C201.279 104.324 201.131 105.113 200.834 105.88C200.538 106.647 200.131 107.344 199.612 107.972C199.094 108.597 198.499 109.11 197.827 109.509C197.079 109.954 196.421 110.149 195.855 110.094C195.292 110.035 194.852 109.739 194.534 109.204C194.219 108.665 194.062 107.896 194.062 106.899C194.062 106.136 194.155 105.399 194.34 104.689C194.528 103.977 194.789 103.312 195.125 102.694C195.461 102.073 195.855 101.519 196.308 101.031C196.76 100.541 197.252 100.138 197.783 99.8217C198.233 99.5545 198.652 99.3823 199.041 99.3051C199.43 99.2248 199.775 99.2351 200.077 99.3359C200.381 99.4352 200.631 99.6191 200.826 99.8874C201.022 100.156 201.15 100.504 201.211 100.933L199.712 101.824Z" fill="#00DB90"/>
<circle cx="19.1178" cy="19.1178" r="17.8678" transform="matrix(0.859406 -0.511293 0 1 193.422 133.55)" fill="black" fill-opacity="0.8" stroke="white" stroke-width="2.5" stroke-linecap="round" stroke-linejoin="round"/>
<path d="M177.205 166.551C182.046 158.046 188.149 151.189 194.437 146.617" stroke="white" stroke-width="2.5" stroke-linecap="round" stroke-linejoin="round"/>
<path d="M187.38 170.359C189.806 166.099 192.899 162.662 196.082 160.394" stroke="white" stroke-width="2.5" stroke-linecap="round" stroke-linejoin="round"/>
<path fill-rule="evenodd" clip-rule="evenodd" d="M200.778 177.969C199.092 180.931 196.358 182.556 194.673 181.599C192.987 180.642 192.988 177.464 194.674 174.502C196.361 171.54 199.094 169.914 200.78 170.872C202.465 171.829 202.465 175.007 200.778 177.969Z" fill="white"/>
<path d="M205.857 149.246C205.328 149.56 204.854 149.726 204.436 149.744C204.018 149.758 203.686 149.636 203.44 149.376C203.197 149.114 203.067 148.726 203.052 148.212L204.48 147.364C204.506 147.736 204.65 147.967 204.912 148.058C205.174 148.145 205.489 148.08 205.857 147.861C206.145 147.69 206.401 147.46 206.626 147.173C206.851 146.885 207.028 146.566 207.158 146.215C207.287 145.864 207.351 145.514 207.348 145.165C207.351 144.806 207.286 144.528 207.154 144.329C207.022 144.131 206.84 144.022 206.61 144.001C206.38 143.978 206.116 144.055 205.817 144.233C205.574 144.375 205.334 144.569 205.099 144.817C204.863 145.064 204.677 145.317 204.539 145.574L203.21 146.11L203.635 140.983L208.348 138.181V139.613L204.853 141.69L204.619 144.336L204.666 144.307C204.817 144.012 205.03 143.714 205.305 143.415C205.58 143.113 205.882 142.865 206.21 142.67C206.702 142.378 207.141 142.252 207.527 142.293C207.913 142.332 208.217 142.52 208.439 142.859C208.662 143.198 208.773 143.67 208.773 144.277C208.773 144.902 208.648 145.532 208.4 146.17C208.154 146.802 207.811 147.389 207.372 147.93C206.936 148.466 206.43 148.905 205.857 149.246ZM215.624 136.876C215.558 136.666 215.467 136.497 215.351 136.369C215.237 136.237 215.099 136.148 214.938 136.102C214.779 136.055 214.597 136.057 214.39 136.109C214.184 136.158 213.959 136.254 213.716 136.399C213.28 136.658 212.891 137.017 212.55 137.476C212.208 137.934 211.94 138.469 211.744 139.081C211.551 139.688 211.455 140.345 211.455 141.053C211.455 141.767 211.551 142.315 211.744 142.695C211.937 143.076 212.206 143.293 212.55 143.348C212.893 143.399 213.293 143.289 213.748 143.019C214.16 142.773 214.517 142.469 214.819 142.105C215.123 141.74 215.357 141.339 215.521 140.903C215.685 140.464 215.767 140.015 215.767 139.556L216.1 139.418L213.895 140.729V139.391L217.191 137.431V138.567C217.191 139.376 217.043 140.164 216.747 140.931C216.451 141.698 216.044 142.396 215.525 143.024C215.007 143.649 214.412 144.161 213.74 144.561C212.991 145.006 212.334 145.201 211.768 145.146C211.205 145.087 210.764 144.79 210.447 144.256C210.132 143.717 209.975 142.948 209.975 141.951C209.975 141.188 210.067 140.451 210.252 139.741C210.44 139.029 210.702 138.364 211.038 137.746C211.374 137.125 211.768 136.57 212.22 136.083C212.673 135.593 213.165 135.19 213.696 134.874C214.146 134.606 214.565 134.434 214.954 134.357C215.343 134.277 215.688 134.287 215.989 134.388C216.294 134.487 216.543 134.671 216.739 134.939C216.935 135.208 217.063 135.556 217.124 135.985L215.624 136.876Z" fill="#00DB90"/>
<g filter="url(#filter2_f_571_24271)">
<ellipse cx="213.342" cy="219.842" rx="9.00988" ry="3.46534" fill="black" fill-opacity="0.3"/>
</g>
<circle cx="18.891" cy="18.891" r="17.641" transform="matrix(0.866025 -0.5 0 1 210.375 172.891)" fill="black" fill-opacity="0.8" stroke="white" stroke-width="2.5" stroke-linecap="round" stroke-linejoin="round"/>
<path d="M194.195 205.288C199.016 196.947 205.093 190.25 211.355 185.814" stroke="white" stroke-width="2.5" stroke-linecap="round" stroke-linejoin="round"/>
<path d="M204.329 209.183C206.744 205.005 209.824 201.649 212.993 199.449" stroke="white" stroke-width="2.5" stroke-linecap="round" stroke-linejoin="round"/>
<path fill-rule="evenodd" clip-rule="evenodd" d="M217.669 216.876C215.99 219.782 213.268 221.352 211.589 220.384C209.911 219.416 209.912 216.276 211.591 213.371C213.27 210.466 215.992 208.896 217.67 209.863C219.349 210.831 219.348 213.971 217.669 216.876Z" fill="white"/>
<path d="M219.894 190.16V188.923L222.737 184.066C223.009 183.592 223.235 183.18 223.417 182.829C223.598 182.478 223.734 182.161 223.825 181.878C223.915 181.595 223.96 181.323 223.96 181.061C223.96 180.762 223.902 180.541 223.785 180.396C223.667 180.248 223.506 180.175 223.301 180.177C223.096 180.178 222.862 180.254 222.601 180.405C222.332 180.56 222.096 180.761 221.893 181.007C221.691 181.25 221.534 181.52 221.422 181.819C221.312 182.116 221.258 182.426 221.258 182.749L219.847 183.563C219.847 182.963 219.965 182.373 220.202 181.793C220.44 181.213 220.766 180.681 221.182 180.198C221.6 179.714 222.08 179.316 222.621 179.004C223.17 178.687 223.653 178.527 224.068 178.524C224.484 178.521 224.807 178.66 225.036 178.94C225.268 179.219 225.384 179.623 225.384 180.152C225.384 180.506 225.325 180.888 225.208 181.297C225.091 181.706 224.884 182.204 224.588 182.79C224.295 183.375 223.883 184.116 223.353 185.012L221.941 187.484V187.548L225.508 185.491V186.923L219.894 190.16ZM232.452 176.482C232.386 176.271 232.294 176.101 232.176 175.972C232.062 175.838 231.923 175.747 231.761 175.699C231.601 175.65 231.417 175.649 231.209 175.699C231.001 175.745 230.774 175.838 230.529 175.98C230.089 176.233 229.698 176.587 229.354 177.041C229.01 177.495 228.739 178.026 228.542 178.635C228.348 179.24 228.25 179.896 228.25 180.604C228.25 181.318 228.348 181.867 228.542 182.25C228.737 182.633 229.007 182.854 229.354 182.913C229.7 182.969 230.103 182.864 230.561 182.6C230.977 182.36 231.337 182.06 231.641 181.7C231.947 181.339 232.183 180.941 232.348 180.507C232.513 180.07 232.596 179.623 232.596 179.164L232.932 179.03L230.709 180.312V178.974L234.031 177.057V178.193C234.031 179.003 233.882 179.789 233.584 180.552C233.285 181.315 232.875 182.007 232.352 182.629C231.83 183.247 231.23 183.751 230.553 184.142C229.799 184.577 229.136 184.763 228.566 184.701C227.998 184.635 227.555 184.332 227.235 183.794C226.918 183.25 226.759 182.48 226.759 181.483C226.759 180.719 226.852 179.984 227.039 179.276C227.228 178.567 227.492 177.905 227.83 177.292C228.169 176.675 228.566 176.126 229.022 175.644C229.478 175.16 229.973 174.763 230.509 174.454C230.962 174.193 231.385 174.026 231.776 173.954C232.168 173.879 232.516 173.894 232.82 173.998C233.126 174.102 233.378 174.289 233.576 174.56C233.773 174.831 233.902 175.181 233.963 175.61L232.452 176.482Z" fill="#00DB90"/>
<path d="M26.0078 52.7191C46.4907 21.4915 79.214 6.93695 99.3323 20.1061" stroke="#99CAFF" stroke-width="6" stroke-linecap="round" stroke-linejoin="round"/>
<path d="M44.0527 61.1986C54.1413 45.8178 70.503 38.5406 80.412 45.0269" stroke="#99CAFF" stroke-width="6" stroke-linecap="round" stroke-linejoin="round"/>
<path fill-rule="evenodd" clip-rule="evenodd" d="M67.7746 76.7263C64.7355 81.3597 59.8519 83.5318 56.8668 81.5778C53.8818 79.6238 53.9256 74.2837 56.9648 69.6503C60.0039 65.0169 64.8875 62.8448 67.8726 64.7988C70.8576 66.7528 70.8138 72.0929 67.7746 76.7263Z" fill="#99CAFF"/>
<defs>
<filter id="filter0_f_571_24271" x="183.916" y="175.762" width="22.0195" height="10.9307" filterUnits="userSpaceOnUse" color-interpolation-filters="sRGB">
<feFlood flood-opacity="0" result="BackgroundImageFix"/>
<feBlend mode="normal" in="SourceGraphic" in2="BackgroundImageFix" result="shape"/>
<feGaussianBlur stdDeviation="1" result="effect1_foregroundBlur_571_24271"/>
</filter>
<filter id="filter1_f_571_24271" x="167.916" y="141.762" width="22.0195" height="10.9307" filterUnits="userSpaceOnUse" color-interpolation-filters="sRGB">
<feFlood flood-opacity="0" result="BackgroundImageFix"/>
<feBlend mode="normal" in="SourceGraphic" in2="BackgroundImageFix" result="shape"/>
<feGaussianBlur stdDeviation="1" result="effect1_foregroundBlur_571_24271"/>
</filter>
<filter id="filter2_f_571_24271" x="202.333" y="214.376" width="22.0195" height="10.9307" filterUnits="userSpaceOnUse" color-interpolation-filters="sRGB">
<feFlood flood-opacity="0" result="BackgroundImageFix"/>
<feBlend mode="normal" in="SourceGraphic" in2="BackgroundImageFix" result="shape"/>
<feGaussianBlur stdDeviation="1" result="effect1_foregroundBlur_571_24271"/>
</filter>
</defs>
</svg>
