<svg width="440" height="280" viewBox="0 0 440 280" fill="none" xmlns="http://www.w3.org/2000/svg">
<g clip-path="url(#clip0_1355_11150)">
<path d="M-257.609 66.2076C-214.018 104.703 -180.825 172.046 -119.152 186.105C-101.602 190.123 -83.7358 190.699 -66.0127 192.706C0.148721 200.281 60.4734 232.65 125.529 243.733C154.651 248.725 182.83 245.725 210.335 239.69C261.075 228.585 302.273 200.776 338.384 168.057C407.1 105.892 498.844 2.2603 687.593 -25.1436C877.649 -52.7453 496.745 -304.263 496.745 -304.263L388.929 -430.331C-351.343 33.3592 -310.838 8.31222 -335.125 22.4773C-306.405 29.7813 -280.074 46.3379 -257.609 66.2076Z" fill="url(#paint0_radial_1355_11150)"/>
<g filter="url(#filter0_i_1355_11150)">
<path d="M456.893 -371.715C439.854 -340.469 402.22 -328.662 375.672 -306.386C339.063 -275.681 324.89 -227.786 304.239 -185.341C262.197 -98.8418 177.01 -31.6588 67.0814 -37.9088C-0.229251 -41.7265 -73.8515 -60.0792 -137.717 -41.6292C-198.874 -23.9103 -266.81 14.2629 -336.456 -8.64685C-386.929 -25.2792 -329.17 -158.998 -326.939 -161.249C-324.708 -163.5 374.164 -510.447 374.164 -510.447C408.092 -467.237 415.385 -457.935 452.699 -410.4C460.145 -400.963 470.459 -396.617 456.893 -371.715Z" fill="url(#paint1_radial_1355_11150)" fill-opacity="0.6"/>
</g>
<path d="M332.514 -77.2233L332.514 -77.2236C337.255 -86.6875 341.669 -96.4253 346.096 -106.194C346.516 -107.121 346.936 -108.048 347.357 -108.975C352.207 -119.668 357.112 -130.368 362.506 -140.719C373.294 -161.418 386.063 -180.775 404.359 -195.996C413.635 -203.717 424.27 -210.214 434.839 -216.672C439.345 -219.425 443.839 -222.17 448.21 -225C462.893 -234.505 476.311 -245.019 484.769 -260.13C491.549 -272.256 492.3 -279.132 490.688 -284.024C489.878 -286.48 488.451 -288.511 486.738 -290.522C486.048 -291.331 485.323 -292.125 484.575 -292.945C484.389 -293.149 484.201 -293.354 484.013 -293.562C483.071 -294.598 482.107 -295.679 481.185 -296.845L481.184 -296.847C468.443 -313.043 459.318 -324.645 451.402 -334.71C436.989 -353.035 426.583 -366.265 405.661 -392.855L404.407 -392.23L398.628 -389.35C393.567 -386.828 386.142 -383.127 376.692 -378.417C357.793 -368.997 330.791 -355.536 298.381 -339.377C233.562 -307.059 147.114 -263.945 60.5964 -220.761C-25.9213 -177.578 -112.508 -134.325 -177.604 -101.731C-210.152 -85.4332 -237.327 -71.8005 -256.433 -62.1732C-265.987 -57.3594 -273.522 -53.5476 -278.703 -50.905C-281.294 -49.5834 -283.294 -48.5554 -284.663 -47.841C-285.348 -47.4835 -285.871 -47.2065 -286.23 -47.0113C-286.41 -46.9133 -286.543 -46.8389 -286.632 -46.7869C-286.637 -46.7839 -286.642 -46.781 -286.647 -46.7782C-286.652 -46.7705 -286.658 -46.7618 -286.664 -46.7521C-286.713 -46.6744 -286.779 -46.5629 -286.862 -46.4137C-287.028 -46.1165 -287.245 -45.6981 -287.511 -45.1621C-288.042 -44.0916 -288.754 -42.5763 -289.607 -40.6735C-291.313 -36.8693 -293.576 -31.5321 -296.076 -25.1374C-301.078 -12.3459 -307.022 4.65878 -311.354 22.0761C-315.69 39.5092 -318.393 57.2869 -316.961 71.6496C-315.526 86.044 -309.991 96.6758 -298.202 100.424C-264.38 111.158 -230.75 107.168 -197.96 98.2163C-181.566 93.7405 -165.409 88.032 -149.558 82.3187C-148.051 81.7756 -146.546 81.2323 -145.045 80.6901C-130.765 75.5333 -116.737 70.4676 -103.06 66.4255L-103.06 66.4253C-71.3935 57.0927 -37.4638 56.7523 -3.24416 59.1114C11.8754 60.1537 27.071 61.7249 42.1584 63.2848C44.1452 63.4902 46.13 63.6955 48.1125 63.8993C65.1594 65.6516 82.0405 67.2991 98.5384 68.0672C206.029 73.0867 290.273 7.18297 332.514 -77.2233ZM-286.731 -46.7263C-286.731 -46.7263 -286.727 -46.7289 -286.72 -46.7337C-286.728 -46.7287 -286.731 -46.7263 -286.731 -46.7263Z" stroke="#4DC3E9" stroke-opacity="0.38" stroke-width="1.80553"/>
<mask id="mask0_1355_11150" style="mask-type:alpha" maskUnits="userSpaceOnUse" x="0" y="-12" width="440" height="296">
<rect y="-12" width="440" height="296" fill="url(#paint2_radial_1355_11150)"/>
</mask>
<g mask="url(#mask0_1355_11150)">
<rect x="-7" y="-25" width="447" height="293" fill="url(#paint3_radial_1355_11150)"/>
<g filter="url(#filter1_i_1355_11150)">
<path d="M345.999 54.0015C322.569 64.6301 293.999 102.501 221.999 122.001C161.317 138.436 126.999 121.78 54.999 135.001C-17.001 148.221 -88.8032 235.016 -112.001 247.001C-159.082 271.343 -89.6174 170.307 -136.079 197.341C-152.45 206.861 -165.335 220.967 -175.761 236.664C-208.16 285.548 -202.592 293.905 -214.866 324.179C-221.61 340.819 -230.981 358.186 -244.528 370.245C-249.735 374.895 -255.963 378.276 -260.814 383.333C-266.356 389.087 -269.184 397.881 -271.451 406.325C-271.943 408.175 -274.229 413.688 -273.519 415.461L-182.463 640.074C-182.463 640.074 402.413 336.501 428.499 336.501C429.882 338.085 490.999 190.305 490.999 190.305C464.252 189.204 405.856 26.8332 345.999 54.0015Z" fill="url(#paint4_linear_1355_11150)" fill-opacity="0.4"/>
</g>
<g filter="url(#filter2_i_1355_11150)">
<path d="M-33.0031 301C-19.4952 274.57 71.9973 206.232 101.997 198C136.944 188.409 223.646 153.145 253.497 137.5C290.469 118.123 333.515 72.3495 371 54C397.691 40.934 451.145 35.3872 477.998 82.0004C518.048 151.601 514.998 284 514.998 284L186.543 376.269C186.543 376.269 91.0336 300.926 90.0254 291.402C89.0089 281.848 -33.0031 301 -33.0031 301Z" fill="url(#paint5_radial_1355_11150)"/>
</g>
<g filter="url(#filter3_i_1355_11150)">
<path d="M58.4977 171.001C-48.1276 231.608 -55.5023 240.001 -26.2813 283.655L61.9269 422.634C61.9269 422.634 124.002 232.499 203 197.5C221.299 189.393 310.063 118.798 358.998 69.0012C373.877 53.8599 356 47.5 356 47.5C356 47.5 320.418 85.0983 269 114C192.5 157 117.791 137.288 58.4977 171.001Z" fill="url(#paint6_radial_1355_11150)" fill-opacity="0.7"/>
</g>
<path d="M349.5 53.5C310.5 86.5 255 126.5 177 136.5C110.049 145.083 30 134 -13 194.907C-56 255.814 -11.0666 174.196 -34 184.317C-80.5416 204.878 -68.0353 171.351 -113.595 194.907C-129.649 203.202 -141.472 216.901 -150.514 232.629C-178.596 281.62 -171.712 291.372 -180.908 322.678C-185.96 339.885 -193.687 357.556 -206.457 368.953C-211.365 373.349 -217.502 376.244 -221.984 381.127C-227.108 386.678 -229.003 395.864 -230.352 404.739C-230.642 406.684 -232.371 412.379 -231.405 414.389L-108.033 669.227L-13 248C-13 248 56 179 218 147C256.533 139.388 308.999 92.1834 346 65.5" stroke="#4FF4FF" stroke-opacity="0.2" stroke-width="4"/>
<path d="M62.2998 362.936L62.3011 362.945L62.3023 362.953L60.3288 363.239C62.3023 362.953 62.3024 362.954 62.3026 362.955L62.3036 362.962L62.3077 362.991L62.3239 363.103L62.3885 363.549C62.4455 363.943 62.5304 364.527 62.6416 365.29C62.8639 366.817 63.1915 369.057 63.6123 371.913C64.454 377.626 65.6686 385.8 67.1602 395.648C70.1435 415.344 74.2343 441.73 78.6653 468.494C83.097 495.262 87.8656 522.388 92.2043 543.573C94.3744 554.169 96.4309 563.249 98.2781 570.044C99.2024 573.444 100.065 576.237 100.853 578.348C101.675 580.549 102.322 581.741 102.723 582.189L102.723 582.189C102.834 582.314 103.128 582.558 103.742 582.88C104.335 583.191 105.124 583.524 106.122 583.87C108.119 584.562 110.804 585.26 114.112 585.954C120.721 587.341 129.62 588.676 140.054 589.943C160.909 592.477 187.726 594.722 214.234 596.591C240.735 598.459 266.901 599.949 286.443 600.971C296.213 601.482 304.327 601.876 309.997 602.143C312.832 602.276 315.057 602.378 316.572 602.446C317.156 602.472 317.635 602.493 318.002 602.509L565.244 347.021C565.294 346.943 565.36 346.838 565.442 346.706C565.644 346.383 565.944 345.9 566.331 345.265C567.105 343.995 568.227 342.121 569.613 339.713C572.385 334.897 576.211 327.947 580.417 319.43C588.833 302.385 598.743 279.118 604.782 254.145C610.827 229.149 612.951 202.621 605.989 178.955C599.055 155.389 583.063 134.483 552.468 120.677C537.652 113.999 523.494 107.062 509.91 100.405C504.351 97.6815 498.888 95.0046 493.515 92.4119C474.977 83.4656 457.484 75.5067 440.601 69.9298C406.947 58.8129 375.91 57.2176 344.146 76.1498C337.162 81.8705 329.501 88.7324 321.151 96.2122C319.725 97.49 318.278 98.7858 316.811 100.097C306.73 109.109 295.727 118.82 283.869 128.289C260.194 147.193 233.009 165.218 202.714 174.877C194.501 178.585 186.534 181.731 178.722 184.815C148.985 196.556 121.485 207.415 91.1676 245.024C74.6753 265.483 65.6343 282.6 61.6009 300.682C57.5609 318.793 58.5005 338.063 62.2998 362.936Z" stroke="#4FF4FF" stroke-opacity="0.2" stroke-width="4"/>
<g style="mix-blend-mode:soft-light">
<path d="M326.501 93.5C322.501 97.4999 266.501 142 259.5 145" stroke="white" stroke-width="8" stroke-linecap="square"/>
</g>
<g style="mix-blend-mode:soft-light">
<path d="M316 91C309 97.5 266.247 128.5 250.001 134" stroke="white" stroke-width="8" stroke-linecap="square"/>
</g>
<g style="mix-blend-mode:soft-light">
<path d="M302.5 90.5C290 100 263.5 117.5 243 125" stroke="white" stroke-width="8" stroke-linecap="square"/>
</g>
<g filter="url(#filter4_f_1355_11150)">
<path d="M417.638 79.6909L333.734 31.2817C333.035 30.9302 332.263 30.7471 331.481 30.7471C330.698 30.7471 329.926 30.9302 329.227 31.2817L288.263 54.9152C286.581 55.8842 286.578 57.4723 288.263 58.4414L371.622 106.526C372.238 106.838 372.919 107 373.61 107C374.3 107 374.981 106.838 375.598 106.526L417.646 82.2775C418.874 81.5627 418.874 80.391 417.638 79.6909Z" fill="black" fill-opacity="0.4"/>
</g>
<path d="M335.088 27.7711L414.326 73.461C416.366 74.6364 416.34 75.9702 416.34 77.1677C416.34 78.3653 415.801 80.027 414.326 80.8782L376.542 102.684C375.714 103.104 374.798 103.323 373.87 103.323C372.941 103.323 372.025 103.104 371.197 102.684L291.959 56.9942C290.484 56.143 290.148 54.717 290.148 53.5195C290.148 52.322 290.484 50.4244 291.959 49.5733L329.732 27.7711C330.534 27.2673 331.462 27 332.41 27C333.357 27 334.286 27.2673 335.088 27.7711Z" fill="#4D4D4D"/>
<path d="M333.133 29.4188L294.283 51.829L373.871 97.7178V103.326C372.94 103.344 372.019 103.123 371.197 102.685L291.959 56.9949C290.484 56.1437 290.148 54.7177 290.148 53.5202C290.148 52.3227 290.484 50.4251 291.959 49.5739L329.732 27.7718C330.744 27.1462 331.943 26.8945 333.122 27.0606V29.4188H333.133Z" fill="#666666"/>
<path d="M413.64 73.7889L334.527 28.169C333.869 27.8356 333.141 27.6619 332.403 27.6619C331.665 27.6619 330.937 27.8356 330.278 28.169L293.394 49.4406C291.808 50.3544 291.808 51.8541 293.394 52.7568L371.991 98.0783C372.572 98.3717 373.215 98.5245 373.866 98.5245C374.518 98.5245 375.16 98.3717 375.742 98.0783L413.633 76.2245C414.81 75.5686 414.81 74.4632 413.64 73.7889Z" fill="#B3B3B3"/>
<path d="M315.872 66.8914C316.173 67.079 316.425 67.335 316.608 67.6385C316.792 67.942 316.901 68.2844 316.927 68.6379C316.939 68.7568 316.918 68.8767 316.867 68.9845C316.815 69.0924 316.735 69.1841 316.635 69.2496C316.51 69.3196 316.03 69.6181 315.897 69.6807C315.774 69.7322 315.639 69.7511 315.506 69.7356C315.373 69.7202 315.246 69.6708 315.138 69.5923L308.683 65.8671C308.382 65.6798 308.13 65.4244 307.947 65.1216C307.764 64.8188 307.654 64.4771 307.628 64.1242C307.617 64.0094 307.636 63.8937 307.683 63.7884C307.731 63.6832 307.804 63.5919 307.897 63.5236C308.026 63.4426 308.524 63.1552 308.657 63.0815C308.78 63.028 308.915 63.0077 309.048 63.0226C309.182 63.0374 309.309 63.087 309.417 63.1662L315.872 66.8914Z" fill="#B3B3B3"/>
<path d="M315.137 67.2965L308.682 63.575C308.1 63.2397 307.627 63.4792 307.627 64.1092C307.654 64.4621 307.763 64.8038 307.946 65.1066C308.13 65.4094 308.382 65.6648 308.682 65.8521L315.137 69.5773C315.72 69.9126 316.192 69.6768 316.192 69.0467C316.167 68.6925 316.058 68.3493 315.875 68.0452C315.691 67.741 315.439 67.4844 315.137 67.2965Z" fill="#4D4D4D"/>
<path d="M304.573 60.3546C304.873 60.543 305.125 60.7993 305.307 61.1027C305.49 61.406 305.599 61.748 305.625 62.1011C305.637 62.2199 305.616 62.3398 305.565 62.4477C305.513 62.5555 305.433 62.6472 305.333 62.7127L304.595 63.1438C304.472 63.1964 304.337 63.2159 304.204 63.2004C304.071 63.1849 303.944 63.1349 303.836 63.0554L297.377 59.3339C297.077 59.1457 296.825 58.8895 296.643 58.586C296.46 58.2826 296.352 57.9405 296.326 57.5874C296.315 57.4729 296.333 57.3574 296.38 57.2522C296.426 57.1469 296.499 57.0555 296.592 56.9868C296.721 56.9057 297.219 56.6183 297.351 56.5446C297.474 56.4911 297.609 56.4708 297.743 56.4857C297.876 56.5006 298.003 56.5501 298.111 56.6294L304.573 60.3546Z" fill="#B3B3B3"/>
<path d="M303.84 60.7784L297.381 57.0532C296.799 56.7179 296.33 56.9574 296.33 57.5875C296.356 57.9406 296.464 58.2828 296.647 58.5862C296.83 58.8896 297.081 59.1458 297.381 59.334L303.84 63.0556C304.419 63.3909 304.891 63.155 304.891 62.525C304.865 62.1719 304.756 61.8299 304.574 61.5265C304.391 61.2232 304.14 60.9669 303.84 60.7784Z" fill="#4D4D4D"/>
<path d="M336.276 30.8441L410.007 73.3725C411.114 74.0173 411.114 75.0675 410.007 75.7123L375.731 95.4842C375.102 95.8042 374.407 95.971 373.702 95.971C372.997 95.971 372.302 95.8042 371.673 95.4842L297.407 52.6462C296.5 52.123 296.323 51.3345 296.894 50.7118L297.031 50.5681C297.146 50.4715 297.269 50.3851 297.4 50.3102L307.049 44.7463L307.676 44.3778C307.87 44.278 308.086 44.2259 308.304 44.2259C308.523 44.2259 308.739 44.278 308.933 44.3778C309.137 44.4755 309.36 44.5241 309.586 44.5196C309.811 44.5152 310.032 44.4577 310.232 44.3521L321.47 37.8707C321.839 37.657 321.861 37.3217 321.518 37.1338C321.175 36.9459 321.149 36.6474 321.452 36.4448L321.515 36.4042L330.946 30.9657L331.145 30.8477C331.941 30.4473 332.819 30.2384 333.71 30.2378C334.601 30.2372 335.479 30.4448 336.276 30.8441Z" fill="black"/>
<path d="M308.933 45.8259C308.739 45.726 308.523 45.6739 308.305 45.6739C308.086 45.6739 307.87 45.726 307.676 45.8259L307.049 46.1943L297.403 51.7471C297.274 51.8246 297.151 51.9121 297.035 52.0088L296.906 52.1525L296.869 52.204C297.024 52.3839 297.21 52.5349 297.418 52.6499L371.681 95.4842C372.309 95.8041 373.004 95.9709 373.71 95.9709C374.415 95.9709 375.11 95.8041 375.738 95.4842L410.018 75.7122C410.226 75.5948 410.412 75.4428 410.568 75.2627C410.412 75.0807 410.225 74.9284 410.015 74.8132L336.276 32.2847C335.48 31.884 334.601 31.6753 333.71 31.6753C332.819 31.6753 331.941 31.884 331.145 32.2847L330.946 32.4026L321.762 37.6975V38.9208C321.752 39.0067 321.72 39.0886 321.669 39.1584C321.618 39.2282 321.549 39.2835 321.47 39.3188L310.232 45.8001C310.033 45.9058 309.811 45.9632 309.586 45.9677C309.36 45.9722 309.137 45.9236 308.933 45.8259Z" fill="#181818"/>
<path d="M309.815 42.156L314.979 39.1862C315.144 39.0977 315.328 39.0495 315.516 39.0457C315.704 39.0418 315.89 39.0824 316.059 39.1641C316.347 39.3299 316.332 39.6099 316.022 39.7868L310.859 42.7566C310.693 42.8443 310.508 42.892 310.321 42.8959C310.133 42.8997 309.947 42.8596 309.778 42.7787C309.501 42.6129 309.516 42.3329 309.815 42.156Z" fill="#4D4D4D"/>
<path d="M317.409 37.5392C317.603 37.4393 317.818 37.3872 318.036 37.3872C318.254 37.3872 318.469 37.4393 318.663 37.5392C318.761 37.5392 318.855 37.578 318.924 37.6471C318.993 37.7162 319.032 37.8099 319.032 37.9076C319.032 38.0054 318.993 38.0991 318.924 38.1682C318.855 38.2373 318.761 38.2761 318.663 38.2761C318.469 38.3742 318.254 38.4254 318.036 38.4254C317.818 38.4254 317.603 38.3742 317.409 38.2761C317.311 38.2761 317.217 38.2373 317.148 38.1682C317.079 38.0991 317.04 38.0054 317.04 37.9076C317.04 37.8099 317.079 37.7162 317.148 37.6471C317.217 37.578 317.311 37.5392 317.409 37.5392Z" fill="#4D4D4D"/>
<g opacity="0.6">
<path d="M353.706 78.8213C347.682 78.8213 341.972 77.4398 337.621 74.937C332.726 72.1106 330.029 68.1628 330.029 63.8219C330.029 59.481 332.726 55.5332 337.626 52.7125C341.972 50.204 347.682 48.8225 353.706 48.8225C359.729 48.8225 365.445 50.204 369.791 52.7125C374.686 55.5332 377.388 59.481 377.388 63.8219C377.388 68.1628 374.691 72.1048 369.791 74.937C365.445 77.4398 359.729 78.8213 353.706 78.8213ZM353.706 49.4005C347.781 49.4005 342.174 50.7531 337.916 53.2096C333.2 55.9263 330.608 59.6949 330.608 63.8219C330.608 67.9489 333.2 71.7175 337.91 74.4342C342.174 76.8907 347.781 78.2433 353.706 78.2433C359.63 78.2433 365.243 76.8907 369.501 74.4342C374.211 71.7175 376.809 67.9489 376.809 63.8219C376.809 59.6949 374.211 55.9205 369.501 53.2096C365.243 50.7531 359.63 49.4005 353.706 49.4005Z" fill="#00DB90"/>
</g>
<g opacity="0.3">
<path d="M353.706 75.6421C365.024 75.6421 374.2 70.35 374.2 63.8218C374.2 57.2936 365.024 52.0015 353.706 52.0015C342.387 52.0015 333.212 57.2936 333.212 63.8218C333.212 70.35 342.387 75.6421 353.706 75.6421Z" fill="black"/>
</g>
<g opacity="0.15">
<path d="M367.394 48.7959L357.727 43.2173L349.173 82.5032L358.844 88.0818L367.394 48.7959Z" fill="white"/>
<path d="M340.377 77.4294L348.912 38.1508L336.261 30.8515C335.465 30.4517 334.586 30.2434 333.695 30.2434C332.804 30.2434 331.926 30.4517 331.13 30.8515L330.931 30.9694L325.247 34.2451L318.582 64.8758L340.377 77.4294Z" fill="white"/>
</g>
<path d="M341.923 70.6282C341.916 63.2132 350.093 56.4311 360.245 55.4312" stroke="white" stroke-width="2" stroke-linecap="square" stroke-linejoin="round"/>
<path d="M350.257 69.2534C350.254 65.6013 354.342 62.2102 359.342 61.7177" stroke="white" stroke-width="2" stroke-linecap="square" stroke-linejoin="round"/>
<path fill-rule="evenodd" clip-rule="evenodd" d="M362.227 68.0746C362.228 69.1748 361.008 70.187 359.501 70.3354C357.995 70.4837 356.773 69.7121 356.772 68.6119C356.771 67.5117 357.992 66.4996 359.498 66.3512C361.004 66.2029 362.226 66.9745 362.227 68.0746Z" fill="white"/>
<g filter="url(#filter5_f_1355_11150)">
<path d="M-19.3704 215.389L-15.2048 194.011L-3.49982 192.144L128.61 192.881L182.708 196.678L209.097 200.302L160.361 210.642L143.903 212.219L-3.92444 215.875L-19.3704 215.389Z" fill="black" fill-opacity="0.5"/>
</g>
<path d="M38.7983 205.082L35.6832 182.327L36.0434 180.939L79.7665 165.134L82.2095 165.622L122.566 182.527L128.023 188.98L96.6577 190.621L59.6051 196.938L58.6846 197.856L54.6066 210.338L38.7983 205.082Z" fill="#2D2D2D"/>
<path d="M38.8233 204.804L35.5879 182.048L58.5272 197.947L54.5397 210.152L38.8233 204.804Z" fill="#3B3B3B"/>
<path d="M59.6011 196.474L36.7539 180.482L80.2299 165.139L96.6552 190.343L59.6011 196.474Z" fill="#363636"/>
<path d="M130.955 187.896L122.594 182.527L128.183 189.26L139.355 194.656L130.955 187.896Z" fill="#262626"/>
<path d="M98.7964 167.176L92.321 169.431L122.593 182.434L130.955 187.896L140.285 194.944L154.142 187.659L98.7964 167.176Z" fill="#262626"/>
<path d="M98.3147 164.852L96.9255 165.116L132.3 181.88L154.143 187.844L181.03 186.345L98.3147 164.852Z" fill="#2D2C2C"/>
<path d="M97.4015 166.698L96.9263 165.209L132.3 181.88L131.966 182.99L97.4015 166.698Z" fill="#262626"/>
<path d="M91.1895 203.275L58.2669 203.881L55.9978 210.352L54.6064 210.338L58.6844 197.856L59.6049 196.938L96.6589 190.807L128.183 189.26L138.89 194.466L140.288 195.407L140.748 194.948L154.141 187.659L181.495 186.535L188.013 189.845L188.02 190.772L181.149 201.836L166.296 200.299L148.733 208.012L138.536 208.84L91.1895 203.275Z" fill="#262626"/>
<path d="M127.73 190.647L127.266 190.642L135.736 206.493L146.86 205.675L147.684 192.233L140.292 195.871L139.364 195.862L127.73 190.647Z" fill="#313131"/>
<path d="M132.3 181.88L131.165 187.434L140.748 194.948L154.143 187.844L132.3 181.88Z" fill="#313030"/>
<mask id="mask1_1355_11150" style="mask-type:luminance" maskUnits="userSpaceOnUse" x="42" y="103" width="154" height="104">
<path d="M42.4372 103.427L43.0788 177.86C43.0704 178.17 43.0213 179.345 43.0213 179.345C43.0213 179.345 58.5299 179.496 59.9228 179.51C61.0363 179.521 60.5452 179.545 60.5452 179.545L75.9723 180.412L77.3856 180.491C77.7859 180.465 77.8873 180.519 77.8873 180.519L63.7141 179.723L98.9416 201.271C98.9416 201.271 145.226 206.712 145.565 206.745C145.904 206.779 146.305 206.753 146.305 206.753C146.305 206.753 155.943 206.086 156.127 206.058C156.312 206.029 156.496 206.001 156.496 206.001L173.228 198.377C173.228 198.377 186.733 199.756 187.903 199.737C189.074 199.718 189.315 199.082 189.315 199.082C189.315 199.082 195.678 189.167 195.737 188.772C195.765 188.377 195.669 187.92 195.669 187.92L189.112 184.571L143.365 172.048L142.846 104.408L42.4372 103.427ZM105.853 162.541L143.365 172.048L143.429 180.325L43.0213 179.345C43.0354 178.88 43.2865 178.363 44.4478 177.936C46.3833 177.225 87.125 162.936 87.125 162.936C87.125 162.936 87.402 162.908 87.4942 162.879C87.6172 162.849 88.8499 162.892 88.8499 162.892C88.8499 162.892 89.1893 162.956 89.3751 163.079C89.5609 163.203 99.5425 167.194 99.5425 167.194L106.363 164.797L104.725 164.081L104.315 162.769L105.853 162.541Z" fill="white"/>
</mask>
<g mask="url(#mask1_1355_11150)">
<path fill-rule="evenodd" clip-rule="evenodd" d="M56.1759 192.595L53.377 124.304L49.8723 124.177L48.4926 124.625L47.2459 126.364L45.5752 196.978L56.1759 192.595Z" fill="#666666" stroke="#C3C3C3" stroke-width="0.2"/>
<path d="M53.3775 124.304L56.1764 192.595L50.8416 193.656L49.8728 124.177L53.3775 124.304Z" fill="#4D4D4D" stroke="#C3C3C3" stroke-width="0.2"/>
</g>
<mask id="mask2_1355_11150" style="mask-type:luminance" maskUnits="userSpaceOnUse" x="41" y="121" width="155" height="105">
<path d="M41.7546 121.024L42.3376 196.941C42.3292 197.252 42.4245 197.472 42.4245 197.472C42.4245 197.472 45.2092 219.08 45.2755 219.689C45.342 220.328 45.8672 220.516 45.8672 220.516L61.1262 225.714L62.5433 225.698C62.9436 225.671 63.0636 225.247 63.0636 225.247L64.9906 219.425L98.259 218.868C98.259 218.868 144.544 224.309 144.883 224.343C145.222 224.377 145.622 224.35 145.622 224.35C145.622 224.35 155.26 223.684 155.445 223.655C155.629 223.627 155.814 223.598 155.814 223.598L172.546 215.975C172.546 215.975 186.05 217.354 187.221 217.335C188.391 217.316 188.633 216.68 188.633 216.68C188.633 216.68 194.996 206.765 195.054 206.37C195.082 205.975 194.986 205.518 194.986 205.518L188.429 202.168L142.683 189.646L142.163 122.006L41.7546 121.024ZM105.171 180.139L142.683 189.646L142.746 197.923L42.3386 196.942C42.3528 196.478 42.6028 195.813 43.7641 195.386C45.6995 194.675 86.4424 180.533 86.4424 180.533C86.4424 180.533 86.7194 180.506 86.8116 180.476C86.9346 180.447 88.1673 180.489 88.1673 180.489C88.1673 180.489 88.5066 180.554 88.6924 180.677C88.8782 180.801 98.8599 184.792 98.8599 184.792L105.681 182.394L104.043 181.679L103.632 180.367L105.171 180.139Z" fill="white"/>
</mask>
<g mask="url(#mask2_1355_11150)">
<path d="M49.8723 124.177L50.7751 175.85" stroke="#C3C3C3" stroke-width="0.2"/>
</g>
<mask id="mask3_1355_11150" style="mask-type:luminance" maskUnits="userSpaceOnUse" x="34" y="105" width="155" height="106">
<path d="M34.9143 105.788L35.4973 181.705C35.4889 182.016 35.5842 182.236 35.5842 182.236C35.5842 182.236 38.3688 203.844 38.4351 204.453C38.5017 205.093 39.0268 205.28 39.0268 205.28L54.2859 210.479L55.703 210.462C56.1033 210.436 56.2232 210.011 56.2232 210.011L58.1502 204.19L91.4186 203.633C91.4186 203.633 137.703 209.073 138.042 209.107C138.382 209.141 138.782 209.114 138.782 209.114C138.782 209.114 148.42 208.448 148.604 208.42C148.789 208.391 148.974 208.362 148.974 208.362L165.705 200.739C165.705 200.739 179.21 202.118 180.38 202.099C181.551 202.08 181.793 201.444 181.793 201.444C181.793 201.444 188.155 191.529 188.214 191.134C188.242 190.739 188.146 190.282 188.146 190.282L181.589 186.933L135.842 174.41L135.323 106.77L34.9143 105.788ZM98.3303 164.903L135.842 174.41L135.906 182.687L35.4983 181.706C35.5125 181.242 35.7625 180.577 36.9237 180.15C38.8592 179.439 79.602 165.298 79.602 165.298C79.602 165.298 79.8791 165.27 79.9713 165.24C80.0943 165.211 81.3269 165.254 81.3269 165.254C81.3269 165.254 81.6663 165.318 81.8521 165.441C82.0379 165.565 92.0195 169.556 92.0195 169.556L98.8405 167.159L97.2022 166.443L96.7916 165.131L98.3303 164.903Z" fill="white"/>
</mask>
<g mask="url(#mask3_1355_11150)">
<path fill-rule="evenodd" clip-rule="evenodd" d="M131.755 175.89L129.71 113.692L126.513 113.538L125.255 113.925L124.1 115.512L122.043 179.821L131.755 175.89Z" fill="#666666" stroke="#C3C3C3" stroke-width="0.2"/>
<path d="M129.711 113.692L131.756 175.89L126.982 174.593L126.513 113.538L129.711 113.692Z" fill="#4D4D4D" stroke="#C3C3C3" stroke-width="0.2"/>
</g>
<mask id="mask4_1355_11150" style="mask-type:luminance" maskUnits="userSpaceOnUse" x="35" y="105" width="155" height="106">
<path d="M35.9143 105.788L36.4973 181.705C36.4889 182.016 36.5842 182.236 36.5842 182.236C36.5842 182.236 39.3688 203.844 39.4351 204.453C39.5017 205.093 40.0268 205.28 40.0268 205.28L55.2859 210.479L56.703 210.462C57.1033 210.436 57.2232 210.011 57.2232 210.011L59.1502 204.19L92.4186 203.633C92.4186 203.633 138.703 209.073 139.042 209.107C139.382 209.141 139.782 209.114 139.782 209.114C139.782 209.114 149.42 208.448 149.604 208.42C149.789 208.391 149.974 208.362 149.974 208.362L166.705 200.739C166.705 200.739 180.21 202.118 181.38 202.099C182.551 202.08 182.793 201.444 182.793 201.444C182.793 201.444 189.155 191.529 189.214 191.134C189.242 190.739 189.146 190.282 189.146 190.282L182.589 186.933L136.842 174.41L136.323 106.77L35.9143 105.788ZM99.3303 164.903L136.842 174.41L136.906 182.687L36.4983 181.706C36.5125 181.242 36.7625 180.577 37.9237 180.15C39.8592 179.439 80.602 165.298 80.602 165.298C80.602 165.298 80.8791 165.27 80.9713 165.24C81.0943 165.211 82.3269 165.254 82.3269 165.254C82.3269 165.254 82.6663 165.318 82.8521 165.441C83.0379 165.565 93.0195 169.556 93.0195 169.556L99.8405 167.159L98.2022 166.443L97.7916 165.131L99.3303 164.903Z" fill="white"/>
</mask>
<g mask="url(#mask4_1355_11150)">
<path fill-rule="evenodd" clip-rule="evenodd" d="M101.755 179.89L99.7102 117.692L96.5126 117.538L95.2554 117.925L94.0997 119.512L92.0425 183.821L101.755 179.89Z" fill="#666666" stroke="#C3C3C3" stroke-width="0.2"/>
<path d="M99.7107 117.692L101.756 179.89L96.9819 178.593L96.5131 117.538L99.7107 117.692Z" fill="#4D4D4D" stroke="#C3C3C3" stroke-width="0.2"/>
</g>
<mask id="mask5_1355_11150" style="mask-type:luminance" maskUnits="userSpaceOnUse" x="37" y="104" width="155" height="106">
<path d="M37.9143 104.788L38.4973 180.705C38.4889 181.016 38.5842 181.236 38.5842 181.236C38.5842 181.236 41.3688 202.844 41.4351 203.453C41.5017 204.093 42.0268 204.28 42.0268 204.28L57.2859 209.479L58.703 209.462C59.1033 209.436 59.2232 209.011 59.2232 209.011L61.1502 203.19L94.4186 202.633C94.4186 202.633 140.703 208.073 141.042 208.107C141.382 208.141 141.782 208.114 141.782 208.114C141.782 208.114 151.42 207.448 151.604 207.42C151.789 207.391 151.974 207.362 151.974 207.362L168.705 199.739C168.705 199.739 182.21 201.118 183.38 201.099C184.551 201.08 184.793 200.444 184.793 200.444C184.793 200.444 191.155 190.529 191.214 190.134C191.242 189.739 191.146 189.282 191.146 189.282L184.589 185.933L138.842 173.41L138.323 105.77L37.9143 104.788ZM101.33 163.903L138.842 173.41L138.842 190.134L66.5005 190.134C67.9259 201.069 39.7299 190.134 39.9237 179.15C41.8592 178.439 82.602 164.298 82.602 164.298C82.602 164.298 82.8791 164.27 82.9713 164.24C83.0943 164.211 84.3269 164.254 84.3269 164.254C84.3269 164.254 84.6663 164.318 84.8521 164.441C85.0379 164.565 95.0195 168.556 95.0195 168.556L101.841 166.159L100.202 165.443L99.7916 164.131L101.33 163.903Z" fill="white"/>
</mask>
<g mask="url(#mask5_1355_11150)">
<path fill-rule="evenodd" clip-rule="evenodd" d="M78.7553 183.89L76.7102 121.692L73.5126 121.538L72.2554 121.925L71.0997 123.512L69.0425 187.821L78.7553 183.89Z" fill="#666666" stroke="#C3C3C3" stroke-width="0.2"/>
<path d="M76.7107 121.692L78.7558 183.89L73.9819 182.593L73.5131 121.538L76.7107 121.692Z" fill="#4D4D4D" stroke="#C3C3C3" stroke-width="0.2"/>
</g>
<mask id="mask6_1355_11150" style="mask-type:luminance" maskUnits="userSpaceOnUse" x="34" y="105" width="155" height="106">
<path d="M34.9143 105.788L35.4973 181.705C35.4889 182.016 35.5842 182.236 35.5842 182.236C35.5842 182.236 38.3688 203.844 38.4351 204.453C38.5017 205.093 39.0268 205.28 39.0268 205.28L54.2859 210.479L55.703 210.462C56.1033 210.436 56.2232 210.011 56.2232 210.011L58.1502 204.19L91.4186 203.633C91.4186 203.633 137.703 209.073 138.042 209.107C138.382 209.141 138.782 209.114 138.782 209.114C138.782 209.114 148.42 208.448 148.604 208.42C148.789 208.391 148.974 208.362 148.974 208.362L165.705 200.739C165.705 200.739 179.21 202.118 180.38 202.099C181.551 202.08 181.793 201.444 181.793 201.444C181.793 201.444 188.155 191.529 188.214 191.134C188.242 190.739 188.146 190.282 188.146 190.282L181.589 186.933L135.842 174.41L135.323 106.77L34.9143 105.788ZM98.3303 164.903L135.842 174.41L135.906 182.687L35.4983 181.706C35.5125 181.242 35.7625 180.577 36.9237 180.15C38.8592 179.439 79.602 165.298 79.602 165.298C79.602 165.298 79.8791 165.27 79.9713 165.24C80.0943 165.211 81.3269 165.254 81.3269 165.254C81.3269 165.254 81.6663 165.318 81.8521 165.441C82.0379 165.565 92.0195 169.556 92.0195 169.556L98.8405 167.159L97.2022 166.443L96.7916 165.131L98.3303 164.903Z" fill="white"/>
</mask>
<g mask="url(#mask6_1355_11150)">
<path d="M126.513 113.538L126.733 178.3" stroke="#C3C3C3" stroke-width="0.2"/>
</g>
<path fill-rule="evenodd" clip-rule="evenodd" d="M98.3332 164.806L96.8604 165.028L96.6241 165.064L97.1074 166.636L98.4537 167.234L92.0624 169.521L89.1973 168.354L85.7024 166.923C83.5612 166.044 82.1637 165.464 82.0107 165.388L81.9984 165.381L81.9468 165.349C81.8926 165.318 81.8306 165.29 81.7618 165.264C81.6857 165.236 81.6053 165.211 81.5251 165.191L81.4582 165.175L81.3926 165.164L80.9451 165.15L80.5554 165.142L80.3187 165.14C80.147 165.14 80.0386 165.145 79.9873 165.158C79.9724 165.163 79.9438 165.169 79.906 165.175L79.8428 165.185L79.7997 165.191L79.6504 165.209L79.6153 165.217L62.0317 171.437L44.3667 177.695C40.3357 179.126 37.8235 180.021 37.14 180.271L37.0813 180.293L36.9141 180.357C36.3794 180.574 36.0053 180.859 35.7748 181.199C35.4886 181.62 35.4486 182.07 35.5511 182.479L35.5674 182.539L35.583 182.589L35.5929 182.615L37.0109 193.369L38.4403 204.295C38.4829 204.566 38.6007 204.785 38.7704 204.954C38.8677 205.051 38.9653 205.117 39.0484 205.159L39.1263 205.193L54.355 210.471L54.4074 210.48L55.83 210.462C56.0473 210.448 56.217 210.34 56.3407 210.176C56.3992 210.098 56.4391 210.02 56.4633 209.957L56.4824 209.9L58.3714 204.088L91.4436 203.517L137.917 209.064L138.047 209.077L138.121 209.082C138.282 209.091 138.454 209.091 138.619 209.085L138.658 209.083L138.691 209.081L146.359 208.536C147.383 208.461 148.081 208.41 148.383 208.385L148.445 208.38L148.556 208.37L148.924 208.311L148.964 208.299L165.623 200.569L168.333 200.847L169.346 200.95L170.355 201.051L172.34 201.249L174.289 201.44C177.546 201.755 179.652 201.939 180.193 201.945L180.245 201.945L180.35 201.941C180.83 201.918 181.197 201.789 181.462 201.585C181.612 201.47 181.708 201.35 181.761 201.251L181.785 201.199L183.063 199.165C183.375 198.666 183.687 198.167 183.994 197.675L184.45 196.943L184.984 196.084L186.1 194.28C187.452 192.081 188.184 190.841 188.209 190.663C188.213 190.613 188.215 190.562 188.215 190.509C188.214 190.339 188.2 190.159 188.175 189.979C188.169 189.934 188.163 189.894 188.157 189.859L188.149 189.811L188.123 189.681L181.512 186.245L181.479 186.232L98.3944 164.809L98.3332 164.806ZM181.207 186.479L181.284 186.499L180.386 187.558L180.428 187.593L178.746 187.674L178.774 187.627L178.222 187.664L177.05 187.717L177.026 187.757L176.2 187.797L176.217 187.768L175.637 187.762L175.636 187.765L174.498 187.847L174.479 187.879L173.59 187.922L173.604 187.897L173.025 187.891L173.024 187.893L171.855 187.944L171.818 188.007L171.246 188.034L171.274 187.988L170.667 188.023L169.335 188.073L169.303 188.127L168.636 188.159L168.661 188.117L168.021 188.152L166.631 188.201L166.597 188.257L166.071 188.283L166.109 188.216L165.471 188.25L164.079 188.332L164.051 188.38L163.385 188.412L163.4 188.384L162.728 188.378L162.727 188.38L161.374 188.46L161.345 188.51L160.646 188.543L160.67 188.503L160.033 188.537L158.64 188.587L158.608 188.641L157.939 188.674L157.965 188.63L157.36 188.665L155.935 188.715L155.901 188.771L155.237 188.804L155.263 188.758L154.645 188.793L154.259 188.789L154.223 188.798L152.845 189.526L152.816 189.553L152.796 189.585L151.446 190.273L151.498 190.186L150.61 190.647L148.65 191.648L148.619 191.676L148.589 191.727L140.184 196.006L139.298 195.967L127.832 190.454L127.795 190.447L122.252 190.692L122.152 190.641L122.108 190.631L118.525 190.798L118.642 190.862L116.628 190.949L116.528 190.896L116.484 190.885L112.932 191.053L113.049 191.117L111.124 191.203L111.027 191.151L110.983 191.14L107.458 191.275L107.628 191.369L105.638 191.455L105.495 191.375L105.45 191.364L101.869 191.531L102.032 191.622L99.7526 191.71L99.6555 191.658L99.6108 191.647L96.7178 191.774L96.1402 191.826L96.3067 191.917L94.6665 192.177L94.5861 192.134L94.5318 192.124L91.5913 192.6L91.6878 192.653L89.9678 192.934L89.8879 192.891L89.8326 192.882L86.8967 193.39L86.9482 193.418L85.1249 193.724L85.0979 193.71L85.0435 193.7L82.1034 194.176L82.1503 194.201L80.2379 194.508L80.2149 194.496L80.1609 194.487L77.2485 194.964L77.2941 194.987L75.4706 195.276L75.4631 195.275L72.5222 195.751L72.5279 195.753L70.7097 196.063L70.7035 196.063L67.4183 196.599L67.4211 196.599L66.009 196.822L66.0043 196.821L65.9056 196.838L62.9659 197.323L61.0934 197.645L60.3939 197.761C60.3174 197.766 60.2079 197.792 60.0975 197.854C59.995 197.912 59.9131 197.992 59.8623 198.093L59.8425 198.138C59.837 198.149 59.8166 198.212 59.7888 198.301L59.7836 198.316C59.7658 198.367 59.746 198.426 59.7258 198.488L59.6953 198.582L59.5396 199.075L59.5484 199.08L59.0094 200.928L58.9474 200.929L58.9514 201.084L58.9645 201.083L58.9208 201.231L58.1686 203.781L58.1455 203.783L56.1807 209.829C56.1658 209.871 56.1373 209.929 56.094 209.987C56.038 210.061 55.971 210.113 55.8935 210.138L55.8125 210.154L54.5897 210.17C54.6429 210.128 54.6934 210.073 54.7416 210.006C54.7782 209.955 54.8108 209.901 54.8392 209.847C54.8564 209.815 54.8684 209.789 54.8779 209.766L55.8798 206.507L57.1744 202.331C57.9507 199.844 58.4594 198.257 58.5972 197.911C58.7312 197.574 58.9684 197.305 59.2806 197.095C59.46 196.974 59.653 196.881 59.8462 196.812L59.9119 196.789L59.9501 196.816L59.9845 196.766L60.0039 196.76C60.0438 196.749 60.0758 196.741 60.0981 196.737L95.997 190.814L96.1088 190.792C96.4159 190.732 96.781 190.676 96.86 190.67L127.79 189.149C127.917 189.15 128.031 189.167 128.131 189.196C128.166 189.206 128.194 189.215 128.216 189.224L128.248 189.238L139.6 194.909L139.337 195.477L140.331 195.45L140.499 195.201L140.568 195.095C140.593 195.056 140.61 195.028 140.621 195.006L140.625 194.997L140.752 194.922L154.056 188.028C154.074 188.013 154.126 187.986 154.223 187.957L154.325 187.984L154.34 187.927L154.359 187.923C154.475 187.899 154.613 187.882 154.777 187.872L168.218 187.157L181.207 186.479ZM35.8223 182.274L58.439 197.893L58.427 197.923C58.3006 198.265 57.9974 199.199 57.5509 200.614L56.5704 203.751L55.8753 205.997L54.7337 209.71C54.7123 209.76 54.6717 209.837 54.6166 209.914C54.5292 210.035 54.4401 210.101 54.3587 210.098L54.3318 210.095L54.3233 210.134L39.2242 204.901C39.1893 204.889 39.1388 204.862 39.0825 204.821L39.0245 204.774L38.9847 204.736C38.8767 204.629 38.7978 204.494 38.7584 204.325L38.7364 204.193L35.895 182.561L35.8837 182.52L35.8756 182.499L35.8652 182.467L35.8492 182.409C35.8381 182.364 35.8291 182.32 35.8223 182.274ZM90.9474 201.18L119.385 204.949L139.83 207.721L138.534 208.778L138.484 208.779L138.306 208.78L138.132 208.774L138.065 208.769L138.002 208.764L91.4538 203.209L58.3315 203.779L58.8715 201.947L58.9436 201.699L90.9474 201.18ZM149.084 207.058L148.692 208.034L148.504 208.064L148.454 208.069L138.798 208.763L140.046 207.745L149.084 207.058ZM170.938 196.485L169.838 198.287L165.383 200.308L165.395 200.332L148.873 207.999L149.286 206.972L170.938 196.485ZM180.429 187.748L186.849 191.04L185.006 194.092L185.001 194.066L171.192 196.194L171.115 196.23L171.099 196.222L171.084 196.245L149.163 206.865L149.161 206.865L149.072 206.909L140.024 207.594L119.403 204.796L90.9536 201.026L58.9895 201.544L59.1243 201.082L63.1626 201.049L63.1838 201.06L63.2249 201.071L67.2339 201.043L67.1855 201.015L69.4823 200.996L69.4867 200.999L69.5272 201.009L73.567 200.981L73.5329 200.962L76.1565 200.94L79.6585 200.917L79.6488 200.912L81.7991 200.894L81.8138 200.902L81.8555 200.913L85.7755 200.884L85.735 200.86L88.0891 200.841L88.0944 200.844L88.1272 200.851L91.5251 200.821L94.8202 201.258L94.8526 201.277L94.8829 201.287L99.9342 201.945L99.9161 201.934L103.059 202.352L103.069 202.356L103.978 202.474L111.038 203.411L111.041 203.413L111.071 203.423L113.751 203.771L118.824 204.445L118.828 204.447L118.858 204.457L121.674 204.823L131.382 206.113L131.384 206.115L131.386 206.113L136.201 206.752L147.235 206.056L147.23 206.111L147.371 206.041L152.402 203.631L152.388 203.652L153.383 203.16L157.751 201.066L157.94 200.978L157.934 200.987L158.208 200.851L158.415 200.748L159.538 200.21L159.528 200.227L161.25 199.39L161.395 199.32L161.449 199.294L163.112 198.497L163.11 198.502L163.522 198.301L164.893 197.644L164.89 197.648L165.12 197.541L165.702 197.268L165.729 197.243L166.595 196.828L166.571 196.869L168.139 196.093L168.472 196.025L168.683 195.982L169.728 195.81L169.716 195.829L170.945 195.624L170.94 195.632L171.103 195.598L171.114 195.596L171.482 195.52L172.484 195.354L172.48 195.361L173.859 195.131L174.302 195.072L174.339 195.048L176.588 194.676L176.882 194.634L176.894 194.626L177.799 194.477L177.793 194.485L179.053 194.28L179.046 194.293L179.431 194.207L180.658 194.005L180.648 194.02L181.877 193.815L181.873 193.823L182.035 193.789L182.045 193.787L182.329 193.728L183.916 193.466L183.968 193.43L185.465 190.841L184.501 190.319L184.507 190.308L184.158 190.11L184.156 190.108L184.095 190.074L184.094 190.076L183.26 189.635L183.254 189.647L182.584 189.286L182.596 189.267L182.238 189.083L182.197 189.062L181.315 188.597L181.313 188.601L179.789 187.779L180.429 187.748ZM127.785 190.602L139.248 196.113L139.278 196.121L140.201 196.161L140.238 196.153L147.495 192.46L146.593 205.646L135.871 206.275L127.173 190.629L127.785 190.602ZM157.659 188.843L147.632 205.739L147.409 205.849L147.422 205.697L157.386 188.856L157.659 188.843ZM158.513 188.801L148.816 205.183L147.875 205.633L157.844 188.834L158.513 188.801ZM157.201 188.865L147.438 205.366L147.528 203.224L155.993 188.923L157.201 188.865ZM159.876 188.737L150.665 204.285L149.078 205.042L158.698 188.793L159.876 188.737ZM160.365 188.713L151.308 203.981L150.915 204.167L160.06 188.727L160.365 188.713ZM161.25 188.67L152.54 203.397L151.556 203.869L151.683 203.653L155.119 197.863L160.551 188.703L161.25 188.67ZM162.594 188.605L154.372 202.496L152.962 203.196L152.791 203.277L161.437 188.661L162.594 188.605ZM163.103 188.581L155.015 202.194L154.621 202.38L162.779 188.596L163.103 188.581ZM163.957 188.539L156.194 201.646L155.255 202.096L155.298 202.022L163.289 188.571L163.957 188.539ZM165.301 188.475L158.079 200.74L156.459 201.502L164.143 188.53L165.301 188.475ZM183.757 196.162L180.461 201.623C180.39 201.63 180.314 201.634 180.235 201.636L180.121 201.634C179.548 201.618 177.714 201.459 174.956 201.194L174.62 201.162L170.38 200.744L169.034 200.608L167.685 200.471L165.822 200.279L169.964 198.398L183.757 196.162ZM181.441 186.553L187.851 189.885L187.871 190.017C187.894 190.183 187.906 190.349 187.907 190.503L187.907 190.537L187.906 190.569L187.904 190.624C187.887 190.737 187.044 192.153 185.703 194.331L185.552 194.576L184.458 196.343L184.053 196.994L183.64 197.656L182.52 199.446L181.519 201.04L181.505 201.068C181.483 201.128 181.412 201.231 181.272 201.339C181.118 201.457 180.916 201.546 180.659 201.595L187.067 190.979L180.531 187.627L181.441 186.553ZM154.951 188.972L147.645 200.934L147.653 200.708L147.661 200.443L154.68 188.985L154.951 188.972ZM165.79 188.451L159.394 199.251L158.69 200.439L158.332 200.615L165.486 188.466L165.79 188.451ZM166.503 188.416L159.676 199.977L158.934 200.332L165.977 188.442L166.503 188.416ZM154.492 188.994L147.68 200.117L147.795 198.067L152.906 189.705L154.281 189.005L154.492 188.994ZM167.897 188.35L161.539 199.076L160.458 199.602L159.928 199.856L166.69 188.408L167.897 188.35ZM168.357 188.328L162.152 198.773L161.794 198.95L168.083 188.34L168.357 188.328ZM36.6955 180.803L59.6246 196.591L59.6191 196.601L59.6967 196.641L59.7554 196.681L59.5887 196.748C59.4536 196.808 59.3206 196.881 59.1936 196.966C58.8898 197.17 58.6503 197.429 58.4991 197.748L35.8078 182.079C35.8082 181.846 35.8735 181.606 36.0297 181.376C36.1753 181.161 36.3939 180.969 36.6955 180.803ZM169.208 188.286L163.252 198.263L162.391 198.675L168.542 188.318L169.208 188.286ZM184.92 194.235L183.801 196.088L183.786 196.001L170.057 198.228L171.196 196.36L171.239 196.34L184.92 194.235ZM170.507 188.224L165.042 197.395L165.021 197.4L163.509 198.134L169.394 188.277L170.507 188.224ZM80.0891 165.453L96.768 190.525C96.6157 190.545 96.3304 190.591 96.0824 190.639L95.9612 190.663L77.9911 193.623L60.068 196.585L60.0158 196.597L59.9904 196.604L59.9352 196.619L59.8085 196.531L59.8103 196.527L59.7735 196.508L36.8516 180.724C36.8809 180.71 36.9109 180.696 36.9415 180.683L37.1349 180.604C37.3351 180.529 37.9483 180.309 38.9417 179.954L39.1603 179.876L79.7055 165.514L79.7206 165.513L79.8463 165.498L79.9335 165.485L79.9878 165.476L80.0326 165.467L80.0755 165.455C80.0782 165.454 80.0828 165.454 80.0891 165.453ZM170.965 188.202L165.621 197.126L165.287 197.288L170.694 188.214L170.965 188.202ZM171.724 188.166L166.735 196.593L165.873 197.006L171.151 188.193L171.724 188.166ZM172.895 188.109L168.233 195.902L168.194 195.909L168.179 195.909L168.145 195.917L168.113 195.932L166.986 196.473L171.91 188.156L172.895 188.109ZM151.031 190.659L148.697 194.512L147.913 195.805L147.929 195.316L150.654 190.851L151.031 190.659ZM173.308 188.089L168.653 195.829L168.566 195.847L168.434 195.869L173.081 188.1L173.308 188.089ZM174.384 188.038L169.831 195.638L168.853 195.799L169.044 195.48L170.668 192.779L173.494 188.081L174.384 188.038ZM139.786 194.876L140.274 195.258L140.247 195.298L139.582 195.316L139.786 194.876ZM175.505 187.984L171.059 195.435L170.031 195.604L174.57 188.029L175.505 187.984ZM131.144 187.513L140.523 194.877L140.485 194.899L140.486 194.943C140.486 194.937 140.469 194.961 140.446 194.996L140.359 195.129L131.117 187.899L131.067 187.963L131.062 187.959L131.144 187.513ZM175.918 187.964L172.031 194.443L171.478 195.363L171.398 195.378L171.258 195.402L175.691 187.975L175.918 187.964ZM176.931 187.916L172.587 195.182L171.678 195.332L176.104 187.956L176.931 187.916ZM150.39 190.985L147.947 194.988L148.063 192.909L148.699 191.846L150.39 190.985ZM178.071 187.861L173.815 194.979L172.788 195.148L177.116 187.907L178.071 187.861ZM132.256 181.973L153.982 187.89L153.97 187.899L140.676 194.786L140.664 194.793L131.175 187.343L132.105 183.154L132.133 183.126L132.116 183.108L132.301 182.269C132.302 182.264 132.302 182.264 132.304 182.25C132.311 182.165 132.299 182.07 132.256 181.973ZM178.464 187.842L176.85 190.551L174.339 194.763L174.254 194.906L174.016 194.946L178.256 187.853L178.464 187.842ZM179.324 187.801L175.16 194.756L174.455 194.872L178.651 187.833L179.324 187.801ZM122.724 182.695L122.841 182.753L130.938 188.055L139.068 194.471L128.316 189.1C128.288 189.086 128.239 189.066 128.17 189.047L128.11 189.032L128.154 188.993L122.724 182.695ZM179.505 187.8L179.544 187.82L180.219 188.192L176.423 194.544L175.364 194.716L179.505 187.8ZM180.354 188.267L180.385 188.284L180.497 188.348L176.825 194.481L176.621 194.515L180.354 188.267ZM180.64 188.412L181.234 188.732L177.903 194.302L177.027 194.447L177.044 194.417L178.272 192.367L180.64 188.412ZM181.372 188.806L182.065 189.18L179.163 194.094L178.102 194.269L181.372 188.806ZM182.201 189.254L182.369 189.344L179.553 194.021L179.4 194.054L179.363 194.061L182.201 189.254ZM182.505 189.418L183.175 189.779L180.762 193.83L179.749 193.997L182.505 189.418ZM183.312 189.853L184.005 190.226L181.989 193.628L180.961 193.797L183.312 189.853ZM184.142 190.299L184.286 190.378L183.011 192.537L182.409 193.554L182.317 193.572L182.189 193.594L184.142 190.299ZM184.423 190.452L185.252 190.899L183.853 193.319L182.607 193.525L183.659 191.743L184.423 190.452ZM80.3158 165.449L80.4682 165.45L80.9426 165.459L81.3389 165.471L81.3628 165.471L81.3636 165.47L81.4549 165.491C81.5249 165.508 81.5947 165.529 81.6589 165.553C81.7059 165.571 81.7477 165.589 81.7826 165.608L81.8298 165.636C81.9087 165.682 82.4038 165.893 83.2883 166.261L83.4838 166.342L88.209 168.281L92.0604 169.852L92.2651 169.779L122.142 182.412L122.315 182.493L122.45 182.558L122.424 182.58L127.964 189.006C127.934 189.002 127.903 188.999 127.872 188.997L127.788 188.994C127.69 188.993 124.755 189.135 119.492 189.394L96.9404 190.512L80.2708 165.449L80.3158 165.449ZM98.9562 167.383L101.846 168.763L98.6333 168.985L112.738 176.074C112.975 176.218 113.338 176.141 113.49 175.833C113.539 175.734 113.602 175.558 113.678 175.318L113.73 175.153C113.763 175.043 113.797 174.928 113.831 174.812L113.912 174.522L130.058 182.228L130.028 182.505C130.004 182.715 129.978 182.925 129.951 183.12L129.925 183.295C129.891 183.517 129.858 183.696 129.827 183.817C129.741 184.128 129.548 184.201 129.304 184.093L127.369 183.131L115.749 177.407C115.736 177.402 115.735 177.403 115.732 177.403C115.718 177.389 115.693 177.356 115.667 177.304C115.613 177.197 115.585 177.065 115.597 176.907C115.606 176.787 115.662 176.581 115.754 176.317C115.773 176.261 115.794 176.203 115.816 176.144C115.849 176.055 115.883 175.965 115.918 175.877L116.042 175.576L115.9 175.513L115.829 175.685C115.775 175.816 115.722 175.953 115.672 176.088L115.609 176.264L115.556 176.422C115.491 176.623 115.452 176.783 115.444 176.893C115.43 177.08 115.464 177.24 115.53 177.372C115.564 177.44 115.599 177.486 115.646 177.527L128.092 183.66C128.775 183.998 129.157 184.189 129.193 184.21C129.539 184.387 129.856 184.29 129.975 183.859C130.017 183.699 130.06 183.454 130.103 183.144C130.121 183.013 130.139 182.875 130.156 182.736L130.205 182.299L131.901 183.109L131.947 183.155L131.021 187.327L130.923 187.862L122.916 182.62L122.681 182.501L122.445 182.386L122.257 182.296L122.097 182.226L92.4776 169.702L98.9562 167.383ZM98.3532 165.116L180.707 186.35L154.99 187.705L154.89 187.712C154.878 187.713 154.869 187.713 154.862 187.714C154.597 187.723 154.386 187.753 154.222 187.796L132.176 181.841C132.126 181.776 132.061 181.717 131.983 181.665L131.921 181.629C131.837 181.579 130.108 180.754 126.996 179.278L110.942 171.681L97.3622 165.265L98.3532 165.116ZM97.091 165.306L127.253 179.57C130.149 180.944 131.769 181.716 131.847 181.763C131.938 181.812 132.006 181.87 132.055 181.934C132.125 182.026 132.152 182.12 132.152 182.2L132.15 182.239L131.985 182.984L99.1585 167.312L99.2829 167.267L97.359 166.411L97.0226 165.317L97.091 165.306ZM102.057 168.863L113.771 174.455L113.733 174.592C113.7 174.709 113.666 174.825 113.633 174.938L113.557 175.189L113.485 175.415C113.431 175.574 113.386 175.693 113.352 175.763C113.249 175.972 113.012 176.034 112.843 175.956L112.811 175.939L99.205 169.101L102.06 168.904L102.057 168.863Z" fill="#7C7C7C"/>
<path d="M133.047 203.271L134.527 206.376L136.203 206.598L147.249 205.907L147.271 205.663L147.375 203.196L147.385 203.16L155.807 188.931L155.139 188.964L147.474 201.513L147.507 200.417L147.643 198.037L147.654 198.001L152.641 189.839L151.293 190.525L149.344 193.744L147.742 196.388L147.775 195.29L147.911 192.879L147.921 192.844L148.439 191.978L147.632 192.389L147.668 192.393L146.75 205.807L135.776 206.45L126.987 190.636L122.524 190.835L127.77 193.601L127.808 193.64L129.295 196.762L118.902 191.006L118.861 191.008L116.891 191.093L130.391 198.478L130.428 198.517L131.916 201.61L113.307 191.261L113.268 191.262L111.384 191.345M131.464 205.969L134.496 206.371L107.884 191.511L107.766 191.518L105.895 191.599M132.907 203.366L111.061 191.36L110.993 191.364L108.199 191.497M126.837 205.354L131.023 205.91L105.579 191.613L105.461 191.619L102.607 191.751M126.45 205.303L102.29 191.767L102.172 191.772L100.012 191.855M123.059 204.834L99.6893 191.867L99.6206 191.871L96.7878 191.994M118.461 204.243L96.5218 192.037L96.4359 192.054L94.8856 192.299M115.272 203.8L94.6165 192.341L94.591 192.346L92.1761 192.731M110.674 203.209L91.9069 192.775L91.8581 192.783L90.1849 193.055M107.27 202.733L89.9178 193.099L89.8931 193.103L87.4334 193.496M102.684 202.148L87.1653 193.539L87.1599 193.54L85.343 193.845M96.7922 201.365L99.0837 201.664L85.079 193.889L85.0725 193.891L82.6355 194.279M59.6874 199.155C59.6594 199.252 59.6292 199.356 59.5971 199.467L59.1702 200.927M61.0936 197.84L60.4161 197.952L60.3458 197.963C60.2946 197.974 60.236 197.994 60.1781 198.027C60.0908 198.076 60.0259 198.144 59.99 198.236L59.9716 198.264L59.7432 198.995M69.1984 200.843L62.9365 197.485L61.3045 197.765M70.5322 200.833L72.9181 200.813L66.0066 196.992L63.2654 197.472M94.456 201.055L82.3684 194.322L82.3389 194.327L80.4591 194.628M75.3091 200.793L67.6484 196.72L66.2588 196.939M79.0058 200.752L70.7049 196.234L67.9388 196.685M81.5254 200.741L72.746 195.873L70.9544 196.179M85.113 200.712L75.4644 195.446L73.0293 195.84M130.289 198.613L116.568 191.107L116.525 191.109L113.625 191.245M87.7745 200.69L77.5173 195.109L77.4875 195.114L75.7184 195.393M91.1519 200.655L80.1879 194.671L80.1587 194.677L77.7864 195.065L88.0098 200.629M127.669 193.736L122.193 190.851L122.119 190.855L119.221 190.991M98.3332 164.806L96.8604 165.028L96.6241 165.064L97.1074 166.636L98.4537 167.234L92.0624 169.521L89.1973 168.354L85.7024 166.923C83.5612 166.044 82.1637 165.464 82.0107 165.388L81.9984 165.381L81.9468 165.349C81.8926 165.318 81.8306 165.29 81.7618 165.264C81.6857 165.236 81.6053 165.211 81.5251 165.191L81.4582 165.175L81.3926 165.164L80.9451 165.15L80.5554 165.142L80.3187 165.14C80.147 165.14 80.0386 165.145 79.9873 165.158C79.9724 165.163 79.9438 165.169 79.906 165.175L79.8428 165.185L79.7997 165.191L79.6504 165.209L79.6153 165.217L62.0317 171.437L44.3667 177.695C40.3357 179.126 37.8235 180.021 37.14 180.271L37.0813 180.293L36.9141 180.357C36.3794 180.574 36.0053 180.859 35.7748 181.199C35.4886 181.62 35.4486 182.07 35.5511 182.479L35.5674 182.539L35.583 182.589L35.5929 182.615L37.0109 193.369L38.4403 204.295C38.4829 204.566 38.6007 204.785 38.7704 204.954C38.8677 205.051 38.9653 205.117 39.0484 205.159L39.1263 205.193L54.355 210.471L54.4074 210.48L55.83 210.462C56.0473 210.448 56.217 210.34 56.3407 210.176C56.3992 210.098 56.4391 210.02 56.4633 209.957L56.4824 209.9L58.3714 204.088L91.4436 203.517L137.917 209.064L138.047 209.077L138.121 209.082C138.282 209.091 138.454 209.091 138.619 209.085L138.658 209.083L138.691 209.081L146.359 208.536C147.383 208.461 148.081 208.41 148.383 208.385L148.445 208.38L148.556 208.37L148.924 208.311L148.964 208.299L165.623 200.569L168.333 200.847L169.346 200.95L170.355 201.051L172.34 201.249L174.289 201.44C177.546 201.755 179.652 201.939 180.193 201.945L180.245 201.945L180.35 201.941C180.83 201.918 181.197 201.789 181.462 201.585C181.612 201.47 181.708 201.35 181.761 201.251L181.785 201.199L183.063 199.165C183.375 198.666 183.687 198.167 183.994 197.675L184.45 196.943L184.984 196.084L186.1 194.28C187.452 192.081 188.184 190.841 188.209 190.663C188.213 190.613 188.215 190.562 188.215 190.509C188.214 190.339 188.2 190.159 188.175 189.979C188.169 189.934 188.163 189.894 188.157 189.859L188.149 189.811L188.123 189.681L181.512 186.245L181.479 186.232L98.3944 164.809L98.3332 164.806ZM181.207 186.479L181.284 186.499L180.386 187.558L180.428 187.593L178.746 187.674L178.774 187.627L178.222 187.664L177.05 187.717L177.026 187.757L176.2 187.797L176.217 187.768L175.637 187.762L175.636 187.765L174.498 187.847L174.479 187.879L173.59 187.922L173.604 187.897L173.025 187.891L173.024 187.893L171.855 187.944L171.818 188.007L171.246 188.034L171.274 187.988L170.667 188.023L169.335 188.073L169.303 188.127L168.636 188.159L168.661 188.117L168.021 188.152L166.631 188.201L166.597 188.257L166.071 188.283L166.109 188.216L165.471 188.25L164.079 188.332L164.051 188.38L163.385 188.412L163.4 188.384L162.728 188.378L162.727 188.38L161.374 188.46L161.345 188.51L160.646 188.543L160.67 188.503L160.033 188.537L158.64 188.587L158.608 188.641L157.939 188.674L157.965 188.63L157.36 188.665L155.935 188.715L155.901 188.771L155.237 188.804L155.263 188.758L154.645 188.793L154.259 188.789L154.223 188.798L152.845 189.526L152.816 189.553L152.796 189.585L151.446 190.273L151.498 190.186L150.61 190.647L148.65 191.648L148.619 191.676L148.589 191.727L140.184 196.006L139.298 195.967L127.832 190.454L127.795 190.447L122.252 190.692L122.152 190.641L122.108 190.631L118.525 190.798L118.642 190.862L116.628 190.949L116.528 190.896L116.484 190.885L112.932 191.053L113.049 191.117L111.124 191.203L111.027 191.151L110.983 191.14L107.458 191.275L107.628 191.369L105.638 191.455L105.495 191.375L105.45 191.364L101.869 191.531L102.032 191.622L99.7526 191.71L99.6555 191.658L99.6108 191.647L96.7178 191.774L96.1402 191.826L96.3067 191.917L94.6665 192.177L94.5861 192.134L94.5318 192.124L91.5913 192.6L91.6878 192.653L89.9678 192.934L89.8879 192.891L89.8326 192.882L86.8967 193.39L86.9482 193.418L85.1249 193.724L85.0979 193.71L85.0435 193.7L82.1034 194.176L82.1503 194.201L80.2379 194.508L80.2149 194.496L80.1609 194.487L77.2485 194.964L77.2941 194.987L75.4706 195.276L75.4631 195.275L72.5222 195.751L72.5279 195.753L70.7097 196.063L70.7035 196.063L67.4183 196.599L67.4211 196.599L66.009 196.822L66.0043 196.821L65.9056 196.838L62.9659 197.323L61.0934 197.645L60.3939 197.761C60.3174 197.766 60.2079 197.792 60.0975 197.854C59.995 197.912 59.9131 197.992 59.8623 198.093L59.8425 198.138C59.837 198.149 59.8166 198.212 59.7888 198.301L59.7836 198.316C59.7658 198.367 59.746 198.426 59.7258 198.488L59.6953 198.582L59.5396 199.075L59.5484 199.08L59.0094 200.928L58.9474 200.929L58.9514 201.084L58.9645 201.083L58.9208 201.231L58.1686 203.781L58.1455 203.783L56.1807 209.829C56.1658 209.871 56.1373 209.929 56.094 209.987C56.038 210.061 55.971 210.113 55.8935 210.138L55.8125 210.154L54.5897 210.17C54.6429 210.128 54.6934 210.073 54.7416 210.006C54.7782 209.955 54.8108 209.901 54.8392 209.847C54.8564 209.815 54.8684 209.789 54.8779 209.766L55.8798 206.507L57.1744 202.331C57.9507 199.844 58.4594 198.257 58.5972 197.911C58.7312 197.574 58.9684 197.305 59.2806 197.095C59.46 196.974 59.653 196.881 59.8462 196.812L59.9119 196.789L59.9501 196.816L59.9845 196.766L60.0039 196.76C60.0438 196.749 60.0758 196.741 60.0981 196.737L95.997 190.814L96.1088 190.792C96.4159 190.732 96.781 190.676 96.86 190.67L127.79 189.149C127.917 189.15 128.031 189.167 128.131 189.196C128.166 189.206 128.194 189.215 128.216 189.224L128.248 189.238L139.6 194.909L139.337 195.477L140.331 195.45L140.499 195.201L140.568 195.095C140.593 195.056 140.61 195.028 140.621 195.006L140.625 194.997L140.752 194.922L154.056 188.028C154.074 188.013 154.126 187.986 154.223 187.957L154.325 187.984L154.34 187.927L154.359 187.923C154.475 187.899 154.613 187.882 154.777 187.872L168.218 187.157L181.207 186.479ZM35.8223 182.274L58.439 197.893L58.427 197.923C58.3006 198.265 57.9974 199.199 57.5509 200.614L56.5704 203.751L55.8753 205.997L54.7337 209.71C54.7123 209.76 54.6717 209.837 54.6166 209.914C54.5292 210.035 54.4401 210.101 54.3587 210.098L54.3318 210.095L54.3233 210.134L39.2242 204.901C39.1893 204.889 39.1388 204.862 39.0825 204.821L39.0245 204.774L38.9847 204.736C38.8767 204.629 38.7978 204.494 38.7584 204.325L38.7364 204.193L35.895 182.561L35.8837 182.52L35.8756 182.499L35.8652 182.467L35.8492 182.409C35.8381 182.364 35.8291 182.32 35.8223 182.274ZM90.9474 201.18L119.385 204.949L139.83 207.721L138.534 208.778L138.484 208.779L138.306 208.78L138.132 208.774L138.065 208.769L138.002 208.764L91.4538 203.209L58.3315 203.779L58.8715 201.947L58.9436 201.699L90.9474 201.18ZM149.084 207.058L148.692 208.034L148.504 208.064L148.454 208.069L138.798 208.763L140.046 207.745L149.084 207.058ZM170.938 196.485L169.838 198.287L165.383 200.308L165.395 200.332L148.873 207.999L149.286 206.972L170.938 196.485ZM180.429 187.748L186.849 191.04L185.006 194.092L185.001 194.066L171.192 196.194L171.115 196.23L171.099 196.222L171.084 196.245L149.163 206.865L149.161 206.865L149.072 206.909L140.024 207.594L119.403 204.796L90.9536 201.026L58.9895 201.544L59.1243 201.082L63.1626 201.049L63.1838 201.06L63.2249 201.071L67.2339 201.043L67.1855 201.015L69.4823 200.996L69.4867 200.999L69.5272 201.009L73.567 200.981L73.5329 200.962L76.1565 200.94L79.6585 200.917L79.6488 200.912L81.7991 200.894L81.8138 200.902L81.8555 200.913L85.7755 200.884L85.735 200.86L88.0891 200.841L88.0944 200.844L88.1272 200.851L91.5251 200.821L94.8202 201.258L94.8526 201.277L94.8829 201.287L99.9342 201.945L99.9161 201.934L103.059 202.352L103.069 202.356L103.978 202.474L111.038 203.411L111.041 203.413L111.071 203.423L113.751 203.771L118.824 204.445L118.828 204.447L118.858 204.457L121.674 204.823L131.382 206.113L131.384 206.115L131.386 206.113L136.201 206.752L147.235 206.056L147.23 206.111L147.371 206.041L152.402 203.631L152.388 203.652L153.383 203.16L157.751 201.066L157.94 200.978L157.934 200.987L158.208 200.851L158.415 200.748L159.538 200.21L159.528 200.227L161.25 199.39L161.395 199.32L161.449 199.294L163.112 198.497L163.11 198.502L163.522 198.301L164.893 197.644L164.89 197.648L165.12 197.541L165.702 197.268L165.729 197.243L166.595 196.828L166.571 196.869L168.139 196.093L168.472 196.025L168.683 195.982L169.728 195.81L169.716 195.829L170.945 195.624L170.94 195.632L171.103 195.598L171.114 195.596L171.482 195.52L172.484 195.354L172.48 195.361L173.859 195.131L174.302 195.072L174.339 195.048L176.588 194.676L176.882 194.634L176.894 194.626L177.799 194.477L177.793 194.485L179.053 194.28L179.046 194.293L179.431 194.207L180.658 194.005L180.648 194.02L181.877 193.815L181.873 193.823L182.035 193.789L182.045 193.787L182.329 193.728L183.916 193.466L183.968 193.43L185.465 190.841L184.501 190.319L184.507 190.308L184.158 190.11L184.156 190.108L184.095 190.074L184.094 190.076L183.26 189.635L183.254 189.647L182.584 189.286L182.596 189.267L182.238 189.083L182.197 189.062L181.315 188.597L181.313 188.601L179.789 187.779L180.429 187.748ZM127.785 190.602L139.248 196.113L139.278 196.121L140.201 196.161L140.238 196.153L147.495 192.46L146.593 205.646L135.871 206.275L127.173 190.629L127.785 190.602ZM157.659 188.843L147.632 205.739L147.409 205.849L147.422 205.697L157.386 188.856L157.659 188.843ZM158.513 188.801L148.816 205.183L147.875 205.633L157.844 188.834L158.513 188.801ZM157.201 188.865L147.438 205.366L147.528 203.224L155.993 188.923L157.201 188.865ZM159.876 188.737L150.665 204.285L149.078 205.042L158.698 188.793L159.876 188.737ZM160.365 188.713L151.308 203.981L150.915 204.167L160.06 188.727L160.365 188.713ZM161.25 188.67L152.54 203.397L151.556 203.869L151.683 203.653L155.119 197.863L160.551 188.703L161.25 188.67ZM162.594 188.605L154.372 202.496L152.962 203.196L152.791 203.277L161.437 188.661L162.594 188.605ZM163.103 188.581L155.015 202.194L154.621 202.38L162.779 188.596L163.103 188.581ZM163.957 188.539L156.194 201.646L155.255 202.096L155.298 202.022L163.289 188.571L163.957 188.539ZM165.301 188.475L158.079 200.74L156.459 201.502L164.143 188.53L165.301 188.475ZM183.757 196.162L180.461 201.623C180.39 201.63 180.314 201.634 180.235 201.636L180.121 201.634C179.548 201.618 177.714 201.459 174.956 201.194L174.62 201.162L170.38 200.744L169.034 200.608L167.685 200.471L165.822 200.279L169.964 198.398L183.757 196.162ZM181.441 186.553L187.851 189.885L187.871 190.017C187.894 190.183 187.906 190.349 187.907 190.503L187.907 190.537L187.906 190.569L187.904 190.624C187.887 190.737 187.044 192.153 185.703 194.331L185.552 194.576L184.458 196.343L184.053 196.994L183.64 197.656L182.52 199.446L181.519 201.04L181.505 201.068C181.483 201.128 181.412 201.231 181.272 201.339C181.118 201.457 180.916 201.546 180.659 201.595L187.067 190.979L180.531 187.627L181.441 186.553ZM154.951 188.972L147.645 200.934L147.653 200.708L147.661 200.443L154.68 188.985L154.951 188.972ZM165.79 188.451L159.394 199.251L158.69 200.439L158.332 200.615L165.486 188.466L165.79 188.451ZM166.503 188.416L159.676 199.977L158.934 200.332L165.977 188.442L166.503 188.416ZM154.492 188.994L147.68 200.117L147.795 198.067L152.906 189.705L154.281 189.005L154.492 188.994ZM167.897 188.35L161.539 199.076L160.458 199.602L159.928 199.856L166.69 188.408L167.897 188.35ZM168.357 188.328L162.152 198.773L161.794 198.95L168.083 188.34L168.357 188.328ZM36.6955 180.803L59.6246 196.591L59.6191 196.601L59.6967 196.641L59.7554 196.681L59.5887 196.748C59.4536 196.808 59.3206 196.881 59.1936 196.966C58.8898 197.17 58.6503 197.429 58.4991 197.748L35.8078 182.079C35.8082 181.846 35.8735 181.606 36.0297 181.376C36.1753 181.161 36.3939 180.969 36.6955 180.803ZM169.208 188.286L163.252 198.263L162.391 198.675L168.542 188.318L169.208 188.286ZM184.92 194.235L183.801 196.088L183.786 196.001L170.057 198.228L171.196 196.36L171.239 196.34L184.92 194.235ZM170.507 188.224L165.042 197.395L165.021 197.4L163.509 198.134L169.394 188.277L170.507 188.224ZM80.0891 165.453L96.768 190.525C96.6157 190.545 96.3304 190.591 96.0824 190.639L95.9612 190.663L77.9911 193.623L60.068 196.585L60.0158 196.597L59.9904 196.604L59.9352 196.619L59.8085 196.531L59.8103 196.527L59.7735 196.508L36.8516 180.724C36.8809 180.71 36.9109 180.696 36.9415 180.683L37.1349 180.604C37.3351 180.529 37.9483 180.309 38.9417 179.954L39.1603 179.876L79.7055 165.514L79.7206 165.513L79.8463 165.498L79.9335 165.485L79.9878 165.476L80.0326 165.467L80.0755 165.455C80.0782 165.454 80.0828 165.454 80.0891 165.453ZM170.965 188.202L165.621 197.126L165.287 197.288L170.694 188.214L170.965 188.202ZM171.724 188.166L166.735 196.593L165.873 197.006L171.151 188.193L171.724 188.166ZM172.895 188.109L168.233 195.902L168.194 195.909L168.179 195.909L168.145 195.917L168.113 195.932L166.986 196.473L171.91 188.156L172.895 188.109ZM151.031 190.659L148.697 194.512L147.913 195.805L147.929 195.316L150.654 190.851L151.031 190.659ZM173.308 188.089L168.653 195.829L168.566 195.847L168.434 195.869L173.081 188.1L173.308 188.089ZM174.384 188.038L169.831 195.638L168.853 195.799L169.044 195.48L170.668 192.779L173.494 188.081L174.384 188.038ZM139.786 194.876L140.274 195.258L140.247 195.298L139.582 195.316L139.786 194.876ZM175.505 187.984L171.059 195.435L170.031 195.604L174.57 188.029L175.505 187.984ZM131.144 187.513L140.523 194.877L140.485 194.899L140.486 194.943C140.486 194.937 140.469 194.961 140.446 194.996L140.359 195.129L131.117 187.899L131.067 187.963L131.062 187.959L131.144 187.513ZM175.918 187.964L172.031 194.443L171.478 195.363L171.398 195.378L171.258 195.402L175.691 187.975L175.918 187.964ZM176.931 187.916L172.587 195.182L171.678 195.332L176.104 187.956L176.931 187.916ZM150.39 190.985L147.947 194.988L148.063 192.909L148.699 191.846L150.39 190.985ZM178.071 187.861L173.815 194.979L172.788 195.148L177.116 187.907L178.071 187.861ZM132.256 181.973L153.982 187.89L153.97 187.899L140.676 194.786L140.664 194.793L131.175 187.343L132.105 183.154L132.133 183.126L132.116 183.108L132.301 182.269C132.302 182.264 132.302 182.264 132.304 182.25C132.311 182.165 132.299 182.07 132.256 181.973ZM178.464 187.842L176.85 190.551L174.339 194.763L174.254 194.906L174.016 194.946L178.256 187.853L178.464 187.842ZM179.324 187.801L175.16 194.756L174.455 194.872L178.651 187.833L179.324 187.801ZM122.724 182.695L122.841 182.753L130.938 188.055L139.068 194.471L128.316 189.1C128.288 189.086 128.239 189.066 128.17 189.047L128.11 189.032L128.154 188.993L122.724 182.695ZM179.505 187.8L179.544 187.82L180.219 188.192L176.423 194.544L175.364 194.716L179.505 187.8ZM180.354 188.267L180.385 188.284L180.497 188.348L176.825 194.481L176.621 194.515L180.354 188.267ZM180.64 188.412L181.234 188.732L177.903 194.302L177.027 194.447L177.044 194.417L178.272 192.367L180.64 188.412ZM181.372 188.806L182.065 189.18L179.163 194.094L178.102 194.269L181.372 188.806ZM182.201 189.254L182.369 189.344L179.553 194.021L179.4 194.054L179.363 194.061L182.201 189.254ZM182.505 189.418L183.175 189.779L180.762 193.83L179.749 193.997L182.505 189.418ZM183.312 189.853L184.005 190.226L181.989 193.628L180.961 193.797L183.312 189.853ZM184.142 190.299L184.286 190.378L183.011 192.537L182.409 193.554L182.317 193.572L182.189 193.594L184.142 190.299ZM184.423 190.452L185.252 190.899L183.853 193.319L182.607 193.525L183.659 191.743L184.423 190.452ZM80.3158 165.449L80.4682 165.45L80.9426 165.459L81.3389 165.471L81.3628 165.471L81.3636 165.47L81.4549 165.491C81.5249 165.508 81.5947 165.529 81.6589 165.553C81.7059 165.571 81.7477 165.589 81.7826 165.608L81.8298 165.636C81.9087 165.682 82.4038 165.893 83.2883 166.261L83.4838 166.342L88.209 168.281L92.0604 169.852L92.2651 169.779L122.142 182.412L122.315 182.493L122.45 182.558L122.424 182.58L127.964 189.006C127.934 189.002 127.903 188.999 127.872 188.997L127.788 188.994C127.69 188.993 124.755 189.135 119.492 189.394L96.9404 190.512L80.2708 165.449L80.3158 165.449ZM98.9562 167.383L101.846 168.763L98.6333 168.985L112.738 176.074C112.975 176.218 113.338 176.141 113.49 175.833C113.539 175.734 113.602 175.558 113.678 175.318L113.73 175.153C113.763 175.043 113.797 174.928 113.831 174.812L113.912 174.522L130.058 182.228L130.028 182.505C130.004 182.715 129.978 182.925 129.951 183.12L129.925 183.295C129.891 183.517 129.858 183.696 129.827 183.817C129.741 184.128 129.548 184.201 129.304 184.093L127.369 183.131L115.749 177.407C115.736 177.402 115.735 177.403 115.732 177.403C115.718 177.389 115.693 177.356 115.667 177.304C115.613 177.197 115.585 177.065 115.597 176.907C115.606 176.787 115.662 176.581 115.754 176.317C115.773 176.261 115.794 176.203 115.816 176.144C115.849 176.055 115.883 175.965 115.918 175.877L116.042 175.576L115.9 175.513L115.829 175.685C115.775 175.816 115.722 175.953 115.672 176.088L115.609 176.264L115.556 176.422C115.491 176.623 115.452 176.783 115.444 176.893C115.43 177.08 115.464 177.24 115.53 177.372C115.564 177.44 115.599 177.486 115.646 177.527L128.092 183.66C128.775 183.998 129.157 184.189 129.193 184.21C129.539 184.387 129.856 184.29 129.975 183.859C130.017 183.699 130.06 183.454 130.103 183.144C130.121 183.013 130.139 182.875 130.156 182.736L130.205 182.299L131.901 183.109L131.947 183.155L131.021 187.327L130.923 187.862L122.916 182.62L122.681 182.501L122.445 182.386L122.257 182.296L122.097 182.226L92.4776 169.702L98.9562 167.383ZM98.3532 165.116L180.707 186.35L154.99 187.705L154.89 187.712C154.878 187.713 154.869 187.713 154.862 187.714C154.597 187.723 154.386 187.753 154.222 187.796L132.176 181.841C132.126 181.776 132.061 181.717 131.983 181.665L131.921 181.629C131.837 181.579 130.108 180.754 126.996 179.278L110.942 171.681L97.3622 165.265L98.3532 165.116ZM97.091 165.306L127.253 179.57C130.149 180.944 131.769 181.716 131.847 181.763C131.938 181.812 132.006 181.87 132.055 181.934C132.125 182.026 132.152 182.12 132.152 182.2L132.15 182.239L131.985 182.984L99.1585 167.312L99.2829 167.267L97.359 166.411L97.0226 165.317L97.091 165.306ZM102.057 168.863L113.771 174.455L113.733 174.592C113.7 174.709 113.666 174.825 113.633 174.938L113.557 175.189L113.485 175.415C113.431 175.574 113.386 175.693 113.352 175.763C113.249 175.972 113.012 176.034 112.843 175.956L112.811 175.939L99.205 169.101L102.06 168.904L102.057 168.863Z" stroke="#A4A4A4" stroke-width="0.2"/>
<path d="M60.0773 198.055L59.3842 200.831L91.1681 200.493L135.39 206.212L126.804 190.823L97.1313 191.925L60.0773 198.055Z" fill="#2A2A2A"/>
<path d="M168.118 195.958L147.325 205.911L147.685 192.419L154.152 189.05L179.491 187.721L185.266 190.838L183.866 193.329L168.118 195.958Z" fill="#2A2A2A"/>
<path d="M98.7962 167.175L92.3038 169.663L122.565 182.434L130.955 187.896L131.966 183.082L98.7962 167.175Z" fill="#202020"/>
<path d="M169.992 198.388L165.675 200.293L173.101 201.015L180.526 201.69L183.776 196.111L169.992 198.388Z" fill="#262626"/>
<g filter="url(#filter6_b_1355_11150)">
<path fill-rule="evenodd" clip-rule="evenodd" d="M219.458 110.753C207.779 112.76 195.128 114.934 188.555 115.145C188.555 115.15 188.556 115.155 188.556 115.16C188.509 115.165 188.463 115.171 188.416 115.177C184.523 115.707 181.647 121.062 180.099 129.378C181.521 129.349 182.882 129.115 184.294 128.834C185.782 123.954 187.972 120.92 190.725 120.545C195.783 119.856 201.41 128.326 205.426 141.327C206.818 146.04 207.954 151.321 208.719 156.937C209.71 164.218 210.47 170.349 210.761 175.869C210.978 191.749 207.71 203.472 202.12 204.233C200.076 204.511 197.939 203.294 195.853 200.886C194.681 201.803 193.429 202.667 192.185 203.33C194.876 207.477 197.71 209.908 200.426 210.058C200.425 210.058 200.425 210.059 200.425 210.059C200.425 210.059 200.426 210.059 200.43 210.059C200.559 210.066 200.688 210.068 200.817 210.064C201.726 210.077 203.982 210.106 204.997 210.091C210.259 210.015 222.014 204.091 231.501 198.5C241.702 192.487 248.627 187.545 255.859 182.383C256.733 181.759 257.612 181.132 258.501 180.5C266.749 174.633 273.001 169 280.642 161.047C288.284 153.095 285.059 141.242 279.501 124C272.112 101.084 270.635 101.313 263.221 102.466C263.148 102.477 263.074 102.488 263.001 102.5C259.204 103.089 254.79 104.033 249.816 105.096C243.909 106.36 237.211 107.792 229.817 109C226.597 109.526 223.074 110.131 219.458 110.753Z" fill="#D7E1F8" fill-opacity="0.3"/>
</g>
<rect x="303.2" y="85" width="8" height="8" transform="rotate(52 303.2 85)" fill="white" fill-opacity="0.6"/>
<rect x="316.202" y="85.2" width="8" height="8" transform="rotate(48 316.202 85.2)" fill="white" fill-opacity="0.6"/>
<rect x="326.5" y="87.8" width="8" height="8" transform="rotate(45 326.5 87.8)" fill="white" fill-opacity="0.6"/>
</g>
<path fill-rule="evenodd" clip-rule="evenodd" d="M89.7622 75.611C78.4304 77.4058 67.3212 83.6197 58.8142 92.9089L55.7979 90.1219C65.2004 79.8549 77.479 72.9869 90.0037 71.0032C102.359 69.0463 113.968 71.9984 122.415 79.216L119.087 83.0416C111.444 76.5114 100.94 73.8405 89.7622 75.611ZM88.6534 93.1509C82.0056 94.2038 75.4902 97.8836 70.5404 103.381L67.4887 100.633C73.3384 94.1363 81.0384 89.7874 88.8949 88.543C96.6772 87.3105 103.981 89.2241 109.232 93.8645L105.862 97.6536C101.419 93.7272 95.2384 92.1079 88.6534 93.1509ZM87.685 109.115C85.2676 109.498 82.8984 110.836 81.0985 112.835L87.202 118.331L93.9886 110.794C92.3698 109.336 90.1024 108.732 87.685 109.115Z" fill="#00F0FF"/>
</g>
<defs>
<filter id="filter0_i_1355_11150" x="-357.082" y="-510.447" width="820.59" height="510.725" filterUnits="userSpaceOnUse" color-interpolation-filters="sRGB">
<feFlood flood-opacity="0" result="BackgroundImageFix"/>
<feBlend mode="normal" in="SourceGraphic" in2="BackgroundImageFix" result="shape"/>
<feColorMatrix in="SourceAlpha" type="matrix" values="0 0 0 0 0 0 0 0 0 0 0 0 0 0 0 0 0 0 127 0" result="hardAlpha"/>
<feOffset dy="1.80553"/>
<feGaussianBlur stdDeviation="37.0134"/>
<feComposite in2="hardAlpha" operator="arithmetic" k2="-1" k3="1"/>
<feColorMatrix type="matrix" values="0 0 0 0 0.541667 0 0 0 0 0.89 0 0 0 0 1 0 0 0 1 0"/>
<feBlend mode="normal" in2="shape" result="effect1_innerShadow_1355_11150"/>
</filter>
<filter id="filter1_i_1355_11150" x="-273.654" y="50.9368" width="764.653" height="591.229" filterUnits="userSpaceOnUse" color-interpolation-filters="sRGB">
<feFlood flood-opacity="0" result="BackgroundImageFix"/>
<feBlend mode="normal" in="SourceGraphic" in2="BackgroundImageFix" result="shape"/>
<feColorMatrix in="SourceAlpha" type="matrix" values="0 0 0 0 0 0 0 0 0 0 0 0 0 0 0 0 0 0 127 0" result="hardAlpha"/>
<feOffset dy="2.09269"/>
<feGaussianBlur stdDeviation="65.3965"/>
<feComposite in2="hardAlpha" operator="arithmetic" k2="-1" k3="1"/>
<feColorMatrix type="matrix" values="0 0 0 0 0 0 0 0 0 0.396863 0 0 0 0 0.992157 0 0 0 0.72 0"/>
<feBlend mode="normal" in2="shape" result="effect1_innerShadow_1355_11150"/>
</filter>
<filter id="filter2_i_1355_11150" x="-33.0029" y="44.7869" width="548.054" height="341.482" filterUnits="userSpaceOnUse" color-interpolation-filters="sRGB">
<feFlood flood-opacity="0" result="BackgroundImageFix"/>
<feBlend mode="normal" in="SourceGraphic" in2="BackgroundImageFix" result="shape"/>
<feColorMatrix in="SourceAlpha" type="matrix" values="0 0 0 0 0 0 0 0 0 0 0 0 0 0 0 0 0 0 127 0" result="hardAlpha"/>
<feOffset dy="14.2198"/>
<feGaussianBlur stdDeviation="5"/>
<feComposite in2="hardAlpha" operator="arithmetic" k2="-1" k3="1"/>
<feColorMatrix type="matrix" values="0 0 0 0 1 0 0 0 0 1 0 0 0 0 1 0 0 0 1 0"/>
<feBlend mode="normal" in2="shape" result="effect1_innerShadow_1355_11150"/>
</filter>
<filter id="filter3_i_1355_11150" x="-41.0435" y="47.5" width="405.958" height="389.354" filterUnits="userSpaceOnUse" color-interpolation-filters="sRGB">
<feFlood flood-opacity="0" result="BackgroundImageFix"/>
<feBlend mode="normal" in="SourceGraphic" in2="BackgroundImageFix" result="shape"/>
<feColorMatrix in="SourceAlpha" type="matrix" values="0 0 0 0 0 0 0 0 0 0 0 0 0 0 0 0 0 0 127 0" result="hardAlpha"/>
<feOffset dy="14.2198"/>
<feGaussianBlur stdDeviation="12.195"/>
<feComposite in2="hardAlpha" operator="arithmetic" k2="-1" k3="1"/>
<feColorMatrix type="matrix" values="0 0 0 0 1 0 0 0 0 1 0 0 0 0 1 0 0 0 0.5 0"/>
<feBlend mode="normal" in2="shape" result="effect1_innerShadow_1355_11150"/>
</filter>
<filter id="filter4_f_1355_11150" x="283" y="26.7471" width="139.565" height="84.2529" filterUnits="userSpaceOnUse" color-interpolation-filters="sRGB">
<feFlood flood-opacity="0" result="BackgroundImageFix"/>
<feBlend mode="normal" in="SourceGraphic" in2="BackgroundImageFix" result="shape"/>
<feGaussianBlur stdDeviation="2" result="effect1_foregroundBlur_1355_11150"/>
</filter>
<filter id="filter5_f_1355_11150" x="-23.3706" y="188.144" width="236.467" height="31.731" filterUnits="userSpaceOnUse" color-interpolation-filters="sRGB">
<feFlood flood-opacity="0" result="BackgroundImageFix"/>
<feBlend mode="normal" in="SourceGraphic" in2="BackgroundImageFix" result="shape"/>
<feGaussianBlur stdDeviation="2" result="effect1_foregroundBlur_1355_11150"/>
</filter>
<filter id="filter6_b_1355_11150" x="170.099" y="92.061" width="125.054" height="128.034" filterUnits="userSpaceOnUse" color-interpolation-filters="sRGB">
<feFlood flood-opacity="0" result="BackgroundImageFix"/>
<feGaussianBlur in="BackgroundImageFix" stdDeviation="5"/>
<feComposite in2="SourceAlpha" operator="in" result="effect1_backgroundBlur_1355_11150"/>
<feBlend mode="normal" in="SourceGraphic" in2="effect1_backgroundBlur_1355_11150" result="shape"/>
</filter>
<radialGradient id="paint0_radial_1355_11150" cx="0" cy="0" r="1" gradientUnits="userSpaceOnUse" gradientTransform="translate(127 -61.0001) rotate(70.0386) scale(225.55 305.924)">
<stop offset="0.611468" stop-color="#EEFAFF"/>
<stop offset="1" stop-color="#9AE6FF"/>
</radialGradient>
<radialGradient id="paint1_radial_1355_11150" cx="0" cy="0" r="1" gradientUnits="userSpaceOnUse" gradientTransform="translate(-273.717 -384.913) rotate(44.3285) scale(502.627 704.389)">
<stop offset="0.718909" stop-color="#4092F1"/>
<stop offset="1" stop-color="#4579FF"/>
</radialGradient>
<radialGradient id="paint2_radial_1355_11150" cx="0" cy="0" r="1" gradientUnits="userSpaceOnUse" gradientTransform="translate(213.125 -73) rotate(71.7667) scale(336.916 573.236)">
<stop offset="0.761025" stop-color="#D9D9D9"/>
<stop offset="0.86322" stop-color="#A9A9A9" stop-opacity="0.64"/>
<stop offset="0.958111" stop-color="#737373" stop-opacity="0"/>
</radialGradient>
<radialGradient id="paint3_radial_1355_11150" cx="0" cy="0" r="1" gradientUnits="userSpaceOnUse" gradientTransform="translate(168.251 -13) rotate(64.3082) scale(368.423 624.594)">
<stop stop-color="#3484CF"/>
<stop offset="0.471472" stop-color="#041423"/>
<stop offset="0.913317" stop-color="#071D32"/>
</radialGradient>
<linearGradient id="paint4_linear_1355_11150" x1="376.999" y1="81.0007" x2="-7.00349" y2="164.249" gradientUnits="userSpaceOnUse">
<stop stop-color="#E2A4FF"/>
<stop offset="1" stop-color="#217ACC"/>
</linearGradient>
<radialGradient id="paint5_radial_1355_11150" cx="0" cy="0" r="1" gradientUnits="userSpaceOnUse" gradientTransform="translate(292.046 268.726) rotate(-110.108) scale(155.773 226.096)">
<stop stop-color="#4200FD" stop-opacity="0.64"/>
<stop offset="1" stop-color="#00FDEE"/>
</radialGradient>
<radialGradient id="paint6_radial_1355_11150" cx="0" cy="0" r="1" gradientUnits="userSpaceOnUse" gradientTransform="translate(301.232 187.12) rotate(-127.181) scale(151.224 372.877)">
<stop stop-color="#4200FD" stop-opacity="0.64"/>
<stop offset="1" stop-color="#00FDEE"/>
</radialGradient>
<clipPath id="clip0_1355_11150">
<rect width="440" height="280" fill="white"/>
</clipPath>
</defs>
</svg>
