<svg width="484" height="188" viewBox="0 0 484 188" fill="none" xmlns="http://www.w3.org/2000/svg">
<path fill-rule="evenodd" clip-rule="evenodd" d="M197.411 93.7149C197.324 71.4299 187.06 53.4118 174.412 53.4118C161.709 53.4118 151.412 71.5838 151.412 94.0001C151.412 116.416 161.709 134.588 174.412 134.588C187.06 134.588 197.324 116.571 197.411 94.2863C197.325 119.56 185.849 140 171.706 140C157.509 140 146 119.405 146 94C146 68.5949 157.509 48 171.706 48C185.85 48 197.326 68.441 197.411 93.7149Z" fill="#248DFF"/>
<rect x="256" y="73" width="198" height="42" fill="url(#paint0_linear_666_24883)"/>
<g style="mix-blend-mode:color-burn">
<rect x="279.375" y="73" width="115.5" height="15.75" fill="url(#paint1_linear_666_24883)"/>
</g>
<g style="mix-blend-mode:color-burn">
<rect x="263.625" y="86.125" width="162.75" height="15.75" fill="url(#paint2_linear_666_24883)"/>
</g>
<g style="mix-blend-mode:color-burn">
<rect x="221.625" y="99.25" width="231" height="15.75" fill="url(#paint3_linear_666_24883)"/>
</g>
<g style="mix-blend-mode:color-burn">
<rect x="379.125" y="73" width="15.75" height="15.75" fill="#030303" fill-opacity="0.1"/>
</g>
<g style="mix-blend-mode:color-burn">
<rect x="410.625" y="86.125" width="15.75" height="15.75" fill="#030303" fill-opacity="0.1"/>
</g>
<g style="mix-blend-mode:color-burn">
<rect x="436.875" y="99.25" width="15.75" height="15.75" fill="#030303" fill-opacity="0.1"/>
</g>
<path fill-rule="evenodd" clip-rule="evenodd" d="M111.5 92C116.747 92 121 84.3888 121 75C121 65.6112 116.747 58 111.5 58C106.253 58 102 65.6112 102 75C102 84.3888 106.253 92 111.5 92ZM112.5 90C117.194 90 121 83.2843 121 75C121 66.7157 117.194 60 112.5 60C107.806 60 104 66.7157 104 75C104 83.2843 107.806 90 112.5 90Z" fill="#61ADFF"/>
<rect x="58" y="67" width="88" height="16" fill="url(#paint4_linear_666_24883)"/>
<g style="mix-blend-mode:color-burn">
<rect x="58" y="67" width="44" height="6" fill="url(#paint5_linear_666_24883)"/>
</g>
<g style="mix-blend-mode:color-burn">
<rect x="52" y="72" width="62" height="6" fill="url(#paint6_linear_666_24883)"/>
</g>
<g style="mix-blend-mode:color-burn">
<rect x="36" y="77" width="88" height="6" fill="url(#paint7_linear_666_24883)"/>
</g>
<g style="mix-blend-mode:color-burn">
<rect x="96" y="67" width="6" height="6" fill="#030303" fill-opacity="0.1"/>
</g>
<g style="mix-blend-mode:color-burn">
<rect x="108" y="72" width="6" height="6" fill="#030303" fill-opacity="0.1"/>
</g>
<g style="mix-blend-mode:color-burn">
<rect x="118" y="77" width="6" height="6" fill="#030303" fill-opacity="0.1"/>
</g>
<path fill-rule="evenodd" clip-rule="evenodd" d="M234 58H111V60.2328C111.487 60.0798 111.988 60 112.5 60C117.194 60 121 66.7157 121 75C121 83.2843 117.194 90 112.5 90C111.988 90 111.487 89.9202 111 89.7672V92H234V58Z" fill="#61ADFF"/>
<path fill-rule="evenodd" clip-rule="evenodd" d="M111.5 130C116.747 130 121 122.389 121 113C121 103.611 116.747 96 111.5 96C106.253 96 102 103.611 102 113C102 122.389 106.253 130 111.5 130ZM112.5 128C117.194 128 121 121.284 121 113C121 104.716 117.194 98 112.5 98C107.806 98 104 104.716 104 113C104 121.284 107.806 128 112.5 128Z" fill="#7EEBC6"/>
<rect x="32" y="105" width="114" height="16" fill="url(#paint8_linear_666_24883)"/>
<g style="mix-blend-mode:color-burn">
<rect x="58" y="105" width="44" height="6" fill="url(#paint9_linear_666_24883)"/>
</g>
<g style="mix-blend-mode:color-burn">
<rect x="52" y="110" width="62" height="6" fill="url(#paint10_linear_666_24883)"/>
</g>
<g style="mix-blend-mode:color-burn">
<rect x="36" y="115" width="88" height="6" fill="url(#paint11_linear_666_24883)"/>
</g>
<g style="mix-blend-mode:color-burn">
<rect x="96" y="105" width="6" height="6" fill="#030303" fill-opacity="0.1"/>
</g>
<g style="mix-blend-mode:color-burn">
<rect x="108" y="110" width="6" height="6" fill="#030303" fill-opacity="0.1"/>
</g>
<g style="mix-blend-mode:color-burn">
<rect x="118" y="115" width="6" height="6" fill="#030303" fill-opacity="0.1"/>
</g>
<path fill-rule="evenodd" clip-rule="evenodd" d="M234 96H111V98.2328C111.487 98.0798 111.988 98 112.5 98C117.194 98 121 104.716 121 113C121 121.284 117.194 128 112.5 128C111.988 128 111.487 127.92 111 127.767V130H234V96Z" fill="#7EEBC6"/>
<path d="M170.353 48H315.601V48.0626C316.049 48.021 316.5 48 316.954 48C331.151 48 342.66 68.5949 342.66 94C342.66 119.405 331.151 140 316.954 140C316.5 140 316.049 139.979 315.601 139.937V140H170.353V133.958C171.671 134.372 173.027 134.588 174.412 134.588C187.114 134.588 197.412 116.416 197.412 94.0001C197.412 71.5838 187.114 53.4118 174.412 53.4118C173.027 53.4118 171.671 53.6279 170.353 54.0418V48Z" fill="#248DFF"/>
<path d="M8.5 61H15.5V99H27.5V61H34.5V99H45.5V61H52.5V99H64.5V61H71.5V99H80V109L71.5 120.5H8.5L0 109V99H8.5V61Z" fill="#CCCCCC"/>
<rect x="446" y="59" width="38" height="65" rx="8" fill="#B3B3B3"/>
<path d="M448 69C448 65.6863 450.686 63 454 63H476C479.314 63 482 65.6863 482 69V112C482 115.314 479.314 118 476 118H454C450.686 118 448 115.314 448 112V69Z" fill="#F5F5F5"/>
<path d="M166.823 68.8182V79.0001H165.59V70.1109H165.53L163.044 71.7614V70.5086L165.59 68.8182H166.823Z" fill="black"/>
<path d="M152.304 76.216L152.284 74.7643H152.523L155.864 71.3637H157.316L153.756 74.9631H153.656L152.304 76.216ZM151.21 79.0001V68.8182H152.384V79.0001H151.21ZM156.063 79.0001L153.08 75.2216L153.915 74.4063L157.554 79.0001H156.063Z" fill="black"/>
<path d="M143.944 74.4062V79H142.771V71.3636H143.905V72.5568H144.004C144.183 72.169 144.455 71.8574 144.819 71.6221C145.184 71.3835 145.655 71.2642 146.231 71.2642C146.748 71.2642 147.201 71.3702 147.588 71.5823C147.976 71.7911 148.278 72.1093 148.493 72.5369C148.709 72.9611 148.816 73.4981 148.816 74.1477V79H147.643V74.2272C147.643 73.6273 147.487 73.16 147.176 72.8252C146.864 72.4872 146.437 72.3181 145.893 72.3181C145.519 72.3181 145.184 72.3993 144.889 72.5617C144.597 72.7242 144.367 72.9611 144.198 73.2727C144.029 73.5842 143.944 73.9621 143.944 74.4062Z" fill="black"/>
<path d="M139.199 79V71.3636H140.372V79H139.199ZM139.795 70.0909C139.566 70.0909 139.369 70.013 139.204 69.8572C139.041 69.7015 138.96 69.5142 138.96 69.2955C138.96 69.0767 139.041 68.8894 139.204 68.7337C139.369 68.5779 139.566 68.5 139.795 68.5C140.024 68.5 140.219 68.5779 140.382 68.7337C140.548 68.8894 140.63 69.0767 140.63 69.2955C140.63 69.5142 140.548 69.7015 140.382 69.8572C140.219 70.013 140.024 70.0909 139.795 70.0909Z" fill="black"/>
<path d="M131.233 79.0001V68.8182H132.466V77.9063H137.199V79.0001H131.233Z" fill="black"/>
<path d="M163.243 118V117.105L166.604 113.426C166.998 112.995 167.323 112.621 167.578 112.303C167.834 111.981 168.023 111.679 168.145 111.398C168.271 111.113 168.334 110.814 168.334 110.503C168.334 110.145 168.248 109.835 168.076 109.573C167.907 109.311 167.675 109.109 167.38 108.967C167.085 108.824 166.753 108.753 166.385 108.753C165.994 108.753 165.653 108.834 165.361 108.996C165.073 109.156 164.849 109.379 164.69 109.668C164.534 109.956 164.456 110.294 164.456 110.682H163.283C163.283 110.085 163.42 109.562 163.696 109.111C163.971 108.66 164.345 108.309 164.819 108.057C165.296 107.805 165.832 107.679 166.425 107.679C167.022 107.679 167.55 107.805 168.011 108.057C168.472 108.309 168.833 108.648 169.095 109.076C169.357 109.504 169.487 109.979 169.487 110.503C169.487 110.877 169.42 111.244 169.284 111.602C169.151 111.956 168.919 112.352 168.588 112.79C168.259 113.224 167.804 113.754 167.22 114.381L164.934 116.827V116.906H169.666V118H163.243Z" fill="black"/>
<path d="M152.304 115.216L152.284 113.764H152.523L155.864 110.364H157.316L153.756 113.963H153.656L152.304 115.216ZM151.21 118V107.818H152.384V118H151.21ZM156.063 118L153.08 114.222L153.915 113.406L157.554 118H156.063Z" fill="black"/>
<path d="M143.944 113.406V118H142.771V110.364H143.905V111.557H144.004C144.183 111.169 144.455 110.857 144.819 110.622C145.184 110.383 145.655 110.264 146.231 110.264C146.748 110.264 147.201 110.37 147.588 110.582C147.976 110.791 148.278 111.109 148.493 111.537C148.709 111.961 148.816 112.498 148.816 113.148V118H147.643V113.227C147.643 112.627 147.487 112.16 147.176 111.825C146.864 111.487 146.437 111.318 145.893 111.318C145.519 111.318 145.184 111.399 144.889 111.562C144.597 111.724 144.367 111.961 144.198 112.273C144.029 112.584 143.944 112.962 143.944 113.406Z" fill="black"/>
<path d="M139.199 118V110.364H140.372V118H139.199ZM139.795 109.091C139.566 109.091 139.369 109.013 139.204 108.857C139.041 108.701 138.96 108.514 138.96 108.295C138.96 108.077 139.041 107.889 139.204 107.734C139.369 107.578 139.566 107.5 139.795 107.5C140.024 107.5 140.219 107.578 140.382 107.734C140.548 107.889 140.63 108.077 140.63 108.295C140.63 108.514 140.548 108.701 140.382 108.857C140.219 109.013 140.024 109.091 139.795 109.091Z" fill="black"/>
<path d="M131.233 118V107.818H132.466V116.906H137.199V118H131.233Z" fill="black"/>
<path d="M415.272 64.6037L415.267 62.4312H415.556L418.3 59.3637H420.403L417.027 63.1222H416.655L415.272 64.6037ZM413.632 67.0001V56.8182H415.432V67.0001H413.632ZM418.424 67.0001L415.939 63.5249L417.152 62.2572L420.577 67.0001H418.424Z" fill="#CCE4FF"/>
<path d="M406.65 62.5256V67.0001H404.851V59.3637H406.571V60.6613H406.66C406.836 60.2337 407.116 59.894 407.5 59.6421C407.888 59.3902 408.367 59.2643 408.937 59.2643C409.464 59.2643 409.923 59.377 410.314 59.6023C410.709 59.8277 411.014 60.1542 411.229 60.5818C411.448 61.0093 411.556 61.528 411.552 62.1379V67.0001H409.753V62.4163C409.753 61.9059 409.62 61.5065 409.355 61.2181C409.093 60.9298 408.73 60.7856 408.266 60.7856C407.951 60.7856 407.671 60.8552 407.426 60.9944C407.184 61.1303 406.993 61.3275 406.854 61.586C406.718 61.8445 406.65 62.1577 406.65 62.5256Z" fill="#CCE4FF"/>
<path d="M400.95 67.0001V59.3637H402.75V67.0001H400.95ZM401.855 58.2799C401.57 58.2799 401.325 58.1854 401.119 57.9965C400.914 57.8043 400.811 57.5739 400.811 57.3055C400.811 57.0337 400.914 56.8033 401.119 56.6144C401.325 56.4222 401.57 56.326 401.855 56.326C402.143 56.326 402.389 56.4222 402.591 56.6144C402.796 56.8033 402.899 57.0337 402.899 57.3055C402.899 57.5739 402.796 57.8043 402.591 57.9965C402.389 58.1854 402.143 58.2799 401.855 58.2799Z" fill="#CCE4FF"/>
<path d="M392.85 67.0001V56.8182H394.695V65.4539H399.179V67.0001H392.85Z" fill="#CCE4FF"/>
<path d="M390.628 62.0186V63.5001H386.044V62.0186H390.628Z" fill="#CCE4FF"/>
<path d="M382.099 67.0001V59.3637H383.898V67.0001H382.099ZM383.004 58.2799C382.718 58.2799 382.473 58.1854 382.268 57.9965C382.062 57.8043 381.959 57.5739 381.959 57.3055C381.959 57.0337 382.062 56.8033 382.268 56.6144C382.473 56.4222 382.718 56.326 383.004 56.326C383.292 56.326 383.537 56.4222 383.739 56.6144C383.945 56.8033 384.048 57.0337 384.048 57.3055C384.048 57.5739 383.945 57.8043 383.739 57.9965C383.537 58.1854 383.292 58.2799 383.004 58.2799Z" fill="#CCE4FF"/>
<path d="M380.344 59.3637V60.7558H375.954V59.3637H380.344ZM377.037 57.5342H378.837V64.7032C378.837 64.9452 378.874 65.1308 378.947 65.26C379.023 65.386 379.122 65.4722 379.245 65.5186C379.367 65.565 379.503 65.5882 379.652 65.5882C379.765 65.5882 379.868 65.5799 379.961 65.5633C380.057 65.5467 380.13 65.5318 380.179 65.5186L380.483 66.9255C380.387 66.9587 380.249 66.9951 380.07 67.0349C379.894 67.0747 379.679 67.0979 379.424 67.1045C378.973 67.1177 378.567 67.0498 378.206 66.9007C377.844 66.7482 377.558 66.5129 377.346 66.1947C377.137 65.8765 377.034 65.4788 377.037 65.0015V57.5342Z" fill="#CCE4FF"/>
<path d="M374.43 56.8182V67.0001H372.63V56.8182H374.43Z" fill="#CCE4FF"/>
<path d="M368.729 63.7884V59.3636H370.529V67H368.784V65.6428H368.705C368.532 66.0703 368.249 66.42 367.854 66.6918C367.463 66.9636 366.981 67.0994 366.408 67.0994C365.907 67.0994 365.465 66.9884 365.08 66.7663C364.699 66.541 364.401 66.2145 364.185 65.7869C363.97 65.3561 363.862 64.8357 363.862 64.2259V59.3636H365.662V63.9475C365.662 64.4314 365.795 64.8158 366.06 65.1009C366.325 65.3859 366.673 65.5284 367.104 65.5284C367.369 65.5284 367.626 65.4638 367.874 65.3345C368.123 65.2053 368.327 65.013 368.486 64.7578C368.648 64.4993 368.729 64.1761 368.729 63.7884Z" fill="#CCE4FF"/>
<path d="M351.004 56.8182H353.261L356.284 64.1961H356.404L359.426 56.8182H361.683V67.0001H359.913V60.005H359.819L357.005 66.9702H355.683L352.869 59.9901H352.774V67.0001H351.004V56.8182Z" fill="#CCE4FF"/>
<defs>
<linearGradient id="paint0_linear_666_24883" x1="440.381" y1="115" x2="302.095" y2="115" gradientUnits="userSpaceOnUse">
<stop stop-color="#B9D5F0"/>
<stop offset="1" stop-color="white" stop-opacity="0"/>
</linearGradient>
<linearGradient id="paint1_linear_666_24883" x1="398.813" y1="73" x2="259.688" y2="73" gradientUnits="userSpaceOnUse">
<stop stop-color="#A5A5A5"/>
<stop offset="1" stop-color="#D9D9D9" stop-opacity="0"/>
</linearGradient>
<linearGradient id="paint2_linear_666_24883" x1="431.923" y1="86.125" x2="235.884" y2="86.125" gradientUnits="userSpaceOnUse">
<stop stop-color="#A5A5A5"/>
<stop offset="1" stop-color="#D9D9D9" stop-opacity="0"/>
</linearGradient>
<linearGradient id="paint3_linear_666_24883" x1="460.5" y1="99.25" x2="182.25" y2="99.25" gradientUnits="userSpaceOnUse">
<stop stop-color="#A5A5A5"/>
<stop offset="1" stop-color="#D9D9D9" stop-opacity="0"/>
</linearGradient>
<linearGradient id="paint4_linear_666_24883" x1="109.5" y1="83" x2="61" y2="83" gradientUnits="userSpaceOnUse">
<stop stop-color="#A8D1FF"/>
<stop offset="1" stop-color="#A8D1FF" stop-opacity="0"/>
</linearGradient>
<linearGradient id="paint5_linear_666_24883" x1="103.5" y1="67" x2="50.5" y2="67" gradientUnits="userSpaceOnUse">
<stop stop-color="#A5A5A5"/>
<stop offset="1" stop-color="#D9D9D9" stop-opacity="0"/>
</linearGradient>
<linearGradient id="paint6_linear_666_24883" x1="116.114" y1="72" x2="41.4318" y2="72" gradientUnits="userSpaceOnUse">
<stop stop-color="#A5A5A5"/>
<stop offset="1" stop-color="#D9D9D9" stop-opacity="0"/>
</linearGradient>
<linearGradient id="paint7_linear_666_24883" x1="127" y1="77" x2="21" y2="77" gradientUnits="userSpaceOnUse">
<stop stop-color="#A5A5A5"/>
<stop offset="1" stop-color="#D9D9D9" stop-opacity="0"/>
</linearGradient>
<linearGradient id="paint8_linear_666_24883" x1="97.4205" y1="121" x2="35.8864" y2="121" gradientUnits="userSpaceOnUse">
<stop stop-color="#84DFBF"/>
<stop offset="1" stop-color="#84DFBF" stop-opacity="0"/>
</linearGradient>
<linearGradient id="paint9_linear_666_24883" x1="103.5" y1="105" x2="50.5" y2="105" gradientUnits="userSpaceOnUse">
<stop stop-color="#A5A5A5"/>
<stop offset="1" stop-color="#D9D9D9" stop-opacity="0"/>
</linearGradient>
<linearGradient id="paint10_linear_666_24883" x1="116.114" y1="110" x2="41.4318" y2="110" gradientUnits="userSpaceOnUse">
<stop stop-color="#A5A5A5"/>
<stop offset="1" stop-color="#D9D9D9" stop-opacity="0"/>
</linearGradient>
<linearGradient id="paint11_linear_666_24883" x1="127" y1="115" x2="21" y2="115" gradientUnits="userSpaceOnUse">
<stop stop-color="#A5A5A5"/>
<stop offset="1" stop-color="#D9D9D9" stop-opacity="0"/>
</linearGradient>
</defs>
</svg>
