<svg width="24" height="24" viewBox="0 0 24 24" fill="none" xmlns="http://www.w3.org/2000/svg">
<path fill-rule="evenodd" clip-rule="evenodd" d="M10.0016 1.5H14.0016C14.5516 1.5 15.0016 1.95 15.0016 2.5C15.0016 3.05 14.5516 3.5 14.0016 3.5H10.0016C9.45156 3.5 9.00156 3.05 9.00156 2.5C9.00156 1.95 9.45156 1.5 10.0016 1.5ZM13.0016 13.5C13.0016 14.05 12.5516 14.5 12.0016 14.5C11.4516 14.5 11.0016 14.05 11.0016 13.5V9.5C11.0016 8.95 11.4516 8.5 12.0016 8.5C12.5516 8.5 13.0016 8.95 13.0016 9.5V13.5ZM19.0316 7.89L19.7816 7.14C20.1616 6.76 20.1716 6.13 19.7816 5.74L19.7716 5.73C19.3816 5.34 18.7616 5.35 18.3716 5.73L17.6216 6.48C16.0716 5.24 14.1216 4.5 12.0016 4.5C7.20156 4.5 3.12157 8.46 3.00157 13.26C2.87157 18.34 6.94157 22.5 12.0016 22.5C16.9816 22.5 21.0016 18.47 21.0016 13.5C21.0016 11.38 20.2616 9.43 19.0316 7.89ZM5.00156 13.5C5.00156 17.37 8.13157 20.5 12.0016 20.5C15.8716 20.5 19.0016 17.37 19.0016 13.5C19.0016 9.63 15.8716 6.5 12.0016 6.5C8.13157 6.5 5.00156 9.63 5.00156 13.5Z" fill="#B9C5D5"/>
</svg>
