<svg width="24" height="24" viewBox="0 0 24 24" fill="none" xmlns="http://www.w3.org/2000/svg">
<path d="M7.5 5.5H3V23H21V5.5H17.5" stroke="#EBEBEB" stroke-width="1.2"/>
<path d="M9 4C13.1875 4 16.5625 7.375 16.5625 11.5625" stroke="#EBEBEB" stroke-width="1.2" stroke-linecap="square" stroke-linejoin="round"/>
<path d="M9.3125 7.4375C11.375 7.4375 13.0625 9.125 13.0625 11.1875" stroke="#EBEBEB" stroke-width="1.2" stroke-linecap="square" stroke-linejoin="round"/>
<path d="M4.30184 19V15.04H5.50184L7.03184 18.1L8.56184 15.04H9.76184V19H8.86184V16.06L7.39184 19H6.67184L5.20184 16.06V19H4.30184ZM10.6007 19V15.04H11.5007V18.49H14.8007V19H10.6007ZM15.3995 18.19V15.85C15.3995 15.04 16.1195 15.04 16.8395 15.04H18.4595C19.1795 15.04 19.8995 15.04 19.8995 15.85V18.19C19.8995 19 19.1795 19 18.4595 19H16.8395C16.1195 19 15.3995 19 15.3995 18.19ZM16.2995 18.28C16.2995 18.49 16.4795 18.49 16.6595 18.49H18.6395C18.8195 18.49 18.9995 18.49 18.9995 18.28V15.76C18.9995 15.55 18.8195 15.55 18.6395 15.55H16.6595C16.4795 15.55 16.2995 15.55 16.2995 15.76V18.28Z" fill="#EBEBEB"/>
</svg>
