<svg width="24" height="24" viewBox="0 0 24 24" fill="none" xmlns="http://www.w3.org/2000/svg">
<path d="M21 5.5V23H3V5.5H7.5" stroke="#EBEBEB" stroke-width="1.2"/>
<path d="M9 4C13.1875 4 16.5625 7.375 16.5625 11.5625" stroke="#EBEBEB" stroke-width="1.2" stroke-linecap="square" stroke-linejoin="round"/>
<path d="M9.3125 7.4375C11.375 7.4375 13.0625 9.125 13.0625 11.1875" stroke="#EBEBEB" stroke-width="1.2" stroke-linecap="square" stroke-linejoin="round"/>
<path d="M9.84518 18.92V15.356C9.84518 14.492 10.3852 14.06 11.4652 14.06H14.7052V14.825H11.8252C11.3452 14.825 11.1052 15.017 11.1052 15.401V16.445H13.8052C14.7052 16.445 15.1552 16.805 15.1552 17.525V18.92C15.1552 19.64 14.7052 20 13.8052 20H11.1952C10.2952 20 9.84518 19.64 9.84518 18.92ZM11.1052 18.947C11.1052 19.139 11.2252 19.235 11.4652 19.235H13.5352C13.7752 19.235 13.8952 19.139 13.8952 18.947V17.498C13.8952 17.306 13.7752 17.21 13.5352 17.21H11.1052V18.947Z" fill="#EBEBEB"/>
<circle cx="19" cy="5" r="4.75" fill="black" stroke="white" stroke-width="0.5"/>
<path fill-rule="evenodd" clip-rule="evenodd" d="M17.9163 3.25008C17.9163 2.65177 18.4014 2.16675 18.9997 2.16675C19.598 2.16675 20.083 2.65177 20.083 3.25008V3.66675H17.9163V3.25008ZM17.4163 3.69015V3.25008C17.4163 2.37563 18.1252 1.66675 18.9997 1.66675C19.8741 1.66675 20.583 2.37563 20.583 3.25008V3.69015C21.1999 3.80717 21.6663 4.34915 21.6663 5.00008V7.00008C21.6663 7.73646 21.0694 8.33342 20.333 8.33342H17.6663C16.93 8.33342 16.333 7.73646 16.333 7.00008V5.00008C16.333 4.34915 16.7995 3.80717 17.4163 3.69015ZM19.6663 6.00008C19.6663 6.36827 19.3679 6.66675 18.9997 6.66675C18.6315 6.66675 18.333 6.36827 18.333 6.00008C18.333 5.63189 18.6315 5.33341 18.9997 5.33341C19.3679 5.33341 19.6663 5.63189 19.6663 6.00008Z" fill="#FF3535"/>
</svg>
