<svg width="24" height="24" viewBox="0 0 24 24" fill="none" xmlns="http://www.w3.org/2000/svg">
<path d="M7.5 5.5H3V23H21V5.5H17.5" stroke="#EBEBEB" stroke-width="1.2"/>
<path d="M9 4C13.1875 4 16.5625 7.375 16.5625 11.5625" stroke="#EBEBEB" stroke-width="1.2" stroke-linecap="square" stroke-linejoin="round"/>
<path d="M9.3125 7.4375C11.375 7.4375 13.0625 9.125 13.0625 11.1875" stroke="#EBEBEB" stroke-width="1.2" stroke-linecap="square" stroke-linejoin="round"/>
<path d="M4.80123 20V17.525C4.80123 16.805 5.25123 16.445 6.15123 16.445H8.49123C8.73123 16.445 8.85123 16.349 8.85123 16.157V15.113C8.85123 14.921 8.73123 14.825 8.49123 14.825H5.25123V14.06H8.76123C9.66123 14.06 10.1112 14.42 10.1112 15.14V16.13C10.1112 16.85 9.66123 17.21 8.76123 17.21H6.42123C6.18123 17.21 6.06123 17.306 6.06123 17.498V19.235H10.1112V20H4.80123ZM11.3709 20V18.92H12.6309V20H11.3709ZM13.8891 18.785V18.02L17.6241 14.06H19.1991V20H17.9391V18.785H13.8891ZM15.3471 18.02H17.9391V15.275L15.3471 18.02Z" fill="#EBEBEB"/>
</svg>
