<svg width="24" height="24" viewBox="0 0 24 24" fill="none" xmlns="http://www.w3.org/2000/svg">
<path d="M7.5 5.5H3V23H21V5.5H17.5" stroke="#EBEBEB" stroke-width="1.2"/>
<path d="M9 4C13.1875 4 16.5625 7.375 16.5625 11.5625" stroke="#EBEBEB" stroke-width="1.2" stroke-linecap="square" stroke-linejoin="round"/>
<path d="M9.3125 7.4375C11.375 7.4375 13.0625 9.125 13.0625 11.1875" stroke="#EBEBEB" stroke-width="1.2" stroke-linecap="square" stroke-linejoin="round"/>
<path d="M9.84518 20V19.235H13.5352C13.7752 19.235 13.8952 19.139 13.8952 18.947V17.498C13.8952 17.306 13.7752 17.21 13.5352 17.21H9.84518V14.06H14.7952V14.825H11.1052V16.445H13.8052C14.7052 16.445 15.1552 16.805 15.1552 17.525V18.92C15.1552 19.64 14.7052 20 13.8052 20H9.84518Z" fill="#EBEBEB"/>
</svg>
