<svg width="24" height="24" viewBox="0 0 24 24" fill="none" xmlns="http://www.w3.org/2000/svg">
<path d="M7.5 5.5H3V23H21V5.5H17.5" stroke="#EBEBEB" stroke-width="1.2"/>
<path d="M9 4C13.1875 4 16.5625 7.375 16.5625 11.5625" stroke="#EBEBEB" stroke-width="1.2" stroke-linecap="square" stroke-linejoin="round"/>
<path d="M9.3125 7.4375C11.375 7.4375 13.0625 9.125 13.0625 11.1875" stroke="#EBEBEB" stroke-width="1.2" stroke-linecap="square" stroke-linejoin="round"/>
<path d="M9.84518 18.92V15.356C9.84518 14.492 10.3852 14.06 11.4652 14.06H14.7052V14.825H11.8252C11.3452 14.825 11.1052 15.017 11.1052 15.401V16.445H13.8052C14.7052 16.445 15.1552 16.805 15.1552 17.525V18.92C15.1552 19.64 14.7052 20 13.8052 20H11.1952C10.2952 20 9.84518 19.64 9.84518 18.92ZM11.1052 18.947C11.1052 19.139 11.2252 19.235 11.4652 19.235H13.5352C13.7752 19.235 13.8952 19.139 13.8952 18.947V17.498C13.8952 17.306 13.7752 17.21 13.5352 17.21H11.1052V18.947Z" fill="#EBEBEB"/>
</svg>
