<svg xmlns="http://www.w3.org/2000/svg" width="24" height="20" viewBox="0 0 24 20">
  <path fill="#2ED9C3" d="M18.8657189,16.6676367 C21.0202405,16.6676367 24,17.5656745 24,19.1984703 L24,19.5567238 L15.864,19.556 L15.827239,19.5581256 L6.73982903,19.5581256 C6.27976889,19.5581256 5.90681645,19.1867351 5.90681645,18.7286017 C5.90681645,18.3010105 6.23169946,17.948982 6.64906313,17.9039453 L6.73982903,17.8990777 L13.163,17.899 L13.1635353,19.5548591 L14.164,19.554 L14.1648012,19.1984703 C14.1648012,17.5656745 16.7111974,16.6676367 18.8657189,16.6676367 Z M2.29062785,1.50956077 L2.29062785,2.80347 C1.52825611,2.80347 1.42525761,3.36218299 1.36747224,4.07178174 L1.36311149,4.17930221 L1.36311149,12.9390923 C1.36311149,14.1273649 2.34292296,15.0984084 3.57747699,15.163964 L3.71069239,15.1674916 L15.5354247,15.1684105 C15.629601,15.3536985 15.7367779,15.5300165 15.8556581,15.6959037 C15.0678963,16.0279813 14.3284779,16.1580097 13.8246439,16.4609619 L3.71069239,16.4614008 C1.71672165,16.4614008 0.0900852516,14.9685004 0.00361547624,13.0959898 L2.66453526e-14,12.9390923 L2.66453526e-14,4.17930221 C2.66453526e-14,2.75240787 0.806753086,1.58326574 2.29062785,1.50956077 Z M18.8197218,10.1517369 C20.3746199,10.1517369 21.6297786,11.4413629 21.6297786,13.0389592 C21.6297786,14.6365556 20.3746199,15.9261816 18.8197218,15.9261816 C17.2648237,15.9261816 16.009665,14.6365556 16.009665,13.0389592 C16.009665,11.4413629 17.2648237,10.1517369 18.8197218,10.1517369 Z M18.2591454,0 C18.964591,0.00075207 19.5446305,0.50953922 19.6150761,1.16167815 L19.6222569,1.29390923 L19.6229979,9.2318971 C19.3642838,9.1707016 19.0955204,9.138467 18.8197218,9.138467 C18.7076082,9.138467 18.596657,9.1437937 18.4870709,9.1542271 L18.4871553,2.48149595 C18.4863102,1.76722216 17.8765192,1.18838892 17.1240438,1.18758672 L5.15523805,1.18758672 C4.4027627,1.18838892 3.79297167,1.76722216 3.79212656,2.48149595 L3.79212656,11.0572049 C3.79297167,11.7714787 4.4027627,12.350312 5.15523805,12.3511142 L15.1559718,12.3507775 C15.1015948,12.6270937 15.0729794,12.9138773 15.0729794,13.2080288 C15.0729794,13.2836213 15.0748692,13.3587271 15.078601,13.4332925 L4.17863336,13.4339927 C3.47318771,13.4332407 2.89314822,12.9244535 2.82270258,12.2723146 L2.81552187,12.1400835 L2.81552187,1.29390923 C2.81631416,0.62427756 3.35231282,0.07368542 4.03933014,0.00681616 L4.17863336,0 L18.2591454,0 Z M20.2621638,1.50956077 C21.8423135,1.50956077 22.4841235,2.68749552 22.563225,4.16876458 L22.567068,4.31303078 L22.567068,12.9390923 L22.5642013,13.064964 C22.5259201,11.8567833 22.0046141,10.7836828 21.2031084,10.0659629 L21.2039565,4.31303078 C21.2039565,3.51557153 21.087455,2.85874802 20.2621638,2.80347 L20.2621638,1.50956077 Z M7.68000645,10.0681867 C7.86105405,10.0681867 8.01210708,10.1933924 8.04704146,10.3598368 L8.05465295,10.4334501 L16.0773351,10.4329234 C15.8871502,10.6545907 15.7195252,10.8994069 15.5783974,11.1630952 L8.05465295,11.163977 C8.05465295,11.3657065 7.886918,11.5292405 7.68000645,11.5292405 C7.49895884,11.5292405 7.34790581,11.4040347 7.31297143,11.2375903 L7.30535994,11.163977 L5.58286876,11.163977 C5.37595721,11.163977 5.20822225,11.000443 5.20822225,10.7987136 C5.20822225,10.6222003 5.33664433,10.4749304 5.50736442,10.440871 L5.58286876,10.4334501 L7.30535994,10.4334501 C7.30535994,10.2317207 7.4730949,10.0681867 7.68000645,10.0681867 Z M11.2673905,2.04598815 L11.348233,2.06512131 L17.0126839,4.12737863 C17.1516614,4.17799563 17.2439918,4.3089204 17.2439918,4.45537366 C17.2439918,4.60182692 17.1516614,4.7327517 17.0126839,4.7833687 L17.0126839,4.7833687 L16.5284219,4.95966548 L16.5284219,6.72036576 C16.5672866,7.30768139 16.4494613,7.6013392 16.1749461,7.6013392 C15.9004308,7.6013392 15.7826055,7.30768139 15.8214702,6.72036576 L15.8214702,6.72036576 L15.8214702,5.21705442 L14.7610425,5.60307229 L14.7610425,9.0897728 C14.7610425,9.2828157 14.602786,9.4393079 14.4075667,9.4393079 L14.4075667,9.4393079 L8.0450009,9.4393079 C7.84978157,9.4393079 7.69152503,9.2828157 7.69152503,9.0897728 L7.69152503,9.0897728 L7.69152503,5.60307229 L5.43953022,4.7833687 C5.30055275,4.7327517 5.20822225,4.60182692 5.20822225,4.45537366 C5.20822225,4.3089204 5.30055275,4.17799563 5.43953022,4.12737863 L5.43953022,4.12737863 L11.1039811,2.06512131 C11.1828119,2.03642157 11.2694022,2.03642157 11.348233,2.06512131 L11.2673905,2.04598815 Z M14.0540908,5.86046123 L11.3484097,6.84532017 C11.2695824,6.87403904 11.1829852,6.87403904 11.1041579,6.84532017 L11.1041579,6.84532017 L8.39847678,5.86046123 L8.39847678,8.7402377 L14.0540908,8.7402377 L14.0540908,5.86046123 Z"/>
</svg>
