<svg xmlns="http://www.w3.org/2000/svg" width="24" height="16" viewBox="0 0 24 16">
  <path fill="#2ED9C3" d="M23.9801278,9.1672236 C24.024869,6.3994385 23.3265099,3.6721334 21.9610742,1.28220419 C21.8292922,1.08241498 21.6673923,0.90525077 21.4813979,0.757303 C20.5126087,0.04905758 19.2842673,-0.17711569 18.1348603,0.1411084 C17.9722922,0.21952597 17.8278227,0.33230824 17.7109799,0.47201707 L16.7851235,1.61306494 C16.4452743,2.03248537 15.9453638,2.28194328 15.4130403,2.29774159 L8.46347248,2.29774159 C7.95061298,2.30492975 7.45781242,2.09419287 7.10253907,1.71576404 L6.17668272,0.57466825 C6.06031299,0.4344486 5.91572721,0.32157551 5.75280232,0.24375958 C5.42937845,0.12501118 5.09159811,0.05206736 4.74885041,0.02695569 C3.92260044,0.03454376 3.11782052,0.29702316 2.43976102,0.78006645 C2.24584806,0.92618426 2.07633111,1.10344304 1.93778506,1.30496764 C0.607406825,3.69738001 -0.0598260792,6.4156959 0.00792994797,9.1672236 C-0.0924652432,15.1237714 0.766492213,15.6943432 2.23892378,15.9225528 C3.71135536,16.1507624 5.09463525,13.1268657 5.63006065,11.985722 L5.71930603,11.8145409 C5.93293882,11.3980247 6.24318992,11.0414741 6.62286275,10.7761442 C8.24762301,9.9765509 10.04284,9.6076893 11.8434127,9.7034825 L12.1668979,9.7034825 C13.9806715,9.6250497 15.7843354,10.0176101 17.4097943,10.8445783 C17.7900623,11.1092153 18.10046,11.4659344 18.313351,11.882975 L18.4025964,12.0541561 C18.9826679,13.1952519 20.5443449,16.1849794 21.8271827,15.9909869 C23.1100206,15.7969944 24.1586186,15.1237714 23.9801278,9.1672236 L23.9801278,9.1672236 Z M6.97984425,7.52399 C6.97984425,7.6437275 6.88495539,7.7407939 6.76790405,7.7407939 L5.50736583,7.7407939 L5.50736583,9.0416652 C5.50736583,9.1614026 5.41247697,9.258469 5.29542563,9.258469 L4.03488741,9.258469 C3.91783607,9.258469 3.82294721,9.1614026 3.82294721,9.0416652 L3.82294721,7.7407939 L2.51780973,7.7407939 C2.40075839,7.7407939 2.30586953,7.6437275 2.30586953,7.52399 L2.30586953,6.2801951 C2.29219976,6.2153135 2.30833552,6.1476013 2.34965982,6.0964331 C2.39098412,6.0452649 2.45294365,6.0162787 2.51780973,6.0177685 L3.82294721,6.0177685 L3.82294721,4.70549157 C3.77795761,4.63354091 3.77845616,4.54127442 3.82422053,4.46983691 C3.8699849,4.39839939 3.95248621,4.36110433 4.03493426,4.37458289 L5.29547248,4.37458289 C5.41252382,4.37458289 5.50741268,4.4716493 5.50741268,4.59138678 L5.50741268,5.89225803 L6.79025053,5.89225803 C6.90730187,5.89225803 7.00219073,5.98932443 7.00219073,6.1090619 L6.97984425,7.52399 L6.97984425,7.52399 Z M19.4176981,3.61001852 C20.0337957,3.61001852 20.5331951,4.12092618 20.5331951,4.75111431 C20.5331951,5.38130244 20.0337489,5.8922101 19.4176981,5.8922101 C18.8016474,5.8922101 18.3022012,5.38130244 18.3022012,4.75111431 C18.3022012,4.12092618 18.8016474,3.61001852 19.4176981,3.61001852 Z M17.5882851,7.6609541 C16.9721875,7.6609541 16.4727881,7.1500464 16.4727881,6.5198583 C16.4727881,5.88967018 16.9722343,5.37876252 17.5882851,5.37876252 C18.2043358,5.37876252 18.703782,5.88967018 18.703782,6.5198583 C18.703782,7.1500464 18.2043827,7.6609541 17.5882851,7.6609541 Z M19.4176981,9.3840274 C18.8016005,9.3840274 18.3022012,8.8731198 18.3022012,8.2429316 C18.3022012,7.6127435 18.8016474,7.1018359 19.4176981,7.1018359 C20.0337489,7.1018359 20.5331951,7.6127435 20.5331951,8.2429316 C20.5331951,8.8731198 20.0337957,9.3840274 19.4176981,9.3840274 Z M21.2471581,7.6609541 C20.6310605,7.6609541 20.1316611,7.1500464 20.1316611,6.5198583 C20.1316611,5.88967018 20.6311073,5.37876252 21.2471581,5.37876252 C21.8632088,5.37876252 22.362655,5.88967018 22.362655,6.5198583 C22.362655,7.1500464 21.8632088,7.6609541 21.2471581,7.6609541 Z"/>
</svg>
