<svg xmlns="http://www.w3.org/2000/svg" width="24" height="18" viewBox="0 0 24 18">
  <path fill="#2ED9C3" d="M19.3518915,0 L4.64805274,0 C2.08400795,0.00730624 0.00730624209,2.08406373 0,4.64805274 L0,12.7356723 C0.0717238727,15.2529237 2.12979745,17.2580689 4.64805274,17.2642039 L19.3519473,17.2642039 C21.915992,17.2568976 23.9926938,15.1801401 24,12.6161511 L24,4.59490123 C23.9637477,2.05171548 21.8954119,0.00702738 19.3518915,0 Z M9.92025934,12.908345 C9.6196995,13.0771137 9.23921719,12.9702529 9.07044857,12.6696931 C9.0202039,12.5802292 8.99280925,12.4797502 8.99069341,12.3771645 L8.99069341,4.88709514 C8.99788811,4.54247476 9.28311041,4.26890897 9.62778657,4.27610367 C9.73035282,4.27822304 9.83085548,4.30566328 9.92031511,4.35585883 L16.4010634,8.1008935 C16.6981095,8.2757971 16.7971063,8.6583988 16.6222027,8.955445 C16.5684526,9.0467317 16.4923501,9.1228341 16.4010634,9.1765843 L16.4010634,9.1633104 L9.92025934,12.908345 Z"/>
</svg>
